<svg width="24" height="24" viewBox="0 0 24 24" fill="none" xmlns="http://www.w3.org/2000/svg">
<g clip-path="url(#clip0_406_3714)">
<path d="M4.00015 6.00007C3.6059 6.0011 3.21536 5.92395 2.85113 5.77307C2.48689 5.62219 2.15619 5.40059 1.87815 5.12107L0.293152 3.53607L1.70715 2.12207L3.29315 3.70707C3.48352 3.8891 3.73676 3.99069 4.00015 3.99069C4.26354 3.99069 4.51678 3.8891 4.70715 3.70707L8.29315 0.12207L9.70715 1.53607L6.12115 5.12107C5.84337 5.40064 5.51285 5.6223 5.14877 5.77319C4.78468 5.92407 4.39426 6.00119 4.00015 6.00007V6.00007ZM24.0002 3.00007H12.0002V5.00007H24.0002V3.00007ZM6.12115 13.1211L9.70715 9.53607L8.29315 8.12207L4.70715 11.7071C4.51678 11.8891 4.26354 11.9907 4.00015 11.9907C3.73676 11.9907 3.48352 11.8891 3.29315 11.7071L1.70715 10.1221L0.293152 11.5361L1.87815 13.1211C2.15673 13.3997 2.48747 13.6207 2.85148 13.7715C3.21549 13.9223 3.60564 13.9999 3.99965 13.9999C4.39366 13.9999 4.78381 13.9223 5.14782 13.7715C5.51183 13.6207 5.84257 13.3997 6.12115 13.1211V13.1211ZM24.0002 11.0001H12.0002V13.0001H24.0002V11.0001ZM6.12115 21.1211L9.70715 17.5361L8.29315 16.1221L4.70715 19.7071C4.51678 19.8891 4.26354 19.9907 4.00015 19.9907C3.73676 19.9907 3.48352 19.8891 3.29315 19.7071L1.70715 18.1221L0.293152 19.5361L1.87815 21.1211C2.15673 21.3997 2.48747 21.6207 2.85148 21.7715C3.21549 21.9223 3.60564 21.9999 3.99965 21.9999C4.39366 21.9999 4.78381 21.9223 5.14782 21.7715C5.51183 21.6207 5.84257 21.3997 6.12115 21.1211V21.1211ZM24.0002 19.0001H12.0002V21.0001H24.0002V19.0001Z" fill="#374957"/>
</g>
<defs>
<clipPath id="clip0_406_3714">
<rect width="24" height="24" fill="white"/>
</clipPath>
</defs>
</svg>
