<svg width="24" height="24" viewBox="0 0 24 24" fill="none" xmlns="http://www.w3.org/2000/svg">
<g clip-path="url(#clip0_406_3571)">
<path d="M23.9999 2V6H21.9999V3.414L19.5999 5.814C20.6658 7.23596 21.1535 9.00894 20.9647 10.776C20.7759 12.5431 19.9247 14.173 18.5824 15.3377C17.2402 16.5024 15.5065 17.1153 13.7305 17.0531C11.9545 16.9909 10.2679 16.2582 9.01044 15.0025C7.75294 13.7467 7.01785 12.0612 6.95314 10.2853C6.88843 8.50936 7.49892 6.77485 8.66169 5.43094C9.82447 4.08703 11.4532 3.23352 13.22 3.04223C14.9868 2.85095 16.7604 3.33609 18.1839 4.4L20.5839 2H17.9999V0H21.9999C22.5303 0 23.039 0.210714 23.4141 0.585786C23.7892 0.960859 23.9999 1.46957 23.9999 2ZM7.99992 16.683C7.03861 15.8265 6.27314 14.7729 5.75566 13.594C5.23818 12.415 4.98083 11.1384 5.00114 9.85101C5.02145 8.56364 5.31894 7.29577 5.87335 6.13372C6.42776 4.97168 7.22607 3.94275 8.21392 3.117C7.81342 3.04282 7.40722 3.00368 6.99993 3C5.2396 3.01356 3.549 3.68987 2.26503 4.89418C0.981056 6.09849 0.197977 7.74235 0.0718378 9.49821C-0.0543012 11.2541 0.485761 12.993 1.58441 14.3685C2.68305 15.7439 4.25961 16.655 5.99993 16.92V19H2.99993V21H5.99993V24H7.99992V21H10.9999V19H7.99992V16.683Z" fill="#374957"/>
</g>
<defs>
<clipPath id="clip0_406_3571">
<rect width="24" height="24" fill="white"/>
</clipPath>
</defs>
</svg>
