<svg width="24" height="24" viewBox="0 0 24 24" fill="none" xmlns="http://www.w3.org/2000/svg">
<g clip-path="url(#clip0_406_3608)">
<path d="M13.1452 0.0606685C15.9209 0.322729 18.5182 1.54477 20.4896 3.5162C22.4611 5.48764 23.6831 8.08498 23.9452 10.8607C22.4697 11.1178 20.9541 11.0161 19.5262 10.5643C18.0983 10.1125 16.8001 9.3238 15.7411 8.26479C14.682 7.20578 13.8934 5.90753 13.4416 4.47964C12.9897 3.05174 12.8881 1.53611 13.1452 0.0606685V0.0606685ZM8.27618 15.7237C7.21626 14.6637 5.91529 13.8763 4.48461 13.4289C3.05394 12.9815 1.53616 12.8874 0.0611802 13.1547C0.325793 15.9254 1.54707 18.5175 3.5152 20.4856C5.48333 22.4538 8.07543 23.6751 10.8462 23.9397C11.1131 22.4645 11.0187 20.9465 10.5711 19.5158C10.1236 18.085 9.33614 16.7838 8.27618 15.7237V15.7237ZM22.3572 13.0007C20.7315 13.0014 19.1247 12.6524 17.6457 11.9774C16.1668 11.3024 14.8503 10.3172 13.7857 9.08858C12.7211 7.85997 11.9333 6.41673 11.4756 4.85679C11.0179 3.29685 10.9011 1.65671 11.1332 0.0476685C8.25697 0.246291 5.54984 1.47925 3.51203 3.51871C1.47423 5.55817 0.243468 8.26629 0.0471802 11.1427C1.79032 10.878 3.57127 11.0268 5.24633 11.577C6.92139 12.1272 8.44366 13.0635 9.69033 14.3103C10.937 15.557 11.8731 17.0794 12.4232 18.7545C12.9733 20.4296 13.122 22.2105 12.8572 23.9537C15.7331 23.7586 18.4413 22.5294 20.4815 20.4931C22.5218 18.4569 23.7564 15.7512 23.9572 12.8757C23.4274 12.9547 22.8928 12.9964 22.3572 13.0007V13.0007Z" fill="#374957"/>
</g>
<defs>
<clipPath id="clip0_406_3608">
<rect width="24" height="24" fill="white"/>
</clipPath>
</defs>
</svg>
