<svg width="24" height="24" viewBox="0 0 24 24" fill="none" xmlns="http://www.w3.org/2000/svg">
<g clip-path="url(#clip0_406_3731)">
<path d="M21 5.99963H13V1.99963H11V5.99963H3C2.20435 5.99963 1.44129 6.3157 0.87868 6.87831C0.31607 7.44092 0 8.20398 0 8.99963L0 19.9996H24V8.99963C24 8.20398 23.6839 7.44092 23.1213 6.87831C22.5587 6.3157 21.7956 5.99963 21 5.99963ZM9 9.99963H12V11.9996H9V9.99963ZM6 15.9996H4V13.9996H6V15.9996ZM7 11.9996H4V9.99963H7V11.9996ZM16 15.9996H8V13.9996H16V15.9996ZM20 15.9996H18V13.9996H20V15.9996ZM20 11.9996H14V9.99963H20V11.9996Z" fill="#374957"/>
</g>
<defs>
<clipPath id="clip0_406_3731">
<rect width="24" height="24" fill="white"/>
</clipPath>
</defs>
</svg>
