<svg width="24" height="24" viewBox="0 0 24 24" fill="none" xmlns="http://www.w3.org/2000/svg">
<g clip-path="url(#clip0_406_3648)">
<path d="M24 13.0007H0V11.0007H24V13.0007ZM8.886 0.427726L8.786 0.359726C8.40684 0.132289 7.97415 0.00947458 7.53205 0.00380656C7.08994 -0.00186146 6.65424 0.10982 6.26938 0.327462C5.88452 0.545104 5.56426 0.86092 5.34126 1.24271C5.11827 1.62449 5.00051 2.05859 5 2.50073V9.00073H19.916L8.886 0.427726ZM8.786 23.6417L19.916 15.0007H5V21.5007C4.99816 21.9439 5.11445 22.3796 5.33691 22.7629C5.55938 23.1463 5.87997 23.4634 6.26569 23.6817C6.65142 23.8999 7.08834 24.0115 7.53149 24.0048C7.97464 23.9981 8.40802 23.8735 8.787 23.6437L8.786 23.6417Z" fill="#374957"/>
</g>
<defs>
<clipPath id="clip0_406_3648">
<rect width="24" height="24" fill="white"/>
</clipPath>
</defs>
</svg>
