<svg width="24" height="24" viewBox="0 0 24 24" fill="none" xmlns="http://www.w3.org/2000/svg">
<g clip-path="url(#clip0_406_3797)">
<path d="M23.8208 11.181C22.8547 9.08568 21.4396 7.22849 19.6758 5.74097L22.7078 2.70897L21.2928 1.29297L17.9998 4.58297C16.1772 3.52869 14.1053 2.98207 11.9998 2.99997C4.49981 2.99997 1.05681 9.26097 0.17881 11.181C0.0609485 11.4383 -6.10352e-05 11.718 -6.10352e-05 12.001C-6.10352e-05 12.284 0.0609485 12.5637 0.17881 12.821C1.14495 14.9163 2.56003 16.7734 4.32381 18.261L1.29281 21.293L2.70681 22.707L5.99981 19.417C7.82245 20.4712 9.8943 21.0179 11.9998 21C19.4998 21 22.9428 14.739 23.8208 12.819C23.9384 12.562 23.9993 12.2826 23.9993 12C23.9993 11.7173 23.9384 11.438 23.8208 11.181V11.181ZM5.99981 12C5.99792 10.8986 6.29973 9.81798 6.87207 8.87697C7.44441 7.93596 8.26512 7.17096 9.24398 6.66608C10.2228 6.1612 11.322 5.93598 12.4205 6.01517C13.519 6.09436 14.5745 6.47491 15.4708 7.11497L14.0188 8.56697C13.4093 8.19937 12.7116 8.00345 11.9998 7.99997C10.9389 7.99997 9.92153 8.4214 9.17138 9.17154C8.42124 9.92169 7.99981 10.9391 7.99981 12C8.00329 12.7118 8.19921 13.4094 8.56681 14.019L7.11481 15.471C6.38978 14.4588 5.99987 13.245 5.99981 12V12ZM11.9998 18C10.7548 17.9999 9.54098 17.61 8.52881 16.885L9.98081 15.433C10.5904 15.8006 11.288 15.9965 11.9998 16C13.0607 16 14.0781 15.5785 14.8282 14.8284C15.5784 14.0783 15.9998 13.0608 15.9998 12C15.9963 11.2882 15.8004 10.5905 15.4328 9.98097L16.8848 8.52897C17.5249 9.42529 17.9054 10.4807 17.9846 11.5793C18.0638 12.6778 17.8386 13.7769 17.3337 14.7558C16.8288 15.7347 16.0638 16.5554 15.1228 17.1277C14.1818 17.7001 13.1012 18.0019 11.9998 18V18Z" fill="#374957"/>
</g>
<defs>
<clipPath id="clip0_406_3797">
<rect width="24" height="24" fill="white"/>
</clipPath>
</defs>
</svg>
