<svg width="24" height="24" viewBox="0 0 24 24" fill="none" xmlns="http://www.w3.org/2000/svg">
<g clip-path="url(#clip0_406_3641)">
<path d="M23.352 0.648872C23.0567 0.350833 22.682 0.143934 22.2724 0.052807C21.8629 -0.0383197 21.4358 -0.00983408 21.042 0.134872L20.826 0.211872C16.0016 1.77215 11.6092 4.43958 8 8.00087C6.18789 10.0317 4.61121 12.2608 3.3 14.6459L5.586 17.0009L3 19.5869L4.414 21.0009L7 18.4149L9.32 20.7349C11.7045 19.4233 13.9333 17.8466 15.964 16.0349C19.5372 12.413 22.2171 8.00811 23.791 3.16987L23.866 2.95887C24.0107 2.56506 24.0392 2.13796 23.9481 1.72843C23.8569 1.31889 23.65 0.944166 23.352 0.648872V0.648872ZM11 14.0009C10.8022 14.0009 10.6089 13.9422 10.4444 13.8323C10.28 13.7225 10.1518 13.5663 10.0761 13.3836C10.0004 13.2008 9.98063 12.9998 10.0192 12.8058C10.0578 12.6118 10.153 12.4336 10.2929 12.2938C10.4327 12.1539 10.6109 12.0587 10.8049 12.0201C10.9989 11.9815 11.2 12.0013 11.3827 12.077C11.5654 12.1527 11.7216 12.2809 11.8315 12.4453C11.9414 12.6098 12 12.8031 12 13.0009C12 13.2661 11.8946 13.5204 11.7071 13.708C11.5196 13.8955 11.2652 14.0009 11 14.0009ZM14 11.0009C13.8022 11.0009 13.6089 10.9422 13.4444 10.8323C13.28 10.7225 13.1518 10.5663 13.0761 10.3836C13.0004 10.2008 12.9806 9.99976 13.0192 9.80578C13.0578 9.6118 13.153 9.43362 13.2929 9.29377C13.4327 9.15391 13.6109 9.05867 13.8049 9.02009C13.9989 8.9815 14.2 9.00131 14.3827 9.07699C14.5654 9.15268 14.7216 9.28085 14.8315 9.4453C14.9414 9.60975 15 9.80309 15 10.0009C15 10.2661 14.8946 10.5204 14.7071 10.708C14.5196 10.8955 14.2652 11.0009 14 11.0009ZM17 8.00087C16.8022 8.00087 16.6089 7.94222 16.4444 7.83234C16.28 7.72246 16.1518 7.56628 16.0761 7.38356C16.0004 7.20083 15.9806 6.99976 16.0192 6.80578C16.0578 6.6118 16.153 6.43362 16.2929 6.29377C16.4327 6.15391 16.6109 6.05867 16.8049 6.02009C16.9989 5.9815 17.2 6.00131 17.3827 6.07699C17.5654 6.15268 17.7216 6.28085 17.8315 6.4453C17.9414 6.60975 18 6.80309 18 7.00087C18 7.26609 17.8946 7.52044 17.7071 7.70798C17.5196 7.89552 17.2652 8.00087 17 8.00087ZM18.947 15.7629C18.8215 17.378 18.3538 18.9479 17.5748 20.3682C16.7958 21.7886 15.7235 23.0269 14.429 24.0009H11V22.0789C13.2942 20.7815 15.4341 19.2286 17.379 17.4499C17.93 16.9009 18.447 16.3349 18.947 15.7629ZM6.551 6.56887C4.77225 8.51373 3.21936 10.6537 1.922 12.9479H0V9.51887C0.973974 8.22441 2.21229 7.15206 3.63266 6.37309C5.05302 5.59411 6.62291 5.12634 8.238 5.00087C7.666 5.50087 7.1 6.01787 6.551 6.56887Z" fill="#374957"/>
</g>
<defs>
<clipPath id="clip0_406_3641">
<rect width="24" height="24" fill="white"/>
</clipPath>
</defs>
</svg>
