<svg width="24" height="24" viewBox="0 0 24 24" fill="none" xmlns="http://www.w3.org/2000/svg">
<g clip-path="url(#clip0_406_4047)">
<path d="M16.252 6.334C14.7736 4.62776 13.9723 2.4385 14 0.181001C16.1183 0.536892 18.1015 1.45717 19.741 2.845L16.252 6.334ZM7.752 14.834L10.586 12L2.845 4.259C1.00764 6.41969 -0.000854544 9.16372 5.43315e-07 12H0.323001C3.05551 12.04 5.68589 13.0449 7.749 14.837L7.752 14.834ZM21.155 4.259L17.666 7.748C19.3864 9.20222 21.5663 10.0001 23.819 10C23.4631 7.88169 22.5428 5.89846 21.155 4.259V4.259ZM14.837 7.749C13.0451 5.68575 12.0402 3.05546 12 0.323001V5.43315e-07C9.16372 -0.000854544 6.41969 1.00764 4.259 2.845L12 10.586L14.837 7.749ZM23.677 12C20.9445 11.9599 18.3142 10.955 16.251 9.163L13.414 12L21.155 19.741C22.9924 17.5803 24.0009 14.8363 24 12H23.677ZM9.163 16.251C10.9232 18.3218 11.924 20.9313 12 23.648V24C14.8363 24.0009 17.5803 22.9924 19.741 21.155L12 13.414L9.163 16.251ZM7.746 17.668L4.259 21.155C5.89846 22.5428 7.88169 23.4631 10 23.819C10.0022 21.5662 9.20324 19.386 7.746 17.668V17.668ZM0.181001 14C0.536892 16.1183 1.45717 18.1015 2.845 19.741L6.334 16.252C4.61711 14.7917 2.4349 13.993 0.181001 14V14Z" fill="#374957"/>
</g>
<defs>
<clipPath id="clip0_406_4047">
<rect width="24" height="24" fill="white"/>
</clipPath>
</defs>
</svg>
