<svg width="24" height="24" viewBox="0 0 24 24" fill="none" xmlns="http://www.w3.org/2000/svg">
<g clip-path="url(#clip0_406_3683)">
<path d="M4.00018 8.00032C3.20906 8.00032 2.4357 7.76572 1.7779 7.3262C1.1201 6.88667 0.607414 6.26196 0.304664 5.53105C0.0019131 4.80015 -0.0773003 3.99588 0.0770406 3.21996C0.231382 2.44404 0.612345 1.7313 1.17175 1.17189C1.73116 0.612483 2.4439 0.23152 3.21982 0.0771792C3.99575 -0.0771617 4.80001 0.00205165 5.53092 0.304802C6.26182 0.607553 6.88654 1.12024 7.32606 1.77804C7.76559 2.43584 8.00018 3.2092 8.00018 4.00032C8.00018 5.06119 7.57876 6.0786 6.82861 6.82875C6.07846 7.57889 5.06105 8.00032 4.00018 8.00032V8.00032ZM7.93418 8.52032L18.2342 18.8203C19.2085 18.3103 20.0994 17.6548 20.8762 16.8763C22.7898 14.9907 23.9078 12.4433 24.0002 9.75832C24.0522 8.4631 23.8362 7.17108 23.3655 5.96326C22.8949 4.75545 22.1798 3.65787 21.2652 2.73932C19.7171 1.23043 17.7113 0.279113 15.5633 0.0350817C13.4154 -0.20895 11.2473 0.268157 9.40018 1.39132C9.97745 2.57468 10.1467 3.91586 9.88149 5.20553C9.61628 6.49519 8.93155 7.66077 7.93418 8.52032ZM6.17118 9.58632C5.48794 9.85458 4.76119 9.99492 4.02718 10.0003C3.96622 11.7279 4.32803 13.4443 5.08118 15.0003C5.13258 15.0923 5.15248 15.1986 5.13786 15.3029C5.12323 15.4073 5.07489 15.504 5.00018 15.5783L1.28218 18.1533C0.911532 18.4434 0.605905 18.8081 0.38507 19.2238C0.164236 19.6394 0.0331125 20.0968 0.000181755 20.5663C-0.0175937 20.9648 0.0492306 21.3624 0.196255 21.7332C0.343279 22.1039 0.567169 22.4393 0.853182 22.7173L1.29818 23.1393C1.85106 23.6909 2.60021 24.0006 3.38118 24.0003C3.81372 23.9835 4.23835 23.8792 4.62939 23.6935C5.02043 23.5079 5.36974 23.2448 5.65618 22.9203L8.40018 19.0003C8.47291 18.9169 8.57128 18.8599 8.67986 18.8384C8.78845 18.8168 8.90111 18.8319 9.00018 18.8813C11.2354 19.9779 13.789 20.2396 16.2002 19.6193L6.17118 9.58632Z" fill="#374957"/>
</g>
<defs>
<clipPath id="clip0_406_3683">
<rect width="24" height="24" fill="white"/>
</clipPath>
</defs>
</svg>
