<svg width="24" height="24" viewBox="0 0 24 24" fill="none" xmlns="http://www.w3.org/2000/svg">
<g clip-path="url(#clip0_406_3584)">
<path d="M15 17.9994H0V3.99936C0 3.20371 0.31607 2.44065 0.87868 1.87804C1.44129 1.31543 2.20435 0.999359 3 0.999359H12C12.7956 0.999359 13.5587 1.31543 14.1213 1.87804C14.6839 2.44065 15 3.20371 15 3.99936V17.9994ZM17 17.9994H24V12.9994H17V17.9994ZM19 4.99936H17V10.9994H24V9.99936C23.9984 8.67376 23.4711 7.40292 22.5338 6.46558C21.5964 5.52824 20.3256 5.00095 19 4.99936V4.99936ZM3.058 19.9994C3.02137 20.1636 3.00193 20.3311 3 20.4994C3 21.1624 3.26339 21.7983 3.73223 22.2671C4.20107 22.736 4.83696 22.9994 5.5 22.9994C6.16304 22.9994 6.79893 22.736 7.26777 22.2671C7.73661 21.7983 8 21.1624 8 20.4994C7.99807 20.3311 7.97863 20.1636 7.942 19.9994H3.058ZM17.058 19.9994C17.0214 20.1636 17.0019 20.3311 17 20.4994C17 21.1624 17.2634 21.7983 17.7322 22.2671C18.2011 22.736 18.837 22.9994 19.5 22.9994C20.163 22.9994 20.7989 22.736 21.2678 22.2671C21.7366 21.7983 22 21.1624 22 20.4994C21.9981 20.3311 21.9786 20.1636 21.942 19.9994H17.058Z" fill="#374957"/>
</g>
<defs>
<clipPath id="clip0_406_3584">
<rect width="24" height="24" fill="white"/>
</clipPath>
</defs>
</svg>
