<svg width="24" height="24" viewBox="0 0 24 24" fill="none" xmlns="http://www.w3.org/2000/svg">
<g clip-path="url(#clip0_406_4048)">
<path d="M6 3H3C2.20435 3 1.44129 3.31607 0.87868 3.87868C0.31607 4.44129 0 5.20435 0 6L0 14C0 14.7956 0.31607 15.5587 0.87868 16.1213C1.44129 16.6839 2.20435 17 3 17H6V3Z" fill="#374957"/>
<path d="M23.9996 14L21.9996 3H7.99963V17L10.3406 21.681C10.4809 21.9841 10.6855 22.253 10.9402 22.4691C11.195 22.6851 11.4937 22.8431 11.8156 22.932C12.1717 23.0266 12.5457 23.031 12.9039 22.9447C13.2621 22.8585 13.5931 22.6842 13.867 22.4378C14.1409 22.1914 14.349 21.8806 14.4726 21.5336C14.5961 21.1865 14.6312 20.8141 14.5746 20.45L13.9996 17H23.9996V14Z" fill="#374957"/>
</g>
<defs>
<clipPath id="clip0_406_4048">
<rect width="24" height="24" fill="white"/>
</clipPath>
</defs>
</svg>
