<svg width="24" height="24" viewBox="0 0 24 24" fill="none" xmlns="http://www.w3.org/2000/svg">
<g clip-path="url(#clip0_406_3931)">
<path d="M19.9998 0H3.99982C3.20417 0 2.44111 0.31607 1.8785 0.87868C1.31589 1.44129 0.999817 2.20435 0.999817 3V24H22.9998V3C22.9998 2.20435 22.6837 1.44129 22.1211 0.87868C21.5585 0.31607 20.7955 0 19.9998 0V0ZM6.99982 19H4.99982V17H6.99982V19ZM6.99982 15H4.99982V13H6.99982V15ZM10.9998 19H8.99982V17H10.9998V19ZM10.9998 15H8.99982V13H10.9998V15ZM18.9998 19H12.9998V17H18.9998V19ZM12.9998 15V13H14.9998V15H12.9998ZM18.9998 15H16.9998V13H18.9998V15ZM18.9998 10H4.99982V4H18.9998V10ZM16.9998 8H6.99982V6H16.9998V8Z" fill="#374957"/>
</g>
<defs>
<clipPath id="clip0_406_3931">
<rect width="24" height="24" fill="white"/>
</clipPath>
</defs>
</svg>
