<svg width="24" height="24" viewBox="0 0 24 24" fill="none" xmlns="http://www.w3.org/2000/svg">
<g clip-path="url(#clip0_406_3929)">
<path d="M0 3V11H11V0H3C2.20435 0 1.44129 0.31607 0.87868 0.87868C0.31607 1.44129 0 2.20435 0 3H0Z" fill="#374957"/>
<path d="M20.9998 0H12.9998V11H23.9998V3C23.9998 2.20435 23.6838 1.44129 23.1212 0.87868C22.5585 0.31607 21.7955 0 20.9998 0V0Z" fill="#374957"/>
<path d="M0 21C0 21.7956 0.31607 22.5587 0.87868 23.1213C1.44129 23.6839 2.20435 24 3 24H11V13H0V21Z" fill="#374957"/>
<path d="M12.9998 24H20.9998C21.7955 24 22.5585 23.6839 23.1212 23.1213C23.6838 22.5587 23.9998 21.7956 23.9998 21V13H12.9998V24Z" fill="#374957"/>
</g>
<defs>
<clipPath id="clip0_406_3929">
<rect width="24" height="24" fill="white"/>
</clipPath>
</defs>
</svg>
