<svg width="24" height="24" viewBox="0 0 24 24" fill="none" xmlns="http://www.w3.org/2000/svg">
<g clip-path="url(#clip0_406_3675)">
<path d="M13 22.0002H5.50002C4.27601 22.0017 3.08658 21.5941 2.12073 20.8423C1.15487 20.0904 0.46798 19.0373 0.169193 17.8503C-0.129593 16.6633 -0.0231397 15.4105 0.471641 14.2909C0.966422 13.1714 1.82115 12.2493 2.90002 11.6711C2.30785 10.5382 1.99904 9.27856 2.00002 8.00015C2.00627 6.03893 2.73273 4.14834 4.04138 2.68757C5.35003 1.2268 7.14968 0.297641 9.09841 0.0766179C11.0471 -0.144405 13.0092 0.358112 14.6117 1.4887C16.2143 2.61928 17.3457 4.29915 17.791 6.20915C19.0985 6.51099 20.3089 7.13764 21.31 8.03115C21.205 8.02515 21.106 8.00015 21 8.00015C19.8295 8.00173 18.6965 8.41317 17.7978 9.16305C16.899 9.91292 16.2913 10.9539 16.08 12.1051L15.233 12.5292C14.5404 12.1804 13.7755 11.9992 13 12.0001C11.6739 12.0001 10.4022 12.5269 9.46449 13.4646C8.52681 14.4023 8.00002 15.6741 8.00002 17.0002C8.00002 18.3262 8.52681 19.598 9.46449 20.5357C10.4022 21.4734 11.6739 22.0002 13 22.0002V22.0002ZM21 16.0001C21.5934 16.0001 22.1734 15.8242 22.6667 15.4946C23.1601 15.1649 23.5446 14.6964 23.7717 14.1482C23.9987 13.6 24.0581 12.9968 23.9424 12.4149C23.8266 11.8329 23.5409 11.2984 23.1213 10.8788C22.7018 10.4593 22.1672 10.1735 21.5853 10.0578C21.0034 9.94204 20.4002 10.0014 19.852 10.2285C19.3038 10.4556 18.8353 10.8401 18.5056 11.3334C18.176 11.8268 18 12.4068 18 13.0001C18.0047 13.1218 18.0171 13.243 18.037 13.3631L15.077 14.8441C14.6536 14.4345 14.119 14.1586 13.5398 14.0508C12.9606 13.943 12.3625 14.0081 11.8201 14.2381C11.2777 14.468 10.815 14.8525 10.4897 15.3437C10.1644 15.8349 9.99096 16.411 9.99096 17.0002C9.99096 17.5893 10.1644 18.1654 10.4897 18.6566C10.815 19.1478 11.2777 19.5323 11.8201 19.7622C12.3625 19.9922 12.9606 20.0573 13.5398 19.9495C14.119 19.8417 14.6536 19.5658 15.077 19.1562L18.037 20.6371C18.0171 20.7573 18.0047 20.8785 18 21.0002C17.9965 21.6959 18.2338 22.3715 18.6716 22.9123C19.1093 23.4531 19.7207 23.8258 20.4019 23.9673C21.0832 24.1088 21.7924 24.0103 22.4093 23.6885C23.0262 23.3668 23.5128 22.8415 23.7867 22.2019C24.0605 21.5623 24.1047 20.8476 23.9117 20.1791C23.7187 19.5106 23.3005 18.9295 22.7279 18.5342C22.1553 18.1389 21.4636 17.9538 20.7702 18.0103C20.0767 18.0668 19.4241 18.3614 18.923 18.8442L15.963 17.3632C15.983 17.243 15.9953 17.1218 16 17.0002C15.9953 16.8785 15.983 16.7573 15.963 16.6371L18.923 15.1561C19.4795 15.6966 20.2243 15.9993 21 16.0001Z" fill="#374957"/>
</g>
<defs>
<clipPath id="clip0_406_3675">
<rect width="24" height="24" fill="white"/>
</clipPath>
</defs>
</svg>
