<svg width="24" height="24" viewBox="0 0 24 24" fill="none" xmlns="http://www.w3.org/2000/svg">
<g clip-path="url(#clip0_406_3834)">
<path d="M20 20.444V24L18 22L16 24V20.444C15.2374 20.0037 14.6414 19.3241 14.3045 18.5106C13.9675 17.6971 13.9084 16.7952 14.1363 15.9446C14.3642 15.0941 14.8664 14.3425 15.565 13.8065C16.2635 13.2704 17.1195 12.9799 18 12.9799C18.8805 12.9799 19.7365 13.2704 20.435 13.8065C21.1336 14.3425 21.6358 15.0941 21.8637 15.9446C22.0916 16.7952 22.0325 17.6971 21.6955 18.5106C21.3586 19.3241 20.7626 20.0037 20 20.444ZM14 21.463V22H3V3C3 2.20435 3.31607 1.44129 3.87868 0.87868C4.44129 0.31607 5.20435 0 6 0L18 0C18.7956 0 19.5587 0.31607 20.1213 0.87868C20.6839 1.44129 21 2.20435 21 3V11.809C19.7162 11.0633 18.2013 10.8206 16.7488 11.1281C15.2963 11.4356 14.0096 12.2712 13.1381 13.4732C12.2665 14.6752 11.8722 16.1579 12.0314 17.634C12.1907 19.1101 12.8922 20.4746 14 21.463V21.463ZM7 6H17V4H7V6ZM7 10H17V8H7V10ZM7 14H12V12H7V14Z" fill="#374957"/>
</g>
<defs>
<clipPath id="clip0_406_3834">
<rect width="24" height="24" fill="white"/>
</clipPath>
</defs>
</svg>
