<svg width="24" height="24" viewBox="0 0 24 24" fill="none" xmlns="http://www.w3.org/2000/svg">
<g clip-path="url(#clip0_406_3738)">
<path d="M24 12C24 14.3734 23.2962 16.6935 21.9776 18.6668C20.6591 20.6402 18.7849 22.1783 16.5922 23.0866C14.3995 23.9948 11.9867 24.2324 9.65892 23.7694C7.33115 23.3064 5.19295 22.1635 3.51472 20.4853C1.83649 18.8071 0.693605 16.6689 0.230582 14.3411C-0.232441 12.0133 0.00519943 9.60051 0.913451 7.4078C1.8217 5.21509 3.35977 3.34094 5.33316 2.02236C7.30655 0.703788 9.62663 0 12 0C15.1815 0.00344108 18.2318 1.26883 20.4815 3.51852C22.7312 5.76821 23.9966 8.81846 24 12ZM13 14.257C12.9875 13.909 13.0668 13.5639 13.2301 13.2563C13.3933 12.9487 13.6347 12.6896 13.93 12.505C14.5479 12.1646 15.0649 11.6668 15.4283 11.0622C15.7918 10.4575 15.9889 9.76746 15.9995 9.06205C16.0102 8.35663 15.8342 7.66094 15.4892 7.04554C15.1442 6.43013 14.6427 5.91692 14.0353 5.55794C13.428 5.19897 12.7365 5.00701 12.031 5.00154C11.3256 4.99607 10.6312 5.17728 10.0184 5.52679C9.40552 5.8763 8.89603 6.38167 8.54156 6.99165C8.18709 7.60163 8.00026 8.29451 8.00001 9H10C9.99975 8.70578 10.0644 8.41512 10.1894 8.14876C10.3144 7.8824 10.4966 7.64689 10.723 7.45903C10.9495 7.27117 11.2146 7.13559 11.4994 7.06195C11.7843 6.98831 12.0819 6.97842 12.371 7.033C12.766 7.10968 13.1293 7.30239 13.4143 7.58649C13.6992 7.87059 13.8931 8.2332 13.971 8.628C14.0497 9.0424 13.9954 9.47108 13.8158 9.85274C13.6362 10.2344 13.3405 10.5495 12.971 10.753C12.3592 11.1075 11.8536 11.6195 11.5069 12.2358C11.1603 12.8521 10.9852 13.5501 11 14.257V15H13V14.257ZM13 17H11V19H13V17Z" fill="#374957"/>
</g>
<defs>
<clipPath id="clip0_406_3738">
<rect width="24" height="24" fill="white"/>
</clipPath>
</defs>
</svg>
