<svg width="24" height="24" viewBox="0 0 24 24" fill="none" xmlns="http://www.w3.org/2000/svg">
<path d="M12.0001 19.0001C10.6156 19.0001 9.26223 18.5896 8.11109 17.8204C6.95994 17.0512 6.06274 15.958 5.53292 14.6789C5.00311 13.3998 4.86449 11.9924 5.13458 10.6345C5.40468 9.27663 6.07136 8.02935 7.05033 7.05038C8.0293 6.07141 9.27658 5.40472 10.6344 5.13463C11.9923 4.86453 13.3998 5.00316 14.6789 5.53297C15.9579 6.06278 17.0512 6.95999 17.8204 8.11113C18.5895 9.26228 19.0001 10.6157 19.0001 12.0001C18.998 13.856 18.2598 15.6352 16.9475 16.9475C15.6352 18.2598 13.8559 18.998 12.0001 19.0001V19.0001Z" fill="#374957"/>
</svg>
