<svg width="24" height="24" viewBox="0 0 24 24" fill="none" xmlns="http://www.w3.org/2000/svg">
<g clip-path="url(#clip0_406_3897)">
<path d="M24 9C24.0023 8.44948 23.853 7.90895 23.5686 7.4376C23.2842 6.96625 22.8755 6.58225 22.3874 6.32766C21.8993 6.07306 21.3505 5.95769 20.8012 5.99418C20.2519 6.03066 19.7232 6.21759 19.2731 6.5345C18.8229 6.85142 18.4686 7.28609 18.249 7.79091C18.0294 8.29574 17.953 8.85126 18.028 9.39664C18.1031 9.94202 18.3268 10.4562 18.6746 10.883C19.0224 11.3097 19.481 11.6325 20 11.816V16C20 17.5913 19.3679 19.1174 18.2426 20.2426C17.1174 21.3679 15.5913 22 14 22C12.4087 22 10.8826 21.3679 9.75736 20.2426C8.63214 19.1174 8 17.5913 8 16V15.92C9.66408 15.6786 11.1858 14.8467 12.2874 13.5762C13.3889 12.3058 13.9968 10.6815 14 9V3C14 2.20435 13.6839 1.44129 13.1213 0.87868C12.5587 0.31607 11.7957 0 11 0L8 0V2H11C11.2652 2 11.5196 2.10536 11.7071 2.29289C11.8946 2.48043 12 2.73478 12 3V9C12 10.3261 11.4732 11.5979 10.5355 12.5355C9.59785 13.4732 8.32608 14 7 14C5.67392 14 4.40215 13.4732 3.46447 12.5355C2.52678 11.5979 2 10.3261 2 9V3C2 2.73478 2.10536 2.48043 2.29289 2.29289C2.48043 2.10536 2.73478 2 3 2H6V0H3C2.20435 0 1.44129 0.31607 0.87868 0.87868C0.316071 1.44129 0 2.20435 0 3L0 9C0.00321595 10.6815 0.611092 12.3058 1.71264 13.5762C2.81419 14.8467 4.33592 15.6786 6 15.92V16C6 18.1217 6.84286 20.1566 8.34315 21.6569C9.84344 23.1571 11.8783 24 14 24C16.1217 24 18.1566 23.1571 19.6569 21.6569C21.1571 20.1566 22 18.1217 22 16V11.816C22.5829 11.6099 23.0879 11.2288 23.4459 10.7247C23.8039 10.2206 23.9974 9.61826 24 9V9Z" fill="#374957"/>
</g>
<defs>
<clipPath id="clip0_406_3897">
<rect width="24" height="24" fill="white"/>
</clipPath>
</defs>
</svg>
