<svg width="24" height="24" viewBox="0 0 24 24" fill="none" xmlns="http://www.w3.org/2000/svg">
<g clip-path="url(#clip0_406_4059)">
<path d="M24 10.0001V7.90907C24.0001 7.37011 23.855 6.84108 23.58 6.37758C23.3049 5.91408 22.9101 5.53323 22.437 5.27507L13.437 0.366068C12.9964 0.124927 12.5022 -0.00146484 12 -0.00146484C11.4977 -0.00146484 11.0036 0.124927 10.563 0.366068L1.56298 5.27507C1.08988 5.53323 0.695055 5.91408 0.420018 6.37758C0.14498 6.84108 -0.000114963 7.37011 -1.52074e-05 7.90907V10.0001H2.99998V19.0001H0.999985V22.0001H-1.52074e-05V24.0001H24V22.0001H23V19.0001H21V10.0001H24ZM14 10.0001V19.0001H9.99998V10.0001H14ZM4.99998 10.0001H7.99998V19.0001H4.99998V10.0001ZM19 19.0001H16V10.0001H19V19.0001Z" fill="#374957"/>
</g>
<defs>
<clipPath id="clip0_406_4059">
<rect width="24" height="24" fill="white"/>
</clipPath>
</defs>
</svg>
