<svg width="24" height="24" viewBox="0 0 24 24" fill="none" xmlns="http://www.w3.org/2000/svg">
<g clip-path="url(#clip0_406_4023)">
<path d="M10.3222 23.7362C9.44543 23.8907 8.55739 23.9723 7.66717 23.9802C5.57398 24.1235 3.50676 23.4496 1.90017 22.1002C0.154174 20.3492 -0.317826 17.0802 0.256174 13.6712L10.3222 23.7362ZM23.2072 12.6212C22.4803 15.1411 21.1565 17.4487 19.3482 19.3482C17.4458 21.1549 15.1359 22.4763 12.6142 23.2002L0.793174 11.3792C1.52008 8.85928 2.84382 6.55175 4.65217 4.6522C6.55172 2.84385 8.85925 1.52011 11.3792 0.793204L23.2072 12.6212ZM17.7072 10.2932L13.7072 6.2932L12.2932 7.7072L13.5862 9.0002L12.0002 10.5862L10.7072 9.2932L9.29317 10.7072L10.5862 12.0002L9.00017 13.5862L7.70717 12.2932L6.29317 13.7072L10.2932 17.7072L11.7072 16.2932L10.4142 15.0002L12.0002 13.4142L13.2932 14.7072L14.7072 13.2932L13.4142 12.0002L15.0002 10.4142L16.2932 11.7072L17.7072 10.2932ZM23.7442 10.3292C24.3182 6.9202 23.8442 3.6512 22.0982 1.9022C20.3522 0.153204 17.0802 -0.318796 13.6702 0.256204L23.7442 10.3292Z" fill="#374957"/>
</g>
<defs>
<clipPath id="clip0_406_4023">
<rect width="24" height="24" fill="white"/>
</clipPath>
</defs>
</svg>
