<svg width="24" height="24" viewBox="0 0 24 24" fill="none" xmlns="http://www.w3.org/2000/svg">
<g clip-path="url(#clip0_406_3788)">
<path d="M2.36291 4.88047L3.71491 9.25547L0.00691223 11.8685C0.0335081 9.3486 0.858362 6.90204 2.36291 4.88047V4.88047ZM6.87291 19.0005L2.26191 18.9895C3.75035 21.0635 5.86013 22.6101 8.28591 23.4055L6.87291 19.0005ZM11.9999 3.25247L15.6759 0.581466C13.2865 -0.193171 10.7134 -0.193171 8.32391 0.581466L11.9999 3.25247ZM21.6279 4.86847L20.2719 9.25547L23.9939 11.8775C23.9683 9.34937 23.1397 6.89486 21.6279 4.86847V4.86847ZM17.1149 19.0005L15.6999 23.4105C18.1322 22.6151 20.2476 21.065 21.7389 18.9855L17.1149 19.0005ZM13.4409 23.9095C12.9628 23.9686 12.4816 23.999 11.9999 24.0005C11.5137 23.9965 11.0281 23.9631 10.5459 23.9005L8.33291 17.0005L1.09991 16.9825C0.687904 16.087 0.388939 15.1438 0.209912 14.1745L6.05791 10.0535L3.92491 3.15347C4.61444 2.51787 5.37594 1.96511 6.19391 1.50647L11.9999 5.72447L17.8059 1.50647C18.6209 1.9625 19.38 2.51186 20.0679 3.14347L17.9329 10.0535L23.7919 14.1825C23.6121 15.1489 23.3135 16.0893 22.9029 16.9825L15.6549 17.0005L13.4409 23.9095ZM8.34891 17.0005H15.6489L17.9049 10.0565L11.9999 5.76447L6.09291 10.0565L8.34891 17.0005ZM8.44891 10.8195L9.79991 15.0005H14.1999L15.5579 10.8195L11.9999 8.23647L8.44891 10.8195Z" fill="#374957"/>
</g>
<defs>
<clipPath id="clip0_406_3788">
<rect width="24" height="24" fill="white"/>
</clipPath>
</defs>
</svg>
