<svg width="24" height="24" viewBox="0 0 24 24" fill="none" xmlns="http://www.w3.org/2000/svg">
<g clip-path="url(#clip0_406_3709)">
<path d="M2.09386 12.006H21.9999C22.5303 12.006 23.039 12.2167 23.4141 12.5918C23.7891 12.9669 23.9999 13.4756 23.9999 14.006C23.9999 14.5364 23.7891 15.0451 23.4141 15.4202C23.039 15.7953 22.5303 16.006 21.9999 16.006H15.9999C13.5908 16.0063 11.2627 16.8763 9.44386 18.456C9.04449 18.8065 8.53125 18.9998 7.99986 18.9998C7.46848 18.9998 6.95523 18.8065 6.55586 18.456C5.17522 17.2569 3.4922 16.4593 1.68986 16.15C1.21216 16.0614 0.780931 15.8074 0.471881 15.4325C0.16283 15.0576 -0.00428849 14.5858 -0.000138139 14.1C-0.000138139 13.5446 0.220479 13.012 0.61318 12.6193C1.00588 12.2266 1.5385 12.006 2.09386 12.006V12.006ZM0.999862 10.174V9C1.00251 6.61386 1.95157 4.32622 3.63882 2.63896C5.32608 0.951708 7.61373 0.00264685 9.99986 0L13.9999 0C16.386 0.00264685 18.6736 0.951708 20.3609 2.63896C22.0482 4.32622 22.9972 6.61386 22.9999 9V10.148C22.6739 10.0584 22.3379 10.0107 21.9999 10.006H2.09386C1.72321 10.0115 1.35507 10.068 0.999862 10.174V10.174ZM6.99986 4C6.99986 4.26522 7.10522 4.51957 7.29276 4.70711C7.48029 4.89464 7.73465 5 7.99986 5C8.26508 5 8.51943 4.89464 8.70697 4.70711C8.8945 4.51957 8.99986 4.26522 8.99986 4C8.99986 3.73478 8.8945 3.48043 8.70697 3.29289C8.51943 3.10536 8.26508 3 7.99986 3C7.73465 3 7.48029 3.10536 7.29276 3.29289C7.10522 3.48043 6.99986 3.73478 6.99986 4V4ZM3.99986 7C3.99986 7.26522 4.10522 7.51957 4.29276 7.70711C4.48029 7.89464 4.73465 8 4.99986 8C5.26508 8 5.51943 7.89464 5.70697 7.70711C5.8945 7.51957 5.99986 7.26522 5.99986 7C5.99986 6.73478 5.8945 6.48043 5.70697 6.29289C5.51943 6.10536 5.26508 6 4.99986 6C4.73465 6 4.48029 6.10536 4.29276 6.29289C4.10522 6.48043 3.99986 6.73478 3.99986 7V7ZM21.9999 18.006H15.9999C14.0722 18.006 12.2093 18.702 10.7539 19.966C9.99265 20.6355 9.01361 21.0048 7.99986 21.0048C6.98611 21.0048 6.00707 20.6355 5.24586 19.966C4.14092 19.0068 2.79407 18.369 1.35186 18.122C1.22986 18.101 1.11686 18.059 0.999862 18.028V20C0.999862 21.0609 1.42129 22.0783 2.17143 22.8284C2.92158 23.5786 3.939 24 4.99986 24H18.9999C20.0607 24 21.0781 23.5786 21.8283 22.8284C22.5784 22.0783 22.9999 21.0609 22.9999 20V17.864C22.674 17.9541 22.3379 18.0018 21.9999 18.006V18.006Z" fill="#374957"/>
</g>
<defs>
<clipPath id="clip0_406_3709">
<rect width="24" height="24" fill="white"/>
</clipPath>
</defs>
</svg>
