<svg width="24" height="24" viewBox="0 0 24 24" fill="none" xmlns="http://www.w3.org/2000/svg">
<g clip-path="url(#clip0_406_3874)">
<path d="M13.414 12C11.12 15.115 7.785 20.457 7.121 21.121C6.6849 21.5615 6.1217 21.8543 5.51058 21.9582C4.89945 22.062 4.27115 21.9718 3.714 21.7L1.414 24L0 22.586L2.3 20.286C2.03376 19.729 1.9463 19.1032 2.04959 18.4945C2.15289 17.8859 2.4419 17.324 2.877 16.886C3.541 16.222 8.883 12.886 11.998 10.593L13.414 12ZM12 4.586V10.586L19.293 3.293L20.707 4.707L13.414 12H19.414L24 7.414V3C24 2.20435 23.6839 1.44129 23.1213 0.87868C22.5587 0.31607 21.7956 0 21 0L16.586 0L12 4.586Z" fill="#374957"/>
</g>
<defs>
<clipPath id="clip0_406_3874">
<rect width="24" height="24" fill="white"/>
</clipPath>
</defs>
</svg>
