<svg width="24" height="24" viewBox="0 0 24 24" fill="none" xmlns="http://www.w3.org/2000/svg">
<g clip-path="url(#clip0_406_3671)">
<path d="M19.9442 2.634L12.0002 0L4.05615 2.634C3.45763 2.83242 2.93684 3.21438 2.56775 3.72563C2.19867 4.23689 2.00007 4.85144 2.00015 5.482V11.991C2.00015 19.515 11.2002 23.67 11.5942 23.843L11.9482 24L12.3162 23.878C12.7112 23.747 22.0002 20.568 22.0002 11.991V5.482C22.0002 4.85144 21.8016 4.23689 21.4326 3.72563C21.0635 3.21438 20.5427 2.83242 19.9442 2.634V2.634ZM13.0002 19.052H11.0002V17.052H13.0002V19.052ZM13.0002 15H11.0002V5H13.0002V15Z" fill="#374957"/>
</g>
<defs>
<clipPath id="clip0_406_3671">
<rect width="24" height="24" fill="white"/>
</clipPath>
</defs>
</svg>
