<svg width="24" height="24" viewBox="0 0 24 24" fill="none" xmlns="http://www.w3.org/2000/svg">
<g clip-path="url(#clip0_406_3858)">
<path d="M10 2C10 1.46957 10.2107 0.960859 10.5858 0.585786C10.9609 0.210714 11.4696 0 12 0C12.5305 0 13.0392 0.210714 13.4142 0.585786C13.7893 0.960859 14 1.46957 14 2C14 2.53043 13.7893 3.03914 13.4142 3.41421C13.0392 3.78929 12.5305 4 12 4C11.4696 4 10.9609 3.78929 10.5858 3.41421C10.2107 3.03914 10 2.53043 10 2V2ZM22.613 2.506C22.2445 1.87369 21.6575 1.39792 20.9626 1.16825C20.2677 0.938576 19.5128 0.970852 18.84 1.259C16.6447 2.3019 14.6639 3.74643 13 5.518V14.293C14.2776 14.7762 15.6343 15.016 17 15C18.8029 15.007 20.5384 14.3154 21.8423 13.0703C23.1462 11.8251 23.917 10.1233 23.993 8.322C24.0196 6.2992 23.5456 4.30122 22.613 2.506V2.506ZM22.271 15.261C20.7443 16.3877 18.8975 16.997 17 17C15.2859 17.0184 13.5855 16.692 12 16.04C10.4146 16.692 8.7142 17.0184 7.00003 17C5.10257 16.997 3.25573 16.3877 1.72903 15.261C-0.185972 18.348 2.24903 22.761 3.06603 23.496L3.46603 23.955L4.05803 23.807C6.70308 23.0677 9.10075 21.6308 11 19.647V22H13V19.647C14.8985 21.6304 17.2951 23.0672 19.939 23.807L20.531 23.955L20.931 23.496C21.763 22.751 24.18 18.323 22.271 15.261V15.261ZM7.20603 15C8.50503 15.0178 9.79464 14.7775 11 14.293V5.518C9.33611 3.74643 7.35535 2.3019 5.16003 1.259C4.48715 0.970571 3.73202 0.938145 3.03689 1.16783C2.34176 1.39751 1.7546 1.87345 1.38603 2.506C0.454318 4.30148 -0.0193835 6.29934 0.00702836 8.322C0.108471 10.1507 0.915547 11.8688 2.25833 13.1144C3.60111 14.36 5.37483 15.036 7.20603 15V15Z" fill="#374957"/>
</g>
<defs>
<clipPath id="clip0_406_3858">
<rect width="24" height="24" fill="white"/>
</clipPath>
</defs>
</svg>
