<svg width="24" height="24" viewBox="0 0 24 24" fill="none" xmlns="http://www.w3.org/2000/svg">
<g clip-path="url(#clip0_406_3824)">
<path d="M14.8827 2L14.6317 4H12.6157L13.1157 0H19.9997V2H14.8827ZM2.6607 5.122C2.38655 5.45788 2.19049 5.85051 2.08672 6.27146C1.98295 6.69242 1.97406 7.13118 2.0607 7.556L2.3617 10H11.8617L12.6137 4H4.9997C4.55054 3.99906 4.10696 4.09946 3.70198 4.29372C3.29701 4.48798 2.94108 4.77111 2.6607 5.122V5.122ZM21.3407 5.122C21.0601 4.77079 20.7039 4.48747 20.2986 4.29319C19.8932 4.09891 19.4492 3.99869 18.9997 4H14.6317L13.8797 10H21.6327L21.9267 7.653C22.0258 7.2147 22.0246 6.75967 21.9231 6.32191C21.8216 5.88416 21.6225 5.47499 21.3407 5.125V5.122ZM12.6257 20H10.6097L11.6097 12H2.6097L4.1097 24H19.8827L21.3827 12H13.6287L12.6257 20Z" fill="#374957"/>
</g>
<defs>
<clipPath id="clip0_406_3824">
<rect width="24" height="24" fill="white"/>
</clipPath>
</defs>
</svg>
