<svg width="24" height="24" viewBox="0 0 24 24" fill="none" xmlns="http://www.w3.org/2000/svg">
<g clip-path="url(#clip0_406_3680)">
<path d="M20.5259 16.3001C21.0552 14.8357 21.3463 13.2958 21.3879 11.7391C21.3961 11.4606 21.3463 11.1835 21.2416 10.9252C21.1369 10.667 20.9797 10.4334 20.7799 10.2391L18.9609 8.46914L24.0059 3.42414L22.5759 1.99414L17.5139 7.05614L15.3069 4.90014C14.9472 4.55061 14.4693 4.349 13.9679 4.3353C13.4665 4.32159 12.9782 4.49678 12.5999 4.82614C11.934 5.40842 11.2363 5.95326 10.5099 6.45814L20.5259 16.3001Z" fill="#374957"/>
<path d="M8.77087 7.55688C7.96854 8.03077 7.1151 8.4122 6.22687 8.69388L-0.000131265 10.5209V11.2699C-0.00173356 12.8921 0.314206 14.499 0.929869 15.9999L2.63787 15.7209C4.25902 15.2986 5.74146 14.4595 6.93787 13.2869L8.33787 14.7169C6.86537 16.1542 5.03841 17.1759 3.04287 17.6779L1.88687 17.8689C2.56942 18.9633 3.41211 19.9492 4.38687 20.7939L6.41287 20.0419L7.81287 19.3419C9.25513 18.6149 10.4893 17.5339 11.3999 16.1999L11.9189 15.4389L13.5709 16.5649L13.0529 17.3259C11.9494 18.9406 10.4536 20.2482 8.70587 21.1259L7.15587 21.8989L6.34087 22.1989C8.36262 23.3827 10.6641 24.0045 13.0069 23.9999H14.2449L14.5029 23.8199C16.6275 22.3857 18.3887 20.4762 19.6469 18.2429L8.77087 7.55688Z" fill="#374957"/>
</g>
<defs>
<clipPath id="clip0_406_3680">
<rect width="24" height="24" fill="white"/>
</clipPath>
</defs>
</svg>
