<svg width="24" height="24" viewBox="0 0 24 24" fill="none" xmlns="http://www.w3.org/2000/svg">
<g clip-path="url(#clip0_406_3822)">
<path d="M15.829 2C15.6214 1.41549 15.2381 0.909511 14.7316 0.551443C14.2251 0.193376 13.6203 0.000756748 13 0L11 0C10.3797 0.000756748 9.77487 0.193376 9.26839 0.551443C8.7619 0.909511 8.37858 1.41549 8.171 2H3V21C3 21.7956 3.31607 22.5587 3.87868 23.1213C4.44129 23.6839 5.20435 24 6 24H18C18.7956 24 19.5587 23.6839 20.1213 23.1213C20.6839 22.5587 21 21.7956 21 21V2H15.829ZM8 8H11V5H13V8H16V10H13V13H11V10H8V8ZM13 21H7V19H13V21ZM17 17H7V15H17V17Z" fill="#374957"/>
</g>
<defs>
<clipPath id="clip0_406_3822">
<rect width="24" height="24" fill="white"/>
</clipPath>
</defs>
</svg>
