<svg width="24" height="24" viewBox="0 0 24 24" fill="none" xmlns="http://www.w3.org/2000/svg">
<g clip-path="url(#clip0_406_3805)">
<path d="M23.7319 22.237L17.9529 24.037L17.3589 22.127L19.2889 21.527L18.4889 18.971C17.3182 19.0913 16.1428 18.793 15.1711 18.129C14.1994 17.465 13.4943 16.4784 13.1809 15.344L13.0459 14.944L14.0059 12H22.5999L22.7999 12.607C23.1195 13.6974 23.0556 14.8643 22.6188 15.9132C22.1821 16.9622 21.3989 17.8297 20.3999 18.371L21.1999 20.929L23.1389 20.329L23.7319 22.237ZM10.5719 6.184L6.71892 5.11C5.96899 4.90314 5.16808 4.99486 4.48433 5.36592C3.80059 5.73697 3.28719 6.35849 3.05192 7.1L2.07792 10H12.6189L12.6389 9.941C12.7544 9.55864 12.7923 9.15709 12.7504 8.75988C12.7086 8.36267 12.5879 7.97781 12.3954 7.62788C12.2029 7.27794 11.9424 6.96997 11.6293 6.72203C11.3162 6.47409 10.9567 6.29117 10.5719 6.184V6.184ZM1.18492 12.657C0.879206 13.7395 0.950178 14.8937 1.38621 15.9305C1.82224 16.9673 2.59748 17.8254 3.58492 18.364L2.76792 20.932L0.820919 20.332L0.229919 22.237L6.01092 24.037L6.60392 22.127L4.68092 21.527L5.49992 18.966C5.66922 18.9861 5.83945 18.9975 6.00992 19C7.09109 18.9973 8.14226 18.6443 9.00585 17.9938C9.86945 17.3433 10.4989 16.4304 10.7999 15.392L11.9449 12H1.40592L1.18492 12.657ZM17.7069 1.707L16.2929 0.293L14.0049 2.582L15.4189 4L17.7069 1.707ZM9.95692 2.543L7.70692 0.293L6.29292 1.707L8.54292 3.957L9.95692 2.543ZM10.9999 3H12.9999V0H10.9999V3ZM14.6559 10H21.9259L20.9599 7.132C20.728 6.38455 20.2152 5.75619 19.5294 5.37909C18.8436 5.00198 18.0384 4.90552 17.2829 5.11L13.7559 6.093C13.8995 6.27357 14.0301 6.46405 14.1469 6.663C14.7035 7.68095 14.8837 8.86242 14.6559 10V10Z" fill="#374957"/>
</g>
<defs>
<clipPath id="clip0_406_3805">
<rect width="24" height="24" fill="white"/>
</clipPath>
</defs>
</svg>
