<svg width="24" height="24" viewBox="0 0 24 24" fill="none" xmlns="http://www.w3.org/2000/svg">
<g clip-path="url(#clip0_406_3575)">
<path d="M21.414 9.957L23.957 12.5L22.543 13.914L20 11.371L17.457 13.914L16.043 12.5L18.586 9.957L16.043 7.414L17.457 6L20 8.543L22.543 6L23.957 7.414L21.414 9.957ZM9 12C10.1867 12 11.3467 11.6481 12.3334 10.9888C13.3201 10.3295 14.0892 9.39246 14.5433 8.2961C14.9974 7.19975 15.1162 5.99335 14.8847 4.82946C14.6532 3.66558 14.0818 2.59648 13.2426 1.75736C12.4035 0.918247 11.3344 0.346802 10.1705 0.115291C9.00666 -0.11622 7.80026 0.00259972 6.7039 0.456726C5.60754 0.910851 4.67047 1.67989 4.01118 2.66658C3.35189 3.65328 3 4.81332 3 6C3 7.5913 3.63214 9.11743 4.75736 10.2426C5.88258 11.3679 7.4087 12 9 12ZM13.043 14H4.957C3.64281 14.0016 2.3829 14.5244 1.45363 15.4536C0.524352 16.3829 0.00158783 17.6428 0 18.957L0 24H18V18.957C17.9984 17.6428 17.4756 16.3829 16.5464 15.4536C15.6171 14.5244 14.3572 14.0016 13.043 14V14Z" fill="#374957"/>
</g>
<defs>
<clipPath id="clip0_406_3575">
<rect width="24" height="24" fill="white"/>
</clipPath>
</defs>
</svg>
