<svg width="24" height="24" viewBox="0 0 24 24" fill="none" xmlns="http://www.w3.org/2000/svg">
<g clip-path="url(#clip0_406_3599)">
<path d="M12 0C14.9541 0.00893639 17.8017 1.10454 20 3.078V0H22V5.143C21.9995 5.63535 21.8037 6.10737 21.4555 6.45551C21.1074 6.80365 20.6353 6.99947 20.143 7H15V5H19.121C17.4957 3.35357 15.3492 2.3226 13.0481 2.08323C10.7471 1.84386 8.43428 2.41095 6.50494 3.68762C4.57561 4.96428 3.14945 6.87128 2.47015 9.08278C1.79085 11.2943 1.90057 13.6731 2.78055 15.8126C3.66053 17.9522 5.25617 19.7199 7.29483 20.8135C9.33349 21.9072 11.6887 22.259 13.9579 21.8088C16.2272 21.3586 18.2697 20.1344 19.7365 18.3454C21.2033 16.5564 22.0034 14.3135 22 12H24C24 14.3734 23.2962 16.6935 21.9776 18.6668C20.6591 20.6402 18.7849 22.1783 16.5922 23.0866C14.3995 23.9948 11.9867 24.2324 9.65892 23.7694C7.33115 23.3064 5.19295 22.1635 3.51472 20.4853C1.83649 18.8071 0.693605 16.6689 0.230582 14.3411C-0.232441 12.0133 0.00519943 9.60051 0.913451 7.4078C1.8217 5.21509 3.35977 3.34094 5.33316 2.02236C7.30655 0.703788 9.62663 0 12 0V0Z" fill="#374957"/>
<path d="M10.9997 6.99939V12.4134L14.2927 15.7064L15.7067 14.2924L12.9997 11.5854V6.99939H10.9997Z" fill="#374957"/>
</g>
<defs>
<clipPath id="clip0_406_3599">
<rect width="24" height="24" fill="white"/>
</clipPath>
</defs>
</svg>
