<svg width="24" height="24" viewBox="0 0 24 24" fill="none" xmlns="http://www.w3.org/2000/svg">
<g clip-path="url(#clip0_406_3948)">
<path d="M13 13.9999V15.9999H11V13.9999H0V23.9998H24V13.9999H13Z" fill="#374957"/>
<path d="M24 12V7C24 6.20435 23.6839 5.44129 23.1213 4.87868C22.5587 4.31607 21.7956 4 21 4H18V2C18 1.46957 17.7893 0.960859 17.4142 0.585786C17.0391 0.210714 16.5304 0 16 0L8 0C7.46957 0 6.96086 0.210714 6.58579 0.585786C6.21071 0.960859 6 1.46957 6 2V4H3C2.20435 4 1.44129 4.31607 0.87868 4.87868C0.31607 5.44129 0 6.20435 0 7L0 12H24ZM8 2H16V4H8V2Z" fill="#374957"/>
</g>
<defs>
<clipPath id="clip0_406_3948">
<rect width="24" height="24" fill="white"/>
</clipPath>
</defs>
</svg>
