<svg width="24" height="24" viewBox="0 0 24 24" fill="none" xmlns="http://www.w3.org/2000/svg">
<g clip-path="url(#clip0_406_3839)">
<path d="M22 0.999878H10.037V3.99988H8V0.999878H6V3.99988H3.963V0.999878H2C1.46957 0.999878 0.960859 1.21059 0.585786 1.58566C0.210714 1.96074 0 2.46944 0 2.99988L0 4.99988C0 5.53031 0.210714 6.03902 0.585786 6.41409C0.960859 6.78916 1.46957 6.99988 2 6.99988H22C22.5304 6.99988 23.0391 6.78916 23.4142 6.41409C23.7893 6.03902 24 5.53031 24 4.99988V2.99988C24 2.46944 23.7893 1.96074 23.4142 1.58566C23.0391 1.21059 22.5304 0.999878 22 0.999878Z" fill="#374957"/>
<path d="M22 9H10.037V12H8V9H6V12H3.963V9H2C1.46957 9 0.960859 9.21071 0.585786 9.58579C0.210714 9.96086 0 10.4696 0 11L0 13C0 13.5304 0.210714 14.0391 0.585786 14.4142C0.960859 14.7893 1.46957 15 2 15H22C22.5304 15 23.0391 14.7893 23.4142 14.4142C23.7893 14.0391 24 13.5304 24 13V11C24 10.4696 23.7893 9.96086 23.4142 9.58579C23.0391 9.21071 22.5304 9 22 9Z" fill="#374957"/>
<path d="M22 17.0001H10.037V20.0001H8V17.0001H6V20.0001H3.963V17.0001H2C1.46957 17.0001 0.960859 17.2108 0.585786 17.5859C0.210714 17.961 0 18.4697 0 19.0001L0 21.0001C0 21.5306 0.210714 22.0393 0.585786 22.4143C0.960859 22.7894 1.46957 23.0001 2 23.0001H22C22.5304 23.0001 23.0391 22.7894 23.4142 22.4143C23.7893 22.0393 24 21.5306 24 21.0001V19.0001C24 18.4697 23.7893 17.961 23.4142 17.5859C23.0391 17.2108 22.5304 17.0001 22 17.0001Z" fill="#374957"/>
</g>
<defs>
<clipPath id="clip0_406_3839">
<rect width="24" height="24" fill="white"/>
</clipPath>
</defs>
</svg>
