<svg width="24" height="24" viewBox="0 0 24 24" fill="none" xmlns="http://www.w3.org/2000/svg">
<g clip-path="url(#clip0_406_3574)">
<path d="M8.474 11C7.3862 11 6.32283 10.6774 5.41836 10.0731C4.51389 9.46874 3.80894 8.60975 3.39266 7.60476C2.97638 6.59977 2.86746 5.4939 3.07968 4.42701C3.2919 3.36011 3.81572 2.3801 4.58491 1.61092C5.3541 0.841726 6.33411 0.317902 7.401 0.105683C8.4679 -0.106535 9.57377 0.00238308 10.5788 0.418665C11.5838 0.834947 12.4427 1.5399 13.0471 2.44437C13.6514 3.34884 13.974 4.41221 13.974 5.5C13.9724 6.95821 13.3924 8.35623 12.3613 9.38734C11.3302 10.4184 9.9322 10.9984 8.474 11V11ZM17 10C15.6155 10 14.2622 10.4105 13.111 11.1797C11.9599 11.9489 11.0627 13.0421 10.5328 14.3212C10.003 15.6003 9.86441 17.0078 10.1345 18.3656C10.4046 19.7235 11.0713 20.9708 12.0503 21.9497C13.0292 22.9287 14.2765 23.5954 15.6344 23.8655C16.9922 24.1356 18.3997 23.997 19.6788 23.4672C20.9579 22.9373 22.0511 22.0401 22.8203 20.889C23.5895 19.7379 24 18.3845 24 17C23.9979 15.1441 23.2597 13.3649 21.9474 12.0526C20.6351 10.7403 18.8559 10.0021 17 10ZM19 20.414L16 17.414V13H18V16.586L20.414 19L19 20.414ZM8 17C8.00062 15.6112 8.32486 14.2417 8.947 13H5C3.6744 13.0016 2.40356 13.5289 1.46622 14.4662C0.528882 15.4036 0.00158786 16.6744 0 18L0 24H11.349C10.3029 23.1579 9.45895 22.0919 8.87936 20.8804C8.29977 19.669 7.99928 18.343 8 17V17Z" fill="#374957"/>
</g>
<defs>
<clipPath id="clip0_406_3574">
<rect width="24" height="24" fill="white"/>
</clipPath>
</defs>
</svg>
