<svg width="24" height="24" viewBox="0 0 24 24" fill="none" xmlns="http://www.w3.org/2000/svg">
<g clip-path="url(#clip0_406_3609)">
<path d="M7 21V24H3V21H7ZM17 21V24H21V21H17ZM24 16V19H0V16C0 15.2044 0.31607 14.4413 0.87868 13.8787C1.44129 13.3161 2.20435 13 3 13H21C21.7956 13 22.5587 13.3161 23.1213 13.8787C23.6839 14.4413 24 15.2044 24 16ZM5 15C4.73478 15 4.48043 15.1054 4.29289 15.2929C4.10536 15.4804 4 15.7348 4 16V16C4 16.2652 4.10536 16.5196 4.29289 16.7071C4.48043 16.8946 4.73478 17 5 17C5.26522 17 5.51957 16.8946 5.70711 16.7071C5.89464 16.5196 6 16.2652 6 16C6 15.7348 5.89464 15.4804 5.70711 15.2929C5.51957 15.1054 5.26522 15 5 15ZM19 15C18.7348 15 18.4804 15.1054 18.2929 15.2929C18.1054 15.4804 18 15.7348 18 16C18 16.2652 18.1054 16.5196 18.2929 16.7071C18.4804 16.8946 18.7348 17 19 17C19.2652 17 19.5196 16.8946 19.7071 16.7071C19.8946 16.5196 20 16.2652 20 16C20 15.7348 19.8946 15.4804 19.7071 15.2929C19.5196 15.1054 19.2652 15 19 15ZM15.108 2L14.9 1.368C14.7672 0.969266 14.5122 0.622498 14.1711 0.376931C13.83 0.131365 13.4203 -0.000519829 13 1.53987e-06H11.108C10.6877 -0.000519829 10.278 0.131365 9.93691 0.376931C9.59585 0.622498 9.34081 0.969266 9.208 1.368L9 2H15.108ZM20.667 9L19.456 5.368C19.3233 4.96959 19.0686 4.62305 18.7279 4.37752C18.3872 4.13198 17.9779 3.9999 17.558 4H6.442C6.02173 3.99948 5.61197 4.13137 5.27091 4.37693C4.92984 4.6225 4.67481 4.96927 4.542 5.368L3.333 9H0V11H24V9H20.667Z" fill="#374957"/>
</g>
<defs>
<clipPath id="clip0_406_3609">
<rect width="24" height="24" fill="white"/>
</clipPath>
</defs>
</svg>
