<svg width="24" height="24" viewBox="0 0 24 24" fill="none" xmlns="http://www.w3.org/2000/svg">
<g clip-path="url(#clip0_406_3880)">
<path d="M0 9.00012V23.0001H24V9.00012H0ZM15 19.0001H5V17.0001H15V19.0001ZM19 15.0001H5V13.0001H19V15.0001ZM21 1.00012H3C2.20435 1.00012 1.44129 1.31619 0.87868 1.8788C0.31607 2.44141 0 3.20447 0 4.00012L0 7.00012H24V4.00012C24 3.20447 23.6839 2.44141 23.1213 1.8788C22.5587 1.31619 21.7956 1.00012 21 1.00012V1.00012ZM4 5.00012C3.80222 5.00012 3.60888 4.94147 3.44443 4.83159C3.27998 4.72171 3.15181 4.56553 3.07612 4.38281C3.00043 4.20008 2.98063 3.99901 3.01921 3.80503C3.0578 3.61105 3.15304 3.43287 3.29289 3.29302C3.43275 3.15316 3.61093 3.05792 3.80491 3.01934C3.99889 2.98075 4.19996 3.00055 4.38268 3.07624C4.56541 3.15193 4.72159 3.2801 4.83147 3.44455C4.94135 3.609 5 3.80234 5 4.00012C5 4.26534 4.89464 4.51969 4.70711 4.70723C4.51957 4.89477 4.26522 5.00012 4 5.00012ZM7 5.00012C6.80222 5.00012 6.60888 4.94147 6.44443 4.83159C6.27998 4.72171 6.15181 4.56553 6.07612 4.38281C6.00043 4.20008 5.98063 3.99901 6.01921 3.80503C6.0578 3.61105 6.15304 3.43287 6.29289 3.29302C6.43275 3.15316 6.61093 3.05792 6.80491 3.01934C6.99889 2.98075 7.19996 3.00055 7.38268 3.07624C7.56541 3.15193 7.72159 3.2801 7.83147 3.44455C7.94135 3.609 8 3.80234 8 4.00012C8 4.26534 7.89464 4.51969 7.70711 4.70723C7.51957 4.89477 7.26522 5.00012 7 5.00012ZM10 5.00012C9.80222 5.00012 9.60888 4.94147 9.44443 4.83159C9.27998 4.72171 9.15181 4.56553 9.07612 4.38281C9.00043 4.20008 8.98063 3.99901 9.01921 3.80503C9.0578 3.61105 9.15304 3.43287 9.29289 3.29302C9.43275 3.15316 9.61093 3.05792 9.80491 3.01934C9.99889 2.98075 10.2 3.00055 10.3827 3.07624C10.5654 3.15193 10.7216 3.2801 10.8315 3.44455C10.9414 3.609 11 3.80234 11 4.00012C11 4.26534 10.8946 4.51969 10.7071 4.70723C10.5196 4.89477 10.2652 5.00012 10 5.00012Z" fill="#374957"/>
</g>
<defs>
<clipPath id="clip0_406_3880">
<rect width="24" height="24" fill="white"/>
</clipPath>
</defs>
</svg>
