<svg width="24" height="24" viewBox="0 0 24 24" fill="none" xmlns="http://www.w3.org/2000/svg">
<path d="M17.7915 7.21208C17.3472 5.30137 16.2162 3.62053 14.6137 2.48907C13.0111 1.35761 11.0487 0.854401 9.09947 1.0751C7.15021 1.2958 5.34999 2.22502 4.04099 3.68613C2.73199 5.14724 2.00547 7.03838 1.99953 9.00008C1.99867 10.2785 2.30748 11.5381 2.89953 12.6711C1.82066 13.2492 0.965933 14.1713 0.471153 15.2909C-0.023628 16.4104 -0.130082 17.6632 0.168705 18.8502C0.467492 20.0372 1.15438 21.0903 2.12024 21.8422C3.0861 22.5941 4.27552 23.0016 5.49953 23.0001H15.9995C17.9586 22.991 19.8463 22.2633 21.3046 20.9551C22.7629 19.6469 23.6904 17.849 23.9114 15.9024C24.1323 13.9558 23.6313 11.9958 22.5033 10.394C21.3753 8.79221 19.6987 7.66002 17.7915 7.21208V7.21208Z" fill="#374957"/>
</svg>
