<svg width="24" height="24" viewBox="0 0 24 24" fill="none" xmlns="http://www.w3.org/2000/svg">
<path d="M8.99985 16.0003H14.9998V18.0003H8.99985V16.0003ZM13.7928 6.79333L11.9998 8.58634L10.2068 6.79333L8.79285 8.20733L10.5858 10.0003L8.79285 11.7933L10.2068 13.2073L11.9998 11.4143L13.7928 13.2073L15.2068 11.7933L13.4138 10.0003L15.2068 8.20733L13.7928 6.79333ZM16.9998 18.0003H22.9998V16.0003H16.9998V18.0003ZM23.2068 8.20733L21.7928 6.79333L19.9998 8.58634L18.2068 6.79333L16.7928 8.20733L18.5858 10.0003L16.7928 11.7933L18.2068 13.2073L19.9998 11.4143L21.7928 13.2073L23.2068 11.7933L21.4138 10.0003L23.2068 8.20733ZM0.999847 18.0003H6.99985V16.0003H0.999847V18.0003ZM5.79285 6.79333L3.99985 8.58634L2.20685 6.79333L0.792847 8.20733L2.58585 10.0003L0.792847 11.7933L2.20685 13.2073L3.99985 11.4143L5.79285 13.2073L7.20685 11.7933L5.41385 10.0003L7.20685 8.20733L5.79285 6.79333Z" fill="#374957"/>
</svg>
