<svg width="24" height="24" viewBox="0 0 24 24" fill="none" xmlns="http://www.w3.org/2000/svg">
<g clip-path="url(#clip0_406_3812)">
<path d="M21.946 11C21.4814 10.9997 21.0308 10.8406 20.669 10.549L19.5 9.613L18.331 10.549C18.0293 10.7899 17.6658 10.9408 17.2822 10.9844C16.8986 11.0279 16.5105 10.9622 16.1625 10.795C15.8145 10.6278 15.5208 10.3657 15.3152 10.039C15.1095 9.71222 15.0003 9.33407 15 8.948V0H24V8.948C23.9987 9.49216 23.7818 10.0136 23.3968 10.3982C23.0118 10.7828 22.4902 10.9992 21.946 11V11ZM12 15.422C12.7955 15.4229 13.5588 15.1078 14.122 14.546L15.853 12.815C15.6637 12.7568 15.4789 12.685 15.3 12.6C14.6088 12.2732 14.0253 11.756 13.6179 11.1091C13.2105 10.4622 12.9961 9.71249 13 8.948V3H3C2.40116 3.0009 1.81629 3.181 1.32067 3.51711C0.825055 3.85323 0.441369 4.32998 0.219 4.886L9.878 14.546C10.4412 15.1078 11.2045 15.4229 12 15.422ZM23.7 12.6C23.0272 12.9167 22.2809 13.0444 21.5411 12.9696C20.8013 12.8947 20.0957 12.6201 19.5 12.175L19.394 12.104L15.536 15.96C14.5974 16.8963 13.3257 17.422 12 17.422C10.6743 17.422 9.40263 16.8963 8.464 15.96L0 7.5V24H24V12.43C23.9 12.487 23.808 12.548 23.7 12.6Z" fill="#374957"/>
</g>
<defs>
<clipPath id="clip0_406_3812">
<rect width="24" height="24" fill="white"/>
</clipPath>
</defs>
</svg>
