<svg width="24" height="24" viewBox="0 0 24 24" fill="none" xmlns="http://www.w3.org/2000/svg">
<path d="M17.79 7.20884C17.3438 5.2998 16.2122 3.62106 14.6099 2.49134C13.0077 1.36162 11.0463 0.859577 9.09834 1.08053C7.15034 1.30148 5.35129 2.23005 4.04276 3.68993C2.73422 5.14981 2.00731 7.03936 2.00002 8.99984C1.99904 10.2782 2.30785 11.5378 2.90002 12.6708C1.82115 13.249 0.966422 14.1711 0.471641 15.2906C-0.0231397 16.4102 -0.129593 17.663 0.169193 18.85C0.46798 20.037 1.15487 21.0901 2.12073 21.8419C3.08658 22.5938 4.27601 23.0014 5.50002 22.9998H16C17.9612 22.9933 19.8516 22.2667 21.3122 20.958C22.7728 19.6493 23.7017 17.8496 23.9226 15.901C24.1435 13.9523 23.6409 11.9904 22.5103 10.3879C21.3798 8.78547 19.6999 7.65413 17.79 7.20884ZM16.747 20.2758C16.2835 20.7388 15.6552 20.9989 15 20.9989C14.3449 20.9989 13.7165 20.7388 13.253 20.2758L10.053 17.0758L11.467 15.6618L14 18.1998V9.99984H16V18.1998L18.535 15.6648L19.949 17.0788L16.747 20.2758Z" fill="#374957"/>
</svg>
