<svg width="24" height="24" viewBox="0 0 24 24" fill="none" xmlns="http://www.w3.org/2000/svg">
<g clip-path="url(#clip0_406_3706)">
<path d="M23 10C19.6134 10.0316 16.2503 10.5665 13.021 11.587C13.238 8.549 15.828 7 19 7C19.5304 7 20.0391 6.78929 20.4142 6.41421C20.7893 6.03914 21 5.53043 21 5C21 4.46957 20.7893 3.96086 20.4142 3.58579C20.0391 3.21071 19.5304 3 19 3C15.686 3 13 4.686 13 8V0H11V8C11 4.686 8.314 3 5 3C4.46957 3 3.96086 3.21071 3.58579 3.58579C3.21071 3.96086 3 4.46957 3 5C3 5.53043 3.21071 6.03914 3.58579 6.41421C3.96086 6.78929 4.46957 7 5 7C8.172 7 10.762 8.549 10.979 11.587C7.74965 10.5666 4.38658 10.0318 1 10H0V11C0 22.311 4.386 24 7 24C8.11552 23.9402 9.1841 23.5316 10.055 22.832C10.6059 22.3669 11.2832 22.0772 12 22C12.7168 22.0772 13.3941 22.3669 13.945 22.832C14.8159 23.5316 15.8845 23.9402 17 24C19.614 24 24 22.311 24 11V10H23ZM6.123 19.362C4.583 19.756 4.242 17.815 3.77 15C5.90334 15.3428 7.99984 15.8848 10.032 16.619L10.994 16.998C8.761 17.216 7.3 19.061 6.123 19.362ZM17.849 19.362C16.674 19.062 15.211 17.216 12.978 16.998L13.94 16.619C15.9715 15.885 18.0673 15.3429 20.2 15C19.73 17.815 19.389 19.756 17.849 19.362Z" fill="#374957"/>
</g>
<defs>
<clipPath id="clip0_406_3706">
<rect width="24" height="24" fill="white"/>
</clipPath>
</defs>
</svg>
