<svg width="24" height="24" viewBox="0 0 24 24" fill="none" xmlns="http://www.w3.org/2000/svg">
<g clip-path="url(#clip0_406_3990)">
<path d="M21 3H3C2.20435 3 1.44129 3.31607 0.87868 3.87868C0.31607 4.44129 0 5.20435 0 6L0 8H24V6C24 5.20435 23.6839 4.44129 23.1213 3.87868C22.5587 3.31607 21.7956 3 21 3Z" fill="#374957"/>
<path d="M0 20.9999H24V9.99988H0V20.9999ZM7 15.4999C7 15.7965 6.91203 16.0866 6.7472 16.3332C6.58238 16.5799 6.34811 16.7722 6.07403 16.8857C5.79994 16.9992 5.49834 17.0289 5.20736 16.971C4.91639 16.9132 4.64912 16.7703 4.43934 16.5605C4.22956 16.3507 4.0867 16.0835 4.02882 15.7925C3.97094 15.5015 4.00065 15.1999 4.11418 14.9258C4.22771 14.6518 4.41997 14.4175 4.66664 14.2527C4.91332 14.0878 5.20333 13.9999 5.5 13.9999C5.89782 13.9999 6.27936 14.1579 6.56066 14.4392C6.84196 14.7205 7 15.102 7 15.4999" fill="#374957"/>
</g>
<defs>
<clipPath id="clip0_406_3990">
<rect width="24" height="24" fill="white"/>
</clipPath>
</defs>
</svg>
