<svg width="24" height="24" viewBox="0 0 24 24" fill="none" xmlns="http://www.w3.org/2000/svg">
<g clip-path="url(#clip0_406_4035)">
<path d="M14 7.0002C14 7.39577 13.8827 7.78245 13.663 8.11134C13.4432 8.44024 13.1309 8.69659 12.7654 8.84796C12.4 8.99934 11.9978 9.03894 11.6099 8.96177C11.2219 8.8846 10.8655 8.69412 10.5858 8.41442C10.3061 8.13471 10.1156 7.77835 10.0385 7.39038C9.9613 7.00242 10.0009 6.60029 10.1523 6.23484C10.3037 5.86938 10.56 5.55703 10.8889 5.33726C11.2178 5.1175 11.6045 5.0002 12 5.0002C12.5305 5.0002 13.0392 5.21092 13.4143 5.58599C13.7893 5.96106 14 6.46977 14 7.0002ZM16.95 11.9572L12 16.8002L7.05804 11.9642C6.07722 10.9865 5.40848 9.73973 5.13642 8.38179C4.86437 7.02386 5.00124 5.61574 5.5297 4.33561C6.05817 3.05548 6.95449 1.96088 8.10524 1.19031C9.25599 0.419741 10.6095 0.00783619 11.9944 0.00671616C13.3793 0.00559613 14.7334 0.415311 15.8854 1.18402C17.0374 1.95272 17.9355 3.04588 18.466 4.32515C18.9966 5.60442 19.1357 7.01231 18.8659 8.37069C18.596 9.72906 17.9293 10.9769 16.95 11.9562V11.9572ZM16 7.0002C16 6.20908 15.7654 5.43572 15.3259 4.77792C14.8864 4.12013 14.2617 3.60744 13.5308 3.30468C12.7999 3.00193 11.9956 2.92272 11.2197 3.07706C10.4438 3.2314 9.73102 3.61237 9.17161 4.17178C8.6122 4.73119 8.23124 5.44392 8.0769 6.21984C7.92256 6.99577 8.00177 7.80003 8.30452 8.53094C8.60727 9.26184 9.11996 9.88656 9.77776 10.3261C10.4356 10.7656 11.2089 11.0002 12 11.0002C13.0609 11.0002 14.0783 10.5788 14.8285 9.82863C15.5786 9.07848 16 8.06107 16 7.0002V7.0002ZM21.867 10.6132L20.432 10.1332C19.9854 11.3499 19.2798 12.455 18.364 13.3722L12 19.6002L5.66004 13.4002C4.45654 12.2012 3.61745 10.6856 3.24004 9.0292C2.82778 8.99126 2.41214 9.03998 2.01983 9.17224C1.62752 9.3045 1.26722 9.51737 0.962083 9.79717C0.656945 10.077 0.41372 10.4175 0.248037 10.7969C0.0823542 11.1763 -0.00212075 11.5862 4.04447e-05 12.0002V21.7522L7.98304 24.0332L16.003 22.0332L24.003 23.9812V13.4832C24.0026 12.8387 23.7947 12.2115 23.41 11.6944C23.0253 11.1773 22.4842 10.7978 21.867 10.6122V10.6132Z" fill="#374957"/>
</g>
<defs>
<clipPath id="clip0_406_4035">
<rect width="24" height="24" fill="white"/>
</clipPath>
</defs>
</svg>
