<svg width="24" height="24" viewBox="0 0 24 24" fill="none" xmlns="http://www.w3.org/2000/svg">
<g clip-path="url(#clip0_406_3925)">
<path d="M17.6132 12.8481L23.8782 19.1131L20.7072 22.2841C20.1544 22.8343 19.4979 23.2693 18.7757 23.5638C18.0536 23.8584 17.2801 24.0067 16.5002 24.0001C9.25219 24.0001 0.000195101 14.7481 0.000195101 7.50009C-0.00614821 6.72007 0.142247 5.94654 0.436795 5.22425C0.731342 4.50195 1.1662 3.84523 1.7162 3.29209L4.8872 0.122091L11.1522 6.38709L7.02719 10.5121C8.25352 13.4264 10.5688 15.747 13.4802 16.9801L17.6132 12.8481ZM17.5002 9.00009H22.0002V7.00009H18.4392C19.0962 6.34009 23.3652 2.04909 23.9572 1.45709L22.5432 0.0430908C21.9512 0.635091 17.6612 4.94809 17.0002 5.61109V2.00009H15.0002V6.52909C15.0047 7.18808 15.2704 7.81837 15.7391 8.28163C16.2078 8.7449 16.8412 9.00328 17.5002 9.00009V9.00009Z" fill="#374957"/>
</g>
<defs>
<clipPath id="clip0_406_3925">
<rect width="24" height="24" fill="white"/>
</clipPath>
</defs>
</svg>
