<svg width="24" height="24" viewBox="0 0 24 24" fill="none" xmlns="http://www.w3.org/2000/svg">
<g clip-path="url(#clip0_406_3854)">
<path d="M19 2V0H17V2H15V0H13V2H11V0H9V2H7V0H5V2H3V21C3 21.7956 3.31607 22.5587 3.87868 23.1213C4.44129 23.6839 5.20435 24 6 24H18C18.7956 24 19.5587 23.6839 20.1213 23.1213C20.6839 22.5587 21 21.7956 21 21V2H19ZM13 17H7V15H13V17ZM17 13H7V11H17V13ZM17 9H7V7H17V9Z" fill="#374957"/>
</g>
<defs>
<clipPath id="clip0_406_3854">
<rect width="24" height="24" fill="white"/>
</clipPath>
</defs>
</svg>
