<svg width="24" height="24" viewBox="0 0 24 24" fill="none" xmlns="http://www.w3.org/2000/svg">
<g clip-path="url(#clip0_406_4018)">
<path d="M24 20.0002H14.816C14.6666 19.582 14.4262 19.2021 14.1122 18.8881C13.7981 18.574 13.4182 18.3336 13 18.1842V14.0002H16C17.2581 14.0007 18.4702 13.5269 19.3944 12.6733C20.3186 11.8198 20.8871 10.6491 20.9864 9.39494C21.0858 8.14076 20.7086 6.89523 19.9303 5.90681C19.1519 4.91839 18.0295 4.25973 16.787 4.06222C16.4405 2.77642 15.6384 1.66046 14.5301 0.922315C13.4217 0.184165 12.0828 -0.125813 10.7628 0.0501513C9.44283 0.226115 8.23187 0.876015 7.3556 1.87873C6.47932 2.88145 5.99753 4.16857 6 5.50022C6.00029 5.70646 6.01298 5.9125 6.038 6.11722C5.08935 6.35184 4.25941 6.92563 3.70484 7.73027C3.15027 8.53491 2.90945 9.51472 3.02783 10.4848C3.1462 11.4548 3.61559 12.3479 4.34739 12.9956C5.07919 13.6433 6.02277 14.0006 7 14.0002H11V18.1842C10.5818 18.3336 10.2019 18.574 9.88785 18.8881C9.5738 19.2021 9.3334 19.582 9.184 20.0002H0V22.0002H9.184C9.38765 22.5848 9.76815 23.0914 10.2727 23.45C10.7773 23.8085 11.381 24.0012 12 24.0012C12.619 24.0012 13.2227 23.8085 13.7273 23.45C14.2318 23.0914 14.6124 22.5848 14.816 22.0002H24V20.0002Z" fill="#374957"/>
</g>
<defs>
<clipPath id="clip0_406_4018">
<rect width="24" height="24" fill="white"/>
</clipPath>
</defs>
</svg>
