<svg width="24" height="24" viewBox="0 0 24 24" fill="none" xmlns="http://www.w3.org/2000/svg">
<g clip-path="url(#clip0_406_3659)">
<path d="M0 7.99939V13.9994H7.91C7.67273 15.3959 6.94948 16.6637 5.86803 17.5786C4.78658 18.4935 3.41655 18.9968 2 18.9994V20.9994C4.121 20.997 6.15445 20.1534 7.65422 18.6536C9.154 17.1538 9.99762 15.1204 10 12.9994V3.99939H4C2.93913 3.99939 1.92172 4.42082 1.17157 5.17096C0.421427 5.92111 0 6.93852 0 7.99939H0Z" fill="#374957"/>
<path d="M18.0002 3.99939C16.9393 3.99939 15.9219 4.42082 15.1717 5.17096C14.4216 5.92111 14.0002 6.93852 14.0002 7.99939V13.9994H21.9102C21.6729 15.3959 20.9496 16.6637 19.8682 17.5786C18.7867 18.4935 17.4167 18.9968 16.0002 18.9994V20.9994C18.1212 20.997 20.1546 20.1534 21.6544 18.6536C23.1542 17.1538 23.9978 15.1204 24.0002 12.9994V3.99939H18.0002Z" fill="#374957"/>
</g>
<defs>
<clipPath id="clip0_406_3659">
<rect width="24" height="24" fill="white"/>
</clipPath>
</defs>
</svg>
