<svg width="24" height="24" viewBox="0 0 24 24" fill="none" xmlns="http://www.w3.org/2000/svg">
<g clip-path="url(#clip0_406_3668)">
<path d="M12 0C8.8174 0 5.76516 1.26428 3.51472 3.51472C1.26428 5.76516 0 8.8174 0 12C0 15.1826 1.26428 18.2348 3.51472 20.4853C5.76516 22.7357 8.8174 24 12 24H24V12C23.9966 8.81846 22.7312 5.76821 20.4815 3.51852C18.2318 1.26883 15.1815 0.00344108 12 0V0ZM11.909 16.419C11.5342 16.7924 11.0266 17.0021 10.4975 17.0021C9.9684 17.0021 9.46085 16.7924 9.086 16.419L5.3 12.715L6.7 11.285L10.493 14.992L17.299 8.292L18.699 9.716L11.909 16.419Z" fill="#374957"/>
</g>
<defs>
<clipPath id="clip0_406_3668">
<rect width="24" height="24" fill="white"/>
</clipPath>
</defs>
</svg>
