<svg width="24" height="24" viewBox="0 0 24 24" fill="none" xmlns="http://www.w3.org/2000/svg">
<g clip-path="url(#clip0_406_4007)">
<path d="M3.12091 11.2929L13.0129 1.39994L11.5999 -0.0130615L1.70691 9.87894C1.1445 10.4415 0.828552 11.2044 0.828552 11.9999C0.828552 12.7954 1.1445 13.5584 1.70691 14.1209L11.5919 24.0059L13.0059 22.5919L3.12191 12.7069C2.93431 12.5195 2.82881 12.2653 2.82862 12.0001C2.82844 11.735 2.93357 11.4806 3.12091 11.2929V11.2929Z" fill="#374957"/>
<path d="M23 1.417L21.583 0L10.293 11.29C10.1056 11.4775 10.0002 11.7318 10.0002 11.997C10.0002 12.2622 10.1056 12.5165 10.293 12.704L21.584 24L23 22.584L12.414 12L23 1.417Z" fill="#374957"/>
</g>
<defs>
<clipPath id="clip0_406_4007">
<rect width="24" height="24" fill="white"/>
</clipPath>
</defs>
</svg>
