<svg width="24" height="24" viewBox="0 0 24 24" fill="none" xmlns="http://www.w3.org/2000/svg">
<g clip-path="url(#clip0_406_3881)">
<path d="M23.8779 19.113L20.7069 22.285C20.1541 22.835 19.4975 23.2698 18.7753 23.5642C18.0532 23.8586 17.2798 24.0067 16.4999 24C9.25193 24 -7.27975e-05 14.748 -7.27975e-05 7.5C-0.00700483 6.71981 0.141218 5.94603 0.43598 5.22363C0.730742 4.50123 1.16616 3.84463 1.71693 3.292L4.88693 0.122L11.1509 6.387L7.02693 10.512C8.25294 13.4267 10.5683 15.7478 13.4799 16.981L17.6129 12.848L23.8779 19.113ZM21.9999 0H19.9999V8H21.9999V0ZM17.9999 0H15.9999V8H17.9999V0Z" fill="#374957"/>
</g>
<defs>
<clipPath id="clip0_406_3881">
<rect width="24" height="24" fill="white"/>
</clipPath>
</defs>
</svg>
