<svg width="24" height="24" viewBox="0 0 24 24" fill="none" xmlns="http://www.w3.org/2000/svg">
<g clip-path="url(#clip0_406_3687)">
<path d="M23.9572 1.45733L1.45723 23.9573L0.0432256 22.5433L4.82523 17.7613C1.79123 14.5003 0.000225619 10.7413 0.000225619 7.50033C-0.00611769 6.72031 0.142277 5.94678 0.436825 5.22448C0.731373 4.50219 1.16623 3.84547 1.71623 3.29233L4.88723 0.122335L11.1522 6.38733L7.02823 10.5113C7.5265 11.6334 8.17585 12.6821 8.95823 13.6283L22.5432 0.043335L23.9572 1.45733ZM13.4802 16.9803C12.9777 16.7581 12.4897 16.5043 12.0192 16.2203L7.78323 20.4563C10.7002 22.6943 13.8352 24.0003 16.5002 24.0003C17.2802 24.0071 18.0537 23.8589 18.7759 23.5644C19.4981 23.2698 20.1546 22.8347 20.7072 22.2843L23.8782 19.1133L17.6132 12.8483L13.4802 16.9803Z" fill="#374957"/>
</g>
<defs>
<clipPath id="clip0_406_3687">
<rect width="24" height="24" fill="white"/>
</clipPath>
</defs>
</svg>
