<svg width="24" height="24" viewBox="0 0 24 24" fill="none" xmlns="http://www.w3.org/2000/svg">
<g clip-path="url(#clip0_406_3685)">
<path d="M9 18H0V9C0 7.21997 0.527841 5.47991 1.51677 3.99987C2.50571 2.51983 3.91131 1.36628 5.55585 0.685088C7.20038 0.00389957 9.00998 -0.17433 10.7558 0.172937C12.5016 0.520204 14.1053 1.37737 15.364 2.63604C16.6226 3.89472 17.4798 5.49836 17.8271 7.24419C18.1743 8.99002 17.9961 10.7996 17.3149 12.4442C16.6337 14.0887 15.4802 15.4943 14.0001 16.4832C12.5201 17.4722 10.78 18 9 18V18ZM20 9.08C19.977 11.9691 18.8191 14.7333 16.7762 16.7762C14.7332 18.8191 11.9691 19.977 9.08 20V20C9.78145 21.215 10.7901 22.2241 12.0047 22.9262C13.2192 23.6282 14.5971 23.9986 16 24H24V16C23.9986 14.5971 23.6282 13.2192 22.9262 12.0047C22.2241 10.7901 21.2149 9.78146 20 9.08Z" fill="#374957"/>
</g>
<defs>
<clipPath id="clip0_406_3685">
<rect width="24" height="24" fill="white"/>
</clipPath>
</defs>
</svg>
