<svg width="24" height="24" viewBox="0 0 24 24" fill="none" xmlns="http://www.w3.org/2000/svg">
<g clip-path="url(#clip0_406_3721)">
<path d="M9.24423 7.82987C10.0615 7.28859 11.02 6.99995 12.0002 6.99995C12.9805 6.99995 13.939 7.28859 14.7562 7.82987L19.7442 2.84187C17.5811 1.00711 14.8367 0 12.0002 0C9.16374 0 6.41939 1.00711 4.25623 2.84187L9.24423 7.82987Z" fill="#374957"/>
<path d="M21.158 4.25574L16.17 9.24374C16.7113 10.061 17 11.0195 17 11.9997C17 12.98 16.7113 13.9385 16.17 14.7557L21.158 19.7437C22.9928 17.5806 23.9999 14.8362 23.9999 11.9997C23.9999 9.16325 22.9928 6.41891 21.158 4.25574V4.25574Z" fill="#374957"/>
<path d="M14.7562 16.17C13.939 16.7113 12.9805 17 12.0002 17C11.02 17 10.0615 16.7113 9.24423 16.17L4.25623 21.158C6.41939 22.9928 9.16374 23.9999 12.0002 23.9999C14.8367 23.9999 17.5811 22.9928 19.7442 21.158L14.7562 16.17Z" fill="#374957"/>
<path d="M7.82981 14.7557C7.28853 13.9385 6.99989 12.98 6.99989 11.9997C6.99989 11.0195 7.28853 10.061 7.82981 9.24374L2.84181 4.25574C1.00705 6.41891 -6.10352e-05 9.16325 -6.10352e-05 11.9997C-6.10352e-05 14.8362 1.00705 17.5806 2.84181 19.7437L7.82981 14.7557Z" fill="#374957"/>
</g>
<defs>
<clipPath id="clip0_406_3721">
<rect width="24" height="24" fill="white"/>
</clipPath>
</defs>
</svg>
