<svg width="24" height="24" viewBox="0 0 24 24" fill="none" xmlns="http://www.w3.org/2000/svg">
<g clip-path="url(#clip0_406_3968)">
<path d="M12 0C9.04845 0.00519955 6.20159 1.09413 4 3.06V0H2V5.143C2.00053 5.63535 2.19635 6.10737 2.54449 6.45551C2.89263 6.80365 3.36466 6.99947 3.857 7H9V5H4.86C6.48281 3.34508 8.63011 2.30527 10.9347 2.05836C13.2394 1.81145 15.5582 2.37278 17.4948 3.64637C19.4313 4.91995 20.8653 6.8267 21.5516 9.0406C22.2379 11.2545 22.1338 13.638 21.2572 15.7837C20.3805 17.9293 18.7857 19.7038 16.7455 20.8037C14.7053 21.9037 12.3464 22.2607 10.0721 21.8139C7.79772 21.367 5.74923 20.144 4.27686 18.3539C2.80449 16.5638 1.99966 14.3178 2 12H0C0 14.3734 0.703788 16.6935 2.02236 18.6668C3.34094 20.6402 5.21509 22.1783 7.4078 23.0866C9.60051 23.9948 12.0133 24.2324 14.3411 23.7694C16.6689 23.3064 18.8071 22.1635 20.4853 20.4853C22.1635 18.8071 23.3064 16.6689 23.7694 14.3411C24.2324 12.0133 23.9948 9.60051 23.0866 7.4078C22.1783 5.21509 20.6402 3.34094 18.6668 2.02236C16.6935 0.703788 14.3734 0 12 0V0Z" fill="#374957"/>
<path d="M11.0002 6.99939V12.4134L14.2932 15.7064L15.7072 14.2924L13.0002 11.5854V6.99939H11.0002Z" fill="#374957"/>
</g>
<defs>
<clipPath id="clip0_406_3968">
<rect width="24" height="24" fill="white"/>
</clipPath>
</defs>
</svg>
