<svg width="24" height="24" viewBox="0 0 24 24" fill="none" xmlns="http://www.w3.org/2000/svg">
<g clip-path="url(#clip0_406_3673)">
<path d="M18 12C18 10.8133 17.6481 9.65326 16.9888 8.66657C16.3295 7.67987 15.3924 6.91084 14.2961 6.45671C13.1997 6.00259 11.9933 5.88377 10.8294 6.11528C9.66556 6.34679 8.59647 6.91824 7.75735 7.75735C6.91824 8.59647 6.34679 9.66556 6.11528 10.8294C5.88377 11.9933 6.00259 13.1997 6.45671 14.2961C6.91084 15.3924 7.67987 16.3295 8.66657 16.9888C9.65326 17.6481 10.8133 18 12 18C13.5908 17.9984 15.116 17.3658 16.2409 16.2409C17.3658 15.116 17.9984 13.5908 18 12V12ZM12 16L8.99999 12L12 7.99999L15 12L12 16ZM16.391 0.842992C17.9209 1.44919 19.3105 2.36224 20.4741 3.52587C21.6377 4.68951 22.5508 6.07909 23.157 7.60899L19.31 8.76299C18.5013 6.94933 17.0507 5.49867 15.237 4.68999L16.391 0.842992ZM9.52199 0.259992C11.1558 -0.0866639 12.8442 -0.0866639 14.478 0.259992L13.32 4.11799C12.447 3.96066 11.553 3.96066 10.68 4.11799L9.52199 0.259992ZM19.882 13.32C20.0393 12.447 20.0393 11.553 19.882 10.68L23.74 9.52199C24.0866 11.1558 24.0866 12.8442 23.74 14.478L19.882 13.32ZM4.11799 13.32L0.259992 14.478C-0.0866639 12.8442 -0.0866639 11.1558 0.259992 9.52199L4.11799 10.68C3.96066 11.553 3.96066 12.447 4.11799 13.32V13.32ZM14.478 23.74C12.8442 24.0866 11.1558 24.0866 9.52199 23.74L10.68 19.882C11.553 20.0393 12.447 20.0393 13.32 19.882L14.478 23.74ZM23.157 16.391C22.5508 17.9209 21.6377 19.3105 20.4741 20.4741C19.3105 21.6377 17.9209 22.5508 16.391 23.157L15.237 19.31C17.0507 18.5013 18.5013 17.0507 19.31 15.237L23.157 16.391ZM0.843992 7.60899C1.44982 6.07903 2.36262 4.68938 3.52611 3.52572C4.6896 2.36206 6.07912 1.44905 7.60899 0.842992L8.76299 4.68999C6.94938 5.4984 5.49895 6.94918 4.69099 8.76299L0.843992 7.60899ZM7.60899 23.157C6.07912 22.5509 4.6896 21.6379 3.52611 20.4743C2.36262 19.3106 1.44982 17.921 0.843992 16.391L4.69099 15.237C5.49895 17.0508 6.94938 18.5016 8.76299 19.31L7.60899 23.157Z" fill="#374957"/>
</g>
<defs>
<clipPath id="clip0_406_3673">
<rect width="24" height="24" fill="white"/>
</clipPath>
</defs>
</svg>
