<svg width="24" height="24" viewBox="0 0 24 24" fill="none" xmlns="http://www.w3.org/2000/svg">
<g clip-path="url(#clip0_406_3840)">
<path d="M24.0002 3.00023V6.00023C24.0002 6.79588 23.6841 7.55894 23.1215 8.12155C22.5589 8.68416 21.7959 9.00023 21.0002 9.00023H18.0002V7.00023H20.6372C19.8231 5.59422 18.6785 4.40794 17.3024 3.54421C15.9263 2.68048 14.3604 2.16536 12.7403 2.04349C11.1202 1.92163 9.49481 2.19669 8.00502 2.84485C6.51523 3.49301 5.20598 4.4947 4.19074 5.76312C3.1755 7.03154 2.4849 8.5284 2.17881 10.124C1.87271 11.7196 1.96034 13.3657 2.43411 14.9198C2.90788 16.4739 3.75349 17.889 4.89766 19.0424C6.04182 20.1959 7.45002 21.0529 9.0002 21.5392V23.6052C7.11613 23.1186 5.37876 22.1809 3.938 20.873C2.49725 19.565 1.39639 17.9262 0.730414 16.0978C0.0644437 14.2694 -0.146633 12.3064 0.1154 10.3783C0.377433 8.45011 1.1047 6.61466 2.23446 5.03031C3.36421 3.44597 4.8625 2.16031 6.60005 1.28429C8.3376 0.408276 10.2622 -0.0317937 12.2078 0.00205952C14.1534 0.0359127 16.0616 0.542672 17.7676 1.47861C19.4736 2.41454 20.9263 3.75154 22.0002 5.37423V3.00023H24.0002ZM17.0002 21.0002C17.0002 21.7959 16.6841 22.5589 16.1215 23.1216C15.5589 23.6842 14.7959 24.0002 14.0002 24.0002C13.2046 24.0002 12.4415 23.6842 11.8789 23.1216C11.3163 22.5589 11.0002 21.7959 11.0002 21.0002V18.0002C11.0002 17.2046 11.3163 16.4415 11.8789 15.8789C12.4415 15.3163 13.2046 15.0002 14.0002 15.0002H16.0002V17.0002H14.0002C13.735 17.0002 13.4806 17.1056 13.2931 17.2931C13.1056 17.4807 13.0002 17.735 13.0002 18.0002V18.1712C13.4527 18.0112 13.9371 17.9622 14.4125 18.0281C14.8879 18.0941 15.3406 18.2732 15.7325 18.5503C16.1244 18.8275 16.444 19.1946 16.6646 19.6209C16.8852 20.0472 17.0003 20.5202 17.0002 21.0002ZM15.0002 21.0002C15.0002 20.8025 14.9416 20.6091 14.8317 20.4447C14.7218 20.2802 14.5656 20.152 14.3829 20.0764C14.2002 20.0007 13.9991 19.9809 13.8051 20.0194C13.6111 20.058 13.433 20.1533 13.2931 20.2931C13.1532 20.433 13.058 20.6112 13.0194 20.8051C12.9808 20.9991 13.0006 21.2002 13.0763 21.3829C13.152 21.5656 13.2802 21.7218 13.4446 21.8317C13.6091 21.9416 13.8024 22.0002 14.0002 22.0002C14.2654 22.0002 14.5198 21.8949 14.7073 21.7073C14.8948 21.5198 15.0002 21.2654 15.0002 21.0002ZM24.0002 18.0002V21.0002C24.0002 21.7959 23.6841 22.5589 23.1215 23.1216C22.5589 23.6842 21.7959 24.0002 21.0002 24.0002C20.2046 24.0002 19.4415 23.6842 18.8789 23.1216C18.3163 22.5589 18.0002 21.7959 18.0002 21.0002V18.0002C18.0002 17.2046 18.3163 16.4415 18.8789 15.8789C19.4415 15.3163 20.2046 15.0002 21.0002 15.0002C21.7959 15.0002 22.5589 15.3163 23.1215 15.8789C23.6841 16.4415 24.0002 17.2046 24.0002 18.0002ZM22.0002 18.0002C22.0002 17.735 21.8949 17.4807 21.7073 17.2931C21.5198 17.1056 21.2654 17.0002 21.0002 17.0002C20.735 17.0002 20.4806 17.1056 20.2931 17.2931C20.1056 17.4807 20.0002 17.735 20.0002 18.0002V21.0002C20.0002 21.2654 20.1056 21.5198 20.2931 21.7073C20.4806 21.8949 20.735 22.0002 21.0002 22.0002C21.2654 22.0002 21.5198 21.8949 21.7073 21.7073C21.8949 21.5198 22.0002 21.2654 22.0002 21.0002V18.0002ZM13.0002 6.00023H11.0002V11.0002H7.0002V13.0002H13.0002V6.00023Z" fill="#374957"/>
</g>
<defs>
<clipPath id="clip0_406_3840">
<rect width="24" height="24" fill="white"/>
</clipPath>
</defs>
</svg>
