<svg width="24" height="24" viewBox="0 0 24 24" fill="none" xmlns="http://www.w3.org/2000/svg">
<g clip-path="url(#clip0_406_4038)">
<path d="M12 0C9.62662 0 7.30654 0.703788 5.33315 2.02236C3.35976 3.34094 1.82169 5.21509 0.913443 7.4078C0.0051918 9.60051 -0.232448 12.0133 0.230574 14.3411C0.693597 16.6689 1.83649 18.8071 3.51472 20.4853C5.19295 22.1635 7.33114 23.3064 9.65891 23.7694C11.9867 24.2324 14.3995 23.9948 16.5922 23.0866C18.7849 22.1783 20.6591 20.6402 21.9776 18.6668C23.2962 16.6935 24 14.3734 24 12C23.9966 8.81846 22.7312 5.76821 20.4815 3.51852C18.2318 1.26883 15.1815 0.00344108 12 0V0ZM17 13H13V17H11V13H7V11H11V7H13V11H17V13Z" fill="#374957"/>
</g>
<defs>
<clipPath id="clip0_406_4038">
<rect width="24" height="24" fill="white"/>
</clipPath>
</defs>
</svg>
