<svg width="24" height="24" viewBox="0 0 24 24" fill="none" xmlns="http://www.w3.org/2000/svg">
<g clip-path="url(#clip0_406_3842)">
<path d="M23.912 20.0271L22.855 14.0671C23.2905 13.6738 23.6194 13.1767 23.811 12.622C24.0027 12.0674 24.0508 11.4733 23.951 10.895C23.8512 10.3168 23.6067 9.77321 23.2402 9.31493C22.8737 8.85664 22.3972 8.49857 21.855 8.27406C21.4556 5.98762 20.2733 3.91132 18.5108 2.4011C16.7483 0.89087 14.5153 0.040783 12.1946 -0.00343302C9.87401 -0.047649 7.61027 0.716759 5.79149 2.15875C3.97271 3.60074 2.71218 5.6305 2.22599 7.90006L1.49999 12.0001C1.49999 12.0001 3.10699 12.0001 3.27799 11.9871C4.97645 11.9356 6.64543 11.53 8.17799 10.7961C8.06128 11.0124 8.00011 11.2543 7.99999 11.5001C7.9981 11.7913 8.08104 12.0768 8.23868 12.3217C8.39632 12.5666 8.62185 12.7603 8.88773 12.8792C9.15361 12.998 9.44835 13.0369 9.73596 12.9911C10.0236 12.9453 10.2916 12.8167 10.5074 12.6211C10.7232 12.4255 10.8774 12.1713 10.9511 11.8895C11.0248 11.6078 11.0149 11.3107 10.9226 11.0344C10.8303 10.7582 10.6596 10.5148 10.4313 10.334C10.203 10.1531 9.92702 10.0427 9.63699 10.0161C12.4214 8.40389 14.6749 6.01422 16.121 3.14006C17.1826 3.77524 18.0817 4.64895 18.747 5.69196C19.4123 6.73497 19.8256 7.9186 19.954 9.14906L20.032 9.89506L20.77 10.0281C21.1343 10.0993 21.4593 10.3032 21.682 10.6001C21.9048 10.8971 22.0095 11.2662 21.9759 11.6359C21.9423 12.0056 21.7728 12.3497 21.5002 12.6017C21.2276 12.8537 20.8712 12.9956 20.5 13.0001H19.351L19.131 13.6241C18.214 16.2221 15.13 19.0001 12 19.0001C10.4896 18.8794 9.04034 18.3505 7.80734 17.4698C6.57435 16.5891 5.60396 15.3897 4.99999 14.0001H1.14699L0.0649933 20.1151C-0.0309258 20.5854 -0.0210628 21.0712 0.0938684 21.5373C0.2088 22.0034 0.425923 22.4381 0.729523 22.8099C1.03312 23.1818 1.4156 23.4814 1.84927 23.6873C2.28294 23.8931 2.75695 24 3.23699 24.0001H8.99999V20.4081C9.95403 20.7917 10.9717 20.9926 12 21.0001C13.0282 20.9925 14.0458 20.792 15 20.4091V24.0001H20.762C21.2565 24.0016 21.7448 23.889 22.1888 23.6712C22.6327 23.4534 23.0205 23.1361 23.322 22.7441C23.6202 22.3657 23.8283 21.9244 23.9305 21.4536C24.0328 20.9829 24.0264 20.495 23.912 20.0271V20.0271Z" fill="#374957"/>
<path d="M14.4999 12.9994C15.3283 12.9994 15.9999 12.3278 15.9999 11.4994C15.9999 10.671 15.3283 9.99939 14.4999 9.99939C13.6715 9.99939 12.9999 10.671 12.9999 11.4994C12.9999 12.3278 13.6715 12.9994 14.4999 12.9994Z" fill="#374957"/>
</g>
<defs>
<clipPath id="clip0_406_3842">
<rect width="24" height="24" fill="white"/>
</clipPath>
</defs>
</svg>
