<svg width="24" height="24" viewBox="0 0 24 24" fill="none" xmlns="http://www.w3.org/2000/svg">
<g clip-path="url(#clip0_406_4041)">
<path d="M16 10.7C16 12.2 13.741 14.432 12 15.762C10.259 14.432 8.00001 12.202 8.00001 10.7C7.97586 10.2762 8.11982 9.86003 8.40066 9.54176C8.68149 9.22348 9.07652 9.02881 9.50001 9.00001C9.69672 8.98575 9.89424 9.01322 10.0796 9.08062C10.265 9.14802 10.434 9.25382 10.5756 9.3911C10.7172 9.52838 10.8282 9.69403 10.9014 9.8772C10.9745 10.0604 11.0081 10.2569 11 10.454V11H13V10.454C12.9919 10.2569 13.0255 10.0604 13.0986 9.8772C13.1718 9.69403 13.2828 9.52838 13.4244 9.3911C13.566 9.25382 13.7351 9.14802 13.9204 9.08062C14.1058 9.01322 14.3033 8.98575 14.5 9.00001C14.9235 9.02881 15.3185 9.22348 15.5994 9.54176C15.8802 9.86003 16.0242 10.2762 16 10.7V10.7ZM24 12V24H12C9.62663 24 7.30655 23.2962 5.33316 21.9776C3.35977 20.6591 1.8217 18.7849 0.913451 16.5922C0.00519943 14.3995 -0.232441 11.9867 0.230582 9.65892C0.693605 7.33115 1.83649 5.19295 3.51472 3.51472C5.19295 1.83649 7.33115 0.693605 9.65892 0.230582C11.9867 -0.232441 14.3995 0.00519943 16.5922 0.913451C18.7849 1.8217 20.6591 3.35977 21.9776 5.33316C23.2962 7.30655 24 9.62663 24 12V12ZM18 10.7C18.0248 9.74571 17.6703 8.8205 17.0143 8.12701C16.3583 7.43351 15.4542 7.02826 14.5 7.00001C13.5684 6.98552 12.6691 7.34162 12 7.99001C11.3309 7.34162 10.4316 6.98552 9.50001 7.00001C8.54581 7.02826 7.6417 7.43351 6.98569 8.12701C6.32968 8.8205 5.97525 9.74571 6.00001 10.7C6.00001 13.956 10.874 17.436 11.43 17.821L12 18.221L12.57 17.821C13.126 17.436 18 13.956 18 10.7Z" fill="#374957"/>
</g>
<defs>
<clipPath id="clip0_406_4041">
<rect width="24" height="24" fill="white"/>
</clipPath>
</defs>
</svg>
