<svg width="24" height="24" viewBox="0 0 24 24" fill="none" xmlns="http://www.w3.org/2000/svg">
<g clip-path="url(#clip0_406_3810)">
<path d="M13.5688 6L15.5328 11H8.47684L10.4768 6H13.5688ZM17.6808 11H23.9288C23.8309 10.6475 23.6696 10.3157 23.4528 10.021L21.4058 7.228C21.1268 6.84807 20.7625 6.53899 20.3421 6.32569C19.9218 6.11239 19.4572 6.00083 18.9858 6H15.7168L17.6808 11ZM15.6138 13H8.38584L11.9998 23.879L15.6138 13ZM17.7218 13L14.9788 21.255L23.1458 13.923C23.4124 13.6572 23.6274 13.3442 23.7798 13H17.7218ZM6.27784 13H0.229838C0.388735 13.3573 0.612904 13.6819 0.890838 13.957L9.02084 21.257L6.27784 13ZM6.32284 11L8.32284 6H5.01384C4.54247 6.00083 4.07789 6.11239 3.65754 6.32569C3.23719 6.53899 2.87284 6.84807 2.59384 7.228L0.546838 10.021C0.330344 10.3158 0.16938 10.6475 0.0718384 11H6.32284ZM12.9998 0H10.9998V4H12.9998V0ZM19.8438 1.652L18.1558 0.578L16.1558 3.72L17.8438 4.794L19.8438 1.652ZM7.84384 3.72L5.84384 0.578L4.15584 1.652L6.15584 4.794L7.84384 3.72Z" fill="#374957"/>
</g>
<defs>
<clipPath id="clip0_406_3810">
<rect width="24" height="24" fill="white"/>
</clipPath>
</defs>
</svg>
