<svg width="24" height="24" viewBox="0 0 24 24" fill="none" xmlns="http://www.w3.org/2000/svg">
<g clip-path="url(#clip0_406_3950)">
<path d="M14 2C14 2.53043 13.7893 3.03914 13.4142 3.41421C13.0391 3.78929 12.5304 4 12 4C11.4696 4 10.9609 3.78929 10.5858 3.41421C10.2107 3.03914 10 2.53043 10 2C10 1.46957 10.2107 0.960859 10.5858 0.585786C10.9609 0.210714 11.4696 0 12 0C12.5304 0 13.0391 0.210714 13.4142 0.585786C13.7893 0.960859 14 1.46957 14 2V2ZM19.8 18.66C18.572 19.1356 17.2055 19.1051 16 18.575C15.3692 18.8503 14.6883 18.9924 14 18.9924C13.3117 18.9924 12.6308 18.8503 12 18.575C11.3692 18.8503 10.6883 18.9924 10 18.9924C9.31171 18.9924 8.63083 18.8503 8 18.575C6.79614 19.1047 5.43136 19.1352 4.205 18.66C3.67022 18.8823 3.09713 18.9978 2.518 19L2.968 21.527C3.0917 22.2202 3.45533 22.8479 3.99521 23.3C4.53509 23.7521 5.21681 23.9999 5.921 24H18.08C18.7845 23.9998 19.4664 23.7518 20.0063 23.2992C20.5463 22.8467 20.9097 22.2186 21.033 21.525L21.482 19C20.9046 18.9971 20.3332 18.8816 19.8 18.66V18.66ZM15.14 4.448C14.7656 4.92243 14.2886 5.30585 13.7447 5.56946C13.2009 5.83307 12.6044 5.97002 12 5.97002C11.3956 5.97002 10.7991 5.83307 10.2553 5.56946C9.71144 5.30585 9.2344 4.92243 8.86 4.448C4.072 5.783 0 9.959 0 14.5C0.00610923 14.9799 0.149757 15.4481 0.413902 15.8488C0.678047 16.2496 1.0516 16.5662 1.49025 16.761C1.92891 16.9559 2.41425 17.0208 2.88869 16.9481C3.36314 16.8755 3.80679 16.6682 4.167 16.351C4.71839 16.7855 5.40584 17.0108 6.10747 16.9868C6.8091 16.9628 7.47957 16.6912 8 16.22C8.54901 16.714 9.26144 16.9874 10 16.9874C10.7386 16.9874 11.451 16.714 12 16.22C12.549 16.714 13.2614 16.9874 14 16.9874C14.7386 16.9874 15.451 16.714 16 16.22C16.5204 16.6912 17.1909 16.9628 17.8925 16.9868C18.5942 17.0108 19.2816 16.7855 19.833 16.351C20.1932 16.6682 20.6369 16.8755 21.1113 16.9481C21.5858 17.0208 22.0711 16.9559 22.5097 16.761C22.9484 16.5662 23.322 16.2496 23.5861 15.8488C23.8502 15.4481 23.9939 14.9799 24 14.5C24 9.959 19.928 5.783 15.14 4.448Z" fill="#374957"/>
</g>
<defs>
<clipPath id="clip0_406_3950">
<rect width="24" height="24" fill="white"/>
</clipPath>
</defs>
</svg>
