<svg width="24" height="24" viewBox="0 0 24 24" fill="none" xmlns="http://www.w3.org/2000/svg">
<g clip-path="url(#clip0_406_3923)">
<path d="M21.977 11.27C21.7487 8.50094 20.4984 5.91583 18.4695 4.01759C16.4406 2.11935 13.7781 1.04373 11 1V0H5.99999C5.20434 0 4.44128 0.31607 3.87867 0.87868C3.31606 1.44129 2.99999 2.20435 2.99999 3V5H5.99999V7H2.99999V9H5.99999V11H2.99999V13H5.99999V15H2.99999V17H5.99999V19H2.99999V21C2.99999 21.7956 3.31606 22.5587 3.87867 23.1213C4.44128 23.6839 5.20434 24 5.99999 24H11V23C12.5044 22.9976 13.9924 22.6877 15.3728 22.0895C16.7531 21.4912 17.9966 20.6172 19.027 19.521C20.0621 18.4241 20.8586 17.1246 21.3663 15.7045C21.8741 14.2844 22.082 12.7745 21.977 11.27V11.27ZM11 16H9.99999V8H11C12.0609 8 13.0783 8.42143 13.8284 9.17157C14.5786 9.92172 15 10.9391 15 12C15 13.0609 14.5786 14.0783 13.8284 14.8284C13.0783 15.5786 12.0609 16 11 16Z" fill="#374957"/>
</g>
<defs>
<clipPath id="clip0_406_3923">
<rect width="24" height="24" fill="white"/>
</clipPath>
</defs>
</svg>
