<svg width="24" height="24" viewBox="0 0 24 24" fill="none" xmlns="http://www.w3.org/2000/svg">
<g clip-path="url(#clip0_406_3903)">
<path d="M20.1218 13.293L18.7078 14.707L20.9998 17H20.6178C17.2338 17 15.0818 15.468 13.1718 13.4921L12.8718 13.8401C12.5438 14.2201 12.2058 14.6111 11.8538 15.0041C14.0539 17.5515 17.2559 19.0123 20.6218 19.004H20.9998L18.7068 21.297L20.1208 22.711L23.4138 19.418C24.1946 18.637 24.1946 17.371 23.4138 16.59L20.1218 13.293Z" fill="#374957"/>
<path d="M20.619 6.99992H21L18.708 9.29291L20.122 10.7069L23.415 7.41388C24.1958 6.63289 24.1958 5.36689 23.415 4.58586L20.122 1.29285L18.708 2.70683L21 4.99996H20.618C15.661 4.99996 12.951 7.66996 10.492 10.478C8.06302 7.73493 5.14299 4.99996 -0.039978 4.99996V6.99997C4.42402 6.99997 6.83302 9.33599 9.16904 12C6.83302 14.6639 4.42402 17 -0.039978 17V19C5.76802 19 8.73601 15.564 11.36 12.534C13.814 9.68793 16.137 6.99992 20.619 6.99992Z" fill="#374957"/>
</g>
<defs>
<clipPath id="clip0_406_3903">
<rect width="24" height="24" fill="white"/>
</clipPath>
</defs>
</svg>
