<svg width="24" height="24" viewBox="0 0 24 24" fill="none" xmlns="http://www.w3.org/2000/svg">
<g clip-path="url(#clip0_406_134)">
<path d="M12 0C9.62663 0 7.30655 0.703788 5.33316 2.02236C3.35977 3.34094 1.8217 5.21509 0.913451 7.4078C0.00519943 9.60051 -0.232441 12.0133 0.230582 14.3411C0.693605 16.6689 1.83649 18.8071 3.51472 20.4853C5.19295 22.1635 7.33115 23.3064 9.65892 23.7694C11.9867 24.2324 14.3995 23.9948 16.5922 23.0866C18.7849 22.1783 20.6591 20.6402 21.9776 18.6668C23.2962 16.6935 24 14.3734 24 12C23.9966 8.81846 22.7312 5.76821 20.4815 3.51852C18.2318 1.26883 15.1815 0.00344108 12 0V0ZM12 21C10.22 21 8.47992 20.4722 6.99987 19.4832C5.51983 18.4943 4.36628 17.0887 3.68509 15.4442C3.0039 13.7996 2.82567 11.99 3.17294 10.2442C3.5202 8.49836 4.37737 6.89471 5.63604 5.63604C6.89472 4.37737 8.49836 3.5202 10.2442 3.17293C11.99 2.82567 13.7996 3.0039 15.4442 3.68508C17.0887 4.36627 18.4943 5.51983 19.4832 6.99987C20.4722 8.47991 21 10.22 21 12C20.9974 14.3861 20.0483 16.6738 18.361 18.361C16.6738 20.0483 14.3861 20.9974 12 21ZM15 10C14.9981 10.5242 14.8585 11.0387 14.5953 11.492C14.332 11.9453 13.9543 12.3215 13.5 12.583V17H10.5V12.583C10.046 12.3188 9.66948 11.9397 9.4083 11.4839C9.14712 11.0282 9.01045 10.5117 9.01202 9.98637C9.0136 9.46106 9.15336 8.94541 9.41726 8.4912C9.68117 8.03699 10.0599 7.66021 10.5155 7.3987C10.9711 7.13719 11.4875 7.00015 12.0128 7.00135C12.5381 7.00254 13.0539 7.14193 13.5083 7.40551C13.9627 7.6691 14.3397 8.0476 14.6016 8.503C14.8634 8.95841 15.0008 9.47469 15 10Z" fill="#374957"/>
</g>
<defs>
<clipPath id="clip0_406_134">
<rect width="24" height="24" fill="white"/>
</clipPath>
</defs>
</svg>
