<svg width="24" height="24" viewBox="0 0 24 24" fill="none" xmlns="http://www.w3.org/2000/svg">
<g clip-path="url(#clip0_406_371)">
<path d="M22.6 6.90015L14.006 0.652144C13.4238 0.226871 12.7215 -0.00231934 12.0005 -0.00231934C11.2795 -0.00231934 10.5772 0.226871 9.995 0.652144L1.4 6.90015C0.966274 7.21722 0.613453 7.63213 0.370197 8.11117C0.12694 8.59021 0.000106987 9.11988 0 9.65714L0 13.0001H10.5V24.0001H13.5V13.0001H24V9.65714C23.9999 9.11988 23.8731 8.59021 23.6298 8.11117C23.3865 7.63213 23.0337 7.21722 22.6 6.90015ZM14 10.0001H10V8.97215C10.0002 8.89471 10.0183 8.81837 10.053 8.74914L12 4.85415L13.947 8.75414C13.981 8.82186 13.9991 8.8964 14 8.97215V10.0001ZM3 9.65714C2.99983 9.59262 3.01497 9.52897 3.04418 9.47143C3.07338 9.41389 3.11582 9.3641 3.168 9.32615L8.262 5.62614L7.369 7.40715C7.12725 7.89348 7.00097 8.42904 7 8.97215V10.0001H3V9.65714ZM21 10.0001H17V8.97215C16.999 8.42904 16.8728 7.89348 16.631 7.40715L15.738 5.62114L20.832 9.32615C20.884 9.36427 20.9263 9.4141 20.9555 9.4716C20.9847 9.5291 20.9999 9.59266 21 9.65714V10.0001Z" fill="#374957"/>
<path d="M5.5 19H3V15H0V24H3V22H5V24H8V21.5C8 20.837 7.73661 20.2011 7.26777 19.7322C6.79893 19.2634 6.16304 19 5.5 19Z" fill="#374957"/>
<path d="M21.0001 19H18.5001C17.837 19 17.2011 19.2634 16.7323 19.7322C16.2635 20.2011 16.0001 20.837 16.0001 21.5V24H19.0001V22H21.0001V24H24V15H21.0001V19Z" fill="#374957"/>
</g>
<defs>
<clipPath id="clip0_406_371">
<rect width="24" height="24" fill="white"/>
</clipPath>
</defs>
</svg>
