<svg width="24" height="24" viewBox="0 0 24 24" fill="none" xmlns="http://www.w3.org/2000/svg">
<g clip-path="url(#clip0_406_137)">
<path d="M12 0C9.62662 0 7.30654 0.703788 5.33315 2.02236C3.35976 3.34094 1.82169 5.21509 0.913443 7.4078C0.0051918 9.60051 -0.232448 12.0133 0.230574 14.3411C0.693597 16.6689 1.83649 18.8071 3.51472 20.4853C5.19295 22.1635 7.33114 23.3064 9.65891 23.7694C11.9867 24.2324 14.3995 23.9948 16.5922 23.0866C18.7849 22.1783 20.6591 20.6402 21.9776 18.6668C23.2962 16.6935 24 14.3734 24 12C23.9966 8.81846 22.7312 5.76821 20.4815 3.51852C18.2318 1.26883 15.1815 0.00344108 12 0V0ZM12 21C10.22 21 8.47991 20.4722 6.99987 19.4832C5.51982 18.4943 4.36627 17.0887 3.68508 15.4442C3.00389 13.7996 2.82566 11.99 3.17293 10.2442C3.5202 8.49836 4.37736 6.89471 5.63604 5.63604C6.89471 4.37737 8.49836 3.5202 10.2442 3.17293C11.99 2.82567 13.7996 3.0039 15.4441 3.68508C17.0887 4.36627 18.4943 5.51983 19.4832 6.99987C20.4722 8.47991 21 10.22 21 12C20.9974 14.3861 20.0483 16.6738 18.361 18.361C16.6738 20.0483 14.3861 20.9974 12 21ZM13.5 10.5H17V13.5H13.5V17H10.5V13.5H7V10.5H10.5V7H13.5V10.5Z" fill="#374957"/>
</g>
<defs>
<clipPath id="clip0_406_137">
<rect width="24" height="24" fill="white"/>
</clipPath>
</defs>
</svg>
