<svg width="24" height="24" viewBox="0 0 24 24" fill="none" xmlns="http://www.w3.org/2000/svg">
<g clip-path="url(#clip0_406_192)">
<path d="M13.5002 9H16.0002V12H14.0002V16C14.0002 16.5933 13.8242 17.1734 13.4946 17.6667C13.1649 18.1601 12.6964 18.5446 12.1482 18.7716C11.6 18.9987 10.9968 19.0581 10.4149 18.9424C9.83294 18.8266 9.29839 18.5409 8.87883 18.1213C8.45927 17.7018 8.17355 17.1672 8.0578 16.5853C7.94204 16.0033 8.00145 15.4001 8.22851 14.8519C8.45558 14.3038 8.84009 13.8352 9.33344 13.5056C9.82679 13.1759 10.4068 13 11.0002 13V11.5C11.0002 10.837 11.2635 10.2011 11.7324 9.73223C12.2012 9.26339 12.8371 9 13.5002 9ZM22.0002 5.879V24H2.00015V3C2.00015 2.20435 2.31622 1.44129 2.87883 0.87868C3.44144 0.31607 4.2045 0 5.00015 0L16.1212 0L22.0002 5.879ZM19.0002 21V8H14.0002V3H5.00015V21H19.0002Z" fill="#374957"/>
</g>
<defs>
<clipPath id="clip0_406_192">
<rect width="24" height="24" fill="white"/>
</clipPath>
</defs>
</svg>
