<svg width="24" height="24" viewBox="0 0 24 24" fill="none" xmlns="http://www.w3.org/2000/svg">
<g clip-path="url(#clip0_406_475)">
<path d="M8.50006 2.99997C8.50006 2.40663 8.67601 1.82661 9.00565 1.33326C9.33529 0.839913 9.80383 0.455395 10.352 0.228332C10.9002 0.00126934 11.5034 -0.0581407 12.0853 0.057615C12.6673 0.173371 13.2018 0.459093 13.6214 0.87865C14.0409 1.29821 14.3267 1.83276 14.4424 2.4147C14.5582 2.99664 14.4988 3.59984 14.2717 4.14802C14.0446 4.6962 13.6601 5.16474 13.1668 5.49438C12.6734 5.82402 12.0934 5.99997 11.5001 5.99997C10.7044 5.99997 9.94135 5.6839 9.37874 5.12129C8.81613 4.55868 8.50006 3.79562 8.50006 2.99997ZM22.0161 20L20.0161 15H13.5001C13.3675 15 13.2403 14.9473 13.1465 14.8535C13.0527 14.7598 13.0001 14.6326 13.0001 14.5V13H19.0001V9.99997H13.0001V7.99997H10.0001V14.5C10.0031 15.2741 10.2627 16.0254 10.7382 16.6363C11.2137 17.2471 11.8783 17.6831 12.6281 17.876C12.2876 18.7171 11.7246 19.4498 10.9995 19.9953C10.2744 20.5409 9.41447 20.8789 8.51192 20.973C7.60937 21.0671 6.69823 20.9138 5.87615 20.5296C5.05408 20.1453 4.35207 19.5446 3.84538 18.7918C3.33869 18.039 3.04643 17.1625 2.99991 16.2563C2.9534 15.35 3.15439 14.4482 3.58135 13.6475C4.0083 12.8467 4.64512 12.1773 5.42353 11.7109C6.20195 11.2445 7.09262 10.9988 8.00006 11V7.99997C6.50341 7.99829 5.0363 8.41649 3.76547 9.20702C2.49464 9.99756 1.47105 11.1287 0.811027 12.472C0.151008 13.8152 -0.11897 15.3167 0.0317768 16.8057C0.182523 18.2948 0.747948 19.7117 1.66379 20.8954C2.57964 22.0791 3.80917 22.9822 5.21266 23.502C6.61614 24.0218 8.1373 24.1374 9.60324 23.8358C11.0692 23.5342 12.4211 22.8275 13.5054 21.7958C14.5897 20.7642 15.3629 19.4491 15.7371 18H17.9841L19.9841 23H24.0001V20H22.0161Z" fill="#374957"/>
</g>
<defs>
<clipPath id="clip0_406_475">
<rect width="24" height="24" fill="white"/>
</clipPath>
</defs>
</svg>
