<svg width="24" height="24" viewBox="0 0 24 24" fill="none" xmlns="http://www.w3.org/2000/svg">
<g clip-path="url(#clip0_406_56)">
<path d="M24 10.091L21.794 0H2.206L0.036 9.766L0 11.046C0.00378246 12.0251 0.340571 12.9737 0.955 13.736V21C0.955 21.7956 1.27107 22.5587 1.83368 23.1213C2.39629 23.6839 3.15935 24 3.955 24H20.045C20.8406 24 21.6037 23.6839 22.1663 23.1213C22.7289 22.5587 23.045 21.7956 23.045 21V13.736C23.6594 12.9737 23.9962 12.0251 24 11.046V10.091ZM3 10.256L4.612 3H6.682V6.272H9.682V3H14.318V6.272H17.318V3H19.388L21 10.256V11.046C20.9995 11.4075 20.8556 11.754 20.5998 12.0096C20.3441 12.2651 19.9975 12.4087 19.636 12.409H18.682C18.3205 12.4087 17.9739 12.2651 17.7182 12.0096C17.4624 11.754 17.3185 11.4075 17.318 11.046H14.318C14.3177 11.4074 14.174 11.7539 13.9185 12.0095C13.6629 12.265 13.3164 12.4087 12.955 12.409H11.045C10.6836 12.4087 10.3371 12.265 10.0815 12.0095C9.82595 11.7539 9.68227 11.4074 9.682 11.046H6.682C6.68147 11.4075 6.53756 11.754 6.28185 12.0096C6.02613 12.2651 5.6795 12.4087 5.318 12.409H4.364C4.0025 12.4087 3.65587 12.2651 3.40015 12.0096C3.14444 11.754 3.00053 11.4075 3 11.046V10.256ZM3.955 21V15.368C4.091 15.381 4.224 15.409 4.364 15.409H5.318C6.37492 15.4042 7.39358 15.0129 8.182 14.309C8.97001 15.0129 9.98837 15.4042 11.045 15.409H12.955C14.0078 15.4098 15.0251 15.0286 15.818 14.336C16.6112 15.0287 17.6289 15.41 18.682 15.409H19.636C19.776 15.409 19.909 15.381 20.045 15.368V21H3.955Z" fill="#374957"/>
</g>
<defs>
<clipPath id="clip0_406_56">
<rect width="24" height="24" fill="white"/>
</clipPath>
</defs>
</svg>
