<svg width="24" height="24" viewBox="0 0 24 24" fill="none" xmlns="http://www.w3.org/2000/svg">
<g clip-path="url(#clip0_406_89)">
<path d="M23.585 4.40953C23.3753 4.02291 23.0911 3.6816 22.7489 3.40528C22.4067 3.12896 22.0131 2.92309 21.591 2.79953L12.781 0.134534C11.926 -0.114681 11.007 -0.014872 10.2254 0.4121C9.44382 0.839072 8.8633 1.5584 8.611 2.41253L8.134 3.99953H3.5C2.57174 3.99953 1.6815 4.36828 1.02513 5.02466C0.368749 5.68104 0 6.57128 0 7.49953L0 23.9995H16V21.6665L19.234 22.8665L23.864 6.96653C23.9889 6.54305 24.0286 6.099 23.9807 5.66008C23.9328 5.22117 23.7983 4.79611 23.585 4.40953ZM13 20.9995H3V7.49953C3 7.36693 3.05268 7.23975 3.14645 7.14598C3.24022 7.05221 3.36739 6.99953 3.5 6.99953H12.5C12.6326 6.99953 12.7598 7.05221 12.8536 7.14598C12.9473 7.23975 13 7.36693 13 7.49953V20.9995ZM20.984 6.13153L17.256 18.9315L16 18.4665V7.49953C16 6.57128 15.6313 5.68104 14.9749 5.02466C14.3185 4.36828 13.4283 3.99953 12.5 3.99953H11.267L11.488 3.26353C11.5013 3.2173 11.5236 3.17415 11.5536 3.13656C11.5837 3.09898 11.6208 3.0677 11.663 3.04453C11.7026 3.02167 11.7463 3.00688 11.7916 3.00105C11.8369 2.99521 11.8829 2.99844 11.927 3.01053L20.736 5.67653C20.7824 5.68985 20.8256 5.71227 20.8632 5.74249C20.9008 5.77271 20.932 5.81012 20.955 5.85253C20.9786 5.89459 20.9934 5.94104 20.9984 5.98903C21.0034 6.03702 20.9985 6.08552 20.984 6.13153ZM12 12.9995C12 15.3325 8 17.9995 8 17.9995C8 17.9995 4 15.3325 4 12.9995C4 12.4691 4.21071 11.9604 4.58579 11.5853C4.96086 11.2102 5.46957 10.9995 6 10.9995C6.53043 10.9995 7.03914 11.2102 7.41421 11.5853C7.78929 11.9604 8 12.4691 8 12.9995C8 12.4691 8.21072 11.9604 8.58579 11.5853C8.96086 11.2102 9.46957 10.9995 10 10.9995C10.5304 10.9995 11.0391 11.2102 11.4142 11.5853C11.7893 11.9604 12 12.4691 12 12.9995Z" fill="#374957"/>
</g>
<defs>
<clipPath id="clip0_406_89">
<rect width="24" height="24" fill="white"/>
</clipPath>
</defs>
</svg>
