<svg width="24" height="24" viewBox="0 0 24 24" fill="none" xmlns="http://www.w3.org/2000/svg">
<g clip-path="url(#clip0_406_238)">
<path d="M12 0C9.62663 0 7.30655 0.703788 5.33316 2.02236C3.35977 3.34094 1.8217 5.21509 0.913451 7.4078C0.00519943 9.60051 -0.232441 12.0133 0.230582 14.3411C0.693605 16.6689 1.83649 18.8071 3.51472 20.4853C5.19295 22.1635 7.33115 23.3064 9.65892 23.7694C11.9867 24.2324 14.3995 23.9948 16.5922 23.0866C18.7849 22.1783 20.6591 20.6402 21.9776 18.6668C23.2962 16.6935 24 14.3734 24 12C23.9966 8.81846 22.7312 5.76821 20.4815 3.51852C18.2318 1.26883 15.1815 0.00344108 12 0V0ZM10.642 20.886L9.07601 16L3.94701 15.993C3.53454 15.1657 3.25382 14.279 3.11501 13.365L7.26801 10.438L5.75301 5.538C6.38461 4.92749 7.1014 4.4118 7.88101 4.007L12 7L16.119 4.007C16.8984 4.41087 17.6152 4.92555 18.247 5.535L16.732 10.435L20.885 13.362C20.746 14.2763 20.4653 15.1633 20.053 15.991L14.924 16L13.358 20.886C12.9089 20.9585 12.4549 20.9966 12 21C11.5451 20.9966 11.0911 20.9585 10.642 20.886ZM14.924 16H9.07601L7.26801 10.438L12 7L16.732 10.438L14.924 16Z" fill="#374957"/>
</g>
<defs>
<clipPath id="clip0_406_238">
<rect width="24" height="24" fill="white"/>
</clipPath>
</defs>
</svg>
