<svg width="24" height="24" viewBox="0 0 24 24" fill="none" xmlns="http://www.w3.org/2000/svg">
<g clip-path="url(#clip0_406_383)">
<path d="M21.5 15.0006V12.0006C21.4986 10.268 21.0235 8.56879 20.126 7.08681C19.2285 5.60482 17.9428 4.3965 16.408 3.59258C16.1995 2.57746 15.6471 1.66541 14.844 1.01047C14.0409 0.355539 13.0363 -0.00213623 12 -0.00213623C10.9637 -0.00213623 9.95915 0.355539 9.15604 1.01047C8.35293 1.66541 7.80048 2.57746 7.592 3.59258C6.05722 4.3965 4.77152 5.60482 3.87401 7.08681C2.9765 8.56879 2.50136 10.268 2.5 12.0006V15.0006H0V21.5006C0 21.8289 0.0646644 22.154 0.190301 22.4573C0.315938 22.7606 0.500087 23.0362 0.732233 23.2683C0.964379 23.5005 1.23998 23.6846 1.54329 23.8103C1.84661 23.9359 2.1717 24.0006 2.5 24.0006H9V15.0006H5.5V12.0006C5.50084 10.9844 5.74048 9.98267 6.19957 9.07612C6.65866 8.16958 7.32436 7.3836 8.143 6.78158C8.53558 7.45652 9.0984 8.01663 9.77523 8.40594C10.4521 8.79526 11.2192 9.00015 12 9.00015C12.7808 9.00015 13.5479 8.79526 14.2248 8.40594C14.9016 8.01663 15.4644 7.45652 15.857 6.78158C16.6756 7.3836 17.3413 8.16958 17.8004 9.07612C18.2595 9.98267 18.4992 10.9844 18.5 12.0006V15.0006H15V24.0006H21.5C21.8283 24.0006 22.1534 23.9359 22.4567 23.8103C22.76 23.6846 23.0356 23.5005 23.2678 23.2683C23.4999 23.0362 23.6841 22.7606 23.8097 22.4573C23.9353 22.154 24 21.8289 24 21.5006V15.0006H21.5ZM6 18.0006V21.0006H3V18.0006H6ZM12 6.00058C11.7033 6.00058 11.4133 5.91261 11.1666 5.74779C10.92 5.58296 10.7277 5.3487 10.6142 5.07461C10.5006 4.80052 10.4709 4.49892 10.5288 4.20795C10.5867 3.91697 10.7296 3.6497 10.9393 3.43992C11.1491 3.23014 11.4164 3.08728 11.7074 3.0294C11.9983 2.97153 12.2999 3.00123 12.574 3.11476C12.8481 3.22829 13.0824 3.42055 13.2472 3.66723C13.412 3.9139 13.5 4.20391 13.5 4.50058C13.5 4.89841 13.342 5.27994 13.0607 5.56124C12.7794 5.84255 12.3978 6.00058 12 6.00058ZM21 21.0006H18V18.0006H21V21.0006Z" fill="#374957"/>
</g>
<defs>
<clipPath id="clip0_406_383">
<rect width="24" height="24" fill="white"/>
</clipPath>
</defs>
</svg>
