<svg width="24" height="24" viewBox="0 0 24 24" fill="none" xmlns="http://www.w3.org/2000/svg">
<g clip-path="url(#clip0_406_431)">
<path d="M10.984 5.71621C11.1789 5.71621 11.3659 5.63878 11.5037 5.50094C11.6415 5.3631 11.719 5.17615 11.719 4.98122C11.719 4.78628 11.6415 4.59933 11.5037 4.46149C11.3659 4.32365 11.1789 4.24622 10.984 4.24622H10.269V5.71921L10.984 5.71621Z" fill="#374957"/>
<path d="M21 0H3C2.20435 0 1.44129 0.31607 0.87868 0.87868C0.31607 1.44129 0 2.20435 0 3L0 24H17.471L24 17.471V3C24 2.20435 23.6839 1.44129 23.1213 0.87868C22.5587 0.31607 21.7956 0 21 0V0ZM16.259 6.62C15.507 6.343 14.829 6.04 14.829 6.04C14.5568 5.88433 14.3373 5.6508 14.1988 5.36942C14.0604 5.08804 14.0092 4.77167 14.052 4.461C14.104 4.13622 14.2486 3.83332 14.4683 3.58857C14.6881 3.34382 14.9737 3.1676 15.291 3.081C15.7134 2.97455 16.1547 2.96765 16.5802 3.06084C17.0057 3.15403 17.4038 3.34476 17.743 3.618L18.222 4.018L17.422 4.974L16.947 4.574C16.7669 4.43285 16.5581 4.33284 16.3353 4.28101C16.1124 4.22919 15.8809 4.22679 15.657 4.274C15.5674 4.29106 15.4849 4.33456 15.4202 4.3989C15.3555 4.46324 15.3116 4.54547 15.294 4.635C15.2843 4.69222 15.2915 4.75102 15.3145 4.80427C15.3376 4.85751 15.3756 4.90293 15.424 4.935C15.44 4.935 16.038 5.198 16.697 5.442C17.1401 5.54363 17.5295 5.80684 17.7889 6.1802C18.0484 6.55355 18.1593 7.01023 18.1 7.461C17.9955 7.91764 17.7341 8.32314 17.3613 8.60676C16.9885 8.89039 16.528 9.03416 16.06 9.013C15.661 9.01731 15.2655 8.93834 14.8987 8.78113C14.532 8.62392 14.202 8.39194 13.93 8.1L13.51 7.638L14.436 6.797L14.856 7.26C15.0113 7.42087 15.1979 7.54823 15.4042 7.63423C15.6106 7.72022 15.8324 7.76302 16.056 7.76C16.2297 7.77594 16.4037 7.73331 16.5503 7.63889C16.6969 7.54447 16.8077 7.4037 16.865 7.239C16.931 6.9 16.418 6.679 16.259 6.62ZM9.017 3H10.984C11.5105 3 12.0153 3.20913 12.3876 3.58139C12.7599 3.95365 12.969 4.45855 12.969 4.985C12.969 5.51146 12.7599 6.01635 12.3876 6.38861C12.0153 6.76087 11.5105 6.97 10.984 6.97H10.267V9.07H9.017V3ZM4 3H7.261V4.25H5.248V5.384H7.112V6.634H5.248V7.771H7.261V9.021H4V3ZM21 15H15V21H3V11H21V15Z" fill="#374957"/>
</g>
<defs>
<clipPath id="clip0_406_431">
<rect width="24" height="24" fill="white"/>
</clipPath>
</defs>
</svg>
