<svg width="24" height="24" viewBox="0 0 24 24" fill="none" xmlns="http://www.w3.org/2000/svg">
<g clip-path="url(#clip0_406_334)">
<path d="M22.319 15.465C17.69 10.836 6.31 10.836 1.681 15.465C1.15011 15.9874 0.728166 16.6099 0.439612 17.2965C0.151059 17.9832 0.00163558 18.7202 0 19.465L0 24H9V20.536C9.9574 20.1804 10.9707 19.9988 11.992 20C13.019 20.0085 14.0367 20.1949 15 20.551V24H24V19.467C23.9986 18.7219 23.8493 17.9845 23.5607 17.2975C23.2721 16.6105 22.8501 15.9876 22.319 15.465ZM21 21H18V18.538L17.089 18.148C15.4928 17.4174 13.7622 17.0264 12.007 17C10.2363 17.009 8.48894 17.4045 6.887 18.159L6 18.559V21H3V19.465C3.00233 19.1144 3.07424 18.7678 3.21157 18.4453C3.3489 18.1227 3.54891 17.8307 3.8 17.586C6.963 14.423 16.474 13.864 20.2 17.586C20.4512 17.8308 20.6512 18.123 20.7885 18.4458C20.9259 18.7685 20.9977 19.1153 21 19.466V21ZM5.5 4.5L3 7V1C3 0.734784 3.10536 0.48043 3.29289 0.292893C3.48043 0.105357 3.73478 0 4 0L10 0L7.627 2.373L12.5 6.892L19.189 0.2L21.311 2.321L14.427 9.2C14.1749 9.45451 13.8747 9.65631 13.5439 9.79366C13.2131 9.93101 12.8582 10.0011 12.5 10C12.1418 10.0011 11.7869 9.93101 11.4561 9.79366C11.1253 9.65631 10.8251 9.45451 10.573 9.2L5.5 4.5Z" fill="#374957"/>
</g>
<defs>
<clipPath id="clip0_406_334">
<rect width="24" height="24" fill="white"/>
</clipPath>
</defs>
</svg>
