<svg width="24" height="24" viewBox="0 0 24 24" fill="none" xmlns="http://www.w3.org/2000/svg">
<g clip-path="url(#clip0_406_146)">
<path d="M15 11H0V3C0 2.20435 0.31607 1.44129 0.87868 0.87868C1.44129 0.31607 2.20435 0 3 0L15 0V11Z" fill="#374957"/>
<path d="M24.0001 11H17.0001V0H21.0001C21.7958 0 22.5588 0.31607 23.1214 0.87868C23.6841 1.44129 24.0001 2.20435 24.0001 3V11Z" fill="#374957"/>
<path d="M7 24.0004H3C2.20435 24.0004 1.44129 23.6843 0.87868 23.1217C0.316071 22.5591 0 21.796 0 21.0004L0 13.0004H7V24.0004Z" fill="#374957"/>
<path d="M21 24.0004H9V13.0004H24V21.0004C24 21.796 23.6839 22.5591 23.1213 23.1217C22.5587 23.6843 21.7956 24.0004 21 24.0004Z" fill="#374957"/>
</g>
<defs>
<clipPath id="clip0_406_146">
<rect width="24" height="24" fill="white"/>
</clipPath>
</defs>
</svg>
