<svg width="24" height="24" viewBox="0 0 24 24" fill="none" xmlns="http://www.w3.org/2000/svg">
<g clip-path="url(#clip0_406_181)">
<path d="M11 13.9996H5C3.67441 14.0012 2.40356 14.5285 1.46622 15.4658C0.528882 16.4032 0.00158786 17.674 0 18.9996L0 23.9996H3V18.9996C3 18.4692 3.21071 17.9605 3.58579 17.5854C3.96086 17.2103 4.46957 16.9996 5 16.9996H11C11.5304 16.9996 12.0391 17.2103 12.4142 17.5854C12.7893 17.9605 13 18.4692 13 18.9996V23.9996H16V18.9996C15.9984 17.674 15.4711 16.4032 14.5338 15.4658C13.5964 14.5285 12.3256 14.0012 11 13.9996Z" fill="#374957"/>
<path d="M7.99991 11.9999C9.1866 11.9999 10.3466 11.648 11.3333 10.9887C12.32 10.3294 13.0891 9.39234 13.5432 8.29598C13.9973 7.19963 14.1161 5.99323 13.8846 4.82934C13.6531 3.66545 13.0817 2.59635 12.2425 1.75724C11.4034 0.918125 10.3343 0.34668 9.17045 0.115169C8.00657 -0.116342 6.80017 0.00247765 5.70381 0.456603C4.60745 0.910729 3.67038 1.67976 3.01109 2.66646C2.3518 3.65315 1.99991 4.81319 1.99991 5.99988C2.0015 7.59069 2.63415 9.11589 3.75902 10.2408C4.8839 11.3656 6.4091 11.9983 7.99991 11.9999ZM7.99991 2.99988C8.59325 2.99988 9.17327 3.17583 9.66662 3.50547C10.16 3.83512 10.5445 4.30365 10.7715 4.85183C10.9986 5.40001 11.058 6.00321 10.9423 6.58515C10.8265 7.16709 10.5408 7.70164 10.1212 8.1212C9.70167 8.54076 9.16712 8.82648 8.58518 8.94224C8.00324 9.05799 7.40004 8.99858 6.85186 8.77152C6.30368 8.54446 5.83514 8.15994 5.5055 7.66659C5.17586 7.17324 4.99991 6.59322 4.99991 5.99988C4.99991 5.20423 5.31598 4.44117 5.87859 3.87856C6.4412 3.31595 7.20426 2.99988 7.99991 2.99988Z" fill="#374957"/>
<path d="M21.75 7.41687C21.1239 7.44796 20.5356 7.72586 20.1139 8.18972C19.6922 8.65358 19.4715 9.26563 19.5 9.89187C19.5285 9.26563 19.3078 8.65358 18.8861 8.18972C18.4644 7.72586 17.8761 7.44796 17.25 7.41687C16.6239 7.44796 16.0356 7.72586 15.6139 8.18972C15.1922 8.65358 14.9715 9.26563 15 9.89187C15 12.4839 19.5 15.6669 19.5 15.6669C19.5 15.6669 24 12.4839 24 9.89187C24.0285 9.26563 23.8078 8.65358 23.3861 8.18972C22.9644 7.72586 22.3761 7.44796 21.75 7.41687Z" fill="#374957"/>
</g>
<defs>
<clipPath id="clip0_406_181">
<rect width="24" height="24" fill="white"/>
</clipPath>
</defs>
</svg>
