<svg width="24" height="24" viewBox="0 0 24 24" fill="none" xmlns="http://www.w3.org/2000/svg">
<g clip-path="url(#clip0_406_15)">
<path d="M13.4999 9H15.9999V12H13.4999V14.5H10.4999V12H7.99991V9H10.4999V6.5H13.4999V9ZM6.99991 19H16.9999V16H6.99991V19ZM21.9999 2V20.5C21.9999 21.4283 21.6312 22.3185 20.9748 22.9749C20.3184 23.6313 19.4282 24 18.4999 24H5.49991C4.57165 24 3.68141 23.6313 3.02503 22.9749C2.36866 22.3185 1.99991 21.4283 1.99991 20.5V2H7.33791C7.62174 1.40162 8.06953 0.89606 8.62924 0.542034C9.18895 0.188009 9.83763 5.25406e-05 10.4999 0L13.4999 0C14.1622 5.25406e-05 14.8109 0.188009 15.3706 0.542034C15.9303 0.89606 16.3781 1.40162 16.6619 2H21.9999ZM18.9999 5H13.9999V3.5C13.9999 3.36739 13.9472 3.24021 13.8535 3.14645C13.7597 3.05268 13.6325 3 13.4999 3H10.4999C10.3673 3 10.2401 3.05268 10.1464 3.14645C10.0526 3.24021 9.99991 3.36739 9.99991 3.5V5H4.99991V20.5C4.99991 20.6326 5.05259 20.7598 5.14636 20.8536C5.24012 20.9473 5.3673 21 5.49991 21H18.4999C18.6325 21 18.7597 20.9473 18.8535 20.8536C18.9472 20.7598 18.9999 20.6326 18.9999 20.5V5Z" fill="#374957"/>
</g>
<defs>
<clipPath id="clip0_406_15">
<rect width="24" height="24" fill="white"/>
</clipPath>
</defs>
</svg>
