<svg width="24" height="24" viewBox="0 0 24 24" fill="none" xmlns="http://www.w3.org/2000/svg">
<path d="M11.543 7.06096L9.42201 4.93896L4.12901 10.232C3.8968 10.4641 3.71259 10.7397 3.58691 11.0431C3.46123 11.3465 3.39655 11.6716 3.39655 12C3.39655 12.3283 3.46123 12.6535 3.58691 12.9568C3.71259 13.2602 3.8968 13.5358 4.12901 13.768L9.42201 19.061L11.543 16.939L6.60001 12L11.543 7.06096Z" fill="#374957"/>
<path d="M18.5431 7.06096L16.4221 4.93896L10.4221 10.939C10.2827 11.0783 10.1721 11.2437 10.0967 11.4257C10.0213 11.6078 9.98242 11.8029 9.98242 12C9.98242 12.197 10.0213 12.3922 10.0967 12.5742C10.1721 12.7563 10.2827 12.9217 10.4221 13.061L16.4221 19.061L18.5431 16.939L13.6001 12L18.5431 7.06096Z" fill="#374957"/>
</svg>
