<svg width="24" height="24" viewBox="0 0 24 24" fill="none" xmlns="http://www.w3.org/2000/svg">
<g clip-path="url(#clip0_406_215)">
<path d="M12.0328 19.011C12.4925 19.0118 12.9477 18.9217 13.3725 18.746C13.7972 18.5702 14.183 18.3123 14.5078 17.987L18.4268 14.068L16.3058 11.947L13.5238 14.729L13.4998 0H10.4998L10.5238 14.709L7.75979 11.947L5.63879 14.068L9.55779 17.987C9.88248 18.3124 10.2683 18.5704 10.6931 18.7461C11.1178 18.9219 11.5731 19.0119 12.0328 19.011Z" fill="#374957"/>
<path d="M21 15.9999V20.9999H3V15.9999H0V20.9999C0 21.7955 0.31607 22.5586 0.87868 23.1212C1.44129 23.6838 2.20435 23.9999 3 23.9999H21C21.7956 23.9999 22.5587 23.6838 23.1213 23.1212C23.6839 22.5586 24 21.7955 24 20.9999V15.9999H21Z" fill="#374957"/>
</g>
<defs>
<clipPath id="clip0_406_215">
<rect width="24" height="24" fill="white"/>
</clipPath>
</defs>
</svg>
