<svg width="24" height="24" viewBox="0 0 24 24" fill="none" xmlns="http://www.w3.org/2000/svg">
<g clip-path="url(#clip0_406_303)">
<path d="M9.99985 9H6.99985V18H9.99985V9Z" fill="#374957"/>
<path d="M17.0002 12H14.0002V18H17.0002V12Z" fill="#374957"/>
<path d="M24 7.99988H21V17.9999H24V7.99988Z" fill="#374957"/>
<path d="M16.1281 8.03301C15.5279 8.03291 14.9524 7.79443 14.5281 7.37001L10.3721 3.21801L8.30007 5.30001L6.17407 3.17401L8.76907 0.579009C9.20081 0.166112 9.77518 -0.0643311 10.3726 -0.0643311C10.97 -0.0643311 11.5443 0.166112 11.9761 0.579009L16.1281 4.73001L20.4391 0.419009L22.5611 2.54101L17.7311 7.37001C17.5207 7.58069 17.2708 7.74773 16.9957 7.86151C16.7206 7.97529 16.4258 8.03358 16.1281 8.03301Z" fill="#374957"/>
<path d="M24 24H3.5C2.57174 24 1.6815 23.6313 1.02513 22.9749C0.368749 22.3185 0 21.4283 0 20.5L0 0H3V20.5C3 20.6326 3.05268 20.7598 3.14645 20.8536C3.24021 20.9473 3.36739 21 3.5 21H24V24Z" fill="#374957"/>
</g>
<defs>
<clipPath id="clip0_406_303">
<rect width="24" height="24" fill="white"/>
</clipPath>
</defs>
</svg>
