<svg width="24" height="24" viewBox="0 0 24 24" fill="none" xmlns="http://www.w3.org/2000/svg">
<g clip-path="url(#clip0_406_384)">
<path d="M14.9389 11.268L17.0609 13.389L13.4749 16.975C13.1499 17.3 12.764 17.5579 12.3394 17.7338C11.9147 17.9097 11.4596 18.0003 10.9999 18.0003C10.5403 18.0003 10.0851 17.9097 9.66043 17.7338C9.23577 17.5579 8.84992 17.3 8.52491 16.975L6.93891 15.39L9.06091 13.268L10.6459 14.853C10.7397 14.9467 10.8668 14.9994 10.9994 14.9994C11.132 14.9994 11.2591 14.9467 11.3529 14.853L14.9389 11.268ZM21.9999 5.879V24H1.99991V3C1.99991 2.20435 2.31598 1.44129 2.87859 0.87868C3.4412 0.31607 4.20426 0 4.99991 0L16.1209 0L21.9999 5.879ZM18.9999 21V8H13.9999V3H4.99991V21H18.9999Z" fill="#374957"/>
</g>
<defs>
<clipPath id="clip0_406_384">
<rect width="24" height="24" fill="white"/>
</clipPath>
</defs>
</svg>
