<svg width="24" height="24" viewBox="0 0 24 24" fill="none" xmlns="http://www.w3.org/2000/svg">
<g clip-path="url(#clip0_406_387)">
<path d="M3 20.5V0H0V20.5C0 21.4283 0.368749 22.3185 1.02513 22.9749C1.6815 23.6313 2.57174 24 3.5 24H24V21H3.5C3.36739 21 3.24021 20.9473 3.14645 20.8536C3.05268 20.7598 3 20.6326 3 20.5Z" fill="#374957"/>
<path d="M21.5611 12.439L16.0001 6.87897L13.5001 9.37896L8.56109 4.43896L6.43909 6.56096L13.5001 13.621L16.0001 11.121L19.4391 14.561L17.0001 17H22.5001C22.8979 17 23.2794 16.8419 23.5607 16.5606C23.8421 16.2793 24.0001 15.8978 24.0001 15.5V9.99997L21.5611 12.439Z" fill="#374957"/>
</g>
<defs>
<clipPath id="clip0_406_387">
<rect width="24" height="24" fill="white"/>
</clipPath>
</defs>
</svg>
