<svg width="24" height="24" viewBox="0 0 24 24" fill="none" xmlns="http://www.w3.org/2000/svg">
<g clip-path="url(#clip0_406_9)">
<path d="M19 8.051V0H5V8.051C4.43549 8.16623 3.9281 8.47291 3.56366 8.91916C3.19923 9.36541 3.00011 9.92385 3 10.5V15C3 17.3869 3.94821 19.6761 5.63604 21.364C7.32387 23.0518 9.61305 24 12 24C14.3869 24 16.6761 23.0518 18.364 21.364C20.0518 19.6761 21 17.3869 21 15V10.5C20.9999 9.92385 20.8008 9.36541 20.4363 8.91916C20.0719 8.47291 19.5645 8.16623 19 8.051ZM8 3H16V8H14V6H10V8H8V3ZM18 15C18 16.5913 17.3679 18.1174 16.2426 19.2426C15.1174 20.3679 13.5913 21 12 21C10.4087 21 8.88258 20.3679 7.75736 19.2426C6.63214 18.1174 6 16.5913 6 15V11H18V15Z" fill="#374957"/>
</g>
<defs>
<clipPath id="clip0_406_9">
<rect width="24" height="24" fill="white"/>
</clipPath>
</defs>
</svg>
