<svg width="24" height="24" viewBox="0 0 24 24" fill="none" xmlns="http://www.w3.org/2000/svg">
<g clip-path="url(#clip0_406_417)">
<path d="M21 0H3C2.20435 0 1.44129 0.31607 0.87868 0.87868C0.31607 1.44129 0 2.20435 0 3L0 24H17.471L24 17.471V3C24 2.20435 23.6839 1.44129 23.1213 0.87868C22.5587 0.31607 21.7956 0 21 0V0ZM12.75 2.916H16.013V4.166H14V5.3H15.864V6.55H14V8.941H12.75V2.916ZM9.75 2.916H11V8.985H9.75V2.916ZM4 4.9C4.00092 4.63837 4.05339 4.37948 4.15442 4.13814C4.25545 3.89681 4.40306 3.67775 4.5888 3.49349C4.77455 3.30923 4.99479 3.16339 5.23693 3.0643C5.47907 2.96521 5.73837 2.91482 6 2.916C6.52938 2.91941 7.03611 3.13122 7.41045 3.50555C7.78478 3.87989 7.99659 4.38662 8 4.916H6.75C6.74446 4.71884 6.66366 4.53128 6.52419 4.39181C6.38472 4.25234 6.19716 4.17154 6 4.166C5.90121 4.16506 5.80323 4.18386 5.7118 4.22129C5.62037 4.25873 5.53734 4.31404 5.46757 4.38399C5.39781 4.45394 5.34271 4.53712 5.30552 4.62865C5.26833 4.72018 5.2498 4.81821 5.251 4.917V6.984C5.2498 7.08279 5.26833 7.18082 5.30552 7.27235C5.34271 7.36388 5.39781 7.44706 5.46757 7.51701C5.53734 7.58696 5.62037 7.64227 5.7118 7.67971C5.80323 7.71714 5.90121 7.73594 6 7.735C6.19565 7.73278 6.38288 7.65509 6.52262 7.51814C6.66237 7.38119 6.74383 7.19556 6.75 7V6.916H6V5.916H8V7C7.99578 7.52766 7.7832 8.03226 7.40859 8.40388C7.03397 8.7755 6.52767 8.98402 6 8.984C5.73837 8.98518 5.47907 8.93479 5.23693 8.8357C4.99479 8.73661 4.77455 8.59077 4.5888 8.40651C4.40306 8.22225 4.25545 8.00319 4.15442 7.76186C4.05339 7.52052 4.00092 7.26163 4 7V4.9ZM21 15H15V21H3V11H21V15Z" fill="#374957"/>
</g>
<defs>
<clipPath id="clip0_406_417">
<rect width="24" height="24" fill="white"/>
</clipPath>
</defs>
</svg>
