<svg width="24" height="24" viewBox="0 0 24 24" fill="none" xmlns="http://www.w3.org/2000/svg">
<g clip-path="url(#clip0_406_457)">
<path d="M20.0001 3.5V5H24.0001V8H20.0001V10H24.0001V13H20.0001V15H24.0001V18H20.0001V24H17.0001V3.5C17.0001 2.57174 17.3688 1.6815 18.0252 1.02513C18.6816 0.368749 19.5718 0 20.5001 0L24.0001 0V3H20.5001C20.3674 3 20.2403 3.05268 20.1465 3.14645C20.0527 3.24022 20.0001 3.36739 20.0001 3.5ZM16.0001 19.25C16.0037 20.1782 15.7345 21.0869 15.2259 21.8634C14.7173 22.6398 13.9918 23.2497 13.1395 23.6173C12.2872 23.9848 11.3457 24.0938 10.432 23.9307C9.51826 23.7677 8.67258 23.3397 8.00005 22.7C7.50754 23.168 6.92006 23.5246 6.27753 23.7455C5.635 23.9663 4.95245 24.0463 4.27626 23.98C3.60007 23.9137 2.94607 23.7027 2.35867 23.3612C1.77127 23.0198 1.26423 22.5559 0.871999 22.0011C0.479765 21.4463 0.211519 20.8136 0.0854803 20.146C-0.0405585 19.4784 -0.0214383 18.7914 0.141542 18.1318C0.304523 17.4722 0.607547 16.8554 1.03003 16.3233C1.45252 15.7912 1.98457 15.3563 2.59005 15.048L6.29005 8.348L4.19305 4.55C3.41865 3.15797 3.0083 1.59292 3.00005 0L6.00005 0C6.00444 1.08637 6.28673 2.15355 6.82005 3.1L8.00005 5.239L9.18005 3.1C9.71338 2.15355 9.99567 1.08637 10.0001 0L13.0001 0C12.9918 1.59292 12.5815 3.15797 11.8071 4.55L9.71305 8.344L13.4131 15.044C14.1893 15.4394 14.8415 16.0412 15.2979 16.7833C15.7544 17.5253 15.9973 18.3788 16.0001 19.25ZM8.00005 11.45L6.18205 14.75C6.85902 14.9595 7.4803 15.3183 8.00005 15.8C8.51893 15.3151 9.14028 14.9531 9.81805 14.741L8.00005 11.45ZM6.50005 19.25C6.50005 18.9039 6.39742 18.5655 6.20513 18.2778C6.01283 17.99 5.73952 17.7657 5.41975 17.6332C5.09998 17.5008 4.74811 17.4661 4.40865 17.5336C4.06918 17.6012 3.75736 17.7678 3.51262 18.0126C3.26787 18.2573 3.1012 18.5691 3.03368 18.9086C2.96616 19.2481 3.00081 19.5999 3.13326 19.9197C3.26572 20.2395 3.49002 20.5128 3.77781 20.7051C4.06559 20.8974 4.40394 21 4.75005 21C5.21402 20.9995 5.65883 20.8149 5.98691 20.4869C6.31498 20.1588 6.49952 19.714 6.50005 19.25ZM13.0001 19.25C13.0001 18.9039 12.8974 18.5655 12.7051 18.2778C12.5128 17.99 12.2395 17.7657 11.9197 17.6332C11.6 17.5008 11.2481 17.4661 10.9086 17.5336C10.5692 17.6012 10.2574 17.7678 10.0126 18.0126C9.76787 18.2573 9.6012 18.5691 9.53368 18.9086C9.46616 19.2481 9.50081 19.5999 9.63326 19.9197C9.76572 20.2395 9.99002 20.5128 10.2778 20.7051C10.5656 20.8974 10.9039 21 11.2501 21C11.714 20.9995 12.1588 20.8149 12.4869 20.4869C12.815 20.1588 12.9995 19.714 13.0001 19.25Z" fill="#374957"/>
</g>
<defs>
<clipPath id="clip0_406_457">
<rect width="24" height="24" fill="white"/>
</clipPath>
</defs>
</svg>
