<svg width="24" height="24" viewBox="0 0 24 24" fill="none" xmlns="http://www.w3.org/2000/svg">
<g clip-path="url(#clip0_406_10)">
<path d="M7.99994 8.00058V7.15158C7.99912 6.26554 8.29251 5.4043 8.83407 4.70303C9.37563 4.00175 10.1347 3.50014 10.9922 3.27691C11.8496 3.05367 12.7569 3.12146 13.5717 3.46962C14.3865 3.81779 15.0626 4.42662 15.4939 5.20058L18.1119 3.73558C17.3564 2.3823 16.1731 1.31802 14.7476 0.709645C13.3221 0.101268 11.735 -0.0168053 10.2352 0.373939C8.73534 0.764684 7.40759 1.64215 6.46014 2.86874C5.51269 4.09533 4.99911 5.60168 4.99994 7.15158V8.00058H1.99994V21.0006C1.99994 21.7962 2.31601 22.5593 2.87862 23.1219C3.44123 23.6845 4.20429 24.0006 4.99994 24.0006H18.9999C19.7956 24.0006 20.5587 23.6845 21.1213 23.1219C21.6839 22.5593 21.9999 21.7962 21.9999 21.0006V8.00058H7.99994ZM4.99994 21.0006V11.0006H18.9999V21.0006H4.99994Z" fill="#374957"/>
<path d="M14.0001 14.0006H10.0001V17.0006H14.0001V14.0006Z" fill="#374957"/>
</g>
<defs>
<clipPath id="clip0_406_10">
<rect width="24" height="24" fill="white"/>
</clipPath>
</defs>
</svg>
