<svg width="24" height="24" viewBox="0 0 24 24" fill="none" xmlns="http://www.w3.org/2000/svg">
<g clip-path="url(#clip0_406_256)">
<path d="M23 19.0006V16.0006C22.9956 13.3456 22.0316 10.7816 20.2858 8.78132C18.54 6.781 16.13 5.47911 13.5 5.11561V4.31061C13.7528 4.0223 13.9172 3.66724 13.9734 3.28794C14.0297 2.90864 13.9754 2.52117 13.8171 2.1719C13.6589 1.82263 13.4033 1.52638 13.081 1.31859C12.7588 1.11081 12.3834 1.00031 12 1.00031C11.6166 1.00031 11.2412 1.11081 10.919 1.31859C10.5967 1.52638 10.3411 1.82263 10.1829 2.1719C10.0246 2.52117 9.97033 2.90864 10.0266 3.28794C10.0828 3.66724 10.2472 4.0223 10.5 4.31061V5.11561C7.86998 5.47911 5.45998 6.781 3.71418 8.78132C1.96837 10.7816 1.00443 13.3456 1 16.0006V19.0006H0V22.0006H24V19.0006H23ZM4 16.0006C4.4 5.40061 19.6 5.40761 20 16.0006V19.0006H4V16.0006Z" fill="#374957"/>
</g>
<defs>
<clipPath id="clip0_406_256">
<rect width="24" height="24" fill="white"/>
</clipPath>
</defs>
</svg>
