<svg width="24" height="24" viewBox="0 0 24 24" fill="none" xmlns="http://www.w3.org/2000/svg">
<g clip-path="url(#clip0_406_278)">
<path d="M23.4101 14.5378L21.8421 12.1888L19.3421 13.8538L20.9131 16.2008C20.9661 16.2738 20.9971 16.3604 21.0024 16.4504C21.0077 16.5405 20.9871 16.6301 20.9431 16.7088C20.8936 16.8 20.8197 16.8756 20.7295 16.927C20.6394 16.9784 20.5368 17.0036 20.4331 16.9998H14.5081V13.5008L9.83508 17.7628C9.73229 17.8565 9.65018 17.9707 9.59399 18.0979C9.53781 18.2252 9.50879 18.3627 9.50879 18.5018C9.50879 18.6409 9.53781 18.7785 9.59399 18.9057C9.65018 19.033 9.73229 19.1471 9.83508 19.2408L14.5081 23.5008V20.0008H20.4331C21.0794 20.0036 21.7143 19.8305 22.2698 19.5003C22.8254 19.17 23.2807 18.6949 23.5871 18.1258C23.8856 17.5679 24.0269 16.9393 23.9957 16.3073C23.9645 15.6753 23.7621 15.0637 23.4101 14.5378Z" fill="#374957"/>
<path d="M11.3 3.26433C11.3503 3.18287 11.4207 3.11571 11.5044 3.0693C11.5881 3.02289 11.6823 2.9988 11.778 2.99933C11.8747 2.99295 11.9712 3.01281 12.0575 3.05682C12.1437 3.10083 12.2165 3.16735 12.268 3.24933L15.4 7.94533L12.5 9.76333L18.592 11.4633C18.726 11.5006 18.8663 11.5095 19.0039 11.4895C19.1415 11.4695 19.2735 11.421 19.3913 11.3472C19.5091 11.2733 19.6102 11.1756 19.6882 11.0605C19.7661 10.9453 19.8192 10.8152 19.844 10.6783L20.97 4.45133L17.942 6.35133L14.764 1.58733C14.4385 1.08456 13.9888 0.674254 13.4584 0.396074C12.9279 0.117894 12.3347 -0.0187561 11.736 -0.000670223C11.1405 0.00526922 10.5559 0.160754 10.0361 0.451505C9.51626 0.742257 9.07782 1.15895 8.76103 1.66333L7.58203 3.52133L10.115 5.12933L11.3 3.26433Z" fill="#374957"/>
<path d="M6.26307 11.2101L9.00007 13.1561L8.23607 6.87912C8.21921 6.74103 8.17373 6.60798 8.10253 6.48847C8.03132 6.36897 7.93597 6.26563 7.82256 6.18507C7.70916 6.1045 7.58019 6.04849 7.4439 6.0206C7.30761 5.99272 7.16701 5.99357 7.03107 6.02312L0.852068 7.36612L3.81407 9.46612L0.543068 14.6261C0.206499 15.153 0.0194104 15.7613 0.00179708 16.3863C-0.0158163 17.0112 0.136708 17.6292 0.443068 18.1741C0.754061 18.7315 1.20867 19.1954 1.75964 19.5175C2.31061 19.8397 2.93782 20.0084 3.57607 20.0061L7.00607 20.0001L7.00007 17.0001L3.57307 17.0061C3.47172 17.0091 3.3715 16.9841 3.28334 16.9341C3.19517 16.884 3.12244 16.8107 3.07307 16.7221C3.02734 16.6463 3.00418 16.5589 3.00631 16.4704C3.00843 16.3818 3.03575 16.2957 3.08507 16.2221L6.26307 11.2101Z" fill="#374957"/>
</g>
<defs>
<clipPath id="clip0_406_278">
<rect width="24" height="24" fill="white"/>
</clipPath>
</defs>
</svg>
