<svg width="24" height="24" viewBox="0 0 24 24" fill="none" xmlns="http://www.w3.org/2000/svg">
<path d="M11.9219 23.9994L11.3909 23.7624C11.0069 23.5884 1.99991 19.4994 1.99991 11.9994V5.52442C1.99997 4.8947 2.19818 4.28096 2.56647 3.77016C2.93476 3.25936 3.45445 2.87741 4.05191 2.67842L11.9999 0.0294189L19.9489 2.67942C20.5465 2.87773 21.0664 3.25941 21.4346 3.77017C21.8028 4.28093 22.0006 4.89477 21.9999 5.52442V11.9994C21.9999 20.5384 12.8629 23.6814 12.4739 23.8114L11.9219 23.9994ZM11.9999 3.19142L4.99991 5.52442V11.9994C4.99991 16.6694 10.3439 19.8464 12.0769 20.7524C13.8189 20.0254 18.9999 17.4074 18.9999 11.9994V5.52442L11.9999 3.19142Z" fill="#374957"/>
</svg>
