<svg width="24" height="24" viewBox="0 0 24 24" fill="none" xmlns="http://www.w3.org/2000/svg">
<g clip-path="url(#clip0_406_336)">
<path d="M22.655 8.16189L15.761 1.56189C14.7673 0.56823 13.4208 0.00817332 12.0155 0.00405124C10.6103 -7.08518e-05 9.26049 0.552076 8.261 1.53989L1.346 8.16189C0.921302 8.56962 0.583204 9.05883 0.351931 9.60024C0.120658 10.1417 0.000961169 10.7242 0 11.3129L0 23.9999H24V11.3129C23.999 10.7242 23.8794 10.1418 23.6483 9.60046C23.4172 9.05908 23.0794 8.56981 22.655 8.16189ZM10.36 3.67889C10.5778 3.46311 10.8361 3.29247 11.12 3.17676C11.404 3.06104 11.708 3.00252 12.0146 3.00457C12.3212 3.00661 12.6243 3.06917 12.9067 3.18867C13.1891 3.30816 13.4451 3.48223 13.66 3.70089L19.583 9.37589L13.64 15.3209C13.1981 15.7425 12.6108 15.9777 12 15.9777C11.3892 15.9777 10.8019 15.7425 10.36 15.3209L4.415 9.37589L10.36 3.67889ZM3 20.9999V12.1999L8.239 17.4399C9.23663 18.4371 10.5894 18.9973 12 18.9973C13.4106 18.9973 14.7634 18.4371 15.761 17.4399L21 12.1999V20.9999H3Z" fill="#374957"/>
</g>
<defs>
<clipPath id="clip0_406_336">
<rect width="24" height="24" fill="white"/>
</clipPath>
</defs>
</svg>
