<svg width="24" height="24" viewBox="0 0 24 24" fill="none" xmlns="http://www.w3.org/2000/svg">
<g clip-path="url(#clip0_406_23)">
<path d="M14.9999 15.6256C14.9999 14.4984 14.5522 13.4174 13.7551 12.6204C12.9581 11.8234 11.8771 11.3756 10.7499 11.3756C9.62277 11.3756 8.54176 11.8234 7.74474 12.6204C6.94771 13.4174 6.49994 14.4984 6.49994 15.6256V16.0006H9.49994V15.6256C9.49994 15.2941 9.63163 14.9761 9.86606 14.7417C10.1005 14.5073 10.4184 14.3756 10.7499 14.3756C11.0815 14.3756 11.3994 14.5073 11.6338 14.7417C11.8682 14.9761 11.9999 15.2941 11.9999 15.6256C11.9999 16.2506 10.8079 17.1446 9.84994 17.8626C8.27994 19.0406 6.49994 20.3756 6.49994 22.5006C6.49994 22.8984 6.65797 23.28 6.93928 23.5613C7.22058 23.8426 7.60211 24.0006 7.99994 24.0006H14.9999V21.0006H10.6999C11.0099 20.7466 11.3449 20.5006 11.6549 20.2636C13.2199 19.0856 14.9999 17.7506 14.9999 15.6256Z" fill="#374957"/>
<path d="M20.9999 12V17H20.2499C19.9185 16.9995 19.6009 16.8676 19.3666 16.6333C19.1323 16.399 19.0004 16.0814 18.9999 15.75V12H15.9999V15.75C16.0012 16.8768 16.4494 17.957 17.2461 18.7537C18.0429 19.5505 19.1231 19.9987 20.2499 20H20.9999V24H23.9999V12H20.9999Z" fill="#374957"/>
<path d="M20.4711 3.5297C18.3934 1.43981 15.6181 0.189233 12.6762 0.0171549C9.73422 -0.154923 6.83209 0.763579 4.52487 2.59698C2.21765 4.43038 0.667278 7.04999 0.170302 9.95475C-0.326674 12.8595 0.264628 15.8455 1.83111 18.3417L4.02311 16.1487C3.30624 14.7782 2.95533 13.2458 3.00435 11.6999C3.05338 10.154 3.50068 8.64696 4.30295 7.32462C5.10522 6.00229 6.23529 4.90947 7.58376 4.15196C8.93224 3.39445 10.4534 2.9979 12.0001 3.0007C14.3843 3.00902 16.6683 3.96066 18.3531 5.6477L16.0001 8.0007H21.9091C22.0524 8.00083 22.1943 7.9727 22.3268 7.91792C22.4592 7.86314 22.5795 7.78278 22.6809 7.68144C22.7822 7.58011 22.8626 7.45979 22.9173 7.32736C22.9721 7.19493 23.0002 7.05301 23.0001 6.9097V1.0007L20.4711 3.5297Z" fill="#374957"/>
</g>
<defs>
<clipPath id="clip0_406_23">
<rect width="24" height="24" fill="white"/>
</clipPath>
</defs>
</svg>
