<svg width="24" height="24" viewBox="0 0 24 24" fill="none" xmlns="http://www.w3.org/2000/svg">
<g clip-path="url(#clip0_406_363)">
<path d="M22.0001 13C21.996 10.6102 21.1367 8.30068 19.5777 6.48941C18.0186 4.67813 15.8627 3.48469 13.5001 3.125V0H10.5001V3.125C8.7472 3.38789 7.09591 4.11279 5.71594 5.2252C4.33597 6.33761 3.2771 7.79741 2.64814 9.45458C2.01918 11.1117 1.84282 12.9065 2.1372 14.6544C2.43157 16.4023 3.18605 18.0403 4.3231 19.4L1.90611 21.974L4.0941 24.026L6.57111 21.386C8.18591 22.4392 10.0722 23 12.0001 23C13.928 23 15.8143 22.4392 17.4291 21.386L19.9061 24.026L22.0941 21.974L19.6771 19.4C21.1795 17.606 22.002 15.34 22.0001 13ZM5.0001 13C5.0001 11.6155 5.41065 10.2622 6.17982 9.11101C6.94899 7.95987 8.04224 7.06266 9.32132 6.53284C10.6004 6.00303 12.0079 5.86441 13.3657 6.1345C14.7236 6.4046 15.9709 7.07129 16.9499 8.05025C17.9288 9.02922 18.5955 10.2765 18.8656 11.6344C19.1357 12.9922 18.9971 14.3997 18.4673 15.6788C17.9374 16.9579 17.0402 18.0511 15.8891 18.8203C14.738 19.5895 13.3846 20 12.0001 20C10.1442 19.9979 8.36499 19.2597 7.0527 17.9474C5.7404 16.6351 5.00222 14.8559 5.0001 13ZM13.5001 11.055L15.9081 12.516L14.3161 15.059L10.5001 12.715V8H13.5001V11.055ZM2.51111 5.674L0.0171051 4.011C1.22142 2.41278 2.73006 1.06864 4.4561 0.056L6.05611 2.586C4.68279 3.37208 3.4781 4.42147 2.51111 5.674ZM17.9461 2.586L19.5461 0.056C21.2722 1.06864 22.7808 2.41278 23.9851 4.011L21.4891 5.674C20.5227 4.42167 19.3187 3.3723 17.9461 2.586Z" fill="#374957"/>
</g>
<defs>
<clipPath id="clip0_406_363">
<rect width="24" height="24" fill="white"/>
</clipPath>
</defs>
</svg>
