<svg width="24" height="24" viewBox="0 0 24 24" fill="none" xmlns="http://www.w3.org/2000/svg">
<g clip-path="url(#clip0_406_437)">
<path d="M8.74306 22.5706L7.20006 19.9996C10.5001 18.0186 10.5001 13.6256 10.5001 10.9996H13.5001C13.5001 13.8286 13.5001 19.7166 8.74306 22.5706ZM17.0201 18.7326L14.1641 17.8146C13.6867 19.3735 12.874 20.8091 11.7831 22.0206L13.9881 24.0546C15.3752 22.5233 16.4101 20.7067 17.0201 18.7326ZM18.0001 10.9996C18 9.81033 17.6466 8.64791 16.9846 7.65993C16.3226 6.67195 15.382 5.90298 14.2821 5.45067C13.1822 4.99835 11.9727 4.88309 10.8072 5.11952C9.6417 5.35596 8.57273 5.93342 7.73606 6.77858L9.86906 8.88858C10.147 8.60577 10.4788 8.38142 10.8447 8.22875C11.2107 8.07607 11.6035 7.99816 12.0001 7.99958C12.7957 7.99958 13.5588 8.31565 14.1214 8.87826C14.684 9.44087 15.0001 10.2039 15.0001 10.9996C15.0154 12.1611 14.9657 13.3226 14.8511 14.4786L17.8331 14.8046C17.9606 13.5404 18.0163 12.2701 18.0001 10.9996ZM6.53706 18.3376C9.00006 16.8586 9.00006 13.7466 9.00006 10.9996C9.00014 10.7961 9.02058 10.593 9.06106 10.3936L6.12206 9.79358C6.04089 10.1904 6.00001 10.5945 6.00006 10.9996C6.00006 13.5136 5.93006 15.1996 4.99406 15.7656C4.68794 15.9266 4.34588 16.0072 4.00006 15.9996V18.9996C4.88924 19.0059 5.76436 18.7776 6.53706 18.3376ZM23.0001 10.9996C23.0045 9.33853 22.6282 7.69855 21.9001 6.20558L19.2001 7.51658C19.7295 8.60116 20.0032 9.79269 20.0001 10.9996C20.1286 14.8064 19.4089 18.5942 17.8931 22.0886L20.6001 23.3796C22.3159 19.4844 23.1361 15.2538 23.0001 10.9996ZM4.00006 10.9996C4.00244 8.87858 4.84606 6.84513 6.34584 5.34536C7.84561 3.84558 9.87906 3.00196 12.0001 2.99958C13.732 2.99374 15.418 3.55577 16.8001 4.59958L18.6051 2.19958C16.7031 0.763964 14.383 -0.00880031 12.0001 -0.000420847C9.08374 0.00301962 6.28784 1.16305 4.22569 3.2252C2.16353 5.28736 1.0035 8.08325 1.00006 10.9996V13.9996H4.00006V10.9996Z" fill="#374957"/>
</g>
<defs>
<clipPath id="clip0_406_437">
<rect width="24" height="24" fill="white"/>
</clipPath>
</defs>
</svg>
