<svg width="24" height="24" viewBox="0 0 24 24" fill="none" xmlns="http://www.w3.org/2000/svg">
<g clip-path="url(#clip0_406_63)">
<path d="M19 13.9999C18.2696 14.0026 17.5488 14.1663 16.8889 14.4793C16.229 14.7924 15.6462 15.247 15.182 15.8109L9.782 13.3729C9.91937 12.9279 9.99277 12.4656 10 11.9999C9.99352 11.5393 9.9225 11.0818 9.789 10.6409L15.183 8.19091C15.9398 9.08162 16.9863 9.67722 18.1386 9.87313C19.2909 10.069 20.4754 9.85271 21.484 9.26216C22.4927 8.67161 23.2611 7.74458 23.6542 6.64385C24.0474 5.54313 24.0402 4.33908 23.6339 3.24314C23.2276 2.1472 22.4481 1.22943 21.4325 0.650995C20.4168 0.0725598 19.2298 -0.129562 18.08 0.0801213C16.9301 0.289805 15.8909 0.897888 15.1447 1.79759C14.3986 2.6973 13.9933 3.8311 14 4.99991C14 5.14191 14.03 5.27591 14.042 5.41491L8.1 8.11191C7.224 7.39807 6.13001 7.00564 5 6.99991C3.67392 6.99991 2.40215 7.5267 1.46447 8.46438C0.526784 9.40206 0 10.6738 0 11.9999C0 13.326 0.526784 14.5978 1.46447 15.5354C2.40215 16.4731 3.67392 16.9999 5 16.9999C6.12512 16.9953 7.21506 16.6073 8.09 15.8999L14.042 18.5869C14.03 18.7259 14 18.8589 14 18.9999C14 19.9888 14.2932 20.9555 14.8427 21.7778C15.3921 22.6 16.173 23.2409 17.0866 23.6193C18.0002 23.9978 19.0056 24.0968 19.9755 23.9038C20.9454 23.7109 21.8363 23.2347 22.5355 22.5354C23.2348 21.8362 23.711 20.9453 23.9039 19.9754C24.0969 19.0055 23.9978 18.0001 23.6194 17.0865C23.241 16.1729 22.6001 15.392 21.7779 14.8426C20.9556 14.2932 19.9889 13.9999 19 13.9999ZM19 2.99991C19.3956 2.99991 19.7822 3.11721 20.1111 3.33697C20.44 3.55674 20.6964 3.86909 20.8478 4.23455C20.9991 4.6 21.0387 5.00213 20.9616 5.39009C20.8844 5.77806 20.6939 6.13442 20.4142 6.41413C20.1345 6.69383 19.7781 6.88431 19.3902 6.96148C19.0022 7.03865 18.6001 6.99905 18.2346 6.84767C17.8692 6.6963 17.5568 6.43995 17.3371 6.11105C17.1173 5.78216 17 5.39548 17 4.99991C17 4.46948 17.2107 3.96077 17.5858 3.5857C17.9609 3.21063 18.4696 2.99991 19 2.99991ZM5 13.9999C4.60444 13.9999 4.21776 13.8826 3.88886 13.6629C3.55996 13.4431 3.30362 13.1307 3.15224 12.7653C3.00087 12.3998 2.96126 11.9977 3.03843 11.6097C3.1156 11.2218 3.30608 10.8654 3.58579 10.5857C3.86549 10.306 4.22186 10.1155 4.60982 10.0383C4.99778 9.96117 5.39992 10.0008 5.76537 10.1522C6.13082 10.3035 6.44318 10.5599 6.66294 10.8888C6.8827 11.2177 7 11.6044 7 11.9999C7 12.5303 6.78929 13.0391 6.41421 13.4141C6.03914 13.7892 5.53043 13.9999 5 13.9999ZM19 20.9999C18.6044 20.9999 18.2178 20.8826 17.8889 20.6629C17.56 20.4431 17.3036 20.1307 17.1522 19.7653C17.0009 19.3998 16.9613 18.9977 17.0384 18.6097C17.1156 18.2218 17.3061 17.8654 17.5858 17.5857C17.8655 17.306 18.2219 17.1155 18.6098 17.0383C18.9978 16.9612 19.3999 17.0008 19.7654 17.1522C20.1308 17.3035 20.4432 17.5599 20.6629 17.8888C20.8827 18.2177 21 18.6044 21 18.9999C21 19.5303 20.7893 20.0391 20.4142 20.4141C20.0391 20.7892 19.5304 20.9999 19 20.9999Z" fill="#374957"/>
</g>
<defs>
<clipPath id="clip0_406_63">
<rect width="24" height="24" fill="white"/>
</clipPath>
</defs>
</svg>
