<svg width="24" height="24" viewBox="0 0 24 24" fill="none" xmlns="http://www.w3.org/2000/svg">
<g clip-path="url(#clip0_406_331)">
<path d="M7.00015 16H17.0002V19H7.00015V16ZM22.0002 17V24H2.00015V17C2.00248 15.2469 2.46564 13.5252 3.34321 12.0075C4.22078 10.4898 5.4819 9.22956 7.00015 8.353V5H9.00015V3.5C9.00015 2.57174 9.3689 1.6815 10.0253 1.02513C10.6817 0.368749 11.5719 0 12.5002 0L20.0002 0V3H15.0002V5H17.0002V8.353C18.5184 9.22956 19.7795 10.4898 20.6571 12.0075C21.5347 13.5252 21.9978 15.2469 22.0002 17ZM19.0002 17C19.0002 15.1435 18.2627 13.363 16.9499 12.0503C15.6371 10.7375 13.8567 10 12.0002 10C10.1436 10 8.36316 10.7375 7.05041 12.0503C5.73765 13.363 5.00015 15.1435 5.00015 17V21H19.0002V17Z" fill="#374957"/>
</g>
<defs>
<clipPath id="clip0_406_331">
<rect width="24" height="24" fill="white"/>
</clipPath>
</defs>
</svg>
