<svg width="24" height="24" viewBox="0 0 24 24" fill="none" xmlns="http://www.w3.org/2000/svg">
<g clip-path="url(#clip0_406_26)">
<path d="M12 0C8.82101 0.0110672 5.77559 1.27978 3.529 3.529L1 1V6.909C0.999869 7.05231 1.028 7.19424 1.08278 7.32666C1.13756 7.45909 1.21792 7.57941 1.31925 7.68075C1.42059 7.78208 1.54091 7.86244 1.67334 7.91722C1.80576 7.972 1.94769 8.00013 2.091 8H8L5.647 5.647C7.12025 4.18086 9.05623 3.27082 11.1252 3.07192C13.1941 2.87302 15.268 3.39756 16.9936 4.55617C18.7192 5.71479 19.9897 7.43582 20.5887 9.4261C21.1878 11.4164 21.0783 13.5528 20.2789 15.4714C19.4795 17.39 18.0397 18.9721 16.2047 19.9482C14.3697 20.9243 12.253 21.2341 10.2152 20.8247C8.17749 20.4153 6.3447 19.3121 5.02907 17.703C3.71345 16.0939 2.99637 14.0785 3 12H0C0 14.3734 0.703788 16.6935 2.02236 18.6668C3.34094 20.6402 5.21509 22.1783 7.4078 23.0866C9.60051 23.9948 12.0133 24.2324 14.3411 23.7694C16.6689 23.3064 18.8071 22.1635 20.4853 20.4853C22.1635 18.8071 23.3064 16.6689 23.7694 14.3411C24.2324 12.0133 23.9948 9.60051 23.0866 7.4078C22.1783 5.21509 20.6402 3.34094 18.6668 2.02236C16.6935 0.703788 14.3734 0 12 0V0Z" fill="#374957"/>
<path d="M10.0001 6.99939V13.6204L13.4391 17.0604L15.5611 14.9384L13.0001 12.3784V6.99939H10.0001Z" fill="#374957"/>
</g>
<defs>
<clipPath id="clip0_406_26">
<rect width="24" height="24" fill="white"/>
</clipPath>
</defs>
</svg>
