<svg width="24" height="24" viewBox="0 0 24 24" fill="none" xmlns="http://www.w3.org/2000/svg">
<g clip-path="url(#clip0_406_268)">
<path d="M24 3.5C24 2.57174 23.6313 1.6815 22.9749 1.02513C22.3185 0.368749 21.4283 0 20.5 0H3.5C2.57174 0 1.6815 0.368749 1.02513 1.02513C0.368749 1.6815 0 2.57174 0 3.5L0 6.5C0.000842265 7.21612 0.222593 7.91455 0.635 8.5C0.222593 9.08545 0.000842265 9.78388 0 10.5L0 13.5C0.000842265 14.2161 0.222593 14.9145 0.635 15.5C0.222593 16.0855 0.000842265 16.7839 0 17.5L0 24H24V17.5C23.9992 16.7839 23.7774 16.0855 23.365 15.5C23.7774 14.9145 23.9992 14.2161 24 13.5V10.5C23.9992 9.78388 23.7774 9.08545 23.365 8.5C23.7774 7.91455 23.9992 7.21612 24 6.5V3.5ZM3 3.5C3 3.36739 3.05268 3.24021 3.14645 3.14645C3.24021 3.05268 3.36739 3 3.5 3H5V5H8V3H10V5H13V3H20.5C20.6326 3 20.7598 3.05268 20.8536 3.14645C20.9473 3.24021 21 3.36739 21 3.5V6.5C21 6.63261 20.9473 6.75979 20.8536 6.85355C20.7598 6.94732 20.6326 7 20.5 7H3.5C3.36739 7 3.24021 6.94732 3.14645 6.85355C3.05268 6.75979 3 6.63261 3 6.5V3.5ZM21 10.5V13.5C21 13.6326 20.9473 13.7598 20.8536 13.8536C20.7598 13.9473 20.6326 14 20.5 14H3.5C3.36739 14 3.24021 13.9473 3.14645 13.8536C3.05268 13.7598 3 13.6326 3 13.5V10.5C3 10.3674 3.05268 10.2402 3.14645 10.1464C3.24021 10.0527 3.36739 10 3.5 10H5V12H8V10H10V12H13V10H20.5C20.6326 10 20.7598 10.0527 20.8536 10.1464C20.9473 10.2402 21 10.3674 21 10.5ZM21 21H3V17.5C3 17.3674 3.05268 17.2402 3.14645 17.1464C3.24021 17.0527 3.36739 17 3.5 17H5V19H8V17H10V19H13V17H20.5C20.6326 17 20.7598 17.0527 20.8536 17.1464C20.9473 17.2402 21 17.3674 21 17.5V21Z" fill="#374957"/>
</g>
<defs>
<clipPath id="clip0_406_268">
<rect width="24" height="24" fill="white"/>
</clipPath>
</defs>
</svg>
