<svg width="24" height="24" viewBox="0 0 24 24" fill="none" xmlns="http://www.w3.org/2000/svg">
<g clip-path="url(#clip0_406_420)">
<path d="M22.692 7.44708L14.1 0.725075C13.501 0.254701 12.7615 -0.000976562 12 -0.000976562C11.2384 -0.000976562 10.4989 0.254701 9.89995 0.725075L1.30795 7.44708C0.899381 7.76503 0.569061 8.17234 0.342329 8.63777C0.115597 9.10319 -0.00152283 9.61436 -4.72638e-05 10.1321V24.0001H24V10.1321C24.0014 9.61436 23.8843 9.10319 23.6576 8.63777C23.4308 8.17234 23.1005 7.76503 22.692 7.44708ZM21 21.0001H2.99995V10.1321C3.00019 10.07 3.01444 10.0089 3.04162 9.95312C3.06881 9.89736 3.10823 9.84847 3.15695 9.81008L11.748 3.08708C11.8195 3.03161 11.9074 3.00151 11.998 3.00151C12.0885 3.00151 12.1764 3.03161 12.248 3.08708L20.843 9.81008C20.8917 9.84847 20.9311 9.89736 20.9583 9.95312C20.9855 10.0089 20.9997 10.07 21 10.1321V21.0001ZM12 8.00008C11.0098 8.00028 10.0419 8.29449 9.21912 8.84542C8.39632 9.39634 7.75564 10.1792 7.37829 11.0946C7.00094 12.0101 6.90391 13.017 7.0995 13.9877C7.29509 14.9584 7.7745 15.8492 8.47695 16.5471L12 19.9941L15.535 16.5361C16.2343 15.8369 16.7107 14.946 16.9037 13.976C17.0967 13.0061 16.9978 12.0007 16.6194 11.087C16.241 10.1733 15.6002 9.39232 14.7779 8.84285C13.9557 8.29338 12.9889 8.00009 12 8.00008ZM12 15.0001C11.6044 15.0001 11.2177 14.8828 10.8888 14.663C10.5599 14.4433 10.3036 14.1309 10.1522 13.7654C10.0008 13.4 9.96121 12.9979 10.0384 12.6099C10.1156 12.2219 10.306 11.8656 10.5857 11.5859C10.8654 11.3062 11.2218 11.1157 11.6098 11.0385C11.9977 10.9613 12.3999 11.0009 12.7653 11.1523C13.1308 11.3037 13.4431 11.56 13.6629 11.8889C13.8827 12.2178 14 12.6045 14 13.0001C14 13.5305 13.7892 14.0392 13.4142 14.4143C13.0391 14.7894 12.5304 15.0001 12 15.0001Z" fill="#374957"/>
</g>
<defs>
<clipPath id="clip0_406_420">
<rect width="24" height="24" fill="white"/>
</clipPath>
</defs>
</svg>
