<svg width="24" height="24" viewBox="0 0 24 24" fill="none" xmlns="http://www.w3.org/2000/svg">
<g clip-path="url(#clip0_406_197)">
<path d="M21.313 8.10502C20.3012 5.6385 18.3476 3.6773 15.885 2.65603C15.4983 1.09978 14.1036 0.00539062 12.5 0H11.5C9.89648 0.00539062 8.50172 1.09978 8.11505 2.65598C5.65247 3.6773 3.69881 5.63845 2.68706 8.10497C1.11483 8.48044 0.00426563 9.88364 0 11.5V16H2.75902C3.80016 18.4004 5.73792 20.299 8.15902 21.291L7.23698 24H10.146L10.836 21.972C11.2222 22.0189 11.6109 22.0436 12 22.046C12.4129 22.0435 12.8253 22.0161 13.235 21.964L13.878 24H16.763L15.841 21.292C18.2625 20.3001 20.2005 18.401 21.241 16H24V11.5C23.9957 9.88364 22.8852 8.48044 21.313 8.10502ZM21 11.5V13H19V11.5C19 11.2238 19.2239 11 19.5 11H20.5C20.7761 11 21 11.2238 21 11.5ZM11 5.00002V3.50002C11 3.22388 11.2239 3 11.5 3H12.5C12.7762 3 13 3.22388 13 3.50002V5.00002H11ZM3 11.5C3 11.2238 3.22388 11 3.50002 11H4.5C4.77614 11 5.00002 11.2238 5.00002 11.5V13H3V11.5ZM14.866 18.425L12.947 12.783C12.7695 12.26 12.2017 11.9798 11.6787 12.1572C11.3842 12.2572 11.1529 12.4884 11.0529 12.783L9.13392 18.424C7.94461 17.9042 6.9225 17.0652 6.18094 16H7.99992V11.5C7.99702 10.1213 7.185 8.87269 5.92594 8.31098C6.45412 7.44019 7.161 6.69141 7.99992 6.114V8.00002H15.9999V6.114C16.8392 6.6923 17.5461 7.44216 18.0739 8.31398C16.8158 8.87527 16.004 10.1224 15.9999 11.5V16H17.8209C17.079 17.0658 16.0561 17.9052 14.866 18.425Z" fill="#374957"/>
</g>
<defs>
<clipPath id="clip0_406_197">
<rect width="24" height="24" fill="white"/>
</clipPath>
</defs>
</svg>
