<svg width="24" height="24" viewBox="0 0 24 24" fill="none" xmlns="http://www.w3.org/2000/svg">
<g clip-path="url(#clip0_406_472)">
<path d="M5.391 16.5381C5.15193 16.9445 5.01757 17.4039 5 17.8751C5 19.7751 6.716 20.6001 7.852 21.1441C8.24162 21.3134 8.6143 21.5193 8.965 21.7591C8.87058 21.9583 8.76301 22.1511 8.643 22.3361L11.186 23.9291C11.6596 23.2794 11.9416 22.51 12 21.7081C12 19.8081 10.284 18.9821 9.148 18.4381C8.77784 18.2741 8.42137 18.0808 8.082 17.8601C8.27354 17.507 8.48557 17.1654 8.717 16.8371C9.74114 16.5111 10.689 15.982 11.504 15.2813C12.3189 14.5806 12.9842 13.7228 13.46 12.7591C14.0863 13.9793 15.0763 14.9749 16.293 15.6081C16.0035 16.3284 15.9339 17.1183 16.093 17.8781C16.3133 18.5219 16.6679 19.1116 17.1334 19.6079C17.5989 20.1043 18.1646 20.496 18.793 20.7571C20.225 21.5731 20.216 21.5911 19.715 22.5201L22.358 23.9421C24.258 20.4161 21.568 18.8861 20.277 18.1501C19.771 17.8621 19.077 17.4671 19.013 17.1931C18.995 17.1181 18.954 16.6931 19.633 15.6401C22.268 14.4801 24 10.6351 24 7.11508C24.0352 6.31242 23.905 5.51109 23.6174 4.76089C23.3299 4.01068 22.8911 3.32762 22.3284 2.75414C21.7657 2.18066 21.0911 1.72902 20.3465 1.42727C19.6019 1.12552 18.8032 0.98011 18 1.00008C17.1637 0.983054 16.3333 1.14431 15.5641 1.47312C14.7949 1.80193 14.1046 2.29075 13.539 2.90708C12.8202 1.99473 11.9024 1.25858 10.8559 0.754793C9.8093 0.251002 8.6615 -0.00713241 7.5 7.68234e-05C5.5649 -0.0494328 3.68905 0.669982 2.28331 2.00075C0.877563 3.33152 0.056518 5.16517 0 7.10008C0 10.8801 2.236 15.1581 5.391 16.5381ZM18 4.00008C18.4079 3.98486 18.8145 4.05593 19.1931 4.20866C19.5717 4.36139 19.9138 4.59233 20.1969 4.88637C20.4801 5.18041 20.698 5.53092 20.8364 5.91498C20.9748 6.29904 21.0306 6.70799 21 7.11508C21 10.0901 19.282 13.0001 18 13.0001C16.718 13.0001 15 10.0901 15 7.11508C14.9695 6.70799 15.0252 6.29904 15.1636 5.91498C15.302 5.53092 15.5199 5.18041 15.8031 4.88637C16.0862 4.59233 16.4283 4.36139 16.8069 4.20866C17.1855 4.05593 17.5921 3.98486 18 4.00008ZM7.5 3.00008C8.63944 2.95087 9.7521 3.35435 10.5952 4.12247C11.4382 4.89058 11.9432 5.96098 12 7.10008C12 10.1131 9.817 14.0001 7.5 14.0001C5.183 14.0001 3 10.1131 3 7.10008C3.05677 5.96098 3.56179 4.89058 4.40484 4.12247C5.2479 3.35435 6.36056 2.95087 7.5 3.00008Z" fill="#374957"/>
</g>
<defs>
<clipPath id="clip0_406_472">
<rect width="24" height="24" fill="white"/>
</clipPath>
</defs>
</svg>
