<svg width="24" height="24" viewBox="0 0 24 24" fill="none" xmlns="http://www.w3.org/2000/svg">
<g clip-path="url(#clip0_406_283)">
<path d="M22.4189 10C21.3221 8.51083 19.7578 7.43236 17.9759 6.93702C17.496 5.19261 16.4555 3.65453 15.0149 2.56002C13.5708 1.46894 11.8056 0.887772 9.99585 0.907595C8.18607 0.927418 6.43401 1.54711 5.01422 2.66956C3.59444 3.79201 2.58716 5.35378 2.15025 7.11014C1.71333 8.8665 1.87147 10.7182 2.59988 12.375C1.58548 13.0419 0.80665 14.011 0.373744 15.1451C-0.0591611 16.2793 -0.124189 17.5209 0.187876 18.694C0.531596 19.9498 1.28427 21.0551 2.32679 21.835C3.36932 22.6149 4.64215 23.0249 5.94388 23H9.99988V20H5.94388C5.31178 20.0174 4.69141 19.8271 4.17776 19.4583C3.66411 19.0895 3.28549 18.5625 3.09988 17.958C3.00254 17.6004 2.97717 17.227 3.02524 16.8595C3.07331 16.492 3.19386 16.1377 3.3799 15.8172C3.56595 15.4966 3.81378 15.2162 4.10903 14.9921C4.40428 14.7681 4.74107 14.6049 5.09988 14.512L7.25488 13.955L5.92988 12.166C5.39676 11.4494 5.05838 10.6068 4.94768 9.72052C4.83699 8.8342 4.95776 7.93433 5.29824 7.10856C5.63872 6.2828 6.18728 5.55931 6.89049 5.00858C7.59371 4.45785 8.42758 4.09867 9.31088 3.96602C9.5679 3.92908 9.82721 3.91036 10.0869 3.91002C11.2123 3.90665 12.3076 4.27271 13.2049 4.95202C13.7508 5.36618 14.2098 5.88387 14.5555 6.47549C14.9013 7.06712 15.127 7.72109 15.2199 8.40002L15.3709 9.53502L16.5069 9.68802C17.1989 9.78468 17.8646 10.0191 18.4646 10.3774C19.0645 10.7357 19.5866 11.2106 19.9999 11.774C20.4545 12.3833 20.7662 13.0871 20.9119 13.8333C21.0575 14.5795 21.0334 15.3488 20.8414 16.0844C20.6493 16.82 20.2941 17.5029 19.8023 18.0826C19.3104 18.6622 18.6944 19.1238 17.9999 19.433V22.657C19.2748 22.3124 20.4464 21.6622 21.4132 20.7625C22.38 19.8629 23.1128 18.741 23.5481 17.4942C23.9834 16.2474 24.1081 14.9132 23.9113 13.6073C23.7145 12.3014 23.2023 11.0632 22.4189 10Z" fill="#374957"/>
<path d="M17.9998 16.0001L14.7068 12.7071C14.5193 12.5196 14.265 12.4143 13.9998 12.4143C13.7346 12.4143 13.4803 12.5196 13.2928 12.7071L9.99982 16.0001H12.4998V24.0001H15.4998V16.0001H17.9998Z" fill="#374957"/>
</g>
<defs>
<clipPath id="clip0_406_283">
<rect width="24" height="24" fill="white"/>
</clipPath>
</defs>
</svg>
