<svg width="24" height="24" viewBox="0 0 24 24" fill="none" xmlns="http://www.w3.org/2000/svg">
<g clip-path="url(#clip0_406_191)">
<path d="M21 11.5553V9.99426C21 7.60731 20.0518 5.31813 18.364 3.6303C16.6761 1.94247 14.3869 0.994263 12 0.994263C9.61305 0.994263 7.32387 1.94247 5.63604 3.6303C3.94821 5.31813 3 7.60731 3 9.99426V11.5553C2.1036 11.988 1.34695 12.664 0.816474 13.5062C0.285994 14.3485 0.00306518 15.3229 0 16.3183L0 16.6823C0.00158806 18.0922 0.562386 19.4439 1.55936 20.4409C2.55633 21.4379 3.90807 21.9987 5.318 22.0003H8V11.0003H6V9.99426C6 8.40296 6.63214 6.87684 7.75736 5.75162C8.88258 4.6264 10.4087 3.99426 12 3.99426C13.5913 3.99426 15.1174 4.6264 16.2426 5.75162C17.3679 6.87684 18 8.40296 18 9.99426V11.0003H16V22.0003H18.682C20.0919 21.9987 21.4437 21.4379 22.4406 20.4409C23.4376 19.4439 23.9984 18.0922 24 16.6823V16.3183C23.9969 15.3229 23.714 14.3485 23.1835 13.5062C22.653 12.664 21.8964 11.988 21 11.5553ZM5 18.9783C4.4452 18.9008 3.93714 18.6253 3.56956 18.2026C3.20198 17.7798 2.99969 17.2384 3 16.6783V16.3143C2.99969 15.7541 3.20198 15.2127 3.56956 14.79C3.93714 14.3672 4.4452 14.0917 5 14.0143V18.9783ZM21 16.6783C21.0003 17.2384 20.798 17.7798 20.4304 18.2026C20.0629 18.6253 19.5548 18.9008 19 18.9783V14.0223C19.5548 14.0997 20.0629 14.3752 20.4304 14.798C20.798 15.2207 21.0003 15.7621 21 16.3223V16.6783Z" fill="#374957"/>
</g>
<defs>
<clipPath id="clip0_406_191">
<rect width="24" height="24" fill="white"/>
</clipPath>
</defs>
</svg>
