<svg width="24" height="24" viewBox="0 0 24 24" fill="none" xmlns="http://www.w3.org/2000/svg">
<g clip-path="url(#clip0_406_169)">
<path d="M20.5 7H18.328C19.4299 5.56782 20.0188 3.80695 20 2H17C17.0336 3.022 16.7399 4.02803 16.1618 4.87147C15.5837 5.71491 14.7513 6.35168 13.786 6.689C14.4733 5.57105 14.8891 4.30761 15 3C15 2.20435 14.6839 1.44129 14.1213 0.87868C13.5587 0.31607 12.7956 0 12 0C11.2044 0 10.4413 0.31607 9.87868 0.87868C9.31607 1.44129 9 2.20435 9 3C9.11095 4.30761 9.52673 5.57105 10.214 6.689C9.24868 6.35168 8.41632 5.71491 7.83819 4.87147C7.26007 4.02803 6.96641 3.022 7 2H4C3.98122 3.80695 4.57006 5.56782 5.672 7H3.5C2.57174 7 1.6815 7.36875 1.02513 8.02513C0.368749 8.6815 0 9.57174 0 10.5L0 15H2V24H22V15H24V10.5C24 9.57174 23.6313 8.6815 22.9749 8.02513C22.3185 7.36875 21.4283 7 20.5 7ZM21 10.5V12H13.5V10H20.5C20.6326 10 20.7598 10.0527 20.8536 10.1464C20.9473 10.2402 21 10.3674 21 10.5ZM3 10.5C3 10.3674 3.05268 10.2402 3.14645 10.1464C3.24021 10.0527 3.36739 10 3.5 10H10.5V12H3V10.5ZM5 15H10.5V21H5V15ZM19 21H13.5V15H19V21Z" fill="#374957"/>
</g>
<defs>
<clipPath id="clip0_406_169">
<rect width="24" height="24" fill="white"/>
</clipPath>
</defs>
</svg>
