<svg width="24" height="24" viewBox="0 0 24 24" fill="none" xmlns="http://www.w3.org/2000/svg">
<g clip-path="url(#clip0_406_292)">
<path d="M24 14.8501C23.9918 13.0631 23.3983 11.328 22.3104 9.91033C21.2224 8.49264 19.7 7.47043 17.976 7.00009C17.4961 5.27681 16.4658 3.75775 15.0422 2.6745C13.6186 1.59124 11.8799 1.00322 10.091 1.00009C8.2149 0.989273 6.39372 1.63287 4.941 2.82009L2.186 0.0640869L0.064 2.18609L21.814 23.9361L23.936 21.8141L22.13 20.0141C23.3381 18.5645 23.9998 16.7372 24 14.8501ZM10.091 4.00009C11.3408 4.0004 12.5484 4.45249 13.4912 5.27303C14.4339 6.09358 15.0483 7.22725 15.221 8.46509L15.372 9.60009L16.51 9.75009C17.7481 9.91476 18.8847 10.5219 19.71 11.4593C20.5353 12.3967 20.9935 13.6011 21 14.8501C21.0013 15.9395 20.6505 17.0002 20 17.8741L7.073 4.95109C7.95226 4.32118 9.00946 3.98805 10.091 4.00009ZM13.655 20.0001L16.615 22.9601C16.352 22.9851 16.087 23.0001 15.815 23.0001H5.8C4.26542 23.0022 2.79272 22.3953 1.70527 21.3125C0.617815 20.2297 0.00450265 18.7597 0 17.2251C0.0121837 16.2435 0.266898 15.2803 0.741463 14.421C1.21603 13.5617 1.89571 12.8331 2.72 12.3001C2.26364 11.2704 2.02857 10.1564 2.03 9.03009C2.03 8.81909 2.045 8.61209 2.06 8.40609L6.951 13.3001L7.383 13.8801L5.218 14.4371C4.60084 14.6073 4.0536 14.9689 3.65503 15.4699C3.25646 15.9709 3.02711 16.5855 3 17.2251C3.00344 17.9643 3.30034 18.672 3.82542 19.1923C4.35049 19.7127 5.06075 20.0033 5.8 20.0001H13.655Z" fill="#374957"/>
</g>
<defs>
<clipPath id="clip0_406_292">
<rect width="24" height="24" fill="white"/>
</clipPath>
</defs>
</svg>
