<svg width="24" height="24" viewBox="0 0 24 24" fill="none" xmlns="http://www.w3.org/2000/svg">
<g clip-path="url(#clip0_406_376)">
<path d="M20.5 5H13.5C12.5717 5 11.6815 5.36875 11.0251 6.02513C10.3687 6.6815 10 7.57174 10 8.5V13H3V2H0V22H3V19H21V22H24V8.5C24 7.57174 23.6313 6.6815 22.9749 6.02513C22.3185 5.36875 21.4283 5 20.5 5ZM13 13V8.5C13 8.36739 13.0527 8.24022 13.1464 8.14645C13.2402 8.05268 13.3674 8 13.5 8H20.5C20.6326 8 20.7598 8.05268 20.8536 8.14645C20.9473 8.24022 21 8.36739 21 8.5V13H13ZM6.5 12C6.00555 12 5.5222 11.8534 5.11107 11.5787C4.69995 11.304 4.37952 10.9135 4.1903 10.4567C4.00108 9.99989 3.95157 9.49723 4.04804 9.01227C4.1445 8.52732 4.3826 8.08186 4.73223 7.73223C5.08186 7.3826 5.52732 7.1445 6.01227 7.04804C6.49723 6.95157 6.99989 7.00108 7.45671 7.1903C7.91352 7.37952 8.30397 7.69995 8.57867 8.11108C8.85338 8.5222 9 9.00555 9 9.5C9 9.82831 8.93534 10.1534 8.8097 10.4567C8.68406 10.76 8.49991 11.0356 8.26777 11.2678C8.03562 11.4999 7.76002 11.6841 7.45671 11.8097C7.15339 11.9353 6.8283 12 6.5 12Z" fill="#374957"/>
</g>
<defs>
<clipPath id="clip0_406_376">
<rect width="24" height="24" fill="white"/>
</clipPath>
</defs>
</svg>
