<svg width="24" height="24" viewBox="0 0 24 24" fill="none" xmlns="http://www.w3.org/2000/svg">
<g clip-path="url(#clip0_406_122)">
<path d="M12 23.9869L19.071 17.0709C20.9441 15.1944 21.9961 12.6513 21.9961 9.99994C21.9961 7.34854 20.9441 4.80547 19.071 2.92894C18.1431 1.99459 17.0397 1.25272 15.8243 0.745901C14.6089 0.239084 13.3054 -0.0226941 11.9886 -0.0244056C10.6718 -0.0261171 9.36755 0.232271 8.15084 0.735928C6.93413 1.23958 5.82887 1.97859 4.89852 2.91052C3.96817 3.84245 3.23104 4.94896 2.72945 6.16652C2.22786 7.38409 1.97168 8.68873 1.97563 10.0056C1.97958 11.3224 2.24357 12.6255 2.75245 13.84C3.26133 15.0545 4.00507 16.1566 4.94099 17.0829L12 23.9869ZM7.05099 5.04994C8.36222 3.73566 10.1418 2.99609 11.9984 2.99394C13.8549 2.99178 15.6362 3.72721 16.9505 5.03844C18.2648 6.34967 19.0043 8.12929 19.0065 9.98581C19.0087 11.8423 18.2732 13.6237 16.962 14.9379L12 19.7909L7.04999 14.9499C6.39991 14.2999 5.88423 13.5282 5.5324 12.6789C5.18057 11.8296 4.99949 10.9193 4.99949 9.99994C4.99949 9.08063 5.18057 8.17032 5.5324 7.32099C5.88423 6.47167 6.39991 5.69996 7.04999 5.04994H7.05099ZM16 11.4999H7.99999V8.49994H16V11.4999Z" fill="#374957"/>
</g>
<defs>
<clipPath id="clip0_406_122">
<rect width="24" height="24" fill="white"/>
</clipPath>
</defs>
</svg>
