<svg width="24" height="24" viewBox="0 0 24 24" fill="none" xmlns="http://www.w3.org/2000/svg">
<g clip-path="url(#clip0_406_224)">
<path d="M23.3652 6.13391L20.0002 1.41592C19.6839 0.974073 19.2668 0.614037 18.7835 0.365685C18.3001 0.117333 17.7646 -0.0121728 17.2212 -0.0120849H6.77919C6.23665 -0.0113785 5.70207 0.118508 5.21969 0.366827C4.73731 0.615146 4.321 0.97476 4.00519 1.41592L0.634189 6.13492C0.207665 6.73957 -0.0121438 7.46581 0.00749718 8.2055C0.0271381 8.94519 0.285178 9.65875 0.743189 10.2399L12.0002 24.1099L23.2712 10.2219C23.7241 9.64108 23.9778 8.9298 23.9947 8.19347C24.0116 7.45714 23.7909 6.73495 23.3652 6.13391ZM3.07619 7.87791L6.44619 3.15992C6.48414 3.10696 6.53411 3.06376 6.592 3.03386C6.64989 3.00396 6.71404 2.98821 6.77919 2.98792H9.70019L8.27519 8.49992H15.7252L14.3002 2.98792H17.2232C17.2883 2.98821 17.3525 3.00396 17.4104 3.03386C17.4683 3.06376 17.5182 3.10696 17.5562 3.15992L20.9252 7.87691C20.9752 7.94541 21.0026 8.02781 21.0035 8.11261C21.0044 8.19742 20.9787 8.28038 20.9302 8.34992L20.8082 8.49992H15.7252L12.0002 19.3479L8.27519 8.49992H3.19419L3.08719 8.36792C3.03298 8.29825 3.00264 8.21298 3.00066 8.12473C2.99868 8.03648 3.02516 7.94994 3.07619 7.87791Z" fill="#374957"/>
</g>
<defs>
<clipPath id="clip0_406_224">
<rect width="24" height="24" fill="white"/>
</clipPath>
</defs>
</svg>
