<svg width="24" height="24" viewBox="0 0 24 24" fill="none" xmlns="http://www.w3.org/2000/svg">
<g clip-path="url(#clip0_406_293)">
<path d="M24 20.9997H21V14.9997C20.526 3.06571 3.47 3.07471 3 14.9997V20.9997H0V14.9997C0.661 -0.92429 23.345 -0.91129 24 14.9997V20.9997ZM19 14.9997C18.67 5.73271 5.327 5.73971 5 14.9997V20.9997H8V14.9997C8 13.9388 8.42143 12.9214 9.17157 12.1713C9.92172 11.4211 10.9391 10.9997 12 10.9997C13.0609 10.9997 14.0783 11.4211 14.8284 12.1713C15.5786 12.9214 16 13.9388 16 14.9997V20.9997H19V14.9997ZM14 14.9997C14 14.4693 13.7893 13.9606 13.4142 13.5855C13.0391 13.2104 12.5304 12.9997 12 12.9997C11.4696 12.9997 10.9609 13.2104 10.5858 13.5855C10.2107 13.9606 10 14.4693 10 14.9997V20.9997H14V14.9997Z" fill="#374957"/>
</g>
<defs>
<clipPath id="clip0_406_293">
<rect width="24" height="24" fill="white"/>
</clipPath>
</defs>
</svg>
