<svg width="24" height="24" viewBox="0 0 24 24" fill="none" xmlns="http://www.w3.org/2000/svg">
<path d="M11.16 11.6926L9.39996 9.86556L7.23996 11.9446L9.43996 14.2316C9.65576 14.46 9.91497 14.6432 10.2024 14.7702C10.4898 14.8973 10.7997 14.9657 11.114 14.9716H11.151C11.7739 14.9698 12.371 14.7226 12.813 14.2836L17.834 9.26056L15.712 7.14056L11.16 11.6926Z" fill="#374957"/>
<path d="M11.922 23.9994L11.391 23.7624C11.007 23.5884 2.00003 19.4994 2.00003 11.9994V5.52442C2.00009 4.8947 2.19831 4.28096 2.5666 3.77016C2.93489 3.25936 3.45458 2.87741 4.05203 2.67842L12 0.0294189L19.949 2.67942C20.5466 2.87773 21.0665 3.25941 21.4347 3.77017C21.8029 4.28093 22.0007 4.89477 22 5.52442V11.9994C22 20.5384 12.863 23.6814 12.474 23.8114L11.922 23.9994ZM12 3.19142L5.00003 5.52442V11.9994C5.00003 16.6694 10.344 19.8464 12.077 20.7524C13.819 20.0254 19 17.4074 19 11.9994V5.52442L12 3.19142Z" fill="#374957"/>
</svg>
