<svg width="24" height="24" viewBox="0 0 24 24" fill="none" xmlns="http://www.w3.org/2000/svg">
<g clip-path="url(#clip0_406_480)">
<path d="M9.768 23.0002H5.8C4.26542 23.0023 2.79272 22.3953 1.70527 21.3126C0.617815 20.2298 0.00450265 18.7597 0 17.2252C0.0121837 16.2436 0.266898 15.2803 0.741463 14.421C1.21603 13.5618 1.89571 12.8332 2.72 12.3002C2.1763 11.0744 1.9478 9.73221 2.05528 8.39564C2.16277 7.05907 2.60283 5.7706 3.33541 4.64753C4.06799 3.52445 5.06983 2.60244 6.24973 1.9654C7.42963 1.32837 8.75012 0.99655 10.091 1.00015C11.8799 1.00329 13.6186 1.5913 15.0422 2.67456C16.4658 3.75781 17.4961 5.27688 17.976 7.00015C19.7 7.47049 21.2224 8.49271 22.3104 9.91039C23.3983 11.3281 23.9918 13.0632 24 14.8502C23.9972 15.5771 23.8963 16.3003 23.7 17.0002H20.51C20.8292 16.3282 20.9965 15.5941 21 14.8502C20.9935 13.6012 20.5353 12.3968 19.71 11.4594C18.8847 10.5219 17.7481 9.91483 16.51 9.75015L15.372 9.60015L15.221 8.46315C15.048 7.22559 14.4335 6.09227 13.4908 5.2721C12.548 4.45192 11.3406 4.00018 10.091 4.00015C9.42424 3.98286 8.7609 4.1009 8.14105 4.34715C7.52119 4.5934 6.95768 4.96275 6.48456 5.43287C6.01145 5.903 5.63854 6.46415 5.38836 7.08244C5.13818 7.70072 5.01594 8.3633 5.029 9.03015C5.02929 10.1319 5.38684 11.2038 6.048 12.0852L7.381 13.8772L5.218 14.4332C4.60021 14.6036 4.05252 14.9658 3.65388 15.4676C3.25525 15.9694 3.02629 16.5848 3 17.2252C3.0037 17.9643 3.30069 18.6718 3.82571 19.1921C4.35072 19.7124 5.06083 20.0031 5.8 20.0002H6.737L9.768 23.0002ZM17 20.0002V13.0002H14V20.0002H11L14.75 23.7072C14.9375 23.8946 15.1918 23.9999 15.457 23.9999C15.7222 23.9999 15.9765 23.8946 16.164 23.7072L20 20.0002H17Z" fill="#374957"/>
</g>
<defs>
<clipPath id="clip0_406_480">
<rect width="24" height="24" fill="white"/>
</clipPath>
</defs>
</svg>
