<svg width="24" height="24" viewBox="0 0 24 24" fill="none" xmlns="http://www.w3.org/2000/svg">
<g clip-path="url(#clip0_406_411)">
<path d="M19.5001 0H3.00008V3H1.00008V6H3.00008V8H1.00008V11H3.00008V13H1.00008V16H3.00008V18H1.00008V21H3.00008V24H19.5001C20.4283 24 21.3186 23.6313 21.975 22.9749C22.6313 22.3185 23.0001 21.4283 23.0001 20.5V3.5C23.0001 2.57174 22.6313 1.6815 21.975 1.02513C21.3186 0.368749 20.4283 0 19.5001 0ZM20.0001 20.5C20.0001 20.6326 19.9474 20.7598 19.8536 20.8536C19.7599 20.9473 19.6327 21 19.5001 21H6.00008V3H19.5001C19.6327 3 19.7599 3.05268 19.8536 3.14645C19.9474 3.24021 20.0001 3.36739 20.0001 3.5V20.5ZM10.5001 9.5C10.5001 9.00555 10.6467 8.5222 10.9214 8.11107C11.1961 7.69995 11.5866 7.37952 12.0434 7.1903C12.5002 7.00108 13.0028 6.95157 13.4878 7.04804C13.9728 7.1445 14.4182 7.3826 14.7678 7.73223C15.1175 8.08186 15.3556 8.52732 15.452 9.01227C15.5485 9.49723 15.499 9.99989 15.3098 10.4567C15.1206 10.9135 14.8001 11.304 14.389 11.5787C13.9779 11.8534 13.4945 12 13.0001 12C12.337 12 11.7011 11.7366 11.2323 11.2678C10.7635 10.7989 10.5001 10.163 10.5001 9.5ZM17.0001 15V17H9.00008V15C9.00008 14.4696 9.21079 13.9609 9.58586 13.5858C9.96094 13.2107 10.4696 13 11.0001 13H15.0001C15.5305 13 16.0392 13.2107 16.4143 13.5858C16.7894 13.9609 17.0001 14.4696 17.0001 15Z" fill="#374957"/>
</g>
<defs>
<clipPath id="clip0_406_411">
<rect width="24" height="24" fill="white"/>
</clipPath>
</defs>
</svg>
