<svg width="24" height="24" viewBox="0 0 24 24" fill="none" xmlns="http://www.w3.org/2000/svg">
<g clip-path="url(#clip0_406_156)">
<path d="M21 24H3V20.591C3.04375 18.9629 3.42002 17.3608 4.10566 15.8835C4.7913 14.4061 5.77184 13.0845 6.987 12C5.77151 10.9158 4.79076 9.59425 4.10509 8.1168C3.41942 6.63936 3.04334 5.03722 3 3.409C3.00079 2.50512 3.36021 1.63849 3.99935 0.99935C4.63849 0.360211 5.50512 0.000794387 6.409 0L17.591 0C18.4948 0.00105862 19.3613 0.36056 20.0004 0.999642C20.6394 1.63872 20.9989 2.5052 21 3.409C20.9571 5.03585 20.5827 6.63684 19.8997 8.11402C19.2168 9.59119 18.2396 10.9135 17.028 12C18.2396 13.0865 19.2168 14.4088 19.8997 15.886C20.5827 17.3632 20.9571 18.9641 21 20.591V24ZM6 21H18V20.591C18 17.207 15.729 14.691 13.823 13.174L12.347 12L13.823 10.826C15.729 9.311 18 6.793 18 3.409C17.9997 3.30061 17.9566 3.19673 17.8799 3.12009C17.8033 3.04344 17.6994 3.00026 17.591 3H6.409C6.30061 3.00026 6.19673 3.04344 6.12009 3.12009C6.04344 3.19673 6.00026 3.30061 6 3.409C6 6.795 8.281 9.309 10.2 10.823L11.682 12L10.2 13.176C8.282 14.691 6 17.207 6 20.591V21ZM12.012 14.289L12.578 14.739C14.0385 15.8122 15.1471 17.2954 15.763 19H8.239C8.8599 17.2956 9.97381 15.8144 11.439 14.745L12.015 14.289" fill="#374957"/>
</g>
<defs>
<clipPath id="clip0_406_156">
<rect width="24" height="24" fill="white"/>
</clipPath>
</defs>
</svg>
