<svg width="24" height="24" viewBox="0 0 24 24" fill="none" xmlns="http://www.w3.org/2000/svg">
<g clip-path="url(#clip0_406_459)">
<path d="M24 24H0V3.5C0 2.57174 0.368749 1.6815 1.02513 1.02513C1.6815 0.368749 2.57174 0 3.5 0L20.5 0C21.4283 0 22.3185 0.368749 22.9749 1.02513C23.6313 1.6815 24 2.57174 24 3.5V24ZM3 21H21V3.5C21 3.36739 20.9473 3.24021 20.8536 3.14645C20.7598 3.05268 20.6326 3 20.5 3H3.5C3.36739 3 3.24021 3.05268 3.14645 3.14645C3.05268 3.24021 3 3.36739 3 3.5V21ZM10.5 12C10.5 12.2967 10.588 12.5867 10.7528 12.8334C10.9176 13.08 11.1519 13.2723 11.426 13.3858C11.7001 13.4994 12.0017 13.5291 12.2926 13.4712C12.5836 13.4133 12.8509 13.2704 13.0607 13.0607C13.2704 12.8509 13.4133 12.5836 13.4712 12.2926C13.5291 12.0017 13.4994 11.7001 13.3858 11.426C13.2723 11.1519 13.08 10.9176 12.8334 10.7528C12.5867 10.588 12.2967 10.5 12 10.5C11.6022 10.5 11.2206 10.658 10.9393 10.9393C10.658 11.2206 10.5 11.6022 10.5 12ZM6 7.5C6 7.79667 6.08797 8.08668 6.2528 8.33335C6.41762 8.58003 6.65189 8.77229 6.92597 8.88582C7.20006 8.99935 7.50166 9.02906 7.79264 8.97118C8.08361 8.9133 8.35088 8.77044 8.56066 8.56066C8.77044 8.35088 8.9133 8.08361 8.97118 7.79264C9.02906 7.50166 8.99935 7.20006 8.88582 6.92597C8.77229 6.65189 8.58003 6.41762 8.33335 6.2528C8.08668 6.08797 7.79667 6 7.5 6C7.10218 6 6.72064 6.15804 6.43934 6.43934C6.15804 6.72064 6 7.10218 6 7.5ZM15 7.5C15 7.79667 15.088 8.08668 15.2528 8.33335C15.4176 8.58003 15.6519 8.77229 15.926 8.88582C16.2001 8.99935 16.5017 9.02906 16.7926 8.97118C17.0836 8.9133 17.3509 8.77044 17.5607 8.56066C17.7704 8.35088 17.9133 8.08361 17.9712 7.79264C18.0291 7.50166 17.9993 7.20006 17.8858 6.92597C17.7723 6.65189 17.58 6.41762 17.3334 6.2528C17.0867 6.08797 16.7967 6 16.5 6C16.1022 6 15.7206 6.15804 15.4393 6.43934C15.158 6.72064 15 7.10218 15 7.5ZM6 16.5C6 16.7967 6.08797 17.0867 6.2528 17.3334C6.41762 17.58 6.65189 17.7723 6.92597 17.8858C7.20006 17.9993 7.50166 18.0291 7.79264 17.9712C8.08361 17.9133 8.35088 17.7704 8.56066 17.5607C8.77044 17.3509 8.9133 17.0836 8.97118 16.7926C9.02906 16.5017 8.99935 16.2001 8.88582 15.926C8.77229 15.6519 8.58003 15.4176 8.33335 15.2528C8.08668 15.088 7.79667 15 7.5 15C7.10218 15 6.72064 15.158 6.43934 15.4393C6.15804 15.7206 6 16.1022 6 16.5ZM15 16.5C15 16.7967 15.088 17.0867 15.2528 17.3334C15.4176 17.58 15.6519 17.7723 15.926 17.8858C16.2001 17.9993 16.5017 18.0291 16.7926 17.9712C17.0836 17.9133 17.3509 17.7704 17.5607 17.5607C17.7704 17.3509 17.9133 17.0836 17.9712 16.7926C18.0291 16.5017 17.9993 16.2001 17.8858 15.926C17.7723 15.6519 17.58 15.4176 17.3334 15.2528C17.0867 15.088 16.7967 15 16.5 15C16.1022 15 15.7206 15.158 15.4393 15.4393C15.158 15.7206 15 16.1022 15 16.5Z" fill="#374957"/>
</g>
<defs>
<clipPath id="clip0_406_459">
<rect width="24" height="24" fill="white"/>
</clipPath>
</defs>
</svg>
