<svg width="24" height="24" viewBox="0 0 24 24" fill="none" xmlns="http://www.w3.org/2000/svg">
<g clip-path="url(#clip0_406_171)">
<path d="M2.44198 7.43627L0.657982 9.92727C0.166802 10.5973 -0.062075 11.4239 0.0145673 12.2512C0.0912095 13.0784 0.468067 13.8489 1.07398 14.4173L12 24.0003L22.994 14.3593C23.5833 13.7738 23.9379 12.9928 23.9908 12.1637C24.0436 11.3346 23.7912 10.5149 23.281 9.85927L21.24 7.42227C20.9238 6.99233 20.5112 6.64247 20.0354 6.40073C19.5595 6.159 19.0337 6.03212 18.5 6.03027H5.19998C4.66216 6.03163 4.13222 6.15962 3.65307 6.40389C3.17391 6.64816 2.75902 7.00183 2.44198 7.43627ZM3.08798 11.6873L4.87198 9.20027C4.90896 9.14766 4.95808 9.10473 5.01518 9.07514C5.07228 9.04554 5.13567 9.03015 5.19998 9.03027H9.18798L7.99998 12.0003H16L14.812 9.03027H18.5C18.5793 9.03574 18.656 9.06069 18.7233 9.1029C18.7906 9.14512 18.8465 9.20329 18.886 9.27227L20.922 11.7003C20.9846 11.787 21.0125 11.894 21 12.0003H16L12 20.0063L7.99998 12.0003H3.01798C3.00742 11.9461 3.00819 11.8903 3.02024 11.8365C3.03228 11.7826 3.05535 11.7318 3.08798 11.6873Z" fill="#374957"/>
<path d="M13.5 0H10.5V4H13.5V0Z" fill="#374957"/>
<path d="M17.7349 0.301645L15.7351 3.4447L18.268 5.05624L20.2677 1.91318L17.7349 0.301645Z" fill="#374957"/>
<path d="M6.26602 0.308402L3.7345 1.92004L5.73441 5.06146L8.26594 3.44982L6.26602 0.308402Z" fill="#374957"/>
</g>
<defs>
<clipPath id="clip0_406_171">
<rect width="24" height="24" fill="white"/>
</clipPath>
</defs>
</svg>
