<svg width="24" height="24" viewBox="0 0 24 24" fill="none" xmlns="http://www.w3.org/2000/svg">
<g clip-path="url(#clip0_406_50)">
<path d="M23.4111 1.5C23.0988 1.03825 22.6781 0.660079 22.1858 0.398582C21.6934 0.137085 21.1445 0.000232861 20.5871 7.08718e-07H3.41309C2.85618 -0.00035836 2.30766 0.135729 1.8155 0.396361C1.32334 0.656993 0.902524 1.03423 0.589858 1.49509C0.277192 1.95595 0.0821945 2.4864 0.0219186 3.04004C-0.0383573 3.59368 0.0379237 4.15365 0.244091 4.671C1.09427 6.77129 2.49608 8.60287 4.30138 9.97216C6.10667 11.3414 8.24836 12.1975 10.5001 12.45V21H6.00009V24H18.0001V21H13.5001V12.45C15.7518 12.1975 17.8935 11.3414 19.6988 9.97216C21.5041 8.60287 22.9059 6.77129 23.7561 4.671C23.9619 4.15445 24.038 3.59537 23.9779 3.0426C23.9177 2.48984 23.7231 1.96021 23.4111 1.5ZM12.0001 9.541C10.1591 9.56044 8.35158 9.04791 6.79479 8.06498C5.23799 7.08205 3.99811 5.67053 3.22409 4H20.7761C20.0021 5.67053 18.7622 7.08205 17.2054 8.06498C15.6486 9.04791 13.8411 9.56044 12.0001 9.541Z" fill="#374957"/>
</g>
<defs>
<clipPath id="clip0_406_50">
<rect width="24" height="24" fill="white"/>
</clipPath>
</defs>
</svg>
