<svg width="24" height="24" viewBox="0 0 24 24" fill="none" xmlns="http://www.w3.org/2000/svg">
<g clip-path="url(#clip0_406_304)">
<path d="M10.257 5.723V4.25H10.972C11.1669 4.25 11.3539 4.32744 11.4917 4.46528C11.6296 4.60312 11.707 4.79007 11.707 4.985C11.707 5.17993 11.6296 5.36688 11.4917 5.50472C11.3539 5.64256 11.1669 5.72 10.972 5.72L10.257 5.723ZM24 3V17.471L17.471 24H0V3C0 2.20435 0.31607 1.44129 0.87868 0.87868C1.44129 0.31607 2.20435 0 3 0L21 0C21.7956 0 22.5587 0.31607 23.1213 0.87868C23.6839 1.44129 24 2.20435 24 3ZM14 7.084C14.0008 7.34572 14.0532 7.60471 14.1541 7.84616C14.2551 8.08762 14.4027 8.3068 14.5885 8.49116C14.7742 8.67552 14.9945 8.82146 15.2367 8.92061C15.4789 9.01976 15.7383 9.07018 16 9.069C16.5277 9.06902 17.034 8.8605 17.4086 8.48888C17.7832 8.11726 17.9958 7.61266 18 7.085V6H16V7H16.749V7.084C16.7428 7.27956 16.6614 7.46519 16.5216 7.60214C16.3819 7.73909 16.1946 7.81678 15.999 7.819C15.9002 7.81994 15.8022 7.80114 15.7108 7.76371C15.6194 7.72627 15.5363 7.67096 15.4666 7.60101C15.3968 7.53105 15.3417 7.44788 15.3045 7.35635C15.2673 7.26482 15.2488 7.16679 15.25 7.068V5C15.2489 4.90121 15.2676 4.8032 15.3049 4.71173C15.3422 4.62025 15.3974 4.53714 15.4673 4.46728C15.5371 4.39742 15.6202 4.34222 15.7117 4.30491C15.8032 4.2676 15.9012 4.24893 16 4.25C16.1972 4.25554 16.3847 4.33634 16.5242 4.47581C16.6637 4.61528 16.7445 4.80284 16.75 5H18C17.9966 4.47062 17.7848 3.96389 17.4104 3.58955C17.0361 3.21522 16.5294 3.00341 16 3C15.7383 2.99882 15.4789 3.04924 15.2367 3.14839C14.9945 3.24755 14.7742 3.39348 14.5885 3.57784C14.4027 3.7622 14.2551 3.98138 14.1541 4.22284C14.0532 4.46429 14.0008 4.72328 14 4.985V7.084ZM9 9.069H10.25V6.969H10.967C11.4935 6.969 11.9983 6.75987 12.3706 6.38761C12.7429 6.01535 12.952 5.51046 12.952 4.984C12.952 4.45755 12.7429 3.95265 12.3706 3.58039C11.9983 3.20813 11.4935 2.999 10.967 2.999H9V9.069ZM4 7.084C4.00422 7.61166 4.2168 8.11626 4.59141 8.48788C4.96603 8.8595 5.47233 9.06802 6 9.068C6.26163 9.06918 6.52093 9.01879 6.76307 8.9197C7.00521 8.82061 7.22545 8.67477 7.4112 8.49051C7.59694 8.30626 7.74455 8.08719 7.84558 7.84586C7.94661 7.60452 7.99908 7.34563 8 7.084V3H6.75V7.068C6.7512 7.16687 6.73264 7.26499 6.69538 7.35658C6.65813 7.44818 6.60295 7.5314 6.53308 7.60137C6.46321 7.67133 6.38005 7.72663 6.28851 7.764C6.19697 7.80137 6.09887 7.82007 6 7.819C5.80435 7.81678 5.61712 7.73909 5.47738 7.60214C5.33763 7.46519 5.25617 7.27956 5.25 7.084C5.25 7.054 5.25 7 5.25 7H4V7.084ZM21 11H3V21H15V15H21V11Z" fill="#374957"/>
</g>
<defs>
<clipPath id="clip0_406_304">
<rect width="24" height="24" fill="white"/>
</clipPath>
</defs>
</svg>
