<svg width="24" height="24" viewBox="0 0 24 24" fill="none" xmlns="http://www.w3.org/2000/svg">
<g clip-path="url(#clip0_406_499)">
<path d="M9.61411 11.5909C10.7187 11.5909 11.6141 10.6955 11.6141 9.59094C11.6141 8.48637 10.7187 7.59094 9.61411 7.59094C8.50954 7.59094 7.61411 8.48637 7.61411 9.59094C7.61411 10.6955 8.50954 11.5909 9.61411 11.5909Z" fill="#374957"/>
<path d="M20 4C21.1046 4 22 3.10457 22 2C22 0.89543 21.1046 0 20 0C18.8954 0 18 0.89543 18 2C18 3.10457 18.8954 4 20 4Z" fill="#374957"/>
<path d="M11.9998 18.0001C13.1044 18.0001 13.9998 17.1047 13.9998 16.0001C13.9998 14.8956 13.1044 14.0001 11.9998 14.0001C10.8953 14.0001 9.99985 14.8956 9.99985 16.0001C9.99985 17.1047 10.8953 18.0001 11.9998 18.0001Z" fill="#374957"/>
<path d="M12 23.9779C8.8174 23.9779 5.76516 22.7136 3.51472 20.4632C1.26428 18.2127 0 15.1605 0 11.9779C0 8.79531 1.26428 5.74306 3.51472 3.49262C5.76516 1.24219 8.8174 -0.0220947 12 -0.0220947C12.389 -0.0220947 12.771 -0.00209473 13.15 0.0349053L14.381 0.154905L14.5 1.38591C14.7008 3.46424 15.6179 5.40811 17.0943 6.88456C18.5708 8.36101 20.5147 9.27815 22.593 9.47891L23.828 9.59591L23.944 10.8309C23.981 11.2079 24.002 11.5899 24.002 11.9779C23.9986 15.1598 22.7329 18.2103 20.4828 20.4601C18.2327 22.7098 15.1819 23.975 12 23.9779ZM11.71 2.97791C9.95597 3.03539 8.25702 3.60444 6.82223 4.61502C5.38743 5.62561 4.2794 7.03363 3.63449 8.66581C2.98959 10.298 2.83595 12.0831 3.19248 13.8015C3.54901 15.5199 4.40016 17.0965 5.64118 18.3374C6.8822 19.5783 8.45893 20.4292 10.1773 20.7856C11.8958 21.1419 13.6809 20.9881 15.313 20.343C16.9451 19.6979 18.353 18.5898 19.3634 17.1549C20.3738 15.72 20.9427 14.0209 21 12.2669C18.7171 11.7885 16.623 10.6557 14.9733 9.00688C13.3235 7.35804 12.1896 5.2645 11.71 2.98191V2.97791Z" fill="#374957"/>
</g>
<defs>
<clipPath id="clip0_406_499">
<rect width="24" height="24" fill="white"/>
</clipPath>
</defs>
</svg>
