<svg width="24" height="24" viewBox="0 0 24 24" fill="none" xmlns="http://www.w3.org/2000/svg">
<g clip-path="url(#clip0_406_335)">
<path d="M23.1358 13.1525L18.9598 14.2855L16.9998 13.1625V10.8875L18.9568 9.7655L23.1358 10.8995L23.9208 7.9995L20.5918 7.0995L21.4918 3.7705L18.5998 2.9845L17.4658 7.1625L15.5998 8.2325L13.4998 7.0195V5.2195L16.5608 2.1585L14.4388 0.0415039L11.9998 2.4805L9.5608 0.0415039L7.4388 2.1625L10.4998 5.2235V7.0235L8.3998 8.2325L6.5338 7.1635L5.3998 2.9845L2.5058 3.7705L3.4058 7.0995L0.0787964 7.9995L0.863796 10.8995L5.0428 9.7655L6.9998 10.8875V13.1625L5.0408 14.2855L0.863796 13.1525L0.0787964 16.0475L3.4078 16.9475L2.5078 20.2775L5.4018 21.0625L6.5358 16.8855L8.5698 15.7215L10.4998 16.8355V18.7755L7.4388 21.8365L9.5608 23.9575L11.9998 21.5185L14.4388 23.9575L16.5608 21.8365L13.4998 18.7755V16.8355L15.4298 15.7215L17.4658 16.8885L18.5998 21.0655L21.4938 20.2805L20.5938 16.9505L23.9228 16.0505L23.1358 13.1525ZM13.9998 13.0825L11.9998 14.2365L9.9998 13.0825V10.7725L11.9998 9.6185L13.9998 10.7725V13.0825Z" fill="#374957"/>
</g>
<defs>
<clipPath id="clip0_406_335">
<rect width="24" height="24" fill="white"/>
</clipPath>
</defs>
</svg>
