<svg width="24" height="24" viewBox="0 0 24 24" fill="none" xmlns="http://www.w3.org/2000/svg">
<path d="M5.00006 23.7608V0.279785L19.0291 9.23579C19.4963 9.53162 19.881 9.94096 20.1473 10.4256C20.4136 10.9103 20.5529 11.4545 20.5521 12.0075C20.5513 12.5605 20.4104 13.1043 20.1427 13.5882C19.875 14.0721 19.4891 14.4803 19.0211 14.7748L5.00006 23.7608ZM8.00006 5.75479V18.2738L17.4121 12.2418C17.4552 12.2188 17.4912 12.1843 17.5159 12.1421C17.5406 12.0999 17.5532 12.0517 17.5521 12.0028C17.5537 11.956 17.5426 11.9097 17.5198 11.8688C17.4971 11.828 17.4636 11.7941 17.4231 11.7708L8.00006 5.75479Z" fill="#374957"/>
</svg>
