<svg width="24" height="24" viewBox="0 0 24 24" fill="none" xmlns="http://www.w3.org/2000/svg">
<g clip-path="url(#clip0_406_385)">
<path d="M5.43006e-05 21H24.0001V24H5.43006e-05V21ZM24.0001 8.10001V10H21.0001V16H23.0001V19H1.00005V16H3.00005V10H5.43006e-05V8.10001C-0.00131815 7.48628 0.163063 6.88358 0.475839 6.35554C0.788615 5.8275 1.23818 5.39372 1.77705 5.1L10.3671 0.416004C10.8677 0.141863 11.4293 -0.00183105 12.0001 -0.00183105C12.5708 -0.00183105 13.1324 0.141863 13.6331 0.416004L22.2241 5.1C22.7627 5.39393 23.212 5.82779 23.5246 6.3558C23.8371 6.88381 24.0014 7.48641 24.0001 8.10001ZM4.56205 7H19.4371L12.2001 3.05C12.1404 3.01672 12.0733 2.99925 12.0051 2.99925C11.9368 2.99925 11.8697 3.01672 11.8101 3.05L4.56205 7ZM11.0001 10V16H13.0001V10H11.0001ZM6.00005 16H8.00005V10H6.00005V16ZM18.0001 10H16.0001V16H18.0001V10Z" fill="#374957"/>
</g>
<defs>
<clipPath id="clip0_406_385">
<rect width="24" height="24" fill="white"/>
</clipPath>
</defs>
</svg>
