<svg width="24" height="24" viewBox="0 0 24 24" fill="none" xmlns="http://www.w3.org/2000/svg">
<g clip-path="url(#clip0_406_126)">
<path d="M23.9999 11C23.9985 11.9952 23.6267 12.9542 22.957 13.6903C22.2873 14.4264 21.3675 14.8869 20.3769 14.982C19.7086 16.7354 18.5329 18.2498 16.9999 19.332V24H13.9999V20.743C12.6886 21.088 11.31 21.0856 9.99993 20.736V24H6.99993V19.326C5.17914 18.0468 3.87737 16.1571 3.33094 14H3.49994C4.4597 13.9664 5.41266 13.8251 6.34093 13.579C6.71747 14.807 7.46223 15.8897 8.47441 16.6804C9.48659 17.4712 10.7173 17.9318 11.9999 18C13.3555 17.9328 14.6525 17.427 15.6957 16.5587C16.7389 15.6905 17.4717 14.5068 17.7839 13.186L18.0389 12H19.9999C20.2651 12.0045 20.5213 11.9035 20.712 11.7191C20.9027 11.5348 21.0124 11.2822 21.0169 11.017C21.0214 10.7518 20.9204 10.4956 20.736 10.3049C20.5517 10.1142 20.2991 10.0045 20.0339 10L18.7819 9.955L18.5999 8.714C18.3643 7.12998 17.569 5.68276 16.3583 4.63455C15.1475 3.58634 13.6014 3.00647 11.9999 3C10.3588 3.00222 8.77053 3.57998 7.51156 4.63266C6.25259 5.68533 5.40272 7.14625 5.10994 8.761C7.51235 8.14645 9.68077 6.83844 11.3449 5H11.9999C12.9237 5.00501 13.825 5.28604 14.5879 5.807C13.2793 7.50793 11.6567 8.94215 9.80793 10.032C10.1144 10.0944 10.3938 10.2507 10.6075 10.4791C10.8211 10.7074 10.9584 10.9966 11.0004 11.3065C11.0423 11.6164 10.9868 11.9317 10.8415 12.2087C10.6963 12.4856 10.4684 12.7105 10.1896 12.8522C9.91081 12.9938 9.59483 13.0452 9.28549 12.9993C8.97615 12.9533 8.68877 12.8122 8.4632 12.5956C8.23762 12.379 8.08503 12.0976 8.02657 11.7904C7.96811 11.4831 8.00668 11.1653 8.13693 10.881C6.67504 11.5413 5.10206 11.9208 3.49994 12H1.99994V10C2.00285 7.34873 3.05735 4.80688 4.93208 2.93215C6.80681 1.05742 9.34866 0.0029116 11.9999 0C14.1382 0.00920165 16.2138 0.722722 17.9058 2.03019C19.5977 3.33766 20.8117 5.16621 21.3599 7.233C22.1351 7.5114 22.8051 8.023 23.2778 8.69751C23.7505 9.37202 24.0027 10.1763 23.9999 11ZM15.9999 11.5C15.9999 11.2033 15.9119 10.9133 15.7471 10.6666C15.5823 10.42 15.348 10.2277 15.0739 10.1142C14.7999 10.0006 14.4983 9.97094 14.2073 10.0288C13.9163 10.0867 13.649 10.2296 13.4393 10.4393C13.2295 10.6491 13.0866 10.9164 13.0287 11.2074C12.9709 11.4983 13.0006 11.7999 13.1141 12.074C13.2276 12.3481 13.4199 12.5824 13.6666 12.7472C13.9132 12.912 14.2033 13 14.4999 13C14.8977 13 15.2793 12.842 15.5606 12.5607C15.8419 12.2794 15.9999 11.8978 15.9999 11.5Z" fill="#374957"/>
</g>
<defs>
<clipPath id="clip0_406_126">
<rect width="24" height="24" fill="white"/>
</clipPath>
</defs>
</svg>
