<svg width="24" height="24" viewBox="0 0 24 24" fill="none" xmlns="http://www.w3.org/2000/svg">
<g clip-path="url(#clip0_406_430)">
<path d="M20.5 5.99964H4.50803L7.95803 2.54965L5.83703 0.42865L0.887026 5.37864C0.324613 5.94123 0.00866699 6.70415 0.00866699 7.49964C0.00866699 8.29513 0.324613 9.05806 0.887026 9.62064L5.83703 14.5706L7.95803 12.4496L4.50803 8.99964H20.5C20.6326 8.99964 20.7598 9.05232 20.8536 9.14609C20.9473 9.23985 21 9.36703 21 9.49964V20.4996C21 20.6322 20.9473 20.7594 20.8536 20.8532C20.7598 20.9469 20.6326 20.9996 20.5 20.9996H2.00003V23.9996H20.5C21.4283 23.9996 22.3185 23.6309 22.9749 22.9745C23.6313 22.3181 24 21.4279 24 20.4996V9.49964C24 8.57138 23.6313 7.68115 22.9749 7.02477C22.3185 6.36839 21.4283 5.99964 20.5 5.99964Z" fill="#374957"/>
</g>
<defs>
<clipPath id="clip0_406_430">
<rect width="24" height="24" fill="white"/>
</clipPath>
</defs>
</svg>
