<svg width="24" height="24" viewBox="0 0 24 24" fill="none" xmlns="http://www.w3.org/2000/svg">
<g clip-path="url(#clip0_406_260)">
<path d="M12 0C9.62663 0 7.30655 0.703788 5.33316 2.02236C3.35977 3.34094 1.8217 5.21509 0.913451 7.4078C0.00519943 9.60051 -0.232441 12.0133 0.230582 14.3411C0.693605 16.6689 1.83649 18.8071 3.51472 20.4853C5.19295 22.1635 7.33115 23.3064 9.65892 23.7694C11.9867 24.2324 14.3995 23.9948 16.5922 23.0866C18.7849 22.1783 20.6591 20.6402 21.9776 18.6668C23.2962 16.6935 24 14.3734 24 12C23.9966 8.81846 22.7312 5.76821 20.4815 3.51852C18.2318 1.26883 15.1815 0.00344108 12 0V0ZM12 21C10.22 21 8.47992 20.4722 6.99987 19.4832C5.51983 18.4943 4.36628 17.0887 3.68509 15.4442C3.0039 13.7996 2.82567 11.99 3.17294 10.2442C3.5202 8.49836 4.37737 6.89471 5.63604 5.63604C6.89472 4.37737 8.49836 3.5202 10.2442 3.17293C11.99 2.82567 13.7996 3.0039 15.4442 3.68508C17.0887 4.36627 18.4943 5.51983 19.4832 6.99987C20.4722 8.47991 21 10.22 21 12C20.9974 14.3861 20.0483 16.6738 18.361 18.361C16.6738 20.0483 14.3861 20.9974 12 21ZM6.73001 10.076L16.5 7.5L13.95 17.27C13.8914 17.4796 13.7659 17.6643 13.5928 17.7961C13.4197 17.9279 13.2083 17.9997 12.9907 18.0005C12.773 18.0013 12.5611 17.931 12.387 17.8005C12.2129 17.6699 12.0862 17.4861 12.026 17.277L10.5 13.5L6.72301 12C6.51388 11.9398 6.33009 11.8131 6.19952 11.639C6.06896 11.4649 5.99875 11.253 5.99954 11.0354C6.00033 10.8177 6.07208 10.6063 6.20391 10.4332C6.33574 10.2601 6.52045 10.1347 6.73001 10.076Z" fill="#374957"/>
</g>
<defs>
<clipPath id="clip0_406_260">
<rect width="24" height="24" fill="white"/>
</clipPath>
</defs>
</svg>
