<svg width="24" height="24" viewBox="0 0 24 24" fill="none" xmlns="http://www.w3.org/2000/svg">
<g clip-path="url(#clip0_406_290)">
<path d="M6.99994 24.0006C8.1045 24.0006 8.99993 23.1052 8.99993 22.0006C8.99993 20.896 8.1045 20.0006 6.99994 20.0006C5.89537 20.0006 4.99994 20.896 4.99994 22.0006C4.99994 23.1052 5.89537 24.0006 6.99994 24.0006Z" fill="#374957"/>
<path d="M17 24.0006C18.1046 24.0006 19 23.1052 19 22.0006C19 20.896 18.1046 20.0006 17 20.0006C15.8954 20.0006 15 20.896 15 22.0006C15 23.1052 15.8954 24.0006 17 24.0006Z" fill="#374957"/>
<path d="M18.112 15H7.217C7.13523 14.9993 7.05665 14.9682 6.99657 14.9128C6.93648 14.8573 6.89921 14.7815 6.892 14.7L6.036 8H11V5H5.653L5.391 2.939C5.29594 2.12943 4.90697 1.38292 4.29793 0.841158C3.68888 0.299394 2.90214 7.30021e-05 2.087 0L0 0V3H2.087C2.16877 3.00068 2.24735 3.03178 2.30743 3.08724C2.36752 3.1427 2.4048 3.21855 2.412 3.3L3.912 15.06C4.00686 15.8699 4.39586 16.6168 5.00514 17.1588C5.61442 17.7008 6.40154 18.0001 7.217 18H20.4L22.05 12H18.938L18.112 15Z" fill="#374957"/>
<path d="M17.0691 10.0428H17.1091C17.7429 10.0412 18.3506 9.7897 18.8001 9.34282L24.0611 4.08182L21.9391 1.96082L17.1191 6.78182L15.2291 4.81382L13.0661 6.89382L15.3661 9.29382C15.5858 9.52572 15.8496 9.71143 16.1421 9.84004C16.4345 9.96866 16.7497 10.0376 17.0691 10.0428Z" fill="#374957"/>
</g>
<defs>
<clipPath id="clip0_406_290">
<rect width="24" height="24" fill="white"/>
</clipPath>
</defs>
</svg>
