<svg width="24" height="24" viewBox="0 0 24 24" fill="none" xmlns="http://www.w3.org/2000/svg">
<g clip-path="url(#clip0_406_6)">
<path d="M21.521 17.1107L20.46 16.0497C19.81 15.3996 19.0383 14.8839 18.1889 14.5321C17.3396 14.1802 16.4293 13.9991 15.51 13.9991C14.5907 13.9991 13.6804 14.1802 12.8311 14.5321C11.9817 14.8839 11.21 15.3996 10.56 16.0497L9.5 17.1107L7.379 14.9897L8.439 13.9287C10.3144 12.0533 12.8579 10.9998 15.51 10.9998C18.1621 10.9998 20.7056 12.0533 22.581 13.9287L23.642 14.9897L21.521 17.1107ZM20.106 18.5237L19.046 17.4637C18.1073 16.5279 16.8359 16.0025 15.5105 16.0025C14.1851 16.0025 12.9137 16.5279 11.975 17.4637L10.914 18.5237L13.035 20.6457L14.096 19.5857C14.2817 19.3998 14.5022 19.2525 14.7449 19.1519C14.9876 19.0513 15.2478 18.9996 15.5105 18.9996C15.7732 18.9996 16.0333 19.0513 16.2761 19.1519C16.5188 19.2525 16.7393 19.3998 16.925 19.5857L17.985 20.6457L20.106 18.5237ZM14.01 22.4997C14.01 22.7963 14.098 23.0863 14.2628 23.333C14.4276 23.5797 14.6619 23.7719 14.936 23.8855C15.2101 23.999 15.5117 24.0287 15.8026 23.9708C16.0936 23.913 16.3609 23.7701 16.5707 23.5603C16.7804 23.3505 16.9233 23.0833 16.9812 22.7923C17.0391 22.5013 17.0093 22.1997 16.8958 21.9256C16.7823 21.6515 16.59 21.4173 16.3434 21.2524C16.0967 21.0876 15.8067 20.9997 15.51 20.9997C15.1122 20.9997 14.7306 21.1577 14.4493 21.439C14.168 21.7203 14.01 22.1018 14.01 22.4997ZM9.5 21.3277L7.172 18.9997H5.8C5.06083 19.0026 4.35072 18.7119 3.82571 18.1916C3.30069 17.6713 3.0037 16.9638 3 16.2247C3.02629 15.5843 3.25525 14.9689 3.65388 14.4671C4.05252 13.9653 4.60021 13.6031 5.218 13.4327L7.381 12.8767L6.048 11.0847C5.38684 10.2033 5.02929 9.1314 5.029 8.02965C5.01594 7.3628 5.13818 6.70022 5.38836 6.08194C5.63854 5.46365 6.01145 4.9025 6.48456 4.43237C6.95768 3.96224 7.52119 3.5929 8.14105 3.34665C8.7609 3.1004 9.42424 2.98236 10.091 2.99965C11.3409 2.99975 12.5486 3.45177 13.4914 4.27235C14.4342 5.09293 15.0485 6.22673 15.221 7.46465L15.291 7.99365C15.365 7.99365 15.436 7.97865 15.51 7.97865C18.3257 7.97482 21.0652 8.89291 23.31 10.5927C22.8172 9.47937 22.083 8.48967 21.1604 7.69526C20.2378 6.90086 19.1501 6.32167 17.976 5.99965C17.4961 4.27638 16.4658 2.75731 15.0422 1.67406C13.6186 0.590804 11.8799 0.00278553 10.091 -0.000349458C9.03121 -0.0139726 7.97937 0.184188 6.99719 0.582508C6.015 0.980828 5.12226 1.57129 4.37132 2.31924C3.62038 3.0672 3.02638 3.95759 2.62416 4.93818C2.22193 5.91877 2.01959 6.96981 2.029 8.02965C2.02761 9.15603 2.26304 10.2701 2.72 11.2997C1.89571 11.8327 1.21603 12.5613 0.741463 13.4205C0.266898 14.2798 0.0121837 15.2431 0 16.2247C0.00450265 17.7592 0.617815 19.2293 1.70527 20.3121C2.79272 21.3948 4.26542 22.0018 5.8 21.9997H10.176L9.5 21.3277Z" fill="#374957"/>
</g>
<defs>
<clipPath id="clip0_406_6">
<rect width="24" height="24" fill="white"/>
</clipPath>
</defs>
</svg>
