<svg width="24" height="24" viewBox="0 0 24 24" fill="none" xmlns="http://www.w3.org/2000/svg">
<g clip-path="url(#clip0_406_366)">
<path d="M4 10H7V13H4V10ZM9 13H12V10H9V13ZM4 18H7V15H4V18ZM9 18H12V15H9V18ZM4 8H7V5H4V8ZM9 8H12V5H9V8ZM24 8.5V24H0V3.5C0 2.57174 0.368749 1.6815 1.02513 1.02513C1.6815 0.368749 2.57174 0 3.5 0L12.5 0C13.4283 0 14.3185 0.368749 14.9749 1.02513C15.6313 1.6815 16 2.57174 16 3.5V5H20.5C21.4283 5 22.3185 5.36875 22.9749 6.02513C23.6313 6.6815 24 7.57174 24 8.5ZM13 3.5C13 3.36739 12.9473 3.24021 12.8536 3.14645C12.7598 3.05268 12.6326 3 12.5 3H3.5C3.36739 3 3.24021 3.05268 3.14645 3.14645C3.05268 3.24021 3 3.36739 3 3.5V21H13V3.5ZM21 8.5C21 8.36739 20.9473 8.24021 20.8536 8.14645C20.7598 8.05268 20.6326 8 20.5 8H16V21H21V8.5ZM17 13H20V10H17V13ZM17 18H20V15H17V18Z" fill="#374957"/>
</g>
<defs>
<clipPath id="clip0_406_366">
<rect width="24" height="24" fill="white"/>
</clipPath>
</defs>
</svg>
