<svg width="24" height="24" viewBox="0 0 24 24" fill="none" xmlns="http://www.w3.org/2000/svg">
<g clip-path="url(#clip0_406_186)">
<path d="M15.9999 24.024L7.99994 19.224V14.538L0.999939 6.038V3.5C0.999939 2.57174 1.36869 1.6815 2.02507 1.02513C2.68144 0.368749 3.57168 0 4.49994 0L19.4999 0C20.4282 0 21.3184 0.368749 21.9748 1.02513C22.6312 1.6815 22.9999 2.57174 22.9999 3.5V6.038L15.9999 14.538V24.024ZM10.9999 17.524L12.9999 18.724V13.462L19.9999 4.962V3.5C19.9999 3.36739 19.9473 3.24022 19.8535 3.14645C19.7597 3.05268 19.6325 3 19.4999 3H4.49994C4.36733 3 4.24015 3.05268 4.14639 3.14645C4.05262 3.24022 3.99994 3.36739 3.99994 3.5V4.962L10.9999 13.462V17.524Z" fill="#374957"/>
</g>
<defs>
<clipPath id="clip0_406_186">
<rect width="24" height="24" fill="white"/>
</clipPath>
</defs>
</svg>
