<svg width="24" height="24" viewBox="0 0 24 24" fill="none" xmlns="http://www.w3.org/2000/svg">
<g clip-path="url(#clip0_406_251)">
<path d="M22.566 7.423C23.812 6.042 24 3.63 24 2H19.576C19.855 1.3701 19.9994 0.688908 20 0L17 0C17 0.530433 16.7893 1.03914 16.4142 1.41421C16.0391 1.78929 15.5304 2 15 2H9C8.46957 2 7.96086 1.78929 7.58579 1.41421C7.21071 1.03914 7 0.530433 7 0L4 0C4.00062 0.688908 4.14503 1.3701 4.424 2H0C0 3.57 0.178 5.648 1.3 6.9L5.031 21.808C5.10421 22.4117 5.39564 22.9678 5.85041 23.3715C6.30517 23.7753 6.89187 23.9988 7.5 24H16.5C17.1081 23.9988 17.6948 23.7753 18.1496 23.3715C18.6044 22.9678 18.8958 22.4117 18.969 21.808L22.566 7.423ZM16.5 19H13.5V14.5C13.5008 13.3285 13.9603 12.2039 14.78 11.367C14.9895 11.6493 15.2914 11.849 15.6331 11.9314C15.9749 12.0138 16.3347 11.9735 16.6497 11.8176C16.9648 11.6618 17.2151 11.4002 17.357 11.0786C17.4989 10.757 17.5233 10.3958 17.426 10.058C17.6158 10.026 17.8076 10.0066 18 10H18.829L16.577 19.008C16.551 19.007 16.526 19 16.5 19ZM7.423 19.008L5.171 10H6C6.1924 10.0066 6.38416 10.026 6.574 10.058C6.47671 10.3958 6.50114 10.757 6.64302 11.0786C6.78489 11.4002 7.03521 11.6618 7.35028 11.8176C7.66534 11.9735 8.02514 12.0138 8.36687 11.9314C8.70859 11.849 9.01054 11.6493 9.22 11.367C10.0397 12.2039 10.4992 13.3285 10.5 14.5V19H7.5C7.474 19 7.449 19.007 7.423 19.008ZM15 5C15.2988 4.99705 15.5967 4.96692 15.89 4.91C16.7416 5.51941 17.524 6.22026 18.223 7H18C16.8339 7.00112 15.6841 7.27466 14.6424 7.79881C13.6007 8.32296 12.6959 9.08323 12 10.019C11.3041 9.08323 10.3993 8.32296 9.3576 7.79881C8.31589 7.27466 7.16614 7.00112 6 7H5.777C6.47604 6.22026 7.25837 5.51941 8.11 4.91C8.40332 4.96692 8.70122 4.99705 9 5H15Z" fill="#374957"/>
</g>
<defs>
<clipPath id="clip0_406_251">
<rect width="24" height="24" fill="white"/>
</clipPath>
</defs>
</svg>
