<svg width="24" height="24" viewBox="0 0 24 24" fill="none" xmlns="http://www.w3.org/2000/svg">
<g clip-path="url(#clip0_406_391)">
<path d="M22.3302 9.53302L12.8002 0.00500488L10.6802 2.12601L20.2092 11.654C20.3008 11.7459 20.3522 11.8703 20.3522 12C20.3522 12.1297 20.3008 12.2542 20.2092 12.346L10.6802 21.874L12.8002 24L22.3292 14.472C22.9841 13.8171 23.3521 12.9289 23.3523 12.0027C23.3525 11.0765 22.9848 10.1882 22.3302 9.53302Z" fill="#374957"/>
<path d="M13.8002 10.939L2.8602 0.00500488L0.739197 2.12601L10.6132 12L0.739197 21.874L2.8602 24L13.8002 13.061C13.9396 12.9217 14.0502 12.7563 14.1256 12.5743C14.201 12.3922 14.2399 12.1971 14.2399 12C14.2399 11.803 14.201 11.6078 14.1256 11.4258C14.0502 11.2437 13.9396 11.0783 13.8002 10.939Z" fill="#374957"/>
</g>
<defs>
<clipPath id="clip0_406_391">
<rect width="24" height="24" fill="white"/>
</clipPath>
</defs>
</svg>
