<svg width="24" height="24" viewBox="0 0 24 24" fill="none" xmlns="http://www.w3.org/2000/svg">
<g clip-path="url(#clip0_406_97)">
<path d="M14.3269 14.891C12.0265 13.8204 10.1814 11.9672 9.12095 9.66204L12.0829 6.70004L5.44195 0.0580435L1.79995 3.70004C-5.59005 11.608 12.3829 29.589 20.2999 22.2L23.9459 18.555L17.2999 11.916L14.3269 14.891ZM18.1739 20.083C13.4249 24.417 -0.558051 11.343 3.91795 5.82404L5.44195 4.30004L7.84195 6.70004L5.57295 8.96704L5.94195 9.88604C6.64226 11.7579 7.73696 13.4572 9.15179 14.8688C10.5666 16.2803 12.2685 17.3711 14.1419 18.067L15.0499 18.414L17.2999 16.158L19.6999 18.558L18.1739 20.083ZM21.1369 4.98304L23.9679 7.81304L21.8469 9.93604L19.0159 7.10504L16.1859 9.93604L14.0639 7.81404L16.8999 4.98404L14.0639 2.15304L16.1859 0.0320435L19.0159 2.86304L21.8469 0.0320435L23.9679 2.15304L21.1369 4.98304Z" fill="#374957"/>
</g>
<defs>
<clipPath id="clip0_406_97">
<rect width="24" height="24" fill="white"/>
</clipPath>
</defs>
</svg>
