<svg width="24" height="24" viewBox="0 0 24 24" fill="none" xmlns="http://www.w3.org/2000/svg">
<g clip-path="url(#clip0_406_419)">
<path d="M21 24H3V20.591C3.04357 18.9629 3.41965 17.3609 4.10512 15.8835C4.79059 14.4062 5.77097 13.0846 6.986 12C5.77065 10.9157 4.79005 9.59417 4.10455 8.11672C3.41905 6.63927 3.04316 5.03716 3 3.409C3.00079 2.50512 3.36021 1.63849 3.99935 0.99935C4.63849 0.360211 5.50512 0.000794387 6.409 0L17.591 0C18.4948 0.00105862 19.3613 0.36056 20.0004 0.999642C20.6394 1.63872 20.9989 2.5052 21 3.409C20.9571 5.03585 20.5827 6.63684 19.8997 8.11402C19.2168 9.59119 18.2396 10.9135 17.028 12C18.2396 13.0865 19.2168 14.4088 19.8997 15.886C20.5827 17.3632 20.9571 18.9641 21 20.591V24ZM6 21H18V20.591C18 17.207 15.729 14.691 13.823 13.174L12.348 12L13.823 10.826C15.729 9.311 18 6.793 18 3.409C17.9997 3.30061 17.9566 3.19673 17.8799 3.12009C17.8033 3.04344 17.6994 3.00026 17.591 3H6.409C6.30061 3.00026 6.19673 3.04344 6.12009 3.12009C6.04344 3.19673 6.00026 3.30061 6 3.409C6 6.795 8.281 9.309 10.2 10.823L11.682 12L10.2 13.176C8.281 14.691 6 17.207 6 20.591V21Z" fill="#374957"/>
</g>
<defs>
<clipPath id="clip0_406_419">
<rect width="24" height="24" fill="white"/>
</clipPath>
</defs>
</svg>
