<svg width="24" height="24" viewBox="0 0 24 24" fill="none" xmlns="http://www.w3.org/2000/svg">
<g clip-path="url(#clip0_406_345)">
<path d="M21 3H18V2.454C17.9992 1.8034 17.7404 1.17968 17.2804 0.719637C16.8203 0.259595 16.1966 0.000793897 15.546 0L8.455 0C7.80423 0.000529243 7.18025 0.259213 6.71999 0.719284C6.25973 1.17935 6.00079 1.80323 6 2.454V3H3C2.20435 3 1.44129 3.31607 0.87868 3.87868C0.31607 4.44129 0 5.20435 0 6L0 24H24V6C24 5.20435 23.6839 4.44129 23.1213 3.87868C22.5587 3.31607 21.7956 3 21 3ZM21 6V11H3V6H21ZM3 21V14H10V16H14V14H21V21H3Z" fill="#374957"/>
</g>
<defs>
<clipPath id="clip0_406_345">
<rect width="24" height="24" fill="white"/>
</clipPath>
</defs>
</svg>
