<svg width="24" height="24" viewBox="0 0 24 24" fill="none" xmlns="http://www.w3.org/2000/svg">
<g clip-path="url(#clip0_406_265)">
<path d="M23.9999 24H12.0169C9.67588 23.9987 7.38642 23.3127 5.43044 22.0265C3.47446 20.7403 1.9374 18.9101 1.00856 16.7613C0.0797304 14.6125 -0.200307 12.2389 0.202943 9.93291C0.606192 7.62693 1.67512 5.48926 3.27806 3.78318C4.88101 2.0771 6.94797 0.877123 9.22435 0.331051C11.5007 -0.215022 13.8871 -0.0833424 16.0896 0.70987C18.2921 1.50308 20.2145 2.92319 21.62 4.79527C23.0255 6.66735 23.8528 8.90966 23.9999 11.246V11.34V24ZM12.0169 3C10.835 3 9.66463 3.23279 8.5727 3.68508C7.48077 4.13738 6.48862 4.80031 5.65289 5.63604C4.81717 6.47177 4.15423 7.46392 3.70194 8.55585C3.24965 9.64778 3.01685 10.8181 3.01685 12C3.01685 13.1819 3.24965 14.3522 3.70194 15.4442C4.15423 16.5361 4.81717 17.5282 5.65289 18.364C6.48862 19.1997 7.48077 19.8626 8.5727 20.3149C9.66463 20.7672 10.835 21 12.0169 21H20.9999V11.389C20.8415 9.11371 19.8266 6.98302 18.1596 5.42631C16.4927 3.8696 14.2976 3.00259 12.0169 3Z" fill="#374957"/>
<path d="M14.0001 8.00012H8.00012V11.0001H14.0001V8.00012Z" fill="#374957"/>
<path d="M18.0001 14.0001H8.00012V17.0001H18.0001V14.0001Z" fill="#374957"/>
</g>
<defs>
<clipPath id="clip0_406_265">
<rect width="24" height="24" fill="white"/>
</clipPath>
</defs>
</svg>
