<svg width="24" height="24" viewBox="0 0 24 24" fill="none" xmlns="http://www.w3.org/2000/svg">
<g clip-path="url(#clip0_406_140)">
<path d="M17.0002 12.0003V7.00029H15.0002V1.57329C15.0003 1.30537 14.932 1.04186 14.8016 0.807795C14.6713 0.573733 14.4832 0.3769 14.2553 0.236004C14.0274 0.0951079 13.7673 0.0148315 13.4997 0.00280461C13.232 -0.00922226 12.9657 0.0474001 12.7262 0.16729L10.2642 1.40029C9.88345 1.58849 9.56318 1.87972 9.33973 2.24087C9.11629 2.60202 8.99864 3.01861 9.00015 3.44329V7.00029H7.00015V12.0003H5.00015V24.0003H19.0002V12.0003H17.0002ZM10.0002 10.0003H14.0002V12.0003H10.0002V10.0003ZM16.0002 21.0003H8.00015V15.0003H16.0002V21.0003Z" fill="#374957"/>
</g>
<defs>
<clipPath id="clip0_406_140">
<rect width="24" height="24" fill="white"/>
</clipPath>
</defs>
</svg>
