<svg width="24" height="24" viewBox="0 0 24 24" fill="none" xmlns="http://www.w3.org/2000/svg">
<g clip-path="url(#clip0_406_446)">
<path d="M12.0001 0C10.1044 0.000203007 8.23583 0.449489 6.54732 1.31105C4.8588 2.17262 3.39842 3.42195 2.2858 4.9567C1.17318 6.49145 0.439978 8.26795 0.146264 10.1407C-0.14745 12.0134 0.00667709 13.9291 0.596019 15.7308C1.18536 17.5324 2.19315 19.1689 3.53683 20.506C4.88051 21.8431 6.52185 22.8429 8.32639 23.4234C10.1309 24.004 12.0473 24.1487 13.9186 23.8458C15.7899 23.543 17.5628 22.8011 19.0921 21.681L17.3171 19.262C15.6849 20.4571 13.6976 21.0675 11.6759 20.9947C9.65426 20.9218 7.7161 20.17 6.17415 18.8604C4.63221 17.5509 3.57641 15.7601 3.17712 13.7769C2.77782 11.7937 3.05831 9.73386 3.97334 7.92965C4.88836 6.12544 6.38455 4.68213 8.22049 3.83257C10.0564 2.98302 12.1251 2.77678 14.0926 3.24713C16.0601 3.71749 17.8118 4.837 19.0651 6.42504C20.3183 8.01307 20.9999 9.97702 21.0001 12V13.5C21.0001 13.8978 20.842 14.2794 20.5607 14.5607C20.2794 14.842 19.8979 15 19.5001 15C19.1022 15 18.7207 14.842 18.4394 14.5607C18.1581 14.2794 18.0001 13.8978 18.0001 13.5V12C18.0054 10.615 17.5332 9.27044 16.6631 8.19286C15.7929 7.11529 14.578 6.37053 13.2229 6.08405C11.8678 5.79757 10.4554 5.98686 9.2236 6.62005C7.99178 7.25324 7.01582 8.29163 6.46013 9.56029C5.90443 10.829 5.80296 12.2504 6.17281 13.5851C6.54266 14.9199 7.36122 16.0864 8.49061 16.8881C9.61999 17.6898 10.9912 18.0779 12.3732 17.9868C13.7553 17.8957 15.0637 17.331 16.0781 16.388C16.6685 17.0968 17.4634 17.606 18.3541 17.8461C19.2447 18.0862 20.1878 18.0455 21.0545 17.7295C21.9212 17.4136 22.6692 16.8378 23.1964 16.0808C23.7236 15.3238 24.0043 14.4225 24.0001 13.5V12C23.9966 8.81846 22.7312 5.76821 20.4815 3.51852C18.2318 1.26883 15.1816 0.00344108 12.0001 0V0ZM12.0001 15C11.4067 15 10.8267 14.8241 10.3333 14.4944C9.84 14.1648 9.45548 13.6962 9.22842 13.1481C9.00136 12.5999 8.94195 11.9967 9.0577 11.4147C9.17346 10.8328 9.45918 10.2982 9.87874 9.87868C10.2983 9.45912 10.8328 9.1734 11.4148 9.05764C11.9967 8.94189 12.5999 9.0013 13.1481 9.22836C13.6963 9.45542 14.1648 9.83994 14.4945 10.3333C14.8241 10.8266 15.0001 11.4067 15.0001 12C15.0001 12.7956 14.684 13.5587 14.1214 14.1213C13.5588 14.6839 12.7957 15 12.0001 15Z" fill="#374957"/>
</g>
<defs>
<clipPath id="clip0_406_446">
<rect width="24" height="24" fill="white"/>
</clipPath>
</defs>
</svg>
