<svg width="24" height="24" viewBox="0 0 24 24" fill="none" xmlns="http://www.w3.org/2000/svg">
<g clip-path="url(#clip0_406_7)">
<path d="M10 0.000902053H13V9.5009C13 10.4292 12.6313 11.3194 11.9749 11.9758C11.3185 12.6322 10.4283 13.0009 9.5 13.0009H8V24.0009H5V13.0009H3.5C2.57174 13.0009 1.6815 12.6322 1.02513 11.9758C0.368749 11.3194 0 10.4292 0 9.5009L0 0.000902053H3V9.5009C3 9.63351 3.05268 9.76069 3.14645 9.85446C3.24021 9.94823 3.36739 10.0009 3.5 10.0009H5V0.000902053H8V10.0009H9.5C9.63261 10.0009 9.75979 9.94823 9.85355 9.85446C9.94732 9.76069 10 9.63351 10 9.5009V0.000902053ZM24 9.7679C24 14.6289 20.328 18.9679 19 20.3799V24.0009H16V2.5009C15.9998 1.97456 16.1658 1.46159 16.4742 1.03509C16.7827 0.608587 17.2179 0.290321 17.7178 0.125639C18.2177 -0.0390434 18.7569 -0.0417392 19.2584 0.117936C19.76 0.27761 20.1983 0.591509 20.511 1.0149C22.1 3.1499 24 6.4009 24 9.7679ZM19 15.5219C20.2596 13.8847 20.9425 11.877 20.9425 9.8114C20.9425 7.74577 20.2596 5.73808 19 4.1009V15.5219Z" fill="#374957"/>
</g>
<defs>
<clipPath id="clip0_406_7">
<rect width="24" height="24" fill="white"/>
</clipPath>
</defs>
</svg>
