<svg width="24" height="24" viewBox="0 0 24 24" fill="none" xmlns="http://www.w3.org/2000/svg">
<g clip-path="url(#clip0_406_196)">
<path d="M18.5 4.99936H17V4.49936C17 3.5711 16.6313 2.68086 15.9749 2.02449C15.3185 1.36811 14.4283 0.999359 13.5 0.999359H3.5C2.57174 0.999359 1.6815 1.36811 1.02513 2.02449C0.368749 2.68086 0 3.5711 0 4.49936L0 19.9994H3.058C3.02137 20.1636 3.00193 20.3311 3 20.4994C3 21.1624 3.26339 21.7983 3.73223 22.2671C4.20107 22.736 4.83696 22.9994 5.5 22.9994C6.16304 22.9994 6.79893 22.736 7.26777 22.2671C7.73661 21.7983 8 21.1624 8 20.4994C7.99807 20.3311 7.97863 20.1636 7.942 19.9994H16.058C16.0214 20.1636 16.0019 20.3311 16 20.4994C16 21.1624 16.2634 21.7983 16.7322 22.2671C17.2011 22.736 17.837 22.9994 18.5 22.9994C19.163 22.9994 19.7989 22.736 20.2678 22.2671C20.7366 21.7983 21 21.1624 21 20.4994C20.9981 20.3311 20.9786 20.1636 20.942 19.9994H24V10.4994C23.9981 9.04124 23.4181 7.64337 22.387 6.61232C21.356 5.58127 19.9581 5.00121 18.5 4.99936ZM14 16.9994H3V4.49936C3 4.36675 3.05268 4.23957 3.14645 4.14581C3.24021 4.05204 3.36739 3.99936 3.5 3.99936H13.5C13.6326 3.99936 13.7598 4.05204 13.8536 4.14581C13.9473 4.23957 14 4.36675 14 4.49936V16.9994ZM18.5 7.99936C19.163 7.99936 19.7989 8.26275 20.2678 8.73159C20.7366 9.20043 21 9.83632 21 10.4994V12.9994H17V7.99936H18.5Z" fill="#374957"/>
</g>
<defs>
<clipPath id="clip0_406_196">
<rect width="24" height="24" fill="white"/>
</clipPath>
</defs>
</svg>
