<svg width="24" height="24" viewBox="0 0 24 24" fill="none" xmlns="http://www.w3.org/2000/svg">
<g clip-path="url(#clip0_406_340)">
<path d="M9.123 22.0006H5.984L2.11 12.3146C2.07285 12.2219 2.00881 12.1425 1.92611 12.0865C1.84341 12.0306 1.74585 12.0006 1.646 12.0006H0V9.00061H1.646C2.34669 8.99769 3.03199 9.20605 3.61247 9.5985C4.19295 9.99096 4.64164 10.5493 4.9 11.2006L7.36 17.3616L11.139 4.51261C11.3552 3.78852 11.7988 3.15328 12.4041 2.70088C13.0095 2.24847 13.7443 2.00294 14.5 2.00061H24V5.00061H14.5C14.3921 5.00076 14.2872 5.03581 14.2008 5.10051C14.1145 5.16521 14.0514 5.2561 14.021 5.35961L9.123 22.0006ZM20.761 17.0006L24 12.0006H20.478L19 14.2816L17.522 12.0006H14L17.239 17.0006L14 22.0006H17.522L19 19.7196L20.478 22.0006H24L20.761 17.0006Z" fill="#374957"/>
</g>
<defs>
<clipPath id="clip0_406_340">
<rect width="24" height="24" fill="white"/>
</clipPath>
</defs>
</svg>
