<svg width="24" height="24" viewBox="0 0 24 24" fill="none" xmlns="http://www.w3.org/2000/svg">
<g clip-path="url(#clip0_406_154)">
<path d="M11.9371 7.44238C12.4635 7.44271 12.9857 7.5351 13.4801 7.71538L13.9511 7.88638C13.6225 7.26589 13.1528 6.73118 12.5799 6.32527C12.007 5.91935 11.3468 5.65357 10.6524 5.54928C9.95803 5.44499 9.24888 5.50512 8.58199 5.72482C7.91509 5.94452 7.30907 6.31767 6.81265 6.81425C6.31624 7.31083 5.94329 7.91697 5.72381 8.58394C5.50433 9.25091 5.44443 9.96008 5.54895 10.6544C5.65347 11.3487 5.91947 12.0088 6.32557 12.5816C6.73167 13.1544 7.26654 13.6239 7.88714 13.9524L7.71714 13.4834C7.47079 12.8041 7.39142 12.0756 7.48574 11.3593C7.58005 10.6429 7.84528 9.95979 8.25905 9.36748C8.67282 8.77516 9.22299 8.29106 9.86313 7.95601C10.5033 7.62096 11.2146 7.44479 11.9371 7.44238Z" fill="#374957"/>
<path d="M3 10C3.01266 8.2422 3.68621 6.5535 4.88679 5.26951C6.08738 3.98552 7.7271 3.20024 9.4801 3.06973C11.2331 2.93921 12.971 3.47302 14.3485 4.56507C15.726 5.65712 16.6422 7.22746 16.915 8.964L20 10.084C20 10.056 20 10.028 20 10C20 8.02219 19.4135 6.08879 18.3147 4.4443C17.2159 2.79981 15.6541 1.51809 13.8268 0.761209C11.9996 0.00433284 9.98891 -0.193701 8.0491 0.192152C6.10929 0.578004 4.32746 1.53041 2.92894 2.92894C1.53041 4.32746 0.578004 6.10929 0.192152 8.0491C-0.193701 9.98891 0.00433284 11.9996 0.761209 13.8268C1.51809 15.6541 2.79981 17.2159 4.4443 18.3147C6.08879 19.4135 8.02219 20 10 20C10.029 20 10.056 20 10.085 20L8.965 16.919C7.30696 16.6711 5.79294 15.8364 4.69826 14.5667C3.60359 13.2969 3.00098 11.6765 3 10Z" fill="#374957"/>
<path d="M23.9998 13.6688L12.7998 9.59975C12.3533 9.43868 11.8701 9.40805 11.4069 9.51145C10.9436 9.61485 10.5193 9.848 10.1837 10.1836C9.84804 10.5193 9.61488 10.9436 9.51148 11.4068C9.40808 11.8701 9.43871 12.3532 9.59978 12.7998L13.6688 23.9998L17.7738 19.8998L21.8788 23.9998L23.9998 21.8788L19.8998 17.7738L23.9998 13.6688ZM12.7818 12.7818L18.5468 14.8818L14.8778 18.5508L12.7818 12.7818Z" fill="#374957"/>
</g>
<defs>
<clipPath id="clip0_406_154">
<rect width="24" height="24" fill="white"/>
</clipPath>
</defs>
</svg>
