<svg width="24" height="24" viewBox="0 0 24 24" fill="none" xmlns="http://www.w3.org/2000/svg">
<g clip-path="url(#clip0_406_496)">
<path d="M22 15.5C21.9976 14.6606 21.6931 13.8502 21.1423 13.2168C20.5914 12.5835 19.8309 12.1697 19 12.051V10.5C18.9977 9.71644 18.7326 8.9563 18.2471 8.3413C17.7615 7.7263 17.0837 7.29202 16.322 7.108L15.661 3.808C15.6165 3.58049 15.4943 3.3755 15.3154 3.22812C15.1364 3.08073 14.9118 3.00009 14.68 3H14.32C14.0893 2.99972 13.8656 3.07922 13.6868 3.22502C13.508 3.37082 13.3851 3.57396 13.339 3.8L12.7 7H10.75L11.5 4C11.5 3.73478 11.3946 3.48043 11.2071 3.29289C11.0196 3.10536 10.7652 3 10.5 3H8.5C8.23478 3 7.98043 3.10536 7.79289 3.29289C7.60536 3.48043 7.5 3.73478 7.5 4L8.256 7.025C7.37438 7.08495 6.54824 7.47682 5.94405 8.12165C5.33986 8.76648 5.00252 9.61635 5 10.5V12.051C4.16905 12.1697 3.4086 12.5835 2.85772 13.2168C2.30685 13.8502 2.00238 14.6606 2 15.5V21H0V24H24V21H22V15.5ZM8.5 10H15.5C15.6326 10 15.7598 10.0527 15.8536 10.1464C15.9473 10.2402 16 10.3674 16 10.5V12H8V10.5C8 10.3674 8.05268 10.2402 8.14645 10.1464C8.24021 10.0527 8.36739 10 8.5 10ZM5 17.666C5.41148 17.8817 5.86844 17.9962 6.333 18C7.03444 18.0207 7.71751 17.7739 8.24375 17.3097C8.77 16.8455 9.10005 16.1985 9.167 15.5C9.2369 16.1972 9.56767 16.8422 10.093 17.3058C10.6184 17.7694 11.2995 18.0174 12 18C12.7013 18.0207 13.3843 17.7739 13.9104 17.3096C14.4365 16.8454 14.7663 16.1985 14.833 15.5C14.9031 16.1973 15.2341 16.8423 15.7596 17.3059C16.2852 17.7695 16.9664 18.0174 17.667 18C18.1316 17.9962 18.5885 17.8817 19 17.666V21H5V17.666Z" fill="#374957"/>
<path d="M9.5 3C10.3284 3 11 2.32843 11 1.5C11 0.671573 10.3284 0 9.5 0C8.67157 0 8 0.671573 8 1.5C8 2.32843 8.67157 3 9.5 3Z" fill="#374957"/>
<path d="M14.5001 3C15.3285 3 16.0001 2.32843 16.0001 1.5C16.0001 0.671573 15.3285 0 14.5001 0C13.6716 0 13.0001 0.671573 13.0001 1.5C13.0001 2.32843 13.6716 3 14.5001 3Z" fill="#374957"/>
</g>
<defs>
<clipPath id="clip0_406_496">
<rect width="24" height="24" fill="white"/>
</clipPath>
</defs>
</svg>
