<svg width="24" height="24" viewBox="0 0 24 24" fill="none" xmlns="http://www.w3.org/2000/svg">
<g clip-path="url(#clip0_406_465)">
<path d="M0.415039 12.0515C0.419993 9.25789 1.39946 6.55357 3.18457 4.40473C4.96969 2.25589 7.44859 0.797194 10.1939 0.280122C12.9392 -0.236951 15.7789 0.220002 18.2235 1.5722C20.668 2.9244 22.5641 5.08711 23.585 7.68749L20.791 8.77948C20.0282 6.82502 18.6064 5.19849 16.7715 4.18105C14.9366 3.16361 12.804 2.8192 10.7421 3.20734C8.68022 3.59549 6.81875 4.69179 5.47942 6.30677C4.1401 7.92175 3.40708 9.9539 3.40708 12.052C3.40708 14.1501 4.1401 16.1822 5.47942 17.7972C6.81875 19.4122 8.68022 20.5085 10.7421 20.8966C12.804 21.2848 14.9366 20.9403 16.7715 19.9229C18.6064 18.9055 20.0282 17.2789 20.791 15.3245L23.585 16.4165C22.5641 19.0169 20.6679 21.1797 18.2232 22.5319C15.7786 23.8841 12.9388 24.3409 10.1934 23.8237C7.44803 23.3065 4.96913 21.8477 3.1841 19.6987C1.39906 17.5496 0.419761 14.8452 0.415039 12.0515Z" fill="#374957"/>
</g>
<defs>
<clipPath id="clip0_406_465">
<rect width="24" height="24" fill="white"/>
</clipPath>
</defs>
</svg>
