<svg width="24" height="24" viewBox="0 0 24 24" fill="none" xmlns="http://www.w3.org/2000/svg">
<g clip-path="url(#clip0_406_333)">
<path d="M17.9001 17C16.6945 16.9991 15.5158 17.3558 14.5131 18.025L11.1801 20.244C10.44 20.7381 9.56989 21.0012 8.68007 21H3.62607C3.50308 20.9999 3.38289 20.9633 3.28069 20.8949C3.17849 20.8265 3.09887 20.7293 3.05188 20.6156C3.0049 20.502 2.99266 20.3769 3.01673 20.2563C3.04079 20.1357 3.10006 20.0249 3.18707 19.938L4.28007 18.844L18.3001 15.1C19.0722 14.8945 19.7552 14.4402 20.2432 13.8076C20.7313 13.1749 20.9973 12.399 21.0001 11.6V3.634C20.999 2.67053 20.6158 1.74682 19.9345 1.06554C19.2532 0.384266 18.3295 0.00105876 17.3661 0L9.40007 0C8.60102 0.0027911 7.82516 0.268789 7.19249 0.756849C6.55982 1.24491 6.10559 1.92784 5.90007 2.7L2.15307 16.728L1.06507 17.817C0.558088 18.3234 0.212737 18.9687 0.0727282 19.6715C-0.0672802 20.3742 0.00434858 21.1027 0.278548 21.7647C0.552747 22.4267 1.01719 22.9924 1.61308 23.3903C2.20898 23.7882 2.90953 24.0004 3.62607 24H8.68407C10.1649 24.0013 11.6128 23.5628 12.8441 22.74L16.1711 20.522C16.6387 20.2102 17.1823 20.0311 17.7437 20.0039C18.3051 19.9767 18.8634 20.1024 19.359 20.3675C19.8547 20.6326 20.2691 21.0272 20.5581 21.5093C20.8471 21.9914 20.9998 22.5429 21.0001 23.105V24H24.0001V23.105C23.9982 21.4873 23.3551 19.9363 22.2117 18.7919C21.0682 17.6476 19.5178 17.0032 17.9001 17ZM8.79407 3.47C8.81885 3.3847 8.86146 3.30562 8.91907 3.238L13.5451 7.593L17.8701 3.268C17.9515 3.37289 17.9971 3.50121 18.0001 3.634V11.6C17.9986 11.6591 17.9888 11.7176 17.9711 11.774L13.5451 7.593L5.64507 15.376L5.61807 15.383L8.79407 3.47Z" fill="#374957"/>
</g>
<defs>
<clipPath id="clip0_406_333">
<rect width="24" height="24" fill="white"/>
</clipPath>
</defs>
</svg>
