<svg width="24" height="24" viewBox="0 0 24 24" fill="none" xmlns="http://www.w3.org/2000/svg">
<g clip-path="url(#clip0_406_25)">
<path d="M20.293 15.505L23.055 16.675C22.6531 17.623 22.1305 18.515 21.5 19.329L19.127 17.494C19.5993 16.8837 19.9912 16.2153 20.293 15.505ZM15.507 20.292L16.677 23.054C17.6248 22.6524 18.5169 22.13 19.331 21.5L17.5 19.127C16.889 19.6001 16.219 19.9917 15.507 20.292ZM3.669 15.412L0.894 16.55C1.28825 17.5131 1.80627 18.4207 2.435 19.25L4.825 17.436C4.35307 16.8146 3.96444 16.1342 3.669 15.412ZM4.613 21.457C5.43194 22.0976 6.33042 22.6293 7.286 23.039L8.466 20.28C7.75091 19.9731 7.07863 19.5748 6.466 19.095L4.613 21.457ZM4.621 2.537L6.465 4.9C7.07989 4.42061 7.75456 4.02327 8.472 3.718L7.294 0.958C6.33833 1.36625 5.43979 1.89703 4.621 2.537ZM4.829 6.561L2.44 4.746C1.81232 5.57362 1.29466 6.47918 0.9 7.44L3.671 8.581C3.96738 7.86011 4.35668 7.18103 4.829 6.561ZM3 12C3.00019 11.6081 3.02557 11.2166 3.076 10.828L0.1 10.445C0.0335166 10.9607 0.000114935 11.4801 0 12C0.000112245 12.5169 0.0335147 13.0333 0.1 13.546L3.075 13.163C3.02536 12.7773 3.00031 12.3889 3 12ZM12 21C11.5701 20.9999 11.1407 20.9695 10.715 20.909L10.291 23.879C11.4246 24.0403 12.5754 24.0403 13.709 23.879L13.285 20.909C12.8593 20.9694 12.4299 20.9998 12 21ZM12 0C11.4282 0.000131643 10.8571 0.0405652 10.291 0.121L10.715 3.091C11.1407 3.03054 11.5701 3.00013 12 3C13.2903 3.00144 14.5652 3.27998 15.7385 3.81679C16.9118 4.3536 17.9561 5.13615 18.8008 6.11149C19.6455 7.08684 20.2709 8.23223 20.6346 9.47018C20.9983 10.7081 21.0919 12.0098 20.909 13.287L23.88 13.708C23.96 13.1422 24.0001 12.5714 24 12C23.9966 8.81846 22.7312 5.76821 20.4815 3.51852C18.2318 1.26883 15.1815 0.00344108 12 0V0ZM10.5 6V10.69C10.1656 11.0699 9.98844 11.5629 10.0045 12.0688C10.0206 12.5747 10.2288 13.0554 10.5867 13.4133C10.9446 13.7712 11.4253 13.9794 11.9312 13.9955C12.4371 14.0116 12.9301 13.8344 13.31 13.5H17V10.5H13.5V6H10.5Z" fill="#374957"/>
</g>
<defs>
<clipPath id="clip0_406_25">
<rect width="24" height="24" fill="white"/>
</clipPath>
</defs>
</svg>
