<svg width="24" height="24" viewBox="0 0 24 24" fill="none" xmlns="http://www.w3.org/2000/svg">
<g clip-path="url(#clip0_406_190)">
<path d="M5.9468 5.72C6.35273 5.72023 6.68199 5.39136 6.68222 4.98542C6.68245 4.57948 6.35358 4.25023 5.94764 4.25C5.94736 4.25 5.94708 4.25 5.9468 4.25H5.23181V5.723L5.9468 5.72Z" fill="#374957"/>
<path d="M16.3358 7.6933C17.1908 7.6783 17.5728 6.82728 17.5728 5.99328C17.5728 5.59329 17.4818 4.28027 16.3098 4.28027H15.6098L15.6318 7.70028C15.8938 7.70033 16.1718 7.70033 16.3358 7.6933Z" fill="#374957"/>
<path d="M21 0H3C1.34316 0 0 1.34316 0 3V24H17.471L24 17.471V3C24 1.34316 22.6568 0 21 0ZM14.359 3.03502V3.027H16.31C17.81 3.027 18.823 4.218 18.823 5.99002C18.823 7.46859 17.9103 8.78091 16.4383 8.93587C16.4119 8.93864 16.3854 8.94103 16.359 8.94305C15.98 8.95003 14.3709 8.95303 14.3709 8.95303L14.3599 3.03502H14.359ZM11.223 6.624C10.471 6.34702 9.79298 6.04402 9.79298 6.04402C9.23602 5.72555 8.92852 5.10061 9.01598 4.46503C9.12178 3.80147 9.60661 3.26147 10.255 3.08503C11.1112 2.86992 12.0187 3.0683 12.707 3.62105L13.186 4.02103L12.386 4.97705L11.91 4.57706C11.5456 4.29094 11.0731 4.18106 10.62 4.27706C10.4367 4.31245 10.2934 4.4558 10.2579 4.63908C10.2382 4.75598 10.2891 4.87355 10.3879 4.93908C10.4029 4.93908 11.0019 5.20209 11.6599 5.44509C12.5783 5.65294 13.1881 6.52514 13.0679 7.45908C12.8523 8.40145 11.9936 9.05475 11.0279 9.01106C10.22 9.02166 9.44508 8.69086 8.89392 8.10005L8.47392 7.63706L9.39994 6.80006L9.81994 7.26305C10.1341 7.5877 10.5682 7.76855 11.0199 7.76306C11.378 7.79658 11.7126 7.581 11.8299 7.24106C11.9 6.9 11.382 6.68302 11.223 6.624ZM3.98002 3H5.94703C7.0433 3 7.93205 3.8887 7.93205 4.98502C7.93205 6.08133 7.04334 6.97003 5.94703 6.97003H5.23003V9.07003H3.98002V3ZM21 15H15V21H3V11H21V15Z" fill="#374957"/>
</g>
<defs>
<clipPath id="clip0_406_190">
<rect width="24" height="24" fill="white"/>
</clipPath>
</defs>
</svg>
