<svg width="24" height="24" viewBox="0 0 24 24" fill="none" xmlns="http://www.w3.org/2000/svg">
<g clip-path="url(#clip0_406_77)">
<path d="M24 3.5C24 2.57174 23.6313 1.6815 22.9749 1.02513C22.3185 0.368749 21.4283 0 20.5 0H8.5C7.57174 0 6.6815 0.368749 6.02513 1.02513C5.36875 1.6815 5 2.57174 5 3.5V11H3.5C2.57174 11 1.6815 11.3687 1.02513 12.0251C0.368749 12.6815 0 13.5717 0 14.5L0 24H13V19H24V3.5ZM10 21H3V14.5C3 14.3674 3.05268 14.2402 3.14645 14.1464C3.24021 14.0527 3.36739 14 3.5 14H5V19H10V21ZM21 16H13V14.5C12.996 14.1026 12.9236 13.7088 12.786 13.336L16 10.121V12H19V5H12V8H13.879L10.664 11.214C10.2912 11.0764 9.89741 11.004 9.5 11H8V3.5C8 3.36739 8.05268 3.24021 8.14645 3.14645C8.24021 3.05268 8.36739 3 8.5 3H20.5C20.6326 3 20.7598 3.05268 20.8536 3.14645C20.9473 3.24021 21 3.36739 21 3.5V16Z" fill="#374957"/>
</g>
<defs>
<clipPath id="clip0_406_77">
<rect width="24" height="24" fill="white"/>
</clipPath>
</defs>
</svg>
