<svg width="24" height="24" viewBox="0 0 24 24" fill="none" xmlns="http://www.w3.org/2000/svg">
<g clip-path="url(#clip0_406_414)">
<path d="M15.4462 6.70032L13.9042 7.59032C13.4911 7.2356 13.0166 6.95939 12.5042 6.77532V5.00032H9.50418V6.77632C8.99174 6.96039 8.51728 7.2366 8.10418 7.59132L6.55418 6.70032L5.05418 9.30032L6.58318 10.1833C6.47251 10.723 6.47251 11.2796 6.58318 11.8193L5.05418 12.7003L6.55418 15.3003L8.09618 14.4103C8.50928 14.765 8.98375 15.0412 9.49618 15.2253V17.0003H12.4962V15.2243C13.0086 15.0402 13.4831 14.764 13.8962 14.4093L15.4382 15.2993L16.9382 12.6993L15.4092 11.8163C15.5199 11.2766 15.5199 10.72 15.4092 10.1803L16.9462 9.30032L15.4462 6.70032ZM11.0002 12.5003C10.7035 12.5003 10.4135 12.4123 10.1668 12.2475C9.92015 12.0827 9.7279 11.8484 9.61436 11.5743C9.50083 11.3003 9.47113 10.9987 9.52901 10.7077C9.58688 10.4167 9.72974 10.1494 9.93952 9.93966C10.1493 9.72988 10.4166 9.58702 10.7075 9.52914C10.9985 9.47126 11.3001 9.50097 11.5742 9.6145C11.8483 9.72803 12.0826 9.92029 12.2474 10.167C12.4122 10.4136 12.5002 10.7036 12.5002 11.0003C12.5002 11.3981 12.3421 11.7797 12.0608 12.061C11.7795 12.3423 11.398 12.5003 11.0002 12.5003ZM23.8712 12.3923C23.6482 11.8923 23.4252 11.3753 23.2022 10.8613C22.3492 8.59812 21.235 6.4422 19.8822 4.43732C18.6467 2.78092 16.9711 1.50449 15.0461 0.753216C13.1211 0.00194114 11.0238 -0.194025 8.99294 0.187606C6.96205 0.569238 5.07902 1.51315 3.55803 2.91198C2.03703 4.31081 0.939127 6.10841 0.389182 8.10032C-0.0727272 9.81932 -0.108218 11.6251 0.285789 13.3609C0.679795 15.0967 1.4914 16.7102 2.65018 18.0613C2.87496 18.3285 2.99882 18.6661 3.00018 19.0153V24.0003H17.0002V21.0003H17.8932C18.7378 20.9973 19.5531 20.6903 20.1897 20.1353C20.8264 19.5803 21.2419 18.8146 21.3602 17.9783L21.7002 15.5003H24.0002V12.6833L23.8712 12.3923ZM19.0862 12.5003L18.3862 17.5683C18.3696 17.6888 18.3098 17.7992 18.2177 17.8787C18.1257 17.9582 18.0078 18.0014 17.8862 18.0003H14.0002V21.0003H6.00018V19.0153C5.99817 17.9634 5.62771 16.9455 4.95318 16.1383C4.10557 15.1552 3.51062 13.9801 3.21995 12.7149C2.92929 11.4498 2.95168 10.1328 3.28518 8.87832C3.691 7.42543 4.49712 6.11591 5.61155 5.09923C6.72597 4.08256 8.10378 3.39969 9.58772 3.12858C11.0717 2.85746 12.6019 3.00902 14.0038 3.56597C15.4058 4.12291 16.6229 5.06279 17.5162 6.27832C18.6974 8.09387 19.681 10.0306 20.4502 12.0553L20.6432 12.4993L19.0862 12.5003Z" fill="#374957"/>
</g>
<defs>
<clipPath id="clip0_406_414">
<rect width="24" height="24" fill="white"/>
</clipPath>
</defs>
</svg>
