<svg width="24" height="24" viewBox="0 0 24 24" fill="none" xmlns="http://www.w3.org/2000/svg">
<g clip-path="url(#clip0_406_80)">
<path d="M18.167 15.3561L23.117 10.4071C23.3956 10.1285 23.6167 9.79777 23.7675 9.43376C23.9182 9.06975 23.9959 8.6796 23.9959 8.28559C23.9959 7.89158 23.9182 7.50143 23.7675 7.13742C23.6167 6.77341 23.3956 6.44267 23.117 6.16409L18.167 1.21509L16.046 3.33609L19.71 7.00009H3.5C2.57174 7.00009 1.6815 7.36884 1.02513 8.02521C0.368749 8.68159 0 9.57183 0 10.5001L0 20.5001C0 21.4283 0.368749 22.3186 1.02513 22.975C1.6815 23.6313 2.57174 24.0001 3.5 24.0001H22V21.0001H3.5C3.36739 21.0001 3.24022 20.9474 3.14645 20.8536C3.05268 20.7599 3 20.6327 3 20.5001V10.5001C3 10.3675 3.05268 10.2403 3.14645 10.1465C3.24022 10.0528 3.36739 10.0001 3.5 10.0001H19.282L16.046 13.2351L18.167 15.3561Z" fill="#374957"/>
</g>
<defs>
<clipPath id="clip0_406_80">
<rect width="24" height="24" fill="white"/>
</clipPath>
</defs>
</svg>
