<svg width="24" height="24" viewBox="0 0 24 24" fill="none" xmlns="http://www.w3.org/2000/svg">
<g clip-path="url(#clip0_406_225)">
<path d="M24 3.5C24 2.57174 23.6313 1.6815 22.9749 1.02513C22.3185 0.368749 21.4283 0 20.5 0H10.5C9.57174 0 8.6815 0.368749 8.02513 1.02513C7.36875 1.6815 7 2.57174 7 3.5V5H6.5C5.57174 5 4.6815 5.36875 4.02513 6.02513C3.36875 6.6815 3 7.57174 3 8.5V10.051C2.16905 10.1697 1.4086 10.5835 0.857723 11.2168C0.30685 11.8502 0.00237918 12.6606 0 13.5V24H16V19H20V14H24V3.5ZM3.5 13H12.5C12.632 13.0018 12.7582 13.0551 12.8516 13.1484C12.9449 13.2418 12.9982 13.368 13 13.5V16L11 18L9 16L3 20.875V13.5C3 13.3674 3.05268 13.2402 3.14645 13.1464C3.24021 13.0527 3.36739 13 3.5 13ZM17 16H16V13.5C16 12.5717 15.6313 11.6815 14.9749 11.0251C14.3185 10.3687 13.4283 10 12.5 10H6V8.5C6 8.36739 6.05268 8.24021 6.14645 8.14645C6.24021 8.05268 6.36739 8 6.5 8H16.5C16.632 8.00181 16.7582 8.05507 16.8516 8.14845C16.9449 8.24183 16.9982 8.36796 17 8.5V16ZM21 11H20V8.5C20 7.57174 19.6313 6.6815 18.9749 6.02513C18.3185 5.36875 17.4283 5 16.5 5H10V3.5C10 3.36739 10.0527 3.24021 10.1464 3.14645C10.2402 3.05268 10.3674 3 10.5 3H20.5C20.632 3.00181 20.7582 3.05507 20.8516 3.14845C20.9449 3.24183 20.9982 3.36796 21 3.5V11ZM4 15.5C4 15.2033 4.08797 14.9133 4.2528 14.6666C4.41762 14.42 4.65189 14.2277 4.92597 14.1142C5.20006 14.0006 5.50166 13.9709 5.79264 14.0288C6.08361 14.0867 6.35088 14.2296 6.56066 14.4393C6.77044 14.6491 6.9133 14.9164 6.97118 15.2074C7.02906 15.4983 6.99935 15.7999 6.88582 16.074C6.77229 16.3481 6.58003 16.5824 6.33336 16.7472C6.08668 16.912 5.79667 17 5.5 17C5.10218 17 4.72064 16.842 4.43934 16.5607C4.15804 16.2794 4 15.8978 4 15.5Z" fill="#374957"/>
</g>
<defs>
<clipPath id="clip0_406_225">
<rect width="24" height="24" fill="white"/>
</clipPath>
</defs>
</svg>
