<svg width="24" height="24" viewBox="0 0 24 24" fill="none" xmlns="http://www.w3.org/2000/svg">
<g clip-path="url(#clip0_406_149)">
<path d="M21 3H13.5V0H10.5V3H3C2.20435 3 1.44129 3.31607 0.87868 3.87868C0.31607 4.44129 0 5.20435 0 6L0 21H24V6C24 5.20435 23.6839 4.44129 23.1213 3.87868C22.5587 3.31607 21.7956 3 21 3ZM21 18H3V6H21V18Z" fill="#374957"/>
<path d="M7.99994 7.99963H4.99994V10.9996H7.99994V7.99963Z" fill="#374957"/>
<path d="M13.0001 7.99963H10.0001V10.9996H13.0001V7.99963Z" fill="#374957"/>
<path d="M19 7.99963H15V10.9996H19V7.99963Z" fill="#374957"/>
<path d="M12.9999 13.0004H4.99994V16.0004H12.9999V13.0004Z" fill="#374957"/>
<path d="M19 13.0004H15V16.0004H19V13.0004Z" fill="#374957"/>
</g>
<defs>
<clipPath id="clip0_406_149">
<rect width="24" height="24" fill="white"/>
</clipPath>
</defs>
</svg>
