<svg width="24" height="24" viewBox="0 0 24 24" fill="none" xmlns="http://www.w3.org/2000/svg">
<g clip-path="url(#clip0_406_275)">
<path d="M23.2001 11.2142C22.6847 10.6075 21.9726 10.2009 21.1881 10.0652C21.6396 8.26013 21.9116 6.41484 22.0001 4.55624L22.0621 2.92424L20.4301 2.99924C19.0906 3.06805 17.7581 3.23787 16.4441 3.50724C16.5497 2.88657 16.4561 2.24843 16.1768 1.68418C15.8976 1.11992 15.447 0.658487 14.8895 0.365932C14.332 0.0733773 13.6963 -0.0352959 13.0733 0.0554702C12.4503 0.146236 11.872 0.431787 11.4211 0.871243C11.2551 1.03724 11.0001 1.24324 11.0001 1.24324C11.0001 1.24324 10.7461 1.03724 10.5791 0.871243C10.0832 0.371754 9.42587 0.0647816 8.72452 0.00512822C8.02317 -0.0545251 7.32345 0.137024 6.75027 0.545579C6.17709 0.954134 5.76777 1.5531 5.59538 2.23555C5.42299 2.91799 5.49875 3.63949 5.80914 4.27124C4.57603 4.67333 3.52424 5.49745 2.83886 6.59858C2.15349 7.69972 1.87845 9.00731 2.06214 10.2912C1.36255 10.5878 0.783304 11.1115 0.417893 11.7777C0.0524815 12.444 -0.0777776 13.2139 0.048139 13.9632C0.408096 16.0935 1.27724 18.1053 2.58163 19.8276C3.88603 21.5498 5.58709 22.9316 7.54014 23.8552L7.84014 23.9992H16.1501L16.4501 23.8552C18.4032 22.9316 20.1042 21.5498 21.4086 19.8276C22.713 18.1053 23.5822 16.0935 23.9421 13.9632C24.0264 13.4786 24.0036 12.9815 23.8754 12.5066C23.7473 12.0317 23.5168 11.5906 23.2001 11.2142ZM18.0571 9.99924H13.0451C12.9884 9.59724 13.0225 9.18764 13.1449 8.80054C13.2672 8.41343 13.4747 8.05864 13.7521 7.76224C14.5261 6.96224 16.8271 6.41324 18.8601 6.15224C18.7242 7.45858 18.4551 8.74761 18.0571 9.99924ZM7.50014 6.99924C7.87039 6.99928 8.23597 7.08188 8.57027 7.24103C8.90456 7.40018 9.19916 7.63188 9.43261 7.91926C9.66606 8.20664 9.83248 8.54247 9.91976 8.90228C10.007 9.2621 10.013 9.63685 9.93714 9.99924H5.06314C4.9873 9.63685 4.99324 9.2621 5.08052 8.90228C5.1678 8.54247 5.33422 8.20664 5.56767 7.91926C5.80112 7.63188 6.09571 7.40018 6.43001 7.24103C6.76431 7.08188 7.12989 6.99928 7.50014 6.99924ZM15.4711 20.9992H8.52914C7.08526 20.2596 5.83399 19.1931 4.87498 17.8846C3.91597 16.5761 3.2757 15.0618 3.00514 13.4622C2.99595 13.4069 2.99917 13.3502 3.01456 13.2962C3.02996 13.2423 3.05713 13.1924 3.09414 13.1502C3.13376 13.1028 3.18332 13.0647 3.23932 13.0387C3.29531 13.0126 3.35636 12.9991 3.41814 12.9992H20.5821C20.6439 12.9991 20.705 13.0126 20.761 13.0387C20.817 13.0647 20.8665 13.1028 20.9061 13.1502C20.9433 13.1923 20.9706 13.2422 20.986 13.2962C21.0014 13.3501 21.0045 13.4069 20.9951 13.4622C20.7246 15.0618 20.0843 16.5761 19.1253 17.8846C18.1663 19.1931 16.915 20.2596 15.4711 20.9992Z" fill="#374957"/>
</g>
<defs>
<clipPath id="clip0_406_275">
<rect width="24" height="24" fill="white"/>
</clipPath>
</defs>
</svg>
