<svg width="24" height="24" viewBox="0 0 24 24" fill="none" xmlns="http://www.w3.org/2000/svg">
<g clip-path="url(#clip0_406_497)">
<path d="M17.954 10.6629C18.6096 9.60373 18.9702 8.38853 18.9982 7.14318C19.0263 5.89783 18.7208 4.66763 18.1135 3.58002C17.5062 2.49242 16.6192 1.58698 15.5443 0.957497C14.4693 0.328017 13.2457 -0.00260193 12 -0.000108066H3V23.9999H15C16.5934 24.0016 18.1397 23.4591 19.3828 22.4623C20.6259 21.4655 21.4914 20.0741 21.8359 18.5183C22.1805 16.9626 21.9835 15.3359 21.2776 13.9074C20.5717 12.4788 19.3991 11.3342 17.954 10.6629ZM7 3.99989H12C12.7956 3.99989 13.5587 4.31596 14.1213 4.87857C14.6839 5.44118 15 6.20424 15 6.99989C15 7.79554 14.6839 8.5586 14.1213 9.12121C13.5587 9.68382 12.7956 9.99989 12 9.99989H7V3.99989ZM15 19.9999H7V13.9999H15C15.7956 13.9999 16.5587 14.316 17.1213 14.8786C17.6839 15.4412 18 16.2042 18 16.9999C18 17.7955 17.6839 18.5586 17.1213 19.1212C16.5587 19.6838 15.7956 19.9999 15 19.9999Z" fill="#374957"/>
</g>
<defs>
<clipPath id="clip0_406_497">
<rect width="24" height="24" fill="white"/>
</clipPath>
</defs>
</svg>
