<svg width="24" height="24" viewBox="0 0 24 24" fill="none" xmlns="http://www.w3.org/2000/svg">
<g clip-path="url(#clip0_406_486)">
<path d="M22.8643 14.9234C21.2394 14.4342 19.5129 14.3908 17.8656 14.7977C16.2182 15.2047 14.7105 16.0469 13.5003 17.2364V15.2874C14.953 14.9476 16.2484 14.1271 17.1764 12.9589C18.1045 11.7907 18.6108 10.3433 18.6133 8.85137C18.6133 6.41936 17.2443 3.78937 14.5453 1.03736C13.8647 0.372929 12.9514 0.000976563 12.0003 0.000976562C11.0492 0.000976563 10.1358 0.372929 9.45526 1.03736C6.75526 3.79036 5.38626 6.42037 5.38626 8.85137C5.38879 10.3435 5.89523 11.7909 6.82348 12.9591C7.75172 14.1273 9.04734 14.9478 10.5003 15.2874V17.2364C9.28986 16.0472 7.78216 15.2051 6.13484 14.7982C4.48753 14.3913 2.76115 14.4345 1.13626 14.9234L0.000263251 15.2064V16.3784C-0.0413325 17.3854 0.142915 18.389 0.539504 19.3156C0.936094 20.2421 1.53498 21.0683 2.29226 21.7334C4.84926 23.9514 8.87426 24.0784 10.9293 23.9754H13.0623C17.3413 24.3514 24.1793 22.7094 24.0003 16.3754V15.2064L22.8643 14.9234ZM4.25326 19.4634C3.69147 18.9776 3.30002 18.3247 3.13626 17.6004C4.44667 17.4447 5.77364 17.6855 6.94584 18.2916C8.11805 18.8976 9.08166 19.8412 9.71226 21.0004C7.91926 20.9734 5.61226 20.6454 4.25326 19.4634ZM8.38626 8.85137C8.57024 7.16046 9.31436 5.57964 10.5003 4.36036V8.00036H13.5003V4.36036C20.0703 11.7514 9.20026 15.8784 8.38626 8.85137ZM19.7473 19.4634C18.3883 20.6454 16.0803 20.9734 14.2883 21.0014C14.9313 19.8533 15.8972 18.9191 17.0661 18.3147C18.2351 17.7103 19.5557 17.4623 20.8643 17.6014C20.7003 18.3254 20.3089 18.9779 19.7473 19.4634Z" fill="#374957"/>
</g>
<defs>
<clipPath id="clip0_406_486">
<rect width="24" height="24" fill="white"/>
</clipPath>
</defs>
</svg>
