<svg width="24" height="24" viewBox="0 0 24 24" fill="none" xmlns="http://www.w3.org/2000/svg">
<g clip-path="url(#clip0_406_373)">
<path d="M17.954 5.9541C15.261 5.9541 13.228 7.7921 12 9.3181C10.772 7.7921 8.739 5.9541 6.046 5.9541C4.4425 5.9541 2.90468 6.59109 1.77083 7.72493C0.636987 8.85878 0 10.3966 0 12.0001C0 13.6036 0.636987 15.1414 1.77083 16.2753C2.90468 17.4091 4.4425 18.0461 6.046 18.0461C8.739 18.0461 10.772 16.2081 12 14.6821C13.228 16.2081 15.261 18.0461 17.954 18.0461C19.5575 18.0461 21.0953 17.4091 22.2292 16.2753C23.363 15.1414 24 13.6036 24 12.0001C24 10.3966 23.363 8.85878 22.2292 7.72493C21.0953 6.59109 19.5575 5.9541 17.954 5.9541ZM6.046 15.0461C5.23815 15.0461 4.46339 14.7252 3.89215 14.1539C3.32092 13.5827 3 12.808 3 12.0001C3 11.1923 3.32092 10.4175 3.89215 9.84625C4.46339 9.27502 5.23815 8.9541 6.046 8.9541C7.862 8.9541 9.453 10.7751 10.259 12.0001C9.453 13.2251 7.862 15.0461 6.046 15.0461ZM17.954 15.0461C16.138 15.0461 14.547 13.2251 13.741 12.0001C14.547 10.7751 16.141 8.9541 17.954 8.9541C18.7619 8.9541 19.5366 9.27502 20.1078 9.84625C20.6791 10.4175 21 11.1923 21 12.0001C21 12.808 20.6791 13.5827 20.1078 14.1539C19.5366 14.7252 18.7619 15.0461 17.954 15.0461Z" fill="#374957"/>
</g>
<defs>
<clipPath id="clip0_406_373">
<rect width="24" height="24" fill="white"/>
</clipPath>
</defs>
</svg>
