<svg width="24" height="24" viewBox="0 0 24 24" fill="none" xmlns="http://www.w3.org/2000/svg">
<g clip-path="url(#clip0_406_176)">
<path d="M16.435 6.08006C17.1725 5.81748 17.8459 5.40169 18.411 4.86006C20.217 3.05406 19.991 0.00905602 19.991 0.00905602C19.991 0.00905602 16.946 -0.216944 15.14 1.58906C14.1372 2.75385 13.5405 4.2133 13.44 5.74706C13.2437 3.7465 12.6667 1.80192 11.74 0.018056L9.08104 1.40806C9.82496 2.83792 10.2899 4.39632 10.451 6.00006H8.65904C6.3185 6.04892 4.0928 7.02367 2.4697 8.71069C0.8466 10.3977 -0.0414985 12.6594 3.59134e-05 15.0001C-0.106964 21.2521 6.37704 25.8381 12 23.3001C17.624 25.8371 24.106 21.2521 24 15.0001C24.0292 12.8503 23.2791 10.7626 21.8885 9.12293C20.4979 7.48324 18.5607 6.40236 16.435 6.08006ZM15.341 21.0001C14.4257 21.001 13.5255 20.7665 12.727 20.3191L12 19.9191L11.273 20.3191C7.54504 22.4501 2.91604 19.3491 3.00004 15.0001C2.95775 13.4548 3.52954 11.9557 4.5902 10.8312C5.65086 9.70659 7.11394 9.04816 8.65904 9.00006H15.341C22.82 9.24706 22.814 20.7561 15.341 21.0001Z" fill="#374957"/>
</g>
<defs>
<clipPath id="clip0_406_176">
<rect width="24" height="24" fill="white"/>
</clipPath>
</defs>
</svg>
