<svg width="24" height="24" viewBox="0 0 24 24" fill="none" xmlns="http://www.w3.org/2000/svg">
<g clip-path="url(#clip0_406_379)">
<path d="M20.5 0H3.5C2.57174 0 1.6815 0.368749 1.02513 1.02513C0.368749 1.6815 0 2.57174 0 3.5L0 12.5C0.00185226 13.9581 0.58191 15.356 1.61296 16.387C2.64401 17.4181 4.04188 17.9981 5.5 18H8V24H16V18H18.5C19.9581 17.9981 21.356 17.4181 22.387 16.387C23.4181 15.356 23.9981 13.9581 24 12.5V3.5C24 2.57174 23.6313 1.6815 22.9749 1.02513C22.3185 0.368749 21.4283 0 20.5 0ZM3.5 3H6V5H9V3H11V7H14V3H16V9H19V3H20.5C20.6326 3 20.7598 3.05268 20.8536 3.14645C20.9473 3.24021 21 3.36739 21 3.5V10H3V3.5C3 3.36739 3.05268 3.24021 3.14645 3.14645C3.24021 3.05268 3.36739 3 3.5 3ZM18.5 15H13V21H11V15H5.5C4.92385 14.9999 4.36541 14.8008 3.91916 14.4363C3.47291 14.0719 3.16623 13.5645 3.051 13H20.951C20.8357 13.5649 20.5287 14.0725 20.0821 14.437C19.6354 14.8014 19.0765 15.0003 18.5 15Z" fill="#374957"/>
</g>
<defs>
<clipPath id="clip0_406_379">
<rect width="24" height="24" fill="white"/>
</clipPath>
</defs>
</svg>
