<svg width="24" height="24" viewBox="0 0 24 24" fill="none" xmlns="http://www.w3.org/2000/svg">
<g clip-path="url(#clip0_406_277)">
<path d="M23.1171 9.87865L18.1671 4.92865L16.0461 7.04965L19.5001 10.4996H6.61707V13.4996H19.5001L16.0501 16.9496L18.1711 19.0706L23.1211 14.1206C23.683 13.5575 23.9982 12.7943 23.9974 11.9988C23.9967 11.2033 23.68 10.4407 23.1171 9.87865Z" fill="#374957"/>
<path d="M9.99404 20.4993C9.99404 20.6319 9.94136 20.7591 9.8476 20.8528C9.75383 20.9466 9.62665 20.9993 9.49404 20.9993H3.50604C3.37343 20.9993 3.24626 20.9466 3.15249 20.8528C3.05872 20.7591 3.00604 20.6319 3.00604 20.4993V3.53027C3.00604 3.39767 3.05872 3.27049 3.15249 3.17672C3.24626 3.08295 3.37343 3.03027 3.50604 3.03027H9.49404C9.62665 3.03027 9.75383 3.08295 9.8476 3.17672C9.94136 3.27049 9.99404 3.39767 9.99404 3.53027V8.34427H12.994V3.53027C12.9927 2.60242 12.6235 1.71295 11.9675 1.05686C11.3114 0.40077 10.4219 0.0315961 9.49404 0.0302734H3.50604C2.57819 0.0315961 1.68872 0.40077 1.03263 1.05686C0.376539 1.71295 0.00736515 2.60242 0.00604248 3.53027V20.4993C0.00604248 21.4275 0.374791 22.3178 1.03117 22.9741C1.68755 23.6305 2.57778 23.9993 3.50604 23.9993H9.49404C10.4223 23.9993 11.3125 23.6305 11.9689 22.9741C12.6253 22.3178 12.994 21.4275 12.994 20.4993V15.6823H9.99404V20.4993Z" fill="#374957"/>
</g>
<defs>
<clipPath id="clip0_406_277">
<rect width="24" height="24" fill="white"/>
</clipPath>
</defs>
</svg>
