<svg width="24" height="24" viewBox="0 0 24 24" fill="none" xmlns="http://www.w3.org/2000/svg">
<g clip-path="url(#clip0_406_357)">
<path d="M22 12.5C22 11.5717 21.6313 10.6815 20.9749 10.0251C20.3185 9.36874 19.4283 8.99999 18.5 8.99999H13.5V7.00599C13.9543 6.74451 14.332 6.36829 14.5952 5.91499C14.8585 5.46168 14.9981 4.94719 15 4.42299C15 3.16599 13.789 1.75299 13.067 1.02299L12 -0.0570068L10.933 1.02199C10.211 1.75299 9 3.16599 9 4.42299C9.00193 4.94719 9.14151 5.46168 9.40475 5.91499C9.66799 6.36829 10.0457 6.74451 10.5 7.00599V8.99999H5.5C4.57174 8.99999 3.6815 9.36874 3.02513 10.0251C2.36875 10.6815 2 11.5717 2 12.5V21H0V24H24V21H22V12.5ZM5 15.693C5.39837 15.8916 5.83686 15.9966 6.282 16C6.98333 16.0207 7.66628 15.7739 8.19236 15.3096C8.71845 14.8454 9.04829 14.1984 9.115 13.5C9.18514 14.1973 9.51612 14.8423 10.0416 15.3059C10.5672 15.7695 11.2484 16.0174 11.949 16C12.6503 16.0207 13.3333 15.7739 13.8594 15.3096C14.3854 14.8454 14.7153 14.1984 14.782 13.5C14.8519 14.1972 15.1827 14.8422 15.708 15.3058C16.2334 15.7694 16.9145 16.0174 17.615 16C18.0993 15.9964 18.5752 15.8727 19 15.64V21H5V15.693Z" fill="#374957"/>
</g>
<defs>
<clipPath id="clip0_406_357">
<rect width="24" height="24" fill="white"/>
</clipPath>
</defs>
</svg>
