<svg width="24" height="24" viewBox="0 0 24 24" fill="none" xmlns="http://www.w3.org/2000/svg">
<g clip-path="url(#clip0_406_157)">
<path d="M13.768 1.14665C13.5358 0.914434 13.2602 0.730227 12.9569 0.604549C12.6535 0.478871 12.3284 0.414185 12 0.414185C11.6716 0.414185 11.3465 0.478871 11.0431 0.604549C10.7398 0.730227 10.4642 0.914434 10.232 1.14665L0 11.3797V20.9997C0 21.7953 0.31607 22.5584 0.87868 23.121C1.44129 23.6836 2.20435 23.9997 3 23.9997H21C21.7956 23.9997 22.5587 23.6836 23.1213 23.121C23.6839 22.5584 24 21.7953 24 20.9997V11.3797L13.768 1.14665ZM21 20.9997H16V17.8177C16 16.8051 15.5977 15.8339 14.8817 15.1179C14.1657 14.4019 13.1946 13.9997 12.182 13.9997H11.818C10.8054 13.9997 9.83428 14.4019 9.11827 15.1179C8.40225 15.8339 8 16.8051 8 17.8177V20.9997H3V12.6217L12 3.62165L21 12.6217V20.9997Z" fill="#374957"/>
</g>
<defs>
<clipPath id="clip0_406_157">
<rect width="24" height="24" fill="white"/>
</clipPath>
</defs>
</svg>
