<svg width="24" height="24" viewBox="0 0 24 24" fill="none" xmlns="http://www.w3.org/2000/svg">
<g clip-path="url(#clip0_406_328)">
<path d="M12 24C9.62663 24 7.30655 23.2962 5.33316 21.9776C3.35977 20.6591 1.8217 18.7849 0.913451 16.5922C0.00519943 14.3995 -0.232441 11.9867 0.230582 9.65892C0.693605 7.33115 1.83649 5.19295 3.51472 3.51472C5.19295 1.83649 7.33115 0.693605 9.65892 0.230582C11.9867 -0.232441 14.3995 0.00519943 16.5922 0.913451C18.7849 1.8217 20.6591 3.35977 21.9776 5.33316C23.2962 7.30655 24 9.62663 24 12C23.9966 15.1815 22.7312 18.2318 20.4815 20.4815C18.2318 22.7312 15.1815 23.9966 12 24ZM12 3.00001C10.22 3.00001 8.47992 3.52785 6.99987 4.51678C5.51983 5.50571 4.36628 6.91132 3.68509 8.55585C3.0039 10.2004 2.82567 12.01 3.17294 13.7558C3.5202 15.5016 4.37737 17.1053 5.63604 18.364C6.89472 19.6226 8.49836 20.4798 10.2442 20.8271C11.99 21.1743 13.7996 20.9961 15.4442 20.3149C17.0887 19.6337 18.4943 18.4802 19.4832 17.0001C20.4722 15.5201 21 13.78 21 12C20.9971 9.61395 20.0479 7.32646 18.3608 5.63926C16.6736 3.95206 14.3861 3.00292 12 3.00001Z" fill="#374957"/>
<path d="M14.4552 18.6817H11.4552V12.5447H10.0912V9.54468H12.0002C12.6512 9.54521 13.2753 9.80403 13.7356 10.2643C14.1959 10.7246 14.4547 11.3487 14.4552 11.9997V18.6817Z" fill="#374957"/>
<path d="M12.284 8.46642C13.2317 8.46642 14 7.69814 14 6.75042C14 5.8027 13.2317 5.03442 12.284 5.03442C11.3363 5.03442 10.568 5.8027 10.568 6.75042C10.568 7.69814 11.3363 8.46642 12.284 8.46642Z" fill="#374957"/>
</g>
<defs>
<clipPath id="clip0_406_328">
<rect width="24" height="24" fill="white"/>
</clipPath>
</defs>
</svg>
