<svg width="24" height="24" viewBox="0 0 24 24" fill="none" xmlns="http://www.w3.org/2000/svg">
<g clip-path="url(#clip0_406_202)">
<path d="M21.0001 21.0004H16.0001V24.0004H21.5461C22.1968 23.9996 22.8207 23.7406 23.2808 23.2804C23.7408 22.8201 23.9995 22.1961 24 21.5454V16.0004H21.0001V21.0004Z" fill="#374957"/>
<path d="M0 2.455V8H3V3H8V0H2.454C1.80323 0.000794377 1.17935 0.259732 0.719284 0.719991C0.259213 1.18025 0.000529243 1.80423 0 2.455H0Z" fill="#374957"/>
<path d="M3 16.0004H0V21.5454C0.000529243 22.1961 0.259213 22.8201 0.719284 23.2804C1.17935 23.7406 1.80323 23.9996 2.454 24.0004H8V21.0004H3V16.0004Z" fill="#374957"/>
<path d="M21.5461 0H16.0001V3H21.0001V8H24V2.455C23.9995 1.80423 23.7408 1.18025 23.2808 0.719991C22.8207 0.259732 22.1968 0.000794377 21.5461 0V0Z" fill="#374957"/>
</g>
<defs>
<clipPath id="clip0_406_202">
<rect width="24" height="24" fill="white"/>
</clipPath>
</defs>
</svg>
