<svg width="24" height="24" viewBox="0 0 24 24" fill="none" xmlns="http://www.w3.org/2000/svg">
<g clip-path="url(#clip0_406_267)">
<path d="M12 0C9.62663 0 7.30655 0.703788 5.33316 2.02236C3.35977 3.34094 1.8217 5.21509 0.913451 7.4078C0.00519943 9.60051 -0.232441 12.0133 0.230582 14.3411C0.693605 16.6689 1.83649 18.8071 3.51472 20.4853C5.19295 22.1635 7.33115 23.3064 9.65892 23.7694C11.9867 24.2324 14.3995 23.9948 16.5922 23.0866C18.7849 22.1783 20.6591 20.6402 21.9776 18.6668C23.2962 16.6935 24 14.3734 24 12C23.9966 8.81846 22.7312 5.76821 20.4815 3.51852C18.2318 1.26883 15.1815 0.00344108 12 0V0ZM20.036 16.029C16.8983 16.8162 13.5945 16.62 10.572 15.467C11.052 14.8117 11.6147 14.2212 12.246 13.71C13.6422 14.2353 15.1213 14.5062 16.613 14.51C18.0476 14.5069 19.4711 14.2586 20.822 13.776C20.6623 14.5589 20.3979 15.3167 20.036 16.029ZM12.436 3.022C14.4094 5.43209 15.6246 8.37285 15.928 11.473C15.0767 11.4108 14.2377 11.2335 13.434 10.946C13.1881 8.05192 11.9454 5.3329 9.91801 3.253C10.5997 3.08767 11.2985 3.00276 12 3C12.146 3 12.288 3.015 12.432 3.022H12.436ZM20.87 10.507C20.2475 10.8159 19.5929 11.0554 18.918 11.221C18.6932 8.87785 18.0296 6.59788 16.962 4.5C17.989 5.18104 18.8653 6.06552 19.5368 7.09875C20.2083 8.13197 20.6607 9.29197 20.866 10.507H20.87ZM6.91701 4.58C7.3833 4.95729 7.81288 5.37783 8.20001 5.836C6.08621 7.38523 4.32143 9.36124 3.02001 11.636C3.07582 10.2378 3.45716 8.87187 4.13368 7.64693C4.81021 6.422 5.76325 5.37184 6.91701 4.58ZM4.21101 16.488C5.15273 13.2614 7.10513 10.4221 9.78101 8.388C10.1587 9.31986 10.3859 10.3058 10.454 11.309C8.13578 13.1471 6.54189 15.7455 5.95401 18.645C5.26566 18.0198 4.67776 17.2923 4.21101 16.488ZM8.74201 20.38C8.79755 19.6143 8.94563 18.8581 9.18301 18.128C11.413 19.0371 13.7969 19.509 16.205 19.518C16.463 19.518 16.721 19.501 16.979 19.491C15.78 20.2935 14.4043 20.7936 12.9698 20.9484C11.5353 21.1032 10.0847 20.9082 8.74201 20.38Z" fill="#374957"/>
</g>
<defs>
<clipPath id="clip0_406_267">
<rect width="24" height="24" fill="white"/>
</clipPath>
</defs>
</svg>
