<svg width="24" height="24" viewBox="0 0 24 24" fill="none" xmlns="http://www.w3.org/2000/svg">
<g clip-path="url(#clip0_406_397)">
<path d="M12 0C9.62663 0 7.30655 0.703788 5.33316 2.02236C3.35977 3.34094 1.8217 5.21509 0.913451 7.4078C0.00519943 9.60051 -0.232441 12.0133 0.230582 14.3411C0.693605 16.6689 1.83649 18.8071 3.51472 20.4853C5.19295 22.1635 7.33115 23.3064 9.65892 23.7694C11.9867 24.2324 14.3995 23.9948 16.5922 23.0866C18.7849 22.1783 20.6591 20.6402 21.9776 18.6668C23.2962 16.6935 24 14.3734 24 12C23.9966 8.81846 22.7312 5.76821 20.4815 3.51852C18.2318 1.26883 15.1815 0.00344108 12 0V0ZM15.621 13.5H20.865C20.6398 14.8358 20.1143 16.1029 19.328 17.206L15.621 13.5ZM20.865 10.5H13.5V3.135C15.3388 3.44957 17.0348 4.32693 18.3539 5.64607C19.6731 6.96522 20.5504 8.66116 20.865 10.5ZM3.00001 12C3.00395 9.87517 3.75881 7.82013 5.1312 6.19795C6.5036 4.57578 8.40519 3.4909 10.5 3.135V12.621L17.206 19.328C15.8614 20.2876 14.2783 20.858 12.6306 20.9765C10.983 21.095 9.33456 20.757 7.86646 19.9997C6.39837 19.2424 5.16743 18.0951 4.30891 16.6838C3.45038 15.2725 2.9975 13.6519 3.00001 12Z" fill="#374957"/>
</g>
<defs>
<clipPath id="clip0_406_397">
<rect width="24" height="24" fill="white"/>
</clipPath>
</defs>
</svg>
