<svg width="24" height="24" viewBox="0 0 24 24" fill="none" xmlns="http://www.w3.org/2000/svg">
<g clip-path="url(#clip0_406_262)">
<path d="M22.7339 0.806928C22.3385 0.47844 21.8754 0.241263 21.3778 0.112313C20.8801 -0.0166371 20.3602 -0.0341825 19.8549 0.0609282L7.85494 2.31093C7.05258 2.46137 6.32804 2.88755 5.80668 3.51573C5.28533 4.14392 4.99995 4.93458 4.99994 5.75093V16.1409C4.67395 16.0516 4.33791 16.0042 3.99994 15.9999C3.20882 15.9999 2.43546 16.2345 1.77766 16.674C1.11986 17.1136 0.607173 17.7383 0.304423 18.4692C0.00167209 19.2001 -0.0775412 20.0044 0.0767996 20.7803C0.231141 21.5562 0.612104 22.2689 1.17151 22.8284C1.73092 23.3878 2.44366 23.7687 3.21958 23.9231C3.9955 24.0774 4.79977 23.9982 5.53067 23.6954C6.26158 23.3927 6.88629 22.88 7.32582 22.2222C7.76535 21.5644 7.99994 20.7911 7.99994 19.9999V10.7999L20.9999 8.36493V13.1409C20.1934 12.934 19.3424 12.9845 18.566 13.2852C17.7896 13.586 17.1267 14.1219 16.67 14.8181C16.2133 15.5143 15.9858 16.3359 16.0192 17.1679C16.0526 17.9998 16.3453 18.8005 16.8563 19.4578C17.3673 20.1152 18.0711 20.5963 18.8691 20.8338C19.6671 21.0713 20.5194 21.0534 21.3067 20.7825C22.0941 20.5116 22.777 20.0013 23.2599 19.3231C23.7428 18.6448 24.0016 17.8325 23.9999 16.9999V3.49993C24.0006 2.98546 23.8874 2.47723 23.6685 2.01165C23.4497 1.54606 23.1305 1.13466 22.7339 0.806928ZM7.99994 7.74993V5.74993C8.00005 5.63336 8.04088 5.52049 8.11538 5.43084C8.18988 5.34118 8.29336 5.28038 8.40794 5.25893L20.4079 3.00893C20.4801 2.99542 20.5544 2.99797 20.6254 3.01639C20.6965 3.03482 20.7626 3.06867 20.8191 3.11554C20.8757 3.1624 20.9211 3.22114 20.9524 3.28758C20.9836 3.35401 20.9999 3.42651 20.9999 3.49993V5.31193L7.99994 7.74993Z" fill="#374957"/>
</g>
<defs>
<clipPath id="clip0_406_262">
<rect width="24" height="24" fill="white"/>
</clipPath>
</defs>
</svg>
