<svg width="24" height="24" viewBox="0 0 24 24" fill="none" xmlns="http://www.w3.org/2000/svg">
<g clip-path="url(#clip0_406_31)">
<path d="M21.621 19.5L24.061 21.939L21.939 24.061L19.5 21.621L17.061 24.061L14.939 21.939L17.379 19.5L14.939 17.061L17.061 14.939L19.5 17.379L21.939 14.939L24.061 17.061L21.621 19.5ZM3.00001 12C2.99613 10.7735 3.24297 9.55922 3.72538 8.43161C4.20778 7.30399 4.91557 6.28687 5.80529 5.44269C6.69501 4.59851 7.74788 3.94509 8.89927 3.52255C10.0507 3.1 11.2763 2.91725 12.5008 2.9855C13.7254 3.05376 14.9231 3.37158 16.0204 3.91947C17.1177 4.46735 18.0914 5.23373 18.8818 6.17155C19.6722 7.10938 20.2626 8.19885 20.6167 9.3731C20.9708 10.5473 21.0812 11.7816 20.941 13H23.949C23.977 12.669 24 12.338 24 12C24 9.62663 23.2962 7.30655 21.9776 5.33316C20.6591 3.35977 18.7849 1.8217 16.5922 0.913451C14.3995 0.00519943 11.9867 -0.232441 9.65892 0.230582C7.33115 0.693605 5.19296 1.83649 3.51472 3.51472C1.83649 5.19296 0.693605 7.33115 0.230582 9.65892C-0.232441 11.9867 0.00519943 14.3995 0.913451 16.5922C1.8217 18.7849 3.35977 20.6591 5.33316 21.9776C7.30655 23.2962 9.62663 24 12 24C12.338 24 12.669 23.977 13 23.949V20.941C11.741 21.0862 10.4655 20.9631 9.25759 20.5796C8.04963 20.1962 6.93662 19.5612 5.99184 18.7165C5.04707 17.8718 4.29198 16.8365 3.77629 15.6788C3.26061 14.5211 2.99604 13.2673 3.00001 12ZM10 6.00001V11.379L7.43901 13.939L9.56101 16.061L13 12.621V6.00001H10Z" fill="#374957"/>
</g>
<defs>
<clipPath id="clip0_406_31">
<rect width="24" height="24" fill="white"/>
</clipPath>
</defs>
</svg>
