<svg width="24" height="24" viewBox="0 0 24 24" fill="none" xmlns="http://www.w3.org/2000/svg">
<g clip-path="url(#clip0_406_24)">
<path d="M24 12C24 15.1826 22.7357 18.2348 20.4853 20.4853C18.2348 22.7357 15.1826 24 12 24C8.8174 24 5.76515 22.7357 3.51472 20.4853C1.26428 18.2348 0 15.1826 0 12C0.000131643 11.4282 0.0405652 10.8571 0.121 10.291L3.091 10.715C3.03054 11.1407 3.00013 11.5701 3 12C3 13.78 3.52784 15.5201 4.51677 17.0001C5.50571 18.4802 6.91131 19.6337 8.55585 20.3149C10.2004 20.9961 12.01 21.1743 13.7558 20.8271C15.5016 20.4798 17.1053 19.6226 18.364 18.364C19.6226 17.1053 20.4798 15.5016 20.8271 13.7558C21.1743 12.01 20.9961 10.2004 20.3149 8.55585C19.6337 6.91131 18.4802 5.50571 17.0001 4.51677C15.5201 3.52784 13.78 3 12 3C11.5701 3.00013 11.1407 3.03054 10.715 3.091L10.291 0.121C10.8571 0.0405652 11.4282 0.000131643 12 0C15.1815 0.00344108 18.2318 1.26883 20.4815 3.51852C22.7312 5.76821 23.9966 8.81846 24 12ZM8.495 3.708L7.325 0.945C6.37729 1.34733 5.4853 1.86996 4.671 2.5L6.505 4.872C7.11561 4.40017 7.78444 4.00896 8.495 3.708ZM4.873 6.5L2.5 4.669C1.87012 5.48358 1.34782 6.37593 0.946 7.324L3.708 8.494C4.00909 7.78206 4.40065 7.11188 4.873 6.5ZM10.5 6V10.5H7V13.5H10.69C11.0699 13.8344 11.5629 14.0116 12.0688 13.9955C12.5747 13.9794 13.0554 13.7712 13.4133 13.4133C13.7712 13.0554 13.9794 12.5747 13.9955 12.0688C14.0116 11.5629 13.8344 11.0699 13.5 10.69V6H10.5Z" fill="#374957"/>
</g>
<defs>
<clipPath id="clip0_406_24">
<rect width="24" height="24" fill="white"/>
</clipPath>
</defs>
</svg>
