<svg width="24" height="24" viewBox="0 0 24 24" fill="none" xmlns="http://www.w3.org/2000/svg">
<g clip-path="url(#clip0_406_386)">
<path d="M21.8659 7.987L24.0089 5.887L18.2589 0.0130005L16.1159 2.113L18.0099 4.047L16.3599 5.582L15.7999 5.025C15.1436 4.36885 14.2535 4.00025 13.3254 4.00025C12.3974 4.00025 11.5073 4.36885 10.8509 5.025L2.99993 12.879V18.879L-0.0610657 21.939L2.06093 24.061L5.12093 21H11.1209L18.9749 13.146C19.6311 12.4897 19.9997 11.5996 19.9997 10.6715C19.9997 9.74343 19.6311 8.85335 18.9749 8.197L18.4829 7.705L20.1089 6.192L21.8659 7.987ZM16.8539 11.025L9.87893 18H5.99994V14.2L8.39993 16.6L10.5209 14.479L8.08294 12.039L9.73094 10.39L12.1699 12.83L14.2919 10.708L11.8519 8.269L12.9749 7.146C13.0687 7.05227 13.1959 6.99961 13.3284 6.99961C13.461 6.99961 13.5882 7.05227 13.6819 7.146L16.8539 10.318C16.9477 10.4118 17.0003 10.5389 17.0003 10.6715C17.0003 10.8041 16.9477 10.9312 16.8539 11.025Z" fill="#374957"/>
</g>
<defs>
<clipPath id="clip0_406_386">
<rect width="24" height="24" fill="white"/>
</clipPath>
</defs>
</svg>
