<svg width="24" height="24" viewBox="0 0 24 24" fill="none" xmlns="http://www.w3.org/2000/svg">
<g clip-path="url(#clip0_406_106)">
<path d="M20.9999 21.0003H15.9999V24.0003H21.5459C22.1966 23.9995 22.8205 23.7406 23.2806 23.2803C23.7407 22.82 23.9993 22.1961 23.9999 21.5453V16.0003H20.9999V21.0003Z" fill="#374957"/>
<path d="M3 3H8V0H2.455C1.80406 0.000529654 1.17992 0.259351 0.719638 0.719638C0.259351 1.17992 0.000529654 1.80406 0 2.455L0 8H3V3Z" fill="#374957"/>
<path d="M3 16.0003H0V21.5453C0.000529654 22.1962 0.259351 22.8204 0.719638 23.2807C1.17992 23.7409 1.80406 23.9998 2.455 24.0003H8V21.0003H3V16.0003Z" fill="#374957"/>
<path d="M21.5459 0H15.9999V3H20.9999V8H23.9999V2.455C23.9993 1.80423 23.7407 1.18025 23.2806 0.719991C22.8205 0.259732 22.1966 0.000794377 21.5459 0V0Z" fill="#374957"/>
<path d="M11.9999 11.0003C13.9329 11.0003 15.4999 9.4333 15.4999 7.50031C15.4999 5.56731 13.9329 4.00031 11.9999 4.00031C10.0669 4.00031 8.49988 5.56731 8.49988 7.50031C8.49988 9.4333 10.0669 11.0003 11.9999 11.0003Z" fill="#374957"/>
<path d="M6 15.0003V19.0003H18V15.0003C18 14.4699 17.7893 13.9612 17.4142 13.5861C17.0391 13.211 16.5304 13.0003 16 13.0003H8C7.46957 13.0003 6.96086 13.211 6.58579 13.5861C6.21071 13.9612 6 14.4699 6 15.0003Z" fill="#374957"/>
</g>
<defs>
<clipPath id="clip0_406_106">
<rect width="24" height="24" fill="white"/>
</clipPath>
</defs>
</svg>
