<svg width="24" height="24" viewBox="0 0 24 24" fill="none" xmlns="http://www.w3.org/2000/svg">
<g clip-path="url(#clip0_406_425)">
<path d="M7.14198 5.06116L6.59097 6.50815H7.68798L7.14198 5.06116Z" fill="#374957"/>
<path d="M21 0H3C2.20435 0 1.44129 0.31607 0.87868 0.87868C0.31607 1.44129 0 2.20435 0 3L0 24H17.471L24 17.471V3C24 2.20435 23.6839 1.44129 23.1213 0.87868C22.5587 0.31607 21.7956 0 21 0V0ZM11.267 3H12.517V9.065H11.267V3ZM6.612 2.941H7.677L10.011 9.125H8.674L8.159 7.758H6.115L5.6 9.123H4.257L6.612 2.941ZM21 15H15V21H3V11H21V15Z" fill="#374957"/>
</g>
<defs>
<clipPath id="clip0_406_425">
<rect width="24" height="24" fill="white"/>
</clipPath>
</defs>
</svg>
