<svg width="24" height="24" viewBox="0 0 24 24" fill="none" xmlns="http://www.w3.org/2000/svg">
<g clip-path="url(#clip0_406_427)">
<path d="M16.2429 9.75655C15.1176 8.63123 13.5913 7.99904 11.9999 7.99904C10.4084 7.99904 8.8822 8.63123 7.75688 9.75655C6.63157 10.8819 5.99937 12.4081 5.99937 13.9995C5.99937 15.591 6.63157 17.1172 7.75688 18.2425L11.9999 22.3915L16.2429 18.2425C16.8001 17.6854 17.2422 17.0239 17.5438 16.2959C17.8454 15.5679 18.0006 14.7876 18.0006 13.9995C18.0006 13.2115 17.8454 12.4312 17.5438 11.7032C17.2422 10.9752 16.8001 10.3137 16.2429 9.75655ZM11.9999 15.9995C11.6043 15.9995 11.2176 15.8822 10.8887 15.6625C10.5598 15.4427 10.3035 15.1304 10.1521 14.7649C10.0007 14.3995 9.96114 13.9973 10.0383 13.6094C10.1155 13.2214 10.306 12.865 10.5857 12.5853C10.8654 12.3056 11.2217 12.1151 11.6097 12.038C11.9977 11.9608 12.3998 12.0004 12.7652 12.1518C13.1307 12.3032 13.4431 12.5595 13.6628 12.8884C13.8826 13.2173 13.9999 13.604 13.9999 13.9995C13.9999 14.53 13.7892 15.0387 13.4141 15.4138C13.039 15.7888 12.5303 15.9995 11.9999 15.9995ZM23.9999 10.1315V23.9995H14.6469L17.7139 20.9995H20.9999V10.1315C21 10.0692 20.9858 10.0077 20.9584 9.9517C20.931 9.89571 20.8911 9.84674 20.8419 9.80855L12.2519 3.08655C12.1798 3.03019 12.0909 2.99957 11.9994 2.99957C11.9079 2.99957 11.819 3.03019 11.7469 3.08655L3.15688 9.80955C3.10788 9.84769 3.06826 9.89653 3.04105 9.95234C3.01384 10.0082 2.99976 10.0695 2.99988 10.1315V20.9995H6.28588L9.35288 23.9995H-0.000117515V10.1315C-0.000964596 9.61404 0.116331 9.10318 0.34283 8.63788C0.569329 8.17257 0.899055 7.76511 1.30688 7.44655L9.89988 0.723546C10.4993 0.254332 11.2386 -0.000610352 11.9999 -0.000610352C12.7611 -0.000610352 13.5004 0.254332 14.0999 0.723546L22.6919 7.44655C23.0999 7.76501 23.4298 8.17243 23.6565 8.63774C23.8832 9.10304 24.0006 9.61396 23.9999 10.1315Z" fill="#374957"/>
</g>
<defs>
<clipPath id="clip0_406_427">
<rect width="24" height="24" fill="white"/>
</clipPath>
</defs>
</svg>
