<svg width="24" height="24" viewBox="0 0 24 24" fill="none" xmlns="http://www.w3.org/2000/svg">
<g clip-path="url(#clip0_406_18)">
<path d="M21 4.5C20.9983 3.82552 20.7851 3.16856 20.3905 2.6216C19.9958 2.07464 19.4395 1.66522 18.8 1.451C16.6416 0.554116 14.3365 0.0622524 12 0C9.66352 0.0625023 7.35848 0.554357 5.19999 1.451C4.56052 1.66536 4.00434 2.0748 3.6097 2.62173C3.21507 3.16867 3.00183 3.82556 2.99999 4.5V18.084L3.23199 18.451C3.62893 19.012 4.11781 19.5019 4.67799 19.9L2.99999 24H6.07699L7.20899 21.233C8.74943 21.7646 10.3706 22.0241 12 22C13.6294 22.0241 15.2506 21.7646 16.791 21.233L17.923 24H21L19.322 19.9C19.8818 19.502 20.371 19.0128 20.769 18.453L21 18.084V4.5ZM6.31199 4.238C7.18653 3.89081 8.08484 3.60675 8.99999 3.388V5H15V3.388C15.9151 3.60675 16.8135 3.89081 17.688 4.238C17.7765 4.27422 17.8525 4.33539 17.9068 4.41404C17.9611 4.49269 17.9914 4.58544 17.994 4.681C17.927 8.64 15.7 11 12 11C8.29999 11 6.07299 8.64 6.00599 4.681C6.00856 4.58544 6.03885 4.49269 6.09318 4.41404C6.14751 4.33539 6.22353 4.27422 6.31199 4.238ZM5.99999 17.113V11.935C7.68035 13.3336 9.81482 14.0682 12 14C14.1852 14.0682 16.3196 13.3336 18 11.935V17.109C17.41 17.7 15.694 19 12 19C8.28799 19 6.57399 17.689 5.99999 17.113ZM13.5 16.5C13.5 16.7967 13.412 17.0867 13.2472 17.3334C13.0824 17.58 12.8481 17.7723 12.574 17.8858C12.2999 17.9993 11.9983 18.0291 11.7074 17.9712C11.4164 17.9133 11.1491 17.7704 10.9393 17.5607C10.7296 17.3509 10.5867 17.0836 10.5288 16.7926C10.4709 16.5017 10.5006 16.2001 10.6142 15.926C10.7277 15.6519 10.92 15.4176 11.1666 15.2528C11.4133 15.088 11.7033 15 12 15C12.3978 15 12.7793 15.158 13.0607 15.4393C13.342 15.7206 13.5 16.1022 13.5 16.5Z" fill="#374957"/>
</g>
<defs>
<clipPath id="clip0_406_18">
<rect width="24" height="24" fill="white"/>
</clipPath>
</defs>
</svg>
