<svg width="24" height="24" viewBox="0 0 24 24" fill="none" xmlns="http://www.w3.org/2000/svg">
<g clip-path="url(#clip0_406_33)">
<path d="M20.5 0H3.5C2.57174 0 1.6815 0.368749 1.02513 1.02513C0.368749 1.6815 0 2.57174 0 3.5L0 24H24V3.5C24 2.57174 23.6313 1.6815 22.9749 1.02513C22.3185 0.368749 21.4283 0 20.5 0ZM21 21H3V3.5C3 3.36739 3.05268 3.24021 3.14645 3.14645C3.24021 3.05268 3.36739 3 3.5 3H20.5C20.632 3.00181 20.7582 3.05507 20.8516 3.14845C20.9449 3.24183 20.9982 3.36796 21 3.5V21ZM5 5H19V10H16V8H13.5V16H15V19H9V16H10.5V8H8V10H5V5Z" fill="#374957"/>
</g>
<defs>
<clipPath id="clip0_406_33">
<rect width="24" height="24" fill="white"/>
</clipPath>
</defs>
</svg>
