<svg width="24" height="24" viewBox="0 0 24 24" fill="none" xmlns="http://www.w3.org/2000/svg">
<g clip-path="url(#clip0_406_381)">
<path d="M12 0C9.62663 0 7.30655 0.703788 5.33316 2.02236C3.35977 3.34094 1.8217 5.21509 0.913451 7.4078C0.00519943 9.60051 -0.232441 12.0133 0.230582 14.3411C0.693605 16.6689 1.83649 18.8071 3.51472 20.4853C5.19295 22.1635 7.33115 23.3064 9.65892 23.7694C11.9867 24.2324 14.3995 23.9948 16.5922 23.0866C18.7849 22.1783 20.6591 20.6402 21.9776 18.6668C23.2962 16.6935 24 14.3734 24 12C23.9966 8.81846 22.7312 5.76821 20.4815 3.51852C18.2318 1.26883 15.1815 0.00344108 12 0V0ZM10.668 15.453L12 14.121L17.207 19.328C15.9756 20.2077 14.5412 20.7606 13.038 20.935C12.7269 18.9359 11.9112 17.0492 10.668 15.453ZM13.332 8.547L12 9.879L6.79401 4.672C8.02466 3.79238 9.45841 3.23946 10.961 3.065C11.2731 5.06399 12.0891 6.95058 13.332 8.547ZM9.87901 12L8.54701 13.332C6.95059 12.0891 5.06399 11.2731 3.06501 10.961C3.23925 9.45835 3.7922 8.02455 4.67201 6.794L9.87901 12ZM14.121 12L15.453 10.668C17.0494 11.9109 18.936 12.7269 20.935 13.039C20.7606 14.5419 20.2077 15.976 19.328 17.207L14.121 12ZM20.757 9.958C19.1221 9.57755 17.6265 8.74673 16.4397 7.55971C15.2528 6.37269 14.4222 4.87695 14.042 3.242C15.6751 3.62631 17.1686 4.45841 18.3549 5.6448C19.5411 6.83119 20.3729 8.32487 20.757 9.958ZM3.24301 14.042C4.87772 14.4225 6.37319 15.2532 7.56001 16.44C8.74682 17.6268 9.57752 19.1223 9.95801 20.757C8.32491 20.3731 6.83127 19.5413 5.64501 18.355C4.45876 17.1687 3.62691 15.6751 3.24301 14.042Z" fill="#374957"/>
</g>
<defs>
<clipPath id="clip0_406_381">
<rect width="24" height="24" fill="white"/>
</clipPath>
</defs>
</svg>
