<svg width="24" height="24" viewBox="0 0 24 24" fill="none" xmlns="http://www.w3.org/2000/svg">
<g clip-path="url(#clip0_406_148)">
<path d="M11.9999 0L1.99994 5.615V21C1.99994 21.7956 2.31601 22.5587 2.87862 23.1213C3.44123 23.6839 4.20429 24 4.99994 24H18.9999C19.7956 24 20.5587 23.6839 21.1213 23.1213C21.6839 22.5587 21.9999 21.7956 21.9999 21V5.615L11.9999 0ZM4.99994 21V7.371L11.9999 3.441L18.9999 7.371V21H4.99994Z" fill="#374957"/>
<path d="M12 10.5C12.8284 10.5 13.5 9.82843 13.5 9C13.5 8.17157 12.8284 7.5 12 7.5C11.1716 7.5 10.5 8.17157 10.5 9C10.5 9.82843 11.1716 10.5 12 10.5Z" fill="#374957"/>
</g>
<defs>
<clipPath id="clip0_406_148">
<rect width="24" height="24" fill="white"/>
</clipPath>
</defs>
</svg>
