<svg width="24" height="24" viewBox="0 0 24 24" fill="none" xmlns="http://www.w3.org/2000/svg">
<g clip-path="url(#clip0_406_70)">
<path d="M24 13.4994C23.9988 12.658 23.6951 11.8451 23.1443 11.209C22.5936 10.5729 21.8325 10.156 21 10.0344V4.49939C21 3.57113 20.6313 2.68089 19.9749 2.02452C19.3185 1.36814 18.4283 0.99939 17.5 0.99939H3.5C2.57174 0.99939 1.6815 1.36814 1.02513 2.02452C0.368749 2.68089 0 3.57113 0 4.49939L0 19.9994H3.058C3.02137 20.1636 3.00193 20.3312 3 20.4994C3 21.1624 3.26339 21.7983 3.73223 22.2672C4.20107 22.736 4.83696 22.9994 5.5 22.9994C6.16304 22.9994 6.79893 22.736 7.26777 22.2672C7.73661 21.7983 8 21.1624 8 20.4994C7.99807 20.3312 7.97863 20.1636 7.942 19.9994H16.058C16.0214 20.1636 16.0019 20.3312 16 20.4994C16 21.1624 16.2634 21.7983 16.7322 22.2672C17.2011 22.736 17.837 22.9994 18.5 22.9994C19.163 22.9994 19.7989 22.736 20.2678 22.2672C20.7366 21.7983 21 21.1624 21 20.4994C20.9981 20.3312 20.9786 20.1636 20.942 19.9994H24V13.4994ZM6 5.99939V9.99939H3V5.99939H6ZM9 5.99939H12V16.9994H9V5.99939ZM15 5.99939H18V9.99939H15V5.99939ZM3 12.9994H6V16.9994H3V12.9994ZM21 16.9994H15V12.9994H20.5C20.6326 12.9994 20.7598 13.0521 20.8536 13.1458C20.9473 13.2396 21 13.3668 21 13.4994V16.9994Z" fill="#374957"/>
</g>
<defs>
<clipPath id="clip0_406_70">
<rect width="24" height="24" fill="white"/>
</clipPath>
</defs>
</svg>
