<svg width="24" height="24" viewBox="0 0 24 24" fill="none" xmlns="http://www.w3.org/2000/svg">
<g clip-path="url(#clip0_406_249)">
<path d="M20.6819 3.561L18.4399 1.319C17.5946 0.477129 16.451 0.00309259 15.2579 0L5.49994 0C4.57168 0 3.68144 0.368749 3.02507 1.02513C2.36869 1.6815 1.99994 2.57174 1.99994 3.5V24H21.9999V6.743C22.0014 6.15184 21.8856 5.56626 21.6594 5.02009C21.4332 4.47393 21.101 3.97801 20.6819 3.561ZM4.99994 21V3.5C4.99994 3.36739 5.05262 3.24021 5.14639 3.14645C5.24015 3.05268 5.36733 3 5.49994 3H14.9999V7H18.9999V21H4.99994ZM15.9999 13H7.99994V10H15.9999V13ZM13.8679 15.023L16.7159 15.969C16.3469 17.1 15.1769 19 13.1349 19C12.3083 18.9962 11.507 18.7144 10.8599 18.2C10.7664 18.1202 10.6629 18.0529 10.5519 18C10.2382 18.225 9.96722 18.5044 9.75194 18.825L7.25194 17.161C7.59094 16.659 8.82594 15 10.4869 15C11.2558 15.0066 11.9997 15.273 12.5979 15.756C12.8979 15.973 12.9519 16 13.1349 16C13.3389 16 13.7209 15.45 13.8679 15.023Z" fill="#374957"/>
</g>
<defs>
<clipPath id="clip0_406_249">
<rect width="24" height="24" fill="white"/>
</clipPath>
</defs>
</svg>
