<svg width="24" height="24" viewBox="0 0 24 24" fill="none" xmlns="http://www.w3.org/2000/svg">
<g clip-path="url(#clip0_406_141)">
<path d="M7.25305 24.0003C5.81842 24.001 4.41583 23.5761 3.22276 22.7794C2.02968 21.9827 1.09976 20.85 0.550656 19.5246C0.00155306 18.1992 -0.142047 16.7407 0.138028 15.3337C0.418102 13.9267 1.10926 12.6344 2.12405 11.6203L6.19105 7.55029L8.31305 9.67029L4.24605 13.7413C3.85116 14.1363 3.53795 14.6052 3.32429 15.1213C3.11063 15.6374 3.00071 16.1905 3.0008 16.749C3.00089 17.3075 3.111 17.8606 3.32483 18.3766C3.53866 18.8926 3.85203 19.3614 4.24705 19.7563C4.64206 20.1512 5.11099 20.4644 5.62705 20.6781C6.14312 20.8917 6.69621 21.0016 7.25475 21.0015C7.8133 21.0014 8.36636 20.8913 8.88235 20.6775C9.39834 20.4637 9.86716 20.1503 10.262 19.7553L14.33 15.6873L16.451 17.8083L12.383 21.8763C11.7101 22.551 10.9105 23.0859 10.0301 23.4504C9.1497 23.815 8.20592 24.0018 7.25305 24.0003Z" fill="#374957"/>
<path d="M17.8081 16.4524L15.6871 14.3314L19.7551 10.2634C20.5469 9.4645 20.99 8.38451 20.9876 7.25969C20.9852 6.13487 20.5374 5.05679 19.7422 4.26129C18.9469 3.46579 17.869 3.01763 16.7442 3.01484C15.6194 3.01205 14.5392 3.45486 13.7401 4.24641L9.66906 8.31441L7.54807 6.19241L11.6191 2.12441C12.9826 0.778431 14.8232 0.0265393 16.7391 0.0328767C18.655 0.039214 20.4907 0.803266 21.8452 2.15823C23.1998 3.5132 23.9633 5.34904 23.9691 7.26496C23.9749 9.18089 23.2224 11.0213 21.8761 12.3844L17.8081 16.4524Z" fill="#374957"/>
<path d="M14.3301 7.54919L7.54828 14.3311L9.6696 16.4524L16.4515 9.67051L14.3301 7.54919Z" fill="#374957"/>
</g>
<defs>
<clipPath id="clip0_406_141">
<rect width="24" height="24" fill="white"/>
</clipPath>
</defs>
</svg>
