<svg width="24" height="24" viewBox="0 0 24 24" fill="none" xmlns="http://www.w3.org/2000/svg">
<g clip-path="url(#clip0_406_337)">
<path d="M14.3 14.9231C11.9973 13.8536 10.15 12.0002 9.08802 9.69409L12.052 6.73109L5.41002 0.0900869L1.76602 3.73409C1.20003 4.302 0.752468 4.97668 0.449309 5.71895C0.146151 6.46123 -0.0065659 7.25632 2.12548e-05 8.05809C2.12548e-05 15.2091 8.79102 24.0001 15.942 24.0001C16.7435 24.0065 17.5383 23.8538 18.2804 23.5508C19.0225 23.2479 19.697 22.8006 20.265 22.2351L23.91 18.5901L17.269 11.9481L14.3 14.9231ZM18.148 20.1141C17.8582 20.4 17.5145 20.6256 17.1368 20.7776C16.7592 20.9297 16.3551 21.0053 15.948 21.0001C10.949 21.0001 3.00002 13.9341 3.00002 8.05809C2.99499 7.65103 3.07069 7.24701 3.22277 6.86939C3.37485 6.49177 3.60028 6.14804 3.88602 5.85809L5.41002 4.33209L7.81002 6.73209L5.54102 9.00009L5.91002 9.91909C6.61033 11.791 7.70501 13.4905 9.11983 14.9022C10.5347 16.3139 12.2365 17.4049 14.11 18.1011L15.019 18.4471L17.274 16.1911L19.674 18.5911L18.148 20.1141ZM15 8.00009V2.50009L17.189 4.68909L21.814 0.0640869L23.936 2.18609L19.311 6.81109L21.5 9.00009H16C15.7348 9.00009 15.4805 8.89473 15.2929 8.70719C15.1054 8.51966 15 8.2653 15 8.00009Z" fill="#374957"/>
</g>
<defs>
<clipPath id="clip0_406_337">
<rect width="24" height="24" fill="white"/>
</clipPath>
</defs>
</svg>
