<svg width="24" height="24" viewBox="0 0 24 24" fill="none" xmlns="http://www.w3.org/2000/svg">
<g clip-path="url(#clip0_406_438)">
<path d="M2 5.49956C1.46957 5.49956 0.960859 5.71028 0.585786 6.08535C0.210714 6.46042 0 6.96913 0 7.49956L0 16.4996C0 17.03 0.210714 17.5387 0.585786 17.9138C0.960859 18.2888 1.46957 18.4996 2 18.4996H5.214L13 23.6346V0.364563L5.214 5.49956H2ZM10 5.93556V18.0636L6.114 15.4996H3V8.49956H6.114L10 5.93556Z" fill="#374957"/>
<path d="M15 8.82071V16.1847C15.9765 16.1847 16.9131 15.7968 17.6036 15.1063C18.2941 14.4158 18.682 13.4792 18.682 12.5027C18.682 11.5262 18.2941 10.5897 17.6036 9.89914C16.9131 9.20863 15.9765 8.82071 15 8.82071Z" fill="#374957"/>
<path d="M14.8632 3.36729V6.36729C15.6756 6.35692 16.482 6.50798 17.2356 6.81172C17.9892 7.11545 18.675 7.56581 19.2532 8.13667C19.8314 8.70752 20.2905 9.38751 20.6038 10.1372C20.9172 10.8868 21.0785 11.6913 21.0785 12.5038C21.0785 13.3163 20.9172 14.1207 20.6038 14.8704C20.2905 15.6201 19.8314 16.3001 19.2532 16.8709C18.675 17.4418 17.9892 17.8921 17.2356 18.1959C16.482 18.4996 15.6756 18.6507 14.8632 18.6403V21.6403C16.071 21.6529 17.2694 21.4259 18.389 20.9725C19.5086 20.519 20.5271 19.848 21.3857 18.9983C22.2443 18.1487 22.9259 17.1372 23.3911 16.0224C23.8562 14.9077 24.0957 13.7117 24.0957 12.5038C24.0957 11.2959 23.8562 10.0999 23.3911 8.98515C22.9259 7.87038 22.2443 6.85891 21.3857 6.00925C20.5271 5.15959 19.5086 4.48861 18.389 4.03513C17.2694 3.58164 16.071 3.35465 14.8632 3.36729Z" fill="#374957"/>
</g>
<defs>
<clipPath id="clip0_406_438">
<rect width="24" height="24" fill="white"/>
</clipPath>
</defs>
</svg>
