<svg width="24" height="24" viewBox="0 0 24 24" fill="none" xmlns="http://www.w3.org/2000/svg">
<g clip-path="url(#clip0_406_65)">
<path d="M18.9002 16.7767C20.4968 14.6431 21.2258 11.9839 20.9406 9.33443C20.6553 6.68495 19.377 4.24188 17.3629 2.49701C15.3488 0.75214 12.7485 -0.16498 10.0854 -0.0697374C7.42234 0.0255053 4.89419 1.12604 3.0099 3.01033C1.12561 4.89462 0.0250781 7.42277 -0.0701647 10.0859C-0.165407 12.7489 0.751713 15.3492 2.49658 17.3633C4.24145 19.3774 6.68452 20.6557 9.334 20.941C11.9835 21.2262 14.6427 20.4972 16.7762 18.9007L21.8762 24.0007L24.0002 21.8807L18.9002 16.7767ZM10.5002 18.0007C9.01688 18.0007 7.56683 17.5608 6.33346 16.7367C5.10009 15.9126 4.1388 14.7412 3.57114 13.3708C3.00349 12.0003 2.85496 10.4923 3.14435 9.03749C3.43374 7.58263 4.14805 6.24626 5.19694 5.19737C6.24583 4.14847 7.5822 3.43417 9.03706 3.14478C10.4919 2.85539 11.9999 3.00391 13.3704 3.57157C14.7408 4.13923 15.9122 5.10052 16.7363 6.33389C17.5604 7.56726 18.0002 9.01731 18.0002 10.5007C17.9984 12.4892 17.2076 14.3958 15.8015 15.8019C14.3954 17.208 12.4888 17.9988 10.5002 18.0007Z" fill="#374957"/>
</g>
<defs>
<clipPath id="clip0_406_65">
<rect width="24" height="24" fill="white"/>
</clipPath>
</defs>
</svg>
