<svg width="24" height="24" viewBox="0 0 24 24" fill="none" xmlns="http://www.w3.org/2000/svg">
<g clip-path="url(#clip0_406_394)">
<path d="M12 0C9.62662 0 7.30654 0.703788 5.33315 2.02236C3.35976 3.34094 1.82169 5.21509 0.913443 7.4078C0.0051918 9.60051 -0.232448 12.0133 0.230574 14.3411C0.693597 16.6689 1.83649 18.8071 3.51472 20.4853C5.19295 22.1635 7.33114 23.3064 9.65891 23.7694C11.9867 24.2324 14.3995 23.9948 16.5922 23.0866C18.7849 22.1783 20.6591 20.6402 21.9776 18.6668C23.2962 16.6935 24 14.3734 24 12C23.9966 8.81846 22.7312 5.76821 20.4815 3.51852C18.2318 1.26883 15.1815 0.00344108 12 0V0ZM12 3C13.8676 3.00021 15.6884 3.58486 17.207 4.672L4.672 17.206C3.7124 15.8614 3.14201 14.2783 3.0235 12.6306C2.90499 10.983 3.24296 9.33455 4.00025 7.86646C4.75755 6.39836 5.90488 5.16743 7.31617 4.3089C8.72746 3.45038 10.3481 2.99749 12 3ZM12 21C10.1327 20.9999 8.31218 20.4152 6.794 19.328L19.328 6.793C20.2879 8.13761 20.8585 9.72081 20.9772 11.3686C21.0958 13.0164 20.7579 14.6651 20.0006 16.1333C19.2432 17.6016 18.0958 18.8326 16.6843 19.6912C15.2729 20.5498 13.6521 21.0026 12 21Z" fill="#374957"/>
</g>
<defs>
<clipPath id="clip0_406_394">
<rect width="24" height="24" fill="white"/>
</clipPath>
</defs>
</svg>
