<svg width="24" height="24" viewBox="0 0 24 24" fill="none" xmlns="http://www.w3.org/2000/svg">
<g clip-path="url(#clip0_406_443)">
<path d="M20.591 0H3.409C2.5052 0.00105862 1.63872 0.36056 0.999642 0.999642C0.36056 1.63872 0.00105862 2.5052 0 3.409L0 24H24V3.409C23.9989 2.5052 23.6394 1.63872 23.0004 0.999642C22.3613 0.36056 21.4948 0.00105862 20.591 0V0ZM3.409 3H20.591C20.6994 3.00026 20.8033 3.04344 20.8799 3.12009C20.9566 3.19673 20.9997 3.30061 21 3.409V21L10.414 10.414C10.0389 10.0391 9.53033 9.82843 9 9.82843C8.46967 9.82843 7.96106 10.0391 7.586 10.414L3 15V3.409C3.00026 3.30061 3.04344 3.19673 3.12009 3.12009C3.19673 3.04344 3.30061 3.00026 3.409 3Z" fill="#374957"/>
<path d="M15.4998 9.99969C16.8805 9.99969 17.9998 8.88041 17.9998 7.49969C17.9998 6.11898 16.8805 4.99969 15.4998 4.99969C14.1191 4.99969 12.9998 6.11898 12.9998 7.49969C12.9998 8.88041 14.1191 9.99969 15.4998 9.99969Z" fill="#374957"/>
</g>
<defs>
<clipPath id="clip0_406_443">
<rect width="24" height="24" fill="white"/>
</clipPath>
</defs>
</svg>
