<svg width="24" height="24" viewBox="0 0 24 24" fill="none" xmlns="http://www.w3.org/2000/svg">
<g clip-path="url(#clip0_406_453)">
<path d="M10.5 17C10.1712 17.0005 9.84548 16.936 9.54158 16.8104C9.23769 16.6848 8.96156 16.5005 8.72901 16.268L5.45301 13.074L7.54701 10.926L10.5 13.8L16.448 7.93201L18.556 10.068L12.263 16.275C12.0315 16.5062 11.7565 16.6892 11.4539 16.8137C11.1514 16.9381 10.8272 17.0014 10.5 17ZM24 24H12C9.62663 24 7.30655 23.2962 5.33316 21.9776C3.35977 20.6591 1.8217 18.7849 0.913451 16.5922C0.00519943 14.3995 -0.232441 11.9867 0.230582 9.65892C0.693605 7.33115 1.83649 5.19295 3.51472 3.51472C5.19295 1.83649 7.33115 0.693605 9.65892 0.230582C11.9867 -0.232441 14.3995 0.00519943 16.5922 0.913451C18.7849 1.8217 20.6591 3.35977 21.9776 5.33316C23.2962 7.30655 24 9.62663 24 12V24ZM12 3.00001C9.61306 3.00001 7.32387 3.94822 5.63604 5.63604C3.94822 7.32387 3.00001 9.61306 3.00001 12C3.00001 14.387 3.94822 16.6761 5.63604 18.364C7.32387 20.0518 9.61306 21 12 21H21V12C20.9974 9.61387 20.0483 7.32622 18.361 5.63897C16.6738 3.95171 14.3861 3.00265 12 3.00001Z" fill="#374957"/>
</g>
<defs>
<clipPath id="clip0_406_453">
<rect width="24" height="24" fill="white"/>
</clipPath>
</defs>
</svg>
