<svg width="24" height="24" viewBox="0 0 24 24" fill="none" xmlns="http://www.w3.org/2000/svg">
<g clip-path="url(#clip0_406_76)">
<path d="M24 2.9998H12V5.2668L10.975 3.4908C10.7556 3.11078 10.44 2.79521 10.0599 2.57581C9.67991 2.35641 9.24882 2.24091 8.81 2.24091C8.37118 2.24091 7.94009 2.35641 7.56005 2.57581C7.18002 2.79521 6.86443 3.11078 6.645 3.4908L0 14.9998H7.181C6.9506 15.9556 6.94002 16.9512 7.15006 17.9116C7.36009 18.8721 7.78527 19.7724 8.39358 20.5448C9.00189 21.3172 9.77749 21.9415 10.662 22.3707C11.5465 22.8 12.5168 23.023 13.5 23.023C14.4832 23.023 15.4535 22.8 16.338 22.3707C17.2225 21.9415 17.9981 21.3172 18.6064 20.5448C19.2147 19.7724 19.6399 18.8721 19.8499 17.9116C20.06 16.9512 20.0494 15.9556 19.819 14.9998H24V2.9998ZM5.2 11.9998L8.81 5.7408L11.46 10.3308C10.456 10.6637 9.5484 11.2366 8.816 11.9998H5.2ZM13.5 19.9998C12.8078 19.9998 12.1311 19.7945 11.5555 19.4099C10.9799 19.0254 10.5313 18.4787 10.2664 17.8392C10.0015 17.1996 9.9322 16.4959 10.0673 15.817C10.2023 15.138 10.5356 14.5144 11.0251 14.0249C11.5146 13.5354 12.1383 13.2021 12.8172 13.067C13.4961 12.932 14.1999 13.0013 14.8394 13.2662C15.4789 13.5311 16.0256 13.9797 16.4101 14.5553C16.7947 15.1309 17 15.8076 17 16.4998C17 17.4281 16.6313 18.3183 15.9749 18.9747C15.3185 19.631 14.4283 19.9998 13.5 19.9998ZM21 11.9998H18.184C17.3197 11.0998 16.2142 10.4682 15 10.1808V5.9998H21V11.9998Z" fill="#374957"/>
</g>
<defs>
<clipPath id="clip0_406_76">
<rect width="24" height="24" fill="white"/>
</clipPath>
</defs>
</svg>
