<svg width="24" height="24" viewBox="0 0 24 24" fill="none" xmlns="http://www.w3.org/2000/svg">
<g clip-path="url(#clip0_406_354)">
<path d="M11.9999 5C13.3806 5 14.4999 3.88071 14.4999 2.5C14.4999 1.11929 13.3806 0 11.9999 0C10.6192 0 9.49994 1.11929 9.49994 2.5C9.49994 3.88071 10.6192 5 11.9999 5Z" fill="#374957"/>
<path d="M11.9999 14.4997C13.3806 14.4997 14.4999 13.3804 14.4999 11.9997C14.4999 10.619 13.3806 9.49969 11.9999 9.49969C10.6192 9.49969 9.49994 10.619 9.49994 11.9997C9.49994 13.3804 10.6192 14.4997 11.9999 14.4997Z" fill="#374957"/>
<path d="M11.9999 24.0003C13.3806 24.0003 14.4999 22.881 14.4999 21.5003C14.4999 20.1196 13.3806 19.0003 11.9999 19.0003C10.6192 19.0003 9.49994 20.1196 9.49994 21.5003C9.49994 22.881 10.6192 24.0003 11.9999 24.0003Z" fill="#374957"/>
</g>
<defs>
<clipPath id="clip0_406_354">
<rect width="24" height="24" fill="white"/>
</clipPath>
</defs>
</svg>
