<svg width="24" height="24" viewBox="0 0 24 24" fill="none" xmlns="http://www.w3.org/2000/svg">
<g clip-path="url(#clip0_406_78)">
<path d="M12.0001 2.99052C14.3871 2.99856 16.6737 3.95133 18.3601 5.64052L15.9861 8.01452H21.8161C22.1201 8.01452 22.4116 7.89378 22.6265 7.67887C22.8414 7.46395 22.9621 7.17246 22.9621 6.86852V1.03852L20.4711 3.52952C18.7968 1.84726 16.6604 0.700281 14.3332 0.234094C12.0059 -0.232094 9.59258 0.00352734 7.39944 0.911062C5.20629 1.8186 3.33214 3.35714 2.01478 5.3315C0.697422 7.30585 -0.00378135 9.62702 0.000138415 12.0005H2.99014C2.99279 9.61173 3.9429 7.32154 5.63203 5.63241C7.32116 3.94328 9.61135 2.99317 12.0001 2.99052Z" fill="#374957"/>
<path d="M21.01 12C21.0133 13.7822 20.487 15.5252 19.4979 17.0079C18.5089 18.4905 17.1017 19.6458 15.4549 20.3272C13.808 21.0087 11.9959 21.1855 10.2484 20.8352C8.50097 20.485 6.89695 19.6235 5.63996 18.36L8.01396 15.986H1.99296C1.73976 15.9863 1.49701 16.087 1.31797 16.266C1.13893 16.445 1.03823 16.6878 1.03796 16.941V22.962L3.52896 20.471C5.20334 22.1533 7.33968 23.3002 9.66695 23.7664C11.9942 24.2326 14.4075 23.997 16.6007 23.0895C18.7938 22.1819 20.668 20.6434 21.9853 18.669C23.3027 16.6947 24.0039 14.3735 24 12H21.01Z" fill="#374957"/>
</g>
<defs>
<clipPath id="clip0_406_78">
<rect width="24" height="24" fill="white"/>
</clipPath>
</defs>
</svg>
