<svg width="24" height="24" viewBox="0 0 24 24" fill="none" xmlns="http://www.w3.org/2000/svg">
<g clip-path="url(#clip0_406_112)">
<path d="M18.257 15.0053C17.5028 15.0034 16.7556 15.151 16.0587 15.4395C15.3619 15.728 14.7291 16.1518 14.197 16.6863L11.197 19.6863C10.7798 20.1046 10.2839 20.436 9.73793 20.6615C9.19195 20.8871 8.60671 21.0022 8.01599 21.0003H3.60699C3.4842 21.0003 3.36418 20.9638 3.2621 20.8956C3.16002 20.8274 3.08046 20.7304 3.03347 20.6169C2.98649 20.5035 2.97419 20.3787 2.99814 20.2582C3.02208 20.1378 3.08119 20.0272 3.16799 19.9403L4.46799 18.6403C5.22849 18.981 6.07462 19.0823 6.89406 18.9309C7.7135 18.7794 8.46751 18.3823 9.05599 17.7923L13.867 13.0003H14.02C15.6318 13.0003 17.1779 12.3617 18.32 11.2243L19.234 10.3113C19.8297 9.7155 20.2949 9.00216 20.5998 8.21671C20.9047 7.43127 21.0428 6.59094 21.0052 5.74922C20.9675 4.9075 20.7551 4.08283 20.3812 3.32773C20.0074 2.57263 19.4805 1.90363 18.834 1.36333C17.6227 0.401592 16.0975 -0.0763345 14.5539 0.0221355C13.0104 0.120605 11.5583 0.788463 10.479 1.89633L9.89999 2.47533C9.2903 3.08673 8.81047 3.81503 8.48929 4.61651C8.16812 5.41798 8.01223 6.2761 8.03099 7.13933L3.21199 11.9393C2.623 12.5256 2.22532 13.2764 2.07128 14.0931C1.91724 14.9097 2.01405 15.7538 2.34899 16.5143L1.04899 17.8143C0.540669 18.3202 0.194038 18.9656 0.0530626 19.6687C-0.0879125 20.3718 -0.0168789 21.101 0.257153 21.7637C0.531185 22.4263 0.995868 22.9927 1.59226 23.3909C2.18865 23.7891 2.88988 24.0012 3.60699 24.0003H8.01599C9.00054 24.0028 9.97583 23.8102 10.8855 23.4336C11.7952 23.0571 12.6213 22.504 13.316 21.8063L16.316 18.8063C16.6996 18.4228 17.1883 18.1616 17.7203 18.0557C18.2524 17.9498 18.8038 18.004 19.3051 18.2114C19.8063 18.4188 20.2348 18.7701 20.5365 19.2209C20.8382 19.6717 20.9995 20.2019 21 20.7443V24.0003H24V20.7443C23.9981 19.2221 23.3923 17.7629 22.3156 16.6869C21.2389 15.6109 19.7792 15.0061 18.257 15.0053ZM12.019 4.60033L12.597 4.02233C13.2383 3.37489 14.1097 3.00749 15.021 3.00033C15.7069 2.99256 16.3734 3.22818 16.902 3.66533C17.2298 3.93805 17.4972 4.27613 17.6871 4.65801C17.8769 5.03988 17.985 5.45714 18.0045 5.88315C18.024 6.30916 17.9544 6.73455 17.8002 7.13216C17.646 7.52976 17.4106 7.89084 17.109 8.19233L16.2 9.10033C15.8983 9.40318 15.5368 9.63977 15.1385 9.795C14.7402 9.95023 14.3139 10.0207 13.8868 10.0019C13.4598 9.98304 13.0414 9.87536 12.6583 9.68569C12.2752 9.49602 11.9359 9.22854 11.662 8.90033C11.1779 8.26684 10.9464 7.47612 11.0124 6.68158C11.0783 5.88704 11.4371 5.14532 12.019 4.60033ZM5.33099 14.0703L9.04899 10.3643C9.1467 10.5243 9.2525 10.6792 9.36599 10.8283C9.73796 11.2677 10.1702 11.6522 10.65 11.9703L6.93799 15.6703C6.72471 15.8827 6.43598 16.002 6.13499 16.002C5.834 16.002 5.54527 15.8827 5.33199 15.6703C5.22689 15.5653 5.14351 15.4406 5.08663 15.3033C5.02974 15.1661 5.00046 15.0189 5.00046 14.8703C5.00046 14.7217 5.02974 14.5746 5.08663 14.4373C5.14351 14.3001 5.22689 14.1754 5.33199 14.0703H5.33099Z" fill="#374957"/>
</g>
<defs>
<clipPath id="clip0_406_112">
<rect width="24" height="24" fill="white"/>
</clipPath>
</defs>
</svg>
