<svg width="24" height="24" viewBox="0 0 24 24" fill="none" xmlns="http://www.w3.org/2000/svg">
<g clip-path="url(#clip0_406_311)">
<path d="M23.8 11.4783C23.67 11.1293 20.5 2.94031 12 2.94031C3.5 2.94031 0.326 11.1293 0.2 11.4783L0 12.0003L0.2 12.5223C0.33 12.8713 3.5 21.0603 12 21.0603C20.5 21.0603 23.674 12.8713 23.8 12.5223L24 12.0003L23.8 11.4783ZM12 18.0853C6.582 18.0853 3.959 13.5713 3.21 12.0003C3.961 10.4253 6.585 5.91531 12 5.91531C17.415 5.91531 20.038 10.4243 20.79 12.0003C20.038 13.5763 17.415 18.0853 12 18.0853Z" fill="#374957"/>
<path d="M12.0001 15.9996C14.2092 15.9996 16.0001 14.2088 16.0001 11.9996C16.0001 9.79049 14.2092 7.99963 12.0001 7.99963C9.79098 7.99963 8.00012 9.79049 8.00012 11.9996C8.00012 14.2088 9.79098 15.9996 12.0001 15.9996Z" fill="#374957"/>
</g>
<defs>
<clipPath id="clip0_406_311">
<rect width="24" height="24" fill="white"/>
</clipPath>
</defs>
</svg>
