<svg width="24" height="24" viewBox="0 0 24 24" fill="none" xmlns="http://www.w3.org/2000/svg">
<g clip-path="url(#clip0_406_242)">
<path d="M6.50006 15.9999C7.32849 15.9999 8.00006 15.3283 8.00006 14.4999C8.00006 13.6715 7.32849 12.9999 6.50006 12.9999C5.67163 12.9999 5.00006 13.6715 5.00006 14.4999C5.00006 15.3283 5.67163 15.9999 6.50006 15.9999Z" fill="#374957"/>
<path d="M21 3H3C2.20435 3 1.44129 3.31607 0.87868 3.87868C0.31607 4.44129 0 5.20435 0 6L0 21H24V6C24 5.20435 23.6839 4.44129 23.1213 3.87868C22.5587 3.31607 21.7956 3 21 3ZM21 6V8H3V6H21ZM3 18V11H21V18H3Z" fill="#374957"/>
</g>
<defs>
<clipPath id="clip0_406_242">
<rect width="24" height="24" fill="white"/>
</clipPath>
</defs>
</svg>
