<svg width="24" height="24" viewBox="0 0 24 24" fill="none" xmlns="http://www.w3.org/2000/svg">
<g clip-path="url(#clip0_406_374)">
<path d="M21.542 7C22.1937 6.99921 22.8184 6.73998 23.2792 6.27919C23.74 5.8184 23.9992 5.19366 24 4.542V0H21V4H17.626C17.0226 3.05499 16.1909 2.27719 15.2076 1.7384C14.2244 1.19961 13.1212 0.917179 12 0.917179C10.8788 0.917179 9.77564 1.19961 8.79237 1.7384C7.80909 2.27719 6.97739 3.05499 6.374 4H3V0H0V4.542C0.000793899 5.19366 0.260016 5.8184 0.720808 6.27919C1.1816 6.73998 1.80634 6.99921 2.458 7H5.258L4.24 11H0V14H3.572C3.556 14.2 3.53 14.4 3.53 14.614C3.53114 15.4219 3.64833 16.2254 3.878 17H2.458C1.80634 17.0008 1.1816 17.26 0.720808 17.7208C0.260016 18.1816 0.000793899 18.8063 0 19.458L0 24H3V20H5.468C6.26177 20.9641 7.25911 21.7406 8.38847 22.2736C9.51782 22.8067 10.7512 23.0831 12 23.0831C13.2488 23.0831 14.4822 22.8067 15.6115 22.2736C16.7409 21.7406 17.7382 20.9641 18.532 20H21V24H24V19.458C23.9992 18.8063 23.74 18.1816 23.2792 17.7208C22.8184 17.26 22.1937 17.0008 21.542 17H20.122C20.3517 16.2254 20.4689 15.4219 20.47 14.614C20.47 14.405 20.444 14.204 20.428 14H24V11H19.754L18.747 7H21.542ZM12 20.083C10.5499 20.0814 9.15968 19.5047 8.13423 18.4795C7.10878 17.4542 6.53185 16.0641 6.53 14.614C6.53136 14.4134 6.54405 14.2131 6.568 14.014L8.512 6.343C8.77606 5.63075 9.25185 5.0164 9.8754 4.58256C10.4989 4.14871 11.2404 3.91616 12 3.91616C12.7596 3.91616 13.5011 4.14871 14.1246 4.58256C14.7481 5.0164 15.2239 5.63075 15.488 6.343L17.432 14.018C17.456 14.2171 17.4686 14.4174 17.47 14.618C17.4671 16.0674 16.8897 17.4565 15.8644 18.4809C14.839 19.5053 13.4494 20.0814 12 20.083Z" fill="#374957"/>
</g>
<defs>
<clipPath id="clip0_406_374">
<rect width="24" height="24" fill="white"/>
</clipPath>
</defs>
</svg>
