<svg width="24" height="24" viewBox="0 0 24 24" fill="none" xmlns="http://www.w3.org/2000/svg">
<g clip-path="url(#clip0_406_145)">
<path d="M22.375 0.065C21.037 0.12 9.17903 0.721 4.92003 4.979C3.24228 6.67 2.22198 8.90351 2.0422 11.2788C1.86241 13.6541 2.53491 16.0157 3.93903 17.94L0.0070343 21.879L2.12803 24L6.06003 20.061C7.98437 21.4649 10.346 22.1373 12.7212 21.9575C15.0964 21.7777 17.3299 20.7576 19.021 19.08C23.363 14.738 23.889 2.946 23.935 1.616L23.991 0L22.375 0.065ZM16.9 16.958C15.7744 18.0768 14.302 18.7798 12.7244 18.9519C11.1467 19.124 9.55736 18.7548 8.21703 17.905L16.937 9.186L14.814 7.064L6.10003 15.784C5.24932 14.4441 4.87919 12.8549 5.05035 11.277C5.22151 9.69917 5.9238 8.22629 7.04203 7.1C9.55403 4.587 16.78 3.505 20.842 3.168C20.523 7.206 19.465 14.393 16.9 16.958Z" fill="#374957"/>
</g>
<defs>
<clipPath id="clip0_406_145">
<rect width="24" height="24" fill="white"/>
</clipPath>
</defs>
</svg>
