<svg width="24" height="24" viewBox="0 0 24 24" fill="none" xmlns="http://www.w3.org/2000/svg">
<g clip-path="url(#clip0_406_107)">
<path d="M10.4141 10.4142C10.0391 10.0393 9.53045 9.82867 9.00012 9.82867C8.46979 9.82867 7.96118 10.0393 7.58612 10.4142L5.00012 13.0002V19.0002H19.0001L10.4141 10.4142Z" fill="#374957"/>
<path d="M16 10.5003C17.3807 10.5003 18.5 9.38102 18.5 8.00031C18.5 6.61959 17.3807 5.50031 16 5.50031C14.6193 5.50031 13.5 6.61959 13.5 8.00031C13.5 9.38102 14.6193 10.5003 16 10.5003Z" fill="#374957"/>
<path d="M20.9999 21.0003H15.9999V24.0003H21.5459C22.1966 23.9995 22.8205 23.7406 23.2806 23.2803C23.7407 22.82 23.9993 22.1961 23.9999 21.5453V16.0003H20.9999V21.0003Z" fill="#374957"/>
<path d="M3 3H8V0H2.454C1.80323 0.000794377 1.17935 0.259732 0.719284 0.719991C0.259213 1.18025 0.000529243 1.80423 0 2.455L0 8H3V3Z" fill="#374957"/>
<path d="M3 16.0003H0V21.5453C0.000529243 22.1961 0.259213 22.82 0.719284 23.2803C1.17935 23.7406 1.80323 23.9995 2.454 24.0003H8V21.0003H3V16.0003Z" fill="#374957"/>
<path d="M21.5459 0H15.9999V3H20.9999V8H23.9999V2.455C23.9993 1.80423 23.7407 1.18025 23.2806 0.719991C22.8205 0.259732 22.1966 0.000794377 21.5459 0V0Z" fill="#374957"/>
</g>
<defs>
<clipPath id="clip0_406_107">
<rect width="24" height="24" fill="white"/>
</clipPath>
</defs>
</svg>
