<svg width="24" height="24" viewBox="0 0 24 24" fill="none" xmlns="http://www.w3.org/2000/svg">
<g clip-path="url(#clip0_406_248)">
<path d="M24 24H18V21H21V18H24V24ZM24 3.5C24 2.57174 23.6313 1.6815 22.9749 1.02513C22.3185 0.368749 21.4283 0 20.5 0H18V3H20.5C20.632 3.00181 20.7582 3.05507 20.8516 3.14845C20.9449 3.24183 20.9982 3.36796 21 3.5V6H24V3.5ZM24 9H21V15H24V9ZM6 21H3V18H0V24H6V21ZM3 3.5C3 3.36739 3.05268 3.24021 3.14645 3.14645C3.24021 3.05268 3.36739 3 3.5 3H6V0H3.5C2.57174 0 1.6815 0.368749 1.02513 1.02513C0.368749 1.6815 0 2.57174 0 3.5L0 6H3V3.5ZM3 9H0V15H3V9ZM15 0H9V3H15V0ZM15.068 21H9V24H15.068V21Z" fill="#374957"/>
</g>
<defs>
<clipPath id="clip0_406_248">
<rect width="24" height="24" fill="white"/>
</clipPath>
</defs>
</svg>
