<svg width="24" height="24" viewBox="0 0 24 24" fill="none" xmlns="http://www.w3.org/2000/svg">
<g clip-path="url(#clip0_406_144)">
<path d="M20.9999 7.00024V7.42424C20.37 7.14528 19.6888 7.00086 18.9999 7.00024C17.6738 7.00024 16.402 7.52703 15.4644 8.46471C14.5267 9.40239 13.9999 10.6742 13.9999 12.0002C13.9999 13.3263 14.5267 14.5981 15.4644 15.5358C16.402 16.4735 17.6738 17.0002 18.9999 17.0002C19.6888 16.9996 20.37 16.8552 20.9999 16.5762V17.0002H23.9999V7.00024H20.9999ZM18.9999 14.0002C18.6043 14.0002 18.2177 13.8829 17.8888 13.6632C17.5599 13.4434 17.3035 13.1311 17.1521 12.7656C17.0008 12.4002 16.9612 11.998 17.0383 11.6101C17.1155 11.2221 17.306 10.8657 17.5857 10.586C17.8654 10.3063 18.2218 10.1158 18.6097 10.0387C18.9977 9.9615 19.3998 10.0011 19.7653 10.1525C20.1307 10.3039 20.4431 10.5602 20.6628 10.8891C20.8826 11.218 20.9999 11.6047 20.9999 12.0002C20.9999 12.5307 20.7892 13.0394 20.4141 13.4145C20.039 13.7895 19.5303 14.0002 18.9999 14.0002Z" fill="#374957"/>
<path d="M0 16.9996H3.354L4.354 14.9996H10.646L11.646 16.9996H15L7.5 1.99963L0 16.9996ZM5.854 11.9996L7.5 8.70763L9.146 11.9996H5.854Z" fill="#374957"/>
</g>
<defs>
<clipPath id="clip0_406_144">
<rect width="24" height="24" fill="white"/>
</clipPath>
</defs>
</svg>
