<svg width="24" height="24" viewBox="0 0 24 24" fill="none" xmlns="http://www.w3.org/2000/svg">
<g clip-path="url(#clip0_406_91)">
<path d="M24 24H0V3.5C0 2.57174 0.368749 1.6815 1.02513 1.02513C1.6815 0.368749 2.57174 0 3.5 0L20.5 0C21.4283 0 22.3185 0.368749 22.9749 1.02513C23.6313 1.6815 24 2.57174 24 3.5V24ZM3 21H21V3.5C20.9982 3.36796 20.9449 3.24183 20.8516 3.14845C20.7582 3.05507 20.632 3.00181 20.5 3H3.5C3.36739 3 3.24021 3.05268 3.14645 3.14645C3.05268 3.24021 3 3.36739 3 3.5V21ZM8 7V17L17 12L8 7Z" fill="#374957"/>
</g>
<defs>
<clipPath id="clip0_406_91">
<rect width="24" height="24" fill="white"/>
</clipPath>
</defs>
</svg>
