<svg width="24" height="24" viewBox="0 0 24 24" fill="none" xmlns="http://www.w3.org/2000/svg">
<g clip-path="url(#clip0_406_324)">
<path d="M21 4H18.729L15.644 0H8.356L5.271 4H3C2.20435 4 1.44129 4.31607 0.87868 4.87868C0.31607 5.44129 0 6.20435 0 7L0 24H24V7C24 6.20435 23.6839 5.44129 23.1213 4.87868C22.5587 4.31607 21.7956 4 21 4ZM21 21H3V7H21V21Z" fill="#374957"/>
<path d="M12.0001 19.5C13.0879 19.5 14.1513 19.1774 15.0557 18.5731C15.9602 17.9687 16.6652 17.1098 17.0814 16.1048C17.4977 15.0998 17.6066 13.9939 17.3944 12.927C17.1822 11.8601 16.6584 10.8801 15.8892 10.1109C15.12 9.34173 14.14 8.8179 13.0731 8.60568C12.0062 8.39346 10.9004 8.50238 9.89536 8.91867C8.89037 9.33495 8.03138 10.0399 7.42704 10.9444C6.82269 11.8488 6.50012 12.9122 6.50012 14C6.50171 15.4582 7.08168 16.8562 8.11279 17.8873C9.14389 18.9184 10.5419 19.4984 12.0001 19.5ZM12.0001 11.5C12.4946 11.5 12.9779 11.6466 13.389 11.9213C13.8002 12.196 14.1206 12.5865 14.3098 13.0433C14.499 13.5001 14.5485 14.0028 14.4521 14.4877C14.3556 14.9727 14.1175 15.4181 13.7679 15.7678C13.4182 16.1174 12.9728 16.3555 12.4878 16.452C12.0029 16.5484 11.5002 16.4989 11.0434 16.3097C10.5866 16.1205 10.1961 15.8001 9.92144 15.3889C9.64674 14.9778 9.50012 14.4945 9.50012 14C9.50012 13.337 9.76351 12.7011 10.2324 12.2322C10.7012 11.7634 11.3371 11.5 12.0001 11.5Z" fill="#374957"/>
</g>
<defs>
<clipPath id="clip0_406_324">
<rect width="24" height="24" fill="white"/>
</clipPath>
</defs>
</svg>
