<svg width="24" height="24" viewBox="0 0 24 24" fill="none" xmlns="http://www.w3.org/2000/svg">
<path d="M21.9999 23H1.99995V10.347C-1.95405 7.35204 0.465945 0.912038 5.31795 1.00004H18.6819C23.5359 0.912038 25.9529 7.35304 21.9999 10.347V23ZM4.99995 20H18.9999V8.70004L19.7449 8.26604C20.1978 8.03328 20.5586 7.65432 20.7689 7.19067C20.9793 6.72702 21.0267 6.2059 20.9036 5.71188C20.7805 5.21785 20.4941 4.77994 20.0908 4.46919C19.6875 4.15845 19.191 3.99312 18.6819 4.00004H5.31795C4.80922 3.99357 4.31322 4.1591 3.91034 4.46979C3.50746 4.78048 3.22131 5.21812 3.09827 5.71178C2.97523 6.20544 3.02252 6.72619 3.23246 7.18962C3.4424 7.65305 3.80269 8.03199 4.25495 8.26504L4.99995 8.70004V20ZM8.49994 10C8.10212 10 7.72059 10.1581 7.43928 10.4394C7.15798 10.7207 6.99995 11.1022 6.99995 11.5C6.99995 11.8979 7.15798 12.2794 7.43928 12.5607C7.72059 12.842 8.10212 13 8.49994 13C8.89777 13 9.2793 12.842 9.56061 12.5607C9.84191 12.2794 9.99994 11.8979 9.99994 11.5C9.99994 11.1022 9.84191 10.7207 9.56061 10.4394C9.2793 10.1581 8.89777 10 8.49994 10ZM13.4999 15C13.1021 15 12.7206 15.1581 12.4393 15.4394C12.158 15.7207 11.9999 16.1022 11.9999 16.5C11.9999 16.8979 12.158 17.2794 12.4393 17.5607C12.7206 17.842 13.1021 18 13.4999 18C13.8978 18 14.2793 17.842 14.5606 17.5607C14.8419 17.2794 14.9999 16.8979 14.9999 16.5C14.9999 16.1022 14.8419 15.7207 14.5606 15.4394C14.2793 15.1581 13.8978 15 13.4999 15ZM8.49994 15C8.10212 15 7.72059 15.1581 7.43928 15.4394C7.15798 15.7207 6.99995 16.1022 6.99995 16.5C6.99995 16.8979 7.15798 17.2794 7.43928 17.5607C7.72059 17.842 8.10212 18 8.49994 18C8.89777 18 9.2793 17.842 9.56061 17.5607C9.84191 17.2794 9.99994 16.8979 9.99994 16.5C9.99994 16.1022 9.84191 15.7207 9.56061 15.4394C9.2793 15.1581 8.89777 15 8.49994 15Z" fill="#374957"/>
</svg>
