<svg width="24" height="24" viewBox="0 0 24 24" fill="none" xmlns="http://www.w3.org/2000/svg">
<g clip-path="url(#clip0_406_69)">
<path d="M20.5 5H14.042L13.661 4.587L17 2.5L13 0H11V3.871L9.958 5H3.5C2.57174 5 1.6815 5.36875 1.02513 6.02513C0.368749 6.6815 0 7.57174 0 8.5L0 24H24V8.5C24 7.57174 23.6313 6.6815 22.9749 6.02513C22.3185 5.36875 21.4283 5 20.5 5ZM20.5 8C20.6326 8 20.7598 8.05268 20.8536 8.14645C20.9473 8.24021 21 8.36739 21 8.5V10H18.657L16.811 8H20.5ZM3.5 8H7.189L5.343 10H3V8.5C3 8.36739 3.05268 8.24021 3.14645 8.14645C3.24021 8.05268 3.36739 8 3.5 8ZM14 21V17C14 16.4696 13.7893 15.9609 13.4142 15.5858C13.0391 15.2107 12.5304 15 12 15C11.4696 15 10.9609 15.2107 10.5858 15.5858C10.2107 15.9609 10 16.4696 10 17V21H3V13H6.657L12 7.212L17.343 13H21V21H14ZM5 16H8V19H5V16ZM16 16H19V19H16V16ZM13.5 11.5C13.5 11.7967 13.412 12.0867 13.2472 12.3334C13.0824 12.58 12.8481 12.7723 12.574 12.8858C12.2999 12.9994 11.9983 13.0291 11.7074 12.9712C11.4164 12.9133 11.1491 12.7704 10.9393 12.5607C10.7296 12.3509 10.5867 12.0836 10.5288 11.7926C10.4709 11.5017 10.5006 11.2001 10.6142 10.926C10.7277 10.6519 10.92 10.4176 11.1666 10.2528C11.4133 10.088 11.7033 10 12 10C12.3978 10 12.7794 10.158 13.0607 10.4393C13.342 10.7206 13.5 11.1022 13.5 11.5Z" fill="#374957"/>
</g>
<defs>
<clipPath id="clip0_406_69">
<rect width="24" height="24" fill="white"/>
</clipPath>
</defs>
</svg>
