<svg width="24" height="24" viewBox="0 0 24 24" fill="none" xmlns="http://www.w3.org/2000/svg">
<g clip-path="url(#clip0_406_222)">
<path d="M24.0001 15.5C23.9995 14.7606 23.8167 14.0327 23.4678 13.3807C23.119 12.7288 22.6149 12.1728 22.0001 11.762V3.5C22.0001 2.57174 21.6313 1.6815 20.9749 1.02513C20.3186 0.368749 19.4283 0 18.5001 0H5.50006C4.5718 0 3.68156 0.368749 3.02519 1.02513C2.36881 1.6815 2.00006 2.57174 2.00006 3.5V22H14.0001V19H5.00006V3.5C5.00006 3.36739 5.05274 3.24021 5.14651 3.14645C5.24028 3.05268 5.36745 3 5.50006 3H18.5001C18.6327 3 18.7598 3.05268 18.8536 3.14645C18.9474 3.24021 19.0001 3.36739 19.0001 3.5V11.051C18.0842 11.1498 17.2211 11.5284 16.5281 12.1353C15.8352 12.7422 15.3461 13.5479 15.1275 14.4428C14.9089 15.3376 14.9714 16.2781 15.3065 17.1361C15.6416 17.9942 16.2329 18.7281 17.0001 19.238V24L19.5001 21.5L22.0001 24V19.238C22.6149 18.8272 23.119 18.2712 23.4678 17.6193C23.8167 16.9673 23.9995 16.2394 24.0001 15.5ZM19.5001 14C19.7967 14 20.0867 14.088 20.3334 14.2528C20.5801 14.4176 20.7723 14.6519 20.8859 14.926C20.9994 15.2001 21.0291 15.5017 20.9712 15.7926C20.9134 16.0836 20.7705 16.3509 20.5607 16.5607C20.3509 16.7704 20.0837 16.9133 19.7927 16.9712C19.5017 17.0291 19.2001 16.9993 18.926 16.8858C18.6519 16.7723 18.4177 16.58 18.2529 16.3334C18.088 16.0867 18.0001 15.7967 18.0001 15.5C18.0001 15.1022 18.1581 14.7206 18.4394 14.4393C18.7207 14.158 19.1022 14 19.5001 14ZM17.0001 8H7.00006V5H17.0001V8ZM7.00006 10H13.0001V13H7.00006V10Z" fill="#374957"/>
</g>
<defs>
<clipPath id="clip0_406_222">
<rect width="24" height="24" fill="white"/>
</clipPath>
</defs>
</svg>
