<svg width="24" height="24" viewBox="0 0 24 24" fill="none" xmlns="http://www.w3.org/2000/svg">
<path d="M15.0002 15.9993C14.9999 16.5258 14.861 17.043 14.5975 17.4988C14.3339 17.9547 13.9551 18.3331 13.499 18.5962C13.0429 18.8592 12.5256 18.9976 11.999 18.9974C11.4725 18.9972 10.9553 18.8584 10.4994 18.595C10.0435 18.3316 9.66495 17.9528 9.40179 17.4968C9.13864 17.0407 9.00014 16.5234 9.00023 15.9969C9.00031 15.4704 9.13897 14.9531 9.40227 14.4972C9.66557 14.0412 10.0442 13.6626 10.5002 13.3993V7.9993H13.5002V13.3993C13.9566 13.6628 14.3355 14.0418 14.5988 14.4982C14.8621 14.9546 15.0006 15.4724 15.0002 15.9993ZM20.0002 15.9623C19.9978 18.0833 19.1542 20.1168 17.6545 21.6165C16.1547 23.1163 14.1212 23.9599 12.0002 23.9623C5.22823 24.0513 1.43723 15.7023 6.00023 10.6913V5.9993C6.25323 -1.9327 17.7502 -1.9267 18.0002 5.9993V10.6913C19.2919 12.1429 20.0039 14.0192 20.0002 15.9623ZM17.0002 15.9623C17.0005 15.2908 16.8639 14.6263 16.599 14.0092C16.3341 13.3922 15.9463 12.8356 15.4592 12.3733L15.0002 11.9313V5.9993C15.0002 5.20365 14.6842 4.44059 14.1215 3.87798C13.5589 3.31537 12.7959 2.9993 12.0002 2.9993C11.2046 2.9993 10.4415 3.31537 9.87891 3.87798C9.3163 4.44059 9.00023 5.20365 9.00023 5.9993V11.9313L8.54123 12.3733C7.94675 12.9461 7.50353 13.6573 7.25122 14.4433C6.9989 15.2293 6.94537 16.0656 7.09541 16.8773C7.24545 17.6891 7.59438 18.451 8.11098 19.0949C8.62758 19.7388 9.29574 20.2446 10.0557 20.567C10.8156 20.8894 11.6436 21.0184 12.4656 20.9425C13.2876 20.8665 14.078 20.588 14.766 20.1318C15.454 19.6756 16.0182 19.056 16.4081 18.3284C16.798 17.6007 17.0014 16.7878 17.0002 15.9623Z" fill="#374957"/>
</svg>
