<svg width="24" height="24" viewBox="0 0 24 24" fill="none" xmlns="http://www.w3.org/2000/svg">
<g clip-path="url(#clip0_406_308)">
<path d="M13.9999 23.9997C10.8184 23.9963 7.76816 22.7309 5.51847 20.4812C3.26878 18.2315 2.00339 15.1813 1.99995 11.9997C1.84695 3.04271 12.0309 -2.98329 19.7919 1.50771L22.1219 2.79971L19.8089 4.12171C18.4531 4.90747 17.3392 6.05076 16.5891 7.42668C15.839 8.80259 15.4815 10.3582 15.5556 11.9236C15.6297 13.4889 16.1326 15.0038 17.0093 16.3027C17.886 17.6016 19.1029 18.6345 20.5269 19.2887L22.9599 20.3887L20.7599 21.8967C18.7716 23.2661 16.4142 23.9994 13.9999 23.9997ZM13.9999 2.99971C12.6938 2.99604 11.4026 3.27671 10.2158 3.82222C9.02906 4.36772 7.97527 5.165 7.1276 6.15868C6.27992 7.15237 5.65869 8.31865 5.30704 9.57654C4.95538 10.8344 4.88173 12.1538 5.09119 13.443C5.30065 14.7322 5.78821 15.9604 6.52002 17.0423C7.25182 18.1241 8.21033 19.0337 9.32899 19.7079C10.4477 20.3822 11.6997 20.8048 12.9981 20.9465C14.2965 21.0883 15.6102 20.9457 16.8479 20.5287C11.4819 16.5067 11.0549 7.75871 16.0309 3.22871C15.365 3.0744 14.6835 2.99755 13.9999 2.99971Z" fill="#374957"/>
</g>
<defs>
<clipPath id="clip0_406_308">
<rect width="24" height="24" fill="white"/>
</clipPath>
</defs>
</svg>
