<svg width="24" height="24" viewBox="0 0 24 24" fill="none" xmlns="http://www.w3.org/2000/svg">
<g clip-path="url(#clip0_406_349)">
<path d="M20.0001 4V0H17.0001V4H13.0001V7H17.0001V11H20.0001V7H24.0001V4H20.0001Z" fill="#374957"/>
<path d="M0 3V11H11V0H3C2.20435 0 1.44129 0.31607 0.87868 0.87868C0.31607 1.44129 0 2.20435 0 3H0ZM3 3H8V8H3V3Z" fill="#374957"/>
<path d="M0 21C0 21.7956 0.31607 22.5587 0.87868 23.1213C1.44129 23.6839 2.20435 24 3 24H11V13H0V21ZM3 16H8V21H3V16Z" fill="#374957"/>
<path d="M13.0001 24H21.0001C21.7957 24 22.5588 23.6839 23.1214 23.1213C23.684 22.5587 24.0001 21.7956 24.0001 21V13H13.0001V24ZM16.0001 16H21.0001V21H16.0001V16Z" fill="#374957"/>
</g>
<defs>
<clipPath id="clip0_406_349">
<rect width="24" height="24" fill="white"/>
</clipPath>
</defs>
</svg>
