<svg width="24" height="24" viewBox="0 0 24 24" fill="none" xmlns="http://www.w3.org/2000/svg">
<g clip-path="url(#clip0_406_120)">
<path d="M23.9999 14V8C23.9999 7.73478 23.8946 7.48043 23.707 7.29289C23.5195 7.10536 23.2651 7 22.9999 7H16.9999L19.4389 9.439L16.9049 11.974C15.8831 11.3378 14.7036 11.0004 13.4999 11C13.3199 11 13.1439 11.017 12.9679 11.032C12.9819 10.856 12.9999 10.68 12.9999 10.5C12.9985 9.29803 12.6612 8.12038 12.0259 7.1L14.5609 4.566L16.9999 7V1C16.9999 0.734784 16.8946 0.48043 16.707 0.292893C16.5195 0.105357 16.2651 0 15.9999 0L9.99992 0L12.4389 2.439L9.89992 4.974C9.04428 4.44408 8.07727 4.12009 7.07508 4.02757C6.07289 3.93504 5.06291 4.0765 4.12471 4.4408C3.18651 4.80511 2.34572 5.3823 1.66859 6.1269C0.991462 6.87151 0.496493 7.76318 0.222681 8.73167C-0.0511302 9.70016 -0.0963027 10.719 0.0907229 11.7079C0.277748 12.6968 0.691862 13.6288 1.30044 14.4304C1.90901 15.232 2.69542 15.8814 3.5977 16.3273C4.49998 16.7732 5.49348 17.0035 6.49992 17C6.67792 17 6.85192 16.982 7.02592 16.968C7.01092 17.143 6.99992 17.32 6.99992 17.5C6.99645 18.5064 7.22674 19.4999 7.67265 20.4022C8.11855 21.3045 8.76789 22.0909 9.5695 22.6995C10.3711 23.3081 11.3031 23.7222 12.292 23.9092C13.2809 24.0962 14.2998 24.0511 15.2683 23.7772C16.2367 23.5034 17.1284 23.0085 17.873 22.3313C18.6176 21.6542 19.1948 20.8134 19.5591 19.8752C19.9234 18.937 20.0649 17.927 19.9724 16.9248C19.8798 15.9227 19.5558 14.9556 19.0259 14.1L21.5609 11.566L23.9999 14ZM2.99992 10.5C2.99992 9.80777 3.20519 9.13108 3.58978 8.5555C3.97436 7.97993 4.52099 7.53133 5.16053 7.26642C5.80007 7.00152 6.5038 6.9322 7.18274 7.06725C7.86167 7.2023 8.48531 7.53564 8.97479 8.02513C9.46428 8.51461 9.79762 9.13825 9.93267 9.81718C10.0677 10.4961 9.99841 11.1999 9.7335 11.8394C9.46859 12.4789 9.01999 13.0256 8.44442 13.4101C7.86884 13.7947 7.19216 14 6.49992 14C5.57166 14 4.68142 13.6313 4.02505 12.9749C3.36867 12.3185 2.99992 11.4283 2.99992 10.5ZM13.4999 21C12.8077 21 12.131 20.7947 11.5554 20.4101C10.9799 20.0256 10.5312 19.4789 10.2663 18.8394C10.0014 18.1999 9.93212 17.4961 10.0672 16.8172C10.2022 16.1383 10.5356 15.5146 11.025 15.0251C11.5145 14.5356 12.1382 14.2023 12.8171 14.0673C13.496 13.9322 14.1998 14.0015 14.8393 14.2664C15.4789 14.5313 16.0255 14.9799 16.4101 15.5555C16.7946 16.1311 16.9999 16.8078 16.9999 17.5C16.9999 18.4283 16.6312 19.3185 15.9748 19.9749C15.3184 20.6313 14.4282 21 13.4999 21Z" fill="#374957"/>
</g>
<defs>
<clipPath id="clip0_406_120">
<rect width="24" height="24" fill="white"/>
</clipPath>
</defs>
</svg>
