<svg width="24" height="24" viewBox="0 0 24 24" fill="none" xmlns="http://www.w3.org/2000/svg">
<g clip-path="url(#clip0_406_274)">
<path d="M9.5 0H3.5C2.57174 0 1.6815 0.368749 1.02513 1.02513C0.368749 1.6815 0 2.57174 0 3.5L0 10H5V11H3V14H10V11H8V10H13V3.5C13 2.57174 12.6313 1.6815 11.9749 1.02513C11.3185 0.368749 10.4283 0 9.5 0ZM10 7H3V3.5C3 3.36739 3.05268 3.24021 3.14645 3.14645C3.24021 3.05268 3.36739 3 3.5 3H9.5C9.63261 3 9.75979 3.05268 9.85355 3.14645C9.94732 3.24021 10 3.36739 10 3.5V7ZM17.5 6H15V3H17.5C18.4283 3 19.3185 3.36875 19.9749 4.02513C20.6313 4.6815 21 5.57174 21 6.5V9H18V6.5C18 6.36739 17.9473 6.24021 17.8536 6.14645C17.7598 6.05268 17.6326 6 17.5 6ZM8.5 19H13V22H8.5C7.57174 22 6.6815 21.6313 6.02513 20.9749C5.36875 20.3185 5 19.4283 5 18.5V16H8V18.5C8 18.6326 8.05268 18.7598 8.14645 18.8536C8.24021 18.9473 8.36739 19 8.5 19ZM21 11H18C17.2044 11 16.4413 11.3161 15.8787 11.8787C15.3161 12.4413 15 13.2044 15 14V24H24V14C24 13.2044 23.6839 12.4413 23.1213 11.8787C22.5587 11.3161 21.7956 11 21 11ZM19.5 22C19.2033 22 18.9133 21.912 18.6666 21.7472C18.42 21.5824 18.2277 21.3481 18.1142 21.074C18.0007 20.7999 17.9709 20.4983 18.0288 20.2074C18.0867 19.9164 18.2296 19.6491 18.4393 19.4393C18.6491 19.2296 18.9164 19.0867 19.2074 19.0288C19.4983 18.9709 19.7999 19.0007 20.074 19.1142C20.3481 19.2277 20.5824 19.42 20.7472 19.6666C20.912 19.9133 21 20.2033 21 20.5C21 20.8978 20.842 21.2794 20.5607 21.5607C20.2794 21.842 19.8978 22 19.5 22Z" fill="#374957"/>
</g>
<defs>
<clipPath id="clip0_406_274">
<rect width="24" height="24" fill="white"/>
</clipPath>
</defs>
</svg>
