<svg width="24" height="24" viewBox="0 0 24 24" fill="none" xmlns="http://www.w3.org/2000/svg">
<g clip-path="url(#clip0_406_342)">
<path d="M16.0001 8.00061C14.1429 7.99882 12.3435 8.64614 10.9131 9.83061C10.2976 9.51224 9.64056 9.28166 8.9611 9.14561L10.3331 6.40061L9.0001 5.00061H6.0001L4.7331 6.40061L6.1001 9.13661C5.00521 9.342 3.96983 9.7887 3.06918 10.4443C2.16852 11.0998 1.42522 11.9478 0.893259 12.9266C0.361302 13.9053 0.0540558 14.9903 -0.00615594 16.1027C-0.0663677 17.215 0.121967 18.3268 0.545164 19.3573C0.968362 20.3877 1.61579 21.311 2.44042 22.0599C3.26505 22.8089 4.24616 23.3648 5.31248 23.6871C6.37879 24.0095 7.50353 24.0903 8.60497 23.9236C9.70641 23.757 10.7569 23.347 11.6801 22.7236C12.7259 23.3981 13.9146 23.8193 15.1517 23.9538C16.3888 24.0882 17.6402 23.9322 18.8065 23.4982C19.9727 23.0641 21.0217 22.364 21.8698 21.4535C22.718 20.5429 23.3421 19.4471 23.6925 18.253C24.0429 17.0589 24.1098 15.7996 23.8881 14.5751C23.6664 13.3506 23.162 12.1947 22.4152 11.1994C21.6683 10.204 20.6996 9.39654 19.586 8.84125C18.4723 8.28596 17.2445 7.99812 16.0001 8.00061ZM3.0001 16.5006C3.00142 15.3075 3.47595 14.1637 4.31958 13.3201C5.16321 12.4765 6.30703 12.0019 7.5001 12.0006C7.98927 12.0062 8.47415 12.0927 8.9351 12.2566C8.2458 13.5503 7.92708 15.0092 8.01407 16.4725C8.10106 17.9358 8.59038 19.3467 9.4281 20.5496C8.82749 20.8429 8.16849 20.9971 7.5001 21.0006C6.30703 20.9993 5.16321 20.5248 4.31958 19.6811C3.47595 18.8375 3.00142 17.6937 3.0001 16.5006ZM16.0001 21.0006C15.2506 20.9966 14.5119 20.8219 13.8401 20.4896C14.6779 19.1689 15.0792 17.6183 14.9873 16.057C14.8954 14.4958 14.315 13.0029 13.3281 11.7896C13.9826 11.3738 14.7249 11.116 15.4962 11.0368C16.2675 10.9575 17.0467 11.0589 17.7721 11.333C18.4975 11.607 19.1491 12.0462 19.6753 12.6156C20.2015 13.1851 20.588 13.8693 20.804 14.614C21.02 15.3587 21.0597 16.1435 20.9199 16.9062C20.7801 17.6688 20.4647 18.3885 19.9986 19.0082C19.5325 19.6279 18.9285 20.1305 18.2345 20.4763C17.5405 20.8222 16.7755 21.0016 16.0001 21.0006Z" fill="#374957"/>
<path d="M12.4723 0.651615L10.1839 2.93958L12.3049 5.06112L14.5934 2.77316L12.4723 0.651615Z" fill="#374957"/>
<path d="M2.59427 0.651933L0.472946 2.77325L2.72296 5.02327L4.84428 2.90195L2.59427 0.651933Z" fill="#374957"/>
<path d="M9 0H6V3H9V0Z" fill="#374957"/>
</g>
<defs>
<clipPath id="clip0_406_342">
<rect width="24" height="24" fill="white"/>
</clipPath>
</defs>
</svg>
