<svg width="24" height="24" viewBox="0 0 24 24" fill="none" xmlns="http://www.w3.org/2000/svg">
<path d="M22.9998 23.7991L14.9998 18.0851V23.7991L1.81984 14.3921C1.39522 14.0888 1.04914 13.6886 0.810362 13.2246C0.571588 12.7607 0.447021 12.2464 0.447021 11.7246C0.447021 11.2028 0.571588 10.6885 0.810362 10.2246C1.04914 9.76062 1.39522 9.36037 1.81984 9.0571L1.86284 9.0281L14.9998 0.316097V5.9101L22.9998 0.199097V23.7991ZM3.55084 11.5081C3.51852 11.5341 3.49267 11.5672 3.47532 11.6048C3.45796 11.6425 3.44959 11.6837 3.45084 11.7251C3.45024 11.7694 3.46049 11.8131 3.48072 11.8525C3.50094 11.8919 3.53051 11.9258 3.56684 11.9511L11.9998 17.9741V12.2591L19.9998 17.9731V6.0251L11.9998 11.7391V5.9051L3.55084 11.5081Z" fill="#374957"/>
</svg>
