<svg width="24" height="24" viewBox="0 0 24 24" fill="none" xmlns="http://www.w3.org/2000/svg">
<g clip-path="url(#clip0_406_389)">
<path d="M23.021 0.978505C22.6667 0.622919 22.2378 0.350597 21.7652 0.181271C21.2927 0.0119455 20.7884 -0.050143 20.289 -0.00049516C18.489 0.175505 12.289 1.0865 7.93896 5.43951C4.40664 8.87512 1.82593 13.1683 0.448956 17.8995L0.148956 18.7785L5.21996 23.8495L6.09896 23.5555C10.829 22.1772 15.1209 19.5962 18.556 16.0645C22.914 11.7065 23.825 5.5075 24 3.7115C24.0495 3.21188 23.9873 2.7075 23.818 2.23483C23.6487 1.76217 23.3764 1.33305 23.021 0.978505ZM16.439 13.9385C13.5537 16.9181 9.9776 19.1394 6.02796 20.4055L5.87096 20.2495L17.561 8.5605L15.439 6.43851L3.74996 18.1285L3.59396 17.9725C4.85987 14.0225 7.08124 10.446 10.061 7.5605C13.709 3.9115 19.035 3.1355 20.581 2.9845C20.6394 2.97835 20.6984 2.9855 20.7536 3.00542C20.8089 3.02533 20.8589 3.0575 20.9 3.0995C20.9419 3.14063 20.9741 3.19063 20.9942 3.24584C21.0142 3.30104 21.0217 3.36004 21.016 3.4185C20.864 4.9645 20.088 10.2905 16.439 13.9385Z" fill="#374957"/>
</g>
<defs>
<clipPath id="clip0_406_389">
<rect width="24" height="24" fill="white"/>
</clipPath>
</defs>
</svg>
