<svg width="24" height="24" viewBox="0 0 24 24" fill="none" xmlns="http://www.w3.org/2000/svg">
<path d="M12.0001 23.9944L4.9401 17.0894C3.06316 15.2155 2.0075 12.6728 2.00534 10.0205C2.00319 7.36831 3.05471 4.82384 4.9286 2.94691C6.80249 1.06997 9.34524 0.014306 11.9975 0.0121493C14.6497 0.00999264 17.1942 1.06152 19.0711 2.93541C20.9442 4.81176 21.9962 7.35467 21.9962 10.0059C21.9962 12.6571 20.9442 15.2001 19.0711 17.0764L12.0001 23.9944ZM12.0001 3.00641C10.6156 3.00631 9.26208 3.4168 8.11085 4.18596C6.95961 4.95512 6.06232 6.04841 5.53247 7.32755C5.00261 8.6067 4.86399 10.0142 5.13413 11.3722C5.40427 12.7301 6.07103 13.9774 7.0501 14.9564L12.0001 19.8004L16.9621 14.9474C17.9388 13.9672 18.6031 12.7196 18.8711 11.3621C19.1391 10.0046 18.9987 8.59807 18.4677 7.32029C17.9368 6.0425 17.039 4.95075 15.8878 4.18294C14.7367 3.41513 13.3838 3.00571 12.0001 3.00641ZM13.9391 14.0614L10.5001 10.6214V6.00041H13.5001V9.37941L16.0611 11.9394L13.9391 14.0614Z" fill="#374957"/>
</svg>
