<svg width="24" height="24" viewBox="0 0 24 24" fill="none" xmlns="http://www.w3.org/2000/svg">
<g clip-path="url(#clip0_406_92)">
<path d="M20.5 9H18.134L14.309 1.823C14.0078 1.27114 13.5634 0.81061 13.0227 0.489823C12.482 0.169037 11.8648 -0.000165267 11.236 1.21129e-07H6.43604L9.18104 9H7.01704L4.89204 7.285C4.57357 6.985 4.19134 6.76095 3.77399 6.62962C3.35664 6.4983 2.91499 6.46312 2.48211 6.5267C2.04923 6.59029 1.63635 6.751 1.2744 6.99679C0.912441 7.24258 0.610792 7.56709 0.392043 7.946C0.137171 8.37522 -0.000406194 8.8639 -0.00690006 9.36305C-0.0133939 9.8622 0.111424 10.3543 0.355043 10.79L3.57504 17H9.18704L6.18704 24H11.236C11.846 24.0001 12.4453 23.8407 12.9747 23.5378C13.5041 23.2349 13.9451 22.7989 14.254 22.273L18.1 17H24V12.5C24 11.5717 23.6313 10.6815 22.9749 10.0251C22.3185 9.36875 21.4283 9 20.5 9ZM10.487 3H11.236C11.3233 2.99987 11.4092 3.02261 11.485 3.06594C11.5607 3.10927 11.6239 3.1717 11.668 3.247L14.734 9H12.317L10.487 3ZM21 14H16.569L11.779 20.575L11.679 20.739C11.6361 20.8179 11.5726 20.8838 11.4954 20.9298C11.4181 20.9757 11.3299 21 11.24 21H10.74L13.74 14H5.39104L3.13004 9.719L5.95704 12H20.5C20.6327 12 20.7598 12.0527 20.8536 12.1464C20.9474 12.2402 21 12.3674 21 12.5V14Z" fill="#374957"/>
</g>
<defs>
<clipPath id="clip0_406_92">
<rect width="24" height="24" fill="white"/>
</clipPath>
</defs>
</svg>
