<svg width="24" height="24" viewBox="0 0 24 24" fill="none" xmlns="http://www.w3.org/2000/svg">
<g clip-path="url(#clip0_406_64)">
<path d="M10.7 2.62535C10.4188 2.02749 9.9733 1.522 9.41551 1.16794C8.85771 0.813871 8.21068 0.625854 7.55 0.625854C6.88932 0.625854 6.24229 0.813871 5.68449 1.16794C5.1267 1.522 4.68118 2.02749 4.4 2.62535H0V5.62535H4.395C4.67618 6.2232 5.1217 6.7287 5.67949 7.08276C6.23729 7.43683 6.88432 7.62484 7.545 7.62484C8.20568 7.62484 8.85271 7.43683 9.41051 7.08276C9.9683 6.7287 10.4138 6.2232 10.695 5.62535H24V2.62535H10.7Z" fill="#374957"/>
<path d="M16.455 8.49939C15.7944 8.50057 15.1477 8.68911 14.5899 9.04312C14.0321 9.39714 13.5863 9.90211 13.304 10.4994H0V13.4994H13.3C13.5812 14.0972 14.0267 14.6027 14.5845 14.9568C15.1423 15.3109 15.7893 15.4989 16.45 15.4989C17.1107 15.4989 17.7577 15.3109 18.3155 14.9568C18.8733 14.6027 19.3188 14.0972 19.6 13.4994H24V10.4994H19.605C19.3228 9.90226 18.8771 9.3974 18.3195 9.04339C17.762 8.68939 17.1154 8.50075 16.455 8.49939Z" fill="#374957"/>
<path d="M7.545 16.3744C6.88455 16.3758 6.23804 16.5644 5.68048 16.9184C5.12292 17.2724 4.67718 17.7773 4.395 18.3744H0V21.3744H4.395C4.67618 21.9722 5.1217 22.4777 5.67949 22.8318C6.23729 23.1859 6.88432 23.3739 7.545 23.3739C8.20568 23.3739 8.85271 23.1859 9.41051 22.8318C9.9683 22.4777 10.4138 21.9722 10.695 21.3744H24V18.3744H10.7C10.4175 17.7765 9.97094 17.2711 9.41241 16.9171C8.85388 16.563 8.2063 16.3748 7.545 16.3744Z" fill="#374957"/>
</g>
<defs>
<clipPath id="clip0_406_64">
<rect width="24" height="24" fill="white"/>
</clipPath>
</defs>
</svg>
