<svg width="24" height="24" viewBox="0 0 24 24" fill="none" xmlns="http://www.w3.org/2000/svg">
<g clip-path="url(#clip0_406_184)">
<path d="M12 14.9998C11.2043 14.9998 10.4413 14.6837 9.87865 14.1211C9.31604 13.5585 8.99997 12.7954 8.99997 11.9998C8.99997 11.2041 9.31604 10.441 9.87865 9.87843C10.4413 9.31582 11.2043 8.99975 12 8.99975C12.7956 8.99975 13.5587 9.31582 14.1213 9.87843C14.6839 10.441 15 11.2041 15 11.9998C15 12.7954 14.6839 13.5585 14.1213 14.1211C13.5587 14.6837 12.7956 14.9998 12 14.9998ZM12 23.9998C10.956 23.9986 9.93847 23.6713 9.08967 23.0634C8.24088 22.4556 7.60326 21.5977 7.26597 20.6098C6.19384 20.8057 5.0874 20.6677 4.09621 20.2145C3.10501 19.7614 2.27686 19.0148 1.72367 18.0757C1.17049 17.1366 0.918949 16.0504 1.00306 14.9638C1.08717 13.8771 1.50287 12.8425 2.19397 11.9998C1.50287 11.157 1.08717 10.1224 1.00306 9.03575C0.918949 7.94912 1.17049 6.86286 1.72367 5.92379C2.27686 4.98473 3.10501 4.23815 4.09621 3.78496C5.0874 3.33176 6.19384 3.19381 7.26597 3.38975C7.61016 2.40888 8.25053 1.55915 9.09858 0.957987C9.94662 0.356829 10.9605 0.0339355 12 0.0339355C13.0395 0.0339355 14.0533 0.356829 14.9014 0.957987C15.7494 1.55915 16.3898 2.40888 16.734 3.38975C17.8061 3.19381 18.9125 3.33176 19.9037 3.78496C20.8949 4.23815 21.7231 4.98473 22.2763 5.92379C22.8295 6.86286 23.081 7.94912 22.9969 9.03575C22.9128 10.1224 22.4971 11.157 21.806 11.9998C22.4971 12.8425 22.9128 13.8771 22.9969 14.9638C23.081 16.0504 22.8295 17.1366 22.2763 18.0757C21.7231 19.0148 20.8949 19.7614 19.9037 20.2145C18.9125 20.6677 17.8061 20.8057 16.734 20.6098C16.3967 21.5977 15.7591 22.4556 14.9103 23.0634C14.0615 23.6713 13.0439 23.9986 12 23.9998ZM9.99997 15.6878V18.9998C9.99997 19.5302 10.2107 20.0389 10.5858 20.414C10.9608 20.789 11.4695 20.9998 12 20.9998C12.5304 20.9998 13.0391 20.789 13.4142 20.414C13.7893 20.0389 14 19.5302 14 18.9998V15.7998L16.581 17.3888C16.8488 17.5423 17.1447 17.6408 17.4512 17.6783C17.7577 17.7157 18.0686 17.6915 18.3655 17.607C18.6625 17.5224 18.9395 17.3793 19.1804 17.1861C19.4212 16.9928 19.6209 16.7533 19.7677 16.4817C19.9145 16.2101 20.0055 15.9118 20.0353 15.6045C20.065 15.2972 20.033 14.987 19.9411 14.6922C19.8491 14.3975 19.6991 14.1241 19.4999 13.8882C19.3006 13.6523 19.0562 13.4587 18.781 13.3188L16.362 11.9998L18.783 10.6828C19.0582 10.5428 19.3026 10.3492 19.5019 10.1133C19.7011 9.87739 19.8511 9.60402 19.9431 9.30927C20.035 9.01451 20.067 8.70433 20.0373 8.39701C20.0075 8.08968 19.9165 7.79142 19.7697 7.5198C19.6229 7.24817 19.4232 7.00868 19.1824 6.81543C18.9415 6.62217 18.6645 6.47907 18.3675 6.39454C18.0706 6.31001 17.7597 6.28577 17.4532 6.32325C17.1467 6.36073 16.8508 6.45916 16.583 6.61275L14 8.19975V4.99975C14 4.46932 13.7893 3.96061 13.4142 3.58554C13.0391 3.21046 12.5304 2.99975 12 2.99975C11.4695 2.99975 10.9608 3.21046 10.5858 3.58554C10.2107 3.96061 9.99997 4.46932 9.99997 4.99975V8.31175L7.39997 6.59975C7.13152 6.44996 6.83591 6.35515 6.53042 6.32088C6.22492 6.2866 5.91565 6.31354 5.62068 6.40012C5.32571 6.4867 5.05095 6.63119 4.81245 6.82515C4.57394 7.01911 4.37647 7.25864 4.23158 7.52977C4.08668 7.80089 3.99726 8.09817 3.96853 8.40424C3.93981 8.71031 3.97236 9.01904 4.06429 9.31239C4.15621 9.60573 4.30567 9.87783 4.50392 10.1128C4.70218 10.3477 4.94526 10.5408 5.21897 10.6808L7.63797 11.9998L5.21697 13.3168C4.67553 13.6062 4.27126 14.0989 4.0931 14.6865C3.91494 15.2741 3.97749 15.9083 4.26697 16.4498C4.55645 16.9912 5.04917 17.3955 5.63672 17.5736C6.22427 17.7518 6.85853 17.6892 7.39997 17.3998L9.99997 15.6878Z" fill="#374957"/>
</g>
<defs>
<clipPath id="clip0_406_184">
<rect width="24" height="24" fill="white"/>
</clipPath>
</defs>
</svg>
