<svg width="24" height="24" viewBox="0 0 24 24" fill="none" xmlns="http://www.w3.org/2000/svg">
<g clip-path="url(#clip0_406_152)">
<path d="M9.99978 2C9.99978 1.46957 10.2105 0.960859 10.5856 0.585787C10.9606 0.210714 11.4693 0 11.9998 0C12.5302 0 13.0389 0.210714 13.414 0.585787C13.7891 0.960859 13.9998 1.46957 13.9998 2C13.9998 2.53043 13.7891 3.03914 13.414 3.41421C13.0389 3.78929 12.5302 4 11.9998 4C11.4693 4 10.9606 3.78929 10.5856 3.41421C10.2105 3.03914 9.99978 2.53043 9.99978 2ZM21.5538 13.6C24.3758 16.918 22.3458 21.88 20.9538 23.341L20.3538 24.048L19.4538 23.823C17.2624 23.2027 15.2333 22.1105 13.5088 20.623V23H10.5088V20.618C8.78424 22.1055 6.75513 23.1977 4.56378 23.818L3.66378 24.043L3.06378 23.336C1.65178 21.847 -0.354219 16.913 2.46378 13.595C1.7299 12.9631 1.1332 12.1877 0.710458 11.3164C0.287719 10.4451 0.0478993 9.4965 0.00578096 8.529C-0.0178946 6.49689 0.460966 4.49041 1.39978 2.688C1.81719 1.96913 2.48295 1.42761 3.27176 1.16535C4.06057 0.903092 4.91803 0.938175 5.68278 1.264C8.0826 2.42154 10.2295 4.0427 11.9998 6.034C13.77 4.0427 15.917 2.42154 18.3168 1.264C19.0821 0.936769 19.9407 0.900938 20.7307 1.16327C21.5206 1.4256 22.1872 1.96795 22.6048 2.688C23.5419 4.49086 24.019 6.49731 23.9938 8.529C23.9546 9.49601 23.7179 10.4448 23.2983 11.3169C22.8787 12.189 22.285 12.966 21.5538 13.6ZM10.4998 14.994C9.50288 15.2834 8.46983 15.4292 7.43178 15.427C6.64805 15.4375 5.86753 15.3248 5.11878 15.093C3.46678 16.631 3.93478 19.148 4.81078 20.601C7.77078 19.495 10.4998 16.901 10.4998 15.491V14.994ZM10.4998 8.861C8.87258 6.84569 6.83556 5.1993 4.52378 4.031C4.43452 3.98676 4.33224 3.97636 4.2359 4.00174C4.13956 4.02711 4.05568 4.08653 3.99978 4.169C3.33796 5.48664 2.9954 6.9415 2.99978 8.416C3.08319 9.51769 3.58372 10.5461 4.39929 11.2914C5.21487 12.0367 6.28405 12.4429 7.38878 12.427C8.46852 12.477 9.54179 12.2352 10.4958 11.727L10.4998 8.861ZM19.9998 17.747C19.9968 17.2528 19.8965 16.764 19.7045 16.3086C19.5125 15.8532 19.2326 15.4401 18.8808 15.093C18.132 15.3248 17.3515 15.4375 16.5678 15.427C15.5297 15.4292 14.4967 15.2834 13.4998 14.994V15.494C13.4998 16.906 16.2288 19.494 19.1888 20.604C19.6956 19.7353 19.9746 18.7525 19.9998 17.747ZM19.9998 4.169C19.944 4.0875 19.8609 4.02874 19.7654 4.00341C19.67 3.97808 19.5686 3.98787 19.4798 4.031C17.1666 5.19883 15.1281 6.84524 13.4998 8.861V11.732C14.4538 12.2402 15.527 12.482 16.6068 12.432C17.713 12.4488 18.7839 12.0425 19.6004 11.296C20.417 10.5495 20.9176 9.51929 20.9998 8.416C21.0042 6.9415 20.6616 5.48664 19.9998 4.169Z" fill="#374957"/>
</g>
<defs>
<clipPath id="clip0_406_152">
<rect width="24" height="24" fill="white"/>
</clipPath>
</defs>
</svg>
