<svg width="24" height="24" viewBox="0 0 24 24" fill="none" xmlns="http://www.w3.org/2000/svg">
<path d="M22.907 21.9994L18.832 15.9994H22L17.5 9.99939H20.329L14.4 1.25339C14.1272 0.868792 13.766 0.555391 13.3467 0.33959C12.9275 0.123789 12.4626 0.0119106 11.9911 0.013381C11.5196 0.0148514 11.0553 0.129628 10.6374 0.348039C10.2196 0.566451 9.86032 0.882099 9.58996 1.26839L3.67096 9.99939H6.49996L1.99996 15.9994H5.16796L1.09296 21.9994H10.5V23.9994H13.5V21.9994H22.907ZM8.79396 15.9994H12.787L10.787 13.0594L10.828 12.9994H7.99996L10.25 9.99939H11.25L9.17296 7.23039L12 3.05939L14.671 6.99939H11.5L16 12.9994H13.168L17.243 18.9994H6.75696L8.79396 15.9994Z" fill="#374957"/>
</svg>
