<svg width="24" height="24" viewBox="0 0 24 24" fill="none" xmlns="http://www.w3.org/2000/svg">
<g clip-path="url(#clip0_406_261)">
<path d="M2.121 0L0 2.121L3.939 6.061L2 8H7C7.26522 8 7.51957 7.89464 7.70711 7.70711C7.89464 7.51957 8 7.26522 8 7V2L6.061 3.939L2.121 0Z" fill="#374957"/>
<path d="M22.0001 15.9999H17.0001C16.7349 15.9999 16.4805 16.1052 16.293 16.2928C16.1054 16.4803 16.0001 16.7347 16.0001 16.9999V21.9999L17.9391 20.0609L21.8791 23.9999L24.0001 21.8789L20.0611 17.9389L22.0001 15.9999Z" fill="#374957"/>
<path d="M17.0001 8H22.0001L20.0611 6.061L24.0001 2.121L21.8791 0L17.9391 3.939L16.0001 2V7C16.0001 7.26522 16.1054 7.51957 16.293 7.70711C16.4805 7.89464 16.7349 8 17.0001 8Z" fill="#374957"/>
<path d="M6.99999 15.9999H1.99999L3.93899 17.9389L-7.62939e-06 21.8789L2.12099 23.9999L6.06099 20.0609L7.99999 21.9999V16.9999C7.99999 16.7347 7.89464 16.4803 7.7071 16.2928C7.51956 16.1052 7.26521 15.9999 6.99999 15.9999Z" fill="#374957"/>
</g>
<defs>
<clipPath id="clip0_406_261">
<rect width="24" height="24" fill="white"/>
</clipPath>
</defs>
</svg>
