<svg width="24" height="24" viewBox="0 0 24 24" fill="none" xmlns="http://www.w3.org/2000/svg">
<g clip-path="url(#clip0_406_297)">
<path d="M9.50012 12.9999C10.3285 12.9999 11.0001 12.3283 11.0001 11.4999C11.0001 10.6715 10.3285 9.99988 9.50012 9.99988C8.67169 9.99988 8.00012 10.6715 8.00012 11.4999C8.00012 12.3283 8.67169 12.9999 9.50012 12.9999Z" fill="#374957"/>
<path d="M14.4999 12.9999C15.3283 12.9999 15.9999 12.3283 15.9999 11.4999C15.9999 10.6715 15.3283 9.99988 14.4999 9.99988C13.6715 9.99988 12.9999 10.6715 12.9999 11.4999C12.9999 12.3283 13.6715 12.9999 14.4999 12.9999Z" fill="#374957"/>
<path d="M23.9998 11C24.0026 10.1763 23.7504 9.37202 23.2777 8.69751C22.8049 8.023 22.135 7.5114 21.3598 7.233C20.8298 5.24094 19.6806 3.46875 18.0781 2.17215C16.4756 0.875547 14.5026 0.121568 12.4438 0.019V0C12.4018 0 12.3618 0.012 12.3198 0.014C12.2118 0.01 12.1068 0 11.9998 0C9.86155 0.00920165 7.78592 0.722722 6.09397 2.03019C4.40201 3.33766 3.18803 5.16621 2.6398 7.233C1.78239 7.54009 1.05546 8.13057 0.579157 8.90683C0.102858 9.68309 -0.0942797 10.5986 0.0203333 11.5021C0.134946 12.4056 0.554447 13.243 1.20949 13.8757C1.86452 14.5085 2.71588 14.8987 3.6228 14.982C3.84891 15.5847 4.13925 16.1614 4.4888 16.702C3.73423 17.1381 3.10727 17.7645 2.67052 18.5187C2.23376 19.2729 2.00249 20.1285 1.9998 21V24H4.9998V21C5.00247 20.5363 5.16669 20.088 5.46418 19.7323C5.76168 19.3766 6.17386 19.1356 6.6298 19.051C8.1521 20.2818 10.0424 20.9679 11.9998 21C13.9637 20.9674 15.8599 20.2769 17.3848 19.039C17.8395 19.1282 18.2491 19.3725 18.5436 19.7302C18.8382 20.0878 18.9994 20.5367 18.9998 21V24H21.9998V21C21.9975 20.1281 21.7663 19.2722 21.3296 18.5176C20.8928 17.763 20.2657 17.1363 19.5108 16.7C19.8603 16.1594 20.1507 15.5827 20.3768 14.98C21.3671 14.8849 22.2865 14.4247 22.9562 13.689C23.6259 12.9534 23.9979 11.9948 23.9998 11ZM18.0388 12L17.7838 13.186C17.4716 14.5068 16.7388 15.6905 15.6956 16.5587C14.6524 17.427 13.3554 17.9328 11.9998 18C10.6442 17.9328 9.3472 17.427 8.30402 16.5587C7.26083 15.6905 6.52797 14.5068 6.2158 13.186L5.9608 12H3.9998C3.73458 12.0045 3.47844 11.9035 3.28771 11.7191C3.09699 11.5348 2.98731 11.2822 2.9828 11.017C2.97829 10.7518 3.07932 10.4956 3.26367 10.3049C3.44802 10.1142 3.70058 10.0045 3.9658 10L5.2178 9.955L5.3998 8.714C5.52733 7.84787 5.82437 7.01538 6.27394 6.26416C6.72351 5.51294 7.31677 4.85773 8.0198 4.336C8.0198 4.391 8.0038 4.444 8.0038 4.5C8.00359 5.39023 8.26744 6.26051 8.76195 7.00076C9.25646 7.741 9.95943 8.31794 10.7819 8.65857C11.6044 8.99921 12.5094 9.08825 13.3825 8.91441C14.2556 8.74058 15.0575 8.31169 15.6868 7.682L13.5598 5.561C13.2742 5.83393 12.8943 5.98624 12.4993 5.98624C12.1042 5.98624 11.7244 5.83393 11.4388 5.561C11.2332 5.35968 11.0906 5.10294 11.0282 4.82202C10.9659 4.5411 10.9866 4.24812 11.0878 3.97876C11.189 3.70939 11.3664 3.47526 11.5982 3.30486C11.8301 3.13446 12.1065 3.03514 12.3938 3.019C13.9251 3.11447 15.3772 3.73258 16.5075 4.77005C17.6378 5.80753 18.3778 7.20149 18.6038 8.719L18.7818 9.959L20.0338 10C20.299 10.0045 20.5516 10.1142 20.7359 10.3049C20.9203 10.4956 21.0213 10.7518 21.0168 11.017C21.0123 11.2822 20.9026 11.5348 20.7119 11.7191C20.5212 11.9035 20.265 12.0045 19.9998 12H18.0388Z" fill="#374957"/>
</g>
<defs>
<clipPath id="clip0_406_297">
<rect width="24" height="24" fill="white"/>
</clipPath>
</defs>
</svg>
