<svg width="24" height="24" viewBox="0 0 24 24" fill="none" xmlns="http://www.w3.org/2000/svg">
<g clip-path="url(#clip0_406_269)">
<path d="M14 7.25001C14 7.59612 13.8974 7.93447 13.7051 8.22225C13.5128 8.51004 13.2395 8.73434 12.9197 8.86679C12.5999 8.99925 12.2481 9.0339 11.9086 8.96638C11.5691 8.89886 11.2573 8.73218 11.0126 8.48744C10.7678 8.2427 10.6012 7.93088 10.5336 7.59141C10.4661 7.25195 10.5008 6.90008 10.6332 6.58031C10.7657 6.26054 10.99 5.98723 11.2778 5.79493C11.5655 5.60264 11.9039 5.50001 12.25 5.50001C12.7141 5.50027 13.159 5.68473 13.4872 6.01286C13.8153 6.34099 13.9997 6.78596 14 7.25001ZM24 12C24 9.62663 23.2962 7.30655 21.9776 5.33316C20.6591 3.35977 18.7849 1.8217 16.5922 0.913451C14.3995 0.00519943 11.9867 -0.232441 9.65892 0.230582C7.33115 0.693605 5.19295 1.83649 3.51472 3.51472C1.83649 5.19295 0.693605 7.33115 0.230582 9.65892C-0.232441 11.9867 0.00519943 14.3995 0.913451 16.5922C1.8217 18.7849 3.35977 20.6591 5.33316 21.9776C7.30655 23.2962 9.62663 24 12 24H24V12ZM21 12V21H12C10.22 21 8.47992 20.4722 6.99987 19.4832C5.51983 18.4943 4.36628 17.0887 3.68509 15.4442C3.0039 13.7996 2.82567 11.99 3.17294 10.2442C3.5202 8.49836 4.37737 6.89472 5.63604 5.63604C6.89472 4.37737 8.49836 3.5202 10.2442 3.17294C11.99 2.82567 13.7996 3.0039 15.4442 3.68509C17.0887 4.36628 18.4943 5.51983 19.4832 6.99987C20.4722 8.47992 21 10.22 21 12ZM14 12.5C14 11.837 13.7366 11.2011 13.2678 10.7322C12.7989 10.2634 12.163 10 11.5 10H9.00001V13H11V18H14V12.5Z" fill="#374957"/>
</g>
<defs>
<clipPath id="clip0_406_269">
<rect width="24" height="24" fill="white"/>
</clipPath>
</defs>
</svg>
