<svg width="24" height="24" viewBox="0 0 24 24" fill="none" xmlns="http://www.w3.org/2000/svg">
<g clip-path="url(#clip0_406_493)">
<path d="M0 7.99939V13.9994H7C6.99841 15.325 6.47112 16.5958 5.53378 17.5332C4.59644 18.4705 3.32559 18.9978 2 18.9994V21.9994C4.121 21.997 6.15445 21.1534 7.65422 19.6536C9.154 18.1538 9.99762 16.1204 10 13.9994V3.99939H4C2.93913 3.99939 1.92172 4.42082 1.17157 5.17096C0.421427 5.92111 0 6.93852 0 7.99939H0Z" fill="#374957"/>
<path d="M17.9999 3.99939C16.939 3.99939 15.9216 4.42082 15.1715 5.17096C14.4213 5.92111 13.9999 6.93852 13.9999 7.99939V13.9994H20.9999C20.9983 15.325 20.471 16.5958 19.5337 17.5332C18.5963 18.4705 17.3255 18.9978 15.9999 18.9994V21.9994C18.1209 21.997 20.1543 21.1534 21.6541 19.6536C23.1539 18.1538 23.9975 16.1204 23.9999 13.9994V3.99939H17.9999Z" fill="#374957"/>
</g>
<defs>
<clipPath id="clip0_406_493">
<rect width="24" height="24" fill="white"/>
</clipPath>
</defs>
</svg>
