<svg width="24" height="24" viewBox="0 0 24 24" fill="none" xmlns="http://www.w3.org/2000/svg">
<g clip-path="url(#clip0_406_218)">
<path d="M20.5 5H17V0H7V5H3.5C2.57174 5 1.6815 5.36875 1.02513 6.02513C0.368749 6.6815 0 7.57174 0 8.5L0 24H24V8.5C24 7.57174 23.6313 6.6815 22.9749 6.02513C22.3185 5.36875 21.4283 5 20.5 5ZM10 3H14V5H10V3ZM21 21H3V8.5C3 8.36739 3.05268 8.24021 3.14645 8.14645C3.24021 8.05268 3.36739 8 3.5 8H20.5C20.6326 8 20.7598 8.05268 20.8536 8.14645C20.9473 8.24021 21 8.36739 21 8.5V21ZM13.5 13H16V16H13.5V18.5H10.5V16H8V13H10.5V10.5H13.5V13Z" fill="#374957"/>
</g>
<defs>
<clipPath id="clip0_406_218">
<rect width="24" height="24" fill="white"/>
</clipPath>
</defs>
</svg>
