<svg width="24" height="24" viewBox="0 0 24 24" fill="none" xmlns="http://www.w3.org/2000/svg">
<g clip-path="url(#clip0_406_71)">
<path d="M20.5 1.99916H16.46C15.8997 1.37014 15.2126 0.866762 14.4439 0.52208C13.6753 0.177398 12.8424 -0.000793457 12 -0.000793457C11.1576 -0.000793457 10.3247 0.177398 9.55606 0.52208C8.7874 0.866762 8.10034 1.37014 7.54 1.99916H3.5C2.57174 1.99916 1.6815 2.36791 1.02513 3.02428C0.368749 3.68066 0 4.5709 0 5.49916L0 23.9992H24V5.49916C24 4.5709 23.6313 3.68066 22.9749 3.02428C22.3185 2.36791 21.4283 1.99916 20.5 1.99916ZM21 20.9992H3V5.49916C3 5.36655 3.05268 5.23937 3.14645 5.1456C3.24021 5.05183 3.36739 4.99916 3.5 4.99916H6.09C6.03211 5.32939 6.00201 5.66389 6 5.99916V7.99916H9.291L11.718 2.99916L14.4 4.34116L12.7 7.99916H18V5.99916C17.998 5.66389 17.9679 5.32939 17.91 4.99916H20.5C20.6326 4.99916 20.7598 5.05183 20.8536 5.1456C20.9473 5.23937 21 5.36655 21 5.49916V20.9992Z" fill="#374957"/>
</g>
<defs>
<clipPath id="clip0_406_71">
<rect width="24" height="24" fill="white"/>
</clipPath>
</defs>
</svg>
