<svg width="24" height="24" viewBox="0 0 24 24" fill="none" xmlns="http://www.w3.org/2000/svg">
<path d="M13.4999 17.9881H10.4999V14.9881H13.4999V17.9881ZM12.9569 23.5441C15.0779 22.6901 21.9999 19.3331 21.9999 11.9631V5.79913C21.9996 5.088 21.7752 4.39504 21.3585 3.81877C20.9419 3.24249 20.3541 2.81222 19.6789 2.58913L11.9999 0.0441284L4.32091 2.58913C3.64568 2.81222 3.05795 3.24249 2.64127 3.81877C2.2246 4.39504 2.00017 5.088 1.99991 5.79913V11.9611C1.99991 18.4761 8.85091 22.4101 10.9509 23.4611L11.9359 23.9551L12.9569 23.5441ZM18.7339 5.43713C18.8111 5.46109 18.8786 5.50917 18.9265 5.57433C18.9744 5.63948 19.0001 5.71827 18.9999 5.79913V11.9611C18.9999 17.2191 13.9709 19.8551 12.0679 20.6611C10.1419 19.6611 4.99991 16.5611 4.99991 11.9611V5.79913C5.00021 5.71816 5.02609 5.63936 5.07387 5.57398C5.12164 5.50861 5.18886 5.46001 5.26591 5.43513L11.9999 3.20413L18.7339 5.43713ZM13.4999 4.99913H10.4999V12.9991H13.4999V4.99913Z" fill="#374957"/>
</svg>
