<svg width="24" height="24" viewBox="0 0 24 24" fill="none" xmlns="http://www.w3.org/2000/svg">
<g clip-path="url(#clip0_406_377)">
<path d="M17.994 2.28709C16.7733 1.19631 15.2782 0.459141 13.6697 0.154932C12.0611 -0.149277 10.4001 -0.00900137 8.86537 0.560658C7.33064 1.13032 5.98035 2.10778 4.95987 3.38783C3.93938 4.66787 3.28735 6.20201 3.07398 7.82509C2.93592 9.32309 3.14434 10.8328 3.6831 12.2373C4.22186 13.6419 5.07653 14.9037 6.18098 15.9251C6.73601 16.4098 7.1843 17.0045 7.49742 17.6716C7.81055 18.3386 7.98168 19.0634 7.99998 19.8001V24.0001H16V19.9521C16.0782 18.3586 16.7711 16.8574 17.933 15.7641C18.8907 14.9239 19.659 13.89 20.1873 12.7308C20.7156 11.5715 20.9918 10.3133 20.9976 9.03932C21.0033 7.76536 20.7386 6.5047 20.2208 5.3407C19.703 4.17669 18.944 3.13588 17.994 2.28709ZM15.955 13.5081C15.1718 14.2152 14.5247 15.0598 14.046 16.0001H13.5V11.7001C14.2373 11.4018 14.869 10.8905 15.3143 10.2314C15.7597 9.57235 15.9984 8.79549 16 8.00009H13C13 8.2653 12.8946 8.51966 12.7071 8.70719C12.5195 8.89473 12.2652 9.00009 12 9.00009C11.7348 9.00009 11.4804 8.89473 11.2929 8.70719C11.1053 8.51966 11 8.2653 11 8.00009H7.99998C8.00159 8.79549 8.2403 9.57235 8.68561 10.2314C9.13093 10.8905 9.76262 11.4018 10.5 11.7001V16.0001H9.99998C9.53389 15.154 8.93531 14.3879 8.22698 13.7311C7.47804 13.0283 6.89439 12.1682 6.5181 11.2126C6.14181 10.257 5.98227 9.2298 6.05098 8.20509C6.23051 6.88549 6.84254 5.66267 7.79126 4.72807C8.73999 3.79346 9.97184 3.19982 11.294 3.04009C12.5652 2.89011 13.8512 3.15064 14.9638 3.78361C16.0764 4.41658 16.9575 5.3888 17.4782 6.55819C17.9988 7.72759 18.1319 9.03287 17.8578 10.2833C17.5838 11.5337 16.917 12.6637 15.955 13.5081Z" fill="#374957"/>
</g>
<defs>
<clipPath id="clip0_406_377">
<rect width="24" height="24" fill="white"/>
</clipPath>
</defs>
</svg>
