<svg width="24" height="24" viewBox="0 0 24 24" fill="none" xmlns="http://www.w3.org/2000/svg">
<g clip-path="url(#clip0_406_214)">
<path d="M20.6819 3.56077L18.4389 1.31677C18.0217 0.898065 17.5257 0.566117 16.9796 0.340075C16.4335 0.114034 15.848 -0.00162634 15.2569 -0.000231677H5.49991C4.57165 -0.000231677 3.68141 0.368517 3.02503 1.02489C2.36866 1.68127 1.99991 2.57151 1.99991 3.49977V23.9998H21.9999V6.74177C21.9969 5.54918 21.5233 4.40599 20.6819 3.56077ZM4.99991 20.9998V3.49977C4.99991 3.36716 5.05259 3.23998 5.14636 3.14622C5.24012 3.05245 5.3673 2.99977 5.49991 2.99977H14.9999V6.99977H18.9999V20.9998H4.99991ZM7.99991 15.9998H15.9999V18.9998H7.99991V15.9998ZM7.99991 8.99977H15.9999V13.9998H7.99991V8.99977Z" fill="#374957"/>
</g>
<defs>
<clipPath id="clip0_406_214">
<rect width="24" height="24" fill="white"/>
</clipPath>
</defs>
</svg>
