<svg width="24" height="24" viewBox="0 0 24 24" fill="none" xmlns="http://www.w3.org/2000/svg">
<g clip-path="url(#clip0_406_401)">
<path d="M24 13H15V10H24V13ZM14 6C14 4.81332 13.6481 3.65328 12.9888 2.66658C12.3295 1.67989 11.3925 0.910851 10.2961 0.456726C9.19974 0.00259972 7.99334 -0.11622 6.82946 0.115291C5.66557 0.346802 4.59647 0.918247 3.75736 1.75736C2.91824 2.59648 2.3468 3.66558 2.11529 4.82946C1.88378 5.99335 2.0026 7.19975 2.45672 8.2961C2.91085 9.39246 3.67988 10.3295 4.66658 10.9888C5.65327 11.6481 6.81331 12 8 12C9.59081 11.9984 11.116 11.3658 12.2409 10.2409C13.3658 9.11602 13.9984 7.59082 14 6ZM11 6C11 6.59335 10.8241 7.17337 10.4944 7.66671C10.1648 8.16006 9.69623 8.54458 9.14805 8.77164C8.59987 8.99871 7.99667 9.05812 7.41473 8.94236C6.83279 8.8266 6.29824 8.54088 5.87868 8.12132C5.45912 7.70177 5.1734 7.16722 5.05764 6.58527C4.94189 6.00333 5.0013 5.40013 5.22836 4.85195C5.45542 4.30377 5.83994 3.83524 6.33329 3.50559C6.82664 3.17595 7.40666 3 8 3C8.79565 3 9.55871 3.31607 10.1213 3.87868C10.6839 4.44129 11 5.20435 11 6ZM16 19C15.9984 17.6744 15.4711 16.4036 14.5338 15.4662C13.5964 14.5289 12.3256 14.0016 11 14H5C3.67441 14.0016 2.40356 14.5289 1.46622 15.4662C0.528882 16.4036 0.00158786 17.6744 0 19L0 24H3V19C3 18.4696 3.21071 17.9609 3.58579 17.5858C3.96086 17.2107 4.46957 17 5 17H11C11.5304 17 12.0391 17.2107 12.4142 17.5858C12.7893 17.9609 13 18.4696 13 19V24H16V19Z" fill="#374957"/>
</g>
<defs>
<clipPath id="clip0_406_401">
<rect width="24" height="24" fill="white"/>
</clipPath>
</defs>
</svg>
