<svg width="24" height="24" viewBox="0 0 24 24" fill="none" xmlns="http://www.w3.org/2000/svg">
<g clip-path="url(#clip0_406_211)">
<path d="M23.1259 1.86113C22.8429 1.57781 22.5051 1.35522 22.1331 1.20699C21.7611 1.05876 21.3628 0.987999 20.9625 0.999045C20.5622 1.01009 20.1684 1.10271 19.8051 1.27123C19.4419 1.43975 19.1168 1.68063 18.8499 1.97913L10.7139 11.0721C11.6273 11.2053 12.4857 11.5896 13.1934 12.1822C13.9011 12.7748 14.4303 13.5524 14.7219 14.4281L23.1219 6.02813C23.6749 5.47602 23.986 4.72688 23.9867 3.94546C23.9875 3.16403 23.6778 2.4143 23.1259 1.86113Z" fill="#374957"/>
<path d="M4.99991 18.9999C4.99991 18.9999 5.99991 12.9999 9.9999 12.9999C10.7955 12.9999 11.5586 13.3159 12.1212 13.8786C12.6838 14.4412 12.9999 15.2042 12.9999 15.9999C12.9999 16.7955 12.6838 17.5586 12.1212 18.1212C11.5586 18.6838 10.7955 18.9999 9.9999 18.9999H4.99991Z" fill="#374957"/>
<path d="M21 10.979V16H16V21H3V3.409C3.00026 3.30061 3.04344 3.19673 3.12009 3.12009C3.19673 3.04344 3.30061 3.00026 3.409 3H15.253L17.359 0.646C17.5744 0.408053 17.8126 0.191694 18.07 0L3.409 0C2.5052 0.00105862 1.63872 0.36056 0.999642 0.999642C0.36056 1.63872 0.00105862 2.5052 0 3.409L0 24H18.348L24 18.348V7.979L21 10.979Z" fill="#374957"/>
</g>
<defs>
<clipPath id="clip0_406_211">
<rect width="24" height="24" fill="white"/>
</clipPath>
</defs>
</svg>
