<svg width="24" height="24" viewBox="0 0 24 24" fill="none" xmlns="http://www.w3.org/2000/svg">
<g clip-path="url(#clip0_406_105)">
<path d="M2.52191e-05 20.9999H20V23.9999H2.52191e-05V20.9999ZM24 8.49994C24 11.5059 21.6 14.9999 18.5 14.9999H17.206L16.393 18.9999H3.10703L0.0750252 4.09994C-0.031032 3.60567 -0.0251693 3.09393 0.092184 2.60221C0.209537 2.1105 0.435408 1.65127 0.753249 1.25816C1.07109 0.865056 1.47285 0.548035 1.92909 0.330325C2.38533 0.112615 2.8845 -0.000269245 3.39003 -5.71395e-05H16.11C16.6119 -0.000819139 17.1076 0.110216 17.5612 0.324982C18.0148 0.539748 18.4148 0.852851 18.7323 1.24155C19.0497 1.63024 19.2766 2.08477 19.3964 2.57211C19.5162 3.05944 19.526 3.56736 19.425 4.05894C22.3 4.34194 24 5.94894 24 8.49994ZM16.484 3.49994C16.525 3.18194 16.41 3.03694 16.11 2.99994H3.39003C3.33169 2.99988 3.27408 3.01295 3.22148 3.03816C3.16887 3.06338 3.12261 3.10011 3.08612 3.14562C3.04963 3.19114 3.02384 3.24428 3.01067 3.30112C2.9975 3.35795 2.99728 3.41701 3.01003 3.47394L5.55903 15.9999H13.941L16.484 3.49994ZM21 8.49994C21 8.07194 21 7.09994 18.832 7.00894L17.817 11.9999H18.5C19.645 11.9999 21 10.0999 21 8.49994Z" fill="#374957"/>
</g>
<defs>
<clipPath id="clip0_406_105">
<rect width="24" height="24" fill="white"/>
</clipPath>
</defs>
</svg>
