<svg width="24" height="24" viewBox="0 0 24 24" fill="none" xmlns="http://www.w3.org/2000/svg">
<g clip-path="url(#clip0_406_432)">
<path d="M3.61988 11.654L13.1479 2.12601L11.0269 0.00500488L1.49988 9.53302C0.846355 10.1877 0.479309 11.075 0.479309 12C0.479309 12.9251 0.846355 13.8123 1.49988 14.467L11.0269 24L13.1479 21.879L3.61988 12.346C3.5744 12.3006 3.53833 12.2467 3.51371 12.1873C3.4891 12.1279 3.47643 12.0643 3.47643 12C3.47643 11.9358 3.4891 11.8721 3.51371 11.8127C3.53833 11.7534 3.5744 11.6994 3.61988 11.654Z" fill="#374957"/>
<path d="M23.0901 2.12601L20.9691 0.00500488L10.0341 10.939C9.89471 11.0783 9.78414 11.2437 9.70869 11.4258C9.63325 11.6078 9.59442 11.803 9.59442 12C9.59442 12.1971 9.63325 12.3922 9.70869 12.5743C9.78414 12.7563 9.89471 12.9217 10.0341 13.061L20.9691 24L23.0901 21.879L13.2161 12L23.0901 2.12601Z" fill="#374957"/>
</g>
<defs>
<clipPath id="clip0_406_432">
<rect width="24" height="24" fill="white"/>
</clipPath>
</defs>
</svg>
