<svg width="24" height="24" viewBox="0 0 24 24" fill="none" xmlns="http://www.w3.org/2000/svg">
<g clip-path="url(#clip0_406_325)">
<path d="M13.5002 14.9999C14.9836 14.9999 16.4336 14.56 17.667 13.7359C18.9004 12.9118 19.8617 11.7405 20.4293 10.37C20.997 8.99956 21.1455 7.49156 20.8561 6.03671C20.5667 4.58185 19.8524 3.24547 18.8035 2.19658C17.7546 1.14769 16.4183 0.433381 14.9634 0.143992C13.5085 -0.145397 12.0005 0.00312758 10.6301 0.570785C9.25965 1.13844 8.08831 2.09974 7.2642 3.33311C6.44009 4.56647 6.00022 6.01652 6.00022 7.49988C6.00234 9.48836 6.79319 11.3948 8.19926 12.8008C9.60532 14.2069 11.5117 14.9978 13.5002 14.9999ZM13.5002 2.99988C14.3902 2.99988 15.2603 3.2638 16.0003 3.75827C16.7403 4.25274 17.3171 4.95554 17.6577 5.77781C17.9983 6.60007 18.0874 7.50488 17.9138 8.37779C17.7401 9.2507 17.3115 10.0525 16.6822 10.6819C16.0529 11.3112 15.251 11.7398 14.3781 11.9134C13.5052 12.0871 12.6004 11.9979 11.7781 11.6573C10.9559 11.3167 10.2531 10.74 9.75861 9.99995C9.26414 9.25993 9.00022 8.3899 9.00022 7.49988C9.00154 6.30681 9.47607 5.16299 10.3197 4.31936C11.1633 3.47574 12.3072 3.0012 13.5002 2.99988ZM14.5002 19.9389V20.9999H18.0002V23.9999H8.00022V20.9999H11.5002V19.8249C9.38913 19.4845 7.40081 18.6077 5.72574 17.2785C4.05067 15.9494 2.74497 14.2123 1.93372 12.2338C1.12247 10.2553 0.832849 8.10166 1.09261 5.97914C1.35236 3.85662 2.15279 1.83635 3.41722 0.111881L5.83422 1.88788C5.0954 2.90537 4.56593 4.05942 4.2765 5.28309C3.98708 6.50676 3.94346 7.77572 4.14818 9.01638C4.3529 10.257 4.80188 11.4447 5.46909 12.5105C6.1363 13.5764 7.00847 14.4991 8.03501 15.2253C9.06155 15.9515 10.222 16.4667 11.4492 16.741C12.6764 17.0152 13.9458 17.0432 15.1838 16.8231C16.4218 16.6031 17.6039 16.1395 18.6614 15.4592C19.7189 14.7788 20.6308 13.8953 21.3442 12.8599L23.8192 14.5599C22.765 16.0944 21.3811 17.3738 19.7687 18.3044C18.1563 19.2351 16.3563 19.7936 14.5002 19.9389Z" fill="#374957"/>
</g>
<defs>
<clipPath id="clip0_406_325">
<rect width="24" height="24" fill="white"/>
</clipPath>
</defs>
</svg>
