<svg width="24" height="24" viewBox="0 0 24 24" fill="none" xmlns="http://www.w3.org/2000/svg">
<g clip-path="url(#clip0_406_361)">
<path d="M19 13.0001H5V10.0001H19V13.0001ZM15 15.0001H5V18.0001H15V15.0001ZM24 4.50012V23.0001H0V4.50012C0 3.57186 0.368749 2.68163 1.02513 2.02525C1.6815 1.36887 2.57174 1.00012 3.5 1.00012H20.5C21.4283 1.00012 22.3185 1.36887 22.9749 2.02525C23.6313 2.68163 24 3.57186 24 4.50012ZM8 4.50012C8 4.79679 8.08797 5.0868 8.2528 5.33348C8.41762 5.58015 8.65189 5.77241 8.92597 5.88594C9.20006 5.99947 9.50166 6.02918 9.79264 5.9713C10.0836 5.91342 10.3509 5.77056 10.5607 5.56078C10.7704 5.351 10.9133 5.08373 10.9712 4.79276C11.0291 4.50179 10.9994 4.20019 10.8858 3.9261C10.7723 3.65201 10.58 3.41774 10.3334 3.25292C10.0867 3.0881 9.79667 3.00012 9.5 3.00012C9.10218 3.00012 8.72064 3.15816 8.43934 3.43946C8.15804 3.72077 8 4.1023 8 4.50012ZM4.5 6.00012C4.79667 6.00012 5.08668 5.91215 5.33336 5.74733C5.58003 5.5825 5.77229 5.34824 5.88582 5.07415C5.99935 4.80006 6.02906 4.49846 5.97118 4.20749C5.9133 3.91652 5.77044 3.64924 5.56066 3.43946C5.35088 3.22968 5.08361 3.08682 4.79264 3.02894C4.50166 2.97107 4.20006 3.00077 3.92597 3.1143C3.65189 3.22783 3.41762 3.42009 3.2528 3.66677C3.08797 3.91344 3 4.20345 3 4.50012C3 4.89795 3.15804 5.27948 3.43934 5.56078C3.72064 5.84209 4.10218 6.00012 4.5 6.00012ZM21 8.00012H3V20.0001H21V8.00012Z" fill="#374957"/>
</g>
<defs>
<clipPath id="clip0_406_361">
<rect width="24" height="24" fill="white"/>
</clipPath>
</defs>
</svg>
