<svg width="24" height="24" viewBox="0 0 24 24" fill="none" xmlns="http://www.w3.org/2000/svg">
<g clip-path="url(#clip0_406_41)">
<path d="M21 2.00061H3C2.20435 2.00061 1.44129 2.31668 0.87868 2.87929C0.31607 3.4419 0 4.20496 0 5.00061L0 22.0006H24V5.00061C24 4.20496 23.6839 3.4419 23.1213 2.87929C22.5587 2.31668 21.7956 2.00061 21 2.00061ZM21 19.0006H3V5.00061H21V19.0006Z" fill="#374957"/>
<path d="M19.0001 9H10.0001V12H19.0001V9Z" fill="#374957"/>
<path d="M7.99992 9H4.99992V12H7.99992V9Z" fill="#374957"/>
<path d="M13.9999 14.0006H4.99992V17.0006H13.9999V14.0006Z" fill="#374957"/>
<path d="M19.0001 14.0006H16.0001V17.0006H19.0001V14.0006Z" fill="#374957"/>
</g>
<defs>
<clipPath id="clip0_406_41">
<rect width="24" height="24" fill="white"/>
</clipPath>
</defs>
</svg>
