<svg width="24" height="24" viewBox="0 0 24 24" fill="none" xmlns="http://www.w3.org/2000/svg">
<g clip-path="url(#clip0_406_206)">
<path d="M22.9749 7.26765L20.9139 5.20665L23.0609 3.06065L20.9389 0.938651L18.7929 3.08565L16.7319 1.02465C16.0749 0.369419 15.1848 0.00146484 14.2569 0.00146484C13.329 0.00146484 12.4389 0.369419 11.7819 1.02465L8.59991 4.20665L13.1349 8.74265L8.72791 13.1497L4.20691 8.62865L1.02491 11.8107C0.368757 12.467 0.000152588 13.3571 0.000152588 14.2852C0.000152588 15.2132 0.368757 16.1033 1.02491 16.7597L3.07191 18.8067L0.938905 20.9387L3.06091 23.0607L5.19291 20.9277L7.26791 22.9997C7.59292 23.3247 7.97877 23.5825 8.40343 23.7584C8.82809 23.9344 9.28325 24.0249 9.74291 24.0249C10.2026 24.0249 10.6577 23.9344 11.0824 23.7584C11.507 23.5825 11.8929 23.3247 12.2179 22.9997L15.3999 19.8207L10.8499 15.2707L15.2579 10.8637L19.7929 15.3997L22.9749 12.2177C23.3 11.8926 23.5578 11.5068 23.7337 11.0821C23.9096 10.6575 24.0002 10.2023 24.0002 9.74265C24.0002 9.283 23.9096 8.82784 23.7337 8.40318C23.5578 7.97851 23.3 7.59266 22.9749 7.26765ZM10.0999 20.8817C10.0535 20.9282 9.99829 20.9652 9.93754 20.9904C9.87679 21.0156 9.81167 21.0285 9.74591 21.0285C9.68014 21.0285 9.61502 21.0156 9.55427 20.9904C9.49353 20.9652 9.43835 20.9282 9.39191 20.8817L3.14591 14.6387C3.05217 14.5449 2.99951 14.4177 2.99951 14.2852C2.99951 14.1526 3.05217 14.0254 3.14591 13.9317L4.20691 12.8707L11.1569 19.8207L10.0999 20.8817ZM20.8539 10.0997L19.7929 11.1607L12.8429 4.21065L13.8999 3.14565C13.9464 3.09909 14.0015 3.06215 14.0623 3.03694C14.123 3.01173 14.1881 2.99876 14.2539 2.99876C14.3197 2.99876 14.3848 3.01173 14.4455 3.03694C14.5063 3.06215 14.5615 3.09909 14.6079 3.14565L20.8539 9.38965C20.9473 9.48338 20.9998 9.61031 20.9998 9.74265C20.9998 9.87499 20.9473 10.0019 20.8539 10.0957V10.0997Z" fill="#374957"/>
</g>
<defs>
<clipPath id="clip0_406_206">
<rect width="24" height="24" fill="white"/>
</clipPath>
</defs>
</svg>
