<svg width="24" height="24" viewBox="0 0 24 24" fill="none" xmlns="http://www.w3.org/2000/svg">
<g clip-path="url(#clip0_406_177)">
<path d="M22.4999 -7.37356e-05C21.2951 -0.0843954 20.092 0.186638 19.0397 0.779444C17.9874 1.37225 17.1322 2.26078 16.5799 3.33493C13.5406 2.92193 10.4593 2.92193 7.41993 3.33493C6.86751 2.26094 6.01223 1.37257 4.95998 0.779788C3.90773 0.187011 2.70473 -0.0841341 1.49993 -7.37356e-05H-6.59058e-05V11.9549C-0.00243037 12.7789 0.158718 13.5952 0.474046 14.3565C0.789374 15.1178 1.25261 15.8089 1.83693 16.3899L8.46993 23.0229C8.78578 23.341 9.16162 23.5931 9.57567 23.7648C9.98971 23.9364 10.4337 24.0242 10.8819 24.0229H13.1179C13.5658 24.0241 14.0095 23.9364 14.4233 23.7647C14.837 23.593 15.2125 23.3409 15.5279 23.0229L22.1629 16.3889C22.747 15.808 23.2102 15.117 23.5255 14.3559C23.8408 13.5948 24.0021 12.7787 23.9999 11.9549V-7.37356e-05H22.4999ZM5.07693 5.47393L5.49193 6.71793L6.77893 6.47393C8.50334 6.17314 10.2496 6.01461 11.9999 5.99993C13.7506 6.01549 15.4971 6.17402 17.2219 6.47393L18.5089 6.71693L18.9229 5.47393C19.0523 4.95289 19.3101 4.47258 19.673 4.07691C20.0358 3.68124 20.492 3.38282 20.9999 3.20893V7.44293C19.1744 7.72449 17.4338 8.40661 15.903 9.44034C14.3722 10.4741 13.0892 11.8338 12.1459 13.4219C11.2434 11.6877 9.94509 10.1906 8.35609 9.05171C6.76709 7.91286 4.93214 7.16438 2.99993 6.86693V3.20893C3.50775 3.38298 3.96388 3.68145 4.32669 4.0771C4.6895 4.47275 4.94743 4.95297 5.07693 5.47393ZM3.95793 14.2739C3.65259 13.9701 3.41066 13.6087 3.2462 13.2106C3.08174 12.8125 2.99803 12.3857 2.99993 11.9549V9.91793C3.68711 10.075 4.35705 10.2998 4.99993 10.5889V10.8409C4.99993 10.8409 5.17993 13.3739 8.69993 13.4889C9.94264 15.2441 10.575 17.3586 10.4999 19.5079V19.9999H9.69993L3.95793 14.2739ZM20.0419 14.2739L14.3099 19.9999H13.5099C13.4266 17.622 14.2376 15.2992 15.7829 13.4899C18.8679 13.3999 19.4049 11.4579 19.4889 10.9579C19.9801 10.7653 20.4853 10.6102 20.9999 10.4939V11.9549C21.001 12.3848 20.9168 12.8106 20.7524 13.2078C20.588 13.6049 20.3465 13.9656 20.0419 14.2689V14.2739Z" fill="#374957"/>
</g>
<defs>
<clipPath id="clip0_406_177">
<rect width="24" height="24" fill="white"/>
</clipPath>
</defs>
</svg>
