<svg width="24" height="24" viewBox="0 0 24 24" fill="none" xmlns="http://www.w3.org/2000/svg">
<g clip-path="url(#clip0_406_382)">
<path d="M7 10.5H0V13.5H7V10.5Z" fill="#374957"/>
<path d="M18.5001 13.5H10.0001V10.5H18.5001C21.3001 10.546 22.0821 6.205 19.0001 6C18.4696 6 17.9609 6.21071 17.5858 6.58579C17.2108 6.96086 17.0001 7.46957 17.0001 8H14.0001C14.0016 6.67441 14.5289 5.40356 15.4663 4.46622C16.4036 3.52888 17.6745 3.00159 19.0001 3C26.0691 3.346 25.2831 13.406 18.5001 13.5Z" fill="#374957"/>
<path d="M8.4 9H0V6H8.4C8.69667 6 8.98668 5.91203 9.23336 5.7472C9.48003 5.58238 9.67229 5.34811 9.78582 5.07403C9.89935 4.79994 9.92906 4.49834 9.87118 4.20736C9.8133 3.91639 9.67044 3.64912 9.46066 3.43934C9.25088 3.22956 8.98361 3.0867 8.69264 3.02882C8.40166 2.97094 8.10007 3.00065 7.82598 3.11418C7.55189 3.22771 7.31762 3.41997 7.1528 3.66664C6.98797 3.91332 6.9 4.20333 6.9 4.5H3.9C3.9 3.30653 4.37411 2.16193 5.21802 1.31802C6.06193 0.474106 7.20653 0 8.4 0C9.59348 0 10.7381 0.474106 11.582 1.31802C12.4259 2.16193 12.9 3.30653 12.9 4.5C12.8987 5.69307 12.4241 6.83689 11.5805 7.68052C10.7369 8.52415 9.59307 8.99868 8.4 9Z" fill="#374957"/>
<path d="M15.7 24C14.5069 23.9987 13.3631 23.5241 12.5195 22.6805C11.6759 21.8369 11.2013 20.6931 11.2 19.5H14.2C14.2 19.7967 14.288 20.0867 14.4528 20.3334C14.6176 20.58 14.8519 20.7723 15.126 20.8858C15.4001 20.9994 15.7017 21.0291 15.9926 20.9712C16.2836 20.9133 16.5509 20.7704 16.7607 20.5607C16.9704 20.3509 17.1133 20.0836 17.1712 19.7926C17.2291 19.5017 17.1994 19.2001 17.0858 18.926C16.9723 18.6519 16.78 18.4176 16.5334 18.2528C16.2867 18.088 15.9967 18 15.7 18H0V15H15.7C16.8935 15 18.0381 15.4741 18.882 16.318C19.7259 17.1619 20.2 18.3065 20.2 19.5C20.2 20.6935 19.7259 21.8381 18.882 22.682C18.0381 23.5259 16.8935 24 15.7 24Z" fill="#374957"/>
</g>
<defs>
<clipPath id="clip0_406_382">
<rect width="24" height="24" fill="white"/>
</clipPath>
</defs>
</svg>
