<svg width="24" height="24" viewBox="0 0 24 24" fill="none" xmlns="http://www.w3.org/2000/svg">
<g clip-path="url(#clip0_406_319)">
<path d="M20.3889 3.3C20.1413 2.62655 19.6933 2.04511 19.1053 1.63391C18.5173 1.22271 17.8174 1.00148 17.0999 1H6.89988C6.18901 0.999446 5.49489 1.2158 4.91023 1.62017C4.32557 2.02453 3.8782 2.59766 3.62788 3.263L1.46888 8.7C0.495531 11.37 -0.00167757 14.1901 -0.000118415 17.032V20H2.99988V23H6.99988V20H16.9999V23H20.9999V20H23.9999V17.032C24.0004 14.1749 23.4981 11.34 22.5159 8.657L20.3889 3.3ZM16.9999 15.5C16.9999 15.1022 17.1579 14.7206 17.4392 14.4393C17.7205 14.158 18.1021 14 18.4999 14C18.8977 14 19.2792 14.158 19.5605 14.4393C19.8418 14.7206 19.9999 15.1022 19.9999 15.5C19.9999 15.8978 19.8418 16.2794 19.5605 16.5607C19.2792 16.842 18.8977 17 18.4999 17C18.1021 17 17.7205 16.842 17.4392 16.5607C17.1579 16.2794 16.9999 15.8978 16.9999 15.5ZM4.27088 9.765L6.43188 4.329C6.46687 4.23287 6.5305 4.14979 6.61418 4.09096C6.69787 4.03213 6.79759 4.00038 6.89988 4H17.0999C17.2094 4.00273 17.3152 4.03997 17.4023 4.10641C17.4894 4.17285 17.5533 4.2651 17.5849 4.37L19.7129 9.724C19.8659 10.145 19.9979 10.571 20.1189 11H3.87788C3.99988 10.584 4.12388 10.171 4.27088 9.765ZM5.49988 17C5.10206 17 4.72053 16.842 4.43922 16.5607C4.15792 16.2794 3.99988 15.8978 3.99988 15.5C3.99988 15.1022 4.15792 14.7206 4.43922 14.4393C4.72053 14.158 5.10206 14 5.49988 14C5.89771 14 6.27924 14.158 6.56054 14.4393C6.84185 14.7206 6.99988 15.1022 6.99988 15.5C6.99988 15.8978 6.84185 16.2794 6.56054 16.5607C6.27924 16.842 5.89771 17 5.49988 17Z" fill="#374957"/>
</g>
<defs>
<clipPath id="clip0_406_319">
<rect width="24" height="24" fill="white"/>
</clipPath>
</defs>
</svg>
