<svg width="24" height="24" viewBox="0 0 24 24" fill="none" xmlns="http://www.w3.org/2000/svg">
<g clip-path="url(#clip0_406_199)">
<path d="M23.1221 0.878665C22.7921 0.546397 22.3884 0.296561 21.9438 0.149404C21.4992 0.00224781 21.0262 -0.0380884 20.5631 0.0316647C14.8194 0.939397 9.49222 3.58675 5.30009 7.61666C4.01422 8.90434 3.21486 10.5982 3.03833 12.4094C2.86181 14.2206 3.31905 16.0369 4.33209 17.5487L0.0640869 21.8137L2.18609 23.9357L6.45409 19.6667C7.71687 20.5289 9.21001 20.991 10.7391 20.9927C11.862 20.9883 12.9725 20.7567 14.0036 20.3119C15.0347 19.8672 15.9652 19.2184 16.7391 18.4047C20.575 14.231 23.0905 9.01584 23.9691 3.41566C24.0372 2.95598 23.996 2.48671 23.8488 2.04593C23.7017 1.60514 23.4527 1.20524 23.1221 0.878665ZM6.00609 13.4197C5.97365 12.7406 6.08287 12.0622 6.32682 11.4276C6.57078 10.793 6.94411 10.2161 7.42309 9.73366C7.61209 9.54466 7.80709 9.37166 8.00009 9.19266V13.8787L6.51209 15.3667C6.20937 14.7601 6.037 14.0969 6.00609 13.4197ZM14.5721 16.3307C13.8333 17.1322 12.8584 17.6776 11.7887 17.8878C10.7191 18.098 9.61028 17.962 8.62309 17.4997L13.1231 12.9997H17.1841C16.4221 14.1911 15.5475 15.3066 14.5721 16.3307ZM18.8361 9.99966H16.1211L18.0611 8.06066L15.9391 5.93866L11.0001 10.8787V6.85266C14.0384 4.90305 17.4401 3.58897 21.0001 2.98966C20.6073 5.41536 19.8789 7.77463 18.8361 9.99966Z" fill="#374957"/>
</g>
<defs>
<clipPath id="clip0_406_199">
<rect width="24" height="24" fill="white"/>
</clipPath>
</defs>
</svg>
