<svg width="24" height="24" viewBox="0 0 24 24" fill="none" xmlns="http://www.w3.org/2000/svg">
<g clip-path="url(#clip0_406_460)">
<path d="M15.5799 23H5.9439C4.6421 23.0252 3.3691 22.6154 2.3265 21.8354C1.28391 21.0555 0.531313 19.95 0.187905 18.694C-0.124627 17.5209 -0.0598245 16.2791 0.37312 15.1449C0.806064 14.0106 1.58517 13.0415 2.5999 12.375C1.87203 10.7182 1.71427 8.86673 2.15132 7.11064C2.58838 5.35455 3.59556 3.79302 5.01512 2.67064C6.43467 1.54826 8.18641 0.928423 9.99596 0.908225C11.8055 0.888026 13.5707 1.4686 15.0149 2.55902C16.4554 3.65384 17.4961 5.19175 17.9769 6.93602C19.7585 7.43189 21.3225 8.51069 22.4189 10C23.0726 10.8872 23.539 11.898 23.7898 12.9711C24.0406 14.0442 24.0706 15.157 23.8779 16.242C23.5162 18.1673 22.4844 19.9023 20.9655 21.1393C19.4465 22.3764 17.5385 23.0356 15.5799 23ZM10.0869 3.91002C9.82724 3.91036 9.56793 3.92907 9.31091 3.96602C8.42761 4.09867 7.59373 4.45785 6.89052 5.00858C6.18731 5.55931 5.63874 6.2828 5.29827 7.10856C4.95779 7.93432 4.83702 8.8342 4.94771 9.72051C5.05841 10.6068 5.39679 11.4494 5.9299 12.166L7.25491 13.954L5.09991 14.512C4.7411 14.6049 4.40431 14.7681 4.10906 14.9921C3.81381 15.2162 3.56598 15.4966 3.37993 15.8172C3.19389 16.1377 3.07334 16.492 3.02527 16.8595C2.9772 17.227 3.00257 17.6004 3.09991 17.958C3.28537 18.5626 3.66395 19.0897 4.17764 19.4585C4.69132 19.8273 5.31177 20.0175 5.9439 20H15.5799C16.8276 20.0208 18.0435 19.6059 19.0183 18.827C19.9931 18.048 20.6659 16.9535 20.9209 15.732C21.0436 15.0443 21.0252 14.3388 20.8669 13.6584C20.7086 12.978 20.4136 12.3369 19.9999 11.774C19.5863 11.2108 19.064 10.7361 18.4639 10.378C17.8638 10.0199 17.198 9.7856 16.5059 9.68902L15.3699 9.53702L15.2199 8.40002C15.1273 7.72087 14.9017 7.06665 14.5559 6.47482C14.2102 5.88299 13.7511 5.36517 13.2049 4.95102C12.3075 4.27207 11.2122 3.90636 10.0869 3.91002Z" fill="#374957"/>
</g>
<defs>
<clipPath id="clip0_406_460">
<rect width="24" height="24" fill="white"/>
</clipPath>
</defs>
</svg>
