<svg width="24" height="24" viewBox="0 0 24 24" fill="none" xmlns="http://www.w3.org/2000/svg">
<g clip-path="url(#clip0_406_447)">
<path d="M1.78291 5.40698L0.216906 2.84898L4.71691 0.0999756L6.28291 2.65298L1.78291 5.40698ZM21.3829 17.712L18.6059 22.212L21.1589 23.788L23.9359 19.288L21.3829 17.712ZM20.9069 14.786L16.2159 22.393C15.9604 22.824 15.6093 23.1906 15.1897 23.4646C14.7702 23.7385 14.2933 23.9124 13.7959 23.973C13.6536 23.9909 13.5103 23.9999 13.3669 24C12.9325 24.0002 12.5023 23.9145 12.1012 23.7476C11.7001 23.5808 11.336 23.3362 11.0299 23.028L9.94491 21.945C9.14953 22.6521 8.11399 23.0285 7.05021 22.9972C5.98642 22.9659 4.97482 22.5292 4.22242 21.7765C3.47001 21.0239 3.03368 20.0121 3.00273 18.9483C2.97178 17.8845 3.34854 16.8491 4.05591 16.054L0.971906 12.968C0.624587 12.6203 0.358821 12.1999 0.193812 11.737C0.0288022 11.2741 -0.0313316 10.7804 0.0177549 10.2914C0.0668414 9.80248 0.223923 9.33054 0.47765 8.9097C0.731377 8.48886 1.07541 8.12964 1.48491 7.85798L8.87691 3.33598C10.296 2.42691 11.9537 1.96094 13.6386 1.99745C15.3236 2.03396 16.9595 2.57129 18.3379 3.54098L20.3139 1.56398L22.4359 3.68598L20.4599 5.66098C21.3847 6.98619 21.917 8.54535 21.9957 10.1594C22.0744 11.7735 21.6964 13.3771 20.9049 14.786H20.9069ZM17.3869 6.64098C16.495 5.7409 15.321 5.17433 14.0614 5.036C12.8019 4.89766 11.5329 5.19594 10.4669 5.88098L3.09991 10.389C3.04205 10.4403 3.00622 10.5119 2.99991 10.589C2.9948 10.6356 3.00033 10.6828 3.0161 10.7269C3.03186 10.7711 3.05744 10.8111 3.09091 10.844L13.1469 20.904C13.1803 20.9392 13.2218 20.9658 13.2678 20.9815C13.3138 20.9972 13.3629 21.0015 13.4109 20.994C13.4588 20.989 13.5048 20.9726 13.545 20.9462C13.5852 20.9197 13.6184 20.884 13.6419 20.842L18.3209 13.258C18.9027 12.2025 19.126 10.9866 18.9572 9.79326C18.7884 8.59992 18.2367 7.49367 17.3849 6.64098H17.3869Z" fill="#374957"/>
</g>
<defs>
<clipPath id="clip0_406_447">
<rect width="24" height="24" fill="white"/>
</clipPath>
</defs>
</svg>
