<svg width="24" height="24" viewBox="0 0 24 24" fill="none" xmlns="http://www.w3.org/2000/svg">
<path d="M12 0.999757C9.45951 0.998672 6.98481 1.80761 4.93544 3.30906C2.88607 4.8105 1.36879 6.92625 0.60401 9.34892C-0.16077 11.7716 -0.133207 14.375 0.682693 16.781C1.49859 19.1869 3.06033 21.27 5.14103 22.7278L5.52803 22.9998H18.472L18.859 22.7278C20.9397 21.27 22.5015 19.1869 23.3174 16.781C24.1333 14.375 24.1608 11.7716 23.396 9.34892C22.6313 6.92625 21.114 4.8105 19.0646 3.30906C17.0152 1.80761 14.5406 0.998672 12 0.999757ZM17.5 19.9998H6.50003C5.02915 18.854 3.95282 17.2775 3.42134 15.4903C2.88987 13.7032 2.9298 11.7947 3.53554 10.0314C4.14128 8.26806 5.2826 6.73792 6.80011 5.65467C8.31762 4.57141 10.1356 3.98913 12 3.98913C13.8645 3.98913 15.6824 4.57141 17.1999 5.65467C18.7175 6.73792 19.8588 8.26806 20.4645 10.0314C21.0703 11.7947 21.1102 13.7032 20.5787 15.4903C20.0472 17.2775 18.9709 18.854 17.5 19.9998ZM13.989 13.0788C13.9759 13.4634 13.852 13.836 13.6323 14.152C13.4127 14.468 13.1065 14.7139 12.7505 14.8602C12.3946 15.0065 12.004 15.047 11.6256 14.9768C11.2472 14.9067 10.8971 14.7288 10.6172 14.4646C10.3374 14.2004 10.1397 13.8611 10.0479 13.4874C9.95613 13.1137 9.97412 12.7214 10.0997 12.3576C10.2253 11.9938 10.4532 11.674 10.756 11.4365C11.0589 11.1991 11.4238 11.054 11.807 11.0188L15.407 7.41376L17.528 9.53476L13.989 13.0788ZM9.70603 16.2718L7.98103 18.7278C6.67144 17.8199 5.71158 16.4916 5.26067 14.9632C4.80976 13.4349 4.8949 11.7983 5.50198 10.325C6.10905 8.85164 7.20157 7.63013 8.5983 6.86307C9.99503 6.09601 11.612 5.8295 13.181 6.10776L9.00903 10.3708C8.63491 10.7898 8.35411 11.2836 8.18523 11.8194C8.01634 12.3551 7.96324 12.9207 8.02942 13.4785C8.09561 14.0364 8.27957 14.5738 8.56913 15.0551C8.8587 15.5365 9.24724 15.9509 9.70903 16.2708L9.70603 16.2718ZM19 12.9998C18.9984 14.1235 18.7268 15.2304 18.208 16.2273C17.6892 17.2241 16.9385 18.0817 16.019 18.7278L14.294 16.2718C14.61 16.0498 18.878 11.7278 18.878 11.7278C18.9578 12.1471 18.9986 12.5729 19 12.9998Z" fill="#374957"/>
</svg>
