<svg width="24" height="24" viewBox="0 0 24 24" fill="none" xmlns="http://www.w3.org/2000/svg">
<g clip-path="url(#clip0_406_448)">
<path d="M21.8711 15.992L23.9921 13.871L10.1211 0L8.00014 2.121L8.92914 3.05L7.05015 4.929L4.06114 1.939L1.93915 4.061L4.92914 7.05L1.04015 10.939C0.715102 11.264 0.457262 11.6499 0.281348 12.0745C0.105435 12.4992 0.0148926 12.9543 0.0148926 13.414C0.0148926 13.8737 0.105435 14.3288 0.281348 14.7535C0.457262 15.1781 0.715102 15.564 1.04015 15.889L8.11014 22.959C8.43517 23.2842 8.82109 23.5422 9.24584 23.7182C9.6706 23.8942 10.1259 23.9848 10.5856 23.9848C11.0454 23.9848 11.5007 23.8942 11.9254 23.7182C12.3502 23.5422 12.7361 23.2842 13.0611 22.959L20.9501 15.07L21.8711 15.992ZM10.9391 20.839C10.8454 20.9327 10.7182 20.9854 10.5856 20.9854C10.4531 20.9854 10.3259 20.9327 10.2321 20.839L3.16115 13.768C3.06741 13.6742 3.01475 13.5471 3.01475 13.4145C3.01475 13.2819 3.06741 13.1548 3.16115 13.061L7.05015 9.171L11.4391 13.561L13.5611 11.439L9.17114 7.05L11.0501 5.171L18.8291 12.95L10.9391 20.839ZM24.0001 21.5C24.0001 22.163 23.7368 22.7989 23.2679 23.2678C22.7991 23.7366 22.1632 24 21.5001 24C20.8371 24 20.2012 23.7366 19.7324 23.2678C19.2635 22.7989 19.0001 22.163 19.0001 21.5C19.0001 20.25 21.5001 17 21.5001 17C21.5001 17 24.0001 20.119 24.0001 21.5Z" fill="#374957"/>
</g>
<defs>
<clipPath id="clip0_406_448">
<rect width="24" height="24" fill="white"/>
</clipPath>
</defs>
</svg>
