<svg width="24" height="24" viewBox="0 0 24 24" fill="none" xmlns="http://www.w3.org/2000/svg">
<g clip-path="url(#clip0_406_55)">
<path d="M18 6C18 4.4087 17.3679 2.88258 16.2426 1.75736C15.1174 0.632141 13.5913 0 12 0C10.4087 0 8.88258 0.632141 7.75736 1.75736C6.63214 2.88258 6 4.4087 6 6H0V21C0 21.7956 0.31607 22.5587 0.87868 23.1213C1.44129 23.6839 2.20435 24 3 24H12V21H3V9H6V11H9V9H15V11H18V9H21V13H24V6H18ZM9 6C9 5.20435 9.31607 4.44129 9.87868 3.87868C10.4413 3.31607 11.2044 3 12 3C12.7956 3 13.5587 3.31607 14.1213 3.87868C14.6839 4.44129 15 5.20435 15 6H9Z" fill="#374957"/>
<path d="M21 15H18V18H15V21H18V24H20.5H21V21H24V20.5V18H21V15Z" fill="#374957"/>
</g>
<defs>
<clipPath id="clip0_406_55">
<rect width="24" height="24" fill="white"/>
</clipPath>
</defs>
</svg>
