<svg width="24" height="24" viewBox="0 0 24 24" fill="none" xmlns="http://www.w3.org/2000/svg">
<g clip-path="url(#clip0_406_471)">
<path d="M20 8C18.9391 8 17.9217 7.57857 17.1716 6.82843C16.4214 6.07828 16 5.06087 16 4C16 2.93913 16.4214 1.92172 17.1716 1.17157C17.9217 0.421427 18.9391 0 20 0C21.0609 0 22.0783 0.421427 22.8284 1.17157C23.5786 1.92172 24 2.93913 24 4C24 5.06087 23.5786 6.07828 22.8284 6.82843C22.0783 7.57857 21.0609 8 20 8ZM24 24H10V21.656L14.336 12.7C14.5808 12.1988 14.962 11.7768 15.4358 11.4825C15.9096 11.1882 16.4569 11.0335 17.0147 11.0362C17.5724 11.0389 18.1181 11.1989 18.5891 11.4978C19.06 11.7968 19.4371 12.2224 19.677 12.726L24 21.656V24ZM13.638 21H20.35L16.965 14.01L13.638 21ZM13.238 7.019C12.9548 6.42342 12.5085 5.92033 11.951 5.56809C11.3935 5.21584 10.7475 5.02888 10.088 5.02888C9.42851 5.02888 8.78254 5.21584 8.225 5.56809C7.66746 5.92033 7.22121 6.42342 6.938 7.019L0 22.172V24H8V21H3.81L9.665 8.272C9.69996 8.18824 9.75893 8.1167 9.83446 8.06637C9.91 8.01605 9.99874 7.9892 10.0895 7.9892C10.1803 7.9892 10.269 8.01605 10.3445 8.06637C10.4201 8.1167 10.479 8.18824 10.514 8.272L12.343 12.248L12.506 11.894C12.9243 10.9806 13.6121 10.217 14.477 9.706L13.238 7.019Z" fill="#374957"/>
</g>
<defs>
<clipPath id="clip0_406_471">
<rect width="24" height="24" fill="white"/>
</clipPath>
</defs>
</svg>
