<svg width="24" height="24" viewBox="0 0 24 24" fill="none" xmlns="http://www.w3.org/2000/svg">
<g clip-path="url(#clip0_406_291)">
<path d="M17.4108 23.9995C16.108 23.999 14.8345 23.6124 13.7514 22.8883C12.6682 22.1643 11.824 21.1354 11.3255 19.9317C10.827 18.728 10.6965 17.4035 10.9506 16.1256C11.2046 14.8478 11.8318 13.674 12.7528 12.7525L17.4108 7.81348L22.1008 12.7835C23.3238 14.0213 24.007 15.6928 24.0012 17.4329C23.9954 19.1729 23.301 20.8399 22.0698 22.0695C21.4592 22.6829 20.733 23.1693 19.9334 23.5005C19.1337 23.8318 18.2764 24.0014 17.4108 23.9995ZM17.4108 12.1855L14.8998 14.8425C14.3905 15.3396 14.0405 15.9768 13.8943 16.6733C13.748 17.3698 13.8121 18.094 14.0784 18.754C14.3448 19.4139 14.8013 19.9798 15.39 20.3797C15.9787 20.7796 16.6729 20.9955 17.3846 20.9998C18.0962 21.0042 18.7931 20.7969 19.3867 20.4043C19.9803 20.0117 20.4437 19.4514 20.7181 18.7948C20.9925 18.1381 21.0655 17.4148 20.9278 16.7165C20.7901 16.0183 20.448 15.3768 19.9448 14.8735L17.4108 12.1855Z" fill="#374957"/>
<path d="M5.62501 13.4991C4.51295 13.4987 3.42596 13.1687 2.50138 12.5508C1.57681 11.9329 0.856137 11.0548 0.43043 10.0274C0.00472304 9.00009 -0.106915 7.86961 0.109622 6.77884C0.326159 5.68807 0.861153 4.68596 1.64701 3.89913L5.62501 0.00512695L9.59101 3.88513C10.6446 4.94239 11.237 6.37366 11.2386 7.86627C11.2403 9.35888 10.6512 10.7915 9.60001 11.8511C9.0793 12.375 8.45987 12.7904 7.77756 13.0732C7.09526 13.3561 6.36363 13.5009 5.62501 13.4991ZM5.62501 4.19913L3.75701 6.02913C3.26983 6.52236 2.99763 7.18834 2.99988 7.8816C3.00213 8.57487 3.27864 9.23907 3.76901 9.72913C4.26911 10.2059 4.93355 10.4719 5.62451 10.4719C6.31546 10.4719 6.97991 10.2059 7.48001 9.72913C7.97 9.2357 8.24499 8.56852 8.24499 7.87313C8.24499 7.17774 7.97 6.51056 7.48001 6.01713L5.62501 4.19913Z" fill="#374957"/>
</g>
<defs>
<clipPath id="clip0_406_291">
<rect width="24" height="24" fill="white"/>
</clipPath>
</defs>
</svg>
