<svg width="24" height="24" viewBox="0 0 24 24" fill="none" xmlns="http://www.w3.org/2000/svg">
<g clip-path="url(#clip0_406_300)">
<path d="M20.4849 3.5159C18.8071 1.83963 16.6699 0.698428 14.3436 0.236545C12.0173 -0.225338 9.60633 0.0128371 7.41536 0.920964C5.2244 1.82909 3.35185 3.3664 2.03443 5.33856C0.717008 7.31072 0.013855 9.62919 0.013855 12.0009C0.013855 14.3726 0.717008 16.6911 2.03443 18.6632C3.35185 20.6354 5.2244 22.1727 7.41536 23.0808C9.60633 23.989 12.0173 24.2271 14.3436 23.7653C16.6699 23.3034 18.8071 22.1622 20.4849 20.4859C22.732 18.2338 23.994 15.1823 23.994 12.0009C23.994 8.8195 22.732 5.768 20.4849 3.5159ZM20.7609 9.9929C18.9964 9.91105 17.326 9.17327 16.077 7.92412C14.8281 6.67496 14.0905 5.00446 14.0089 3.2399C15.6585 3.61035 17.1688 4.44174 18.3642 5.63728C19.5596 6.83282 20.3907 8.34331 20.7609 9.9929ZM3.23893 14.0099C5.00346 14.0913 6.67398 14.8288 7.92301 16.0778C9.17205 17.3269 9.90955 18.9974 9.99093 20.7619C8.34152 20.3915 6.83124 19.5603 5.63589 18.3649C4.44054 17.1696 3.6093 15.6593 3.23893 14.0099ZM18.3639 18.3649C16.9176 19.8125 15.0187 20.7207 12.9839 20.9379C12.9528 18.3163 11.8976 15.8108 10.0438 13.9568C8.18995 12.1028 5.68456 11.0473 3.06293 11.0159C3.28125 8.98154 4.18934 7.08319 5.63621 5.63651C7.08307 4.18982 8.98154 3.28197 11.0159 3.0639C11.0488 5.68566 12.1041 8.19094 13.9571 10.046C15.8101 11.901 18.3142 12.9591 20.9359 12.9949C20.7167 15.026 19.8091 16.921 18.3639 18.3649Z" fill="#374957"/>
</g>
<defs>
<clipPath id="clip0_406_300">
<rect width="24" height="24" fill="white"/>
</clipPath>
</defs>
</svg>
