<svg width="24" height="24" viewBox="0 0 24 24" fill="none" xmlns="http://www.w3.org/2000/svg">
<g clip-path="url(#clip0_406_263)">
<path d="M18 9C18 6.61305 17.0518 4.32387 15.364 2.63604C13.6761 0.948212 11.3869 0 9 0C6.61305 0 4.32387 0.948212 2.63604 2.63604C0.948212 4.32387 0 6.61305 0 9L0 18H9C11.3861 17.9974 13.6738 17.0483 15.361 15.361C17.0483 13.6738 17.9974 11.3861 18 9ZM9 15H3V9C3 7.81331 3.35189 6.65327 4.01118 5.66658C4.67047 4.67988 5.60754 3.91085 6.7039 3.45672C7.80026 3.0026 9.00666 2.88378 10.1705 3.11529C11.3344 3.3468 12.4035 3.91824 13.2426 4.75736C14.0818 5.59647 14.6532 6.66557 14.8847 7.82946C15.1162 8.99334 14.9974 10.1997 14.5433 11.2961C14.0892 12.3925 13.3201 13.3295 12.3334 13.9888C11.3467 14.6481 10.1867 15 9 15ZM24 16V24H16C14.5971 23.9986 13.2192 23.6282 12.0047 22.9262C10.7901 22.2241 9.78145 21.215 9.08 20C10.2085 19.9921 11.3291 19.81 12.402 19.46C12.8665 19.9465 13.4249 20.3338 14.0433 20.5985C14.6617 20.8632 15.3273 20.9998 16 21H21V16C20.9995 15.3267 20.8624 14.6605 20.5971 14.0417C20.3317 13.4229 19.9435 12.8644 19.456 12.4C19.8071 11.3279 19.9906 10.2081 20 9.08C21.215 9.78145 22.2241 10.7901 22.9262 12.0047C23.6282 13.2192 23.9986 14.5971 24 16Z" fill="#374957"/>
</g>
<defs>
<clipPath id="clip0_406_263">
<rect width="24" height="24" fill="white"/>
</clipPath>
</defs>
</svg>
