<svg width="24" height="24" viewBox="0 0 24 24" fill="none" xmlns="http://www.w3.org/2000/svg">
<g clip-path="url(#clip0_406_57)">
<path d="M19.875 21C19.6997 20.9945 19.5279 20.9498 19.3721 20.8691C19.2164 20.7885 19.0807 20.674 18.975 20.534C19.9477 19.6419 20.7202 18.5538 21.2416 17.3413C21.763 16.1289 22.0215 14.8196 22 13.5V12.438L20 11.738V7.5C20 6.57174 19.6313 5.6815 18.9749 5.02513C18.3185 4.36875 17.4283 4 16.5 4H15V2C15 1.46957 14.7893 0.960859 14.4142 0.585786C14.0391 0.210714 13.5304 0 13 0L11 0C10.4696 0 9.96086 0.210714 9.58579 0.585786C9.21071 0.960859 9 1.46957 9 2V4H7.5C6.57174 4 5.6815 4.36875 5.02513 5.02513C4.36875 5.6815 4 6.57174 4 7.5V11.733L2 12.438V13.5C1.9787 14.8184 2.2368 16.1264 2.75732 17.3379C3.27783 18.5494 4.04897 19.6369 5.02 20.529C4.91684 20.6708 4.7825 20.787 4.62732 20.8687C4.47215 20.9503 4.30029 20.9953 4.125 21C3.84997 20.9917 3.5866 20.887 3.38095 20.7042C3.1753 20.5214 3.04046 20.2722 3 20H0C0.043783 21.0684 0.496226 22.0792 1.26388 22.8236C2.03153 23.568 3.05575 23.9891 4.125 24C5.08756 23.992 6.01736 23.6494 6.755 23.031C7.4891 23.654 8.41992 23.9973 9.38276 24C10.3456 24.0028 11.2784 23.6648 12.016 23.046C12.7532 23.6649 13.6857 24.0028 14.6482 24.0001C15.6108 23.9974 16.5413 23.6541 17.275 23.031C17.8639 23.5305 18.5823 23.8528 19.3469 23.9606C20.1115 24.0684 20.891 23.9572 21.595 23.6399C22.2989 23.3226 22.8985 22.8122 23.3242 22.168C23.7499 21.5237 23.9842 20.772 24 20H21C20.9624 20.2734 20.8284 20.5244 20.6221 20.7077C20.4159 20.8911 20.1509 20.9947 19.875 21ZM7 7.5C7 7.36739 7.05268 7.24021 7.14645 7.14645C7.24021 7.05268 7.36739 7 7.5 7H16.5C16.6326 7 16.7598 7.05268 16.8536 7.14645C16.9473 7.24021 17 7.36739 17 7.5V10.674L12 8.909L7 10.674V7.5ZM9.375 21C9.09997 20.9917 8.8366 20.887 8.63095 20.7042C8.4253 20.5214 8.29046 20.2722 8.25 20L8.238 19.172L7.547 18.729C6.87065 18.2355 6.30225 17.609 5.87665 16.888C5.45105 16.167 5.17724 15.3666 5.072 14.536L10.5 12.62V20C10.4624 20.2734 10.3284 20.5244 10.1221 20.7077C9.91587 20.8911 9.65092 20.9947 9.375 21ZM14.625 21C14.35 20.9917 14.0866 20.887 13.881 20.7042C13.6753 20.5214 13.5405 20.2722 13.5 20V12.62L18.928 14.536C18.8222 15.366 18.5484 16.1657 18.1234 16.8864C17.6984 17.6071 17.1311 18.2337 16.456 18.728L15.75 19.162V20C15.7124 20.2734 15.5784 20.5244 15.3721 20.7077C15.1659 20.8911 14.9009 20.9947 14.625 21Z" fill="#374957"/>
</g>
<defs>
<clipPath id="clip0_406_57">
<rect width="24" height="24" fill="white"/>
</clipPath>
</defs>
</svg>
