<svg width="24" height="24" viewBox="0 0 24 24" fill="none" xmlns="http://www.w3.org/2000/svg">
<g clip-path="url(#clip0_406_195)">
<path d="M11 14.9997C12.1046 14.9997 13 14.1043 13 12.9998C13 11.8952 12.1046 10.9998 11 10.9998C9.89543 10.9998 9 11.8952 9 12.9998C9 14.1043 9.89543 14.9997 11 14.9997Z" fill="#374957"/>
<path d="M7.30113 14.1992L5.17981 16.3206L7.68014 18.8209L9.80146 16.6996L7.30113 14.1992Z" fill="#374957"/>
<path d="M23.3791 0.621161C22.9812 0.223503 22.4416 0.00012207 21.8791 0.00012207C21.3165 0.00012207 20.777 0.223503 20.3791 0.621161L18.0001 3.00016V3.95616L15.8331 6.09216C14.6941 5.29669 13.3167 4.91612 11.9309 5.01404C10.5451 5.11196 9.23488 5.68243 8.21909 6.63016C7.82176 7.03309 7.48644 7.49276 7.22409 7.99416C6.28441 7.95387 5.34632 8.10467 4.46661 8.43744C3.5869 8.77021 2.78386 9.27803 2.1061 9.93016C-0.893898 12.9302 -0.649898 18.0552 2.6471 21.3532C4.28574 23.0198 6.51793 23.9694 8.85509 23.9942C9.82 24.0062 10.7777 23.8268 11.6729 23.4663C12.568 23.1059 13.3828 22.5715 14.0701 21.8942C14.7232 21.215 15.2315 20.4103 15.5643 19.5288C15.8971 18.6473 16.0474 17.7075 16.0061 16.7662C16.5102 16.5124 16.9706 16.1799 17.3701 15.7812C18.3104 14.7743 18.8795 13.477 18.9837 12.1033C19.0878 10.7296 18.7208 9.36133 17.9431 8.22416L20.2001 6.00016H21.0001L23.3791 3.62116C23.7767 3.22325 24.0001 2.68371 24.0001 2.12116C24.0001 1.55861 23.7767 1.01907 23.3791 0.621161ZM15.2491 13.6602C15.0677 13.8391 14.8587 13.9876 14.6301 14.1002C14.157 14.302 13.7518 14.6355 13.4629 15.061C13.1739 15.4864 13.0133 15.986 13.0001 16.5002C13.0637 17.089 13.0029 17.6846 12.8217 18.2484C12.6405 18.8122 12.3428 19.3317 11.9481 19.7732C10.1171 21.6032 6.89509 21.3602 4.7681 19.2322C2.6411 17.1042 2.3961 13.8832 4.2271 12.0522C4.63256 11.6832 5.10804 11.3995 5.62528 11.218C6.14253 11.0364 6.69099 10.9606 7.23809 10.9952C7.32509 10.9952 7.41209 10.9952 7.50109 11.0002C8.01457 10.9858 8.51322 10.8248 8.93826 10.5364C9.36331 10.248 9.69703 9.844 9.90009 9.37216C10.0128 9.14282 10.1617 8.93313 10.3411 8.75116C10.7764 8.35767 11.3197 8.10371 11.9008 8.02207C12.4819 7.94043 13.0742 8.03486 13.6011 8.29316L12.5751 9.30016L14.6811 11.4362L15.7151 10.4162C15.9699 10.9417 16.0617 11.5314 15.9787 12.1095C15.8956 12.6876 15.6415 13.2276 15.2491 13.6602Z" fill="#374957"/>
</g>
<defs>
<clipPath id="clip0_406_195">
<rect width="24" height="24" fill="white"/>
</clipPath>
</defs>
</svg>
