<svg width="24" height="24" viewBox="0 0 24 24" fill="none" xmlns="http://www.w3.org/2000/svg">
<g clip-path="url(#clip0_406_468)">
<path d="M3 20.5V0H0V20.5C0 21.4283 0.368749 22.3185 1.02513 22.9749C1.6815 23.6313 2.57174 24 3.5 24H24V21H3.5C3.36739 21 3.24021 20.9473 3.14645 20.8536C3.05268 20.7598 3 20.6326 3 20.5Z" fill="#374957"/>
<path d="M22.5001 5.00012H17.0001L19.4391 7.43912L16.0001 10.8791L13.5001 8.37912L6.43909 15.4391L8.56109 17.5611L13.5001 12.6211L16.0001 15.1211L21.5611 9.56112L24.0001 12.0001V6.50012C24.0001 6.1023 23.8421 5.72077 23.5607 5.43946C23.2794 5.15816 22.8979 5.00012 22.5001 5.00012Z" fill="#374957"/>
</g>
<defs>
<clipPath id="clip0_406_468">
<rect width="24" height="24" fill="white"/>
</clipPath>
</defs>
</svg>
