<svg width="24" height="24" viewBox="0 0 24 24" fill="none" xmlns="http://www.w3.org/2000/svg">
<g clip-path="url(#clip0_406_330)">
<path d="M19.5 0C18.3069 0.00132343 17.1631 0.475854 16.3195 1.31948C15.4759 2.16311 15.0013 3.30693 15 4.5V5H18V4.5C18 4.10218 18.158 3.72064 18.4393 3.43934C18.7206 3.15804 19.1022 3 19.5 3H21V13.607C20.277 13.2353 19.4804 13.0289 18.6678 13.0029C17.8552 12.9769 17.0471 13.1319 16.3018 13.4566C15.5565 13.7814 14.8927 14.2678 14.3585 14.8806C13.8243 15.4934 13.433 16.2174 13.213 17H10.787C10.567 16.2174 10.1757 15.4934 9.64152 14.8806C9.10731 14.2678 8.44354 13.7814 7.69824 13.4566C6.95293 13.1319 6.14475 12.9769 5.33219 13.0029C4.51962 13.0289 3.72301 13.2353 3 13.607V3H4.5C4.89782 3 5.27936 3.15804 5.56066 3.43934C5.84196 3.72064 6 4.10218 6 4.5V5H9V4.5C8.99868 3.30693 8.52415 2.16311 7.68052 1.31948C6.83689 0.475854 5.69307 0.00132343 4.5 0L0 0V18.5C0.00378532 19.8248 0.485594 21.1036 1.35687 22.1016C2.22814 23.0995 3.43033 23.7494 4.74246 23.9319C6.05459 24.1143 7.38849 23.8171 8.49898 23.0947C9.60946 22.3724 10.4219 21.2735 10.787 20H13.213C13.5781 21.2735 14.3905 22.3724 15.501 23.0947C16.6115 23.8171 17.9454 24.1143 19.2575 23.9319C20.5697 23.7494 21.7719 23.0995 22.6431 22.1016C23.5144 21.1036 23.9962 19.8248 24 18.5V0H19.5ZM5.5 21C5.00555 21 4.5222 20.8534 4.11107 20.5787C3.69995 20.304 3.37952 19.9135 3.1903 19.4567C3.00108 18.9999 2.95157 18.4972 3.04804 18.0123C3.1445 17.5273 3.3826 17.0819 3.73223 16.7322C4.08186 16.3826 4.52732 16.1445 5.01227 16.048C5.49723 15.9516 5.99989 16.0011 6.45671 16.1903C6.91352 16.3795 7.30397 16.7 7.57867 17.1111C7.85338 17.5222 8 18.0055 8 18.5C8 19.163 7.73661 19.7989 7.26777 20.2678C6.79893 20.7366 6.16304 21 5.5 21ZM18.5 21C18.0055 21 17.5222 20.8534 17.1111 20.5787C16.7 20.304 16.3795 19.9135 16.1903 19.4567C16.0011 18.9999 15.9516 18.4972 16.048 18.0123C16.1445 17.5273 16.3826 17.0819 16.7322 16.7322C17.0819 16.3826 17.5273 16.1445 18.0123 16.048C18.4972 15.9516 18.9999 16.0011 19.4567 16.1903C19.9135 16.3795 20.304 16.7 20.5787 17.1111C20.8534 17.5222 21 18.0055 21 18.5C21 19.163 20.7366 19.7989 20.2678 20.2678C19.7989 20.7366 19.163 21 18.5 21Z" fill="#374957"/>
</g>
<defs>
<clipPath id="clip0_406_330">
<rect width="24" height="24" fill="white"/>
</clipPath>
</defs>
</svg>
