<svg width="24" height="24" viewBox="0 0 24 24" fill="none" xmlns="http://www.w3.org/2000/svg">
<g clip-path="url(#clip0_406_492)">
<path d="M15.942 24C8.79102 24 2.12548e-05 15.209 2.12548e-05 8.05797C-0.0065659 7.2562 0.146151 6.46111 0.449309 5.71884C0.752468 4.97656 1.20003 4.30189 1.76602 3.73397L5.41002 0.0899718L12.052 6.73097L9.08902 9.69997C10.1513 12.0038 11.9984 13.8548 14.3 14.922L17.274 11.949L23.91 18.59L20.265 22.235C19.6971 22.8007 19.0226 23.248 18.2805 23.551C17.5384 23.8539 16.7436 24.0066 15.942 24ZM5.41002 4.33297L3.88602 5.85597C3.5999 6.14607 3.37425 6.4901 3.22215 6.8681C3.07006 7.24611 2.99455 7.65055 3.00002 8.05797C3.00002 13.933 10.949 21 15.942 21C16.349 21.0052 16.753 20.9297 17.1306 20.7778C17.5083 20.6259 17.852 20.4006 18.142 20.115L19.667 18.59L17.267 16.19L15.012 18.445L14.103 18.098C12.2311 17.4012 10.5308 16.3102 9.11744 14.8989C7.70404 13.4875 6.61053 11.7889 5.91102 9.91797L5.54202 8.99997L7.81002 6.73097L5.41002 4.33297ZM12.234 4.08497C13.2914 3.29933 14.596 2.92007 15.9098 3.01639C17.2235 3.11272 18.4588 3.67821 19.3903 4.60968C20.3218 5.54114 20.8873 6.77648 20.9836 8.09024C21.0799 9.404 20.7007 10.7086 19.915 11.766L22.054 13.906C23.3864 12.2743 24.0654 10.2061 23.9594 8.10229C23.8535 5.99845 22.9701 4.00891 21.4806 2.51939C19.9911 1.02987 18.0015 0.146497 15.8977 0.0405505C13.7939 -0.0653958 11.7256 0.613629 10.094 1.94597L12.234 4.08497ZM16.439 11.439L14 8.99997V4.99997H17V7.75797L18.561 9.31797L16.439 11.439Z" fill="#374957"/>
</g>
<defs>
<clipPath id="clip0_406_492">
<rect width="24" height="24" fill="white"/>
</clipPath>
</defs>
</svg>
