<svg width="24" height="24" viewBox="0 0 24 24" fill="none" xmlns="http://www.w3.org/2000/svg">
<g clip-path="url(#clip0_406_203)">
<path d="M12 10.0001C10.9963 10.0009 9.99392 10.0714 9 10.2111V7.02206L14 4.50006L8 0.13406C7.77704 0.0208186 7.52755 -0.0298516 7.27808 -0.0125575C7.02861 0.0047366 6.78849 0.0893477 6.58329 0.232271C6.37809 0.375194 6.21548 0.57108 6.11277 0.799082C6.01005 1.02708 5.97108 1.27867 6 1.52706V10.8841C2.361 12.0591 0 14.3001 0 17.0001C0 20.9911 5.159 24.0001 12 24.0001C18.841 24.0001 24 20.9911 24 17.0001C24 13.0091 18.841 10.0001 12 10.0001ZM12 21.0001C6.849 21.0001 3 18.8881 3 17.0001C3 15.9751 4.14 14.8871 6 14.1001V17.0001H9V13.2541C9.99098 13.0844 10.9946 12.9994 12 13.0001C17.151 13.0001 21 15.1121 21 17.0001C21 18.8881 17.151 21.0001 12 21.0001ZM17 17.0001C17 17.3956 16.8827 17.7823 16.6629 18.1112C16.4432 18.4401 16.1308 18.6964 15.7654 18.8478C15.3999 18.9992 14.9978 19.0388 14.6098 18.9616C14.2219 18.8845 13.8655 18.694 13.5858 18.4143C13.3061 18.1346 13.1156 17.7782 13.0384 17.3902C12.9613 17.0023 13.0009 16.6001 13.1522 16.2347C13.3036 15.8692 13.56 15.5569 13.8889 15.3371C14.2178 15.1174 14.6044 15.0001 15 15.0001C15.5304 15.0001 16.0391 15.2108 16.4142 15.5858C16.7893 15.9609 17 16.4696 17 17.0001Z" fill="#374957"/>
</g>
<defs>
<clipPath id="clip0_406_203">
<rect width="24" height="24" fill="white"/>
</clipPath>
</defs>
</svg>
