<svg width="24" height="24" viewBox="0 0 24 24" fill="none" xmlns="http://www.w3.org/2000/svg">
<g clip-path="url(#clip0_406_424)">
<path d="M21 19.0002C21 19.5306 20.7893 20.0393 20.4142 20.4144C20.0391 20.7895 19.5304 21.0002 19 21.0002H17V18.0002H22V13.8442C21.9972 12.4002 21.4956 11.0015 20.5801 9.88483C19.6646 8.76814 18.3914 8.00205 16.976 7.71621L13.3 6.97921C13.0227 6.92362 12.7698 6.78232 12.5771 6.57525C12.3844 6.36819 12.2616 6.10583 12.226 5.82521L11.826 2.9252C11.7601 2.45999 11.599 2.01337 11.3526 1.6133C11.1062 1.21324 10.7798 0.868344 10.394 0.600205C9.99493 0.329187 9.54356 0.144689 9.06891 0.0585768C8.59426 -0.0275352 8.10684 -0.0133552 7.638 0.100205L0 2.2672V18.0002H4V21.0002H0V24.0002H19C20.3256 23.9986 21.5964 23.4713 22.5338 22.534C23.4711 21.5966 23.9984 20.3258 24 19.0002H21ZM3 4.53421L8.372 3.01021C8.42587 2.99808 8.48167 2.99724 8.53588 3.00774C8.5901 3.01824 8.64155 3.03985 8.687 3.07121C8.73142 3.10121 8.76917 3.14006 8.7979 3.18531C8.82664 3.23056 8.84573 3.28124 8.854 3.33421L9.079 4.98721H7V7.98721H9.9C10.0573 8.23882 10.2402 8.47341 10.446 8.68721L9.21 10.7872L11.796 12.3072L13.146 10.0072L16.391 10.6562C17.1265 10.8059 17.7877 11.2049 18.2631 11.7857C18.7384 12.3665 18.9987 13.0937 19 13.8442V15.0002H3V4.53421ZM7 18.0002H14V21.0002H7V18.0002Z" fill="#374957"/>
</g>
<defs>
<clipPath id="clip0_406_424">
<rect width="24" height="24" fill="white"/>
</clipPath>
</defs>
</svg>
