<svg width="24" height="24" viewBox="0 0 24 24" fill="none" xmlns="http://www.w3.org/2000/svg">
<g clip-path="url(#clip0_406_344)">
<path d="M17 8V0H20V8H24L19.312 12.642C19.0828 12.8711 18.7721 12.9998 18.448 12.9998C18.1239 12.9998 17.8132 12.8711 17.584 12.642L13 8H17ZM21 21H3V11.2L8.239 16.44C8.73276 16.934 9.319 17.3258 9.96424 17.5932C10.6095 17.8605 11.3011 17.9981 11.9995 17.9981C12.6979 17.9981 13.3895 17.8605 14.0348 17.5932C14.68 17.3258 15.2662 16.934 15.76 16.44L17.343 14.858C16.8198 14.7137 16.3421 14.4383 15.955 14.058L14.936 13.026L13.636 14.326C13.1945 14.7477 12.6075 14.983 11.997 14.983C11.3865 14.983 10.7995 14.7477 10.358 14.326L3 6.96V6.5C3 6.36739 3.05268 6.24021 3.14645 6.14645C3.24021 6.05268 3.36739 6 3.5 6H15V3H3.5C2.57174 3 1.6815 3.36875 1.02513 4.02513C0.368749 4.6815 0 5.57174 0 6.5L0 24H24V10.6L21 13.57V21Z" fill="#374957"/>
</g>
<defs>
<clipPath id="clip0_406_344">
<rect width="24" height="24" fill="white"/>
</clipPath>
</defs>
</svg>
