<svg width="24" height="24" viewBox="0 0 24 24" fill="none" xmlns="http://www.w3.org/2000/svg">
<g clip-path="url(#clip0_406_193)">
<path d="M24 13.5C23.9964 10.5788 22.9283 7.75905 20.9956 5.56862C19.0628 3.3782 16.398 1.96728 13.5 1.6V0H10.5V1.6C7.60198 1.96728 4.93717 3.3782 3.00444 5.56862C1.07171 7.75905 0.00357499 10.5788 0 13.5L0 15H10.5V20.25C10.5 20.4489 10.421 20.6397 10.2803 20.7803C10.1397 20.921 9.94891 21 9.75 21C9.55109 21 9.36032 20.921 9.21967 20.7803C9.07902 20.6397 9 20.4489 9 20.25V20H6V20.25C6 21.2446 6.39509 22.1984 7.09835 22.9017C7.80161 23.6049 8.75544 24 9.75 24C10.7446 24 11.6984 23.6049 12.4017 22.9017C13.1049 22.1984 13.5 21.2446 13.5 20.25V15H24V13.5ZM3.125 12C3.4784 9.90176 4.56378 7.99659 6.1885 6.62263C7.81323 5.24867 9.87221 4.49478 12 4.49478C14.1278 4.49478 16.1868 5.24867 17.8115 6.62263C19.4362 7.99659 20.5216 9.90176 20.875 12H3.125Z" fill="#374957"/>
</g>
<defs>
<clipPath id="clip0_406_193">
<rect width="24" height="24" fill="white"/>
</clipPath>
</defs>
</svg>
