<svg width="24" height="24" viewBox="0 0 24 24" fill="none" xmlns="http://www.w3.org/2000/svg">
<g clip-path="url(#clip0_406_481)">
<path d="M12.5129 3.50001L12.4999 2.00001H10.9999C8.26307 1.99703 5.6234 3.01441 3.5965 4.85343C1.5696 6.69245 0.30105 9.22101 0.0386241 11.9452C-0.223802 14.6695 0.538746 17.3937 2.17733 19.5858C3.81591 21.7779 6.21282 23.2805 8.89991 23.8C9.58476 23.9318 10.2805 23.9988 10.9779 24C13.8958 23.995 16.693 22.8352 18.7584 20.774C20.8237 18.7128 21.9891 15.9179 21.9999 13V11.5H12.4999L12.5129 3.50001ZM18.8559 14.5C18.5808 15.9238 17.9231 17.2457 16.9535 18.324C15.9838 19.4023 14.7389 20.1962 13.3522 20.6205C11.9656 21.0447 10.4896 21.0834 9.0826 20.7323C7.67563 20.3812 6.39083 19.6535 5.3661 18.6275C4.34138 17.6015 3.6154 16.3157 3.26609 14.9083C2.91679 13.5009 2.95734 12.0249 3.3834 10.6388C3.80946 9.2527 4.60494 8.00878 5.68446 7.04054C6.76398 6.07231 8.08679 5.41633 9.51091 5.14301L9.49991 14.5H18.8559Z" fill="#374957"/>
<path d="M14.4999 0.00500488V9.5H23.9999C23.9875 6.98472 22.9825 4.57605 21.2034 2.79792C19.4244 1.0198 17.0152 0.0160459 14.4999 0.00500488Z" fill="#374957"/>
</g>
<defs>
<clipPath id="clip0_406_481">
<rect width="24" height="24" fill="white"/>
</clipPath>
</defs>
</svg>
