<svg width="24" height="24" viewBox="0 0 24 24" fill="none" xmlns="http://www.w3.org/2000/svg">
<g clip-path="url(#clip0_406_84)">
<path d="M24 16V13H22V3.5C22 2.57174 21.6313 1.6815 20.9749 1.02513C20.3185 0.368749 19.4283 0 18.5 0H5.5C4.57174 0 3.6815 0.368749 3.02513 1.02513C2.36875 1.6815 2 2.57174 2 3.5V13H0V16H10.5V19H9.5C8.57174 19 7.6815 19.3687 7.02513 20.0251C6.36875 20.6815 6 21.5717 6 22.5V24H9V22.5C9 22.3674 9.05268 22.2402 9.14645 22.1464C9.24021 22.0527 9.36739 22 9.5 22H14.5C14.6326 22 14.7598 22.0527 14.8536 22.1464C14.9473 22.2402 15 22.3674 15 22.5V24H18V22.5C18 21.5717 17.6313 20.6815 16.9749 20.0251C16.3185 19.3687 15.4283 19 14.5 19H13.5V16H24ZM5 3.5C5 3.36739 5.05268 3.24021 5.14645 3.14645C5.24021 3.05268 5.36739 3 5.5 3H18.5C18.6326 3 18.7598 3.05268 18.8536 3.14645C18.9473 3.24021 19 3.36739 19 3.5V13H5V3.5Z" fill="#374957"/>
</g>
<defs>
<clipPath id="clip0_406_84">
<rect width="24" height="24" fill="white"/>
</clipPath>
</defs>
</svg>
