<svg width="24" height="24" viewBox="0 0 24 24" fill="none" xmlns="http://www.w3.org/2000/svg">
<g clip-path="url(#clip0_406_347)">
<path d="M15.5 10.9998V13.6357C15.4995 13.9973 15.3556 14.344 15.0999 14.5997C14.8442 14.8553 14.4976 14.9992 14.136 14.9997H9.864C9.50241 14.9992 9.15578 14.8553 8.90009 14.5997C8.64441 14.344 8.50053 13.9973 8.5 13.6357V10.9998H0V20.9997C0 21.7954 0.31607 22.5584 0.87868 23.121C1.44129 23.6837 2.20435 23.9997 3 23.9997H21C21.7956 23.9997 22.5587 23.6837 23.1213 23.121C23.6839 22.5584 24 21.7954 24 20.9997V10.9998H15.5ZM21 20.9997H3V13.9997H5.515C5.60763 15.0898 6.10577 16.1056 6.911 16.8462C7.71623 17.5868 8.76997 17.9984 9.864 17.9997H14.136C15.23 17.9984 16.2838 17.5868 17.089 16.8462C17.8942 16.1056 18.3924 15.0898 18.485 13.9997H21V20.9997Z" fill="#374957"/>
<path d="M21.9999 6H1.99991V9H21.9999V6Z" fill="#374957"/>
<path d="M21.9999 1.00024H1.99991V4.00024H21.9999V1.00024Z" fill="#374957"/>
</g>
<defs>
<clipPath id="clip0_406_347">
<rect width="24" height="24" fill="white"/>
</clipPath>
</defs>
</svg>
