<svg width="24" height="24" viewBox="0 0 24 24" fill="none" xmlns="http://www.w3.org/2000/svg">
<g clip-path="url(#clip0_406_210)">
<path d="M24 13.4995H0V10.4995H24V13.4995ZM9.671 0.515477L9.544 0.429477C9.08893 0.156315 8.56955 0.00877045 8.03884 0.00189941C7.50813 -0.00497162 6.98509 0.129077 6.52311 0.390366C6.06112 0.651655 5.67673 1.03083 5.40915 1.4892C5.14157 1.94757 5.00038 2.46872 5 2.99947V8.99947H21.008L9.671 0.515477ZM8 3.01147L11.992 5.99947H8V3.01147ZM9.544 23.5694L21.008 14.9995H5V20.9995C5.00316 21.7941 5.32024 22.5554 5.88217 23.1173C6.4441 23.6792 7.20532 23.9963 8 23.9994C8.54414 23.9988 9.07785 23.8502 9.544 23.5694ZM11.992 17.9995L8 20.9875V17.9995H11.992Z" fill="#374957"/>
</g>
<defs>
<clipPath id="clip0_406_210">
<rect width="24" height="24" fill="white"/>
</clipPath>
</defs>
</svg>
