<svg width="24" height="24" viewBox="0 0 24 24" fill="none" xmlns="http://www.w3.org/2000/svg">
<g clip-path="url(#clip0_406_237)">
<path d="M23.258 4.94677C22.1305 3.59794 20.6961 2.53901 19.075 1.8587C17.454 1.1784 15.6934 0.896553 13.941 1.03677C13.7515 0.830786 13.536 0.650278 13.3 0.499772C12.8915 0.246641 12.4331 0.0847632 11.9562 0.0252178C11.4794 -0.0343277 10.9952 0.00986546 10.537 0.154772C8.51839 0.781458 6.6469 1.80887 5.03451 3.17555C3.42213 4.54223 2.10197 6.2201 1.15302 8.10877C0.748247 8.90935 0.411721 9.74263 0.147017 10.5998C0.00647076 11.0547 -0.0347461 11.5344 0.0261546 12.0066C0.0870552 12.4788 0.248653 12.9324 0.500017 13.3368C0.654996 13.5768 0.840555 13.7956 1.05202 13.9878C0.919853 15.7319 1.20533 17.4824 1.88479 19.0942C2.56425 20.706 3.61812 22.1326 4.95902 23.2558C5.32893 23.5649 5.7639 23.7864 6.23143 23.9038C6.69896 24.0212 7.18697 24.0314 7.65902 23.9338C8.14937 23.8364 8.61121 23.629 9.00965 23.327C9.40808 23.0251 9.73271 22.6365 9.95902 22.1908L12.908 16.4298L13.379 16.5028L16.51 13.3598L16.436 12.9008L22.193 9.94877C22.6382 9.72212 23.0262 9.39733 23.3276 8.99892C23.629 8.6005 23.836 8.13885 23.933 7.64877C24.0314 7.17664 24.0218 6.68838 23.9049 6.22049C23.788 5.7526 23.5669 5.31718 23.258 4.94677ZM3.01502 11.4828C3.62718 9.49467 4.71357 7.68524 6.18058 6.21039C7.64759 4.73554 9.45121 3.63952 11.436 3.01677C11.4824 3.00189 11.5315 2.99704 11.58 3.00256C11.6284 3.00808 11.6751 3.02383 11.717 3.04877C11.7528 3.06988 11.7833 3.09886 11.8061 3.13352C11.829 3.16817 11.8437 3.20759 11.849 3.24877L13.306 12.3288L12.335 13.3048L3.25202 11.8848C3.21088 11.8781 3.17168 11.8626 3.13714 11.8393C3.1026 11.816 3.07356 11.7854 3.05202 11.7498C3.02615 11.7109 3.00939 11.6667 3.00298 11.6205C2.99657 11.5743 3.00069 11.5272 3.01502 11.4828ZM7.29302 20.8248C7.27696 20.8618 7.2532 20.895 7.2233 20.9221C7.19341 20.9493 7.15807 20.9697 7.11965 20.9821C7.08123 20.9945 7.04061 20.9986 7.00049 20.994C6.96038 20.9895 6.92169 20.9764 6.88702 20.9558C6.01848 20.23 5.31513 19.3269 4.82411 18.3071C4.33309 17.2873 4.06575 16.1743 4.04002 15.0428L9.79102 15.9428L7.29302 20.8248ZM20.825 7.27877L15.936 9.78477L15.011 4.01677C16.1483 4.0382 17.2677 4.30397 18.2933 4.79606C19.3189 5.28814 20.2267 5.99503 20.955 6.86877C20.9761 6.89409 20.9906 6.92423 20.9972 6.95651C21.0039 6.98878 21.0024 7.02219 20.993 7.05377C20.9838 7.10153 20.9639 7.14658 20.9348 7.18555C20.9057 7.22452 20.8682 7.25639 20.825 7.27877Z" fill="#374957"/>
</g>
<defs>
<clipPath id="clip0_406_237">
<rect width="24" height="24" fill="white"/>
</clipPath>
</defs>
</svg>
