<svg width="24" height="24" viewBox="0 0 24 24" fill="none" xmlns="http://www.w3.org/2000/svg">
<g clip-path="url(#clip0_406_127)">
<path d="M23.9529 4.56304L19.4359 0.0450439L5.1999 12.132L0.0328979 14.8V16.79C0.0350149 18.6937 0.792125 20.5189 2.13815 21.8651C3.48417 23.2113 5.3092 23.9687 7.2129 23.971H9.2179L11.8069 18.924L23.9529 4.56304ZM19.8809 4.73204L14.6139 10.958L13.0549 9.40004L19.2699 4.12104L19.8809 4.73204ZM7.3849 20.968H7.2129C6.10453 20.9667 5.04194 20.5258 4.2583 19.7419C3.47466 18.9581 3.03396 17.8954 3.0329 16.787V16.625L6.5059 14.835L9.1669 17.5L7.3849 20.968Z" fill="#374957"/>
</g>
<defs>
<clipPath id="clip0_406_127">
<rect width="24" height="24" fill="white"/>
</clipPath>
</defs>
</svg>
