<svg width="24" height="24" viewBox="0 0 24 24" fill="none" xmlns="http://www.w3.org/2000/svg">
<g clip-path="url(#clip0_406_484)">
<path d="M17.5 13C18.7856 13 20.0423 12.6188 21.1112 11.9046C22.1801 11.1903 23.0133 10.1752 23.5052 8.98745C23.9972 7.79973 24.1259 6.49279 23.8751 5.23192C23.6243 3.97104 23.0052 2.81285 22.0962 1.90381C21.1872 0.994768 20.029 0.375703 18.7681 0.124899C17.5072 -0.125905 16.2003 0.00281635 15.0126 0.494786C13.8248 0.986756 12.8097 1.81988 12.0954 2.8888C11.3812 3.95772 11 5.21443 11 6.5C11.0021 8.22326 11.6876 9.87533 12.9061 11.0939C14.1247 12.3124 15.7767 12.9979 17.5 13ZM17.5 10C17.1026 9.99599 16.7088 9.9236 16.336 9.786L20.786 5.336C20.9236 5.70885 20.996 6.1026 21 6.5C21 7.42826 20.6313 8.3185 19.9749 8.97488C19.3185 9.63126 18.4283 10 17.5 10ZM17.5 3C17.8974 3.00402 18.2912 3.07641 18.664 3.214L14.214 7.664C14.0764 7.29116 14.004 6.89741 14 6.5C14 5.57175 14.3688 4.68151 15.0251 4.02513C15.6815 3.36875 16.5717 3 17.5 3ZM24 11.966V24H0V6.5C0 5.57175 0.368749 4.68151 1.02513 4.02513C1.6815 3.36875 2.57174 3 3.5 3H9.763C9.33451 3.94608 9.08432 4.96311 9.025 6H3.5C3.36739 6 3.24022 6.05268 3.14645 6.14645C3.05268 6.24022 3 6.3674 3 6.5V6.96L10.361 14.321C10.8025 14.7427 11.3895 14.978 12 14.978C12.6105 14.978 13.1975 14.7427 13.639 14.321L13.813 14.147C14.8752 14.6613 16.0335 14.9471 17.213 14.986L15.76 16.442C15.2662 16.936 14.68 17.3278 14.0348 17.5952C13.3895 17.8625 12.6979 18.0001 11.9995 18.0001C11.3011 18.0001 10.6095 17.8625 9.96424 17.5952C9.319 17.3278 8.73276 16.936 8.239 16.442L3 11.2V21H21V14.237C22.1563 13.7123 23.1811 12.9365 24 11.966Z" fill="#374957"/>
</g>
<defs>
<clipPath id="clip0_406_484">
<rect width="24" height="24" fill="white"/>
</clipPath>
</defs>
</svg>
