<svg width="24" height="24" viewBox="0 0 24 24" fill="none" xmlns="http://www.w3.org/2000/svg">
<g clip-path="url(#clip0_406_74)">
<path d="M17 2.53819e-06H7C6.17461 -0.000179852 5.3757 0.29135 4.74442 0.823095C4.11313 1.35484 3.69008 2.09258 3.55 2.906L0 24H24.033L20.451 2.892C20.3079 2.08098 19.8835 1.34638 19.2523 0.817416C18.6211 0.288454 17.8235 -0.000988825 17 2.53819e-06ZM3.543 21L6.506 3.414C6.52629 3.29782 6.58699 3.19254 6.67739 3.11678C6.76779 3.04102 6.88206 2.99966 7 3H17C17.1154 2.99975 17.2274 3.03945 17.3169 3.11236C17.4064 3.18527 17.4679 3.2869 17.491 3.4L20.48 21H3.543ZM10.5 4H13.5V8H10.5V4ZM10.5 10H13.5V14H10.5V10ZM10.5 16H13.5V20H10.5V16Z" fill="#374957"/>
</g>
<defs>
<clipPath id="clip0_406_74">
<rect width="24" height="24" fill="white"/>
</clipPath>
</defs>
</svg>
