<svg width="24" height="24" viewBox="0 0 24 24" fill="none" xmlns="http://www.w3.org/2000/svg">
<path d="M19.0001 7.99962V7.15063C19.0001 5.29411 18.2626 3.51364 16.9498 2.20088C15.6371 0.888132 13.8566 0.150635 12.0001 0.150635C10.1435 0.150635 8.36307 0.888132 7.05031 2.20088C5.73756 3.51364 5.00006 5.29411 5.00006 7.15063V7.99962H2.00006V20.9996C2.00006 21.7953 2.31613 22.5583 2.87874 23.1209C3.44135 23.6835 4.20441 23.9996 5.00006 23.9996H19.0001C19.7957 23.9996 20.5588 23.6835 21.1214 23.1209C21.684 22.5583 22.0001 21.7953 22.0001 20.9996V7.99962H19.0001ZM8.00006 7.15063C8.00006 6.08976 8.42149 5.07235 9.17163 4.3222C9.92178 3.57206 10.9392 3.15063 12.0001 3.15063C13.0609 3.15063 14.0783 3.57206 14.8285 4.3222C15.5786 5.07235 16.0001 6.08976 16.0001 7.15063V7.99962H8.00006V7.15063ZM5.00006 20.9996V10.9996H19.0001V20.9996H5.00006Z" fill="#374957"/>
<path d="M14.0001 13.9996H10.0001V16.9996H14.0001V13.9996Z" fill="#374957"/>
</svg>
