<svg width="24" height="24" viewBox="0 0 24 24" fill="none" xmlns="http://www.w3.org/2000/svg">
<g clip-path="url(#clip0_406_312)">
<path d="M24 21H0V6.5C0 5.57174 0.368749 4.6815 1.02513 4.02513C1.6815 3.36875 2.57174 3 3.5 3H20.5C21.4283 3 22.3185 3.36875 22.9749 4.02513C23.6313 4.6815 24 5.57174 24 6.5V21ZM3 18H21V6.5C21 6.36739 20.9473 6.24021 20.8536 6.14645C20.7598 6.05268 20.6326 6 20.5 6H3.5C3.36739 6 3.24021 6.05268 3.14645 6.14645C3.05268 6.24021 3 6.36739 3 6.5V18ZM12 15C11.4067 15 10.8266 14.8241 10.3333 14.4944C9.83994 14.1648 9.45542 13.6962 9.22836 13.1481C9.0013 12.5999 8.94189 11.9967 9.05764 11.4147C9.1734 10.8328 9.45912 10.2982 9.87868 9.87868C10.2982 9.45912 10.8328 9.1734 11.4147 9.05764C11.9967 8.94189 12.5999 9.0013 13.1481 9.22836C13.6962 9.45542 14.1648 9.83994 14.4944 10.3333C14.8241 10.8266 15 11.4067 15 12C15 12.7956 14.6839 13.5587 14.1213 14.1213C13.5587 14.6839 12.7956 15 12 15ZM5.5 7C5.20333 7 4.91332 7.08797 4.66664 7.2528C4.41997 7.41762 4.22771 7.65189 4.11418 7.92597C4.00065 8.20006 3.97094 8.50166 4.02882 8.79264C4.0867 9.08361 4.22956 9.35088 4.43934 9.56066C4.64912 9.77044 4.91639 9.9133 5.20736 9.97118C5.49834 10.0291 5.79994 9.99935 6.07403 9.88582C6.34811 9.77229 6.58238 9.58003 6.7472 9.33335C6.91203 9.08668 7 8.79667 7 8.5C7 8.10218 6.84196 7.72064 6.56066 7.43934C6.27936 7.15804 5.89782 7 5.5 7ZM17 8.5C17 8.79667 17.088 9.08668 17.2528 9.33335C17.4176 9.58003 17.6519 9.77229 17.926 9.88582C18.2001 9.99935 18.5017 10.0291 18.7926 9.97118C19.0836 9.9133 19.3509 9.77044 19.5607 9.56066C19.7704 9.35088 19.9133 9.08361 19.9712 8.79264C20.0291 8.50166 19.9993 8.20006 19.8858 7.92597C19.7723 7.65189 19.58 7.41762 19.3334 7.2528C19.0867 7.08797 18.7967 7 18.5 7C18.1022 7 17.7206 7.15804 17.4393 7.43934C17.158 7.72064 17 8.10218 17 8.5ZM5.5 14C5.20333 14 4.91332 14.088 4.66664 14.2528C4.41997 14.4176 4.22771 14.6519 4.11418 14.926C4.00065 15.2001 3.97094 15.5017 4.02882 15.7926C4.0867 16.0836 4.22956 16.3509 4.43934 16.5607C4.64912 16.7704 4.91639 16.9133 5.20736 16.9712C5.49834 17.0291 5.79994 16.9993 6.07403 16.8858C6.34811 16.7723 6.58238 16.58 6.7472 16.3334C6.91203 16.0867 7 15.7967 7 15.5C7 15.1022 6.84196 14.7206 6.56066 14.4393C6.27936 14.158 5.89782 14 5.5 14ZM17 15.5C17 15.7967 17.088 16.0867 17.2528 16.3334C17.4176 16.58 17.6519 16.7723 17.926 16.8858C18.2001 16.9993 18.5017 17.0291 18.7926 16.9712C19.0836 16.9133 19.3509 16.7704 19.5607 16.5607C19.7704 16.3509 19.9133 16.0836 19.9712 15.7926C20.0291 15.5017 19.9993 15.2001 19.8858 14.926C19.7723 14.6519 19.58 14.4176 19.3334 14.2528C19.0867 14.088 18.7967 14 18.5 14C18.1022 14 17.7206 14.158 17.4393 14.4393C17.158 14.7206 17 15.1022 17 15.5Z" fill="#374957"/>
</g>
<defs>
<clipPath id="clip0_406_312">
<rect width="24" height="24" fill="white"/>
</clipPath>
</defs>
</svg>
