<svg width="24" height="24" viewBox="0 0 24 24" fill="none" xmlns="http://www.w3.org/2000/svg">
<g clip-path="url(#clip0_406_413)">
<path d="M12.0001 -0.000117994C10.8537 -0.00106284 9.71314 0.162264 8.6131 0.484882L9.4591 3.36288C10.2844 3.1212 11.1401 2.99895 12.0001 2.99988V20.9999C11.1401 21.0008 10.2844 20.8786 9.4591 20.6369L8.6131 23.5149C10.2632 23.9988 11.998 24.1225 13.7001 23.8774C15.4021 23.6324 17.0316 23.0244 18.4782 22.0947C19.9248 21.165 21.1547 19.9352 22.0845 18.4887C23.0144 17.0421 23.6225 15.4127 23.8676 13.7107C24.1128 12.0086 23.9892 10.2738 23.5054 8.62364C23.0216 6.97351 22.1888 5.44663 21.0634 4.14644C19.938 2.84625 18.5463 1.80312 16.9826 1.0877C15.4189 0.372286 13.7197 0.0013033 12.0001 -0.000117994Z" fill="#374957"/>
<path d="M3.00003 12.0001C3.00001 11.2281 3.09813 10.4593 3.29203 9.7121L0.390035 8.9541C-0.131802 10.954 -0.131802 13.0542 0.390035 15.0541L3.29003 14.2931C3.09558 13.5443 2.99811 12.7737 3.00003 12.0001Z" fill="#374957"/>
<path d="M7.347 4.29958L5.793 1.72858C4.02728 2.79865 2.5654 4.30356 1.547 6.09958L4.159 7.57858C4.92342 6.23067 6.02113 5.10162 7.347 4.29958Z" fill="#374957"/>
<path d="M4.16101 16.4238L1.54901 17.8998C2.56795 19.6976 4.03176 21.2034 5.80001 22.2728L7.35301 19.7068C6.02512 18.9042 4.92592 17.7737 4.16101 16.4238Z" fill="#374957"/>
</g>
<defs>
<clipPath id="clip0_406_413">
<rect width="24" height="24" fill="white"/>
</clipPath>
</defs>
</svg>
