<svg width="24" height="24" viewBox="0 0 24 24" fill="none" xmlns="http://www.w3.org/2000/svg">
<g clip-path="url(#clip0_406_404)">
<path d="M11 14.0006H5C3.67441 14.0022 2.40356 14.5295 1.46622 15.4668C0.528882 16.4042 0.00158786 17.675 0 19.0006L0 24.0006H3V19.0006C3 18.4702 3.21071 17.9615 3.58579 17.5864C3.96086 17.2113 4.46957 17.0006 5 17.0006H11C11.5304 17.0006 12.0391 17.2113 12.4142 17.5864C12.7893 17.9615 13 18.4702 13 19.0006V24.0006H16V19.0006C15.9984 17.675 15.4711 16.4042 14.5338 15.4668C13.5964 14.5295 12.3256 14.0022 11 14.0006Z" fill="#374957"/>
<path d="M8.00012 11.9999C9.18681 11.9999 10.3468 11.648 11.3335 10.9888C12.3202 10.3295 13.0893 9.3924 13.5434 8.29604C13.9975 7.19969 14.1163 5.99329 13.8848 4.8294C13.6533 3.66551 13.0819 2.59642 12.2428 1.7573C11.4036 0.918186 10.3346 0.346741 9.17066 0.11523C8.00678 -0.116281 6.80038 0.00253868 5.70402 0.456664C4.60767 0.91079 3.67059 1.67983 3.0113 2.66652C2.35202 3.65321 2.00012 4.81325 2.00012 5.99994C2.00171 7.59075 2.63436 9.11595 3.75924 10.2408C4.88411 11.3657 6.40931 11.9984 8.00012 11.9999ZM8.00012 2.99994C8.59347 2.99994 9.17349 3.17589 9.66683 3.50553C10.1602 3.83518 10.5447 4.30371 10.7718 4.85189C10.9988 5.40007 11.0582 6.00327 10.9425 6.58521C10.8267 7.16716 10.541 7.7017 10.1214 8.12126C9.70189 8.54082 9.16734 8.82654 8.58539 8.9423C8.00345 9.05805 7.40025 8.99864 6.85207 8.77158C6.30389 8.54452 5.83536 8.16 5.50571 7.66665C5.17607 7.17331 5.00012 6.59329 5.00012 5.99994C5.00012 5.20429 5.31619 4.44123 5.8788 3.87862C6.44141 3.31601 7.20447 2.99994 8.00012 2.99994Z" fill="#374957"/>
<path d="M21 9.99939V6.99939H18V9.99939H15V12.9994H18V15.9994H21V12.9994H24V9.99939H21Z" fill="#374957"/>
</g>
<defs>
<clipPath id="clip0_406_404">
<rect width="24" height="24" fill="white"/>
</clipPath>
</defs>
</svg>
