<svg width="24" height="24" viewBox="0 0 24 24" fill="none" xmlns="http://www.w3.org/2000/svg">
<g clip-path="url(#clip0_406_364)">
<path d="M12 0.020752C9.33137 0.0239282 6.77299 1.0855 4.88609 2.97258C2.9992 4.85967 1.93788 7.41815 1.93497 10.0868C1.93497 15.3608 10.101 22.4158 11.035 23.2038L12.002 24.0208L12.969 23.2038C13.901 22.4158 22.069 15.3608 22.069 10.0868C22.0661 7.41746 21.0042 4.85837 19.1164 2.97117C17.2287 1.08398 14.6693 0.0228695 12 0.020752ZM12 20.0638C8.93497 17.2718 4.93297 12.7358 4.93297 10.0868C4.93297 8.21247 5.67752 6.41495 7.00284 5.08963C8.32816 3.76431 10.1257 3.01975 12 3.01975C13.8743 3.01975 15.6718 3.76431 16.9971 5.08963C18.3224 6.41495 19.067 8.21247 19.067 10.0868C19.067 12.7308 15.064 17.2688 12 20.0638Z" fill="#374957"/>
<path d="M12 12.9986C13.6552 12.9986 14.997 11.6568 14.997 10.0016C14.997 8.34638 13.6552 7.00458 12 7.00458C10.3449 7.00458 9.00305 8.34638 9.00305 10.0016C9.00305 11.6568 10.3449 12.9986 12 12.9986Z" fill="#374957"/>
</g>
<defs>
<clipPath id="clip0_406_364">
<rect width="24" height="24" fill="white"/>
</clipPath>
</defs>
</svg>
