<svg width="24" height="24" viewBox="0 0 24 24" fill="none" xmlns="http://www.w3.org/2000/svg">
<g clip-path="url(#clip0_406_46)">
<path d="M13 6H11C10.4696 6 9.96086 6.21071 9.58579 6.58579C9.21071 6.96086 9 7.46957 9 8V24H15V8C15 7.46957 14.7893 6.96086 14.4142 6.58579C14.0391 6.21071 13.5304 6 13 6ZM13 22H11V8H13V22Z" fill="#374957"/>
<path d="M22 0H20C19.4696 0 18.9609 0.210714 18.5858 0.585786C18.2107 0.960859 18 1.46957 18 2V24H24V2C24 1.46957 23.7893 0.960859 23.4142 0.585786C23.0391 0.210714 22.5304 0 22 0V0ZM22 22H20V2H22V22Z" fill="#374957"/>
<path d="M3.99999 12H1.99999C1.46956 12 0.960852 12.2107 0.585779 12.5858C0.210706 12.9609 -7.62939e-06 13.4696 -7.62939e-06 14L-7.62939e-06 24H5.99999V14C5.99999 13.4696 5.78928 12.9609 5.41421 12.5858C5.03913 12.2107 4.53043 12 3.99999 12Z" fill="#374957"/>
</g>
<defs>
<clipPath id="clip0_406_46">
<rect width="24" height="24" fill="white"/>
</clipPath>
</defs>
</svg>
