<svg width="24" height="24" viewBox="0 0 24 24" fill="none" xmlns="http://www.w3.org/2000/svg">
<g clip-path="url(#clip0_406_159)">
<path d="M21.561 19.439L19.4 17.28C21.329 15.159 23 12.621 23 10.161C23.0508 8.58251 22.4743 7.04815 21.3968 5.89356C20.3192 4.73898 18.8282 4.05815 17.25 4C16.4482 4.0214 15.6588 4.20361 14.9288 4.53583C14.1987 4.86805 13.5428 5.34351 13 5.934C12.4572 5.34351 11.8013 4.86805 11.0712 4.53583C10.3412 4.20361 9.55181 4.0214 8.75 4C8.00265 4.0007 7.26363 4.15702 6.58 4.459L2.121 0L0 2.121L4.236 6.357C3.42875 7.46068 2.99565 8.79361 3 10.161C3 15.42 10.609 21.061 12.135 22.135L13 22.745L13.865 22.135C15.0521 21.2871 16.1899 20.3722 17.273 19.395L19.439 21.561L17 24H23C23.2652 24 23.5196 23.8946 23.7071 23.7071C23.8946 23.5196 24 23.2652 24 23V17L21.561 19.439ZM13 19.051C9.394 16.319 6 12.575 6 10.161C5.95014 9.37824 6.2109 8.60738 6.72571 8.01563C7.24052 7.42388 7.96787 7.05895 8.75 7C10.507 7 11.671 9.071 11.679 9.085L12.986 11.5L14.317 9.091C14.329 9.071 15.493 7 17.25 7C18.0321 7.05895 18.7595 7.42388 19.2743 8.01563C19.7891 8.60738 20.0499 9.37824 20 10.161C20 12.575 16.606 16.319 13 19.051Z" fill="#374957"/>
</g>
<defs>
<clipPath id="clip0_406_159">
<rect width="24" height="24" fill="white"/>
</clipPath>
</defs>
</svg>
