<svg width="24" height="24" viewBox="0 0 24 24" fill="none" xmlns="http://www.w3.org/2000/svg">
<g clip-path="url(#clip0_406_29)">
<path d="M12 0C15.179 0.0110672 18.2244 1.27978 20.471 3.529L23 1V6.909C23.0001 7.05231 22.972 7.19424 22.9172 7.32666C22.8624 7.45909 22.7821 7.57941 22.6808 7.68075C22.5794 7.78208 22.4591 7.86244 22.3267 7.91722C22.1942 7.972 22.0523 8.00013 21.909 8H16L18.353 5.647C16.8798 4.18086 14.9438 3.27082 12.8748 3.07192C10.8059 2.87302 8.73202 3.39756 7.00644 4.55617C5.28085 5.71479 4.01033 7.43582 3.41128 9.4261C2.81224 11.4164 2.92174 13.5528 3.72113 15.4714C4.52052 17.39 5.96035 18.9721 7.79535 19.9482C9.63035 20.9243 11.747 21.2341 13.7848 20.8247C15.8225 20.4153 17.6553 19.3121 18.9709 17.703C20.2866 16.0939 21.0036 14.0785 21 12H24C24 14.3734 23.2962 16.6935 21.9776 18.6668C20.6591 20.6402 18.7849 22.1783 16.5922 23.0866C14.3995 23.9948 11.9867 24.2324 9.65892 23.7694C7.33115 23.3064 5.19295 22.1635 3.51472 20.4853C1.83649 18.8071 0.693605 16.6689 0.230582 14.3411C-0.232441 12.0133 0.00519943 9.60051 0.913451 7.4078C1.8217 5.21509 3.35977 3.34094 5.33316 2.02236C7.30655 0.703788 9.62663 0 12 0V0Z" fill="#374957"/>
<path d="M9.99982 6.99939V13.6204L13.4388 17.0604L15.5608 14.9384L12.9998 12.3784V6.99939H9.99982Z" fill="#374957"/>
</g>
<defs>
<clipPath id="clip0_406_29">
<rect width="24" height="24" fill="white"/>
</clipPath>
</defs>
</svg>
