<svg width="24" height="24" viewBox="0 0 24 24" fill="none" xmlns="http://www.w3.org/2000/svg">
<path d="M17.7626 0H5.95252C4.32188 0 3 1.32188 3 2.95252V23.9824L6.9367 21.2454L9.39713 22.9579L11.8575 21.2464L14.318 22.9579L16.7784 21.2474L20.7151 23.9883V2.95252C20.7151 1.32188 19.3933 0 17.7626 0ZM17.7626 18.3312L16.7784 17.6492L14.318 19.3617L11.8576 17.6502L9.39717 19.3617L6.93675 17.6512L5.95256 18.3401V2.95252H17.7627V18.3312H17.7626Z" fill="#374957"/>
<path d="M16 6H8V9H16V6Z" fill="#374957"/>
<path d="M14 10.9991H8V13.9991H14V10.9991Z" fill="#374957"/>
</svg>
