<svg width="24" height="24" viewBox="0 0 24 24" fill="none" xmlns="http://www.w3.org/2000/svg">
<g clip-path="url(#clip0_406_3)">
<path d="M15 9H6V12H15V9Z" fill="#374957"/>
<path d="M18.9135 16.7981C22.386 12.1575 21.4391 5.58049 16.7985 2.10799C12.1579 -1.36451 5.58088 -0.417592 2.10838 4.22303C-1.36412 8.86366 -0.417195 15.4406 4.22343 18.9131C7.95107 21.7025 13.0708 21.7025 16.7985 18.9131L21.877 23.9916L23.992 21.8806L18.9135 16.7981ZM10.5489 18.0169C6.42426 18.0169 3.08052 14.6732 3.08052 10.5485C3.08052 6.42386 6.42426 3.08013 10.5489 3.08013C14.6736 3.08013 18.0173 6.42386 18.0173 10.5485C18.0135 14.6716 14.672 18.0131 10.5489 18.0169Z" fill="#374957"/>
</g>
<defs>
<clipPath id="clip0_406_3">
<rect width="24" height="24" fill="white"/>
</clipPath>
</defs>
</svg>
