<svg width="24" height="24" viewBox="0 0 24 24" fill="none" xmlns="http://www.w3.org/2000/svg">
<g clip-path="url(#clip0_406_358)">
<path d="M19.9 12.188C19.6471 9.85719 19.1442 7.56031 18.4 5.33705C18.738 5.21305 19.1 5.09105 19.422 5.00405C19.4736 4.9859 19.5283 4.97822 19.5829 4.98149C19.6375 4.98475 19.6909 4.99888 19.74 5.02305C19.9527 5.30136 20.0463 5.65279 20 6.00005H23C23.0373 5.36784 22.9272 4.73561 22.6781 4.15332C22.4291 3.57104 22.048 3.05467 21.565 2.64505C21.1533 2.33591 20.6756 2.12629 20.1693 2.03261C19.6631 1.93892 19.142 1.96372 18.647 2.10505C17.7044 2.38087 16.7816 2.72032 15.885 3.12105L14.576 3.71105L15.106 5.04505C15.114 5.06405 15.424 5.85405 15.789 7.05305L11.889 10.267L8.62096 7.00005H9.99996V4.00005H2.99996V7.00005H4.37896L9.56096 12.183L8.60796 12.967C7.51083 12.2136 6.17818 11.8825 4.85599 12.0348C3.53381 12.1872 2.31137 12.8127 1.41434 13.7959C0.517302 14.7791 0.00623275 16.0536 -0.0245272 17.3842C-0.0552871 18.7147 0.396339 20.0115 1.24698 21.0351C2.09762 22.0587 3.28985 22.7401 4.60358 22.9533C5.91731 23.1666 7.26385 22.8974 8.39462 22.1955C9.52539 21.4935 10.364 20.4062 10.7558 19.1343C11.1475 17.8623 11.0659 16.4915 10.526 15.275L16.598 10.275C16.722 10.914 16.826 11.575 16.898 12.241C15.6251 12.6253 14.5342 13.4571 13.8266 14.5828C13.119 15.7085 12.8425 17.0521 13.0481 18.3657C13.2537 19.6794 13.9275 20.8743 14.9452 21.7299C15.963 22.5856 17.2558 23.0442 18.5853 23.0212C19.9147 22.9981 21.1909 22.495 22.1784 21.6046C23.1658 20.7142 23.7978 19.4966 23.9578 18.1766C24.1178 16.8567 23.7948 15.5234 23.0487 14.4229C22.3025 13.3224 21.1834 12.529 19.898 12.189L19.9 12.188ZM5.49996 20C5.0055 20 4.52215 19.8534 4.11103 19.5787C3.69991 19.304 3.37948 18.9136 3.19026 18.4568C3.00104 17.9999 2.95153 17.4973 3.04799 17.0123C3.14446 16.5274 3.38256 16.0819 3.73219 15.7323C4.08182 15.3827 4.52728 15.1445 5.01223 15.0481C5.49718 14.9516 5.99985 15.0011 6.45667 15.1904C6.91348 15.3796 7.30393 15.7 7.57863 16.1111C7.85333 16.5222 7.99996 17.0056 7.99996 17.5C7.99996 18.1631 7.73657 18.799 7.26772 19.2678C6.79888 19.7367 6.163 20 5.49996 20ZM18.5 20C18.0055 20 17.5222 19.8534 17.111 19.5787C16.6999 19.304 16.3795 18.9136 16.1903 18.4568C16.001 17.9999 15.9515 17.4973 16.048 17.0123C16.1445 16.5274 16.3826 16.0819 16.7322 15.7323C17.0818 15.3827 17.5273 15.1445 18.0122 15.0481C18.4972 14.9516 18.9999 15.0011 19.4567 15.1904C19.9135 15.3796 20.3039 15.7 20.5786 16.1111C20.8533 16.5222 21 17.0056 21 17.5C21 18.1631 20.7366 18.799 20.2677 19.2678C19.7989 19.7367 19.163 20 18.5 20Z" fill="#374957"/>
</g>
<defs>
<clipPath id="clip0_406_358">
<rect width="24" height="24" fill="white"/>
</clipPath>
</defs>
</svg>
