<svg width="24" height="24" viewBox="0 0 24 24" fill="none" xmlns="http://www.w3.org/2000/svg">
<g clip-path="url(#clip0_406_286)">
<path d="M18.7501 24.0002H10.5001C9.44376 23.9899 8.42462 23.609 7.62051 22.924C6.8164 22.2389 6.27839 21.2933 6.10038 20.252C5.92238 19.2108 6.11568 18.1401 6.64656 17.2268C7.17744 16.3136 8.01217 15.6158 9.00506 15.2552C9.07232 13.9978 9.56897 12.8016 10.412 11.8664C11.2551 10.9311 12.3936 10.3135 13.6372 10.1166C14.8809 9.91974 16.1544 10.1555 17.2452 10.7847C18.3359 11.4138 19.1777 12.3981 19.6301 13.5732C20.9182 13.8045 22.0736 14.5082 22.8703 15.5466C23.667 16.5849 24.0475 17.8832 23.9374 19.1873C23.8274 20.4914 23.2346 21.7076 22.2752 22.5977C21.3158 23.4878 20.0588 23.988 18.7501 24.0002ZM10.5001 18.0002C10.1022 18.0002 9.7207 18.1582 9.4394 18.4395C9.1581 18.7208 9.00006 19.1023 9.00006 19.5002C9.00006 19.898 9.1581 20.2795 9.4394 20.5608C9.7207 20.8421 10.1022 21.0002 10.5001 21.0002H18.7501C19.3468 21.0002 19.9191 20.7631 20.3411 20.3412C20.763 19.9192 21.0001 19.3469 21.0001 18.7502C21.0001 18.1534 20.763 17.5811 20.3411 17.1592C19.9191 16.7372 19.3468 16.5002 18.7501 16.5002H17.1241L16.9581 15.1882C16.9148 14.8523 16.8032 14.5289 16.6302 14.2378C16.4572 13.9467 16.2264 13.6941 15.9521 13.4956C15.6778 13.297 15.3658 13.1568 15.0352 13.0833C14.7047 13.0099 14.3626 13.005 14.03 13.0688C13.6975 13.1326 13.3815 13.2637 13.1016 13.4543C12.8216 13.6448 12.5837 13.8906 12.4023 14.1765C12.2209 14.4625 12.1 14.7825 12.047 15.117C11.994 15.4514 12.01 15.7931 12.0941 16.1212L12.5851 18.0002H10.5001ZM17.8331 5.56016L17.8101 5.57116C17.2102 3.74955 15.9844 2.19934 14.3502 1.1956C12.716 0.191866 10.7791 -0.200488 8.88306 0.088161C7.63901 0.27258 6.45429 0.741577 5.4211 1.45865C4.38791 2.17573 3.53412 3.12154 2.92617 4.22249C2.31822 5.32343 1.97251 6.54981 1.91595 7.80618C1.85939 9.06256 2.0935 10.315 2.60006 11.4662C1.66536 12.0905 0.932966 12.9738 0.492552 14.0079C0.0521384 15.0421 -0.0771863 16.1822 0.12041 17.2887C0.318007 18.3952 0.833951 19.4201 1.60508 20.2379C2.3762 21.0557 3.36905 21.631 4.46206 21.8932C4.02747 20.8118 3.89843 19.6319 4.08906 18.4822C3.60431 18.1321 3.25503 17.6257 3.10006 17.0482C3.00272 16.6905 2.97735 16.3172 3.02542 15.9497C3.07349 15.5822 3.19405 15.2279 3.38009 14.9073C3.56613 14.5868 3.81397 14.3063 4.10922 14.0823C4.40447 13.8582 4.74126 13.695 5.10006 13.6022L7.25506 13.0462L5.93006 11.2572C5.45963 10.6225 5.14072 9.88859 4.99775 9.11164C4.85479 8.33469 4.89157 7.53532 5.10527 6.77478C5.31897 6.01424 5.70393 5.3127 6.23064 4.72392C6.75736 4.13514 7.41186 3.67474 8.144 3.37799C8.87614 3.08124 9.6665 2.95602 10.4545 3.01191C11.2425 3.06781 12.0073 3.30334 12.6902 3.70046C13.3731 4.09758 13.9561 4.64576 14.3944 5.30299C14.8328 5.96022 15.1149 6.70907 15.2191 7.49216L15.2941 8.05516C16.4863 8.18704 17.6298 8.60188 18.6293 9.26513C19.6288 9.92837 20.4553 10.8208 21.0401 11.8682C22.1664 12.2422 23.1831 12.8883 24.0001 13.7492C24.0001 9.00016 19.9301 6.26816 17.8331 5.56016Z" fill="#374957"/>
</g>
<defs>
<clipPath id="clip0_406_286">
<rect width="24" height="24" fill="white"/>
</clipPath>
</defs>
</svg>
