<svg width="24" height="24" viewBox="0 0 24 24" fill="none" xmlns="http://www.w3.org/2000/svg">
<g clip-path="url(#clip0_406_455)">
<path d="M24.0001 4.5H13.0001V7.5H24.0001V4.5Z" fill="#374957"/>
<path d="M8 3V8H3V3H8ZM11 0H3C2.20435 0 1.44129 0.31607 0.87868 0.87868C0.31607 1.44129 0 2.20435 0 3L0 11H11V0Z" fill="#374957"/>
<path d="M8 16V21H3V16H8ZM11 13H0V21C0 21.7956 0.31607 22.5587 0.87868 23.1213C1.44129 23.6839 2.20435 24 3 24H11V13Z" fill="#374957"/>
<path d="M21.0001 16V21H16.0001V16H21.0001ZM24.0001 13H13.0001V24H21.0001C21.7957 24 22.5588 23.6839 23.1214 23.1213C23.684 22.5587 24.0001 21.7956 24.0001 21V13Z" fill="#374957"/>
</g>
<defs>
<clipPath id="clip0_406_455">
<rect width="24" height="24" fill="white"/>
</clipPath>
</defs>
</svg>
