<svg width="24" height="24" viewBox="0 0 24 24" fill="none" xmlns="http://www.w3.org/2000/svg">
<g clip-path="url(#clip0_406_204)">
<path d="M18 0H6C5.20435 0 4.44129 0.31607 3.87868 0.87868C3.31607 1.44129 3 2.20435 3 3V24H21V3C21 2.20435 20.6839 1.44129 20.1213 0.87868C19.5587 0.31607 18.7956 0 18 0V0ZM18 21H6V3H18V21Z" fill="#374957"/>
<path d="M11.9998 9.0006C13.1044 9.0006 13.9998 8.10517 13.9998 7.00061C13.9998 5.89604 13.1044 5.00061 11.9998 5.00061C10.8952 5.00061 9.99982 5.89604 9.99982 7.00061C9.99982 8.10517 10.8952 9.0006 11.9998 9.0006Z" fill="#374957"/>
<path d="M12 19.4999C12.89 19.4999 13.76 19.236 14.5001 18.7416C15.2401 18.2471 15.8169 17.5443 16.1574 16.722C16.498 15.8997 16.5872 14.9949 16.4135 14.122C16.2399 13.2491 15.8113 12.4473 15.182 11.818C14.5526 11.1886 13.7508 10.76 12.8779 10.5864C12.005 10.4128 11.1002 10.5019 10.2779 10.8425C9.45565 11.1831 8.75285 11.7599 8.25839 12.4999C7.76392 13.2399 7.5 14.1099 7.5 14.9999C7.50132 16.193 7.97585 17.3368 8.81948 18.1805C9.6631 19.0241 10.8069 19.4986 12 19.4999ZM12 13.4999C12.2967 13.4999 12.5867 13.5879 12.8333 13.7527C13.08 13.9176 13.2723 14.1518 13.3858 14.4259C13.4993 14.7 13.529 15.0016 13.4712 15.2926C13.4133 15.5835 13.2704 15.8508 13.0607 16.0606C12.8509 16.2704 12.5836 16.4132 12.2926 16.4711C12.0017 16.529 11.7001 16.4993 11.426 16.3858C11.1519 16.2722 10.9176 16.08 10.7528 15.8333C10.588 15.5866 10.5 15.2966 10.5 14.9999C10.5 14.6021 10.658 14.2206 10.9393 13.9393C11.2206 13.658 11.6022 13.4999 12 13.4999Z" fill="#374957"/>
</g>
<defs>
<clipPath id="clip0_406_204">
<rect width="24" height="24" fill="white"/>
</clipPath>
</defs>
</svg>
