<svg width="24" height="24" viewBox="0 0 24 24" fill="none" xmlns="http://www.w3.org/2000/svg">
<g clip-path="url(#clip0_406_474)">
<path d="M22.5 18.3999V16.4999C22.5 15.5716 22.1313 14.6814 21.4749 14.025C20.8185 13.3686 19.9283 12.9999 19 12.9999H13.5V10.7919C14.7772 10.4298 15.8803 9.61804 16.6059 8.50634C17.3314 7.39464 17.6304 6.05803 17.4476 4.74316C17.2649 3.42828 16.6127 2.22388 15.6115 1.35219C14.6102 0.480509 13.3275 0.000366211 12 0.000366211C10.6725 0.000366211 9.38977 0.480509 8.38854 1.35219C7.38731 2.22388 6.73514 3.42828 6.55238 4.74316C6.36961 6.05803 6.66858 7.39464 7.39412 8.50634C8.11967 9.61804 9.22281 10.4298 10.5 10.7919V12.9999H5C4.07174 12.9999 3.1815 13.3686 2.52513 14.025C1.86875 14.6814 1.5 15.5716 1.5 16.4999V18.3999C0.928076 18.7301 0.481088 19.2398 0.228362 19.8499C-0.0243627 20.46 -0.0687012 21.1365 0.102224 21.7744C0.273148 22.4123 0.649784 22.976 1.17372 23.378C1.69765 23.78 2.3396 23.9979 3 23.9979C3.6604 23.9979 4.30235 23.78 4.82629 23.378C5.35022 22.976 5.72685 22.4123 5.89778 21.7744C6.0687 21.1365 6.02437 20.46 5.77164 19.8499C5.51891 19.2398 5.07193 18.7301 4.5 18.3999V16.4999C4.5 16.3673 4.55268 16.2401 4.64645 16.1463C4.74022 16.0525 4.86739 15.9999 5 15.9999H10.5V18.3999C9.92808 18.7301 9.48109 19.2398 9.22836 19.8499C8.97564 20.46 8.9313 21.1365 9.10222 21.7744C9.27315 22.4123 9.64979 22.976 10.1737 23.378C10.6977 23.78 11.3396 23.9979 12 23.9979C12.6604 23.9979 13.3024 23.78 13.8263 23.378C14.3502 22.976 14.7269 22.4123 14.8978 21.7744C15.0687 21.1365 15.0244 20.46 14.7716 19.8499C14.5189 19.2398 14.0719 18.7301 13.5 18.3999V15.9999H19C19.1326 15.9999 19.2598 16.0525 19.3536 16.1463C19.4473 16.2401 19.5 16.3673 19.5 16.4999V18.3999C18.9281 18.7301 18.4811 19.2398 18.2284 19.8499C17.9756 20.46 17.9313 21.1365 18.1022 21.7744C18.2732 22.4123 18.6498 22.976 19.1737 23.378C19.6977 23.78 20.3396 23.9979 21 23.9979C21.6604 23.9979 22.3024 23.78 22.8263 23.378C23.3502 22.976 23.7269 22.4123 23.8978 21.7744C24.0687 21.1365 24.0244 20.46 23.7716 19.8499C23.5189 19.2398 23.0719 18.7301 22.5 18.3999ZM9.5 5.49987C9.5 5.00542 9.64662 4.52207 9.92133 4.11094C10.196 3.69982 10.5865 3.37939 11.0433 3.19017C11.5001 3.00095 12.0028 2.95144 12.4877 3.04791C12.9727 3.14437 13.4181 3.38247 13.7678 3.7321C14.1174 4.08173 14.3555 4.52719 14.452 5.01214C14.5484 5.4971 14.4989 5.99976 14.3097 6.45658C14.1205 6.91339 13.8001 7.30384 13.3889 7.57854C12.9778 7.85325 12.4945 7.99987 12 7.99987C11.337 7.99987 10.7011 7.73648 10.2322 7.26764C9.76339 6.79879 9.5 6.16291 9.5 5.49987Z" fill="#374957"/>
</g>
<defs>
<clipPath id="clip0_406_474">
<rect width="24" height="24" fill="white"/>
</clipPath>
</defs>
</svg>
