<svg width="24" height="24" viewBox="0 0 24 24" fill="none" xmlns="http://www.w3.org/2000/svg">
<g clip-path="url(#clip0_406_365)">
<path d="M10 8.00026C10 7.6047 10.1173 7.21802 10.3371 6.88912C10.5568 6.56022 10.8692 6.30388 11.2346 6.1525C11.6001 6.00113 12.0022 5.96152 12.3902 6.03869C12.7781 6.11586 13.1345 6.30634 13.4142 6.58605C13.6939 6.86575 13.8844 7.22212 13.9616 7.61008C14.0387 7.99804 13.9991 8.40018 13.8478 8.76563C13.6964 9.13108 13.44 9.44344 13.1111 9.6632C12.7822 9.88296 12.3956 10.0003 12 10.0003C11.4696 10.0003 10.9609 9.78955 10.5858 9.41448C10.2107 9.0394 10 8.53069 10 8.00026ZM7.97 24.0603L0 21.6083V12.0003C0.000480045 11.4959 0.109945 10.9977 0.3209 10.5396C0.531854 10.0815 0.839315 9.67441 1.22223 9.3462C1.60514 9.01798 2.05446 8.7764 2.53943 8.63799C3.02439 8.49958 3.53353 8.4676 4.032 8.54426C3.9534 7.40721 4.11891 6.26649 4.51744 5.19866C4.91596 4.13084 5.53828 3.1606 6.34263 2.35307C7.14697 1.54554 8.11474 0.919401 9.18098 0.51666C10.2472 0.11392 11.3873 -0.056099 12.5246 0.0180124C13.662 0.0921238 14.7703 0.408651 15.7753 0.946353C16.7803 1.48406 17.6586 2.23049 18.3514 3.13557C19.0441 4.04066 19.5352 5.08344 19.7918 6.19396C20.0484 7.30447 20.0645 8.45702 19.839 9.57426L21.525 10.1383C22.2417 10.3566 22.8693 10.7997 23.3149 11.402C23.7606 12.0043 24.0008 12.734 24 13.4833V24.1143L15.517 22.0483L7.97 24.0603ZM8.464 11.5363L12 14.9933L15.547 11.5243C16.2434 10.8231 16.7164 9.9314 16.9063 8.96164C17.0962 7.99187 16.9945 6.98758 16.614 6.07557C16.2336 5.16357 15.5914 4.38476 14.7686 3.83749C13.9458 3.29023 12.9792 2.99905 11.991 3.00072C11.0029 3.0024 10.0373 3.29685 9.21639 3.8469C8.39544 4.39695 7.75589 5.17793 7.3785 6.09122C7.00111 7.00451 6.90281 8.00914 7.09601 8.97826C7.28921 9.94737 7.76524 10.8375 8.464 11.5363ZM3 19.3923L8.03 20.9393L15.483 18.9523L21 20.3003V13.4833C20.9999 13.3748 20.9645 13.2694 20.8992 13.1828C20.8339 13.0962 20.7422 13.0332 20.638 13.0033L18.707 12.3583C18.4032 12.8269 18.0513 13.2626 17.657 13.6583L12 19.1893L6.355 13.6683C5.87632 13.1863 5.46097 12.6452 5.119 12.0583L3.76 11.5673C3.67662 11.5233 3.58318 11.5019 3.48897 11.5052C3.39476 11.5086 3.30306 11.5365 3.223 11.5863C3.15403 11.631 3.09745 11.6923 3.05847 11.7647C3.01949 11.8371 2.99938 11.9181 3 12.0003V19.3923Z" fill="#374957"/>
</g>
<defs>
<clipPath id="clip0_406_365">
<rect width="24" height="24" fill="white"/>
</clipPath>
</defs>
</svg>
