<svg width="24" height="24" viewBox="0 0 24 24" fill="none" xmlns="http://www.w3.org/2000/svg">
<g clip-path="url(#clip0_406_93)">
<path d="M23.072 0.928547C22.642 0.497098 22.0961 0.199628 21.5004 0.0721888C20.9047 -0.0552508 20.2849 -0.00718962 19.716 0.210548L0 8.12154V9.13654C0.004764 13.0772 1.57235 16.855 4.35889 19.6413C7.14543 22.4277 10.9234 23.995 14.864 23.9995H15.878L23.807 4.23754C24.0157 3.67371 24.0573 3.06167 23.9269 2.47477C23.7966 1.88788 23.4997 1.35102 23.072 0.928547ZM19.441 7.06354C18.5903 6.92211 17.7168 7.07542 16.9651 7.49809C16.2135 7.92076 15.6286 8.58744 15.3075 9.38778C14.9864 10.1881 14.9482 11.0741 15.1992 11.8991C15.4502 12.7242 15.9755 13.4387 16.688 13.9245L14.276 19.9365C11.652 19.6869 9.19703 18.5308 7.33314 16.6671C5.46924 14.8034 4.31292 12.3485 4.063 9.72454L20.787 3.01354C20.8143 2.99977 20.8455 2.99584 20.8754 3.00239C20.9053 3.00895 20.932 3.0256 20.951 3.04954C20.9675 3.0645 20.9804 3.08294 20.9889 3.10352C20.9974 3.1241 21.0012 3.14632 21 3.16854L19.441 7.06354ZM12 11.9995C12 12.53 11.7893 13.0387 11.4142 13.4137C11.0391 13.7888 10.5304 13.9995 10 13.9995C9.46957 13.9995 8.96086 13.7888 8.58579 13.4137C8.21072 13.0387 8 12.53 8 11.9995C8 11.4691 8.21072 10.9604 8.58579 10.5853C8.96086 10.2102 9.46957 9.99954 10 9.99954C10.5304 9.99954 11.0391 10.2102 11.4142 10.5853C11.7893 10.9604 12 11.4691 12 11.9995Z" fill="#374957"/>
</g>
<defs>
<clipPath id="clip0_406_93">
<rect width="24" height="24" fill="white"/>
</clipPath>
</defs>
</svg>
