<svg width="24" height="24" viewBox="0 0 24 24" fill="none" xmlns="http://www.w3.org/2000/svg">
<g clip-path="url(#clip0_406_108)">
<path d="M18.5001 0H5.50012C4.57186 0 3.68163 0.368749 3.02525 1.02513C2.36887 1.6815 2.00012 2.57174 2.00012 3.5V24H22.0001V3.5C22.0001 2.57174 21.6314 1.6815 20.975 1.02513C20.3186 0.368749 19.4284 0 18.5001 0ZM19.0001 21H13.5001V19H10.5001V21H5.00012V3.5C5.00012 3.36739 5.0528 3.24021 5.14657 3.14645C5.24034 3.05268 5.36751 3 5.50012 3H18.5001C18.6327 3 18.7599 3.05268 18.8537 3.14645C18.9474 3.24021 19.0001 3.36739 19.0001 3.5V21ZM8.00012 15H16.0001V18H8.00012V15ZM14.5531 5.729C14.3515 5.22363 14.0044 4.78948 13.5558 4.48158C13.1072 4.17367 12.5773 4.00588 12.0332 3.99945C11.4891 3.99303 10.9554 4.14826 10.4996 4.44548C10.0439 4.7427 9.68662 5.16853 9.47312 5.669L8.80012 7.16C8.27207 8.3241 7.99929 9.58773 8.00012 10.866V13H11.0001V12H13.0001V13H16.0001V10.866C16.0014 9.58768 15.7286 8.32395 15.2001 7.16L14.5531 5.729Z" fill="#374957"/>
</g>
<defs>
<clipPath id="clip0_406_108">
<rect width="24" height="24" fill="white"/>
</clipPath>
</defs>
</svg>
