<svg width="24" height="24" viewBox="0 0 24 24" fill="none" xmlns="http://www.w3.org/2000/svg">
<g clip-path="url(#clip0_406_28)">
<path d="M4.825 17.433L2.437 19.248C1.80723 18.4191 1.2885 17.5114 0.894001 16.548L3.669 15.409C3.96497 16.1309 4.35356 16.8113 4.825 17.433ZM4.825 6.561L2.439 4.747C1.81189 5.57446 1.29459 6.47966 0.900001 7.44L3.67 8.582C3.96683 7.86102 4.35609 7.18166 4.828 6.561H4.825ZM3 12C3.00001 11.6088 3.02506 11.218 3.075 10.83L0.100001 10.445C0.033248 10.9606 -0.000154763 11.4801 5.39039e-07 12C0.000739498 12.5166 0.0341395 13.0326 0.100001 13.545L3.076 13.165C3.02563 12.7787 3.00025 12.3896 3 12ZM4.614 21.458C5.43316 22.098 6.33161 22.6294 7.287 23.039L8.467 20.28C7.7499 19.9736 7.07588 19.5749 6.462 19.094L4.614 21.458ZM4.62 2.537L6.466 4.9C7.08057 4.42039 7.75489 4.02272 8.472 3.717L7.294 0.958C6.33829 1.36679 5.43949 1.89753 4.62 2.537ZM12 0C11.4282 0.000201158 10.8571 0.0406343 10.291 0.121L10.715 3.091C11.1407 3.03061 11.5701 3.0002 12 3C14.3869 3 16.6761 3.94821 18.364 5.63604C20.0518 7.32387 21 9.61305 21 12C21 14.3869 20.0518 16.6761 18.364 18.364C16.6761 20.0518 14.3869 21 12 21C11.5701 20.9998 11.1407 20.9694 10.715 20.909L10.291 23.879C10.8571 23.9594 11.4282 23.9998 12 24C15.1826 24 18.2348 22.7357 20.4853 20.4853C22.7357 18.2348 24 15.1826 24 12C24 8.8174 22.7357 5.76515 20.4853 3.51472C18.2348 1.26428 15.1826 0 12 0V0ZM10.5 6.273V10.69C10.178 11.0504 9.99997 11.5167 9.99997 12C9.99997 12.4833 10.178 12.9496 10.5 13.31V16.773H13.5V13.31C13.822 12.9496 14 12.4833 14 12C14 11.5167 13.822 11.0504 13.5 10.69V6.273H10.5Z" fill="#374957"/>
</g>
<defs>
<clipPath id="clip0_406_28">
<rect width="24" height="24" fill="white"/>
</clipPath>
</defs>
</svg>
