<svg width="24" height="24" viewBox="0 0 24 24" fill="none" xmlns="http://www.w3.org/2000/svg">
<g clip-path="url(#clip0_406_58)">
<path d="M19.975 11H23.975V12.5C23.9713 15.5483 22.7589 18.4708 20.6037 20.6266C18.4485 22.7824 15.5263 23.9955 12.478 24H6.7506e-07V21H12.478C14.4715 20.9974 16.4009 20.2953 17.9299 19.0161C19.4589 17.7369 20.4905 15.9617 20.845 14H15.312L12.449 16H6.7506e-07V13H11.506L14.369 11H16.6C15.6516 9.3927 14.4799 7.9281 13.12 6.65C12.6618 6.22632 12.059 5.99379 11.435 6H6.7506e-07V3H2.89L1.976 0H6.133L7.048 3H11.435C12.8206 2.99326 14.1564 3.51627 15.169 4.462C17.1658 6.32154 18.796 8.53924 19.975 11ZM10 8H6.7506e-07V11H10V8ZM3 18.5C3 18.2033 2.91203 17.9133 2.74721 17.6666C2.58238 17.42 2.34811 17.2277 2.07403 17.1142C1.79994 17.0007 1.49834 16.9709 1.20737 17.0288C0.916394 17.0867 0.649119 17.2296 0.439341 17.4393C0.229562 17.6491 0.0867006 17.9164 0.0288228 18.2074C-0.0290551 18.4983 0.000649929 18.7999 0.114181 19.074C0.227713 19.3481 0.419972 19.5824 0.666645 19.7472C0.913319 19.912 1.20333 20 1.5 20C1.89783 20 2.27936 19.842 2.56066 19.5607C2.84197 19.2794 3 18.8978 3 18.5ZM8 18.5C8 18.2033 7.91203 17.9133 7.7472 17.6666C7.58238 17.42 7.34811 17.2277 7.07403 17.1142C6.79994 17.0007 6.49834 16.9709 6.20737 17.0288C5.91639 17.0867 5.64912 17.2296 5.43934 17.4393C5.22956 17.6491 5.0867 17.9164 5.02882 18.2074C4.97094 18.4983 5.00065 18.7999 5.11418 19.074C5.22771 19.3481 5.41997 19.5824 5.66665 19.7472C5.91332 19.912 6.20333 20 6.5 20C6.89783 20 7.27936 19.842 7.56066 19.5607C7.84197 19.2794 8 18.8978 8 18.5ZM13 18.5C13 18.2033 12.912 17.9133 12.7472 17.6666C12.5824 17.42 12.3481 17.2277 12.074 17.1142C11.7999 17.0007 11.4983 16.9709 11.2074 17.0288C10.9164 17.0867 10.6491 17.2296 10.4393 17.4393C10.2296 17.6491 10.0867 17.9164 10.0288 18.2074C9.97095 18.4983 10.0007 18.7999 10.1142 19.074C10.2277 19.3481 10.42 19.5824 10.6666 19.7472C10.9133 19.912 11.2033 20 11.5 20C11.8978 20 12.2794 19.842 12.5607 19.5607C12.842 19.2794 13 18.8978 13 18.5Z" fill="#374957"/>
</g>
<defs>
<clipPath id="clip0_406_58">
<rect width="24" height="24" fill="white"/>
</clipPath>
</defs>
</svg>
