<svg width="24" height="24" viewBox="0 0 24 24" fill="none" xmlns="http://www.w3.org/2000/svg">
<g clip-path="url(#clip0_406_98)">
<path d="M24 10H21C20.9979 8.14414 20.2597 6.36489 18.9474 5.05259C17.6351 3.7403 15.8559 3.00212 14 3V0C16.6513 0.0029116 19.1931 1.05742 21.0679 2.93215C22.9426 4.80688 23.9971 7.34873 24 10ZM14 5V8C14.5305 8 15.0392 8.21072 15.4142 8.58579C15.7893 8.96086 16 9.46957 16 10H19C18.9984 8.67441 18.4711 7.40356 17.5338 6.46622C16.5965 5.52888 15.3256 5.00159 14 5ZM20.265 22.235L23.91 18.59L17.269 11.948L14.3 14.923C11.9973 13.8536 10.15 12.0002 9.08803 9.694L12.052 6.731L5.41003 0.09L1.76603 3.734C1.20004 4.30192 0.752475 4.97659 0.449317 5.71886C0.146159 6.46114 -0.00655827 7.25623 2.88842e-05 8.058C2.88842e-05 15.209 8.79103 24 15.942 24C16.7436 24.0066 17.5384 23.854 18.2805 23.551C19.0226 23.248 19.6971 22.8007 20.265 22.235ZM7.80903 6.731L5.54103 9L5.91003 9.919C6.61028 11.791 7.70494 13.4905 9.11977 14.9022C10.5346 16.3139 12.2365 17.4049 14.11 18.101L15.018 18.447L17.273 16.191L19.673 18.591L18.149 20.116C17.8591 20.4017 17.5154 20.6271 17.1377 20.779C16.7601 20.9309 16.3561 21.0064 15.949 21.001C10.949 21 3.00003 13.934 3.00003 8.058C2.99499 7.65094 3.0707 7.24692 3.22278 6.8693C3.37486 6.49168 3.60029 6.14796 3.88603 5.858L5.41003 4.332L7.80903 6.731Z" fill="#374957"/>
</g>
<defs>
<clipPath id="clip0_406_98">
<rect width="24" height="24" fill="white"/>
</clipPath>
</defs>
</svg>
