<svg width="24" height="24" viewBox="0 0 24 24" fill="none" xmlns="http://www.w3.org/2000/svg">
<g clip-path="url(#clip0_406_236)">
<path d="M20.0001 0H5.00012C4.20447 0 3.44141 0.31607 2.8788 0.87868C2.31619 1.44129 2.00012 2.20435 2.00012 3V19.5C2.00145 20.6931 2.47598 21.8369 3.3196 22.6805C4.16323 23.5241 5.30705 23.9987 6.50012 24H22.0001V2C22.0001 1.46957 21.7894 0.960859 21.4143 0.585786C21.0393 0.210714 20.5306 0 20.0001 0V0ZM8.00012 3V15H6.50012C5.98795 15.0049 5.48049 15.0983 5.00012 15.276V3H8.00012ZM19.0001 21H6.50012C6.1023 21 5.72077 20.842 5.43946 20.5607C5.15816 20.2794 5.00012 19.8978 5.00012 19.5C5.00012 19.1022 5.15816 18.7206 5.43946 18.4393C5.72077 18.158 6.1023 18 6.50012 18H19.0001V21ZM11.0001 15V3H19.0001V15H11.0001Z" fill="#374957"/>
</g>
<defs>
<clipPath id="clip0_406_236">
<rect width="24" height="24" fill="white"/>
</clipPath>
</defs>
</svg>
