<svg width="24" height="24" viewBox="0 0 24 24" fill="none" xmlns="http://www.w3.org/2000/svg">
<g clip-path="url(#clip0_406_14)">
<path d="M13.5389 23.9998V21.9998H23.8119L19.7789 15.9868H22.3059L18.3059 9.99975H20.5059C20.5059 9.99975 15.8543 3.19946 14.1839 1.02075C14.1459 0.971159 14.024 0.828752 14.024 0.828752C13.5006 0.296862 12.7851 -0.00191961 12.0389 -0.00023211C11.2925 -0.00243523 10.4719 0.298034 10.0539 0.829784L3.43593 9.99975H5.69995L1.69996 15.9998H4.21795L0.183929 21.9998H10.5389V23.9998H13.5389ZM7.29993 12.9998L11.2999 6.99975H9.28893L12.0349 3.18075L14.7229 6.99975H12.6939L16.6939 12.9868H14.1539L18.1869 18.9998H5.81596L9.84998 12.9998H7.29993Z" fill="#374957"/>
<path d="M11.5 18C12.3284 18 13 17.3284 13 16.5C13 15.6716 12.3284 15 11.5 15C10.6715 15 9.99997 15.6716 9.99997 16.5C9.99997 17.3284 10.6715 18 11.5 18Z" fill="#374957"/>
<path d="M12.5 13.0009C13.3284 13.0009 14 12.3294 14 11.5009C14 10.6725 13.3284 10.0009 12.5 10.0009C11.6716 10.0009 11 10.6725 11 11.5009C11 12.3294 11.6716 13.0009 12.5 13.0009Z" fill="#374957"/>
</g>
<defs>
<clipPath id="clip0_406_14">
<rect width="24" height="24" fill="white"/>
</clipPath>
</defs>
</svg>
