<svg width="24" height="24" viewBox="0 0 24 24" fill="none" xmlns="http://www.w3.org/2000/svg">
<g clip-path="url(#clip0_406_367)">
<path d="M23.6081 17.0129L20.8081 6.91291C20.2454 4.8812 19.0191 3.09619 17.3244 1.84222C15.6297 0.588243 13.5641 -0.0625677 11.4567 -0.00655178C9.34922 0.0494641 7.32114 0.809085 5.69545 2.15131C4.06976 3.49354 2.93998 5.34118 2.48606 7.39991L0.321057 17.1399C0.239891 17.5054 0.241845 17.8844 0.326773 18.249C0.411701 18.6137 0.577436 18.9545 0.811741 19.2465C1.04605 19.5385 1.34294 19.7742 1.6805 19.9361C2.01806 20.098 2.38768 20.182 2.76206 20.1819H6.90506C7.22329 21.2824 7.89049 22.2497 8.80618 22.9382C9.72187 23.6266 10.8365 23.9988 11.9821 23.9988C13.1277 23.9988 14.2422 23.6266 15.1579 22.9382C16.0736 22.2497 16.7408 21.2824 17.0591 20.1819H21.2001C21.5855 20.1819 21.9657 20.0929 22.3109 19.9216C22.6562 19.7504 22.9572 19.5017 23.1905 19.1948C23.4237 18.888 23.5828 18.5314 23.6555 18.1529C23.7281 17.7744 23.7122 17.3843 23.6091 17.0129H23.6081ZM3.38506 17.1819L5.41506 8.04491C5.72597 6.64098 6.4976 5.38141 7.6071 4.4667C8.7166 3.55199 10.1002 3.03472 11.5377 2.99723C12.9751 2.95974 14.3838 3.40419 15.5395 4.25982C16.6952 5.11546 17.5314 6.3331 17.9151 7.71891L20.5431 17.1819H3.38506Z" fill="#374957"/>
</g>
<defs>
<clipPath id="clip0_406_367">
<rect width="24" height="24" fill="white"/>
</clipPath>
</defs>
</svg>
