<svg width="24" height="24" viewBox="0 0 24 24" fill="none" xmlns="http://www.w3.org/2000/svg">
<g clip-path="url(#clip0_406_5)">
<path d="M9 0H2.5C1.83696 0 1.20107 0.263392 0.732233 0.732233C0.263392 1.20107 0 1.83696 0 2.5L0 9H2.99L2.98 10.993L5.98 11.007L5.99 9H9V6.01L10.992 6.02L11.008 3.02L9 3.01V0ZM6 6H3V3H6V6Z" fill="#374957"/>
<path d="M21.5001 0H15.0001V2.99L13.0081 2.98L12.9921 5.98L15.0001 5.99V9H17.9901L17.9801 10.993L20.9801 11.007L20.9901 9H24.0001V2.5C24.0001 2.1717 23.9354 1.84661 23.8098 1.54329C23.6841 1.23998 23.5 0.964379 23.2678 0.732233C23.0357 0.500087 22.7601 0.315938 22.4568 0.190301C22.1535 0.0646644 21.8284 0 21.5001 0V0ZM21.0001 6H18.0001V3H21.0001V6Z" fill="#374957"/>
<path d="M21.0201 13.0074L18.0201 12.9934L18.0101 15.0004H15.0001V17.9904L13.0081 17.9804L12.9921 20.9804L15.0001 20.9904V24.0004H21.5001C21.8284 24.0004 22.1535 23.9357 22.4568 23.8101C22.7601 23.6844 23.0357 23.5003 23.2678 23.2681C23.5 23.036 23.6841 22.7604 23.8098 22.4571C23.9354 22.1538 24.0001 21.8287 24.0001 21.5004V15.0004H21.0101L21.0201 13.0074ZM21.0001 21.0004H18.0001V18.0004H21.0001V21.0004Z" fill="#374957"/>
<path d="M9 15.0004H6.01L6.02 13.0074L3.02 12.9934L3.01 15.0004H0V21.5004C0 21.8287 0.0646644 22.1538 0.190301 22.4571C0.315938 22.7604 0.500087 23.036 0.732233 23.2681C0.964379 23.5003 1.23998 23.6844 1.54329 23.8101C1.84661 23.9357 2.1717 24.0004 2.5 24.0004H9V21.0104L10.992 21.0204L11.008 18.0204L9 18.0104V15.0004ZM6 21.0004H3V18.0004H6V21.0004Z" fill="#374957"/>
</g>
<defs>
<clipPath id="clip0_406_5">
<rect width="24" height="24" fill="white"/>
</clipPath>
</defs>
</svg>
