<svg width="24" height="24" viewBox="0 0 24 24" fill="none" xmlns="http://www.w3.org/2000/svg">
<g clip-path="url(#clip0_406_466)">
<path d="M16 15.4999C16 15.7966 15.912 16.0866 15.7472 16.3333C15.5824 16.58 15.3481 16.7722 15.074 16.8858C14.7999 16.9993 14.4983 17.029 14.2074 16.9711C13.9164 16.9132 13.6491 16.7704 13.4393 16.5606C13.2296 16.3508 13.0867 16.0836 13.0288 15.7926C12.9709 15.5016 13.0006 15.2 13.1142 14.9259C13.2277 14.6518 13.42 14.4176 13.6666 14.2527C13.9133 14.0879 14.2033 13.9999 14.5 13.9999C14.8978 13.9999 15.2794 14.158 15.5607 14.4393C15.842 14.7206 16 15.1021 16 15.4999ZM17 15.4999C17 15.7966 17.088 16.0866 17.2528 16.3333C17.4176 16.58 17.6519 16.7722 17.926 16.8858C18.2001 16.9993 18.5017 17.029 18.7926 16.9711C19.0836 16.9132 19.3509 16.7704 19.5607 16.5606C19.7704 16.3508 19.9133 16.0836 19.9712 15.7926C20.0291 15.5016 19.9993 15.2 19.8858 14.9259C19.7723 14.6518 19.58 14.4176 19.3334 14.2527C19.0867 14.0879 18.7967 13.9999 18.5 13.9999C18.1022 13.9999 17.7206 14.158 17.4393 14.4393C17.158 14.7206 17 15.1021 17 15.4999ZM18 12.4999C18 12.2033 17.912 11.9133 17.7472 11.6666C17.5824 11.4199 17.3481 11.2277 17.074 11.1141C16.7999 11.0006 16.4983 10.9709 16.2074 11.0288C15.9164 11.0866 15.6491 11.2295 15.4393 11.4393C15.2296 11.6491 15.0867 11.9163 15.0288 12.2073C14.9709 12.4983 15.0006 12.7999 15.1142 13.074C15.2277 13.3481 15.42 13.5823 15.6666 13.7472C15.9133 13.912 16.2033 13.9999 16.5 13.9999C16.8978 13.9999 17.2794 13.8419 17.5607 13.5606C17.842 13.2793 18 12.8978 18 12.4999ZM24 15.4999C24.0025 17.0666 23.5712 18.6034 22.7541 19.9401C21.9369 21.2768 20.7656 22.3612 19.3701 23.0733C17.9745 23.7853 16.4091 24.0971 14.8473 23.9742C13.2854 23.8513 11.788 23.2985 10.521 22.377C10.3416 22.7222 10.1412 23.0562 9.921 23.377L9.469 24H2.531L2.083 23.3759C0.772973 21.4187 0.0502044 19.1276 0 16.773C0.103878 14.8546 0.735417 13.0022 1.825 11.4199C2.44847 10.5567 2.85181 9.5544 3 8.49995C2.86824 7.69542 2.6852 6.90013 2.452 6.11895C2.22194 5.43191 2.07031 4.72106 2 3.99995C1.97536 3.46812 2.06196 2.937 2.25426 2.44054C2.44657 1.94409 2.74034 1.49322 3.1168 1.11675C3.49327 0.740289 3.94414 0.446516 4.44059 0.254214C4.93705 0.0619124 5.46817 -0.0246878 6 -5.01866e-05C6.53183 -0.0246878 7.06295 0.0619124 7.55941 0.254214C8.05586 0.446516 8.50673 0.740289 8.8832 1.11675C9.25966 1.49322 9.55343 1.94409 9.74574 2.44054C9.93804 2.937 10.0246 3.46812 10 3.99995C9.92969 4.72106 9.77806 5.43191 9.548 6.11895C9.31472 6.90011 9.13168 7.6954 9 8.49995C9.01773 8.91445 9.11446 9.32174 9.285 9.69995C10.4491 8.45231 11.9617 7.58389 13.626 7.2077C15.2904 6.8315 17.0295 6.96495 18.6169 7.59066C20.2044 8.21638 21.5668 9.3054 22.5269 10.716C23.487 12.1267 24.0003 13.7936 24 15.4999ZM5 3.99995C5.02 4.11695 5.21 4.82395 5.349 5.33895C5.60662 6.21269 5.81067 7.10134 5.96 7.99995H6.04C6.18933 7.10134 6.39338 6.21269 6.651 5.33895C6.79 4.82395 6.98 4.11695 7 3.92195C7 3.28995 6.71 2.99995 6 2.99995C5.29 2.99995 5 3.28995 5 3.99995ZM7.856 21C8.57259 19.7038 8.96508 18.2536 9 16.773C8.87554 15.3849 8.38445 14.0548 7.577 12.9189C7.20472 12.2992 6.8685 11.6584 6.57 10.9999H5.43C5.1315 11.6584 4.79528 12.2992 4.423 12.9189C3.61555 14.0548 3.12446 15.3849 3 16.773C3.03489 18.2536 3.42738 19.7038 4.144 21H7.856ZM21 15.4999C21.0022 14.3043 20.614 13.1405 19.8944 12.1856C19.1749 11.2306 18.1633 10.5366 17.0133 10.2091C15.8634 9.88149 14.6379 9.93823 13.5231 10.3707C12.4084 10.8031 11.4652 11.5876 10.837 12.6049C11.5665 13.8754 11.9663 15.3083 12 16.773C11.9962 17.6701 11.8824 18.5635 11.661 19.433C12.4353 20.1877 13.415 20.6975 14.4775 20.8985C15.5399 21.0996 16.6381 20.9829 17.6347 20.5633C18.6312 20.1436 19.482 19.4394 20.0805 18.5389C20.6791 17.6383 20.9989 16.5813 21 15.4999Z" fill="#374957"/>
</g>
<defs>
<clipPath id="clip0_406_466">
<rect width="24" height="24" fill="white"/>
</clipPath>
</defs>
</svg>
