<svg width="24" height="24" viewBox="0 0 24 24" fill="none" xmlns="http://www.w3.org/2000/svg">
<g clip-path="url(#clip0_406_53)">
<path d="M23.657 17.1637L20.03 13.5367V16.4757C17.6596 16.3197 15.4442 15.2431 13.857 13.4757C13.657 13.7047 13.457 13.9317 13.249 14.1757C12.81 14.6837 12.349 15.2097 11.874 15.7347C14.0059 17.9909 16.9292 19.3333 20.03 19.4797V22.3487L23.657 18.7217C23.7595 18.6195 23.8408 18.4981 23.8963 18.3644C23.9518 18.2307 23.9803 18.0874 23.9803 17.9427C23.9803 17.798 23.9518 17.6547 23.8963 17.521C23.8408 17.3873 23.7595 17.2659 23.657 17.1637Z" fill="#374957"/>
<path d="M20.012 7.5148V10.4148L23.654 6.7728C23.8614 6.56539 23.9779 6.2841 23.9779 5.9908C23.9779 5.6975 23.8614 5.41621 23.654 5.2088L20.012 1.5658V4.5108C15.486 4.7208 12.759 7.1848 10.489 9.7208C8.066 7.0398 5.12 4.4868 -0.0209961 4.4868V7.4918C4.068 7.4918 6.269 9.4858 8.499 12.0008C6.269 14.5158 4.068 16.5078 -0.0209961 16.5078V19.5128C6.026 19.5128 9.04 15.9798 11.733 12.8618C14.1 10.1258 16.161 7.7478 20.012 7.5148Z" fill="#374957"/>
</g>
<defs>
<clipPath id="clip0_406_53">
<rect width="24" height="24" fill="white"/>
</clipPath>
</defs>
</svg>
