<svg width="24" height="24" viewBox="0 0 24 24" fill="none" xmlns="http://www.w3.org/2000/svg">
<g clip-path="url(#clip0_406_166)">
<path d="M14.12 1.62665C13.4886 1.21771 12.7523 1.00012 12 1.00012C11.2477 1.00012 10.5114 1.21771 9.88 1.62665L0 7.99965L5 11.2247V20.0187L5.32 20.4267C5.527 20.6897 7.473 22.9997 12 22.9997C16.527 22.9997 18.473 20.6897 18.68 20.4267L19 20.0187V11.2247L21 9.93465V19.9997H24V7.99965L14.12 1.62665ZM11.506 4.14765C11.6527 4.0513 11.8245 3.99996 12 3.99996C12.1755 3.99996 12.3473 4.0513 12.494 4.14765L18.465 7.99965L12.494 11.8507C12.3476 11.9479 12.1757 11.9997 12 11.9997C11.8243 11.9997 11.6524 11.9479 11.506 11.8507L5.535 7.99965L11.506 4.14765ZM16 18.8577C14.8308 19.6725 13.4232 20.0744 12 19.9997C10.5772 20.0743 9.17004 19.6736 8 18.8607V13.1607L9.88 14.3737C10.5114 14.7826 11.2477 15.0002 12 15.0002C12.7523 15.0002 13.4886 14.7826 14.12 14.3737L16 13.1597V18.8577Z" fill="#374957"/>
</g>
<defs>
<clipPath id="clip0_406_166">
<rect width="24" height="24" fill="white"/>
</clipPath>
</defs>
</svg>
