<svg width="24" height="24" viewBox="0 0 24 24" fill="none" xmlns="http://www.w3.org/2000/svg">
<g clip-path="url(#clip0_406_440)">
<path d="M12.014 23.666C11.3965 23.6668 10.8003 23.4404 10.339 23.03L6.741 20H0V3.5C0 2.57174 0.368749 1.6815 1.02513 1.02513C1.6815 0.368749 2.57174 0 3.5 0L20.5 0C21.4283 0 22.3185 0.368749 22.9749 1.02513C23.6313 1.6815 24 2.57174 24 3.5V20H17.328L13.62 23.065C13.1769 23.4563 12.6051 23.6703 12.014 23.666ZM3 17H7.836L12 20.511L16.248 17H21V3.5C21 3.36739 20.9473 3.24022 20.8536 3.14645C20.7598 3.05268 20.6326 3 20.5 3H3.5C3.36739 3 3.24021 3.05268 3.14645 3.14645C3.05268 3.24022 3 3.36739 3 3.5V17ZM12 10C12.4945 10 12.9778 9.85338 13.3889 9.57868C13.8 9.30397 14.1205 8.91353 14.3097 8.45671C14.4989 7.99989 14.5484 7.49723 14.452 7.01228C14.3555 6.52732 14.1174 6.08186 13.7678 5.73223C13.4181 5.3826 12.9727 5.1445 12.4877 5.04804C12.0028 4.95157 11.5001 5.00108 11.0433 5.1903C10.5865 5.37952 10.196 5.69995 9.92133 6.11108C9.64662 6.5222 9.5 7.00555 9.5 7.5C9.5 8.16304 9.76339 8.79893 10.2322 9.26777C10.7011 9.73661 11.337 10 12 10ZM8 13V15H16V13C16 12.4696 15.7893 11.9609 15.4142 11.5858C15.0391 11.2107 14.5304 11 14 11H10C9.46957 11 8.96086 11.2107 8.58579 11.5858C8.21071 11.9609 8 12.4696 8 13Z" fill="#374957"/>
</g>
<defs>
<clipPath id="clip0_406_440">
<rect width="24" height="24" fill="white"/>
</clipPath>
</defs>
</svg>
