<svg width="24" height="24" viewBox="0 0 24 24" fill="none" xmlns="http://www.w3.org/2000/svg">
<g clip-path="url(#clip0_406_276)">
<path d="M24 24H12C9.62663 24 7.30655 23.2962 5.33316 21.9776C3.35977 20.6591 1.8217 18.7849 0.913451 16.5922C0.00519943 14.3995 -0.232441 11.9867 0.230582 9.65892C0.693605 7.33115 1.83649 5.19295 3.51472 3.51472C5.19295 1.83649 7.33115 0.693605 9.65892 0.230582C11.9867 -0.232441 14.3995 0.00519943 16.5922 0.913451C18.7849 1.8217 20.6591 3.35977 21.9776 5.33316C23.2962 7.30655 24 9.62663 24 12V24ZM12 3.00001C9.61306 3.00001 7.32387 3.94822 5.63604 5.63604C3.94822 7.32387 3.00001 9.61306 3.00001 12C3.00001 14.387 3.94822 16.6761 5.63604 18.364C7.32387 20.0518 9.61306 21 12 21H21V12C20.9974 9.61387 20.0483 7.32622 18.361 5.63897C16.6738 3.95171 14.3861 3.00265 12 3.00001ZM14.5 8.00001C13.8044 8.03472 13.1508 8.34355 12.6823 8.85891C12.2138 9.37428 11.9685 10.0542 12 10.75C12.0315 10.0542 11.7862 9.37428 11.3177 8.85891C10.8492 8.34355 10.1956 8.03472 9.50001 8.00001C8.80438 8.03472 8.15081 8.34355 7.6823 8.85891C7.21379 9.37428 6.96847 10.0542 7.00001 10.75C7.00001 13.63 12 17 12 17C12 17 17 13.63 17 10.75C17.0315 10.0542 16.7862 9.37428 16.3177 8.85891C15.8492 8.34355 15.1956 8.03472 14.5 8.00001Z" fill="#374957"/>
</g>
<defs>
<clipPath id="clip0_406_276">
<rect width="24" height="24" fill="white"/>
</clipPath>
</defs>
</svg>
