<svg width="24" height="24" viewBox="0 0 24 24" fill="none" xmlns="http://www.w3.org/2000/svg">
<g clip-path="url(#clip0_406_221)">
<path d="M2.12299 24.0004L8.56699 17.5564L13.467 22.4564L14.527 21.3954C15.5718 20.3422 16.3231 19.0342 16.7064 17.6011C17.0897 16.1679 17.0916 14.6595 16.712 13.2254L20.055 9.87138L20.548 10.3654C20.8806 10.7148 21.3258 10.9357 21.8053 10.9891C22.2847 11.0425 22.7676 10.925 23.169 10.6574C23.4041 10.4894 23.5998 10.2724 23.7426 10.0213C23.8854 9.77018 23.9719 9.49101 23.996 9.20314C24.0202 8.91527 23.9815 8.62559 23.8825 8.35418C23.7836 8.08278 23.6268 7.83614 23.423 7.63138L16.455 0.641378C16.1224 0.291951 15.6772 0.0710828 15.1977 0.0176684C14.7183 -0.0357459 14.2353 0.0817191 13.834 0.349378C13.5989 0.517307 13.4032 0.734353 13.2604 0.985465C13.1176 1.23658 13.0311 1.51575 13.0069 1.80362C12.9828 2.09149 13.0215 2.38117 13.1205 2.65257C13.2194 2.92398 13.3762 3.17061 13.58 3.37538L14.139 3.93538L10.789 7.30038L10.725 7.28038C9.29794 6.91063 7.79918 6.91905 6.37637 7.30483C4.95357 7.6906 3.65582 8.44041 2.61099 9.48038L1.54999 10.5374L6.44999 15.4374L-7.62939e-06 21.8774L2.12299 24.0004ZM9.88399 10.1534L11.617 10.7144L16.257 6.06038L17.934 7.74138L13.3 12.3914L13.825 14.0334C14.176 15.3906 13.9935 16.8307 13.315 18.0574L5.94199 10.6864C7.13991 10.0124 8.55011 9.82173 9.88399 10.1534Z" fill="#374957"/>
</g>
<defs>
<clipPath id="clip0_406_221">
<rect width="24" height="24" fill="white"/>
</clipPath>
</defs>
</svg>
