<svg width="24" height="24" viewBox="0 0 24 24" fill="none" xmlns="http://www.w3.org/2000/svg">
<g clip-path="url(#clip0_406_45)">
<path d="M21.688 2.31185C20.9555 1.57886 20.0858 0.997394 19.1286 0.600673C18.1713 0.203951 17.1452 -0.000244141 16.109 -0.000244141C15.0728 -0.000244141 14.0467 0.203951 13.0894 0.600673C12.1322 0.997394 11.2624 1.57886 10.53 2.31185L2.31199 10.5299C1.57321 11.2611 0.986212 12.1312 0.584738 13.0901C0.183264 14.0489 -0.0247751 15.0777 -0.0274249 16.1172C-0.0300747 17.1567 0.172717 18.1865 0.569298 19.1474C0.965878 20.1083 1.54843 20.9813 2.28348 21.7164C3.01852 22.4514 3.89158 23.034 4.85247 23.4305C5.81336 23.8271 6.84315 24.0299 7.88266 24.0273C8.92217 24.0246 9.95091 23.8166 10.9098 23.4151C11.8686 23.0136 12.7387 22.4266 13.47 21.6879L21.688 13.4699C22.421 12.7374 23.0025 11.8677 23.3992 10.9104C23.7959 9.95314 24.0001 8.92708 24.0001 7.89085C24.0001 6.85463 23.7959 5.82856 23.3992 4.87129C23.0025 3.91402 22.421 3.04431 21.688 2.31185ZM19.567 11.3489L11.349 19.5669C10.4319 20.484 9.18799 20.9992 7.89099 20.9992C6.59399 20.9992 5.35011 20.484 4.43299 19.5669C3.51587 18.6497 3.00064 17.4059 3.00064 16.1089C3.00064 14.8119 3.51587 13.568 4.43299 12.6509L12.651 4.43285C13.5681 3.51574 14.812 3.0005 16.109 3.0005C17.406 3.0005 18.6499 3.51574 19.567 4.43285C20.4841 5.34997 20.9993 6.59385 20.9993 7.89085C20.9993 9.18786 20.4841 10.4317 19.567 11.3489ZM17.939 6.93885L20.061 9.06085L16.061 13.0609L13.939 10.9389L14.879 9.99985L14 9.12085L13.061 10.0609L10.939 7.93885L14.939 3.93885L17.061 6.06085L16.121 6.99985L17 7.87885L17.939 6.93885ZM10.939 13.9389L13.061 16.0609L9.01599 20.1049L6.89999 17.9839L7.87899 16.9999L6.99999 16.1209L6.01599 17.1049L3.89999 14.9839L7.94399 10.9389L10.066 13.0609L9.12099 13.9999L9.99999 14.8789L10.939 13.9389Z" fill="#374957"/>
</g>
<defs>
<clipPath id="clip0_406_45">
<rect width="24" height="24" fill="white"/>
</clipPath>
</defs>
</svg>
