<svg width="24" height="24" viewBox="0 0 24 24" fill="none" xmlns="http://www.w3.org/2000/svg">
<g clip-path="url(#clip0_406_301)">
<path d="M15.0002 16.0001C15.0002 15.4697 15.2109 14.961 15.586 14.5859C15.961 14.2108 16.4697 14.0001 17.0002 14.0001C17.5306 14.0001 18.0393 14.2108 18.4144 14.5859C18.7895 14.961 19.0002 15.4697 19.0002 16.0001C19.0002 16.5305 18.7895 17.0393 18.4144 17.4143C18.0393 17.7894 17.5306 18.0001 17.0002 18.0001C16.4697 18.0001 15.961 17.7894 15.586 17.4143C15.2109 17.0393 15.0002 16.5305 15.0002 16.0001ZM8.00017 17.0001C8.53061 17.0001 9.03931 16.7894 9.41439 16.4143C9.78946 16.0393 10.0002 15.5305 10.0002 15.0001C10.0002 14.4697 9.78946 13.961 9.41439 13.5859C9.03931 13.2108 8.53061 13.0001 8.00017 13.0001C7.46974 13.0001 6.96103 13.2108 6.58596 13.5859C6.21089 13.961 6.00017 14.4697 6.00017 15.0001C6.00017 15.5305 6.21089 16.0393 6.58596 16.4143C6.96103 16.7894 7.46974 17.0001 8.00017 17.0001ZM24.0002 8.77111V24.0001H5.22717C4.36675 24.0045 3.52338 23.7602 2.79863 23.2964C2.07388 22.8326 1.49864 22.1692 1.14217 21.3861C-0.171528 18.4174 -0.355736 15.0711 0.624173 11.9761C1.02417 10.5331 2.88117 4.69411 7.74417 1.05911C8.65117 0.393167 9.74173 0.0236512 10.8667 0.00109758C11.9917 -0.021456 13.0962 0.304054 14.0292 0.933112L24.0002 8.77111ZM5.58117 8.00011H18.1672L12.3212 3.40011C11.9213 3.14443 11.4578 3.00586 10.9832 3.00011C10.4634 2.98365 9.95376 3.14681 9.54017 3.46211C7.93621 4.70108 6.5911 6.2429 5.58117 8.00011ZM21.0002 11.0001H5.22717C4.94582 10.9953 4.66906 11.0719 4.43013 11.2205C4.1912 11.3692 4.00024 11.5836 3.88017 11.8381C3.32348 13.1564 3.02475 14.5693 3.00017 16.0001C3.00002 17.4336 3.29977 18.8513 3.88017 20.1621C4.00024 20.4166 4.1912 20.6311 4.43013 20.7797C4.66906 20.9283 4.94582 21.0049 5.22717 21.0001H9.00017C9.00024 20.5805 9.08834 20.1655 9.2588 19.782C9.42925 19.3985 9.67827 19.0551 9.98975 18.7739C10.3012 18.4926 10.6682 18.2799 11.0671 18.1494C11.4659 18.0188 11.8877 17.9734 12.3052 18.0161C13.036 18.1094 13.709 18.4619 14.2017 19.0096C14.6945 19.5572 14.9743 20.2636 14.9902 21.0001H21.0002V11.0001Z" fill="#374957"/>
</g>
<defs>
<clipPath id="clip0_406_301">
<rect width="24" height="24" fill="white"/>
</clipPath>
</defs>
</svg>
