<svg width="24" height="24" viewBox="0 0 24 24" fill="none" xmlns="http://www.w3.org/2000/svg">
<g clip-path="url(#clip0_406_21)">
<path d="M17.7279 -0.000494225C16.3987 -0.00105836 15.0784 0.215458 13.8189 0.640506C13.2352 0.854727 12.6213 0.975872 11.9999 0.999506C11.3782 0.975778 10.7641 0.854638 10.1799 0.640506C8.92087 0.215426 7.60082 -0.00109273 6.27193 -0.000494225C5.44183 -0.0242498 4.61562 0.12174 3.84392 0.428529C3.07223 0.735319 2.3713 1.19645 1.78409 1.78366C1.19687 2.37087 0.735746 3.0718 0.428956 3.84349C0.122167 4.61519 -0.0238226 5.4414 -6.69786e-05 6.27151C-6.69786e-05 12.5625 3.17493 18.6615 5.94093 23.2715L6.37793 23.9995H10.9999V14.9995C10.9999 14.7343 11.1053 14.4799 11.2928 14.2924C11.4804 14.1049 11.7347 13.9995 11.9999 13.9995C12.2652 13.9995 12.5195 14.1049 12.707 14.2924C12.8946 14.4799 12.9999 14.7343 12.9999 14.9995V23.9995H17.6219L18.0589 23.2705C20.8249 18.6625 23.9999 12.5645 23.9999 6.27151C24.0237 5.4414 23.8777 4.61519 23.5709 3.84349C23.2641 3.0718 22.803 2.37087 22.2158 1.78366C21.6286 1.19645 20.9276 0.735319 20.1559 0.428529C19.3843 0.12174 18.558 -0.0242498 17.7279 -0.000494225ZM15.9999 20.8605V14.9995C15.9999 13.9386 15.5785 12.9212 14.8284 12.1711C14.0782 11.4209 13.0608 10.9995 11.9999 10.9995C10.9391 10.9995 9.92165 11.4209 9.17151 12.1711C8.42136 12.9212 7.99993 13.9386 7.99993 14.9995V20.8605C5.56893 16.7055 2.99993 11.4605 2.99993 6.27151C2.97893 5.83626 3.04918 5.40143 3.20619 4.99494C3.36319 4.58845 3.60347 4.21929 3.91159 3.91116C4.21972 3.60304 4.58888 3.36276 4.99537 3.20576C5.40185 3.04876 5.83669 2.9785 6.27193 2.99951C7.30539 2.99882 8.33164 3.17155 9.30793 3.51051C10.1738 3.81468 11.0824 3.97973 11.9999 3.99951C12.9171 3.97974 13.8254 3.81469 14.6909 3.51051C15.6676 3.17155 16.6942 2.99882 17.7279 2.99951C18.1633 2.97788 18.5984 3.0477 19.0052 3.20449C19.412 3.36127 19.7814 3.60153 20.0897 3.90978C20.3979 4.21804 20.6382 4.58745 20.795 4.99423C20.9517 5.401 21.0216 5.8361 20.9999 6.27151C20.9999 11.4605 18.4309 16.7065 15.9999 20.8605Z" fill="#374957"/>
</g>
<defs>
<clipPath id="clip0_406_21">
<rect width="24" height="24" fill="white"/>
</clipPath>
</defs>
</svg>
