<svg width="24" height="24" viewBox="0 0 24 24" fill="none" xmlns="http://www.w3.org/2000/svg">
<g clip-path="url(#clip0_406_491)">
<path d="M12 0C9.62663 0 7.30655 0.703788 5.33316 2.02236C3.35977 3.34094 1.8217 5.21509 0.913451 7.4078C0.00519943 9.60051 -0.232441 12.0133 0.230582 14.3411C0.693605 16.6689 1.83649 18.8071 3.51472 20.4853C5.19295 22.1635 7.33115 23.3064 9.65892 23.7694C11.9867 24.2324 14.3995 23.9948 16.5922 23.0866C18.7849 22.1783 20.6591 20.6402 21.9776 18.6668C23.2962 16.6935 24 14.3734 24 12C23.9966 8.81846 22.7312 5.76821 20.4815 3.51852C18.2318 1.26883 15.1815 0.00344108 12 0V0ZM3.00001 12C3.00008 10.1237 3.59064 8.29497 4.68801 6.773C5.18931 7.23296 5.62175 7.76274 5.97201 8.346L4.94201 8.653L5.80001 11.528L6.95001 11.186C6.98228 11.4562 6.99898 11.7279 7.00001 12C6.99898 12.2721 6.98228 12.5439 6.95001 12.814L5.80001 12.472L4.94201 15.347L5.97201 15.654C5.62175 16.2373 5.18931 16.767 4.68801 17.227C3.59064 15.705 3.00008 13.8763 3.00001 12ZM6.81001 19.34C7.66899 18.5338 8.37978 17.583 8.91001 16.531L10.427 16.983L11.284 14.108L9.83901 13.677C9.93956 13.1235 9.99342 12.5625 10 12C9.99474 11.4376 9.94222 10.8766 9.84301 10.323L11.288 9.892L10.431 7.017L8.91401 7.469C8.38257 6.41669 7.67042 5.4659 6.81001 4.66C8.3252 3.58024 10.1394 2.99994 12 2.99994C13.8606 2.99994 15.6748 3.58024 17.19 4.66C16.331 5.46623 15.6202 6.41699 15.09 7.469L13.573 7.017L12.716 9.892L14.161 10.323C14.0604 10.8765 14.0066 11.4375 14 12C14.0053 12.5624 14.0578 13.1234 14.157 13.677L12.712 14.108L13.569 16.983L15.086 16.531C15.6162 17.583 16.327 18.5338 17.186 19.34C15.6708 20.4198 13.8566 21.0001 11.996 21.0001C10.1354 21.0001 8.3212 20.4198 6.80601 19.34H6.81001ZM19.31 17.227C18.8087 16.767 18.3763 16.2373 18.026 15.654L19.056 15.347L18.2 12.472L17.05 12.814C16.9833 12.2734 16.9833 11.7266 17.05 11.186L18.2 11.528L19.058 8.653L18.028 8.346C18.3783 7.76274 18.8107 7.23296 19.312 6.773C20.4094 8.29494 21 10.1237 21 12C21 13.8763 20.4094 15.7051 19.312 17.227H19.31Z" fill="#374957"/>
</g>
<defs>
<clipPath id="clip0_406_491">
<rect width="24" height="24" fill="white"/>
</clipPath>
</defs>
</svg>
