<svg width="24" height="24" viewBox="0 0 24 24" fill="none" xmlns="http://www.w3.org/2000/svg">
<g clip-path="url(#clip0_406_131)">
<path d="M15.9999 9.99999C17.1045 9.99999 17.9999 9.10456 17.9999 8C17.9999 6.89543 17.1045 6 15.9999 6C14.8954 6 13.9999 6.89543 13.9999 8C13.9999 9.10456 14.8954 9.99999 15.9999 9.99999Z" fill="#374957"/>
<path d="M9.00006 9.99999C10.1046 9.99999 11.0001 9.10456 11.0001 8C11.0001 6.89543 10.1046 6 9.00006 6C7.89549 6 7.00006 6.89543 7.00006 8C7.00006 9.10456 7.89549 9.99999 9.00006 9.99999Z" fill="#374957"/>
<path d="M8 17.0003C9.10456 17.0003 9.99999 16.1049 9.99999 15.0003C9.99999 13.8957 9.10456 13.0003 8 13.0003C6.89543 13.0003 6 13.8957 6 15.0003C6 16.1049 6.89543 17.0003 8 17.0003Z" fill="#374957"/>
<path d="M12.4999 0.00705924C10.9081 -0.0473289 9.32131 0.215739 7.83216 0.780924C6.343 1.34611 4.98127 2.2021 3.82634 3.29899C2.67142 4.39588 1.74643 5.71172 1.10529 7.16979C0.464151 8.62785 0.119701 10.199 0.0920221 11.7915C0.0643433 13.3841 0.35399 14.9662 0.944073 16.4457C1.53416 17.9252 2.41287 19.2723 3.52898 20.4087C4.64508 21.5451 5.97625 22.4479 7.44487 23.0645C8.91348 23.681 10.4902 23.9991 12.083 24.0001C12.4209 24.0001 12.752 23.9781 13.0829 23.9511L14.4719 23.8361L14.4289 19.0181C14.4243 18.4506 14.5886 17.8945 14.9009 17.4207C15.2132 16.9469 15.6594 16.5766 16.1828 16.3572C16.7061 16.1377 17.2829 16.0789 17.8398 16.1882C18.3966 16.2975 18.9084 16.57 19.3099 16.9711L19.4099 17.0711C19.6916 17.3535 20.0399 17.5606 20.4226 17.6732C20.8053 17.7857 21.2102 17.8001 21.5999 17.7151C21.9845 17.6338 22.3425 17.4573 22.6411 17.2017C22.9398 16.946 23.1694 16.6195 23.3089 16.2521C23.8602 14.7995 24.1221 13.2531 24.0799 11.7001C23.9672 8.65415 22.7143 5.76174 20.5695 3.59604C18.4247 1.43034 15.5446 0.149399 12.4999 0.00705924ZM20.7849 14.2931C19.9099 13.6421 18.8706 13.2482 17.7839 13.1557C16.6972 13.0632 15.6062 13.2758 14.6337 13.7694C13.6612 14.2631 12.8458 15.0183 12.2791 15.9502C11.7124 16.882 11.4169 17.9535 11.426 19.0441L11.443 20.9781C9.1153 20.815 6.94194 19.7544 5.38126 18.0198C3.82058 16.2852 2.99458 14.0122 3.07746 11.6804C3.16034 9.34848 4.14563 7.13993 5.82553 5.52052C7.50542 3.9011 9.7486 2.99742 12.082 3.00006C12.1819 3.00006 12.2929 3.00006 12.4 3.00006C14.6825 3.10732 16.8415 4.0681 18.4491 5.69203C20.0568 7.31595 20.9957 9.48453 21.0799 11.7681C21.1035 12.6194 21.0048 13.4697 20.7869 14.2931H20.7849Z" fill="#374957"/>
</g>
<defs>
<clipPath id="clip0_406_131">
<rect width="24" height="24" fill="white"/>
</clipPath>
</defs>
</svg>
