<svg width="24" height="24" viewBox="0 0 24 24" fill="none" xmlns="http://www.w3.org/2000/svg">
<path d="M19.4571 10.232L14.1641 4.93896L12.0431 7.06096L16.9821 12L12.0431 16.939L14.1641 19.061L19.4571 13.768C19.6893 13.5358 19.8735 13.2602 19.9992 12.9568C20.1249 12.6535 20.1896 12.3283 20.1896 12C20.1896 11.6716 20.1249 11.3465 19.9992 11.0431C19.8735 10.7397 19.6893 10.4641 19.4571 10.232Z" fill="#374957"/>
<path d="M13.164 10.939L7.16403 4.93896L5.04303 7.06096L9.98203 12L5.04303 16.939L7.16403 19.061L13.164 13.061C13.3034 12.9217 13.414 12.7563 13.4894 12.5742C13.5649 12.3922 13.6037 12.197 13.6037 12C13.6037 11.8029 13.5649 11.6078 13.4894 11.4257C13.414 11.2437 13.3034 11.0783 13.164 10.939Z" fill="#374957"/>
</svg>
