<svg width="24" height="24" viewBox="0 0 24 24" fill="none" xmlns="http://www.w3.org/2000/svg">
<g clip-path="url(#clip0_406_378)">
<path d="M21.543 1.63845L17.191 0.18145C16.4979 -0.0504459 15.7495 -0.0595377 15.051 0.15545L8.96199 1.98345L4.84799 0.27245C4.31624 0.0505315 3.73793 -0.0366733 3.16439 0.0185764C2.59085 0.0738261 2.03981 0.269821 1.56021 0.589164C1.0806 0.908507 0.687249 1.34132 0.415075 1.84918C0.142901 2.35705 0.000321485 2.92425 -7.62939e-06 3.50045L-7.62939e-06 21.6315L8.49999 24.0604L15.549 22.0515L24.019 24.1145V4.98345C24.02 4.23397 23.7798 3.50406 23.3339 2.90166C22.888 2.29926 22.2601 1.85636 21.543 1.63845ZM14.018 3.62345V19.3685L9.99999 20.5135V4.87345C10.035 4.86345 10.07 4.86045 10.1 4.85045L14.018 3.62345ZM2.99999 3.50045C2.99996 3.41797 3.02034 3.33676 3.05931 3.26406C3.09828 3.19136 3.15463 3.12943 3.22334 3.08379C3.29204 3.03815 3.37097 3.01022 3.45309 3.00248C3.53521 2.99475 3.61797 3.00745 3.69399 3.03945L6.99999 4.41645V20.5165L2.99999 19.3694V3.50045ZM21.018 20.3004L17.018 19.3265V3.28645L20.655 4.50045C20.7594 4.5302 20.8513 4.59313 20.9168 4.67972C20.9823 4.76632 21.0178 4.87188 21.018 4.98045V20.3004Z" fill="#374957"/>
</g>
<defs>
<clipPath id="clip0_406_378">
<rect width="24" height="24" fill="white"/>
</clipPath>
</defs>
</svg>
