<svg width="24" height="24" viewBox="0 0 24 24" fill="none" xmlns="http://www.w3.org/2000/svg">
<g clip-path="url(#clip0_406_288)">
<path d="M8.35 18.9999H5.8C5.06075 19.0031 4.35049 18.7126 3.82542 18.1922C3.30034 17.6718 3.00344 16.9642 3 16.2249C3.02629 15.5846 3.25525 14.9692 3.65388 14.4674C4.05252 13.9656 4.60021 13.6033 5.218 13.4329L7.383 12.8759L6.048 11.0839C5.38675 10.2031 5.0295 9.13132 5.03 8.02991C5.01694 7.36315 5.13916 6.70065 5.38927 6.08244C5.63939 5.46422 6.01221 4.90312 6.48522 4.433C6.95823 3.96289 7.52162 3.59353 8.14136 3.34721C8.7611 3.1009 9.42433 2.98276 10.091 2.99991C11.3407 3.00025 12.5482 3.45238 13.4908 4.27294C14.4333 5.0935 15.0475 6.22716 15.22 7.46491L15.373 8.59991L17.982 5.99991H17.976C17.4961 4.27664 16.4658 2.75758 15.0422 1.67432C13.6186 0.591066 11.8799 0.0030474 10.091 -8.75939e-05C9.03129 -0.0135765 7.97956 0.184684 6.99749 0.583064C6.01543 0.981444 5.1228 1.57192 4.37197 2.31986C3.62114 3.06781 3.02723 3.95815 2.62507 4.93868C2.22291 5.9192 2.02059 6.97016 2.03 8.02991C2.02857 9.1562 2.26364 10.2702 2.72 11.2999C1.89571 11.8329 1.21603 12.5615 0.741463 13.4208C0.266898 14.2801 0.0121838 15.2434 0 16.2249C0.00450265 17.7595 0.617815 19.2296 1.70527 20.3123C2.79272 21.3951 4.26542 22.002 5.8 21.9999H10.7C9.61282 21.2804 8.78825 20.2278 8.35 18.9999Z" fill="#374957"/>
<path d="M21.0002 17.9999C20.4721 18.0027 19.9543 18.1463 19.5002 18.4159L17.0232 16.9999L19.5002 15.5839C19.9543 15.8534 20.4721 15.997 21.0002 15.9999C21.5929 15.9999 22.1724 15.8243 22.6654 15.4952C23.1585 15.1662 23.543 14.6985 23.7705 14.1511C23.9979 13.6038 24.0581 13.0013 23.9435 12.4197C23.8289 11.8382 23.5446 11.3036 23.1264 10.8835C22.7082 10.4634 22.175 10.1766 21.594 10.0592C21.013 9.94191 20.4102 9.99932 19.8618 10.2242C19.3134 10.4492 18.8439 10.8315 18.5126 11.323C18.1812 11.8145 18.003 12.3931 18.0002 12.9859L15.5002 14.4159C15.0461 14.1463 14.5283 14.0027 14.0002 13.9999C13.2045 13.9999 12.4415 14.3159 11.8789 14.8786C11.3163 15.4412 11.0002 16.2042 11.0002 16.9999C11.0002 17.7955 11.3163 18.5586 11.8789 19.1212C12.4415 19.6838 13.2045 19.9999 14.0002 19.9999C14.5283 19.997 15.0461 19.8534 15.5002 19.5839L18.0002 21.0139C18.003 21.6066 18.1812 22.1853 18.5126 22.6768C18.8439 23.1683 19.3134 23.5506 19.8618 23.7755C20.4102 24.0004 21.013 24.0579 21.594 23.9405C22.175 23.8232 22.7082 23.5364 23.1264 23.1163C23.5446 22.6961 23.8289 22.1616 23.9435 21.58C24.0581 20.9985 23.9979 20.396 23.7705 19.8486C23.543 19.3013 23.1585 18.8335 22.6654 18.5045C22.1724 18.1755 21.5929 17.9999 21.0002 17.9999Z" fill="#374957"/>
</g>
<defs>
<clipPath id="clip0_406_288">
<rect width="24" height="24" fill="white"/>
</clipPath>
</defs>
</svg>
