<svg width="24" height="24" viewBox="0 0 24 24" fill="none" xmlns="http://www.w3.org/2000/svg">
<g clip-path="url(#clip0_406_163)">
<path d="M5.99993 8.5C5.99993 8.10218 6.15796 7.72064 6.43927 7.43934C6.72057 7.15804 7.1021 7 7.49993 7C7.89775 7 8.27928 7.15804 8.56059 7.43934C8.84189 7.72064 8.99993 8.10218 8.99993 8.5C8.99993 8.89782 8.84189 9.27936 8.56059 9.56066C8.27928 9.84196 7.89775 10 7.49993 10C7.1021 10 6.72057 9.84196 6.43927 9.56066C6.15796 9.27936 5.99993 8.89782 5.99993 8.5ZM11.4999 8C11.8978 8 12.2793 7.84196 12.5606 7.56066C12.8419 7.27936 12.9999 6.89782 12.9999 6.5C12.9999 6.10218 12.8419 5.72064 12.5606 5.43934C12.2793 5.15804 11.8978 5 11.4999 5C11.1021 5 10.7206 5.15804 10.4393 5.43934C10.158 5.72064 9.99993 6.10218 9.99993 6.5C9.99993 6.89782 10.158 7.27936 10.4393 7.56066C10.7206 7.84196 11.1021 8 11.4999 8ZM22.9999 15.723V19.5C22.9986 20.6931 22.5241 21.8369 21.6804 22.6805C20.8368 23.5241 19.693 23.9987 18.4999 24H5.49993C4.30686 23.9987 3.16303 23.5241 2.31941 22.6805C1.47578 21.8369 1.00125 20.6931 0.999927 19.5V15.723C0.7001 15.5463 0.451577 15.2944 0.278918 14.9922C0.106259 14.69 0.0154419 14.348 0.0154419 14C0.0154419 13.652 0.106259 13.31 0.278918 13.0078C0.451577 12.7056 0.7001 12.4537 0.999927 12.277V9.136C1.00284 6.7137 1.96645 4.39147 3.67937 2.67873C5.39229 0.966004 7.71463 0.00264644 10.1369 0L13.8629 0C16.2852 0.00264644 18.6076 0.966004 20.3205 2.67873C22.0334 4.39147 22.997 6.7137 22.9999 9.136V12.277C23.2998 12.4537 23.5483 12.7056 23.7209 13.0078C23.8936 13.31 23.9844 13.652 23.9844 14C23.9844 14.348 23.8936 14.69 23.7209 14.9922C23.5483 15.2944 23.2998 15.5463 22.9999 15.723ZM3.99993 9.136V12H19.9999V9.136C19.9978 7.50911 19.3505 5.94947 18.2 4.79918C17.0496 3.64888 15.4898 3.00185 13.8629 3H10.1369C8.51003 3.00185 6.95029 3.64888 5.79981 4.79918C4.64933 5.94947 4.00204 7.50911 3.99993 9.136ZM19.9999 19.5V16H16.9999C13.8699 16 13.8179 16.287 11.4999 18.3C10.9863 18.7516 10.3258 19.0006 9.64193 19.0006C8.95804 19.0006 8.29755 18.7516 7.78393 18.3C6.17193 16.9 5.59193 16.152 3.99993 16.026V19.5C3.99993 19.8978 4.15796 20.2794 4.43927 20.5607C4.72057 20.842 5.1021 21 5.49993 21H18.4999C18.8978 21 19.2793 20.842 19.5606 20.5607C19.8419 20.2794 19.9999 19.8978 19.9999 19.5Z" fill="#374957"/>
</g>
<defs>
<clipPath id="clip0_406_163">
<rect width="24" height="24" fill="white"/>
</clipPath>
</defs>
</svg>
