<svg width="24" height="24" viewBox="0 0 24 24" fill="none" xmlns="http://www.w3.org/2000/svg">
<g clip-path="url(#clip0_406_160)">
<path d="M12.791 3.83571C13.2138 3.65365 13.5608 3.33133 13.7736 2.92312C13.9863 2.51491 14.0518 2.0458 13.9588 1.59496C13.8659 1.14412 13.6202 0.739141 13.2634 0.448355C12.9066 0.157569 12.4603 -0.0012207 12 -0.0012207C11.5397 -0.0012207 11.0934 0.157569 10.7366 0.448355C10.3798 0.739141 10.1341 1.14412 10.0412 1.59496C9.94825 2.0458 10.0137 2.51491 10.2264 2.92312C10.4392 3.33133 10.7862 3.65365 11.209 3.83571L0 24.0147H24L12.791 3.83571ZM16.053 15.8837L13.136 21.0147H10.692L14.8 13.6277L16.053 15.8837ZM12 8.58871L13.085 10.5407L7.26 21.0147H5.1L12 8.58871Z" fill="#374957"/>
</g>
<defs>
<clipPath id="clip0_406_160">
<rect width="24" height="24" fill="white"/>
</clipPath>
</defs>
</svg>
