<svg width="24" height="24" viewBox="0 0 24 24" fill="none" xmlns="http://www.w3.org/2000/svg">
<g clip-path="url(#clip0_406_40)">
<path d="M24 13.5V10.5H19.854C19.6507 9.42772 19.2286 8.40886 18.614 7.507L21.546 4.575L19.425 2.454L16.493 5.386C15.5912 4.77121 14.5723 4.34908 13.5 4.146V0H10.5V4.146C9.42767 4.34908 8.40876 4.77121 7.507 5.386L4.575 2.454L2.454 4.575L5.386 7.507C4.77139 8.40886 4.34927 9.42772 4.146 10.5H0V13.5H4.146C4.34927 14.5723 4.77139 15.5911 5.386 16.493L2.454 19.425L4.575 21.546L7.507 18.614C8.40876 19.2288 9.42767 19.6509 10.5 19.854V24H13.5V19.854C14.5723 19.6509 15.5912 19.2288 16.493 18.614L19.425 21.546L21.546 19.425L18.614 16.493C19.2286 15.5911 19.6507 14.5723 19.854 13.5H24ZM12 17C5.392 16.79 5.394 7.209 12 7C18.608 7.21 18.606 16.791 12 17Z" fill="#374957"/>
</g>
<defs>
<clipPath id="clip0_406_40">
<rect width="24" height="24" fill="white"/>
</clipPath>
</defs>
</svg>
