<svg width="24" height="24" viewBox="0 0 24 24" fill="none" xmlns="http://www.w3.org/2000/svg">
<path d="M13.4999 17.9995H10.4999V14.9995H13.4999V17.9995ZM12.9569 23.5555C15.0779 22.6995 21.9999 19.3445 21.9999 11.9745V5.8125C22.0003 5.10086 21.7761 4.40723 21.3594 3.83036C20.9427 3.25348 20.3546 2.82276 19.6789 2.5995L11.9999 0.0545044L4.32091 2.5995C3.64519 2.82276 3.05711 3.25348 2.64039 3.83036C2.22367 4.40723 1.99954 5.10086 1.99991 5.8125V11.9745C1.99991 18.4895 8.85091 22.4235 10.9529 23.4745L11.9359 23.9635L12.9569 23.5555ZM18.7339 5.4475C18.8115 5.47189 18.8791 5.5205 18.927 5.5862C18.9749 5.6519 19.0004 5.73122 18.9999 5.8125V11.9745C18.9999 17.2345 13.9659 19.8745 12.0679 20.6745C10.1419 19.6745 4.99991 16.5745 4.99991 11.9745V5.8125C4.99937 5.73122 5.02492 5.6519 5.0728 5.5862C5.12068 5.5205 5.18836 5.47189 5.26591 5.4475L11.9999 3.2145L18.7339 5.4475ZM13.6789 12.6305C14.1901 12.3941 14.6457 12.0524 15.0157 11.6277C15.3857 11.203 15.6618 10.705 15.8261 10.1662C15.9903 9.62748 16.0389 9.0601 15.9687 8.50125C15.8984 7.9424 15.711 7.40468 15.4186 6.92329C15.1261 6.4419 14.7354 6.02769 14.2718 5.70778C13.8082 5.38787 13.2823 5.16947 12.7285 5.06688C12.1746 4.96428 11.6054 4.97981 11.058 5.11243C10.5106 5.24506 9.99736 5.4918 9.55191 5.8365C9.06739 6.20887 8.6753 6.68797 8.40612 7.23656C8.13694 7.78515 7.99794 8.38844 7.99991 8.9995H10.9999C10.9999 8.84653 11.0349 8.69558 11.1023 8.55828C11.1698 8.42097 11.2678 8.30097 11.3889 8.2075C11.5154 8.11111 11.6626 8.04555 11.8188 8.01604C11.975 7.98653 12.136 7.99388 12.2889 8.0375C12.4487 8.08312 12.5942 8.16879 12.7116 8.28639C12.8291 8.40399 12.9145 8.54963 12.9599 8.7095C13.0301 8.94136 13.0137 9.19082 12.9139 9.41153C12.814 9.63224 12.6374 9.80919 12.4169 9.9095C11.8337 10.1936 11.3436 10.6379 11.0037 11.1905C10.6639 11.743 10.4884 12.3809 10.4979 13.0295H13.4979C13.4918 12.9531 13.5052 12.8764 13.5368 12.8066C13.5685 12.7368 13.6174 12.6762 13.6789 12.6305Z" fill="#374957"/>
</svg>
