<svg width="24" height="24" viewBox="0 0 24 24" fill="none" xmlns="http://www.w3.org/2000/svg">
<g clip-path="url(#clip0_406_415)">
<path d="M12 0C9.62663 0 7.30655 0.703788 5.33316 2.02236C3.35977 3.34094 1.8217 5.21509 0.913451 7.4078C0.00519943 9.60051 -0.232441 12.0133 0.230582 14.3411C0.693605 16.6689 1.83649 18.8071 3.51472 20.4853C5.19295 22.1635 7.33115 23.3064 9.65892 23.7694C11.9867 24.2324 14.3995 23.9948 16.5922 23.0866C18.7849 22.1783 20.6591 20.6402 21.9776 18.6668C23.2962 16.6935 24 14.3734 24 12C23.9966 8.81846 22.7312 5.76821 20.4815 3.51852C18.2318 1.26883 15.1815 0.00344108 12 0V0ZM12 21V16.693C12 16.4609 11.9078 16.2384 11.7437 16.0743C11.5796 15.9102 11.3571 15.818 11.125 15.818H6.75001L3.00001 12.072C3.00001 12.048 3.00001 12.024 3.00001 12C2.99807 10.3064 3.47464 8.64666 4.3748 7.21207C5.27496 5.77747 6.56209 4.62636 8.08791 3.89136C9.61373 3.15635 11.3162 2.86735 12.9991 3.05766C14.682 3.24796 16.2768 3.90983 17.6 4.967L17.249 5.318H13.909V9.136H11.045V12.08C11.045 12.3121 11.1372 12.5346 11.3013 12.6987C11.4654 12.8628 11.6879 12.955 11.92 12.955H17.727V13.9C17.7291 15.2486 18.1873 16.5568 19.027 17.612C18.1858 18.6687 17.1171 19.522 15.9005 20.1086C14.6839 20.6952 13.3506 20.9999 12 21Z" fill="#374957"/>
</g>
<defs>
<clipPath id="clip0_406_415">
<rect width="24" height="24" fill="white"/>
</clipPath>
</defs>
</svg>
