<svg width="24" height="24" viewBox="0 0 24 24" fill="none" xmlns="http://www.w3.org/2000/svg">
<g clip-path="url(#clip0_406_207)">
<path d="M12 18.5C14.3861 18.4971 16.6735 17.5479 18.3607 15.8607C20.0479 14.1735 20.9971 11.8861 21 9.5V0H18V9.5C18 11.0913 17.3679 12.6174 16.2426 13.7426C15.1174 14.8679 13.5913 15.5 12 15.5C10.4087 15.5 8.88258 14.8679 7.75736 13.7426C6.63214 12.6174 6 11.0913 6 9.5V0H3V9.5C3.00291 11.8861 3.95206 14.1735 5.63925 15.8607C7.32645 17.5479 9.61395 18.4971 12 18.5Z" fill="#374957"/>
<path d="M24 21H0V24H24V21Z" fill="#374957"/>
</g>
<defs>
<clipPath id="clip0_406_207">
<rect width="24" height="24" fill="white"/>
</clipPath>
</defs>
</svg>
