<svg width="24" height="24" viewBox="0 0 24 24" fill="none" xmlns="http://www.w3.org/2000/svg">
<g clip-path="url(#clip0_406_257)">
<path d="M4 23.9999L5.333 21.3329L8 19.9999L5.333 18.6669L4 15.9999L2.667 18.6669L0 19.9999L2.667 21.3329L4 23.9999Z" fill="#374957"/>
<path d="M20.0001 15.9999L18.6671 18.6669L16.0001 19.9999L18.6671 21.3329L20.0001 23.9999L21.3331 21.3329L24.0001 19.9999L21.3331 18.6669L20.0001 15.9999Z" fill="#374957"/>
<path d="M13.3329 2.667L11.9999 0L10.6669 2.667L7.99991 4L10.6669 5.333L11.9999 8L13.3329 5.333L15.9999 4L13.3329 2.667Z" fill="#374957"/>
<path d="M5.50006 15C6.32849 15 7.00006 14.3284 7.00006 13.5C7.00006 12.6716 6.32849 12 5.50006 12C4.67163 12 4.00006 12.6716 4.00006 13.5C4.00006 14.3284 4.67163 15 5.50006 15Z" fill="#374957"/>
<path d="M1.5 11.0001C2.32843 11.0001 3 10.3285 3 9.50012C3 8.67169 2.32843 8.00012 1.5 8.00012C0.671573 8.00012 0 8.67169 0 9.50012C0 10.3285 0.671573 11.0001 1.5 11.0001Z" fill="#374957"/>
<path d="M5.50006 6.99988C6.32849 6.99988 7.00006 6.32831 7.00006 5.49988C7.00006 4.67145 6.32849 3.99988 5.50006 3.99988C4.67163 3.99988 4.00006 4.67145 4.00006 5.49988C4.00006 6.32831 4.67163 6.99988 5.50006 6.99988Z" fill="#374957"/>
<path d="M1.5 3C2.32843 3 3 2.32843 3 1.5C3 0.671573 2.32843 0 1.5 0C0.671573 0 0 0.671573 0 1.5C0 2.32843 0.671573 3 1.5 3Z" fill="#374957"/>
<path d="M22.5 15C23.3284 15 24 14.3284 24 13.5C24 12.6716 23.3284 12 22.5 12C21.6716 12 21 12.6716 21 13.5C21 14.3284 21.6716 15 22.5 15Z" fill="#374957"/>
<path d="M18.4999 11.0001C19.3283 11.0001 19.9999 10.3285 19.9999 9.50012C19.9999 8.67169 19.3283 8.00012 18.4999 8.00012C17.6715 8.00012 16.9999 8.67169 16.9999 9.50012C16.9999 10.3285 17.6715 11.0001 18.4999 11.0001Z" fill="#374957"/>
<path d="M22.5 6.99988C23.3284 6.99988 24 6.32831 24 5.49988C24 4.67145 23.3284 3.99988 22.5 3.99988C21.6716 3.99988 21 4.67145 21 5.49988C21 6.32831 21.6716 6.99988 22.5 6.99988Z" fill="#374957"/>
<path d="M18.4999 3C19.3283 3 19.9999 2.32843 19.9999 1.5C19.9999 0.671573 19.3283 0 18.4999 0C17.6715 0 16.9999 0.671573 16.9999 1.5C16.9999 2.32843 17.6715 3 18.4999 3Z" fill="#374957"/>
<path d="M14.5001 24C15.3285 24 16.0001 23.3284 16.0001 22.5C16.0001 21.6716 15.3285 21 14.5001 21C13.6717 21 13.0001 21.6716 13.0001 22.5C13.0001 23.3284 13.6717 24 14.5001 24Z" fill="#374957"/>
<path d="M10.5 20.0001C11.3284 20.0001 12 19.3285 12 18.5001C12 17.6717 11.3284 17.0001 10.5 17.0001C9.67157 17.0001 9 17.6717 9 18.5001C9 19.3285 9.67157 20.0001 10.5 20.0001Z" fill="#374957"/>
<path d="M14.5001 15.9999C15.3285 15.9999 16.0001 15.3283 16.0001 14.4999C16.0001 13.6715 15.3285 12.9999 14.5001 12.9999C13.6717 12.9999 13.0001 13.6715 13.0001 14.4999C13.0001 15.3283 13.6717 15.9999 14.5001 15.9999Z" fill="#374957"/>
<path d="M10.5 12C11.3284 12 12 11.3284 12 10.5C12 9.67157 11.3284 9 10.5 9C9.67157 9 9 9.67157 9 10.5C9 11.3284 9.67157 12 10.5 12Z" fill="#374957"/>
</g>
<defs>
<clipPath id="clip0_406_257">
<rect width="24" height="24" fill="white"/>
</clipPath>
</defs>
</svg>
