<svg width="24" height="24" viewBox="0 0 24 24" fill="none" xmlns="http://www.w3.org/2000/svg">
<g clip-path="url(#clip0_406_243)">
<path d="M10 24H0V21H10V24ZM8 16H0V19H8V16ZM6 11H0V14H6V11ZM11 6V12.621L14.439 16.061L16.561 13.939L14 11.379V6H11ZM12 0C9.34316 0.00522311 6.76309 0.891576 4.66396 2.52021C2.56483 4.14885 1.0652 6.42778 0.4 9H3.53C4.08093 7.44563 5.04857 6.07263 6.32715 5.03108C7.60574 3.98953 9.14605 3.31952 10.7797 3.09429C12.4134 2.86906 14.0775 3.09728 15.5902 3.754C17.103 4.41072 18.406 5.47067 19.357 6.81798C20.308 8.16529 20.8703 9.7481 20.9824 11.3934C21.0945 13.0387 20.7522 14.6832 19.9928 16.147C19.2334 17.6109 18.0862 18.8379 16.6765 19.6937C15.2669 20.5496 13.6491 21.0015 12 21V24C15.1826 24 18.2348 22.7357 20.4853 20.4853C22.7357 18.2348 24 15.1826 24 12C24 8.8174 22.7357 5.76515 20.4853 3.51472C18.2348 1.26428 15.1826 0 12 0V0Z" fill="#374957"/>
</g>
<defs>
<clipPath id="clip0_406_243">
<rect width="24" height="24" fill="white"/>
</clipPath>
</defs>
</svg>
