<svg width="24" height="24" viewBox="0 0 24 24" fill="none" xmlns="http://www.w3.org/2000/svg">
<g clip-path="url(#clip0_406_220)">
<path d="M0.399926 10.5127C0.139279 10.9706 0.00439603 11.4893 0.0089623 12.0162C0.0135286 12.5431 0.157382 13.0594 0.425926 13.5127C2.58693 17.1227 8.53993 20.0797 10.6999 21.0627C9.7802 21.7898 9.17225 22.8401 8.99993 23.9997H14.9999C14.829 22.841 14.2233 21.7909 13.3059 21.0627L13.4439 20.9997H15.9999C16.5304 20.9997 17.0391 21.2104 17.4141 21.5855C17.7892 21.9606 17.9999 22.4693 17.9999 22.9997H20.9999C20.9974 22.0509 20.7246 21.1224 20.2135 20.3229C19.7024 19.5235 18.9741 18.8862 18.1139 18.4857C20.2814 17.2508 22.149 15.552 23.5829 13.5107C23.7854 13.1673 23.9172 12.7868 23.9705 12.3917C24.0238 11.9966 23.9976 11.5948 23.8933 11.21C23.7891 10.8252 23.6089 10.4651 23.3634 10.151C23.1179 9.83683 22.8121 9.57494 22.4639 9.38072C22.9937 7.42375 23.1478 5.38408 22.9179 3.36972L22.7729 1.69972L21.1279 2.02972C20.0969 2.23772 16.9069 2.96972 15.3629 4.30972C14.7071 3.2256 13.9644 2.19655 13.1419 1.23272L11.9999 -0.108276L10.8579 1.23172C10.0355 2.19555 9.29271 3.2246 8.63693 4.30872C7.09393 2.96872 3.89993 2.23672 2.87193 2.02872L1.22693 1.69972L1.08193 3.36972C0.852057 5.38408 1.00611 7.42375 1.53593 9.38072C1.06155 9.64798 0.668851 10.0393 0.399926 10.5127ZM15.5309 16.5337C15.8398 15.7245 15.9987 14.8659 15.9999 13.9997H12.9999C12.9677 15.0113 12.6178 15.9871 11.9999 16.7887C11.3819 15.9872 11.032 15.0114 10.9999 13.9997H7.99993C8.0028 14.8647 8.16273 15.7219 8.47193 16.5297C6.27393 15.2507 3.94993 13.6067 2.95093 11.9997H5.55093H20.9869C20.0069 13.6237 17.7069 15.2617 15.5259 16.5337H15.5309ZM21.0109 11.9747L22.2989 12.7427L21.0109 11.9747ZM17.2999 6.59972C18.112 6.02569 19.0296 5.61787 19.9999 5.39972C20.0698 6.417 19.9418 7.43819 19.6229 8.40672C19.5105 8.56182 19.3682 8.69288 19.2044 8.79219C19.0406 8.8915 18.8586 8.95706 18.6691 8.98501C18.4796 9.01296 18.2864 9.00274 18.1009 8.95495C17.9154 8.90716 17.7413 8.82276 17.5889 8.70672C17.2757 8.46246 17.0701 8.10553 17.0161 7.71197C16.9622 7.3184 17.064 6.91932 17.2999 6.59972ZM11.9999 4.65072C12.6852 5.48578 13.1954 6.45028 13.4999 7.48672C13.5101 7.687 13.4784 7.8872 13.4068 8.07451C13.3352 8.26183 13.2253 8.43214 13.0841 8.57455C12.9429 8.71696 12.7736 8.82833 12.5869 8.90154C12.4002 8.97475 12.2003 9.00819 11.9999 8.99972C11.7996 9.00819 11.5997 8.97475 11.413 8.90154C11.2263 8.82833 11.0569 8.71696 10.9157 8.57455C10.7745 8.43214 10.6646 8.26183 10.593 8.07451C10.5214 7.8872 10.4897 7.687 10.4999 7.48672C10.8053 6.45062 11.3154 5.48628 11.9999 4.65072ZM6.69993 6.59372C6.9357 6.91519 7.03632 7.31615 6.98026 7.71085C6.92419 8.10555 6.7159 8.46264 6.39993 8.70572C6.24755 8.82161 6.07355 8.90587 5.88815 8.95357C5.70275 9.00128 5.50969 9.01145 5.3203 8.9835C5.13091 8.95556 4.94902 8.89005 4.7853 8.79083C4.62158 8.69161 4.47934 8.56068 4.36693 8.40572C4.0514 7.43688 3.92676 6.41603 3.99993 5.39972C4.96951 5.61685 5.88692 6.02254 6.69993 6.59372Z" fill="#374957"/>
</g>
<defs>
<clipPath id="clip0_406_220">
<rect width="24" height="24" fill="white"/>
</clipPath>
</defs>
</svg>
