<svg width="24" height="24" viewBox="0 0 24 24" fill="none" xmlns="http://www.w3.org/2000/svg">
<g clip-path="url(#clip0_406_49)">
<path d="M3 3H8V0H3C2.20435 0 1.44129 0.31607 0.87868 0.87868C0.31607 1.44129 0 2.20435 0 3L0 21C0 21.7956 0.31607 22.5587 0.87868 23.1213C1.44129 23.6839 2.20435 24 3 24H8V21H3V3Z" fill="#374957"/>
<path d="M22.9481 9.52509L18.3621 4.93909L16.2411 7.06109L19.6541 10.4731L5.00012 10.5001V13.5001L19.7001 13.4731L16.2341 16.9391L18.3551 19.0611L22.9421 14.4751C23.5979 13.8187 23.9668 12.9292 23.9679 12.0013C23.969 11.0735 23.6023 10.183 22.9481 9.52509Z" fill="#374957"/>
</g>
<defs>
<clipPath id="clip0_406_49">
<rect width="24" height="24" fill="white"/>
</clipPath>
</defs>
</svg>
