<svg width="24" height="24" viewBox="0 0 24 24" fill="none" xmlns="http://www.w3.org/2000/svg">
<g clip-path="url(#clip0_406_313)">
<path d="M17 13C17 15 15 18 12.007 18C9.01401 18 7.00001 15 7.00001 13H17ZM24 12C24 9.62663 23.2962 7.30655 21.9776 5.33316C20.6591 3.35977 18.7849 1.8217 16.5922 0.913451C14.3995 0.00519943 11.9867 -0.232441 9.65892 0.230582C7.33115 0.693605 5.19295 1.83649 3.51472 3.51472C1.83649 5.19295 0.693605 7.33115 0.230582 9.65892C-0.232441 11.9867 0.00519943 14.3995 0.913451 16.5922C1.8217 18.7849 3.35977 20.6591 5.33316 21.9776C7.30655 23.2962 9.62663 24 12 24C15.1815 23.9966 18.2318 22.7312 20.4815 20.4815C22.7312 18.2318 23.9966 15.1815 24 12ZM21 12C21 13.78 20.4722 15.5201 19.4832 17.0001C18.4943 18.4802 17.0887 19.6337 15.4442 20.3149C13.7996 20.9961 11.99 21.1743 10.2442 20.8271C8.49836 20.4798 6.89472 19.6226 5.63604 18.364C4.37737 17.1053 3.5202 15.5016 3.17294 13.7558C2.82567 12.01 3.0039 10.2004 3.68509 8.55585C4.36628 6.91132 5.51983 5.50571 6.99987 4.51678C8.47992 3.52785 10.22 3.00001 12 3.00001C14.3861 3.00292 16.6736 3.95206 18.3608 5.63926C20.0479 7.32646 20.9971 9.61395 21 12ZM6.00001 9.66701V11H11V9.66701C11.0216 8.98197 10.7704 8.31638 10.3017 7.81635C9.83299 7.31631 9.185 7.02271 8.50001 7.00001C7.81501 7.02271 7.16702 7.31631 6.6983 7.81635C6.22958 8.31638 5.97843 8.98197 6.00001 9.66701ZM13 9.66701V11H18V9.66701C18.0216 8.98197 17.7704 8.31638 17.3017 7.81635C16.833 7.31631 16.185 7.02271 15.5 7.00001C14.815 7.02271 14.167 7.31631 13.6983 7.81635C13.2296 8.31638 12.9784 8.98197 13 9.66701Z" fill="#374957"/>
</g>
<defs>
<clipPath id="clip0_406_313">
<rect width="24" height="24" fill="white"/>
</clipPath>
</defs>
</svg>
