<svg width="24" height="24" viewBox="0 0 24 24" fill="none" xmlns="http://www.w3.org/2000/svg">
<g clip-path="url(#clip0_406_104)">
<path d="M24 19.0002H15.15C14.8049 18.2777 14.2225 17.6953 13.5 17.3502V14.0002H15.75C17.0648 13.9987 18.3312 13.5039 19.2988 12.6138C20.2665 11.7237 20.865 10.5029 20.9761 9.19284C21.0872 7.88274 20.7027 6.57864 19.8988 5.5383C19.0948 4.49796 17.9298 3.79708 16.634 3.5742C16.1919 2.38695 15.3528 1.38916 14.2589 0.75008C13.1651 0.110999 11.8838 -0.130023 10.6325 0.0678952C9.38115 0.265813 8.23682 0.890486 7.39357 1.83596C6.55032 2.78143 6.06008 3.98948 6.006 5.2552C5.00399 5.60769 4.15897 6.30327 3.62047 7.21884C3.08197 8.13442 2.8847 9.21098 3.06358 10.258C3.24245 11.305 3.78594 12.255 4.59786 12.9399C5.40978 13.6248 6.4378 14.0004 7.5 14.0002H10.5V17.3502C9.77745 17.6953 9.19507 18.2777 8.85 19.0002H0V22.0002H8.85C9.13118 22.5981 9.5767 23.1035 10.1345 23.4576C10.6923 23.8117 11.3393 23.9997 12 23.9997C12.6607 23.9997 13.3077 23.8117 13.8655 23.4576C14.4233 23.1035 14.8688 22.5981 15.15 22.0002H24V19.0002ZM6 9.5002C5.99967 9.11289 6.14917 8.74046 6.4172 8.46088C6.68523 8.18129 7.05102 8.01621 7.438 8.0002L9.619 8.1122C9.3558 7.256 9.14902 6.38346 9 5.5002C8.99708 4.86325 9.23837 4.24939 9.67424 3.78491C10.1101 3.32044 10.7074 3.04065 11.3433 3.00312C11.9791 2.96559 12.6052 3.17316 13.0927 3.58314C13.5801 3.99312 13.892 4.57433 13.964 5.2072L14.133 6.6382C14.6809 6.55494 15.2339 6.50883 15.788 6.5002C16.3847 6.50524 16.955 6.74713 17.3734 7.17265C17.7918 7.59817 18.024 8.17247 18.019 8.7692C18.014 9.36594 17.7721 9.93623 17.3466 10.3546C16.921 10.773 16.3467 11.0052 15.75 11.0002H7.5C7.10218 11.0002 6.72064 10.8422 6.43934 10.5609C6.15804 10.2796 6 9.89803 6 9.5002Z" fill="#374957"/>
</g>
<defs>
<clipPath id="clip0_406_104">
<rect width="24" height="24" fill="white"/>
</clipPath>
</defs>
</svg>
