<svg width="24" height="24" viewBox="0 0 24 24" fill="none" xmlns="http://www.w3.org/2000/svg">
<path d="M12 19.4999C10.5167 19.4999 9.06663 19.06 7.83327 18.2359C6.5999 17.4118 5.6386 16.2405 5.07095 14.87C4.50329 13.4996 4.35476 11.9916 4.64415 10.5367C4.93354 9.08185 5.64785 7.74547 6.69674 6.69658C7.74563 5.64769 9.08201 4.93338 10.5369 4.64399C11.9917 4.3546 13.4997 4.50313 14.8702 5.07078C16.2406 5.63844 17.412 6.59974 18.2361 7.8331C19.0602 9.06647 19.5 10.5165 19.5 11.9999C19.4979 13.9884 18.7071 15.8948 17.301 17.3008C15.8949 18.7069 13.9885 19.4978 12 19.4999ZM12 7.49988C11.11 7.49988 10.24 7.7638 9.49998 8.25827C8.75995 8.75273 8.18318 9.45554 7.84258 10.2778C7.50199 11.1001 7.41287 12.0049 7.58651 12.8778C7.76014 13.7507 8.18872 14.5525 8.81806 15.1819C9.4474 15.8112 10.2492 16.2398 11.1221 16.4134C11.995 16.587 12.8998 16.4979 13.7221 16.1573C14.5444 15.8167 15.2472 15.24 15.7417 14.4999C16.2361 13.7599 16.5 12.8899 16.5 11.9999C16.4987 10.8068 16.0242 9.66299 15.1806 8.81936C14.3369 7.97574 13.1931 7.5012 12 7.49988Z" fill="#374957"/>
</svg>
