<svg width="24" height="24" viewBox="0 0 24 24" fill="none" xmlns="http://www.w3.org/2000/svg">
<g clip-path="url(#clip0_406_209)">
<path d="M21 16H16V21H3V3.409C3.00026 3.30061 3.04344 3.19673 3.12009 3.12009C3.19673 3.04344 3.30061 3.00026 3.409 3H15.172L18.172 0H3.409C2.5052 0.00105862 1.63872 0.36056 0.999642 0.999642C0.36056 1.63872 0.00105862 2.5052 0 3.409L0 24H18.349L24 18.348V5.829L21 8.829V16Z" fill="#374957"/>
<path d="M4.99991 19.0002H7.9999L23.3999 3.6002C23.7977 3.20238 24.0212 2.66281 24.0212 2.1002C24.0212 1.53759 23.7977 0.998027 23.3999 0.600202C23.0021 0.202377 22.4625 -0.0211182 21.8999 -0.0211182C21.3373 -0.0211182 20.7977 0.202377 20.3999 0.600202L4.99991 16.0002V19.0002Z" fill="#374957"/>
</g>
<defs>
<clipPath id="clip0_406_209">
<rect width="24" height="24" fill="white"/>
</clipPath>
</defs>
</svg>
