<svg width="24" height="24" viewBox="0 0 24 24" fill="none" xmlns="http://www.w3.org/2000/svg">
<g clip-path="url(#clip0_406_485)">
<path d="M19.954 9.082C19.5 1.45 15.529 0 14.984 0C13.9113 0.0252669 12.8713 0.373808 12 1C11.1471 0.375538 10.1237 0.0266246 9.067 0C8.471 0 4.5 1.45 4.046 9.082C1.57 9.7 0 10.605 0 11.613C0 13.484 5.373 15 12 15C18.627 15 24 13.484 24 11.613C24 10.605 22.43 9.7 19.954 9.082ZM12 10C10.3284 10.0326 8.6587 9.86947 7.025 9.514C7.249 4.786 8.918 3.371 9.445 3.037C9.70652 3.09449 9.95193 3.2096 10.1633 3.37394C10.3747 3.53829 10.5468 3.74773 10.667 3.987L12 6.571L13.333 3.987C13.4522 3.74989 13.6221 3.54194 13.8307 3.37793C14.0393 3.21391 14.2815 3.09785 14.54 3.038C15.115 3.401 16.753 4.838 16.975 9.513C15.3414 9.8689 13.6717 10.0323 12 10ZM21 20C21.0035 20.956 20.6637 21.8814 20.0422 22.6079C19.4208 23.3343 18.5591 23.8134 17.6141 23.9579C16.6691 24.1025 15.7037 23.9028 14.8935 23.3953C14.0833 22.8879 13.4824 22.1063 13.2 21.193C12.8079 21.0865 12.4057 21.0218 12 21C11.5943 21.0218 11.1921 21.0865 10.8 21.193C10.5237 22.0778 9.94864 22.8391 9.17319 23.3469C8.39773 23.8547 7.46999 24.0774 6.54852 23.977C5.62705 23.8766 4.76906 23.4593 4.12119 22.7963C3.47332 22.1334 3.07578 21.2661 2.99653 20.3426C2.91727 19.419 3.16121 18.4967 3.68666 17.733C4.21212 16.9694 4.98645 16.412 5.87734 16.1561C6.76822 15.9001 7.72035 15.9615 8.57098 16.3298C9.42162 16.698 10.118 17.3502 10.541 18.175C11.0205 18.0692 11.5091 18.0106 12 18C12.4915 18.0105 12.9809 18.0691 13.461 18.175C13.8683 17.3761 14.5329 16.7379 15.3477 16.3633C16.1624 15.9888 17.0796 15.8998 17.9511 16.1108C18.8226 16.3218 19.5975 16.8204 20.1508 17.5261C20.704 18.2317 21.0032 19.1033 21 20Z" fill="#374957"/>
</g>
<defs>
<clipPath id="clip0_406_485">
<rect width="24" height="24" fill="white"/>
</clipPath>
</defs>
</svg>
