<svg width="24" height="24" viewBox="0 0 24 24" fill="none" xmlns="http://www.w3.org/2000/svg">
<g clip-path="url(#clip0_406_477)">
<path d="M15.9999 24H7.99986V19.337L4.36086 21.682L0.0268555 14.958L4.61686 12L0.0268555 9.042L4.36086 2.318L7.99986 4.663V0H15.9999V4.663L19.6389 2.318L23.9729 9.042L19.3829 12L23.9729 14.958L19.6389 21.682L15.9999 19.337V24ZM10.9999 21H12.9999V13.834L18.7419 17.534L19.8259 15.852L13.8459 12L19.8259 8.146L18.7419 6.464L12.9999 10.166V3H10.9999V10.166L5.25786 6.466L4.17386 8.146L10.1539 12L4.17386 15.854L5.25786 17.536L10.9999 13.834V21Z" fill="#374957"/>
</g>
<defs>
<clipPath id="clip0_406_477">
<rect width="24" height="24" fill="white"/>
</clipPath>
</defs>
</svg>
