<svg width="24" height="24" viewBox="0 0 24 24" fill="none" xmlns="http://www.w3.org/2000/svg">
<g clip-path="url(#clip0_406_85)">
<path d="M15.9999 2.76447V6.08246C17.525 6.963 18.717 8.32217 19.3909 9.94919C20.0649 11.5762 20.1831 13.3801 19.7273 15.0812C19.2715 16.7823 18.2671 18.2854 16.87 19.3575C15.4728 20.4295 13.761 21.0106 11.9999 21.0106C10.2388 21.0106 8.52696 20.4295 7.12981 19.3575C5.73265 18.2854 4.72829 16.7823 4.27249 15.0812C3.81669 13.3801 3.93493 11.5762 4.60886 9.94919C5.28279 8.32217 6.47476 6.963 7.9999 6.08246V2.76447C5.61115 3.69694 3.62323 5.43466 2.37975 7.67729C1.13627 9.91991 0.715373 12.5265 1.1898 15.0465C1.66423 17.5666 3.00417 19.8417 4.97802 21.4786C6.95187 23.1155 9.4356 24.0114 11.9999 24.0114C14.5642 24.0114 17.0479 23.1155 19.0218 21.4786C20.9956 19.8417 22.3356 17.5666 22.81 15.0465C23.2844 12.5265 22.8635 9.91991 21.62 7.67729C20.3766 5.43466 18.3886 3.69694 15.9999 2.76447Z" fill="#374957"/>
<path d="M13.5 0H10.5V8H13.5V0Z" fill="#374957"/>
</g>
<defs>
<clipPath id="clip0_406_85">
<rect width="24" height="24" fill="white"/>
</clipPath>
</defs>
</svg>
