<svg width="24" height="24" viewBox="0 0 24 24" fill="none" xmlns="http://www.w3.org/2000/svg">
<g clip-path="url(#clip0_406_94)">
<path d="M22.4 1.59241C20.588 -0.214594 17.4 -1.16659 11.983 2.60041C6.57096 -1.16559 3.37796 -0.214594 1.56996 1.59241C-0.238037 3.39941 -1.19004 6.59041 2.57796 12.0004C-1.19004 17.4104 -0.237037 20.6004 1.56996 22.4084C2.06847 22.9222 2.6664 23.329 3.32728 23.604C3.98817 23.8791 4.69816 24.0167 5.41396 24.0084C7.11396 24.0084 9.27096 23.3084 11.983 21.4144C14.696 23.3034 16.851 24.0094 18.552 24.0094C19.2678 24.018 19.9779 23.8806 20.6388 23.6055C21.2997 23.3304 21.8976 22.9234 22.396 22.4094C24.2 20.6004 25.157 17.4104 21.388 12.0004C25.157 6.59041 24.2 3.40041 22.4 1.59241ZM18.472 3.00841C18.8043 2.99772 19.1353 3.0549 19.4448 3.17646C19.7543 3.29802 20.0357 3.48141 20.272 3.71541C21.627 5.06941 20.857 7.31541 19.449 9.51541C18.743 8.69441 17.962 7.84041 17.049 6.93141C16.136 6.02241 15.285 5.24241 14.464 4.53641C15.6395 3.67824 17.0235 3.15063 18.472 3.00841ZM17.617 12.0004C16.649 13.1714 15.659 14.2144 14.929 14.9444C14.199 15.6744 13.154 16.6644 11.983 17.6314C10.812 16.6644 9.76796 15.6754 9.03796 14.9444C8.30796 14.2134 7.31696 13.1714 6.34996 12.0004C7.31696 10.8294 8.30696 9.78641 9.03796 9.05641C9.76896 8.32641 10.811 7.33541 11.983 6.36841C13.155 7.33541 14.198 8.32541 14.929 9.05641C15.66 9.78741 16.649 10.8294 17.617 12.0004ZM3.69396 3.71541C3.93015 3.48136 4.2116 3.29794 4.52109 3.17638C4.83059 3.05482 5.16162 2.99766 5.49396 3.00841C6.94203 3.15123 8.32536 3.67956 9.49996 4.53841C8.67796 5.24441 7.82396 6.02441 6.91496 6.93341C6.00596 7.84241 5.22296 8.70041 4.51696 9.51741C3.10996 7.31341 2.33896 5.06941 3.69396 3.71541ZM3.69396 20.2854C2.33896 18.9314 3.10996 16.6854 4.51696 14.4854C5.22296 15.3064 6.00396 16.1604 6.91696 17.0694C7.82996 17.9784 8.67896 18.7694 9.49596 19.4694C7.28996 20.8714 5.04796 21.6384 3.69396 20.2854ZM20.272 20.2854C18.917 21.6394 16.672 20.8714 14.472 19.4674C15.29 18.7674 16.148 17.9724 17.053 17.0674C17.958 16.1624 18.743 15.3044 19.453 14.4834C20.857 16.6874 21.627 18.9314 20.272 20.2854Z" fill="#374957"/>
<path d="M11.9998 14.0003C13.1044 14.0003 13.9998 13.1049 13.9998 12.0003C13.9998 10.8957 13.1044 10.0003 11.9998 10.0003C10.8953 10.0003 9.99985 10.8957 9.99985 12.0003C9.99985 13.1049 10.8953 14.0003 11.9998 14.0003Z" fill="#374957"/>
</g>
<defs>
<clipPath id="clip0_406_94">
<rect width="24" height="24" fill="white"/>
</clipPath>
</defs>
</svg>
