<svg width="24" height="24" viewBox="0 0 24 24" fill="none" xmlns="http://www.w3.org/2000/svg">
<g clip-path="url(#clip0_406_155)">
<path d="M17.3109 4.09442C16.9925 2.92996 16.3002 1.90242 15.3405 1.16998C14.3809 0.43753 13.2071 0.0407715 11.9999 0.0407715C10.7927 0.0407715 9.61893 0.43753 8.65929 1.16998C7.69966 1.90242 7.00734 2.92996 6.68891 4.09442C5.79387 4.23537 4.94704 4.59358 4.22254 5.13768C3.49803 5.68178 2.91796 6.39519 2.53309 7.21545C2.14822 8.03571 1.9703 8.93781 2.0149 9.84278C2.0595 10.7477 2.32525 11.628 2.78891 12.4064L11.9999 24.1104L21.2069 12.4104C21.6714 11.6321 21.938 10.7518 21.9832 9.84661C22.0285 8.94139 21.8511 8.03887 21.4666 7.21813C21.0821 6.39738 20.5022 5.68344 19.7777 5.13886C19.0532 4.59427 18.2062 4.23566 17.3109 4.09442ZM18.9999 9.50042C18.9939 9.66875 18.9721 9.83615 18.9349 10.0004H13.5229C13.1769 6.42842 18.7619 5.83442 18.9999 9.50042ZM11.9999 3.00042C12.4613 3.00195 12.9132 3.13148 13.3053 3.37459C13.6974 3.61771 14.0144 3.96486 14.2209 4.37742C13.3728 4.69746 12.6119 5.2127 11.9999 5.88142C11.3875 5.21415 10.6266 4.70031 9.77891 4.38142C9.98489 3.96812 10.3016 3.62014 10.6938 3.3763C11.0859 3.13245 11.5381 3.00233 11.9999 3.00042ZM7.74991 7.00042C8.13178 6.9999 8.50954 7.07932 8.85887 7.23358C9.20821 7.38783 9.52138 7.61351 9.77824 7.89609C10.0351 8.17867 10.23 8.51189 10.3503 8.87431C10.4706 9.23673 10.5138 9.62033 10.4769 10.0004H5.06491C4.99827 9.61872 5.01901 9.22688 5.12557 8.85434C5.23214 8.4818 5.42175 8.13826 5.68016 7.84954C5.93857 7.56081 6.25906 7.33441 6.61754 7.18734C6.97602 7.04027 7.36318 6.97637 7.74991 7.00042ZM7.06191 13.0004H16.9379L11.9999 19.2654L7.06191 13.0004Z" fill="#374957"/>
</g>
<defs>
<clipPath id="clip0_406_155">
<rect width="24" height="24" fill="white"/>
</clipPath>
</defs>
</svg>
