<svg width="24" height="24" viewBox="0 0 24 24" fill="none" xmlns="http://www.w3.org/2000/svg">
<g clip-path="url(#clip0_406_111)">
<path d="M11.9999 19C13.8558 18.9979 15.6351 18.2597 16.9473 16.9474C18.2596 15.6351 18.9978 13.8559 18.9999 12V7C18.9999 5.14348 18.2624 3.36301 16.9497 2.05025C15.6369 0.737498 13.8565 0 11.9999 0C10.1434 0 8.36295 0.737498 7.05019 2.05025C5.73744 3.36301 4.99994 5.14348 4.99994 7V12C5.00206 13.8559 5.74023 15.6351 7.05253 16.9474C8.36483 18.2597 10.1441 18.9979 11.9999 19ZM11.9999 3C13.0608 3 14.0782 3.42143 14.8284 4.17157C15.5785 4.92172 15.9999 5.93913 15.9999 7V8H12.9999V11H15.9999V12C15.9999 13.0609 15.5785 14.0783 14.8284 14.8284C14.0782 15.5786 13.0608 16 11.9999 16C10.9391 16 9.92166 15.5786 9.17151 14.8284C8.42137 14.0783 7.99994 13.0609 7.99994 12V11H10.9999V8H7.99994V7C7.99994 5.93913 8.42137 4.92172 9.17151 4.17157C9.92166 3.42143 10.9391 3 11.9999 3Z" fill="#374957"/>
<path d="M21 13.0003V13.3893C20.9976 15.4071 20.195 17.3416 18.7682 18.7685C17.3413 20.1953 15.4068 20.9979 13.389 21.0003H10.611C8.59325 20.9976 6.6589 20.1949 5.23213 18.7682C3.80537 17.3414 3.00265 15.4071 3 13.3893V13.0003H0V13.3893C0.00317611 16.2025 1.12214 18.8996 3.1114 20.8889C5.10066 22.8782 7.79776 23.9971 10.611 24.0003H13.389C16.2022 23.9971 18.8993 22.8782 20.8886 20.8889C22.8779 18.8996 23.9968 16.2025 24 13.3893V13.0003H21Z" fill="#374957"/>
</g>
<defs>
<clipPath id="clip0_406_111">
<rect width="24" height="24" fill="white"/>
</clipPath>
</defs>
</svg>
