<svg width="24" height="24" viewBox="0 0 24 24" fill="none" xmlns="http://www.w3.org/2000/svg">
<g clip-path="url(#clip0_406_173)">
<path d="M20.3 3H3.7L3.3 3.4C1.2 5.8 0 8.8 0 12C0 16.9 2 22 5.3 22C7.5 22 8.9 19.6 9.5 18H14.4C15.1 19.6 16.4 22 18.6 22C22 22 24 16.9 24 12C24 8.8 22.8 5.8 20.7 3.4L20.3 3ZM18.7 19C18.3 18.9 17.4 17.5 16.9 16L16.6 15H7.4L7.1 16C6.7 17.4 5.8 18.8 5.4 19C4.7 18.9 3 16.4 3 12C3 9.8 3.7 7.7 5.1 6H19C20.3 7.7 21 9.8 21 12C21 16.4 19.3 18.9 18.7 19Z" fill="#374957"/>
<path d="M10.0001 7.00024H7.00012V9.00024H5.00012V12.0002H7.00012V14.0002H10.0001V12.0002H12.0001V9.00024H10.0001V7.00024Z" fill="#374957"/>
<path d="M17 11.9996C18.1046 11.9996 19 11.1042 19 9.99963C19 8.89506 18.1046 7.99963 17 7.99963C15.8954 7.99963 15 8.89506 15 9.99963C15 11.1042 15.8954 11.9996 17 11.9996Z" fill="#374957"/>
</g>
<defs>
<clipPath id="clip0_406_173">
<rect width="24" height="24" fill="white"/>
</clipPath>
</defs>
</svg>
