<svg width="24" height="24" viewBox="0 0 24 24" fill="none" xmlns="http://www.w3.org/2000/svg">
<g clip-path="url(#clip0_406_372)">
<path d="M9.66678 17.7869C9.97904 17.7871 10.2882 17.7253 10.5764 17.6051C10.8646 17.485 11.1261 17.3088 11.3458 17.0869L20.0608 8.37186L17.9388 6.25586L9.66678 14.5279L6.06078 10.9229L3.93878 13.0439L7.98678 17.0919C8.20702 17.3129 8.46888 17.4882 8.75723 17.6075C9.04559 17.7268 9.35473 17.7877 9.66678 17.7869Z" fill="#374957"/>
<path d="M21 0H3C2.20435 0 1.44129 0.31607 0.87868 0.87868C0.31607 1.44129 0 2.20435 0 3L0 24H24V3C24 2.20435 23.6839 1.44129 23.1213 0.87868C22.5587 0.31607 21.7956 0 21 0V0ZM21 21H3V3H21V21Z" fill="#374957"/>
</g>
<defs>
<clipPath id="clip0_406_372">
<rect width="24" height="24" fill="white"/>
</clipPath>
</defs>
</svg>
