<svg width="24" height="24" viewBox="0 0 24 24" fill="none" xmlns="http://www.w3.org/2000/svg">
<g clip-path="url(#clip0_406_264)">
<path d="M20.143 3.857C20.1375 2.83576 19.7294 1.85792 19.0072 1.13578C18.2851 0.413648 17.3072 0.00551536 16.286 0C15.515 0 15 0.384 15 1.155V7.02L14.03 7.03C12.938 7.061 11.943 7.14 11 7.248V4.848C8.59259 4.85653 6.22195 5.43933 4.085 6.548C3.75931 6.71632 3.48597 6.97067 3.29468 7.28343C3.1034 7.59619 3.00148 7.95539 3 8.322V10.622C0.833 13.033 0 16.821 0 22.5V24H1.5C9.845 24 14.1 22.188 15.9 17H17.014C17.4839 17.0001 17.9385 16.8329 18.2963 16.5284C18.6542 16.2238 18.8919 15.8019 18.967 15.338L19.343 13H16.752C16.86 12.057 16.939 11.062 16.97 9.97L16.98 9H22.845C23.616 9 24 8.485 24 7.714C23.9945 6.69276 23.5864 5.71492 22.8642 4.99278C22.1421 4.27065 21.1642 3.86252 20.143 3.857ZM4.5 21C4.10218 21 3.72064 20.842 3.43934 20.5607C3.15804 20.2794 3 19.8978 3 19.5C3 19.1022 3.15804 18.7206 3.43934 18.4393C3.72064 18.158 4.10218 18 4.5 18C4.89782 18 5.27936 18.158 5.56066 18.4393C5.84196 18.7206 6 19.1022 6 19.5C6 19.8978 5.84196 20.2794 5.56066 20.5607C5.27936 20.842 4.89782 21 4.5 21ZM9.675 19.826C9.21172 18.5665 8.47748 17.4242 7.52416 16.4797C6.57084 15.5352 5.42172 14.8116 4.158 14.36C5.558 11.251 8.45 10.171 13.98 10.02C13.829 15.529 12.757 18.419 9.675 19.826Z" fill="#374957"/>
</g>
<defs>
<clipPath id="clip0_406_264">
<rect width="24" height="24" fill="white"/>
</clipPath>
</defs>
</svg>
