<svg width="24" height="24" viewBox="0 0 24 24" fill="none" xmlns="http://www.w3.org/2000/svg">
<g clip-path="url(#clip0_406_410)">
<path d="M21 13C20.225 12.9992 19.4801 13.2993 18.922 13.837L17.366 13.206C17.4554 12.8102 17.5003 12.4057 17.5 12C17.4999 11.1896 17.3207 10.3893 16.9753 9.65625C16.6298 8.92321 16.1267 8.27556 15.5018 7.75961C14.8769 7.24366 14.1458 6.87217 13.3606 6.67169C12.5755 6.47122 11.7557 6.44672 10.96 6.59995L9.92797 4.76095C10.3153 4.22687 10.5157 3.58 10.4983 2.9205C10.4809 2.26099 10.2465 1.62562 9.83155 1.11274C9.41657 0.599859 8.8441 0.238073 8.20275 0.0833861C7.56141 -0.0713011 6.88695 -0.010263 6.2838 0.257052C5.68064 0.524367 5.18242 0.98305 4.86626 1.5621C4.55011 2.14115 4.43364 2.80827 4.53489 3.46019C4.63615 4.11211 4.94947 4.71247 5.42637 5.16835C5.90327 5.62422 6.51715 5.91018 7.17297 5.98195L8.27997 7.95295C7.39153 8.76742 6.7958 9.85163 6.58472 11.0383C6.37363 12.2249 6.55891 13.4481 7.11197 14.519L4.03597 17.184C3.43681 16.9635 2.78293 16.9399 2.16945 17.1166C1.55596 17.2934 1.01486 17.6612 0.624836 18.1667C0.234816 18.6722 0.01622 19.2889 0.000840476 19.9271C-0.0145391 20.5654 0.1741 21.1919 0.539322 21.7156C0.904544 22.2392 1.4273 22.6327 2.03156 22.8388C2.63582 23.0449 3.29008 23.0528 3.89916 22.8615C4.50825 22.6701 5.0404 22.2894 5.41823 21.7748C5.79606 21.2601 5.99985 20.6384 5.99997 20C5.99957 19.829 5.98485 19.6584 5.95597 19.49L9.16297 16.7099C10.2206 17.3484 11.4627 17.6115 12.6884 17.4565C13.914 17.3015 15.0515 16.7376 15.917 15.856L18.092 16.7369C18.23 17.2814 18.518 17.7762 18.9234 18.165C19.3287 18.5538 19.8351 18.821 20.3848 18.9362C20.9345 19.0514 21.5056 19.0099 22.0329 18.8165C22.5602 18.6232 23.0227 18.2856 23.3676 17.8423C23.7126 17.3991 23.9262 16.8679 23.9841 16.3092C24.0419 15.7505 23.9418 15.1868 23.6951 14.6822C23.4484 14.1776 23.065 13.7524 22.5885 13.455C22.112 13.1576 21.5616 12.9999 21 13ZM12 14.5C11.5055 14.5 11.0222 14.3533 10.611 14.0786C10.1999 13.8039 9.87949 13.4135 9.69027 12.9567C9.50105 12.4998 9.45154 11.9972 9.54801 11.5122C9.64447 11.0273 9.88257 10.5818 10.2322 10.2322C10.5818 9.88255 11.0273 9.64445 11.5122 9.54799C11.9972 9.45152 12.4999 9.50103 12.9567 9.69025C13.4135 9.87947 13.8039 10.1999 14.0786 10.611C14.3533 11.0221 14.5 11.5055 14.5 12C14.5 12.663 14.2366 13.2989 13.7677 13.7677C13.2989 14.2366 12.663 14.5 12 14.5Z" fill="#374957"/>
</g>
<defs>
<clipPath id="clip0_406_410">
<rect width="24" height="24" fill="white"/>
</clipPath>
</defs>
</svg>
