<svg width="24" height="24" viewBox="0 0 24 24" fill="none" xmlns="http://www.w3.org/2000/svg">
<path d="M11.9846 23.9946L19.0471 17.0869C22.9648 13.2035 22.9925 6.87949 19.1091 2.96186C15.2257 -0.955762 8.9017 -0.983559 4.98408 2.89985C4.96331 2.92043 4.94264 2.9411 4.92206 2.96186C1.02155 6.86247 1.02159 13.1865 4.92216 17.087C4.92609 17.091 4.93008 17.095 4.93401 17.0989L11.9846 23.9946ZM7.04151 5.08028C9.79589 2.3741 14.2226 2.41319 16.9288 5.16757C19.597 7.88332 19.6018 12.2348 16.9396 14.9564L11.9846 19.8036L7.04048 14.9684C4.30997 12.2382 4.30973 7.81132 7.03997 5.0808C7.04015 5.08061 7.0403 5.08047 7.04048 5.08028H7.04151ZM10.4864 11.5226H7.98937V8.52616H10.4864V6.02918H13.4827V8.52616H15.9797V11.5226H13.4827V14.0195H10.4864V11.5226Z" fill="#374957"/>
</svg>
