<svg width="24" height="24" viewBox="0 0 24 24" fill="none" xmlns="http://www.w3.org/2000/svg">
<g clip-path="url(#clip0_406_353)">
<path d="M22.775 1.74704C22.3916 1.42681 21.9425 1.1948 21.4595 1.06744C20.9765 0.940077 20.4714 0.920482 19.98 1.01004L14.08 2.08304C13.3082 2.22241 12.5884 2.56794 11.997 3.08304C11.4057 2.56773 10.6859 2.22217 9.914 2.08304L4.02 1.01004C3.52867 0.920709 3.02371 0.940382 2.54082 1.06767C2.05793 1.19496 1.60889 1.42676 1.22543 1.74669C0.841982 2.06661 0.533478 2.46685 0.321727 2.91912C0.109976 3.37139 0.000145898 3.86465 0 4.36404L0 20.888L12 23.07L24 20.888V4.36404C24.0005 3.86463 23.8911 3.37124 23.6793 2.91893C23.4676 2.46663 23.1589 2.06652 22.775 1.74704ZM10.5 19.747L3 18.384V4.36404C3.00053 4.30441 3.01406 4.24561 3.03964 4.19175C3.06523 4.13788 3.10226 4.09024 3.14815 4.05216C3.19404 4.01408 3.24769 3.98646 3.30535 3.97124C3.36301 3.95603 3.42329 3.95357 3.482 3.96404L9.382 5.03704C9.69533 5.09429 9.97871 5.25947 10.1829 5.50389C10.3872 5.74831 10.4993 6.05653 10.5 6.37504V19.747ZM21 18.384L13.5 19.748V6.37504C13.5 6.05573 13.6122 5.74656 13.8169 5.50148C14.0216 5.2564 14.3058 5.09097 14.62 5.03404L20.52 3.96204C20.5788 3.95121 20.6392 3.9534 20.697 3.96848C20.7548 3.98356 20.8086 4.01115 20.8546 4.04931C20.9005 4.08746 20.9376 4.13524 20.963 4.18928C20.9885 4.24332 21.0018 4.3023 21.002 4.36204L21 18.384Z" fill="#374957"/>
</g>
<defs>
<clipPath id="clip0_406_353">
<rect width="24" height="24" fill="white"/>
</clipPath>
</defs>
</svg>
