<svg width="24" height="24" viewBox="0 0 24 24" fill="none" xmlns="http://www.w3.org/2000/svg">
<g clip-path="url(#clip0_406_162)">
<path d="M22.732 9.013C22.355 8.66933 21.9139 8.40335 21.434 8.23025C20.9541 8.05716 20.4448 7.98035 19.9352 8.00422C19.4256 8.02808 18.9257 8.15216 18.4641 8.36935C18.0025 8.58655 17.5883 8.8926 17.245 9.27L14.807 11.949C14.1375 11.3378 13.2635 10.9992 12.357 11H3.5C2.57174 11 1.6815 11.3687 1.02513 12.0251C0.368749 12.6815 0 13.5717 0 14.5L0 20.5C0 21.4283 0.368749 22.3185 1.02513 22.9749C1.6815 23.6313 2.57174 24 3.5 24H14.681L23.015 14.468C23.6916 13.7028 24.0409 12.7027 23.988 11.6827C23.9351 10.6627 23.4841 9.70409 22.732 9.013ZM20.767 12.482L13.319 21H3.5C3.36739 21 3.24021 20.9473 3.14645 20.8536C3.05268 20.7598 3 20.6326 3 20.5V14.5C3 14.3674 3.05268 14.2402 3.14645 14.1464C3.24021 14.0527 3.36739 14 3.5 14H12.357C12.5201 13.9988 12.6775 14.0598 12.7972 14.1705C12.917 14.2811 12.9902 14.4332 13.0019 14.5959C13.0136 14.7585 12.963 14.9196 12.8603 15.0462C12.7576 15.1729 12.6106 15.2558 12.449 15.278L7.288 16.015L7.712 18.985L12.874 18.248C13.6569 18.1322 14.3812 17.7661 14.9387 17.2044C15.4962 16.6427 15.857 15.9157 15.967 15.132L19.467 11.289C19.545 11.2031 19.6392 11.1335 19.7442 11.084C19.8492 11.0346 19.9629 11.0063 20.0788 11.0008C20.1947 10.9954 20.3105 11.0128 20.4197 11.0521C20.5289 11.0914 20.6292 11.1519 20.715 11.23C20.887 11.3897 20.9889 11.6108 20.9987 11.8453C21.0084 12.0798 20.9252 12.3086 20.767 12.482ZM7 2.475C6.97145 1.84876 7.19219 1.23671 7.61388 0.772849C8.03558 0.308985 8.62388 0.0310912 9.25 0C9.87612 0.0310912 10.4644 0.308985 10.8861 0.772849C11.3078 1.23671 11.5285 1.84876 11.5 2.475C11.4715 1.84876 11.6922 1.23671 12.1139 0.772849C12.5356 0.308985 13.1239 0.0310912 13.75 0C14.3761 0.0310912 14.9644 0.308985 15.3861 0.772849C15.8078 1.23671 16.0285 1.84876 16 2.475C16 5.067 11.5 8.25 11.5 8.25C11.5 8.25 7 5.067 7 2.475Z" fill="#374957"/>
</g>
<defs>
<clipPath id="clip0_406_162">
<rect width="24" height="24" fill="white"/>
</clipPath>
</defs>
</svg>
