<svg width="24" height="24" viewBox="0 0 24 24" fill="none" xmlns="http://www.w3.org/2000/svg">
<path d="M9.14504 23.9998C7.36606 24.0003 5.62689 23.4732 4.14748 22.4852C2.66808 21.4972 1.5149 20.0927 0.833785 18.4493C0.152673 16.8059 -0.0257734 14.9974 0.321016 13.2525C0.667805 11.5077 1.52425 9.90486 2.78204 8.64679L9.52604 1.89979C10.7548 0.731248 12.3916 0.0891554 14.0871 0.110501C15.7827 0.131847 17.4028 0.814941 18.6018 2.01404C19.8007 3.21314 20.4837 4.83331 20.5048 6.52887C20.526 8.22443 19.8837 9.86114 18.715 11.0898L11.973 17.8328C11.2186 18.5614 10.2082 18.9646 9.15943 18.9555C8.11064 18.9464 7.10739 18.5257 6.36576 17.7841C5.62413 17.0424 5.20345 16.0392 5.19434 14.9904C5.18523 13.9416 5.5884 12.9312 6.31704 12.1768L12.707 5.78779L14.827 7.90879L8.43804 14.2998C8.34252 14.392 8.26634 14.5024 8.21393 14.6244C8.16152 14.7464 8.13394 14.8776 8.13279 15.0104C8.13163 15.1432 8.15693 15.2748 8.20721 15.3977C8.25749 15.5206 8.33175 15.6323 8.42564 15.7262C8.51953 15.8201 8.63119 15.8943 8.75408 15.9446C8.87698 15.9949 9.00866 16.0202 9.14144 16.019C9.27422 16.0179 9.40544 15.9903 9.52744 15.9379C9.64944 15.8855 9.75979 15.8093 9.85204 15.7138L16.6 8.97279C16.9343 8.64992 17.201 8.26372 17.3844 7.8367C17.5678 7.40969 17.6644 6.95042 17.6684 6.48569C17.6725 6.02096 17.5839 5.56008 17.4079 5.12995C17.2319 4.69981 16.972 4.30903 16.6434 3.9804C16.3148 3.65178 15.924 3.39189 15.4939 3.21591C15.0637 3.03993 14.6029 2.95137 14.1381 2.95541C13.6734 2.95945 13.2141 3.056 12.7871 3.23943C12.3601 3.42286 11.9739 3.6895 11.651 4.02379L4.90004 10.7668C3.80709 11.8984 3.20232 13.414 3.21599 14.9872C3.22966 16.5604 3.86068 18.0653 4.97312 19.1777C6.08557 20.2901 7.59045 20.9212 9.16363 20.9348C10.7368 20.9485 12.2524 20.3437 13.384 19.2508L19.773 12.8608L21.9 14.9818L15.51 21.3718C14.6744 22.2074 13.682 22.8697 12.5897 23.3207C11.4974 23.7717 10.3268 24.0025 9.14504 23.9998Z" fill="#374957"/>
</svg>
