<svg width="24" height="24" viewBox="0 0 24 24" fill="none" xmlns="http://www.w3.org/2000/svg">
<g clip-path="url(#clip0_406_370)">
<path d="M9.00012 17V14H16.0001V11H9.00012V8C9.00012 6.67392 9.52691 5.40215 10.4646 4.46447C11.4023 3.52678 12.674 3 14.0001 3C15.3262 3 16.598 3.52678 17.5357 4.46447C18.4733 5.40215 19.0001 6.67392 19.0001 8H22.0001C22.0001 5.87827 21.1573 3.84344 19.657 2.34315C18.1567 0.842855 16.1219 0 14.0001 0C11.8784 0 9.84356 0.842855 8.34327 2.34315C6.84298 3.84344 6.00012 5.87827 6.00012 8V11H3.00012V14H6.00012V17C6.03581 17.5345 5.95681 18.0705 5.76841 18.572C5.58001 19.0734 5.28658 19.5289 4.90778 19.9077C4.52898 20.2865 4.07357 20.5799 3.57209 20.7683C3.0706 20.9567 2.53464 21.0357 2.00012 21V24H22.0001V21H7.85312C8.62011 19.8083 9.01904 18.4171 9.00012 17Z" fill="#374957"/>
</g>
<defs>
<clipPath id="clip0_406_370">
<rect width="24" height="24" fill="white"/>
</clipPath>
</defs>
</svg>
