<svg width="24" height="24" viewBox="0 0 24 24" fill="none" xmlns="http://www.w3.org/2000/svg">
<g clip-path="url(#clip0_406_8)">
<path d="M21 24.0006H18V19.0006C18 18.4702 17.7893 17.9615 17.4142 17.5864C17.0391 17.2113 16.5304 17.0006 16 17.0006H7.99999C7.46956 17.0006 6.96085 17.2113 6.58578 17.5864C6.21071 17.9615 5.99999 18.4702 5.99999 19.0006V24.0006H2.99999V19.0006C3.00158 17.675 3.52887 16.4042 4.46621 15.4668C5.40355 14.5295 6.6744 14.0022 7.99999 14.0006H16C17.3256 14.0022 18.5964 14.5295 19.5338 15.4668C20.4711 16.4042 20.9984 17.675 21 19.0006V24.0006Z" fill="#374957"/>
<path d="M12 11.9999C10.8134 11.9999 9.65332 11.648 8.66663 10.9888C7.67993 10.3295 6.9109 9.3924 6.45677 8.29604C6.00265 7.19969 5.88383 5.99329 6.11534 4.8294C6.34685 3.66551 6.91829 2.59642 7.75741 1.7573C8.59652 0.918186 9.66562 0.346741 10.8295 0.11523C11.9934 -0.116281 13.1998 0.00253868 14.2961 0.456664C15.3925 0.91079 16.3296 1.67983 16.9889 2.66652C17.6482 3.65321 18 4.81325 18 5.99994C17.9985 7.59075 17.3658 9.11595 16.2409 10.2408C15.1161 11.3657 13.5909 11.9984 12 11.9999ZM12 2.99994C11.4067 2.99994 10.8267 3.17589 10.3333 3.50553C9.83999 3.83518 9.45547 4.30371 9.22841 4.85189C9.00135 5.40007 8.94194 6.00327 9.05769 6.58521C9.17345 7.16716 9.45917 7.7017 9.87873 8.12126C10.2983 8.54082 10.8328 8.82654 11.4148 8.9423C11.9967 9.05805 12.5999 8.99864 13.1481 8.77158C13.6963 8.54452 14.1648 8.16 14.4945 7.66665C14.8241 7.17331 15 6.59329 15 5.99994C15 5.20429 14.684 4.44123 14.1214 3.87862C13.5588 3.31601 12.7957 2.99994 12 2.99994Z" fill="#374957"/>
</g>
<defs>
<clipPath id="clip0_406_8">
<rect width="24" height="24" fill="white"/>
</clipPath>
</defs>
</svg>
