<svg width="24" height="24" viewBox="0 0 24 24" fill="none" xmlns="http://www.w3.org/2000/svg">
<g clip-path="url(#clip0_406_223)">
<path d="M24 13.929L22 3H3C2.20435 3 1.44129 3.31607 0.87868 3.87868C0.31607 4.44129 0 5.20435 0 6L0 15C0 15.7956 0.31607 16.5587 0.87868 17.1213C1.44129 17.6839 2.20435 18 3 18H7.582L9.248 21.264C9.62236 21.9979 10.2472 22.5734 11.0093 22.8864C11.7715 23.1993 12.6205 23.2289 13.4025 22.9698C14.1846 22.7107 14.848 22.1801 15.2726 21.4741C15.6972 20.768 15.8548 19.9333 15.717 19.121L15.526 18H24V13.929ZM3 6H7V15H3V6ZM21 15H11.974L12.76 19.624C12.7712 19.6877 12.768 19.753 12.7507 19.8153C12.7334 19.8776 12.7024 19.9352 12.66 19.984C12.6124 20.0404 12.5517 20.0842 12.4831 20.1115C12.4146 20.1388 12.3403 20.1487 12.267 20.1404C12.1937 20.1321 12.1236 20.1058 12.0628 20.0639C12.0021 20.0219 11.9527 19.9656 11.919 19.9L10 16.14V6H19.5L21 14.066V15Z" fill="#374957"/>
</g>
<defs>
<clipPath id="clip0_406_223">
<rect width="24" height="24" fill="white"/>
</clipPath>
</defs>
</svg>
