<svg width="24" height="24" viewBox="0 0 24 24" fill="none" xmlns="http://www.w3.org/2000/svg">
<g clip-path="url(#clip0_406_305)">
<path d="M19 7H18.876C18.3528 6.28024 17.7198 5.64718 17 5.124C17 5.083 17 5.042 17 5C17 3.67392 16.4732 2.40215 15.5355 1.46447C14.5979 0.526784 13.3261 0 12 0C10.6739 0 9.40215 0.526784 8.46447 1.46447C7.52678 2.40215 7 3.67392 7 5C7 5.042 7 5.083 7 5.124C6.28024 5.64718 5.64718 6.28024 5.124 7H5C3.67392 7 2.40215 7.52678 1.46447 8.46447C0.526784 9.40215 0 10.6739 0 12C0 13.3261 0.526784 14.5979 1.46447 15.5355C2.40215 16.4732 3.67392 17 5 17H5.127C5.65108 17.7168 6.28288 18.3483 7 18.872C7 18.915 7 18.957 7 19C7 20.3261 7.52678 21.5979 8.46447 22.5355C9.40215 23.4732 10.6739 24 12 24C13.3261 24 14.5979 23.4732 15.5355 22.5355C16.4732 21.5979 17 20.3261 17 19C17 18.959 17 18.919 17 18.879C17.7217 18.3559 18.3559 17.7217 18.879 17H19C20.3261 17 21.5979 16.4732 22.5355 15.5355C23.4732 14.5979 24 13.3261 24 12C24 10.6739 23.4732 9.40215 22.5355 8.46447C21.5979 7.52678 20.3261 7 19 7ZM8.989 8.989C9.85572 9.64504 10.913 10.0001 12 10.0001C13.087 10.0001 14.1443 9.64504 15.011 8.989C14.355 9.85572 13.9999 10.913 13.9999 12C13.9999 13.087 14.355 14.1443 15.011 15.011C14.1443 14.355 13.087 13.9999 12 13.9999C10.913 13.9999 9.85572 14.355 8.989 15.011C9.64504 14.1443 10.0001 13.087 10.0001 12C10.0001 10.913 9.64504 9.85572 8.989 8.989ZM12 3C12.3956 3 12.7822 3.1173 13.1111 3.33706C13.44 3.55682 13.6964 3.86918 13.8478 4.23463C13.9991 4.60009 14.0387 5.00222 13.9616 5.39018C13.8844 5.77814 13.6939 6.13451 13.4142 6.41421C13.1345 6.69392 12.7781 6.8844 12.3902 6.96157C12.0022 7.03874 11.6001 6.99913 11.2346 6.84776C10.8692 6.69638 10.5568 6.44004 10.3371 6.11114C10.1173 5.78224 10 5.39556 10 5C10 4.46957 10.2107 3.96086 10.5858 3.58579C10.9609 3.21071 11.4696 3 12 3ZM3 12C3 11.6044 3.1173 11.2178 3.33706 10.8889C3.55682 10.56 3.86918 10.3036 4.23463 10.1522C4.60009 10.0009 5.00222 9.96126 5.39018 10.0384C5.77814 10.1156 6.13451 10.3061 6.41421 10.5858C6.69392 10.8655 6.8844 11.2219 6.96157 11.6098C7.03874 11.9978 6.99913 12.3999 6.84776 12.7654C6.69638 13.1308 6.44004 13.4432 6.11114 13.6629C5.78224 13.8827 5.39556 14 5 14C4.46957 14 3.96086 13.7893 3.58579 13.4142C3.21071 13.0391 3 12.5304 3 12ZM12 21C11.6044 21 11.2178 20.8827 10.8889 20.6629C10.56 20.4432 10.3036 20.1308 10.1522 19.7654C10.0009 19.3999 9.96126 18.9978 10.0384 18.6098C10.1156 18.2219 10.3061 17.8655 10.5858 17.5858C10.8655 17.3061 11.2219 17.1156 11.6098 17.0384C11.9978 16.9613 12.3999 17.0009 12.7654 17.1522C13.1308 17.3036 13.4432 17.56 13.6629 17.8889C13.8827 18.2178 14 18.6044 14 19C14 19.5304 13.7893 20.0391 13.4142 20.4142C13.0391 20.7893 12.5304 21 12 21ZM19 14C18.6044 14 18.2178 13.8827 17.8889 13.6629C17.56 13.4432 17.3036 13.1308 17.1522 12.7654C17.0009 12.3999 16.9613 11.9978 17.0384 11.6098C17.1156 11.2219 17.3061 10.8655 17.5858 10.5858C17.8655 10.3061 18.2219 10.1156 18.6098 10.0384C18.9978 9.96126 19.3999 10.0009 19.7654 10.1522C20.1308 10.3036 20.4432 10.56 20.6629 10.8889C20.8827 11.2178 21 11.6044 21 12C21 12.5304 20.7893 13.0391 20.4142 13.4142C20.0391 13.7893 19.5304 14 19 14Z" fill="#374957"/>
</g>
<defs>
<clipPath id="clip0_406_305">
<rect width="24" height="24" fill="white"/>
</clipPath>
</defs>
</svg>
