<svg width="24" height="24" viewBox="0 0 24 24" fill="none" xmlns="http://www.w3.org/2000/svg">
<g clip-path="url(#clip0_406_129)">
<path d="M14.4469 4.326L1.14892 17.3C0.599669 17.8487 0.225542 18.5481 0.0738839 19.3095C-0.0777738 20.0709 -0.000145405 20.8602 0.296945 21.5775C0.594036 22.2948 1.09724 22.9079 1.74286 23.3391C2.38849 23.7703 3.14753 24.0003 3.92392 24C4.43646 24.0021 4.94436 23.9028 5.41838 23.7079C5.89239 23.5129 6.32317 23.2261 6.68592 22.864L19.9999 9.875L14.4469 4.326ZM15.7279 9.849L13.1199 12.394L11.8129 11.087L14.4209 8.542L15.7279 9.849ZM4.57692 20.729C4.40131 20.8976 4.16733 20.9917 3.92392 20.9917C3.68051 20.9917 3.44653 20.8976 3.27092 20.729C3.09992 20.5581 3.00268 20.3271 3.00006 20.0854C2.99744 19.8436 3.08966 19.6105 3.25692 19.436L9.66592 13.182L10.9729 14.489L4.57692 20.729ZM21.3329 15.667L23.9999 17L21.3329 18.333L19.9999 21L18.6669 18.333L15.9999 17L18.6669 15.667L19.9999 13L21.3329 15.667ZM5.66692 5.333L2.99992 4L5.66692 2.667L6.99992 0L8.33292 2.667L10.9999 4L8.33292 5.333L6.99992 8L5.66692 5.333ZM19.3329 4.667L16.9999 3.5L19.3329 2.333L20.4999 0L21.6669 2.333L23.9999 3.5L21.6669 4.667L20.4999 7L19.3329 4.667Z" fill="#374957"/>
</g>
<defs>
<clipPath id="clip0_406_129">
<rect width="24" height="24" fill="white"/>
</clipPath>
</defs>
</svg>
