<svg width="24" height="24" viewBox="0 0 24 24" fill="none" xmlns="http://www.w3.org/2000/svg">
<g clip-path="url(#clip0_406_396)">
<path d="M7.99991 10.073C7.99991 9.01213 8.42134 7.99472 9.17148 7.24457C9.92163 6.49443 10.939 6.073 11.9999 6.073C13.0608 6.073 14.0782 6.49443 14.8283 7.24457C15.5785 7.99472 15.9999 9.01213 15.9999 10.073V12H21.9999V9H18.9089C18.7604 8.03278 18.409 7.10789 17.8779 6.286L20.1619 4L18.0409 1.881L15.7499 4.172C15.0604 3.73144 14.2988 3.41562 13.4999 3.239V0H10.4999V3.239C9.70079 3.41498 8.93907 3.73084 8.24991 4.172L5.95791 1.881L3.83691 4L6.12191 6.286C5.5908 7.10789 5.23945 8.03278 5.09091 9H1.99991V12H7.99991V10.073Z" fill="#374957"/>
<path d="M22.592 14.0006H19.408C19.3021 14.2888 19.1103 14.5376 18.8585 14.7134C18.6067 14.8891 18.3071 14.9834 18 14.9834C17.6929 14.9834 17.3933 14.8891 17.1415 14.7134C16.8897 14.5376 16.6979 14.2888 16.592 14.0006H13.408C13.3021 14.2888 13.1103 14.5376 12.8585 14.7134C12.6067 14.8891 12.3071 14.9834 12 14.9834C11.6929 14.9834 11.3933 14.8891 11.1415 14.7134C10.8897 14.5376 10.6979 14.2888 10.592 14.0006H7.408C7.30212 14.2888 7.11032 14.5376 6.85853 14.7134C6.60673 14.8891 6.30707 14.9834 6 14.9834C5.69293 14.9834 5.39327 14.8891 5.14147 14.7134C4.88968 14.5376 4.69788 14.2888 4.592 14.0006H1.408C1.30496 14.2921 1.11438 14.5446 0.86235 14.7236C0.610315 14.9026 0.30913 14.9993 0 15.0006V18.0006C1.11066 17.997 2.18018 17.5799 3 16.8306C3.82342 17.5718 4.8921 17.982 6 17.982C7.1079 17.982 8.17658 17.5718 9 16.8306C9.82342 17.5718 10.8921 17.982 12 17.982C13.1079 17.982 14.1766 17.5718 15 16.8306C15.8234 17.5718 16.8921 17.982 18 17.982C19.1079 17.982 20.1766 17.5718 21 16.8306C21.8198 17.5799 22.8893 17.997 24 18.0006V15.0006C23.6909 14.9993 23.3897 14.9026 23.1376 14.7236C22.8856 14.5446 22.695 14.2921 22.592 14.0006Z" fill="#374957"/>
<path d="M22.592 20.0006H19.408C19.3021 20.2888 19.1103 20.5376 18.8585 20.7134C18.6067 20.8891 18.3071 20.9834 18 20.9834C17.6929 20.9834 17.3933 20.8891 17.1415 20.7134C16.8897 20.5376 16.6979 20.2888 16.592 20.0006H13.408C13.3021 20.2888 13.1103 20.5376 12.8585 20.7134C12.6067 20.8891 12.3071 20.9834 12 20.9834C11.6929 20.9834 11.3933 20.8891 11.1415 20.7134C10.8897 20.5376 10.6979 20.2888 10.592 20.0006H7.408C7.30212 20.2888 7.11032 20.5376 6.85853 20.7134C6.60673 20.8891 6.30707 20.9834 6 20.9834C5.69293 20.9834 5.39327 20.8891 5.14147 20.7134C4.88968 20.5376 4.69788 20.2888 4.592 20.0006H1.408C1.30496 20.2921 1.11438 20.5446 0.86235 20.7236C0.610315 20.9026 0.30913 20.9993 0 21.0006V24.0006C1.11066 23.997 2.18018 23.5799 3 22.8306C3.82342 23.5718 4.8921 23.982 6 23.982C7.1079 23.982 8.17658 23.5718 9 22.8306C9.82342 23.5718 10.8921 23.982 12 23.982C13.1079 23.982 14.1766 23.5718 15 22.8306C15.8234 23.5718 16.8921 23.982 18 23.982C19.1079 23.982 20.1766 23.5718 21 22.8306C21.8198 23.5799 22.8893 23.997 24 24.0006V21.0006C23.6909 20.9993 23.3897 20.9026 23.1376 20.7236C22.8856 20.5446 22.695 20.2921 22.592 20.0006Z" fill="#374957"/>
</g>
<defs>
<clipPath id="clip0_406_396">
<rect width="24" height="24" fill="white"/>
</clipPath>
</defs>
</svg>
