<svg width="24" height="24" viewBox="0 0 24 24" fill="none" xmlns="http://www.w3.org/2000/svg">
<g clip-path="url(#clip0_406_287)">
<path d="M6.99994 24.0006C8.1045 24.0006 8.99993 23.1052 8.99993 22.0006C8.99993 20.896 8.1045 20.0006 6.99994 20.0006C5.89537 20.0006 4.99994 20.896 4.99994 22.0006C4.99994 23.1052 5.89537 24.0006 6.99994 24.0006Z" fill="#374957"/>
<path d="M17 24.0006C18.1046 24.0006 19 23.1052 19 22.0006C19 20.896 18.1046 20.0006 17 20.0006C15.8954 20.0006 15 20.896 15 22.0006C15 23.1052 15.8954 24.0006 17 24.0006Z" fill="#374957"/>
<path d="M5.654 5L5.391 2.938C5.2955 2.12869 4.90638 1.38256 4.2974 0.841037C3.68842 0.299518 2.90192 0.000261877 2.087 0L0 0V3H2.087C2.16881 3.00088 2.24739 3.03202 2.30759 3.08742C2.36779 3.14282 2.40534 3.21855 2.413 3.3L3.913 15.059C4.00761 15.8689 4.39637 16.6159 5.00547 17.1581C5.61456 17.7003 6.40156 17.9999 7.217 18H20.4L23.974 5H5.654ZM18.112 15H7.217C7.13523 14.9993 7.05665 14.9682 6.99657 14.9128C6.93648 14.8573 6.89921 14.7815 6.892 14.7L6.037 8H20.037L18.112 15Z" fill="#374957"/>
</g>
<defs>
<clipPath id="clip0_406_287">
<rect width="24" height="24" fill="white"/>
</clipPath>
</defs>
</svg>
