<svg width="24" height="24" viewBox="0 0 24 24" fill="none" xmlns="http://www.w3.org/2000/svg">
<g clip-path="url(#clip0_406_470)">
<path d="M23.9999 13.5908C23.9999 8.34575 19.4099 3.85775 13.6579 3.11875C13.8611 2.81791 13.9785 2.46745 13.9977 2.10495C14.0168 1.74245 13.9369 1.38158 13.7666 1.06102C13.5962 0.740465 13.3419 0.472311 13.0307 0.28531C12.7196 0.0983083 12.3634 -0.000488281 12.0004 -0.000488281C11.6374 -0.000488281 11.2813 0.0983083 10.9701 0.28531C10.659 0.472311 10.4046 0.740465 10.2343 1.06102C10.064 1.38158 9.98409 1.74245 10.0032 2.10495C10.0224 2.46745 10.1398 2.81791 10.3429 3.11875C4.63994 3.86375 0.0909424 8.34975 0.0909424 13.5908C0.092553 14.1655 0.236064 14.7309 0.508731 15.2368C0.781398 15.7427 1.17478 16.1734 1.65394 16.4908L2.47494 21.1088C2.61806 21.9187 3.04189 22.6525 3.67204 23.1811C4.30219 23.7098 5.0984 23.9996 5.92094 23.9998H18.0799C18.9017 23.9995 19.6972 23.7102 20.3271 23.1823C20.957 22.6545 21.381 21.9218 21.5249 21.1128L22.3349 16.5598C22.8444 16.2499 23.2654 15.8138 23.557 15.2937C23.8487 14.7736 24.0013 14.1871 23.9999 13.5908ZM11.9999 5.99975C16.7939 5.99975 20.9999 9.54675 20.9999 13.5608C20.9789 13.9998 20.8089 13.9998 20.5909 13.9998H17.9999C17.9999 14.265 17.8946 14.5193 17.7071 14.7069C17.5195 14.8944 17.2652 14.9998 16.9999 14.9998C16.7347 14.9998 16.4804 14.8944 16.2928 14.7069C16.1053 14.5193 15.9999 14.265 15.9999 13.9998H12.9999C12.9999 14.265 12.8946 14.5193 12.707 14.7069C12.5195 14.8944 12.2652 14.9998 11.9999 14.9998C11.7347 14.9998 11.4804 14.8944 11.2928 14.7069C11.1053 14.5193 10.9999 14.265 10.9999 13.9998H7.99994C7.99994 14.265 7.89459 14.5193 7.70705 14.7069C7.51951 14.8944 7.26516 14.9998 6.99994 14.9998C6.73473 14.9998 6.48037 14.8944 6.29284 14.7069C6.1053 14.5193 5.99994 14.265 5.99994 13.9998H3.49994C3.28294 13.9998 3.11094 13.9998 3.09094 13.5908C3.09094 9.54675 7.25394 5.99975 11.9999 5.99975ZM18.0799 20.9998H5.92094C5.80363 20.9997 5.69007 20.9584 5.60013 20.8831C5.51018 20.8078 5.44959 20.7032 5.42894 20.5878L4.85494 17.3648C5.55872 17.8146 6.3864 18.0311 7.2203 17.9835C8.0542 17.9359 8.85189 17.6267 9.49994 17.0998C10.2063 17.6746 11.0892 17.9884 11.9999 17.9884C12.9107 17.9884 13.7935 17.6746 14.4999 17.0998C15.1477 17.6272 15.9452 17.9369 16.7791 17.9851C17.613 18.0332 18.4409 17.8172 19.1449 17.3678L18.5719 20.5908C18.5507 20.7057 18.4898 20.8095 18.3999 20.8842C18.31 20.959 18.1968 20.9998 18.0799 20.9998Z" fill="#374957"/>
</g>
<defs>
<clipPath id="clip0_406_470">
<rect width="24" height="24" fill="white"/>
</clipPath>
</defs>
</svg>
