<svg width="24" height="24" viewBox="0 0 24 24" fill="none" xmlns="http://www.w3.org/2000/svg">
<g clip-path="url(#clip0_406_368)">
<path d="M5.5 5.5H0V8.5H6C6.66304 8.5 7.29893 8.23661 7.76777 7.76777C8.23661 7.29893 8.5 6.66304 8.5 6V0H5.5V5.5Z" fill="#374957"/>
<path d="M15.4999 18.0001V24.0001H18.4999V18.5001H23.9999V15.5001H17.9999C17.3369 15.5001 16.701 15.7635 16.2321 16.2324C15.7633 16.7012 15.4999 17.3371 15.4999 18.0001Z" fill="#374957"/>
<path d="M18.4999 5.5V0H15.4999V6C15.4999 6.66304 15.7633 7.29893 16.2321 7.76777C16.701 8.23661 17.3369 8.5 17.9999 8.5H23.9999V5.5H18.4999Z" fill="#374957"/>
<path d="M6 15.5001H0V18.5001H5.5V24.0001H8.5V18.0001C8.5 17.3371 8.23661 16.7012 7.76777 16.2324C7.29893 15.7635 6.66304 15.5001 6 15.5001Z" fill="#374957"/>
</g>
<defs>
<clipPath id="clip0_406_368">
<rect width="24" height="24" fill="white"/>
</clipPath>
</defs>
</svg>
