<svg width="24" height="24" viewBox="0 0 24 24" fill="none" xmlns="http://www.w3.org/2000/svg">
<g clip-path="url(#clip0_406_398)">
<path d="M22.121 11L24.061 12.939L21.939 15.061L20 13.121L18.061 15.061L15.939 12.939L17.879 11L15.939 9.061L18.061 6.939L20 8.879L21.939 6.939L24.061 9.061L22.121 11ZM2 6C2 4.81332 2.35189 3.65328 3.01118 2.66658C3.67047 1.67989 4.60754 0.910851 5.7039 0.456726C6.80026 0.00259972 8.00666 -0.11622 9.17054 0.115291C10.3344 0.346802 11.4035 0.918247 12.2426 1.75736C13.0818 2.59648 13.6532 3.66558 13.8847 4.82946C14.1162 5.99335 13.9974 7.19975 13.5433 8.2961C13.0892 9.39246 12.3201 10.3295 11.3334 10.9888C10.3467 11.6481 9.18669 12 8 12C6.40919 11.9984 4.88399 11.3658 3.75911 10.2409C2.63424 9.11602 2.00159 7.59082 2 6ZM5 6C5 6.59335 5.17595 7.17337 5.50559 7.66671C5.83524 8.16006 6.30377 8.54458 6.85195 8.77164C7.40013 8.99871 8.00333 9.05812 8.58527 8.94236C9.16722 8.8266 9.70176 8.54088 10.1213 8.12132C10.5409 7.70177 10.8266 7.16722 10.9424 6.58527C11.0581 6.00333 10.9987 5.40013 10.7716 4.85195C10.5446 4.30377 10.1601 3.83524 9.66671 3.50559C9.17336 3.17595 8.59334 3 8 3C7.20435 3 6.44129 3.31607 5.87868 3.87868C5.31607 4.44129 5 5.20435 5 6ZM11 14H5C3.67441 14.0016 2.40356 14.5289 1.46622 15.4662C0.528882 16.4036 0.00158786 17.6744 0 19L0 24H3V19C3 18.4696 3.21071 17.9609 3.58579 17.5858C3.96086 17.2107 4.46957 17 5 17H11C11.5304 17 12.0391 17.2107 12.4142 17.5858C12.7893 17.9609 13 18.4696 13 19V24H16V19C15.9984 17.6744 15.4711 16.4036 14.5338 15.4662C13.5964 14.5289 12.3256 14.0016 11 14Z" fill="#374957"/>
</g>
<defs>
<clipPath id="clip0_406_398">
<rect width="24" height="24" fill="white"/>
</clipPath>
</defs>
</svg>
