<svg width="24" height="24" viewBox="0 0 24 24" fill="none" xmlns="http://www.w3.org/2000/svg">
<g clip-path="url(#clip0_406_326)">
<path d="M16.1542 24H7.84415L7.54415 23.856C5.59015 22.9327 3.88809 21.5511 2.58281 19.8286C1.27752 18.1062 0.407631 16.0939 0.0471525 13.963C-0.0353085 13.4778 -0.0106357 12.9803 0.119441 12.5056C0.249518 12.0309 0.481851 11.5904 0.800152 11.215C1.1214 10.8339 1.52209 10.5277 1.97416 10.3178C2.42623 10.1079 2.91874 9.99947 3.41715 10H20.5812C21.0799 9.99931 21.5727 10.1077 22.0251 10.3176C22.4776 10.5275 22.8786 10.8338 23.2002 11.215C23.5187 11.5903 23.7512 12.0308 23.8815 12.5055C24.0117 12.9802 24.0365 13.4777 23.9542 13.963C23.5943 16.0934 22.7253 18.1055 21.4209 19.8279C20.1165 21.5503 18.4153 22.9322 16.4622 23.856L16.1542 24ZM8.52915 21H15.4702C16.9142 20.2603 18.1656 19.1937 19.1246 17.885C20.0836 16.5763 20.7238 15.0618 20.9942 13.462C21.0035 13.4068 21.0003 13.3502 20.9849 13.2964C20.9695 13.2426 20.9423 13.1929 20.9052 13.151C20.8655 13.1036 20.816 13.0655 20.76 13.0394C20.704 13.0133 20.6429 12.9999 20.5812 13H3.41715C3.3554 13 3.29439 13.0135 3.23842 13.0396C3.18245 13.0657 3.13286 13.1037 3.09315 13.151C3.05641 13.1931 3.02945 13.2428 3.01424 13.2966C2.99902 13.3504 2.99592 13.4069 3.00515 13.462C3.27534 15.0618 3.91546 16.5764 4.8745 17.8852C5.83355 19.1939 7.08501 20.2605 8.52915 21ZM12.0002 6.414C12.0018 5.76842 11.8755 5.12892 11.6285 4.53246C11.3815 3.93599 11.0187 3.39441 10.5612 2.939C10.2034 2.57942 10.0018 2.09326 10.0002 1.586V0H7.00015V1.586C6.99849 2.23158 7.12481 2.87108 7.3718 3.46754C7.6188 4.06401 7.98157 4.60559 8.43915 5.061C8.79695 5.42058 8.99852 5.90674 9.00015 6.414V8H12.0002V6.414ZM17.0002 5.414C17.0018 4.76843 16.8754 4.12894 16.6284 3.53249C16.3814 2.93603 16.0187 2.39444 15.5612 1.939C15.3828 1.76181 15.2413 1.55098 15.145 1.31873C15.0487 1.08648 14.9995 0.837424 15.0002 0.586V0H12.0002V0.586C11.9983 1.2316 12.1246 1.87116 12.3716 2.46764C12.6186 3.06412 12.9814 3.60569 13.4392 4.061C13.6175 4.23819 13.759 4.44902 13.8553 4.68127C13.9516 4.91352 14.0008 5.16258 14.0002 5.414V7H17.0002V5.414Z" fill="#374957"/>
</g>
<defs>
<clipPath id="clip0_406_326">
<rect width="24" height="24" fill="white"/>
</clipPath>
</defs>
</svg>
