<svg width="24" height="24" viewBox="0 0 24 24" fill="none" xmlns="http://www.w3.org/2000/svg">
<g clip-path="url(#clip0_406_469)">
<path d="M8.5 10.9999C9.5878 10.9999 10.6512 10.6774 11.5556 10.073C12.4601 9.46868 13.1651 8.60969 13.5813 7.6047C13.9976 6.59971 14.1065 5.49384 13.8943 4.42694C13.6821 3.36005 13.1583 2.38004 12.3891 1.61085C11.6199 0.841665 10.6399 0.317841 9.573 0.105622C8.5061 -0.106596 7.40023 0.00232205 6.39524 0.418604C5.39025 0.834886 4.53126 1.53983 3.92692 2.44431C3.32257 3.34878 3 4.41214 3 5.49994C3.00159 6.95814 3.58156 8.35617 4.61267 9.38727C5.64377 10.4184 7.0418 10.9984 8.5 10.9999ZM8.5 2.99994C8.99445 2.99994 9.4778 3.14656 9.88893 3.42127C10.3 3.69597 10.6205 4.08642 10.8097 4.54323C10.9989 5.00005 11.0484 5.50271 10.952 5.98767C10.8555 6.47262 10.6174 6.91808 10.2678 7.26771C9.91814 7.61734 9.47268 7.85544 8.98773 7.9519C8.50277 8.04837 8.00011 7.99886 7.54329 7.80964C7.08648 7.62042 6.69603 7.29999 6.42133 6.88887C6.14662 6.47774 6 5.99439 6 5.49994C6 4.8369 6.26339 4.20102 6.73223 3.73217C7.20107 3.26333 7.83696 2.99994 8.5 2.99994Z" fill="#374957"/>
<path d="M17 9.99927C15.8721 9.99891 14.761 10.2716 13.7614 10.794C12.7618 11.3164 11.9036 12.0731 11.26 12.9993H5C3.67441 13.0009 2.40356 13.5282 1.46622 14.4655C0.528882 15.4028 0.00158786 16.6737 0 17.9993L0 23.9993H3V17.9993C3 17.4688 3.21071 16.9601 3.58579 16.5851C3.96086 16.21 4.46957 15.9993 5 15.9993H10.08C9.87606 17.4122 10.109 18.8537 10.7476 20.1305C11.3862 21.4073 12.3999 22.4583 13.6527 23.1426C14.9056 23.8269 16.3378 24.1118 17.7571 23.9591C19.1765 23.8063 20.5153 23.2233 21.5939 22.2881C22.6725 21.3529 23.4394 20.1103 23.7917 18.7268C24.144 17.3434 24.0649 15.8853 23.565 14.5482C23.0652 13.211 22.1684 12.0586 20.995 11.2455C19.8215 10.4324 18.4276 9.9976 17 9.99927ZM18.439 21.0603L15 17.6203V12.9993H18V16.3783L20.561 18.9383L18.439 21.0603Z" fill="#374957"/>
</g>
<defs>
<clipPath id="clip0_406_469">
<rect width="24" height="24" fill="white"/>
</clipPath>
</defs>
</svg>
