<svg width="24" height="24" viewBox="0 0 24 24" fill="none" xmlns="http://www.w3.org/2000/svg">
<g clip-path="url(#clip0_406_95)">
<path d="M21.814 0.0640869L10.256 11.6231C9.80848 11.017 9.41782 10.3709 9.08902 9.69309L12.052 6.73109L5.41002 0.0900869L1.76602 3.73409C1.20003 4.302 0.752468 4.97668 0.449309 5.71895C0.146151 6.46123 -0.0065659 7.25632 2.12548e-05 8.05809C2.12548e-05 11.0891 1.57702 14.5501 4.27702 17.6001L0.0640213 21.8141L2.18602 23.9361L23.936 2.18609L21.814 0.0640869ZM3.00002 8.05809C2.99499 7.65103 3.07069 7.24701 3.22277 6.86939C3.37485 6.49177 3.60028 6.14804 3.88602 5.85809L5.41002 4.33209L7.81002 6.73209L5.54102 9.00009L5.91002 9.91909C6.45989 11.2976 7.20628 12.5893 8.12602 13.7541L6.40602 15.4741C4.28102 13.0201 3.00002 10.3001 3.00002 8.05809ZM17.269 11.9481L23.91 18.5901L20.265 22.2351C19.6971 22.8008 19.0226 23.2481 18.2805 23.5511C17.5384 23.854 16.7436 24.0067 15.942 24.0001C13.1039 23.8285 10.3826 22.8092 8.13002 21.0741L10.292 18.9111C11.9421 20.1236 13.9 20.8475 15.942 21.0001C16.349 21.0055 16.7531 20.93 17.1307 20.7781C17.5084 20.6262 17.8521 20.4008 18.142 20.1151L19.666 18.5901L17.266 16.1901L15.011 18.4461L14.103 18.1001C13.402 17.8281 12.7225 17.5038 12.07 17.1301L17.269 11.9481Z" fill="#374957"/>
</g>
<defs>
<clipPath id="clip0_406_95">
<rect width="24" height="24" fill="white"/>
</clipPath>
</defs>
</svg>
