<svg width="24" height="24" viewBox="0 0 24 24" fill="none" xmlns="http://www.w3.org/2000/svg">
<g clip-path="url(#clip0_406_167)">
<path d="M16.9393 -0.0606574L14.6511 2.22754L16.7724 4.34886L19.0606 2.06066L16.9393 -0.0606574Z" fill="#374957"/>
<path d="M7.06029 -0.0604078L4.93896 2.06091L7.18898 4.31093L9.3103 2.18961L7.06029 -0.0604078Z" fill="#374957"/>
<path d="M13.5 0H10.5V3.5H13.5V0Z" fill="#374957"/>
<path d="M1.35108 19.3211L0.460083 22.1871L6.23908 23.9811L7.13008 21.1161L5.71308 20.6761L6.28108 19.0001C6.30908 19.0001 6.33708 19.0051 6.36508 19.0051C7.27148 19.004 8.16213 18.768 8.95008 18.3201C9.57491 17.9695 10.1234 17.4976 10.5634 16.9321C11.0033 16.3666 11.3259 15.7189 11.5121 15.0271L12.0001 13.4001L12.4771 14.9841C12.6609 15.6836 12.9833 16.3391 13.4253 16.9117C13.8673 17.4842 14.4198 17.9621 15.0501 18.3171C15.8382 18.7643 16.7289 18.9997 17.6351 19.0001C17.6631 19.0001 17.6911 18.9951 17.7191 18.9951L18.2871 20.6751L16.8701 21.1151L17.7611 23.9801L23.5401 22.1861L22.6491 19.3201L21.1491 19.7851L20.5821 18.1001C21.5367 17.4442 22.2629 16.5067 22.6594 15.4185C23.0559 14.3302 23.103 13.1453 22.7941 12.0291L21.4311 7.48906C21.1791 6.62046 20.5953 5.88602 19.8058 5.4447C19.0164 5.00339 18.085 4.89071 17.2131 5.13106L13.5001 6.20006C12.9284 6.36806 12.4111 6.68364 12.0001 7.11506C11.5889 6.6839 11.0716 6.36836 10.5001 6.20006L6.78608 5.13106C5.91592 4.88993 4.98579 5.00124 4.19709 5.44089C3.40839 5.88053 2.82459 6.61312 2.57208 7.48006L1.19408 12.0671C0.892258 13.1791 0.944231 14.3575 1.34278 15.4387C1.74134 16.5198 2.46668 17.45 3.41808 18.1001L2.84708 19.7871L1.35108 19.3211ZM14.0651 9.30006C14.0919 9.24843 14.1289 9.2027 14.1737 9.1656C14.2185 9.1285 14.2703 9.10077 14.3261 9.08406L18.0401 8.01506C18.0726 8.00548 18.1062 8.00043 18.1401 8.00006C18.2366 8.00511 18.3289 8.04139 18.403 8.10343C18.4771 8.16548 18.5291 8.24992 18.5511 8.34406L19.3511 11.0001H14.4121L14.0221 9.70506C14.0021 9.63806 13.9957 9.56777 14.003 9.49825C14.0104 9.42874 14.0315 9.36137 14.0651 9.30006ZM5.95908 8.01506L9.67508 9.08106C9.73062 9.09794 9.78222 9.12574 9.82687 9.16283C9.87151 9.19993 9.90831 9.24556 9.93508 9.29706C9.96879 9.35739 9.99013 9.42384 9.99786 9.49252C10.0056 9.56121 9.99954 9.63074 9.98008 9.69706L9.58908 11.0001H4.64708L5.44708 8.33506C5.4728 8.22487 5.5411 8.12936 5.63704 8.06939C5.73299 8.00942 5.84877 7.98989 5.95908 8.01506Z" fill="#374957"/>
</g>
<defs>
<clipPath id="clip0_406_167">
<rect width="24" height="24" fill="white"/>
</clipPath>
</defs>
</svg>
