<svg width="24" height="24" viewBox="0 0 24 24" fill="none" xmlns="http://www.w3.org/2000/svg">
<g clip-path="url(#clip0_406_307)">
<path d="M24.0609 2.06097L21.9389 -0.0610352L18.9999 2.87896V-3.51556e-05H15.9999V3.05497C14.2099 1.82897 12.0929 1.29397 9.8609 3.52497C7.4259 5.96097 2.3529 18.247 1.3609 20.685L0.0198975 23.98L3.3199 22.639C5.7589 21.647 18.0439 16.575 20.4799 14.139C22.7109 11.908 22.1799 9.79097 20.9489 7.99996H23.9999V4.99996H21.1209L24.0609 2.06097ZM18.3539 12.018C17.7638 12.5199 17.1187 12.9533 16.4309 13.31L14.0609 10.939L11.9389 13.061L13.6459 14.767C11.2149 15.967 8.2379 17.302 5.5459 18.456C6.0069 17.373 6.4999 16.245 6.9999 15.124L7.9359 16.061L10.0579 13.939L8.3369 12.216C9.0089 10.788 9.6629 9.46596 10.2489 8.36996L11.9389 10.061L14.0609 7.93896L11.8829 5.76096C13.4359 4.16796 14.1289 5.28696 16.5099 7.48996C19.3819 10.363 19.4239 10.948 18.3539 12.018Z" fill="#374957"/>
</g>
<defs>
<clipPath id="clip0_406_307">
<rect width="24" height="24" fill="white"/>
</clipPath>
</defs>
</svg>
