<svg width="24" height="24" viewBox="0 0 24 24" fill="none" xmlns="http://www.w3.org/2000/svg">
<g clip-path="url(#clip0_406_350)">
<path d="M24 19H15.149C14.8034 18.2784 14.2216 17.6966 13.5 17.351V15H21V5.5C21 4.57174 20.6313 3.6815 19.9749 3.02513C19.3185 2.36875 18.4283 2 17.5 2H12.466L9.557 0H6.5C5.57174 0 4.6815 0.368749 4.02513 1.02513C3.36875 1.6815 3 2.57174 3 3.5V15H10.5V17.351C9.77841 17.6966 9.1966 18.2784 8.851 19H0V22H8.851C9.1316 22.5985 9.5769 23.1047 10.1348 23.4593C10.6926 23.8139 11.34 24.0022 12.001 24.0022C12.662 24.0022 13.3094 23.8139 13.8672 23.4593C14.4251 23.1047 14.8704 22.5985 15.151 22H24V19ZM6 7H18V12H6V7Z" fill="#374957"/>
</g>
<defs>
<clipPath id="clip0_406_350">
<rect width="24" height="24" fill="white"/>
</clipPath>
</defs>
</svg>
