<svg width="24" height="24" viewBox="0 0 24 24" fill="none" xmlns="http://www.w3.org/2000/svg">
<g clip-path="url(#clip0_406_168)">
<path d="M20 19.056V4.92497H23.989L19.461 0.399968C19.203 0.142516 18.8535 -0.0020752 18.489 -0.0020752C18.1246 -0.0020752 17.775 0.142516 17.517 0.399968L12.989 4.92497H17V19.056H12.96L17.506 23.596C17.6341 23.7241 17.7862 23.8258 17.9535 23.8952C18.1209 23.9646 18.3003 24.0003 18.4815 24.0003C18.6627 24.0003 18.8421 23.9646 19.0095 23.8952C19.1769 23.8258 19.3289 23.7241 19.457 23.596L24 19.056H20Z" fill="#374957"/>
<path d="M0 3V11H11V0H3C2.20435 0 1.44129 0.31607 0.87868 0.87868C0.31607 1.44129 0 2.20435 0 3H0ZM3 3H8V8H3V3Z" fill="#374957"/>
<path d="M0 21C0 21.7956 0.31607 22.5587 0.87868 23.1213C1.44129 23.6839 2.20435 24 3 24H11V13H0V21ZM3 16H8V21H3V16Z" fill="#374957"/>
</g>
<defs>
<clipPath id="clip0_406_168">
<rect width="24" height="24" fill="white"/>
</clipPath>
</defs>
</svg>
