<svg width="24" height="24" viewBox="0 0 24 24" fill="none" xmlns="http://www.w3.org/2000/svg">
<g clip-path="url(#clip0_406_405)">
<path d="M23.8 11.4777C22.9485 9.42812 21.665 7.58626 20.037 6.07772L23.057 3.05872L20.939 0.938721L17.565 4.31372C15.8543 3.39714 13.9407 2.92502 12 2.94072C3.5 2.94072 0.327 11.1287 0.2 11.4777L0 11.9997L0.2 12.5217C1.05153 14.5713 2.33504 16.4132 3.963 17.9217L0.939 20.9387L3.061 23.0607L6.435 19.6857C8.14571 20.6023 10.0593 21.0744 12 21.0587C20.5 21.0587 23.673 12.8707 23.8 12.5217L24 11.9997L23.8 11.4777ZM3.212 11.9997C3.965 10.4447 6.619 5.91572 12 5.91572C13.1385 5.91105 14.267 6.1288 15.322 6.55672L13.562 8.31672C12.8283 8.00525 12.0182 7.9201 11.2358 8.07218C10.4533 8.22426 9.73418 8.60664 9.17055 9.17027C8.60692 9.7339 8.22454 10.4531 8.07246 11.2355C7.92038 12.018 8.00553 12.828 8.317 13.5617L6.065 15.8127C4.87455 14.7398 3.90537 13.4445 3.212 11.9997ZM12 18.0837C10.8615 18.0884 9.73304 17.8706 8.678 17.4427L10.438 15.6827C11.1717 15.9942 11.9818 16.0793 12.7642 15.9273C13.5467 15.7752 14.2658 15.3928 14.8294 14.8292C15.3931 14.2655 15.7755 13.5464 15.9275 12.7639C16.0796 11.9815 15.9945 11.1714 15.683 10.4377L17.935 8.18672C19.1257 9.2594 20.0949 10.5547 20.788 11.9997C20.035 13.5547 17.381 18.0837 12 18.0837Z" fill="#374957"/>
</g>
<defs>
<clipPath id="clip0_406_405">
<rect width="24" height="24" fill="white"/>
</clipPath>
</defs>
</svg>
