<svg width="24" height="24" viewBox="0 0 24 24" fill="none" xmlns="http://www.w3.org/2000/svg">
<g clip-path="url(#clip0_406_103)">
<path d="M24 19H15.15C14.8049 18.2775 14.2225 17.6951 13.5 17.35V14H19C19.7956 14 20.5587 13.6839 21.1213 13.1213C21.6839 12.5587 22 11.7956 22 11V9H21V3.5C21 2.57174 20.6313 1.6815 19.9749 1.02513C19.3185 0.368749 18.4283 0 17.5 0H6.5C5.57174 0 4.6815 0.368749 4.02513 1.02513C3.36875 1.6815 3 2.57174 3 3.5V9H2V11C2 11.7956 2.31607 12.5587 2.87868 13.1213C3.44129 13.6839 4.20435 14 5 14H10.5V17.35C9.77745 17.6951 9.19507 18.2775 8.85 19H0V22H8.85C9.13118 22.5979 9.5767 23.1033 10.1345 23.4574C10.6923 23.8115 11.3393 23.9995 12 23.9995C12.6607 23.9995 13.3077 23.8115 13.8655 23.4574C14.4233 23.1033 14.8688 22.5979 15.15 22H24V19ZM9.414 9H6V3.5C6 3.36739 6.05268 3.24021 6.14645 3.14645C6.24021 3.05268 6.36739 3 6.5 3H17.5C17.6326 3 17.7598 3.05268 17.8536 3.14645C17.9473 3.24021 18 3.36739 18 3.5V9H14.586L13.586 10H10.414L9.414 9Z" fill="#374957"/>
</g>
<defs>
<clipPath id="clip0_406_103">
<rect width="24" height="24" fill="white"/>
</clipPath>
</defs>
</svg>
