<svg width="24" height="24" viewBox="0 0 24 24" fill="none" xmlns="http://www.w3.org/2000/svg">
<g clip-path="url(#clip0_406_390)">
<path d="M19.4119 9.58925C19.5772 8.52017 19.5092 7.428 19.2126 6.38767C18.916 5.34734 18.3979 4.38347 17.6939 3.5622C16.9898 2.74093 16.1163 2.08169 15.1335 1.62972C14.1507 1.17774 13.0817 0.943726 11.9999 0.943726C10.9182 0.943726 9.84918 1.17774 8.86635 1.62972C7.88352 2.08169 7.0101 2.74093 6.30601 3.5622C5.60191 4.38347 5.08381 5.34734 4.78726 6.38767C4.4907 7.428 4.4227 8.52017 4.58793 9.58925C3.60258 9.99718 2.71555 10.6106 1.98603 11.3885C1.25651 12.1664 0.701278 13.0909 0.357378 14.1004C0.0134789 15.1099 -0.111179 16.1811 -0.00827917 17.2425C0.0946211 18.304 0.422714 19.3314 0.954107 20.256C1.4855 21.1806 2.20798 21.9813 3.07333 22.6046C3.93868 23.2279 4.927 23.6595 5.97236 23.8705C7.01772 24.0816 8.09608 24.0673 9.13547 23.8286C10.1749 23.5899 11.1514 23.1323 11.9999 22.4862C12.8489 23.1236 13.8235 23.5733 14.8593 23.8056C15.8951 24.0379 16.9684 24.0476 18.0083 23.8339C19.0481 23.6203 20.0306 23.1882 20.8909 22.5662C21.7512 21.9443 22.4695 21.1467 22.9984 20.2263C23.5272 19.3059 23.8545 18.2836 23.9586 17.2272C24.0627 16.1707 23.9412 15.1043 23.6021 14.0983C23.263 13.0924 22.7141 12.17 21.9918 11.3921C21.2694 10.6143 20.3901 9.99872 19.4119 9.58625V9.58925ZM11.9999 4.00026C13.193 4.00158 14.3368 4.47611 15.1804 5.31974C16.0241 6.16336 16.4986 7.30719 16.4999 8.50025C16.4924 8.66775 16.4754 8.83469 16.4489 9.00025C14.8414 9.01163 13.2807 9.54274 11.9999 10.5143C10.7191 9.54274 9.15845 9.01163 7.55093 9.00025C7.52445 8.83469 7.50743 8.66775 7.49993 8.50025C7.50125 7.30719 7.97578 6.16336 8.81941 5.31974C9.66304 4.47611 10.8069 4.00158 11.9999 4.00026ZM2.99993 16.5002C3.0024 15.6416 3.25049 14.8015 3.71491 14.0793C4.17933 13.3571 4.8407 12.7828 5.62093 12.4242C6.43878 13.7554 7.65041 14.7993 9.08793 15.4112C9.03224 15.7716 9.00283 16.1356 8.99993 16.5002C9.00019 17.8122 9.34725 19.1007 10.0059 20.2352C9.32877 20.6893 8.54099 20.9508 7.72674 20.9919C6.9125 21.033 6.10239 20.8521 5.38296 20.4685C4.66353 20.085 4.06181 19.5132 3.64209 18.8143C3.22237 18.1154 3.00041 17.3155 2.99993 16.5002ZM16.4999 21.0002C15.6069 21.0013 14.7341 20.7348 13.9939 20.2352C14.6526 19.1007 14.9997 17.8122 14.9999 16.5002C14.997 16.1356 14.9676 15.7716 14.9119 15.4112C16.3495 14.7993 17.5611 13.7554 18.3789 12.4242C19.3115 12.8514 20.0699 13.5849 20.5278 14.5028C20.9858 15.4206 21.1158 16.4676 20.8963 17.4696C20.6768 18.4717 20.1209 19.3684 19.3211 20.0107C18.5213 20.653 17.5257 21.0022 16.4999 21.0002Z" fill="#374957"/>
</g>
<defs>
<clipPath id="clip0_406_390">
<rect width="24" height="24" fill="white"/>
</clipPath>
</defs>
</svg>
