<svg width="24" height="24" viewBox="0 0 24 24" fill="none" xmlns="http://www.w3.org/2000/svg">
<g clip-path="url(#clip0_406_467)">
<path d="M12 0C9.62663 0 7.30655 0.703788 5.33316 2.02236C3.35977 3.34094 1.8217 5.21509 0.913451 7.4078C0.00519943 9.60051 -0.232441 12.0133 0.230582 14.3411C0.693605 16.6689 1.83649 18.8071 3.51472 20.4853C5.19295 22.1635 7.33115 23.3064 9.65892 23.7694C11.9867 24.2324 14.3995 23.9948 16.5922 23.0866C18.7849 22.1783 20.6591 20.6402 21.9776 18.6668C23.2962 16.6935 24 14.3734 24 12C23.9966 8.81846 22.7312 5.76821 20.4815 3.51852C18.2318 1.26883 15.1815 0.00344108 12 0V0ZM12 21C10.22 21 8.47992 20.4722 6.99987 19.4832C5.51983 18.4943 4.36628 17.0887 3.68509 15.4442C3.0039 13.7996 2.82567 11.99 3.17294 10.2442C3.5202 8.49836 4.37737 6.89471 5.63604 5.63604C6.89472 4.37737 8.49836 3.5202 10.2442 3.17293C11.99 2.82567 13.7996 3.0039 15.4442 3.68508C17.0887 4.36627 18.4943 5.51983 19.4832 6.99987C20.4722 8.47991 21 10.22 21 12C20.9971 14.3861 20.0479 16.6736 18.3608 18.3607C16.6736 20.0479 14.3861 20.9971 12 21Z" fill="#374957"/>
<path d="M11.9998 6.99939C11.0109 6.99939 10.0442 7.29263 9.22197 7.84204C8.39972 8.39145 7.75886 9.17234 7.38042 10.086C7.00198 10.9996 6.90297 12.0049 7.09589 12.9748C7.28882 13.9447 7.76502 14.8357 8.46429 15.5349C9.16355 16.2342 10.0545 16.7104 11.0244 16.9033C11.9943 17.0962 12.9996 16.9972 13.9132 16.6188C14.8269 16.2404 15.6078 15.5995 16.1572 14.7772C16.7066 13.955 16.9998 12.9883 16.9998 11.9994C16.9998 10.6733 16.473 9.40154 15.5354 8.46386C14.5977 7.52617 13.3259 6.99939 11.9998 6.99939ZM11.9998 13.4994C11.7031 13.4994 11.4131 13.4114 11.1665 13.2466C10.9198 13.0818 10.7275 12.8475 10.614 12.5734C10.5005 12.2993 10.4708 11.9977 10.5286 11.7068C10.5865 11.4158 10.7294 11.1485 10.9392 10.9387C11.1489 10.729 11.4162 10.5861 11.7072 10.5282C11.9982 10.4703 12.2998 10.5 12.5738 10.6136C12.8479 10.7271 13.0822 10.9194 13.247 11.166C13.4118 11.4127 13.4998 11.7027 13.4998 11.9994C13.4998 12.3972 13.3418 12.7787 13.0605 13.0601C12.7792 13.3414 12.3976 13.4994 11.9998 13.4994Z" fill="#374957"/>
</g>
<defs>
<clipPath id="clip0_406_467">
<rect width="24" height="24" fill="white"/>
</clipPath>
</defs>
</svg>
