<svg width="24" height="24" viewBox="0 0 24 24" fill="none" xmlns="http://www.w3.org/2000/svg">
<g clip-path="url(#clip0_406_241)">
<path d="M13.5001 11.69C13.7547 11.9787 13.9206 12.3347 13.9778 12.7153C14.0351 13.0959 13.9813 13.4849 13.823 13.8358C13.6646 14.1866 13.4084 14.4842 13.085 14.693C12.7617 14.9018 12.385 15.0129 12.0001 15.0129C11.6152 15.0129 11.2385 14.9018 10.9151 14.693C10.5918 14.4842 10.3356 14.1866 10.1772 13.8358C10.0189 13.4849 9.96508 13.0959 10.0224 12.7153C10.0796 12.3347 10.2455 11.9787 10.5001 11.69V7H13.5001V11.69ZM20.4001 5.911C21.7543 7.51265 22.6223 9.46807 22.9019 11.5468C23.1815 13.6254 22.861 15.7407 21.9781 17.6433C21.0953 19.5458 19.6869 21.1563 17.9191 22.2849C16.1512 23.4135 14.0975 24.0131 12.0001 24.0131C9.90269 24.0131 7.849 23.4135 6.08112 22.2849C4.31325 21.1563 2.90488 19.5458 2.02203 17.6433C1.13918 15.7407 0.818667 13.6254 1.09826 11.5468C1.37786 9.46807 2.24591 7.51265 3.60009 5.911L2.94009 5.179L2.18409 5.936L0.0640869 3.814L3.81409 0.064L5.93609 2.186L5.06709 3.054L5.82909 3.9C7.22718 2.95195 8.82604 2.34095 10.5001 2.115V0H13.5001V2.115C15.1741 2.34095 16.773 2.95195 18.1711 3.9L18.9331 3.054L18.0641 2.186L20.1861 0.064L23.9361 3.814L21.8141 5.936L21.0581 5.179L20.4001 5.911ZM20.0001 13C20.0001 11.4178 19.5309 9.87103 18.6518 8.55544C17.7728 7.23985 16.5234 6.21447 15.0616 5.60896C13.5997 5.00346 11.9912 4.84504 10.4394 5.15372C8.88752 5.4624 7.46205 6.22433 6.34323 7.34315C5.22441 8.46197 4.46249 9.88743 4.1538 11.4393C3.84512 12.9911 4.00355 14.5997 4.60905 16.0615C5.21455 17.5233 6.23993 18.7727 7.55552 19.6518C8.87112 20.5308 10.4178 21 12.0001 21C14.1211 20.9976 16.1545 20.154 17.6543 18.6542C19.1541 17.1544 19.9977 15.121 20.0001 13Z" fill="#374957"/>
</g>
<defs>
<clipPath id="clip0_406_241">
<rect width="24" height="24" fill="white"/>
</clipPath>
</defs>
</svg>
