<svg width="24" height="24" viewBox="0 0 24 24" fill="none" xmlns="http://www.w3.org/2000/svg">
<g clip-path="url(#clip0_406_16)">
<path d="M23.0001 3H18.0001V2.5C18.0001 1.83696 17.7367 1.20107 17.2678 0.732233C16.799 0.263392 16.1631 0 15.5001 0L8.50008 0C7.83704 0 7.20115 0.263392 6.73231 0.732233C6.26347 1.20107 6.00008 1.83696 6.00008 2.5V3H1.00008V6H3.00008V21C3.00008 21.7956 3.31615 22.5587 3.87876 23.1213C4.44137 23.6839 5.20443 24 6.00008 24H18.0001C18.7957 24 19.5588 23.6839 20.1214 23.1213C20.684 22.5587 21.0001 21.7956 21.0001 21V6H23.0001V3ZM18.0001 21H6.00008V6H18.0001V21Z" fill="#374957"/>
<path d="M10.9999 9H7.99991V18H10.9999V9Z" fill="#374957"/>
<path d="M16.0001 9H13.0001V18H16.0001V9Z" fill="#374957"/>
</g>
<defs>
<clipPath id="clip0_406_16">
<rect width="24" height="24" fill="white"/>
</clipPath>
</defs>
</svg>
