<svg width="24" height="24" viewBox="0 0 24 24" fill="none" xmlns="http://www.w3.org/2000/svg">
<g clip-path="url(#clip0_406_101)">
<path d="M17.0001 23.9998C15.1561 23.9768 13.9001 22.9868 12.0001 22.9998C10.1001 22.9868 8.8431 23.9768 7.0001 23.9998C6.46231 24.0499 5.92009 23.9809 5.41203 23.7976C4.90397 23.6143 4.44256 23.3212 4.06064 22.9393C3.67872 22.5574 3.38568 22.096 3.20238 21.5879C3.01907 21.0799 2.95001 20.5376 3.0001 19.9998C3.08827 17.641 4.06478 15.4027 5.73388 13.7336C7.40298 12.0645 9.64129 11.088 12.0001 10.9998C14.3589 11.088 16.5972 12.0645 18.2663 13.7336C19.9354 15.4027 20.9119 17.641 21.0001 19.9998C21.0502 20.5376 20.9811 21.0799 20.7978 21.5879C20.6145 22.096 20.3215 22.5574 19.9396 22.9393C19.5576 23.3212 19.0962 23.6143 18.5882 23.7976C18.0801 23.9809 17.5379 24.0499 17.0001 23.9998ZM12.0001 19.9998C13.2044 20.0242 14.3965 20.2458 15.5291 20.6558C16.5751 20.9688 18.1351 21.5288 18.0001 19.9998C17.9038 18.4401 17.2407 16.9693 16.1357 15.8642C15.0307 14.7592 13.5599 14.0961 12.0001 13.9998C10.4403 14.0961 8.96952 14.7592 7.86449 15.8642C6.75946 16.9693 6.0964 18.4401 6.0001 19.9998C5.8621 21.5298 7.4281 20.9678 8.4711 20.6558C9.60369 20.2458 10.7958 20.0242 12.0001 19.9998ZM21.8441 5.01384C20.4801 4.85084 19.2441 6.14184 19.0301 8.47384C18.5971 13.9818 23.3371 14.6988 23.9711 9.06284C24.1841 6.73184 23.2081 5.17684 21.8441 5.01384ZM0.0290993 9.06284C0.664099 14.6998 5.4001 13.9778 4.9701 8.47384C4.7561 6.14184 3.5201 4.85084 2.1561 5.01384C0.792099 5.17684 -0.183901 6.73184 0.0290993 9.06284ZM5.9771 4.06284C6.6121 9.70184 11.3511 8.97784 10.9171 3.47384C10.7001 1.14184 9.4681 -0.149161 8.1001 0.0138394C6.7321 0.176839 5.7631 1.73184 5.9771 4.06284ZM15.8771 0.0138394C14.5131 -0.149161 13.2771 1.14184 13.0641 3.47384C12.6311 8.98184 17.3711 9.69884 18.0041 4.06284C18.2221 1.73184 17.2471 0.176839 15.8821 0.0138394H15.8771Z" fill="#374957"/>
</g>
<defs>
<clipPath id="clip0_406_101">
<rect width="24" height="24" fill="white"/>
</clipPath>
</defs>
</svg>
