<svg width="24" height="24" viewBox="0 0 24 24" fill="none" xmlns="http://www.w3.org/2000/svg">
<g clip-path="url(#clip0_406_72)">
<path d="M22.0238 1.97519C18.4998 -1.55382 9.37678 -0.177815 4.59977 4.59918C-0.177226 9.37619 -1.55123 18.4992 1.97577 22.0232C3.62243 23.429 5.75209 24.1378 7.91278 23.9992C12.1831 23.9602 16.2829 22.3184 19.3998 19.3992C24.1768 14.6202 25.5508 5.49919 22.0238 1.97519ZM17.2778 17.2752C14.9395 19.4166 11.9503 20.7114 8.78877 20.9522L3.04577 15.2112C3.28649 12.0496 4.58088 9.06007 6.72178 6.72119C9.06101 4.58021 12.0508 3.28583 15.2128 3.04519L20.9538 8.78619C20.7133 11.9482 19.4189 14.938 17.2778 17.2772V17.2752ZM18.3168 9.68019L16.1998 11.7992L15.2608 10.8592L14.1208 11.9992L15.0608 12.9382L12.9388 15.0602L11.9998 14.1202L10.8778 15.2422L11.8168 16.1822L9.69977 18.2992L5.69977 14.2992L7.82078 12.1782L8.76077 13.1172L9.87877 11.9992L8.93878 11.0602L11.0608 8.93819L11.9998 9.87819L13.1358 8.74219L12.1998 7.79919L14.3208 5.67818L18.3168 9.68019Z" fill="#374957"/>
</g>
<defs>
<clipPath id="clip0_406_72">
<rect width="24" height="24" fill="white"/>
</clipPath>
</defs>
</svg>
