<svg width="24" height="24" viewBox="0 0 24 24" fill="none" xmlns="http://www.w3.org/2000/svg">
<g clip-path="url(#clip0_406_79)">
<path d="M0 15.4994V23.9994H3V23.4754C3.00819 21.7562 3.6964 20.1101 4.9143 18.8967C6.1322 17.6833 7.78081 17.0012 9.5 16.9994H12.831V22.7884L22.978 13.9744C23.6327 13.3171 24.0004 12.4271 24.0004 11.4994C24.0004 10.5716 23.6327 9.68168 22.978 9.02439L22.9 8.95239L12.831 0.210388V5.99939H9.5C6.98134 6.0023 4.56667 7.00412 2.7857 8.78509C1.00474 10.5661 0.00291129 12.9807 0 15.4994H0ZM3 16.5774V15.4994C3.00212 13.7761 3.68762 12.1241 4.90614 10.9055C6.12467 9.687 7.77674 9.0015 9.5 8.99939H15.831V6.78839L20.88 11.1714C20.9591 11.2624 21.0026 11.3788 21.0026 11.4994C21.0026 11.6199 20.9591 11.7364 20.88 11.8274L15.831 16.2104V13.9994H9.5C7.08371 13.9976 4.75823 14.92 3 16.5774Z" fill="#374957"/>
</g>
<defs>
<clipPath id="clip0_406_79">
<rect width="24" height="24" fill="white"/>
</clipPath>
</defs>
</svg>
