<svg width="24" height="24" viewBox="0 0 24 24" fill="none" xmlns="http://www.w3.org/2000/svg">
<g clip-path="url(#clip0_406_458)">
<path d="M15.543 7.00067L15.725 5.92867C15.8195 5.44524 15.8076 4.94701 15.69 4.46867C15.5204 3.77778 15.1415 3.15618 14.605 2.68894C14.0686 2.22171 13.4008 1.93168 12.6932 1.85856C11.9856 1.78543 11.2727 1.93278 10.652 2.28043C10.0313 2.62809 9.53328 3.15906 9.226 3.80067L7.59 7.00067H3C2.20435 7.00067 1.44129 7.31674 0.87868 7.87935C0.31607 8.44196 0 9.20502 0 10.0007L0 19.0007C0 19.7963 0.31607 20.5594 0.87868 21.122C1.44129 21.6846 2.20435 22.0007 3 22.0007H22.02L24 11.3457L24.025 7.00067H15.543ZM3 10.0007H7V19.0007H3V10.0007ZM21 10.9347L19.5 19.0007H10V8.86167L11.919 5.10067C11.9566 5.02708 12.0139 4.96539 12.0846 4.92249C12.1552 4.87958 12.2364 4.85714 12.319 4.85767C12.3837 4.85776 12.4477 4.87198 12.5063 4.89932C12.565 4.92666 12.617 4.96648 12.6587 5.01599C12.7004 5.0655 12.7308 5.12351 12.7478 5.18598C12.7648 5.24844 12.7679 5.31386 12.757 5.37767L11.974 10.0007H21V10.9347Z" fill="#374957"/>
</g>
<defs>
<clipPath id="clip0_406_458">
<rect width="24" height="24" fill="white"/>
</clipPath>
</defs>
</svg>
