<svg width="24" height="24" viewBox="0 0 24 24" fill="none" xmlns="http://www.w3.org/2000/svg">
<g clip-path="url(#clip0_406_172)">
<path d="M21.879 1L18 4.879V18H16V3.5C16 2.57174 15.6313 1.6815 14.9749 1.02513C14.3185 0.368749 13.4283 0 12.5 0H3.5C2.57174 0 1.6815 0.368749 1.02513 1.02513C0.368749 1.6815 0 2.57174 0 3.5L0 24H16V21H21V6.121L24 3.121L21.879 1ZM3.5 3H12.5C12.6326 3 12.7598 3.05268 12.8536 3.14645C12.9473 3.24021 13 3.36739 13 3.5V9H10.816C10.7238 8.73561 10.5948 8.4855 10.433 8.257L12.2 5.9L9.8 4.1L7.594 7.041C7.05117 7.11485 6.53915 7.3367 6.11405 7.68225C5.68895 8.0278 5.36718 8.48371 5.184 9H3V3.5C3 3.36739 3.05268 3.24021 3.14645 3.14645C3.24021 3.05268 3.36739 3 3.5 3ZM3 21V12H13V21H3Z" fill="#374957"/>
</g>
<defs>
<clipPath id="clip0_406_172">
<rect width="24" height="24" fill="white"/>
</clipPath>
</defs>
</svg>
