<svg width="24" height="24" viewBox="0 0 24 24" fill="none" xmlns="http://www.w3.org/2000/svg">
<g clip-path="url(#clip0_406_479)">
<path d="M8.12323 11.9261L10.059 9.99134L8.12323 8.05658L10.2406 5.93923L12.1753 7.87503L14.1101 5.93928L16.2274 8.05662L14.2917 9.99139L16.2274 11.9262L14.1101 14.0435L12.1753 12.1077L10.2406 14.0435L8.12323 11.9261ZM5.00707 17.1267C1.04876 13.2926 0.948072 6.97564 4.78217 3.01733C8.61626 -0.940986 14.9332 -1.04167 18.8915 2.79242C18.9642 2.86273 19.0357 2.93417 19.1061 3.00669C23.0028 6.90336 23.0028 13.221 19.1061 17.1177L12.0506 24.0186L5.00707 17.1267ZM5.06595 10.0602C5.06117 11.9136 5.79767 13.692 7.11148 14.9994L12.0507 19.8297L17.0008 14.9874C19.7223 12.2535 19.7122 7.83106 16.9783 5.10959C14.2444 2.38812 9.82198 2.3982 7.10051 5.13209C5.79734 6.44117 5.06581 8.21314 5.06595 10.0602Z" fill="#374957"/>
</g>
<defs>
<clipPath id="clip0_406_479">
<rect width="24" height="24" fill="white"/>
</clipPath>
</defs>
</svg>
