<svg width="24" height="24" viewBox="0 0 24 24" fill="none" xmlns="http://www.w3.org/2000/svg">
<g clip-path="url(#clip0_406_473)">
<path d="M23.2682 0.733638C22.9717 0.435839 22.6047 0.217945 22.2013 0.100266C21.7979 -0.0174126 21.3713 -0.0310455 20.9612 0.0606383L16.9892 1.35464L5.42219 12.9226C4.096 12.2484 2.67728 11.7743 1.21219 11.5156L0.783189 14.4846C2.45703 14.8024 4.04662 15.4643 5.45119 16.4286L3.20719 18.6726L2.15219 17.6176L0.031189 19.7386L4.27119 23.9796L6.39219 21.8586L5.32819 20.7936L7.57119 18.5506C8.53608 19.9546 9.19843 21.544 9.51619 23.2176L12.4852 22.7886C12.2266 21.3239 11.7525 19.9054 11.0782 18.5796L22.6462 7.01264L23.9412 3.03964C24.0325 2.6297 24.0187 2.20332 23.901 1.80015C23.7834 1.39698 23.5657 1.03011 23.2682 0.733638ZM20.0182 5.40064L9.40019 16.0156C9.18919 15.7626 8.96819 15.5156 8.72719 15.2726C8.48619 15.0296 8.23819 14.8116 7.98619 14.6006L18.6002 3.98164L20.7002 3.29264L20.0182 5.40064Z" fill="#374957"/>
</g>
<defs>
<clipPath id="clip0_406_473">
<rect width="24" height="24" fill="white"/>
</clipPath>
</defs>
</svg>
