<svg width="24" height="24" viewBox="0 0 24 24" fill="none" xmlns="http://www.w3.org/2000/svg">
<g clip-path="url(#clip0_406_296)">
<path d="M21.973 11.216C21.748 8.63038 20.6293 6.20391 18.8093 4.35361C16.9893 2.5033 14.5816 1.34473 12 1.077V0H5.50003C4.57177 0 3.68153 0.368749 3.02516 1.02513C2.36878 1.6815 2.00003 2.57174 2.00003 3.5V20.5C2.00003 21.4283 2.36878 22.3185 3.02516 22.9749C3.68153 23.6313 4.57177 24 5.50003 24H12V22.961C14.6877 22.7226 17.1923 21.4988 19.032 19.525C20.0643 18.4147 20.8579 17.1045 21.3637 15.6753C21.8696 14.2462 22.0769 12.7285 21.973 11.216ZM16.838 17.479C16.1068 18.275 15.218 18.9102 14.2281 19.3442C13.2382 19.7782 12.1689 20.0015 11.088 20H9.00003V21H5.50003C5.36742 21 5.24025 20.9473 5.14648 20.8536C5.05271 20.7598 5.00003 20.6326 5.00003 20.5V19H7.00003V16H5.00003V13.5H7.00003V10.5H5.00003V8H7.00003V5H5.00003V3.5C5.00003 3.36739 5.05271 3.24021 5.14648 3.14645C5.24025 3.05268 5.36742 3 5.50003 3H9.00003V4H10.663C12.7297 3.96318 14.7341 4.70743 16.2759 6.08408C17.8178 7.46073 18.7834 9.3684 18.98 11.426C19.0624 12.5283 18.9145 13.6357 18.5457 14.6778C18.177 15.7199 17.5954 16.6738 16.838 17.479ZM15 12C15 13.1052 14.561 14.1651 13.7795 14.9465C12.9981 15.728 11.9382 16.167 10.833 16.167H10V7.833H10.833C11.9382 7.833 12.9981 8.27202 13.7795 9.05349C14.561 9.83495 15 10.8948 15 12Z" fill="#374957"/>
</g>
<defs>
<clipPath id="clip0_406_296">
<rect width="24" height="24" fill="white"/>
</clipPath>
</defs>
</svg>
