<svg width="24" height="24" viewBox="0 0 24 24" fill="none" xmlns="http://www.w3.org/2000/svg">
<g clip-path="url(#clip0_406_102)">
<path d="M19.0001 2V0H16.0001V2H13.5001V0H10.5001V2H8.00012V0H5.00012V2H2.00012V20.5C2.00012 21.4283 2.36887 22.3185 3.02525 22.9749C3.68163 23.6313 4.57186 24 5.50012 24H18.5001C19.4284 24 20.3186 23.6313 20.975 22.9749C21.6314 22.3185 22.0001 21.4283 22.0001 20.5V2H19.0001ZM19.0001 20.5C19.0001 20.6326 18.9474 20.7598 18.8537 20.8536C18.7599 20.9473 18.6327 21 18.5001 21H5.50012C5.36751 21 5.24034 20.9473 5.14657 20.8536C5.0528 20.7598 5.00012 20.6326 5.00012 20.5V5H19.0001V20.5ZM17.0001 10H7.00012V7H17.0001V10ZM13.0001 15H7.00012V12H13.0001V15Z" fill="#374957"/>
</g>
<defs>
<clipPath id="clip0_406_102">
<rect width="24" height="24" fill="white"/>
</clipPath>
</defs>
</svg>
