<svg width="24" height="24" viewBox="0 0 24 24" fill="none" xmlns="http://www.w3.org/2000/svg">
<g clip-path="url(#clip0_406_252)">
<path d="M12 24C9.62663 24 7.30655 23.2962 5.33316 21.9776C3.35977 20.6591 1.8217 18.7849 0.913451 16.5922C0.00519943 14.3995 -0.232441 11.9867 0.230582 9.65892C0.693605 7.33115 1.83649 5.19295 3.51472 3.51472C5.19295 1.83649 7.33115 0.693605 9.65892 0.230582C11.9867 -0.232441 14.3995 0.00519943 16.5922 0.913451C18.7849 1.8217 20.6591 3.35977 21.9776 5.33316C23.2962 7.30655 24 9.62663 24 12C23.9966 15.1815 22.7312 18.2318 20.4815 20.4815C18.2318 22.7312 15.1815 23.9966 12 24ZM12 3.00001C10.22 3.00001 8.47992 3.52785 6.99987 4.51678C5.51983 5.50571 4.36628 6.91132 3.68509 8.55585C3.0039 10.2004 2.82567 12.01 3.17294 13.7558C3.5202 15.5016 4.37737 17.1053 5.63604 18.364C6.89472 19.6226 8.49836 20.4798 10.2442 20.8271C11.99 21.1743 13.7996 20.9961 15.4442 20.3149C17.0887 19.6337 18.4943 18.4802 19.4832 17.0001C20.4722 15.5201 21 13.78 21 12C20.9971 9.61395 20.0479 7.32646 18.3608 5.63926C16.6736 3.95206 14.3861 3.00292 12 3.00001Z" fill="#374957"/>
<path d="M11.9329 18.769C10.8194 18.769 9.72307 18.4943 8.74106 17.9693C7.75905 17.4443 6.92167 16.6853 6.3031 15.7594C5.68453 14.8334 5.30387 13.7692 5.19483 12.6611C5.0858 11.5529 5.25175 10.4349 5.678 9.4062C6.10424 8.37748 6.77762 7.46976 7.63848 6.76345C8.49934 6.05714 9.52111 5.57405 10.6133 5.35697C11.7054 5.13988 12.8343 5.19551 13.8998 5.51892C14.9653 5.84232 15.9347 6.42353 16.7219 7.21105L14.5999 9.33305C14.0724 8.80547 13.4003 8.44616 12.6686 8.30057C11.9369 8.15498 11.1784 8.22965 10.4892 8.51512C9.79989 8.8006 9.21075 9.28406 8.79625 9.90438C8.38176 10.5247 8.16052 11.254 8.16052 12.0001C8.16052 12.7461 8.38176 13.4754 8.79625 14.0957C9.21075 14.716 9.79989 15.1995 10.4892 15.485C11.1784 15.7705 11.9369 15.8451 12.6686 15.6995C13.4003 15.5539 14.0724 15.1946 14.5999 14.6671L16.7209 16.7891C16.0925 17.4181 15.3461 17.9168 14.5244 18.2566C13.7027 18.5964 12.8221 18.7705 11.9329 18.769Z" fill="#374957"/>
</g>
<defs>
<clipPath id="clip0_406_252">
<rect width="24" height="24" fill="white"/>
</clipPath>
</defs>
</svg>
