<svg width="24" height="24" viewBox="0 0 24 24" fill="none" xmlns="http://www.w3.org/2000/svg">
<path d="M12 0.00695801C10.0209 0.00717939 8.08648 0.59461 6.44149 1.69488C4.7965 2.79515 3.51496 4.35877 2.75914 6.18779C2.00331 8.01681 1.80718 10.029 2.19558 11.9695C2.58397 13.9101 3.53943 15.6917 4.94098 17.089L12 23.994L19.071 17.077C20.4691 15.6784 21.4212 13.8967 21.8069 11.957C22.1925 10.0174 21.9944 8.00699 21.2376 6.17995C20.4807 4.35291 19.1992 2.79129 17.5549 1.69253C15.9107 0.593758 13.9776 0.00718254 12 0.00695801ZM16.961 14.944L12 19.8L7.04998 14.956C5.73716 13.6431 4.99963 11.8626 4.99963 10.006C4.99963 8.14935 5.73716 6.36878 7.04998 5.05596C8.36281 3.74314 10.1434 3.0056 12 3.0056C13.8566 3.0056 15.6372 3.74314 16.95 5.05596C18.2604 6.36674 18.9974 8.14373 18.9995 9.99718C19.0016 11.8506 18.2685 13.6293 16.961 14.943V14.944ZM16 9.40896V13H13V11H11V13H7.99998V9.40896C7.99993 9.17837 8.05305 8.95087 8.1552 8.74413C8.25735 8.5374 8.40579 8.35701 8.58898 8.21696L11.089 6.30796C11.3506 6.10798 11.6707 5.99963 12 5.99963C12.3293 5.99963 12.6494 6.10798 12.911 6.30796L15.411 8.21696C15.5942 8.35701 15.7426 8.5374 15.8448 8.74413C15.9469 8.95087 16 9.17837 16 9.40896Z" fill="#374957"/>
</svg>
