<svg width="24" height="24" viewBox="0 0 24 24" fill="none" xmlns="http://www.w3.org/2000/svg">
<g clip-path="url(#clip0_406_323)">
<path d="M14 20.9999C12.3259 20.9976 10.6857 20.5284 9.26363 19.6452C7.84156 18.7619 6.69402 17.4995 5.95 15.9999H16V12.9999H5.059C4.9803 12.3355 4.9803 11.6642 5.059 10.9999H16V7.99986H5.95C6.61583 6.65526 7.60765 5.49872 8.83501 4.63569C10.0624 3.77265 11.4863 3.23058 12.9768 3.05888C14.4674 2.88719 15.9772 3.09134 17.3687 3.65272C18.7601 4.2141 19.9889 5.11486 20.943 6.27286L23.257 4.36286C21.9063 2.72436 20.1447 1.47398 18.1523 0.739593C16.1599 0.00520772 14.0082 -0.186835 11.9173 0.183103C9.82631 0.553042 7.87112 1.47169 6.25164 2.8451C4.63215 4.21851 3.4065 5.9974 2.7 7.99986H0V10.9999H2.051C2.023 11.3309 2 11.6619 2 11.9999C2 12.3379 2.023 12.6689 2.051 12.9999H0V15.9999H2.7C3.4065 18.0023 4.63215 19.7812 6.25164 21.1546C7.87112 22.528 9.82631 23.4467 11.9173 23.8166C14.0082 24.1865 16.1599 23.9945 18.1523 23.2601C20.1447 22.5257 21.9063 21.2754 23.257 19.6369L20.943 17.7269C20.0997 18.7518 19.0396 19.577 17.839 20.1429C16.6384 20.7089 15.3273 21.0016 14 20.9999Z" fill="#374957"/>
</g>
<defs>
<clipPath id="clip0_406_323">
<rect width="24" height="24" fill="white"/>
</clipPath>
</defs>
</svg>
