<svg width="24" height="24" viewBox="0 0 24 24" fill="none" xmlns="http://www.w3.org/2000/svg">
<g clip-path="url(#clip0_406_43)">
<path d="M13.5 4H10.5V0H13.5V4ZM13.5 20H10.5V24H13.5V20ZM4 10.5H0V13.5H4V10.5ZM24 10.5H20V13.5H24V10.5ZM23.126 16.732L19.668 14.723L18.16 17.316L21.618 19.326L23.126 16.732ZM19.326 2.378L16.729 0.87L14.72 4.329L17.313 5.837L19.326 2.378ZM23.137 7.254L21.627 4.662L18.169 6.676L19.679 9.268L23.137 7.254ZM19.35 21.613L17.336 18.157L14.744 19.667L16.758 23.123L19.35 21.613ZM5.856 17.313L4.349 14.723L0.89 16.732L2.4 19.326L5.856 17.313ZM9.3 4.329L7.287 0.87L4.693 2.378L6.7 5.837L9.3 4.329ZM5.848 6.676L2.392 4.662L0.882 7.254L4.338 9.268L5.848 6.676ZM9.272 19.668L6.681 18.156L4.666 21.612L7.258 23.124L9.272 19.668Z" fill="#374957"/>
</g>
<defs>
<clipPath id="clip0_406_43">
<rect width="24" height="24" fill="white"/>
</clipPath>
</defs>
</svg>
