<svg width="24" height="24" viewBox="0 0 24 24" fill="none" xmlns="http://www.w3.org/2000/svg">
<g clip-path="url(#clip0_405_1665)">
<path d="M23.5604 1.12044C22.9748 0.535048 22.0256 0.535048 21.44 1.12044L16.6774 5.88307C14.7599 4.16007 11.9038 3.99765 9.80337 5.4922C8.56702 6.41242 7.19773 7.13887 5.74254 7.64657L3.95407 8.17043C1.03985 9.02411 -0.630529 12.0786 0.223193 14.9929C0.288097 15.2144 0.366871 15.4316 0.459094 15.6433C1.54703 18.3406 3.54174 20.5739 6.09948 21.9585C8.11612 22.9052 10.3255 23.3693 12.5526 23.3141H12.6156C13.3662 23.3143 14.0966 23.0708 14.697 22.6203C17.8463 20.3585 19.9992 16.9665 20.7052 13.154C21.0182 11.3573 20.4285 9.52159 19.1277 8.2434L18.8398 7.96349L23.5634 3.23886C24.1466 2.65267 24.1453 1.70495 23.5604 1.12044ZM12.8835 20.23C12.8012 20.2888 12.7017 20.3187 12.6006 20.3149C11.5501 20.3146 10.5024 20.2078 9.47346 19.996C10.812 19.1587 11.9647 18.056 12.8605 16.756L13.3543 16.0292C13.8338 15.3539 13.6751 14.4178 12.9998 13.9383C12.3245 13.4589 11.3884 13.6176 10.9089 14.2929C10.8973 14.3092 10.886 14.3258 10.875 14.3427L10.3812 15.0675C9.56255 16.2636 8.45399 17.2325 7.15912 17.8837L6.12142 18.4045C5.53874 17.9316 5.01694 17.3883 4.56786 16.787C5.95468 16.2213 7.21914 15.3931 8.2918 14.3477C8.87486 13.7596 8.87068 12.8101 8.28253 12.227C7.70618 11.6558 6.77996 11.6466 6.19241 12.2063C5.31296 13.0599 4.26153 13.716 3.10831 14.1308C2.72138 12.8179 3.47205 11.4399 4.78492 11.053C4.78989 11.0516 4.79486 11.0501 4.79983 11.0487L6.58633 10.5238C8.12132 10.0122 9.57628 9.28625 10.9081 8.36744L17.2342 14.5326C16.3694 16.8147 14.8573 18.7947 12.8835 20.23Z" fill="#374957"/>
</g>
<defs>
<clipPath id="clip0_405_1665">
<rect width="24" height="24" fill="white"/>
</clipPath>
</defs>
</svg>
