<svg width="24" height="24" viewBox="0 0 24 24" fill="none" xmlns="http://www.w3.org/2000/svg">
<g clip-path="url(#clip0_405_1615)">
<path d="M23.9998 11.2459C23.8548 8.90628 23.0283 6.66022 21.6223 4.7846C20.2163 2.90897 18.2922 1.48576 16.0871 0.690412C13.882 -0.104941 11.4924 -0.237673 9.21286 0.308577C6.93328 0.854827 4.86336 2.05618 3.25827 3.76455C1.65317 5.47292 0.58305 7.61364 0.179822 9.92281C-0.223407 12.232 0.0578811 14.6087 0.989011 16.7599C1.92014 18.9112 3.46041 20.7429 5.41996 22.0294C7.3795 23.3159 9.67267 24.0009 12.0168 23.9999H18.4998C19.9579 23.9981 21.3558 23.418 22.3868 22.3869C23.4179 21.3559 23.9979 19.958 23.9998 18.4999V11.3399V11.2459ZM20.9998 18.4999C20.9998 19.1629 20.7364 19.7988 20.2675 20.2677C19.7987 20.7365 19.1628 20.9999 18.4998 20.9999H12.0168C10.7463 20.9992 9.49014 20.7306 8.33037 20.2118C7.17059 19.693 6.13318 18.9356 5.28578 17.9889C4.43464 17.0429 3.79559 15.9259 3.4115 14.7128C3.0274 13.4996 2.90714 12.2184 3.05878 10.9549C3.29804 8.96309 4.1932 7.10748 5.60322 5.68044C7.01324 4.2534 8.85798 3.33605 10.8468 3.07291C11.2359 3.02435 11.6276 2.99997 12.0198 2.99991C14.1159 2.99391 16.1474 3.72523 17.7588 5.06591C18.6982 5.84622 19.4697 6.80881 20.0267 7.89556C20.5837 8.98231 20.9148 10.1707 20.9998 11.3889V18.4999Z" fill="#374957"/>
<path d="M9.50015 11.0001H12.5002C12.898 11.0001 13.2795 10.8421 13.5608 10.5608C13.8421 10.2795 14.0002 9.89795 14.0002 9.50012C14.0002 9.1023 13.8421 8.72077 13.5608 8.43946C13.2795 8.15816 12.898 8.00012 12.5002 8.00012H9.50015C9.10233 8.00012 8.7208 8.15816 8.43949 8.43946C8.15819 8.72077 8.00015 9.1023 8.00015 9.50012C8.00015 9.89795 8.15819 10.2795 8.43949 10.5608C8.7208 10.8421 9.10233 11.0001 9.50015 11.0001Z" fill="#374957"/>
<path d="M16.5002 12.9999H9.50015C9.10233 12.9999 8.7208 13.1579 8.43949 13.4392C8.15819 13.7205 8.00015 14.1021 8.00015 14.4999C8.00015 14.8977 8.15819 15.2792 8.43949 15.5605C8.7208 15.8418 9.10233 15.9999 9.50015 15.9999H16.5002C16.898 15.9999 17.2795 15.8418 17.5608 15.5605C17.8421 15.2792 18.0002 14.8977 18.0002 14.4999C18.0002 14.1021 17.8421 13.7205 17.5608 13.4392C17.2795 13.1579 16.898 12.9999 16.5002 12.9999Z" fill="#374957"/>
</g>
<defs>
<clipPath id="clip0_405_1615">
<rect width="24" height="24" fill="white"/>
</clipPath>
</defs>
</svg>
