<svg width="24" height="24" viewBox="0 0 24 24" fill="none" xmlns="http://www.w3.org/2000/svg">
<g clip-path="url(#clip0_405_1394)">
<path d="M13.5 8.49939C13.5 8.10156 13.342 7.72003 13.0607 7.43873C12.7794 7.15742 12.3978 6.99939 12 6.99939C11.6022 6.99939 11.2206 7.15742 10.9393 7.43873C10.658 7.72003 10.5 8.10156 10.5 8.49939V11.6894C10.2454 11.9781 10.0795 12.3341 10.0223 12.7147C9.96499 13.0953 10.0188 13.4843 10.1771 13.8351C10.3355 14.1859 10.5917 14.4836 10.9151 14.6924C11.2384 14.9012 11.6151 15.0123 12 15.0123C12.3849 15.0123 12.7616 14.9012 13.085 14.6924C13.4083 14.4836 13.6645 14.1859 13.8229 13.8351C13.9813 13.4843 14.035 13.0953 13.9778 12.7147C13.9205 12.3341 13.7546 11.9781 13.5 11.6894V8.49939Z" fill="#374957"/>
<path d="M22.5 5.5C22.8978 5.5 23.2794 5.34197 23.5607 5.06066C23.842 4.77936 24 4.39783 24 4C24 3.60218 23.842 3.22064 23.5607 2.93934C23.2794 2.65804 22.8978 2.5 22.5 2.5C21.659 2.5 21.5 2.341 21.5 1.5C21.5 1.10218 21.342 0.720644 21.0607 0.43934C20.7794 0.158035 20.3978 0 20 0C19.6022 0 19.2206 0.158035 18.9393 0.43934C18.658 0.720644 18.5 1.10218 18.5 1.5C18.4925 2.08439 18.5904 2.66536 18.789 3.215L18.171 3.9C16.7729 2.95195 15.174 2.34095 13.5 2.115V1.5C13.5 1.10218 13.342 0.720644 13.0607 0.43934C12.7794 0.158035 12.3978 0 12 0C11.6022 0 11.2206 0.158035 10.9393 0.43934C10.658 0.720644 10.5 1.10218 10.5 1.5V2.115C8.82596 2.34095 7.2271 2.95195 5.829 3.9L5.211 3.215C5.40965 2.66536 5.50755 2.08439 5.5 1.5C5.5 1.10218 5.34196 0.720644 5.06066 0.43934C4.77936 0.158035 4.39782 0 4 0C3.60218 0 3.22064 0.158035 2.93934 0.43934C2.65804 0.720644 2.5 1.10218 2.5 1.5C2.5 2.341 2.341 2.5 1.5 2.5C1.10218 2.5 0.720644 2.65804 0.43934 2.93934C0.158035 3.22064 0 3.60218 0 4C0 4.39783 0.158035 4.77936 0.43934 5.06066C0.720644 5.34197 1.10218 5.5 1.5 5.5C2.01666 5.50258 2.53054 5.4243 3.023 5.268L3.602 5.911C2.24782 7.51265 1.37977 9.46807 1.10017 11.5468C0.82058 13.6254 1.1411 15.7407 2.02394 17.6433C2.90679 19.5458 4.31516 21.1563 6.08304 22.2849C7.85091 23.4135 9.9046 24.0131 12.002 24.0131C14.0994 24.0131 16.1531 23.4135 17.921 22.2849C19.6888 21.1563 21.0972 19.5458 21.9801 17.6433C22.8629 15.7407 23.1834 13.6254 22.9038 11.5468C22.6242 9.46807 21.7562 7.51265 20.402 5.911L20.981 5.268C21.4722 5.42388 21.9847 5.50216 22.5 5.5ZM12 21C10.4177 21 8.87103 20.5308 7.55544 19.6518C6.23984 18.7727 5.21447 17.5233 4.60896 16.0615C4.00346 14.5997 3.84504 12.9911 4.15372 11.4393C4.4624 9.88743 5.22433 8.46197 6.34315 7.34315C7.46197 6.22433 8.88743 5.4624 10.4393 5.15372C11.9911 4.84504 13.5997 5.00346 15.0615 5.60896C16.5233 6.21447 17.7727 7.23985 18.6518 8.55544C19.5308 9.87103 20 11.4178 20 13C19.9976 15.121 19.154 17.1544 17.6542 18.6542C16.1544 20.154 14.121 20.9976 12 21Z" fill="#374957"/>
</g>
<defs>
<clipPath id="clip0_405_1394">
<rect width="24" height="24" fill="white"/>
</clipPath>
</defs>
</svg>
