<svg width="24" height="24" viewBox="0 0 24 24" fill="none" xmlns="http://www.w3.org/2000/svg">
<g clip-path="url(#clip0_405_1809)">
<path d="M23.4991 17.6724L15.9229 2.43017C14.847 0.263933 12.2188 -0.619988 10.0525 0.455887C9.19661 0.880949 8.50328 1.57432 8.07817 2.43021L0.502002 17.6724C-0.574529 19.839 0.309158 22.468 2.47567 23.5445C3.08149 23.8455 3.74885 24.0021 4.42535 24.002H19.5758C21.995 24.0023 23.9564 22.0413 23.9567 19.622C23.9568 18.9456 23.8001 18.2783 23.4991 17.6724ZM18.5877 14.5206H5.41342L7.39755 10.5284H16.6055L18.5877 14.5206ZM12.0005 2.99309C12.5285 2.98728 13.0124 3.28714 13.2421 3.76259L15.1165 7.53425H8.88461L10.759 3.76259C10.9891 3.28751 11.4727 2.98779 12.0005 2.99309ZM20.7544 20.3512C20.5043 20.762 20.0568 21.0114 19.5757 21.0079H4.42535C3.65974 21.0079 3.03902 20.3873 3.03902 19.6217C3.03902 19.4076 3.08856 19.1965 3.18377 19.0048L3.9243 17.5147H20.0768L20.8173 19.0048C21.0352 19.4333 21.0113 19.9449 20.7544 20.3512Z" fill="#374957"/>
</g>
<defs>
<clipPath id="clip0_405_1809">
<rect width="24" height="24" fill="white"/>
</clipPath>
</defs>
</svg>
