<svg width="24" height="24" viewBox="0 0 24 24" fill="none" xmlns="http://www.w3.org/2000/svg">
<g clip-path="url(#clip0_405_1334)">
<path d="M23.9899 1C23.9899 0.734784 23.8845 0.48043 23.697 0.292893C23.5094 0.105357 23.2551 0 22.9899 0L18.4209 0C18.2231 4.22243e-05 18.0298 0.0587141 17.8654 0.168598C17.701 0.278483 17.5728 0.434646 17.4972 0.617345C17.4215 0.800045 17.4017 1.00108 17.4403 1.19503C17.4788 1.38898 17.574 1.56715 17.7139 1.707L18.9429 2.936L16.9049 4.974C15.8675 4.32867 14.6682 3.9914 13.4466 4.0015C12.225 4.01159 11.0314 4.36862 10.0049 5.031C9.20919 4.52073 8.31174 4.19028 7.37516 4.06271C6.43858 3.93514 5.48544 4.01354 4.58229 4.29242C3.67914 4.5713 2.84775 5.04395 2.14615 5.67737C1.44456 6.31079 0.889672 7.08971 0.520235 7.95975C0.150798 8.82979 -0.0242857 9.76998 0.00720739 10.7147C0.0387005 11.6594 0.276012 12.5858 0.702572 13.4293C1.12913 14.2728 1.73466 15.0131 2.47689 15.5984C3.21911 16.1837 4.08014 16.5999 4.99985 16.818V18H3.99985C3.60203 18 3.2205 18.158 2.93919 18.4393C2.65789 18.7206 2.49985 19.1022 2.49985 19.5C2.49985 19.8978 2.65789 20.2794 2.93919 20.5607C3.2205 20.842 3.60203 21 3.99985 21H4.99985V22.5C4.99985 22.8978 5.15789 23.2794 5.43919 23.5607C5.7205 23.842 6.10203 24 6.49985 24C6.89768 24 7.27921 23.842 7.56051 23.5607C7.84182 23.2794 7.99985 22.8978 7.99985 22.5V21H8.99985C9.39768 21 9.77921 20.842 10.0605 20.5607C10.3418 20.2794 10.4999 19.8978 10.4999 19.5C10.4999 19.1022 10.3418 18.7206 10.0605 18.4393C9.77921 18.158 9.39768 18 8.99985 18H7.99985V16.809C8.70909 16.6437 9.38528 16.3597 9.99985 15.969C11.2376 16.7641 12.7089 17.1149 14.1723 16.9639C15.6357 16.8129 17.0043 16.1691 18.0537 15.138C19.103 14.1069 19.7708 12.7498 19.9474 11.2893C20.1241 9.82874 19.7991 8.35155 19.0259 7.1L21.0639 5.062L22.2929 6.291C22.4331 6.43124 22.6119 6.5266 22.8065 6.56494C23.0012 6.60329 23.2028 6.5829 23.3858 6.50636C23.5687 6.42982 23.7248 6.30059 23.8342 6.1351C23.9435 5.96961 24.0012 5.77535 23.9999 5.577L23.9899 1ZM2.99985 10.5C2.9975 9.92185 3.13897 9.3522 3.41154 8.84233C3.6841 8.33246 4.0792 7.89839 4.56126 7.5792C5.04331 7.26001 5.59719 7.06573 6.17301 7.01385C6.74883 6.96197 7.32851 7.05412 7.85985 7.282C7.29644 8.26089 6.99991 9.37055 6.99991 10.5C6.99991 11.6295 7.29644 12.7391 7.85985 13.718C7.32851 13.9459 6.74883 14.038 6.17301 13.9862C5.59719 13.9343 5.04331 13.74 4.56126 13.4208C4.0792 13.1016 3.6841 12.6675 3.41154 12.1577C3.13897 11.6478 2.9975 11.0781 2.99985 10.5ZM13.4999 14C12.8076 14 12.1309 13.7947 11.5554 13.4101C10.9798 13.0256 10.5312 12.4789 10.2663 11.8394C10.0014 11.1999 9.93206 10.4961 10.0671 9.81718C10.2022 9.13825 10.5355 8.51461 11.025 8.02513C11.5145 7.53564 12.1381 7.2023 12.817 7.06725C13.496 6.9322 14.1997 7.00151 14.8392 7.26642C15.4788 7.53133 16.0254 7.97993 16.41 8.5555C16.7946 9.13108 16.9999 9.80777 16.9999 10.5C16.9999 11.4283 16.6311 12.3185 15.9747 12.9749C15.3183 13.6313 14.4281 14 13.4999 14Z" fill="#374957"/>
</g>
<defs>
<clipPath id="clip0_405_1334">
<rect width="24" height="24" fill="white"/>
</clipPath>
</defs>
</svg>
