<svg width="24" height="24" viewBox="0 0 24 24" fill="none" xmlns="http://www.w3.org/2000/svg">
<g clip-path="url(#clip0_405_1341)">
<path d="M19 8.762V4.5C18.9987 3.30693 18.5241 2.16311 17.6805 1.31948C16.8369 0.475854 15.6931 0.00132343 14.5 0L9.5 0C8.30693 0.00132343 7.16311 0.475854 6.31948 1.31948C5.47585 2.16311 5.00132 3.30693 5 4.5V8.762C4.38518 9.17279 3.88107 9.72875 3.53223 10.3807C3.1834 11.0327 3.0006 11.7606 3 12.5V15C3 17.3869 3.94821 19.6761 5.63604 21.364C7.32387 23.0518 9.61305 24 12 24C14.3869 24 16.6761 23.0518 18.364 21.364C20.0518 19.6761 21 17.3869 21 15V12.5C20.9994 11.7606 20.8166 11.0327 20.4678 10.3807C20.1189 9.72875 19.6148 9.17279 19 8.762ZM8 4.5C8 4.10218 8.15804 3.72064 8.43934 3.43934C8.72064 3.15804 9.10218 3 9.5 3H14.5C14.8978 3 15.2794 3.15804 15.5607 3.43934C15.842 3.72064 16 4.10218 16 4.5V8H14C14 7.46957 13.7893 6.96086 13.4142 6.58579C13.0391 6.21071 12.5304 6 12 6C11.4696 6 10.9609 6.21071 10.5858 6.58579C10.2107 6.96086 10 7.46957 10 8H8V4.5ZM18 15C18 16.5913 17.3679 18.1174 16.2426 19.2426C15.1174 20.3679 13.5913 21 12 21C10.4087 21 8.88258 20.3679 7.75736 19.2426C6.63214 18.1174 6 16.5913 6 15V12.5C6 12.1022 6.15804 11.7206 6.43934 11.4393C6.72064 11.158 7.10218 11 7.5 11H16.5C16.8978 11 17.2794 11.158 17.5607 11.4393C17.842 11.7206 18 12.1022 18 12.5V15Z" fill="#374957"/>
</g>
<defs>
<clipPath id="clip0_405_1341">
<rect width="24" height="24" fill="white"/>
</clipPath>
</defs>
</svg>
