<svg width="24" height="24" viewBox="0 0 24 24" fill="none" xmlns="http://www.w3.org/2000/svg">
<g clip-path="url(#clip0_405_1438)">
<path d="M16.5002 0H7.50015C6.04195 0.00158817 4.64393 0.581561 3.61282 1.61267C2.58171 2.64377 2.00174 4.0418 2.00015 5.5V18.5C2.00174 19.9582 2.58171 21.3562 3.61282 22.3873C4.64393 23.4184 6.04195 23.9984 7.50015 24H16.5002C17.9584 23.9984 19.3564 23.4184 20.3875 22.3873C21.4186 21.3562 21.9986 19.9582 22.0002 18.5V5.5C21.9986 4.0418 21.4186 2.64377 20.3875 1.61267C19.3564 0.581561 17.9584 0.00158817 16.5002 0V0ZM19.0002 18.5C19.0002 19.163 18.7368 19.7989 18.2679 20.2678C17.7991 20.7366 17.1632 21 16.5002 21H13.5002V20.5C13.5002 20.1022 13.3421 19.7206 13.0608 19.4393C12.7795 19.158 12.398 19 12.0002 19C11.6023 19 11.2208 19.158 10.9395 19.4393C10.6582 19.7206 10.5002 20.1022 10.5002 20.5V21H7.50015C6.83711 21 6.20123 20.7366 5.73239 20.2678C5.26354 19.7989 5.00015 19.163 5.00015 18.5V5.5C5.00015 4.83696 5.26354 4.20107 5.73239 3.73223C6.20123 3.26339 6.83711 3 7.50015 3H16.5002C17.1632 3 17.7991 3.26339 18.2679 3.73223C18.7368 4.20107 19.0002 4.83696 19.0002 5.5V18.5ZM16.0002 16.5C16.0002 16.8978 15.8421 17.2794 15.5608 17.5607C15.2795 17.842 14.898 18 14.5002 18H9.50015C9.10233 18 8.7208 17.842 8.43949 17.5607C8.15819 17.2794 8.00015 16.8978 8.00015 16.5C8.00015 16.1022 8.15819 15.7206 8.43949 15.4393C8.7208 15.158 9.10233 15 9.50015 15H14.5002C14.898 15 15.2795 15.158 15.5608 15.4393C15.8421 15.7206 16.0002 16.1022 16.0002 16.5ZM12.0002 4C10.9393 4 9.92187 4.42143 9.17173 5.17157C8.42158 5.92172 8.00015 6.93913 8.00015 8V11.5C8.00412 11.8508 8.13094 12.1891 8.35853 12.4561C8.58613 12.7231 8.90012 12.9019 9.24588 12.9613C9.59164 13.0208 9.9473 12.9572 10.251 12.7815C10.5547 12.6059 10.7872 12.3293 10.9082 12H13.0922C13.2131 12.3293 13.4456 12.6059 13.7493 12.7815C14.053 12.9572 14.4087 13.0208 14.7544 12.9613C15.1002 12.9019 15.4142 12.7231 15.6418 12.4561C15.8694 12.1891 15.9962 11.8508 16.0002 11.5V8C16.0002 6.93913 15.5787 5.92172 14.8286 5.17157C14.0784 4.42143 13.061 4 12.0002 4ZM12.0002 7C12.2654 7 12.5197 7.10536 12.7073 7.29289C12.8948 7.48043 13.0002 7.73478 13.0002 8V9H11.0002V8C11.0002 7.73478 11.1055 7.48043 11.293 7.29289C11.4806 7.10536 11.7349 7 12.0002 7Z" fill="#374957"/>
</g>
<defs>
<clipPath id="clip0_405_1438">
<rect width="24" height="24" fill="white"/>
</clipPath>
</defs>
</svg>
