<svg width="24" height="24" viewBox="0 0 24 24" fill="none" xmlns="http://www.w3.org/2000/svg">
<g clip-path="url(#clip0_405_1385)">
<path d="M20.5 6.2H18V6C18 4.4087 17.3679 2.88258 16.2426 1.75736C15.1174 0.632141 13.5913 0 12 0C10.4087 0 8.88258 0.632141 7.75736 1.75736C6.63214 2.88258 6 4.4087 6 6V6.2H3.5C2.57521 6.21116 1.69144 6.58349 1.03746 7.23746C0.383488 7.89144 0.0111574 8.77521 0 9.7L0 18.5C0.0127902 19.9547 0.596359 21.3463 1.62505 22.375C2.65374 23.4036 4.04527 23.9872 5.5 24H18.5C19.9547 23.9872 21.3463 23.4036 22.375 22.375C23.4036 21.3463 23.9872 19.9547 24 18.5V9.7C23.9888 8.77521 23.6165 7.89144 22.9625 7.23746C22.3086 6.58349 21.4248 6.21116 20.5 6.2ZM9 6C9 5.20435 9.31607 4.44129 9.87868 3.87868C10.4413 3.31607 11.2044 3 12 3C12.7956 3 13.5587 3.31607 14.1213 3.87868C14.6839 4.44129 15 5.20435 15 6V6.2H9V6ZM21 18.5C21.0032 18.8292 20.9407 19.1557 20.8162 19.4605C20.6917 19.7653 20.5077 20.0421 20.2749 20.2749C20.0421 20.5077 19.7653 20.6917 19.4605 20.8162C19.1557 20.9407 18.8292 21.0032 18.5 21H5.5C5.1708 21.0032 4.84427 20.9407 4.53951 20.8162C4.23475 20.6917 3.95787 20.5077 3.72509 20.2749C3.4923 20.0421 3.30827 19.7653 3.18377 19.4605C3.05927 19.1557 2.99679 18.8292 3 18.5V9.7C2.99591 9.63327 3.00604 9.56644 3.02972 9.50392C3.0534 9.44141 3.09009 9.38463 3.13736 9.33736C3.18463 9.29009 3.24141 9.2534 3.30392 9.22972C3.36644 9.20604 3.43327 9.19591 3.5 9.2H6V10.5C6 10.8978 6.15804 11.2794 6.43934 11.5607C6.72064 11.842 7.10218 12 7.5 12C7.89782 12 8.27936 11.842 8.56066 11.5607C8.84196 11.2794 9 10.8978 9 10.5V9.2H15V10.5C15 10.8978 15.158 11.2794 15.4393 11.5607C15.7206 11.842 16.1022 12 16.5 12C16.8978 12 17.2794 11.842 17.5607 11.5607C17.842 11.2794 18 10.8978 18 10.5V9.2H20.5C20.5667 9.19591 20.6336 9.20604 20.6961 9.22972C20.7586 9.2534 20.8154 9.29009 20.8626 9.33736C20.9099 9.38463 20.9466 9.44141 20.9703 9.50392C20.994 9.56644 21.0041 9.63327 21 9.7V18.5Z" fill="#374957"/>
</g>
<defs>
<clipPath id="clip0_405_1385">
<rect width="24" height="24" fill="white"/>
</clipPath>
</defs>
</svg>
