<svg width="24" height="24" viewBox="0 0 24 24" fill="none" xmlns="http://www.w3.org/2000/svg">
<g clip-path="url(#clip0_405_1797)">
<path d="M15.5609 13.561L14.1209 15L15.5609 16.439C15.8423 16.7204 16.0004 17.1021 16.0004 17.5C16.0004 17.898 15.8423 18.2796 15.5609 18.561C15.2795 18.8424 14.8978 19.0005 14.4999 19.0005C14.1019 19.0005 13.7203 18.8424 13.4389 18.561L11.9999 17.121L10.5609 18.561C10.2795 18.8424 9.89783 19.0005 9.49988 19.0005C9.10193 19.0005 8.72027 18.8424 8.43888 18.561C8.15748 18.2796 7.9994 17.898 7.9994 17.5C7.9994 17.1021 8.15748 16.7204 8.43888 16.439L9.87888 15L8.43888 13.561C8.15748 13.2796 7.9994 12.898 7.9994 12.5C7.9994 12.1021 8.15748 11.7204 8.43888 11.439C8.72027 11.1576 9.10193 10.9995 9.49988 10.9995C9.89783 10.9995 10.2795 11.1576 10.5609 11.439L11.9999 12.879L13.4389 11.439C13.5782 11.2997 13.7436 11.1892 13.9257 11.1138C14.1077 11.0384 14.3028 10.9995 14.4999 10.9995C14.6969 10.9995 14.892 11.0384 15.0741 11.1138C15.2561 11.1892 15.4215 11.2997 15.5609 11.439C15.7002 11.5784 15.8107 11.7438 15.8861 11.9258C15.9615 12.1079 16.0004 12.303 16.0004 12.5C16.0004 12.6971 15.9615 12.8922 15.8861 13.0742C15.8107 13.2563 15.7002 13.4217 15.5609 13.561ZM21.9999 8.15702V18.5C21.9983 19.9582 21.4183 21.3562 20.3872 22.3874C19.3561 23.4185 17.9581 23.9984 16.4999 24H7.49988C6.04167 23.9984 4.64365 23.4185 3.61254 22.3874C2.58144 21.3562 2.00147 19.9582 1.99988 18.5V5.50002C2.00147 4.04182 2.58144 2.64379 3.61254 1.61269C4.64365 0.581581 6.04167 0.00160807 7.49988 1.99011e-05H13.8429C14.5654 -0.00193016 15.2812 0.139451 15.9487 0.415979C16.6163 0.692507 17.2224 1.09869 17.7319 1.61102L20.3889 4.26802C20.9012 4.77754 21.3074 5.38361 21.5839 6.05115C21.8604 6.7187 22.0018 7.43447 21.9999 8.15702ZM18.9999 18.5V9.00002H14.9999C14.4694 9.00002 13.9607 8.78931 13.5857 8.41423C13.2106 8.03916 12.9999 7.53045 12.9999 7.00002V3.00002H7.49988C6.83684 3.00002 6.20095 3.26341 5.73211 3.73225C5.26327 4.20109 4.99988 4.83698 4.99988 5.50002V18.5C4.99988 19.1631 5.26327 19.7989 5.73211 20.2678C6.20095 20.7366 6.83684 21 7.49988 21H16.4999C17.1629 21 17.7988 20.7366 18.2676 20.2678C18.7365 19.7989 18.9999 19.1631 18.9999 18.5Z" fill="#374957"/>
</g>
<defs>
<clipPath id="clip0_405_1797">
<rect width="24" height="24" fill="white"/>
</clipPath>
</defs>
</svg>
