<svg width="24" height="24" viewBox="0 0 24 24" fill="none" xmlns="http://www.w3.org/2000/svg">
<g clip-path="url(#clip0_405_1337)">
<path d="M21 15.0351V11.4991C20.9989 9.90463 20.5745 8.33904 19.7702 6.9623C18.9658 5.58557 17.8104 4.44706 16.422 3.6631C16.2276 2.63254 15.6793 1.70224 14.8719 1.03293C14.0645 0.363612 13.0487 -0.00268555 12 -0.00268555C10.9513 -0.00268555 9.93545 0.363612 9.12806 1.03293C8.32068 1.70224 7.77242 2.63254 7.578 3.6631C6.18957 4.44706 5.03415 5.58557 4.22983 6.9623C3.42551 8.33904 3.00111 9.90463 3 11.4991V15.0351C2.16702 15.1553 1.40526 15.5717 0.854282 16.2079C0.303308 16.8441 2.44345e-05 17.6575 0 18.4991L0 20.4991C0 21.4274 0.368749 22.3176 1.02513 22.974C1.6815 23.6304 2.57174 23.9991 3.5 23.9991H5.5C6.42826 23.9991 7.3185 23.6304 7.97487 22.974C8.63125 22.3176 9 21.4274 9 20.4991V18.4991C8.99998 17.6575 8.69669 16.8441 8.14572 16.2079C7.59474 15.5717 6.83298 15.1553 6 15.0351V11.4991C5.99985 10.6153 6.19533 9.74247 6.57242 8.94318C6.9495 8.14389 7.49883 7.43798 8.181 6.8761C8.5852 7.52464 9.1479 8.05956 9.81606 8.43044C10.4842 8.80131 11.2358 8.99592 12 8.99592C12.7642 8.99592 13.5158 8.80131 14.1839 8.43044C14.8521 8.05956 15.4148 7.52464 15.819 6.8761C16.5012 7.43798 17.0505 8.14389 17.4276 8.94318C17.8047 9.74247 18.0001 10.6153 18 11.4991V15.0351C17.167 15.1553 16.4053 15.5717 15.8543 16.2079C15.3033 16.8441 15 17.6575 15 18.4991V20.4991C15 21.4274 15.3687 22.3176 16.0251 22.974C16.6815 23.6304 17.5717 23.9991 18.5 23.9991H20.5C21.4283 23.9991 22.3185 23.6304 22.9749 22.974C23.6313 22.3176 24 21.4274 24 20.4991V18.4991C24 17.6575 23.6967 16.8441 23.1457 16.2079C22.5947 15.5717 21.833 15.1553 21 15.0351ZM6 20.4991C6 20.6317 5.94732 20.7589 5.85355 20.8527C5.75979 20.9464 5.63261 20.9991 5.5 20.9991H3.5C3.36739 20.9991 3.24021 20.9464 3.14645 20.8527C3.05268 20.7589 3 20.6317 3 20.4991V18.4991C3 18.3665 3.05268 18.2393 3.14645 18.1455C3.24021 18.0518 3.36739 17.9991 3.5 17.9991H5.5C5.63261 17.9991 5.75979 18.0518 5.85355 18.1455C5.94732 18.2393 6 18.3665 6 18.4991V20.4991ZM12 5.9991C11.7033 5.9991 11.4133 5.91113 11.1666 5.7463C10.92 5.58148 10.7277 5.34721 10.6142 5.07312C10.5006 4.79904 10.4709 4.49744 10.5288 4.20646C10.5867 3.91549 10.7296 3.64822 10.9393 3.43844C11.1491 3.22866 11.4164 3.0858 11.7074 3.02792C11.9983 2.97004 12.2999 2.99975 12.574 3.11328C12.8481 3.22681 13.0824 3.41907 13.2472 3.66574C13.412 3.91242 13.5 4.20243 13.5 4.4991C13.5 4.89692 13.342 5.27846 13.0607 5.55976C12.7794 5.84106 12.3978 5.9991 12 5.9991ZM21 20.4991C21 20.6317 20.9473 20.7589 20.8536 20.8527C20.7598 20.9464 20.6326 20.9991 20.5 20.9991H18.5C18.3674 20.9991 18.2402 20.9464 18.1464 20.8527C18.0527 20.7589 18 20.6317 18 20.4991V18.4991C18 18.3665 18.0527 18.2393 18.1464 18.1455C18.2402 18.0518 18.3674 17.9991 18.5 17.9991H20.5C20.6326 17.9991 20.7598 18.0518 20.8536 18.1455C20.9473 18.2393 21 18.3665 21 18.4991V20.4991Z" fill="#374957"/>
</g>
<defs>
<clipPath id="clip0_405_1337">
<rect width="24" height="24" fill="white"/>
</clipPath>
</defs>
</svg>
