<svg width="24" height="24" viewBox="0 0 24 24" fill="none" xmlns="http://www.w3.org/2000/svg">
<g clip-path="url(#clip0_405_1505)">
<path d="M23.9999 14C23.9989 13.6503 23.906 13.3071 23.7305 13.0047C23.555 12.7022 23.303 12.4513 22.9999 12.277V10.5C22.9967 7.7162 21.8895 5.04733 19.921 3.07889C17.9526 1.11044 15.2837 0.00317604 12.4999 0L11.4999 0C8.71612 0.00317604 6.04725 1.11044 4.07881 3.07889C2.11037 5.04733 1.0031 7.7162 0.999926 10.5V12.277C0.7001 12.4537 0.451576 12.7056 0.278918 13.0078C0.106259 13.31 0.0154419 13.652 0.0154419 14C0.0154419 14.348 0.106259 14.69 0.278918 14.9922C0.451576 15.2944 0.7001 15.5463 0.999926 15.723V16.5C1.00204 18.4885 1.7929 20.3949 3.19896 21.801C4.60502 23.207 6.51145 23.9979 8.49992 24H15.4999C17.4884 23.9979 19.3948 23.207 20.8009 21.801C22.2069 20.3949 22.9978 18.4885 22.9999 16.5V15.723C23.303 15.5487 23.555 15.2978 23.7305 14.9953C23.906 14.6929 23.9989 14.3497 23.9999 14ZM11.4999 3H12.4999C14.4884 3.00212 16.3948 3.79297 17.8009 5.19904C19.2069 6.6051 19.9978 8.51153 19.9999 10.5V12H3.99992V10.5C4.00204 8.51153 4.79289 6.6051 6.19896 5.19904C7.60502 3.79297 9.51144 3.00212 11.4999 3ZM15.4999 21H8.49992C7.30685 20.9987 6.16303 20.5241 5.3194 19.6805C4.47578 18.8369 4.00125 17.6931 3.99992 16.5V16.026C5.59192 16.152 6.17192 16.9 7.78392 18.299C8.29754 18.7506 8.95802 18.9996 9.64192 18.9996C10.3258 18.9996 10.9863 18.7506 11.4999 18.299C13.8179 16.287 13.8699 16 16.9999 16H19.9999V16.5C19.9986 17.6931 19.524 18.8369 18.6804 19.6805C17.8368 20.5241 16.693 20.9987 15.4999 21ZM5.99992 8.5C5.99992 8.10218 6.15795 7.72064 6.43926 7.43934C6.72056 7.15804 7.10209 7 7.49992 7C7.89774 7 8.27927 7.15804 8.56058 7.43934C8.84188 7.72064 8.99992 8.10218 8.99992 8.5C8.99992 8.89782 8.84188 9.27936 8.56058 9.56066C8.27927 9.84196 7.89774 10 7.49992 10C7.10209 10 6.72056 9.84196 6.43926 9.56066C6.15795 9.27936 5.99992 8.89782 5.99992 8.5ZM9.99992 6.5C9.99992 6.10218 10.1579 5.72064 10.4393 5.43934C10.7206 5.15804 11.1021 5 11.4999 5C11.8977 5 12.2793 5.15804 12.5606 5.43934C12.8419 5.72064 12.9999 6.10218 12.9999 6.5C12.9999 6.89782 12.8419 7.27936 12.5606 7.56066C12.2793 7.84196 11.8977 8 11.4999 8C11.1021 8 10.7206 7.84196 10.4393 7.56066C10.1579 7.27936 9.99992 6.89782 9.99992 6.5Z" fill="#374957"/>
</g>
<defs>
<clipPath id="clip0_405_1505">
<rect width="24" height="24" fill="white"/>
</clipPath>
</defs>
</svg>
