<svg width="24" height="24" viewBox="0 0 24 24" fill="none" xmlns="http://www.w3.org/2000/svg">
<g clip-path="url(#clip0_405_1614)">
<path d="M8.26194 17.9999H3.49994C2.57168 17.9999 1.68144 17.6312 1.02507 16.9748C0.36869 16.3184 -5.88614e-05 15.4282 -5.88614e-05 14.4999V9.23192C-0.00449029 7.85102 0.298286 6.48643 0.886338 5.23699C1.47439 3.98755 2.33299 2.88456 3.39994 2.00791C4.41146 1.16858 5.59928 0.568226 6.87496 0.251556C8.15065 -0.0651143 9.48133 -0.0899445 10.7679 0.178914C12.5439 0.536163 14.1709 1.42051 15.4366 2.71652C16.7023 4.01253 17.5478 5.66001 17.8629 7.44391C18.0968 8.70252 18.0483 9.99737 17.7207 11.2349C17.3932 12.4725 16.7948 13.6218 15.9689 14.5999C15.0097 15.694 13.8229 16.5652 12.4916 17.1525C11.1603 17.7398 9.71672 18.029 8.26194 17.9999ZM8.97894 2.99991C7.63511 2.99715 6.333 3.46646 5.29994 4.32591C4.58107 4.92567 4.00254 5.67583 3.60514 6.52351C3.20774 7.37118 3.00115 8.29571 2.99994 9.23192V14.4999C2.99994 14.6325 3.05262 14.7597 3.14639 14.8535C3.24016 14.9472 3.36733 14.9999 3.49994 14.9999H8.26194C9.27964 15.0275 10.2911 14.8328 11.2258 14.4294C12.1605 14.0259 12.996 13.4234 13.6739 12.6639C14.2156 12.019 14.6072 11.2618 14.8204 10.4471C15.0336 9.63239 15.0632 8.78046 14.9069 7.95292C14.6871 6.77063 14.1212 5.68025 13.2809 4.82001C12.4406 3.95977 11.3637 3.36841 10.1869 3.12091C9.78916 3.04146 9.38458 3.00093 8.97894 2.99991ZM20.9789 9.78191C20.6632 9.52833 20.3289 9.29869 19.9789 9.09492C19.975 10.2291 19.7883 11.3552 19.4259 12.4299C20.4278 13.4295 20.9937 14.7847 20.9999 16.1999V20.4999C20.9999 20.6325 20.9473 20.7597 20.8535 20.8535C20.7597 20.9472 20.6325 20.9999 20.4999 20.9999H16.6399C15.8532 21.0175 15.0708 20.8788 14.3381 20.592C13.6053 20.3052 12.9367 19.8759 12.3709 19.3289C11.3103 19.6815 10.2078 19.893 9.09194 19.9579C9.30248 20.3171 9.54194 20.6586 9.80794 20.9789C10.6577 21.9499 11.7096 22.7235 12.8897 23.2453C14.0698 23.7671 15.3498 24.0247 16.6399 23.9999H20.4999C21.4282 23.9999 22.3184 23.6312 22.9748 22.9748C23.6312 22.3184 23.9999 21.4282 23.9999 20.4999V16.1999C24.0044 14.9737 23.736 13.7618 23.2142 12.6521C22.6923 11.5424 21.9302 10.5627 20.9829 9.78392L20.9789 9.78191Z" fill="#374957"/>
</g>
<defs>
<clipPath id="clip0_405_1614">
<rect width="24" height="24" fill="white"/>
</clipPath>
</defs>
</svg>
