<svg width="24" height="24" viewBox="0 0 24 24" fill="none" xmlns="http://www.w3.org/2000/svg">
<g clip-path="url(#clip0_405_1547)">
<path d="M13.5001 17C13.5001 17.2967 13.4121 17.5867 13.2473 17.8334C13.0824 18.08 12.8482 18.2723 12.5741 18.3858C12.3 18.4994 11.9984 18.5291 11.7074 18.4712C11.4165 18.4133 11.1492 18.2704 10.9394 18.0607C10.7296 17.8509 10.5868 17.5836 10.5289 17.2926C10.471 17.0017 10.5007 16.7001 10.6142 16.426C10.7278 16.1519 10.92 15.9176 11.1667 15.7528C11.4134 15.588 11.7034 15.5 12.0001 15.5C12.3979 15.5 12.7794 15.658 13.0607 15.9393C13.342 16.2206 13.5001 16.6022 13.5001 17ZM20.8791 21.909C21.0358 22.2747 21.0408 22.6878 20.8931 23.0572C20.7453 23.4266 20.4568 23.7223 20.0911 23.879C19.7253 24.0357 19.3123 24.0408 18.9429 23.893C18.5734 23.7452 18.2778 23.4567 18.1211 23.091L17.2421 21.04C15.5748 21.7014 13.7935 22.0276 12.0001 22C10.2067 22.027 8.42549 21.7008 6.75806 21.04L5.87906 23.091C5.80145 23.2721 5.68893 23.4361 5.54793 23.5737C5.40692 23.7113 5.24019 23.8198 5.05726 23.893C4.87433 23.9662 4.67878 24.0026 4.48177 24.0002C4.28476 23.9978 4.09016 23.9566 3.90906 23.879C3.72797 23.8014 3.56394 23.6889 3.42633 23.5479C3.28872 23.4069 3.18024 23.2401 3.10706 23.0572C3.03389 22.8743 2.99747 22.6787 2.99987 22.4817C3.00227 22.2847 3.04345 22.0901 3.12106 21.909L4.22906 19.325C3.43464 18.3674 2.9999 17.1622 3.00006 15.918V5.984C2.99391 4.86507 3.3436 3.77315 3.9986 2.86595C4.65361 1.95876 5.58004 1.28325 6.64406 0.937C8.36983 0.348112 10.1769 0.0319796 12.0001 0C13.8233 0.0318166 15.6303 0.347953 17.3561 0.937C18.4201 1.28325 19.3465 1.95876 20.0015 2.86595C20.6565 3.77315 21.0062 4.86507 21.0001 5.984V15.918C21.0006 17.1624 20.5662 18.3679 19.7721 19.326L20.8791 21.909ZM6.00006 6.25C6.00006 8.2 8.11806 12 12.0001 12C15.8821 12 18.0001 8.2 18.0001 6.25V5.984C18.0049 5.49933 17.8557 5.02564 17.5738 4.6313C17.292 4.23696 16.8922 3.94236 16.4321 3.79C16.0871 3.678 15.7471 3.584 15.4101 3.495C15.3077 3.78771 15.1172 4.04151 14.8647 4.22149C14.6122 4.40147 14.3101 4.49877 14.0001 4.5H10.0001C9.69055 4.4998 9.38874 4.40348 9.13634 4.22434C8.88394 4.04521 8.6934 3.7921 8.59106 3.5C8.25306 3.589 7.91306 3.683 7.56806 3.795C7.10875 3.9471 6.70952 4.24094 6.42777 4.63428C6.14601 5.02762 5.99627 5.50018 6.00006 5.984V6.25ZM12.0001 19C13.6883 19.0577 15.3635 18.685 16.8681 17.917C17.2178 17.7147 17.5071 17.4226 17.7061 17.071C17.9052 16.7194 18.0066 16.321 18.0001 15.917V12.6C16.3833 14.1425 14.2346 15.0031 12.0001 15.0031C9.76553 15.0031 7.61682 14.1425 6.00006 12.6V15.921C5.99412 16.3251 6.09607 16.7235 6.29541 17.075C6.49475 17.4266 6.78425 17.7186 7.13406 17.921C8.63839 18.6873 10.3128 19.0586 12.0001 19Z" fill="#374957"/>
</g>
<defs>
<clipPath id="clip0_405_1547">
<rect width="24" height="24" fill="white"/>
</clipPath>
</defs>
</svg>
