<svg width="24" height="24" viewBox="0 0 24 24" fill="none" xmlns="http://www.w3.org/2000/svg">
<g clip-path="url(#clip0_405_1669)">
<path d="M18.5 3H17.858C17.637 2.14386 17.1385 1.38508 16.4404 0.842299C15.7424 0.299515 14.8842 0.00331375 14 0L10 0C9.11579 0.00331375 8.25759 0.299515 7.55957 0.842299C6.86155 1.38508 6.36305 2.14386 6.142 3H5.5C4.0418 3.00159 2.64377 3.58156 1.61267 4.61267C0.581561 5.64377 0.00158817 7.0418 0 8.5L0 18.5C0.00158817 19.9582 0.581561 21.3562 1.61267 22.3873C2.64377 23.4184 4.0418 23.9984 5.5 24H18.5C19.9581 23.9981 21.356 23.4181 22.387 22.387C23.4181 21.356 23.9981 19.9581 24 18.5V8.5C23.9981 7.04188 23.4181 5.64401 22.387 4.61296C21.356 3.58191 19.9581 3.00185 18.5 3ZM5.5 6H18.5C19.163 6 19.7989 6.26339 20.2678 6.73223C20.7366 7.20107 21 7.83696 21 8.5V11H3V8.5C3 7.83696 3.26339 7.20107 3.73223 6.73223C4.20107 6.26339 4.83696 6 5.5 6ZM18.5 21H5.5C4.83696 21 4.20107 20.7366 3.73223 20.2678C3.26339 19.7989 3 19.163 3 18.5V14H10C10 14.5304 10.2107 15.0391 10.5858 15.4142C10.9609 15.7893 11.4696 16 12 16C12.5304 16 13.0391 15.7893 13.4142 15.4142C13.7893 15.0391 14 14.5304 14 14H21V18.5C21 19.163 20.7366 19.7989 20.2678 20.2678C19.7989 20.7366 19.163 21 18.5 21Z" fill="#374957"/>
</g>
<defs>
<clipPath id="clip0_405_1669">
<rect width="24" height="24" fill="white"/>
</clipPath>
</defs>
</svg>
