<svg width="24" height="24" viewBox="0 0 24 24" fill="none" xmlns="http://www.w3.org/2000/svg">
<g clip-path="url(#clip0_405_1599)">
<path d="M1.5 20.9995H13.062C16.696 20.9995 19.608 19.2835 20.851 16.4095C20.9697 16.1445 21.0194 15.8538 20.9955 15.5644C20.9715 15.275 20.8747 14.9964 20.714 14.7545C20.5635 14.5222 20.3566 14.3317 20.1127 14.2008C19.8689 14.0698 19.5958 14.0026 19.319 14.0055H15.009C14.9025 13.9995 14.7969 14.0291 14.709 14.0895L12.726 15.4115C12.1521 15.7942 11.4778 15.9988 10.788 15.9995H1.5C1.10218 15.9995 0.720644 15.8415 0.43934 15.5602C0.158035 15.2789 0 14.8973 0 14.4995C0 14.1017 0.158035 13.7202 0.43934 13.4388C0.720644 13.1575 1.10218 12.9995 1.5 12.9995H10.788C10.8874 12.9995 10.9845 12.9699 11.067 12.9145L13.049 11.5925C13.6233 11.2091 14.2985 11.0048 14.989 11.0055H16.771C15.9744 9.29957 14.8163 7.78729 13.377 6.57351C12.8216 6.20138 12.1686 6.00168 11.5 5.99951H1.5C1.10218 5.99951 0.720644 5.84147 0.43934 5.56017C0.158035 5.27886 0 4.89733 0 4.49951C0 4.10168 0.158035 3.72015 0.43934 3.43885C0.720644 3.15754 1.10218 2.99951 1.5 2.99951H4.181L4.087 2.64251C3.94458 2.10239 4.02255 1.52782 4.30376 1.0452C4.58497 0.562574 5.04639 0.211427 5.5865 0.0690057C6.12661 -0.0734156 6.70118 0.00455558 7.18381 0.285766C7.66643 0.566977 8.01758 1.02839 8.16 1.56851L8.537 2.99951H11.5C12.8603 3.00155 14.184 3.44044 15.276 4.25151C17.4326 6.07469 19.0818 8.42386 20.064 11.0715C20.7026 11.1726 21.3132 11.4057 21.8568 11.7559C22.4003 12.1061 22.8649 12.5658 23.221 13.1055C23.653 13.764 23.9139 14.5198 23.98 15.3045C24.0462 16.0892 23.9156 16.878 23.6 17.5995C21.872 21.6065 17.931 23.9995 13.062 23.9995H1.5C1.10218 23.9995 0.720644 23.8415 0.43934 23.5602C0.158035 23.2789 0 22.8973 0 22.4995C0 22.1017 0.158035 21.7202 0.43934 21.4388C0.720644 21.1575 1.10218 20.9995 1.5 20.9995ZM9.5 10.9995C9.89782 10.9995 10.2794 10.8415 10.5607 10.5602C10.842 10.2789 11 9.89733 11 9.49951C11 9.10168 10.842 8.72015 10.5607 8.43885C10.2794 8.15754 9.89782 7.99951 9.5 7.99951L1.5 7.99351C1.10218 7.99351 0.720644 8.15154 0.43934 8.43285C0.158035 8.71415 0 9.09568 0 9.49351C0 9.89133 0.158035 10.2729 0.43934 10.5542C0.720644 10.8355 1.10218 10.9935 1.5 10.9935L9.5 10.9995ZM9 18.5055C9 18.2088 8.91203 17.9188 8.7472 17.6722C8.58238 17.4255 8.34811 17.2332 8.07403 17.1197C7.79994 17.0062 7.49834 16.9765 7.20736 17.0343C6.91639 17.0922 6.64912 17.2351 6.43934 17.4448C6.22956 17.6546 6.0867 17.9219 6.02882 18.2129C5.97094 18.5038 6.00065 18.8054 6.11418 19.0795C6.22771 19.3536 6.41997 19.5879 6.66664 19.7527C6.91332 19.9175 7.20333 20.0055 7.5 20.0055C7.89782 20.0055 8.27936 19.8475 8.56066 19.5662C8.84196 19.2849 9 18.9033 9 18.5055ZM4 18.5055C4 18.2088 3.91203 17.9188 3.7472 17.6722C3.58238 17.4255 3.34811 17.2332 3.07403 17.1197C2.79994 17.0062 2.49834 16.9765 2.20736 17.0343C1.91639 17.0922 1.64912 17.2351 1.43934 17.4448C1.22956 17.6546 1.0867 17.9219 1.02882 18.2129C0.970944 18.5038 1.00065 18.8054 1.11418 19.0795C1.22771 19.3536 1.41997 19.5879 1.66664 19.7527C1.91332 19.9175 2.20333 20.0055 2.5 20.0055C2.89782 20.0055 3.27936 19.8475 3.56066 19.5662C3.84196 19.2849 4 18.9033 4 18.5055ZM14 18.5055C14 18.2088 13.912 17.9188 13.7472 17.6722C13.5824 17.4255 13.3481 17.2332 13.074 17.1197C12.7999 17.0062 12.4983 16.9765 12.2074 17.0343C11.9164 17.0922 11.6491 17.2351 11.4393 17.4448C11.2296 17.6546 11.0867 17.9219 11.0288 18.2129C10.9709 18.5038 11.0006 18.8054 11.1142 19.0795C11.2277 19.3536 11.42 19.5879 11.6666 19.7527C11.9133 19.9175 12.2033 20.0055 12.5 20.0055C12.8978 20.0055 13.2794 19.8475 13.5607 19.5662C13.842 19.2849 14 18.9033 14 18.5055Z" fill="#374957"/>
</g>
<defs>
<clipPath id="clip0_405_1599">
<rect width="24" height="24" fill="white"/>
</clipPath>
</defs>
</svg>
