<svg width="24" height="24" viewBox="0 0 24 24" fill="none" xmlns="http://www.w3.org/2000/svg">
<g clip-path="url(#clip0_405_1802)">
<path d="M22.817 14.354C23.1929 13.9846 23.4913 13.5438 23.6944 13.0575C23.8976 12.5711 24.0015 12.0491 24 11.522C23.9999 10.8075 23.8026 10.1068 23.4298 9.49716C23.0569 8.88755 22.5231 8.39267 21.887 8.06704C21.4202 5.78934 20.1814 3.74265 18.3798 2.27287C16.5783 0.80309 14.3245 0.000366211 11.9995 0.000366211C9.67446 0.000366211 7.42072 0.80309 5.61918 2.27287C3.81764 3.74265 2.57879 5.78934 2.112 8.06704C1.47618 8.3929 0.942597 8.88785 0.569967 9.49744C0.197337 10.107 0.000112442 10.8076 0 11.522C0.00117241 12.4567 0.33018 13.3613 0.929717 14.0784C1.52925 14.7954 2.36132 15.2794 3.281 15.446C3.63274 16.1294 4.06625 16.7674 4.572 17.346C3.32724 18.7195 2.49203 20.4142 2.161 22.238C2.12628 22.432 2.13011 22.6309 2.17228 22.8234C2.21446 23.0159 2.29414 23.1982 2.40679 23.3599C2.51943 23.5215 2.66283 23.6594 2.82879 23.7657C2.99475 23.8719 3.18001 23.9444 3.374 23.979C3.46193 23.9934 3.5509 24.0005 3.64 24C3.99159 23.9994 4.3318 23.8753 4.60121 23.6494C4.87063 23.4235 5.05212 23.1102 5.114 22.764C5.34731 21.4823 5.9364 20.292 6.814 19.329C8.34452 20.3762 10.146 20.9567 12 21C13.8553 20.9574 15.6583 20.3769 17.19 19.329C18.0676 20.292 18.6567 21.4823 18.89 22.764C18.9518 23.1095 19.1327 23.4223 19.4013 23.6482C19.6698 23.874 20.0091 23.9985 20.36 24C20.4492 23.9998 20.5381 23.9921 20.626 23.977C20.82 23.9424 21.0053 23.8699 21.1712 23.7637C21.3372 23.6574 21.4806 23.5195 21.5932 23.3579C21.7059 23.1962 21.7855 23.0139 21.8277 22.8214C21.8699 22.6289 21.8737 22.43 21.839 22.236C21.508 20.4122 20.6728 18.7175 19.428 17.344C19.9339 16.7655 20.3675 16.1275 20.719 15.444C21.5131 15.3029 22.2451 14.9226 22.817 14.354ZM20 12.508H19.989H19.827C19.4965 12.4834 19.1671 12.5679 18.8893 12.7486C18.6115 12.9292 18.4006 13.196 18.289 13.508C17.7784 14.7787 16.915 15.8768 15.8007 16.6727C14.6863 17.4686 13.3676 17.9292 12 18C10.6308 17.9293 9.31058 17.4679 8.19537 16.6704C7.08017 15.8729 6.21667 14.7728 5.707 13.5C5.60367 13.2078 5.41234 12.9547 5.15931 12.7756C4.90628 12.5966 4.60399 12.5003 4.294 12.5C4.252 12.5 4.211 12.5 4.169 12.505H4.001H3.99C3.72848 12.5056 3.47742 12.4024 3.29185 12.2181C3.10627 12.0339 3.00132 11.7836 3 11.522C3.00069 11.3153 3.0738 11.1154 3.20662 10.957C3.33944 10.7986 3.52357 10.6918 3.727 10.655C4.04571 10.5968 4.33698 10.4369 4.55726 10.1993C4.77754 9.96175 4.91497 9.65924 4.949 9.33704C5.14299 7.48161 6.06377 5.77847 7.51 4.60004C7.5289 5.48073 7.80622 6.33645 8.30747 7.06082C8.80873 7.7852 9.51182 8.34628 10.3293 8.67434C11.1469 9.00239 12.0428 9.08295 12.9057 8.906C13.7687 8.72904 14.5606 8.30238 15.183 7.67904C15.3285 7.5411 15.4449 7.37538 15.5252 7.1917C15.6056 7.00801 15.6483 6.81008 15.6508 6.60961C15.6534 6.40914 15.6157 6.21018 15.54 6.02452C15.4644 5.83885 15.3523 5.67023 15.2103 5.52863C15.0684 5.38703 14.8995 5.27532 14.7137 5.2001C14.5278 5.12488 14.3288 5.08769 14.1283 5.09071C13.9279 5.09373 13.73 5.13691 13.5465 5.21769C13.363 5.29848 13.1976 5.41523 13.06 5.56104C12.7744 5.83397 12.3946 5.98628 11.9995 5.98628C11.6045 5.98628 11.2246 5.83397 10.939 5.56104C10.7291 5.35126 10.5861 5.08393 10.5282 4.79286C10.4702 4.5018 10.5 4.2001 10.6135 3.92592C10.7271 3.65175 10.9195 3.41743 11.1663 3.25262C11.4131 3.08781 11.7032 2.99991 12 3.00004C13.7511 2.99581 15.4415 3.64158 16.7438 4.8123C18.046 5.98301 18.8675 7.59535 19.049 9.33704C19.0831 9.65952 19.2209 9.96224 19.4415 10.1999C19.6622 10.4375 19.9539 10.5972 20.273 10.655C20.4764 10.6918 20.6606 10.7986 20.7934 10.957C20.9262 11.1154 20.9993 11.3153 21 11.522C21.0003 11.6523 20.9746 11.7812 20.9245 11.9014C20.8743 12.0216 20.8007 12.1306 20.708 12.222C20.6147 12.3141 20.5041 12.3868 20.3826 12.4359C20.2611 12.485 20.1311 12.5095 20 12.508Z" fill="#374957"/>
<path d="M9.50015 13.0001C10.3286 13.0001 11.0002 12.3285 11.0002 11.5001C11.0002 10.6717 10.3286 10.0001 9.50015 10.0001C8.67173 10.0001 8.00015 10.6717 8.00015 11.5001C8.00015 12.3285 8.67173 13.0001 9.50015 13.0001Z" fill="#374957"/>
<path d="M14.4998 13.0001C15.3283 13.0001 15.9998 12.3285 15.9998 11.5001C15.9998 10.6717 15.3283 10.0001 14.4998 10.0001C13.6714 10.0001 12.9998 10.6717 12.9998 11.5001C12.9998 12.3285 13.6714 13.0001 14.4998 13.0001Z" fill="#374957"/>
</g>
<defs>
<clipPath id="clip0_405_1802">
<rect width="24" height="24" fill="white"/>
</clipPath>
</defs>
</svg>
