<svg width="24" height="24" viewBox="0 0 24 24" fill="none" xmlns="http://www.w3.org/2000/svg">
<g clip-path="url(#clip0_405_1619)">
<path d="M18.5 0H5.5C4.0418 0.00158817 2.64377 0.581561 1.61267 1.61267C0.581561 2.64377 0.00158817 4.0418 0 5.5L0 13.5C0.00158817 14.9582 0.581561 16.3562 1.61267 17.3873C2.64377 18.4184 4.0418 18.9984 5.5 19H10.5V21H7.5C7.10218 21 6.72064 21.158 6.43934 21.4393C6.15804 21.7206 6 22.1022 6 22.5C6 22.8978 6.15804 23.2794 6.43934 23.5607C6.72064 23.842 7.10218 24 7.5 24H16.5C16.8978 24 17.2794 23.842 17.5607 23.5607C17.842 23.2794 18 22.8978 18 22.5C18 22.1022 17.842 21.7206 17.5607 21.4393C17.2794 21.158 16.8978 21 16.5 21H13.5V19H18.5C19.9582 18.9984 21.3562 18.4184 22.3873 17.3873C23.4184 16.3562 23.9984 14.9582 24 13.5V5.5C23.9984 4.0418 23.4184 2.64377 22.3873 1.61267C21.3562 0.581561 19.9582 0.00158817 18.5 0V0ZM21 13.5C21 14.163 20.7366 14.7989 20.2678 15.2678C19.7989 15.7366 19.163 16 18.5 16H5.5C4.83696 16 4.20107 15.7366 3.73223 15.2678C3.26339 14.7989 3 14.163 3 13.5V5.5C3 4.83696 3.26339 4.20107 3.73223 3.73223C4.20107 3.26339 4.83696 3 5.5 3H18.5C19.163 3 19.7989 3.26339 20.2678 3.73223C20.7366 4.20107 21 4.83696 21 5.5V13.5ZM19 9.5C19 9.89782 18.842 10.2794 18.5607 10.5607C18.2794 10.842 17.8978 11 17.5 11H16.3L14.745 13.332C14.6083 13.537 14.4232 13.7053 14.2061 13.8218C13.9889 13.9383 13.7464 13.9995 13.5 14C13.4687 14 13.4377 14 13.407 14C13.1447 13.9838 12.8913 13.899 12.6721 13.754C12.4529 13.609 12.2756 13.409 12.158 13.174L10.314 9.483L9.748 10.332C9.61103 10.5375 9.42546 10.7059 9.20775 10.8225C8.99004 10.939 8.74693 11 8.5 11H6.5C6.10218 11 5.72064 10.842 5.43934 10.5607C5.15804 10.2794 5 9.89782 5 9.5C5 9.10218 5.15804 8.72064 5.43934 8.43934C5.72064 8.15804 6.10218 8 6.5 8H7.7L9.252 5.668C9.39771 5.44931 9.59831 5.27274 9.83372 5.15596C10.0691 5.03918 10.3311 4.98629 10.5934 5.0026C10.8556 5.0189 11.109 5.10382 11.3282 5.24886C11.5473 5.39389 11.7245 5.59395 11.842 5.829L13.686 9.517L14.252 8.668C14.389 8.46253 14.5745 8.29406 14.7922 8.17753C15.01 8.061 15.2531 8.00002 15.5 8H17.5C17.697 8 17.892 8.0388 18.074 8.11418C18.256 8.18956 18.4214 8.30005 18.5607 8.43934C18.6999 8.57863 18.8104 8.74399 18.8858 8.92597C18.9612 9.10796 19 9.30302 19 9.5Z" fill="#374957"/>
</g>
<defs>
<clipPath id="clip0_405_1619">
<rect width="24" height="24" fill="white"/>
</clipPath>
</defs>
</svg>
