<svg width="24" height="24" viewBox="0 0 24 24" fill="none" xmlns="http://www.w3.org/2000/svg">
<g clip-path="url(#clip0_405_1582)">
<path d="M22.5591 11.0004C22.3617 10.9893 22.1641 11.0178 21.9779 11.084C21.7916 11.1502 21.6205 11.2529 21.4744 11.386C21.3283 11.5192 21.2102 11.6801 21.1271 11.8594C21.0439 12.0388 20.9973 12.2329 20.9901 12.4304C20.8989 14.4692 20.1196 16.4169 18.7793 17.9559C17.439 19.4949 15.6167 20.5343 13.6098 20.9045C11.6028 21.2748 9.52963 20.9541 7.72838 19.9946C5.92713 19.0352 4.50414 17.4938 3.69152 15.6217C2.87891 13.7497 2.72463 11.6575 3.25385 9.68648C3.78307 7.71547 4.96456 5.98195 6.60559 4.7687C8.24662 3.55545 10.2503 2.93408 12.2899 3.00594C14.3295 3.0778 16.2845 3.83865 17.8361 5.16438L16.7071 6.29338C16.5672 6.43323 16.472 6.61139 16.4335 6.80535C16.3949 6.9993 16.4147 7.20033 16.4904 7.38303C16.566 7.56573 16.6942 7.7219 16.8586 7.83178C17.023 7.94166 17.2163 8.00034 17.4141 8.00038H22.0001C22.2653 8.00038 22.5196 7.89502 22.7072 7.70748C22.8947 7.51995 23.0001 7.26559 23.0001 7.00038V2.41438C23 2.21663 22.9413 2.02333 22.8315 1.85892C22.7216 1.69451 22.5654 1.56637 22.3827 1.4907C22.2 1.41503 21.999 1.39523 21.805 1.43379C21.6111 1.47236 21.4329 1.56757 21.2931 1.70738L19.9581 3.04238C17.9232 1.24118 15.3367 0.185047 12.6227 0.0472285C9.90866 -0.0905901 7.22841 0.698094 5.0216 2.28389C2.81479 3.86969 1.21247 6.15844 0.477504 8.77466C-0.257459 11.3909 -0.0814209 14.1792 0.976738 16.6822C2.0349 19.1852 3.91234 21.2543 6.30107 22.55C8.6898 23.8456 11.448 24.291 14.1231 23.8129C16.7982 23.3349 19.2314 21.9618 21.0235 19.919C22.8157 17.8762 23.8603 15.285 23.9861 12.5704C23.9955 12.3736 23.966 12.1769 23.8994 11.9915C23.8328 11.806 23.7303 11.6356 23.5978 11.4898C23.4653 11.344 23.3053 11.2257 23.1271 11.1418C22.9489 11.0578 22.7558 11.0097 22.5591 11.0004Z" fill="#374957"/>
<path d="M11.4998 6.99939C11.102 6.99939 10.7205 7.15742 10.4392 7.43873C10.1579 7.72003 9.99982 8.10156 9.99982 8.49939V12.7924C9.99993 13.3228 10.2107 13.8314 10.5858 14.2064L12.3788 15.9994C12.6617 16.2726 13.0406 16.4238 13.4339 16.4204C13.8272 16.417 14.2034 16.2592 14.4815 15.9811C14.7596 15.703 14.9174 15.3268 14.9208 14.9335C14.9242 14.5402 14.773 14.1613 14.4998 13.8784L12.9998 12.3784V8.49939C12.9998 8.10156 12.8418 7.72003 12.5605 7.43873C12.2792 7.15742 11.8976 6.99939 11.4998 6.99939Z" fill="#374957"/>
</g>
<defs>
<clipPath id="clip0_405_1582">
<rect width="24" height="24" fill="white"/>
</clipPath>
</defs>
</svg>
