<svg width="24" height="24" viewBox="0 0 24 24" fill="none" xmlns="http://www.w3.org/2000/svg">
<g clip-path="url(#clip0_405_1777)">
<path d="M5.49998 11C2.46244 11 0 8.53758 0 5.49998C0 2.46239 2.46244 0 5.49998 0C8.53753 0 11 2.46244 11 5.49998C10.9967 8.53622 8.53622 10.9967 5.49998 11ZM5.49998 3C4.11928 3 3 4.11928 3 5.49998C3 6.88069 4.11928 7.99997 5.49998 7.99997C6.88069 7.99997 7.99997 6.88069 7.99997 5.49998C7.99997 4.11928 6.88073 3 5.49998 3Z" fill="#374957"/>
<path d="M18.5 11C15.4625 11 13.0001 8.53758 13.0001 5.50003C13.0001 2.46248 15.4625 0 18.5 0C21.5376 0 24 2.46244 24 5.49998C23.9967 8.53622 21.5362 10.9967 18.5 11ZM18.5 3C17.1193 3 16.0001 4.11928 16.0001 5.49998C16.0001 6.88069 17.1193 7.99997 18.5 7.99997C19.8807 7.99997 21 6.88073 21 5.49998C21 4.11923 19.8807 3 18.5 3Z" fill="#374957"/>
<path d="M5.49998 24C2.46244 24 0 21.5375 0 18.5C0 15.4624 2.46244 13 5.49998 13C8.53753 13 11 15.4624 11 18.5C10.9967 21.5362 8.53622 23.9966 5.49998 24ZM5.49998 16C4.11928 16 3 17.1192 3 18.5C3 19.8807 4.11928 21 5.49998 21C6.88069 21 7.99997 19.8807 7.99997 18.5C7.99997 17.1193 6.88073 16 5.49998 16Z" fill="#374957"/>
<path d="M18.5 24C15.4625 24 13.0001 21.5375 13.0001 18.5C13.0001 15.4624 15.4625 13 18.5 13C21.5376 13 24 15.4624 24 18.5C23.9967 21.5362 21.5362 23.9966 18.5 24ZM18.5 16C17.1193 16 16.0001 17.1192 16.0001 18.4999C16.0001 19.8806 17.1193 21 18.5 21C19.8808 21 21 19.8807 21 18.5C21 17.1193 19.8807 16 18.5 16Z" fill="#374957"/>
</g>
<defs>
<clipPath id="clip0_405_1777">
<rect width="24" height="24" fill="white"/>
</clipPath>
</defs>
</svg>
