<svg width="24" height="24" viewBox="0 0 24 24" fill="none" xmlns="http://www.w3.org/2000/svg">
<g clip-path="url(#clip0_405_1484)">
<path d="M22.5 6H1.5C1.10218 6 0.720644 5.84196 0.43934 5.56066C0.158035 5.27936 0 4.89782 0 4.5C0 4.10218 0.158035 3.72064 0.43934 3.43934C0.720644 3.15804 1.10218 3 1.5 3H22.5C22.8978 3 23.2794 3.15804 23.5607 3.43934C23.842 3.72064 24 4.10218 24 4.5C24 4.89782 23.842 5.27936 23.5607 5.56066C23.2794 5.84196 22.8978 6 22.5 6Z" fill="#374957"/>
<path d="M22.4999 10.9996H9.49988C9.10205 10.9996 8.72052 10.8416 8.43922 10.5603C8.15791 10.279 7.99988 9.89746 7.99988 9.49963C7.99988 9.10181 8.15791 8.72028 8.43922 8.43897C8.72052 8.15767 9.10205 7.99963 9.49988 7.99963H22.4999C22.8977 7.99963 23.2792 8.15767 23.5605 8.43897C23.8418 8.72028 23.9998 9.10181 23.9998 9.49963C23.9998 9.89746 23.8418 10.279 23.5605 10.5603C23.2792 10.8416 22.8977 10.9996 22.4999 10.9996Z" fill="#374957"/>
<path d="M22.5 21H1.5C1.10218 21 0.720644 20.842 0.43934 20.5607C0.158035 20.2794 0 19.8978 0 19.5C0 19.1022 0.158035 18.7206 0.43934 18.4393C0.720644 18.158 1.10218 18 1.5 18H22.5C22.8978 18 23.2794 18.158 23.5607 18.4393C23.842 18.7206 24 19.1022 24 19.5C24 19.8978 23.842 20.2794 23.5607 20.5607C23.2794 20.842 22.8978 21 22.5 21Z" fill="#374957"/>
<path d="M22.4999 16.0004H9.49988C9.10205 16.0004 8.72052 15.8423 8.43922 15.561C8.15791 15.2797 7.99988 14.8982 7.99988 14.5004C7.99988 14.1025 8.15791 13.721 8.43922 13.4397C8.72052 13.1584 9.10205 13.0004 9.49988 13.0004H22.4999C22.8977 13.0004 23.2792 13.1584 23.5605 13.4397C23.8418 13.721 23.9998 14.1025 23.9998 14.5004C23.9998 14.8982 23.8418 15.2797 23.5605 15.561C23.2792 15.8423 22.8977 16.0004 22.4999 16.0004Z" fill="#374957"/>
<path d="M1.707 15.7452L4.681 12.7712C4.88508 12.5665 4.99968 12.2892 4.99968 12.0002C4.99968 11.7111 4.88508 11.4339 4.681 11.2292L1.707 8.25519C1.56709 8.11532 1.38883 8.02009 1.19479 7.98156C1.00074 7.94302 0.799624 7.96291 0.616884 8.0387C0.434143 8.1145 0.27799 8.24279 0.168182 8.40735C0.0583736 8.57192 -0.00015534 8.76535 3.09641e-07 8.96319V15.0372C-0.00015534 15.235 0.0583736 15.4285 0.168182 15.593C0.27799 15.7576 0.434143 15.8859 0.616884 15.9617C0.799624 16.0375 1.00074 16.0574 1.19479 16.0188C1.38883 15.9803 1.56709 15.8851 1.707 15.7452Z" fill="#374957"/>
</g>
<defs>
<clipPath id="clip0_405_1484">
<rect width="24" height="24" fill="white"/>
</clipPath>
</defs>
</svg>
