<svg width="24" height="24" viewBox="0 0 24 24" fill="none" xmlns="http://www.w3.org/2000/svg">
<g clip-path="url(#clip0_405_1533)">
<path d="M19.5 0H4.5C3.30693 0.00132343 2.16311 0.475854 1.31948 1.31948C0.475854 2.16311 0.00132343 3.30693 0 4.5L0 19.5C0.00132343 20.6931 0.475854 21.8369 1.31948 22.6805C2.16311 23.5241 3.30693 23.9987 4.5 24H15.843C16.5656 24.0021 17.2814 23.8607 17.9489 23.5842C18.6165 23.3077 19.2226 22.9014 19.732 22.389L22.389 19.732C22.9014 19.2226 23.3077 18.6165 23.5842 17.9489C23.8607 17.2814 24.0021 16.5656 24 15.843V4.5C23.9987 3.30693 23.5241 2.16311 22.6805 1.31948C21.8369 0.475854 20.6931 0.00132343 19.5 0V0ZM12.75 3.125C12.75 2.95924 12.8158 2.80027 12.9331 2.68306C13.0503 2.56585 13.2092 2.5 13.375 2.5H15.388C15.5538 2.5 15.7127 2.56585 15.8299 2.68306C15.9472 2.80027 16.013 2.95924 16.013 3.125C16.013 3.29076 15.9472 3.44973 15.8299 3.56694C15.7127 3.68415 15.5538 3.75 15.388 3.75H14V4.888H15.239C15.4048 4.888 15.5637 4.95385 15.6809 5.07106C15.7982 5.18827 15.864 5.34724 15.864 5.513C15.864 5.67876 15.7982 5.83773 15.6809 5.95494C15.5637 6.07215 15.4048 6.138 15.239 6.138H14V7.938C14 8.10376 13.9342 8.26273 13.8169 8.37994C13.6997 8.49715 13.5408 8.563 13.375 8.563C13.2092 8.563 13.0503 8.49715 12.9331 8.37994C12.8158 8.26273 12.75 8.10376 12.75 7.938V3.125ZM9.75 3.125C9.75 2.95924 9.81585 2.80027 9.93306 2.68306C10.0503 2.56585 10.2092 2.5 10.375 2.5C10.5408 2.5 10.6997 2.56585 10.8169 2.68306C10.9342 2.80027 11 2.95924 11 3.125V7.944C11 8.10976 10.9342 8.26873 10.8169 8.38594C10.6997 8.50315 10.5408 8.569 10.375 8.569C10.2092 8.569 10.0503 8.50315 9.93306 8.38594C9.81585 8.26873 9.75 8.10976 9.75 7.944V3.125ZM4 4.485C4.00079 4.22328 4.05316 3.96429 4.15414 3.72284C4.25511 3.48138 4.40269 3.2622 4.58845 3.07784C4.77421 2.89348 4.99449 2.74755 5.2367 2.64839C5.47891 2.54924 5.73829 2.49882 6 2.5C6.36528 2.50301 6.72293 2.60493 7.03493 2.79491C7.34694 2.9849 7.60165 3.25586 7.772 3.579C7.84891 3.7262 7.8642 3.89791 7.81451 4.05638C7.76481 4.21485 7.6542 4.34709 7.507 4.424C7.3598 4.50091 7.18809 4.5162 7.02962 4.46651C6.87115 4.41681 6.73891 4.3062 6.662 4.159C6.59719 4.03878 6.50192 3.93771 6.38573 3.86592C6.26954 3.79413 6.13651 3.75416 6 3.75C5.90121 3.74906 5.80323 3.76786 5.7118 3.80529C5.62037 3.84273 5.53734 3.89804 5.46757 3.96799C5.39781 4.03794 5.34271 4.12112 5.30552 4.21265C5.26833 4.30418 5.2498 4.40221 5.251 4.501V6.568C5.2498 6.66679 5.26833 6.76482 5.30552 6.85635C5.34271 6.94788 5.39781 7.03105 5.46757 7.10101C5.53734 7.17096 5.62037 7.22627 5.7118 7.26371C5.80323 7.30114 5.90121 7.31994 6 7.319C6.19565 7.31678 6.38288 7.23909 6.52262 7.10214C6.66237 6.96519 6.74383 6.77956 6.75 6.584V6.5H6.5C6.36739 6.5 6.24021 6.44732 6.14645 6.35355C6.05268 6.25979 6 6.13261 6 6C6 5.86739 6.05268 5.74021 6.14645 5.64645C6.24021 5.55268 6.36739 5.5 6.5 5.5H7.25C7.44891 5.5 7.63968 5.57902 7.78033 5.71967C7.92098 5.86032 8 6.05109 8 6.25V6.584C7.99578 7.11166 7.7832 7.61626 7.40859 7.98788C7.03397 8.3595 6.52767 8.56802 6 8.568C5.73837 8.56918 5.47907 8.51879 5.23693 8.4197C4.99479 8.32061 4.77455 8.17477 4.5888 7.99051C4.40306 7.80625 4.25545 7.58719 4.15442 7.34586C4.05339 7.10452 4.00092 6.84563 4 6.584V4.485ZM3 19.5V11H21V15H17C16.4696 15 15.9609 15.2107 15.5858 15.5858C15.2107 15.9609 15 16.4696 15 17V21H4.5C4.10218 21 3.72064 20.842 3.43934 20.5607C3.15804 20.2794 3 19.8978 3 19.5Z" fill="#374957"/>
</g>
<defs>
<clipPath id="clip0_405_1533">
<rect width="24" height="24" fill="white"/>
</clipPath>
</defs>
</svg>
