<svg width="24" height="24" viewBox="0 0 24 24" fill="none" xmlns="http://www.w3.org/2000/svg">
<g clip-path="url(#clip0_405_1773)">
<path d="M20.3279 12.2C20.016 11.2223 19.6522 10.262 19.2379 9.32302C18.6343 8.11862 18.2169 6.82962 17.9999 5.50002C17.9999 5.36741 18.0526 5.24024 18.1464 5.14647C18.2402 5.0527 18.3673 5.00002 18.4999 5.00002C18.6325 5.00002 18.7597 5.0527 18.8535 5.14647C18.9473 5.24024 18.9999 5.36741 18.9999 5.50002C18.9999 5.89785 19.158 6.27938 19.4393 6.56068C19.7206 6.84199 20.1021 7.00002 20.4999 7.00002C20.8978 7.00002 21.2793 6.84199 21.5606 6.56068C21.8419 6.27938 21.9999 5.89785 21.9999 5.50002C21.9997 4.60032 21.6521 3.73545 21.0296 3.08581C20.4072 2.43618 19.558 2.05194 18.6591 2.01324C17.7602 1.97455 16.8811 2.28439 16.2051 2.87813C15.5292 3.47187 15.1085 4.30367 15.0309 5.20002C15.0106 5.29874 15.0002 5.39924 14.9999 5.50002C15.0171 6.14835 15.1227 6.79129 15.3139 7.41102L11.5999 10.3L7.09994 7.00002H8.49994C8.89777 7.00002 9.2793 6.84199 9.5606 6.56068C9.84191 6.27938 9.99994 5.89785 9.99994 5.50002C9.99994 5.1022 9.84191 4.72067 9.5606 4.43936C9.2793 4.15806 8.89777 4.00002 8.49994 4.00002H5.47094C4.95013 3.99989 4.44262 4.16445 4.02098 4.47017C3.59935 4.77588 3.28518 5.2071 3.12342 5.70215C2.96166 6.1972 2.96058 6.73073 3.12035 7.22643C3.28012 7.72212 3.59254 8.15461 4.01294 8.46202L9.13894 12.214L8.04594 13.064C7.17809 12.3788 6.10566 12.0042 4.99994 12C4.01103 12 3.04434 12.2933 2.22209 12.8427C1.39984 13.3921 0.758982 14.173 0.380544 15.0866C0.00210539 16.0002 -0.0969113 17.0056 0.0960148 17.9755C0.288941 18.9454 0.765145 19.8363 1.46441 20.5356C2.16367 21.2348 3.05458 21.711 4.02449 21.9039C4.99439 22.0969 5.99973 21.9979 6.91336 21.6194C7.82699 21.241 8.60788 20.6001 9.15729 19.7779C9.7067 18.9556 9.99994 17.9889 9.99994 17C9.99303 16.5018 9.91042 16.0075 9.75494 15.534L16.4159 10.354C16.4159 10.354 17.0019 11.754 17.2159 12.343C16.1003 12.7645 15.1715 13.57 14.5964 14.6148C14.0213 15.6596 13.8376 16.8752 14.0783 18.0433C14.319 19.2114 14.9684 20.2553 15.9097 20.9876C16.8511 21.7199 18.0227 22.0925 19.2141 22.0385C20.4055 21.9845 21.5386 21.5074 22.4098 20.693C23.281 19.8786 23.8333 18.7801 23.9674 17.5951C24.1014 16.41 23.8085 15.216 23.1413 14.2275C22.474 13.239 21.4762 12.5208 20.3269 12.202L20.3279 12.2ZM4.99994 19C4.60438 19 4.2177 18.8827 3.8888 18.663C3.5599 18.4432 3.30356 18.1308 3.15218 17.7654C3.00081 17.3999 2.9612 16.9978 3.03837 16.6098C3.11554 16.2219 3.30602 15.8655 3.58573 15.5858C3.86543 15.3061 4.2218 15.1156 4.60976 15.0385C4.99772 14.9613 5.39986 15.0009 5.76531 15.1523C6.13076 15.3036 6.44312 15.56 6.66288 15.8889C6.88264 16.2178 6.99994 16.6045 6.99994 17C6.99994 17.5305 6.78923 18.0392 6.41416 18.4142C6.03908 18.7893 5.53037 19 4.99994 19ZM18.9999 19C18.6044 19 18.2177 18.8827 17.8888 18.663C17.5599 18.4432 17.3036 18.1308 17.1522 17.7654C17.0008 17.3999 16.9612 16.9978 17.0384 16.6098C17.1155 16.2219 17.306 15.8655 17.5857 15.5858C17.8654 15.3061 18.2218 15.1156 18.6098 15.0385C18.9977 14.9613 19.3999 15.0009 19.7653 15.1523C20.1308 15.3036 20.4431 15.56 20.6629 15.8889C20.8826 16.2178 20.9999 16.6045 20.9999 17C20.9999 17.5305 20.7892 18.0392 20.4142 18.4142C20.0391 18.7893 19.5304 19 18.9999 19Z" fill="#374957"/>
</g>
<defs>
<clipPath id="clip0_405_1773">
<rect width="24" height="24" fill="white"/>
</clipPath>
</defs>
</svg>
