<svg width="24" height="24" viewBox="0 0 24 24" fill="none" xmlns="http://www.w3.org/2000/svg">
<g clip-path="url(#clip0_405_1644)">
<path d="M6.5 12.9994H1.5C1.10218 12.9994 0.720644 12.8414 0.43934 12.5601C0.158035 12.2787 0 11.8972 0 11.4994C0 11.1016 0.158035 10.72 0.43934 10.4387C0.720644 10.1574 1.10218 9.99939 1.5 9.99939H6.5C6.89782 9.99939 7.27936 10.1574 7.56066 10.4387C7.84196 10.72 8 11.1016 8 11.4994C8 11.8972 7.84196 12.2787 7.56066 12.5601C7.27936 12.8414 6.89782 12.9994 6.5 12.9994Z" fill="#374957"/>
<path d="M18.5001 13.0008H11.5001C11.1022 13.0008 10.7207 12.8428 10.4394 12.5615C10.1581 12.2802 10.0001 11.8986 10.0001 11.5008C10.0001 11.103 10.1581 10.7215 10.4394 10.4402C10.7207 10.1588 11.1022 10.0008 11.5001 10.0008H18.5001C18.8311 10.0008 19.1588 9.93513 19.4642 9.8075C19.7696 9.67987 20.0467 9.49285 20.2792 9.2573C20.5118 9.02176 20.6953 8.74237 20.819 8.43535C20.9428 8.12834 21.0043 7.7998 21.0001 7.46881C20.9874 7.00474 20.8162 6.559 20.5149 6.20582C20.2136 5.85265 19.8004 5.61336 19.3441 5.52781C19.0564 5.47759 18.7613 5.49096 18.4793 5.56699C18.1974 5.64302 17.9355 5.77986 17.7121 5.9679C17.4887 6.15594 17.3092 6.39061 17.1862 6.65544C17.0632 6.92026 16.9997 7.20881 17.0001 7.50081C17.0001 7.89864 16.842 8.28017 16.5607 8.56147C16.2794 8.84278 15.8979 9.00081 15.5001 9.00081C12.7331 8.68281 14.3221 4.77581 15.7601 3.69281C16.4827 3.07785 17.3654 2.68121 18.305 2.54922C19.2447 2.41723 20.2025 2.55535 21.0666 2.94744C21.9307 3.33953 22.6653 3.9694 23.1848 4.76347C23.7042 5.55754 23.987 6.48303 24.0001 7.43181C24.0092 8.15987 23.8737 8.88249 23.6014 9.55777C23.3291 10.233 22.9254 10.8475 22.4137 11.3656C21.9021 11.8836 21.2927 12.2949 20.6209 12.5757C19.9491 12.8564 19.2282 13.0009 18.5001 13.0008Z" fill="#374957"/>
<path d="M7 7.99983H1.5C1.10218 7.99983 0.720644 7.84179 0.43934 7.56049C0.158035 7.27918 0 6.89765 0 6.49983C0 6.102 0.158035 5.72047 0.43934 5.43916C0.720644 5.15786 1.10218 4.99983 1.5 4.99983H7C7.2405 5.01027 7.47748 4.93923 7.67258 4.79821C7.86768 4.6572 8.00947 4.45446 8.075 4.22283C8.10332 4.07959 8.09935 3.93184 8.06337 3.79034C8.02738 3.64883 7.9603 3.51713 7.867 3.40483C7.75293 3.29611 7.61787 3.21181 7.47008 3.15711C7.3223 3.1024 7.16491 3.07844 7.00754 3.08667C6.85017 3.09491 6.69614 3.13518 6.55488 3.20502C6.41362 3.27486 6.2881 3.37279 6.186 3.49283C6.0627 3.64862 5.90969 3.77836 5.73583 3.87453C5.56198 3.97069 5.37075 4.03136 5.17326 4.05301C4.97577 4.07466 4.77594 4.05687 4.58538 4.00065C4.39482 3.94444 4.21733 3.85093 4.06321 3.72555C3.90909 3.60017 3.78141 3.44543 3.68758 3.2703C3.59376 3.09517 3.53566 2.90315 3.51667 2.70538C3.49767 2.50762 3.51815 2.30805 3.57691 2.11826C3.63568 1.92847 3.73157 1.75225 3.859 1.59983C4.2377 1.1334 4.71371 0.75533 5.25375 0.49205C5.7938 0.22877 6.38483 0.086636 6.98553 0.0755877C7.58623 0.0645395 8.1821 0.184843 8.73145 0.428087C9.28081 0.671331 9.77041 1.03164 10.166 1.48383C10.5404 1.93339 10.8114 2.45981 10.9597 3.02579C11.108 3.59176 11.1299 4.18342 11.024 4.75882C10.8391 5.68482 10.335 6.51651 9.59955 7.10882C8.86414 7.70113 7.94413 8.01647 7 7.99983Z" fill="#374957"/>
<path d="M15.585 24.0071C14.8761 24.0051 14.1763 23.847 13.5354 23.5443C12.8944 23.2415 12.3279 22.8014 11.876 22.2551C11.7512 22.1026 11.6578 21.927 11.6009 21.7383C11.544 21.5497 11.5248 21.3517 11.5444 21.1556C11.5641 20.9595 11.6221 20.7692 11.7153 20.5956C11.8085 20.422 11.935 20.2684 12.0875 20.1436C12.24 20.0189 12.4156 19.9254 12.6043 19.8685C12.793 19.8116 12.991 19.7925 13.1871 19.8121C13.583 19.8518 13.947 20.0471 14.199 20.3551C14.3538 20.537 14.5444 20.685 14.759 20.7898C14.9735 20.8947 15.2074 20.9541 15.446 20.9644C15.6846 20.9748 15.9228 20.9357 16.1456 20.8498C16.3684 20.7639 16.5711 20.633 16.741 20.4651C16.8847 20.2929 16.9882 20.0908 17.0439 19.8735C17.0996 19.6562 17.1061 19.4293 17.063 19.2091C16.9724 18.8515 16.7613 18.5359 16.4654 18.3156C16.1694 18.0952 15.8066 17.9835 15.438 17.9992H1.5C1.10218 17.9992 0.720644 17.8411 0.43934 17.5598C0.158035 17.2785 0 16.897 0 16.4992C0 16.1013 0.158035 15.7198 0.43934 15.4385C0.720644 15.1572 1.10218 14.9992 1.5 14.9992H15.438C16.5111 14.9783 17.5574 15.3352 18.394 16.0075C19.2306 16.6798 19.8044 17.6247 20.015 18.6772C20.136 19.3275 20.1123 19.9966 19.9455 20.6368C19.7788 21.277 19.4732 21.8726 19.0503 22.3813C18.6275 22.8901 18.0978 23.2995 17.4989 23.5805C16.9 23.8615 16.2465 24.0071 15.585 24.0071Z" fill="#374957"/>
</g>
<defs>
<clipPath id="clip0_405_1644">
<rect width="24" height="24" fill="white"/>
</clipPath>
</defs>
</svg>
