<svg width="24" height="24" viewBox="0 0 24 24" fill="none" xmlns="http://www.w3.org/2000/svg">
<g clip-path="url(#clip0_405_1630)">
<path d="M8.0013 21H3.41027C3.18461 20.9994 3.0018 20.8167 3.00128 20.591V3.40898C3.00184 3.18333 3.18461 3.00052 3.41027 3H8.00125C8.82967 3 9.50125 2.32842 9.50125 1.5C9.50125 0.671578 8.82967 0 8.00125 0H3.41027C1.52847 0.00220313 0.00348486 1.52719 0.00128174 3.40898V20.591C0.00348486 22.4728 1.52847 23.9978 3.41027 24H8.00125C8.82967 24 9.50125 23.3284 9.50125 22.5C9.50125 21.6716 8.82972 21 8.0013 21Z" fill="#374957"/>
<path d="M22.5014 10.5009L8.86143 10.5279L12.3274 7.06189C12.9134 6.47619 12.9136 5.52636 12.3279 4.94037C11.7422 4.35439 10.7924 4.35415 10.2064 4.93986L6.32742 8.81886C4.57003 10.5762 4.57003 13.4255 6.32737 15.1828L6.32742 15.1828L10.2064 19.0618C10.7924 19.6475 11.7422 19.6473 12.3279 19.0613C12.9136 18.4753 12.9134 17.5255 12.3274 16.9398L8.9144 13.5278L22.5014 13.5009C23.3299 13.4992 24.0001 12.8263 23.9984 11.9979C23.9968 11.1695 23.3239 10.4992 22.4954 10.5009H22.5014Z" fill="#374957"/>
</g>
<defs>
<clipPath id="clip0_405_1630">
<rect width="24" height="24" fill="white"/>
</clipPath>
</defs>
</svg>
