<svg width="24" height="24" viewBox="0 0 24 24" fill="none" xmlns="http://www.w3.org/2000/svg">
<g clip-path="url(#clip0_405_1620)">
<path d="M22.0239 2.27804C21.4 1.75816 20.6686 1.3829 19.8825 1.17922C19.0963 0.975546 18.2748 0.948503 17.4769 1.10004L14.1939 1.78804C13.3781 1.93395 12.6187 2.30292 11.9999 2.85404C11.394 2.30698 10.6478 1.93927 9.84488 1.79204L6.48388 1.09204C5.69154 0.947954 4.87723 0.979632 4.09847 1.18483C3.31972 1.39003 2.59553 1.76375 1.97707 2.27957C1.35862 2.7954 0.860985 3.44075 0.519337 4.17002C0.177688 4.8993 0.000360667 5.6947 -0.000116775 6.50004V16.292C-0.00189976 17.5766 0.446667 18.8212 1.26756 19.8092C2.08846 20.7973 3.22973 21.4664 4.49288 21.7L10.2999 22.847C10.8588 22.949 11.4258 23.0002 11.9939 23C12.5734 22.9997 13.1518 22.9471 13.7219 22.843L19.4839 21.7C20.7504 21.4697 21.896 20.8025 22.7212 19.8145C23.5464 18.8265 23.9989 17.5803 23.9999 16.293V6.50004C24.0007 5.69439 23.824 4.89845 23.4825 4.16876C23.141 3.43908 22.643 2.79355 22.0239 2.27804ZM10.4999 19.829L5.05288 18.753C4.47676 18.6483 3.95567 18.3447 3.58048 17.8952C3.20529 17.4456 2.99982 16.8786 2.99988 16.293V6.50004C3.00172 5.8386 3.26488 5.20469 3.73203 4.73642C4.19918 4.26815 4.83245 4.00346 5.49388 4.00004C5.63272 3.99977 5.77129 4.01215 5.90788 4.03704L9.26888 4.73704C9.61424 4.79999 9.92658 4.98208 10.1515 5.2516C10.3764 5.52111 10.4997 5.86099 10.4999 6.21204V19.829ZM20.9999 16.293C20.9988 16.8821 20.7902 17.452 20.4107 17.9026C20.0313 18.3532 19.5052 18.6557 18.9249 18.757L13.4999 19.829V6.21204C13.502 5.85441 13.6308 5.50912 13.8636 5.23758C14.0963 4.96603 14.4178 4.78583 14.7709 4.72904L18.0529 4.04204C18.413 3.97659 18.7831 3.99102 19.137 4.0843C19.491 4.17759 19.8201 4.34745 20.1012 4.58189C20.3823 4.81633 20.6084 5.10963 20.7637 5.44108C20.919 5.77252 20.9996 6.13402 20.9999 6.50004V16.293Z" fill="#374957"/>
</g>
<defs>
<clipPath id="clip0_405_1620">
<rect width="24" height="24" fill="white"/>
</clipPath>
</defs>
</svg>
