<svg width="24" height="24" viewBox="0 0 24 24" fill="none" xmlns="http://www.w3.org/2000/svg">
<g clip-path="url(#clip0_405_1664)">
<path d="M12 0C9.62663 0 7.30655 0.703788 5.33316 2.02236C3.35977 3.34094 1.8217 5.21509 0.913451 7.4078C0.00519943 9.60051 -0.232441 12.0133 0.230582 14.3411C0.693605 16.6689 1.83649 18.8071 3.51472 20.4853C5.19295 22.1635 7.33115 23.3064 9.65892 23.7694C11.9867 24.2324 14.3995 23.9948 16.5922 23.0866C18.7849 22.1783 20.6591 20.6402 21.9776 18.6668C23.2962 16.6935 24 14.3734 24 12C23.9966 8.81846 22.7312 5.76821 20.4815 3.51852C18.2318 1.26883 15.1815 0.00344108 12 0V0ZM12 21C10.22 21 8.47992 20.4722 6.99987 19.4832C5.51983 18.4943 4.36628 17.0887 3.68509 15.4442C3.0039 13.7996 2.82567 11.99 3.17294 10.2442C3.5202 8.49836 4.37737 6.89471 5.63604 5.63604C6.89472 4.37737 8.49836 3.5202 10.2442 3.17293C11.99 2.82567 13.7996 3.0039 15.4442 3.68508C17.0887 4.36627 18.4943 5.51983 19.4832 6.99987C20.4722 8.47991 21 10.22 21 12C20.9971 14.3861 20.0479 16.6736 18.3608 18.3607C16.6736 20.0479 14.3861 20.9971 12 21Z" fill="#374957"/>
<path d="M11.9998 6.99939C11.0109 6.99939 10.0442 7.29263 9.22197 7.84204C8.39972 8.39145 7.75886 9.17234 7.38042 10.086C7.00198 10.9996 6.90297 12.0049 7.09589 12.9748C7.28882 13.9447 7.76502 14.8357 8.46429 15.5349C9.16355 16.2342 10.0545 16.7104 11.0244 16.9033C11.9943 17.0962 12.9996 16.9972 13.9132 16.6188C14.8269 16.2404 15.6078 15.5995 16.1572 14.7772C16.7066 13.955 16.9998 12.9883 16.9998 11.9994C16.9982 10.6738 16.4709 9.40295 15.5336 8.46561C14.5963 7.52827 13.3254 7.00098 11.9998 6.99939ZM11.9998 13.9994C11.6043 13.9994 11.2176 13.8821 10.8887 13.6623C10.5598 13.4426 10.3034 13.1302 10.1521 12.7648C10.0007 12.3993 9.96108 11.9972 10.0382 11.6092C10.1154 11.2212 10.3059 10.8649 10.5856 10.5852C10.8653 10.3055 11.2217 10.115 11.6096 10.0378C11.9976 9.96065 12.3997 10.0003 12.7652 10.1516C13.1306 10.303 13.443 10.5594 13.6628 10.8882C13.8825 11.2171 13.9998 11.6038 13.9998 11.9994C13.9998 12.5298 13.7891 13.0385 13.414 13.4136C13.039 13.7887 12.5303 13.9994 11.9998 13.9994Z" fill="#374957"/>
</g>
<defs>
<clipPath id="clip0_405_1664">
<rect width="24" height="24" fill="white"/>
</clipPath>
</defs>
</svg>
