<svg width="24" height="24" viewBox="0 0 24 24" fill="none" xmlns="http://www.w3.org/2000/svg">
<g clip-path="url(#clip0_405_1572)">
<path d="M20.7901 4.25542C20.5072 3.98218 20.1283 3.83099 19.735 3.83441C19.3417 3.83782 18.9655 3.99558 18.6874 4.27369C18.4093 4.5518 18.2515 4.92802 18.2481 5.32132C18.2447 5.71461 18.3959 6.09352 18.6691 6.37642C19.4076 7.11483 19.9933 7.99147 20.393 8.95626C20.7926 9.92106 20.9983 10.9551 20.9983 11.9994C20.9983 13.0437 20.7926 14.0778 20.393 15.0426C19.9933 16.0074 19.4076 16.884 18.6691 17.6224C18.3959 17.9053 18.2447 18.2842 18.2481 18.6775C18.2515 19.0708 18.4093 19.447 18.6874 19.7251C18.9655 20.0033 19.3417 20.161 19.735 20.1644C20.1283 20.1678 20.5072 20.0167 20.7901 19.7434C21.8071 18.7265 22.6139 17.5192 23.1643 16.1905C23.7148 14.8618 23.9981 13.4376 23.9981 11.9994C23.9981 10.5612 23.7148 9.13707 23.1643 7.80834C22.6139 6.47962 21.8071 5.27233 20.7901 4.25542Z" fill="#374957"/>
<path d="M18.652 11.9991C18.6498 11.0395 18.3307 10.1075 17.7442 9.34802C17.1578 8.58849 16.3368 8.04398 15.409 7.79913V1.67913C15.409 1.45922 15.3606 1.242 15.2672 1.04288C15.1739 0.843752 15.0379 0.667582 14.869 0.526845C14.7 0.386108 14.5021 0.284248 14.2894 0.228479C14.0767 0.17271 13.8543 0.164396 13.638 0.204127C10.6941 0.756046 8.06116 2.3841 6.252 4.77113H5.5C4.0418 4.77272 2.64377 5.35269 1.61267 6.38379C0.581561 7.4149 0.00158817 8.81292 0 10.2711L0 13.7271C0.00158817 15.1853 0.581561 16.5834 1.61267 17.6145C2.64377 18.6456 4.0418 19.2255 5.5 19.2271H6.254C8.06181 21.6156 10.6941 23.2455 13.638 23.7991C13.7274 23.8159 13.8181 23.8242 13.909 23.8241C14.3068 23.8241 14.6884 23.6661 14.9697 23.3848C15.251 23.1035 15.409 22.722 15.409 22.3241V16.1991C16.3368 15.9543 17.1578 15.4098 17.7442 14.6502C18.3307 13.8907 18.6498 12.9587 18.652 11.9991ZM12.409 20.3211C10.7226 19.6228 9.28553 18.4328 8.285 16.9061C8.14856 16.6975 7.96227 16.5262 7.74297 16.4076C7.52367 16.2891 7.27829 16.227 7.029 16.2271H5.5C4.83696 16.2271 4.20107 15.9637 3.73223 15.4949C3.26339 15.0261 3 14.3902 3 13.7271V10.2711C3 9.60809 3.26339 8.9722 3.73223 8.50336C4.20107 8.03452 4.83696 7.77113 5.5 7.77113H7.029C7.27829 7.77123 7.52367 7.7092 7.74297 7.59065C7.96227 7.4721 8.14856 7.30076 8.285 7.09213C9.28553 5.56548 10.7226 4.37548 12.409 3.67713V20.3211Z" fill="#374957"/>
</g>
<defs>
<clipPath id="clip0_405_1572">
<rect width="24" height="24" fill="white"/>
</clipPath>
</defs>
</svg>
