<svg width="24" height="24" viewBox="0 0 24 24" fill="none" xmlns="http://www.w3.org/2000/svg">
<g clip-path="url(#clip0_405_1636)">
<path d="M8.50001 7.00001C9.185 7.02271 9.83299 7.31631 10.3017 7.81635C10.7704 8.31638 11.0216 8.98197 11 9.66701C11 11 9.88101 11 8.50001 11C7.11901 11 6.00001 11 6.00001 9.66701C5.97843 8.98197 6.22958 8.31638 6.6983 7.81635C7.16702 7.31631 7.81501 7.02271 8.50001 7.00001ZM13 9.66701C13 11 14.119 11 15.5 11C16.881 11 18 11 18 9.66701C18.0216 8.98197 17.7704 8.31638 17.3017 7.81635C16.833 7.31631 16.185 7.02271 15.5 7.00001C14.815 7.02271 14.167 7.31631 13.6983 7.81635C13.2296 8.31638 12.9784 8.98197 13 9.66701ZM24 12C24 9.62663 23.2962 7.30655 21.9776 5.33316C20.6591 3.35977 18.7849 1.8217 16.5922 0.913451C14.3995 0.00519943 11.9867 -0.232441 9.65892 0.230582C7.33115 0.693605 5.19295 1.83649 3.51472 3.51472C1.83649 5.19295 0.693605 7.33115 0.230582 9.65892C-0.232441 11.9867 0.00519943 14.3995 0.913451 16.5922C1.8217 18.7849 3.35977 20.6591 5.33316 21.9776C7.30655 23.2962 9.62663 24 12 24C15.1815 23.9966 18.2318 22.7312 20.4815 20.4815C22.7312 18.2318 23.9966 15.1815 24 12ZM21 12C21 13.78 20.4722 15.5201 19.4832 17.0001C18.4943 18.4802 17.0887 19.6337 15.4442 20.3149C13.7996 20.9961 11.99 21.1743 10.2442 20.8271C8.49836 20.4798 6.89472 19.6226 5.63604 18.364C4.37737 17.1053 3.5202 15.5016 3.17294 13.7558C2.82567 12.01 3.0039 10.2004 3.68509 8.55585C4.36628 6.91132 5.51983 5.50571 6.99987 4.51678C8.47992 3.52785 10.22 3.00001 12 3.00001C14.3861 3.00265 16.6738 3.95171 18.361 5.63897C20.0483 7.32622 20.9974 9.61387 21 12ZM17.065 17.056C17.2038 16.9161 17.3137 16.7502 17.3884 16.5679C17.463 16.3855 17.501 16.1902 17.5002 15.9931C17.4994 15.7961 17.4597 15.6011 17.3835 15.4194C17.3073 15.2376 17.196 15.0727 17.056 14.934C15.6664 13.6887 13.866 13 12 13C10.134 13 8.33366 13.6887 6.94401 14.934C6.66548 15.2115 6.50769 15.5877 6.50488 15.9809C6.50207 16.3741 6.65448 16.7525 6.92901 17.034C7.20617 17.3162 7.58303 17.4784 7.97853 17.4857C8.37404 17.493 8.75662 17.3448 9.04401 17.073C9.87168 16.3777 10.918 15.9965 11.999 15.9965C13.08 15.9965 14.1263 16.3777 14.954 17.073C15.2375 17.3485 15.6183 17.501 16.0136 17.4972C16.4089 17.4935 16.7868 17.3338 17.065 17.053V17.056Z" fill="#374957"/>
</g>
<defs>
<clipPath id="clip0_405_1636">
<rect width="24" height="24" fill="white"/>
</clipPath>
</defs>
</svg>
