<svg width="24" height="24" viewBox="0 0 24 24" fill="none" xmlns="http://www.w3.org/2000/svg">
<g clip-path="url(#clip0_405_1639)">
<path d="M12 0C9.62663 0 7.30655 0.703788 5.33316 2.02236C3.35977 3.34094 1.8217 5.21509 0.913451 7.4078C0.00519943 9.60051 -0.232441 12.0133 0.230582 14.3411C0.693605 16.6689 1.83649 18.8071 3.51472 20.4853C5.19295 22.1635 7.33115 23.3064 9.65892 23.7694C11.9867 24.2324 14.3995 23.9948 16.5922 23.0866C18.7849 22.1783 20.6591 20.6402 21.9776 18.6668C23.2962 16.6935 24 14.3734 24 12C23.9966 8.81846 22.7312 5.76821 20.4815 3.51852C18.2318 1.26883 15.1815 0.00344108 12 0V0ZM20.415 8.836L12.915 10.294C12.871 10.209 12.822 10.127 12.784 10.039L9.84701 3.271C11.9847 2.73217 14.2462 3.0023 16.1968 4.0295C18.1475 5.05669 19.6498 6.76849 20.415 8.836ZM3.00001 12C3.00117 10.5025 3.37624 9.02899 4.09117 7.71316C4.80609 6.39734 5.83826 5.28085 7.09401 4.465L10.032 11.233C10.5218 12.3633 11.2917 13.3501 12.269 14.1L18.124 18.581C16.8437 19.779 15.2408 20.5763 13.513 20.8744C11.7851 21.1726 10.0078 20.9587 8.39998 20.2591C6.79219 19.5595 5.42424 18.4048 4.46472 16.9372C3.5052 15.4696 2.99604 13.7534 3.00001 12ZM19.954 16.2L15.56 12.836L20.989 11.781C20.989 11.854 21 11.926 21 12C21.0005 13.4645 20.6414 14.9068 19.954 16.2Z" fill="#374957"/>
</g>
<defs>
<clipPath id="clip0_405_1639">
<rect width="24" height="24" fill="white"/>
</clipPath>
</defs>
</svg>
