<svg width="24" height="24" viewBox="0 0 24 24" fill="none" xmlns="http://www.w3.org/2000/svg">
<g clip-path="url(#clip0_405_1602)">
<path d="M21.864 18.1271C21.591 16.9547 20.9298 15.909 19.9876 15.1598C19.0455 14.4106 17.8777 14.0019 16.674 14.0001H13.5V12.3841C14.9908 12.0175 16.2958 11.1177 17.1685 9.85455C18.0411 8.59142 18.421 7.05246 18.2364 5.52834C18.0517 4.00423 17.3154 2.60048 16.1663 1.58226C15.0173 0.564039 13.5352 0.00183105 12 0.00183105C10.4647 0.00183105 8.98259 0.564039 7.83357 1.58226C6.68455 2.60048 5.94818 4.00423 5.76355 5.52834C5.57892 7.05246 5.9588 8.59142 6.83146 9.85455C7.70411 11.1177 9.00911 12.0175 10.5 12.3841V14.0001H7.32596C6.12222 14.0019 4.95444 14.4106 4.01227 15.1598C3.0701 15.909 2.40887 16.9547 2.13596 18.1271C1.50356 18.3171 0.951517 18.7105 0.565443 19.2462C0.179369 19.7819 -0.0191688 20.43 0.000615035 21.0901C0.0203989 21.7501 0.257399 22.3852 0.674866 22.8968C1.09233 23.4084 1.66694 23.768 2.30959 23.9198C2.95224 24.0716 3.62702 24.0072 4.22929 23.7364C4.83157 23.4657 5.3277 23.0038 5.64074 22.4224C5.95378 21.841 6.06625 21.1725 5.9607 20.5207C5.85515 19.8688 5.53748 19.27 5.05696 18.8171C5.17341 18.302 5.46132 17.8417 5.87354 17.5116C6.28576 17.1815 6.79785 17.0011 7.32596 17.0001H10.5V18.4001C9.92803 18.7303 9.48104 19.24 9.22832 19.8501C8.97559 20.4603 8.93125 21.1367 9.10218 21.7746C9.2731 22.4125 9.64974 22.9762 10.1737 23.3782C10.6976 23.7803 11.3396 23.9982 12 23.9982C12.6604 23.9982 13.3023 23.7803 13.8262 23.3782C14.3502 22.9762 14.7268 22.4125 14.8977 21.7746C15.0687 21.1367 15.0243 20.4603 14.7716 19.8501C14.5189 19.24 14.0719 18.7303 13.5 18.4001V17.0001H16.674C17.2021 17.0011 17.7142 17.1815 18.1264 17.5116C18.5386 17.8417 18.8265 18.302 18.943 18.8171C18.4624 19.27 18.1448 19.8688 18.0392 20.5207C17.9337 21.1725 18.0461 21.841 18.3592 22.4224C18.6722 23.0038 19.1683 23.4657 19.7706 23.7364C20.3729 24.0072 21.0477 24.0716 21.6903 23.9198C22.333 23.768 22.9076 23.4084 23.325 22.8968C23.7425 22.3852 23.9795 21.7501 23.9993 21.0901C24.0191 20.43 23.8205 19.7819 23.4345 19.2462C23.0484 18.7105 22.4964 18.3171 21.864 18.1271ZM8.71796 6.28311C8.71796 5.63399 8.91044 4.99945 9.27107 4.45973C9.6317 3.92001 10.1443 3.49935 10.744 3.25094C11.3437 3.00254 12.0036 2.93754 12.6402 3.06418C13.2769 3.19082 13.8617 3.5034 14.3207 3.96239C14.7797 4.42139 15.0923 5.00618 15.2189 5.64283C15.3455 6.27947 15.2805 6.93937 15.0321 7.53908C14.7837 8.13878 14.3631 8.65136 13.8233 9.01199C13.2836 9.37262 12.6491 9.56511 12 9.56511C11.1298 9.56405 10.2957 9.21793 9.6804 8.60266C9.06514 7.9874 8.71902 7.15323 8.71796 6.28311Z" fill="#374957"/>
</g>
<defs>
<clipPath id="clip0_405_1602">
<rect width="24" height="24" fill="white"/>
</clipPath>
</defs>
</svg>
