<svg width="24" height="24" viewBox="0 0 24 24" fill="none" xmlns="http://www.w3.org/2000/svg">
<g clip-path="url(#clip0_405_1770)">
<path d="M19.5 20.9999H19V20.3449C18.9978 19.7421 18.8749 19.1458 18.6386 18.5912C18.4023 18.0366 18.0573 17.535 17.624 17.1159C16.8034 16.3246 16.1532 15.3739 15.7135 14.3221C15.2738 13.2704 15.0538 12.1398 15.067 10.9999H16C16.3978 10.9999 16.7794 10.8419 17.0607 10.5606C17.342 10.2793 17.5 9.89772 17.5 9.4999C17.5 9.10207 17.342 8.72054 17.0607 8.43923C16.7794 8.15793 16.3978 7.9999 16 7.9999H15.278C15.7625 7.32623 16.0237 6.51769 16.025 5.68789C15.8061 4.10765 15.2313 2.59772 14.344 1.27189C14.0967 0.881146 13.7544 0.559501 13.349 0.337044C12.9436 0.114587 12.4884 -0.0014135 12.026 -0.000105958C11.5635 -0.00169435 11.1082 0.114185 10.7028 0.336669C10.2974 0.559152 9.95507 0.880951 9.708 1.27189C8.8198 2.59734 8.24463 4.10742 8.026 5.68789C8.02715 6.51786 8.28878 7.32654 8.774 7.9999H8.5C8.10218 7.9999 7.72064 8.15793 7.43934 8.43923C7.15804 8.72054 7 9.10207 7 9.4999C7 9.89772 7.15804 10.2793 7.43934 10.5606C7.72064 10.8419 8.10218 10.9999 8.5 10.9999H8.957C8.96602 12.1415 8.74164 13.2728 8.29763 14.3246C7.85362 15.3763 7.19936 16.3262 6.375 17.1159C5.94201 17.5352 5.5973 18.0369 5.36116 18.5914C5.12501 19.146 5.00222 19.7422 5 20.3449V20.9999H4.5C4.10218 20.9999 3.72064 21.1579 3.43934 21.4392C3.15804 21.7205 3 22.1021 3 22.4999C3 22.8977 3.15804 23.2793 3.43934 23.5606C3.72064 23.8419 4.10218 23.9999 4.5 23.9999H19.5C19.8978 23.9999 20.2794 23.8419 20.5607 23.5606C20.842 23.2793 21 22.8977 21 22.4999C21 22.1021 20.842 21.7205 20.5607 21.4392C20.2794 21.1579 19.8978 20.9999 19.5 20.9999ZM12.058 10.9999C12.0609 13.981 13.2127 16.8463 15.274 18.9999H8.726C10.7963 16.8502 11.957 13.9844 11.966 10.9999H12.058Z" fill="#374957"/>
</g>
<defs>
<clipPath id="clip0_405_1770">
<rect width="24" height="24" fill="white"/>
</clipPath>
</defs>
</svg>
