<svg width="24" height="24" viewBox="0 0 24 24" fill="none" xmlns="http://www.w3.org/2000/svg">
<g clip-path="url(#clip0_405_1757)">
<path d="M22.934 16.1005C23.5966 16.7478 23.977 17.6304 23.9923 18.5566C24.0077 19.4828 23.6568 20.3776 23.016 21.0465C23.016 21.0465 22.086 22.1125 22.062 22.1375C18.622 25.3375 14.296 23.9875 10.202 21.5265C9.86532 21.3143 9.62671 20.9771 9.53866 20.589C9.45061 20.2009 9.52034 19.7937 9.73252 19.457C9.94469 19.1203 10.2819 18.8817 10.67 18.7936C11.0581 18.7056 11.4653 18.7753 11.802 18.9875C14.737 20.6325 17.483 22.0305 19.909 20.0505C19.909 20.0505 20.833 18.9915 20.858 18.9675C20.9517 18.8737 21.0044 18.7466 21.0044 18.614C21.0044 18.4814 20.9517 18.3542 20.858 18.2605L18.62 16.1865C18.32 15.9365 18.151 15.9335 17.873 16.1465L16.737 17.2645C16.5319 17.4661 16.2732 17.6045 15.9916 17.6632C15.7101 17.7218 15.4176 17.6984 15.149 17.5955C14.969 17.5288 14.7917 17.4575 14.617 17.3815C14.293 17.2444 14.0275 16.9979 13.8669 16.6849C13.7063 16.3719 13.6608 16.0124 13.7383 15.6693C13.8159 15.3262 14.0116 15.0212 14.2912 14.8077C14.5708 14.5943 14.9166 14.4859 15.268 14.5015L15.76 14.0175C16.428 13.386 17.3128 13.0347 18.2321 13.0362C19.1514 13.0377 20.0351 13.3918 20.701 14.0255L22.934 16.1005ZM23.561 2.56148L2.56102 23.5615C2.27962 23.8429 1.89797 24.001 1.50002 24.001C1.10206 24.001 0.72041 23.8429 0.439015 23.5615C0.15762 23.2801 -0.0004656 22.8984 -0.0004656 22.5005C-0.0004656 22.1025 0.15762 21.7209 0.439015 21.4395L4.88001 17.0005C0.880015 12.3005 -2.13798 6.40048 1.86202 1.93948C1.88701 1.91448 2.95402 0.984481 2.95402 0.984481C3.62368 0.365424 4.5042 0.0250195 5.41614 0.0326376C6.32807 0.0402556 7.20278 0.395323 7.86201 1.02548L10.014 3.34348C10.6548 4.00241 11.0101 4.88737 11.0028 5.80649C10.9955 6.72561 10.6262 7.60481 9.97502 8.25348L9.58702 8.64648C9.96952 9.44627 10.4322 10.2052 10.968 10.9115L21.439 0.439481C21.7204 0.158086 22.1021 0 22.5 0C22.898 0 23.2796 0.158086 23.561 0.439481C23.8424 0.720875 24.0005 1.10253 24.0005 1.50048C24.0005 1.89843 23.8424 2.28009 23.561 2.56148ZM7.00001 14.8805L8.82701 13.0535C7.82169 11.7877 7.0086 10.3806 6.41401 8.87748C6.30551 8.60677 6.27827 8.3103 6.33564 8.02436C6.39301 7.73841 6.53249 7.47539 6.73701 7.26748L7.84501 6.14148C7.89547 6.09666 7.93602 6.0418 7.96407 5.98041C7.99211 5.91902 8.00703 5.85246 8.00788 5.78497C8.00873 5.71748 7.99548 5.65056 7.96898 5.58849C7.94249 5.52642 7.90333 5.47056 7.85401 5.42448L5.70001 3.10648C5.6047 3.02683 5.48256 2.98661 5.35857 2.99404C5.23458 3.00148 5.11812 3.05601 5.03301 3.14648C5.00901 3.17148 3.95002 4.10048 3.95002 4.10048C1.50002 7.00048 4.22401 11.5915 7.00001 14.8805Z" fill="#374957"/>
</g>
<defs>
<clipPath id="clip0_405_1757">
<rect width="24" height="24" fill="white"/>
</clipPath>
</defs>
</svg>
