<svg width="24" height="24" viewBox="0 0 24 24" fill="none" xmlns="http://www.w3.org/2000/svg">
<g clip-path="url(#clip0_405_1454)">
<path d="M8.16375 8.00015C7.58449 7.99108 7.02636 7.78112 6.58475 7.40615C5.66361 6.56137 5.10557 5.39258 5.02775 4.14515C4.78475 1.65215 6.14475 0.181146 7.61375 0.0171463C7.9677 -0.0220971 8.32593 0.0102677 8.66712 0.112314C9.0083 0.214361 9.32547 0.384004 9.59975 0.611146C10.0089 0.97998 10.3411 1.42607 10.5773 1.92377C10.8134 2.42146 10.9488 2.96093 10.9757 3.51115C11.1997 5.83515 9.96175 8.00015 8.16375 8.00015ZM2.85276 14.0001C2.32074 13.9875 1.81288 13.7755 1.42976 13.4061C0.583029 12.5245 0.0854924 11.3653 0.029759 10.1441C-0.190241 7.65115 1.03576 6.18015 2.36076 6.01615C2.68372 5.97972 3.01074 6.01398 3.31914 6.11655C3.62754 6.21912 3.90994 6.38755 4.14675 6.61015C4.90737 7.38838 5.34995 8.4226 5.38775 9.51015C5.58875 11.8351 4.35875 14.0001 2.85276 14.0001ZM15.8357 8.00015C14.0257 8.00015 12.8017 5.83415 13.0287 3.50815C13.0556 2.95793 13.1911 2.41846 13.4272 1.92077C13.6634 1.42307 13.9956 0.97698 14.4047 0.608146C14.6788 0.382365 14.9952 0.21375 15.3355 0.112246C15.6757 0.0107422 16.0328 -0.0215935 16.3857 0.0171463C17.8547 0.181146 19.2147 1.65215 18.9717 4.14515C18.8942 5.39293 18.3361 6.56212 17.4147 7.40715C16.973 7.78176 16.4149 7.99136 15.8357 8.00015ZM21.0527 14.0001C19.1667 14.0001 18.2257 11.8341 18.4377 9.50815C18.4798 8.41361 18.938 7.37637 19.7187 6.60815C19.9667 6.38393 20.2596 6.21501 20.5778 6.1126C20.8961 6.01019 21.2325 5.97663 21.5647 6.01415C22.9327 6.17815 24.1997 7.64915 23.9737 10.1421C23.9105 11.3716 23.3935 12.5339 22.5227 13.4041C22.1222 13.776 21.5992 13.9881 21.0527 14.0001ZM15.7137 24.0001C14.8114 24.0161 13.9223 23.7811 13.1457 23.3211C12.8006 23.1105 12.4041 22.9991 11.9997 22.9991C11.5954 22.9991 11.1989 23.1105 10.8537 23.3211C7.75575 25.1751 3.89975 23.1881 3.99975 18.8331C3.99975 14.2841 8.50675 10.0001 11.9997 10.0001C15.4927 10.0001 19.9997 14.2841 19.9997 18.8331C19.9997 21.8751 18.2377 24.0001 15.7137 24.0001ZM11.9997 20.0001C12.9021 19.9842 13.7912 20.2192 14.5677 20.6791C16.5457 21.8121 17.0167 19.8191 16.9997 18.8331C16.9997 15.8831 13.8357 13.0001 11.9997 13.0001C10.1637 13.0001 6.99975 15.8831 6.99975 18.8331C6.97675 19.8041 7.46175 21.8191 9.43175 20.6791C10.2083 20.2192 11.0974 19.9842 11.9997 20.0001Z" fill="#374957"/>
</g>
<defs>
<clipPath id="clip0_405_1454">
<rect width="24" height="24" fill="white"/>
</clipPath>
</defs>
</svg>
