<svg width="24" height="24" viewBox="0 0 24 24" fill="none" xmlns="http://www.w3.org/2000/svg">
<g clip-path="url(#clip0_405_1580)">
<path d="M14.5001 24C14.2283 24.0004 13.9617 23.9264 13.7291 23.786L8.72906 20.786C8.50684 20.6528 8.3229 20.4644 8.19514 20.239C8.06739 20.0137 8.00018 19.7591 8.00006 19.5V14.335L2.03406 7.035C1.36231 6.26441 0.994669 5.27527 1.00006 4.253C1.00138 3.12544 1.44989 2.04444 2.24719 1.24714C3.0445 0.449831 4.1255 0.00132327 5.25306 0L18.7471 0C19.5669 0.000298442 20.3691 0.23748 21.0573 0.683007C21.7455 1.12853 22.2903 1.76343 22.6262 2.5113C22.962 3.25916 23.0746 4.08815 22.9504 4.8985C22.8262 5.70885 22.4705 6.46606 21.9261 7.079L16.0001 14.382V22.5C16.0001 22.8978 15.842 23.2794 15.5607 23.5607C15.2794 23.842 14.8979 24 14.5001 24ZM11.0001 18.65L13.0001 19.85V13.85C12.9998 13.5056 13.1181 13.1715 13.3351 12.904L19.6401 5.137C19.867 4.89815 19.9956 4.58247 20.0001 4.253C19.9995 3.92085 19.8673 3.60245 19.6325 3.36758C19.3976 3.13271 19.0792 3.00053 18.7471 3H5.25306C5.01154 3.00024 4.77524 3.07021 4.57253 3.20152C4.36983 3.33282 4.20936 3.51987 4.1104 3.74018C4.01144 3.96049 3.9782 4.20469 4.01469 4.44343C4.05117 4.68217 4.15582 4.9053 4.31606 5.086L10.6621 12.851C10.8808 13.1189 11.0002 13.4542 11.0001 13.8V18.65Z" fill="#374957"/>
</g>
<defs>
<clipPath id="clip0_405_1580">
<rect width="24" height="24" fill="white"/>
</clipPath>
</defs>
</svg>
