<svg width="24" height="24" viewBox="0 0 24 24" fill="none" xmlns="http://www.w3.org/2000/svg">
<g clip-path="url(#clip0_405_1350)">
<path d="M24 12C24 15.1826 22.7357 18.2348 20.4853 20.4853C18.2348 22.7357 15.1826 24 12 24C8.8174 24 5.76515 22.7357 3.51472 20.4853C1.26428 18.2348 0 15.1826 0 12C0 11.6022 0.158035 11.2206 0.43934 10.9393C0.720644 10.658 1.10218 10.5 1.5 10.5C1.89782 10.5 2.27936 10.658 2.56066 10.9393C2.84196 11.2206 3 11.6022 3 12C3 13.78 3.52784 15.5201 4.51677 17.0001C5.50571 18.4802 6.91131 19.6337 8.55585 20.3149C10.2004 20.9961 12.01 21.1743 13.7558 20.8271C15.5016 20.4798 17.1053 19.6226 18.364 18.364C19.6226 17.1053 20.4798 15.5016 20.8271 13.7558C21.1743 12.01 20.9961 10.2004 20.3149 8.55585C19.6337 6.91131 18.4802 5.50571 17.0001 4.51677C15.5201 3.52784 13.78 3 12 3C11.6022 3 11.2206 2.84196 10.9393 2.56066C10.658 2.27936 10.5 1.89782 10.5 1.5C10.5 1.10218 10.658 0.720644 10.9393 0.43934C11.2206 0.158035 11.6022 0 12 0C15.1815 0.00344108 18.2318 1.26883 20.4815 3.51852C22.7312 5.76821 23.9966 8.81846 24 12ZM7 12C7 12.3978 7.15804 12.7794 7.43934 13.0607C7.72064 13.342 8.10218 13.5 8.5 13.5H10.69C11.0699 13.8344 11.5629 14.0116 12.0688 13.9955C12.5747 13.9794 13.0554 13.7712 13.4133 13.4133C13.7712 13.0554 13.9794 12.5747 13.9955 12.0688C14.0116 11.5629 13.8344 11.0699 13.5 10.69V6.5C13.5 6.10218 13.342 5.72064 13.0607 5.43934C12.7794 5.15804 12.3978 5 12 5C11.6022 5 11.2206 5.15804 10.9393 5.43934C10.658 5.72064 10.5 6.10218 10.5 6.5V10.5H8.5C8.10218 10.5 7.72064 10.658 7.43934 10.9393C7.15804 11.2206 7 11.6022 7 12ZM6.74 4.894C7.03667 4.894 7.32668 4.80603 7.57336 4.6412C7.82003 4.47638 8.01229 4.24211 8.12582 3.96803C8.23935 3.69394 8.26906 3.39234 8.21118 3.10136C8.1533 2.81039 8.01044 2.54312 7.80066 2.33334C7.59088 2.12356 7.32361 1.9807 7.03264 1.92282C6.74166 1.86494 6.44006 1.89465 6.16597 2.00818C5.89189 2.12171 5.65762 2.31397 5.4928 2.56064C5.32797 2.80732 5.24 3.09733 5.24 3.394C5.24 3.79182 5.39804 4.17336 5.67934 4.45466C5.96064 4.73596 6.34218 4.894 6.74 4.894ZM2.913 8.75C3.20967 8.75 3.49968 8.66203 3.74636 8.4972C3.99303 8.33238 4.18529 8.09811 4.29882 7.82403C4.41235 7.54994 4.44206 7.24834 4.38418 6.95736C4.3263 6.66639 4.18344 6.39912 3.97366 6.18934C3.76388 5.97956 3.49661 5.8367 3.20564 5.77882C2.91466 5.72094 2.61306 5.75065 2.33897 5.86418C2.06489 5.97771 1.83062 6.16997 1.6658 6.41664C1.50097 6.66332 1.413 6.95333 1.413 7.25C1.413 7.64782 1.57104 8.02936 1.85234 8.31066C2.13364 8.59196 2.51518 8.75 2.913 8.75Z" fill="#374957"/>
</g>
<defs>
<clipPath id="clip0_405_1350">
<rect width="24" height="24" fill="white"/>
</clipPath>
</defs>
</svg>
