<svg width="24" height="24" viewBox="0 0 24 24" fill="none" xmlns="http://www.w3.org/2000/svg">
<g clip-path="url(#clip0_405_1702)">
<path d="M11.9998 7.63776C11.1369 7.63776 10.2933 7.89364 9.57583 8.37305C8.85834 8.85247 8.29912 9.53387 7.9689 10.3311C7.63867 11.1283 7.55227 12.0056 7.72062 12.8519C7.88896 13.6983 8.3045 14.4757 8.91467 15.0859C9.52485 15.696 10.3023 16.1116 11.1486 16.2799C11.9949 16.4483 12.8722 16.3619 13.6694 16.0316C14.4667 15.7014 15.1481 15.1422 15.6275 14.4247C16.1069 13.7072 16.3628 12.8637 16.3628 12.0008C16.3615 10.844 15.9014 9.73505 15.0834 8.91711C14.2655 8.09918 13.1565 7.63908 11.9998 7.63776ZM11.9998 13.3638C11.7302 13.3638 11.4667 13.2838 11.2425 13.134C11.0184 12.9843 10.8437 12.7714 10.7405 12.5224C10.6374 12.2733 10.6104 11.9992 10.663 11.7348C10.7156 11.4705 10.8454 11.2276 11.036 11.037C11.2266 10.8464 11.4695 10.7165 11.7339 10.6639C11.9983 10.6114 12.2723 10.6383 12.5214 10.7415C12.7704 10.8447 12.9833 11.0194 13.1331 11.2435C13.2828 11.4677 13.3628 11.7312 13.3628 12.0008C13.3625 12.3622 13.2188 12.7087 12.9633 12.9643C12.7077 13.2198 12.3612 13.3635 11.9998 13.3638Z" fill="#374957"/>
<path d="M22.0001 12C21.9986 10.4677 21.6423 8.95656 20.9591 7.585L21.4731 7.228C21.7994 7.00055 22.022 6.6528 22.092 6.26124C22.1619 5.86968 22.0735 5.46636 21.8461 5.14C21.6186 4.81369 21.2709 4.59109 20.8793 4.52114C20.4878 4.45119 20.0845 4.53963 19.7581 4.767L19.2431 5.125C17.7162 3.51343 15.6951 2.45764 13.5001 2.125V1.5C13.5001 1.10218 13.3421 0.720644 13.0608 0.43934C12.7795 0.158035 12.3979 0 12.0001 0C11.6023 0 11.2207 0.158035 10.9394 0.43934C10.6581 0.720644 10.5001 1.10218 10.5001 1.5V2.125C8.30513 2.45764 6.28399 3.51343 4.7571 5.125L4.2421 4.767C3.91574 4.53963 3.51243 4.45119 3.12086 4.52114C2.7293 4.59109 2.38156 4.81369 2.1541 5.14C1.92673 5.46636 1.83829 5.86968 1.90824 6.26124C1.97819 6.6528 2.20079 7.00055 2.5271 7.228L3.0411 7.585C2.35651 8.95606 2.00013 10.4675 2.00013 12C2.00013 13.5325 2.35651 15.0439 3.0411 16.415L2.5271 16.772C2.20079 16.9995 1.97819 17.3472 1.90824 17.7388C1.83829 18.1303 1.92673 18.5336 2.1541 18.86C2.38156 19.1863 2.7293 19.4089 3.12086 19.4789C3.51243 19.5488 3.91574 19.4604 4.2421 19.233L4.7571 18.875C6.28399 20.4866 8.30513 21.5424 10.5001 21.875V22.5C10.5001 22.8978 10.6581 23.2794 10.9394 23.5607C11.2207 23.842 11.6023 24 12.0001 24C12.3979 24 12.7795 23.842 13.0608 23.5607C13.3421 23.2794 13.5001 22.8978 13.5001 22.5V21.875C15.6951 21.5424 17.7162 20.4866 19.2431 18.875L19.7581 19.233C20.0845 19.4604 20.4878 19.5488 20.8793 19.4789C21.2709 19.4089 21.6186 19.1863 21.8461 18.86C22.0735 18.5336 22.1619 18.1303 22.092 17.7388C22.022 17.3472 21.7994 16.9995 21.4731 16.772L20.9591 16.415C21.6423 15.0434 21.9986 13.5323 22.0001 12ZM12.0001 19C10.6156 19 9.26226 18.5895 8.11111 17.8203C6.95997 17.0511 6.06276 15.9579 5.53295 14.6788C5.00313 13.3997 4.86451 11.9922 5.13461 10.6344C5.4047 9.2765 6.07139 8.02922 7.05035 7.05025C8.02932 6.07128 9.2766 5.4046 10.6345 5.1345C11.9923 4.86441 13.3998 5.00303 14.6789 5.53284C15.958 6.06266 17.0512 6.95986 17.8204 8.11101C18.5896 9.26215 19.0001 10.6155 19.0001 12C18.9977 13.8558 18.2595 15.6349 16.9472 16.9471C15.635 18.2594 13.8559 18.9976 12.0001 19Z" fill="#374957"/>
</g>
<defs>
<clipPath id="clip0_405_1702">
<rect width="24" height="24" fill="white"/>
</clipPath>
</defs>
</svg>
