<svg width="24" height="24" viewBox="0 0 24 24" fill="none" xmlns="http://www.w3.org/2000/svg">
<g clip-path="url(#clip0_405_1392)">
<path d="M19.4201 9.59212C19.4736 9.23059 19.5003 8.86559 19.5001 8.50012C19.5001 6.511 18.7099 4.60334 17.3034 3.19682C15.8969 1.7903 13.9892 1.00012 12.0001 1.00012C10.011 1.00012 8.10331 1.7903 6.69678 3.19682C5.29026 4.60334 4.50008 6.511 4.50008 8.50012C4.49984 8.86559 4.52658 9.23059 4.58008 9.59212C3.60193 10.0055 2.72269 10.6218 2.00056 11.4004C1.27843 12.1789 0.729856 13.102 0.391145 14.1084C0.0524336 15.1148 -0.0686957 16.1817 0.0357716 17.2385C0.140239 18.2952 0.467921 19.3177 0.997136 20.2384C1.52635 21.159 2.24503 21.9568 3.10563 22.5789C3.96623 23.201 4.94913 23.6332 5.98928 23.847C7.02944 24.0609 8.10314 24.0513 9.13934 23.8191C10.1756 23.587 11.1506 23.1374 12.0001 22.5001C12.8489 23.1422 13.8246 23.5963 14.8624 23.8322C15.9002 24.0681 16.9763 24.0804 18.0192 23.8684C19.0621 23.6563 20.048 23.2247 20.9113 22.6023C21.7745 21.9798 22.4954 21.1808 23.0261 20.2582C23.5567 19.3357 23.8849 18.3108 23.9889 17.2516C24.0929 16.1924 23.9703 15.1232 23.6292 14.1151C23.2881 13.107 22.7364 12.183 22.0107 11.4045C21.2849 10.6261 20.4019 10.011 19.4201 9.60012V9.59212ZM12.0001 4.00012C13.1932 4.00145 14.337 4.47598 15.1806 5.3196C16.0242 6.16323 16.4988 7.30705 16.5001 8.50012C16.4999 8.66717 16.4905 8.83409 16.4721 9.00012C14.8585 9.00351 13.2894 9.52981 12.0001 10.5001C10.7108 9.52981 9.14171 9.00351 7.52808 9.00012C7.50965 8.83409 7.5003 8.66717 7.50008 8.50012C7.50141 7.30705 7.97594 6.16323 8.81957 5.3196C9.66319 4.47598 10.807 4.00145 12.0001 4.00012ZM3.00008 16.5001C3.00078 15.6421 3.2465 14.8021 3.70834 14.079C4.17017 13.3558 4.82892 12.7796 5.60708 12.4181C6.4269 13.7506 7.64052 14.7955 9.08008 15.4081C8.83437 17.0764 9.1585 18.7788 10.0001 20.2401C9.32264 20.6928 8.53501 20.953 7.72124 20.993C6.90748 21.0331 6.09811 20.8514 5.37949 20.4675C4.66088 20.0835 4.05999 19.5117 3.64093 18.813C3.22188 18.1143 3.00038 17.3149 3.00008 16.5001ZM16.5001 21.0001C15.6097 21.0014 14.7391 20.7368 14.0001 20.2401C14.8417 18.7788 15.1658 17.0764 14.9201 15.4081C16.3597 14.7955 17.5733 13.7506 18.3931 12.4181C19.3228 12.8495 20.0774 13.5853 20.532 14.5038C20.9867 15.4224 21.1142 16.4686 20.8934 17.4694C20.6727 18.4703 20.1169 19.3658 19.318 20.0078C18.5191 20.6498 17.525 20.9999 16.5001 21.0001Z" fill="#374957"/>
</g>
<defs>
<clipPath id="clip0_405_1392">
<rect width="24" height="24" fill="white"/>
</clipPath>
</defs>
</svg>
