<svg width="24" height="24" viewBox="0 0 24 24" fill="none" xmlns="http://www.w3.org/2000/svg">
<g clip-path="url(#clip0_405_1398)">
<path d="M1.15602 3.16662L1.65602 4.16662C1.84283 4.50518 2.15316 4.75852 2.52226 4.87377C2.89136 4.98903 3.29071 4.95729 3.63698 4.78519C3.98324 4.61309 4.24967 4.31392 4.38066 3.95011C4.51166 3.5863 4.4971 3.18596 4.34002 2.83262L3.84002 1.83262C3.7578 1.64767 3.639 1.48127 3.49077 1.34345C3.34254 1.20562 3.16795 1.09922 2.97752 1.03065C2.78708 0.962084 2.58474 0.932765 2.38267 0.944463C2.18061 0.95616 1.983 1.00863 1.80174 1.09872C1.62049 1.1888 1.45935 1.31464 1.32801 1.46865C1.19668 1.62266 1.09787 1.80165 1.03754 1.99486C0.977213 2.18806 0.956608 2.39148 0.97697 2.59285C0.997332 2.79423 1.05824 2.98941 1.15602 3.16662Z" fill="#374957"/>
<path d="M11.1611 1.8245L10.6611 2.8245C10.5664 3.00092 10.5081 3.19449 10.4894 3.39381C10.4708 3.59313 10.4922 3.79417 10.5525 3.98508C10.6127 4.17598 10.7106 4.3529 10.8403 4.50539C10.97 4.65788 11.1289 4.78287 11.3077 4.87299C11.4865 4.9631 11.6814 5.01652 11.8812 5.0301C12.0809 5.04368 12.2813 5.01714 12.4706 4.95204C12.66 4.88695 12.8343 4.78462 12.9835 4.65108C13.1326 4.51754 13.2535 4.3555 13.3391 4.1745L13.8391 3.1745C13.9337 2.99809 13.9921 2.80452 14.0107 2.6052C14.0294 2.40588 14.0079 2.20484 13.9477 2.01393C13.8874 1.82302 13.7895 1.64611 13.6598 1.49362C13.5301 1.34112 13.3712 1.21614 13.1924 1.12602C13.0137 1.03591 12.8187 0.982485 12.619 0.968908C12.4192 0.955331 12.2188 0.981872 12.0295 1.04697C11.8402 1.11206 11.6658 1.21439 11.5167 1.34793C11.3675 1.48147 11.2466 1.64351 11.1611 1.8245Z" fill="#374957"/>
<path d="M6 1.5V2.5C6 2.89782 6.15804 3.27936 6.43934 3.56066C6.72064 3.84196 7.10218 4 7.5 4C7.89782 4 8.27936 3.84196 8.56066 3.56066C8.84196 3.27936 9 2.89782 9 2.5V1.5C9 1.10218 8.84196 0.720644 8.56066 0.43934C8.27936 0.158035 7.89782 0 7.5 0C7.10218 0 6.72064 0.158035 6.43934 0.43934C6.15804 0.720644 6 1.10218 6 1.5Z" fill="#374957"/>
<path d="M16 7.99983C14.1429 7.99803 12.3435 8.64535 10.913 9.82983C10.4973 9.6148 10.062 9.44 9.61304 9.30783L10.349 7.83483C10.5458 7.43981 10.5841 6.98455 10.4562 6.5622C10.3283 6.13985 10.0439 5.78234 9.66104 5.56283C9.00387 5.18566 8.25772 4.99126 7.50004 4.99983C6.68883 4.98992 5.89198 5.21422 5.20504 5.64583C4.86036 5.87784 4.61317 6.22863 4.51062 6.63126C4.40807 7.0339 4.45734 7.4602 4.64904 7.82883L5.38904 9.30783C4.34833 9.6097 3.38538 10.1335 2.5665 10.8432C1.74761 11.5529 1.09223 12.4316 0.645475 13.4188C0.198719 14.406 -0.0288042 15.4784 -0.0214329 16.5619C-0.0140616 17.6455 0.228029 18.7147 0.688175 19.6957C1.14832 20.6768 1.81559 21.5465 2.64406 22.245C3.47252 22.9434 4.44251 23.4541 5.48723 23.7418C6.53196 24.0295 7.62662 24.0874 8.69587 23.9114C9.76511 23.7355 10.7835 23.33 11.681 22.7228C12.7268 23.3973 13.9156 23.8185 15.1527 23.953C16.3899 24.0874 17.6414 23.9314 18.8077 23.4973C19.9739 23.0632 21.0229 22.363 21.871 21.4524C22.7192 20.5418 23.3433 19.4458 23.6936 18.2517C24.0439 17.0576 24.1108 15.7982 23.8889 14.5737C23.6671 13.3492 23.1626 12.1933 22.4157 11.198C21.6687 10.2026 20.6999 9.39527 19.5861 8.84008C18.4724 8.28489 17.2445 7.99718 16 7.99983ZM3.00004 16.4998C3.00137 15.3068 3.4759 14.1629 4.31953 13.3193C5.16315 12.4757 6.30698 12.0011 7.50004 11.9998C7.98922 12.0054 8.4741 12.0919 8.93504 12.2558C8.24575 13.5495 7.92703 15.0084 8.01402 16.4717C8.10101 17.935 8.59033 19.3459 9.42804 20.5488C8.82744 20.8421 8.16844 20.9963 7.50004 20.9998C6.30698 20.9985 5.16315 20.524 4.31953 19.6803C3.4759 18.8367 3.00137 17.6929 3.00004 16.4998ZM16 20.9998C15.2506 20.9959 14.5119 20.8211 13.84 20.4888C14.6778 19.1682 15.0792 17.6175 14.9873 16.0562C14.8954 14.495 14.3149 13.0021 13.328 11.7888C13.9825 11.373 14.7248 11.1153 15.4961 11.036C16.2675 10.9567 17.0467 11.0581 17.772 11.3322C18.4974 11.6062 19.149 12.0454 19.6752 12.6149C20.2015 13.1843 20.5879 13.8685 20.804 14.6132C21.02 15.3579 21.0597 16.1427 20.9199 16.9054C20.7801 17.6681 20.4646 18.3877 19.9985 19.0074C19.5324 19.6271 18.9285 20.1297 18.2344 20.4755C17.5404 20.8214 16.7754 21.0009 16 20.9998Z" fill="#374957"/>
</g>
<defs>
<clipPath id="clip0_405_1398">
<rect width="24" height="24" fill="white"/>
</clipPath>
</defs>
</svg>
