<svg width="24" height="24" viewBox="0 0 24 24" fill="none" xmlns="http://www.w3.org/2000/svg">
<g clip-path="url(#clip0_405_1771)">
<path d="M21 24H3C2.20435 24 1.44129 23.6839 0.87868 23.1213C0.31607 22.5587 0 21.7956 0 21C0 20.2044 0.31607 19.4413 0.87868 18.8787C1.44129 18.3161 2.20435 18 3 18H21C21.7956 18 22.5587 18.3161 23.1213 18.8787C23.6839 19.4413 24 20.2044 24 21C24 21.7956 23.6839 22.5587 23.1213 23.1213C22.5587 23.6839 21.7956 24 21 24ZM24 13.5C24 13.1717 23.9353 12.8466 23.8097 12.5433C23.6841 12.24 23.4999 11.9644 23.2678 11.7322C23.0356 11.5001 22.76 11.3159 22.4567 11.1903C22.1534 11.0647 21.8283 11 21.5 11H2.5C1.83696 11 1.20107 11.2634 0.732233 11.7322C0.263392 12.2011 0 12.837 0 13.5C0 14.163 0.263392 14.7989 0.732233 15.2678C1.20107 15.7366 1.83696 16 2.5 16H21.5C21.8283 16 22.1534 15.9353 22.4567 15.8097C22.76 15.6841 23.0356 15.4999 23.2678 15.2678C23.4999 15.0356 23.6841 14.76 23.8097 14.4567C23.9353 14.1534 24 13.8283 24 13.5ZM24 7C24 6.46957 23.7893 5.96086 23.4142 5.58579C23.0391 5.21071 22.5304 5 22 5H2C1.46957 5 0.960859 5.21071 0.585786 5.58579C0.210714 5.96086 0 6.46957 0 7C0 7.53043 0.210714 8.03914 0.585786 8.41421C0.960859 8.78929 1.46957 9 2 9H22C22.5304 9 23.0391 8.78929 23.4142 8.41421C23.7893 8.03914 24 7.53043 24 7ZM24 1.5C24 1.10218 23.842 0.720644 23.5607 0.43934C23.2794 0.158035 22.8978 0 22.5 0L1.5 0C1.10218 0 0.720644 0.158035 0.43934 0.43934C0.158035 0.720644 0 1.10218 0 1.5C0 1.89782 0.158035 2.27936 0.43934 2.56066C0.720644 2.84196 1.10218 3 1.5 3H22.5C22.8978 3 23.2794 2.84196 23.5607 2.56066C23.842 2.27936 24 1.89782 24 1.5Z" fill="#374957"/>
</g>
<defs>
<clipPath id="clip0_405_1771">
<rect width="24" height="24" fill="white"/>
</clipPath>
</defs>
</svg>
