<svg width="24" height="24" viewBox="0 0 24 24" fill="none" xmlns="http://www.w3.org/2000/svg">
<g clip-path="url(#clip0_405_1709)">
<path d="M5.70718 0C2.66959 0 0.207153 2.46244 0.207153 5.49998C0.207153 8.53753 2.66959 11 5.70718 11C8.74478 11 11.2072 8.53758 11.2072 5.50003C11.2038 2.4638 8.74337 0.00332812 5.70718 0ZM5.70718 8.00002C4.32648 8.00002 3.2072 6.88073 3.2072 5.50003C3.2072 4.11933 4.32643 3 5.70718 3C7.08793 3 8.20717 4.11928 8.20717 5.49998C8.20717 6.88069 7.08789 8.00002 5.70718 8.00002Z" fill="#374957"/>
<path d="M5.70726 13C2.66971 13 0.207275 15.4624 0.207275 18.5C0.207275 21.5375 2.66967 24 5.70726 24C8.74485 24 11.2072 21.5376 11.2072 18.5C11.2039 15.4638 8.74345 13.0033 5.70726 13ZM5.70726 21C4.32656 21 3.20728 19.8807 3.20728 18.5C3.20728 17.1193 4.32656 16 5.70726 16C7.08796 16 8.20724 17.1193 8.20724 18.5C8.20724 19.8807 7.08796 21 5.70726 21Z" fill="#374957"/>
<path d="M22.7933 18.414H20.7073V5.58601H22.7933C23.3456 5.58587 23.7932 5.13807 23.7931 4.58579C23.793 4.32071 23.6877 4.06646 23.5003 3.87901L19.9143 0.293025C19.5237 -0.0973496 18.8907 -0.0973496 18.5003 0.293025L14.9143 3.87901C14.5238 4.26957 14.5239 4.90276 14.9145 5.29323C15.102 5.48063 15.3562 5.58596 15.6213 5.58601H17.7073V18.414H15.6213C15.069 18.4141 14.6214 18.8619 14.6215 19.4142C14.6215 19.6793 14.7268 19.9335 14.9142 20.121L18.5002 23.707C18.8907 24.0974 19.5237 24.0974 19.9142 23.707L23.5002 20.121C23.8907 19.7304 23.8906 19.0973 23.5 18.7068C23.3126 18.5194 23.0584 18.4141 22.7933 18.414Z" fill="#374957"/>
</g>
<defs>
<clipPath id="clip0_405_1709">
<rect width="24" height="24" fill="white"/>
</clipPath>
</defs>
</svg>
