<svg width="24" height="24" viewBox="0 0 24 24" fill="none" xmlns="http://www.w3.org/2000/svg">
<g clip-path="url(#clip0_405_1727)">
<path d="M19.5 6H19V4.5C18.9987 3.30693 18.5241 2.16311 17.6805 1.31948C16.8369 0.475854 15.6931 0.00132343 14.5 0L9.5 0C8.30693 0.00132343 7.16311 0.475854 6.31948 1.31948C5.47585 2.16311 5.00132 3.30693 5 4.5V6H4.5C3.30693 6.00132 2.16311 6.47585 1.31948 7.31948C0.475854 8.16311 0.00132343 9.30693 0 10.5L0 16.5C0.00132343 17.6931 0.475854 18.8369 1.31948 19.6805C2.16311 20.5241 3.30693 20.9987 4.5 21H5.276C5.58437 21.8748 6.1559 22.6328 6.91218 23.17C7.66845 23.7071 8.5724 23.997 9.5 24H14.5C15.4276 23.997 16.3316 23.7071 17.0878 23.17C17.8441 22.6328 18.4156 21.8748 18.724 21H19.5C20.6931 20.9987 21.8369 20.5241 22.6805 19.6805C23.5241 18.8369 23.9987 17.6931 24 16.5V10.5C23.9987 9.30693 23.5241 8.16311 22.6805 7.31948C21.8369 6.47585 20.6931 6.00132 19.5 6ZM8 4.5C8 4.10218 8.15804 3.72064 8.43934 3.43934C8.72064 3.15804 9.10218 3 9.5 3H14.5C14.8978 3 15.2794 3.15804 15.5607 3.43934C15.842 3.72064 16 4.10218 16 4.5V6H8V4.5ZM16 19.5C16 19.8978 15.842 20.2794 15.5607 20.5607C15.2794 20.842 14.8978 21 14.5 21H9.5C9.10218 21 8.72064 20.842 8.43934 20.5607C8.15804 20.2794 8 19.8978 8 19.5V17.5C8 17.1022 8.15804 16.7206 8.43934 16.4393C8.72064 16.158 9.10218 16 9.5 16H14.5C14.8978 16 15.2794 16.158 15.5607 16.4393C15.842 16.7206 16 17.1022 16 17.5V19.5ZM21 16.5C21 16.8978 20.842 17.2794 20.5607 17.5607C20.2794 17.842 19.8978 18 19.5 18H19V17.5C18.9987 16.3069 18.5241 15.1631 17.6805 14.3195C16.8369 13.4759 15.6931 13.0013 14.5 13H9.5C8.30693 13.0013 7.16311 13.4759 6.31948 14.3195C5.47585 15.1631 5.00132 16.3069 5 17.5V18H4.5C4.10218 18 3.72064 17.842 3.43934 17.5607C3.15804 17.2794 3 16.8978 3 16.5V10.5C3 10.1022 3.15804 9.72064 3.43934 9.43934C3.72064 9.15804 4.10218 9 4.5 9H19.5C19.8978 9 20.2794 9.15804 20.5607 9.43934C20.842 9.72064 21 10.1022 21 10.5V16.5Z" fill="#374957"/>
</g>
<defs>
<clipPath id="clip0_405_1727">
<rect width="24" height="24" fill="white"/>
</clipPath>
</defs>
</svg>
