<svg width="24" height="24" viewBox="0 0 24 24" fill="none" xmlns="http://www.w3.org/2000/svg">
<path d="M23.0001 19.0926V16.0006C22.9956 13.3456 22.0317 10.7816 20.2859 8.78132C18.5401 6.781 16.1301 5.47911 13.5001 5.11561V4.31061C13.7529 4.0223 13.9172 3.66724 13.9735 3.28794C14.0297 2.90864 13.9755 2.52117 13.8172 2.1719C13.6589 1.82263 13.4034 1.52638 13.0811 1.31859C12.7588 1.11081 12.3835 1.00031 12.0001 1.00031C11.6166 1.00031 11.2413 1.11081 10.919 1.31859C10.5967 1.52638 10.3412 1.82263 10.1829 2.1719C10.0246 2.52117 9.97039 2.90864 10.0266 3.28794C10.0829 3.66724 10.2472 4.0223 10.5001 4.31061V5.11561C7.87004 5.47911 5.46004 6.781 3.71423 8.78132C1.96843 10.7816 1.00448 13.3456 1.00005 16.0006V19.0926C0.670716 19.2135 0.394179 19.4461 0.21854 19.7498C0.0429018 20.0535 -0.0207256 20.4091 0.0387243 20.7549C0.0981742 21.1006 0.27694 21.4146 0.54393 21.6422C0.81092 21.8698 1.14924 21.9966 1.50005 22.0006H22.5001C22.8509 21.9966 23.1892 21.8698 23.4562 21.6422C23.7232 21.4146 23.9019 21.1006 23.9614 20.7549C24.0208 20.4091 23.9572 20.0535 23.7816 19.7498C23.6059 19.4461 23.3294 19.2135 23.0001 19.0926ZM12.0001 8.00061C14.1211 8.00299 16.1545 8.84661 17.6543 10.3464C19.1541 11.8462 19.9977 13.8796 20.0001 16.0006V19.0006H4.00005V16.0006C4.00244 13.8796 4.84606 11.8462 6.34583 10.3464C7.84561 8.84661 9.87905 8.00299 12.0001 8.00061Z" fill="#374957"/>
</svg>
