<svg width="24" height="24" viewBox="0 0 24 24" fill="none" xmlns="http://www.w3.org/2000/svg">
<g clip-path="url(#clip0_405_1382)">
<path d="M18.5 5.00003H13L15.857 4.04803C16.1794 3.94021 16.4596 3.73356 16.6578 3.45741C16.856 3.18127 16.9621 2.84969 16.9611 2.50978C16.9601 2.16986 16.852 1.83891 16.6522 1.56393C16.4524 1.28896 16.171 1.08395 15.848 0.978026L13.329 0.154026C13.0797 0.0374387 12.805 -0.0143627 12.5303 0.00341768C12.2557 0.0211981 11.9899 0.107986 11.7577 0.255746C11.5255 0.403506 11.3343 0.607462 11.2019 0.848734C11.0694 1.09001 11 1.36079 11 1.63603V5.00003H5.5C4.0418 5.00162 2.64377 5.58159 1.61267 6.61269C0.581561 7.6438 0.00158817 9.04182 0 10.5L0 20.5C0 21.4283 0.368749 22.3185 1.02513 22.9749C1.6815 23.6313 2.57174 24 3.5 24H20.5C21.4283 24 22.3185 23.6313 22.9749 22.9749C23.6313 22.3185 24 21.4283 24 20.5V10.5C23.9984 9.04182 23.4184 7.6438 22.3873 6.61269C21.3562 5.58159 19.9582 5.00162 18.5 5.00003ZM20.949 10H19.657C19.3285 10.001 19.0032 9.93675 18.6997 9.81111C18.3962 9.68546 18.1207 9.50087 17.889 9.26803L16.621 8.00003H18.5C19.0762 8.00014 19.6346 8.19925 20.0808 8.56369C20.5271 8.92813 20.8338 9.43551 20.949 10ZM5.5 8.00003H7.378L6.111 9.26803C5.64108 9.73536 5.00574 9.99841 4.343 10H3.051C3.16623 9.43551 3.47291 8.92813 3.91916 8.56369C4.36541 8.19925 4.92385 8.00014 5.5 8.00003ZM20.5 21H14V17C14 16.4696 13.7893 15.9609 13.4142 15.5858C13.0391 15.2107 12.5304 15 12 15C11.4696 15 10.9609 15.2107 10.5858 15.5858C10.2107 15.9609 10 16.4696 10 17V21H3.5C3.36739 21 3.24021 20.9474 3.14645 20.8536C3.05268 20.7598 3 20.6326 3 20.5V13H4.343C5.06555 13.002 5.78132 12.8606 6.44887 12.5841C7.11641 12.3075 7.72248 11.9014 8.232 11.389L10.939 8.68203C11.2248 8.40903 11.6048 8.25669 12 8.25669C12.3952 8.25669 12.7752 8.40903 13.061 8.68203L15.768 11.389C16.2775 11.9014 16.8836 12.3075 17.5511 12.5841C18.2187 12.8606 18.9344 13.002 19.657 13H21V20.5C21 20.6326 20.9473 20.7598 20.8536 20.8536C20.7598 20.9474 20.6326 21 20.5 21ZM8 17.5C8 17.8979 7.84196 18.2794 7.56066 18.5607C7.27936 18.842 6.89782 19 6.5 19H5.5C5.10218 19 4.72064 18.842 4.43934 18.5607C4.15804 18.2794 4 17.8979 4 17.5C4 17.1022 4.15804 16.7207 4.43934 16.4394C4.72064 16.1581 5.10218 16 5.5 16H6.5C6.89782 16 7.27936 16.1581 7.56066 16.4394C7.84196 16.7207 8 17.1022 8 17.5ZM20 17.5C20 17.8979 19.842 18.2794 19.5607 18.5607C19.2794 18.842 18.8978 19 18.5 19H17.5C17.1022 19 16.7206 18.842 16.4393 18.5607C16.158 18.2794 16 17.8979 16 17.5C16 17.1022 16.158 16.7207 16.4393 16.4394C16.7206 16.1581 17.1022 16 17.5 16H18.5C18.8978 16 19.2794 16.1581 19.5607 16.4394C19.842 16.7207 20 17.1022 20 17.5ZM13.5 11.5C13.5 11.7967 13.412 12.0867 13.2472 12.3334C13.0824 12.5801 12.8481 12.7723 12.574 12.8858C12.2999 12.9994 11.9983 13.0291 11.7074 12.9712C11.4164 12.9133 11.1491 12.7705 10.9393 12.5607C10.7296 12.3509 10.5867 12.0836 10.5288 11.7927C10.4709 11.5017 10.5006 11.2001 10.6142 10.926C10.7277 10.6519 10.92 10.4176 11.1666 10.2528C11.4133 10.088 11.7033 10 12 10C12.3978 10 12.7794 10.1581 13.0607 10.4394C13.342 10.7207 13.5 11.1022 13.5 11.5Z" fill="#374957"/>
</g>
<defs>
<clipPath id="clip0_405_1382">
<rect width="24" height="24" fill="white"/>
</clipPath>
</defs>
</svg>
