<svg width="24" height="24" viewBox="0 0 24 24" fill="none" xmlns="http://www.w3.org/2000/svg">
<g clip-path="url(#clip0_405_1577)">
<path d="M9.856 20.7426C8.21674 20.3405 6.72358 19.4856 5.54701 18.2754C4.37045 17.0652 3.55791 15.5485 3.20217 13.8986C2.84643 12.2486 2.96183 10.5319 3.53519 8.94441C4.10856 7.35692 5.11677 5.96266 6.44472 4.92082C7.77266 3.87898 9.36682 3.23157 11.0451 3.05249C12.7235 2.87342 14.4183 3.16991 15.9362 3.9081C17.4541 4.6463 18.7338 5.79645 19.6292 7.22723C20.5246 8.658 20.9996 10.3117 21 11.9996C21 12.3974 21.158 12.7789 21.4393 13.0603C21.7206 13.3416 22.1022 13.4996 22.5 13.4996C22.8978 13.4996 23.2794 13.3416 23.5607 13.0603C23.842 12.7789 24 12.3974 24 11.9996C23.9997 9.74896 23.3664 7.54378 22.1725 5.63589C20.9787 3.72801 19.2723 2.19432 17.2483 1.20998C15.2244 0.225637 12.9644 -0.169676 10.7265 0.0691821C8.48853 0.30804 6.36288 1.17144 4.59226 2.56079C2.82165 3.95013 1.47743 5.80941 0.713132 7.9263C-0.0511679 10.0432 -0.204745 12.3323 0.26994 14.5323C0.744625 16.7324 1.82844 18.7545 3.3976 20.3679C4.96677 21.9813 6.95804 23.1209 9.144 23.6566C9.26046 23.6855 9.38002 23.6999 9.5 23.6996C9.86659 23.6992 10.2204 23.5646 10.4945 23.3212C10.7686 23.0777 10.944 22.7424 10.9877 22.3784C11.0314 22.0144 10.9403 21.647 10.7316 21.3456C10.5229 21.0443 10.2111 20.8297 9.855 20.7426H9.856Z" fill="#374957"/>
<path d="M23.6211 15.9397C23.3398 15.6585 22.9583 15.5005 22.5606 15.5005C22.1628 15.5005 21.7814 15.6585 21.5001 15.9397L16.7151 20.7217L14.5821 18.4617C14.4456 18.3196 14.2826 18.2057 14.1021 18.1267C13.9217 18.0476 13.7274 18.0049 13.5305 18.0009C13.3335 17.9969 13.1377 18.0317 12.9542 18.1034C12.7707 18.1751 12.6032 18.2822 12.4611 18.4187C12.3191 18.5552 12.2053 18.7183 12.1263 18.8988C12.0473 19.0793 12.0047 19.2735 12.0008 19.4705C11.9969 19.6674 12.0318 19.8632 12.1036 20.0467C12.1754 20.2301 12.2826 20.3976 12.4191 20.5397L15.0001 23.2607C15.2158 23.4892 15.475 23.6723 15.7625 23.7994C16.0499 23.9265 16.3599 23.9949 16.6741 24.0007H16.7111C17.3337 23.9986 17.9304 23.7514 18.3721 23.3127L23.6261 18.0607C23.9066 17.7787 24.0637 17.3969 24.0628 16.9991C24.0618 16.6014 23.903 16.2203 23.6211 15.9397Z" fill="#374957"/>
<path d="M10.5 7.5V11.055L8.10001 12.555C7.933 12.6596 7.78822 12.796 7.67396 12.9565C7.55969 13.1171 7.47818 13.2985 7.43406 13.4906C7.38995 13.6826 7.38411 13.8815 7.41688 14.0758C7.44964 14.2701 7.52037 14.456 7.62501 14.623C7.72958 14.79 7.86602 14.9348 8.02655 15.049C8.18709 15.1633 8.36856 15.2448 8.5606 15.2889C8.75265 15.333 8.9515 15.3389 9.1458 15.3061C9.34011 15.2734 9.52605 15.2026 9.69301 15.098L12.562 13.298C12.8499 13.1176 13.087 12.8669 13.2511 12.5695C13.4153 12.272 13.5009 11.9377 13.5 11.598V7.5C13.5 7.10217 13.342 6.72064 13.0607 6.43934C12.7794 6.15803 12.3978 6 12 6C11.6022 6 11.2207 6.15803 10.9394 6.43934C10.658 6.72064 10.5 7.10217 10.5 7.5Z" fill="#374957"/>
</g>
<defs>
<clipPath id="clip0_405_1577">
<rect width="24" height="24" fill="white"/>
</clipPath>
</defs>
</svg>
