<svg width="24" height="24" viewBox="0 0 24 24" fill="none" xmlns="http://www.w3.org/2000/svg">
<g clip-path="url(#clip0_405_1819)">
<path d="M12 5C11.6022 5 11.2206 4.84196 10.9393 4.56066C10.658 4.27936 10.5 3.89782 10.5 3.5V1.5C10.5 1.10218 10.658 0.720644 10.9393 0.43934C11.2206 0.158035 11.6022 0 12 0C12.3978 0 12.7794 0.158035 13.0607 0.43934C13.342 0.720644 13.5 1.10218 13.5 1.5V3.5C13.5 3.89782 13.342 4.27936 13.0607 4.56066C12.7794 4.84196 12.3978 5 12 5ZM13.5 22.5V20.5C13.5 20.1022 13.342 19.7206 13.0607 19.4393C12.7794 19.158 12.3978 19 12 19C11.6022 19 11.2206 19.158 10.9393 19.4393C10.658 19.7206 10.5 20.1022 10.5 20.5V22.5C10.5 22.8978 10.658 23.2794 10.9393 23.5607C11.2206 23.842 11.6022 24 12 24C12.3978 24 12.7794 23.842 13.0607 23.5607C13.342 23.2794 13.5 22.8978 13.5 22.5ZM5 12C5 11.6022 4.84196 11.2206 4.56066 10.9393C4.27936 10.658 3.89782 10.5 3.5 10.5H1.5C1.10218 10.5 0.720644 10.658 0.43934 10.9393C0.158035 11.2206 0 11.6022 0 12C0 12.3978 0.158035 12.7794 0.43934 13.0607C0.720644 13.342 1.10218 13.5 1.5 13.5H3.5C3.89782 13.5 4.27936 13.342 4.56066 13.0607C4.84196 12.7794 5 12.3978 5 12ZM24 12C24 11.6022 23.842 11.2206 23.5607 10.9393C23.2794 10.658 22.8978 10.5 22.5 10.5H20.5C20.1022 10.5 19.7206 10.658 19.4393 10.9393C19.158 11.2206 19 11.6022 19 12C19 12.3978 19.158 12.7794 19.4393 13.0607C19.7206 13.342 20.1022 13.5 20.5 13.5H22.5C22.8978 13.5 23.2794 13.342 23.5607 13.0607C23.842 12.7794 24 12.3978 24 12ZM17.476 5.329L18.457 3.586C18.6445 3.24005 18.6885 2.83427 18.5796 2.45615C18.4707 2.07803 18.2176 1.75784 17.8748 1.56461C17.532 1.37137 17.1271 1.32057 16.7472 1.42316C16.3673 1.52574 16.0429 1.77349 15.844 2.113L14.862 3.856C14.7652 4.02768 14.7032 4.21676 14.6795 4.41242C14.6558 4.60809 14.6709 4.80651 14.7239 4.99633C14.7769 5.18616 14.8669 5.36367 14.9885 5.51873C15.1102 5.67379 15.2612 5.80335 15.433 5.9C15.657 6.02738 15.9103 6.09424 16.168 6.094C16.4343 6.09407 16.6958 6.02325 16.9257 5.88881C17.1556 5.75436 17.3455 5.56114 17.476 5.329ZM8.156 21.887L9.138 20.144C9.33333 19.7974 9.38296 19.3873 9.27597 19.0041C9.16898 18.6209 8.91414 18.2958 8.5675 18.1005C8.22086 17.9052 7.81083 17.8555 7.4276 17.9625C7.04436 18.0695 6.71933 18.3244 6.524 18.671L5.543 20.414C5.35551 20.76 5.31147 21.1657 5.42037 21.5439C5.52927 21.922 5.7824 22.2422 6.12518 22.4354C6.46796 22.6286 6.87294 22.6794 7.25283 22.5768C7.63272 22.4743 7.95708 22.2265 8.156 21.887ZM5.9 8.567C6.09528 8.22048 6.14493 7.81059 6.03804 7.42747C5.93114 7.04435 5.67646 6.71937 5.33 6.524L3.586 5.543C3.24005 5.35551 2.83427 5.31147 2.45615 5.42037C2.07803 5.52927 1.75784 5.7824 1.56461 6.12518C1.37137 6.46796 1.32057 6.87294 1.42316 7.25283C1.52574 7.63272 1.77349 7.95708 2.113 8.156L3.856 9.138C4.02768 9.23481 4.21676 9.29683 4.41242 9.32052C4.60809 9.34422 4.80651 9.32912 4.99633 9.27609C5.18616 9.22306 5.36367 9.13314 5.51873 9.01147C5.67379 8.8898 5.80335 8.73877 5.9 8.567ZM22.458 17.887C22.6533 17.5405 22.7029 17.1306 22.596 16.7475C22.4891 16.3644 22.2345 16.0394 21.888 15.844L20.145 14.862C19.9734 14.7653 19.7844 14.7033 19.5888 14.6796C19.3932 14.656 19.1949 14.6711 19.0051 14.724C18.8153 14.777 18.6379 14.8668 18.4828 14.9884C18.3278 15.11 18.1982 15.2609 18.1015 15.4325C18.0048 15.6041 17.9428 15.7931 17.9191 15.9887C17.8955 16.1843 17.9106 16.3826 17.9635 16.5724C18.0705 16.9556 18.3254 17.2807 18.672 17.476L20.415 18.457C20.7615 18.6523 21.1714 18.7019 21.5545 18.595C21.9376 18.4881 22.2626 18.2335 22.458 17.887ZM8.567 5.9C8.91363 5.7048 9.16853 5.37989 9.27561 4.99676C9.3827 4.61362 9.33319 4.20364 9.138 3.857L8.156 2.113C7.95708 1.77349 7.63272 1.52574 7.25283 1.42316C6.87294 1.32057 6.46796 1.37137 6.12518 1.56461C5.7824 1.75784 5.52927 2.07803 5.42037 2.45615C5.31147 2.83427 5.35551 3.24005 5.543 3.586L6.524 5.329C6.65462 5.56096 6.84461 5.75397 7.07448 5.88824C7.30434 6.0225 7.5658 6.09317 7.832 6.093C8.0896 6.09355 8.3429 6.02704 8.567 5.9ZM17.887 22.458C18.2335 22.2626 18.4881 21.9376 18.595 21.5545C18.7019 21.1714 18.6523 20.7615 18.457 20.415L17.476 18.672C17.2807 18.3254 16.9556 18.0705 16.5724 17.9635C16.1892 17.8565 15.7791 17.9062 15.4325 18.1015C15.0859 18.2968 14.831 18.6219 14.724 19.0051C14.617 19.3883 14.6667 19.7984 14.862 20.145L15.844 21.888C16.0394 22.2345 16.3644 22.4891 16.7475 22.596C17.1306 22.7029 17.5405 22.6533 17.887 22.458ZM20.144 9.138L21.887 8.156C22.2265 7.95708 22.4743 7.63272 22.5768 7.25283C22.6794 6.87294 22.6286 6.46796 22.4354 6.12518C22.2422 5.7824 21.922 5.52927 21.5439 5.42037C21.1657 5.31147 20.76 5.35551 20.414 5.543L18.671 6.524C18.3244 6.71933 18.0695 7.04436 17.9625 7.4276C17.8555 7.81083 17.9052 8.22086 18.1005 8.5675C18.2958 8.91414 18.6209 9.16898 19.0041 9.27597C19.3873 9.38296 19.7974 9.33333 20.144 9.138ZM3.586 18.457L5.329 17.476C5.50064 17.3793 5.65154 17.2497 5.7731 17.0947C5.89466 16.9396 5.9845 16.7622 6.03747 16.5724C6.09045 16.3826 6.10553 16.1843 6.08186 15.9887C6.05818 15.7931 5.99622 15.6041 5.8995 15.4325C5.80278 15.2609 5.6732 15.11 5.51816 14.9884C5.36312 14.8668 5.18566 14.777 4.9959 14.724C4.80615 14.6711 4.60782 14.656 4.41223 14.6796C4.21664 14.7033 4.02764 14.7653 3.856 14.862L2.113 15.844C1.82444 16.007 1.598 16.261 1.46904 16.5663C1.34007 16.8716 1.31585 17.211 1.40014 17.5315C1.48444 17.8521 1.67252 18.1356 1.935 18.338C2.19748 18.5403 2.51958 18.65 2.851 18.65C3.1086 18.6506 3.36192 18.5841 3.586 18.457Z" fill="#374957"/>
</g>
<defs>
<clipPath id="clip0_405_1819">
<rect width="24" height="24" fill="white"/>
</clipPath>
</defs>
</svg>
