<svg width="24" height="24" viewBox="0 0 24 24" fill="none" xmlns="http://www.w3.org/2000/svg">
<g clip-path="url(#clip0_405_1760)">
<path d="M12 0C9.62663 0 7.30655 0.703788 5.33316 2.02236C3.35977 3.34094 1.8217 5.21509 0.913451 7.4078C0.00519943 9.60051 -0.232441 12.0133 0.230582 14.3411C0.693605 16.6689 1.83649 18.8071 3.51472 20.4853C5.19295 22.1635 7.33115 23.3064 9.65892 23.7694C11.9867 24.2324 14.3995 23.9948 16.5922 23.0866C18.7849 22.1783 20.6591 20.6402 21.9776 18.6668C23.2962 16.6935 24 14.3734 24 12C23.9966 8.81846 22.7312 5.76821 20.4815 3.51852C18.2318 1.26883 15.1815 0.00344108 12 0V0ZM12 21C10.22 21 8.47992 20.4722 6.99987 19.4832C5.51983 18.4943 4.36628 17.0887 3.68509 15.4442C3.0039 13.7996 2.82567 11.99 3.17294 10.2442C3.5202 8.49836 4.37737 6.89471 5.63604 5.63604C6.89472 4.37737 8.49836 3.5202 10.2442 3.17293C11.99 2.82567 13.7996 3.0039 15.4442 3.68508C17.0887 4.36627 18.4943 5.51983 19.4832 6.99987C20.4722 8.47991 21 10.22 21 12C20.9974 14.3861 20.0483 16.6738 18.361 18.361C16.6738 20.0483 14.3861 20.9974 12 21ZM17 12C17 12.3978 16.842 12.7794 16.5607 13.0607C16.2794 13.342 15.8978 13.5 15.5 13.5H13.5V15.5C13.5 15.8978 13.342 16.2794 13.0607 16.5607C12.7794 16.842 12.3978 17 12 17C11.6022 17 11.2206 16.842 10.9393 16.5607C10.658 16.2794 10.5 15.8978 10.5 15.5V13.5H8.50001C8.10218 13.5 7.72065 13.342 7.43934 13.0607C7.15804 12.7794 7.00001 12.3978 7.00001 12C7.00001 11.6022 7.15804 11.2206 7.43934 10.9393C7.72065 10.658 8.10218 10.5 8.50001 10.5H10.5V8.5C10.5 8.10218 10.658 7.72064 10.9393 7.43934C11.2206 7.15804 11.6022 7 12 7C12.3978 7 12.7794 7.15804 13.0607 7.43934C13.342 7.72064 13.5 8.10218 13.5 8.5V10.5H15.5C15.8978 10.5 16.2794 10.658 16.5607 10.9393C16.842 11.2206 17 11.6022 17 12Z" fill="#374957"/>
</g>
<defs>
<clipPath id="clip0_405_1760">
<rect width="24" height="24" fill="white"/>
</clipPath>
</defs>
</svg>
