<svg width="24" height="24" viewBox="0 0 24 24" fill="none" xmlns="http://www.w3.org/2000/svg">
<g clip-path="url(#clip0_405_1468)">
<path d="M21.468 19.346C23.1087 17.2488 24.0001 14.6627 24.0001 12C24.0001 9.33725 23.1087 6.75116 21.468 4.65397L23.061 3.06097C23.3424 2.77958 23.5005 2.39792 23.5005 1.99997C23.5005 1.60202 23.3424 1.22036 23.061 0.93897C22.9216 0.799638 22.7562 0.689113 22.5742 0.613707C22.3921 0.538301 22.197 0.49949 22 0.49949C21.602 0.49949 21.2204 0.657575 20.939 0.93897L19.346 2.53197C17.2488 0.891275 14.6627 -0.00012207 12 -0.00012207C9.33725 -0.00012207 6.75116 0.891275 4.65397 2.53197L3.06097 0.93897C2.77958 0.657575 2.39792 0.49949 1.99997 0.49949C1.60202 0.49949 1.22036 0.657575 0.93897 0.93897C0.657575 1.22036 0.49949 1.60202 0.49949 1.99997C0.49949 2.39792 0.657575 2.77958 0.93897 3.06097L2.53197 4.65397C0.891275 6.75116 -0.00012207 9.33725 -0.00012207 12C-0.00012207 14.6627 0.891275 17.2488 2.53197 19.346L0.93897 20.939C0.657575 21.2204 0.49949 21.602 0.49949 22C0.49949 22.3979 0.657575 22.7796 0.93897 23.061C1.22036 23.3424 1.60202 23.5005 1.99997 23.5005C2.39792 23.5005 2.77958 23.3424 3.06097 23.061L4.65397 21.468C6.75116 23.1087 9.33725 24.0001 12 24.0001C14.6627 24.0001 17.2488 23.1087 19.346 21.468L20.939 23.061C21.2204 23.3424 21.602 23.5005 22 23.5005C22.3979 23.5005 22.7796 23.3424 23.061 23.061C23.3424 22.7796 23.5005 22.3979 23.5005 22C23.5005 21.602 23.3424 21.2204 23.061 20.939L21.468 19.346ZM21 12C20.9999 13.8673 20.4152 15.6878 19.328 17.206L16.65 14.529C17.0878 13.758 17.318 12.8866 17.318 12C17.318 11.1134 17.0878 10.2419 16.65 9.47097L19.328 6.79397C20.4152 8.31215 20.9999 10.1326 21 12ZM9.68197 12C9.68197 11.5415 9.81792 11.0934 10.0726 10.7122C10.3273 10.331 10.6894 10.0339 11.1129 9.85842C11.5365 9.68297 12.0025 9.63707 12.4522 9.72651C12.9018 9.81595 13.3149 10.0367 13.639 10.3609C13.9632 10.6851 14.184 11.0981 14.2734 11.5478C14.3629 11.9974 14.317 12.4635 14.1415 12.887C13.9661 13.3106 13.669 13.6726 13.2878 13.9273C12.9066 14.182 12.4584 14.318 12 14.318C11.3854 14.3172 10.7963 14.0727 10.3618 13.6382C9.92724 13.2036 9.68276 12.6145 9.68197 12ZM12 2.99997C13.8673 3.00005 15.6878 3.58473 17.206 4.67197L14.529 7.34997C13.758 6.91212 12.8866 6.68192 12 6.68192C11.1134 6.68192 10.2419 6.91212 9.47097 7.34997L6.79397 4.67197C8.31215 3.58473 10.1326 3.00005 12 2.99997ZM2.99997 12C3.00005 10.1326 3.58473 8.31215 4.67197 6.79397L7.34997 9.47097C6.91212 10.2419 6.68192 11.1134 6.68192 12C6.68192 12.8866 6.91212 13.758 7.34997 14.529L4.67197 17.206C3.58473 15.6878 3.00005 13.8673 2.99997 12ZM12 21C10.1326 20.9999 8.31215 20.4152 6.79397 19.328L9.47097 16.65C10.2419 17.0878 11.1134 17.318 12 17.318C12.8866 17.318 13.758 17.0878 14.529 16.65L17.206 19.328C15.6878 20.4152 13.8673 20.9999 12 21Z" fill="#374957"/>
</g>
<defs>
<clipPath id="clip0_405_1468">
<rect width="24" height="24" fill="white"/>
</clipPath>
</defs>
</svg>
