<svg width="24" height="24" viewBox="0 0 24 24" fill="none" xmlns="http://www.w3.org/2000/svg">
<path d="M7.69994 5.12665C7.57543 4.8773 7.38392 4.66758 7.14688 4.52099C6.90984 4.3744 6.63664 4.29675 6.35794 4.29675C6.07924 4.29675 5.80604 4.3744 5.569 4.52099C5.33196 4.66758 5.14045 4.8773 5.01594 5.12665L0.15994 14.8266C0.0451507 15.0553 -0.00924738 15.3095 0.00191745 15.5651C0.0130823 15.8207 0.0894389 16.0692 0.223728 16.287C0.358017 16.5047 0.545774 16.6845 0.76915 16.8093C0.992526 16.934 1.24409 16.9996 1.49994 16.9997C1.77882 16.9998 2.05224 16.9223 2.28947 16.7756C2.52671 16.629 2.71837 16.4192 2.84294 16.1697L3.43494 14.9997H9.28294L9.86794 16.1697C9.99251 16.4192 10.1842 16.629 10.4214 16.7756C10.6586 16.9223 10.9321 16.9998 11.2109 16.9997C11.4674 17.0004 11.7198 16.9354 11.9439 16.8108C12.1681 16.6863 12.3566 16.5063 12.4914 16.2882C12.6262 16.07 12.7029 15.8209 12.714 15.5647C12.7251 15.3085 12.6703 15.0537 12.5549 14.8247L7.69994 5.12665ZM4.93494 11.9997L6.35894 9.15165L7.78294 11.9997H4.93494Z" fill="#374957"/>
<path d="M22.4999 6.49963C22.1947 6.5009 21.8972 6.5952 21.6471 6.76995C21.3969 6.94469 21.206 7.19157 21.0999 7.47763C20.4435 7.16592 19.7265 7.00271 18.9999 6.99963C17.6738 6.99963 16.402 7.52642 15.4643 8.4641C14.5267 9.40178 13.9999 10.6735 13.9999 11.9996C13.9999 13.3257 14.5267 14.5975 15.4643 15.5352C16.402 16.4728 17.6738 16.9996 18.9999 16.9996C19.7265 16.9965 20.4435 16.8333 21.0999 16.5216C21.2251 16.8473 21.4599 17.1192 21.764 17.2904C22.068 17.4616 22.4223 17.5214 22.7657 17.4596C23.1091 17.3978 23.4202 17.2182 23.6455 16.9517C23.8707 16.6852 23.9961 16.3485 23.9998 15.9996V7.99963C23.9998 7.60181 23.8418 7.22028 23.5605 6.93897C23.2792 6.65767 22.8977 6.49963 22.4999 6.49963ZM18.9999 13.9996C18.6043 13.9996 18.2176 13.8823 17.8887 13.6626C17.5598 13.4428 17.3035 13.1304 17.1521 12.765C17.0007 12.3995 16.9611 11.9974 17.0383 11.6094C17.1155 11.2215 17.306 10.8651 17.5857 10.5854C17.8654 10.3057 18.2217 10.1152 18.6097 10.0381C18.9976 9.96089 19.3998 10.0005 19.7652 10.1519C20.1307 10.3032 20.443 10.5596 20.6628 10.8885C20.8826 11.2174 20.9999 11.6041 20.9999 11.9996C20.9999 12.5301 20.7891 13.0388 20.4141 13.4138C20.039 13.7889 19.5303 13.9996 18.9999 13.9996Z" fill="#374957"/>
</svg>
