<svg width="24" height="24" viewBox="0 0 24 24" fill="none" xmlns="http://www.w3.org/2000/svg">
<g clip-path="url(#clip0_405_1488)">
<path d="M22.5 18.0003C22.1022 18.0003 21.7206 18.1583 21.4393 18.4396C21.158 18.7209 21 19.1025 21 19.5003C21 19.8981 20.842 20.2796 20.5607 20.5609C20.2794 20.8423 19.8978 21.0003 19.5 21.0003H16.5V18.0003H17.619C18.7855 17.9987 19.9037 17.5346 20.7285 16.7098C21.5533 15.885 22.0174 14.7668 22.019 13.6003C22.0188 12.1047 21.5029 10.6548 20.5581 9.49536C19.6134 8.33587 18.2978 7.53764 16.833 7.23529L13.4 6.45029C13.0799 6.38108 12.7902 6.21161 12.5729 5.9665C12.3557 5.7214 12.2222 5.41341 12.192 5.08729L11.792 3.00529C11.7239 2.52777 11.5577 2.06948 11.3041 1.6592C11.0504 1.24892 10.7147 0.895502 10.318 0.621127C9.92123 0.346752 9.47207 0.157343 8.99867 0.064789C8.52527 -0.027765 8.03785 -0.0214664 7.567 0.0832896C7.523 0.0932896 3.273 1.43829 3.273 1.43829C2.33201 1.70837 1.50414 2.27667 0.913895 3.05771C0.323652 3.83875 0.00294295 4.79031 0 5.76929L0 13.5003C0.00132343 14.6934 0.475854 15.8372 1.31948 16.6808C2.16311 17.5244 3.30693 17.999 4.5 18.0003V21.0003H1.5C1.10218 21.0003 0.720644 21.1583 0.43934 21.4396C0.158035 21.7209 0 22.1025 0 22.5003C0 22.8981 0.158035 23.2796 0.43934 23.5609C0.720644 23.8423 1.10218 24.0003 1.5 24.0003H19.5C20.6931 23.999 21.8369 23.5244 22.6805 22.6808C23.5241 21.8372 23.9987 20.6934 24 19.5003C24 19.1025 23.842 18.7209 23.5607 18.4396C23.2794 18.1583 22.8978 18.0003 22.5 18.0003ZM3 13.5003V5.76929C3.00335 5.43546 3.11636 5.11199 3.32164 4.84871C3.52692 4.58542 3.81306 4.39694 4.136 4.31229L8.261 3.00529C8.3219 2.99572 8.3841 2.9983 8.444 3.01289C8.5039 3.02748 8.56032 3.05379 8.61 3.09029C8.67474 3.13854 8.72821 3.20029 8.76672 3.27126C8.80522 3.34222 8.82784 3.42071 8.833 3.50129L9.122 4.99429L7.494 5.00029C7.09618 5.00109 6.71496 5.15988 6.43422 5.44175C6.15348 5.72362 5.9962 6.10546 5.997 6.50329C5.9978 6.90111 6.15659 7.28233 6.43846 7.56307C6.72033 7.84381 7.10218 8.00109 7.5 8.00029H7.506L10.353 7.99029C10.417 8.06029 10.486 8.12529 10.553 8.19029L9.382 9.50029C9.24933 9.64689 9.14696 9.81827 9.08076 10.0046C9.01456 10.1909 8.98585 10.3884 8.99627 10.5859C9.0067 10.7833 9.05606 10.9767 9.1415 11.155C9.22695 11.3333 9.3468 11.493 9.49417 11.6248C9.64154 11.7566 9.81351 11.858 10.0002 11.9231C10.1869 11.9882 10.3846 12.0158 10.582 12.0042C10.7794 11.9926 10.9725 11.9422 11.1503 11.8557C11.3281 11.7692 11.487 11.6484 11.618 11.5003L13.387 9.52329L16.206 10.1673C16.9987 10.3278 17.7116 10.7572 18.2244 11.3827C18.7371 12.0082 19.0181 12.7915 19.02 13.6003C19.02 13.9716 18.8725 14.3277 18.6099 14.5902C18.3474 14.8528 17.9913 15.0003 17.62 15.0003H4.5C4.10218 15.0003 3.72064 14.8423 3.43934 14.561C3.15804 14.2796 3 13.8981 3 13.5003ZM7.5 18.0003H13.5V21.0003H7.5V18.0003Z" fill="#374957"/>
</g>
<defs>
<clipPath id="clip0_405_1488">
<rect width="24" height="24" fill="white"/>
</clipPath>
</defs>
</svg>
