<svg width="24" height="24" viewBox="0 0 24 24" fill="none" xmlns="http://www.w3.org/2000/svg">
<g clip-path="url(#clip0_405_1803)">
<path d="M23.529 2.471C23.2477 2.18979 22.8662 2.03182 22.4685 2.03182C22.0708 2.03182 21.6893 2.18979 21.408 2.471L18.439 5.439C18.2997 5.57836 18.1893 5.74378 18.114 5.92583C18.0386 6.10788 17.9999 6.30298 18 6.5V17.5C18 17.6326 17.9473 17.7598 17.8536 17.8536C17.7598 17.9473 17.6326 18 17.5 18H16V5.5C15.9981 4.04188 15.4181 2.64401 14.387 1.61296C13.356 0.58191 11.9581 0.00185226 10.5 0L5.5 0C4.04188 0.00185226 2.64401 0.58191 1.61296 1.61296C0.58191 2.64401 0.00185226 4.04188 0 5.5L0 18.5C0.00185226 19.9581 0.58191 21.356 1.61296 22.387C2.64401 23.4181 4.04188 23.9981 5.5 24H10.5C11.515 23.9992 12.5099 23.7177 13.3747 23.1864C14.2395 22.6552 14.9405 21.895 15.4 20.99C15.434 20.99 15.467 21 15.5 21H17.5C18.4283 21 19.3185 20.6313 19.9749 19.9749C20.6313 19.3185 21 18.4283 21 17.5V7.121L23.529 4.592C23.8102 4.31071 23.9682 3.92925 23.9682 3.5315C23.9682 3.13375 23.8102 2.75229 23.529 2.471ZM5.5 3H10.5C11.163 3 11.7989 3.26339 12.2678 3.73223C12.7366 4.20107 13 4.83696 13 5.5V9H10.816C10.6977 8.66816 10.5213 8.36002 10.295 8.09L10.786 7.271C10.9774 6.93054 11.0284 6.52887 10.9283 6.15138C10.8281 5.77388 10.5847 5.45033 10.2497 5.24951C9.91475 5.04868 9.51466 4.98643 9.13451 5.07597C8.75436 5.16551 8.42412 5.39979 8.214 5.729L7.414 7.059C6.90606 7.16179 6.43352 7.3947 6.04261 7.73494C5.65171 8.07518 5.35586 8.51109 5.184 9H3V5.5C3 4.83696 3.26339 4.20107 3.73223 3.73223C4.20107 3.26339 4.83696 3 5.5 3ZM10.5 21H5.5C4.83696 21 4.20107 20.7366 3.73223 20.2678C3.26339 19.7989 3 19.163 3 18.5V12H13V18.5C13 19.163 12.7366 19.7989 12.2678 20.2678C11.7989 20.7366 11.163 21 10.5 21Z" fill="#374957"/>
</g>
<defs>
<clipPath id="clip0_405_1803">
<rect width="24" height="24" fill="white"/>
</clipPath>
</defs>
</svg>
