<svg width="24" height="24" viewBox="0 0 24 24" fill="none" xmlns="http://www.w3.org/2000/svg">
<g clip-path="url(#clip0_405_1750)">
<path d="M19 13.9992C18.3497 13.9999 17.7058 14.1283 17.105 14.3772L13.947 10.5622L20.655 2.45624C20.7824 2.30479 20.8786 2.12961 20.938 1.9408C20.9974 1.752 21.0189 1.55331 21.0011 1.35618C20.9834 1.15905 20.9268 0.967376 20.8347 0.792211C20.7425 0.617045 20.6166 0.46185 20.4642 0.335568C20.3118 0.209287 20.1359 0.114417 19.9466 0.0564269C19.7574 -0.00156359 19.5586 -0.0215282 19.3616 -0.00231632C19.1646 0.0168956 18.9733 0.0749041 18.7989 0.168366C18.6244 0.261828 18.4701 0.388895 18.345 0.542244L12 8.20924L5.656 0.542244C5.40219 0.235654 5.03698 0.0424473 4.64071 0.00512754C4.24445 -0.0321922 3.84959 0.089432 3.543 0.343244C3.23641 0.597056 3.0432 0.962266 3.00588 1.35853C2.96856 1.75479 3.09019 2.14965 3.344 2.45624L10.053 10.5612L6.9 14.3772C5.78731 13.9145 4.54562 13.8658 3.40013 14.2401C2.25464 14.6143 1.2812 15.3867 0.656347 16.4171C0.0314955 17.4476 -0.203386 18.6678 -0.00569981 19.8565C0.191986 21.0453 0.809148 22.1238 1.73386 22.8966C2.65857 23.6693 3.82959 24.0851 5.03456 24.0685C6.23952 24.0518 7.39863 23.6039 8.30167 22.806C9.20471 22.008 9.79188 20.9128 9.95669 19.7191C10.1215 18.5253 9.85304 17.312 9.2 16.2992L12 12.9142L14.8 16.2992C14.202 17.2331 13.932 18.3395 14.0325 19.4438C14.133 20.5481 14.5984 21.5876 15.3552 22.3981C16.112 23.2086 17.1171 23.7441 18.2119 23.92C19.3068 24.096 20.4291 23.9023 21.4017 23.3697C22.3743 22.8371 23.1419 21.9958 23.5833 20.9785C24.0248 19.9613 24.115 18.826 23.8396 17.7518C23.5643 16.6777 22.9392 15.7257 22.0629 15.0462C21.1865 14.3667 20.1089 13.9984 19 13.9992ZM5 20.9992C4.60444 20.9992 4.21776 20.8819 3.88886 20.6622C3.55996 20.4424 3.30362 20.1301 3.15224 19.7646C3.00086 19.3992 2.96126 18.997 3.03843 18.6091C3.1156 18.2211 3.30608 17.8647 3.58579 17.585C3.86549 17.3053 4.22186 17.1148 4.60982 17.0377C4.99778 16.9605 5.39991 17.0001 5.76537 17.1515C6.13082 17.3029 6.44318 17.5592 6.66294 17.8881C6.8827 18.217 7 18.6037 7 18.9992C7 19.5297 6.78929 20.0384 6.41421 20.4135C6.03914 20.7885 5.53043 20.9992 5 20.9992ZM19 20.9992C18.6044 20.9992 18.2178 20.8819 17.8889 20.6622C17.56 20.4424 17.3036 20.1301 17.1522 19.7646C17.0009 19.3992 16.9613 18.997 17.0384 18.6091C17.1156 18.2211 17.3061 17.8647 17.5858 17.585C17.8655 17.3053 18.2219 17.1148 18.6098 17.0377C18.9978 16.9605 19.3999 17.0001 19.7654 17.1515C20.1308 17.3029 20.4432 17.5592 20.6629 17.8881C20.8827 18.217 21 18.6037 21 18.9992C21 19.5297 20.7893 20.0384 20.4142 20.4135C20.0391 20.7885 19.5304 20.9992 19 20.9992Z" fill="#374957"/>
</g>
<defs>
<clipPath id="clip0_405_1750">
<rect width="24" height="24" fill="white"/>
</clipPath>
</defs>
</svg>
