<svg width="24" height="24" viewBox="0 0 24 24" fill="none" xmlns="http://www.w3.org/2000/svg">
<g clip-path="url(#clip0_405_1805)">
<path d="M11.16 11.6936L10.443 10.9476C10.1674 10.661 9.78924 10.4957 9.39172 10.4878C8.99419 10.4799 8.6098 10.6302 8.32302 10.9056C8.18099 11.0421 8.06724 11.2052 7.98826 11.3857C7.90928 11.5662 7.86662 11.7604 7.86272 11.9574C7.85882 12.1543 7.89375 12.3501 7.96553 12.5336C8.0373 12.717 8.14451 12.8846 8.28102 13.0266L9.44002 14.2326C9.65582 14.461 9.91503 14.6442 10.2025 14.7712C10.4899 14.8983 10.7998 14.9668 11.114 14.9726H11.151C11.774 14.9708 12.3711 14.7236 12.813 14.2846L16.774 10.3226C17.0552 10.0413 17.2132 9.65983 17.2132 9.26208C17.2132 8.86434 17.0552 8.48287 16.774 8.20158C16.6347 8.06219 16.4693 7.95162 16.2873 7.87617C16.1052 7.80073 15.9101 7.7619 15.713 7.7619C15.516 7.7619 15.3208 7.80073 15.1388 7.87617C14.9567 7.95162 14.7913 8.06219 14.652 8.20158L11.16 11.6936Z" fill="#374957"/>
<path d="M12.0001 23.9991C11.7903 23.9991 11.5828 23.9552 11.3911 23.8701C11.0001 23.6991 1.90906 19.5681 1.90906 11.9991V7.24607C1.90781 6.09135 2.27056 4.96562 2.94575 4.02887C3.62093 3.09212 4.5742 2.39202 5.67006 2.02807L11.5251 0.0760687C11.8335 -0.0259259 12.1666 -0.0259259 12.4751 0.0760687L18.3301 2.02807C19.4258 2.39215 20.379 3.09229 21.0542 4.02901C21.7293 4.96573 22.0922 6.09139 22.0911 7.24607V11.9991C22.0911 20.6171 12.8671 23.7911 12.4751 23.9221C12.3219 23.9733 12.1615 23.9993 12.0001 23.9991ZM12.0001 3.08007L6.61906 4.87407C6.12113 5.03991 5.68801 5.35826 5.3811 5.78399C5.07419 6.20972 4.90904 6.72124 4.90906 7.24607V11.9991C4.90906 16.7341 10.3301 19.9511 12.0771 20.8641C13.8341 20.1311 19.0911 17.4811 19.0911 11.9991V7.24607C19.0911 6.72124 18.9259 6.20972 18.619 5.78399C18.3121 5.35826 17.879 5.03991 17.3811 4.87407L12.0001 3.08007Z" fill="#374957"/>
</g>
<defs>
<clipPath id="clip0_405_1805">
<rect width="24" height="24" fill="white"/>
</clipPath>
</defs>
</svg>
