<svg width="24" height="24" viewBox="0 0 24 24" fill="none" xmlns="http://www.w3.org/2000/svg">
<g clip-path="url(#clip0_405_1586)">
<path d="M17.5609 10.5611L16.1209 12.0001L17.5609 13.4391C17.8423 13.7205 18.0004 14.1022 18.0004 14.5001C18.0004 14.8981 17.8423 15.2797 17.5609 15.5611C17.2795 15.8425 16.8979 16.0006 16.4999 16.0006C16.102 16.0006 15.7203 15.8425 15.4389 15.5611L13.9999 14.1211L12.5609 15.5611C12.2795 15.8425 11.8979 16.0006 11.4999 16.0006C11.102 16.0006 10.7203 15.8425 10.4389 15.5611C10.1575 15.2797 9.99945 14.8981 9.99945 14.5001C9.99945 14.3031 10.0383 14.108 10.1137 13.9259C10.1891 13.7439 10.2996 13.5785 10.4389 13.4391L11.8789 12.0001L10.4389 10.5611C10.1575 10.2797 9.99945 9.89807 9.99945 9.50012C9.99945 9.10217 10.1575 8.72052 10.4389 8.43912C10.7203 8.15773 11.102 7.99964 11.4999 7.99964C11.8979 7.99964 12.2795 8.15773 12.5609 8.43912L13.9999 9.87912L15.4389 8.43912C15.7203 8.15773 16.102 7.99964 16.4999 7.99964C16.8979 7.99964 17.2795 8.15773 17.5609 8.43912C17.8423 8.72052 18.0004 9.10217 18.0004 9.50012C18.0004 9.89807 17.8423 10.2797 17.5609 10.5611ZM23.9999 7.00012V17.0001C23.9983 18.3257 23.471 19.5966 22.5337 20.5339C21.5964 21.4712 20.3255 21.9985 18.9999 22.0001H9.97693C9.13204 21.9977 8.29891 21.8019 7.54143 21.4277C6.78394 21.0534 6.12219 20.5107 5.60693 19.8411L0.306926 12.9111C0.106944 12.6495 -0.00140381 12.3294 -0.00140381 12.0001C-0.00140381 11.6708 0.106944 11.3507 0.306926 11.0891L5.60693 4.15912C6.12219 3.48954 6.78394 2.94683 7.54143 2.57259C8.29891 2.19835 9.13204 2.00252 9.97693 2.00012H18.9999C20.3255 2.00171 21.5964 2.529 22.5337 3.46634C23.471 4.40368 23.9983 5.67453 23.9999 7.00012ZM20.9999 7.00012C20.9999 6.46969 20.7892 5.96098 20.4141 5.58591C20.0391 5.21084 19.5304 5.00012 18.9999 5.00012H9.97693C9.59284 5.00126 9.21411 5.09026 8.86971 5.26029C8.52531 5.43032 8.22437 5.67689 7.98993 5.98112L3.38893 12.0001L7.98893 18.0191C8.22348 18.3235 8.52457 18.5701 8.86916 18.7402C9.21374 18.9102 9.59267 18.9991 9.97693 19.0001H18.9999C19.5304 19.0001 20.0391 18.7894 20.4141 18.4143C20.7892 18.0393 20.9999 17.5306 20.9999 17.0001V7.00012Z" fill="#374957"/>
</g>
<defs>
<clipPath id="clip0_405_1586">
<rect width="24" height="24" fill="white"/>
</clipPath>
</defs>
</svg>
