<svg width="24" height="24" viewBox="0 0 24 24" fill="none" xmlns="http://www.w3.org/2000/svg">
<path d="M16.5 0H7.49998C4.4638 0.00332812 2.00328 2.4638 2 5.49998V18.5C2.00328 21.5362 4.4638 23.9967 7.49998 24H16.5C19.5362 23.9967 21.9967 21.5362 22 18.5V5.49998C21.9967 2.4638 19.5362 0.00332812 16.5 0ZM7.49998 3H16.5C17.8807 3 19 4.11928 19 5.49998V11H5V5.49998C5 4.11928 6.11928 3 7.49998 3ZM16.5 21H7.49998C6.11928 21 5 19.8807 5 18.5V14H19V18.5C19 19.8807 17.8807 21 16.5 21Z" fill="#374957"/>
<path d="M11.4999 6H12.4999C13.3283 6 13.9999 6.67158 13.9999 7.5C13.9999 8.32842 13.3283 9 12.4999 9H11.4999C10.6715 9 9.99994 8.32842 9.99994 7.5C9.99994 6.67158 10.6715 6 11.4999 6Z" fill="#374957"/>
<path d="M11.4999 16H12.4999C13.3283 16 13.9999 16.6716 13.9999 17.5C13.9999 18.3284 13.3283 19 12.4999 19H11.4999C10.6715 19 9.99994 18.3284 9.99994 17.5C9.99994 16.6716 10.6715 16 11.4999 16Z" fill="#374957"/>
</svg>
