<svg width="24" height="24" viewBox="0 0 24 24" fill="none" xmlns="http://www.w3.org/2000/svg">
<g clip-path="url(#clip0_405_1439)">
<path d="M11.9999 19C13.8558 18.9979 15.635 18.2597 16.9473 16.9474C18.2596 15.6351 18.9978 13.8559 18.9999 12V7C18.9999 5.14348 18.2624 3.36301 16.9497 2.05025C15.6369 0.737498 13.8564 0 11.9999 0C10.1434 0 8.36292 0.737498 7.05016 2.05025C5.73741 3.36301 4.99991 5.14348 4.99991 7V12C5.00203 13.8559 5.7402 15.6351 7.0525 16.9474C8.3648 18.2597 10.144 18.9979 11.9999 19ZM11.9999 3C13.0608 3 14.0782 3.42143 14.8283 4.17157C15.5785 4.92172 15.9999 5.93913 15.9999 7V8H14.4999C14.1021 8 13.7206 8.15804 13.4392 8.43934C13.1579 8.72064 12.9999 9.10218 12.9999 9.5C12.9999 9.89782 13.1579 10.2794 13.4392 10.5607C13.7206 10.842 14.1021 11 14.4999 11H15.9999V12C15.9999 13.0609 15.5785 14.0783 14.8283 14.8284C14.0782 15.5786 13.0608 16 11.9999 16C10.939 16 9.92163 15.5786 9.17148 14.8284C8.42134 14.0783 7.99991 13.0609 7.99991 12V11H9.49991C9.89773 11 10.2793 10.842 10.5606 10.5607C10.8419 10.2794 10.9999 9.89782 10.9999 9.5C10.9999 9.10218 10.8419 8.72064 10.5606 8.43934C10.2793 8.15804 9.89773 8 9.49991 8H7.99991V7C7.99991 5.93913 8.42134 4.92172 9.17148 4.17157C9.92163 3.42143 10.939 3 11.9999 3Z" fill="#374957"/>
<path d="M22.5 11.5003C22.1022 11.5003 21.7206 11.6583 21.4393 11.9396C21.158 12.2209 21 12.6025 21 13.0003V13.3893C20.9976 15.4071 20.195 17.3416 18.7682 18.7685C17.3413 20.1953 15.4068 20.9979 13.389 21.0003H10.611C8.59325 20.9977 6.6589 20.1949 5.23213 18.7682C3.80537 17.3414 3.00265 15.4071 3 13.3893V13.0003C3 12.6025 2.84196 12.2209 2.56066 11.9396C2.27936 11.6583 1.89782 11.5003 1.5 11.5003C1.10218 11.5003 0.720644 11.6583 0.43934 11.9396C0.158035 12.2209 0 12.6025 0 13.0003L0 13.3893C0.00317611 16.2025 1.12214 18.8996 3.1114 20.8889C5.10066 22.8782 7.79776 23.9971 10.611 24.0003H13.389C16.2022 23.9971 18.8993 22.8782 20.8886 20.8889C22.8779 18.8996 23.9968 16.2025 24 13.3893V13.0003C24 12.6025 23.842 12.2209 23.5607 11.9396C23.2794 11.6583 22.8978 11.5003 22.5 11.5003Z" fill="#374957"/>
</g>
<defs>
<clipPath id="clip0_405_1439">
<rect width="24" height="24" fill="white"/>
</clipPath>
</defs>
</svg>
