<svg width="24" height="24" viewBox="0 0 24 24" fill="none" xmlns="http://www.w3.org/2000/svg">
<g clip-path="url(#clip0_405_1521)">
<path d="M18.5 0H13.5C12.0928 0.00188042 10.7398 0.543079 9.71951 1.51223C8.69921 2.48137 8.0892 3.80474 8.015 5.21C6.90975 5.52154 5.92972 6.17121 5.21237 7.0679C4.49502 7.96459 4.07632 9.06332 4.015 10.21C2.86119 10.5346 1.8448 11.2268 1.12017 12.1815C0.395533 13.1363 0.00223816 14.3014 0 15.5L0 18.5C0.00185226 19.9581 0.58191 21.356 1.61296 22.387C2.64401 23.4181 4.04188 23.9981 5.5 24H10.5C11.9581 23.9981 13.356 23.4181 14.387 22.387C15.4181 21.356 15.9981 19.9581 16 18.5V18.287C16.9999 18.001 17.8985 17.438 18.592 16.6629C19.2855 15.8879 19.7455 14.9324 19.919 13.907C21.1369 13.6493 22.2206 12.9602 22.9705 11.9666C23.7204 10.973 24.0861 9.74186 24 8.5V5.5C23.9981 4.04188 23.4181 2.64401 22.387 1.61296C21.356 0.58191 19.9581 0.00185226 18.5 0V0ZM3 15.5C3 14.837 3.26339 14.2011 3.73223 13.7322C4.20107 13.2634 4.83696 13 5.5 13H10.5C11.163 13 11.7989 13.2634 12.2678 13.7322C12.7366 14.2011 13 14.837 13 15.5V15.7L10.885 17.815C10.7921 17.908 10.6818 17.9817 10.5604 18.0321C10.439 18.0824 10.3089 18.1083 10.1775 18.1083C10.0461 18.1083 9.91596 18.0824 9.79456 18.0321C9.67316 17.9817 9.56287 17.908 9.47 17.815L9 17.335C8.82355 17.1586 8.58755 17.0546 8.33833 17.0433C8.08911 17.032 7.84467 17.1143 7.653 17.274L3.953 20.45C3.65716 20.2181 3.41771 19.9221 3.25266 19.5844C3.0876 19.2467 3.00122 18.8759 3 18.5V15.5ZM17 13C16.999 13.3917 16.9056 13.7777 16.7276 14.1265C16.5495 14.4754 16.2916 14.7774 15.975 15.008C15.8509 13.641 15.2206 12.3697 14.2078 11.4433C13.195 10.5168 11.8726 10.0021 10.5 10H7.051C7.16623 9.43549 7.47291 8.9281 7.91916 8.56366C8.36541 8.19923 8.92385 8.00011 9.5 8H14.5C15.163 8 15.7989 8.26339 16.2678 8.73223C16.7366 9.20107 17 9.83696 17 10.5V13ZM21 8.5C21.0183 8.9233 20.9374 9.34501 20.7638 9.73149C20.5901 10.118 20.3286 10.4585 20 10.726V10.5C19.9981 9.04188 19.4181 7.64401 18.387 6.61296C17.356 5.58191 15.9581 5.00185 14.5 5H11.051C11.1662 4.43549 11.4729 3.9281 11.9192 3.56366C12.3654 3.19923 12.9238 3.00011 13.5 3H18.5C19.163 3 19.7989 3.26339 20.2678 3.73223C20.7366 4.20107 21 4.83696 21 5.5V8.5ZM4 15.5C4 15.2033 4.08797 14.9133 4.2528 14.6666C4.41762 14.42 4.65189 14.2277 4.92597 14.1142C5.20006 14.0006 5.50166 13.9709 5.79264 14.0288C6.08361 14.0867 6.35088 14.2296 6.56066 14.4393C6.77044 14.6491 6.9133 14.9164 6.97118 15.2074C7.02906 15.4983 6.99935 15.7999 6.88582 16.074C6.77229 16.3481 6.58003 16.5824 6.33336 16.7472C6.08668 16.912 5.79667 17 5.5 17C5.10218 17 4.72064 16.842 4.43934 16.5607C4.15804 16.2794 4 15.8978 4 15.5Z" fill="#374957"/>
</g>
<defs>
<clipPath id="clip0_405_1521">
<rect width="24" height="24" fill="white"/>
</clipPath>
</defs>
</svg>
