<svg width="24" height="24" viewBox="0 0 24 24" fill="none" xmlns="http://www.w3.org/2000/svg">
<g clip-path="url(#clip0_405_1456)">
<path d="M8.0002 22.36C9.06233 23.4058 10.4915 23.9945 11.9821 24.0001C13.4726 24.0057 14.9062 23.4278 15.9762 22.39L19.7842 18.853C21.8423 16.7757 22.997 13.9698 22.997 11.0455C22.997 8.12129 21.8423 5.31533 19.7842 3.23803C18.7649 2.21194 17.5527 1.3976 16.2174 0.841904C14.8821 0.286206 13.45 0.00012207 12.0037 0.00012207C10.5574 0.00012207 9.12533 0.286206 7.79002 0.841904C6.45471 1.3976 5.24251 2.21194 4.2232 3.23803C2.15986 5.3235 1.00602 8.14101 1.01389 11.0747C1.02177 14.0084 2.1907 16.8196 4.2652 18.894L8.0002 22.36ZM6.3462 5.35403C7.08674 4.60807 7.96758 4.01602 8.93796 3.61201C9.90834 3.20799 10.9491 2.99999 12.0002 2.99999C13.0513 2.99999 14.0921 3.20799 15.0624 3.61201C16.0328 4.01602 16.9137 4.60807 17.6542 5.35403C19.1525 6.8591 19.9975 8.89389 20.0061 11.0176C20.0147 13.1413 19.1862 15.1829 17.7002 16.7L13.9002 20.225C13.3826 20.7186 12.6933 20.9914 11.9781 20.9858C11.263 20.9802 10.578 20.6966 10.0682 20.195L6.3462 16.737C4.84524 15.223 4.00309 13.1774 4.00309 11.0455C4.00309 8.91362 4.84524 6.86801 6.3462 5.35403ZM7.0002 11C7.0002 10.6022 7.15823 10.2207 7.43954 9.93937C7.72084 9.65806 8.10237 9.50003 8.5002 9.50003H15.5002C15.898 9.50003 16.2796 9.65806 16.5609 9.93937C16.8422 10.2207 17.0002 10.6022 17.0002 11C17.0002 11.3979 16.8422 11.7794 16.5609 12.0607C16.2796 12.342 15.898 12.5 15.5002 12.5H8.5002C8.10237 12.5 7.72084 12.342 7.43954 12.0607C7.15823 11.7794 7.0002 11.3979 7.0002 11Z" fill="#374957"/>
</g>
<defs>
<clipPath id="clip0_405_1456">
<rect width="24" height="24" fill="white"/>
</clipPath>
</defs>
</svg>
