<svg width="24" height="24" viewBox="0 0 24 24" fill="none" xmlns="http://www.w3.org/2000/svg">
<g clip-path="url(#clip0_405_1570)">
<path d="M21.4899 2.50916C19.8823 0.904671 17.7037 0.00354004 15.4324 0.00354004C13.1611 0.00354004 10.9826 0.904671 9.37491 2.50916C7.13691 4.74816 6.31191 9.54217 6.01491 13.1682C5.95787 13.9477 6.10685 14.7284 6.44691 15.4322L3.34691 18.5322C3.10755 18.3107 2.81767 18.1511 2.50253 18.0673C2.18738 17.9836 1.85653 17.9781 1.53879 18.0514C1.22105 18.1248 0.926065 18.2747 0.679533 18.4882C0.433002 18.7016 0.242401 18.9721 0.124336 19.2761C0.00627117 19.5801 -0.0356766 19.9083 0.00214721 20.2322C0.039971 20.5561 0.156419 20.8658 0.341346 21.1344C0.526274 21.403 0.774071 21.6223 1.06315 21.7732C1.35223 21.9241 1.67382 22.002 1.99991 22.0002C1.99841 22.3261 2.0766 22.6475 2.22767 22.9363C2.37873 23.2251 2.5981 23.4727 2.86668 23.6573C3.13525 23.842 3.44489 23.9583 3.76865 23.9959C4.09241 24.0336 4.42048 23.9916 4.72429 23.8736C5.02811 23.7555 5.29846 23.565 5.51183 23.3186C5.72519 23.0722 5.87511 22.7774 5.94851 22.4598C6.02192 22.1422 6.0166 21.8115 5.93301 21.4965C5.84942 21.1814 5.6901 20.8916 5.46891 20.6522L8.56091 17.5602C9.26653 17.9005 10.05 18.0472 10.8309 17.9852C14.4589 17.6852 19.2529 16.8632 21.4899 14.6252C23.0872 13.0135 23.9833 10.8362 23.9833 8.56717C23.9833 6.29809 23.0872 4.12083 21.4899 2.50916ZM19.3689 12.5002C18.1609 13.7072 14.8779 14.6392 10.5849 14.9912C10.3726 15.01 10.1588 14.982 9.95844 14.9092C9.75812 14.8364 9.57621 14.7206 9.42555 14.5698C9.27488 14.419 9.15913 14.2371 9.08645 14.0367C9.01377 13.8363 8.98594 13.6225 9.00491 13.4102C9.35691 9.12216 10.2889 5.83816 11.4999 4.63016C12.5536 3.63698 13.9529 3.09345 15.4008 3.1149C16.8486 3.13636 18.2311 3.72111 19.255 4.74508C20.2788 5.76905 20.8634 7.15165 20.8847 8.59952C20.9059 10.0474 20.3622 11.4466 19.3689 12.5002Z" fill="#374957"/>
</g>
<defs>
<clipPath id="clip0_405_1570">
<rect width="24" height="24" fill="white"/>
</clipPath>
</defs>
</svg>
