<svg width="24" height="24" viewBox="0 0 24 24" fill="none" xmlns="http://www.w3.org/2000/svg">
<g clip-path="url(#clip0_405_1490)">
<path d="M16.632 24H7.36801C6.73778 23.9999 6.11499 23.8638 5.54218 23.601C4.96938 23.3381 4.46005 22.9547 4.04901 22.477C3.64373 22.0077 3.34456 21.4564 3.17197 20.8608C2.99938 20.2652 2.95744 19.6393 3.04901 19.026C3.52791 16.3064 4.91474 13.8296 6.98301 12C4.91456 10.1708 3.52739 7.69432 3.04801 4.975C2.95644 4.36169 2.99838 3.73585 3.17097 3.14024C3.34356 2.54464 3.64273 1.99333 4.04801 1.524C4.45907 1.04595 4.96851 0.66229 5.54151 0.399265C6.1145 0.13624 6.73753 4.80496e-05 7.36801 0L16.632 0C17.2621 0.000146058 17.8847 0.136292 18.4573 0.399137C19.03 0.661982 19.5391 1.04533 19.95 1.523C20.3553 1.99173 20.6545 2.54252 20.8271 3.13765C20.9997 3.73277 21.0416 4.35816 20.95 4.971C20.4686 7.69141 19.0806 10.1688 17.012 12C19.0816 13.8311 20.4703 16.3089 20.952 19.03C21.0435 19.6427 21.0014 20.2679 20.8288 20.8628C20.6563 21.4578 20.3572 22.0084 19.952 22.477C19.5409 22.9549 19.0314 23.3384 18.4584 23.6013C17.8854 23.8641 17.2624 24.0001 16.632 24ZM16.632 3H7.36801C7.16941 3.00015 6.97318 3.04311 6.79267 3.12594C6.61217 3.20877 6.45164 3.32953 6.32201 3.48C6.1979 3.62197 6.10615 3.78923 6.05313 3.9702C6.00012 4.15117 5.98711 4.3415 6.01501 4.528C6.35201 6.771 7.76101 8.89 10.203 10.828C10.3804 10.9684 10.5237 11.1472 10.6222 11.3508C10.7207 11.5545 10.7719 11.7778 10.7719 12.004C10.7719 12.2302 10.7207 12.4535 10.6222 12.6572C10.5237 12.8608 10.3804 13.0396 10.203 13.18C7.76101 15.113 6.35201 17.232 6.01501 19.48C5.98711 19.6665 6.00012 19.8568 6.05313 20.0378C6.10615 20.2188 6.1979 20.386 6.32201 20.528C6.45238 20.677 6.61324 20.7963 6.79371 20.8777C6.97417 20.9591 7.17003 21.0008 7.36801 21H16.632C16.8307 20.9996 17.0269 20.9564 17.2074 20.8734C17.3879 20.7904 17.5484 20.6695 17.678 20.519C17.8019 20.3777 17.8936 20.2111 17.9466 20.0308C17.9996 19.8505 18.0127 19.6609 17.985 19.475C17.65 17.239 16.24 15.12 13.794 13.175C13.6174 13.0345 13.4747 12.856 13.3767 12.6527C13.2786 12.4495 13.2277 12.2267 13.2277 12.001C13.2277 11.7753 13.2786 11.5525 13.3767 11.3493C13.4747 11.146 13.6174 10.9675 13.794 10.827C16.24 8.881 17.65 6.762 17.985 4.527C18.0125 4.34098 17.9992 4.15121 17.9462 3.9708C17.8932 3.79039 17.8017 3.62362 17.678 3.482C17.5485 3.33127 17.388 3.2102 17.2075 3.12703C17.027 3.04386 16.8307 3.00053 16.632 3Z" fill="#374957"/>
</g>
<defs>
<clipPath id="clip0_405_1490">
<rect width="24" height="24" fill="white"/>
</clipPath>
</defs>
</svg>
