<svg width="24" height="24" viewBox="0 0 24 24" fill="none" xmlns="http://www.w3.org/2000/svg">
<g clip-path="url(#clip0_405_1414)">
<path d="M19.5 6H14.5C13.3069 6.00132 12.1631 6.47585 11.3195 7.31948C10.4759 8.16311 10.0013 9.30693 10 10.5V14H3V3.5C3 3.10218 2.84196 2.72064 2.56066 2.43934C2.27936 2.15804 1.89782 2 1.5 2C1.10218 2 0.720644 2.15804 0.43934 2.43934C0.158035 2.72064 0 3.10218 0 3.5L0 20.5C0 20.8978 0.158035 21.2794 0.43934 21.5607C0.720644 21.842 1.10218 22 1.5 22C1.89782 22 2.27936 21.842 2.56066 21.5607C2.84196 21.2794 3 20.8978 3 20.5V19H21V20.5C21 20.8978 21.158 21.2794 21.4393 21.5607C21.7206 21.842 22.1022 22 22.5 22C22.8978 22 23.2794 21.842 23.5607 21.5607C23.842 21.2794 24 20.8978 24 20.5V10.5C23.9987 9.30693 23.5241 8.16311 22.6805 7.31948C21.8369 6.47585 20.6931 6.00132 19.5 6ZM21 14H13V10.5C13 10.1022 13.158 9.72064 13.4393 9.43934C13.7206 9.15804 14.1022 9 14.5 9H19.5C19.8978 9 20.2794 9.15804 20.5607 9.43934C20.842 9.72064 21 10.1022 21 10.5V14ZM6.5 14C6.00555 14 5.5222 13.8534 5.11107 13.5787C4.69995 13.304 4.37952 12.9135 4.1903 12.4567C4.00108 11.9999 3.95157 11.4972 4.04804 11.0123C4.1445 10.5273 4.3826 10.0819 4.73223 9.73223C5.08186 9.3826 5.52732 9.1445 6.01227 9.04804C6.49723 8.95157 6.99989 9.00108 7.45671 9.1903C7.91352 9.37952 8.30397 9.69995 8.57867 10.1111C8.85338 10.5222 9 11.0055 9 11.5C9 12.163 8.73661 12.7989 8.26777 13.2678C7.79893 13.7366 7.16304 14 6.5 14Z" fill="#374957"/>
</g>
<defs>
<clipPath id="clip0_405_1414">
<rect width="24" height="24" fill="white"/>
</clipPath>
</defs>
</svg>
