<svg width="24" height="24" viewBox="0 0 24 24" fill="none" xmlns="http://www.w3.org/2000/svg">
<g clip-path="url(#clip0_405_1662)">
<path d="M22.3739 1.0382C21.8655 0.616404 21.2704 0.311727 20.6309 0.145813C19.9915 -0.0201015 19.3233 -0.0431842 18.6739 0.0782042L9.48594 1.8002C8.22511 2.03671 7.08661 2.7065 6.26742 3.6937C5.44823 4.68089 4.99988 5.92338 4.99994 7.2062V16.1412C4.67395 16.0519 4.33791 16.0045 3.99994 16.0002C3.20882 16.0002 2.43546 16.2348 1.77766 16.6743C1.11986 17.1139 0.607173 17.7386 0.304423 18.4695C0.00167209 19.2004 -0.0775412 20.0046 0.0767996 20.7806C0.231141 21.5565 0.612104 22.2692 1.17151 22.8286C1.73092 23.388 2.44366 23.769 3.21958 23.9233C3.9955 24.0777 4.79977 23.9985 5.53067 23.6957C6.26158 23.393 6.88629 22.8803 7.32582 22.2225C7.76535 21.5647 7.99994 20.7913 7.99994 20.0002V12.0002C8.00003 11.6503 8.12243 11.3115 8.34594 11.0423C8.56946 10.7731 8.88004 10.5906 9.22394 10.5262L20.4069 8.4262C20.4791 8.41079 20.5539 8.41234 20.6254 8.43073C20.6969 8.44912 20.7632 8.48386 20.8189 8.5322C20.876 8.57944 20.9218 8.63875 20.9531 8.70585C20.9844 8.77295 21.0004 8.84616 20.9999 8.9202V13.1412C20.1934 12.9343 19.3424 12.9848 18.566 13.2855C17.7896 13.5862 17.1267 14.1222 16.67 14.8184C16.2133 15.5146 15.9858 16.3362 16.0192 17.1681C16.0526 18.0001 16.3453 18.8008 16.8563 19.4581C17.3673 20.1154 18.0711 20.5966 18.8691 20.8341C19.6671 21.0716 20.5194 21.0537 21.3067 20.7828C22.0941 20.5119 22.777 20.0016 23.2599 19.3234C23.7428 18.6451 24.0016 17.8328 23.9999 17.0002V4.5002C24.0007 3.839 23.8553 3.1858 23.5742 2.58732C23.2931 1.98883 22.8833 1.45985 22.3739 1.0382ZM19.8549 5.4792L8.67094 7.5772C8.44275 7.62286 8.21842 7.68605 7.99994 7.7662V7.2062C7.99997 6.62316 8.20378 6.05847 8.57612 5.6098C8.94846 5.16114 9.4659 4.85672 10.0389 4.7492L19.2239 3.0272C19.4404 2.98668 19.6632 2.99432 19.8764 3.0496C20.0896 3.10487 20.288 3.20642 20.4575 3.34703C20.6271 3.48763 20.7635 3.66385 20.8573 3.86315C20.951 4.06245 20.9997 4.27995 20.9999 4.5002V5.4762C20.6207 5.41471 20.2339 5.41572 19.8549 5.4792Z" fill="#374957"/>
</g>
<defs>
<clipPath id="clip0_405_1662">
<rect width="24" height="24" fill="white"/>
</clipPath>
</defs>
</svg>
