<svg width="24" height="24" viewBox="0 0 24 24" fill="none" xmlns="http://www.w3.org/2000/svg">
<g clip-path="url(#clip0_405_1537)">
<path d="M16.5002 14.5C16.5002 14.8978 16.3421 15.2794 16.0608 15.5607C15.7795 15.842 15.398 16 15.0002 16H13.5002V17.5C13.5002 17.8978 13.3421 18.2794 13.0608 18.5607C12.7795 18.842 12.398 19 12.0002 19C11.6023 19 11.2208 18.842 10.9395 18.5607C10.6582 18.2794 10.5002 17.8978 10.5002 17.5V16H9.00015C8.60233 16 8.2208 15.842 7.93949 15.5607C7.65819 15.2794 7.50015 14.8978 7.50015 14.5C7.50015 14.1022 7.65819 13.7207 7.93949 13.4394C8.2208 13.1581 8.60233 13 9.00015 13H10.5002V11.5C10.5002 11.1022 10.6582 10.7207 10.9395 10.4394C11.2208 10.1581 11.6023 10 12.0002 10C12.398 10 12.7795 10.1581 13.0608 10.4394C13.3421 10.7207 13.5002 11.1022 13.5002 11.5V13H15.0002C15.398 13 15.7795 13.1581 16.0608 13.4394C16.3421 13.7207 16.5002 14.1022 16.5002 14.5ZM22.0002 8.15702V18.5C21.9986 19.9582 21.4186 21.3562 20.3875 22.3874C19.3564 23.4185 17.9584 23.9984 16.5002 24H7.50015C6.04195 23.9984 4.64393 23.4185 3.61282 22.3874C2.58171 21.3562 2.00174 19.9582 2.00015 18.5V5.50002C2.00174 4.04182 2.58171 2.64379 3.61282 1.61269C4.64393 0.581581 6.04195 0.00160807 7.50015 1.99011e-05H13.8432C14.5657 -0.00193016 15.2815 0.139451 15.949 0.415979C16.6166 0.692507 17.2226 1.09869 17.7322 1.61102L20.3892 4.26802C20.9015 4.77754 21.3077 5.38361 21.5842 6.05115C21.8607 6.7187 22.0021 7.43447 22.0002 8.15702ZM19.0002 18.5V9.00002H15.0002C14.4697 9.00002 13.961 8.78931 13.5859 8.41423C13.2109 8.03916 13.0002 7.53045 13.0002 7.00002V3.00002H7.50015C6.83711 3.00002 6.20123 3.26341 5.73239 3.73225C5.26354 4.20109 5.00015 4.83698 5.00015 5.50002V18.5C5.00015 19.1631 5.26354 19.7989 5.73239 20.2678C6.20123 20.7366 6.83711 21 7.50015 21H16.5002C17.1632 21 17.7991 20.7366 18.2679 20.2678C18.7368 19.7989 19.0002 19.1631 19.0002 18.5Z" fill="#374957"/>
</g>
<defs>
<clipPath id="clip0_405_1537">
<rect width="24" height="24" fill="white"/>
</clipPath>
</defs>
</svg>
