<svg width="24" height="24" viewBox="0 0 24 24" fill="none" xmlns="http://www.w3.org/2000/svg">
<g clip-path="url(#clip0_405_1573)">
<path d="M21.2551 6.27C20.9383 5.87278 20.5359 5.55224 20.0779 5.33233C19.6199 5.11242 19.1181 4.99882 18.6101 5H15.1211L15.2941 3.444C15.3078 3.32201 15.3659 3.20934 15.4574 3.12746C15.5489 3.04558 15.6673 3.00021 15.7901 3H19.5001C19.8979 3 20.2794 2.84196 20.5607 2.56066C20.842 2.27936 21.0001 1.89782 21.0001 1.5C21.0001 1.10218 20.842 0.720644 20.5607 0.43934C20.2794 0.158035 19.8979 0 19.5001 0L15.7901 0C14.9289 0.000132528 14.098 0.31774 13.4563 0.892067C12.8147 1.46639 12.4073 2.25712 12.3121 3.113L12.1001 5H5.39005C4.88864 4.9999 4.39345 5.11106 3.94019 5.32547C3.48693 5.53988 3.0869 5.85219 2.76893 6.2399C2.45097 6.6276 2.22299 7.08102 2.10144 7.56748C1.9799 8.05394 1.96781 8.56131 2.06605 9.053L3.48605 19.379C3.64737 20.6545 4.2682 21.8275 5.23223 22.6781C6.19627 23.5287 7.43738 23.9987 8.72305 24H15.2771C16.5594 23.9998 17.7979 23.5328 18.7612 22.6863C19.7246 21.8398 20.3469 20.6717 20.5121 19.4L21.9331 9.058C22.032 8.57202 22.0226 8.0702 21.9054 7.58829C21.7882 7.10638 21.5661 6.65626 21.2551 6.27ZM18.6101 8C18.6691 7.99774 18.7278 8.00934 18.7815 8.03388C18.8353 8.05841 18.8825 8.0952 18.9194 8.14128C18.9564 8.18737 18.982 8.24147 18.9943 8.29925C19.0065 8.35703 19.0051 8.41688 18.9901 8.474C18.9811 8.515 18.7751 10 18.7751 10H14.5651L14.7871 8H18.6101ZM5.08605 8.146C5.12191 8.09973 5.16805 8.06245 5.22082 8.03711C5.27358 8.01177 5.33152 7.99906 5.39005 8H11.7681L11.5461 10H5.22505C5.22505 10 5.01905 8.513 5.01005 8.474C4.99659 8.41717 4.99645 8.35799 5.00963 8.3011C5.02281 8.2442 5.04897 8.19112 5.08605 8.146ZM15.2771 21H8.72305C8.16539 20.9986 7.62751 20.7932 7.21083 20.4226C6.79415 20.052 6.52746 19.5417 6.46105 18.988L5.63705 13H18.3631L17.5371 19.006C17.4675 19.5564 17.1995 20.0626 16.7835 20.4297C16.3675 20.7967 15.8319 20.9995 15.2771 21ZM13.8241 16.664L13.7141 17.664C13.6706 18.0596 13.4717 18.4217 13.1612 18.6706C12.8508 18.9196 12.4541 19.035 12.0586 18.9915C11.663 18.948 11.3009 18.7492 11.0519 18.4387C10.803 18.1282 10.6876 17.7316 10.7311 17.336L10.8421 16.336C10.863 16.1397 10.9225 15.9495 11.0171 15.7763C11.1117 15.6031 11.2396 15.4502 11.3934 15.3265C11.5472 15.2027 11.7239 15.1106 11.9134 15.0553C12.1028 15 12.3014 14.9826 12.4976 15.0042C12.6938 15.0258 12.8838 15.0859 13.0567 15.1811C13.2297 15.2762 13.3821 15.4046 13.5053 15.5588C13.6286 15.713 13.7202 15.89 13.7748 16.0796C13.8295 16.2693 13.8463 16.4679 13.8241 16.664Z" fill="#374957"/>
</g>
<defs>
<clipPath id="clip0_405_1573">
<rect width="24" height="24" fill="white"/>
</clipPath>
</defs>
</svg>
