<svg width="24" height="24" viewBox="0 0 24 24" fill="none" xmlns="http://www.w3.org/2000/svg">
<g clip-path="url(#clip0_405_1420)">
<path d="M18.5 24H5.5C4.0418 23.9984 2.64377 23.4184 1.61267 22.3873C0.581561 21.3562 0.00158817 19.9582 0 18.5L0 5.5C0.00158817 4.0418 0.581561 2.64377 1.61267 1.61267C2.64377 0.581561 4.0418 0.00158817 5.5 0L18.5 0C19.9582 0.00158817 21.3562 0.581561 22.3873 1.61267C23.4184 2.64377 23.9984 4.0418 24 5.5V18.5C23.9984 19.9582 23.4184 21.3562 22.3873 22.3873C21.3562 23.4184 19.9582 23.9984 18.5 24ZM5.5 3C4.83696 3 4.20107 3.26339 3.73223 3.73223C3.26339 4.20107 3 4.83696 3 5.5V18.5C3 19.163 3.26339 19.7989 3.73223 20.2678C4.20107 20.7366 4.83696 21 5.5 21H18.5C19.163 21 19.7989 20.7366 20.2678 20.2678C20.7366 19.7989 21 19.163 21 18.5V5.5C21 4.83696 20.7366 4.20107 20.2678 3.73223C19.7989 3.26339 19.163 3 18.5 3H5.5ZM7.992 9.339V14.661C7.99201 14.8952 8.0535 15.1252 8.17034 15.3281C8.28718 15.531 8.45527 15.6997 8.65777 15.8173C8.86028 15.9348 9.0901 15.9971 9.32425 15.998C9.5584 15.9988 9.78866 15.9381 9.992 15.822L15.319 13.161C15.5237 13.0441 15.6939 12.8751 15.8122 12.6712C15.9306 12.4673 15.9929 12.2358 15.9929 12C15.9929 11.7642 15.9306 11.5327 15.8122 11.3288C15.6939 11.1249 15.5237 10.9559 15.319 10.839L9.992 8.178C9.78866 8.06189 9.5584 8.00121 9.32425 8.00204C9.0901 8.00287 8.86028 8.06518 8.65777 8.18274C8.45527 8.30029 8.28718 8.46897 8.17034 8.67189C8.0535 8.8748 7.99201 9.10485 7.992 9.339Z" fill="#374957"/>
</g>
<defs>
<clipPath id="clip0_405_1420">
<rect width="24" height="24" fill="white"/>
</clipPath>
</defs>
</svg>
