<svg width="24" height="24" viewBox="0 0 24 24" fill="none" xmlns="http://www.w3.org/2000/svg">
<g clip-path="url(#clip0_405_1787)">
<path d="M12 0C9.62663 0 7.30655 0.703788 5.33316 2.02236C3.35977 3.34094 1.8217 5.21509 0.913451 7.4078C0.00519943 9.60051 -0.232441 12.0133 0.230582 14.3411C0.693605 16.6689 1.83649 18.8071 3.51472 20.4853C5.19295 22.1635 7.33115 23.3064 9.65892 23.7694C11.9867 24.2324 14.3995 23.9948 16.5922 23.0866C18.7849 22.1783 20.6591 20.6402 21.9776 18.6668C23.2962 16.6935 24 14.3734 24 12C23.9966 8.81846 22.7312 5.76821 20.4815 3.51852C18.2318 1.26883 15.1815 0.00344108 12 0V0ZM12 15.272C6.59001 15.272 3.00001 13.3 3.00001 12C3.00001 10.7 6.59001 8.728 12 8.728C17.41 8.728 21 10.7 21 12C21 13.3 17.41 15.272 12 15.272ZM12 3C13.4865 3.00152 14.9494 3.3712 16.2581 4.07599C17.5669 4.78079 18.6806 5.79877 19.5 7.039C17.1059 6.12998 14.5606 5.68506 12 5.728C9.43946 5.68506 6.89415 6.12998 4.50001 7.039C5.31937 5.79877 6.43316 4.78079 7.7419 4.07599C9.05063 3.3712 10.5136 3.00152 12 3ZM12 21C10.5136 20.9985 9.05063 20.6288 7.7419 19.924C6.43316 19.2192 5.31937 18.2012 4.50001 16.961C6.89415 17.87 9.43946 18.3149 12 18.272C14.5606 18.3149 17.1059 17.87 19.5 16.961C18.6806 18.2012 17.5669 19.2192 16.2581 19.924C14.9494 20.6288 13.4865 20.9985 12 21Z" fill="#374957"/>
</g>
<defs>
<clipPath id="clip0_405_1787">
<rect width="24" height="24" fill="white"/>
</clipPath>
</defs>
</svg>
