<svg width="24" height="24" viewBox="0 0 24 24" fill="none" xmlns="http://www.w3.org/2000/svg">
<g clip-path="url(#clip0_405_1548)">
<path d="M3.08615 10.6841C3.8103 5.76306 8.3866 2.36083 13.3076 3.08498C14.9866 3.33203 16.5615 4.04842 17.8511 5.15163L16.6902 6.31251C16.3011 6.7017 16.3012 7.33267 16.6905 7.72176C16.8773 7.90851 17.1306 8.01347 17.3948 8.01351H21.9647C22.515 8.01351 22.9611 7.56739 22.9611 7.01705V2.44715C22.961 1.89681 22.5148 1.45077 21.9644 1.45087C21.7003 1.45091 21.4469 1.55587 21.2601 1.74262L19.9646 3.03803C15.0245 -1.36557 7.44996 -0.930701 3.04635 4.00937C1.48628 5.75947 0.473881 7.92878 0.134578 10.2486C0.000799559 11.071 0.559034 11.8462 1.38141 11.98C1.4555 11.992 1.53033 11.9985 1.60539 11.9994C2.3578 11.9913 2.98937 11.4303 3.08615 10.6841Z" fill="#374957"/>
<path d="M22.3939 11.9992C21.6415 12.0073 21.0099 12.5684 20.9131 13.3146C20.189 18.2356 15.6127 21.6378 10.6917 20.9137C9.0127 20.6666 7.43773 19.9503 6.14815 18.8471L7.30904 17.6862C7.69814 17.297 7.69804 16.666 7.30881 16.2769C7.12201 16.0902 6.86866 15.9852 6.60451 15.9852H2.03471C1.48437 15.9852 1.03824 16.4313 1.03824 16.9816V21.5515C1.03838 22.1019 1.4846 22.5479 2.03494 22.5478C2.29909 22.5478 2.55244 22.4428 2.73924 22.2561L4.03465 20.9606C8.97356 25.3647 16.5476 24.9312 20.9517 19.9922C22.5126 18.2418 23.5255 16.0717 23.8647 13.7511C23.999 12.9287 23.4413 12.1532 22.619 12.0189C22.5446 12.0067 22.4693 12.0001 22.3939 11.9992Z" fill="#374957"/>
</g>
<defs>
<clipPath id="clip0_405_1548">
<rect width="24" height="24" fill="white"/>
</clipPath>
</defs>
</svg>
