<svg width="24" height="24" viewBox="0 0 24 24" fill="none" xmlns="http://www.w3.org/2000/svg">
<g clip-path="url(#clip0_405_1495)">
<path d="M21.765 5.81844L15.192 1.03744C14.3124 0.400345 13.2616 0.0425134 12.176 0.010437H12.152H12.133H12.108C12.037 0.010437 11.967 0.010437 11.897 0.010437H11.861H11.842H11.826C10.7392 0.0417141 9.68706 0.399974 8.807 1.03844L2.235 5.81844C1.54376 6.32313 0.981178 6.98362 0.592867 7.74634C0.204556 8.50906 0.00144477 9.35256 0 10.2084C0.00211081 10.9483 0.296945 11.6572 0.82009 12.1803C1.34323 12.7035 2.05216 12.9983 2.792 13.0004H10.5V22.5004C10.5 22.8983 10.658 23.2798 10.9393 23.5611C11.2206 23.8424 11.6022 24.0004 12 24.0004C12.3978 24.0004 12.7794 23.8424 13.0607 23.5611C13.342 23.2798 13.5 22.8983 13.5 22.5004V13.0004H21.208C21.9478 12.9983 22.6568 12.7035 23.1799 12.1803C23.7031 11.6572 23.9979 10.9483 24 10.2084C23.9986 9.35256 23.7954 8.50906 23.4071 7.74634C23.0188 6.98362 22.4562 6.32313 21.765 5.81844ZM14.638 10.0004H9.362V9.83844C9.36157 9.38195 9.49622 8.93555 9.749 8.55544C9.77 8.52344 9.789 8.49244 9.808 8.46044L12 4.56144L14.192 8.46144C14.211 8.49344 14.23 8.52444 14.251 8.55644C14.5038 8.93655 14.6384 9.38295 14.638 9.83944V10.0004ZM4 8.24444L8.206 5.18444L7.217 6.94444C6.65724 7.80577 6.35985 8.8112 6.361 9.83844V10.0004H3.009C3.03951 9.65403 3.14371 9.31814 3.31463 9.01528C3.48554 8.71243 3.71922 8.44961 4 8.24444ZM17.638 10.0004V9.83844C17.6392 8.8112 17.3418 7.80577 16.782 6.94444L15.792 5.18444L20 8.24444C20.2808 8.44961 20.5145 8.71243 20.6854 9.01528C20.8563 9.31814 20.9605 9.65403 20.991 10.0004H17.638Z" fill="#374957"/>
<path d="M4.591 18.0006H3V15.5006C3 15.1028 2.84196 14.7213 2.56066 14.4399C2.27936 14.1586 1.89782 14.0006 1.5 14.0006C1.10218 14.0006 0.720644 14.1586 0.43934 14.4399C0.158035 14.7213 0 15.1028 0 15.5006L0 22.5006C0 22.8984 0.158035 23.28 0.43934 23.5613C0.720644 23.8426 1.10218 24.0006 1.5 24.0006C1.89782 24.0006 2.27936 23.8426 2.56066 23.5613C2.84196 23.28 3 22.8984 3 22.5006V21.0006H4.591C4.69939 21.0009 4.80327 21.044 4.87991 21.1207C4.95656 21.1973 4.99974 21.3012 5 21.4096V22.5006C5 22.8984 5.15804 23.28 5.43934 23.5613C5.72064 23.8426 6.10218 24.0006 6.5 24.0006C6.89782 24.0006 7.27936 23.8426 7.56066 23.5613C7.84196 23.28 8 22.8984 8 22.5006V21.4096C7.99894 20.5058 7.63944 19.6393 7.00036 19.0003C6.36128 18.3612 5.4948 18.0017 4.591 18.0006Z" fill="#374957"/>
<path d="M22.5 14.0006C22.1022 14.0006 21.7207 14.1586 21.4394 14.4399C21.1581 14.7213 21.0001 15.1028 21.0001 15.5006V18.0006H19.4091C18.5053 18.0017 17.6388 18.3612 16.9997 19.0003C16.3606 19.6393 16.0011 20.5058 16.0001 21.4096V22.5006C16.0001 22.8984 16.1581 23.28 16.4394 23.5613C16.7207 23.8426 17.1022 24.0006 17.5001 24.0006C17.8979 24.0006 18.2794 23.8426 18.5607 23.5613C18.842 23.28 19.0001 22.8984 19.0001 22.5006V21.4096C19.0003 21.3012 19.0435 21.1973 19.1201 21.1207C19.1968 21.044 19.3007 21.0009 19.4091 21.0006H21.0001V22.5006C21.0001 22.8984 21.1581 23.28 21.4394 23.5613C21.7207 23.8426 22.1022 24.0006 22.5 24.0006C22.8979 24.0006 23.2794 23.8426 23.5607 23.5613C23.842 23.28 24 22.8984 24 22.5006V15.5006C24 15.1028 23.842 14.7213 23.5607 14.4399C23.2794 14.1586 22.8979 14.0006 22.5 14.0006Z" fill="#374957"/>
</g>
<defs>
<clipPath id="clip0_405_1495">
<rect width="24" height="24" fill="white"/>
</clipPath>
</defs>
</svg>
