<svg width="24" height="24" viewBox="0 0 24 24" fill="none" xmlns="http://www.w3.org/2000/svg">
<g clip-path="url(#clip0_405_1814)">
<path d="M1.5 6H22.5C22.8978 6 23.2794 5.84196 23.5607 5.56066C23.842 5.27936 24 4.89782 24 4.5C24 4.10218 23.842 3.72064 23.5607 3.43934C23.2794 3.15804 22.8978 3 22.5 3H1.5C1.10218 3 0.720644 3.15804 0.43934 3.43934C0.158035 3.72064 0 4.10218 0 4.5C0 4.89782 0.158035 5.27936 0.43934 5.56066C0.720644 5.84196 1.10218 6 1.5 6Z" fill="#374957"/>
<path d="M5.50012 8C5.1023 8 4.72077 8.15804 4.43946 8.43934C4.15816 8.72064 4.00012 9.10218 4.00012 9.5C4.00012 9.89782 4.15816 10.2794 4.43946 10.5607C4.72077 10.842 5.1023 11 5.50012 11H18.5001C18.8979 11 19.2795 10.842 19.5608 10.5607C19.8421 10.2794 20.0001 9.89782 20.0001 9.5C20.0001 9.10218 19.8421 8.72064 19.5608 8.43934C19.2795 8.15804 18.8979 8 18.5001 8H5.50012Z" fill="#374957"/>
<path d="M18.5001 18H5.50012C5.1023 18 4.72077 18.158 4.43946 18.4393C4.15816 18.7206 4.00012 19.1022 4.00012 19.5C4.00012 19.8978 4.15816 20.2794 4.43946 20.5607C4.72077 20.842 5.1023 21 5.50012 21H18.5001C18.8979 21 19.2795 20.842 19.5608 20.5607C19.8421 20.2794 20.0001 19.8978 20.0001 19.5C20.0001 19.1022 19.8421 18.7206 19.5608 18.4393C19.2795 18.158 18.8979 18 18.5001 18Z" fill="#374957"/>
<path d="M22.5 13H1.5C1.10218 13 0.720644 13.158 0.43934 13.4393C0.158035 13.7206 0 14.1022 0 14.5C0 14.8978 0.158035 15.2794 0.43934 15.5607C0.720644 15.842 1.10218 16 1.5 16H22.5C22.8978 16 23.2794 15.842 23.5607 15.5607C23.842 15.2794 24 14.8978 24 14.5C24 14.1022 23.842 13.7206 23.5607 13.4393C23.2794 13.158 22.8978 13 22.5 13Z" fill="#374957"/>
</g>
<defs>
<clipPath id="clip0_405_1814">
<rect width="24" height="24" fill="white"/>
</clipPath>
</defs>
</svg>
