<svg width="24" height="24" viewBox="0 0 24 24" fill="none" xmlns="http://www.w3.org/2000/svg">
<g clip-path="url(#clip0_405_1332)">
<path d="M22.412 8.70061C21.9924 8.55011 21.5415 8.5085 21.1015 8.57968C20.6615 8.65086 20.2467 8.8325 19.896 9.10761L18.811 9.91561C18.5494 8.96401 18.029 8.10361 17.3077 7.4301C16.5863 6.75659 15.6923 6.29636 14.725 6.10061L10.146 1.52561C9.48982 0.869493 8.59994 0.500809 7.672 0.50061H1.5C1.10218 0.50061 0.720644 0.658646 0.43934 0.93995C0.158035 1.22125 0 1.60279 0 2.00061H0C0 2.39844 0.158035 2.77997 0.43934 3.06127C0.720644 3.34258 1.10218 3.50061 1.5 3.50061H7.672C7.73771 3.50049 7.80279 3.51333 7.86353 3.53838C7.92427 3.56343 7.97948 3.60021 8.026 3.64661L10.38 6.00061H5.318C3.90758 6.00061 2.55492 6.5609 1.55761 7.55822C0.560288 8.55554 0 9.90819 0 11.3186L0 18.6826C0 19.381 0.137554 20.0725 0.404809 20.7177C0.672063 21.3629 1.06378 21.9492 1.55761 22.443C2.55492 23.4403 3.90758 24.0006 5.318 24.0006H13.682C14.8472 23.9991 15.9798 23.6156 16.9062 22.9088C17.8326 22.202 18.5017 21.211 18.811 20.0876L20.011 20.9786C20.4416 21.3015 20.9648 21.4769 21.503 21.4786C22.0295 21.4758 22.542 21.3087 22.969 21.0006C23.2987 20.7496 23.5641 20.4239 23.7434 20.0503C23.9226 19.6767 24.0106 19.2659 24 18.8516V11.0276C24.0011 10.5248 23.85 10.0334 23.5666 9.61806C23.2831 9.20272 22.8806 8.88289 22.412 8.70061ZM16 18.6826C15.9992 19.2971 15.7547 19.8863 15.3202 20.3208C14.8857 20.7553 14.2965 20.9998 13.682 21.0006H5.318C4.70347 20.9998 4.11434 20.7553 3.6798 20.3208C3.24527 19.8863 3.00079 19.2971 3 18.6826V11.3186C3.00079 10.7041 3.24527 10.115 3.6798 9.68041C4.11434 9.24588 4.70347 9.0014 5.318 9.00061H13.682C14.2965 9.0014 14.8857 9.24588 15.3202 9.68041C15.7547 10.115 15.9992 10.7041 16 11.3186V18.6826Z" fill="#374957"/>
</g>
<defs>
<clipPath id="clip0_405_1332">
<rect width="24" height="24" fill="white"/>
</clipPath>
</defs>
</svg>
