<svg width="24" height="24" viewBox="0 0 24 24" fill="none" xmlns="http://www.w3.org/2000/svg">
<g clip-path="url(#clip0_405_1455)">
<path d="M7.99987 22.36C9.062 23.4058 10.4912 23.9945 11.9818 24.0001C13.4723 24.0057 14.9059 23.4278 15.9759 22.39L19.7829 18.853C21.8417 16.7761 22.9969 13.97 22.9969 11.0455C22.9969 8.12105 21.8417 5.31495 19.7829 3.23803C18.7636 2.21194 17.5514 1.3976 16.216 0.841904C14.8807 0.286206 13.4487 0.00012207 12.0024 0.00012207C10.556 0.00012207 9.124 0.286206 7.78869 0.841904C6.45338 1.3976 5.24118 2.21194 4.22187 3.23803C2.15853 5.3235 1.0047 8.14101 1.01257 11.0747C1.02044 14.0084 2.18937 16.8196 4.26387 18.894L7.99987 22.36ZM6.34587 5.35403C7.08641 4.60807 7.96725 4.01602 8.93763 3.61201C9.90801 3.20799 10.9487 2.99999 11.9999 2.99999C13.051 2.99999 14.0917 3.20799 15.0621 3.61201C16.0325 4.01602 16.9133 4.60807 17.6539 5.35403C19.1522 6.8591 19.9972 8.89389 20.0058 11.0176C20.0144 13.1413 19.1859 15.1829 17.6999 16.7L13.8999 20.225C13.3821 20.7186 12.6926 20.9915 11.9773 20.9859C11.262 20.9803 10.5768 20.6967 10.0669 20.195L6.34587 16.737C4.84491 15.223 4.00276 13.1774 4.00276 11.0455C4.00276 8.91362 4.84491 6.86801 6.34587 5.35403ZM6.99987 11C6.99987 10.6022 7.1579 10.2207 7.43921 9.93937C7.72051 9.65806 8.10204 9.50003 8.49987 9.50003H10.4999V7.50003C10.4999 7.1022 10.6579 6.72067 10.9392 6.43937C11.2205 6.15806 11.602 6.00003 11.9999 6.00003C12.3977 6.00003 12.7792 6.15806 13.0605 6.43937C13.3418 6.72067 13.4999 7.1022 13.4999 7.50003V9.50003H15.4999C15.8977 9.50003 16.2792 9.65806 16.5605 9.93937C16.8418 10.2207 16.9999 10.6022 16.9999 11C16.9999 11.3979 16.8418 11.7794 16.5605 12.0607C16.2792 12.342 15.8977 12.5 15.4999 12.5H13.4999V14.5C13.4999 14.8979 13.3418 15.2794 13.0605 15.5607C12.7792 15.842 12.3977 16 11.9999 16C11.602 16 11.2205 15.842 10.9392 15.5607C10.6579 15.2794 10.4999 14.8979 10.4999 14.5V12.5H8.49987C8.10204 12.5 7.72051 12.342 7.43921 12.0607C7.1579 11.7794 6.99987 11.3979 6.99987 11Z" fill="#374957"/>
</g>
<defs>
<clipPath id="clip0_405_1455">
<rect width="24" height="24" fill="white"/>
</clipPath>
</defs>
</svg>
