<svg width="24" height="24" viewBox="0 0 24 24" fill="none" xmlns="http://www.w3.org/2000/svg">
<g clip-path="url(#clip0_405_1408)">
<path d="M19.6398 0.00441782C15.8568 0.00441782 11.5938 2.01042 8.23979 5.36942C4.9108 8.66859 2.2334 12.5656 0.347788 16.8564C0.00101656 17.6586 -0.096017 18.5467 0.0693379 19.4049C0.234693 20.2631 0.654764 21.0515 1.27479 21.6674L2.33179 22.7244C2.94689 23.3441 3.73441 23.764 4.59168 23.9296C5.44895 24.0951 6.33621 23.9985 7.13779 23.6524C11.4315 21.7716 15.3307 19.0955 18.6298 15.7654C21.9888 12.4054 23.9998 8.14242 23.9998 4.35942C24.0547 3.7734 23.9795 3.18249 23.7797 2.62885C23.5799 2.07521 23.2604 1.57248 22.844 1.15652C22.4276 0.74057 21.9245 0.421643 21.3706 0.222494C20.8167 0.0233456 20.2257 -0.0511173 19.6398 0.00441782ZM16.5088 13.6444C13.4797 16.7057 9.89962 19.1672 5.95679 20.8994C5.70132 21.0084 5.41837 21.0357 5.14679 20.9774L16.5608 9.56042C16.8422 9.27902 17.0003 8.89737 17.0003 8.49942C17.0003 8.10147 16.8422 7.71981 16.5608 7.43842C16.2794 7.15702 15.8977 6.99894 15.4998 6.99894C15.1018 6.99894 14.7202 7.15702 14.4388 7.43842L3.02679 18.8514C2.96949 18.5795 2.99671 18.2965 3.10479 18.0404C4.83724 14.0993 7.2972 10.5201 10.3558 7.49042C13.6638 4.18342 17.3198 3.00442 19.6398 3.00442C20.7168 3.00442 20.9998 3.28242 20.9998 4.35942C20.9998 6.67942 19.8158 10.3364 16.5088 13.6444Z" fill="#374957"/>
</g>
<defs>
<clipPath id="clip0_405_1408">
<rect width="24" height="24" fill="white"/>
</clipPath>
</defs>
</svg>
