<svg width="24" height="24" viewBox="0 0 24 24" fill="none" xmlns="http://www.w3.org/2000/svg">
<g clip-path="url(#clip0_405_1561)">
<path d="M24 16.5V18.5C23.9984 19.9582 23.4184 21.3562 22.3873 22.3873C21.3562 23.4184 19.9582 23.9984 18.5 24H5.5C4.0418 23.9984 2.64377 23.4184 1.61267 22.3873C0.581561 21.3562 0.00158817 19.9582 0 18.5L0 8.5C0.00158817 7.0418 0.581561 5.64377 1.61267 4.61267C2.64377 3.58156 4.0418 3.00159 5.5 3H11.5C11.8978 3 12.2794 3.15804 12.5607 3.43934C12.842 3.72064 13 4.10218 13 4.5C13 4.89782 12.842 5.27936 12.5607 5.56066C12.2794 5.84196 11.8978 6 11.5 6H5.5C5.04646 6.0015 4.60191 6.12671 4.21425 6.36212C3.82659 6.59754 3.51049 6.93425 3.3 7.336L10.231 14.268C10.6245 14.6494 11.1302 14.8942 11.6734 14.9662C12.2167 15.0382 12.7687 14.9337 13.248 14.668C13.4187 14.5695 13.6072 14.5056 13.8026 14.4799C13.998 14.4543 14.1965 14.4674 14.3869 14.5184C14.5773 14.5695 14.7557 14.6576 14.912 14.7776C15.0684 14.8976 15.1995 15.0473 15.298 15.218C15.3965 15.3887 15.4604 15.5772 15.4861 15.7726C15.5117 15.968 15.4986 16.1665 15.4476 16.3569C15.3965 16.5473 15.3084 16.7257 15.1884 16.882C15.0684 17.0384 14.9187 17.1695 14.748 17.268C13.6983 17.8698 12.48 18.1102 11.2804 17.9523C10.0808 17.7944 8.96623 17.2469 8.108 16.394L3 11.278V18.5C3 19.163 3.26339 19.7989 3.73223 20.2678C4.20107 20.7366 4.83696 21 5.5 21H18.5C19.163 21 19.7989 20.7366 20.2678 20.2678C20.7366 19.7989 21 19.163 21 18.5V16.5C21 16.1022 21.158 15.7206 21.4393 15.4393C21.7206 15.158 22.1022 15 22.5 15C22.8978 15 23.2794 15.158 23.5607 15.4393C23.842 15.7206 24 16.1022 24 16.5ZM22 0H17C16.4696 0 15.9609 0.210714 15.5858 0.585786C15.2107 0.960859 15 1.46957 15 2V11.654C15.0001 11.9082 15.0719 12.1573 15.2073 12.3724C15.3427 12.5876 15.5361 12.7602 15.7652 12.8703C15.9943 12.9804 16.2499 13.0236 16.5025 12.9949C16.7551 12.9662 16.9944 12.8667 17.193 12.708L19.5 10.863L21.807 12.708C22.0056 12.8667 22.2449 12.9662 22.4975 12.9949C22.7501 13.0236 23.0057 12.9804 23.2348 12.8703C23.4639 12.7602 23.6573 12.5876 23.7927 12.3724C23.9281 12.1573 23.9999 11.9082 24 11.654V2C24 1.46957 23.7893 0.960859 23.4142 0.585786C23.0391 0.210714 22.5304 0 22 0V0Z" fill="#374957"/>
</g>
<defs>
<clipPath id="clip0_405_1561">
<rect width="24" height="24" fill="white"/>
</clipPath>
</defs>
</svg>
