<svg width="24" height="24" viewBox="0 0 24 24" fill="none" xmlns="http://www.w3.org/2000/svg">
<g clip-path="url(#clip0_405_1396)">
<path d="M21.5669 4.39988C21.3529 3.16677 20.7099 2.04896 19.7517 1.24387C18.7934 0.438775 17.5815 -0.00182234 16.3299 -0.000115672H7.65695C6.40521 -0.00205834 5.19306 0.438432 4.23461 1.24355C3.27616 2.04866 2.63307 3.1666 2.41895 4.39988L0.0809464 17.7649C-0.0530375 18.5293 -0.0180783 19.3137 0.18337 20.0631C0.384818 20.8125 0.747871 21.5088 1.24704 22.103C1.74621 22.6971 2.36939 23.1749 3.07283 23.5026C3.77627 23.8303 4.54292 24 5.31895 23.9999H18.6809C19.4573 23.9998 20.2241 23.8297 20.9277 23.5017C21.6314 23.1736 22.2546 22.6955 22.7538 22.101C23.253 21.5064 23.6159 20.8098 23.8172 20.06C24.0185 19.3102 24.0532 18.5255 23.9189 17.7609L21.5669 4.39988ZM20.4559 20.1719C20.2387 20.4313 19.9671 20.64 19.6604 20.783C19.3537 20.9261 19.0194 21.0001 18.6809 20.9999H5.31895C4.98064 21 4.64641 20.9261 4.33974 20.7832C4.03307 20.6404 3.76139 20.4322 3.54381 20.1731C3.32622 19.9141 3.168 19.6105 3.08026 19.2838C2.99252 18.9571 2.9774 18.6151 3.03595 18.2819L5.37395 4.91788C5.46731 4.38035 5.74761 3.89309 6.16534 3.54215C6.58307 3.1912 7.11136 2.99915 7.65695 2.99988H16.3299C16.8753 2.99894 17.4035 3.19082 17.8211 3.54162C18.2386 3.89241 18.5188 4.37953 18.6119 4.91688L20.9639 18.2799C21.0229 18.6132 21.008 18.9554 20.9202 19.2823C20.8325 19.6093 20.674 19.9129 20.4559 20.1719ZM13.4999 5.49988V6.49988C13.4999 6.89771 13.3419 7.27924 13.0606 7.56054C12.7793 7.84185 12.3978 7.99988 11.9999 7.99988C11.6021 7.99988 11.2206 7.84185 10.9393 7.56054C10.658 7.27924 10.4999 6.89771 10.4999 6.49988V5.49988C10.4999 5.10206 10.658 4.72053 10.9393 4.43922C11.2206 4.15792 11.6021 3.99988 11.9999 3.99988C12.3978 3.99988 12.7793 4.15792 13.0606 4.43922C13.3419 4.72053 13.4999 5.10206 13.4999 5.49988ZM13.4999 11.4999V12.4999C13.4999 12.8977 13.3419 13.2792 13.0606 13.5605C12.7793 13.8418 12.3978 13.9999 11.9999 13.9999C11.6021 13.9999 11.2206 13.8418 10.9393 13.5605C10.658 13.2792 10.4999 12.8977 10.4999 12.4999V11.4999C10.4999 11.1021 10.658 10.7205 10.9393 10.4392C11.2206 10.1579 11.6021 9.99988 11.9999 9.99988C12.3978 9.99988 12.7793 10.1579 13.0606 10.4392C13.3419 10.7205 13.4999 11.1021 13.4999 11.4999ZM13.4999 17.4999V18.4999C13.4999 18.8977 13.3419 19.2792 13.0606 19.5605C12.7793 19.8418 12.3978 19.9999 11.9999 19.9999C11.6021 19.9999 11.2206 19.8418 10.9393 19.5605C10.658 19.2792 10.4999 18.8977 10.4999 18.4999V17.4999C10.4999 17.1021 10.658 16.7205 10.9393 16.4392C11.2206 16.1579 11.6021 15.9999 11.9999 15.9999C12.3978 15.9999 12.7793 16.1579 13.0606 16.4392C13.3419 16.7205 13.4999 17.1021 13.4999 17.4999Z" fill="#374957"/>
</g>
<defs>
<clipPath id="clip0_405_1396">
<rect width="24" height="24" fill="white"/>
</clipPath>
</defs>
</svg>
