<svg width="24" height="24" viewBox="0 0 24 24" fill="none" xmlns="http://www.w3.org/2000/svg">
<g clip-path="url(#clip0_405_1813)">
<path d="M9.5 7.5C9.5 6.83696 9.76339 6.20107 10.2322 5.73223C10.7011 5.26339 11.337 5 12 5C12.663 5 13.2989 5.26339 13.7678 5.73223C14.2366 6.20107 14.5 6.83696 14.5 7.5C14.5 8.16304 14.2366 8.79893 13.7678 9.26777C13.2989 9.73661 12.663 10 12 10C11.337 10 10.7011 9.73661 10.2322 9.26777C9.76339 8.79893 9.5 8.16304 9.5 7.5ZM13.62 23.065L17.328 20H18.5C19.9581 19.9981 21.356 19.4181 22.387 18.387C23.4181 17.356 23.9981 15.9581 24 14.5V5.5C23.9981 4.04188 23.4181 2.64401 22.387 1.61296C21.356 0.58191 19.9581 0.00185226 18.5 0L5.5 0C4.0418 0.00158817 2.64377 0.581561 1.61267 1.61267C0.581561 2.64377 0.00158817 4.0418 0 5.5L0 14.5C0.00158817 15.9582 0.581561 17.3562 1.61267 18.3873C2.64377 19.4184 4.0418 19.9984 5.5 20H6.741L10.341 23.03C10.8023 23.4404 11.3985 23.6668 12.016 23.666C12.6064 23.6698 13.1775 23.4558 13.62 23.065ZM18.5 3C19.163 3 19.7989 3.26339 20.2678 3.73223C20.7366 4.20107 21 4.83696 21 5.5V14.5C21 15.163 20.7366 15.7989 20.2678 16.2678C19.7989 16.7366 19.163 17 18.5 17H16.788C16.439 17 16.1009 17.1216 15.832 17.344L12 20.511L8.255 17.353C7.98466 17.1252 7.64254 17.0002 7.289 17H5.5C4.83696 17 4.20107 16.7366 3.73223 16.2678C3.26339 15.7989 3 15.163 3 14.5V5.5C3 4.83696 3.26339 4.20107 3.73223 3.73223C4.20107 3.26339 4.83696 3 5.5 3H18.5ZM7.981 14.232C7.96588 14.3282 7.97209 14.4266 7.99919 14.5202C8.02628 14.6137 8.07361 14.7002 8.1378 14.7735C8.202 14.8467 8.28151 14.905 8.37071 14.9441C8.45991 14.9833 8.55662 15.0024 8.654 15H15.315C15.4124 15.0024 15.5091 14.9833 15.5983 14.9441C15.6875 14.905 15.767 14.8467 15.8312 14.7735C15.8954 14.7002 15.9427 14.6137 15.9698 14.5202C15.9969 14.4266 16.0031 14.3282 15.988 14.232C15.128 9.966 8.841 9.968 7.981 14.232Z" fill="#374957"/>
</g>
<defs>
<clipPath id="clip0_405_1813">
<rect width="24" height="24" fill="white"/>
</clipPath>
</defs>
</svg>
