<svg width="24" height="24" viewBox="0 0 24 24" fill="none" xmlns="http://www.w3.org/2000/svg">
<path d="M17.0001 12.3509V8.49995C17.0001 8.10212 16.8421 7.72059 16.5608 7.43929C16.2795 7.15798 15.8979 6.99995 15.5001 6.99995H15.0001V1.80996C14.9999 1.50157 14.9209 1.19835 14.7707 0.929056C14.6204 0.659765 14.4038 0.433337 14.1414 0.271255C13.8791 0.109172 13.5796 0.0168106 13.2716 0.00293261C12.9635 -0.0109454 12.657 0.0541206 12.3811 0.191957L10.4161 1.17496C9.99062 1.38738 9.63272 1.71418 9.38261 2.11867C9.13249 2.52317 9.00004 2.98937 9.00012 3.46495V6.99995H8.50012C8.1023 6.99995 7.72077 7.15798 7.43946 7.43929C7.15816 7.72059 7.00012 8.10212 7.00012 8.49995V12.3509C6.40374 12.6338 5.89951 13.0796 5.54562 13.6368C5.19174 14.194 5.00263 14.8399 5.00012 15.4999V18.4999C5.00171 19.9581 5.58168 21.3562 6.61279 22.3873C7.64389 23.4184 9.04192 23.9983 10.5001 23.9999H13.5001C14.9583 23.9983 16.3563 23.4184 17.3875 22.3873C18.4186 21.3562 18.9985 19.9581 19.0001 18.4999V15.4999C18.9976 14.8399 18.8085 14.194 18.4546 13.6368C18.1007 13.0796 17.5965 12.6338 17.0001 12.3509ZM10.0001 11.9999V9.99995H14.0001V11.9999H10.0001ZM16.0001 18.4999C16.0001 19.163 15.7367 19.7989 15.2679 20.2677C14.799 20.7365 14.1632 20.9999 13.5001 20.9999H10.5001C9.83708 20.9999 9.2012 20.7365 8.73236 20.2677C8.26351 19.7989 8.00012 19.163 8.00012 18.4999V15.4999C8.00012 15.3673 8.0528 15.2402 8.14657 15.1464C8.24034 15.0526 8.36751 14.9999 8.50012 14.9999H15.5001C15.6327 14.9999 15.7599 15.0526 15.8537 15.1464C15.9474 15.2402 16.0001 15.3673 16.0001 15.4999V18.4999Z" fill="#374957"/>
</svg>
