<svg width="24" height="24" viewBox="0 0 24 24" fill="none" xmlns="http://www.w3.org/2000/svg">
<g clip-path="url(#clip0_405_1818)">
<path d="M10.258 5.473L10.252 3.75H11.09C11.321 3.74937 11.5431 3.83888 11.7091 3.99948C11.8751 4.16008 11.972 4.37912 11.979 4.61C11.972 4.84079 11.8751 5.05972 11.7091 5.22016C11.543 5.38061 11.3209 5.46989 11.09 5.469L10.258 5.473ZM24 4.5V15.843C24.0021 16.5656 23.8607 17.2814 23.5842 17.9489C23.3077 18.6165 22.9014 19.2226 22.389 19.732L19.732 22.389C19.2225 22.9013 18.6164 23.3075 17.9489 23.584C17.2813 23.8606 16.5656 24.0019 15.843 24H4.5C3.30693 23.9987 2.16311 23.5241 1.31948 22.6805C0.475854 21.8369 0.00132343 20.6931 0 19.5L0 4.5C0.00132343 3.30693 0.475854 2.16311 1.31948 1.31948C2.16311 0.475854 3.30693 0.00132343 4.5 0L19.5 0C20.6931 0.00132343 21.8369 0.475854 22.6805 1.31948C23.5241 2.16311 23.9987 3.30693 24 4.5ZM14 6.584C14.0008 6.84572 14.0532 7.10471 14.1541 7.34616C14.2551 7.58762 14.4027 7.8068 14.5885 7.99116C14.7742 8.17552 14.9945 8.32146 15.2367 8.42061C15.4789 8.51976 15.7383 8.57018 16 8.569C16.5277 8.56902 17.034 8.3605 17.4086 7.98888C17.7832 7.61726 17.9958 7.11266 18 6.585V6.25C18 6.05109 17.921 5.86032 17.7803 5.71967C17.6397 5.57902 17.4489 5.5 17.25 5.5H16.5C16.3674 5.5 16.2402 5.55268 16.1464 5.64645C16.0527 5.74021 16 5.86739 16 6C16 6.13261 16.0527 6.25979 16.1464 6.35355C16.2402 6.44732 16.3674 6.5 16.5 6.5H16.749V6.584C16.7428 6.77956 16.6614 6.96519 16.5216 7.10214C16.3819 7.23909 16.1946 7.31678 15.999 7.319C15.9002 7.31994 15.8022 7.30114 15.7108 7.26371C15.6194 7.22627 15.5363 7.17096 15.4666 7.10101C15.3968 7.03105 15.3417 6.94788 15.3045 6.85635C15.2673 6.76482 15.2488 6.66679 15.25 6.568V4.5C15.2489 4.40121 15.2676 4.3032 15.3049 4.21173C15.3422 4.12025 15.3974 4.03714 15.4673 3.96728C15.5371 3.89742 15.6202 3.84222 15.7117 3.80491C15.8032 3.7676 15.9012 3.74893 16 3.75C16.1365 3.75416 16.2695 3.79413 16.3857 3.86592C16.5019 3.93771 16.5972 4.03878 16.662 4.159C16.7001 4.23188 16.7521 4.29655 16.8152 4.34931C16.8783 4.40208 16.9512 4.4419 17.0296 4.46651C17.1081 4.49111 17.1906 4.50002 17.2725 4.49273C17.3544 4.48544 17.4341 4.46208 17.507 4.424C17.5799 4.38592 17.6446 4.33385 17.6973 4.27077C17.7501 4.2077 17.7899 4.13485 17.8145 4.05638C17.8391 3.97792 17.848 3.89537 17.8407 3.81346C17.8334 3.73155 17.8101 3.65188 17.772 3.579C17.6016 3.25586 17.3469 2.9849 17.0349 2.79491C16.7229 2.60493 16.3653 2.50301 16 2.5C15.7383 2.49882 15.4789 2.54924 15.2367 2.64839C14.9945 2.74755 14.7742 2.89348 14.5885 3.07784C14.4027 3.2622 14.2551 3.48138 14.1541 3.72284C14.0532 3.96429 14.0008 4.22328 14 4.485V6.584ZM9 7.944C9 8.10976 9.06585 8.26873 9.18306 8.38594C9.30027 8.50315 9.45924 8.569 9.625 8.569C9.79076 8.569 9.94973 8.50315 10.0669 8.38594C10.1842 8.26873 10.25 8.10976 10.25 7.944V6.723H11.09C11.3709 6.72912 11.6502 6.67907 11.9115 6.57581C12.1727 6.47255 12.4108 6.31814 12.6116 6.12165C12.8124 5.92516 12.972 5.69054 13.0809 5.43156C13.1898 5.17258 13.2459 4.89445 13.2459 4.6135C13.2459 4.33255 13.1898 4.05442 13.0809 3.79544C12.972 3.53646 12.8124 3.30184 12.6116 3.10535C12.4108 2.90886 12.1727 2.75445 11.9115 2.65119C11.6502 2.54793 11.3709 2.49788 11.09 2.504H10C9.73478 2.504 9.48043 2.60936 9.29289 2.79689C9.10536 2.98443 9 3.23878 9 3.504V7.944ZM4.072 7.4C4.2437 7.74548 4.50689 8.03725 4.8329 8.24355C5.15891 8.44984 5.53527 8.56275 5.921 8.57C6.19313 8.57132 6.46284 8.51894 6.71469 8.41586C6.96654 8.31279 7.19558 8.16104 7.3887 7.96932C7.58182 7.77759 7.73522 7.54965 7.84012 7.29855C7.94501 7.04745 7.99935 6.77813 8 6.506V3.15C8 2.97761 7.93152 2.81228 7.80962 2.69038C7.68772 2.56848 7.52239 2.5 7.35 2.5C7.17761 2.5 7.01228 2.56848 6.89038 2.69038C6.76848 2.81228 6.7 2.97761 6.7 3.15V6.49C6.70134 6.59268 6.68215 6.69459 6.64356 6.78975C6.60497 6.88492 6.54776 6.97141 6.47529 7.04416C6.40282 7.11691 6.31655 7.17445 6.22153 7.21341C6.12652 7.25236 6.02468 7.27194 5.922 7.271C5.77706 7.26235 5.63702 7.21528 5.51629 7.13461C5.39556 7.05395 5.29847 6.9426 5.235 6.812C5.15703 6.65778 5.02098 6.54084 4.85679 6.48693C4.69261 6.43301 4.51372 6.44653 4.3595 6.5245C4.20528 6.60247 4.08835 6.73852 4.03443 6.90271C3.98051 7.06689 3.99403 7.24578 4.072 7.4ZM4.5 21H15V17C15 16.4696 15.2107 15.9609 15.5858 15.5858C15.9609 15.2107 16.4696 15 17 15H21V11H3V19.5C3 19.8978 3.15804 20.2794 3.43934 20.5607C3.72064 20.842 4.10218 21 4.5 21Z" fill="#374957"/>
</g>
<defs>
<clipPath id="clip0_405_1818">
<rect width="24" height="24" fill="white"/>
</clipPath>
</defs>
</svg>
