<svg width="24" height="24" viewBox="0 0 24 24" fill="none" xmlns="http://www.w3.org/2000/svg">
<g clip-path="url(#clip0_405_1566)">
<path d="M21 11.5V15H18C17.2044 15 16.4413 15.3161 15.8787 15.8787C15.3161 16.4413 15 17.2044 15 18V21H4.5C4.10218 21 3.72064 20.842 3.43934 20.5607C3.15804 20.2794 3 19.8978 3 19.5V4.5C3 4.10218 3.15804 3.72064 3.43934 3.43934C3.72064 3.15804 4.10218 3 4.5 3H13.5C13.8978 3 14.2794 2.84196 14.5607 2.56066C14.842 2.27936 15 1.89782 15 1.5C15 1.10218 14.842 0.720644 14.5607 0.43934C14.2794 0.158035 13.8978 0 13.5 0L4.5 0C3.30653 0 2.16193 0.474106 1.31802 1.31802C0.474106 2.16193 0 3.30653 0 4.5L0 19.5C0 20.6935 0.474106 21.8381 1.31802 22.682C2.16193 23.5259 3.30653 24 4.5 24H16.484C17.677 24 18.8212 23.5263 19.665 22.683L22.682 19.666C23.5257 18.8223 23.9997 17.6781 24 16.485V11.5C24 11.1022 23.842 10.7206 23.5607 10.4393C23.2794 10.158 22.8978 10 22.5 10C22.1022 10 21.7206 10.158 21.4393 10.4393C21.158 10.7206 21 11.1022 21 11.5Z" fill="#374957"/>
<path d="M17.7929 1.79295L5.29294 14.2929C5.10539 14.4804 5 14.7348 4.99994 14.9999V17.9999C4.99994 18.2652 5.1053 18.5195 5.29283 18.7071C5.48037 18.8946 5.73472 18.9999 5.99994 18.9999H8.99994C9.26513 18.9999 9.51945 18.8945 9.70694 18.7069L22.0379 6.37595C22.4552 5.97359 22.7619 5.47065 22.9287 4.91549C23.0954 4.36033 23.1165 3.77162 22.9899 3.20595C22.8484 2.67985 22.5714 2.20003 22.1867 1.81429C21.8019 1.42855 21.3228 1.15036 20.7971 1.00742C20.2714 0.864481 19.7174 0.861789 19.1903 0.999613C18.6632 1.13744 18.1814 1.41096 17.7929 1.79295Z" fill="#374957"/>
</g>
<defs>
<clipPath id="clip0_405_1566">
<rect width="24" height="24" fill="white"/>
</clipPath>
</defs>
</svg>
