<svg width="24" height="24" viewBox="0 0 24 24" fill="none" xmlns="http://www.w3.org/2000/svg">
<g clip-path="url(#clip0_405_1333)">
<path d="M19.9999 7.99997C20.0007 6.48175 19.5694 4.99464 18.7565 3.71238C17.9436 2.43013 16.7826 1.40566 15.4091 0.758656C14.0357 0.111656 12.5064 -0.131162 11.0001 0.0585693C9.4938 0.248301 8.07257 0.862747 6.90245 1.83013C5.73233 2.79751 4.86164 4.07788 4.39209 5.52168C3.92255 6.96547 3.87353 8.51306 4.25078 9.98368C4.62802 11.4543 5.41595 12.7872 6.52251 13.8267C7.62907 14.8662 9.00858 15.5693 10.4999 15.854V18H8.99988C8.60205 18 8.22052 18.158 7.93922 18.4393C7.65791 18.7206 7.49988 19.1021 7.49988 19.5C7.49988 19.8978 7.65791 20.2793 7.93922 20.5606C8.22052 20.8419 8.60205 21 8.99988 21H10.4999V22.5C10.4999 22.8978 10.6579 23.2793 10.9392 23.5606C11.2205 23.8419 11.6021 24 11.9999 24C12.3977 24 12.7792 23.8419 13.0605 23.5606C13.3418 23.2793 13.4999 22.8978 13.4999 22.5V21H14.9999C15.3977 21 15.7792 20.8419 16.0605 20.5606C16.3418 20.2793 16.4999 19.8978 16.4999 19.5C16.4999 19.1021 16.3418 18.7206 16.0605 18.4393C15.7792 18.158 15.3977 18 14.9999 18H13.4999V15.854C15.3268 15.5033 16.9746 14.5277 18.1607 13.0946C19.3467 11.6615 19.997 9.86022 19.9999 7.99997ZM6.99988 7.99997C6.99988 7.01107 7.29312 6.04437 7.84253 5.22212C8.39194 4.39987 9.17283 3.75901 10.0865 3.38057C11.0001 3.00214 12.0054 2.90312 12.9753 3.09605C13.9452 3.28897 14.8361 3.76517 15.5354 4.46444C16.2347 5.1637 16.7109 6.05462 16.9038 7.02452C17.0967 7.99443 16.9977 8.99976 16.6193 9.91339C16.2408 10.827 15.6 11.6079 14.7777 12.1573C13.9555 12.7067 12.9888 13 11.9999 13C10.6743 12.9984 9.40344 12.4711 8.4661 11.5338C7.52876 10.5964 7.00147 9.32557 6.99988 7.99997Z" fill="#374957"/>
</g>
<defs>
<clipPath id="clip0_405_1333">
<rect width="24" height="24" fill="white"/>
</clipPath>
</defs>
</svg>
