<svg width="24" height="24" viewBox="0 0 24 24" fill="none" xmlns="http://www.w3.org/2000/svg">
<g clip-path="url(#clip0_405_1516)">
<path d="M13.4182 15.0001C14.9016 15.0001 16.3516 14.5603 17.585 13.7362C18.8183 12.912 19.7796 11.7407 20.3473 10.3703C20.915 8.99981 21.0635 7.49181 20.7741 6.03695C20.4847 4.58209 19.7704 3.24572 18.7215 2.19683C17.6726 1.14793 16.3362 0.433629 14.8814 0.144239C13.4265 -0.14515 11.9185 0.00337517 10.5481 0.571032C9.17764 1.13869 8.00631 2.09998 7.1822 3.33335C6.35809 4.56672 5.91822 6.01677 5.91822 7.50013C5.92034 9.4886 6.71119 11.395 8.11725 12.8011C9.52332 14.2072 11.4297 14.998 13.4182 15.0001ZM13.4182 3.00013C14.3082 3.00013 15.1783 3.26405 15.9183 3.75852C16.6583 4.25298 17.2351 4.95579 17.5757 5.77805C17.9163 6.60032 18.0054 7.50512 17.8317 8.37804C17.6581 9.25095 17.2295 10.0528 16.6002 10.6821C15.9709 11.3114 15.169 11.74 14.2961 11.9137C13.4232 12.0873 12.5184 11.9982 11.6961 11.6576C10.8739 11.317 10.1711 10.7402 9.6766 10.0002C9.18214 9.26017 8.91822 8.39015 8.91822 7.50013C8.91822 6.30666 9.39232 5.16206 10.2362 4.31815C11.0801 3.47423 12.2247 3.00013 13.4182 3.00013ZM23.7372 14.5561C22.6834 16.0914 21.2997 17.3715 19.6873 18.3029C18.0749 19.2343 16.2746 19.7934 14.4182 19.9391V21.0001H17.5002C17.898 21.0001 18.2796 21.1582 18.5609 21.4395C18.8422 21.7208 19.0002 22.1023 19.0002 22.5001C19.0002 22.898 18.8422 23.2795 18.5609 23.5608C18.2796 23.8421 17.898 24.0001 17.5002 24.0001H8.50022C8.10239 24.0001 7.72086 23.8421 7.43956 23.5608C7.15825 23.2795 7.00022 22.898 7.00022 22.5001C7.00022 22.1023 7.15825 21.7208 7.43956 21.4395C7.72086 21.1582 8.10239 21.0001 8.50022 21.0001H11.4182V19.8251C9.36504 19.4939 7.4271 18.6552 5.78025 17.3851C4.13341 16.115 2.82981 14.4538 1.98776 12.5521C1.14572 10.6505 0.791894 8.56871 0.958397 6.49567C1.1249 4.42263 1.80646 2.42398 2.94122 0.681129C3.0474 0.513104 3.18591 0.367856 3.34871 0.253826C3.51151 0.139796 3.69535 0.0592581 3.88954 0.0168923C4.08373 -0.0254735 4.28441 -0.0288223 4.47991 0.00704053C4.67541 0.0429033 4.86183 0.117263 5.02834 0.225797C5.19486 0.334332 5.33814 0.474877 5.44986 0.639266C5.56159 0.803655 5.63952 0.98861 5.67915 1.18338C5.71878 1.37815 5.7193 1.57886 5.68068 1.77383C5.64207 1.96881 5.56509 2.15416 5.45422 2.31913C4.0564 4.41553 3.54862 6.98136 4.04259 9.45215C4.53656 11.9229 5.99182 14.0963 8.08822 15.4941C10.1846 16.892 12.7504 17.3997 15.2212 16.9058C17.692 16.4118 19.8654 14.9565 21.2632 12.8601C21.3748 12.6977 21.5173 12.5588 21.6826 12.4515C21.8479 12.3441 22.0328 12.2703 22.2265 12.2344C22.4203 12.1985 22.6193 12.201 22.8121 12.242C23.0049 12.283 23.1878 12.3615 23.3502 12.4731C23.5126 12.5848 23.6515 12.7273 23.7589 12.8926C23.8662 13.0579 23.94 13.2427 23.9759 13.4365C24.0119 13.6303 24.0093 13.8293 23.9683 14.022C23.9274 14.2148 23.8488 14.3977 23.7372 14.5601V14.5561Z" fill="#374957"/>
</g>
<defs>
<clipPath id="clip0_405_1516">
<rect width="24" height="24" fill="white"/>
</clipPath>
</defs>
</svg>
