<svg width="24" height="24" viewBox="0 0 24 24" fill="none" xmlns="http://www.w3.org/2000/svg">
<g clip-path="url(#clip0_405_1708)">
<path d="M22.082 19.961C23.1838 18.721 23.8488 17.154 23.975 15.5C24.1276 13.6484 23.6399 11.8005 22.5935 10.2653C21.547 8.73014 20.0053 7.60075 18.226 7.06599C18.1476 7.0421 18.0765 6.9989 18.0192 6.94036C17.9619 6.88183 17.9202 6.80984 17.898 6.73099C17.4977 5.45799 16.7924 4.30209 15.8435 3.36388C14.8945 2.42567 13.7307 1.73358 12.4532 1.34784C11.1757 0.962105 9.8233 0.894403 8.51368 1.15063C7.20406 1.40686 5.9769 1.97925 4.93899 2.81799L2.56099 0.438992C2.2796 0.157598 1.89794 -0.000488281 1.49999 -0.000488281C1.10204 -0.000488281 0.720387 0.157598 0.438992 0.438992C0.157598 0.720387 -0.000488281 1.10204 -0.000488281 1.49999C-0.000488281 1.89794 0.157598 2.2796 0.438992 2.56099L21.439 23.561C21.7204 23.8424 22.102 24.0005 22.5 24.0005C22.8979 24.0005 23.2796 23.8424 23.561 23.561C23.8424 23.2796 24.0005 22.8979 24.0005 22.5C24.0005 22.102 23.8424 21.7204 23.561 21.439L22.082 19.961ZM9.30999 4.05699C10.5328 3.86834 11.7827 4.12427 12.8329 4.77836C13.8831 5.43245 14.664 6.44135 15.034 7.62199C15.202 8.16675 15.5005 8.66222 15.9037 9.06533C16.3068 9.46844 16.8022 9.76698 17.347 9.93499C18.4721 10.2722 19.4473 10.9857 20.1094 11.9559C20.7714 12.9262 21.0802 14.0943 20.984 15.265C20.9118 16.2054 20.5494 17.1002 19.947 17.826L7.09099 4.96999C7.74691 4.49242 8.50791 4.17931 9.30999 4.05699ZM16 21.5C16 21.8978 15.842 22.2793 15.5607 22.5607C15.2793 22.842 14.8978 23 14.5 23H5.96999C4.56542 22.9894 3.20814 22.4912 2.13016 21.5907C1.05218 20.6902 0.320435 19.4433 0.0599923 18.063C-0.0892695 17.0307 0.0445441 15.9773 0.447152 15.0152C0.849761 14.0531 1.50605 13.2183 2.34599 12.6C2.41962 12.5353 2.47011 12.4483 2.48979 12.3523C2.50946 12.2563 2.49724 12.1564 2.45499 12.068C2.29588 11.6593 2.17079 11.2382 2.08099 10.809C2.03584 10.6146 2.02993 10.4131 2.06363 10.2164C2.09733 10.0196 2.16996 9.83162 2.27725 9.66331C2.38454 9.49501 2.52434 9.34981 2.68846 9.23622C2.85258 9.12263 3.03772 9.04294 3.23303 9.00182C3.42834 8.96069 3.6299 8.95896 3.82589 8.99672C4.02188 9.03448 4.20836 9.11098 4.37441 9.22173C4.54046 9.33248 4.68274 9.47525 4.7929 9.64169C4.90307 9.80812 4.97892 9.99487 5.01599 10.191C5.07258 10.4606 5.15117 10.7252 5.25099 10.982C5.53829 11.6838 5.58356 12.4612 5.37965 13.1916C5.17573 13.922 4.73426 14.5636 4.12499 15.015C3.71821 15.3088 3.40031 15.7091 3.20625 16.1719C3.01218 16.6346 2.94947 17.1419 3.02499 17.638C3.18734 18.301 3.56399 18.8919 4.09648 19.319C4.62897 19.7461 5.28754 19.9854 5.96999 20H14.5C14.8978 20 15.2793 20.158 15.5607 20.4393C15.842 20.7206 16 21.1022 16 21.5Z" fill="#374957"/>
</g>
<defs>
<clipPath id="clip0_405_1708">
<rect width="24" height="24" fill="white"/>
</clipPath>
</defs>
</svg>
