<svg width="24" height="24" viewBox="0 0 24 24" fill="none" xmlns="http://www.w3.org/2000/svg">
<path d="M20.41 4.04902L18.018 1.63102C16.9823 0.590578 15.576 0.0039375 14.1079 0H7.49997C4.46378 0.00332812 2.00327 2.4638 1.99994 5.49998V18.5C2.00327 21.5362 4.46378 23.9967 7.49997 24H16.5C19.5362 23.9967 21.9967 21.5362 22 18.5V7.917C22.0037 6.46786 21.4318 5.07652 20.41 4.04902ZM19 18.5C19 19.8807 17.8807 21 16.5 21H7.49997C6.11927 21 4.99999 19.8807 4.99999 18.5V5.49998C4.99994 4.11928 6.11927 3 7.49997 3H13V6.99998C13 8.10455 13.8954 9 15 9H19V18.5Z" fill="#374957"/>
</svg>
