<svg width="24" height="24" viewBox="0 0 24 24" fill="none" xmlns="http://www.w3.org/2000/svg">
<g clip-path="url(#clip0_405_1532)">
<path d="M16.0001 11.5C16.0001 11.8978 15.8421 12.2794 15.5608 12.5607C15.2795 12.842 14.8979 13 14.5001 13H14.0001V16C14.0003 16.1008 13.9902 16.2013 13.9701 16.3C13.9107 16.8761 13.6854 17.4226 13.3216 17.8733C12.9577 18.3239 12.4709 18.6593 11.9203 18.8387C11.3696 19.0182 10.7787 19.034 10.2192 18.8843C9.65971 18.7346 9.15568 18.4257 8.76823 17.9952C8.38078 17.5647 8.12656 17.0311 8.0364 16.4589C7.94624 15.8868 8.024 15.3008 8.26027 14.772C8.49654 14.2433 8.88116 13.7944 9.36748 13.4798C9.85381 13.1653 10.4209 12.9986 11.0001 13V12.5C11.0001 11.837 11.2635 11.2011 11.7324 10.7323C12.2012 10.2634 12.8371 10 13.5001 10H14.5001C14.8979 10 15.2795 10.1581 15.5608 10.4394C15.8421 10.7207 16.0001 11.1022 16.0001 11.5ZM22.0001 8.15702V18.5C21.9983 19.9581 21.4182 21.356 20.3872 22.3871C19.3561 23.4181 17.9582 23.9982 16.5001 24H7.50012C6.042 23.9982 4.64413 23.4181 3.61308 22.3871C2.58203 21.356 2.00197 19.9581 2.00012 18.5V5.50002C2.00197 4.0419 2.58203 2.64403 3.61308 1.61298C4.64413 0.58193 6.042 0.00187216 7.50012 1.99011e-05H13.8431C14.5657 -0.00193016 15.2814 0.139451 15.949 0.415979C16.6165 0.692507 17.2226 1.09869 17.7321 1.61102L20.3891 4.26802C20.9015 4.77754 21.3076 5.38361 21.5842 6.05115C21.8607 6.7187 22.0021 7.43447 22.0001 8.15702ZM19.0001 18.5V9.00002H15.0001C14.4697 9.00002 13.961 8.78931 13.5859 8.41423C13.2108 8.03916 13.0001 7.53045 13.0001 7.00002V3.00002H7.50012C6.83708 3.00002 6.2012 3.26341 5.73236 3.73225C5.26351 4.20109 5.00012 4.83698 5.00012 5.50002V18.5C5.00012 19.1631 5.26351 19.7989 5.73236 20.2678C6.2012 20.7366 6.83708 21 7.50012 21H16.5001C17.1632 21 17.799 20.7366 18.2679 20.2678C18.7367 19.7989 19.0001 19.1631 19.0001 18.5Z" fill="#374957"/>
</g>
<defs>
<clipPath id="clip0_405_1532">
<rect width="24" height="24" fill="white"/>
</clipPath>
</defs>
</svg>
