<svg width="24" height="24" viewBox="0 0 24 24" fill="none" xmlns="http://www.w3.org/2000/svg">
<path d="M18.5 2.99997H12.492C12.4112 2.99959 12.3317 2.98005 12.26 2.94297L9.315 1.39998C8.81353 1.13748 8.256 1.00023 7.68998 1H5.49998C2.4638 1.00328 0.00332812 3.4638 0 6.49998V17.5C0.00332812 20.5362 2.4638 22.9967 5.49998 23H18.5C21.5362 22.9967 23.9967 20.5362 24 17.5V8.5C23.9967 5.46377 21.5362 3.0033 18.5 2.99997ZM21 17.5C21 18.8807 19.8807 19.9999 18.5 19.9999H5.49998C4.11928 20 3 18.8807 3 17.5V7.96698H20.94C20.9793 8.14192 20.9994 8.32066 21 8.5V17.5Z" fill="#374957"/>
</svg>
