<svg width="24" height="24" viewBox="0 0 24 24" fill="none" xmlns="http://www.w3.org/2000/svg">
<g clip-path="url(#clip0_405_1715)">
<path d="M17.728 -0.000494225C16.3988 -0.00105836 15.0784 0.215458 13.819 0.640506C13.2352 0.854727 12.6214 0.975872 12 0.999506C11.3783 0.975778 10.7641 0.854638 10.18 0.640506C8.9209 0.215426 7.60085 -0.00109273 6.27196 -0.000494225C5.44186 -0.0242498 4.61565 0.12174 3.84395 0.428529C3.07226 0.735319 2.37133 1.19645 1.78412 1.78366C1.1969 2.37087 0.735776 3.0718 0.428987 3.84349C0.122197 4.61519 -0.0237921 5.4414 -3.6461e-05 6.27151C-3.6461e-05 12.3995 3.08296 18.3885 5.39996 22.3615C5.70246 22.8759 6.13783 23.2995 6.6604 23.5877C7.18297 23.8759 7.77348 24.0181 8.36996 23.9995C9.08723 23.9603 9.76154 23.6452 10.2517 23.1202C10.742 22.5951 11.0101 21.9008 11 21.1825V14.9995C11 14.7343 11.1053 14.4799 11.2929 14.2924C11.4804 14.1049 11.7347 13.9995 12 13.9995C12.2652 13.9995 12.5195 14.1049 12.7071 14.2924C12.8946 14.4799 13 14.7343 13 14.9995V21.1825C12.9901 21.9004 13.258 22.5943 13.7477 23.1192C14.2375 23.6442 14.9111 23.9596 15.628 23.9995C16.2242 24.0182 16.8146 23.8762 17.3371 23.5884C17.8596 23.3006 18.2951 22.8775 18.598 22.3635C20.917 18.3885 24 12.3995 24 6.27151C24.0237 5.4414 23.8777 4.61519 23.5709 3.84349C23.2642 3.0718 22.803 2.37087 22.2158 1.78366C21.6286 1.19645 20.9277 0.735319 20.156 0.428529C19.3843 0.12174 18.5581 -0.0242498 17.728 -0.000494225ZM16 20.8595V14.9995C16 13.9386 15.5785 12.9212 14.8284 12.1711C14.0782 11.4209 13.0608 10.9995 12 10.9995C10.9391 10.9995 9.92168 11.4209 9.17154 12.1711C8.42139 12.9212 7.99996 13.9386 7.99996 14.9995V20.8595C5.85496 17.1875 2.99996 11.6755 2.99996 6.27151C2.97896 5.83626 3.04921 5.40143 3.20622 4.99494C3.36322 4.58845 3.6035 4.21929 3.91162 3.91116C4.21975 3.60304 4.58891 3.36276 4.9954 3.20576C5.40189 3.04876 5.83672 2.9785 6.27196 2.99951C7.30542 2.99882 8.33167 3.17155 9.30796 3.51051C10.1738 3.81468 11.0824 3.97973 12 3.99951C12.9172 3.97974 13.8254 3.81469 14.691 3.51051C15.6676 3.17155 16.6942 2.99882 17.728 2.99951C18.1634 2.97788 18.5985 3.0477 19.0052 3.20449C19.412 3.36127 19.7814 3.60153 20.0897 3.90978C20.3979 4.21804 20.6382 4.58745 20.795 4.99423C20.9518 5.401 21.0216 5.8361 21 6.27151C21 11.6755 18.145 17.1875 16 20.8595Z" fill="#374957"/>
</g>
<defs>
<clipPath id="clip0_405_1715">
<rect width="24" height="24" fill="white"/>
</clipPath>
</defs>
</svg>
