<svg width="24" height="24" viewBox="0 0 24 24" fill="none" xmlns="http://www.w3.org/2000/svg">
<g clip-path="url(#clip0_405_1369)">
<path d="M6.85201 23.4374C6.08882 23.434 5.3463 23.1889 4.73101 22.7374C4.10222 22.295 3.63303 21.6615 3.39321 20.9311C3.1534 20.2007 3.15578 19.4123 3.40001 18.6834L4.57001 15.0644L1.49001 12.8124C0.872456 12.3612 0.413432 11.7262 0.178616 10.9983C-0.0562006 10.2704 -0.0547767 9.48691 0.182684 8.75988C0.420145 8.03285 0.881473 7.39956 1.50067 6.95061C2.11986 6.50165 2.86519 6.26005 3.63001 6.26036H7.40001L8.54501 2.69036C8.78 1.9593 9.24096 1.32168 9.86149 0.86934C10.482 0.416999 11.2301 0.173279 11.998 0.173279C12.7659 0.173279 13.514 0.416999 14.1345 0.86934C14.7551 1.32168 15.216 1.9593 15.451 2.69036L16.6 6.26036H20.37C21.1348 6.26026 21.8799 6.50202 22.499 6.95105C23.118 7.40008 23.5792 8.03338 23.8165 8.76036C24.0538 9.48734 24.0552 10.2708 23.8203 10.9985C23.5855 11.7263 23.1265 12.3612 22.509 12.8124L19.43 15.0644L20.6 18.6834C20.8359 19.4134 20.8342 20.1994 20.5951 20.9284C20.356 21.6573 19.8918 22.2917 19.2694 22.7402C18.647 23.1887 17.8983 23.4282 17.1312 23.4242C16.364 23.4203 15.6178 23.1732 15 22.7184L12 20.5124L9.00001 22.7194C8.37927 23.1823 7.62639 23.434 6.85201 23.4374ZM3.63001 9.26036C3.49802 9.26035 3.3694 9.30205 3.26253 9.37953C3.15566 9.457 3.07602 9.56627 3.03498 9.69172C2.99394 9.81717 2.9936 9.95239 3.03402 10.078C3.07443 10.2037 3.15353 10.3134 3.26001 10.3914L7.21601 13.2824C7.47075 13.4686 7.66025 13.7305 7.75756 14.0307C7.85487 14.3308 7.85503 14.6541 7.75801 14.9544L6.25801 19.6044C6.21639 19.7305 6.21596 19.8666 6.2568 19.993C6.29763 20.1194 6.37761 20.2295 6.48516 20.3074C6.59271 20.3854 6.72227 20.4271 6.85509 20.4265C6.98791 20.426 7.11711 20.3832 7.22401 20.3044L11.113 17.4434C11.3707 17.2538 11.6821 17.1515 12.002 17.1515C12.3219 17.1515 12.6334 17.2538 12.891 17.4434L16.78 20.3034C16.8868 20.3829 17.0162 20.4263 17.1493 20.4272C17.2825 20.4281 17.4124 20.3864 17.5202 20.3083C17.628 20.2302 17.7081 20.1197 17.7487 19.9929C17.7893 19.8661 17.7884 19.7296 17.746 19.6034L16.246 14.9534C16.149 14.6531 16.1492 14.3298 16.2465 14.0297C16.3438 13.7295 16.5333 13.4676 16.788 13.2814L20.743 10.3904C20.8494 10.3124 20.9285 10.2028 20.9689 10.0773C21.0094 9.95172 21.0091 9.8166 20.9682 9.69119C20.9273 9.56579 20.8478 9.45652 20.7411 9.37897C20.6344 9.30142 20.5059 9.25956 20.374 9.25936H15.5C15.1823 9.25928 14.8728 9.15833 14.6162 8.97107C14.3596 8.7838 14.169 8.51989 14.072 8.21736L12.6 3.60636C12.5595 3.48016 12.4799 3.37009 12.3728 3.29199C12.2657 3.2139 12.1366 3.17183 12.004 3.17183C11.8715 3.17183 11.7423 3.2139 11.6352 3.29199C11.5281 3.37009 11.4486 3.48016 11.408 3.60636L9.92501 8.21836C9.82817 8.5204 9.63807 8.78396 9.38203 8.97119C9.12599 9.15841 8.8172 9.25965 8.50001 9.26036H3.63001Z" fill="#374957"/>
</g>
<defs>
<clipPath id="clip0_405_1369">
<rect width="24" height="24" fill="white"/>
</clipPath>
</defs>
</svg>
