<svg width="24" height="24" viewBox="0 0 24 24" fill="none" xmlns="http://www.w3.org/2000/svg">
<g clip-path="url(#clip0_405_1338)">
<path d="M20.327 0.758C19.9498 0.393623 19.4744 0.147435 18.9592 0.0497178C18.4439 -0.0479992 17.9114 0.00701742 17.427 0.208C16.9949 0.399524 16.629 0.714364 16.3751 1.11303C16.1213 1.5117 15.9908 1.97646 16 2.449V22.5C16 22.8978 16.158 23.2794 16.4393 23.5607C16.7206 23.842 17.1022 24 17.5 24C17.8978 24 18.2794 23.842 18.5607 23.5607C18.842 23.2794 19 22.8978 19 22.5V20.017C25.114 15.384 25.64 5.855 20.327 0.758ZM19 15.744V3.744C21.491 6.636 21.712 12.722 19 15.744ZM13 1.5V7.5C12.9975 8.96169 12.5028 10.3799 11.5957 11.5261C10.6886 12.6723 9.42199 13.4797 8 13.818V22.5C8 22.8978 7.84196 23.2794 7.56066 23.5607C7.27936 23.842 6.89782 24 6.5 24C6.10218 24 5.72064 23.842 5.43934 23.5607C5.15804 23.2794 5 22.8978 5 22.5V13.818C3.57801 13.4797 2.31138 12.6723 1.4043 11.5261C0.49722 10.3799 0.00253859 8.96169 0 7.5L0 1.5C0 1.10218 0.158035 0.720644 0.43934 0.43934C0.720644 0.158035 1.10218 0 1.5 0C1.89782 0 2.27936 0.158035 2.56066 0.43934C2.84196 0.720644 3 1.10218 3 1.5V7.5C3.00251 8.16007 3.19162 8.80597 3.5455 9.36316C3.89938 9.92035 4.40362 10.3661 5 10.649V1.5C5 1.10218 5.15804 0.720644 5.43934 0.43934C5.72064 0.158035 6.10218 0 6.5 0C6.89782 0 7.27936 0.158035 7.56066 0.43934C7.84196 0.720644 8 1.10218 8 1.5V10.649C8.59638 10.3661 9.10062 9.92035 9.4545 9.36316C9.80838 8.80597 9.99749 8.16007 10 7.5V1.5C10 1.10218 10.158 0.720644 10.4393 0.43934C10.7206 0.158035 11.1022 0 11.5 0C11.8978 0 12.2794 0.158035 12.5607 0.43934C12.842 0.720644 13 1.10218 13 1.5Z" fill="#374957"/>
</g>
<defs>
<clipPath id="clip0_405_1338">
<rect width="24" height="24" fill="white"/>
</clipPath>
</defs>
</svg>
