<svg width="24" height="24" viewBox="0 0 24 24" fill="none" xmlns="http://www.w3.org/2000/svg">
<g clip-path="url(#clip0_405_1638)">
<path d="M12 0C5.37258 0 0 5.37258 0 12C0 18.6274 5.37258 24 12 24C18.6274 24 24 18.6274 24 12C23.9928 5.37553 18.6245 0.00717187 12 0ZM12 21C7.02942 21 3 16.9706 3 12C3 7.02942 7.02942 3 12 3C16.9706 3 21 7.02942 21 12C20.994 16.968 16.968 20.994 12 21Z" fill="#374957"/>
<path d="M14.6001 9.33323C15.1861 9.91894 16.1359 9.9187 16.7216 9.33272C17.3073 8.74673 17.3071 7.79691 16.7211 7.2112C14.0762 4.56919 9.79028 4.57148 7.14827 7.21641C4.50626 9.86133 4.50856 14.1472 7.15348 16.7892C9.79633 19.4292 14.0782 19.4292 16.7211 16.7892C17.3071 16.2035 17.3073 15.2537 16.7216 14.6677C16.1359 14.0817 15.1861 14.0815 14.6001 14.6672C13.1271 16.1404 10.7388 16.1406 9.26566 14.6676C7.79247 13.1947 7.79229 10.8064 9.26524 9.33319C10.7382 7.86 13.1265 7.85981 14.5997 9.33276C14.5998 9.33295 14.5999 9.33309 14.6001 9.33323Z" fill="#374957"/>
</g>
<defs>
<clipPath id="clip0_405_1638">
<rect width="24" height="24" fill="white"/>
</clipPath>
</defs>
</svg>
