<svg width="24" height="24" viewBox="0 0 24 24" fill="none" xmlns="http://www.w3.org/2000/svg">
<g clip-path="url(#clip0_405_1621)">
<path d="M18.5001 24.0001H13.0341C11.161 24.0329 9.30149 23.6754 7.57402 22.9504C5.84655 22.2254 4.28887 21.1489 3.0001 19.7891C1.90961 18.597 1.08336 17.1879 0.575487 15.6541C0.0676184 14.1203 -0.1104 12.4965 0.0530984 10.8891C0.301187 8.27379 1.399 5.81165 3.17868 3.87919C4.95836 1.94673 7.32197 0.650308 9.9081 0.188148C11.6071 -0.126982 13.3549 -0.0599384 15.0247 0.384414C16.6945 0.828767 18.2445 1.63928 19.5621 2.75715C20.957 3.92975 22.0775 5.39433 22.8443 7.04743C23.6112 8.70053 24.0057 10.5018 24.0001 12.3241V18.5001C23.9982 19.9583 23.4182 21.3561 22.3871 22.3872C21.3561 23.4182 19.9582 23.9983 18.5001 24.0001ZM12.0301 3.00015C9.7846 2.99821 7.6191 3.8338 5.95693 5.34359C4.29476 6.85338 3.25542 8.9288 3.0421 11.1641C2.91975 12.3565 3.05071 13.5613 3.4264 14.6996C3.80208 15.8378 4.41401 16.8839 5.2221 17.7691C6.22923 18.8197 7.44374 19.6494 8.78857 20.2056C10.1334 20.7618 11.5792 21.0324 13.0341 21.0001H18.5001C19.1631 21.0001 19.799 20.7368 20.2679 20.2679C20.7367 19.7991 21.0001 19.1632 21.0001 18.5001V12.3241C21.0047 10.94 20.7057 9.5716 20.1241 8.3155C19.5425 7.0594 18.6926 5.94613 17.6341 5.05415C16.0695 3.72529 14.0828 2.99712 12.0301 3.00015ZM10.5001 17.0001C10.1713 17.0006 9.84557 16.9362 9.54168 16.8106C9.23778 16.685 8.96165 16.5006 8.7291 16.2681L5.9561 13.5771C5.67404 13.2995 5.51317 12.9215 5.50854 12.5258C5.50392 12.13 5.65592 11.7484 5.93141 11.4642C6.2069 11.18 6.58356 11.0162 6.9793 11.0085C7.37504 11.0008 7.75777 11.1499 8.0441 11.4231L10.5001 13.8001L15.9501 8.43115C16.0896 8.28921 16.2559 8.17644 16.4393 8.0994C16.6228 8.02236 16.8198 7.9826 17.0188 7.98243C17.2177 7.98226 17.4148 8.02168 17.5984 8.0984C17.782 8.17512 17.9485 8.2876 18.0882 8.4293C18.2279 8.57099 18.338 8.73907 18.4121 8.92374C18.4862 9.10841 18.5229 9.30598 18.5199 9.50494C18.5169 9.70391 18.4744 9.90029 18.3947 10.0827C18.3151 10.265 18.2 10.4297 18.0561 10.5671L12.2601 16.2751C12.0291 16.5061 11.7546 16.6891 11.4526 16.8135C11.1505 16.938 10.8268 17.0014 10.5001 17.0001Z" fill="#374957"/>
</g>
<defs>
<clipPath id="clip0_405_1621">
<rect width="24" height="24" fill="white"/>
</clipPath>
</defs>
</svg>
