<svg width="24" height="24" viewBox="0 0 24 24" fill="none" xmlns="http://www.w3.org/2000/svg">
<g clip-path="url(#clip0_405_1745)">
<path d="M22.5 13H22V5.5C21.9984 4.0418 21.4184 2.64377 20.3873 1.61267C19.3562 0.581561 17.9582 0.00158817 16.5 0L7.5 0C6.0418 0.00158817 4.64377 0.581561 3.61267 1.61267C2.58156 2.64377 2.00159 4.0418 2 5.5V13H1.5C1.10218 13 0.720644 13.158 0.43934 13.4393C0.158035 13.7206 0 14.1022 0 14.5C0 14.8978 0.158035 15.2794 0.43934 15.5607C0.720644 15.842 1.10218 16 1.5 16H10.5V19H9C8.07174 19 7.1815 19.3687 6.52513 20.0251C5.86875 20.6815 5.5 21.5717 5.5 22.5C5.5 22.8978 5.65804 23.2794 5.93934 23.5607C6.22064 23.842 6.60218 24 7 24C7.39782 24 7.77936 23.842 8.06066 23.5607C8.34196 23.2794 8.5 22.8978 8.5 22.5C8.5 22.3674 8.55268 22.2402 8.64645 22.1464C8.74021 22.0527 8.86739 22 9 22H15C15.1326 22 15.2598 22.0527 15.3536 22.1464C15.4473 22.2402 15.5 22.3674 15.5 22.5C15.5 22.8978 15.658 23.2794 15.9393 23.5607C16.2206 23.842 16.6022 24 17 24C17.3978 24 17.7794 23.842 18.0607 23.5607C18.342 23.2794 18.5 22.8978 18.5 22.5C18.5 21.5717 18.1313 20.6815 17.4749 20.0251C16.8185 19.3687 15.9283 19 15 19H13.5V16H22.5C22.8978 16 23.2794 15.842 23.5607 15.5607C23.842 15.2794 24 14.8978 24 14.5C24 14.1022 23.842 13.7206 23.5607 13.4393C23.2794 13.158 22.8978 13 22.5 13ZM5 5.5C5 4.83696 5.26339 4.20107 5.73223 3.73223C6.20107 3.26339 6.83696 3 7.5 3H16.5C17.163 3 17.7989 3.26339 18.2678 3.73223C18.7366 4.20107 19 4.83696 19 5.5V13H5V5.5Z" fill="#374957"/>
</g>
<defs>
<clipPath id="clip0_405_1745">
<rect width="24" height="24" fill="white"/>
</clipPath>
</defs>
</svg>
