<svg width="24" height="24" viewBox="0 0 24 24" fill="none" xmlns="http://www.w3.org/2000/svg">
<g clip-path="url(#clip0_405_1748)">
<path d="M16 6.522V5C16 4.983 16 4.967 15.995 4.95C16.6022 4.82671 17.1419 4.48237 17.5096 3.98374C17.8773 3.48511 18.0468 2.86771 17.9851 2.25124C17.9235 1.63477 17.6351 1.06315 17.1759 0.647202C16.7168 0.231256 16.1195 0.000616478 15.5 0L8.5 0C7.88046 0.000616478 7.28321 0.231256 6.82405 0.647202C6.3649 1.06315 6.07654 1.63477 6.01489 2.25124C5.95325 2.86771 6.1227 3.48511 6.4904 3.98374C6.8581 4.48237 7.39785 4.82671 8.005 4.95C8 4.967 8 4.983 8 5V6.522C6.6341 6.64851 5.36457 7.28015 4.43981 8.29332C3.51505 9.30648 3.00162 10.6283 3 12V18.5C3.00159 19.9582 3.58156 21.3562 4.61267 22.3873C5.64377 23.4184 7.0418 23.9984 8.5 24H15.5C16.9582 23.9984 18.3562 23.4184 19.3873 22.3873C20.4184 21.3562 20.9984 19.9582 21 18.5V12C20.9984 10.6283 20.485 9.30648 19.5602 8.29332C18.6354 7.28015 17.3659 6.64851 16 6.522ZM18 18.5C18 19.163 17.7366 19.7989 17.2678 20.2678C16.7989 20.7366 16.163 21 15.5 21H8.5C7.83696 21 7.20107 20.7366 6.73223 20.2678C6.26339 19.7989 6 19.163 6 18.5V12C6 11.337 6.26339 10.7011 6.73223 10.2322C7.20107 9.76339 7.83696 9.5 8.5 9.5H9.5C9.89782 9.5 10.2794 9.34196 10.5607 9.06066C10.842 8.77936 11 8.39782 11 8V5H13V8C13 8.39782 13.158 8.77936 13.4393 9.06066C13.7206 9.34196 14.1022 9.5 14.5 9.5H15.5C16.163 9.5 16.7989 9.76339 17.2678 10.2322C17.7366 10.7011 18 11.337 18 12V18.5ZM16 15C16 15.3978 15.842 15.7794 15.5607 16.0607C15.2794 16.342 14.8978 16.5 14.5 16.5H13.5V17.5C13.5 17.8978 13.342 18.2794 13.0607 18.5607C12.7794 18.842 12.3978 19 12 19C11.6022 19 11.2206 18.842 10.9393 18.5607C10.658 18.2794 10.5 17.8978 10.5 17.5V16.5H9.5C9.10218 16.5 8.72064 16.342 8.43934 16.0607C8.15804 15.7794 8 15.3978 8 15C8 14.6022 8.15804 14.2206 8.43934 13.9393C8.72064 13.658 9.10218 13.5 9.5 13.5H10.5V12.5C10.5 12.1022 10.658 11.7206 10.9393 11.4393C11.2206 11.158 11.6022 11 12 11C12.3978 11 12.7794 11.158 13.0607 11.4393C13.342 11.7206 13.5 12.1022 13.5 12.5V13.5H14.5C14.8978 13.5 15.2794 13.658 15.5607 13.9393C15.842 14.2206 16 14.6022 16 15Z" fill="#374957"/>
</g>
<defs>
<clipPath id="clip0_405_1748">
<rect width="24" height="24" fill="white"/>
</clipPath>
</defs>
</svg>
