<svg width="24" height="24" viewBox="0 0 24 24" fill="none" xmlns="http://www.w3.org/2000/svg">
<g clip-path="url(#clip0_405_1679)">
<path d="M16.5002 0H8.50015C6.7769 0.00211703 5.12482 0.687616 3.9063 1.90614C2.68777 3.12467 2.00227 4.77674 2.00015 6.5V19.5C2.00148 20.6931 2.47601 21.8369 3.31963 22.6805C4.16326 23.5241 5.30708 23.9987 6.50015 24H16.5002C17.9583 23.9981 19.3561 23.4181 20.3872 22.387C21.4182 21.356 21.9983 19.9581 22.0002 18.5V5.5C21.9983 4.04188 21.4182 2.64401 20.3872 1.61296C19.3561 0.58191 17.9583 0.00185226 16.5002 0V0ZM8.00015 3.051V15H6.50015C5.98799 15.0049 5.48052 15.0983 5.00015 15.276V6.5C5.00253 5.66062 5.307 4.85016 5.85788 4.21684C6.40875 3.58352 7.16921 3.16967 8.00015 3.051ZM19.0002 18.5C19.0002 19.163 18.7368 19.7989 18.2679 20.2678C17.7991 20.7366 17.1632 21 16.5002 21H6.50015C6.10233 21 5.7208 20.842 5.43949 20.5607C5.15819 20.2794 5.00015 19.8978 5.00015 19.5C5.00015 19.1022 5.15819 18.7206 5.43949 18.4393C5.7208 18.158 6.10233 18 6.50015 18H19.0002V18.5ZM11.0002 15V3H16.5002C17.1632 3 17.7991 3.26339 18.2679 3.73223C18.7368 4.20107 19.0002 4.83696 19.0002 5.5V15H11.0002Z" fill="#374957"/>
</g>
<defs>
<clipPath id="clip0_405_1679">
<rect width="24" height="24" fill="white"/>
</clipPath>
</defs>
</svg>
