<svg width="24" height="24" viewBox="0 0 24 24" fill="none" xmlns="http://www.w3.org/2000/svg">
<g clip-path="url(#clip0_405_1588)">
<path d="M22.562 8.49988C23.2537 7.79831 23.7223 6.90786 23.9091 5.94056C24.0958 4.97326 23.9923 3.97233 23.6116 3.06372C23.2308 2.15512 22.5898 1.37942 21.7692 0.83425C20.9487 0.289075 19.9852 -0.00122372 19 -0.000118929H5.00004C4.01487 -0.00122372 3.05139 0.289075 2.23083 0.83425C1.41026 1.37942 0.76927 2.15512 0.38851 3.06372C0.0077506 3.97233 -0.0957667 4.97326 0.0909838 5.94056C0.277734 6.90786 0.746409 7.79831 1.43804 8.49988C0.51664 9.43177 -0.00012207 10.6894 -0.00012207 11.9999C-0.00012207 13.3104 0.51664 14.568 1.43804 15.4999C0.746409 16.2014 0.277734 17.0919 0.0909838 18.0592C-0.0957667 19.0265 0.0077506 20.0274 0.38851 20.936C0.76927 21.8446 1.41026 22.6203 2.23083 23.1655C3.05139 23.7107 4.01487 24.001 5.00004 23.9999H19C19.9852 24.001 20.9487 23.7107 21.7692 23.1655C22.5898 22.6203 23.2308 21.8446 23.6116 20.936C23.9923 20.0274 24.0958 19.0265 23.9091 18.0592C23.7223 17.0919 23.2537 16.2014 22.562 15.4999C23.4834 14.568 24.0002 13.3104 24.0002 11.9999C24.0002 10.6894 23.4834 9.43177 22.562 8.49988ZM5.00004 13.9999C4.4696 13.9999 3.96089 13.7892 3.58582 13.4141C3.21075 13.039 3.00004 12.5303 3.00004 11.9999C3.00004 11.4694 3.21075 10.9607 3.58582 10.5857C3.96089 10.2106 4.4696 9.99988 5.00004 9.99988V10.4999C5.00004 10.8977 5.15807 11.2792 5.43938 11.5605C5.72068 11.8418 6.10221 11.9999 6.50004 11.9999C6.89786 11.9999 7.27939 11.8418 7.5607 11.5605C7.842 11.2792 8.00004 10.8977 8.00004 10.4999V9.99988H10V10.4999C10 10.8977 10.1581 11.2792 10.4394 11.5605C10.7207 11.8418 11.1022 11.9999 11.5 11.9999C11.8979 11.9999 12.2794 11.8418 12.5607 11.5605C12.842 11.2792 13 10.8977 13 10.4999V9.99988H19C19.5305 9.99988 20.0392 10.2106 20.4142 10.5857C20.7893 10.9607 21 11.4694 21 11.9999C21 12.5303 20.7893 13.039 20.4142 13.4141C20.0392 13.7892 19.5305 13.9999 19 13.9999H5.00004ZM5.00004 2.99988V3.49988C5.00004 3.89771 5.15807 4.27924 5.43938 4.56054C5.72068 4.84185 6.10221 4.99988 6.50004 4.99988C6.89786 4.99988 7.27939 4.84185 7.5607 4.56054C7.842 4.27924 8.00004 3.89771 8.00004 3.49988V2.99988H10V3.49988C10 3.89771 10.1581 4.27924 10.4394 4.56054C10.7207 4.84185 11.1022 4.99988 11.5 4.99988C11.8979 4.99988 12.2794 4.84185 12.5607 4.56054C12.842 4.27924 13 3.89771 13 3.49988V2.99988H19C19.5305 2.99988 20.0392 3.21059 20.4142 3.58567C20.7893 3.96074 21 4.46945 21 4.99988C21 5.53031 20.7893 6.03902 20.4142 6.41409C20.0392 6.78917 19.5305 6.99988 19 6.99988H5.00004C4.4696 6.99988 3.96089 6.78917 3.58582 6.41409C3.21075 6.03902 3.00004 5.53031 3.00004 4.99988C3.00004 4.46945 3.21075 3.96074 3.58582 3.58567C3.96089 3.21059 4.4696 2.99988 5.00004 2.99988ZM19 20.9999H5.00004C4.4696 20.9999 3.96089 20.7892 3.58582 20.4141C3.21075 20.039 3.00004 19.5303 3.00004 18.9999C3.00004 18.4694 3.21075 17.9607 3.58582 17.5857C3.96089 17.2106 4.4696 16.9999 5.00004 16.9999V17.4999C5.00004 17.8977 5.15807 18.2792 5.43938 18.5605C5.72068 18.8418 6.10221 18.9999 6.50004 18.9999C6.89786 18.9999 7.27939 18.8418 7.5607 18.5605C7.842 18.2792 8.00004 17.8977 8.00004 17.4999V16.9999H10V17.4999C10 17.8977 10.1581 18.2792 10.4394 18.5605C10.7207 18.8418 11.1022 18.9999 11.5 18.9999C11.8979 18.9999 12.2794 18.8418 12.5607 18.5605C12.842 18.2792 13 17.8977 13 17.4999V16.9999H19C19.5305 16.9999 20.0392 17.2106 20.4142 17.5857C20.7893 17.9607 21 18.4694 21 18.9999C21 19.5303 20.7893 20.039 20.4142 20.4141C20.0392 20.7892 19.5305 20.9999 19 20.9999Z" fill="#374957"/>
</g>
<defs>
<clipPath id="clip0_405_1588">
<rect width="24" height="24" fill="white"/>
</clipPath>
</defs>
</svg>
