<svg width="24" height="24" viewBox="0 0 24 24" fill="none" xmlns="http://www.w3.org/2000/svg">
<g clip-path="url(#clip0_405_1589)">
<path d="M15 16.0368C15.001 16.5624 14.8636 17.0789 14.6017 17.5346C14.3398 17.9903 13.9625 18.3691 13.5079 18.6328C13.0533 18.8965 12.5372 19.036 12.0117 19.0372C11.4861 19.0383 10.9694 18.9011 10.5136 18.6394C10.0578 18.3777 9.67894 18.0006 9.41501 17.5461C9.15108 17.0916 9.01142 16.5756 9.01004 16.05C9.00866 15.5244 9.14562 15.0077 9.40716 14.5518C9.6687 14.0959 10.0456 13.7169 10.5 13.4528V8.03677C10.5 7.63894 10.6581 7.25741 10.9394 6.97611C11.2207 6.6948 11.6022 6.53677 12 6.53677C12.3978 6.53677 12.7794 6.6948 13.0607 6.97611C13.342 7.25741 13.5 7.63894 13.5 8.03677V13.4528C13.9549 13.7139 14.333 14.0901 14.5963 14.5437C14.8596 14.9973 14.9989 15.5123 15 16.0368ZM20 15.9998C19.9976 18.1208 19.154 20.1542 17.6542 21.654C16.1545 23.1538 14.121 23.9974 12 23.9998C5.22702 24.0888 1.43702 15.7378 6.00002 10.7288V6.03677C6.25302 -1.89423 17.75 -1.88923 18 6.03677V10.7288C19.2923 12.18 20.0043 14.0566 20 15.9998ZM17 15.9998C17.0002 15.3281 16.8636 14.6635 16.5987 14.0463C16.3338 13.4291 15.946 12.8723 15.459 12.4098C15.3139 12.2698 15.1984 12.1021 15.1195 11.9165C15.0407 11.731 15 11.5314 15 11.3298V6.03677C15 5.24112 14.684 4.47806 14.1213 3.91545C13.5587 3.35284 12.7957 3.03677 12 3.03677C11.2044 3.03677 10.4413 3.35284 9.8787 3.91545C9.31609 4.47806 9.00002 5.24112 9.00002 6.03677V11.3298C9.00003 11.5314 8.95938 11.731 8.88052 11.9165C8.80165 12.1021 8.68619 12.2698 8.54102 12.4098C7.94657 12.9825 7.50337 13.6937 7.25105 14.4796C6.99873 15.2656 6.94517 16.1018 7.09516 16.9135C7.24515 17.7253 7.59401 18.4872 8.11054 19.1311C8.62706 19.7749 9.29514 20.2808 10.055 20.6032C10.8149 20.9257 11.6428 21.0548 12.4648 20.979C13.2868 20.9032 14.0771 20.6248 14.7652 20.1687C15.4532 19.7126 16.0175 19.0931 16.4075 18.3656C16.7975 17.6381 17.0011 16.8252 17 15.9998Z" fill="#374957"/>
</g>
<defs>
<clipPath id="clip0_405_1589">
<rect width="24" height="24" fill="white"/>
</clipPath>
</defs>
</svg>
