<svg width="24" height="24" viewBox="0 0 24 24" fill="none" xmlns="http://www.w3.org/2000/svg">
<g clip-path="url(#clip0_405_1786)">
<path d="M21 0H6C5.60218 0 5.22064 0.158035 4.93934 0.43934C4.65804 0.720644 4.5 1.10218 4.5 1.5C4.5 1.89782 4.65804 2.27936 4.93934 2.56066C5.22064 2.84196 5.60218 3 6 3H11.713L9.259 21H3C2.60218 21 2.22064 21.158 1.93934 21.4393C1.65804 21.7206 1.5 22.1022 1.5 22.5C1.5 22.8978 1.65804 23.2794 1.93934 23.5607C2.22064 23.842 2.60218 24 3 24H18C18.3978 24 18.7794 23.842 19.0607 23.5607C19.342 23.2794 19.5 22.8978 19.5 22.5C19.5 22.1022 19.342 21.7206 19.0607 21.4393C18.7794 21.158 18.3978 21 18 21H12.287L14.741 3H21C21.3978 3 21.7794 2.84196 22.0607 2.56066C22.342 2.27936 22.5 1.89782 22.5 1.5C22.5 1.10218 22.342 0.720644 22.0607 0.43934C21.7794 0.158035 21.3978 0 21 0V0Z" fill="#374957"/>
</g>
<defs>
<clipPath id="clip0_405_1786">
<rect width="24" height="24" fill="white"/>
</clipPath>
</defs>
</svg>
