<svg width="24" height="24" viewBox="0 0 24 24" fill="none" xmlns="http://www.w3.org/2000/svg">
<g clip-path="url(#clip0_405_1370)">
<path d="M15.5 24H8.5C7.0418 23.9984 5.64377 23.4184 4.61267 22.3873C3.58156 21.3562 3.00159 19.9582 3 18.5V5.5C3.00159 4.0418 3.58156 2.64377 4.61267 1.61267C5.64377 0.581561 7.0418 0.00158817 8.5 0L15.5 0C16.9582 0.00158817 18.3562 0.581561 19.3873 1.61267C20.4184 2.64377 20.9984 4.0418 21 5.5V18.5C20.9984 19.9582 20.4184 21.3562 19.3873 22.3873C18.3562 23.4184 16.9582 23.9984 15.5 24ZM8.5 3C7.83696 3 7.20107 3.26339 6.73223 3.73223C6.26339 4.20107 6 4.83696 6 5.5V18.5C6 19.163 6.26339 19.7989 6.73223 20.2678C7.20107 20.7366 7.83696 21 8.5 21H15.5C16.163 21 16.7989 20.7366 17.2678 20.2678C17.7366 19.7989 18 19.163 18 18.5V5.5C18 4.83696 17.7366 4.20107 17.2678 3.73223C16.7989 3.26339 16.163 3 15.5 3H8.5Z" fill="#374957"/>
<path d="M11.9998 9.0006C13.1044 9.0006 13.9998 8.10517 13.9998 7.00061C13.9998 5.89604 13.1044 5.00061 11.9998 5.00061C10.8952 5.00061 9.99982 5.89604 9.99982 7.00061C9.99982 8.10517 10.8952 9.0006 11.9998 9.0006Z" fill="#374957"/>
<path d="M11.9999 19.4999C11.1099 19.4999 10.2399 19.236 9.49987 18.7416C8.75985 18.2471 8.18308 17.5443 7.84248 16.722C7.50189 15.8997 7.41277 14.9949 7.58641 14.122C7.76004 13.2491 8.18862 12.4473 8.81796 11.818C9.44729 11.1886 10.2491 10.76 11.122 10.5864C11.9949 10.4128 12.8997 10.5019 13.722 10.8425C14.5443 11.1831 15.2471 11.7599 15.7415 12.4999C16.236 13.2399 16.4999 14.1099 16.4999 14.9999C16.4986 16.193 16.0241 17.3368 15.1804 18.1805C14.3368 19.0241 13.193 19.4986 11.9999 19.4999ZM11.9999 13.4999C11.7033 13.4999 11.4133 13.5879 11.1666 13.7527C10.9199 13.9176 10.7276 14.1518 10.6141 14.4259C10.5006 14.7 10.4709 15.0016 10.5288 15.2926C10.5866 15.5835 10.7295 15.8508 10.9393 16.0606C11.1491 16.2704 11.4163 16.4132 11.7073 16.4711C11.9983 16.529 12.2999 16.4993 12.574 16.3858C12.848 16.2722 13.0823 16.08 13.2471 15.8333C13.412 15.5866 13.4999 15.2966 13.4999 14.9999C13.4999 14.6021 13.3419 14.2206 13.0606 13.9393C12.7793 13.658 12.3978 13.4999 11.9999 13.4999Z" fill="#374957"/>
</g>
<defs>
<clipPath id="clip0_405_1370">
<rect width="24" height="24" fill="white"/>
</clipPath>
</defs>
</svg>
