<svg width="24" height="24" viewBox="0 0 24 24" fill="none" xmlns="http://www.w3.org/2000/svg">
<g clip-path="url(#clip0_405_1379)">
<path d="M12.7498 7.00092C11.4463 7.06565 10.4404 8.17214 10.4998 9.47592C10.5593 8.17214 9.55337 7.06565 8.24982 7.00092C6.94627 7.06565 5.94038 8.17214 5.99982 9.47592C5.99982 11.4229 8.53782 13.7409 9.79983 14.7559C10.2085 15.085 10.7912 15.085 11.1999 14.7559C12.4638 13.7409 14.9998 11.4229 14.9998 9.47592C15.0593 8.17214 14.0534 7.06565 12.7498 7.00092Z" fill="#374957"/>
<path d="M23.5621 21.4385L18.9193 16.7947C22.3932 12.1529 21.4464 5.5739 16.8046 2.09999C12.1629 -1.37392 5.58382 -0.427089 2.10997 4.21471C-1.36389 8.8565 -0.417159 15.4355 4.22464 18.9094C7.95364 21.7001 13.0756 21.7001 16.8046 18.9094L21.4484 23.5541C22.0321 24.1378 22.9784 24.1378 23.5621 23.5541C24.1458 22.9704 24.1458 22.0241 23.5621 21.4404V21.4385ZM3.08154 10.5423C3.08154 6.41633 6.42626 3.07161 10.5522 3.07161C14.6781 3.07161 18.0229 6.41633 18.0229 10.5423C18.0229 14.6682 14.6781 18.0129 10.5522 18.0129C6.42809 18.0085 3.08595 14.6663 3.08154 10.5423Z" fill="#374957"/>
</g>
<defs>
<clipPath id="clip0_405_1379">
<rect width="24" height="24" fill="white"/>
</clipPath>
</defs>
</svg>
