<svg width="24" height="24" viewBox="0 0 24 24" fill="none" xmlns="http://www.w3.org/2000/svg">
<g clip-path="url(#clip0_405_1799)">
<path d="M1.76197 8.375L0.979974 9.382C0.255383 10.3142 -0.0877353 11.487 0.0201465 12.6627C0.128028 13.8385 0.678841 14.9292 1.56097 15.714L9.19997 22.955C9.96988 23.6264 10.9574 23.9953 11.979 23.993C13.0317 23.9925 14.0482 23.6081 14.838 22.912L22.398 15.769C23.2895 15.0008 23.8551 13.922 23.9798 12.7517C24.1044 11.5815 23.7787 10.4077 23.069 9.469L22.317 8.462C21.74 7.69734 20.9935 7.07701 20.1361 6.64979C19.2787 6.22258 18.3339 6.00015 17.376 6H6.63897C5.69932 6.00097 4.77215 6.21523 3.92734 6.62663C3.08254 7.03803 2.34214 7.63584 1.76197 8.375ZM3.35197 11.221L4.13097 10.215C4.42984 9.83592 4.81085 9.5296 5.24528 9.31914C5.67971 9.10868 6.15625 8.99956 6.63897 9H9.06397L8.49097 10.406C8.2249 11.071 8.09993 11.7841 8.12397 12.5H15.841C15.886 11.7447 15.7641 10.9888 15.484 10.286L14.961 9H17.376C17.8682 8.99911 18.354 9.11254 18.7949 9.33137C19.2359 9.55019 19.62 9.86843 19.917 10.261L20.669 11.268C20.7993 11.4426 20.893 11.6417 20.9445 11.8534C20.9961 12.0651 21.0044 12.285 20.969 12.5H15.841C15.8201 13.0469 15.7124 13.5869 15.522 14.1L12.553 20.85C12.38 20.9382 12.1886 20.9842 11.9945 20.9842C11.8003 20.9842 11.6089 20.9382 11.436 20.85L8.45397 14.224C8.24668 13.6723 8.13508 13.0893 8.12397 12.5H3.02397C2.9869 12.2757 2.99692 12.0462 3.05339 11.826C3.10986 11.6058 3.21154 11.3998 3.35197 11.221Z" fill="#374957"/>
<path d="M16.439 0.439481L15.439 1.43948C15.1576 1.72088 14.9995 2.10253 14.9995 2.50048C14.9995 2.89843 15.1576 3.28009 15.439 3.56148C15.7204 3.84288 16.102 4.00096 16.5 4.00096C16.8979 4.00096 17.2796 3.84288 17.561 3.56148L18.561 2.56148C18.8424 2.28009 19.0005 1.89843 19.0005 1.50048C19.0005 1.10253 18.8424 0.720875 18.561 0.439481C18.2796 0.158086 17.8979 0 17.5 0C17.102 0 16.7204 0.158086 16.439 0.439481Z" fill="#374957"/>
<path d="M7.49993 4.00048C7.7967 4.00062 8.08684 3.91271 8.33364 3.7479C8.58043 3.58309 8.7728 3.34877 8.88639 3.0746C8.99997 2.80042 9.02968 2.49872 8.97174 2.20766C8.91381 1.9166 8.77084 1.64926 8.56092 1.43948L7.56093 0.439481C7.27953 0.158086 6.89788 -2.96497e-09 6.49993 0C6.10198 2.96498e-09 5.72032 0.158086 5.43893 0.439481C5.15754 0.720875 4.99945 1.10253 4.99945 1.50048C4.99945 1.89843 5.15754 2.28009 5.43893 2.56148L6.43893 3.56148C6.57828 3.70075 6.74371 3.8112 6.92576 3.88652C7.10781 3.96185 7.30291 4.00057 7.49993 4.00048Z" fill="#374957"/>
<path d="M10.5 1.5V2.5C10.5 2.89782 10.658 3.27936 10.9393 3.56066C11.2206 3.84196 11.6022 4 12 4C12.3978 4 12.7794 3.84196 13.0607 3.56066C13.342 3.27936 13.5 2.89782 13.5 2.5V1.5C13.5 1.10218 13.342 0.720644 13.0607 0.43934C12.7794 0.158035 12.3978 0 12 0C11.6022 0 11.2206 0.158035 10.9393 0.43934C10.658 0.720644 10.5 1.10218 10.5 1.5Z" fill="#374957"/>
</g>
<defs>
<clipPath id="clip0_405_1799">
<rect width="24" height="24" fill="white"/>
</clipPath>
</defs>
</svg>
