<svg width="24" height="24" viewBox="0 0 24 24" fill="none" xmlns="http://www.w3.org/2000/svg">
<g clip-path="url(#clip0_405_1492)">
<path d="M9.5 24H1.5C1.10218 24 0.720644 23.842 0.43934 23.5607C0.158035 23.2794 0 22.8978 0 22.5C0 22.1022 0.158035 21.7206 0.43934 21.4393C0.720644 21.158 1.10218 21 1.5 21H9.5C9.89782 21 10.2794 21.158 10.5607 21.4393C10.842 21.7206 11 22.1022 11 22.5C11 22.8978 10.842 23.2794 10.5607 23.5607C10.2794 23.842 9.89782 24 9.5 24Z" fill="#374957"/>
<path d="M7.5 18.9994H1.5C1.10218 18.9994 0.720644 18.8414 0.43934 18.56C0.158035 18.2787 0 17.8972 0 17.4994C0 17.1016 0.158035 16.72 0.43934 16.4387C0.720644 16.1574 1.10218 15.9994 1.5 15.9994H7.5C7.89782 15.9994 8.27936 16.1574 8.56066 16.4387C8.84196 16.72 9 17.1016 9 17.4994C9 17.8972 8.84196 18.2787 8.56066 18.56C8.27936 18.8414 7.89782 18.9994 7.5 18.9994Z" fill="#374957"/>
<path d="M5.5 14.0006H1.5C1.10218 14.0006 0.720644 13.8426 0.43934 13.5613C0.158035 13.28 0 12.8984 0 12.5006C0 12.1028 0.158035 11.7213 0.43934 11.4399C0.720644 11.1586 1.10218 11.0006 1.5 11.0006H5.5C5.89783 11.0006 6.27936 11.1586 6.56066 11.4399C6.84197 11.7213 7 12.1028 7 12.5006C7 12.8984 6.84197 13.28 6.56066 13.5613C6.27936 13.8426 5.89783 14.0006 5.5 14.0006Z" fill="#374957"/>
<path d="M14.4999 23.7212C14.1327 23.7216 13.7781 23.5873 13.5033 23.3437C13.2285 23.1001 13.0526 22.7641 13.009 22.3995C12.9653 22.0349 13.057 21.6669 13.2665 21.3653C13.4761 21.0638 13.7889 20.8495 14.1459 20.7632C15.6251 20.4006 16.9884 19.6694 18.1088 18.6378C19.2292 17.6063 20.0702 16.3078 20.5534 14.8636C21.0367 13.4193 21.1465 11.8762 20.8726 10.378C20.5986 8.87989 19.9499 7.47547 18.9869 6.29565C18.0238 5.11582 16.7778 4.199 15.3648 3.6306C13.9519 3.06221 12.418 2.86074 10.9063 3.04499C9.39446 3.22923 7.95391 3.79318 6.71885 4.68429C5.48378 5.57539 4.49439 6.76465 3.84288 8.14124C3.66913 8.495 3.36312 8.76616 2.99103 8.89609C2.61893 9.02603 2.21065 9.00429 1.85446 8.83559C1.49826 8.66689 1.22277 8.36477 1.08756 7.99456C0.952344 7.62436 0.968266 7.21581 1.13188 6.85724C2.00004 5.02228 3.31868 3.43701 4.96486 2.24922C6.61105 1.06142 8.53118 0.309769 10.5463 0.0643371C12.5613 -0.181095 14.6058 0.0876831 16.4889 0.845614C18.3721 1.60355 20.0327 2.82595 21.3159 4.39888C22.5992 5.9718 23.4632 7.84403 23.8276 9.84103C24.192 11.838 24.0448 13.8948 23.3998 15.8195C22.7547 17.7443 21.6328 19.4744 20.1387 20.8486C18.6445 22.2227 16.8268 23.1962 14.8549 23.6782C14.7387 23.7066 14.6195 23.721 14.4999 23.7212Z" fill="#374957"/>
<path d="M12.5002 6C12.1024 6 11.7208 6.15803 11.4395 6.43934C11.1582 6.72064 11.0002 7.10217 11.0002 7.5V11.793C11.0003 12.3234 11.2111 12.832 11.5862 13.207L13.3792 15C13.6621 15.2732 14.041 15.4244 14.4343 15.421C14.8276 15.4176 15.2038 15.2598 15.4819 14.9817C15.76 14.7036 15.9178 14.3274 15.9212 13.9341C15.9246 13.5408 15.7734 13.1619 15.5002 12.879L14.0002 11.379V7.5C14.0002 7.10217 13.8421 6.72064 13.5608 6.43934C13.2795 6.15803 12.898 6 12.5002 6Z" fill="#374957"/>
</g>
<defs>
<clipPath id="clip0_405_1492">
<rect width="24" height="24" fill="white"/>
</clipPath>
</defs>
</svg>
