<svg width="24" height="24" viewBox="0 0 24 24" fill="none" xmlns="http://www.w3.org/2000/svg">
<g clip-path="url(#clip0_405_1734)">
<path d="M11 9.5C11 9.79667 10.912 10.0867 10.7472 10.3334C10.5824 10.58 10.3481 10.7723 10.074 10.8858C9.79994 10.9994 9.49834 11.0291 9.20736 10.9712C8.91639 10.9133 8.64912 10.7704 8.43934 10.5607C8.22956 10.3509 8.0867 10.0836 8.02882 9.79264C7.97094 9.50166 8.00065 9.20006 8.11418 8.92597C8.22771 8.65189 8.41997 8.41762 8.66665 8.2528C8.91332 8.08797 9.20333 8 9.5 8C9.89782 8 10.2794 8.15804 10.5607 8.43934C10.842 8.72064 11 9.10218 11 9.5ZM14.5 8C14.2033 8 13.9133 8.08797 13.6666 8.2528C13.42 8.41762 13.2277 8.65189 13.1142 8.92597C13.0006 9.20006 12.9709 9.50166 13.0288 9.79264C13.0867 10.0836 13.2296 10.3509 13.4393 10.5607C13.6491 10.7704 13.9164 10.9133 14.2074 10.9712C14.4983 11.0291 14.7999 10.9994 15.074 10.8858C15.3481 10.7723 15.5824 10.58 15.7472 10.3334C15.912 10.0867 16 9.79667 16 9.5C16 9.10218 15.842 8.72064 15.5607 8.43934C15.2794 8.15804 14.8978 8 14.5 8ZM9.5 13C9.20333 13 8.91332 13.088 8.66665 13.2528C8.41997 13.4176 8.22771 13.6519 8.11418 13.926C8.00065 14.2001 7.97094 14.5017 8.02882 14.7926C8.0867 15.0836 8.22956 15.3509 8.43934 15.5607C8.64912 15.7704 8.91639 15.9133 9.20736 15.9712C9.49834 16.0291 9.79994 15.9994 10.074 15.8858C10.3481 15.7723 10.5824 15.58 10.7472 15.3334C10.912 15.0867 11 14.7967 11 14.5C11 14.1022 10.842 13.7206 10.5607 13.4393C10.2794 13.158 9.89782 13 9.5 13ZM14.5 13C14.2033 13 13.9133 13.088 13.6666 13.2528C13.42 13.4176 13.2277 13.6519 13.1142 13.926C13.0006 14.2001 12.9709 14.5017 13.0288 14.7926C13.0867 15.0836 13.2296 15.3509 13.4393 15.5607C13.6491 15.7704 13.9164 15.9133 14.2074 15.9712C14.4983 16.0291 14.7999 15.9994 15.074 15.8858C15.3481 15.7723 15.5824 15.58 15.7472 15.3334C15.912 15.0867 16 14.7967 16 14.5C16 14.1022 15.842 13.7206 15.5607 13.4393C15.2794 13.158 14.8978 13 14.5 13ZM24 9.5V14.5C23.9984 15.9582 23.4184 17.3562 22.3873 18.3873C21.3562 19.4184 19.9582 19.9984 18.5 20H5.5C4.0418 19.9984 2.64377 19.4184 1.61267 18.3873C0.581561 17.3562 0.00158817 15.9582 0 14.5L0 9.5C0.00158817 8.0418 0.581561 6.64377 1.61267 5.61267C2.64377 4.58156 4.0418 4.00159 5.5 4H18.5C19.9582 4.00159 21.3562 4.58156 22.3873 5.61267C23.4184 6.64377 23.9984 8.0418 24 9.5ZM18.5 17C18.668 16.9998 18.8355 16.9828 19 16.949V7.049C18.8354 7.01592 18.6679 6.9995 18.5 7H5.5C5.33204 7.00016 5.16453 7.01725 5 7.051V16.951C5.1646 16.9841 5.33211 17.0005 5.5 17H18.5Z" fill="#374957"/>
</g>
<defs>
<clipPath id="clip0_405_1734">
<rect width="24" height="24" fill="white"/>
</clipPath>
</defs>
</svg>
