<svg width="24" height="24" viewBox="0 0 24 24" fill="none" xmlns="http://www.w3.org/2000/svg">
<g clip-path="url(#clip0_405_1393)">
<path d="M15 7.50079C15 7.20411 15.088 6.9141 15.2528 6.66743C15.4176 6.42076 15.6519 6.2285 15.926 6.11497C16.2001 6.00143 16.5017 5.97173 16.7926 6.02961C17.0836 6.08749 17.3509 6.23035 17.5607 6.44012C17.7704 6.6499 17.9133 6.91718 17.9712 7.20815C18.0291 7.49912 17.9994 7.80072 17.8858 8.07481C17.7723 8.3489 17.58 8.58317 17.3334 8.74799C17.0867 8.91281 16.7967 9.00078 16.5 9.00078C16.1022 9.00078 15.7206 8.84275 15.4393 8.56145C15.158 8.28014 15 7.89861 15 7.50079ZM13.5 12.0008C13.7967 12.0008 14.0867 11.9128 14.3334 11.748C14.58 11.5832 14.7723 11.3489 14.8858 11.0748C14.9994 10.8007 15.0291 10.4991 14.9712 10.2081C14.9133 9.91718 14.7704 9.6499 14.5607 9.44012C14.3509 9.23035 14.0836 9.08748 13.7926 9.02961C13.5017 8.97173 13.2001 9.00143 12.926 9.11497C12.6519 9.2285 12.4176 9.42076 12.2528 9.66743C12.088 9.9141 12 10.2041 12 10.5008C12 10.8986 12.158 11.2801 12.4393 11.5614C12.7206 11.8427 13.1022 12.0008 13.5 12.0008ZM10.5 15.0008C10.7967 15.0008 11.0867 14.9128 11.3334 14.748C11.58 14.5832 11.7723 14.3489 11.8858 14.0748C11.9994 13.8007 12.0291 13.4991 11.9712 13.2081C11.9133 12.9172 11.7704 12.6499 11.5607 12.4401C11.3509 12.2303 11.0836 12.0875 10.7926 12.0296C10.5017 11.9717 10.2001 12.0014 9.92598 12.115C9.65189 12.2285 9.41762 12.4208 9.2528 12.6674C9.08797 12.9141 9 13.2041 9 13.5008C9 13.8986 9.15804 14.2801 9.43934 14.5614C9.72064 14.8427 10.1022 15.0008 10.5 15.0008ZM23.841 3.55379L23.766 3.76279C22.112 8.35179 20.532 12.6878 16.891 16.4538C16.6205 19.033 15.4525 21.4352 13.591 23.2408C13.0809 23.7263 12.4043 23.9983 11.7 24.0008C10.9839 24.0008 10.2972 23.7163 9.79081 23.21C9.28446 22.7036 9 22.0169 9 21.3008V19.6698C8.41262 19.4542 7.86842 19.1356 7.393 18.7288L5.561 20.5618C5.27961 20.8432 4.89795 21.0013 4.5 21.0013C4.10205 21.0013 3.7204 20.8432 3.439 20.5618C3.15761 20.2804 2.99952 19.8987 2.99952 19.5008C2.99952 19.1028 3.15761 18.7212 3.439 18.4398L5.273 16.6058C4.66022 15.8585 4.26418 14.9575 4.128 14.0008H2.7C1.98392 14.0008 1.29716 13.7163 0.790812 13.21C0.284464 12.7036 0 12.0169 0 11.3008C0.00276315 10.5969 0.274676 9.92066 0.76 9.41078C1.80125 8.34694 3.04263 7.49956 4.41269 6.91741C5.78276 6.33527 7.25443 6.02987 8.743 6.01879C12.219 3.12579 16.129 1.71879 20.243 0.234785L20.451 0.159785C20.9246 -0.0108607 21.4369 -0.0432043 21.9282 0.0665341C22.4195 0.176272 22.8693 0.42356 23.2253 0.7795C23.5812 1.13544 23.8285 1.58533 23.9383 2.0766C24.048 2.56786 24.0156 3.08022 23.845 3.55379H23.841ZM20.768 3.23279C16.412 4.80579 12.635 6.24078 9.4 9.47278C8.71144 10.2501 8.06997 11.0679 7.479 11.9218C7.1642 12.3694 7.01774 12.9138 7.0655 13.4589C7.11326 14.0041 7.35216 14.5148 7.74 14.9008L9.164 16.3208C9.55022 16.7074 10.0605 16.9453 10.605 16.9925C11.1494 17.0397 11.693 16.8932 12.14 16.5788C12.9928 15.9912 13.7919 15.3293 14.528 14.6008C17.76 11.3658 19.2 7.58879 20.768 3.23279Z" fill="#374957"/>
</g>
<defs>
<clipPath id="clip0_405_1393">
<rect width="24" height="24" fill="white"/>
</clipPath>
</defs>
</svg>
