<svg width="24" height="24" viewBox="0 0 24 24" fill="none" xmlns="http://www.w3.org/2000/svg">
<g clip-path="url(#clip0_405_1723)">
<path d="M23.5846 11.0754C21.9091 6.86096 18.1282 3.84821 13.6461 3.15601C14.2603 2.24378 14.0187 1.00632 13.1065 0.392074C12.1943 -0.222129 10.9568 0.0194645 10.3426 0.931699C9.88988 1.60403 9.88988 2.48364 10.3426 3.15601C5.86163 3.8492 2.082 6.86181 0.407066 11.0754C-0.214356 12.4086 -0.118028 13.9658 0.662957 15.2123C1.15561 15.9648 1.89764 16.5197 2.75878 16.7794L3.36511 19.9107C3.81858 22.2521 5.86683 23.9444 8.25174 23.948H15.737C18.121 23.9444 20.1691 22.2538 20.6246 19.9137L21.2299 16.7834C22.0926 16.5229 22.8356 15.9662 23.3278 15.2112C24.1085 13.9652 24.2052 12.4085 23.5846 11.0754ZM17.6924 19.3472C17.5116 20.2842 16.6913 20.9612 15.737 20.9611H8.25174C7.29778 20.9607 6.47808 20.2839 6.29728 19.3472L6.03146 17.9742C6.74166 17.9702 7.4333 17.747 8.01178 17.335C9.21005 18.1634 10.7961 18.1634 11.9944 17.335C13.1926 18.1634 14.7787 18.1634 15.977 17.335C16.5555 17.747 17.2471 17.9702 17.9573 17.9742L17.6924 19.3472ZM20.8247 13.5814C20.6297 13.8622 20.3003 14.0184 19.9595 13.9916C19.3311 14.0066 18.7428 14.3034 18.3575 14.8C18.1732 15.0151 17.8494 15.0399 17.6345 14.8556C17.6146 14.8386 17.596 14.82 17.5789 14.8C16.921 13.9153 15.6706 13.7313 14.7858 14.3891C14.6295 14.5053 14.4911 14.6438 14.3749 14.8C14.1906 15.0151 13.8668 15.0399 13.6519 14.8556C13.632 14.8386 13.6134 14.82 13.5963 14.8C12.9342 13.915 11.6801 13.7342 10.795 14.3963C10.6418 14.5109 10.5059 14.6469 10.3913 14.8C10.208 15.0145 9.88561 15.0398 9.67116 14.8565C9.65091 14.8392 9.63202 14.8203 9.61468 14.8C8.95205 13.9147 7.69725 13.7342 6.81193 14.3968C6.65897 14.5113 6.52318 14.6471 6.40871 14.8C6.22543 15.0145 5.90302 15.0398 5.68857 14.8565C5.66832 14.8392 5.64943 14.8203 5.63208 14.8C5.24372 14.3066 4.65675 14.0106 4.0291 13.9916C3.68907 14.0183 3.36047 13.8624 3.16589 13.5824C2.94464 13.1817 2.93424 12.6979 3.138 12.2881C6.66657 3.93957 17.3429 3.96151 20.8515 12.2881C21.0569 12.6971 21.0468 13.1812 20.8247 13.5814Z" fill="#374957"/>
</g>
<defs>
<clipPath id="clip0_405_1723">
<rect width="24" height="24" fill="white"/>
</clipPath>
</defs>
</svg>
