<svg width="24" height="24" viewBox="0 0 24 24" fill="none" xmlns="http://www.w3.org/2000/svg">
<g clip-path="url(#clip0_405_1451)">
<path d="M20.469 1.14641L20.438 1.13541L17.847 0.272408C16.8445 -0.0609425 15.7656 -0.0891337 14.747 0.191408L9.44 1.73441C8.91369 1.87763 8.35369 1.83017 7.859 1.60041L7.359 1.37041C6.55122 1.03468 5.67309 0.903399 4.80244 0.988205C3.93178 1.07301 3.0955 1.37128 2.36769 1.85659C1.63988 2.34189 1.04302 2.99924 0.630019 3.77038C0.217015 4.54152 0.00061638 5.40264 0 6.27741L0 17.8004C0.00231329 18.9489 0.375654 20.0658 1.06439 20.9849C1.75312 21.9039 2.72037 22.5758 3.822 22.9004L6.562 23.7574C7.07541 23.9178 7.61011 23.9998 8.148 24.0004C8.62579 23.9908 9.1009 23.9264 9.564 23.8084L15.1 22.2804C15.5093 22.1685 15.9416 22.1719 16.349 22.2904L18.608 22.9414C19.25 23.0972 19.9189 23.1052 20.5644 22.9648C21.2099 22.8244 21.8151 22.5392 22.3343 22.1308C22.8535 21.7224 23.2732 21.2015 23.5618 20.6072C23.8503 20.013 24.0002 19.361 24 18.7004V6.15441C23.9984 5.05774 23.6584 3.98829 23.0265 3.09201C22.3945 2.19573 21.5014 1.51628 20.469 1.14641ZM14 3.53441V19.4704L10 20.5754V4.66841L14 3.53441ZM4.682 20.0274C4.19848 19.8881 3.77317 19.5957 3.4699 19.1942C3.16663 18.7927 3.00175 18.3036 3 17.8004V6.27741C2.99697 5.89522 3.08985 5.51838 3.27014 5.18138C3.45043 4.84437 3.71238 4.55798 4.032 4.34841C4.41609 4.08913 4.86859 3.9499 5.332 3.94841C5.61432 3.94772 5.894 4.00277 6.155 4.11041L7 4.46441V20.7524L4.682 20.0274ZM21 18.7004C20.9998 18.9017 20.9551 19.1004 20.8692 19.2824C20.7833 19.4644 20.6583 19.6252 20.5031 19.7533C20.3478 19.8814 20.1662 19.9737 19.9712 20.0235C19.7762 20.0733 19.5726 20.0794 19.375 20.0414L17 19.3704V3.15341L19.475 3.97641C19.9215 4.13974 20.3072 4.43617 20.5799 4.82565C20.8526 5.21514 20.9993 5.67894 21 6.15441V18.7004Z" fill="#374957"/>
</g>
<defs>
<clipPath id="clip0_405_1451">
<rect width="24" height="24" fill="white"/>
</clipPath>
</defs>
</svg>
