<svg width="24" height="24" viewBox="0 0 24 24" fill="none" xmlns="http://www.w3.org/2000/svg">
<g clip-path="url(#clip0_405_1397)">
<path d="M12 0C9.62663 0 7.30655 0.703788 5.33316 2.02236C3.35977 3.34094 1.8217 5.21509 0.913451 7.4078C0.00519943 9.60051 -0.232441 12.0133 0.230582 14.3411C0.693605 16.6689 1.83649 18.8071 3.51472 20.4853C5.19295 22.1635 7.33115 23.3064 9.65892 23.7694C11.9867 24.2324 14.3995 23.9948 16.5922 23.0866C18.7849 22.1783 20.6591 20.6402 21.9776 18.6668C23.2962 16.6935 24 14.3734 24 12C23.9966 8.81846 22.7312 5.76821 20.4815 3.51852C18.2318 1.26883 15.1815 0.00344108 12 0V0ZM13.5 20.865V19.5C13.5 19.1022 13.342 18.7206 13.0607 18.4393C12.7794 18.158 12.3978 18 12 18C11.6022 18 11.2206 18.158 10.9393 18.4393C10.658 18.7206 10.5 19.1022 10.5 19.5V20.865C8.66116 20.5504 6.96522 19.6731 5.64608 18.3539C4.32693 17.0348 3.44957 15.3388 3.13501 13.5H4.50001C4.89783 13.5 5.27936 13.342 5.56067 13.0607C5.84197 12.7794 6.00001 12.3978 6.00001 12C6.00001 11.6022 5.84197 11.2206 5.56067 10.9393C5.27936 10.658 4.89783 10.5 4.50001 10.5H3.13501C3.44957 8.66116 4.32693 6.96522 5.64608 5.64607C6.96522 4.32693 8.66116 3.44957 10.5 3.135V4.5C10.5 4.89783 10.658 5.27936 10.9393 5.56066C11.2206 5.84197 11.6022 6 12 6C12.3978 6 12.7794 5.84197 13.0607 5.56066C13.342 5.27936 13.5 4.89783 13.5 4.5V3.135C15.3391 3.44901 17.0353 4.32619 18.3546 5.64543C19.6738 6.96468 20.551 8.66092 20.865 10.5H19.5C19.1022 10.5 18.7207 10.658 18.4393 10.9393C18.158 11.2206 18 11.6022 18 12C18 12.3978 18.158 12.7794 18.4393 13.0607C18.7207 13.342 19.1022 13.5 19.5 13.5H20.865C20.551 15.3391 19.6738 17.0353 18.3546 18.3546C17.0353 19.6738 15.3391 20.551 13.5 20.865ZM16 12C16 12.3978 15.842 12.7794 15.5607 13.0607C15.2794 13.342 14.8978 13.5 14.5 13.5H13.5V14.5C13.5 14.8978 13.342 15.2794 13.0607 15.5607C12.7794 15.842 12.3978 16 12 16C11.6022 16 11.2206 15.842 10.9393 15.5607C10.658 15.2794 10.5 14.8978 10.5 14.5V13.5H9.50001C9.10218 13.5 8.72065 13.342 8.43935 13.0607C8.15804 12.7794 8.00001 12.3978 8.00001 12C8.00001 11.6022 8.15804 11.2206 8.43935 10.9393C8.72065 10.658 9.10218 10.5 9.50001 10.5H10.5V9.5C10.5 9.10218 10.658 8.72064 10.9393 8.43934C11.2206 8.15804 11.6022 8 12 8C12.3978 8 12.7794 8.15804 13.0607 8.43934C13.342 8.72064 13.5 9.10218 13.5 9.5V10.5H14.5C14.8978 10.5 15.2794 10.658 15.5607 10.9393C15.842 11.2206 16 11.6022 16 12Z" fill="#374957"/>
</g>
<defs>
<clipPath id="clip0_405_1397">
<rect width="24" height="24" fill="white"/>
</clipPath>
</defs>
</svg>
