<svg width="24" height="24" viewBox="0 0 24 24" fill="none" xmlns="http://www.w3.org/2000/svg">
<g clip-path="url(#clip0_405_1736)">
<path d="M14.1211 12.0002L23.5608 2.56161C24.1467 1.97565 24.1467 1.02563 23.5608 0.439714C22.9748 -0.146246 22.0248 -0.146246 21.4389 0.439714L12.0002 9.8793L2.56161 0.439714C1.97565 -0.146246 1.02563 -0.146246 0.439714 0.439714C-0.146199 1.02567 -0.146246 1.9757 0.439714 2.56161L9.8793 12.0002L0.439714 21.4389C-0.146246 22.0248 -0.146246 22.9748 0.439714 23.5608C1.02567 24.1467 1.9757 24.1467 2.56161 23.5608L12.0002 14.1211L21.4388 23.5608C22.0248 24.1467 22.9748 24.1467 23.5607 23.5608C24.1467 22.9748 24.1467 22.0248 23.5607 21.4389L14.1211 12.0002Z" fill="#374957"/>
</g>
<defs>
<clipPath id="clip0_405_1736">
<rect width="24" height="24" fill="white"/>
</clipPath>
</defs>
</svg>
