<svg width="24" height="24" viewBox="0 0 24 24" fill="none" xmlns="http://www.w3.org/2000/svg">
<g clip-path="url(#clip0_405_1402)">
<path d="M22.5 21H5.5C4.83696 21 4.20107 20.7366 3.73223 20.2678C3.26339 19.7989 3 19.163 3 18.5V1.5C3 1.10218 2.84196 0.720644 2.56066 0.43934C2.27936 0.158035 1.89782 0 1.5 0C1.10218 0 0.720644 0.158035 0.43934 0.43934C0.158035 0.720644 0 1.10218 0 1.5L0 18.5C0.00158817 19.9582 0.581561 21.3562 1.61267 22.3873C2.64377 23.4184 4.0418 23.9984 5.5 24H22.5C22.8978 24 23.2794 23.842 23.5607 23.5607C23.842 23.2794 24 22.8978 24 22.5C24 22.1022 23.842 21.7206 23.5607 21.4393C23.2794 21.158 22.8978 21 22.5 21Z" fill="#374957"/>
<path d="M9.50012 9C9.1023 9 8.72077 9.15804 8.43946 9.43934C8.15816 9.72064 8.00012 10.1022 8.00012 10.5V17.5C8.00012 17.8978 8.15816 18.2794 8.43946 18.5607C8.72077 18.842 9.1023 19 9.50012 19C9.89795 19 10.2795 18.842 10.5608 18.5607C10.8421 18.2794 11.0001 17.8978 11.0001 17.5V10.5C11.0001 10.1022 10.8421 9.72064 10.5608 9.43934C10.2795 9.15804 9.89795 9 9.50012 9Z" fill="#374957"/>
<path d="M14.0001 13.5V17.5C14.0001 17.8978 14.1582 18.2794 14.4395 18.5607C14.7208 18.842 15.1023 19 15.5001 19C15.8979 19 16.2795 18.842 16.5608 18.5607C16.8421 18.2794 17.0001 17.8978 17.0001 17.5V13.5C17.0001 13.1022 16.8421 12.7206 16.5608 12.4393C16.2795 12.158 15.8979 12 15.5001 12C15.1023 12 14.7208 12.158 14.4395 12.4393C14.1582 12.7206 14.0001 13.1022 14.0001 13.5Z" fill="#374957"/>
<path d="M20.0002 9.49988V17.4999C20.0002 17.8977 20.1582 18.2792 20.4395 18.5605C20.7208 18.8418 21.1024 18.9999 21.5002 18.9999C21.898 18.9999 22.2795 18.8418 22.5608 18.5605C22.8421 18.2792 23.0002 17.8977 23.0002 17.4999V9.49988C23.0002 9.10205 22.8421 8.72052 22.5608 8.43922C22.2795 8.15791 21.898 7.99988 21.5002 7.99988C21.1024 7.99988 20.7208 8.15791 20.4395 8.43922C20.1582 8.72052 20.0002 9.10205 20.0002 9.49988Z" fill="#374957"/>
<path d="M6.00019 7.50004C6.34065 7.50076 6.67105 7.38462 6.93619 7.17104L9.21418 5.35004C9.67417 4.98075 10.2544 4.79445 10.8434 4.82694C11.4324 4.85942 11.9886 5.1084 12.4052 5.52604C13.3666 6.47522 14.6473 7.03192 15.9972 7.0874C17.347 7.14287 18.6691 6.69313 19.7052 5.82604L23.4692 2.64103C23.6295 2.51708 23.7631 2.36191 23.8618 2.1849C23.9606 2.00789 24.0224 1.8127 24.0436 1.61112C24.0648 1.40955 24.0449 1.20577 23.9852 1.01209C23.9255 0.818404 23.8271 0.638839 23.696 0.484234C23.5649 0.329629 23.4039 0.20319 23.2226 0.112554C23.0413 0.0219174 22.8435 -0.0310371 22.6412 -0.0431121C22.4389 -0.055187 22.2362 -0.026132 22.0454 0.0422987C21.8546 0.110729 21.6797 0.217116 21.5312 0.355035L17.7682 3.54004C17.3073 3.92435 16.7196 4.12298 16.1201 4.09709C15.5206 4.0712 14.9522 3.82265 14.5262 3.40004C13.5882 2.45947 12.336 1.89843 11.0097 1.82461C9.6835 1.75078 8.37671 2.16937 7.34018 3.00004L5.06319 4.82904C4.8206 5.02324 4.64431 5.28798 4.55868 5.5867C4.47306 5.88541 4.48231 6.20335 4.58518 6.49658C4.68804 6.7898 4.87944 7.04384 5.13292 7.2236C5.38639 7.40335 5.68944 7.49995 6.00019 7.50004Z" fill="#374957"/>
</g>
<defs>
<clipPath id="clip0_405_1402">
<rect width="24" height="24" fill="white"/>
</clipPath>
</defs>
</svg>
