<svg width="24" height="24" viewBox="0 0 24 24" fill="none" xmlns="http://www.w3.org/2000/svg">
<g clip-path="url(#clip0_405_1426)">
<path d="M15.9999 9.99999C17.1045 9.99999 17.9999 9.10456 17.9999 8C17.9999 6.89543 17.1045 6 15.9999 6C14.8953 6 13.9999 6.89543 13.9999 8C13.9999 9.10456 14.8953 9.99999 15.9999 9.99999Z" fill="#374957"/>
<path d="M9.00006 9.99999C10.1046 9.99999 11.0001 9.10456 11.0001 8C11.0001 6.89543 10.1046 6 9.00006 6C7.89549 6 7.00006 6.89543 7.00006 8C7.00006 9.10456 7.89549 9.99999 9.00006 9.99999Z" fill="#374957"/>
<path d="M8 17.0003C9.10456 17.0003 9.99999 16.1049 9.99999 15.0003C9.99999 13.8957 9.10456 13.0003 8 13.0003C6.89543 13.0003 6 13.8957 6 15.0003C6 16.1049 6.89543 17.0003 8 17.0003Z" fill="#374957"/>
<path d="M24.036 10.9283C23.745 8.02621 22.4192 5.32575 20.301 3.32066C18.1828 1.31558 15.4137 0.139822 12.5 0.00834892C10.9059 -0.0498234 9.31619 0.210407 7.82386 0.773825C6.33153 1.33724 4.9665 2.19254 3.8086 3.2897C2.6507 4.38686 1.72317 5.70387 1.08024 7.16371C0.437306 8.62355 0.0918804 10.1969 0.0641597 11.7918C0.0364389 13.3867 0.326979 14.9712 0.918792 16.4525C1.5106 17.9338 2.39181 19.2822 3.51088 20.4189C4.62996 21.5557 5.96444 22.4579 7.43629 23.0728C8.90814 23.6878 10.4878 24.0031 12.083 24.0003C12.421 24.0003 12.752 23.9783 13.083 23.9513C13.4603 23.9201 13.8119 23.7472 14.0671 23.4675C14.3223 23.1878 14.4623 22.822 14.459 22.4433L14.429 19.0183C14.424 18.4509 14.5881 17.8947 14.9003 17.4208C15.2125 16.9469 15.6586 16.5766 16.182 16.357C16.7053 16.1375 17.2821 16.0787 17.839 16.1881C18.3959 16.2975 18.9076 16.5702 19.309 16.9713L19.409 17.0713C19.6908 17.3536 20.039 17.5605 20.4217 17.673C20.8044 17.7856 21.2092 17.8001 21.599 17.7153C21.9824 17.633 22.3391 17.4557 22.6363 17.1997C22.9334 16.9438 23.1616 16.6174 23.3 16.2503C23.9475 14.5556 24.1992 12.7353 24.036 10.9283ZM20.787 14.2943C19.9121 13.6431 18.8728 13.2489 17.786 13.1561C16.6993 13.0634 15.6082 13.2758 14.6356 13.7694C13.663 14.263 12.8475 15.0183 12.2808 15.9502C11.7141 16.8821 11.4188 17.9537 11.428 19.0443L11.445 20.9773C9.12019 20.8108 6.95067 19.7489 5.39302 18.0152C3.83537 16.2814 3.01107 14.0109 3.0936 11.6816C3.17614 9.35237 4.15907 7.14596 5.83554 5.52677C7.512 3.90758 9.75124 3.0019 12.082 3.00035C12.182 3.00035 12.294 3.00035 12.4 3.00635C14.584 3.10512 16.6595 3.98644 18.2474 5.48926C19.8352 6.99208 20.8293 9.01606 21.048 11.1913C21.1427 12.233 21.0543 13.2832 20.787 14.2943Z" fill="#374957"/>
</g>
<defs>
<clipPath id="clip0_405_1426">
<rect width="24" height="24" fill="white"/>
</clipPath>
</defs>
</svg>
