<svg width="24" height="24" viewBox="0 0 24 24" fill="none" xmlns="http://www.w3.org/2000/svg">
<g clip-path="url(#clip0_405_1701)">
<path d="M24.0002 21C24.0011 21.394 23.9244 21.7843 23.7745 22.1486C23.6246 22.5129 23.4044 22.8441 23.1265 23.1234C22.8485 23.4026 22.5183 23.6243 22.1547 23.776C21.7911 23.9276 21.4012 24.0061 21.0072 24.007C20.6132 24.0079 20.2229 23.9312 19.8586 23.7813C19.4943 23.6314 19.1631 23.4112 18.8838 23.1333C18.3199 22.572 18.0021 21.8096 18.0002 21.014L15.5002 19.584C15.0461 19.8536 14.5283 19.9972 14.0002 20C13.2045 20 12.4415 19.6839 11.8789 19.1213C11.3163 18.5587 11.0002 17.7956 11.0002 17C11.0002 16.2043 11.3163 15.4413 11.8789 14.8787C12.4415 14.3161 13.2045 14 14.0002 14C14.5283 14.0028 15.0461 14.1464 15.5002 14.416L18.0002 12.986C18.003 12.3933 18.1813 11.8146 18.5126 11.3231C18.8439 10.8316 19.3134 10.4493 19.8618 10.2244C20.4102 9.99944 21.013 9.94203 21.594 10.0594C22.175 10.1767 22.7083 10.4635 23.1264 10.8836C23.5446 11.3037 23.8289 11.8383 23.9435 12.4199C24.0582 13.0014 23.9979 13.6039 23.7705 14.1513C23.543 14.6986 23.1585 15.1663 22.6654 15.4954C22.1724 15.8244 21.5929 16 21.0002 16C20.4721 15.9972 19.9543 15.8536 19.5002 15.584L17.0232 17L19.5002 18.416C19.9543 18.1464 20.4721 18.0028 21.0002 18C21.7958 18 22.5589 18.3161 23.1215 18.8787C23.6841 19.4413 24.0002 20.2043 24.0002 21ZM9.3082 3.057C9.99279 2.95329 10.6912 2.98736 11.3625 3.15719C12.0337 3.32702 12.6643 3.6292 13.2172 4.046C13.7613 4.45395 14.2184 4.96641 14.5618 5.55333C14.9053 6.14026 15.1281 6.78984 15.2172 7.464C15.2609 7.79056 15.4109 8.09364 15.6441 8.32644C15.8772 8.55923 16.1806 8.70878 16.5072 8.752C16.8475 8.79772 17.1825 8.87711 17.5072 8.989C17.8834 9.11842 18.2956 9.0931 18.6532 8.9186C19.0107 8.74409 19.2843 8.43471 19.4137 8.0585C19.5431 7.68229 19.5178 7.27007 19.3433 6.91253C19.1688 6.555 18.8594 6.28142 18.4832 6.152C18.3139 6.094 18.1422 6.04133 17.9682 5.994C17.436 4.06989 16.2182 2.40698 14.5445 1.31884C12.8707 0.230712 10.8567 -0.207446 8.8822 0.0869957C7.2221 0.333433 5.68047 1.09238 4.47278 2.25776C3.26508 3.42315 2.45166 4.93674 2.1462 6.587C1.82963 8.21284 2.01843 9.89663 2.6872 11.412C1.65835 12.0633 0.862257 13.0238 0.413122 14.1556C-0.036014 15.2874 -0.115105 16.5324 0.187196 17.712C0.540253 18.9658 1.29938 20.067 2.34557 20.843C3.39176 21.619 4.66588 22.026 5.9682 22H8.5002C8.89802 22 9.27955 21.842 9.56086 21.5607C9.84216 21.2794 10.0002 20.8978 10.0002 20.5C10.0002 20.1022 9.84216 19.7206 9.56086 19.4393C9.27955 19.158 8.89802 19 8.5002 19H5.9682C5.33262 19.0188 4.70821 18.8301 4.18947 18.4624C3.67073 18.0946 3.28589 17.568 3.0932 16.962C2.93712 16.35 2.99528 15.703 3.25799 15.1286C3.5207 14.5543 3.97213 14.0872 4.5372 13.805C5.11549 13.4935 5.54673 12.9655 5.73643 12.3366C5.92612 11.7077 5.85879 11.0293 5.5492 10.45C5.03336 9.43165 4.87285 8.27007 5.0932 7.15C5.28132 6.11346 5.78876 5.16167 6.54453 4.42777C7.3003 3.69388 8.26659 3.2146 9.3082 3.057Z" fill="#374957"/>
</g>
<defs>
<clipPath id="clip0_405_1701">
<rect width="24" height="24" fill="white"/>
</clipPath>
</defs>
</svg>
