<svg width="24" height="24" viewBox="0 0 24 24" fill="none" xmlns="http://www.w3.org/2000/svg">
<g clip-path="url(#clip0_405_1801)">
<path d="M11.5 16C11.1022 16 10.7206 16.158 10.4393 16.4393C10.158 16.7206 10 17.1022 10 17.5V18.3C10 19.0161 9.71554 19.7028 9.20919 20.2092C8.70284 20.7155 8.01608 21 7.3 21H5.7C4.98392 21 4.29716 20.7155 3.79081 20.2092C3.28446 19.7028 3 19.0161 3 18.3V5.7C3 4.98392 3.28446 4.29716 3.79081 3.79081C4.29716 3.28446 4.98392 3 5.7 3H7.3C8.01608 3 8.70284 3.28446 9.20919 3.79081C9.71554 4.29716 10 4.98392 10 5.7V6.5C10 6.89782 10.158 7.27936 10.4393 7.56066C10.7206 7.84196 11.1022 8 11.5 8C11.8978 8 12.2794 7.84196 12.5607 7.56066C12.842 7.27936 13 6.89782 13 6.5V5.7C12.9984 4.18875 12.3974 2.73986 11.3288 1.67125C10.2601 0.602632 8.81125 0.00158828 7.3 0L5.7 0C4.18875 0.00158828 2.73986 0.602632 1.67125 1.67125C0.602632 2.73986 0.00158828 4.18875 0 5.7L0 18.3C0.00158828 19.8112 0.602632 21.2601 1.67125 22.3288C2.73986 23.3974 4.18875 23.9984 5.7 24H7.3C8.81125 23.9984 10.2601 23.3974 11.3288 22.3288C12.3974 21.2601 12.9984 19.8112 13 18.3V17.5C13 17.1022 12.842 16.7206 12.5607 16.4393C12.2794 16.158 11.8978 16 11.5 16Z" fill="#374957"/>
<path d="M22.5609 9.52427L17.9748 4.93827C17.8355 4.79901 17.6701 4.68855 17.4881 4.6132C17.3061 4.53785 17.111 4.4991 16.914 4.49915C16.717 4.49919 16.5219 4.53804 16.3399 4.61347C16.158 4.6889 15.9926 4.79944 15.8533 4.93877C15.5721 5.22017 15.4141 5.60177 15.4142 5.99963C15.4143 6.19663 15.4531 6.39169 15.5285 6.57367C15.604 6.75566 15.7145 6.92101 15.8538 7.06027L19.2648 10.4713L6.99985 10.4993C6.60202 10.4993 6.22049 10.6573 5.93919 10.9386C5.65788 11.2199 5.49985 11.6014 5.49985 11.9993C5.49985 12.3971 5.65788 12.7786 5.93919 13.0599C6.22049 13.3412 6.60202 13.4993 6.99985 13.4993L19.3179 13.4713L15.8508 16.9383C15.5695 17.2195 15.4113 17.6011 15.4112 17.9989C15.4111 18.3968 15.5691 18.7784 15.8503 19.0598C16.1316 19.3412 16.5131 19.4993 16.911 19.4994C17.3089 19.4995 17.6905 19.3415 17.9718 19.0603L22.5578 14.4743C23.2135 13.8176 23.582 12.9278 23.5825 11.9999C23.5831 11.072 23.2157 10.1817 22.5609 9.52427Z" fill="#374957"/>
</g>
<defs>
<clipPath id="clip0_405_1801">
<rect width="24" height="24" fill="white"/>
</clipPath>
</defs>
</svg>
