<svg width="24" height="24" viewBox="0 0 24 24" fill="none" xmlns="http://www.w3.org/2000/svg">
<g clip-path="url(#clip0_405_1726)">
<path d="M18.5 24C18.1022 24 17.7206 23.842 17.4393 23.5607C17.158 23.2794 17 22.8978 17 22.5C17 22.1022 17.158 21.7206 17.4393 21.4393C17.7206 21.158 18.1022 21 18.5 21C19.163 21 19.7989 20.7366 20.2678 20.2678C20.7366 19.7989 21 19.163 21 18.5C21 18.1022 21.158 17.7206 21.4393 17.4393C21.7206 17.158 22.1022 17 22.5 17C22.8978 17 23.2794 17.158 23.5607 17.4393C23.842 17.7206 24 18.1022 24 18.5C23.9984 19.9582 23.4184 21.3562 22.3873 22.3873C21.3562 23.4184 19.9582 23.9984 18.5 24ZM24 5.5C23.9984 4.0418 23.4184 2.64377 22.3873 1.61267C21.3562 0.581561 19.9582 0.00158817 18.5 0C18.1022 0 17.7206 0.158035 17.4393 0.43934C17.158 0.720644 17 1.10218 17 1.5C17 1.89782 17.158 2.27936 17.4393 2.56066C17.7206 2.84196 18.1022 3 18.5 3C19.163 3 19.7989 3.26339 20.2678 3.73223C20.7366 4.20107 21 4.83696 21 5.5C21 5.89782 21.158 6.27936 21.4393 6.56066C21.7206 6.84196 22.1022 7 22.5 7C22.8978 7 23.2794 6.84196 23.5607 6.56066C23.842 6.27936 24 5.89782 24 5.5ZM24 13.5V10.5C24 10.1022 23.842 9.72064 23.5607 9.43934C23.2794 9.15804 22.8978 9 22.5 9C22.1022 9 21.7206 9.15804 21.4393 9.43934C21.158 9.72064 21 10.1022 21 10.5V13.5C21 13.8978 21.158 14.2794 21.4393 14.5607C21.7206 14.842 22.1022 15 22.5 15C22.8978 15 23.2794 14.842 23.5607 14.5607C23.842 14.2794 24 13.8978 24 13.5ZM7 22.5C7 22.1022 6.84196 21.7206 6.56066 21.4393C6.27936 21.158 5.89782 21 5.5 21C4.83696 21 4.20107 20.7366 3.73223 20.2678C3.26339 19.7989 3 19.163 3 18.5C3 18.1022 2.84196 17.7206 2.56066 17.4393C2.27936 17.158 1.89782 17 1.5 17C1.10218 17 0.720644 17.158 0.43934 17.4393C0.158035 17.7206 0 18.1022 0 18.5C0.00158817 19.9582 0.581561 21.3562 1.61267 22.3873C2.64377 23.4184 4.0418 23.9984 5.5 24C5.89782 24 6.27936 23.842 6.56066 23.5607C6.84196 23.2794 7 22.8978 7 22.5ZM3 5.5C3 4.83696 3.26339 4.20107 3.73223 3.73223C4.20107 3.26339 4.83696 3 5.5 3C5.89782 3 6.27936 2.84196 6.56066 2.56066C6.84196 2.27936 7 1.89782 7 1.5C7 1.10218 6.84196 0.720644 6.56066 0.43934C6.27936 0.158035 5.89782 0 5.5 0C4.0418 0.00158817 2.64377 0.581561 1.61267 1.61267C0.581561 2.64377 0.00158817 4.0418 0 5.5C0 5.89782 0.158035 6.27936 0.43934 6.56066C0.720644 6.84196 1.10218 7 1.5 7C1.89782 7 2.27936 6.84196 2.56066 6.56066C2.84196 6.27936 3 5.89782 3 5.5ZM3 13.5V10.5C3 10.1022 2.84196 9.72064 2.56066 9.43934C2.27936 9.15804 1.89782 9 1.5 9C1.10218 9 0.720644 9.15804 0.43934 9.43934C0.158035 9.72064 0 10.1022 0 10.5L0 13.5C0 13.8978 0.158035 14.2794 0.43934 14.5607C0.720644 14.842 1.10218 15 1.5 15C1.89782 15 2.27936 14.842 2.56066 14.5607C2.84196 14.2794 3 13.8978 3 13.5ZM15 1.5C15 1.10218 14.842 0.720644 14.5607 0.43934C14.2794 0.158035 13.8978 0 13.5 0L10.5 0C10.1022 0 9.72064 0.158035 9.43934 0.43934C9.15804 0.720644 9 1.10218 9 1.5C9 1.89782 9.15804 2.27936 9.43934 2.56066C9.72064 2.84196 10.1022 3 10.5 3H13.5C13.8978 3 14.2794 2.84196 14.5607 2.56066C14.842 2.27936 15 1.89782 15 1.5ZM15 22.5C15 22.1022 14.842 21.7206 14.5607 21.4393C14.2794 21.158 13.8978 21 13.5 21H10.5C10.1022 21 9.72064 21.158 9.43934 21.4393C9.15804 21.7206 9 22.1022 9 22.5C9 22.8978 9.15804 23.2794 9.43934 23.5607C9.72064 23.842 10.1022 24 10.5 24H13.5C13.8978 24 14.2794 23.842 14.5607 23.5607C14.842 23.2794 15 22.8978 15 22.5Z" fill="#374957"/>
</g>
<defs>
<clipPath id="clip0_405_1726">
<rect width="24" height="24" fill="white"/>
</clipPath>
</defs>
</svg>
