<svg width="24" height="24" viewBox="0 0 24 24" fill="none" xmlns="http://www.w3.org/2000/svg">
<g clip-path="url(#clip0_405_1756)">
<path d="M16.061 7.93894C15.4754 7.35296 14.5257 7.35268 13.9397 7.93829C13.9395 7.93852 13.9392 7.93876 13.939 7.93894L12 9.87896L10.061 7.93894C9.47504 7.35296 8.52498 7.35296 7.93905 7.93894C7.35311 8.52493 7.35306 9.47499 7.93905 10.0609L9.87901 12L7.939 13.9389C7.35302 14.5249 7.35302 15.475 7.939 16.0609C8.52498 16.6469 9.47504 16.6469 10.061 16.0609L12 14.121L13.939 16.061C14.525 16.647 15.475 16.647 16.061 16.061C16.647 15.475 16.647 14.5249 16.061 13.939L14.121 12L16.061 10.061C16.647 9.47537 16.6473 8.52563 16.0617 7.93965C16.0614 7.93941 16.0613 7.93918 16.061 7.93894Z" fill="#374957"/>
<path d="M12 0C5.37258 0 0 5.37258 0 12C0 18.6274 5.37258 24 12 24C18.6274 24 24 18.6274 24 12C23.9928 5.37553 18.6245 0.00717187 12 0ZM12 21C7.02942 21 3 16.9706 3 12C3 7.02942 7.02942 3 12 3C16.9706 3 21 7.02942 21 12C20.9945 16.9683 16.9683 20.9945 12 21Z" fill="#374957"/>
</g>
<defs>
<clipPath id="clip0_405_1756">
<rect width="24" height="24" fill="white"/>
</clipPath>
</defs>
</svg>
