<svg width="24" height="24" viewBox="0 0 24 24" fill="none" xmlns="http://www.w3.org/2000/svg">
<g clip-path="url(#clip0_405_1508)">
<path d="M11 14.9997C12.1046 14.9997 13 14.1043 13 12.9998C13 11.8952 12.1046 10.9998 11 10.9998C9.89543 10.9998 9 11.8952 9 12.9998C9 14.1043 9.89543 14.9997 11 14.9997Z" fill="#374957"/>
<path d="M7.56087 14.4391C7.27948 14.1577 6.89782 13.9996 6.49987 13.9996C6.10192 13.9996 5.72027 14.1577 5.43887 14.4391C5.15748 14.7205 4.99939 15.1022 4.99939 15.5001C4.99939 15.8981 5.15748 16.2797 5.43887 16.5611L7.43887 18.5611C7.5782 18.7004 7.74361 18.811 7.92566 18.8864C8.10771 18.9618 8.30282 19.0006 8.49987 19.0006C8.69692 19.0006 8.89203 18.9618 9.07408 18.8864C9.25613 18.811 9.42154 18.7004 9.56087 18.5611C9.7002 18.4218 9.81073 18.2564 9.88613 18.0743C9.96154 17.8923 10.0004 17.6971 10.0004 17.5001C10.0004 17.3031 9.96154 17.1079 9.88613 16.9259C9.81073 16.7439 9.7002 16.5784 9.56087 16.4391L7.56087 14.4391Z" fill="#374957"/>
<path d="M23.379 0.621161C22.9811 0.223503 22.4416 0.00012207 21.879 0.00012207C21.3165 0.00012207 20.7769 0.223503 20.379 0.621161L20.121 0.879161C19.4117 1.59066 18.8583 2.44207 18.496 3.37916L16.713 5.16616C15.5196 4.32203 14.0718 3.91477 12.6132 4.01294C11.1547 4.11111 9.77456 4.70871 8.705 5.70516C8.52922 5.88062 8.36582 6.06807 8.216 6.26616C8.07819 6.46799 7.90072 6.63963 7.69441 6.77064C7.4881 6.90164 7.25728 6.98926 7.016 7.02816C5.20377 7.15366 3.49765 7.92878 2.211 9.21116C-0.939997 12.3622 -0.682997 17.7472 2.785 21.2112C4.50802 22.9647 6.85574 23.964 9.314 23.9902C10.3267 24.0037 11.3321 23.8162 12.2719 23.4386C13.2116 23.0609 14.0672 22.5007 14.789 21.7902C16.0725 20.5022 16.8477 18.7942 16.972 16.9802C17.0115 16.7398 17.0995 16.5099 17.2304 16.3045C17.3614 16.0991 17.5327 15.9224 17.734 15.7852C17.9337 15.6368 18.1228 15.4748 18.3 15.3002C19.2965 14.2306 19.8941 12.8504 19.9922 11.3919C20.0904 9.93341 19.6831 8.48561 18.839 7.29216L20.617 5.50016C21.5541 5.1379 22.4055 4.58449 23.117 3.87516L23.375 3.61716C23.7727 3.21925 23.996 2.67972 23.996 2.11716C23.996 1.55461 23.7727 1.01507 23.375 0.617161L23.379 0.621161ZM16.174 13.1742C16.095 13.2531 16.0109 13.3266 15.922 13.3942C15.3786 13.7817 14.9242 14.2809 14.5895 14.8583C14.2547 15.4357 14.0473 16.078 13.981 16.7422C13.9103 17.8439 13.444 18.8829 12.668 19.6682C10.686 21.6502 7.204 21.3922 4.906 19.0942C2.608 16.7962 2.351 13.3132 4.332 11.3322C5.11696 10.5564 6.15565 10.0901 7.257 10.0192C7.92132 9.95304 8.56383 9.74564 9.14143 9.41088C9.71904 9.07611 10.2184 8.62172 10.606 8.07816C10.6736 7.98931 10.7471 7.90512 10.826 7.82616C11.1031 7.55692 11.4309 7.34528 11.7903 7.2035C12.1497 7.06172 12.5337 6.99261 12.92 7.00016C13.4706 7.00751 14.013 7.13408 14.51 7.37116L13.439 8.44116C13.1576 8.72256 12.9995 9.10421 12.9995 9.50216C12.9995 9.69921 13.0383 9.89432 13.1137 10.0764C13.1891 10.2584 13.2997 10.4238 13.439 10.5632C13.5783 10.7025 13.7437 10.813 13.9258 10.8884C14.1078 10.9638 14.303 11.0026 14.5 11.0026C14.898 11.0026 15.2796 10.8446 15.561 10.5632L16.637 9.48716C16.9474 10.075 17.0694 10.7441 16.9866 11.4036C16.9038 12.0632 16.6201 12.6813 16.174 13.1742Z" fill="#374957"/>
</g>
<defs>
<clipPath id="clip0_405_1508">
<rect width="24" height="24" fill="white"/>
</clipPath>
</defs>
</svg>
