<svg width="24" height="24" viewBox="0 0 24 24" fill="none" xmlns="http://www.w3.org/2000/svg">
<g clip-path="url(#clip0_405_1632)">
<path d="M16.6519 15.548C16.903 15.8525 17.024 16.2437 16.9886 16.6368C16.9532 17.0299 16.7644 17.3932 16.4629 17.648C15.4796 18.4565 14.264 18.9301 12.9929 19C12.1889 18.992 11.4149 18.6932 10.8139 18.159C10.7389 18.0963 10.66 18.0382 10.5779 17.985C10.1749 18.1328 9.80213 18.3527 9.47791 18.634C9.17691 18.8884 8.78791 19.0141 8.39498 18.9839C8.00206 18.9538 7.63678 18.7702 7.3781 18.4729C7.11943 18.1756 6.98814 17.7885 7.01262 17.3952C7.03709 17.0018 7.21537 16.634 7.50891 16.371C8.37562 15.5886 9.47224 15.1076 10.6349 15C11.3863 15.0144 12.1074 15.2983 12.6669 15.8C12.9229 16 12.9369 16 12.9929 16C13.5615 15.9324 14.0993 15.7049 14.5439 15.344C14.8508 15.0922 15.2449 14.9722 15.6401 15.0104C16.0352 15.0487 16.399 15.242 16.6519 15.548ZM15.4999 10H8.49991C8.10208 10 7.72055 10.1581 7.43925 10.4394C7.15794 10.7207 6.99991 11.1022 6.99991 11.5C6.99991 11.8978 7.15794 12.2794 7.43925 12.5607C7.72055 12.842 8.10208 13 8.49991 13H15.4999C15.8977 13 16.2793 12.842 16.5606 12.5607C16.8419 12.2794 16.9999 11.8978 16.9999 11.5C16.9999 11.1022 16.8419 10.7207 16.5606 10.4394C16.2793 10.1581 15.8977 10 15.4999 10ZM21.9999 7.15702V18.5C21.9983 19.9582 21.4183 21.3562 20.3872 22.3874C19.3561 23.4185 17.9581 23.9984 16.4999 24H7.49991C6.04171 23.9984 4.64368 23.4185 3.61258 22.3874C2.58147 21.3562 2.0015 19.9582 1.99991 18.5V5.50002C2.0015 4.04182 2.58147 2.64379 3.61258 1.61269C4.64368 0.581581 6.04171 0.00160807 7.49991 1.99011e-05H14.8429C15.5655 -0.00193016 16.2812 0.139451 16.9488 0.415979C17.6163 0.692507 18.2224 1.09869 18.7319 1.61102L20.3889 3.26802C20.9012 3.77754 21.3074 4.38361 21.584 5.05115C21.8605 5.7187 22.0019 6.43447 21.9999 7.15702ZM18.9999 18.5V7.00002H16.9999C16.4695 7.00002 15.9608 6.78931 15.5857 6.41423C15.2106 6.03916 14.9999 5.53045 14.9999 5.00002V3.00002H7.49991C6.83687 3.00002 6.20098 3.26341 5.73214 3.73225C5.2633 4.20109 4.99991 4.83698 4.99991 5.50002V18.5C4.99991 19.1631 5.2633 19.7989 5.73214 20.2678C6.20098 20.7366 6.83687 21 7.49991 21H16.4999C17.1629 21 17.7988 20.7366 18.2677 20.2678C18.7365 19.7989 18.9999 19.1631 18.9999 18.5Z" fill="#374957"/>
</g>
<defs>
<clipPath id="clip0_405_1632">
<rect width="24" height="24" fill="white"/>
</clipPath>
</defs>
</svg>
