<svg width="24" height="24" viewBox="0 0 24 24" fill="none" xmlns="http://www.w3.org/2000/svg">
<g clip-path="url(#clip0_405_1481)">
<path d="M12 0C9.62663 0 7.30655 0.703788 5.33316 2.02236C3.35977 3.34094 1.8217 5.21509 0.913451 7.4078C0.00519943 9.60051 -0.232441 12.0133 0.230582 14.3411C0.693605 16.6689 1.83649 18.8071 3.51472 20.4853C5.19295 22.1635 7.33115 23.3064 9.65892 23.7694C11.9867 24.2324 14.3995 23.9948 16.5922 23.0866C18.7849 22.1783 20.6591 20.6402 21.9776 18.6668C23.2962 16.6935 24 14.3734 24 12C23.9966 8.81846 22.7312 5.76821 20.4815 3.51852C18.2318 1.26883 15.1815 0.00344108 12 0V0ZM12 21C10.22 21 8.47992 20.4722 6.99987 19.4832C5.51983 18.4943 4.36628 17.0887 3.68509 15.4442C3.0039 13.7996 2.82567 11.99 3.17294 10.2442C3.5202 8.49836 4.37737 6.89471 5.63604 5.63604C6.89472 4.37737 8.49836 3.5202 10.2442 3.17293C11.99 2.82567 13.7996 3.0039 15.4442 3.68508C17.0887 4.36627 18.4943 5.51983 19.4832 6.99987C20.4722 8.47991 21 10.22 21 12C20.9971 14.3861 20.0479 16.6736 18.3608 18.3607C16.6736 20.0479 14.3861 20.9971 12 21Z" fill="#374957"/>
<path d="M11.5452 9.54528H11.2452C10.8522 9.53562 10.4697 9.67312 10.1728 9.93081C9.8759 10.1885 9.68595 10.5478 9.6402 10.9383C9.61403 11.3289 9.74163 11.7143 9.99574 12.0121C10.2498 12.3099 10.6103 12.4966 11.0002 12.5323V17.1823C11.0002 17.5801 11.1582 17.9616 11.4395 18.2429C11.7208 18.5242 12.1024 18.6823 12.5002 18.6823C12.898 18.6823 13.2796 18.5242 13.5609 18.2429C13.8422 17.9616 14.0002 17.5801 14.0002 17.1823V12.0003C14.0002 11.3492 13.7416 10.7247 13.2812 10.2643C12.8208 9.80393 12.1963 9.54528 11.5452 9.54528Z" fill="#374957"/>
<path d="M11.8302 8.4663C12.1696 8.4663 12.5014 8.36566 12.7836 8.1771C13.0658 7.98855 13.2857 7.72055 13.4156 7.40699C13.5455 7.09343 13.5795 6.7484 13.5132 6.41553C13.447 6.08266 13.2836 5.77689 13.0436 5.53691C12.8036 5.29692 12.4979 5.13349 12.165 5.06727C11.8321 5.00106 11.4871 5.03505 11.1735 5.16493C10.86 5.29481 10.592 5.51475 10.4034 5.79694C10.2148 6.07914 10.1142 6.41091 10.1142 6.7503C10.1141 6.97569 10.1584 7.19889 10.2446 7.40714C10.3307 7.6154 10.4571 7.80462 10.6165 7.96399C10.7759 8.12336 10.9651 8.24976 11.1734 8.33595C11.3816 8.42214 11.6048 8.46643 11.8302 8.4663Z" fill="#374957"/>
</g>
<defs>
<clipPath id="clip0_405_1481">
<rect width="24" height="24" fill="white"/>
</clipPath>
</defs>
</svg>
