<svg width="24" height="24" viewBox="0 0 24 24" fill="none" xmlns="http://www.w3.org/2000/svg">
<g clip-path="url(#clip0_405_1348)">
<path d="M18.5 24H17.5C17.1022 24 16.7206 23.842 16.4393 23.5607C16.158 23.2794 16 22.8978 16 22.5C16 22.1022 16.158 21.7206 16.4393 21.4393C16.7206 21.158 17.1022 21 17.5 21H18.5C19.163 21 19.7989 20.7366 20.2678 20.2678C20.7366 19.7989 21 19.163 21 18.5V17.5C21 17.1022 21.158 16.7206 21.4393 16.4393C21.7206 16.158 22.1022 16 22.5 16C22.8978 16 23.2794 16.158 23.5607 16.4393C23.842 16.7206 24 17.1022 24 17.5V18.5C23.9984 19.9582 23.4184 21.3562 22.3873 22.3873C21.3562 23.4184 19.9582 23.9984 18.5 24ZM24 6.5V5.5C23.9984 4.0418 23.4184 2.64377 22.3873 1.61267C21.3562 0.581561 19.9582 0.00158817 18.5 0L17.5 0C17.1022 0 16.7206 0.158035 16.4393 0.43934C16.158 0.720644 16 1.10218 16 1.5C16 1.89782 16.158 2.27936 16.4393 2.56066C16.7206 2.84196 17.1022 3 17.5 3H18.5C19.163 3 19.7989 3.26339 20.2678 3.73223C20.7366 4.20107 21 4.83696 21 5.5V6.5C21 6.89782 21.158 7.27936 21.4393 7.56066C21.7206 7.84196 22.1022 8 22.5 8C22.8978 8 23.2794 7.84196 23.5607 7.56066C23.842 7.27936 24 6.89782 24 6.5ZM8 22.5C8 22.1022 7.84196 21.7206 7.56066 21.4393C7.27936 21.158 6.89782 21 6.5 21H5.5C4.83696 21 4.20107 20.7366 3.73223 20.2678C3.26339 19.7989 3 19.163 3 18.5V17.5C3 17.1022 2.84196 16.7206 2.56066 16.4393C2.27936 16.158 1.89782 16 1.5 16C1.10218 16 0.720644 16.158 0.43934 16.4393C0.158035 16.7206 0 17.1022 0 17.5L0 18.5C0.00158817 19.9582 0.581561 21.3562 1.61267 22.3873C2.64377 23.4184 4.0418 23.9984 5.5 24H6.5C6.89782 24 7.27936 23.842 7.56066 23.5607C7.84196 23.2794 8 22.8978 8 22.5ZM3 6.5V5.5C3 4.83696 3.26339 4.20107 3.73223 3.73223C4.20107 3.26339 4.83696 3 5.5 3H6.5C6.89782 3 7.27936 2.84196 7.56066 2.56066C7.84196 2.27936 8 1.89782 8 1.5C8 1.10218 7.84196 0.720644 7.56066 0.43934C7.27936 0.158035 6.89782 0 6.5 0L5.5 0C4.0418 0.00158817 2.64377 0.581561 1.61267 1.61267C0.581561 2.64377 0.00158817 4.0418 0 5.5L0 6.5C0 6.89782 0.158035 7.27936 0.43934 7.56066C0.720644 7.84196 1.10218 8 1.5 8C1.89782 8 2.27936 7.84196 2.56066 7.56066C2.84196 7.27936 3 6.89782 3 6.5ZM16 12C16 11.2089 15.7654 10.4355 15.3259 9.77772C14.8864 9.11992 14.2616 8.60723 13.5307 8.30448C12.7998 8.00173 11.9956 7.92252 11.2196 8.07686C10.4437 8.2312 9.73098 8.61216 9.17157 9.17157C8.61216 9.73098 8.2312 10.4437 8.07686 11.2196C7.92252 11.9956 8.00173 12.7998 8.30448 13.5307C8.60723 14.2616 9.11992 14.8864 9.77772 15.3259C10.4355 15.7654 11.2089 16 12 16C13.0609 16 14.0783 15.5786 14.8284 14.8284C15.5786 14.0783 16 13.0609 16 12Z" fill="#374957"/>
</g>
<defs>
<clipPath id="clip0_405_1348">
<rect width="24" height="24" fill="white"/>
</clipPath>
</defs>
</svg>
