<svg width="24" height="24" viewBox="0 0 24 24" fill="none" xmlns="http://www.w3.org/2000/svg">
<g clip-path="url(#clip0_405_1730)">
<path d="M22.4192 9.99988C21.3227 8.51093 19.7587 7.43248 17.9772 6.93687C17.4216 4.89957 16.1001 3.15584 14.2889 2.07012C12.4777 0.984396 10.3169 0.640704 8.25824 1.11087C7.08416 1.37936 5.98391 1.90398 5.03619 2.64722C4.08847 3.39045 3.31671 4.33394 2.77611 5.41018C2.2355 6.48643 1.9394 7.66884 1.909 8.87285C1.8786 10.0769 2.11464 11.2727 2.60024 12.3749C1.58562 13.0415 0.806606 14.0106 0.373674 15.1448C-0.0592575 16.279 -0.124135 17.5207 0.188241 18.6939C0.531649 19.9498 1.28424 21.0553 2.32684 21.8353C3.36943 22.6152 4.64244 23.0251 5.94424 22.9999H8.50024C8.89807 22.9999 9.2796 22.8418 9.5609 22.5605C9.84221 22.2792 10.0002 21.8977 10.0002 21.4999C10.0002 21.102 9.84221 20.7205 9.5609 20.4392C9.2796 20.1579 8.89807 19.9999 8.50024 19.9999H5.94424C5.31218 20.0171 4.69189 19.8267 4.17827 19.4579C3.66466 19.0892 3.286 18.5623 3.10024 17.9579C3.0029 17.6003 2.97753 17.2269 3.0256 16.8594C3.07367 16.4919 3.19423 16.1376 3.38027 15.817C3.56631 15.4965 3.81415 15.216 4.1094 14.992C4.40465 14.768 4.74144 14.6048 5.10024 14.5119C5.33822 14.4505 5.55747 14.3315 5.7387 14.1655C5.91993 13.9995 6.05758 13.7915 6.13956 13.5598C6.22153 13.328 6.24532 13.0798 6.20882 12.8367C6.17232 12.5936 6.07666 12.3633 5.93024 12.1659C5.45098 11.5194 5.12828 10.7706 4.98755 9.97829C4.84683 9.18597 4.8919 8.37181 5.11924 7.59987C5.36926 6.73618 5.84317 5.95393 6.49296 5.33242C7.14274 4.71091 7.94528 4.27224 8.81924 4.06087C9.23361 3.96391 9.65769 3.91459 10.0832 3.91387C11.2086 3.91051 12.304 4.27657 13.2012 4.95587C14.302 5.79115 15.0263 7.02907 15.2152 8.39787C15.2577 8.7258 15.4068 9.03068 15.6395 9.26558C15.8722 9.50048 16.1757 9.65237 16.5032 9.69788C17.1953 9.7927 17.8613 10.0253 18.4619 10.3818C19.0626 10.7384 19.5856 11.2117 20.0002 11.7739C20.4138 12.3369 20.7085 12.978 20.8667 13.6584C21.0248 14.3388 21.0431 15.0442 20.9202 15.7319C20.7932 16.4095 20.5283 17.0537 20.142 17.6247C19.7556 18.1956 19.256 18.6811 18.6742 19.0509C18.4665 19.1879 18.2962 19.3744 18.1785 19.5937C18.0609 19.813 17.9996 20.058 18.0002 20.3069C17.9981 20.5778 18.0686 20.8444 18.2045 21.0789C18.3404 21.3133 18.5367 21.507 18.7729 21.6398C19.0091 21.7726 19.2767 21.8396 19.5476 21.8338C19.8185 21.828 20.0829 21.7496 20.3132 21.6069C21.246 21.008 22.0444 20.2222 22.658 19.2991C23.2716 18.376 23.6871 17.3357 23.8782 16.2439C24.0712 15.1586 24.0414 14.0453 23.7906 12.9719C23.5398 11.8985 23.0732 10.8873 22.4192 9.99988Z" fill="#374957"/>
<path d="M15.5002 22.4999V16.9999H17.1632C17.3609 16.9999 17.5542 16.9412 17.7186 16.8313C17.883 16.7215 18.0112 16.5653 18.0869 16.3826C18.1625 16.1999 18.1823 15.9989 18.1438 15.8049C18.1052 15.611 18.01 15.4328 17.8702 15.2929L14.7072 12.1299C14.5197 11.9425 14.2653 11.8372 14.0002 11.8372C13.735 11.8372 13.4807 11.9425 13.2932 12.1299L10.1302 15.2929C9.99038 15.4328 9.89517 15.611 9.85661 15.8049C9.81804 15.9989 9.83784 16.1999 9.91351 16.3826C9.98918 16.5653 10.1173 16.7215 10.2817 16.8313C10.4461 16.9412 10.6394 16.9999 10.8372 16.9999H12.5002V22.4999C12.5002 22.8978 12.6582 23.2793 12.9395 23.5606C13.2208 23.8419 13.6024 23.9999 14.0002 23.9999C14.398 23.9999 14.7795 23.8419 15.0608 23.5606C15.3421 23.2793 15.5002 22.8978 15.5002 22.4999Z" fill="#374957"/>
</g>
<defs>
<clipPath id="clip0_405_1730">
<rect width="24" height="24" fill="white"/>
</clipPath>
</defs>
</svg>
