<svg width="24" height="24" viewBox="0 0 24 24" fill="none" xmlns="http://www.w3.org/2000/svg">
<g clip-path="url(#clip0_405_1342)">
<path d="M7.76027 6.65137L10.5411 3.86951L10.5621 17.5009C10.5621 18.3293 11.2337 19.0009 12.0621 19.0009C12.8905 19.0009 13.562 18.3293 13.562 17.5009L13.541 3.88652L16.3059 6.65142C16.8814 7.24727 17.831 7.26377 18.4268 6.68826C19.0227 6.11276 19.0392 5.1632 18.4637 4.56735C18.4516 4.55484 18.4393 4.54256 18.4268 4.53051L15.2149 1.31863C13.4577 -0.438682 10.6085 -0.438682 8.85123 1.31859L8.85119 1.31863L5.63936 4.53046C5.06385 5.12631 5.08035 6.07587 5.6762 6.65137C6.25747 7.21277 7.17899 7.21277 7.76027 6.65137Z" fill="#374957"/>
<path d="M22.4996 14.5003C21.6712 14.5003 20.9996 15.1719 20.9996 16.0002V20.591C20.9991 20.8167 20.8163 20.9995 20.5907 21H3.40936C3.18371 20.9994 3.00091 20.8167 3.00039 20.591V16.0002C3.00039 15.1719 2.32884 14.5003 1.50045 14.5003C0.672068 14.5003 0.000518799 15.1719 0.000518799 16.0002V20.591C0.00272183 22.4728 1.52764 23.9976 3.40936 23.9999H20.5906C22.4724 23.9976 23.9972 22.4727 23.9994 20.591V16.0002C23.9995 15.1719 23.3279 14.5003 22.4996 14.5003Z" fill="#374957"/>
</g>
<defs>
<clipPath id="clip0_405_1342">
<rect width="24" height="24" fill="white"/>
</clipPath>
</defs>
</svg>
