<svg width="24" height="24" viewBox="0 0 24 24" fill="none" xmlns="http://www.w3.org/2000/svg">
<g clip-path="url(#clip0_405_1435)">
<path d="M20.7 14.0251C20.0333 13.3899 19.1478 13.0356 18.227 13.0356C17.3062 13.0356 16.4206 13.3899 15.754 14.0251L15.345 14.4251C12.7894 13.2597 10.7435 11.2067 9.58698 8.64713L9.97498 8.25313C10.6193 7.6008 10.9839 6.72292 10.9912 5.80604C10.9984 4.88917 10.6479 4.0056 10.014 3.34313L7.86198 1.02513C7.20275 0.39497 6.32804 0.0399027 5.4161 0.0322847C4.50417 0.0246666 3.62364 0.365072 2.95398 0.984128C2.95398 0.984128 1.88698 1.91413 1.86198 1.93813C-6.03302 10.2071 13.785 30.0381 22.062 22.1381C22.086 22.1131 23.016 21.0471 23.016 21.0471C23.6567 20.3782 24.0075 19.4836 23.9924 18.5575C23.9772 17.6314 23.5972 16.7487 22.935 16.1011L20.7 14.0251ZM20.857 18.9671C20.832 18.9911 19.908 20.0501 19.908 20.0501C14.655 24.7731 -0.910022 10.1271 3.94998 4.10013C3.94998 4.10013 5.00898 3.17613 5.03398 3.15113C5.11909 3.06066 5.23555 3.00613 5.35954 2.99869C5.48352 2.99126 5.60567 3.03148 5.70098 3.11113L7.85398 5.42413C7.9033 5.4702 7.94245 5.52606 7.96895 5.58814C7.99544 5.65021 8.00869 5.71713 8.00784 5.78462C8.007 5.8521 7.99207 5.91867 7.96403 5.98006C7.93598 6.04145 7.89544 6.09631 7.84498 6.14113L6.73698 7.26713C6.53245 7.47504 6.39297 7.73806 6.3356 8.024C6.27824 8.30995 6.30547 8.60642 6.41398 8.87713C7.15916 10.872 8.32455 12.6834 9.83114 14.1884C11.3377 15.6935 13.1503 16.857 15.146 17.6001C15.4146 17.7029 15.7072 17.7262 15.9887 17.6673C16.2703 17.6085 16.529 17.4699 16.734 17.2681L17.868 16.1501C18.158 15.9361 18.309 15.9381 18.616 16.1901L20.854 18.2641C20.9465 18.3577 20.9984 18.484 20.9984 18.6156C20.9984 18.7472 20.9465 18.8735 20.854 18.9671H20.857ZM15 8.00013V3.52613C15 3.32838 15.0587 3.13508 15.1686 2.97067C15.2785 2.80626 15.4346 2.67812 15.6173 2.60245C15.8 2.52678 16.0011 2.50698 16.195 2.54554C16.389 2.58411 16.5671 2.67932 16.707 2.81913L17.894 4.00613L21.437 0.442128C21.7192 0.16815 22.0978 0.0160028 22.4911 0.018462C22.8845 0.0209211 23.2611 0.17779 23.5399 0.455275C23.8187 0.73276 23.9774 1.10866 23.9817 1.50198C23.986 1.89531 23.8356 2.2746 23.563 2.55813L20.015 6.12713L21.181 7.29313C21.3208 7.43298 21.416 7.61114 21.4546 7.8051C21.4931 7.99905 21.4733 8.20008 21.3977 8.38278C21.322 8.56548 21.1938 8.72165 21.0294 8.83153C20.865 8.94141 20.6717 9.00009 20.474 9.00013H16C15.7348 9.00013 15.4804 8.89477 15.2929 8.70723C15.1053 8.5197 15 8.26534 15 8.00013Z" fill="#374957"/>
</g>
<defs>
<clipPath id="clip0_405_1435">
<rect width="24" height="24" fill="white"/>
</clipPath>
</defs>
</svg>
