<svg width="24" height="24" viewBox="0 0 24 24" fill="none" xmlns="http://www.w3.org/2000/svg">
<g clip-path="url(#clip0_405_1470)">
<path d="M23 0.987942C22.6458 0.634632 22.2178 0.364214 21.7466 0.196144C21.2754 0.0280741 20.7728 -0.0334691 20.275 0.015942C17.577 0.276942 8.49299 1.40594 4.91999 4.97894C3.24221 6.6686 2.22242 8.90149 2.04406 11.276C1.86569 13.6504 2.54046 16.0106 3.94699 17.9319L0.438992 21.4389C0.157598 21.7203 -0.000488281 22.102 -0.000488281 22.4999C-0.000488281 22.8979 0.157598 23.2796 0.438992 23.5609C0.720387 23.8423 1.10204 24.0004 1.49999 24.0004C1.89794 24.0004 2.2796 23.8423 2.56099 23.5609L6.06799 20.0529C7.98934 21.4595 10.3495 22.1342 12.724 21.9559C15.0984 21.7775 17.3313 20.7577 19.021 19.0799C22.644 15.4569 23.737 6.39994 23.985 3.70894C24.0319 3.2108 23.9679 2.70845 23.7976 2.23799C23.6273 1.76752 23.3549 1.34062 23 0.987942ZM16.9 16.9579C15.7748 18.0767 14.3025 18.7794 12.7251 18.9505C11.1477 19.1217 9.55897 18.7512 8.21999 17.8999L16.561 9.55994C16.8424 9.27855 17.0005 8.89689 17.0005 8.49894C17.0005 8.10099 16.8424 7.71934 16.561 7.43794C16.2796 7.15655 15.8979 6.99846 15.5 6.99846C15.102 6.99846 14.7204 7.15655 14.439 7.43794L6.09999 15.7799C5.24869 14.441 4.8782 12.8522 5.04939 11.2748C5.22058 9.69739 5.92327 8.22512 7.04199 7.09994C9.32199 4.81994 15.751 3.46794 20.565 2.99994C20.6232 2.99368 20.6821 3.00058 20.7374 3.02014C20.7926 3.0397 20.8427 3.07141 20.884 3.11294C20.9266 3.15382 20.9592 3.20394 20.9793 3.25943C20.9994 3.31491 21.0065 3.37428 21 3.43294C20.555 8.22494 19.216 14.6419 16.9 16.9579Z" fill="#374957"/>
</g>
<defs>
<clipPath id="clip0_405_1470">
<rect width="24" height="24" fill="white"/>
</clipPath>
</defs>
</svg>
