<svg width="24" height="24" viewBox="0 0 24 24" fill="none" xmlns="http://www.w3.org/2000/svg">
<g clip-path="url(#clip0_405_1357)">
<path d="M21.621 19.4995L23.561 17.5605C23.8424 17.2791 24.0005 16.8975 24.0005 16.4995C24.0005 16.1016 23.8424 15.7199 23.561 15.4385C23.2796 15.1571 22.8979 14.999 22.5 14.999C22.102 14.999 21.7204 15.1571 21.439 15.4385L19.5 17.3785L17.561 15.4385C17.2796 15.1571 16.8979 14.999 16.5 14.999C16.102 14.999 15.7204 15.1571 15.439 15.4385C15.1576 15.7199 14.9995 16.1016 14.9995 16.4995C14.9995 16.8975 15.1576 17.2791 15.439 17.5605L17.379 19.4995L15.439 21.4385C15.1576 21.7199 14.9995 22.1016 14.9995 22.4995C14.9995 22.8975 15.1576 23.2791 15.439 23.5605C15.7204 23.8419 16.102 24 16.5 24C16.8979 24 17.2796 23.8419 17.561 23.5605L19.5 21.6205L21.439 23.5605C21.7204 23.8419 22.102 24 22.5 24C22.8979 24 23.2796 23.8419 23.561 23.5605C23.8424 23.2791 24.0005 22.8975 24.0005 22.4995C24.0005 22.1016 23.8424 21.7199 23.561 21.4385L21.621 19.4995Z" fill="#374957"/>
<path d="M11.5701 20.9897C9.82868 20.9063 8.14898 20.319 6.73507 19.2991C5.32117 18.2791 4.23393 16.8705 3.60547 15.2443C2.97701 13.6181 2.83438 11.8444 3.19492 10.1387C3.55546 8.43304 4.40364 6.86877 5.6364 5.63601C6.86916 4.40325 8.43343 3.55507 10.1391 3.19453C11.8448 2.83399 13.6185 2.97662 15.2447 3.60508C16.8709 4.23354 18.2795 5.32078 19.2995 6.73468C20.3194 8.14858 20.9067 9.82829 20.9901 11.5697C21.0086 11.9675 21.1845 12.3417 21.4789 12.6098C21.7733 12.878 22.1622 13.0182 22.5601 12.9997C22.9579 12.9811 23.3321 12.8053 23.6002 12.5108C23.8684 12.2164 24.0086 11.8275 23.9901 11.4297C23.8797 9.10761 23.0972 6.86758 21.7378 4.98183C20.3783 3.09609 18.5003 1.64582 16.3322 0.807269C14.164 -0.0312781 11.7989 -0.221994 9.52435 0.258299C7.24981 0.738593 5.16374 1.86921 3.51967 3.51276C1.87561 5.15631 0.744319 7.24201 0.263301 9.5164C-0.217716 11.7908 -0.0277542 14.1559 0.810102 16.3244C1.64796 18.4928 3.09763 20.3712 4.98294 21.7313C6.86826 23.0914 9.10804 23.8746 11.4301 23.9857H11.5011C11.8989 23.9948 12.2841 23.8456 12.5718 23.5707C12.8596 23.2959 13.0264 22.918 13.0356 22.5202C13.0447 22.1224 12.8955 21.7372 12.6206 21.4494C12.3458 21.1616 11.9679 20.9948 11.5701 20.9857V20.9897Z" fill="#374957"/>
<path d="M12 6C11.6021 6 11.2206 6.15803 10.9393 6.43934C10.658 6.72064 10.5 7.10217 10.5 7.5V11.055L8.09995 12.555C7.93294 12.6596 7.78816 12.796 7.6739 12.9565C7.55963 13.1171 7.47811 13.2985 7.434 13.4906C7.38989 13.6826 7.38405 13.8815 7.41682 14.0758C7.44958 14.2701 7.5203 14.456 7.62495 14.623C7.72952 14.79 7.86596 14.9348 8.02649 15.049C8.18702 15.1633 8.3685 15.2448 8.56054 15.2889C8.75259 15.333 8.95144 15.3389 9.14574 15.3061C9.34005 15.2734 9.52599 15.2026 9.69295 15.098L12.562 13.298C12.8498 13.1176 13.087 12.8669 13.2511 12.5695C13.4152 12.272 13.5008 11.9377 13.5 11.598V7.5C13.5 7.10217 13.3419 6.72064 13.0606 6.43934C12.7793 6.15803 12.3978 6 12 6Z" fill="#374957"/>
</g>
<defs>
<clipPath id="clip0_405_1357">
<rect width="24" height="24" fill="white"/>
</clipPath>
</defs>
</svg>
