<svg width="24" height="24" viewBox="0 0 24 24" fill="none" xmlns="http://www.w3.org/2000/svg">
<g clip-path="url(#clip0_405_1416)">
<path d="M15.9998 15.5001C15.9998 15.7967 15.9118 16.0868 15.747 16.3334C15.5821 16.5801 15.3479 16.7724 15.0738 16.8859C14.7997 16.9994 14.4981 17.0291 14.2071 16.9713C13.9162 16.9134 13.6489 16.7705 13.4391 16.5607C13.2293 16.351 13.0865 16.0837 13.0286 15.7927C12.9707 15.5017 13.0004 15.2001 13.1139 14.926C13.2275 14.652 13.4197 14.4177 13.6664 14.2529C13.9131 14.088 14.2031 14.0001 14.4998 14.0001C14.8976 14.0001 15.2791 14.1581 15.5604 14.4394C15.8417 14.7207 15.9998 15.1022 15.9998 15.5001ZM16.9998 15.5001C16.9998 15.7967 17.0877 16.0868 17.2526 16.3334C17.4174 16.5801 17.6517 16.7724 17.9257 16.8859C18.1998 16.9994 18.5014 17.0291 18.7924 16.9713C19.0834 16.9134 19.3506 16.7705 19.5604 16.5607C19.7702 16.351 19.9131 16.0837 19.9709 15.7927C20.0288 15.5017 19.9991 15.2001 19.8856 14.926C19.7721 14.652 19.5798 14.4177 19.3331 14.2529C19.0864 14.088 18.7964 14.0001 18.4998 14.0001C18.1019 14.0001 17.7204 14.1581 17.4391 14.4394C17.1578 14.7207 16.9998 15.1022 16.9998 15.5001ZM17.9998 12.5001C17.9998 12.2034 17.9118 11.9134 17.747 11.6667C17.5821 11.42 17.3479 11.2278 17.0738 11.1143C16.7997 11.0007 16.4981 10.971 16.2071 11.0289C15.9162 11.0868 15.6489 11.2296 15.4391 11.4394C15.2293 11.6492 15.0865 11.9165 15.0286 12.2074C14.9707 12.4984 15.0004 12.8 15.1139 13.0741C15.2275 13.3482 15.4197 13.5825 15.6664 13.7473C15.9131 13.9121 16.2031 14.0001 16.4998 14.0001C16.8976 14.0001 17.2791 13.842 17.5604 13.5607C17.8417 13.2794 17.9998 12.8979 17.9998 12.5001ZM23.9998 15.5001C24.002 17.0672 23.5703 18.6043 22.7526 19.9412C21.9349 21.2781 20.763 22.3624 19.3668 23.0742C17.9707 23.786 16.4047 24.0973 14.8425 23.9737C13.2802 23.8501 11.7827 23.2965 10.5158 22.3741C10.1315 22.8761 9.63758 23.2836 9.07168 23.5654C8.50579 23.8472 7.88294 23.9959 7.25077 24.0001H4.75077C3.93552 23.9939 3.13979 23.75 2.46109 23.2983C1.78239 22.8466 1.25021 22.2067 0.929767 21.4571C0.298262 19.9771 -0.0184477 18.382 -0.000233231 16.7731C0.103645 14.8547 0.735184 13.0023 1.82477 11.4201C2.44824 10.5569 2.85158 9.55453 2.99977 8.50007C2.86801 7.69554 2.68497 6.90026 2.45177 6.11907C2.2217 5.43204 2.07007 4.72119 1.99977 4.00007C1.97513 3.46824 2.06173 2.93712 2.25403 2.44067C2.44633 1.94421 2.74011 1.49334 3.11657 1.11687C3.49303 0.740411 3.9439 0.446638 4.44036 0.254336C4.93682 0.0620345 5.46794 -0.0245657 5.99977 7.18837e-05C6.5316 -0.0245657 7.06272 0.0620345 7.55917 0.254336C8.05563 0.446638 8.5065 0.740411 8.88296 1.11687C9.25943 1.49334 9.5532 1.94421 9.7455 2.44067C9.9378 2.93712 10.0244 3.46824 9.99977 4.00007C9.92946 4.72119 9.77783 5.43204 9.54777 6.11907C9.31449 6.90023 9.13144 7.69553 8.99977 8.50007C9.0175 8.91457 9.11423 9.32187 9.28477 9.70007C10.4488 8.45243 11.9614 7.58402 13.6258 7.20782C15.2902 6.83163 17.0292 6.96507 18.6167 7.59079C20.2042 8.2165 21.5666 9.30552 22.5267 10.7162C23.4868 12.1268 24 13.7937 23.9998 15.5001ZM4.99977 4.00007C5.01977 4.11707 5.20977 4.82407 5.34877 5.33907C5.52077 5.98107 5.66077 6.52207 5.77077 7.00007H6.22877C6.33877 6.52207 6.47877 5.98107 6.65077 5.33907C6.78977 4.82407 6.97977 4.11707 6.99977 3.92207C6.99977 3.29007 6.70977 3.00007 5.99977 3.00007C5.28977 3.00007 4.99977 3.29007 4.99977 4.00007ZM8.32177 20.2551C8.78642 19.1539 9.0173 17.9682 8.99977 16.7731C8.87531 15.385 8.38422 14.055 7.57677 12.9191C7.00098 12.0078 6.54363 11.0269 6.21577 10.0001H5.78377C5.4559 11.0269 4.99856 12.0078 4.42277 12.9191C3.61532 14.055 3.12422 15.385 2.99977 16.7731C2.98214 17.9678 3.21302 19.1532 3.67777 20.2541C3.76299 20.4701 3.91009 20.6561 4.10062 20.7888C4.29115 20.9215 4.51663 20.995 4.74877 21.0001H7.24877C7.4811 20.9953 7.70687 20.9221 7.89776 20.7896C8.08864 20.6571 8.23615 20.4711 8.32177 20.2551ZM20.9998 15.5001C21.0019 14.3044 20.6138 13.1406 19.8942 12.1857C19.1746 11.2307 18.163 10.5368 17.0131 10.2092C15.8631 9.88161 14.6377 9.93835 13.5229 10.3708C12.4081 10.8032 11.465 11.5877 10.8368 12.6051C11.5663 13.8755 11.9661 15.3084 11.9998 16.7731C11.9986 17.6813 11.898 18.5867 11.6998 19.4731C12.4773 20.22 13.4574 20.7216 14.5179 20.9154C15.5785 21.1093 16.6727 20.9868 17.6641 20.5632C18.6556 20.1397 19.5005 19.4338 20.0936 18.5335C20.6868 17.6331 21.0019 16.5782 20.9998 15.5001Z" fill="#374957"/>
</g>
<defs>
<clipPath id="clip0_405_1416">
<rect width="24" height="24" fill="white"/>
</clipPath>
</defs>
</svg>
