<svg width="24" height="24" viewBox="0 0 24 24" fill="none" xmlns="http://www.w3.org/2000/svg">
<g clip-path="url(#clip0_405_1395)">
<path d="M18.738 4.012L16.245 0.779C16.0582 0.53662 15.8182 0.340347 15.5436 0.205293C15.269 0.0702384 14.967 4.97488e-06 14.661 0L9.339 0C9.03314 0.000157934 8.73139 0.0704648 8.45696 0.205513C8.18253 0.340562 7.94273 0.536754 7.756 0.779L5.262 4.012C3.84702 4.07329 2.51023 4.67806 1.53002 5.70036C0.549818 6.72267 0.00176351 8.0837 0 9.5L0 18.5C0.00158817 19.9582 0.581561 21.3562 1.61267 22.3873C2.64377 23.4184 4.0418 23.9984 5.5 24H18.5C19.9582 23.9984 21.3562 23.4184 22.3873 22.3873C23.4184 21.3562 23.9984 19.9582 24 18.5V9.5C23.9982 8.0837 23.4502 6.72267 22.47 5.70036C21.4898 4.67806 20.153 4.07329 18.738 4.012ZM21 18.5C21 19.163 20.7366 19.7989 20.2678 20.2678C19.7989 20.7366 19.163 21 18.5 21H5.5C4.83696 21 4.20107 20.7366 3.73223 20.2678C3.26339 19.7989 3 19.163 3 18.5V9.5C3 8.83696 3.26339 8.20107 3.73223 7.73223C4.20107 7.26339 4.83696 7 5.5 7H18.5C19.163 7 19.7989 7.26339 20.2678 7.73223C20.7366 8.20107 21 8.83696 21 9.5V18.5Z" fill="#374957"/>
<path d="M12.0001 8.50012C10.9123 8.50012 9.84892 8.82269 8.94445 9.42704C8.03999 10.0314 7.33504 10.8904 6.91876 11.8954C6.50247 12.9004 6.39356 14.0062 6.60577 15.0731C6.81799 16.14 7.34182 17.12 8.111 17.8892C8.88019 18.6584 9.8602 19.1822 10.9271 19.3944C11.994 19.6066 13.0999 19.4977 14.1048 19.0814C15.1098 18.6652 15.9688 17.9602 16.5732 17.0557C17.1775 16.1513 17.5001 15.0879 17.5001 14.0001C17.4985 12.5419 16.9185 11.1439 15.8874 10.1128C14.8563 9.08168 13.4583 8.50171 12.0001 8.50012ZM12.0001 16.5001C11.5056 16.5001 11.0223 16.3535 10.6112 16.0788C10.2 15.8041 9.87961 15.4136 9.69039 14.9568C9.50117 14.5 9.45166 13.9973 9.54813 13.5124C9.64459 13.0274 9.88269 12.582 10.2323 12.2324C10.582 11.8827 11.0274 11.6446 11.5124 11.5482C11.9973 11.4517 12.5 11.5012 12.9568 11.6904C13.4136 11.8796 13.8041 12.2001 14.0788 12.6112C14.3535 13.0223 14.5001 13.5057 14.5001 14.0001C14.5001 14.6632 14.2367 15.299 13.7679 15.7679C13.299 16.2367 12.6631 16.5001 12.0001 16.5001Z" fill="#374957"/>
</g>
<defs>
<clipPath id="clip0_405_1395">
<rect width="24" height="24" fill="white"/>
</clipPath>
</defs>
</svg>
