<svg width="24" height="24" viewBox="0 0 24 24" fill="none" xmlns="http://www.w3.org/2000/svg">
<g clip-path="url(#clip0_405_1527)">
<path d="M9.00003 12.0002C9.00003 11.2046 9.3161 10.4415 9.87871 9.87888C10.4413 9.31627 11.2044 9.0002 12 9.0002C12.7957 9.0002 13.5587 9.31627 14.1213 9.87888C14.684 10.4415 15 11.2046 15 12.0002C15 12.7959 14.684 13.5589 14.1213 14.1215C13.5587 14.6841 12.7957 15.0002 12 15.0002C11.2044 15.0002 10.4413 14.6841 9.87871 14.1215C9.3161 13.5589 9.00003 12.7959 9.00003 12.0002ZM16.953 20.5752C21.636 21.2482 24.867 15.6202 21.812 11.9852C22.478 11.1513 22.8791 10.1372 22.9637 9.07338C23.0483 8.00956 22.8125 6.94478 22.2867 6.01612C21.7609 5.08747 20.9692 4.33748 20.0134 3.86271C19.0577 3.38794 17.9817 3.21014 16.924 3.3522C16.5271 2.37151 15.8464 1.53168 14.9691 0.940338C14.0919 0.348996 13.058 0.0330811 12 0.0330811C10.9421 0.0330811 9.9082 0.348996 9.03092 0.940338C8.15365 1.53168 7.47294 2.37151 7.07603 3.3522C6.01837 3.20982 4.9423 3.38738 3.98645 3.86199C3.03059 4.3366 2.23873 5.08653 1.71287 6.01518C1.18701 6.94383 0.951235 8.00866 1.03592 9.07249C1.12061 10.1363 1.52187 11.1504 2.18803 11.9842C-0.867971 15.6212 2.36503 21.2472 7.04703 20.5742C7.42688 21.5807 8.10433 22.4475 8.98918 23.0594C9.87402 23.6712 10.9243 23.9989 12 23.9989C13.0758 23.9989 14.126 23.6712 15.0109 23.0594C15.8957 22.4475 16.5732 21.5807 16.953 20.5742V20.5752ZM7.43803 17.3892C4.78803 18.6362 2.49403 14.8892 5.22003 13.3162C5.45325 13.1846 5.64732 12.9934 5.78235 12.7622C5.91739 12.531 5.98856 12.268 5.98856 12.0002C5.98856 11.7324 5.91739 11.4695 5.78235 11.2382C5.64732 11.007 5.45325 10.8158 5.22003 10.6842C2.56703 9.1482 4.70003 5.1052 7.44203 6.6162C7.67018 6.74981 7.9296 6.82074 8.19399 6.82181C8.45839 6.82287 8.71837 6.75403 8.94759 6.62226C9.17681 6.4905 9.36713 6.30048 9.49927 6.07147C9.63141 5.84246 9.70067 5.5826 9.70003 5.3182C9.70003 4.7082 9.94235 4.12319 10.3737 3.69186C10.805 3.26052 11.39 3.0182 12 3.0182C12.61 3.0182 13.195 3.26052 13.6264 3.69186C14.0577 4.12319 14.3 4.7082 14.3 5.3182C14.3001 5.58226 14.3699 5.84162 14.5023 6.07007C14.6347 6.29852 14.8251 6.48796 15.0542 6.61926C15.2833 6.75055 15.543 6.81904 15.8071 6.8178C16.0711 6.81656 16.3302 6.74564 16.558 6.6122C19.3 5.1052 21.432 9.1502 18.78 10.6842C18.5468 10.8158 18.3527 11.007 18.2177 11.2382C18.0827 11.4695 18.0115 11.7324 18.0115 12.0002C18.0115 12.268 18.0827 12.531 18.2177 12.7622C18.3527 12.9934 18.5468 13.1846 18.78 13.3162C21.507 14.8922 19.209 18.6362 16.562 17.3892C16.3341 17.2548 16.0748 17.1831 15.8102 17.1813C15.5456 17.1795 15.2853 17.2477 15.0556 17.379C14.8259 17.5103 14.6351 17.7 14.5024 17.9289C14.3697 18.1577 14.2999 18.4176 14.3 18.6822C14.3 19.2922 14.0577 19.8772 13.6264 20.3085C13.195 20.7399 12.61 20.9822 12 20.9822C11.39 20.9822 10.805 20.7399 10.3737 20.3085C9.94235 19.8772 9.70003 19.2922 9.70003 18.6822C9.7002 18.4176 9.63039 18.1577 9.49769 17.9289C9.36499 17.7 9.17411 17.5103 8.94442 17.379C8.71474 17.2477 8.45441 17.1795 8.18985 17.1813C7.92529 17.1831 7.66591 17.2548 7.43803 17.3892Z" fill="#374957"/>
</g>
<defs>
<clipPath id="clip0_405_1527">
<rect width="24" height="24" fill="white"/>
</clipPath>
</defs>
</svg>
