<svg width="24" height="24" viewBox="0 0 24 24" fill="none" xmlns="http://www.w3.org/2000/svg">
<g clip-path="url(#clip0_405_1611)">
<path d="M14.5001 6.99939H9.50012C9.1023 6.99939 8.72076 7.15742 8.43946 7.43873C8.15816 7.72003 8.00012 8.10156 8.00012 8.49939C8.00012 8.89721 8.15816 9.27875 8.43946 9.56005C8.72076 9.84135 9.1023 9.99939 9.50012 9.99939H14.5001C14.8979 9.99939 15.2795 9.84135 15.5608 9.56005C15.8421 9.27875 16.0001 8.89721 16.0001 8.49939C16.0001 8.10156 15.8421 7.72003 15.5608 7.43873C15.2795 7.15742 14.8979 6.99939 14.5001 6.99939Z" fill="#374957"/>
<path d="M12.5001 12H9.50012C9.1023 12 8.72077 12.158 8.43946 12.4393C8.15816 12.7206 8.00012 13.1022 8.00012 13.5C8.00012 13.8978 8.15816 14.2794 8.43946 14.5607C8.72077 14.842 9.1023 15 9.50012 15H12.5001C12.8979 15 13.2795 14.842 13.5608 14.5607C13.8421 14.2794 14.0001 13.8978 14.0001 13.5C14.0001 13.1022 13.8421 12.7206 13.5608 12.4393C13.2795 12.158 12.8979 12 12.5001 12Z" fill="#374957"/>
<path d="M15.5 0H8.5C7.0418 0.00158817 5.64377 0.581561 4.61267 1.61267C3.58156 2.64377 3.00159 4.0418 3 5.5V22.5C2.99992 22.7557 3.06523 23.0073 3.18973 23.2306C3.31422 23.454 3.49376 23.6419 3.7113 23.7764C3.92883 23.9108 4.17713 23.9874 4.43262 23.9989C4.6881 24.0104 4.94227 23.9564 5.171 23.842L8.453 22.2L11.253 23.8C11.4796 23.9294 11.736 23.9975 11.997 23.9975C12.258 23.9975 12.5144 23.9294 12.741 23.8L15.541 22.2L18.823 23.842C19.0519 23.9578 19.3068 24.0129 19.5631 24.0021C19.8194 23.9913 20.0687 23.915 20.2871 23.7804C20.5055 23.6457 20.6858 23.4573 20.8106 23.2332C20.9354 23.009 21.0006 22.7566 21 22.5V5.5C20.9984 4.0418 20.4184 2.64377 19.3873 1.61267C18.3562 0.581561 16.9582 0.00158817 15.5 0V0ZM18 20.073L16.17 19.158C15.9492 19.0475 15.7045 18.9933 15.4576 19.0001C15.2108 19.0069 14.9694 19.0745 14.755 19.197L12 20.772L9.245 19.2C9.03057 19.0775 8.78923 19.0099 8.54239 19.0031C8.29555 18.9963 8.05085 19.0505 7.83 19.161L6 20.073V5.5C6 4.83696 6.26339 4.20107 6.73223 3.73223C7.20107 3.26339 7.83696 3 8.5 3H15.5C16.163 3 16.7989 3.26339 17.2678 3.73223C17.7366 4.20107 18 4.83696 18 5.5V20.073Z" fill="#374957"/>
</g>
<defs>
<clipPath id="clip0_405_1611">
<rect width="24" height="24" fill="white"/>
</clipPath>
</defs>
</svg>
