<svg width="24" height="24" viewBox="0 0 24 24" fill="none" xmlns="http://www.w3.org/2000/svg">
<g clip-path="url(#clip0_405_1627)">
<path d="M10.4094 19.5872C8.82136 21.2339 6.23516 21.3858 4.4653 19.9362C3.41125 19.0236 2.87284 17.6514 3.02503 16.2655C3.15682 15.2438 3.63437 14.2978 4.37828 13.5851L7.25483 10.7065C7.84051 10.1207 7.84051 9.17099 7.25483 8.58513C6.66897 7.99946 5.7193 7.99946 5.13344 8.58513L2.31792 11.4017C1.03453 12.6393 0.225173 14.2873 0.0304646 16.0595C-0.333213 20.0511 2.60776 23.5818 6.59935 23.9454C8.74293 24.1407 10.8626 23.3744 12.3857 21.8536L15.3943 18.846C15.98 18.2602 15.98 17.3105 15.3943 16.7246C14.8085 16.139 13.8588 16.139 13.2729 16.7246L10.4094 19.5872Z" fill="#374957"/>
<path d="M21.1615 1.46733C18.1747 -0.727117 14.0271 -0.383083 11.4427 2.27349L8.61113 5.10602C8.02546 5.69188 8.02546 6.64156 8.61113 7.22742C9.19699 7.81309 10.1467 7.81309 10.7325 7.22742L13.6091 4.35387C15.1624 2.7473 17.6757 2.56633 19.4432 3.93379C21.2624 5.42554 21.5279 8.10959 20.0361 9.92882C19.9488 10.0353 19.8564 10.1375 19.7592 10.235L16.7506 13.2435C16.165 13.8294 16.165 14.7791 16.7506 15.3649C17.3365 15.9506 18.2862 15.9506 18.872 15.3649L21.8806 12.3564C24.713 9.51493 24.7057 4.91539 21.8642 2.083C21.6435 1.86293 21.4087 1.6573 21.1615 1.46733Z" fill="#374957"/>
<path d="M8.61106 13.2459L13.2725 8.58445C13.8584 7.99854 14.8083 7.99854 15.3942 8.58445C15.9801 9.17036 15.9801 10.1203 15.3942 10.7062L10.7328 15.3676C10.1469 15.9535 9.19697 15.9535 8.61106 15.3676C8.02515 14.7817 8.02515 13.8318 8.61106 13.2459Z" fill="#374957"/>
</g>
<defs>
<clipPath id="clip0_405_1627">
<rect width="24" height="24" fill="white"/>
</clipPath>
</defs>
</svg>
