<svg width="24" height="24" viewBox="0 0 24 24" fill="none" xmlns="http://www.w3.org/2000/svg">
<g clip-path="url(#clip0_405_1363)">
<path d="M8.09388 1.32807C7.96938 1.07872 7.77786 0.868991 7.54082 0.722404C7.30378 0.575817 7.03059 0.498169 6.75188 0.498169C6.47318 0.498169 6.19999 0.575817 5.96295 0.722404C5.7259 0.868991 5.53439 1.07872 5.40988 1.32807L0.159884 11.8281C0.0455585 12.0566 -0.00846928 12.3106 0.00292644 12.566C0.0143222 12.8213 0.0907635 13.0694 0.224998 13.2869C0.359232 13.5044 0.546808 13.684 0.769928 13.8086C0.993048 13.9332 1.24431 13.9988 1.49988 13.9991C1.77849 13.9992 2.05162 13.9216 2.28865 13.7752C2.52568 13.6288 2.71725 13.4192 2.84188 13.1701L3.42888 11.9991H10.0749L10.6599 13.1701C10.7844 13.4189 10.9756 13.6283 11.2123 13.7747C11.4489 13.9211 11.7216 13.9988 11.9999 13.9991C12.2556 13.9991 12.5071 13.9338 12.7305 13.8093C12.9539 13.6848 13.1418 13.5053 13.2762 13.2878C13.4107 13.0702 13.4873 12.8219 13.4988 12.5665C13.5103 12.311 13.4563 12.0568 13.3419 11.8281L8.09388 1.32807ZM4.92888 8.99907L6.75188 5.35307L8.57488 8.99907H4.92888Z" fill="#374957"/>
<path d="M13.0001 23.5002C12.8031 23.5003 12.608 23.4615 12.426 23.3862C12.2439 23.3109 12.0785 23.2004 11.9391 23.0612L6.93914 18.0612C6.65775 17.7798 6.49966 17.3981 6.49966 17.0002C6.49966 16.6022 6.65775 16.2206 6.93914 15.9392C7.22054 15.6578 7.60219 15.4997 8.00014 15.4997C8.39809 15.4997 8.77975 15.6578 9.06114 15.9392L13.0001 19.8792L21.4391 11.4392C21.7205 11.1578 22.1022 10.9997 22.5001 10.9997C22.8981 10.9997 23.2797 11.1578 23.5611 11.4392C23.8425 11.7206 24.0006 12.1022 24.0006 12.5002C24.0006 12.8981 23.8425 13.2798 23.5611 13.5612L14.0611 23.0612C13.9218 23.2004 13.7564 23.3109 13.5743 23.3862C13.3923 23.4615 13.1972 23.5003 13.0001 23.5002Z" fill="#374957"/>
</g>
<defs>
<clipPath id="clip0_405_1363">
<rect width="24" height="24" fill="white"/>
</clipPath>
</defs>
</svg>
