<svg width="24" height="24" viewBox="0 0 24 24" fill="none" xmlns="http://www.w3.org/2000/svg">
<g clip-path="url(#clip0_405_1535)">
<path d="M20.3889 4.26802L17.7319 1.61102C17.2224 1.0986 16.6164 0.692361 15.9488 0.415827C15.2812 0.139292 14.5654 -0.00203834 13.8429 2.22109e-05H7.49988C6.04167 0.00161038 4.64365 0.581583 3.61254 1.61269C2.58144 2.6438 2.00147 4.04182 1.99988 5.50002V18.5C2.00147 19.9582 2.58144 21.3563 3.61254 22.3874C4.64365 23.4185 6.04167 23.9984 7.49988 24H16.4999C17.9581 23.9984 19.3561 23.4185 20.3872 22.3874C21.4183 21.3563 21.9983 19.9582 21.9999 18.5V8.15702C22.0018 7.43447 21.8604 6.7187 21.5839 6.05116C21.3074 5.38361 20.9012 4.77754 20.3889 4.26802ZM16.4999 21H7.49988C6.83684 21 6.20095 20.7366 5.73211 20.2678C5.26327 19.7989 4.99988 19.1631 4.99988 18.5V5.50002C4.99988 4.83698 5.26327 4.2011 5.73211 3.73226C6.20095 3.26341 6.83684 3.00002 7.49988 3.00002H12.9999V7.00002C12.9999 7.53046 13.2106 8.03916 13.5857 8.41424C13.9607 8.78931 14.4694 9.00002 14.9999 9.00002H18.9999V18.5C18.9999 19.1631 18.7365 19.7989 18.2676 20.2678C17.7988 20.7366 17.1629 21 16.4999 21ZM17.0859 11.466C17.36 11.7541 17.5085 12.1392 17.4987 12.5368C17.489 12.9343 17.3218 13.3117 17.0339 13.586L13.4479 17C12.7893 17.6449 11.903 18.004 10.9812 17.9994C10.0595 17.9947 9.17684 17.6266 8.52488 16.975L6.99988 15.62C6.8528 15.4887 6.73302 15.3297 6.64739 15.1521C6.56176 14.9745 6.51195 14.7817 6.50081 14.5849C6.48967 14.388 6.51741 14.1909 6.58245 14.0047C6.64749 13.8186 6.74856 13.6471 6.87988 13.5C7.0112 13.3529 7.17021 13.2332 7.34782 13.1475C7.52543 13.0619 7.71816 13.0121 7.91503 13.001C8.11189 12.9898 8.30901 13.0176 8.49515 13.0826C8.68129 13.1476 8.8528 13.2487 8.99988 13.38L10.5859 14.794C10.6372 14.8547 10.7004 14.9043 10.7716 14.9397C10.8428 14.9752 10.9205 14.9957 10.9999 15C11.1322 15 11.2592 14.9475 11.3529 14.854L14.9659 11.414C15.254 11.1399 15.6391 10.9914 16.0366 11.0012C16.4342 11.0109 16.8116 11.1781 17.0859 11.466Z" fill="#374957"/>
</g>
<defs>
<clipPath id="clip0_405_1535">
<rect width="24" height="24" fill="white"/>
</clipPath>
</defs>
</svg>
