<svg width="24" height="24" viewBox="0 0 24 24" fill="none" xmlns="http://www.w3.org/2000/svg">
<g clip-path="url(#clip0_405_1743)">
<path d="M22.4189 10C21.3224 8.51107 19.7584 7.43263 17.9769 6.93702C17.4961 5.19275 16.4554 3.65484 15.0149 2.56002C13.5709 1.46894 11.8057 0.887772 9.99588 0.907595C8.1861 0.927418 6.43404 1.54711 5.01425 2.66956C3.59447 3.79201 2.58719 5.35378 2.15028 7.11014C1.71336 8.8665 1.8715 10.7182 2.5999 12.375C1.58517 13.0415 0.806064 14.0106 0.37312 15.1449C-0.0598245 16.2791 -0.124627 17.5209 0.187905 18.694C0.531313 19.95 1.28391 21.0555 2.3265 21.8354C3.3691 22.6154 4.6421 23.0252 5.9439 23H15.5799C17.539 23.036 19.4476 22.3769 20.967 21.1396C22.4864 19.9023 23.5184 18.1668 23.8799 16.241C24.0722 15.156 24.0418 14.0433 23.7907 12.9704C23.5395 11.8975 23.0728 10.8869 22.4189 10ZM20.9189 15.733C20.6638 16.954 19.9912 18.0479 19.0168 18.8267C18.0424 19.6055 16.8271 20.0203 15.5799 20H5.9439C5.31177 20.0175 4.69132 19.8273 4.17764 19.4585C3.66395 19.0897 3.28537 18.5626 3.0999 17.958C3.00257 17.6004 2.9772 17.227 3.02527 16.8595C3.07334 16.492 3.19389 16.1377 3.37993 15.8172C3.56598 15.4966 3.81381 15.2162 4.10906 14.9921C4.40431 14.7681 4.7411 14.6049 5.0999 14.512C5.33772 14.4505 5.55681 14.3316 5.7379 14.1657C5.919 13.9997 6.05657 13.7918 6.13853 13.5602C6.22049 13.3287 6.24433 13.0805 6.20795 12.8376C6.17158 12.5947 6.0761 12.3644 5.9299 12.167C5.39679 11.4504 5.05841 10.6078 4.94771 9.72152C4.83702 8.8352 4.95779 7.93533 5.29827 7.10956C5.63874 6.2838 6.18731 5.56031 6.89052 5.00958C7.59373 4.45885 8.42761 4.09967 9.3109 3.96702C9.56793 3.93008 9.82724 3.91136 10.0869 3.91102C11.2123 3.90765 12.3077 4.27371 13.2049 4.95302C13.7508 5.36695 14.2098 5.88445 14.5556 6.47592C14.9013 7.06739 15.1271 7.72122 15.2199 8.40002C15.2635 8.72614 15.4131 9.02889 15.6456 9.26163C15.8782 9.49438 16.1808 9.6442 16.5069 9.68802C17.1989 9.78485 17.8645 10.0193 18.4645 10.3776C19.0644 10.7359 19.5865 11.2107 19.9999 11.774C20.4136 12.3369 20.7086 12.978 20.8669 13.6584C21.0252 14.3388 21.0436 15.0443 20.9209 15.732L20.9189 15.733Z" fill="#374957"/>
</g>
<defs>
<clipPath id="clip0_405_1743">
<rect width="24" height="24" fill="white"/>
</clipPath>
</defs>
</svg>
