<svg width="24" height="24" viewBox="0 0 24 24" fill="none" xmlns="http://www.w3.org/2000/svg">
<g clip-path="url(#clip0_405_1795)">
<path d="M2.99801 9.99335C3.02537 6.13004 6.17941 3.02035 10.0428 3.04776C13.4585 3.07198 16.3573 5.55953 16.8998 8.93205L19.9867 10.0533C19.9867 10.0333 19.9867 10.0134 19.9867 9.99335C19.9867 4.4742 15.5125 0 9.99335 0C4.47415 0 0 4.4742 0 9.99335C0 15.5125 4.4742 19.9867 9.99335 19.9867C10.0143 19.9867 10.0333 19.9867 10.0543 19.9867L8.93304 16.8997C5.52201 16.3767 3.00204 13.4443 2.99801 9.99335Z" fill="#374957"/>
<path d="M13.5578 8.06948C13.7287 8.06948 13.8976 8.09848 14.0675 8.11445C13.0348 5.85995 10.37 4.86944 8.1155 5.90211C5.86099 6.93478 4.87047 9.59959 5.90315 11.8541C6.34915 12.8277 7.12845 13.6099 8.10046 14.0595C7.82778 11.0362 10.0576 8.36432 13.0809 8.09169C13.2395 8.07735 13.3986 8.06995 13.5578 8.06948Z" fill="#374957"/>
<path d="M23.5423 21.4226L20.899 18.7794L22.5639 17.1145C23.5948 16.084 23.5951 14.4129 22.5646 13.382C22.2918 13.109 21.9623 12.8992 21.5995 12.7674L14.7661 10.283C12.9506 9.62297 10.9438 10.5596 10.2838 12.375C10.003 13.1473 10.0031 13.9938 10.284 14.7661L12.7684 21.5995C13.0747 22.4486 13.7954 23.0811 14.6772 23.2744C14.8668 23.3165 15.0605 23.3379 15.2548 23.3383C15.953 23.3378 16.6223 23.0591 17.1145 22.5639L18.7794 20.899L21.4227 23.5423C21.9978 24.1377 22.9468 24.1542 23.5423 23.5791C24.1377 23.0039 24.1542 22.055 23.5791 21.4595C23.567 21.4469 23.5547 21.4347 23.5423 21.4226ZM15.3896 20.0465L13.1012 13.7417C13.0289 13.5597 13.0753 13.352 13.2181 13.218C13.3509 13.0731 13.56 13.0265 13.7418 13.1011L20.0466 15.3896L15.3896 20.0465Z" fill="#374957"/>
</g>
<defs>
<clipPath id="clip0_405_1795">
<rect width="24" height="24" fill="white"/>
</clipPath>
</defs>
</svg>
