<svg width="24" height="24" viewBox="0 0 24 24" fill="none" xmlns="http://www.w3.org/2000/svg">
<path d="M9.99996 11.5C9.99996 11.8978 9.84192 12.2793 9.56062 12.5606C9.27931 12.8419 8.89778 13 8.49996 13C8.10213 13 7.7206 12.8419 7.4393 12.5606C7.15799 12.2793 6.99996 11.8978 6.99996 11.5C6.99996 11.1021 7.15799 10.7206 7.4393 10.4393C7.7206 10.158 8.10213 9.99997 8.49996 9.99997C8.89778 9.99997 9.27931 10.158 9.56062 10.4393C9.84192 10.7206 9.99996 11.1021 9.99996 11.5ZM13.5 15C13.1021 15 12.7206 15.158 12.4393 15.4393C12.158 15.7206 12 16.1021 12 16.5C12 16.8978 12.158 17.2793 12.4393 17.5606C12.7206 17.8419 13.1021 18 13.5 18C13.8978 18 14.2793 17.8419 14.5606 17.5606C14.8419 17.2793 15 16.8978 15 16.5C15 16.1021 14.8419 15.7206 14.5606 15.4393C14.2793 15.158 13.8978 15 13.5 15ZM8.49996 15C8.10213 15 7.7206 15.158 7.4393 15.4393C7.15799 15.7206 6.99996 16.1021 6.99996 16.5C6.99996 16.8978 7.15799 17.2793 7.4393 17.5606C7.7206 17.8419 8.10213 18 8.49996 18C8.89778 18 9.27931 17.8419 9.56062 17.5606C9.84192 17.2793 9.99996 16.8978 9.99996 16.5C9.99996 16.1021 9.84192 15.7206 9.56062 15.4393C9.27931 15.158 8.89778 15 8.49996 15ZM22 17.506V10.354C22.7824 9.73279 23.3716 8.90157 23.6987 7.95762C24.0258 7.01368 24.0772 5.99608 23.847 5.02397C23.543 3.85476 22.8543 2.82193 21.8917 2.09194C20.9291 1.36194 19.7488 0.977287 18.541 0.999972H5.45896C4.2511 0.977287 3.07078 1.36194 2.10821 2.09194C1.14564 2.82193 0.456894 3.85476 0.152955 5.02397C-0.0773304 5.99608 -0.0259112 7.01368 0.301193 7.95762C0.628297 8.90157 1.21755 9.73279 1.99996 10.354V17.506C2.00155 18.9636 2.58171 20.361 3.61299 21.3912C4.64427 22.4213 6.0423 23 7.49996 23H16.5C17.9576 23 19.3556 22.4213 20.3869 21.3912C21.4182 20.361 21.9984 18.9636 22 17.506ZM18.541 3.99997C19.075 3.98458 19.5991 4.14619 20.0317 4.45962C20.4643 4.77306 20.7812 5.22074 20.933 5.73297C21.0354 6.22827 20.9751 6.7434 20.761 7.20163C20.5469 7.65987 20.1905 8.03669 19.745 8.27597C19.5182 8.40808 19.33 8.59739 19.1993 8.82499C19.0685 9.05258 18.9998 9.3105 19 9.57297V17.506C18.9984 18.168 18.7343 18.8023 18.2656 19.2699C17.7969 19.7374 17.162 20 16.5 20H7.49996C6.83795 20 6.20298 19.7374 5.73431 19.2699C5.26564 18.8023 5.00154 18.168 4.99996 17.506V9.57297C5.00063 9.30999 4.93216 9.05146 4.8014 8.82329C4.67064 8.59512 4.4822 8.40534 4.25496 8.27297C3.81013 8.0339 3.45429 7.65772 3.24027 7.20031C3.02625 6.74291 2.96547 6.22867 3.06696 5.73397C3.21838 5.22147 3.53512 4.77346 3.9678 4.45981C4.40048 4.14615 4.92477 3.98447 5.45896 3.99997H18.541Z" fill="#374957"/>
</svg>
