<svg width="24" height="24" viewBox="0 0 24 24" fill="none" xmlns="http://www.w3.org/2000/svg">
<g clip-path="url(#clip0_405_1592)">
<path d="M8.5 0H4.5C3.30693 0.00132343 2.16311 0.475854 1.31948 1.31948C0.475854 2.16311 0.00132343 3.30693 0 4.5L0 5.5C0.00132343 6.69307 0.475854 7.83689 1.31948 8.68052C2.16311 9.52415 3.30693 9.99868 4.5 10H5V11H4.5C4.10218 11 3.72064 11.158 3.43934 11.4393C3.15804 11.7206 3 12.1022 3 12.5C3 12.8978 3.15804 13.2794 3.43934 13.5607C3.72064 13.842 4.10218 14 4.5 14H8.5C8.89782 14 9.27936 13.842 9.56066 13.5607C9.84196 13.2794 10 12.8978 10 12.5C10 12.1022 9.84196 11.7206 9.56066 11.4393C9.27936 11.158 8.89782 11 8.5 11H8V10H8.5C9.69307 9.99868 10.8369 9.52415 11.6805 8.68052C12.5241 7.83689 12.9987 6.69307 13 5.5V4.5C12.9987 3.30693 12.5241 2.16311 11.6805 1.31948C10.8369 0.475854 9.69307 0.00132343 8.5 0V0ZM10 5.5C10 5.89782 9.84196 6.27936 9.56066 6.56066C9.27936 6.84196 8.89782 7 8.5 7H4.5C4.10218 7 3.72064 6.84196 3.43934 6.56066C3.15804 6.27936 3 5.89782 3 5.5V4.5C3 4.10218 3.15804 3.72064 3.43934 3.43934C3.72064 3.15804 4.10218 3 4.5 3H8.5C8.89782 3 9.27936 3.15804 9.56066 3.43934C9.84196 3.72064 10 4.10218 10 4.5V5.5ZM15 4.5C15 4.10218 15.158 3.72064 15.4393 3.43934C15.7206 3.15804 16.1022 3 16.5 3H17.5C18.4283 3 19.3185 3.36875 19.9749 4.02513C20.6313 4.6815 21 5.57174 21 6.5V7.5C21 7.89782 20.842 8.27936 20.5607 8.56066C20.2794 8.84196 19.8978 9 19.5 9C19.1022 9 18.7206 8.84196 18.4393 8.56066C18.158 8.27936 18 7.89782 18 7.5V6.5C18 6.36739 17.9473 6.24021 17.8536 6.14645C17.7598 6.05268 17.6326 6 17.5 6H16.5C16.1022 6 15.7206 5.84196 15.4393 5.56066C15.158 5.27936 15 4.89782 15 4.5ZM13 20.5C13 20.8978 12.842 21.2794 12.5607 21.5607C12.2794 21.842 11.8978 22 11.5 22H8.5C7.57174 22 6.6815 21.6313 6.02513 20.9749C5.36875 20.3185 5 19.4283 5 18.5V17.5C5 17.1022 5.15804 16.7206 5.43934 16.4393C5.72064 16.158 6.10218 16 6.5 16C6.89782 16 7.27936 16.158 7.56066 16.4393C7.84196 16.7206 8 17.1022 8 17.5V18.5C8 18.6326 8.05268 18.7598 8.14645 18.8536C8.24021 18.9473 8.36739 19 8.5 19H11.5C11.8978 19 12.2794 19.158 12.5607 19.4393C12.842 19.7206 13 20.1022 13 20.5ZM21 11H18C17.2044 11 16.4413 11.3161 15.8787 11.8787C15.3161 12.4413 15 13.2044 15 14V21C15 21.7956 15.3161 22.5587 15.8787 23.1213C16.4413 23.6839 17.2044 24 18 24H21C21.7956 24 22.5587 23.6839 23.1213 23.1213C23.6839 22.5587 24 21.7956 24 21V14C24 13.2044 23.6839 12.4413 23.1213 11.8787C22.5587 11.3161 21.7956 11 21 11ZM19.5 22C19.2033 22 18.9133 21.912 18.6666 21.7472C18.42 21.5824 18.2277 21.3481 18.1142 21.074C18.0007 20.7999 17.9709 20.4983 18.0288 20.2074C18.0867 19.9164 18.2296 19.6491 18.4393 19.4393C18.6491 19.2296 18.9164 19.0867 19.2074 19.0288C19.4983 18.9709 19.7999 19.0007 20.074 19.1142C20.3481 19.2277 20.5824 19.42 20.7472 19.6666C20.912 19.9133 21 20.2033 21 20.5C21 20.8978 20.842 21.2794 20.5607 21.5607C20.2794 21.842 19.8978 22 19.5 22Z" fill="#374957"/>
</g>
<defs>
<clipPath id="clip0_405_1592">
<rect width="24" height="24" fill="white"/>
</clipPath>
</defs>
</svg>
