<svg width="24" height="24" viewBox="0 0 24 24" fill="none" xmlns="http://www.w3.org/2000/svg">
<g clip-path="url(#clip0_405_1696)">
<path d="M8 4.00031H4C2.93913 4.00031 1.92172 4.42173 1.17157 5.17188C0.421427 5.92202 0 6.93944 0 8.00031L0 12.0003C0 12.5307 0.210714 13.0394 0.585786 13.4145C0.960859 13.7896 1.46957 14.0003 2 14.0003H7C6.99841 15.3259 6.47112 16.5967 5.53378 17.5341C4.59644 18.4714 3.32559 18.9987 2 19.0003C1.60218 19.0003 1.22064 19.1583 0.93934 19.4396C0.658035 19.721 0.5 20.1025 0.5 20.5003C0.5 20.8981 0.658035 21.2797 0.93934 21.561C1.22064 21.8423 1.60218 22.0003 2 22.0003C4.121 21.9979 6.15445 21.1543 7.65422 19.6545C9.154 18.1548 9.99762 16.1213 10 14.0003V6.00031C10 5.46987 9.78929 4.96116 9.41421 4.58609C9.03914 4.21102 8.53043 4.00031 8 4.00031Z" fill="#374957"/>
<path d="M21.9999 4.00031H17.9999C16.939 4.00031 15.9216 4.42173 15.1714 5.17188C14.4213 5.92202 13.9999 6.93944 13.9999 8.00031V12.0003C13.9999 12.5307 14.2106 13.0394 14.5857 13.4145C14.9607 13.7896 15.4694 14.0003 15.9999 14.0003H20.9999C20.9983 15.3259 20.471 16.5967 19.5336 17.5341C18.5963 18.4714 17.3255 18.9987 15.9999 19.0003C15.602 19.0003 15.2205 19.1583 14.9392 19.4396C14.6579 19.721 14.4999 20.1025 14.4999 20.5003C14.4999 20.8981 14.6579 21.2797 14.9392 21.561C15.2205 21.8423 15.602 22.0003 15.9999 22.0003C18.1209 21.9979 20.1543 21.1543 21.6541 19.6545C23.1538 18.1548 23.9975 16.1213 23.9998 14.0003V6.00031C23.9998 5.46987 23.7891 4.96116 23.4141 4.58609C23.039 4.21102 22.5303 4.00031 21.9999 4.00031Z" fill="#374957"/>
</g>
<defs>
<clipPath id="clip0_405_1696">
<rect width="24" height="24" fill="white"/>
</clipPath>
</defs>
</svg>
