<svg width="24" height="24" viewBox="0 0 24 24" fill="none" xmlns="http://www.w3.org/2000/svg">
<g clip-path="url(#clip0_405_1354)">
<path d="M10 12C10.0016 11.517 10.1794 11.0512 10.5 10.69V7C10.5 6.60218 10.658 6.22064 10.9393 5.93934C11.2206 5.65804 11.6022 5.5 12 5.5C12.3978 5.5 12.7794 5.65804 13.0607 5.93934C13.342 6.22064 13.5 6.60218 13.5 7V10.69C13.822 11.0504 14 11.5167 14 12C14 12.4833 13.822 12.9496 13.5 13.31V15.5C13.5 15.8978 13.342 16.2794 13.0607 16.5607C12.7794 16.842 12.3978 17 12 17C11.6022 17 11.2206 16.842 10.9393 16.5607C10.658 16.2794 10.5 15.8978 10.5 15.5V13.31C10.1795 12.9487 10.0018 12.483 10 12ZM12 0C11.6022 0 11.2206 0.158035 10.9393 0.43934C10.658 0.720644 10.5 1.10218 10.5 1.5C10.5 1.89782 10.658 2.27936 10.9393 2.56066C11.2206 2.84196 11.6022 3 12 3C14.3869 3 16.6761 3.94821 18.364 5.63604C20.0518 7.32387 21 9.61305 21 12C21 14.3869 20.0518 16.6761 18.364 18.364C16.6761 20.0518 14.3869 21 12 21C11.6022 21 11.2206 21.158 10.9393 21.4393C10.658 21.7206 10.5 22.1022 10.5 22.5C10.5 22.8978 10.658 23.2794 10.9393 23.5607C11.2206 23.842 11.6022 24 12 24C15.1826 24 18.2348 22.7357 20.4853 20.4853C22.7357 18.2348 24 15.1826 24 12C24 8.8174 22.7357 5.76515 20.4853 3.51472C18.2348 1.26428 15.1826 0 12 0V0ZM3 12C3 11.7033 2.91203 11.4133 2.74721 11.1666C2.58238 10.92 2.34811 10.7277 2.07403 10.6142C1.79994 10.5006 1.49834 10.4709 1.20737 10.5288C0.916394 10.5867 0.649119 10.7296 0.439341 10.9393C0.229562 11.1491 0.0867006 11.4164 0.0288228 11.7074C-0.0290551 11.9983 0.000649929 12.2999 0.114181 12.574C0.227713 12.8481 0.419972 13.0824 0.666645 13.2472C0.913319 13.412 1.20333 13.5 1.5 13.5C1.89783 13.5 2.27936 13.342 2.56066 13.0607C2.84197 12.7794 3 12.3978 3 12ZM6.74 1.394C6.44333 1.394 6.15332 1.48197 5.90665 1.6468C5.65997 1.81162 5.46771 2.04589 5.35418 2.31997C5.24065 2.59406 5.21094 2.89566 5.26882 3.18664C5.3267 3.47761 5.46956 3.74488 5.67934 3.95466C5.88912 4.16444 6.15639 4.3073 6.44736 4.36518C6.73834 4.42306 7.03994 4.39335 7.31403 4.27982C7.58811 4.16629 7.82238 3.97403 7.98721 3.72736C8.15203 3.48068 8.24 3.19067 8.24 2.894C8.24 2.49618 8.08197 2.11464 7.80066 1.83334C7.51936 1.55204 7.13783 1.394 6.74 1.394ZM2.913 5.25C2.61633 5.25 2.32632 5.33797 2.07965 5.5028C1.83297 5.66762 1.64071 5.90189 1.52718 6.17597C1.41365 6.45006 1.38394 6.75166 1.44182 7.04264C1.4997 7.33361 1.64256 7.60088 1.85234 7.81066C2.06212 8.02044 2.32939 8.1633 2.62037 8.22118C2.91134 8.27906 3.21294 8.24935 3.48703 8.13582C3.76112 8.02229 3.99538 7.83003 4.1602 7.58336C4.32503 7.33668 4.413 7.04667 4.413 6.75C4.413 6.35218 4.25497 5.97064 3.97366 5.68934C3.69236 5.40804 3.31083 5.25 2.913 5.25ZM6.74 19.606C6.44333 19.606 6.15332 19.694 5.90665 19.8588C5.65997 20.0236 5.46771 20.2579 5.35418 20.532C5.24065 20.8061 5.21094 21.1077 5.26882 21.3986C5.3267 21.6896 5.46956 21.9569 5.67934 22.1667C5.88912 22.3764 6.15639 22.5193 6.44736 22.5772C6.73834 22.6351 7.03994 22.6054 7.31403 22.4918C7.58811 22.3783 7.82238 22.186 7.98721 21.9394C8.15203 21.6927 8.24 21.4027 8.24 21.106C8.24 20.7082 8.08197 20.3266 7.80066 20.0453C7.51936 19.764 7.13783 19.606 6.74 19.606ZM2.913 15.75C2.61633 15.75 2.32632 15.838 2.07965 16.0028C1.83297 16.1676 1.64071 16.4019 1.52718 16.676C1.41365 16.9501 1.38394 17.2517 1.44182 17.5426C1.4997 17.8336 1.64256 18.1009 1.85234 18.3107C2.06212 18.5204 2.32939 18.6633 2.62037 18.7212C2.91134 18.7791 3.21294 18.7493 3.48703 18.6358C3.76112 18.5223 3.99538 18.33 4.1602 18.0834C4.32503 17.8367 4.413 17.5467 4.413 17.25C4.413 16.8522 4.25497 16.4706 3.97366 16.1893C3.69236 15.908 3.31083 15.75 2.913 15.75Z" fill="#374957"/>
</g>
<defs>
<clipPath id="clip0_405_1354">
<rect width="24" height="24" fill="white"/>
</clipPath>
</defs>
</svg>
