<svg width="24" height="24" viewBox="0 0 24 24" fill="none" xmlns="http://www.w3.org/2000/svg">
<g clip-path="url(#clip0_405_1571)">
<path d="M7.45181 14.0177C3.1906 14.4028 -0.055843 18.0035 0.00072812 22.2816V22.4986C0.00072812 23.3269 0.672224 23.9984 1.50054 23.9984C2.32886 23.9984 3.00036 23.3269 3.00036 22.4986V22.2216C2.95527 19.5949 4.89378 17.3548 7.49981 17.0223C10.2507 16.7495 12.7019 18.7584 12.9747 21.5093C12.9908 21.672 12.999 21.8352 12.9991 21.9987V22.4986C12.9991 23.327 13.6706 23.9984 14.4989 23.9984C15.3272 23.9984 15.9987 23.327 15.9987 22.4986V21.9987C15.9939 17.576 12.4046 13.9946 7.9819 13.9995C7.80502 13.9997 7.62823 14.0057 7.45181 14.0177Z" fill="#374957"/>
<path d="M7.99975 11.9997C11.313 11.9997 13.999 9.31376 13.999 6.00048C13.999 2.6872 11.313 0.0012207 7.99975 0.0012207C4.68647 0.0012207 2.00049 2.6872 2.00049 6.00048C2.00382 9.31245 4.68783 11.9965 7.99975 11.9997ZM7.99975 3.00085C9.65639 3.00085 10.9994 4.34384 10.9994 6.00048C10.9994 7.65712 9.65639 9.00011 7.99975 9.00011C6.34311 9.00011 5.00012 7.65712 5.00012 6.00048C5.00012 4.34384 6.34311 3.00085 7.99975 3.00085Z" fill="#374957"/>
<path d="M21.9981 7.87512C20.8396 7.93282 19.9457 8.91613 19.9983 10.0748C20.051 8.91613 19.1571 7.93282 17.9986 7.87512C16.8401 7.93282 15.9462 8.91613 15.9988 10.0748C15.9988 11.8046 18.2545 13.8314 19.3784 14.7333C19.7407 15.0234 20.2559 15.0234 20.6182 14.7333C21.7421 13.8334 23.9978 11.8046 23.9978 10.0748C24.0505 8.91613 23.1566 7.93286 21.9981 7.87512Z" fill="#374957"/>
</g>
<defs>
<clipPath id="clip0_405_1571">
<rect width="24" height="24" fill="white"/>
</clipPath>
</defs>
</svg>
