<svg width="24" height="24" viewBox="0 0 24 24" fill="none" xmlns="http://www.w3.org/2000/svg">
<g clip-path="url(#clip0_405_1558)">
<path d="M7.72589 3.04294L8.34489 2.04294C8.73557 1.4271 9.27549 0.919947 9.91455 0.568548C10.5536 0.217149 11.2711 0.0328979 12.0004 0.0328979C12.7297 0.0328979 13.4472 0.217149 14.0862 0.568548C14.7253 0.919947 15.2652 1.4271 15.6559 2.04294L17.7869 5.43094L19.1449 4.50394C19.3898 4.33679 19.6787 4.24597 19.9752 4.24294C20.2717 4.23991 20.5624 4.32481 20.8107 4.48693C21.0589 4.64904 21.2536 4.88109 21.37 5.15377C21.4864 5.42644 21.5195 5.72751 21.4649 6.01894L20.7289 9.96194C20.6435 10.4206 20.4009 10.8351 20.0427 11.1341C19.6846 11.4331 19.2334 11.5978 18.7669 11.5999C18.6369 11.5999 14.4669 10.7919 14.4669 10.7919C14.177 10.7347 13.9104 10.5931 13.7006 10.385C13.4909 10.1768 13.3473 9.91129 13.2879 9.62179C13.2285 9.3323 13.256 9.03171 13.3668 8.75776C13.4776 8.48381 13.6669 8.2487 13.9109 8.08194L15.3059 7.12894L13.1059 3.63594C12.99 3.44812 12.8283 3.29288 12.6358 3.18485C12.4434 3.07682 12.2266 3.01956 12.0059 3.01846C11.7853 3.01736 11.5679 3.07246 11.3744 3.17856C11.1809 3.28466 11.0176 3.43828 10.8999 3.62494L10.2789 4.62494C10.175 4.79257 10.0391 4.93811 9.87902 5.05323C9.7189 5.16835 9.53768 5.2508 9.34569 5.29589C9.15371 5.34097 8.95472 5.3478 8.7601 5.31598C8.56548 5.28416 8.37903 5.21432 8.21139 5.11044C8.04376 5.00657 7.89823 4.87069 7.78311 4.71057C7.66799 4.55045 7.58553 4.36923 7.54045 4.17724C7.49537 3.98526 7.48854 3.78627 7.52036 3.59165C7.55218 3.39702 7.62202 3.21057 7.72589 3.04294ZM23.3529 14.4619L22.7749 13.5309C22.6723 13.3612 22.537 13.2134 22.3769 13.0963C22.2168 12.9791 22.0351 12.8949 21.8422 12.8485C21.6493 12.8021 21.4492 12.7944 21.2533 12.8258C21.0574 12.8573 20.8697 12.9273 20.7011 13.0318C20.5325 13.1363 20.3862 13.2732 20.2709 13.4345C20.1555 13.5959 20.0733 13.7786 20.029 13.972C19.9847 14.1653 19.9792 14.3656 20.0129 14.5611C20.0465 14.7566 20.1185 14.9435 20.2249 15.1109L20.8029 16.0429C20.9235 16.2389 20.9895 16.4635 20.9942 16.6935C20.9989 16.9235 20.9421 17.1507 20.8297 17.3514C20.7172 17.5521 20.5532 17.7192 20.3546 17.8353C20.156 17.9514 19.93 18.0124 19.6999 18.0119H14.9999V16.4999C15.0003 16.2077 14.9153 15.9217 14.7553 15.677C14.5954 15.4324 14.3675 15.2398 14.0996 15.123C13.8317 15.0061 13.5355 14.9701 13.2474 15.0193C12.9593 15.0685 12.6918 15.2008 12.4779 15.3999L9.69989 17.9919C9.48594 18.1768 9.31362 18.405 9.1943 18.6613C9.07499 18.9177 9.01139 19.1964 9.0077 19.4792C9.00402 19.7619 9.06033 20.0422 9.17292 20.3016C9.28552 20.561 9.45183 20.7936 9.66089 20.9839L12.4789 23.5999C12.6929 23.7987 12.9602 23.9308 13.2482 23.9798C13.5361 24.0288 13.8321 23.9927 14.0998 23.8759C14.3675 23.7591 14.5953 23.5666 14.7552 23.3222C14.915 23.0778 15.0001 22.792 14.9999 22.4999V21.0119H19.6999C20.465 21.0132 21.2164 20.8099 21.8765 20.4232C22.5367 20.0364 23.0814 19.4802 23.4543 18.8122C23.8273 18.1442 24.0149 17.3887 23.9978 16.6238C23.9807 15.859 23.7594 15.1126 23.3569 14.4619H23.3529ZM8.09989 8.38094C8.04993 8.12164 7.94932 7.87474 7.80381 7.65438C7.65831 7.43402 7.47076 7.24452 7.25192 7.09673C7.03307 6.94895 6.78723 6.84578 6.52846 6.79314C6.26969 6.74049 6.00308 6.73941 5.74389 6.78994L1.83789 7.55894C1.54771 7.61598 1.28085 7.75752 1.07088 7.96577C0.860899 8.17403 0.717169 8.43971 0.657753 8.72942C0.598336 9.01913 0.625884 9.31994 0.736935 9.59404C0.847985 9.86813 1.03758 10.1033 1.28189 10.2699L2.66189 11.2119L0.647893 14.4619C0.240368 15.1091 0.0158618 15.8546 -0.00174671 16.6191C-0.0193552 17.3837 0.170592 18.1387 0.547893 18.8039C0.918048 19.479 1.46451 20.041 2.12899 20.4298C2.79346 20.8187 3.55104 21.0199 4.32089 21.0119L5.51489 20.9999C5.91272 20.996 6.29267 20.8341 6.57116 20.55C6.84965 20.2659 7.00387 19.8828 6.99989 19.4849C6.99591 19.0871 6.83406 18.7072 6.54995 18.4287C6.26583 18.1502 5.88272 17.996 5.48489 17.9999L4.29989 18.0119C4.06992 18.012 3.84411 17.9506 3.64577 17.8342C3.44744 17.7178 3.28376 17.5506 3.17164 17.3498C3.05953 17.149 3.00304 16.922 3.008 16.692C3.01297 16.4621 3.07921 16.2377 3.19989 16.0419L5.14389 12.9059L6.51589 13.8429C6.76071 14.01 7.04953 14.1008 7.34589 14.1038C7.64225 14.1068 7.93287 14.022 8.18107 13.8601C8.42927 13.6981 8.62393 13.4662 8.74047 13.1937C8.85701 12.9212 8.89022 12.6203 8.83589 12.3289L8.09989 8.38094Z" fill="#374957"/>
</g>
<defs>
<clipPath id="clip0_405_1558">
<rect width="24" height="24" fill="white"/>
</clipPath>
</defs>
</svg>
