<svg width="24" height="24" viewBox="0 0 24 24" fill="none" xmlns="http://www.w3.org/2000/svg">
<g clip-path="url(#clip0_405_1645)">
<path d="M23.1479 5.7L20.2799 1.827C19.8756 1.26245 19.3426 0.802298 18.7251 0.484598C18.1076 0.166898 17.4234 0.000785725 16.7289 2.06794e-06H7.27093C6.58194 -0.000669296 5.90263 0.162139 5.2888 0.475051C4.67497 0.787964 4.14414 1.24205 3.73993 1.8L0.799928 5.721C0.256175 6.48456 -0.0261282 7.40346 -0.00486232 8.3406C0.0164036 9.27775 0.340099 10.1829 0.917928 10.921L9.32893 22.71C9.6473 23.1133 10.0532 23.4391 10.5159 23.6625C10.9786 23.886 11.4861 24.0014 11.9999 24C12.5258 23.9986 13.0442 23.8761 13.5151 23.642C13.9859 23.4079 14.3965 23.0684 14.7149 22.65L23.0149 11.041C23.6256 10.2912 23.9699 9.3599 23.994 8.39323C24.0181 7.42655 23.7205 6.47925 23.1479 5.7ZM3.22693 7.487L6.16093 3.571C6.28732 3.39453 6.45393 3.2507 6.64695 3.15141C6.83997 3.05212 7.05386 3.00022 7.27093 3H9.66193L8.18193 8.182L8.26693 8.5H15.7329L15.8179 8.182L14.3379 3H16.7289C16.9502 3.00135 17.1678 3.05583 17.3636 3.15886C17.5594 3.26188 17.7275 3.41043 17.8539 3.592L20.7329 7.482C20.8368 7.62784 20.9099 7.79332 20.9477 7.96835C20.9856 8.14338 20.9873 8.32427 20.9529 8.5H15.7329L12.5129 20.575L12.3199 20.846C12.282 20.8946 12.2335 20.9338 12.178 20.9605C12.1224 20.9872 12.0615 21.0007 11.9999 21C11.8999 21.005 11.8018 20.9714 11.7259 20.906L11.4849 20.569L8.26693 8.5H3.04093C3.00165 8.32736 2.99788 8.14854 3.02985 7.97439C3.06183 7.80025 3.12888 7.63443 3.22693 7.487Z" fill="#374957"/>
</g>
<defs>
<clipPath id="clip0_405_1645">
<rect width="24" height="24" fill="white"/>
</clipPath>
</defs>
</svg>
