<svg width="24" height="24" viewBox="0 0 24 24" fill="none" xmlns="http://www.w3.org/2000/svg">
<g clip-path="url(#clip0_405_1596)">
<path d="M23.074 3.84177C22.7999 3.72815 22.4982 3.69839 22.2072 3.75624C21.9162 3.81409 21.6488 3.95696 21.439 4.16677L17.728 7.87877L13.061 3.21177C12.9217 3.07238 12.7563 2.96181 12.5742 2.88637C12.3922 2.81093 12.1971 2.77209 12 2.77209C11.8029 2.77209 11.6078 2.81093 11.4258 2.88637C11.2437 2.96181 11.0783 3.07238 10.939 3.21177L6.272 7.87877L2.561 4.16677C2.35122 3.95686 2.08388 3.81389 1.79282 3.75595C1.50176 3.69802 1.20006 3.72773 0.925883 3.84131C0.65171 3.9549 0.417392 4.14726 0.252579 4.39406C0.0877662 4.64086 -0.000134366 4.931 1.54168e-07 5.22777V16.4998C0.00185241 17.9579 0.58191 19.3558 1.61296 20.3868C2.64401 21.4179 4.04188 21.9979 5.5 21.9998H18.5C19.9581 21.9979 21.356 21.4179 22.387 20.3868C23.4181 19.3558 23.9981 17.9579 24 16.4998V5.22777C24 4.93107 23.9121 4.64102 23.7472 4.39431C23.5824 4.1476 23.3481 3.95531 23.074 3.84177ZM21 16.4998C21 17.1628 20.7366 17.7987 20.2678 18.2675C19.7989 18.7364 19.163 18.9998 18.5 18.9998H5.5C4.83696 18.9998 4.20107 18.7364 3.73223 18.2675C3.26339 17.7987 3 17.1628 3 16.4998V8.84877L5.212 11.0608C5.49329 11.342 5.87475 11.5 6.2725 11.5C6.67025 11.5 7.05171 11.342 7.333 11.0608L12 6.39377L16.667 11.0608C16.9483 11.342 17.3298 11.5 17.7275 11.5C18.1252 11.5 18.5067 11.342 18.788 11.0608L21 8.84877V16.4998Z" fill="#374957"/>
</g>
<defs>
<clipPath id="clip0_405_1596">
<rect width="24" height="24" fill="white"/>
</clipPath>
</defs>
</svg>
