<svg width="24" height="24" viewBox="0 0 24 24" fill="none" xmlns="http://www.w3.org/2000/svg">
<g clip-path="url(#clip0_405_1556)">
<path d="M16.3 15.0069C16.5813 15.2881 16.9628 15.4461 17.3605 15.4461C17.7582 15.4461 18.1397 15.2881 18.421 15.0069L23.147 10.2819C23.6959 9.73183 24.0042 8.98648 24.0042 8.20938C24.0042 7.43229 23.6959 6.68694 23.147 6.13688L18.416 1.41188C18.2795 1.26093 18.1138 1.13932 17.9288 1.05445C17.7439 0.96959 17.5436 0.923245 17.3402 0.918239C17.1367 0.913234 16.9344 0.949674 16.7455 1.02534C16.5566 1.10101 16.3851 1.21432 16.2414 1.35838C16.0976 1.50244 15.9847 1.67424 15.9095 1.86331C15.8343 2.05239 15.7983 2.2548 15.8038 2.45822C15.8093 2.66164 15.8561 2.86181 15.9414 3.04656C16.0267 3.23131 16.1487 3.39678 16.3 3.53288L19.532 6.69988H5.319C3.90888 6.70174 2.55705 7.26272 1.55994 8.25983C0.56284 9.25693 0.00185211 10.6088 0 12.0189L0 18.6999C0.00158806 20.1098 0.562386 21.4615 1.55936 22.4585C2.55633 23.4555 3.90807 24.0163 5.318 24.0179H18.682C19.0798 24.0179 19.4614 23.8598 19.7427 23.5785C20.024 23.2972 20.182 22.9157 20.182 22.5179C20.182 22.1201 20.024 21.7385 19.7427 21.4572C19.4614 21.1759 19.0798 21.0179 18.682 21.0179H5.318C4.70347 21.0171 4.11434 20.7726 3.6798 20.3381C3.24527 19.9035 3.00079 19.3144 3 18.6999V12.0189C3.00053 11.404 3.24502 10.8145 3.6798 10.3797C4.11459 9.94491 4.70413 9.70041 5.319 9.69988H19.478L16.3 12.8859C16.0188 13.1672 15.8608 13.5486 15.8608 13.9464C15.8608 14.3441 16.0188 14.7256 16.3 15.0069Z" fill="#374957"/>
</g>
<defs>
<clipPath id="clip0_405_1556">
<rect width="24" height="24" fill="white"/>
</clipPath>
</defs>
</svg>
