<svg width="24" height="24" viewBox="0 0 24 24" fill="none" xmlns="http://www.w3.org/2000/svg">
<path d="M10.4821 19.5C10.0845 19.4999 9.70325 19.342 9.42205 19.061L4.83605 14.475C4.18082 13.818 3.81287 12.9279 3.81287 12C3.81287 11.0721 4.18082 10.182 4.83605 9.525L9.42205 4.939C9.70345 4.65774 10.085 4.49978 10.4829 4.49988C10.8808 4.49997 11.2623 4.65811 11.5436 4.9395C11.8248 5.2209 11.9828 5.6025 11.9827 6.00036C11.9826 6.39822 11.8244 6.77974 11.5431 7.061L6.95705 11.646C6.91049 11.6925 6.87355 11.7476 6.84834 11.8084C6.82313 11.8691 6.81016 11.9342 6.81016 12C6.81016 12.0658 6.82313 12.1309 6.84834 12.1916C6.87355 12.2524 6.91049 12.3076 6.95705 12.354L11.5431 16.939C11.753 17.1488 11.8959 17.4161 11.9539 17.7072C12.0118 17.9982 11.9821 18.3 11.8685 18.5741C11.7549 18.8483 11.5626 19.0826 11.3158 19.2474C11.069 19.4122 10.7788 19.5001 10.4821 19.5Z" fill="#374957"/>
<path d="M17.482 19.5C17.0844 19.4999 16.7032 19.342 16.422 19.061L10.422 13.061C10.2826 12.9217 10.172 12.7563 10.0966 12.5743C10.0211 12.3922 9.9823 12.1971 9.9823 12C9.9823 11.8029 10.0211 11.6078 10.0966 11.4258C10.172 11.2437 10.2826 11.0783 10.422 10.939L16.422 4.939C16.5613 4.79974 16.7267 4.68928 16.9087 4.61393C17.0907 4.53859 17.2858 4.49983 17.4828 4.49988C17.6798 4.49992 17.8749 4.53877 18.0569 4.6142C18.2389 4.68963 18.4042 4.80017 18.5435 4.9395C18.6827 5.07884 18.7932 5.24424 18.8685 5.42626C18.9439 5.60828 18.9826 5.80336 18.9826 6.00036C18.9825 6.19736 18.9437 6.39242 18.8683 6.57441C18.7928 6.75639 18.6823 6.92174 18.543 7.061L13.6 12L18.539 16.939C18.7486 17.1485 18.8915 17.4155 18.9496 17.7062C19.0077 17.9969 18.9783 18.2983 18.8652 18.5723C18.7521 18.8463 18.5604 19.0806 18.3142 19.2458C18.068 19.4109 17.7784 19.4994 17.482 19.5Z" fill="#374957"/>
</svg>
