<svg width="24" height="24" viewBox="0 0 24 24" fill="none" xmlns="http://www.w3.org/2000/svg">
<g clip-path="url(#clip0_405_1372)">
<path d="M8.50001 7.00001C9.185 7.02271 9.83299 7.31631 10.3017 7.81635C10.7704 8.31638 11.0216 8.98197 11 9.66701C11 11 9.88101 11 8.50001 11C7.11901 11 6.00001 11 6.00001 9.66701C5.97843 8.98197 6.22958 8.31638 6.6983 7.81635C7.16702 7.31631 7.81501 7.02271 8.50001 7.00001ZM13 9.66701C13 11 14.119 11 15.5 11C16.881 11 18 11 18 9.66701C18.0216 8.98197 17.7704 8.31638 17.3017 7.81635C16.833 7.31631 16.185 7.02271 15.5 7.00001C14.815 7.02271 14.167 7.31631 13.6983 7.81635C13.2296 8.31638 12.9784 8.98197 13 9.66701ZM24 12C24 9.62663 23.2962 7.30655 21.9776 5.33316C20.6591 3.35977 18.7849 1.8217 16.5922 0.913451C14.3995 0.00519943 11.9867 -0.232441 9.65892 0.230582C7.33115 0.693605 5.19295 1.83649 3.51472 3.51472C1.83649 5.19295 0.693605 7.33115 0.230582 9.65892C-0.232441 11.9867 0.00519943 14.3995 0.913451 16.5922C1.8217 18.7849 3.35977 20.6591 5.33316 21.9776C7.30655 23.2962 9.62663 24 12 24C15.1815 23.9966 18.2318 22.7312 20.4815 20.4815C22.7312 18.2318 23.9966 15.1815 24 12ZM21 12C21 13.78 20.4722 15.5201 19.4832 17.0001C18.4943 18.4802 17.0887 19.6337 15.4442 20.3149C13.7996 20.9961 11.99 21.1743 10.2442 20.8271C8.49836 20.4798 6.89472 19.6226 5.63604 18.364C4.37737 17.1053 3.5202 15.5016 3.17294 13.7558C2.82567 12.01 3.0039 10.2004 3.68509 8.55585C4.36628 6.91132 5.51983 5.50571 6.99987 4.51678C8.47992 3.52785 10.22 3.00001 12 3.00001C14.3861 3.00292 16.6736 3.95206 18.3608 5.63926C20.0479 7.32646 20.9971 9.61395 21 12ZM17.557 15.564C17.8323 15.2827 17.986 14.9046 17.985 14.511C17.984 14.1174 17.8283 13.74 17.5516 13.4602C17.2749 13.1803 16.8993 13.0204 16.5058 13.015C16.1123 13.0095 15.7324 13.1589 15.448 13.431C14.5061 14.3243 13.2923 14.8766 12 15C10.7101 14.8771 9.49824 14.3266 8.55701 13.436C8.27323 13.1636 7.89378 13.0135 7.50041 13.0181C7.10705 13.0228 6.73126 13.1818 6.45401 13.4609C6.17676 13.74 6.02024 14.1168 6.01818 14.5102C6.01612 14.9036 6.16869 15.282 6.44301 15.564C7.94862 17.0081 9.91773 17.8713 12 18C14.0823 17.8713 16.0514 17.0081 17.557 15.564Z" fill="#374957"/>
</g>
<defs>
<clipPath id="clip0_405_1372">
<rect width="24" height="24" fill="white"/>
</clipPath>
</defs>
</svg>
