<svg width="24" height="24" viewBox="0 0 24 24" fill="none" xmlns="http://www.w3.org/2000/svg">
<g clip-path="url(#clip0_405_1698)">
<path d="M17.7349 21.0159H13.4999V4.54296L16.6849 7.72795C16.9663 8.00922 17.3479 8.16718 17.7458 8.16708C17.9428 8.16704 18.1378 8.12819 18.3198 8.05276C18.5018 7.97732 18.6671 7.86679 18.8064 7.72745C18.9457 7.58812 19.0561 7.42272 19.1315 7.2407C19.2068 7.05868 19.2456 6.8636 19.2455 6.6666C19.2455 6.4696 19.2066 6.27454 19.1312 6.09256C19.0558 5.91057 18.9452 5.74522 18.8059 5.60596L14.0749 0.875961C13.5165 0.341449 12.7734 0.0430908 12.0004 0.0430908C11.2274 0.0430908 10.4843 0.341449 9.9259 0.875961L5.1939 5.60596C4.9125 5.88722 4.75437 6.26874 4.75427 6.6666C4.75418 7.06446 4.91214 7.44606 5.1934 7.72745C5.47466 8.00885 5.85619 8.16699 6.25405 8.16708C6.6519 8.16718 7.0335 8.00922 7.3149 7.72795L10.4999 4.47896V21.0159H6.2649C5.86707 21.0159 5.48554 21.174 5.20424 21.4553C4.92293 21.7366 4.7649 22.1181 4.7649 22.5159C4.7649 22.9138 4.92293 23.2953 5.20424 23.5766C5.48554 23.8579 5.86707 24.0159 6.2649 24.0159H17.7349C18.1327 24.0159 18.5143 23.8579 18.7956 23.5766C19.0769 23.2953 19.2349 22.9138 19.2349 22.5159C19.2349 22.1181 19.0769 21.7366 18.7956 21.4553C18.5143 21.174 18.1327 21.0159 17.7349 21.0159Z" fill="#374957"/>
</g>
<defs>
<clipPath id="clip0_405_1698">
<rect width="24" height="24" fill="white"/>
</clipPath>
</defs>
</svg>
