<svg width="24" height="24" viewBox="0 0 24 24" fill="none" xmlns="http://www.w3.org/2000/svg">
<g clip-path="url(#clip0_405_1325)">
<path d="M13.5 9H7.5C6.67158 9 6 9.67158 6 10.5C6 11.3284 6.67158 12 7.5 12H13.5C14.3284 12 15 11.3284 15 10.5C15 9.67158 14.3284 9 13.5 9Z" fill="#374957"/>
<path d="M23.5623 21.4478L18.9196 16.804C22.3967 12.1606 21.4513 5.57752 16.8078 2.10037C12.1644 -1.37677 5.58137 -0.431397 2.10419 4.21205C-1.373 8.85549 -0.427532 15.4386 4.21591 18.9157C7.94655 21.7093 13.072 21.7106 16.8039 18.9187L21.4487 23.5634C22.0323 24.1471 22.9787 24.1471 23.5623 23.5634C24.146 22.9797 24.146 22.0334 23.5623 21.4497V21.4478ZM10.5524 18.0222C6.42648 18.0222 3.08176 14.6775 3.08176 10.5516C3.08176 6.42563 6.42653 3.0809 10.5524 3.0809C14.6783 3.0809 18.0231 6.42563 18.0231 10.5516C18.0187 14.6757 14.6766 18.0179 10.5524 18.0222Z" fill="#374957"/>
</g>
<defs>
<clipPath id="clip0_405_1325">
<rect width="24" height="24" fill="white"/>
</clipPath>
</defs>
</svg>
