<svg width="24" height="24" viewBox="0 0 24 24" fill="none" xmlns="http://www.w3.org/2000/svg">
<g clip-path="url(#clip0_405_1798)">
<path d="M1.5 6H22.5C22.8978 6 23.2794 5.84196 23.5607 5.56066C23.842 5.27936 24 4.89782 24 4.5C24 4.10218 23.842 3.72064 23.5607 3.43934C23.2794 3.15804 22.8978 3 22.5 3H1.5C1.10218 3 0.720644 3.15804 0.43934 3.43934C0.158035 3.72064 0 4.10218 0 4.5C0 4.89782 0.158035 5.27936 0.43934 5.56066C0.720644 5.84196 1.10218 6 1.5 6Z" fill="#374957"/>
<path d="M22.5001 8H9.50012C9.1023 8 8.72077 8.15804 8.43946 8.43934C8.15816 8.72064 8.00012 9.10218 8.00012 9.5C8.00012 9.89782 8.15816 10.2794 8.43946 10.5607C8.72077 10.842 9.1023 11 9.50012 11H22.5001C22.8979 11 23.2795 10.842 23.5608 10.5607C23.8421 10.2794 24.0001 9.89782 24.0001 9.5C24.0001 9.10218 23.8421 8.72064 23.5608 8.43934C23.2795 8.15804 22.8979 8 22.5001 8Z" fill="#374957"/>
<path d="M22.5001 18H9.50012C9.1023 18 8.72077 18.158 8.43946 18.4393C8.15816 18.7206 8.00012 19.1022 8.00012 19.5C8.00012 19.8978 8.15816 20.2794 8.43946 20.5607C8.72077 20.842 9.1023 21 9.50012 21H22.5001C22.8979 21 23.2795 20.842 23.5608 20.5607C23.8421 20.2794 24.0001 19.8978 24.0001 19.5C24.0001 19.1022 23.8421 18.7206 23.5608 18.4393C23.2795 18.158 22.8979 18 22.5001 18Z" fill="#374957"/>
<path d="M22.5 13H1.5C1.10218 13 0.720644 13.158 0.43934 13.4393C0.158035 13.7206 0 14.1022 0 14.5C0 14.8978 0.158035 15.2794 0.43934 15.5607C0.720644 15.842 1.10218 16 1.5 16H22.5C22.8978 16 23.2794 15.842 23.5607 15.5607C23.842 15.2794 24 14.8978 24 14.5C24 14.1022 23.842 13.7206 23.5607 13.4393C23.2794 13.158 22.8978 13 22.5 13Z" fill="#374957"/>
</g>
<defs>
<clipPath id="clip0_405_1798">
<rect width="24" height="24" fill="white"/>
</clipPath>
</defs>
</svg>
