<svg width="24" height="24" viewBox="0 0 24 24" fill="none" xmlns="http://www.w3.org/2000/svg">
<g clip-path="url(#clip0_405_1689)">
<path d="M22.4481 19.0002H15.1001C14.7543 18.2783 14.1721 17.6965 13.4501 17.3512V14.0002C14.4951 14.0002 15.3851 13.9902 15.8501 13.9812C16.2223 13.9746 16.5929 13.93 16.9561 13.8482C18.0887 13.6009 19.1045 12.978 19.8386 12.0807C20.5727 11.1834 20.9819 10.0643 20.9998 8.9051C21.0178 7.74591 20.6434 6.61468 19.9375 5.69506C19.2315 4.77544 18.2355 4.12142 17.1111 3.83917L16.9261 3.79617C16.8701 3.78317 16.7851 3.76317 16.7971 3.78717C16.7878 3.77136 16.7794 3.755 16.7721 3.73817C16.226 2.48233 15.281 1.44171 14.0833 0.777633C12.8857 0.113557 11.5025 -0.136871 10.1481 0.0651736C8.95484 0.235094 7.83993 0.758748 6.94725 1.56854C6.05457 2.37834 5.42509 3.4371 5.14006 4.60817C4.94887 5.35938 4.90675 6.14077 5.01606 6.90817C4.34383 7.25922 3.79419 7.80633 3.44006 8.47694C3.08593 9.14755 2.94404 9.90998 3.0332 10.6631C3.12236 11.4162 3.43837 12.1244 3.93931 12.6938C4.44024 13.2632 5.10244 13.6668 5.83806 13.8512C6.13242 13.9268 6.43428 13.9694 6.73806 13.9782C7.30006 13.9912 8.80006 14.0002 10.4481 14.0002V17.3512C9.72676 17.6968 9.14528 18.2787 8.80006 19.0002H1.44806C1.05023 19.0002 0.668704 19.1582 0.387399 19.4395C0.106094 19.7208 -0.0519409 20.1024 -0.0519409 20.5002C-0.0519409 20.898 0.106094 21.2795 0.387399 21.5608C0.668704 21.8421 1.05023 22.0002 1.44806 22.0002H8.80006C9.08066 22.5987 9.52596 23.1049 10.0838 23.4595C10.6417 23.8141 11.289 24.0024 11.9501 24.0024C12.6111 24.0024 13.2584 23.8141 13.8163 23.4595C14.3742 23.1049 14.8195 22.5987 15.1001 22.0002H22.4501C22.8479 22.0002 23.2294 21.8421 23.5107 21.5608C23.792 21.2795 23.9501 20.898 23.9501 20.5002C23.9501 20.1024 23.792 19.7208 23.5107 19.4395C23.2294 19.1582 22.8479 19.0002 22.4501 19.0002H22.4481ZM6.58306 10.9432C6.45511 10.9092 6.33775 10.8436 6.24181 10.7524C6.14587 10.6612 6.07443 10.5473 6.03406 10.4212C5.9975 10.2247 6.03245 10.0216 6.13259 9.84866C6.23273 9.6757 6.39146 9.54429 6.58006 9.47817C7.10784 9.25736 7.54143 8.85838 7.80529 8.35075C8.06916 7.84313 8.14658 7.25901 8.02406 6.70017C7.92679 6.24898 7.93569 5.78134 8.05006 5.33417C8.19719 4.74538 8.51478 4.21309 8.96304 3.80396C9.4113 3.39483 9.97031 3.12706 10.5701 3.03417C10.7291 3.01198 10.8895 3.00062 11.0501 3.00017C11.6767 2.99343 12.2916 3.17083 12.8183 3.51037C13.345 3.84991 13.7605 4.33665 14.0131 4.91017C14.2151 5.38733 14.5355 5.80512 14.9439 6.12409C15.3522 6.44306 15.8352 6.65268 16.3471 6.73317C16.821 6.8444 17.2429 7.11383 17.5432 7.49703C17.8434 7.88023 18.0041 8.35431 17.9988 8.84111C17.9934 9.3279 17.8223 9.79834 17.5137 10.1748C17.2051 10.5513 16.7773 10.8114 16.3011 10.9122C16.1342 10.9499 15.964 10.9706 15.7931 10.9742C14.2451 11.0022 8.07406 11.0082 6.81606 10.9742C6.7375 10.9722 6.65939 10.9619 6.58306 10.9432Z" fill="#374957"/>
</g>
<defs>
<clipPath id="clip0_405_1689">
<rect width="24" height="24" fill="white"/>
</clipPath>
</defs>
</svg>
