<svg width="24" height="24" viewBox="0 0 24 24" fill="none" xmlns="http://www.w3.org/2000/svg">
<g clip-path="url(#clip0_405_1710)">
<path d="M9.49414 23.9995H5.50714C4.55189 23.9992 3.6132 23.75 2.78352 23.2766C1.95383 22.8032 1.26175 22.1218 0.77542 21.2997C0.289092 20.4775 0.025288 19.5428 0.00998345 18.5877C-0.00532111 17.6325 0.228402 16.6899 0.688138 15.8525L8.17714 2.08255C8.26765 1.90322 8.39326 1.7439 8.54651 1.61403C8.69976 1.48417 8.87754 1.38641 9.06929 1.32656C9.26104 1.2667 9.46286 1.24597 9.66278 1.2656C9.86269 1.28522 10.0566 1.3448 10.2331 1.4408C10.4095 1.53679 10.5649 1.66725 10.69 1.82444C10.8151 1.98162 10.9073 2.16233 10.9612 2.35583C11.0151 2.54934 11.0296 2.7517 11.0038 2.95092C10.9781 3.15013 10.9125 3.34214 10.8111 3.51555L3.31914 17.2915C3.1091 17.6721 3.00192 18.1009 3.00817 18.5355C3.01443 18.9702 3.1339 19.3957 3.35481 19.77C3.57572 20.1444 3.89042 20.4547 4.26787 20.6703C4.64531 20.8859 5.07245 20.9994 5.50714 20.9995H9.49414C9.89196 20.9995 10.2735 21.1576 10.5548 21.4389C10.8361 21.7202 10.9941 22.1017 10.9941 22.4995C10.9941 22.8974 10.8361 23.2789 10.5548 23.5602C10.2735 23.8415 9.89196 23.9995 9.49414 23.9995Z" fill="#374957"/>
<path d="M23.3152 15.857L15.8052 2.08204C15.6149 1.73285 15.2938 1.47349 14.9124 1.36098C14.531 1.24846 14.1205 1.29201 13.7712 1.48204C13.515 1.6419 13.3063 1.86748 13.1669 2.13533C13.0274 2.40317 12.9622 2.70349 12.9782 3.00504V22.5C12.9782 22.8979 13.1362 23.2794 13.4175 23.5607C13.6988 23.842 14.0804 24 14.4782 24H18.4942C19.449 23.9996 20.3873 23.7507 21.2167 23.2776C22.0462 22.8045 22.7381 22.1237 23.2246 21.302C23.711 20.4804 23.9752 19.5462 23.9911 18.5915C24.007 17.6368 23.774 16.6944 23.3152 15.857Z" fill="#374957"/>
</g>
<defs>
<clipPath id="clip0_405_1710">
<rect width="24" height="24" fill="white"/>
</clipPath>
</defs>
</svg>
