<svg width="24" height="24" viewBox="0 0 24 24" fill="none" xmlns="http://www.w3.org/2000/svg">
<g clip-path="url(#clip0_405_1411)">
<path d="M16.9998 23.9998C15.144 23.9974 13.3649 23.2592 12.0527 21.9469C10.7405 20.6347 10.0022 18.8556 9.99982 16.9998C9.99982 15.0728 11.4738 12.4198 14.3788 9.11483C14.7084 8.74588 15.1123 8.4507 15.5638 8.24859C16.0154 8.04649 16.5046 7.94202 16.9993 7.94202C17.4941 7.94202 17.9832 8.04649 18.4348 8.24859C18.8864 8.4507 19.2902 8.74588 19.6198 9.11483C22.5258 12.4198 23.9998 15.0728 23.9998 16.9998C23.9974 18.8556 23.2592 20.6347 21.9469 21.9469C20.6347 23.2592 18.8556 23.9974 16.9998 23.9998ZM16.9998 10.9308C16.9301 10.9303 16.8612 10.9449 16.7976 10.9735C16.7341 11.0022 16.6776 11.0442 16.6318 11.0968C13.9538 14.1418 12.9998 16.1428 12.9998 16.9998C12.9998 18.0607 13.4212 19.0781 14.1714 19.8283C14.9215 20.5784 15.939 20.9998 16.9998 20.9998C18.0607 20.9998 19.0781 20.5784 19.8282 19.8283C20.5784 19.0781 20.9998 18.0607 20.9998 16.9998C20.9998 16.1428 20.0458 14.1418 17.3668 11.0998C17.3216 11.0467 17.2653 11.0041 17.2019 10.9749C17.1385 10.9457 17.0696 10.9307 16.9998 10.9308Z" fill="#374957"/>
<path d="M5.5 12.4826C4.0418 12.481 2.64377 11.901 1.61267 10.8699C0.581561 9.83881 0.00158817 8.44078 0 6.98258C0 6.17458 0.246 4.73958 2.375 1.64158C2.72766 1.1406 3.19561 0.731766 3.73939 0.449552C4.28317 0.167338 4.88685 0.0200195 5.4995 0.0200195C6.11215 0.0200195 6.71583 0.167338 7.25961 0.449552C7.80339 0.731766 8.27134 1.1406 8.624 1.64158C10.754 4.73958 11 6.17458 11 6.98258C10.9984 8.44078 10.4184 9.83881 9.38733 10.8699C8.35623 11.901 6.9582 12.481 5.5 12.4826ZM5.5 2.99958C5.37129 2.9977 5.24414 3.028 5.13011 3.08773C5.01607 3.14745 4.91876 3.23471 4.847 3.34158C3.052 5.95458 3 6.88558 3 6.98258C3 7.64562 3.26339 8.2815 3.73223 8.75035C4.20107 9.21919 4.83696 9.48258 5.5 9.48258C6.16304 9.48258 6.79893 9.21919 7.26777 8.75035C7.73661 8.2815 8 7.64562 8 6.98258C8 6.88258 7.948 5.95458 6.152 3.34058C6.08028 3.23397 5.98309 3.14695 5.86924 3.08741C5.75539 3.02786 5.62847 2.99767 5.5 2.99958Z" fill="#374957"/>
</g>
<defs>
<clipPath id="clip0_405_1411">
<rect width="24" height="24" fill="white"/>
</clipPath>
</defs>
</svg>
