<svg width="24" height="24" viewBox="0 0 24 24" fill="none" xmlns="http://www.w3.org/2000/svg">
<g clip-path="url(#clip0_405_1583)">
<path d="M18.5 0H5.5C4.0418 0.00158817 2.64377 0.581561 1.61267 1.61267C0.581561 2.64377 0.00158817 4.0418 0 5.5L0 18.5C0.00158817 19.9582 0.581561 21.3562 1.61267 22.3873C2.64377 23.4184 4.0418 23.9984 5.5 24H18.5C19.9582 23.9984 21.3562 23.4184 22.3873 22.3873C23.4184 21.3562 23.9984 19.9582 24 18.5V5.5C23.9984 4.0418 23.4184 2.64377 22.3873 1.61267C21.3562 0.581561 19.9582 0.00158817 18.5 0V0ZM3 10H5V14H3V10ZM16 10.5H8V3H16V10.5ZM8 13.5H16V21H8V13.5ZM19 10H21V14H19V10ZM21 5.5V7H19V3.051C19.5645 3.16623 20.0719 3.47291 20.4363 3.91916C20.8008 4.36541 20.9999 4.92385 21 5.5ZM5 3.051V7H3V5.5C3.00011 4.92385 3.19923 4.36541 3.56366 3.91916C3.9281 3.47291 4.43549 3.16623 5 3.051ZM3 18.5V17H5V20.949C4.43549 20.8338 3.9281 20.5271 3.56366 20.0808C3.19923 19.6346 3.00011 19.0762 3 18.5ZM19 20.949V17H21V18.5C20.9999 19.0762 20.8008 19.6346 20.4363 20.0808C20.0719 20.5271 19.5645 20.8338 19 20.949Z" fill="#374957"/>
</g>
<defs>
<clipPath id="clip0_405_1583">
<rect width="24" height="24" fill="white"/>
</clipPath>
</defs>
</svg>
