<svg width="24" height="24" viewBox="0 0 24 24" fill="none" xmlns="http://www.w3.org/2000/svg">
<g clip-path="url(#clip0_405_1388)">
<path d="M22.5 10.5H19.349C19.1552 9.56004 18.7817 8.66635 18.249 7.868L20.481 5.636C20.7542 5.3531 20.9054 4.97419 20.902 4.5809C20.8986 4.1876 20.7408 3.81138 20.4627 3.53327C20.1846 3.25516 19.8084 3.09741 19.4151 3.09399C19.0218 3.09057 18.6429 3.24176 18.36 3.515L16.132 5.747C15.3337 5.21433 14.44 4.84083 13.5 4.647V1.5C13.5 1.10218 13.342 0.720644 13.0607 0.43934C12.7794 0.158035 12.3978 0 12 0C11.6022 0 11.2206 0.158035 10.9393 0.43934C10.658 0.720644 10.5 1.10218 10.5 1.5V4.651C9.56004 4.84483 8.66635 5.21833 7.868 5.751L5.636 3.515C5.3531 3.24176 4.97419 3.09057 4.5809 3.09399C4.1876 3.09741 3.81138 3.25516 3.53327 3.53327C3.25516 3.81138 3.09741 4.1876 3.09399 4.5809C3.09057 4.97419 3.24176 5.3531 3.515 5.636L5.747 7.868C5.21433 8.66635 4.84083 9.56004 4.647 10.5H1.5C1.10218 10.5 0.720644 10.658 0.43934 10.9393C0.158035 11.2206 0 11.6022 0 12C0 12.3978 0.158035 12.7794 0.43934 13.0607C0.720644 13.342 1.10218 13.5 1.5 13.5H4.651C4.84483 14.44 5.21833 15.3337 5.751 16.132L3.515 18.364C3.24176 18.6469 3.09057 19.0258 3.09399 19.4191C3.09741 19.8124 3.25516 20.1886 3.53327 20.4667C3.81138 20.7448 4.1876 20.9026 4.5809 20.906C4.97419 20.9094 5.3531 20.7582 5.636 20.485L7.868 18.253C8.66635 18.7857 9.56004 19.1592 10.5 19.353V22.5C10.5 22.8978 10.658 23.2794 10.9393 23.5607C11.2206 23.842 11.6022 24 12 24C12.3978 24 12.7794 23.842 13.0607 23.5607C13.342 23.2794 13.5 22.8978 13.5 22.5V19.349C14.44 19.1552 15.3337 18.7817 16.132 18.249L18.364 20.481C18.6469 20.7542 19.0258 20.9054 19.4191 20.902C19.8124 20.8986 20.1886 20.7408 20.4667 20.4627C20.7448 20.1846 20.9026 19.8084 20.906 19.4151C20.9094 19.0218 20.7582 18.6429 20.485 18.36L18.253 16.128C18.7857 15.3297 19.1592 14.436 19.353 13.496H22.5C22.8839 13.4762 23.2455 13.3097 23.5103 13.0309C23.775 12.7522 23.9226 12.3824 23.9226 11.998C23.9226 11.6136 23.775 11.2438 23.5103 10.9651C23.2455 10.6863 22.8839 10.5198 22.5 10.5ZM12 16.5C10.8065 16.5 9.66193 16.0259 8.81802 15.182C7.97411 14.3381 7.5 13.1935 7.5 12C7.5 10.8065 7.97411 9.66193 8.81802 8.81802C9.66193 7.97411 10.8065 7.5 12 7.5C13.1935 7.5 14.3381 7.97411 15.182 8.81802C16.0259 9.66193 16.5 10.8065 16.5 12C16.5 13.1935 16.0259 14.3381 15.182 15.182C14.3381 16.0259 13.1935 16.5 12 16.5Z" fill="#374957"/>
</g>
<defs>
<clipPath id="clip0_405_1388">
<rect width="24" height="24" fill="white"/>
</clipPath>
</defs>
</svg>
