<svg width="24" height="24" viewBox="0 0 24 24" fill="none" xmlns="http://www.w3.org/2000/svg">
<g clip-path="url(#clip0_405_1539)">
<path d="M22.727 1.27298C22.1999 0.741702 21.5436 0.356827 20.8225 0.156236C20.1015 -0.0443546 19.3407 -0.053748 18.615 0.128981C13.6089 1.44363 9.0242 4.0216 5.29999 7.61598C4.01372 8.9036 3.21402 10.5976 3.03731 12.409C2.8606 14.2204 3.31782 16.037 4.33099 17.549L0.438992 21.439C0.157598 21.7204 -0.000488281 22.102 -0.000488281 22.5C-0.000488281 22.8979 0.157598 23.2796 0.438992 23.561C0.720387 23.8424 1.10204 24.0005 1.49999 24.0005C1.89794 24.0005 2.2796 23.8424 2.56099 23.561L6.45399 19.667C7.71729 20.5313 9.21132 20.9958 10.742 21C11.8626 20.9959 12.9709 20.7652 14.0001 20.3218C15.0293 19.8785 15.9582 19.2315 16.731 18.42C20.1525 14.7184 22.6063 10.2286 23.874 5.34998C24.0533 4.62932 24.0418 3.87438 23.8407 3.1595C23.6396 2.44462 23.2558 1.79444 22.727 1.27298ZM19.339 3.04098C19.5631 2.98391 19.7982 2.98666 20.0209 3.04895C20.2436 3.11125 20.446 3.23092 20.608 3.39598C20.7697 3.55342 20.8872 3.75048 20.949 3.96753C21.0108 4.18457 21.0145 4.41401 20.96 4.63298C20.4749 6.48969 19.792 8.28899 18.923 9.99998H16.123L17.563 8.56098C17.7023 8.42165 17.8129 8.25624 17.8883 8.07419C17.9637 7.89214 18.0025 7.69703 18.0025 7.49998C18.0025 7.30294 17.9637 7.10782 17.8883 6.92577C17.8129 6.74373 17.7023 6.57831 17.563 6.43898C17.4237 6.29965 17.2582 6.18912 17.0762 6.11372C16.8942 6.03831 16.699 5.9995 16.502 5.9995C16.3049 5.9995 16.1098 6.03831 15.9278 6.11372C15.7457 6.18912 15.5803 6.29965 15.441 6.43898L11 10.879V6.84398C13.5534 5.1295 16.3703 3.84483 19.339 3.04098ZM6.00599 13.418C5.97367 12.7394 6.08296 12.0614 6.32691 11.4274C6.57087 10.7933 6.94415 10.2169 7.42299 9.73498C7.60699 9.54998 7.80899 9.38498 7.99999 9.20798V13.879L6.51199 15.367C6.20914 14.7598 6.03678 14.0958 6.00599 13.418ZM14.565 16.34C13.8266 17.1397 12.8526 17.6834 11.7843 17.892C10.716 18.1006 9.60897 17.9633 8.62399 17.5L10.56 15.564L13.121 13H17.193C16.4194 14.1902 15.5398 15.3081 14.565 16.34Z" fill="#374957"/>
</g>
<defs>
<clipPath id="clip0_405_1539">
<rect width="24" height="24" fill="white"/>
</clipPath>
</defs>
</svg>
