<svg width="24" height="24" viewBox="0 0 24 24" fill="none" xmlns="http://www.w3.org/2000/svg">
<g clip-path="url(#clip0_405_1520)">
<path d="M17.7 3H6.3C4.4 3 2.7 4 1.7 5.7C0.6 7.6 0 9.8 0 12C0 16.9 2 22 5.3 22C7.1 22 8.6 20.6 9.3 18.3C9.4 18.1 9.5 18 9.7 18H14.3C14.5 18 14.7 18.1 14.7 18.3C15.7 21.5 17.6 22 18.6 22C22 22 24 16.9 24 12C24 9.8 23.4 7.6 22.3 5.6C21.4 4 19.6 3 17.7 3ZM18.7 19C18.4 19 18 18.5 17.7 17.4C17.2 16 15.9 15 14.4 15H9.7C8.2 15 6.9 16 6.4 17.4C6.1 18.4 5.6 19 5.3 19C4.7 18.9 3 16.4 3 12C3 10.3 3.5 8.6 4.3 7.1C4.7 6.4 5.5 6 6.3 6H17.7C18.5 6 19.3 6.4 19.7 7.1C20.6 8.6 21 10.3 21 12C21 16.4 19.3 18.9 18.7 19Z" fill="#374957"/>
<path d="M10.5001 9.00024H10.0001V8.50024C10.0001 7.70024 9.30012 7.00024 8.50012 7.00024C7.70012 7.00024 7.00012 7.70024 7.00012 8.50024V9.00024H6.50012C5.70012 9.00024 5.00012 9.70024 5.00012 10.5002C5.00012 11.3002 5.70012 12.0002 6.50012 12.0002H7.00012V12.5002C7.00012 13.3002 7.70012 14.0002 8.50012 14.0002C9.30012 14.0002 10.0001 13.3002 10.0001 12.5002V12.0002H10.5001C11.3001 12.0002 12.0001 11.3002 12.0001 10.5002C12.0001 9.70024 11.3001 9.00024 10.5001 9.00024Z" fill="#374957"/>
<path d="M17 11.9996C18.1046 11.9996 19 11.1042 19 9.99963C19 8.89506 18.1046 7.99963 17 7.99963C15.8954 7.99963 15 8.89506 15 9.99963C15 11.1042 15.8954 11.9996 17 11.9996Z" fill="#374957"/>
</g>
<defs>
<clipPath id="clip0_405_1520">
<rect width="24" height="24" fill="white"/>
</clipPath>
</defs>
</svg>
