<svg width="24" height="24" viewBox="0 0 24 24" fill="none" xmlns="http://www.w3.org/2000/svg">
<g clip-path="url(#clip0_405_1744)">
<path d="M22.5 17H20V8.5C20 7.90905 19.8836 7.32389 19.6575 6.77792C19.4313 6.23196 19.0998 5.73588 18.682 5.31802C18.2641 4.90016 17.768 4.56869 17.2221 4.34254C16.6761 4.1164 16.0909 4 15.5 4H7V1.5C7 1.10218 6.84196 0.720644 6.56066 0.43934C6.27936 0.158035 5.89782 0 5.5 0V0C5.10218 0 4.72064 0.158035 4.43934 0.43934C4.15804 0.720644 4 1.10218 4 1.5V4H1.5C1.10218 4 0.720644 4.15804 0.43934 4.43934C0.158035 4.72064 0 5.10218 0 5.5H0C0 5.89782 0.158035 6.27936 0.43934 6.56066C0.720644 6.84196 1.10218 7 1.5 7H4V15.5C4 16.0909 4.1164 16.6761 4.34254 17.2221C4.56869 17.768 4.90016 18.2641 5.31802 18.682C6.16193 19.5259 7.30653 20 8.5 20H17V22.5C17 22.8978 17.158 23.2794 17.4393 23.5607C17.7206 23.842 18.1022 24 18.5 24C18.8978 24 19.2794 23.842 19.5607 23.5607C19.842 23.2794 20 22.8978 20 22.5V20H22.5C22.8978 20 23.2794 19.842 23.5607 19.5607C23.842 19.2794 24 18.8978 24 18.5C24 18.1022 23.842 17.7206 23.5607 17.4393C23.2794 17.158 22.8978 17 22.5 17ZM8.5 17C8.10218 17 7.72064 16.842 7.43934 16.5607C7.15804 16.2794 7 15.8978 7 15.5V7H15.5C15.8978 7 16.2794 7.15804 16.5607 7.43934C16.842 7.72064 17 8.10218 17 8.5V17H8.5Z" fill="#374957"/>
</g>
<defs>
<clipPath id="clip0_405_1744">
<rect width="24" height="24" fill="white"/>
</clipPath>
</defs>
</svg>
