<svg width="24" height="24" viewBox="0 0 24 24" fill="none" xmlns="http://www.w3.org/2000/svg">
<g clip-path="url(#clip0_405_1343)">
<path d="M21.0001 21.9492C21.0001 19.464 18.9854 17.4492 16.5001 17.4492H10.8321V19.1292C10.8298 20.352 9.83665 21.3413 8.61391 21.339C8.00201 21.3378 7.41785 21.0834 7.00015 20.6362L0.778102 13.9413C-0.25896 12.8153 -0.25896 11.0822 0.778102 9.95628L7.0001 3.26126C7.83176 2.36492 9.23262 2.31246 10.129 3.14412C10.5808 3.56332 10.8374 4.15189 10.8371 4.76825V6.44923H14.5001C19.7443 6.45532 23.9941 10.7051 24.0001 15.9492V21.9492C24.0001 22.7777 23.3285 23.4492 22.5001 23.4492C21.6717 23.4492 21.0001 22.7777 21.0001 21.9492ZM21.0001 15.9492C20.9957 12.3612 18.0882 9.45364 14.5001 9.44923H9.33213C8.50371 9.44923 7.83213 8.77765 7.83213 7.94923V6.74923L2.9771 11.9003L7.83209 17.1283V15.9493C7.83209 15.1209 8.50366 14.4493 9.33209 14.4493H16.5001C18.1237 14.4473 19.7036 14.9749 21.0001 15.9523V15.9492Z" fill="#374957"/>
</g>
<defs>
<clipPath id="clip0_405_1343">
<rect width="24" height="24" fill="white"/>
</clipPath>
</defs>
</svg>
