<svg width="24" height="24" viewBox="0 0 24 24" fill="none" xmlns="http://www.w3.org/2000/svg">
<g clip-path="url(#clip0_405_1752)">
<path d="M23.6541 5.24923C23.2909 4.75228 22.8302 4.33459 22.3001 4.02167C21.77 3.70875 21.1817 3.50717 20.5711 3.42923C20.4932 2.81864 20.2916 2.23034 19.9787 1.70026C19.6657 1.17019 19.2481 0.709467 18.7511 0.346233C18.4962 0.154442 18.193 0.0373922 17.8754 0.00819164C17.5578 -0.0210089 17.2383 0.0387932 16.9527 0.180901C16.6671 0.323008 16.4268 0.541809 16.2585 0.812798C16.0903 1.08379 16.0008 1.39626 16.0001 1.71523V7.00023H15.5001C13.9919 6.99397 12.486 7.12079 11.0001 7.37923V7.20023C11.0025 6.88486 10.9363 6.57273 10.8062 6.28543C10.6761 5.99813 10.4851 5.74252 10.2466 5.53626C10.008 5.33 9.72742 5.17802 9.42433 5.09082C9.12124 5.00363 8.80283 4.98329 8.49111 5.03123C6.97298 5.32059 5.60018 6.12228 4.60218 7.3023C3.60418 8.48231 3.04147 9.96914 3.00811 11.5142C1.17588 13.7514 0.122698 16.5248 0.00810614 19.4142C-0.0347037 20.028 0.0554357 20.6437 0.27237 21.2195C0.489303 21.7952 0.827923 22.3173 1.26511 22.7502C1.64744 23.1598 2.11289 23.483 2.63029 23.6981C3.14769 23.9131 3.70508 24.0151 4.26511 23.9972C8.46511 23.6722 13.0361 22.0742 15.3891 16.9972H16.7231C19.2071 17.0742 20.0061 13.1212 17.1971 12.9972H16.6101C16.8742 11.5129 17.0048 10.0079 17.0001 8.50023V8.00023H22.2851C22.6041 7.99954 22.9166 7.91006 23.1875 7.74181C23.4585 7.57357 23.6773 7.33321 23.8194 7.04764C23.9615 6.76208 24.0213 6.44259 23.9921 6.12496C23.9629 5.80733 23.8459 5.5041 23.6541 5.24923ZM4.50011 21.0002C4.10228 21.0002 3.72075 20.8422 3.43945 20.5609C3.15814 20.2796 3.00011 19.8981 3.00011 19.5002C3.00011 19.1024 3.15814 18.7209 3.43945 18.4396C3.72075 18.1583 4.10228 18.0002 4.50011 18.0002C4.89793 18.0002 5.27946 18.1583 5.56077 18.4396C5.84207 18.7209 6.00011 19.1024 6.00011 19.5002C6.00011 19.8981 5.84207 20.2796 5.56077 20.5609C5.27946 20.8422 4.89793 21.0002 4.50011 21.0002ZM9.30011 19.5722C8.84616 18.4767 8.1802 17.4817 7.3405 16.6444C6.50079 15.8071 5.5039 15.144 4.40711 14.6932C6.08911 11.8472 9.24911 10.3092 13.9561 10.0422C13.6891 14.7282 12.1501 17.8812 9.30011 19.5722Z" fill="#374957"/>
</g>
<defs>
<clipPath id="clip0_405_1752">
<rect width="24" height="24" fill="white"/>
</clipPath>
</defs>
</svg>
