<svg width="24" height="24" viewBox="0 0 24 24" fill="none" xmlns="http://www.w3.org/2000/svg">
<g clip-path="url(#clip0_405_1431)">
<path d="M15.9909 5.00061C15.4514 5.00209 14.9266 5.17726 14.4944 5.50019C14.0621 5.82311 13.7453 6.27663 13.5909 6.79361L9.57792 20.4246C9.44843 20.8766 9.17597 21.2745 8.80134 21.5586C8.42671 21.8427 7.97009 21.9978 7.49992 22.0006C7.04115 21.9957 6.59488 21.8505 6.22108 21.5845C5.84728 21.3185 5.56386 20.9444 5.40892 20.5126L3.09892 13.8126C2.94447 13.371 2.68673 12.9728 2.34719 12.651C2.00765 12.3292 1.59613 12.0932 1.14692 11.9626C0.955448 11.9163 0.774987 11.8326 0.615834 11.7165C0.456681 11.6004 0.321954 11.4541 0.219345 11.286C0.0121174 10.9463 -0.0517059 10.5383 0.0419155 10.1516C0.135537 9.76493 0.378934 9.43127 0.718563 9.22404C1.05819 9.01681 1.46623 8.95299 1.85292 9.04661C2.78717 9.29513 3.64661 9.768 4.3566 10.4241C5.06658 11.0803 5.60563 11.8998 5.92692 12.8116L7.41792 17.1416L10.7179 5.95061C11.0569 4.81369 11.7525 3.81591 12.702 3.10463C13.6515 2.39336 14.8046 2.0063 15.9909 2.00061H22.4999C22.8977 2.00061 23.2793 2.15865 23.5606 2.43995C23.8419 2.72125 23.9999 3.10279 23.9999 3.50061C23.9999 3.89844 23.8419 4.27997 23.5606 4.56127C23.2793 4.84258 22.8977 5.00061 22.4999 5.00061H15.9909ZM23.3999 11.3006C23.2423 11.1824 23.063 11.0964 22.8722 11.0475C22.6814 10.9987 22.4828 10.9878 22.2878 11.0157C21.894 11.0719 21.5386 11.2824 21.2999 11.6006L19.4999 14.0006L17.6999 11.6006C17.5817 11.443 17.4337 11.3103 17.2642 11.2099C17.0947 11.1095 16.9071 11.0435 16.712 11.0157C16.517 10.9878 16.3185 10.9987 16.1276 11.0475C15.9368 11.0964 15.7575 11.1824 15.5999 11.3006C15.4423 11.4188 15.3096 11.5669 15.2092 11.7364C15.1088 11.9059 15.0429 12.0935 15.015 12.2885C14.9871 12.4835 14.998 12.6821 15.0468 12.8729C15.0957 13.0637 15.1817 13.243 15.2999 13.4006L17.6249 16.5006L15.2999 19.6006C15.1817 19.7582 15.0957 19.9375 15.0468 20.1283C14.998 20.3192 14.9871 20.5177 15.015 20.7127C15.0429 20.9077 15.1088 21.0954 15.2092 21.2649C15.3096 21.4344 15.4423 21.5824 15.5999 21.7006C15.7575 21.8188 15.9368 21.9048 16.1276 21.9537C16.3185 22.0026 16.517 22.0134 16.712 21.9855C16.9071 21.9577 17.0947 21.8917 17.2642 21.7913C17.4337 21.691 17.5817 21.5582 17.6999 21.4006L19.4999 19.0006L21.2999 21.4006C21.5386 21.7189 21.894 21.9293 22.2878 21.9855C22.6816 22.0418 23.0817 21.9393 23.3999 21.7006C23.7182 21.4619 23.9286 21.1066 23.9848 20.7127C24.0411 20.3189 23.9386 19.9189 23.6999 19.6006L21.3749 16.5006L23.6999 13.4006C23.9386 13.0824 24.0411 12.6823 23.9848 12.2885C23.9286 11.8947 23.7182 11.5393 23.3999 11.3006Z" fill="#374957"/>
</g>
<defs>
<clipPath id="clip0_405_1431">
<rect width="24" height="24" fill="white"/>
</clipPath>
</defs>
</svg>
