<svg width="24" height="24" viewBox="0 0 24 24" fill="none" xmlns="http://www.w3.org/2000/svg">
<g clip-path="url(#clip0_405_1380)">
<path d="M24 22.4999C24 22.8977 23.842 23.2793 23.5607 23.5606C23.2794 23.8419 22.8978 23.9999 22.5 23.9999H1.5C1.10218 23.9999 0.720644 23.8419 0.43934 23.5606C0.158035 23.2793 0 22.8977 0 22.4999C0 22.1021 0.158035 21.7206 0.43934 21.4393C0.720644 21.158 1.10218 20.9999 1.5 20.9999H22.5C22.8978 20.9999 23.2794 21.158 23.5607 21.4393C23.842 21.7206 24 22.1021 24 22.4999ZM0.37 9.34091C0.107748 8.85889 -0.0186779 8.3147 0.00421804 7.76643C0.027114 7.21816 0.198473 6.6864 0.5 6.22792C0.950951 5.53515 1.56354 4.96237 2.285 4.55891L9.444 0.651914C10.2274 0.222134 11.1065 -0.00317383 12 -0.00317383C12.8935 -0.00317383 13.7726 0.222134 14.556 0.651914L21.716 4.55891C22.4367 4.96213 23.0489 5.53415 23.5 6.22591C23.8023 6.68433 23.9745 7.21625 23.9981 7.76487C24.0217 8.3135 23.8958 8.85823 23.634 9.34091C23.377 9.82177 22.9987 10.227 22.5366 10.5165C22.0745 10.8059 21.5448 10.9695 21 10.9909V15.9999H21.5C21.8978 15.9999 22.2794 16.158 22.5607 16.4393C22.842 16.7206 23 17.1021 23 17.4999C23 17.8977 22.842 18.2793 22.5607 18.5606C22.2794 18.8419 21.8978 18.9999 21.5 18.9999H2.5C2.10218 18.9999 1.72064 18.8419 1.43934 18.5606C1.15804 18.2793 1 17.8977 1 17.4999C1 17.1021 1.15804 16.7206 1.43934 16.4393C1.72064 16.158 2.10218 15.9999 2.5 15.9999H3V10.9909C2.45588 10.9688 1.92698 10.8049 1.46568 10.5155C1.00437 10.2261 0.62668 9.8212 0.37 9.34091ZM6 15.9999H8V10.9999H6V15.9999ZM11 10.9999V15.9999H13V10.9999H11ZM18 15.9999V10.9999H16V15.9999H18ZM3 7.88692C3.00602 7.9177 3.0222 7.94558 3.04596 7.96607C3.06971 7.98656 3.09966 7.99848 3.131 7.99992H20.869C20.9004 7.99754 20.9301 7.98504 20.9537 7.9643C20.9773 7.94356 20.9936 7.9157 21 7.88492C20.8176 7.60034 20.5706 7.36288 20.279 7.19192L13.119 3.28591C12.7763 3.09799 12.3918 2.99947 12.001 2.99947C11.6102 2.99947 11.2257 3.09799 10.883 3.28591L3.722 7.19192C3.42877 7.36192 3.18105 7.60038 3 7.88692Z" fill="#374957"/>
</g>
<defs>
<clipPath id="clip0_405_1380">
<rect width="24" height="24" fill="white"/>
</clipPath>
</defs>
</svg>
