<svg width="24" height="24" viewBox="0 0 24 24" fill="none" xmlns="http://www.w3.org/2000/svg">
<path d="M20.521 1.72898C19.4854 0.627891 18.0416 0.0024375 16.53 0H13.5C10.6583 0.00445312 8.28659 2.17036 8.02498 5.00002H7.49998C4.4638 5.0033 2.00328 7.46381 2 10.5V18.5C2.00328 21.5362 4.4638 23.9967 7.49998 24H11.5C14.5362 23.9967 16.9967 21.5362 17 18.5V17.975C19.8298 17.7138 21.996 15.3419 22 12.5V5.46998C22.002 4.08005 21.4729 2.74181 20.521 1.72898ZM14 18.5C14 19.8807 12.8807 21 11.5 21H7.49998C6.11928 21 5 19.8807 5 18.5V10.5C5 9.1193 6.11928 8.00002 7.49998 8.00002H8V12.5C8.00328 15.5362 10.4638 17.9967 13.5 18H14V18.5ZM19 12.5C19 13.8807 17.8807 15 16.5 15H13.5C12.1193 15 11 13.8807 11 12.5V5.49998C11 4.11928 12.1193 3 13.5 3H16V3.99998C16 5.10455 16.8954 6 18 6H19V12.5Z" fill="#374957"/>
</svg>
