<svg width="24" height="24" viewBox="0 0 24 24" fill="none" xmlns="http://www.w3.org/2000/svg">
<g clip-path="url(#clip0_405_1494)">
<path d="M24 9.92396V18.5C23.9984 19.9582 23.4184 21.3562 22.3873 22.3873C21.3562 23.4184 19.9582 23.9984 18.5 24C18.1022 24 17.7206 23.8419 17.4393 23.5606C17.158 23.2793 17 22.8978 17 22.5C17 22.1021 17.158 21.7206 17.4393 21.4393C17.7206 21.158 18.1022 21 18.5 21C19.163 21 19.7989 20.7366 20.2678 20.2677C20.7366 19.7989 21 19.163 21 18.5V9.92396C21.0003 9.51479 20.9001 9.1118 20.7084 8.75037C20.5166 8.38893 20.239 8.08009 19.9 7.85096L13.3 3.39996C12.9176 3.13999 12.4659 3.00098 12.0035 3.00098C11.5411 3.00098 11.0894 3.13999 10.707 3.39996L4.1 7.85096C3.76101 8.08009 3.48343 8.38893 3.29165 8.75037C3.09986 9.1118 2.99971 9.51479 3 9.92396V18.5C3 19.163 3.26339 19.7989 3.73223 20.2677C4.20107 20.7366 4.83696 21 5.5 21C5.89782 21 6.27936 21.158 6.56066 21.4393C6.84196 21.7206 7 22.1021 7 22.5C7 22.8978 6.84196 23.2793 6.56066 23.5606C6.27936 23.8419 5.89782 24 5.5 24C4.0418 23.9984 2.64377 23.4184 1.61267 22.3873C0.581561 21.3562 0.00158832 19.9582 1.45328e-07 18.5V9.92396C-0.000206806 9.02362 0.220617 8.13699 0.643084 7.34192C1.06555 6.54686 1.67674 5.86766 2.423 5.36396L9.025 0.909958C9.90238 0.31323 10.9389 -0.00585937 12 -0.00585938C13.0611 -0.00585938 14.0976 0.31323 14.975 0.909958L21.575 5.36396C22.3216 5.86743 22.9332 6.54653 23.356 7.34161C23.7789 8.1367 24 9.02344 24 9.92396ZM19 15C19.0027 15.9195 18.8229 16.8304 18.471 17.6799C18.1191 18.5294 17.6021 19.3007 16.95 19.949L13.357 23.464C12.9955 23.8201 12.5085 24.0198 12.001 24.0198C11.4935 24.0198 11.0065 23.8201 10.645 23.464L7.062 19.961C6.24557 19.1484 5.64228 18.1469 5.30563 17.0453C4.96898 15.9437 4.90938 14.7761 5.13211 13.646C5.35484 12.5158 5.85302 11.4581 6.58246 10.5666C7.31191 9.67515 8.25008 8.97745 9.31377 8.53542C10.3775 8.09339 11.5338 7.92069 12.6802 8.03262C13.8266 8.14455 14.9277 8.53766 15.8858 9.17709C16.8439 9.81652 17.6294 10.6825 18.1727 11.6982C18.7159 12.714 19.0001 13.8481 19 15ZM16 15C16 14.3422 15.8377 13.6946 15.5277 13.1145C15.2176 12.5344 14.7693 12.0397 14.2224 11.6743C13.6755 11.3088 13.0469 11.0839 12.3923 11.0194C11.7377 10.9549 11.0773 11.0528 10.4696 11.3045C9.86186 11.5561 9.32558 11.9538 8.90825 12.4622C8.49091 12.9706 8.20539 13.5741 8.07697 14.2192C7.94855 14.8643 7.98121 15.5311 8.17204 16.1606C8.36287 16.7901 8.70599 17.3628 9.171 17.828L12 20.6L14.84 17.821C15.2101 17.4507 15.5032 17.0107 15.7023 16.5265C15.9014 16.0423 16.0026 15.5235 16 15ZM12 13C11.6044 13 11.2178 13.1173 10.8889 13.337C10.56 13.5568 10.3036 13.8691 10.1522 14.2346C10.0009 14.6 9.96126 15.0022 10.0384 15.3901C10.1156 15.7781 10.3061 16.1345 10.5858 16.4142C10.8655 16.6939 11.2219 16.8844 11.6098 16.9615C11.9978 17.0387 12.3999 16.9991 12.7654 16.8477C13.1308 16.6963 13.4432 16.44 13.6629 16.1111C13.8827 15.7822 14 15.3955 14 15C14 14.4695 13.7893 13.9608 13.4142 13.5857C13.0391 13.2107 12.5304 13 12 13Z" fill="#374957"/>
</g>
<defs>
<clipPath id="clip0_405_1494">
<rect width="24" height="24" fill="white"/>
</clipPath>
</defs>
</svg>
