<svg width="24" height="24" viewBox="0 0 24 24" fill="none" xmlns="http://www.w3.org/2000/svg">
<g clip-path="url(#clip0_405_1782)">
<path d="M9.50015 8.00004C9.79682 8.00004 10.0868 8.08802 10.3335 8.25284C10.5802 8.41766 10.7724 8.65193 10.886 8.92602C10.9995 9.20011 11.0292 9.50171 10.9713 9.79268C10.9134 10.0837 10.7706 10.3509 10.5608 10.5607C10.351 10.7705 10.0838 10.9133 9.79278 10.9712C9.50181 11.0291 9.20021 10.9994 8.92612 10.8859C8.65203 10.7723 8.41776 10.5801 8.25294 10.3334C8.08812 10.0867 8.00015 9.79672 8.00015 9.50004C8.00015 9.10222 8.15818 8.72069 8.43949 8.43938C8.72079 8.15808 9.10232 8.00004 9.50015 8.00004ZM20.5001 7.00004C19.6023 7.03319 18.7516 7.41034 18.1241 8.05341C17.4967 8.69649 17.1406 9.55622 17.1295 10.4546C17.1185 11.353 17.4533 12.2212 18.0648 12.8795C18.6762 13.5379 19.5174 13.9358 20.4141 13.991C19.1641 17.576 15.9681 20.191 11.5691 20.991C11.5017 21.0038 11.4322 21.0009 11.366 20.9827C11.2998 20.9645 11.2386 20.9315 11.1871 20.886C11.128 20.8376 11.0805 20.7766 11.0481 20.7073C11.0157 20.6381 10.9994 20.5625 11.0001 20.486V18.871C13.0632 18.5507 14.9605 17.5517 16.3921 16.032C16.5276 15.889 16.6336 15.7206 16.704 15.5366C16.7743 15.3526 16.8078 15.1565 16.8024 14.9595C16.797 14.7626 16.7529 14.5686 16.6726 14.3887C16.5922 14.2088 16.4772 14.0465 16.3341 13.911C16.1911 13.7756 16.0227 13.6696 15.8387 13.5992C15.6547 13.5288 15.4586 13.4954 15.2616 13.5008C15.0647 13.5062 14.8707 13.5503 14.6908 13.6306C14.5109 13.711 14.3486 13.826 14.2131 13.969C13.6091 14.613 12.8789 15.1256 12.068 15.475C11.2572 15.8245 10.3831 16.0032 9.50015 16C8.38567 16.0011 7.28964 15.7156 6.31733 15.1709C5.34501 14.6263 4.52907 13.8407 3.94787 12.8898C3.36667 11.9389 3.03973 10.8545 2.99845 9.74079C2.95717 8.62708 3.20295 7.52146 3.71216 6.53012C4.22138 5.53878 4.97694 4.69502 5.90627 4.07988C6.8356 3.46473 7.90748 3.09887 9.01898 3.01743C10.1305 2.93598 11.2442 3.14169 12.2533 3.6148C13.2624 4.08791 14.1329 4.81252 14.7811 5.71904C14.8952 5.88098 15.0402 6.01873 15.2077 6.12435C15.3752 6.22996 15.562 6.30135 15.7573 6.3344C15.9526 6.36744 16.1525 6.36148 16.3455 6.31687C16.5384 6.27226 16.7207 6.18987 16.8816 6.07446C17.0426 5.95906 17.1791 5.81292 17.2833 5.64448C17.3875 5.47604 17.4573 5.28864 17.4886 5.09308C17.52 4.89752 17.5124 4.69769 17.4661 4.50511C17.4199 4.31253 17.3359 4.13102 17.2191 3.97104C16.31 2.69608 15.0997 1.66562 13.6961 0.971372C12.2925 0.277121 10.739 -0.0593947 9.17394 -0.00823323C7.60884 0.0429283 6.08067 0.480181 4.72538 1.26462C3.3701 2.04905 2.22974 3.15635 1.40578 4.48797C0.581817 5.81959 0.0998026 7.33424 0.00262591 8.89715C-0.0945507 10.4601 0.196125 12.0228 0.848787 13.4462C1.50145 14.8696 2.49586 16.1097 3.74353 17.0559C4.9912 18.0022 6.45345 18.6254 8.00015 18.87V20.49C7.99974 21.0054 8.11288 21.5145 8.33151 21.9811C8.55015 22.4478 8.86892 22.8605 9.26515 23.19C9.88781 23.7124 10.6744 23.9992 11.4871 24C11.6944 23.9997 11.9012 23.981 12.1051 23.944C19.2201 22.652 24.0001 17.25 24.0001 10.5C23.9936 9.57381 23.6228 8.68737 22.9678 8.0324C22.3128 7.37744 21.4264 7.00659 20.5001 7.00004Z" fill="#374957"/>
</g>
<defs>
<clipPath id="clip0_405_1782">
<rect width="24" height="24" fill="white"/>
</clipPath>
</defs>
</svg>
