<svg width="24" height="24" viewBox="0 0 24 24" fill="none" xmlns="http://www.w3.org/2000/svg">
<g clip-path="url(#clip0_405_1791)">
<path d="M12 0C5.37258 0 0 5.37258 0 12C0 18.6274 5.37258 24 12 24C18.6274 24 24 18.6274 24 12C23.9928 5.37553 18.6245 0.00717187 12 0ZM12 3C13.8676 3.00019 15.6884 3.58486 17.207 4.67198L4.67198 17.206C1.78903 13.1664 2.72672 7.55456 6.76631 4.67161C8.29359 3.58167 10.1237 2.99714 12 3ZM12 21C10.1326 20.9999 8.3122 20.4152 6.79402 19.328L19.328 6.79303C22.2115 10.8322 21.2746 16.4442 17.2354 19.3277C15.7077 20.4182 13.877 21.003 12 21Z" fill="#374957"/>
</g>
<defs>
<clipPath id="clip0_405_1791">
<rect width="24" height="24" fill="white"/>
</clipPath>
</defs>
</svg>
