<svg width="24" height="24" viewBox="0 0 24 24" fill="none" xmlns="http://www.w3.org/2000/svg">
<g clip-path="url(#clip0_405_1729)">
<path d="M5 11.5C5 11.1022 5.15804 10.7206 5.43934 10.4393C5.72064 10.158 6.10218 10 6.5 10H17.5C17.8978 10 18.2794 10.158 18.5607 10.4393C18.842 10.7206 19 11.1022 19 11.5C19 11.8978 18.842 12.2794 18.5607 12.5607C18.2794 12.842 17.8978 13 17.5 13H6.5C6.10218 13 5.72064 12.842 5.43934 12.5607C5.15804 12.2794 5 11.8978 5 11.5ZM6.5 18H13.5C13.8978 18 14.2794 17.842 14.5607 17.5607C14.842 17.2794 15 16.8978 15 16.5C15 16.1022 14.842 15.7206 14.5607 15.4393C14.2794 15.158 13.8978 15 13.5 15H6.5C6.10218 15 5.72064 15.158 5.43934 15.4393C5.15804 15.7206 5 16.1022 5 16.5C5 16.8978 5.15804 17.2794 5.43934 17.5607C5.72064 17.842 6.10218 18 6.5 18ZM24 6.5V17.5C23.9984 18.9582 23.4184 20.3562 22.3873 21.3873C21.3562 22.4184 19.9582 22.9984 18.5 23H5.5C4.0418 22.9984 2.64377 22.4184 1.61267 21.3873C0.581561 20.3562 0.00158817 18.9582 0 17.5L0 6.5C0.00158817 5.0418 0.581561 3.64377 1.61267 2.61267C2.64377 1.58156 4.0418 1.00159 5.5 1H18.5C19.9582 1.00159 21.3562 1.58156 22.3873 2.61267C23.4184 3.64377 23.9984 5.0418 24 6.5ZM8 4.5C8 4.79667 8.08797 5.08668 8.2528 5.33336C8.41762 5.58003 8.65189 5.77229 8.92597 5.88582C9.20006 5.99935 9.50166 6.02906 9.79264 5.97118C10.0836 5.9133 10.3509 5.77044 10.5607 5.56066C10.7704 5.35088 10.9133 5.08361 10.9712 4.79264C11.0291 4.50166 10.9994 4.20006 10.8858 3.92597C10.7723 3.65189 10.58 3.41762 10.3334 3.2528C10.0867 3.08797 9.79667 3 9.5 3C9.10218 3 8.72064 3.15804 8.43934 3.43934C8.15804 3.72064 8 4.10218 8 4.5ZM3 4.5C3 4.79667 3.08797 5.08668 3.2528 5.33336C3.41762 5.58003 3.65189 5.77229 3.92597 5.88582C4.20006 5.99935 4.50166 6.02906 4.79264 5.97118C5.08361 5.9133 5.35088 5.77044 5.56066 5.56066C5.77044 5.35088 5.9133 5.08361 5.97118 4.79264C6.02906 4.50166 5.99935 4.20006 5.88582 3.92597C5.77229 3.65189 5.58003 3.41762 5.33336 3.2528C5.08668 3.08797 4.79667 3 4.5 3C4.10218 3 3.72064 3.15804 3.43934 3.43934C3.15804 3.72064 3 4.10218 3 4.5ZM21 8H3V17.5C3 18.163 3.26339 18.7989 3.73223 19.2678C4.20107 19.7366 4.83696 20 5.5 20H18.5C19.163 20 19.7989 19.7366 20.2678 19.2678C20.7366 18.7989 21 18.163 21 17.5V8Z" fill="#374957"/>
</g>
<defs>
<clipPath id="clip0_405_1729">
<rect width="24" height="24" fill="white"/>
</clipPath>
</defs>
</svg>
