<svg width="24" height="24" viewBox="0 0 24 24" fill="none" xmlns="http://www.w3.org/2000/svg">
<g clip-path="url(#clip0_405_1543)">
<path d="M12 9.99965C10.9963 10.0005 9.99392 10.071 9 10.2106V8.93965L13.609 7.03165C13.644 7.01765 13.679 7.00165 13.709 6.98465C14.0917 6.79137 14.4184 6.50289 14.6574 6.14695C14.8965 5.791 15.04 5.37955 15.0741 4.95213C15.1083 4.52471 15.0319 4.09569 14.8524 3.7063C14.6729 3.31691 14.3962 2.98024 14.049 2.72865C14 2.69265 9.618 0.264648 9.618 0.264648C9.23693 0.0741199 8.81349 -0.0158601 8.38787 0.00324859C7.96225 0.0223573 7.54858 0.149921 7.18612 0.373831C6.82365 0.597741 6.52443 0.910568 6.31684 1.28262C6.10925 1.65467 6.00019 2.0736 6 2.49965V10.8826C2.361 12.0587 0 14.2996 0 16.9996C0 20.9907 5.159 23.9996 12 23.9996C18.841 23.9996 24 20.9907 24 16.9996C24 13.0086 18.841 9.99965 12 9.99965ZM12 20.9996C6.849 20.9996 3 18.8876 3 16.9996C3 15.9746 4.14 14.8867 6 14.0997V16.4996C6 16.8975 6.15804 17.279 6.43934 17.5603C6.72064 17.8416 7.10218 17.9996 7.5 17.9996C7.89782 17.9996 8.27936 17.8416 8.56066 17.5603C8.84196 17.279 9 16.8975 9 16.4996V13.2536C9.99098 13.084 10.9946 12.999 12 12.9997C17.151 12.9997 21 15.1116 21 16.9996C21 18.8876 17.151 20.9996 12 20.9996ZM17 16.9996C17 17.3952 16.8827 17.7819 16.6629 18.1108C16.4432 18.4397 16.1308 18.696 15.7654 18.8474C15.3999 18.9988 14.9978 19.0384 14.6098 18.9612C14.2219 18.8841 13.8655 18.6936 13.5858 18.4139C13.3061 18.1342 13.1156 17.7778 13.0384 17.3898C12.9613 17.0019 13.0009 16.5997 13.1522 16.2343C13.3036 15.8688 13.56 15.5565 13.8889 15.3367C14.2178 15.1169 14.6044 14.9997 15 14.9997C15.5304 14.9997 16.0391 15.2104 16.4142 15.5854C16.7893 15.9605 17 16.4692 17 16.9996Z" fill="#374957"/>
</g>
<defs>
<clipPath id="clip0_405_1543">
<rect width="24" height="24" fill="white"/>
</clipPath>
</defs>
</svg>
