<svg width="24" height="24" viewBox="0 0 24 24" fill="none" xmlns="http://www.w3.org/2000/svg">
<g clip-path="url(#clip0_405_1584)">
<path d="M7.00006 11.5C7.00006 11.1022 7.1581 10.7206 7.4394 10.4393C7.72071 10.158 8.10224 10 8.50006 10H11.5001C11.8979 10 12.2794 10.158 12.5607 10.4393C12.842 10.7206 13.0001 11.1022 13.0001 11.5C13.0001 11.8978 12.842 12.2794 12.5607 12.5607C12.2794 12.842 11.8979 13 11.5001 13H8.50006C8.10224 13 7.72071 12.842 7.4394 12.5607C7.1581 12.2794 7.00006 11.8978 7.00006 11.5ZM8.50006 8H15.5001C15.8979 8 16.2794 7.84196 16.5607 7.56066C16.842 7.27936 17.0001 6.89782 17.0001 6.5C17.0001 6.10218 16.842 5.72064 16.5607 5.43934C16.2794 5.15804 15.8979 5 15.5001 5H8.50006C8.10224 5 7.72071 5.15804 7.4394 5.43934C7.1581 5.72064 7.00006 6.10218 7.00006 6.5C7.00006 6.89782 7.1581 7.27936 7.4394 7.56066C7.72071 7.84196 8.10224 8 8.50006 8ZM21.0001 19.974V22.916C21 23.13 20.9365 23.3391 20.8177 23.517C20.6988 23.6949 20.5298 23.8336 20.3321 23.9155C20.1344 23.9973 19.9169 24.0188 19.707 23.977C19.4972 23.9353 19.3044 23.8323 19.1531 23.681L18.0001 22.528L16.8471 23.681C16.6957 23.8323 16.503 23.9353 16.2931 23.977C16.0832 24.0188 15.8657 23.9973 15.668 23.9155C15.4703 23.8336 15.3014 23.6949 15.1825 23.517C15.0636 23.3391 15.0001 23.13 15.0001 22.916V19.974C14.0951 19.293 13.4489 18.3243 13.1675 17.2273C12.8861 16.1302 12.9864 14.9701 13.4518 13.9376C13.9172 12.9051 14.72 12.0616 15.7284 11.546C16.7367 11.0303 17.8905 10.873 19.0001 11.1V5.5C19.0001 4.83696 18.7367 4.20107 18.2678 3.73223C17.799 3.26339 17.1631 3 16.5001 3L7.50706 3.038C7.17817 3.03708 6.85232 3.10106 6.5482 3.22629C6.24408 3.35151 5.96766 3.53552 5.73477 3.76775C5.50188 3.99999 5.3171 4.2759 5.19103 4.57967C5.06496 4.88344 5.00006 5.20911 5.00006 5.538V17.5C5.00006 18.163 5.26345 18.7989 5.73229 19.2678C6.20114 19.7366 6.83702 20 7.50006 20H11.5001C11.8979 20 12.2794 20.158 12.5607 20.4393C12.842 20.7206 13.0001 21.1022 13.0001 21.5C13.0001 21.8978 12.842 22.2794 12.5607 22.5607C12.2794 22.842 11.8979 23 11.5001 23H7.50006C6.04194 22.9981 4.64407 22.4181 3.61302 21.387C2.58197 20.356 2.00191 18.9581 2.00006 17.5V5.538C2.00191 4.07988 2.58197 2.68201 3.61302 1.65096C4.64407 0.61991 6.04194 0.0398523 7.50006 0.038L16.4931 0C17.9522 0.000527795 19.3516 0.579937 20.384 1.61107C21.4165 2.64221 21.9977 4.04083 22.0001 5.5V13.031C22.3939 13.5511 22.6806 14.1443 22.8436 14.776C23.0066 15.4077 23.0426 16.0655 22.9496 16.7113C22.8566 17.357 22.6364 17.9779 22.3018 18.538C21.9671 19.098 21.5247 19.5861 21.0001 19.974ZM16.0001 16C16.0001 16.3956 16.1174 16.7822 16.3371 17.1111C16.5569 17.44 16.8692 17.6964 17.2347 17.8478C17.6001 17.9991 18.0023 18.0387 18.3902 17.9616C18.7782 17.8844 19.1346 17.6939 19.4143 17.4142C19.694 17.1345 19.8845 16.7781 19.9616 16.3902C20.0388 16.0022 19.9992 15.6001 19.8478 15.2346C19.6964 14.8692 19.4401 14.5568 19.1112 14.3371C18.7823 14.1173 18.3956 14 18.0001 14C17.4696 14 16.9609 14.2107 16.5858 14.5858C16.2108 14.9609 16.0001 15.4696 16.0001 16Z" fill="#374957"/>
</g>
<defs>
<clipPath id="clip0_405_1584">
<rect width="24" height="24" fill="white"/>
</clipPath>
</defs>
</svg>
