<svg width="24" height="24" viewBox="0 0 24 24" fill="none" xmlns="http://www.w3.org/2000/svg">
<g clip-path="url(#clip0_405_1458)">
<path d="M12.0001 4.4928e-05C10.5534 -0.00371006 9.12036 0.280576 7.78463 0.836328C6.4489 1.39208 5.23717 2.20818 4.22009 3.23704C2.15462 5.32282 0.999432 8.14182 1.0073 11.0772C1.01517 14.0126 2.18546 16.8254 4.26209 18.9L8.00009 22.359C9.06213 23.4053 10.4915 23.9943 11.9823 24.0001C13.4731 24.0059 14.9069 23.428 15.9771 22.39L19.7841 18.854C21.843 16.777 22.9982 13.9707 22.9982 11.046C22.9982 8.1214 21.843 5.31514 19.7841 3.23804C18.7666 2.20852 17.5543 1.39196 16.2178 0.836015C14.8814 0.280074 13.4476 -0.00411084 12.0001 4.4928e-05ZM17.7001 16.7L13.9001 20.226C13.3828 20.7204 12.6933 20.9937 11.9778 20.9879C11.2623 20.9821 10.5773 20.6977 10.0681 20.195L6.34609 16.736C4.84519 15.2222 4.00307 13.1768 4.00307 11.045C4.00307 8.9133 4.84519 6.86786 6.34609 5.35404C7.08663 4.60809 7.96747 4.01604 8.93785 3.61203C9.90823 3.20801 10.949 3.00001 12.0001 3.00001C13.0512 3.00001 14.0919 3.20801 15.0623 3.61203C16.0327 4.01604 16.9135 4.60809 17.6541 5.35404C19.1526 6.85899 19.9978 8.89383 20.0064 11.0176C20.015 13.1414 19.1864 15.183 17.7001 16.7ZM17.0001 10.128V14C17.0001 14.2653 16.8947 14.5196 16.7072 14.7072C16.5197 14.8947 16.2653 15 16.0001 15H15.0001C14.7349 15 14.4805 14.8947 14.293 14.7072C14.1054 14.5196 14.0001 14.2653 14.0001 14V12C14.0001 11.7348 13.8947 11.4805 13.7072 11.2929C13.5197 11.1054 13.2653 11 13.0001 11H11.0001C10.7349 11 10.4805 11.1054 10.293 11.2929C10.1054 11.4805 10.0001 11.7348 10.0001 12V14C10.0001 14.2653 9.89473 14.5196 9.70719 14.7072C9.51966 14.8947 9.2653 15 9.00009 15H8.00009C7.73487 15 7.48052 14.8947 7.29298 14.7072C7.10544 14.5196 7.00009 14.2653 7.00009 14V10.128C7.00013 9.8051 7.07838 9.48697 7.22815 9.20084C7.37791 8.91472 7.59474 8.66912 7.86009 8.48504L10.8601 6.40304C11.1949 6.17079 11.5926 6.04633 12.0001 6.04633C12.4076 6.04633 12.8053 6.17079 13.1401 6.40304L16.1401 8.48504C16.4054 8.66912 16.6223 8.91472 16.772 9.20084C16.9218 9.48697 17 9.8051 17.0001 10.128Z" fill="#374957"/>
</g>
<defs>
<clipPath id="clip0_405_1458">
<rect width="24" height="24" fill="white"/>
</clipPath>
</defs>
</svg>
