<svg width="24" height="24" viewBox="0 0 24 24" fill="none" xmlns="http://www.w3.org/2000/svg">
<g clip-path="url(#clip0_405_1448)">
<path d="M17.5 24C9.35101 24.229 -5.07499 9.787 1.86201 1.938C1.88701 1.914 2.95401 0.984 2.95401 0.984C3.62368 0.364944 4.5042 0.024539 5.41613 0.032157C6.32807 0.039775 7.20278 0.394843 7.86201 1.025L10.014 3.343C10.6479 4.00548 10.9985 4.88905 10.9912 5.80592C10.9839 6.72279 10.6194 7.60068 9.97501 8.253L9.58701 8.647C10.7425 11.2059 12.787 13.2588 15.341 14.425L15.752 14.025C16.4186 13.3901 17.3039 13.036 18.2245 13.036C19.1451 13.036 20.0304 13.3901 20.697 14.025L22.934 16.1C23.5966 16.7473 23.977 17.63 23.9923 18.5561C24.0077 19.4823 23.6568 20.3771 23.016 21.046C23.016 21.046 22.086 22.112 22.062 22.137C21.4628 22.734 20.7509 23.2061 19.9678 23.5259C19.1847 23.8457 18.3459 24.0069 17.5 24ZM3.95001 4.1C-0.908989 10.118 14.644 24.773 19.905 20.05C19.905 20.05 20.829 18.991 20.854 18.967C20.9477 18.8732 21.0004 18.7461 21.0004 18.6135C21.0004 18.4809 20.9477 18.3538 20.854 18.26L18.616 16.186C18.316 15.936 18.147 15.933 17.869 16.146L16.733 17.264C16.5281 17.4656 16.2696 17.604 15.9882 17.6629C15.7069 17.7218 15.4145 17.6985 15.146 17.596C13.1506 16.8535 11.3382 15.6906 9.83164 14.1863C8.32505 12.6819 7.15951 10.8713 6.41401 8.877C6.30551 8.60629 6.27827 8.30982 6.33564 8.02388C6.393 7.73793 6.53249 7.47491 6.73701 7.267L7.84501 6.141C7.89547 6.09618 7.93602 6.04132 7.96406 5.97993C7.99211 5.91854 8.00703 5.85197 8.00788 5.78449C8.00872 5.717 7.99548 5.65008 7.96898 5.58801C7.94249 5.52594 7.90333 5.47008 7.85401 5.424L5.70001 3.106C5.6047 3.02635 5.48256 2.98613 5.35857 2.99356C5.23458 3.001 5.11812 3.05553 5.03301 3.146C5.00901 3.171 3.95001 4.1 3.95001 4.1ZM24 9.5C23.9971 6.98134 22.9953 4.56667 21.2143 2.7857C19.4333 1.00474 17.0187 0.00291129 14.5 0C14.1022 0 13.7207 0.158035 13.4394 0.43934C13.158 0.720644 13 1.10218 13 1.5C13 1.89783 13.158 2.27936 13.4394 2.56066C13.7207 2.84196 14.1022 3 14.5 3C16.2233 3.00212 17.8753 3.68762 19.0939 4.90614C20.3124 6.12467 20.9979 7.77674 21 9.5C21 9.89783 21.158 10.2794 21.4394 10.5607C21.7207 10.842 22.1022 11 22.5 11C22.8978 11 23.2794 10.842 23.5607 10.5607C23.842 10.2794 24 9.89783 24 9.5ZM19 9.5C18.9987 8.30693 18.5242 7.16311 17.6805 6.31948C16.8369 5.47585 15.6931 5.00132 14.5 5C14.1022 5 13.7207 5.15804 13.4394 5.43934C13.158 5.72064 13 6.10218 13 6.5C13 6.89783 13.158 7.27936 13.4394 7.56066C13.7207 7.84197 14.1022 8 14.5 8C14.8978 8 15.2794 8.15804 15.5607 8.43934C15.842 8.72064 16 9.10218 16 9.5C16 9.89783 16.158 10.2794 16.4394 10.5607C16.7207 10.842 17.1022 11 17.5 11C17.8978 11 18.2794 10.842 18.5607 10.5607C18.842 10.2794 19 9.89783 19 9.5Z" fill="#374957"/>
</g>
<defs>
<clipPath id="clip0_405_1448">
<rect width="24" height="24" fill="white"/>
</clipPath>
</defs>
</svg>
