<svg width="24" height="24" viewBox="0 0 24 24" fill="none" xmlns="http://www.w3.org/2000/svg">
<g clip-path="url(#clip0_405_1728)">
<path d="M18.5 5H15.975C15.849 3.63445 15.2179 2.36507 14.2053 1.4403C13.1926 0.515522 11.8714 0.00191795 10.5 0L5.5 0C4.0418 0.00158817 2.64377 0.581561 1.61267 1.61267C0.581561 2.64377 0.00158817 4.0418 0 5.5L0 18.5C0.00158817 19.9582 0.581561 21.3562 1.61267 22.3873C2.64377 23.4184 4.0418 23.9984 5.5 24H18.5C19.9582 23.9984 21.3562 23.4184 22.3873 22.3873C23.4184 21.3562 23.9984 19.9582 24 18.5V10.5C23.9984 9.0418 23.4184 7.64377 22.3873 6.61267C21.3562 5.58156 19.9582 5.00159 18.5 5ZM3 18.5V5.5C3 4.83696 3.26339 4.20107 3.73223 3.73223C4.20107 3.26339 4.83696 3 5.5 3H10.5C11.163 3 11.7989 3.26339 12.2678 3.73223C12.7366 4.20107 13 4.83696 13 5.5V21H5.5C4.83696 21 4.20107 20.7366 3.73223 20.2678C3.26339 19.7989 3 19.163 3 18.5ZM21 18.5C21 19.163 20.7366 19.7989 20.2678 20.2678C19.7989 20.7366 19.163 21 18.5 21H16V8H18.5C19.163 8 19.7989 8.26339 20.2678 8.73223C20.7366 9.20107 21 9.83696 21 10.5V18.5ZM20 11.5C20 11.7967 19.912 12.0867 19.7472 12.3334C19.5824 12.58 19.3481 12.7723 19.074 12.8858C18.7999 12.9994 18.4983 13.0291 18.2074 12.9712C17.9164 12.9133 17.6491 12.7704 17.4393 12.5607C17.2296 12.3509 17.0867 12.0836 17.0288 11.7926C16.9709 11.5017 17.0007 11.2001 17.1142 10.926C17.2277 10.6519 17.42 10.4176 17.6666 10.2528C17.9133 10.088 18.2033 10 18.5 10C18.8978 10 19.2794 10.158 19.5607 10.4393C19.842 10.7206 20 11.1022 20 11.5ZM20 16.5C20 16.7967 19.912 17.0867 19.7472 17.3334C19.5824 17.58 19.3481 17.7723 19.074 17.8858C18.7999 17.9993 18.4983 18.0291 18.2074 17.9712C17.9164 17.9133 17.6491 17.7704 17.4393 17.5607C17.2296 17.3509 17.0867 17.0836 17.0288 16.7926C16.9709 16.5017 17.0007 16.2001 17.1142 15.926C17.2277 15.6519 17.42 15.4176 17.6666 15.2528C17.9133 15.088 18.2033 15 18.5 15C18.8978 15 19.2794 15.158 19.5607 15.4393C19.842 15.7206 20 16.1022 20 16.5ZM7 6.5C7 6.79667 6.91203 7.08668 6.7472 7.33336C6.58238 7.58003 6.34811 7.77229 6.07403 7.88582C5.79994 7.99935 5.49834 8.02906 5.20736 7.97118C4.91639 7.9133 4.64912 7.77044 4.43934 7.56066C4.22956 7.35088 4.0867 7.08361 4.02882 6.79264C3.97094 6.50166 4.00065 6.20006 4.11418 5.92597C4.22771 5.65189 4.41997 5.41762 4.66664 5.2528C4.91332 5.08797 5.20333 5 5.5 5C5.89782 5 6.27936 5.15804 6.56066 5.43934C6.84196 5.72064 7 6.10218 7 6.5ZM7 11.5C7 11.7967 6.91203 12.0867 6.7472 12.3334C6.58238 12.58 6.34811 12.7723 6.07403 12.8858C5.79994 12.9994 5.49834 13.0291 5.20736 12.9712C4.91639 12.9133 4.64912 12.7704 4.43934 12.5607C4.22956 12.3509 4.0867 12.0836 4.02882 11.7926C3.97094 11.5017 4.00065 11.2001 4.11418 10.926C4.22771 10.6519 4.41997 10.4176 4.66664 10.2528C4.91332 10.088 5.20333 10 5.5 10C5.89782 10 6.27936 10.158 6.56066 10.4393C6.84196 10.7206 7 11.1022 7 11.5ZM12 6.5C12 6.79667 11.912 7.08668 11.7472 7.33336C11.5824 7.58003 11.3481 7.77229 11.074 7.88582C10.7999 7.99935 10.4983 8.02906 10.2074 7.97118C9.91639 7.9133 9.64912 7.77044 9.43934 7.56066C9.22956 7.35088 9.0867 7.08361 9.02882 6.79264C8.97094 6.50166 9.00065 6.20006 9.11418 5.92597C9.22771 5.65189 9.41997 5.41762 9.66665 5.2528C9.91332 5.08797 10.2033 5 10.5 5C10.8978 5 11.2794 5.15804 11.5607 5.43934C11.842 5.72064 12 6.10218 12 6.5ZM12 11.5C12 11.7967 11.912 12.0867 11.7472 12.3334C11.5824 12.58 11.3481 12.7723 11.074 12.8858C10.7999 12.9994 10.4983 13.0291 10.2074 12.9712C9.91639 12.9133 9.64912 12.7704 9.43934 12.5607C9.22956 12.3509 9.0867 12.0836 9.02882 11.7926C8.97094 11.5017 9.00065 11.2001 9.11418 10.926C9.22771 10.6519 9.41997 10.4176 9.66665 10.2528C9.91332 10.088 10.2033 10 10.5 10C10.8978 10 11.2794 10.158 11.5607 10.4393C11.842 10.7206 12 11.1022 12 11.5ZM7 16.5C7 16.7967 6.91203 17.0867 6.7472 17.3334C6.58238 17.58 6.34811 17.7723 6.07403 17.8858C5.79994 17.9993 5.49834 18.0291 5.20736 17.9712C4.91639 17.9133 4.64912 17.7704 4.43934 17.5607C4.22956 17.3509 4.0867 17.0836 4.02882 16.7926C3.97094 16.5017 4.00065 16.2001 4.11418 15.926C4.22771 15.6519 4.41997 15.4176 4.66664 15.2528C4.91332 15.088 5.20333 15 5.5 15C5.89782 15 6.27936 15.158 6.56066 15.4393C6.84196 15.7206 7 16.1022 7 16.5ZM12 16.5C12 16.7967 11.912 17.0867 11.7472 17.3334C11.5824 17.58 11.3481 17.7723 11.074 17.8858C10.7999 17.9993 10.4983 18.0291 10.2074 17.9712C9.91639 17.9133 9.64912 17.7704 9.43934 17.5607C9.22956 17.3509 9.0867 17.0836 9.02882 16.7926C8.97094 16.5017 9.00065 16.2001 9.11418 15.926C9.22771 15.6519 9.41997 15.4176 9.66665 15.2528C9.91332 15.088 10.2033 15 10.5 15C10.8978 15 11.2794 15.158 11.5607 15.4393C11.842 15.7206 12 16.1022 12 16.5Z" fill="#374957"/>
</g>
<defs>
<clipPath id="clip0_405_1728">
<rect width="24" height="24" fill="white"/>
</clipPath>
</defs>
</svg>
