<svg width="24" height="24" viewBox="0 0 24 24" fill="none" xmlns="http://www.w3.org/2000/svg">
<g clip-path="url(#clip0_405_1675)">
<path d="M19.0001 2.607V1.5C19.0001 1.10218 18.8421 0.720644 18.5608 0.43934C18.2795 0.158035 17.8979 0 17.5001 0C17.1023 0 16.7208 0.158035 16.4395 0.43934C16.1582 0.720644 16.0001 1.10218 16.0001 1.5V2H13.5001V1.5C13.5001 1.10218 13.3421 0.720644 13.0608 0.43934C12.7795 0.158035 12.3979 0 12.0001 0C11.6023 0 11.2208 0.158035 10.9395 0.43934C10.6582 0.720644 10.5001 1.10218 10.5001 1.5V2H8.00012V1.5C8.00012 1.10218 7.84209 0.720644 7.56078 0.43934C7.27948 0.158035 6.89795 0 6.50012 0C6.1023 0 5.72077 0.158035 5.43946 0.43934C5.15816 0.720644 5.00012 1.10218 5.00012 1.5V2.607C4.09806 3.06733 3.34062 3.76778 2.81127 4.63115C2.28192 5.49452 2.00122 6.48728 2.00012 7.5V18.5C2.00171 19.9582 2.58168 21.3562 3.61279 22.3873C4.64389 23.4184 6.04192 23.9984 7.50012 24H16.5001C17.9582 23.9981 19.3561 23.4181 20.3872 22.387C21.4182 21.356 21.9983 19.9581 22.0001 18.5V7.5C21.999 6.48728 21.7183 5.49452 21.189 4.63115C20.6596 3.76778 19.9022 3.06733 19.0001 2.607ZM19.0001 18.5C19.0001 19.163 18.7367 19.7989 18.2679 20.2678C17.799 20.7366 17.1632 21 16.5001 21H7.50012C6.83708 21 6.2012 20.7366 5.73236 20.2678C5.26351 19.7989 5.00012 19.163 5.00012 18.5V7.5C5.00012 6.83696 5.26351 6.20107 5.73236 5.73223C6.2012 5.26339 6.83708 5 7.50012 5H16.5001C17.1632 5 17.799 5.26339 18.2679 5.73223C18.7367 6.20107 19.0001 6.83696 19.0001 7.5V18.5ZM17.0001 8.5C17.0001 8.89782 16.8421 9.27936 16.5608 9.56066C16.2795 9.84196 15.8979 10 15.5001 10H8.50012C8.1023 10 7.72077 9.84196 7.43946 9.56066C7.15816 9.27936 7.00012 8.89782 7.00012 8.5C7.00012 8.10218 7.15816 7.72064 7.43946 7.43934C7.72077 7.15804 8.1023 7 8.50012 7H15.5001C15.8979 7 16.2795 7.15804 16.5608 7.43934C16.8421 7.72064 17.0001 8.10218 17.0001 8.5ZM13.5001 13.5C13.5001 13.8978 13.3421 14.2794 13.0608 14.5607C12.7795 14.842 12.3979 15 12.0001 15H8.50012C8.1023 15 7.72077 14.842 7.43946 14.5607C7.15816 14.2794 7.00012 13.8978 7.00012 13.5C7.00012 13.1022 7.15816 12.7206 7.43946 12.4393C7.72077 12.158 8.1023 12 8.50012 12H12.0001C12.3979 12 12.7795 12.158 13.0608 12.4393C13.3421 12.7206 13.5001 13.1022 13.5001 13.5Z" fill="#374957"/>
</g>
<defs>
<clipPath id="clip0_405_1675">
<rect width="24" height="24" fill="white"/>
</clipPath>
</defs>
</svg>
