<svg width="24" height="24" viewBox="0 0 24 24" fill="none" xmlns="http://www.w3.org/2000/svg">
<g clip-path="url(#clip0_405_1329)">
<path d="M14.4999 12.9994C14.2033 12.9994 13.9133 12.9114 13.6666 12.7466C13.4199 12.5818 13.2277 12.3475 13.1141 12.0734C13.0006 11.7994 12.9709 11.4978 13.0288 11.2068C13.0866 10.9158 13.2295 10.6485 13.4393 10.4388C13.6491 10.229 13.9163 10.0861 14.2073 10.0282C14.4983 9.97036 14.7999 10.0001 15.074 10.1136C15.3481 10.2271 15.5823 10.4194 15.7472 10.6661C15.912 10.9127 15.9999 11.2027 15.9999 11.4994C15.9999 11.8972 15.8419 12.2788 15.5606 12.5601C15.2793 12.8414 14.8978 12.9994 14.4999 12.9994ZM23.9209 17.7704C24.0538 18.5344 24.0179 19.3182 23.8159 20.0669C23.6139 20.8156 23.2506 21.511 22.7514 22.1045C22.2523 22.6979 21.6294 23.175 20.9264 23.5024C20.2235 23.8297 19.4574 23.9994 18.6819 23.9994H15.4999C15.1021 23.9994 14.7206 23.8414 14.4393 23.5601C14.158 23.2788 13.9999 22.8972 13.9999 22.4994V20.7254C13.3467 20.8967 12.6752 20.9887 11.9999 20.9994C11.3235 20.9974 10.6506 20.9025 9.99995 20.7174V22.4994C9.99995 22.8972 9.84191 23.2788 9.56061 23.5601C9.2793 23.8414 8.89777 23.9994 8.49995 23.9994H5.31695C4.54157 23.9992 3.77563 23.8295 3.07277 23.5021C2.36992 23.1747 1.74716 22.6975 1.24813 22.1041C0.749105 21.5106 0.385882 20.8152 0.183914 20.0666C-0.0180534 19.318 -0.05388 18.5343 0.0789449 17.7704L0.478945 15.7464C0.598994 15.0911 0.911683 14.4864 1.37707 14.0096C1.84245 13.5328 2.43941 13.2055 3.09167 13.0696C3.74394 12.9338 4.42191 12.9954 5.03897 13.2467C5.65603 13.498 6.18418 13.9275 6.55595 14.4804C7.65795 16.0994 9.74495 17.9994 11.9999 17.9994C13.369 17.9287 14.6892 17.4673 15.8042 16.6698C16.9193 15.8723 17.7826 14.7721 18.2919 13.4994C18.3954 13.2068 18.587 12.9535 18.8405 12.7744C19.0939 12.5953 19.3966 12.4993 19.7069 12.4994H20.0259C20.2838 12.4973 20.5305 12.3939 20.7127 12.2115C20.8949 12.029 20.9981 11.7823 20.9999 11.5244C21 11.3172 20.9272 11.1165 20.7943 10.9575C20.6614 10.7985 20.4769 10.6912 20.2729 10.6544C19.9541 10.5964 19.6626 10.4366 19.4421 10.199C19.2216 9.96137 19.084 9.65875 19.0499 9.33642C18.8682 7.59464 18.0465 5.98229 16.7441 4.8116C15.4417 3.6409 13.7512 2.99516 11.9999 2.99942C6.99995 2.99942 5.68095 5.94442 4.51995 8.54342L4.39495 8.82242C7.0487 8.45926 9.52247 7.27534 11.4699 5.43642C11.6081 5.29115 11.774 5.17504 11.9578 5.09497C12.1416 5.0149 12.3395 4.97248 12.54 4.97022C12.7405 4.96797 12.9394 5.00592 13.1249 5.08184C13.3105 5.15775 13.4789 5.2701 13.6203 5.41222C13.7617 5.55435 13.8732 5.72338 13.9481 5.90932C14.0231 6.09526 14.06 6.29433 14.0567 6.49478C14.0534 6.69524 14.0099 6.89299 13.9289 7.07637C13.8479 7.25974 13.7309 7.42502 13.5849 7.56242C12.5476 8.58704 11.3591 9.44638 10.0609 10.1104C10.3374 10.22 10.5752 10.409 10.7444 10.6536C10.9136 10.8982 11.0066 11.1874 11.0117 11.4848C11.0167 11.7821 10.9336 12.0743 10.7729 12.3245C10.6121 12.5747 10.3809 12.7717 10.1083 12.8907C9.83573 13.0096 9.53404 13.0452 9.24127 12.993C8.9485 12.9407 8.67775 12.8029 8.46317 12.597C8.24858 12.3911 8.09977 12.1263 8.03548 11.8359C7.9712 11.5456 7.99433 11.2427 8.10195 10.9654C5.95031 11.739 3.66962 12.0901 1.38495 11.9994C1.06348 11.9775 0.757633 11.8526 0.512681 11.6432C0.267728 11.4339 0.0966929 11.1513 0.0248958 10.8371C-0.0469014 10.523 -0.0156437 10.1941 0.114041 9.89918C0.243726 9.60422 0.464944 9.35886 0.744945 9.19942C1.18527 8.62963 1.53474 7.99512 1.78095 7.31842C2.99995 4.58142 5.05295 -0.000582344 11.9999 -0.000582344C14.3266 -0.00606935 16.5832 0.794826 18.3859 2.26581C20.1885 3.73679 21.4257 5.78696 21.8869 8.06742C22.5227 8.39289 23.0564 8.88746 23.4292 9.49668C23.802 10.1059 23.9995 10.8062 23.9999 11.5204C23.9989 12.3554 23.732 13.1683 23.2379 13.8414L23.9209 17.7704ZM6.99995 19.2134C5.86119 18.368 4.87216 17.3377 4.07395 16.1654C4.04337 16.1134 3.9994 16.0706 3.94663 16.0414C3.89387 16.0122 3.83423 15.9977 3.77395 15.9994C3.69089 16.0017 3.61123 16.0329 3.54877 16.0877C3.48631 16.1425 3.44498 16.2174 3.43195 16.2994L3.03195 18.3224C2.9805 18.6528 3.00106 18.9903 3.09221 19.312C3.18336 19.6336 3.34295 19.9318 3.56005 20.186C3.77715 20.4402 4.04663 20.6446 4.35005 20.7849C4.65346 20.9253 4.98363 20.9985 5.31795 20.9994H6.99995V19.2134ZM20.9649 18.2834L20.5269 15.7654C19.6768 17.2696 18.4644 18.5376 16.9999 19.4544V20.9994H18.6809C19.0189 20.9993 19.3528 20.9253 19.6592 20.7826C19.9655 20.6399 20.237 20.4319 20.4546 20.1733C20.6722 19.9147 20.8306 19.6116 20.9187 19.2853C21.0069 18.959 21.0227 18.6174 20.9649 18.2844V18.2834Z" fill="#374957"/>
</g>
<defs>
<clipPath id="clip0_405_1329">
<rect width="24" height="24" fill="white"/>
</clipPath>
</defs>
</svg>
