<svg width="24" height="24" viewBox="0 0 24 24" fill="none" xmlns="http://www.w3.org/2000/svg">
<g clip-path="url(#clip0_405_1670)">
<path d="M11.6711 23.9999C11.212 24.0001 10.7575 23.9096 10.3334 23.7337C9.9094 23.5578 9.52427 23.3 9.2001 22.9749L5.8101 19.5559C5.53004 19.2733 5.3737 18.8911 5.37548 18.4932C5.37726 18.0953 5.53702 17.7145 5.8196 17.4344C6.10219 17.1544 6.48446 16.998 6.88232 16.9998C7.28018 17.0016 7.66104 17.1613 7.9411 17.4439L11.3261 20.8579C11.4196 20.9495 11.5452 21.0009 11.6761 21.0009C11.807 21.0009 11.9326 20.9495 12.0261 20.8579L17.4401 15.4429C17.7215 15.1615 18.1032 15.0034 18.5011 15.0034C18.8991 15.0034 19.2807 15.1615 19.5621 15.4429C19.8435 15.7243 20.0016 16.106 20.0016 16.5039C20.0016 16.9019 19.8435 17.2835 19.5621 17.5649L14.1471 22.9789C13.822 23.3038 13.4359 23.5613 13.011 23.7365C12.5861 23.9118 12.1307 24.0013 11.6711 23.9999ZM2.0851 18.8999C2.46841 18.7782 2.78869 18.5111 2.97716 18.1558C3.16564 17.8005 3.20726 17.3855 3.0931 16.9999C2.93665 16.3879 2.99463 15.7408 3.25738 15.1663C3.52013 14.5919 3.97179 14.1248 4.53711 13.8429C5.1154 13.5314 5.54664 13.0034 5.73633 12.3745C5.92603 11.7457 5.8587 11.0673 5.5491 10.4879C5.03356 9.4695 4.87307 8.30802 5.0931 7.18794C5.28217 6.15232 5.79002 5.20163 6.54572 4.46871C7.30141 3.73578 8.26719 3.25724 9.3081 3.09994C9.99254 2.99638 10.6908 3.03051 11.3618 3.20034C12.0329 3.37017 12.6633 3.67227 13.2161 4.08894C13.7603 4.49701 14.2175 5.00962 14.5609 5.59673C14.9044 6.18384 15.1271 6.83361 15.2161 7.50794C15.2598 7.8345 15.4098 8.13758 15.643 8.37038C15.8762 8.60317 16.1795 8.75272 16.5061 8.79594C17.8205 8.97008 19.0177 9.64276 19.8501 10.6748C20.6825 11.7069 21.0863 13.0194 20.9781 14.3409V14.3939C20.9644 14.5881 20.9896 14.7831 21.052 14.9675C21.1145 15.1519 21.2131 15.322 21.342 15.4678C21.471 15.6137 21.6277 15.7324 21.803 15.8171C21.9783 15.9018 22.1687 15.9507 22.3631 15.9609C22.7639 15.9822 23.1572 15.8457 23.4586 15.5807C23.7601 15.3157 23.9458 14.9432 23.9761 14.5429C24.1225 12.6484 23.6033 10.7621 22.508 9.20934C21.4127 7.65658 19.81 6.53463 17.9761 6.03694C17.5022 4.30244 16.4643 2.77511 15.0261 1.69595C14.1578 1.03857 13.1671 0.561028 12.1119 0.291274C11.0567 0.0215188 9.95838 -0.0350268 8.8811 0.124947C7.22055 0.372024 5.67872 1.13183 4.47117 2.29815C3.26361 3.46446 2.45071 4.97897 2.1461 6.62994C1.82956 8.25545 2.01835 9.93892 2.6871 11.4539C1.65918 12.1044 0.863619 13.0637 0.414504 14.1942C-0.0346102 15.3247 -0.114215 16.5684 0.187105 17.7469L0.234105 17.9209C0.322213 18.2248 0.507519 18.4915 0.761641 18.6801C1.01576 18.8686 1.32469 18.9687 1.6411 18.9649C1.79144 18.9645 1.94095 18.9426 2.0851 18.8999Z" fill="#374957"/>
</g>
<defs>
<clipPath id="clip0_405_1670">
<rect width="24" height="24" fill="white"/>
</clipPath>
</defs>
</svg>
