<svg width="24" height="24" viewBox="0 0 24 24" fill="none" xmlns="http://www.w3.org/2000/svg">
<g clip-path="url(#clip0_405_1655)">
<path d="M16.9999 7.655V7C16.9999 6.46957 16.7892 5.96086 16.4142 5.58579C16.0391 5.21071 15.5304 5 14.9999 5V3H18.4999C18.8978 3 19.2793 2.84196 19.5606 2.56066C19.8419 2.27936 19.9999 1.89782 19.9999 1.5C19.9999 1.10218 19.8419 0.720644 19.5606 0.43934C19.2793 0.158035 18.8978 0 18.4999 0L12.4999 0C11.5717 0 10.6815 0.368749 10.0251 1.02513C9.3687 1.6815 8.99995 2.57174 8.99995 3.5V5C8.46952 5 7.96081 5.21071 7.58574 5.58579C7.21066 5.96086 6.99995 6.46957 6.99995 7V7.655C5.48759 8.46116 4.22319 9.66379 3.34235 11.1339C2.46151 12.604 1.99746 14.2862 1.99995 16V17.5C2.00207 19.2233 2.68757 20.8753 3.90609 22.0939C5.12462 23.3124 6.77669 23.9979 8.49995 24H15.4999C17.2232 23.9979 18.8753 23.3124 20.0938 22.0939C21.3123 20.8753 21.9978 19.2233 21.9999 17.5V16C22.0024 14.2862 21.5384 12.604 20.6575 11.1339C19.7767 9.66379 18.5123 8.46116 16.9999 7.655ZM18.9999 17.5C18.9999 18.4283 18.6312 19.3185 17.9748 19.9749C17.3184 20.6313 16.4282 21 15.4999 21H8.49995C7.57169 21 6.68145 20.6313 6.02508 19.9749C5.3687 19.3185 4.99995 18.4283 4.99995 17.5V16C4.99668 14.7151 5.37602 13.4583 6.08963 12.3897C6.80324 11.3212 7.81882 10.4893 9.00695 10H14.9929C16.1811 10.4893 17.1967 11.3212 17.9103 12.3897C18.6239 13.4583 19.0032 14.7151 18.9999 16V17.5ZM16.9999 17C16.9999 17.5304 16.7892 18.0391 16.4142 18.4142C16.0391 18.7893 15.5304 19 14.9999 19H8.99995C8.46952 19 7.96081 18.7893 7.58574 18.4142C7.21066 18.0391 6.99995 17.5304 6.99995 17C6.99995 16.4696 7.21066 15.9609 7.58574 15.5858C7.96081 15.2107 8.46952 15 8.99995 15H14.9999C15.5304 15 16.0391 15.2107 16.4142 15.5858C16.7892 15.9609 16.9999 16.4696 16.9999 17Z" fill="#374957"/>
</g>
<defs>
<clipPath id="clip0_405_1655">
<rect width="24" height="24" fill="white"/>
</clipPath>
</defs>
</svg>
