<svg width="24" height="24" viewBox="0 0 24 24" fill="none" xmlns="http://www.w3.org/2000/svg">
<g clip-path="url(#clip0_405_1747)">
<path d="M3 21.484V22.5C3 22.8978 3.15804 23.2794 3.43934 23.5607C3.72064 23.842 4.10218 24 4.5 24C4.89782 24 5.27936 23.842 5.56066 23.5607C5.84196 23.2794 6 22.8978 6 22.5V22.091H18V22.5C18 22.8978 18.158 23.2794 18.4393 23.5607C18.7206 23.842 19.1022 24 19.5 24C19.8978 24 20.2794 23.842 20.5607 23.5607C20.842 23.2794 21 22.8978 21 22.5V21.484C21.9021 21.0237 22.6595 20.3232 23.1889 19.4599C23.7182 18.5965 23.9989 17.6037 24 16.591V12.5C23.9984 11.0418 23.4184 9.64377 22.3873 8.61267C21.3562 7.58156 19.9582 7.00159 18.5 7H17V5C17 3.67392 16.4732 2.40215 15.5355 1.46447C14.5979 0.526784 13.3261 0 12 0C10.6739 0 9.40215 0.526784 8.46447 1.46447C7.52678 2.40215 7 3.67392 7 5V7H5.5C4.0418 7.00159 2.64377 7.58156 1.61267 8.61267C0.581561 9.64377 0.00158817 11.0418 0 12.5L0 16.591C0.00110132 17.6037 0.281796 18.5965 0.811144 19.4599C1.34049 20.3232 2.09794 21.0237 3 21.484ZM10 5C10 4.46957 10.2107 3.96086 10.5858 3.58579C10.9609 3.21071 11.4696 3 12 3C12.5304 3 13.0391 3.21071 13.4142 3.58579C13.7893 3.96086 14 4.46957 14 5V7H10V5ZM3 12.5C3 11.837 3.26339 11.2011 3.73223 10.7322C4.20107 10.2634 4.83696 10 5.5 10H18.5C19.163 10 19.7989 10.2634 20.2678 10.7322C20.7366 11.2011 21 11.837 21 12.5V16.591C21 17.254 20.7366 17.8899 20.2678 18.3588C19.7989 18.8276 19.163 19.091 18.5 19.091H5.5C4.83696 19.091 4.20107 18.8276 3.73223 18.3588C3.26339 17.8899 3 17.254 3 16.591V12.5ZM7 13.5C7 13.1022 7.15804 12.7206 7.43934 12.4393C7.72064 12.158 8.10218 12 8.5 12H15.5C15.8978 12 16.2794 12.158 16.5607 12.4393C16.842 12.7206 17 13.1022 17 13.5C17 13.8978 16.842 14.2794 16.5607 14.5607C16.2794 14.842 15.8978 15 15.5 15H8.5C8.10218 15 7.72064 14.842 7.43934 14.5607C7.15804 14.2794 7 13.8978 7 13.5Z" fill="#374957"/>
</g>
<defs>
<clipPath id="clip0_405_1747">
<rect width="24" height="24" fill="white"/>
</clipPath>
</defs>
</svg>
