<svg width="24" height="24" viewBox="0 0 24 24" fill="none" xmlns="http://www.w3.org/2000/svg">
<g clip-path="url(#clip0_405_1445)">
<path d="M16.5 0C16.1022 0 15.7206 0.158035 15.4393 0.43934C15.158 0.720644 15 1.10218 15 1.5C15 2.817 14.656 4 10.5 4H4.5C3.30693 4.00132 2.16311 4.47585 1.31948 5.31948C0.475854 6.16311 0.00132343 7.30693 0 8.5L0 11.5C0.00273837 12.3107 0.22523 13.1055 0.643797 13.7999C1.06236 14.4942 1.66135 15.062 2.377 15.443L5.555 22.536C5.74887 22.9717 6.06486 23.3418 6.46471 23.6016C6.86456 23.8615 7.33115 23.9998 7.808 24C8.17272 23.9998 8.5316 23.9084 8.85207 23.7343C9.17253 23.5602 9.44445 23.3088 9.64312 23.003C9.84179 22.6971 9.96093 22.3465 9.98972 21.9829C10.0185 21.6193 9.95605 21.2543 9.808 20.921L7.551 16H10.5C14.656 16 15 17.183 15 18.5C15 18.8978 15.158 19.2794 15.4393 19.5607C15.7206 19.842 16.1022 20 16.5 20C16.8978 20 17.2794 19.842 17.5607 19.5607C17.842 19.2794 18 18.8978 18 18.5V1.5C18 1.10218 17.842 0.720644 17.5607 0.43934C17.2794 0.158035 16.8978 0 16.5 0V0ZM15 13.711C13.5616 13.1795 12.0322 12.9378 10.5 13H4.5C4.10218 13 3.72064 12.842 3.43934 12.5607C3.15804 12.2794 3 11.8978 3 11.5V8.5C3 8.10218 3.15804 7.72064 3.43934 7.43934C3.72064 7.15804 4.10218 7 4.5 7H10.5C12.0322 7.06217 13.5616 6.82053 15 6.289V13.711ZM23.842 15.671C23.7539 15.8473 23.632 16.0045 23.4831 16.1336C23.3343 16.2627 23.1615 16.3612 22.9745 16.4236C22.7876 16.4859 22.5902 16.5107 22.3936 16.4968C22.1971 16.4828 22.0052 16.4302 21.829 16.342L20.829 15.842C20.4731 15.664 20.2024 15.352 20.0766 14.9745C19.9508 14.597 19.98 14.1849 20.158 13.829C20.336 13.4731 20.648 13.2024 21.0255 13.0766C21.403 12.9508 21.8151 12.98 22.171 13.158L23.171 13.658C23.3473 13.7461 23.5045 13.868 23.6336 14.0169C23.7627 14.1657 23.8613 14.3385 23.9236 14.5255C23.9859 14.7124 24.0107 14.9098 23.9968 15.1064C23.9828 15.3029 23.9302 15.4948 23.842 15.671ZM20.158 6.171C20.0698 5.99478 20.0172 5.80291 20.0033 5.60635C19.9893 5.4098 20.0141 5.21242 20.0764 5.02548C20.1388 4.83854 20.2373 4.66571 20.3664 4.51687C20.4955 4.36802 20.6527 4.24608 20.829 4.158L21.829 3.658C22.1849 3.48004 22.597 3.45076 22.9745 3.57659C23.352 3.70243 23.664 3.97308 23.842 4.329C24.02 4.68492 24.0492 5.09696 23.9234 5.47447C23.7976 5.85198 23.5269 6.16404 23.171 6.342L22.171 6.842C21.9948 6.93017 21.8029 6.98276 21.6064 6.99675C21.4098 7.01075 21.2124 6.98588 21.0255 6.92356C20.8385 6.86125 20.6657 6.76272 20.5169 6.63359C20.368 6.50446 20.2461 6.34727 20.158 6.171ZM20 10C20 9.60218 20.158 9.22064 20.4393 8.93934C20.7206 8.65804 21.1022 8.5 21.5 8.5H22.5C22.8978 8.5 23.2794 8.65804 23.5607 8.93934C23.842 9.22064 24 9.60218 24 10C24 10.3978 23.842 10.7794 23.5607 11.0607C23.2794 11.342 22.8978 11.5 22.5 11.5H21.5C21.1022 11.5 20.7206 11.342 20.4393 11.0607C20.158 10.7794 20 10.3978 20 10Z" fill="#374957"/>
</g>
<defs>
<clipPath id="clip0_405_1445">
<rect width="24" height="24" fill="white"/>
</clipPath>
</defs>
</svg>
