<svg width="24" height="24" viewBox="0 0 24 24" fill="none" xmlns="http://www.w3.org/2000/svg">
<g clip-path="url(#clip0_405_1746)">
<path d="M21.542 7C21.8648 7.00013 22.1845 6.93664 22.4828 6.81316C22.7811 6.68968 23.0521 6.50863 23.2804 6.28036C23.5086 6.05209 23.6897 5.78107 23.8132 5.48279C23.9366 5.18451 24.0001 4.86483 24 4.542V1.5C24 1.10218 23.842 0.720644 23.5607 0.43934C23.2794 0.158035 22.8978 0 22.5 0V0C22.1022 0 21.7206 0.158035 21.4393 0.43934C21.158 0.720644 21 1.10218 21 1.5V4H17.626C17.0226 3.05499 16.1909 2.27719 15.2076 1.7384C14.2244 1.19961 13.1212 0.917179 12 0.917179C10.8788 0.917179 9.77564 1.19961 8.79237 1.7384C7.80909 2.27719 6.97739 3.05499 6.374 4H3V1.5C3 1.10218 2.84196 0.720644 2.56066 0.43934C2.27936 0.158035 1.89783 0 1.5 0V0C1.10218 0 0.720645 0.158035 0.43934 0.43934C0.158035 0.720644 2.03602e-07 1.10218 2.03602e-07 1.5V4.542C0.000265225 5.19382 0.259317 5.81887 0.720224 6.27978C1.18113 6.74068 1.80618 6.99973 2.458 7H5.258L4.24 11H1.5C1.10218 11 0.720645 11.158 0.43934 11.4393C0.158035 11.7206 2.03602e-07 12.1022 2.03602e-07 12.5C2.03602e-07 12.8978 0.158035 13.2794 0.43934 13.5607C0.720645 13.842 1.10218 14 1.5 14H3.572C3.556 14.2 3.53 14.4 3.53 14.614C3.53114 15.4219 3.64833 16.2254 3.878 17H2.458C2.13517 16.9999 1.81549 17.0634 1.51721 17.1868C1.21893 17.3103 0.947911 17.4914 0.719639 17.7196C0.491366 17.9479 0.310316 18.2189 0.186837 18.5172C0.0633571 18.8155 -0.000131214 19.1352 2.03602e-07 19.458V22.5C2.03602e-07 22.8978 0.158035 23.2794 0.43934 23.5607C0.720645 23.842 1.10218 24 1.5 24C1.89783 24 2.27936 23.842 2.56066 23.5607C2.84196 23.2794 3 22.8978 3 22.5V20H5.468C6.26177 20.9641 7.25911 21.7406 8.38847 22.2736C9.51782 22.8067 10.7512 23.0831 12 23.0831C13.2488 23.0831 14.4822 22.8067 15.6115 22.2736C16.7409 21.7406 17.7382 20.9641 18.532 20H21V22.5C21 22.8978 21.158 23.2794 21.4393 23.5607C21.7206 23.842 22.1022 24 22.5 24C22.8978 24 23.2794 23.842 23.5607 23.5607C23.842 23.2794 24 22.8978 24 22.5V19.458C23.9997 18.8062 23.7407 18.1811 23.2798 17.7202C22.8189 17.2593 22.1938 17.0003 21.542 17H20.122C20.3517 16.2254 20.4689 15.4219 20.47 14.614C20.47 14.405 20.444 14.204 20.428 14H22.5C22.8978 14 23.2794 13.842 23.5607 13.5607C23.842 13.2794 24 12.8978 24 12.5C24 12.1022 23.842 11.7206 23.5607 11.4393C23.2794 11.158 22.8978 11 22.5 11H19.754L18.747 7H21.542ZM12 20.083C10.5499 20.0814 9.15968 19.5047 8.13423 18.4795C7.10878 17.4542 6.53185 16.0641 6.53 14.614C6.53136 14.4134 6.54405 14.2131 6.568 14.014L8.512 6.343C8.77606 5.63075 9.25185 5.0164 9.8754 4.58256C10.4989 4.14871 11.2404 3.91616 12 3.91616C12.7596 3.91616 13.5011 4.14871 14.1246 4.58256C14.7481 5.0164 15.2239 5.63075 15.488 6.343L17.432 14.018C17.456 14.2171 17.4686 14.4174 17.47 14.618C17.4671 16.0674 16.8897 17.4565 15.8644 18.4809C14.839 19.5053 13.4494 20.0814 12 20.083Z" fill="#374957"/>
</g>
<defs>
<clipPath id="clip0_405_1746">
<rect width="24" height="24" fill="white"/>
</clipPath>
</defs>
</svg>
