<svg width="24" height="24" viewBox="0 0 24 24" fill="none" xmlns="http://www.w3.org/2000/svg">
<g clip-path="url(#clip0_405_1685)">
<path d="M12.0001 24C11.2448 24.0059 10.5066 23.7748 9.88955 23.3393C9.27246 22.9037 8.80748 22.2856 8.56006 21.572C8.52971 21.4857 8.48139 21.4069 8.41829 21.3407C8.3552 21.2745 8.27877 21.2225 8.19406 21.188C8.11013 21.152 8.01943 21.1345 7.92814 21.1368C7.83685 21.139 7.74711 21.1609 7.66506 21.201C6.98407 21.5243 6.21973 21.6289 5.47691 21.5006C4.73409 21.3722 4.0492 21.0171 3.51621 20.484C2.98323 19.9509 2.62827 19.2659 2.50005 18.5231C2.37183 17.7802 2.47662 17.0159 2.80006 16.335C2.83987 16.2523 2.86181 16.162 2.86444 16.0703C2.86708 15.9785 2.85035 15.8871 2.81535 15.8022C2.78036 15.7173 2.72787 15.6408 2.66131 15.5775C2.59476 15.5142 2.51562 15.4657 2.42906 15.435C1.71874 15.1824 1.10403 14.7162 0.669327 14.1002C0.234625 13.4843 0.00125122 12.7489 0.00125122 11.995C0.00125122 11.2411 0.234625 10.5057 0.669327 9.88979C1.10403 9.27386 1.71874 8.80759 2.42906 8.55502C2.51544 8.52412 2.59436 8.47543 2.66072 8.41209C2.72708 8.34875 2.7794 8.27218 2.81428 8.18733C2.84916 8.10248 2.86583 8.01126 2.86321 7.91956C2.86059 7.82786 2.83873 7.73773 2.79906 7.65502C2.47919 6.9744 2.37723 6.21162 2.50713 5.47089C2.63703 4.73015 2.99244 4.04758 3.52481 3.51641C4.05719 2.98524 4.74056 2.63138 5.48159 2.50316C6.22262 2.37494 6.98516 2.47861 7.66506 2.80002C7.74781 2.83984 7.83802 2.86177 7.92982 2.86441C8.02161 2.86704 8.11293 2.85032 8.19783 2.81532C8.28273 2.78032 8.35931 2.72784 8.42258 2.66128C8.48585 2.59472 8.5344 2.51559 8.56506 2.42902C8.81763 1.71871 9.2839 1.104 9.89984 0.669295C10.5158 0.234594 11.2512 0.0012207 12.0051 0.0012207C12.7589 0.0012207 13.4943 0.234594 14.1103 0.669295C14.7262 1.104 15.1925 1.71871 15.4451 2.42902C15.4757 2.51559 15.5243 2.59472 15.5875 2.66128C15.6508 2.72784 15.7274 2.78032 15.8123 2.81532C15.8972 2.85032 15.9885 2.86704 16.0803 2.86441C16.1721 2.86177 16.2623 2.83984 16.3451 2.80002C17.0256 2.48035 17.7882 2.37851 18.5287 2.50841C19.2693 2.6383 19.9517 2.9936 20.4828 3.5258C21.0139 4.05799 21.3678 4.74113 21.4962 5.48195C21.6245 6.22277 21.5211 6.98516 21.2001 7.66502C21.1599 7.74772 21.1377 7.83798 21.1349 7.92986C21.1321 8.02174 21.1488 8.11318 21.1838 8.19817C21.2189 8.28316 21.2715 8.35978 21.3382 8.423C21.405 8.48623 21.4843 8.53462 21.5711 8.56502C22.2814 8.81759 22.8961 9.28386 23.3308 9.89979C23.7655 10.5157 23.9989 11.2511 23.9989 12.005C23.9989 12.7589 23.7655 13.4943 23.3308 14.1102C22.8961 14.7262 22.2814 15.1924 21.5711 15.445C21.4843 15.4754 21.405 15.5238 21.3382 15.587C21.2715 15.6502 21.2189 15.7269 21.1838 15.8119C21.1488 15.8968 21.1321 15.9883 21.1349 16.0802C21.1377 16.1721 21.1599 16.2623 21.2001 16.345C21.5197 17.0255 21.6216 17.7881 21.4917 18.5287C21.3618 19.2692 21.0065 19.9516 20.4743 20.4827C19.9421 21.0138 19.2589 21.3677 18.5181 21.4961C17.7773 21.6245 17.0149 21.5211 16.3351 21.2C16.2526 21.1612 16.163 21.14 16.0719 21.1378C15.9808 21.1356 15.8903 21.1523 15.8061 21.187C15.7213 21.2215 15.6449 21.2735 15.5818 21.3397C15.5187 21.4059 15.4704 21.4847 15.4401 21.571C15.1927 22.2847 14.7277 22.903 14.1107 23.3387C13.4936 23.7744 12.7554 24.0057 12.0001 24ZM7.94506 18.139C8.69905 18.1386 9.43467 18.3717 10.0508 18.8063C10.667 19.2409 11.1334 19.8556 11.3861 20.566C11.4263 20.6959 11.5083 20.8089 11.6193 20.8873C11.7303 20.9658 11.8642 21.0054 12.0001 21C12.1359 21.0054 12.2698 20.9658 12.3808 20.8873C12.4918 20.8089 12.5738 20.6959 12.6141 20.566C12.7854 20.0846 13.0559 19.6444 13.4081 19.2741C13.7602 18.9037 14.1861 18.6114 14.6583 18.4159C15.1304 18.2204 15.6384 18.1262 16.1492 18.1393C16.6601 18.1524 17.1625 18.2726 17.6241 18.492C17.7455 18.5494 17.8818 18.5678 18.0141 18.5448C18.1465 18.5218 18.2685 18.4585 18.3635 18.3635C18.4585 18.2685 18.5219 18.1465 18.5449 18.0141C18.5679 17.8817 18.5494 17.7455 18.4921 17.624C18.2726 17.1625 18.1525 16.6601 18.1394 16.1492C18.1262 15.6383 18.2205 15.1304 18.4159 14.6582C18.6114 14.186 18.9038 13.7601 19.2741 13.408C19.6445 13.0559 20.0846 12.7854 20.5661 12.614C20.6931 12.5692 20.8032 12.4861 20.8811 12.3762C20.9589 12.2662 21.0007 12.1348 21.0007 12C21.0007 11.8653 20.9589 11.7338 20.8811 11.6239C20.8032 11.5139 20.6931 11.4308 20.5661 11.386C20.0846 11.2146 19.6445 10.9441 19.2741 10.592C18.9038 10.2399 18.6114 9.81399 18.4159 9.34182C18.2205 8.86964 18.1262 8.36171 18.1394 7.85084C18.1525 7.33998 18.2726 6.83755 18.4921 6.37602C18.5494 6.25454 18.5679 6.1183 18.5449 5.98593C18.5219 5.85357 18.4585 5.73154 18.3635 5.63654C18.2685 5.54154 18.1465 5.47821 18.0141 5.4552C17.8818 5.4322 17.7455 5.45064 17.6241 5.50802C17.1625 5.72745 16.6601 5.84761 16.1492 5.86072C15.6384 5.87383 15.1304 5.77961 14.6583 5.58414C14.1861 5.38868 13.7602 5.09631 13.4081 4.72595C13.0559 4.35559 12.7854 3.91546 12.6141 3.43402C12.5693 3.30694 12.4862 3.19688 12.3762 3.11903C12.2662 3.04118 12.1348 2.99937 12.0001 2.99937C11.8653 2.99937 11.7339 3.04118 11.6239 3.11903C11.5139 3.19688 11.4308 3.30694 11.3861 3.43402C11.2148 3.91543 10.9444 4.35554 10.5924 4.72589C10.2404 5.09625 9.81453 5.38862 9.34243 5.58409C8.87033 5.77957 8.36247 5.8738 7.85167 5.86069C7.34088 5.84759 6.83851 5.72744 6.37706 5.50802C6.25554 5.4503 6.11914 5.43159 5.98657 5.45444C5.85399 5.47729 5.73173 5.54059 5.63655 5.63566C5.54137 5.73073 5.47793 5.85292 5.45492 5.98547C5.43192 6.11802 5.45048 6.25444 5.50806 6.37602C5.72735 6.83751 5.84743 7.33985 5.86053 7.85063C5.87363 8.3614 5.77946 8.86924 5.58411 9.34136C5.38876 9.81348 5.09657 10.2394 4.7264 10.5916C4.35623 10.9438 3.91631 11.2144 3.43506 11.386C3.30797 11.4308 3.19792 11.5139 3.12006 11.6239C3.04221 11.7338 3.0004 11.8653 3.0004 12C3.0004 12.1348 3.04221 12.2662 3.12006 12.3762C3.19792 12.4861 3.30797 12.5692 3.43506 12.614C3.9165 12.7854 4.35662 13.0559 4.72699 13.408C5.09735 13.7601 5.38971 14.186 5.58518 14.6582C5.78065 15.1304 5.87487 15.6383 5.86176 16.1492C5.84865 16.6601 5.72849 17.1625 5.50906 17.624C5.45148 17.7456 5.43292 17.882 5.45592 18.0146C5.47893 18.1471 5.54237 18.2693 5.63755 18.3644C5.73273 18.4594 5.85499 18.5227 5.98757 18.5456C6.12014 18.5684 6.25654 18.5497 6.37806 18.492C6.86775 18.2596 7.40301 18.139 7.94506 18.139Z" fill="#374957"/>
</g>
<defs>
<clipPath id="clip0_405_1685">
<rect width="24" height="24" fill="white"/>
</clipPath>
</defs>
</svg>
