<svg width="24" height="24" viewBox="0 0 24 24" fill="none" xmlns="http://www.w3.org/2000/svg">
<g clip-path="url(#clip0_405_1390)">
<path d="M23.1451 11.6997C22.6319 11.0132 21.9217 10.4994 21.1091 10.2267C21.4989 9.09973 21.7867 7.94008 21.9691 6.76168C22.0393 6.25533 21.9911 5.7396 21.8283 5.25502C21.6655 4.77045 21.3925 4.33023 21.0308 3.96895C20.6692 3.60768 20.2287 3.33519 19.7439 3.17291C19.2592 3.01063 18.7434 2.96297 18.2371 3.03368C18.0641 3.05768 17.3961 3.15668 16.5301 3.35768L16.5001 2.74368C16.4001 0.0996797 13.2131 -0.95632 11.0001 1.09168C8.15411 -1.49232 4.36611 0.93568 5.81511 4.26668C4.53183 4.68193 3.44588 5.55426 2.76371 6.71783C2.08154 7.88139 1.85071 9.25506 2.11511 10.5777C1.29036 11.0571 0.650629 11.7997 0.298625 12.6863C-0.0533782 13.5729 -0.0972307 14.5521 0.174109 15.4667C0.829576 17.7463 2.04955 19.8237 3.72111 21.5067C5.36675 23.1135 7.57814 24.0089 9.87811 23.9997H14.1221C16.4221 24.0089 18.6335 23.1135 20.2791 21.5067C21.9507 19.8236 23.171 17.7462 23.8271 15.4667C24.0161 14.8292 24.0528 14.1563 23.9344 13.502C23.8159 12.8478 23.5456 12.2304 23.1451 11.6997ZM18.6471 5.99968C18.6944 5.99189 18.7429 5.99554 18.7884 6.01033C18.834 6.02512 18.8754 6.05062 18.9091 6.08468C18.9442 6.11942 18.9704 6.16208 18.9855 6.20907C19.0007 6.25606 19.0043 6.306 18.9961 6.35468C18.8097 7.52935 18.5042 8.68197 18.0841 9.79468C18.0614 9.85999 18.0434 9.92683 18.0301 9.99468H13.0561C12.9694 9.58678 12.9861 9.16368 13.1047 8.76388C13.2233 8.36409 13.44 8.00032 13.7351 7.70568C14.4051 7.04168 16.5631 6.29068 18.6471 5.99968ZM7.50011 6.99968C7.8703 6.99989 8.23579 7.08261 8.56999 7.24183C8.9042 7.40104 9.19871 7.63273 9.43212 7.92007C9.66553 8.2074 9.83197 8.54314 9.91932 8.90288C10.0067 9.26262 10.0128 9.6373 9.93711 9.99968H5.06311C4.98747 9.6373 4.99354 9.26262 5.08089 8.90288C5.16825 8.54314 5.33468 8.2074 5.56809 7.92007C5.8015 7.63273 6.09602 7.40104 6.43023 7.24183C6.76443 7.08261 7.12992 6.99989 7.50011 6.99968ZM20.9471 14.6257C20.4276 16.4175 19.4705 18.0519 18.1621 19.3817C17.0798 20.43 15.6289 21.0111 14.1221 20.9997H9.87811C8.37115 21.0112 6.92009 20.4297 5.83811 19.3807C4.52971 18.0518 3.57291 16.418 3.05411 14.6267C2.99642 14.436 2.98446 14.2344 3.01921 14.0383C3.05396 13.8421 3.13443 13.6569 3.25411 13.4977C3.36899 13.3408 3.51965 13.2136 3.69357 13.1266C3.8675 13.0396 4.05967 12.9954 4.25411 12.9977H19.7541C19.9486 12.9954 20.1407 13.0396 20.3146 13.1266C20.4886 13.2136 20.6392 13.3408 20.7541 13.4977C20.8723 13.6575 20.9513 13.8428 20.9849 14.0387C21.0184 14.2346 21.0055 14.4357 20.9471 14.6257Z" fill="#374957"/>
</g>
<defs>
<clipPath id="clip0_405_1390">
<rect width="24" height="24" fill="white"/>
</clipPath>
</defs>
</svg>
