<svg width="24" height="24" viewBox="0 0 24 24" fill="none" xmlns="http://www.w3.org/2000/svg">
<g clip-path="url(#clip0_405_1352)">
<path d="M12 0C9.06472 0.0086291 6.2338 1.08979 4.04001 3.04L2.70701 1.707C2.56716 1.56719 2.389 1.47198 2.19505 1.43342C2.00109 1.39485 1.80006 1.41465 1.61736 1.49032C1.43466 1.56599 1.2785 1.69413 1.16861 1.85854C1.05873 2.02295 1.00006 2.21625 1.00001 2.414V7C1.00001 7.26522 1.10537 7.51957 1.29291 7.70711C1.48044 7.89464 1.7348 8 2.00001 8H6.58601C6.78376 7.99996 6.97706 7.94129 7.14147 7.8314C7.30588 7.72152 7.43402 7.56535 7.50969 7.38265C7.58536 7.19995 7.60517 6.99892 7.5666 6.80497C7.52803 6.61102 7.43282 6.43285 7.29301 6.293L6.15801 5.158C7.48251 4.02654 9.1069 3.30377 10.8341 3.07739C12.5613 2.851 14.3171 3.13073 15.8885 3.88263C17.4598 4.63453 18.7792 5.82629 19.6865 7.31332C20.5938 8.80035 21.0501 10.5187 21 12.26C20.9357 14.5099 20.0307 16.654 18.4635 18.2695C16.8962 19.885 14.7806 20.8546 12.5337 20.9872C10.2868 21.1197 8.07185 20.4056 6.32556 18.9855C4.57927 17.5655 3.42843 15.5427 3.10001 13.316C3.05312 12.9539 2.87664 12.6211 2.60326 12.3792C2.32987 12.1372 1.97808 12.0025 1.61301 12C1.40118 11.9973 1.1912 12.0398 0.997099 12.1247C0.803001 12.2096 0.629253 12.3349 0.487463 12.4923C0.345672 12.6497 0.239104 12.8356 0.174876 13.0375C0.110648 13.2393 0.0902394 13.4526 0.115014 13.663C0.531225 16.609 2.0254 19.2958 4.30841 21.2037C6.59142 23.1115 9.50096 24.1047 12.474 23.991C15.4817 23.8461 18.3277 22.5862 20.4569 20.4569C22.5862 18.3277 23.8461 15.4817 23.991 12.474C24.053 10.8599 23.7888 9.24991 23.2143 7.74026C22.6398 6.23062 21.7668 4.85233 20.6474 3.68784C19.5279 2.52335 18.1852 1.59657 16.6994 0.96292C15.2136 0.32927 13.6153 0.00176829 12 0V0Z" fill="#374957"/>
<path d="M11.5001 6.99939C11.1022 6.99939 10.7207 7.15742 10.4394 7.43873C10.1581 7.72003 10.0001 8.10156 10.0001 8.49939V12.7924C10.0002 13.3228 10.211 13.8314 10.5861 14.2064L12.3791 15.9994C12.662 16.2726 13.0409 16.4238 13.4342 16.4204C13.8275 16.417 14.2037 16.2592 14.4818 15.9811C14.7599 15.703 14.9176 15.3268 14.9211 14.9335C14.9245 14.5402 14.7733 14.1613 14.5001 13.8784L13.0001 12.3784V8.49939C13.0001 8.10156 12.842 7.72003 12.5607 7.43873C12.2794 7.15742 11.8979 6.99939 11.5001 6.99939Z" fill="#374957"/>
</g>
<defs>
<clipPath id="clip0_405_1352">
<rect width="24" height="24" fill="white"/>
</clipPath>
</defs>
</svg>
