<svg width="24" height="24" viewBox="0 0 24 24" fill="none" xmlns="http://www.w3.org/2000/svg">
<g clip-path="url(#clip0_405_1524)">
<path d="M16.9999 17.4995C16.9999 17.8974 16.8418 18.2789 16.5605 18.5602C16.2792 18.8415 15.8977 18.9995 15.4999 18.9995H8.49988C8.10205 18.9995 7.72052 18.8415 7.43922 18.5602C7.15791 18.2789 6.99988 17.8974 6.99988 17.4995C6.99988 17.1017 7.15791 16.7202 7.43922 16.4389C7.72052 16.1576 8.10205 15.9995 8.49988 15.9995H15.4999C15.8977 15.9995 16.2792 16.1576 16.5605 16.4389C16.8418 16.7202 16.9999 17.1017 16.9999 17.4995ZM21.9999 7.15653V18.4995C21.9983 19.9577 21.4183 21.3558 20.3872 22.3869C19.3561 23.418 17.9581 23.9979 16.4999 23.9995H7.49988C6.04167 23.9979 4.64365 23.418 3.61254 22.3869C2.58144 21.3558 2.00147 19.9577 1.99988 18.4995V5.49953C2.00147 4.04133 2.58144 2.6433 3.61254 1.6122C4.64365 0.581092 6.04167 0.00111979 7.49988 -0.00046838H14.8429C15.5654 -0.00241845 16.2812 0.138962 16.9487 0.415491C17.6163 0.692019 18.2224 1.0982 18.7319 1.61053L20.3889 3.26753C20.9012 3.77705 21.3074 4.38312 21.5839 5.05067C21.8604 5.71821 22.0018 6.43398 21.9999 7.15653ZM18.9849 6.99953H16.9999C16.4694 6.99953 15.9607 6.78882 15.5857 6.41375C15.2106 6.03867 14.9999 5.52996 14.9999 4.99953V3.01553C14.9469 3.01153 7.49988 2.99953 7.49988 2.99953C6.83684 2.99953 6.20095 3.26292 5.73211 3.73176C5.26327 4.20061 4.99988 4.83649 4.99988 5.49953V18.4995C4.99988 19.1626 5.26327 19.7985 5.73211 20.2673C6.20095 20.7361 6.83684 20.9995 7.49988 20.9995H16.4999C17.1629 20.9995 17.7988 20.7361 18.2676 20.2673C18.7365 19.7985 18.9999 19.1626 18.9999 18.4995C18.9999 18.4995 18.9879 7.05253 18.9849 6.99953ZM14.4999 8.99953H9.49988C8.83684 8.99953 8.20095 9.26292 7.73211 9.73176C7.26327 10.2006 6.99988 10.8365 6.99988 11.4995C6.99988 12.1626 7.26327 12.7985 7.73211 13.2673C8.20095 13.7361 8.83684 13.9995 9.49988 13.9995H14.4999C15.1629 13.9995 15.7988 13.7361 16.2676 13.2673C16.7365 12.7985 16.9999 12.1626 16.9999 11.4995C16.9999 10.8365 16.7365 10.2006 16.2676 9.73176C15.7988 9.26292 15.1629 8.99953 14.4999 8.99953Z" fill="#374957"/>
</g>
<defs>
<clipPath id="clip0_405_1524">
<rect width="24" height="24" fill="white"/>
</clipPath>
</defs>
</svg>
