<svg width="24" height="24" viewBox="0 0 24 24" fill="none" xmlns="http://www.w3.org/2000/svg">
<g clip-path="url(#clip0_405_1704)">
<path d="M23.9758 15.5001C23.9056 16.4131 23.6716 17.306 23.2848 18.1361C23.1162 18.4964 22.8113 18.7749 22.4372 18.9104C22.0632 19.0459 21.6506 19.0273 21.2903 18.8586C20.93 18.6899 20.6515 18.385 20.516 18.011C20.3805 17.6369 20.3992 17.2244 20.5678 16.8641C20.8019 16.3602 20.9432 15.8182 20.9848 15.2641C21.0854 13.9473 20.6775 12.6421 19.8451 11.6168C19.0128 10.5916 17.8192 9.92424 16.5098 9.75209C16.1835 9.70873 15.8806 9.55923 15.6476 9.32665C15.4147 9.09407 15.2647 8.79133 15.2208 8.46509C15.1314 7.79076 14.9084 7.14101 14.565 6.5538C14.2216 5.9666 13.7647 5.45371 13.2208 5.04509C12.668 4.6286 12.0375 4.32667 11.3665 4.15701C10.6954 3.98736 9.9972 3.95339 9.31283 4.05709C8.2705 4.21393 7.30332 4.69286 6.54677 5.42682C5.79022 6.16078 5.28219 7.11299 5.09383 8.15009C4.87356 9.27017 5.03407 10.4317 5.54983 11.4501C5.8592 12.0296 5.92641 12.7081 5.73675 13.337C5.54709 13.966 5.116 14.4942 4.53783 14.8061C3.97272 15.0879 3.52121 15.5548 3.25847 16.1291C2.99573 16.7033 2.93763 17.3502 3.09383 17.9621C3.28638 18.5681 3.67119 19.0949 4.18996 19.4627C4.70873 19.8304 5.33322 20.0191 5.96883 20.0001H8.49983C8.89766 20.0001 9.27919 20.1581 9.56049 20.4394C9.8418 20.7207 9.99983 21.1023 9.99983 21.5001C9.99983 21.8979 9.8418 22.2794 9.56049 22.5608C9.27919 22.8421 8.89766 23.0001 8.49983 23.0001H5.96883C4.66801 23.0255 3.39545 22.6191 2.35006 21.8446C1.30466 21.07 0.545359 19.9709 0.190831 18.7191C-0.111312 17.5395 -0.0321456 16.2946 0.416976 15.1628C0.866098 14.031 1.6621 13.0705 2.69083 12.4191C1.95796 10.7721 1.79393 8.92803 2.22458 7.17752C2.65524 5.42701 3.6561 3.86955 5.06947 2.75055C6.48283 1.63154 8.22834 1.01462 10.031 0.996971C11.8336 0.979327 13.5908 1.56197 15.0258 2.65309C16.4565 3.73859 17.492 5.26306 17.9738 6.99309C19.8085 7.49008 21.412 8.61193 22.5078 10.165C23.6036 11.7181 24.1228 13.605 23.9758 15.5001ZM18.5628 19.0001H16.9998V14.5001C16.9998 14.1023 16.8418 13.7207 16.5605 13.4394C16.2792 13.1581 15.8977 13.0001 15.4998 13.0001C15.102 13.0001 14.7205 13.1581 14.4392 13.4394C14.1579 13.7207 13.9998 14.1023 13.9998 14.5001V19.0001H12.4368C12.2452 18.9999 12.0579 19.0565 11.8985 19.1629C11.7391 19.2693 11.6149 19.4205 11.5415 19.5975C11.4682 19.7745 11.449 19.9693 11.4864 20.1572C11.5239 20.3451 11.6162 20.5177 11.7518 20.6531L14.8148 23.7161C14.9047 23.8063 15.0114 23.8778 15.129 23.9266C15.2465 23.9754 15.3726 24.0006 15.4998 24.0006C15.6271 24.0006 15.7531 23.9754 15.8707 23.9266C15.9882 23.8778 16.095 23.8063 16.1848 23.7161L19.2478 20.6531C19.3834 20.5177 19.4758 20.3451 19.5132 20.1572C19.5507 19.9693 19.5315 19.7745 19.4581 19.5975C19.3848 19.4205 19.2605 19.2693 19.1012 19.1629C18.9418 19.0565 18.7544 18.9999 18.5628 19.0001Z" fill="#374957"/>
</g>
<defs>
<clipPath id="clip0_405_1704">
<rect width="24" height="24" fill="white"/>
</clipPath>
</defs>
</svg>
