<svg width="24" height="24" viewBox="0 0 24 24" fill="none" xmlns="http://www.w3.org/2000/svg">
<g clip-path="url(#clip0_405_1461)">
<path d="M14.4999 13.0004C14.2033 13.0004 13.9133 12.9124 13.6666 12.7476C13.4199 12.5828 13.2277 12.3485 13.1141 12.0744C13.0006 11.8003 12.9709 11.4987 13.0288 11.2078C13.0866 10.9168 13.2295 10.6495 13.4393 10.4397C13.6491 10.23 13.9163 10.0871 14.2073 10.0292C14.4983 9.97134 14.7999 10.001 15.074 10.1146C15.3481 10.2281 15.5823 10.4204 15.7472 10.667C15.912 10.9137 15.9999 11.2037 15.9999 11.5004C15.9999 11.8982 15.8419 12.2797 15.5606 12.5611C15.2793 12.8424 14.8978 13.0004 14.4999 13.0004ZM21.8869 8.06739C21.4253 5.78721 20.188 3.73737 18.3854 2.26662C16.5828 0.795872 14.3264 -0.00495101 11.9999 0.000392782C5.05295 0.000392782 2.99995 4.58239 1.78095 7.31939C1.53474 7.99609 1.18527 8.6306 0.744945 9.20039C0.464944 9.35983 0.243726 9.6052 0.114041 9.90016C-0.0156437 10.1951 -0.0469014 10.524 0.0248958 10.8381C0.0966929 11.1522 0.267728 11.4349 0.512681 11.6442C0.757633 11.8535 1.06348 11.9784 1.38495 12.0004C3.66926 12.0919 5.94964 11.7397 8.09995 10.9634C7.99326 11.2397 7.97077 11.5414 8.03532 11.8305C8.09986 12.1196 8.24854 12.3831 8.46261 12.5878C8.67669 12.7925 8.94658 12.9292 9.23826 12.9808C9.52993 13.0323 9.83034 12.9963 10.1016 12.8774C10.3729 12.7585 10.6029 12.5619 10.7626 12.3124C10.9223 12.063 11.0045 11.7718 10.999 11.4757C10.9935 11.1795 10.9004 10.8917 10.7315 10.6483C10.5626 10.405 10.3255 10.2171 10.0499 10.1084C11.3431 9.44444 12.5262 8.58538 13.5579 7.56139C13.8393 7.28 13.9974 6.89835 13.9974 6.50039C13.9974 6.10244 13.8393 5.72079 13.5579 5.43939C13.2766 5.158 12.8949 4.99991 12.4969 4.99991C12.099 4.99991 11.7173 5.158 11.4359 5.43939C9.5016 7.27726 7.03854 8.46068 4.39495 8.82239L4.51995 8.54439C5.68095 5.94539 6.99995 3.00039 11.9999 3.00039C13.7511 2.99616 15.4414 3.64194 16.7437 4.81265C18.0459 5.98337 18.8674 7.59571 19.0489 9.33739C19.0831 9.65987 19.2208 9.96259 19.4415 10.2002C19.6621 10.4378 19.9539 10.5975 20.2729 10.6554C20.4764 10.6921 20.6605 10.7989 20.7933 10.9573C20.9261 11.1157 20.9993 11.3157 20.9999 11.5224C21.0002 11.6526 20.9745 11.7816 20.9244 11.9018C20.8743 12.022 20.8007 12.131 20.7079 12.2224C20.5217 12.4068 20.27 12.51 20.0079 12.5094H19.9969H19.8349C19.5044 12.4843 19.1747 12.5686 18.8968 12.7493C18.6189 12.93 18.4081 13.1971 18.2969 13.5094C17.7856 14.781 16.9209 15.8797 15.8051 16.6756C14.6892 17.4714 13.3688 17.9311 11.9999 18.0004C10.7232 17.8914 9.49447 17.4627 8.42714 16.7536C7.35981 16.0446 6.48827 15.0781 5.89295 13.9434C5.8198 13.7605 5.71134 13.5937 5.57375 13.4527C5.43617 13.3117 5.27216 13.1992 5.09109 13.1215C4.72539 12.9648 4.31239 12.9597 3.94295 13.1074C3.5735 13.2551 3.27787 13.5436 3.12109 13.9093C2.96431 14.2749 2.95922 14.6879 3.10695 15.0574C3.92606 16.8758 5.28534 18.3978 6.99995 19.4164V22.5004C6.99995 22.8982 7.15798 23.2798 7.43929 23.5611C7.72059 23.8424 8.10212 24.0004 8.49995 24.0004C8.89777 24.0004 9.2793 23.8424 9.56061 23.5611C9.84191 23.2798 9.99995 22.8982 9.99995 22.5004V20.7324C10.6526 20.9058 11.3246 20.9958 11.9999 21.0004C12.6752 20.9897 13.3467 20.8977 13.9999 20.7264V22.5004C13.9999 22.8982 14.158 23.2798 14.4393 23.5611C14.7206 23.8424 15.1021 24.0004 15.4999 24.0004C15.8978 24.0004 16.2793 23.8424 16.5606 23.5611C16.8419 23.2798 16.9999 22.8982 16.9999 22.5004V19.4554C18.5783 18.4783 19.8633 17.0928 20.7189 15.4454C21.6387 15.2793 22.471 14.7956 23.0706 14.0787C23.6702 13.3617 23.9991 12.457 23.9999 11.5224C23.9999 10.8078 23.8025 10.1071 23.4297 9.49751C23.0569 8.8879 22.523 8.39302 21.8869 8.06739Z" fill="#374957"/>
</g>
<defs>
<clipPath id="clip0_405_1461">
<rect width="24" height="24" fill="white"/>
</clipPath>
</defs>
</svg>
