<svg width="24" height="24" viewBox="0 0 24 24" fill="none" xmlns="http://www.w3.org/2000/svg">
<g clip-path="url(#clip0_405_1518)">
<path d="M1.05596 22.6114L3.06696 23.2364C3.09096 23.2464 3.11196 23.2604 3.13696 23.2684C3.16196 23.2764 3.18696 23.2744 3.21196 23.2814L5.31196 23.9334C5.69201 24.0511 6.10328 24.0131 6.45529 23.8276C6.80729 23.6421 7.0712 23.3244 7.18896 22.9444C7.30671 22.5643 7.26867 22.1531 7.0832 21.8011C6.89772 21.449 6.58001 21.1851 6.19996 21.0674L5.55596 20.8674L6.19996 19.0004C7.315 19.0028 8.40074 18.6434 9.29418 17.9763C10.1876 17.3091 10.8405 16.3702 11.155 15.3004L12 12.8114L12.818 15.2214C13.125 16.307 13.7773 17.2632 14.6763 17.945C15.5752 18.6268 16.6717 18.9973 17.8 19.0004L18.447 20.8694L17.803 21.0694C17.4229 21.1871 17.1052 21.451 16.9197 21.8031C16.7342 22.1551 16.6962 22.5663 16.814 22.9464C16.9317 23.3264 17.1956 23.6441 17.5476 23.8296C17.8996 24.0151 18.3109 24.0531 18.691 23.9354L20.791 23.2834C20.816 23.2764 20.841 23.2834 20.866 23.2704C20.891 23.2574 20.912 23.2484 20.936 23.2384L22.947 22.6134C23.1385 22.558 23.317 22.4649 23.4722 22.3397C23.6273 22.2145 23.756 22.0596 23.8505 21.8841C23.9451 21.7086 24.0038 21.516 24.0231 21.3176C24.0424 21.1191 24.0219 20.9188 23.9629 20.7284C23.9038 20.5379 23.8074 20.3612 23.6793 20.2084C23.5512 20.0557 23.3939 19.93 23.2166 19.8388C23.0393 19.7475 22.8457 19.6925 22.6469 19.677C22.4481 19.6615 22.2482 19.6858 22.059 19.7484L21.313 19.9794L20.67 18.1234C21.6008 17.5254 22.3112 16.6402 22.6934 15.6019C23.0756 14.5637 23.1088 13.4292 22.788 12.3704L21.096 7.37038C20.8449 6.53306 20.2747 5.82802 19.5084 5.40744C18.7421 4.98687 17.8411 4.88448 17 5.12238L13.45 6.10638C12.9008 6.26124 12.4013 6.55583 12 6.96138C11.5989 6.5563 11.1002 6.26147 10.552 6.10538L6.99996 5.12338C6.16726 4.88289 5.27346 4.97861 4.51057 5.38997C3.74768 5.80133 3.17658 6.49551 2.91996 7.32338L1.19096 12.4444C0.891002 13.4952 0.937343 14.6147 1.32312 15.6371C1.7089 16.6595 2.41361 17.5306 3.33296 18.1214L2.68996 19.9774L1.94396 19.7464C1.75467 19.6838 1.5548 19.6595 1.35603 19.675C1.15726 19.6905 0.963582 19.7455 0.786313 19.8368C0.609044 19.928 0.451744 20.0537 0.32361 20.2064C0.195475 20.3592 0.0990772 20.5359 0.0400517 20.7264C-0.0189737 20.9168 -0.0394424 21.1171 -0.0201575 21.3156C-0.000872636 21.514 0.0577788 21.7066 0.152368 21.8821C0.246957 22.0576 0.375585 22.2125 0.530733 22.3377C0.685881 22.4629 0.864435 22.556 1.05596 22.6114ZM14.041 9.16038C14.0631 9.12112 14.093 9.08672 14.1287 9.05923C14.1644 9.03175 14.2053 9.01173 14.249 9.00038L17.799 8.01638C17.8285 8.00705 17.8591 8.00167 17.89 8.00038C17.9706 8.0032 18.0482 8.03241 18.1107 8.08353C18.1732 8.13465 18.2172 8.20485 18.236 8.28338L19.157 11.0004H14.557L14.019 9.41338C14.0051 9.37195 13.9999 9.32812 14.0037 9.2846C14.0075 9.24108 14.0202 9.1988 14.041 9.16038ZM6.10696 8.00038C6.13871 8.0007 6.1703 8.00507 6.20096 8.01338L9.75096 9.00038C9.79484 9.01208 9.8359 9.03256 9.87165 9.06057C9.9074 9.08859 9.9371 9.12356 9.95896 9.16338C9.99588 9.22456 10.0104 9.29668 9.99996 9.36738L9.44696 11.0004H4.84696L5.77996 8.24038C5.80186 8.1708 5.84537 8.11002 5.90418 8.06686C5.96298 8.0237 6.03401 8.00042 6.10696 8.00038Z" fill="#374957"/>
<path d="M16.5001 4.00048C16.6971 4.00057 16.8922 3.96185 17.0743 3.88652C17.2563 3.8112 17.4218 3.70075 17.5611 3.56148L18.5611 2.56148C18.8425 2.28009 19.0006 1.89843 19.0006 1.50048C19.0006 1.10253 18.8425 0.720875 18.5611 0.439481C18.2797 0.158086 17.8981 0 17.5001 0C17.1022 0 16.7205 0.158086 16.4391 0.439481L15.4391 1.43948C15.2292 1.64926 15.0862 1.9166 15.0283 2.20766C14.9704 2.49872 15.0001 2.80042 15.1137 3.0746C15.2273 3.34877 15.4196 3.58309 15.6664 3.7479C15.9132 3.91271 16.2034 4.00062 16.5001 4.00048Z" fill="#374957"/>
<path d="M6.43893 3.56148C6.72032 3.84288 7.10198 4.00096 7.49993 4.00096C7.89788 4.00096 8.27953 3.84288 8.56092 3.56148C8.84232 3.28009 9.0004 2.89843 9.0004 2.50048C9.0004 2.10253 8.84232 1.72088 8.56092 1.43948L7.56093 0.439481C7.27953 0.158086 6.89788 -2.96497e-09 6.49993 0C6.10198 2.96498e-09 5.72032 0.158086 5.43893 0.439481C5.15754 0.720875 4.99945 1.10253 4.99945 1.50048C4.99945 1.89843 5.15754 2.28009 5.43893 2.56148L6.43893 3.56148Z" fill="#374957"/>
<path d="M12 4C12.3978 4 12.7794 3.84196 13.0607 3.56066C13.342 3.27936 13.5 2.89782 13.5 2.5V1.5C13.5 1.10218 13.342 0.720644 13.0607 0.43934C12.7794 0.158035 12.3978 0 12 0C11.6022 0 11.2206 0.158035 10.9393 0.43934C10.658 0.720644 10.5 1.10218 10.5 1.5V2.5C10.5 2.89782 10.658 3.27936 10.9393 3.56066C11.2206 3.84196 11.6022 4 12 4Z" fill="#374957"/>
</g>
<defs>
<clipPath id="clip0_405_1518">
<rect width="24" height="24" fill="white"/>
</clipPath>
</defs>
</svg>
