<svg width="24" height="24" viewBox="0 0 24 24" fill="none" xmlns="http://www.w3.org/2000/svg">
<g clip-path="url(#clip0_405_1378)">
<path d="M19.9999 8V10H22.4999C22.8978 10 23.2793 10.158 23.5606 10.4393C23.8419 10.7206 23.9999 11.1022 23.9999 11.5C23.9999 11.8978 23.8419 12.2794 23.5606 12.5607C23.2793 12.842 22.8978 13 22.4999 13H19.9999V15H22.4999C22.8978 15 23.2793 15.158 23.5606 15.4393C23.8419 15.7206 23.9999 16.1022 23.9999 16.5C23.9999 16.8978 23.8419 17.2794 23.5606 17.5607C23.2793 17.842 22.8978 18 22.4999 18H19.9999V22.5C19.9999 22.8978 19.8419 23.2794 19.5606 23.5607C19.2793 23.842 18.8978 24 18.4999 24C18.1021 24 17.7206 23.842 17.4393 23.5607C17.158 23.2794 16.9999 22.8978 16.9999 22.5V4.5C17.0013 3.30693 17.4758 2.16311 18.3194 1.31948C19.1631 0.475854 20.3069 0.00132343 21.4999 0L22.4999 0C22.8978 0 23.2793 0.158035 23.5606 0.43934C23.8419 0.720644 23.9999 1.10218 23.9999 1.5C23.9999 1.89783 23.8419 2.27936 23.5606 2.56066C23.2793 2.84196 22.8978 3 22.4999 3H21.4999C21.1021 3 20.7206 3.15804 20.4393 3.43934C20.158 3.72064 19.9999 4.10218 19.9999 4.5V5H22.4999C22.8978 5 23.2793 5.15804 23.5606 5.43934C23.8419 5.72064 23.9999 6.10218 23.9999 6.5C23.9999 6.89783 23.8419 7.27936 23.5606 7.56066C23.2793 7.84197 22.8978 8 22.4999 8H19.9999ZM15.9999 19.25C16.0036 20.1782 15.7344 21.0869 15.2258 21.8634C14.7172 22.6398 13.9917 23.2497 13.1394 23.6173C12.2871 23.9848 11.3456 24.0938 10.4319 23.9307C9.51816 23.7677 8.67249 23.3397 7.99996 22.7C7.52005 23.1535 6.95069 23.5016 6.32836 23.7222C5.70604 23.9428 5.04449 24.0309 4.38613 23.9809C3.72777 23.9308 3.08714 23.7438 2.50529 23.4317C1.92344 23.1196 1.41322 22.6894 1.00735 22.1686C0.601481 21.6478 0.30891 21.048 0.148398 20.4076C-0.0121151 19.7671 -0.0370275 19.1002 0.0752578 18.4495C0.187543 17.7989 0.434548 17.1789 0.800437 16.6293C1.16632 16.0797 1.64302 15.6126 2.19997 15.258C3.35397 13.858 4.91196 11.758 6.21296 9.784C4.48996 6.946 2.99997 3.829 2.99997 1.5C2.99997 1.10218 3.158 0.720644 3.4393 0.43934C3.72061 0.158035 4.10214 0 4.49996 0C4.89779 0 5.27932 0.158035 5.56062 0.43934C5.84193 0.720644 5.99996 1.10218 5.99996 1.5C5.99996 2.808 6.82696 4.768 7.99996 6.865C9.17296 4.765 9.99996 2.807 9.99996 1.5C9.99996 1.10218 10.158 0.720644 10.4393 0.43934C10.7206 0.158035 11.1021 0 11.5 0C11.8978 0 12.2793 0.158035 12.5606 0.43934C12.8419 0.720644 13 1.10218 13 1.5C13 3.829 11.509 6.947 9.78296 9.781C11.083 11.756 12.641 13.858 13.796 15.254C14.47 15.6807 15.0253 16.2707 15.4106 16.9692C15.7959 17.6678 15.9986 18.4523 15.9999 19.25ZM6.49996 19.25C6.49996 18.9039 6.39733 18.5655 6.20503 18.2778C6.01274 17.99 5.73943 17.7657 5.41966 17.6332C5.09989 17.5008 4.74802 17.4661 4.40856 17.5336C4.06909 17.6012 3.75727 17.7678 3.51253 18.0126C3.26779 18.2573 3.10112 18.5691 3.03359 18.9086C2.96607 19.2481 3.00072 19.5999 3.13318 19.9197C3.26563 20.2395 3.48993 20.5128 3.77772 20.7051C4.0655 20.8974 4.40385 21 4.74996 21C5.21393 20.9995 5.65874 20.8149 5.98681 20.4869C6.31489 20.1588 6.49943 19.714 6.49996 19.25ZM7.99996 15.8C8.47552 15.3575 9.03673 15.0171 9.64896 14.8C9.14896 14.142 8.58596 13.362 7.99996 12.516C7.41396 13.362 6.84796 14.142 6.35096 14.8C6.96319 15.0171 7.5244 15.3575 7.99996 15.8ZM13 19.246C12.9992 18.9001 12.8959 18.5621 12.7031 18.2748C12.5103 17.9876 12.2367 17.7639 11.9169 17.6321C11.597 17.5002 11.2453 17.4661 10.9061 17.5341C10.5669 17.6021 10.2555 17.7691 10.0111 18.014C9.76677 18.2589 9.6005 18.5707 9.5333 18.9101C9.46609 19.2494 9.50098 19.6011 9.63355 19.9206C9.76612 20.2402 9.99043 20.5132 10.2781 20.7053C10.5658 20.8975 10.904 21 11.25 21C11.7139 20.9995 12.1587 20.8149 12.4868 20.4869C12.8149 20.1588 12.9994 19.714 13 19.25V19.246Z" fill="#374957"/>
</g>
<defs>
<clipPath id="clip0_405_1378">
<rect width="24" height="24" fill="white"/>
</clipPath>
</defs>
</svg>
