<svg width="24" height="24" viewBox="0 0 24 24" fill="none" xmlns="http://www.w3.org/2000/svg">
<g clip-path="url(#clip0_405_1755)">
<path d="M18.5 0H5.5C4.04188 0.00185226 2.64401 0.58191 1.61296 1.61296C0.58191 2.64401 0.00185226 4.04188 0 5.5L0 10.5C0.00211765 12.4885 0.792974 14.3949 2.19904 15.801C3.6051 17.207 5.51153 17.9979 7.5 18H8V20C8 21.0609 8.42143 22.0783 9.17157 22.8284C9.92172 23.5786 10.9391 24 12 24C13.0609 24 14.0783 23.5786 14.8284 22.8284C15.5786 22.0783 16 21.0609 16 20V18H16.5C18.4885 17.9979 20.3949 17.207 21.801 15.801C23.207 14.3949 23.9979 12.4885 24 10.5V5.5C23.9981 4.04188 23.4181 2.64401 22.387 1.61296C21.356 0.58191 19.9581 0.00185226 18.5 0V0ZM5.5 3H6V3.5C6 3.89782 6.15804 4.27936 6.43934 4.56066C6.72064 4.84196 7.10218 5 7.5 5C7.89782 5 8.27936 4.84196 8.56066 4.56066C8.84196 4.27936 9 3.89782 9 3.5V3H11V5.5C11 5.89782 11.158 6.27936 11.4393 6.56066C11.7206 6.84196 12.1022 7 12.5 7C12.8978 7 13.2794 6.84196 13.5607 6.56066C13.842 6.27936 14 5.89782 14 5.5V3H16V7.5C16 7.89782 16.158 8.27936 16.4393 8.56066C16.7206 8.84196 17.1022 9 17.5 9C17.8978 9 18.2794 8.84196 18.5607 8.56066C18.842 8.27936 19 7.89782 19 7.5V3.051C19.5645 3.16623 20.0719 3.47291 20.4363 3.91916C20.8008 4.36541 20.9999 4.92385 21 5.5V10H3V5.5C3 4.83696 3.26339 4.20107 3.73223 3.73223C4.20107 3.26339 4.83696 3 5.5 3ZM16.5 15H14.5C14.1022 15 13.7206 15.158 13.4393 15.4393C13.158 15.7206 13 16.1022 13 16.5V20C13 20.2652 12.8946 20.5196 12.7071 20.7071C12.5196 20.8946 12.2652 21 12 21C11.7348 21 11.4804 20.8946 11.2929 20.7071C11.1054 20.5196 11 20.2652 11 20V16.5C11 16.1022 10.842 15.7206 10.5607 15.4393C10.2794 15.158 9.89782 15 9.5 15H7.5C6.76058 14.9994 6.03269 14.8166 5.38072 14.4678C4.72876 14.1189 4.17279 13.6148 3.762 13H20.238C19.8272 13.6148 19.2712 14.1189 18.6193 14.4678C17.9673 14.8166 17.2394 14.9994 16.5 15Z" fill="#374957"/>
</g>
<defs>
<clipPath id="clip0_405_1755">
<rect width="24" height="24" fill="white"/>
</clipPath>
</defs>
</svg>
