<svg width="24" height="24" viewBox="0 0 24 24" fill="none" xmlns="http://www.w3.org/2000/svg">
<g clip-path="url(#clip0_405_1340)">
<path d="M7.4525 14.0174C3.19089 14.4026 -0.0558482 18.0036 0.000728186 22.2821V22.4991C0.000728186 23.3275 0.672285 23.9991 1.50068 23.9991C2.32908 23.9991 3.00063 23.3275 3.00063 22.4991V22.2221C2.95554 19.5951 4.89423 17.3549 7.50049 17.0223C10.2516 16.7495 12.7031 18.7586 12.9759 21.5097C12.992 21.6724 13.0002 21.8357 13.0003 21.9991V22.4991C13.0003 23.3275 13.6719 23.9991 14.5003 23.9991C15.3287 23.9991 16.0002 23.3275 16.0002 22.4991V21.9991C15.9953 17.576 12.4057 13.9944 7.98264 13.9992C7.80573 13.9994 7.62893 14.0055 7.4525 14.0174Z" fill="#374957"/>
<path d="M8.00048 12.0002C11.3141 12.0002 14.0003 9.31395 14.0003 6.00036C14.0003 2.68678 11.3141 0.000549316 8.00048 0.000549316C4.6869 0.000549316 2.00067 2.68678 2.00067 6.00036C2.004 9.31259 4.68826 11.9968 8.00048 12.0002ZM8.00048 3.00046C9.65728 3.00046 11.0004 4.34357 11.0004 6.00036C11.0004 7.65715 9.65728 9.00027 8.00048 9.00027C6.34369 9.00027 5.00058 7.65715 5.00058 6.00036C5.00058 4.34357 6.34369 3.00046 8.00048 3.00046Z" fill="#374957"/>
<path d="M22.5002 10.0004H21.0002V8.50047C21.0002 7.67207 20.3286 7.00052 19.5002 7.00052C18.6719 7.00052 18.0003 7.67207 18.0003 8.50047V10.0004H16.5003C15.672 10.0004 15.0004 10.672 15.0004 11.5004C15.0004 12.3288 15.672 13.0003 16.5003 13.0003H18.0003V14.5003C18.0003 15.3287 18.6719 16.0002 19.5002 16.0002C20.3286 16.0002 21.0002 15.3287 21.0002 14.5003V13.0003H22.5002C23.3285 13.0003 24.0001 12.3288 24.0001 11.5004C24.0001 10.672 23.3285 10.0004 22.5002 10.0004Z" fill="#374957"/>
</g>
<defs>
<clipPath id="clip0_405_1340">
<rect width="24" height="24" fill="white"/>
</clipPath>
</defs>
</svg>
