<svg width="24" height="24" viewBox="0 0 24 24" fill="none" xmlns="http://www.w3.org/2000/svg">
<g clip-path="url(#clip0_405_1604)">
<path d="M23.8681 5.31214C23.9974 4.9354 24.0349 4.53319 23.9774 4.13902C23.9199 3.74486 23.769 3.37015 23.5373 3.04611C23.3056 2.72208 22.9998 2.45809 22.6455 2.27615C22.2911 2.09421 21.8984 1.99958 21.5001 2.00014H18.9491C19.0165 1.79351 19.0387 1.57477 19.0139 1.35882C18.9892 1.14286 18.9182 0.934779 18.8058 0.748749C18.6934 0.562719 18.5422 0.403116 18.3625 0.28082C18.1828 0.158524 17.9788 0.0764091 17.7645 0.0400739C17.5502 0.00373866 17.3306 0.0140369 17.1206 0.0702667C16.9107 0.126497 16.7153 0.227336 16.5478 0.365911C16.3804 0.504486 16.2447 0.677539 16.1502 0.873273C16.0557 1.06901 16.0045 1.28282 16.0001 1.50014C16.0001 1.63275 15.9474 1.75993 15.8536 1.85369C15.7599 1.94746 15.6327 2.00014 15.5001 2.00014H8.50007C8.36746 2.00014 8.24028 1.94746 8.14651 1.85369C8.05274 1.75993 8.00007 1.63275 8.00007 1.50014C7.99566 1.28282 7.94445 1.06901 7.84992 0.873273C7.7554 0.677539 7.61978 0.504486 7.45232 0.365911C7.28485 0.227336 7.08948 0.126497 6.87952 0.0702667C6.66955 0.0140369 6.44993 0.00373866 6.23563 0.0400739C6.02132 0.0764091 5.81737 0.158524 5.63767 0.28082C5.45798 0.403116 5.30676 0.562719 5.19434 0.748749C5.08191 0.934779 5.01091 1.14286 4.98619 1.35882C4.96147 1.57477 4.98359 1.79351 5.05107 2.00014H2.50007C2.10172 1.99958 1.70901 2.09421 1.35465 2.27615C1.00029 2.45809 0.694531 2.72208 0.462852 3.04611C0.231172 3.37015 0.0802781 3.74486 0.0227395 4.13902C-0.0347992 4.53319 0.00268367 4.9354 0.132065 5.31214C0.470294 6.44006 1.03515 7.48709 1.79207 8.38914L5.03107 21.8061C5.10382 22.4102 5.39506 22.9668 5.84987 23.3709C6.30468 23.7751 6.89163 23.9989 7.50007 24.0001H16.5001C17.1085 23.9989 17.6955 23.7751 18.1503 23.3709C18.6051 22.9668 18.8963 22.4102 18.9691 21.8061L22.2081 8.38914C22.965 7.48709 23.5298 6.44006 23.8681 5.31214ZM16.5591 19.0061L13.5001 19.0001V14.5001C13.5045 13.4568 13.875 12.4482 14.5471 11.6501C14.7906 11.8461 15.0893 11.961 15.4014 11.979C15.7134 11.9969 16.0233 11.9169 16.2877 11.7501C16.552 11.5833 16.7577 11.3381 16.8759 11.0488C16.9942 10.7594 17.019 10.4403 16.9471 10.1361C17.2914 10.0492 17.6449 10.0036 18.0001 10.0001C18.0001 10.0001 18.6561 9.99014 18.7361 9.98714L16.5591 19.0061ZM7.44107 19.0061L5.26407 9.98714C5.34407 9.99014 6.00007 10.0001 6.00007 10.0001C6.35388 10.0039 6.706 10.0495 7.04907 10.1361C6.97711 10.4403 7.00198 10.7594 7.1202 11.0488C7.23843 11.3381 7.44409 11.5833 7.70847 11.7501C7.97284 11.9169 8.28271 11.9969 8.59478 11.979C8.90685 11.961 9.20552 11.8461 9.44907 11.6501C10.1225 12.4476 10.4945 13.4563 10.5001 14.5001V19.0001L7.44107 19.0061ZM16.5341 5.00014C17.3939 5.58383 18.2037 6.23809 18.9551 6.95614C18.8081 6.98314 18.0001 7.00014 18.0001 7.00014C16.8353 7.00072 15.6867 7.27258 14.6452 7.79417C13.6038 8.31576 12.6981 9.07275 12.0001 10.0051C11.302 9.07275 10.3963 8.31576 9.35489 7.79417C8.31344 7.27258 7.16483 7.00072 6.00007 7.00014C6.00007 7.00014 5.19207 6.98314 5.04507 6.95614C5.79652 6.23824 6.6063 5.58399 7.46607 5.00014H16.5341Z" fill="#374957"/>
</g>
<defs>
<clipPath id="clip0_405_1604">
<rect width="24" height="24" fill="white"/>
</clipPath>
</defs>
</svg>
