<svg width="24" height="24" viewBox="0 0 24 24" fill="none" xmlns="http://www.w3.org/2000/svg">
<g clip-path="url(#clip0_405_1808)">
<path d="M2.00002 0H13C14.1045 0 15 0.895453 15 2.00002V9C15 10.1046 14.1045 11 13 11H2.00002C0.895453 11 0 10.1046 0 9V2.00002C0 0.895453 0.895453 0 2.00002 0Z" fill="#374957"/>
<path d="M19 0H22C23.1046 0 24 0.895453 24 2.00002V9C24 10.1046 23.1046 11 22 11H19C17.8954 11 16.9999 10.1046 16.9999 9V2.00002C17 0.895453 17.8954 0 19 0Z" fill="#374957"/>
<path d="M2.00002 13H5.00002C6.10458 13 7.00003 13.8955 7.00003 15V22C7.00003 23.1046 6.10458 24 5.00002 24H2.00002C0.895453 24 0 23.1046 0 22V15C0 13.8955 0.895453 13 2.00002 13Z" fill="#374957"/>
<path d="M11 13H22C23.1046 13 24 13.8955 24 15V22C24 23.1046 23.1046 24 22 24H11C9.89545 24 9 23.1046 9 22V15C9 13.8955 9.89545 13 11 13Z" fill="#374957"/>
</g>
<defs>
<clipPath id="clip0_405_1808">
<rect width="24" height="24" fill="white"/>
</clipPath>
</defs>
</svg>
