<svg width="24" height="24" viewBox="0 0 24 24" fill="none" xmlns="http://www.w3.org/2000/svg">
<g clip-path="url(#clip0_405_1466)">
<path d="M16 16.5001C16 16.898 15.842 17.2795 15.5607 17.5608C15.2793 17.8421 14.8978 18.0001 14.5 18.0001H9.49999C9.10217 18.0001 8.72064 17.8421 8.43933 17.5608C8.15803 17.2795 7.99999 16.898 7.99999 16.5001C7.99999 16.1023 8.15803 15.7208 8.43933 15.4395C8.72064 15.1582 9.10217 15.0001 9.49999 15.0001H14.5C14.8978 15.0001 15.2793 15.1582 15.5607 15.4395C15.842 15.7208 16 16.1023 16 16.5001ZM8.93899 12.5611C9.07829 12.7005 9.24369 12.8111 9.42575 12.8865C9.6078 12.962 9.80293 13.0008 9.99999 13.0008C10.1971 13.0008 10.3922 12.962 10.5742 12.8865C10.7563 12.8111 10.9217 12.7005 11.061 12.5611L12 11.6211L12.939 12.5611C13.2204 12.8425 13.602 13.0006 14 13.0006C14.3979 13.0006 14.7796 12.8425 15.061 12.5611C15.3424 12.2797 15.5005 11.8981 15.5005 11.5001C15.5005 11.1022 15.3424 10.7205 15.061 10.4391L14.121 9.50013L15.061 8.56113C15.3424 8.27974 15.5005 7.89808 15.5005 7.50013C15.5005 7.10218 15.3424 6.72053 15.061 6.43913C14.7796 6.15774 14.3979 5.99965 14 5.99965C13.602 5.99965 13.2204 6.15774 12.939 6.43913L12 7.37913L11.061 6.43913C10.7796 6.15774 10.3979 5.99965 9.99999 5.99965C9.60204 5.99965 9.22039 6.15774 8.93899 6.43913C8.6576 6.72053 8.49951 7.10218 8.49951 7.50013C8.49951 7.89808 8.6576 8.27974 8.93899 8.56113L9.87899 9.50013L8.93899 10.4391C8.7996 10.5784 8.68903 10.7438 8.61359 10.9259C8.53814 11.1079 8.49931 11.3031 8.49931 11.5001C8.49931 11.6972 8.53814 11.8923 8.61359 12.0744C8.68903 12.2564 8.7996 12.4218 8.93899 12.5611ZM5.49999 15.0001H1.49999C1.10217 15.0001 0.720637 15.1582 0.439332 15.4395C0.158028 15.7208 -7.70739e-06 16.1023 -7.70739e-06 16.5001C-7.70739e-06 16.898 0.158028 17.2795 0.439332 17.5608C0.720637 17.8421 1.10217 18.0001 1.49999 18.0001H5.49999C5.89782 18.0001 6.27935 17.8421 6.56065 17.5608C6.84196 17.2795 6.99999 16.898 6.99999 16.5001C6.99999 16.1023 6.84196 15.7208 6.56065 15.4395C6.27935 15.1582 5.89782 15.0001 5.49999 15.0001ZM6.56099 6.43913C6.42169 6.29974 6.25629 6.18917 6.07424 6.11372C5.89219 6.03828 5.69706 5.99945 5.49999 5.99945C5.30293 5.99945 5.1078 6.03828 4.92575 6.11372C4.74369 6.18917 4.57829 6.29974 4.43899 6.43913L3.49999 7.37913L2.56099 6.43913C2.2796 6.15774 1.89794 5.99965 1.49999 5.99965C1.10204 5.99965 0.720387 6.15774 0.438992 6.43913C0.157598 6.72053 -0.000488278 7.10218 -0.000488281 7.50013C-0.000488284 7.89808 0.157598 8.27974 0.438992 8.56113L1.37899 9.50013L0.438992 10.4391C0.157598 10.7205 -0.000488284 11.1022 -0.000488281 11.5001C-0.000488278 11.8981 0.157598 12.2797 0.438992 12.5611C0.720387 12.8425 1.10204 13.0006 1.49999 13.0006C1.89794 13.0006 2.2796 12.8425 2.56099 12.5611L3.49999 11.6211L4.43899 12.5611C4.72039 12.8425 5.10204 13.0006 5.49999 13.0006C5.89794 13.0006 6.2796 12.8425 6.56099 12.5611C6.84239 12.2797 7.00047 11.8981 7.00047 11.5001C7.00047 11.1022 6.84239 10.7205 6.56099 10.4391L5.62099 9.50013L6.56099 8.56113C6.70038 8.42183 6.81096 8.25643 6.8864 8.07438C6.96184 7.89233 7.00067 7.69719 7.00067 7.50013C7.00067 7.30307 6.96184 7.10793 6.8864 6.92588C6.81096 6.74383 6.70038 6.57843 6.56099 6.43913ZM22.5 15.0001H18.5C18.1022 15.0001 17.7206 15.1582 17.4393 15.4395C17.158 15.7208 17 16.1023 17 16.5001C17 16.898 17.158 17.2795 17.4393 17.5608C17.7206 17.8421 18.1022 18.0001 18.5 18.0001H22.5C22.8978 18.0001 23.2793 17.8421 23.5607 17.5608C23.842 17.2795 24 16.898 24 16.5001C24 16.1023 23.842 15.7208 23.5607 15.4395C23.2793 15.1582 22.8978 15.0001 22.5 15.0001ZM22.621 9.50013L23.561 8.56113C23.7003 8.4218 23.8108 8.25639 23.8863 8.07434C23.9617 7.89229 24.0005 7.69718 24.0005 7.50013C24.0005 7.30308 23.9617 7.10797 23.8863 6.92592C23.8108 6.74387 23.7003 6.57846 23.561 6.43913C23.4217 6.2998 23.2562 6.18927 23.0742 6.11387C22.8922 6.03846 22.697 5.99965 22.5 5.99965C22.3029 5.99965 22.1078 6.03846 21.9258 6.11387C21.7437 6.18927 21.5783 6.2998 21.439 6.43913L20.5 7.37913L19.561 6.43913C19.4217 6.2998 19.2562 6.18927 19.0742 6.11387C18.8922 6.03846 18.697 5.99965 18.5 5.99965C18.102 5.99965 17.7204 6.15774 17.439 6.43913C17.2997 6.57846 17.1891 6.74387 17.1137 6.92592C17.0383 7.10797 16.9995 7.30308 16.9995 7.50013C16.9995 7.89808 17.1576 8.27974 17.439 8.56113L18.379 9.50013L17.439 10.4391C17.1576 10.7205 16.9995 11.1022 16.9995 11.5001C16.9995 11.8981 17.1576 12.2797 17.439 12.5611C17.7204 12.8425 18.102 13.0006 18.5 13.0006C18.8979 13.0006 19.2796 12.8425 19.561 12.5611L20.5 11.6211L21.439 12.5611C21.7204 12.8425 22.102 13.0006 22.5 13.0006C22.8979 13.0006 23.2796 12.8425 23.561 12.5611C23.8424 12.2797 24.0005 11.8981 24.0005 11.5001C24.0005 11.1022 23.8424 10.7205 23.561 10.4391L22.621 9.50013Z" fill="#374957"/>
</g>
<defs>
<clipPath id="clip0_405_1466">
<rect width="24" height="24" fill="white"/>
</clipPath>
</defs>
</svg>
