<svg width="24" height="24" viewBox="0 0 24 24" fill="none" xmlns="http://www.w3.org/2000/svg">
<g clip-path="url(#clip0_405_1465)">
<path d="M4.49994 7.00013C4.04012 7.00142 3.5846 6.9115 3.15977 6.73555C2.73493 6.55961 2.34921 6.30115 2.02494 5.97513L0.499942 4.62013C0.2029 4.35491 0.0233803 3.98256 0.000875914 3.58498C-0.0102671 3.38812 0.0174735 3.19099 0.0825138 3.00485C0.147554 2.81872 0.24862 2.64721 0.379942 2.50013C0.511264 2.35305 0.67027 2.23327 0.847881 2.14764C1.02549 2.06201 1.21823 2.01221 1.41509 2.00106C1.81267 1.97856 2.2029 2.11491 2.49994 2.38013L4.08394 3.79413C4.13552 3.85508 4.19904 3.90481 4.2706 3.94024C4.34215 3.97567 4.4202 3.99605 4.49994 4.00013C4.6323 4.0001 4.75924 3.9476 4.85294 3.85413L8.46594 0.414129C8.75604 0.151625 9.13722 0.0128524 9.52818 0.0274065C9.91915 0.0419606 10.289 0.20869 10.5587 0.492035C10.8285 0.775381 10.9769 1.15292 10.9723 1.54412C10.9676 1.93533 10.8104 2.30925 10.5339 2.58613L6.94794 6.00013C6.62575 6.31965 6.24366 6.57246 5.82359 6.74406C5.40351 6.91566 4.95371 7.00268 4.49994 7.00013ZM23.9999 3.50013C23.9999 3.1023 23.8419 2.72077 23.5606 2.43947C23.2793 2.15816 22.8978 2.00013 22.4999 2.00013H14.4999C14.1021 2.00013 13.7206 2.15816 13.4393 2.43947C13.158 2.72077 12.9999 3.1023 12.9999 3.50013C12.9999 3.89795 13.158 4.27948 13.4393 4.56079C13.7206 4.84209 14.1021 5.00013 14.4999 5.00013H22.4999C22.8978 5.00013 23.2793 4.84209 23.5606 4.56079C23.8419 4.27948 23.9999 3.89795 23.9999 3.50013ZM6.94794 14.0001L10.5339 10.5861C10.8104 10.3092 10.9676 9.93533 10.9723 9.54412C10.9769 9.15292 10.8285 8.77538 10.5587 8.49203C10.289 8.20869 9.91915 8.04196 9.52818 8.02741C9.13722 8.01285 8.75604 8.15162 8.46594 8.41413L4.85294 11.8541C4.75918 11.9479 4.63202 12.0005 4.49944 12.0005C4.36686 12.0005 4.23971 11.9479 4.14594 11.8541L2.56094 10.2681C2.27955 9.98673 1.89789 9.82865 1.49994 9.82865C1.10199 9.82865 0.720337 9.98673 0.438942 10.2681C0.157548 10.5495 -0.0005383 10.9312 -0.0005383 11.3291C-0.0005383 11.7271 0.157548 12.1087 0.438942 12.3901L2.02494 13.9751C2.6769 14.6267 3.55958 14.9948 4.4813 14.9995C5.40303 15.0042 6.2894 14.645 6.94794 14.0001ZM23.9999 11.5001C23.9999 11.1023 23.8419 10.7208 23.5606 10.4395C23.2793 10.1582 22.8978 10.0001 22.4999 10.0001H14.4999C14.1021 10.0001 13.7206 10.1582 13.4393 10.4395C13.158 10.7208 12.9999 11.1023 12.9999 11.5001C12.9999 11.898 13.158 12.2795 13.4393 12.5608C13.7206 12.8421 14.1021 13.0001 14.4999 13.0001H22.4999C22.8978 13.0001 23.2793 12.8421 23.5606 12.5608C23.8419 12.2795 23.9999 11.898 23.9999 11.5001ZM6.94794 22.0001L10.5339 18.5861C10.8104 18.3092 10.9676 17.9353 10.9723 17.5441C10.9769 17.1529 10.8285 16.7754 10.5587 16.492C10.289 16.2087 9.91915 16.042 9.52818 16.0274C9.13722 16.0129 8.75604 16.1516 8.46594 16.4141L4.85294 19.8541C4.75924 19.9476 4.6323 20.0001 4.49994 20.0001C4.4202 19.9961 4.34215 19.9757 4.2706 19.9402C4.19904 19.9048 4.13552 19.8551 4.08394 19.7941L2.49994 18.3801C2.2029 18.1149 1.81267 17.9786 1.41509 18.0011C1.01751 18.0236 0.645159 18.2031 0.379942 18.5001C0.114726 18.7972 -0.0216285 19.1874 0.000875914 19.585C0.0233803 19.9826 0.2029 20.3549 0.499942 20.6201L2.02294 21.9751C2.67499 22.6273 3.55809 22.9958 4.4803 23.0005C5.40252 23.0051 6.28931 22.6457 6.94794 22.0001ZM23.9999 19.5001C23.9999 19.1023 23.8419 18.7208 23.5606 18.4395C23.2793 18.1582 22.8978 18.0001 22.4999 18.0001H14.4999C14.1021 18.0001 13.7206 18.1582 13.4393 18.4395C13.158 18.7208 12.9999 19.1023 12.9999 19.5001C12.9999 19.898 13.158 20.2795 13.4393 20.5608C13.7206 20.8421 14.1021 21.0001 14.4999 21.0001H22.4999C22.8978 21.0001 23.2793 20.8421 23.5606 20.5608C23.8419 20.2795 23.9999 19.898 23.9999 19.5001Z" fill="#374957"/>
</g>
<defs>
<clipPath id="clip0_405_1465">
<rect width="24" height="24" fill="white"/>
</clipPath>
</defs>
</svg>
