<svg width="24" height="24" viewBox="0 0 24 24" fill="none" xmlns="http://www.w3.org/2000/svg">
<g clip-path="url(#clip0_405_1434)">
<path d="M22.1669 13.4793L19.7184 14.0628C19.4104 14.1412 19.1157 14.2651 18.8441 14.4303L16.8526 13.2075C17.0677 12.4173 17.0677 11.584 16.8526 10.7938L18.8441 9.57102C19.1157 9.73621 19.4104 9.86005 19.7184 9.93847C19.7184 9.93847 22.3989 10.5628 22.5144 10.5628C23.3393 10.5549 24.0016 9.87983 23.9937 9.05493C23.9872 8.3736 23.5204 7.78302 22.859 7.61933L20.4064 7.03283C20.3507 7.01929 20.3031 6.98319 20.275 6.93327C20.2448 6.88522 20.2355 6.82701 20.2491 6.77197L20.8326 4.32243C21.0713 3.53282 20.6247 2.69919 19.8351 2.46051C19.0455 2.22182 18.2119 2.6684 17.9732 3.45801C17.9555 3.51655 17.9414 3.57608 17.931 3.63637L17.3475 6.08591C17.2791 6.3929 17.2566 6.70832 17.2808 7.02191L15.2893 8.24966C14.7774 7.8088 14.1806 7.47735 13.5358 7.27583V4.93082C13.8184 4.78762 14.0776 4.60227 14.3045 4.38116L16.0859 2.60076C16.6691 2.01726 16.6689 1.07146 16.0854 0.488287C15.5019 -0.0949316 14.5561 -0.0946972 13.9729 0.488803L12.1925 2.27015C12.1101 2.35265 11.9765 2.35274 11.894 2.27033C11.8939 2.27029 11.8938 2.27019 11.8938 2.27015L10.1114 0.488756C9.5279 -0.0947441 8.58192 -0.0947441 7.99842 0.488756C7.41492 1.07226 7.41492 2.01824 7.99842 2.60174L9.77981 4.38215C10.0068 4.60288 10.266 4.7879 10.5485 4.93082V7.27583C9.9051 7.47918 9.31007 7.81194 8.79998 8.25365L6.80348 7.02191C6.82842 6.70602 6.80592 6.38816 6.73677 6.07893L6.15327 3.63637C5.97487 2.83101 5.17734 2.32274 4.37198 2.50115C3.56662 2.67955 3.05835 3.47708 3.23676 4.28244C3.24018 4.29782 3.24384 4.31315 3.24773 4.32838L3.83123 6.77793C3.84482 6.83301 3.83549 6.89122 3.80535 6.93922C3.77723 6.98919 3.7296 7.02524 3.67392 7.03879L1.22535 7.61929C0.422947 7.81087 -0.0722406 8.6166 0.119338 9.41896C0.27965 10.0905 0.879416 10.5647 1.56984 10.5658C1.68534 10.5658 4.36588 9.94143 4.36588 9.94143C4.6739 9.86301 4.96856 9.73916 5.24015 9.57397L7.23163 10.7968C7.01657 11.5869 7.01657 12.4203 7.23163 13.2104L5.24015 14.4332C4.96856 14.268 4.6739 14.1442 4.36588 14.0658L1.91732 13.4823C1.12893 13.2396 0.293056 13.682 0.0503375 14.4703C-0.192381 15.2587 0.250025 16.0946 1.03842 16.3373C1.09968 16.3562 1.16212 16.3711 1.22526 16.3819L3.67382 16.9654C3.72951 16.979 3.77713 17.0151 3.80526 17.065C3.8354 17.113 3.84473 17.1712 3.83113 17.2263L3.24768 19.6759C3.05521 20.4782 3.5496 21.2847 4.35196 21.4772C5.15432 21.6696 5.96081 21.1753 6.15327 20.3729L6.73677 17.9233C6.80601 17.6138 6.82851 17.2956 6.80348 16.9794L8.79998 15.7516C9.31007 16.1933 9.9051 16.5261 10.5485 16.7294V19.0705C10.2661 19.2144 10.007 19.4001 9.77981 19.6211L7.99842 21.3995C7.41492 21.983 7.41492 22.929 7.99842 23.5125C8.58192 24.096 9.5279 24.096 10.1114 23.5125L11.8918 21.7311C11.9742 21.6486 12.1079 21.6485 12.1904 21.7309C12.1904 21.731 12.1905 21.7311 12.1905 21.7311L13.9709 23.5125C14.5544 24.096 15.5004 24.096 16.0839 23.5125C16.6674 22.929 16.6674 21.983 16.0839 21.3995L14.3025 19.6191C14.0759 19.3989 13.8174 19.214 13.5358 19.0704V16.7254C14.1792 16.5221 14.7742 16.1893 15.2843 15.7476L17.2758 16.9753C17.2509 17.2912 17.2734 17.6091 17.3425 17.9183L17.926 20.3679C18.1185 21.1702 18.925 21.6646 19.7273 21.4722C20.5297 21.2797 21.0241 20.4732 20.8316 19.6708L20.2481 17.2213C20.2345 17.1662 20.2439 17.108 20.274 17.06C20.3021 17.01 20.3497 16.974 20.4054 16.9604L22.854 16.3769C23.6564 16.1845 24.1507 15.378 23.9583 14.5756C23.7658 13.7733 22.9593 13.2789 22.157 13.4713L22.1669 13.4793ZM12.0421 13.9921C10.9423 13.9921 10.0507 13.1005 10.0507 12.0006C10.0507 10.9008 10.9423 10.0092 12.0421 10.0092C13.142 10.0092 14.0336 10.9008 14.0336 12.0006C14.0336 13.1005 13.142 13.9921 12.0421 13.9921Z" fill="#374957"/>
</g>
<defs>
<clipPath id="clip0_405_1434">
<rect width="24" height="24" fill="white"/>
</clipPath>
</defs>
</svg>
