<svg width="24" height="24" viewBox="0 0 24 24" fill="none" xmlns="http://www.w3.org/2000/svg">
<g clip-path="url(#clip0_405_1718)">
<path d="M17.9372 2.27002C16.9989 1.42397 15.89 0.788921 14.6854 0.407691C13.4808 0.0264604 12.2085 -0.092093 10.9542 0.0600224C9.23761 0.288593 7.62074 0.998437 6.29064 2.10746C4.96054 3.21648 3.97156 4.67936 3.43806 6.32693C2.90456 7.97449 2.84835 9.73942 3.27593 11.4176C3.70351 13.0958 4.59741 14.6186 5.85424 15.81C6.80924 16.711 7.00024 18 7.00024 19.779V19.932C6.99518 21.0043 7.4157 22.0349 8.16953 22.7975C8.92336 23.5602 9.94894 23.9926 11.0212 24H12.9792C14.0515 23.9926 15.0771 23.5602 15.8309 22.7975C16.5848 22.0349 17.0053 21.0043 17.0002 19.932V19.409C17.0002 17.739 17.1502 16.7 17.9422 15.994C18.9054 15.1291 19.6756 14.0711 20.2029 12.8888C20.7302 11.7065 21.0027 10.4265 21.0027 9.13202C21.0027 7.83751 20.7302 6.5575 20.2029 5.37524C19.6756 4.19299 18.9054 3.13498 17.9422 2.27002H17.9372ZM14.0002 19.932C14.0061 20.209 13.902 20.4769 13.7106 20.6771C13.5192 20.8773 13.2562 20.9935 12.9792 21H11.0212C10.7443 20.9935 10.4813 20.8773 10.2899 20.6771C10.0985 20.4769 9.99434 20.209 10.0002 19.932V19.779C10.0002 19.52 10.0002 19.26 9.98624 19H14.0062C14.0062 19.137 14.0002 19.274 14.0002 19.409V19.932ZM15.9452 13.755C15.2639 14.3625 14.7513 15.1359 14.4572 16H13.5002V11.083C13.9546 10.8215 14.3322 10.4453 14.5955 9.99202C14.8587 9.53871 14.9983 9.02422 15.0002 8.50002C15.0002 8.1022 14.8422 7.72067 14.5609 7.43936C14.2796 7.15806 13.8981 7.00002 13.5002 7.00002C13.1024 7.00002 12.7209 7.15806 12.4396 7.43936C12.1583 7.72067 12.0002 8.1022 12.0002 8.50002C12.0002 8.1022 11.8422 7.72067 11.5609 7.43936C11.2796 7.15806 10.8981 7.00002 10.5002 7.00002C10.1024 7.00002 9.72088 7.15806 9.43958 7.43936C9.15828 7.72067 9.00024 8.1022 9.00024 8.50002C9.00217 9.02422 9.14175 9.53871 9.40499 9.99202C9.66824 10.4453 10.0459 10.8215 10.5002 11.083V16H9.46224C9.14257 15.1004 8.61491 14.2891 7.92224 13.632C7.21171 12.958 6.67153 12.1248 6.34623 11.2011C6.02093 10.2773 5.91982 9.28951 6.05124 8.31902C6.21886 6.98247 6.82507 5.73927 7.77493 4.78416C8.72479 3.82906 9.96463 3.216 11.3002 3.04102C11.5326 3.0137 11.7663 3.00001 12.0002 3.00002C13.4554 2.99649 14.8598 3.53437 15.9402 4.50902C16.5883 5.09211 17.1065 5.80485 17.4614 6.60106C17.8164 7.39727 18 8.25918 18.0005 9.13091C18.0009 10.0026 17.8182 10.8647 17.4642 11.6613C17.1101 12.4579 16.5926 13.1712 15.9452 13.755Z" fill="#374957"/>
</g>
<defs>
<clipPath id="clip0_405_1718">
<rect width="24" height="24" fill="white"/>
</clipPath>
</defs>
</svg>
