<svg width="24" height="24" viewBox="0 0 24 24" fill="none" xmlns="http://www.w3.org/2000/svg">
<g clip-path="url(#clip0_405_1761)">
<path d="M21.5001 8C21.1023 8 20.7207 7.84197 20.4394 7.56066C20.1581 7.27936 20.0001 6.89783 20.0001 6.5V1.5C20.0001 1.10218 20.1581 0.720644 20.4394 0.43934C20.7207 0.158035 21.1023 0 21.5001 0C21.8979 0 22.2794 0.158035 22.5608 0.43934C22.8421 0.720644 23.0001 1.10218 23.0001 1.5V6.5C23.0001 6.89783 22.8421 7.27936 22.5608 7.56066C22.2794 7.84197 21.8979 8 21.5001 8ZM18.0001 6.5V1.5C18.0001 1.10218 17.8421 0.720644 17.5608 0.43934C17.2794 0.158035 16.8979 0 16.5001 0C16.1023 0 15.7207 0.158035 15.4394 0.43934C15.1581 0.720644 15.0001 1.10218 15.0001 1.5V6.5C15.0001 6.89783 15.1581 7.27936 15.4394 7.56066C15.7207 7.84197 16.1023 8 16.5001 8C16.8979 8 17.2794 7.84197 17.5608 7.56066C17.8421 7.27936 18.0001 6.89783 18.0001 6.5ZM22.0621 22.138C22.0861 22.113 23.0161 21.046 23.0161 21.046C23.6585 20.378 24.0105 19.483 23.9953 18.5563C23.9802 17.6296 23.599 16.7466 22.9351 16.1L20.7001 14.025C20.0336 13.3899 19.1483 13.0356 18.2276 13.0356C17.3069 13.0356 16.4216 13.3899 15.7551 14.025L15.3451 14.425C12.7892 13.2598 10.7429 11.2068 9.58609 8.647L9.97509 8.253C10.6194 7.60085 10.9839 6.72312 10.9912 5.80642C10.9985 4.88971 10.6479 4.00631 10.0141 3.344L7.86109 1.025C7.21192 0.376101 6.33382 0.00818426 5.41598 0.000515313C4.49814 -0.00715363 3.61402 0.346039 2.95409 0.984C2.95409 0.984 1.88809 1.914 1.86309 1.938C-5.07291 9.785 9.34209 24.224 17.5001 24C18.3458 24.0065 19.1844 23.8452 19.9675 23.5256C20.7505 23.206 21.4624 22.7344 22.0621 22.138ZM5.03309 3.146C5.11911 3.05673 5.23554 3.00307 5.35929 2.99566C5.48303 2.98825 5.60504 3.02764 5.70109 3.106L7.85409 5.425C7.9035 5.47082 7.94275 5.52648 7.96932 5.5884C7.99588 5.65032 8.00917 5.71712 8.00832 5.7845C8.00747 5.85187 7.99251 5.91832 7.96439 5.97955C7.93628 6.04079 7.89564 6.09544 7.84509 6.14L6.73609 7.267C6.53154 7.47511 6.39212 7.73835 6.33493 8.0245C6.27774 8.31064 6.30525 8.60726 6.41409 8.878C7.15905 10.8729 8.32438 12.6843 9.831 14.1892C11.3376 15.6941 13.1503 16.8573 15.1461 17.6C15.4146 17.7025 15.707 17.7258 15.9883 17.6669C16.2697 17.608 16.5282 17.4696 16.7331 17.268L17.8681 16.151C18.1481 15.938 18.3191 15.941 18.6161 16.191L20.8541 18.265C20.9026 18.3101 20.9413 18.3647 20.9678 18.4255C20.9942 18.4862 21.0079 18.5518 21.0079 18.618C21.0079 18.6843 20.9942 18.7498 20.9678 18.8105C20.9413 18.8713 20.9026 18.9259 20.8541 18.971C20.8291 18.996 19.9051 20.055 19.9051 20.055C14.6541 24.773 -0.910908 10.127 3.95009 4.1C3.95009 4.1 5.00909 3.171 5.03309 3.146Z" fill="#374957"/>
</g>
<defs>
<clipPath id="clip0_405_1761">
<rect width="24" height="24" fill="white"/>
</clipPath>
</defs>
</svg>
