<svg width="24" height="24" viewBox="0 0 24 24" fill="none" xmlns="http://www.w3.org/2000/svg">
<g clip-path="url(#clip0_405_1485)">
<path d="M24.0001 9.87565C24.0526 8.56529 23.8337 7.25821 23.3572 6.03642C22.8807 4.81463 22.1569 3.7045 21.2311 2.77565C19.5829 1.1995 17.445 0.234844 15.1726 0.042009C12.9002 -0.150826 10.6303 0.439775 8.7401 1.71565C8.2171 1.1185 7.55915 0.654766 6.82092 0.362977C6.08268 0.0711886 5.28548 -0.0402315 4.49554 0.0379731C3.70559 0.116178 2.94571 0.381749 2.27903 0.812626C1.61234 1.2435 1.05809 1.82724 0.662326 2.51535C0.266561 3.20346 0.040706 3.97608 0.00352352 4.76901C-0.0336589 5.56195 0.118905 6.35231 0.44854 7.07444C0.778176 7.79656 1.27537 8.42961 1.89881 8.92098C2.52225 9.41235 3.25394 9.74787 4.0331 9.89965C3.98322 11.6578 4.34196 13.4036 5.0811 14.9997C5.1325 15.0916 5.1524 15.1979 5.13778 15.3023C5.12315 15.4066 5.07481 15.5033 5.0001 15.5777L1.1861 18.2417V18.2557C0.832328 18.5456 0.543999 18.9072 0.340109 19.3167C0.136218 19.7261 0.0213932 20.1741 0.00319658 20.6312C-0.015 21.0882 0.0638451 21.544 0.234538 21.9683C0.405231 22.3927 0.663899 22.7761 0.993502 23.0932C1.32311 23.4104 1.71616 23.6541 2.14679 23.8084C2.57741 23.9626 3.03583 24.0239 3.49184 23.9881C3.94785 23.9523 4.39111 23.8203 4.79242 23.6008C5.19373 23.3813 5.54398 23.0793 5.8201 22.7147L5.8301 22.7207L8.4001 18.9997C8.47283 18.9162 8.5712 18.8592 8.67978 18.8377C8.78837 18.8162 8.90103 18.8313 9.0001 18.8807C10.3857 19.5859 11.9084 19.9807 13.4621 20.0377C13.8449 20.0403 14.2274 20.0136 14.6061 19.9577C16.9722 19.7649 19.1904 18.7291 20.8571 17.0387C22.7826 15.1411 23.9075 12.5775 24.0001 9.87565ZM3.0001 4.99965C3.0001 4.60409 3.1174 4.21741 3.33716 3.88851C3.55693 3.55961 3.86928 3.30327 4.23474 3.15189C4.60019 3.00052 5.00232 2.96091 5.39028 3.03808C5.77824 3.11525 6.13461 3.30573 6.41432 3.58544C6.69402 3.86514 6.8845 4.22151 6.96167 4.60947C7.03884 4.99743 6.99924 5.39957 6.84786 5.76502C6.69649 6.13047 6.44014 6.44283 6.11124 6.66259C5.78234 6.88235 5.39566 6.99965 5.0001 6.99965C4.46967 6.99965 3.96096 6.78894 3.58589 6.41387C3.21082 6.03879 3.0001 5.53009 3.0001 4.99965ZM15.3781 16.7997L7.7461 9.17065C8.4376 8.71621 9.00551 8.09726 9.3989 7.36929C9.79229 6.64133 9.99887 5.82711 10.0001 4.99965C9.9919 4.83793 9.97555 4.67673 9.9511 4.51665C11.2702 3.47657 12.9182 2.94336 14.5965 3.01362C16.2749 3.08388 17.8726 3.75296 19.1001 4.89965C19.7364 5.53896 20.2337 6.30293 20.5606 7.14358C20.8876 7.98424 21.0372 8.88342 21.0001 9.78465C20.9298 11.7217 20.1208 13.5583 18.7391 14.9177C17.8191 15.85 16.6538 16.5026 15.3781 16.7997Z" fill="#374957"/>
</g>
<defs>
<clipPath id="clip0_405_1485">
<rect width="24" height="24" fill="white"/>
</clipPath>
</defs>
</svg>
