<svg width="24" height="24" viewBox="0 0 24 24" fill="none" xmlns="http://www.w3.org/2000/svg">
<g clip-path="url(#clip0_405_1498)">
<path d="M22.293 17.7145L21.064 18.9435L18.749 16.6285C20.853 14.2005 22 11.8855 22 9.90048C22.0494 8.38972 21.4986 6.92086 20.4679 5.81519C19.4371 4.70952 18.0105 4.05705 16.5 4.00048C15.7395 4.00571 14.9889 4.1739 14.2989 4.49371C13.6089 4.81353 12.9955 5.27754 12.5 5.85448C12.0046 5.27739 11.3912 4.81327 10.7012 4.49344C10.0111 4.17361 9.26053 4.00551 8.49999 4.00048C7.82072 4.00196 7.14846 4.13791 6.52199 4.40048L2.56099 0.439481C2.2796 0.158086 1.89794 0 1.49999 0C1.10204 0 0.720387 0.158086 0.438992 0.439481C0.157598 0.720875 -0.000488281 1.10253 -0.000488281 1.50048C-0.000488281 1.89843 0.157598 2.28009 0.438992 2.56148L4.16299 6.28448C3.40293 7.33662 2.99578 8.60253 2.99999 9.90048C2.99999 12.7855 5.37099 16.3625 9.67599 19.9725C10.4669 20.637 11.4669 21.0014 12.5 21.0014C13.5331 21.0014 14.533 20.637 15.324 19.9725C15.797 19.5725 16.237 19.1805 16.663 18.7855L18.943 21.0655L17.714 22.2945C17.5744 22.4345 17.4795 22.6128 17.4412 22.8067C17.4028 23.0007 17.4229 23.2017 17.4988 23.3843C17.5747 23.5668 17.7029 23.7228 17.8675 23.8325C18.032 23.9422 18.2253 24.0006 18.423 24.0005L23 23.9905C23.2652 23.9905 23.5196 23.8851 23.7071 23.6976C23.8946 23.5101 24 23.2557 24 22.9905V18.4215C24 18.2237 23.9413 18.0304 23.8314 17.866C23.7215 17.7016 23.5653 17.5735 23.3826 17.4978C23.1999 17.4221 22.9989 17.4023 22.805 17.4409C22.611 17.4795 22.4328 17.5747 22.293 17.7145ZM13.393 17.6725C13.1403 17.8795 12.8237 17.9926 12.497 17.9926C12.1703 17.9926 11.8537 17.8795 11.601 17.6725C7.47199 14.2085 5.99999 11.3865 5.99999 9.90048C5.95192 9.18554 6.18728 8.48042 6.65515 7.93769C7.12302 7.39496 7.78577 7.05827 8.49999 7.00048C9.21422 7.05827 9.87696 7.39496 10.3448 7.93769C10.8127 8.48042 11.0481 9.18554 11 9.90048C11 10.0975 11.0388 10.2925 11.1142 10.4745C11.1896 10.6565 11.3 10.8219 11.4393 10.9611C11.5786 11.1004 11.744 11.2109 11.926 11.2863C12.108 11.3617 12.303 11.4005 12.5 11.4005C12.697 11.4005 12.892 11.3617 13.074 11.2863C13.256 11.2109 13.4214 11.1004 13.5607 10.9611C13.6999 10.8219 13.8104 10.6565 13.8858 10.4745C13.9612 10.2925 14 10.0975 14 9.90048C13.9517 9.18548 14.1869 8.48021 14.6548 7.93742C15.1228 7.39463 15.7857 7.05802 16.5 7.00048C17.2143 7.05802 17.8772 7.39463 18.3451 7.93742C18.8131 8.48021 19.0483 9.18548 19 9.90048C19 11.3865 17.528 14.2085 13.4 17.6725H13.393Z" fill="#374957"/>
</g>
<defs>
<clipPath id="clip0_405_1498">
<rect width="24" height="24" fill="white"/>
</clipPath>
</defs>
</svg>
