<svg width="24" height="24" viewBox="0 0 24 24" fill="none" xmlns="http://www.w3.org/2000/svg">
<g clip-path="url(#clip0_405_1816)">
<path d="M18.589 0.00063938H5.411C3.98874 -0.0100219 2.62033 0.543881 1.60593 1.54084C0.591536 2.5378 0.013995 3.89641 0 5.31864L0 7.18264C0 7.58047 0.158035 7.962 0.43934 8.2433C0.720644 8.5246 1.10218 8.68264 1.5 8.68264C1.89782 8.68264 2.27936 8.5246 2.56066 8.2433C2.84196 7.962 3 7.58047 3 7.18264V5.31864C3.01339 4.69188 3.27467 4.09599 3.72658 3.66151C4.1785 3.22703 4.7842 2.98938 5.411 3.00064H18.589C19.2158 2.98938 19.8215 3.22703 20.2734 3.66151C20.7253 4.09599 20.9866 4.69188 21 5.31864V18.6826C20.9866 19.3094 20.7253 19.9053 20.2734 20.3398C19.8215 20.7743 19.2158 21.0119 18.589 21.0006H5.411C4.7842 21.0119 4.1785 20.7743 3.72658 20.3398C3.27467 19.9053 3.01339 19.3094 3 18.6826V16.8186C3 16.4208 2.84196 16.0393 2.56066 15.758C2.27936 15.4767 1.89782 15.3186 1.5 15.3186C1.10218 15.3186 0.720644 15.4767 0.43934 15.758C0.158035 16.0393 0 16.4208 0 16.8186L0 18.6826C0.013995 20.1049 0.591536 21.4635 1.60593 22.4604C2.62033 23.4574 3.98874 24.0113 5.411 24.0006H18.589C20.0113 24.0113 21.3797 23.4574 22.3941 22.4604C23.4085 21.4635 23.986 20.1049 24 18.6826V5.31864C23.986 3.89641 23.4085 2.5378 22.3941 1.54084C21.3797 0.543881 20.0113 -0.0100219 18.589 0.00063938Z" fill="#374957"/>
<path d="M3.49991 11.9993C3.49991 12.3971 3.65794 12.7786 3.93925 13.0599C4.22055 13.3412 4.60208 13.4993 4.99991 13.4993L14.9749 13.4723L11.5089 16.9383C11.2275 17.2195 11.0694 17.6011 11.0693 17.9989C11.0692 18.3968 11.2271 18.7784 11.5084 19.0598C11.7897 19.3412 12.1712 19.4993 12.5691 19.4994C12.9669 19.4995 13.3485 19.3415 13.6299 19.0603L18.2159 14.4743C18.541 14.1493 18.7988 13.7634 18.9747 13.3387C19.1506 12.9141 19.2412 12.4589 19.2412 11.9993C19.2412 11.5396 19.1506 11.0845 18.9747 10.6598C18.7988 10.2351 18.541 9.84928 18.2159 9.52427L13.6339 4.93827C13.4946 4.79901 13.3292 4.68855 13.1472 4.6132C12.9651 4.53785 12.7701 4.4991 12.5731 4.49915C12.3761 4.49919 12.181 4.53804 11.999 4.61347C11.817 4.6889 11.6517 4.79944 11.5124 4.93877C11.2311 5.22017 11.0732 5.60177 11.0733 5.99963C11.0733 6.19663 11.1122 6.39169 11.1876 6.57367C11.263 6.75566 11.3736 6.92101 11.5129 7.06027L14.9259 10.4723L4.99991 10.4993C4.60208 10.4993 4.22055 10.6573 3.93925 10.9386C3.65794 11.2199 3.49991 11.6014 3.49991 11.9993Z" fill="#374957"/>
</g>
<defs>
<clipPath id="clip0_405_1816">
<rect width="24" height="24" fill="white"/>
</clipPath>
</defs>
</svg>
