<svg width="24" height="24" viewBox="0 0 24 24" fill="none" xmlns="http://www.w3.org/2000/svg">
<g clip-path="url(#clip0_405_1536)">
<path d="M6.13904 6.08294H7.50207L6.82304 4.28491L6.13904 6.08294Z" fill="#374957"/>
<path d="M19.5 0H4.5C2.01586 0.00276563 0.00276563 2.01586 0 4.5V19.5C0.00276563 21.9841 2.01586 23.9972 4.5 24H16.484C17.6782 24.0037 18.8242 23.529 19.666 22.682L22.682 19.667C23.5285 18.8249 24.0031 17.6791 24 16.485V4.5C23.9972 2.01586 21.9841 0.00276563 19.5 0ZM9.47902 7.779C9.60108 8.10211 9.43809 8.46295 9.11503 8.58502C8.79192 8.70708 8.43108 8.54409 8.30902 8.22103L7.974 7.33303H5.66302L5.32402 8.22202C5.19272 8.54123 4.82747 8.69358 4.50825 8.56223C4.20117 8.43591 4.04644 8.09147 4.15603 7.77802L6.13102 2.59102C6.24248 2.30419 6.5183 2.11491 6.82603 2.11402C7.12762 2.11406 7.39922 2.29669 7.51303 2.57602L9.47902 7.779ZM10.607 2.739C10.607 2.39381 10.8869 2.11402 11.232 2.11402C11.5772 2.11402 11.857 2.39386 11.857 2.739V8.00002C11.857 8.3452 11.5771 8.625 11.232 8.625C10.8868 8.625 10.607 8.34516 10.607 8.00002V2.739ZM17 15C15.8955 15 15 15.8955 15 17V21H4.5C3.67158 21 3 20.3284 3 19.5V11H21V15H17Z" fill="#374957"/>
</g>
<defs>
<clipPath id="clip0_405_1536">
<rect width="24" height="24" fill="white"/>
</clipPath>
</defs>
</svg>
