<svg width="24" height="24" viewBox="0 0 24 24" fill="none" xmlns="http://www.w3.org/2000/svg">
<g clip-path="url(#clip0_405_1436)">
<path d="M17.2932 17.2926L11.8282 11.8276C11.078 11.0777 10.0608 10.6564 9.00015 10.6564C7.9395 10.6564 6.92226 11.0777 6.17215 11.8276L5.29315 12.7066C5.1056 12.8941 5.00021 13.1484 5.00015 13.4136V16.9996C5.00015 17.53 5.21087 18.0387 5.58594 18.4138C5.96101 18.7889 6.46972 18.9996 7.00015 18.9996H16.5862C16.7839 18.9995 16.9772 18.9409 17.1416 18.831C17.306 18.7211 17.4342 18.5649 17.5098 18.3822C17.5855 18.1995 17.6053 17.9985 17.5667 17.8045C17.5282 17.6106 17.433 17.4324 17.2932 17.2926Z" fill="#374957"/>
<path d="M16 10.5003C17.3807 10.5003 18.5 9.38102 18.5 8.00031C18.5 6.61959 17.3807 5.50031 16 5.50031C14.6193 5.50031 13.5 6.61959 13.5 8.00031C13.5 9.38102 14.6193 10.5003 16 10.5003Z" fill="#374957"/>
<path d="M22.5002 15.4997C22.1023 15.4997 21.7208 15.6577 21.4395 15.939C21.1582 16.2203 21.0002 16.6019 21.0002 16.9997V18.4997C21.0002 19.1627 20.7368 19.7986 20.2679 20.2674C19.7991 20.7363 19.1632 20.9997 18.5002 20.9997H17.0002C16.6023 20.9997 16.2208 21.1577 15.9395 21.439C15.6582 21.7203 15.5002 22.1018 15.5002 22.4997C15.5002 22.8975 15.6582 23.279 15.9395 23.5603C16.2208 23.8416 16.6023 23.9997 17.0002 23.9997H18.5002C19.9584 23.9981 21.3564 23.4181 22.3875 22.387C23.4186 21.3559 23.9986 19.9579 24.0002 18.4997V16.9997C24.0002 16.6019 23.8421 16.2203 23.5608 15.939C23.2795 15.6577 22.898 15.4997 22.5002 15.4997Z" fill="#374957"/>
<path d="M1.5 8.5C1.89782 8.5 2.27936 8.34196 2.56066 8.06066C2.84196 7.77936 3 7.39782 3 7V5.5C3 4.83696 3.26339 4.20107 3.73223 3.73223C4.20107 3.26339 4.83696 3 5.5 3H7C7.39782 3 7.77936 2.84196 8.06066 2.56066C8.34196 2.27936 8.5 1.89782 8.5 1.5C8.5 1.10218 8.34196 0.720644 8.06066 0.43934C7.77936 0.158035 7.39782 0 7 0L5.5 0C4.0418 0.00158817 2.64377 0.581561 1.61267 1.61267C0.581561 2.64377 0.00158817 4.0418 0 5.5L0 7C0 7.39782 0.158035 7.77936 0.43934 8.06066C0.720644 8.34196 1.10218 8.5 1.5 8.5Z" fill="#374957"/>
<path d="M7 20.9997H5.5C4.83696 20.9997 4.20107 20.7363 3.73223 20.2674C3.26339 19.7986 3 19.1627 3 18.4997V16.9997C3 16.6019 2.84196 16.2203 2.56066 15.939C2.27936 15.6577 1.89782 15.4997 1.5 15.4997C1.10218 15.4997 0.720644 15.6577 0.43934 15.939C0.158035 16.2203 0 16.6019 0 16.9997L0 18.4997C0.00158817 19.9579 0.581561 21.3559 1.61267 22.387C2.64377 23.4181 4.0418 23.9981 5.5 23.9997H7C7.39782 23.9997 7.77936 23.8416 8.06066 23.5603C8.34196 23.279 8.5 22.8975 8.5 22.4997C8.5 22.1018 8.34196 21.7203 8.06066 21.439C7.77936 21.1577 7.39782 20.9997 7 20.9997Z" fill="#374957"/>
<path d="M18.5002 0H17.0002C16.6023 0 16.2208 0.158035 15.9395 0.43934C15.6582 0.720644 15.5002 1.10218 15.5002 1.5C15.5002 1.89782 15.6582 2.27936 15.9395 2.56066C16.2208 2.84196 16.6023 3 17.0002 3H18.5002C19.1632 3 19.7991 3.26339 20.2679 3.73223C20.7368 4.20107 21.0002 4.83696 21.0002 5.5V7C21.0002 7.39782 21.1582 7.77936 21.4395 8.06066C21.7208 8.34196 22.1023 8.5 22.5002 8.5C22.898 8.5 23.2795 8.34196 23.5608 8.06066C23.8421 7.77936 24.0002 7.39782 24.0002 7V5.5C23.9986 4.0418 23.4186 2.64377 22.3875 1.61267C21.3564 0.581561 19.9584 0.00158817 18.5002 0V0Z" fill="#374957"/>
</g>
<defs>
<clipPath id="clip0_405_1436">
<rect width="24" height="24" fill="white"/>
</clipPath>
</defs>
</svg>
