<svg width="24" height="24" viewBox="0 0 24 24" fill="none" xmlns="http://www.w3.org/2000/svg">
<g clip-path="url(#clip0_405_1591)">
<path d="M22.5 13H16.5C16.1022 13 15.7206 12.842 15.4393 12.5607C15.158 12.2794 15 11.8978 15 11.5C15 11.1022 15.158 10.7206 15.4393 10.4393C15.7206 10.158 16.1022 10 16.5 10H22.5C22.8978 10 23.2794 10.158 23.5607 10.4393C23.842 10.7206 24 11.1022 24 11.5C24 11.8978 23.842 12.2794 23.5607 12.5607C23.2794 12.842 22.8978 13 22.5 13ZM14 6C14 4.81332 13.6481 3.65328 12.9888 2.66658C12.3295 1.67989 11.3925 0.910851 10.2961 0.456726C9.19974 0.00259972 7.99334 -0.11622 6.82946 0.115291C5.66557 0.346802 4.59647 0.918247 3.75736 1.75736C2.91824 2.59648 2.3468 3.66558 2.11529 4.82946C1.88378 5.99335 2.0026 7.19975 2.45672 8.2961C2.91085 9.39246 3.67988 10.3295 4.66658 10.9888C5.65327 11.6481 6.81331 12 8 12C9.59081 11.9984 11.116 11.3658 12.2409 10.2409C13.3658 9.11602 13.9984 7.59082 14 6ZM11 6C11 6.59335 10.8241 7.17337 10.4944 7.66671C10.1648 8.16006 9.69623 8.54458 9.14805 8.77164C8.59987 8.99871 7.99667 9.05812 7.41473 8.94236C6.83279 8.8266 6.29824 8.54088 5.87868 8.12132C5.45912 7.70177 5.1734 7.16722 5.05764 6.58527C4.94189 6.00333 5.0013 5.40013 5.22836 4.85195C5.45542 4.30377 5.83994 3.83524 6.33329 3.50559C6.82664 3.17595 7.40666 3 8 3C8.79565 3 9.55871 3.31607 10.1213 3.87868C10.6839 4.44129 11 5.20435 11 6ZM16 22.5V22C16 19.8783 15.1571 17.8434 13.6569 16.3431C12.1566 14.8429 10.1217 14 8 14C5.87827 14 3.84344 14.8429 2.34315 16.3431C0.842855 17.8434 0 19.8783 0 22L0 22.5C0 22.8978 0.158035 23.2794 0.43934 23.5607C0.720644 23.842 1.10218 24 1.5 24C1.89782 24 2.27936 23.842 2.56066 23.5607C2.84196 23.2794 3 22.8978 3 22.5V22C3 20.6739 3.52678 19.4022 4.46447 18.4645C5.40215 17.5268 6.67392 17 8 17C9.32608 17 10.5979 17.5268 11.5355 18.4645C12.4732 19.4022 13 20.6739 13 22V22.5C13 22.8978 13.158 23.2794 13.4393 23.5607C13.7206 23.842 14.1022 24 14.5 24C14.8978 24 15.2794 23.842 15.5607 23.5607C15.842 23.2794 16 22.8978 16 22.5Z" fill="#374957"/>
</g>
<defs>
<clipPath id="clip0_405_1591">
<rect width="24" height="24" fill="white"/>
</clipPath>
</defs>
</svg>
