<svg width="24" height="24" viewBox="0 0 24 24" fill="none" xmlns="http://www.w3.org/2000/svg">
<g clip-path="url(#clip0_405_1440)">
<path d="M1.5 6H22.5C22.8978 6 23.2794 5.84196 23.5607 5.56066C23.842 5.27936 24 4.89782 24 4.5C24 4.10218 23.842 3.72064 23.5607 3.43934C23.2794 3.15804 22.8978 3 22.5 3H1.5C1.10218 3 0.720644 3.15804 0.43934 3.43934C0.158035 3.72064 0 4.10218 0 4.5C0 4.89782 0.158035 5.27936 0.43934 5.56066C0.720644 5.84196 1.10218 6 1.5 6Z" fill="#374957"/>
<path d="M1.5 11H14.5C14.8978 11 15.2794 10.842 15.5607 10.5607C15.842 10.2794 16 9.89782 16 9.5C16 9.10218 15.842 8.72064 15.5607 8.43934C15.2794 8.15804 14.8978 8 14.5 8H1.5C1.10218 8 0.720644 8.15804 0.43934 8.43934C0.158035 8.72064 0 9.10218 0 9.5C0 9.89782 0.158035 10.2794 0.43934 10.5607C0.720644 10.842 1.10218 11 1.5 11Z" fill="#374957"/>
<path d="M14.5 18H1.5C1.10218 18 0.720644 18.158 0.43934 18.4393C0.158035 18.7206 0 19.1022 0 19.5C0 19.8978 0.158035 20.2794 0.43934 20.5607C0.720644 20.842 1.10218 21 1.5 21H14.5C14.8978 21 15.2794 20.842 15.5607 20.5607C15.842 20.2794 16 19.8978 16 19.5C16 19.1022 15.842 18.7206 15.5607 18.4393C15.2794 18.158 14.8978 18 14.5 18Z" fill="#374957"/>
<path d="M22.5 13H1.5C1.10218 13 0.720644 13.158 0.43934 13.4393C0.158035 13.7206 0 14.1022 0 14.5C0 14.8978 0.158035 15.2794 0.43934 15.5607C0.720644 15.842 1.10218 16 1.5 16H22.5C22.8978 16 23.2794 15.842 23.5607 15.5607C23.842 15.2794 24 14.8978 24 14.5C24 14.1022 23.842 13.7206 23.5607 13.4393C23.2794 13.158 22.8978 13 22.5 13Z" fill="#374957"/>
</g>
<defs>
<clipPath id="clip0_405_1440">
<rect width="24" height="24" fill="white"/>
</clipPath>
</defs>
</svg>
