<svg width="24" height="24" viewBox="0 0 24 24" fill="none" xmlns="http://www.w3.org/2000/svg">
<path d="M22.8148 6.70411C22.2706 4.17446 20.0387 2.36485 17.4512 2.35529H5.48217C2.45564 2.35913 0.00328125 4.81196 0 7.83844V12.8222C0.00328125 15.8486 2.45583 18.3011 5.48217 18.3044H7.55644L9.06455 21.2578C9.75877 22.6108 11.1603 23.4529 12.6808 23.4308C14.8558 23.4336 16.6213 21.6728 16.6241 19.4978C16.6244 19.2742 16.6057 19.0511 16.5681 18.8307L16.4784 18.3045H18.5098C21.5375 18.3045 23.9919 15.85 23.9919 12.8223C23.9919 12.4411 23.9522 12.0609 23.8733 11.688L22.8148 6.70411ZM2.99025 12.8222V7.83844C2.99025 6.46219 4.10592 5.34657 5.48213 5.34657H6.97725V15.3141H5.48213C4.10592 15.3141 2.99025 14.1985 2.99025 12.8222ZM20.4405 14.3921C19.9681 14.9767 19.2563 15.3157 18.5047 15.3141H12.9309L13.6156 19.333C13.6647 19.6084 13.5875 19.8913 13.4053 20.1035C13.2115 20.3284 12.9255 20.4525 12.6288 20.4404C12.2514 20.4444 11.9042 20.2349 11.7317 19.8992L9.9675 16.4534V5.34657H17.4511C18.6273 5.35004 19.642 6.17297 19.8882 7.32314L20.9428 12.3069C21.0999 13.0422 20.9151 13.809 20.4405 14.3921Z" fill="#374957"/>
</svg>
