<svg width="24" height="24" viewBox="0 0 24 24" fill="none" xmlns="http://www.w3.org/2000/svg">
<g clip-path="url(#clip0_405_1559)">
<path d="M22.306 7.82712L15.761 1.55712C14.7672 0.563588 13.4206 0.00371146 12.0153 -0.000223261C10.6101 -0.00415798 9.26036 0.548169 8.261 1.53612L1.694 7.82712C1.15939 8.34172 0.733888 8.95871 0.442849 9.6413C0.151811 10.3239 0.00120109 11.0581 0 11.8001L0 18.5001C0.00158817 19.9583 0.581561 21.3563 1.61267 22.3874C2.64377 23.4186 4.0418 23.9985 5.5 24.0001H18.5C19.9582 23.9985 21.3562 23.4186 22.3873 22.3874C23.4184 21.3563 23.9984 19.9583 24 18.5001V11.8001C23.9988 11.0581 23.8482 10.3239 23.5571 9.6413C23.2661 8.95871 22.8406 8.34172 22.306 7.82712ZM10.36 3.68012C10.5778 3.46428 10.836 3.29356 11.1199 3.17775C11.4038 3.06195 11.7078 3.00334 12.0144 3.00529C12.321 3.00724 12.6242 3.06972 12.9066 3.18912C13.189 3.30853 13.445 3.48252 13.66 3.70112L19.042 8.85712L13.766 14.2681C13.2897 14.7229 12.6565 14.9767 11.998 14.9767C11.3395 14.9767 10.7063 14.7229 10.23 14.2681L4.887 8.92312L10.36 3.68012ZM21 18.5001C21 19.1632 20.7366 19.799 20.2678 20.2679C19.7989 20.7367 19.163 21.0001 18.5 21.0001H5.5C4.83696 21.0001 4.20107 20.7367 3.73223 20.2679C3.26339 19.799 3 19.1632 3 18.5001V11.8001C3.0007 11.6412 3.01711 11.4828 3.049 11.3271L8.111 16.3901C9.1478 17.4179 10.5493 17.9935 12.0092 17.991C13.4691 17.9886 14.8686 17.4084 15.902 16.3771L20.926 11.2261C20.9732 11.4139 20.9981 11.6065 21 11.8001V18.5001Z" fill="#374957"/>
</g>
<defs>
<clipPath id="clip0_405_1559">
<rect width="24" height="24" fill="white"/>
</clipPath>
</defs>
</svg>
