<svg width="24" height="24" viewBox="0 0 24 24" fill="none" xmlns="http://www.w3.org/2000/svg">
<g clip-path="url(#clip0_405_1648)">
<path d="M18.5 2.00041H16.475C15.783 1.21287 14.8942 0.62333 13.8995 0.292122C12.9048 -0.0390871 11.84 -0.100073 10.814 0.115406C9.56347 0.370451 8.43301 1.03347 7.6 2.00041H5C2.1 2.00041 0 4.31341 0 7.50041V18.5004C0.00185226 19.9585 0.58191 21.3564 1.61296 22.3874C2.64401 23.4185 4.04188 23.9986 5.5 24.0004H18.5C19.9581 23.9986 21.356 23.4185 22.387 22.3874C23.4181 21.3564 23.9981 19.9585 24 18.5004V7.50041C23.9981 6.04228 23.4181 4.64441 22.387 3.61336C21.356 2.58232 19.9581 2.00226 18.5 2.00041ZM21 18.5004C21 19.1635 20.7366 19.7993 20.2678 20.2682C19.7989 20.737 19.163 21.0004 18.5 21.0004H5.5C4.83696 21.0004 4.20107 20.737 3.73223 20.2682C3.26339 19.7993 3 19.1635 3 18.5004V7.50041C3 7.08341 3.1 5.00041 5 5.00041H6.135C6.0563 5.40034 6.01545 5.80681 6.013 6.21441C6.01423 6.93741 6.29668 7.63157 6.80058 8.15003C7.30449 8.6685 7.99033 8.97059 8.713 8.99241L11.249 4.66941C11.4697 4.33789 11.813 4.1076 12.2034 4.02921C12.5939 3.95082 12.9995 4.03075 13.331 4.25141C13.6625 4.47207 13.8928 4.81539 13.9712 5.20584C14.0496 5.59629 13.9697 6.00189 13.749 6.33341L12.316 9.00041H15.228C15.6164 9.01508 16.0033 8.94574 16.3624 8.79712C16.7215 8.64851 17.0443 8.42412 17.3087 8.1393C17.5731 7.85447 17.7729 7.51592 17.8945 7.14678C18.016 6.77764 18.0565 6.38661 18.013 6.00041C18.013 6.01641 17.976 5.33741 17.921 5.00041H18.5C19.163 5.00041 19.7989 5.2638 20.2678 5.73264C20.7366 6.20148 21 6.83737 21 7.50041V18.5004Z" fill="#374957"/>
</g>
<defs>
<clipPath id="clip0_405_1648">
<rect width="24" height="24" fill="white"/>
</clipPath>
</defs>
</svg>
