<svg width="24" height="24" viewBox="0 0 24 24" fill="none" xmlns="http://www.w3.org/2000/svg">
<g clip-path="url(#clip0_405_1617)">
<path d="M18.5001 24.0002H13.0341C5.71113 24.1432 -0.745869 18.2552 0.0561308 10.8852C0.304888 8.27094 1.40264 5.81003 3.18166 3.87842C4.96069 1.94681 7.32316 0.650719 9.90813 0.188165C11.6071 -0.126608 13.3548 -0.0593888 15.0246 0.384949C16.6943 0.829286 18.2443 1.63961 19.5621 2.75716C20.9569 3.92991 22.0772 5.39451 22.8441 7.04758C23.6109 8.70065 24.0056 10.5019 24.0001 12.3242V18.5002C23.9985 19.9584 23.4186 21.3564 22.3875 22.3875C21.3564 23.4186 19.9583 23.9986 18.5001 24.0002ZM12.0301 3.00016C9.78463 2.99822 7.61913 3.83382 5.95696 5.34361C4.29479 6.85339 3.25545 8.92882 3.04213 11.1642C2.91985 12.3565 3.05074 13.5612 3.42624 14.6994C3.80174 15.8376 4.41338 16.8837 5.22113 17.7692C6.22838 18.8198 7.44305 19.6496 8.78806 20.2058C10.1331 20.762 11.579 21.0325 13.0341 21.0002H18.5001C19.1632 21.0002 19.7991 20.7368 20.2679 20.2679C20.7367 19.7991 21.0001 19.1632 21.0001 18.5002V12.3242C21.005 10.9398 20.706 9.57129 20.1243 8.31512C19.5425 7.05896 18.6921 5.94579 17.6331 5.05416C16.0691 3.72499 14.0826 2.99676 12.0301 3.00016ZM14.5001 8.00016C13.8045 8.03488 13.1509 8.34371 12.6824 8.85907C12.2139 9.37444 11.9686 10.0544 12.0001 10.7502C12.0295 10.404 11.9867 10.0556 11.8744 9.72682C11.7621 9.39809 11.5828 9.09626 11.3478 8.84044C11.1128 8.58462 10.8272 8.38039 10.5092 8.24068C10.1911 8.10098 9.84751 8.02884 9.50013 8.02884C9.15275 8.02884 8.80915 8.10098 8.4911 8.24068C8.17305 8.38039 7.88747 8.58462 7.65246 8.84044C7.41744 9.09626 7.23811 9.39809 7.12582 9.72682C7.01354 10.0556 6.97073 10.404 7.00013 10.7502C7.00013 12.9132 9.82013 15.6012 11.2251 16.7282C11.445 16.9044 11.7183 17.0005 12.0001 17.0005C12.2819 17.0005 12.5553 16.9044 12.7751 16.7282C14.1801 15.6002 17.0001 12.9132 17.0001 10.7502C17.0317 10.0544 16.7864 9.37444 16.3178 8.85907C15.8493 8.34371 15.1958 8.03488 14.5001 8.00016Z" fill="#374957"/>
</g>
<defs>
<clipPath id="clip0_405_1617">
<rect width="24" height="24" fill="white"/>
</clipPath>
</defs>
</svg>
