<svg width="24" height="24" viewBox="0 0 24 24" fill="none" xmlns="http://www.w3.org/2000/svg">
<g clip-path="url(#clip0_405_1618)">
<path d="M10 2C10 1.46957 10.2107 0.960859 10.5858 0.585786C10.9609 0.210714 11.4696 0 12 0C12.5304 0 13.0391 0.210714 13.4142 0.585786C13.7893 0.960859 14 1.46957 14 2C14 2.53043 13.7893 3.03914 13.4142 3.41421C13.0391 3.78929 12.5304 4 12 4C11.4696 4 10.9609 3.78929 10.5858 3.41421C10.2107 3.03914 10 2.53043 10 2ZM21.247 13.175C22.0571 14.0611 22.619 15.1452 22.876 16.3179C23.1331 17.4906 23.0761 18.7103 22.711 19.854C22.5289 20.4782 22.2101 21.054 21.7777 21.5395C21.3452 22.0251 20.81 22.4082 20.211 22.661C19.6268 22.9106 18.9944 23.0272 18.3597 23.0021C17.7249 22.977 17.1036 22.811 16.541 22.516C15.4583 21.9509 14.4389 21.2721 13.5 20.491V21.548C13.5 21.9458 13.342 22.3274 13.0607 22.6087C12.7794 22.89 12.3978 23.048 12 23.048C11.6022 23.048 11.2206 22.89 10.9393 22.6087C10.658 22.3274 10.5 21.9458 10.5 21.548V20.525C9.5752 21.289 8.57309 21.9543 7.51 22.51C6.94755 22.805 6.32647 22.9711 5.69185 22.9962C5.05722 23.0212 4.42498 22.9047 3.841 22.655C3.24275 22.4028 2.70808 22.0208 2.27569 21.5365C1.8433 21.0523 1.52403 20.4779 1.341 19.855C0.982494 18.7193 0.93104 17.5089 1.19187 16.3469C1.45269 15.1848 2.0165 14.1125 2.826 13.239C2.657 13.098 2.492 12.952 2.333 12.796C1.61503 12.11 1.03941 11.2891 0.639085 10.3803C0.238758 9.47158 0.0215859 8.49279 0 7.5C0 1.313 3.749 1 4.5 1C7.391 1 9.873 3.841 12 6.756C14.129 3.842 16.609 1 19.5 1C20.252 1 24 1.313 24 7.5C23.9787 8.49131 23.7623 9.46871 23.3632 10.3764C22.9641 11.284 22.3901 12.1042 21.674 12.79C21.539 12.924 21.393 13.05 21.247 13.175ZM10.5 14.513C9.53798 14.8291 8.53259 14.9934 7.52 15C6.86587 14.9992 6.21524 14.9046 5.588 14.719C4.94062 15.1997 4.46 15.8711 4.21358 16.6389C3.96716 17.4066 3.96731 18.2323 4.214 19C4.27258 19.1988 4.37479 19.3821 4.51319 19.5364C4.65159 19.6907 4.82269 19.8122 5.014 19.892C5.18869 19.9678 5.3781 20.0036 5.56841 19.9969C5.75872 19.9901 5.94512 19.941 6.114 19.853C8.672 18.512 10.262 16.767 10.498 15.691L10.5 14.513ZM10.5 9.813C10.387 9.657 10.264 9.484 10.129 9.294C9.1 7.842 6.369 4 4.5 4C3.576 4 3 5.34 3 7.5C3.04112 8.70099 3.55681 9.83666 4.434 10.658C4.82636 11.0738 5.29804 11.4067 5.8212 11.6372C6.34436 11.8677 6.90839 11.9911 7.48 12C8.54418 12.0428 9.59658 11.764 10.5 11.2V9.813ZM20.048 17.692C20.0364 17.112 19.8913 16.5426 19.6238 16.0278C19.3564 15.513 18.9739 15.0669 18.506 14.724L18.489 14.709C17.8368 14.9029 17.1604 15.0039 16.48 15.009C15.4673 15.0026 14.4618 14.838 13.5 14.521C13.5 14.521 13.5 15.566 13.5 15.632C13.675 16.701 15.314 18.496 17.931 19.868C18.1006 19.957 18.2881 20.0067 18.4796 20.0134C18.671 20.0202 18.8615 19.9838 19.037 19.907C19.2283 19.8272 19.3994 19.7057 19.5378 19.5514C19.6762 19.3971 19.7784 19.2138 19.837 19.015C19.9758 18.5859 20.0469 18.1379 20.048 17.687V17.692ZM21 7.5C20.908 -0.0999999 15.567 6.778 13.876 9.287C13.738 9.481 13.612 9.658 13.497 9.816V11.2C14.4 11.765 15.4527 12.0438 16.517 12C17.0897 11.9921 17.6549 11.8687 18.1788 11.6373C18.7027 11.4058 19.1745 11.071 19.566 10.653C20.4419 9.83281 20.9575 8.69921 21 7.5Z" fill="#374957"/>
</g>
<defs>
<clipPath id="clip0_405_1618">
<rect width="24" height="24" fill="white"/>
</clipPath>
</defs>
</svg>
