<svg width="24" height="24" viewBox="0 0 24 24" fill="none" xmlns="http://www.w3.org/2000/svg">
<g clip-path="url(#clip0_405_1753)">
<path d="M18.5 22.0006H5.5C4.0418 21.999 2.64377 21.419 1.61267 20.3879C0.581561 19.3568 0.00158817 17.9588 0 16.5006L0 7.50061C0.00158817 6.04241 0.581561 4.64438 1.61267 3.61328C2.64377 2.58217 4.0418 2.0022 5.5 2.00061H18.5C19.9582 2.0022 21.3562 2.58217 22.3873 3.61328C23.4184 4.64438 23.9984 6.04241 24 7.50061V16.5006C23.9984 17.9588 23.4184 19.3568 22.3873 20.3879C21.3562 21.419 19.9582 21.999 18.5 22.0006ZM5.5 5.00061C4.83696 5.00061 4.20107 5.264 3.73223 5.73284C3.26339 6.20168 3 6.83757 3 7.50061V16.5006C3 17.1637 3.26339 17.7995 3.73223 18.2684C4.20107 18.7372 4.83696 19.0006 5.5 19.0006H18.5C19.163 19.0006 19.7989 18.7372 20.2678 18.2684C20.7366 17.7995 21 17.1637 21 16.5006V7.50061C21 6.83757 20.7366 6.20168 20.2678 5.73284C19.7989 5.264 19.163 5.00061 18.5 5.00061H5.5Z" fill="#374957"/>
<path d="M17.5001 12H11.5001C11.1023 12 10.7208 11.842 10.4395 11.5607C10.1582 11.2794 10.0001 10.8978 10.0001 10.5C10.0001 10.1022 10.1582 9.72064 10.4395 9.43934C10.7208 9.15804 11.1023 9 11.5001 9H17.5001C17.8979 9 18.2795 9.15804 18.5608 9.43934C18.8421 9.72064 19.0001 10.1022 19.0001 10.5C19.0001 10.8978 18.8421 11.2794 18.5608 11.5607C18.2795 11.842 17.8979 12 17.5001 12Z" fill="#374957"/>
<path d="M12.4999 17.0006H6.49988C6.10205 17.0006 5.72052 16.8426 5.43922 16.5613C5.15791 16.28 4.99988 15.8984 4.99988 15.5006C4.99988 15.1028 5.15791 14.7213 5.43922 14.4399C5.72052 14.1586 6.10205 14.0006 6.49988 14.0006H12.4999C12.8977 14.0006 13.2792 14.1586 13.5605 14.4399C13.8418 14.7213 13.9999 15.1028 13.9999 15.5006C13.9999 15.8984 13.8418 16.28 13.5605 16.5613C13.2792 16.8426 12.8977 17.0006 12.4999 17.0006Z" fill="#374957"/>
<path d="M6.49988 12C7.32831 12 7.99988 11.3284 7.99988 10.5C7.99988 9.67157 7.32831 9 6.49988 9C5.67145 9 4.99988 9.67157 4.99988 10.5C4.99988 11.3284 5.67145 12 6.49988 12Z" fill="#374957"/>
<path d="M17.5001 17.0092C18.3285 17.0092 19.0001 16.3376 19.0001 15.5092C19.0001 14.6807 18.3285 14.0092 17.5001 14.0092C16.6717 14.0092 16.0001 14.6807 16.0001 15.5092C16.0001 16.3376 16.6717 17.0092 17.5001 17.0092Z" fill="#374957"/>
</g>
<defs>
<clipPath id="clip0_405_1753">
<rect width="24" height="24" fill="white"/>
</clipPath>
</defs>
</svg>
