<svg width="24" height="24" viewBox="0 0 24 24" fill="none" xmlns="http://www.w3.org/2000/svg">
<g clip-path="url(#clip0_405_1783)">
<path d="M24 10C24 9.60218 23.842 9.22064 23.5607 8.93934C23.2794 8.65804 22.8978 8.5 22.5 8.5H21.032L20.253 5.87C19.9377 4.84685 19.3284 3.93901 18.5011 3.25944C17.6738 2.57987 16.6649 2.15859 15.6 2.048C15.2535 1.4282 14.7482 0.91182 14.1361 0.551898C13.524 0.191976 12.8271 0.00148754 12.117 0L11.883 0C11.1732 0.000361281 10.4762 0.189941 9.86405 0.549214C9.25184 0.908486 8.74648 1.42446 8.4 2.044C7.32212 2.14627 6.29887 2.56629 5.46 3.25081C4.62112 3.93534 4.00439 4.85354 3.688 5.889L2.916 8.5H1.5C1.10218 8.5 0.720644 8.65804 0.43934 8.93934C0.158035 9.22064 0 9.60218 0 10C0 10.3978 0.158035 10.7794 0.43934 11.0607C0.720644 11.342 1.10218 11.5 1.5 11.5H2.028L1.551 13.128C0.956688 13.6395 0.507709 14.2987 0.249309 15.039C-0.0090919 15.7794 -0.067784 16.5747 0.0791473 17.345C0.226078 18.1152 0.573441 18.8331 1.08623 19.4264C1.59902 20.0196 2.25912 20.4672 3 20.724V22C3 22.5304 3.21071 23.0391 3.58579 23.4142C3.96086 23.7893 4.46957 24 5 24C5.53043 24 6.03914 23.7893 6.41421 23.4142C6.78929 23.0391 7 22.5304 7 22V21H17V22C17 22.5304 17.2107 23.0391 17.5858 23.4142C17.9609 23.7893 18.4696 24 19 24C19.5304 24 20.0391 23.7893 20.4142 23.4142C20.7893 23.0391 21 22.5304 21 22V20.724C21.7475 20.465 22.4126 20.0119 22.9272 19.4111C23.4418 18.8103 23.7873 18.0835 23.9284 17.3051C24.0694 16.5267 24.0009 15.7249 23.7299 14.9817C23.4588 14.2385 22.995 13.5808 22.386 13.076L21.92 11.5H22.5C22.8978 11.5 23.2794 11.342 23.5607 11.0607C23.842 10.7794 24 10.3978 24 10ZM6.56 6.758C6.71649 6.24758 7.03307 5.80106 7.46293 5.48447C7.8928 5.16788 8.41313 4.99802 8.947 5H15C15.5309 4.99711 16.0488 5.16456 16.4775 5.47774C16.9063 5.79092 17.2233 6.23334 17.382 6.74L18.939 12H5.008L6.56 6.758ZM19.5 18H4.5C4.10218 18 3.72064 17.842 3.43934 17.5607C3.15804 17.2794 3 16.8978 3 16.5C3 16.1022 3.15804 15.7206 3.43934 15.4393C3.72064 15.158 4.10218 15 4.5 15H5V15.5C5 15.8978 5.15804 16.2794 5.43934 16.5607C5.72064 16.842 6.10218 17 6.5 17C6.89782 17 7.27936 16.842 7.56066 16.5607C7.84196 16.2794 8 15.8978 8 15.5V15H16V15.5C16 15.8978 16.158 16.2794 16.4393 16.5607C16.7206 16.842 17.1022 17 17.5 17C17.8978 17 18.2794 16.842 18.5607 16.5607C18.842 16.2794 19 15.8978 19 15.5V15H19.5C19.8978 15 20.2794 15.158 20.5607 15.4393C20.842 15.7206 21 16.1022 21 16.5C21 16.8978 20.842 17.2794 20.5607 17.5607C20.2794 17.842 19.8978 18 19.5 18Z" fill="#374957"/>
</g>
<defs>
<clipPath id="clip0_405_1783">
<rect width="24" height="24" fill="white"/>
</clipPath>
</defs>
</svg>
