<svg width="24" height="24" viewBox="0 0 24 24" fill="none" xmlns="http://www.w3.org/2000/svg">
<g clip-path="url(#clip0_405_1422)">
<path d="M19.9999 9.00026H18.3739L14.3149 1.83626C13.9974 1.23585 13.5106 0.741846 12.9149 0.415481C12.3192 0.0891152 11.6409 -0.0552574 10.9639 0.000260585C10.4932 0.0116747 10.0313 0.130172 9.61316 0.346758C9.19506 0.563345 8.8318 0.872329 8.55093 1.25026C8.25386 1.64605 8.05484 2.10662 7.97018 2.59421C7.88553 3.08179 7.91766 3.5825 8.06394 4.05526L9.70494 9.00026H8.12294C7.79437 9.00089 7.46893 8.93654 7.16534 8.81092C6.86174 8.68529 6.58598 8.50087 6.35393 8.26826L4.93693 6.85126C4.4996 6.41371 3.93421 6.12693 3.32282 6.03252C2.71144 5.93812 2.08587 6.04101 1.53693 6.32626C1.19658 6.50197 0.895695 6.74533 0.652723 7.04144C0.409751 7.33755 0.229812 7.68015 0.123934 8.04826C-0.0985072 8.80326 -0.0185348 9.61517 0.346934 10.3123C0.346934 10.3123 1.98193 14.1773 2.01193 14.2293C2.49401 15.0701 3.18926 15.769 4.02759 16.2555C4.86591 16.742 5.81768 16.9989 6.78693 17.0003H9.45494L8.19993 19.7713C8.0226 20.2448 7.9626 20.7543 8.02509 21.2561C8.08757 21.758 8.27067 22.2372 8.55873 22.6528C8.84679 23.0684 9.23123 23.4081 9.67918 23.6427C10.1271 23.8774 10.6252 24.0001 11.1309 24.0003C11.7409 24.0003 12.3402 23.841 12.8696 23.5381C13.3989 23.2351 13.84 22.7991 14.1489 22.2733L17.9899 17.0003H19.9999C21.0608 17.0003 22.0782 16.5788 22.8284 15.8287C23.5785 15.0785 23.9999 14.0611 23.9999 13.0003C23.9999 11.9394 23.5785 10.922 22.8284 10.1718C22.0782 9.42169 21.0608 9.00026 19.9999 9.00026ZM10.9289 3.16526C10.9239 3.14826 10.8999 3.00026 11.0529 3.00026H11.2449C11.3385 2.99629 11.431 3.0211 11.5101 3.07134C11.5891 3.12159 11.6508 3.19485 11.6869 3.28126L14.9259 9.00026H12.8649L10.9289 3.16526ZM19.9999 14.0003H17.2269C16.9906 14.0004 16.7576 14.0563 16.547 14.1635C16.3364 14.2707 16.1541 14.4262 16.0149 14.6173C16.0149 14.6173 11.5999 20.6833 11.5699 20.7393C11.527 20.8182 11.4635 20.8841 11.3863 20.93C11.309 20.976 11.2208 21.0002 11.1309 21.0003C10.9699 21.0003 10.9979 20.8793 10.9919 20.8793L13.1459 16.1193C13.2494 15.8908 13.294 15.6401 13.2756 15.3899C13.2571 15.1398 13.1762 14.8983 13.0404 14.6875C12.9045 14.4767 12.7179 14.3034 12.4977 14.1833C12.2775 14.0633 12.0307 14.0003 11.7799 14.0003H6.78693C6.35987 13.9995 5.94006 13.8897 5.56731 13.6813C5.19455 13.4729 4.8812 13.1727 4.65693 12.8093L3.19993 9.35426L4.23393 10.3893C4.74358 10.9014 5.34968 11.3075 6.0172 11.584C6.68471 11.8605 7.40041 12.002 8.12294 12.0003H19.9999C20.2652 12.0003 20.5195 12.1056 20.707 12.2932C20.8946 12.4807 20.9999 12.735 20.9999 13.0003C20.9999 13.2655 20.8946 13.5198 20.707 13.7074C20.5195 13.8949 20.2652 14.0003 19.9999 14.0003Z" fill="#374957"/>
</g>
<defs>
<clipPath id="clip0_405_1422">
<rect width="24" height="24" fill="white"/>
</clipPath>
</defs>
</svg>
