<svg width="24" height="24" viewBox="0 0 24 24" fill="none" xmlns="http://www.w3.org/2000/svg">
<g clip-path="url(#clip0_405_1732)">
<path d="M19.9998 14.141V12C19.9977 10.5978 19.627 9.22075 18.925 8.00692C18.223 6.79309 17.2142 5.78511 15.9998 5.084V4C15.9998 2.93913 15.5784 1.92172 14.8283 1.17157C14.0781 0.421427 13.0607 0 11.9998 0C10.939 0 9.92157 0.421427 9.17142 1.17157C8.42127 1.92172 7.99985 2.93913 7.99985 4V5.084C6.78548 5.78511 5.77673 6.79309 5.07469 8.00692C4.37265 9.22075 4.00199 10.5978 3.99985 12V14.141C3.14278 14.3607 2.38301 14.859 1.83997 15.5575C1.29692 16.256 1.0014 17.1152 0.999847 18V20C0.999847 21.0609 1.42127 22.0783 2.17142 22.8284C2.92157 23.5786 3.93898 24 4.99985 24H18.9998C20.0607 24 21.0781 23.5786 21.8283 22.8284C22.5784 22.0783 22.9998 21.0609 22.9998 20V18C22.9983 17.1152 22.7028 16.256 22.1597 15.5575C21.6167 14.859 20.8569 14.3607 19.9998 14.141ZM16.9998 21H6.99985V20.742C7.53571 19.9016 8.27474 19.2099 9.14865 18.7307C10.0226 18.2515 11.0032 18.0002 11.9998 18.0002C12.9965 18.0002 13.9771 18.2515 14.851 18.7307C15.725 19.2099 16.464 19.9016 16.9998 20.742V21ZM16.9998 16.537C15.5248 15.5353 13.7829 14.9997 11.9998 14.9997C10.2168 14.9997 8.4749 15.5353 6.99985 16.537V12C6.99985 10.6739 7.52663 9.40215 8.46431 8.46447C9.402 7.52678 10.6738 7 11.9998 7C13.3259 7 14.5977 7.52678 15.5354 8.46447C16.4731 9.40215 16.9998 10.6739 16.9998 12V16.537ZM14.9998 11.5C14.9998 11.8978 14.8418 12.2794 14.5605 12.5607C14.2792 12.842 13.8977 13 13.4998 13H10.4998C10.102 13 9.72049 12.842 9.43919 12.5607C9.15788 12.2794 8.99985 11.8978 8.99985 11.5C8.99985 11.1022 9.15788 10.7206 9.43919 10.4393C9.72049 10.158 10.102 10 10.4998 10H13.4998C13.8977 10 14.2792 10.158 14.5605 10.4393C14.8418 10.7206 14.9998 11.1022 14.9998 11.5Z" fill="#374957"/>
</g>
<defs>
<clipPath id="clip0_405_1732">
<rect width="24" height="24" fill="white"/>
</clipPath>
</defs>
</svg>
