<svg width="24" height="24" viewBox="0 0 24 24" fill="none" xmlns="http://www.w3.org/2000/svg">
<g clip-path="url(#clip0_405_1486)">
<path d="M19.847 7.1C19.033 0.6 15.009 0.016 14.963 0.011C14.9036 0.0038182 14.8438 0.000145154 14.784 0C13.7646 0.0435045 12.7807 0.387225 11.956 0.988C11.1659 0.382039 10.207 0.0367639 9.212 0C9.15283 0.00017269 9.09373 0.00384577 9.035 0.011C8.99 0.016 4.967 0.6 4.153 7.1C2.724 7.563 0 8.708 0 10.714C0 14.669 6.194 15 12 15C17.806 15 24 14.669 24 10.714C24 8.708 21.276 7.563 19.847 7.1ZM7 10.336V9.5C7 4.439 8.843 3.255 9.358 3.023C9.63702 3.07755 9.89999 3.19484 10.127 3.366C10.6643 3.77843 11.3227 4.00199 12 4.00199C12.6773 4.00199 13.3357 3.77843 13.873 3.366C14.0998 3.19551 14.3619 3.07796 14.64 3.022C15.152 3.252 17 4.434 17 9.5V10.336C15.3743 10.7985 13.69 11.0222 12 11C10.31 11.0222 8.62567 10.7985 7 10.336ZM21 20C21.0035 20.956 20.6637 21.8814 20.0422 22.6079C19.4208 23.3343 18.5591 23.8134 17.6141 23.9579C16.6691 24.1025 15.7037 23.9028 14.8935 23.3953C14.0833 22.8879 13.4824 22.1063 13.2 21.193C12.8079 21.0865 12.4057 21.0218 12 21C11.5943 21.0218 11.1921 21.0865 10.8 21.193C10.5237 22.0778 9.94864 22.8391 9.17319 23.3469C8.39773 23.8547 7.46999 24.0774 6.54852 23.977C5.62705 23.8766 4.76906 23.4593 4.12119 22.7963C3.47332 22.1334 3.07578 21.2661 2.99653 20.3426C2.91727 19.419 3.16121 18.4967 3.68666 17.733C4.21212 16.9694 4.98645 16.412 5.87734 16.1561C6.76822 15.9001 7.72035 15.9615 8.57098 16.3298C9.42162 16.698 10.118 17.3502 10.541 18.175C11.0205 18.0692 11.5091 18.0106 12 18C12.4915 18.0105 12.9809 18.0691 13.461 18.175C13.8683 17.3761 14.5329 16.7379 15.3477 16.3633C16.1624 15.9888 17.0796 15.8998 17.9511 16.1108C18.8226 16.3218 19.5975 16.8204 20.1508 17.5261C20.704 18.2317 21.0032 19.1033 21 20Z" fill="#374957"/>
</g>
<defs>
<clipPath id="clip0_405_1486">
<rect width="24" height="24" fill="white"/>
</clipPath>
</defs>
</svg>
