<svg width="24" height="24" viewBox="0 0 24 24" fill="none" xmlns="http://www.w3.org/2000/svg">
<g clip-path="url(#clip0_405_1482)">
<path d="M18 6C15.31 6 13.244 7.855 12 9.37C10.756 7.855 8.69 6 6 6C4.4087 6 2.88258 6.63214 1.75736 7.75736C0.632141 8.88258 0 10.4087 0 12C0 13.5913 0.632141 15.1174 1.75736 16.2426C2.88258 17.3679 4.4087 18 6 18C8.69 18 10.756 16.145 12 14.63C13.244 16.145 15.31 18 18 18C19.5913 18 21.1174 17.3679 22.2426 16.2426C23.3679 15.1174 24 13.5913 24 12C24 10.4087 23.3679 8.88258 22.2426 7.75736C21.1174 6.63214 19.5913 6 18 6ZM6 15C5.20435 15 4.44129 14.6839 3.87868 14.1213C3.31607 13.5587 3 12.7956 3 12C3 11.2044 3.31607 10.4413 3.87868 9.87868C4.44129 9.31607 5.20435 9 6 9C7.791 9 9.4 10.783 10.239 12C9.4 13.217 7.791 15 6 15ZM18 15C16.209 15 14.6 13.217 13.761 12C14.6 10.783 16.209 9 18 9C18.7956 9 19.5587 9.31607 20.1213 9.87868C20.6839 10.4413 21 11.2044 21 12C21 12.7956 20.6839 13.5587 20.1213 14.1213C19.5587 14.6839 18.7956 15 18 15Z" fill="#374957"/>
</g>
<defs>
<clipPath id="clip0_405_1482">
<rect width="24" height="24" fill="white"/>
</clipPath>
</defs>
</svg>
