<svg width="24" height="24" viewBox="0 0 24 24" fill="none" xmlns="http://www.w3.org/2000/svg">
<g clip-path="url(#clip0_405_1706)">
<path d="M20.544 14.01C21.0013 13.6535 21.3704 13.1967 21.6229 12.6747C21.8754 12.1528 22.0044 11.5798 22 11C22 8.621 20.058 7 16.548 6.338C16.8505 5.77297 17.0059 5.14089 17 4.5C17 1.767 14.448 0 10.5 0C6.552 0 4 1.767 4 4.5C3.9944 5.04004 4.10427 5.57503 4.32227 6.06915C4.54027 6.56326 4.86135 7.00508 5.264 7.365C4.58152 7.69481 4.00656 8.21138 3.60583 8.85478C3.2051 9.49818 2.99503 10.242 3 11C2.99199 11.5161 3.08811 12.0286 3.28261 12.5068C3.4771 12.9849 3.76599 13.419 4.132 13.783C1.8 14.5 0 15.863 0 18.5C0 24 7.806 24 12 24C16.194 24 24 24 24 18.5C24 16.123 22.539 14.776 20.544 14.01ZM19 11C19 11.97 16.722 13 12.5 13C8.551 13 6 12.215 6 11C6 9.785 8.551 9 12.5 9C16.722 9 19 10.03 19 11ZM10.5 3C12.186 3 14 3.469 14 4.5C14 5.531 12.186 6 10.5 6C8.814 6 7 5.531 7 4.5C7 3.469 8.814 3 10.5 3ZM12 21C5.776 21 3 20.229 3 18.5C3 16.771 5.776 16 12 16C18.224 16 21 16.771 21 18.5C21 20.229 18.225 21 12 21Z" fill="#374957"/>
</g>
<defs>
<clipPath id="clip0_405_1706">
<rect width="24" height="24" fill="white"/>
</clipPath>
</defs>
</svg>
