<svg width="24" height="24" viewBox="0 0 24 24" fill="none" xmlns="http://www.w3.org/2000/svg">
<g clip-path="url(#clip0_405_1578)">
<path d="M16.773 2.89961C16.026 2.26561 15.243 1.59961 14.446 0.875607C14.083 0.544487 13.6516 0.297173 13.1825 0.151156C12.7133 0.00513911 12.2178 -0.0360142 11.731 0.0306066C11.2575 0.0925388 10.8033 0.257621 10.4006 0.514206C9.9978 0.770792 9.65624 1.11263 9.39999 1.51561C8.45001 3.07615 7.73374 4.76744 7.27399 6.53561C7.05567 6.24531 6.77572 6.007 6.45428 5.83784C6.13285 5.66867 5.77791 5.57285 5.41501 5.55726C5.05211 5.54167 4.69027 5.60671 4.35551 5.74769C4.02075 5.88867 3.7214 6.1021 3.47899 6.37261C1.78386 8.10616 0.845276 10.4411 0.868993 12.8656C0.846455 15.3261 1.64777 17.7235 3.14536 19.6759C4.64294 21.6284 6.75069 23.0237 9.13299 23.6396C10.0668 23.8771 11.0264 23.998 11.99 23.9996C13.4522 24.0016 14.9004 23.7152 16.2517 23.1569C17.6031 22.5986 18.8311 21.7793 19.8655 20.7459C20.9 19.7125 21.7205 18.4853 22.2801 17.1345C22.8397 15.7837 23.1275 14.3358 23.127 12.8736C23.127 8.29961 20.183 5.79961 16.773 2.89961ZM16.991 19.2856C16.7049 19.5057 16.4042 19.7062 16.091 19.8856C16.3779 19.2864 16.5282 18.631 16.531 17.9666C16.531 16.0396 15.188 13.8026 13.531 11.8416C13.3409 11.6191 13.1048 11.4405 12.8391 11.318C12.5733 11.1955 12.2841 11.1321 11.9915 11.1321C11.6989 11.1321 11.4097 11.1955 11.1439 11.318C10.8782 11.4405 10.6421 11.6191 10.452 11.8416C8.09999 14.5996 6.62699 17.5816 7.99999 19.9996C6.73731 19.2894 5.6882 18.2536 4.96198 17.0001C4.23575 15.7466 3.85901 14.3212 3.87099 12.8726C3.83997 11.4538 4.31699 10.0707 5.21599 8.97261C5.35733 9.20461 5.50899 9.42894 5.67099 9.64561C5.93853 10.0068 6.30607 10.2818 6.72816 10.4364C7.15026 10.591 7.60841 10.6186 8.04599 10.5156C8.48988 10.4166 8.89579 10.1917 9.21506 9.86784C9.53433 9.54396 9.75339 9.13486 9.84599 8.68961C10.2156 6.72691 10.9231 4.84328 11.937 3.12261C11.9578 3.08844 11.9862 3.05955 12.0201 3.03821C12.0539 3.01687 12.0922 3.00366 12.132 2.99961C12.185 2.9927 12.2388 2.99745 12.2898 3.01351C12.3407 3.02957 12.3876 3.05657 12.427 3.09261C13.251 3.84161 14.06 4.52961 14.832 5.18361C18.021 7.89161 20.127 9.68361 20.127 12.8696C20.1311 14.1082 19.8504 15.3311 19.3066 16.4439C18.7629 17.5568 17.9706 18.5297 16.991 19.2876V19.2856Z" fill="#374957"/>
</g>
<defs>
<clipPath id="clip0_405_1578">
<rect width="24" height="24" fill="white"/>
</clipPath>
</defs>
</svg>
