<svg width="24" height="24" viewBox="0 0 24 24" fill="none" xmlns="http://www.w3.org/2000/svg">
<g clip-path="url(#clip0_405_1355)">
<path d="M19.9999 11.0006C18.939 11.0006 17.9216 11.422 17.1714 12.1722C16.4213 12.9223 15.9999 13.9397 15.9999 15.0006V20.0006C15.9999 21.0615 16.4213 22.0789 17.1714 22.829C17.9216 23.5792 18.939 24.0006 19.9999 24.0006C21.0607 24.0006 22.0781 23.5792 22.8283 22.829C23.5784 22.0789 23.9999 21.0615 23.9999 20.0006V15.0006C23.9999 13.9397 23.5784 12.9223 22.8283 12.1722C22.0781 11.422 21.0607 11.0006 19.9999 11.0006ZM20.9999 20.0006C20.9999 20.2658 20.8945 20.5202 20.707 20.7077C20.5194 20.8953 20.2651 21.0006 19.9999 21.0006C19.7347 21.0006 19.4803 20.8953 19.2928 20.7077C19.1052 20.5202 18.9999 20.2658 18.9999 20.0006V15.0006C18.9999 14.7354 19.1052 14.481 19.2928 14.2935C19.4803 14.106 19.7347 14.0006 19.9999 14.0006C20.2651 14.0006 20.5194 14.106 20.707 14.2935C20.8945 14.481 20.9999 14.7354 20.9999 15.0006V20.0006Z" fill="#374957"/>
<path d="M22.2932 2.70744L20.9702 4.03044C19.0084 1.82256 16.3014 0.415697 13.3671 0.0791195C10.4329 -0.257458 7.47754 0.499895 5.06682 2.20622C2.6561 3.91254 0.959324 6.44797 0.301255 9.32722C-0.356813 12.2065 0.070056 15.2273 1.50016 17.8114C1.5957 17.9837 1.72423 18.1355 1.87843 18.2581C2.03263 18.3808 2.20947 18.4718 2.39886 18.5261C2.58824 18.5804 2.78646 18.5968 2.9822 18.5745C3.17794 18.5521 3.36737 18.4915 3.53966 18.3959C3.71195 18.3004 3.86374 18.1719 3.98636 18.0177C4.10898 17.8635 4.20003 17.6866 4.2543 17.4972C4.30858 17.3079 4.32502 17.1096 4.30269 16.9139C4.28036 16.7182 4.2197 16.5287 4.12416 16.3564C3.04312 14.4061 2.72531 12.1237 3.23241 9.95226C3.73951 7.78081 5.03535 5.87523 6.86838 4.60544C8.70141 3.33566 10.9409 2.79225 13.152 3.0807C15.3631 3.36915 17.3882 4.46889 18.8342 6.16644L17.7072 7.29344C17.5674 7.43329 17.4721 7.61145 17.4336 7.8054C17.395 7.99936 17.4148 8.20039 17.4905 8.38309C17.5662 8.56579 17.6943 8.72195 17.8587 8.83184C18.0231 8.94172 18.2164 9.00039 18.4142 9.00044H23.0002C23.2654 9.00044 23.5197 8.89508 23.7073 8.70754C23.8948 8.52001 24.0002 8.26565 24.0002 8.00044V3.41444C24.0001 3.21669 23.9414 3.02339 23.8316 2.85898C23.7217 2.69457 23.5655 2.56643 23.3828 2.49076C23.2001 2.41509 22.9991 2.39528 22.8051 2.43385C22.6112 2.47242 22.433 2.56763 22.2932 2.70744Z" fill="#374957"/>
<path d="M12.574 11.1137C12.2999 11.0001 11.9982 10.9703 11.7072 11.0282C11.4162 11.086 11.1488 11.2289 10.939 11.4387L7.18899 15.1887C6.9076 15.4701 6.74951 15.8517 6.74951 16.2497C6.74951 16.6476 6.9076 17.0293 7.18899 17.3107C7.47039 17.5921 7.85204 17.7502 8.24999 17.7502C8.64794 17.7502 9.0296 17.5921 9.31099 17.3107L10.5 16.1207V22.4997C10.5 22.8975 10.658 23.279 10.9393 23.5603C11.2206 23.8416 11.6022 23.9997 12 23.9997C12.3978 23.9997 12.7793 23.8416 13.0607 23.5603C13.342 23.279 13.5 22.8975 13.5 22.4997V12.4997C13.5 12.203 13.4121 11.913 13.2472 11.6662C13.0824 11.4195 12.8481 11.2272 12.574 11.1137Z" fill="#374957"/>
</g>
<defs>
<clipPath id="clip0_405_1355">
<rect width="24" height="24" fill="white"/>
</clipPath>
</defs>
</svg>
