<svg width="24" height="24" viewBox="0 0 24 24" fill="none" xmlns="http://www.w3.org/2000/svg">
<g clip-path="url(#clip0_405_1371)">
<path d="M14.122 24H9.87702C7.57711 24.0089 5.36584 23.1135 3.72002 21.507C2.04883 19.824 0.829201 17.7465 0.174021 15.467C-0.0135371 14.8322 -0.0505682 14.1623 0.0658658 13.5107C0.1823 12.8591 0.448995 12.2435 0.844792 11.7129C1.24059 11.1823 1.7546 10.7512 2.34603 10.4539C2.93747 10.1566 3.59006 10.0012 4.25202 10H19.752C20.4124 10.0059 21.0624 10.1644 21.6514 10.4631C22.2404 10.7618 22.7523 11.1927 23.1472 11.722C23.5422 12.2513 23.8094 12.8647 23.928 13.5144C24.0466 14.164 24.0134 14.8323 23.831 15.467C23.1749 17.7466 21.9546 19.8239 20.283 21.507C18.6364 23.1148 16.4234 24.0103 14.122 24ZM4.25202 13C4.05758 12.9978 3.86541 13.042 3.69149 13.1289C3.51756 13.2159 3.3669 13.3431 3.25202 13.5C3.13265 13.6592 3.05235 13.8442 3.01761 14.0402C2.98287 14.2361 2.99466 14.4375 3.05202 14.628C3.57084 16.4193 4.52724 18.0534 5.83502 19.383C6.91799 20.4315 8.36971 21.0122 9.87702 21H14.122C15.6288 21.0114 17.0797 20.4304 18.162 19.382C19.4704 18.0522 20.4275 16.4178 20.947 14.626C21.0044 14.4355 21.0162 14.2341 20.9814 14.0382C20.9467 13.8422 20.8664 13.6572 20.747 13.498C20.6321 13.3411 20.4815 13.2139 20.3076 13.1269C20.1336 13.04 19.9415 12.9958 19.747 12.998L4.25202 13ZM17 6.5C17.0181 5.14231 16.5007 3.83213 15.56 2.853C15.3752 2.68077 15.2295 2.47083 15.1329 2.23739C15.0363 2.00395 14.991 1.75248 15 1.5C15 1.10218 14.842 0.720644 14.5607 0.43934C14.2794 0.158035 13.8978 0 13.5 0V0C13.1022 0 12.7207 0.158035 12.4394 0.43934C12.1581 0.720644 12 1.10218 12 1.5C11.9914 2.14629 12.1145 2.78756 12.3619 3.38468C12.6093 3.9818 12.9758 4.52223 13.439 4.973C13.816 5.39055 14.0171 5.93768 14 6.5C14 6.89782 14.1581 7.27936 14.4394 7.56066C14.7207 7.84196 15.1022 8 15.5 8C15.8978 8 16.2794 7.84196 16.5607 7.56066C16.842 7.27936 17 6.89782 17 6.5ZM12 7.5V7.192C12.0002 6.54678 11.8733 5.90786 11.6263 5.31176C11.3794 4.71566 11.0174 4.17408 10.561 3.718C10.3825 3.54069 10.241 3.3297 10.1447 3.09727C10.0484 2.86484 9.99923 2.61559 10 2.364V1.5C10 1.10218 9.84199 0.720644 9.56068 0.43934C9.27938 0.158035 8.89785 0 8.50002 0C8.1022 0 7.72067 0.158035 7.43936 0.43934C7.15806 0.720644 7.00002 1.10218 7.00002 1.5V2.364C6.99833 3.00967 7.12473 3.64927 7.3719 4.24576C7.61908 4.84224 7.98213 5.38378 8.44002 5.839C8.62296 6.01269 8.76735 6.2229 8.86382 6.45598C8.96029 6.68907 9.0067 6.93983 9.00002 7.192V7.5C9.00002 7.89782 9.15806 8.27936 9.43936 8.56066C9.72066 8.84196 10.1022 9 10.5 9C10.8978 9 11.2794 8.84196 11.5607 8.56066C11.842 8.27936 12 7.89782 12 7.5Z" fill="#374957"/>
</g>
<defs>
<clipPath id="clip0_405_1371">
<rect width="24" height="24" fill="white"/>
</clipPath>
</defs>
</svg>
