<svg width="24" height="24" viewBox="0 0 24 24" fill="none" xmlns="http://www.w3.org/2000/svg">
<g clip-path="url(#clip0_405_1609)">
<path d="M21.005 3.5C20.6296 2.47523 19.949 1.59024 19.0549 0.964389C18.1609 0.338539 17.0964 0.00194216 16.005 0L7.992 0C6.90201 0.00357573 5.83928 0.340932 4.94679 0.966672C4.05431 1.59241 3.3749 2.47651 3 3.5L0.416 10.59C0.140524 11.3477 -0.000265285 12.1478 3.75259e-07 12.954V15.682C0.00306555 16.6774 0.285994 17.6518 0.816474 18.494C1.34695 19.3362 2.1036 20.0123 3 20.445V22C3 22.5304 3.21071 23.0391 3.58579 23.4142C3.96086 23.7893 4.46957 24 5 24C5.53043 24 6.03914 23.7893 6.41421 23.4142C6.78929 23.0391 7 22.5304 7 22V21H17V22C17 22.5304 17.2107 23.0391 17.5858 23.4142C17.9609 23.7893 18.4696 24 19 24C19.5304 24 20.0391 23.7893 20.4142 23.4142C20.7893 23.0391 21 22.5304 21 22V20.445C21.8964 20.0123 22.653 19.3362 23.1835 18.494C23.714 17.6518 23.9969 16.6774 24 15.682V12.954C24.0003 12.1478 23.8595 11.3477 23.584 10.59L21.005 3.5ZM5.813 4.526C5.97672 4.07944 6.27335 3.69377 6.66294 3.42093C7.05253 3.14809 7.51637 3.00118 7.992 3H16.008C16.4836 3.00118 16.9475 3.14809 17.3371 3.42093C17.7267 3.69377 18.0233 4.07944 18.187 4.526L20.54 11H3.46L5.813 4.526ZM18.682 18H5.318C4.70347 17.9992 4.11434 17.7547 3.6798 17.3202C3.24527 16.8857 3.00079 16.2965 3 15.682V14H5V14.5C5 14.8978 5.15804 15.2794 5.43934 15.5607C5.72064 15.842 6.10218 16 6.5 16C6.89783 16 7.27936 15.842 7.56066 15.5607C7.84197 15.2794 8 14.8978 8 14.5V14H16V14.5C16 14.8978 16.158 15.2794 16.4393 15.5607C16.7206 15.842 17.1022 16 17.5 16C17.8978 16 18.2794 15.842 18.5607 15.5607C18.842 15.2794 19 14.8978 19 14.5V14H21V15.682C20.9992 16.2965 20.7547 16.8857 20.3202 17.3202C19.8857 17.7547 19.2965 17.9992 18.682 18Z" fill="#374957"/>
</g>
<defs>
<clipPath id="clip0_405_1609">
<rect width="24" height="24" fill="white"/>
</clipPath>
</defs>
</svg>
