<svg width="24" height="24" viewBox="0 0 24 24" fill="none" xmlns="http://www.w3.org/2000/svg">
<g clip-path="url(#clip0_405_1387)">
<path d="M21 10.2564V5.49939C20.9987 4.30632 20.5241 3.1625 19.6805 2.31887C18.8369 1.47524 17.6931 1.00071 16.5 0.99939H4.5C3.30693 1.00071 2.16311 1.47524 1.31948 2.31887C0.475854 3.1625 0.00132343 4.30632 0 5.49939L0 16.4994C0.00338218 17.3386 0.308182 18.1486 0.858852 18.7819C1.40952 19.4152 2.1694 19.8295 3 19.9494V19.9994C3 20.795 3.31607 21.5581 3.87868 22.1207C4.44129 22.6833 5.20435 22.9994 6 22.9994C6.79565 22.9994 7.55871 22.6833 8.12132 22.1207C8.68393 21.5581 9 20.795 9 19.9994H15C15 20.795 15.3161 21.5581 15.8787 22.1207C16.4413 22.6833 17.2044 22.9994 18 22.9994C18.7956 22.9994 19.5587 22.6833 20.1213 22.1207C20.6839 21.5581 21 20.795 21 19.9994C21 19.9824 21 19.9664 21 19.9494C21.8306 19.8295 22.5905 19.4152 23.1411 18.7819C23.6918 18.1486 23.9966 17.3386 24 16.4994V14.4994C23.9989 13.569 23.71 12.6618 23.1729 11.9021C22.6358 11.1425 21.8768 10.5676 21 10.2564ZM3 5.99939H6V9.99939H3V5.99939ZM9 5.99939H12V16.9994H9V5.99939ZM15 5.99939H18V9.99939H15V5.99939ZM3 12.9994H6V16.9994H3.5C3.36739 16.9994 3.24021 16.9467 3.14645 16.8529C3.05268 16.7592 3 16.632 3 16.4994V12.9994ZM21 16.4994C21 16.632 20.9473 16.7592 20.8536 16.8529C20.7598 16.9467 20.6326 16.9994 20.5 16.9994H15V12.9994H19.5C19.8978 12.9994 20.2794 13.1574 20.5607 13.4387C20.842 13.72 21 14.1016 21 14.4994V16.4994Z" fill="#374957"/>
</g>
<defs>
<clipPath id="clip0_405_1387">
<rect width="24" height="24" fill="white"/>
</clipPath>
</defs>
</svg>
