<svg width="24" height="24" viewBox="0 0 24 24" fill="none" xmlns="http://www.w3.org/2000/svg">
<g clip-path="url(#clip0_405_1413)">
<path d="M22.5 20.9997C22.1022 20.9997 21.7206 20.8417 21.4393 20.5604C21.158 20.2791 21 19.8975 21 19.4997V14.9997C20.526 3.06571 3.47 3.07471 3 14.9997V19.4997C3 19.8975 2.84196 20.2791 2.56066 20.5604C2.27936 20.8417 1.89782 20.9997 1.5 20.9997C1.10218 20.9997 0.720644 20.8417 0.43934 20.5604C0.158035 20.2791 0 19.8975 0 19.4997L0 14.9997C0.661 -0.92429 23.345 -0.91129 24 14.9997V19.4997C24 19.8975 23.842 20.2791 23.5607 20.5604C23.2794 20.8417 22.8978 20.9997 22.5 20.9997ZM19 19.4997V14.9997C18.67 5.73271 5.327 5.73971 5 14.9997V19.4997C5 19.8975 5.15804 20.2791 5.43934 20.5604C5.72064 20.8417 6.10218 20.9997 6.5 20.9997C6.89782 20.9997 7.27936 20.8417 7.56066 20.5604C7.84196 20.2791 8 19.8975 8 19.4997V14.9997C8 13.9388 8.42143 12.9214 9.17157 12.1713C9.92172 11.4211 10.9391 10.9997 12 10.9997C13.0609 10.9997 14.0783 11.4211 14.8284 12.1713C15.5786 12.9214 16 13.9388 16 14.9997V19.4997C16 19.8975 16.158 20.2791 16.4393 20.5604C16.7206 20.8417 17.1022 20.9997 17.5 20.9997C17.8978 20.9997 18.2794 20.8417 18.5607 20.5604C18.842 20.2791 19 19.8975 19 19.4997ZM14 19.4997V14.9997C14 14.4693 13.7893 13.9606 13.4142 13.5855C13.0391 13.2104 12.5304 12.9997 12 12.9997C11.4696 12.9997 10.9609 13.2104 10.5858 13.5855C10.2107 13.9606 10 14.4693 10 14.9997V19.4997C10 19.8975 10.158 20.2791 10.4393 20.5604C10.7206 20.8417 11.1022 20.9997 11.5 20.9997H12.5C12.8978 20.9997 13.2794 20.8417 13.5607 20.5604C13.842 20.2791 14 19.8975 14 19.4997Z" fill="#374957"/>
</g>
<defs>
<clipPath id="clip0_405_1413">
<rect width="24" height="24" fill="white"/>
</clipPath>
</defs>
</svg>
