<svg width="24" height="24" viewBox="0 0 24 24" fill="none" xmlns="http://www.w3.org/2000/svg">
<g clip-path="url(#clip0_405_1462)">
<path d="M13.24 0.062971C12.2212 -0.0411852 11.1935 -0.0162946 10.181 0.136987C9.40054 0.268565 8.87455 1.00783 9.00613 1.78825C9.02263 1.88913 9.08296 2.08497 9.08296 2.08497C9.29821 2.78078 9.99449 3.21053 10.7129 3.09096C11.1393 3.03049 11.5693 3.00006 11.9999 2.99997V21C11.5693 20.9998 11.1393 20.9695 10.7129 20.909C9.99449 20.7894 9.29816 21.2192 9.08296 21.915L9.04597 22.041C8.81727 22.7951 9.24327 23.592 9.99744 23.8207C10.0531 23.8375 10.1097 23.851 10.167 23.861C10.7736 23.9534 11.3864 23.9999 12 24C18.6274 24.0066 24.0054 18.6394 24.012 12.012C24.0182 5.85545 19.3642 0.692971 13.24 0.062971Z" fill="#374957"/>
<path d="M3.006 17.0769L2.88699 17.1449C2.19736 17.5276 1.9485 18.3968 2.33114 19.0864C2.35964 19.1378 2.39133 19.1874 2.42597 19.2349C3.02428 20.0245 3.71714 20.7378 4.48899 21.3589C5.11402 21.8408 6.01135 21.7248 6.49322 21.0998C6.52791 21.0548 6.65902 20.8419 6.65902 20.8419C7.02764 20.2253 6.88318 19.4311 6.321 18.9839C5.77407 18.5385 5.28136 18.0303 4.85302 17.4699C4.42266 16.8948 3.63319 16.7268 3.006 17.0769Z" fill="#374957"/>
<path d="M6.65903 3.16023L6.58904 3.04323C6.18493 2.36532 5.30781 2.14337 4.6299 2.54743C4.5811 2.57654 4.53404 2.60851 4.48904 2.6432C3.71616 3.26415 3.0226 3.97787 2.42405 4.76818C1.95938 5.40545 2.0993 6.2987 2.73657 6.76337C2.78405 6.79801 3.00005 6.92518 3.00005 6.92518C3.62747 7.27586 4.4176 7.10781 4.84805 6.53218C5.27752 5.97208 5.77088 5.464 6.31806 5.01817C6.88159 4.57211 7.02742 3.77743 6.65903 3.16023Z" fill="#374957"/>
<path d="M3 12.0004C3.00023 11.6478 3.02063 11.2956 3.06098 10.9454C3.15291 10.2329 2.70309 9.56246 2.00897 9.37735L1.87598 9.34233C1.10194 9.14574 0.315094 9.61383 0.1185 10.3879C0.101438 10.455 0.0892031 10.5234 0.0819844 10.5923C-0.0273281 11.5292 -0.0273281 12.4755 0.0819844 13.4123C0.165375 14.2066 0.876844 14.7828 1.67105 14.6994C1.7422 14.692 2.01497 14.6263 2.01497 14.6263C2.70853 14.4412 3.15792 13.7712 3.06595 13.0593C3.02348 12.7079 3.00145 12.3544 3 12.0004Z" fill="#374957"/>
</g>
<defs>
<clipPath id="clip0_405_1462">
<rect width="24" height="24" fill="white"/>
</clipPath>
</defs>
</svg>
