<svg width="24" height="24" viewBox="0 0 24 24" fill="none" xmlns="http://www.w3.org/2000/svg">
<g clip-path="url(#clip0_405_1742)">
<path d="M9 2.5C9 4.22391 8.31518 5.87721 7.09619 7.09619C5.87721 8.31518 4.22391 9 2.5 9H1.5C1.10218 9 0.720644 8.84196 0.43934 8.56066C0.158035 8.27936 0 7.89782 0 7.5C0 7.10218 0.158035 6.72064 0.43934 6.43934C0.720644 6.15804 1.10218 6 1.5 6H2.5C3.42826 6 4.3185 5.63125 4.97487 4.97487C5.63125 4.3185 6 3.42826 6 2.5V1.5C6 1.10218 6.15804 0.720644 6.43934 0.43934C6.72064 0.158035 7.10218 0 7.5 0C7.89782 0 8.27936 0.158035 8.56066 0.43934C8.84196 0.720644 9 1.10218 9 1.5V2.5Z" fill="#374957"/>
<path d="M16.5 24C16.1022 24 15.7206 23.842 15.4393 23.5607C15.158 23.2794 15 22.8978 15 22.5V21.5C15 19.7761 15.6848 18.1228 16.9038 16.9038C18.1228 15.6848 19.7761 15 21.5 15H22.5C22.8978 15 23.2794 15.158 23.5607 15.4393C23.842 15.7206 24 16.1022 24 16.5C24 16.8978 23.842 17.2794 23.5607 17.5607C23.2794 17.842 22.8978 18 22.5 18H21.5C20.5717 18 19.6815 18.3687 19.0251 19.0251C18.3687 19.6815 18 20.5717 18 21.5V22.5C18 22.8978 17.842 23.2794 17.5607 23.5607C17.2794 23.842 16.8978 24 16.5 24Z" fill="#374957"/>
<path d="M22.5 9H21.5C19.7761 9 18.1228 8.31518 16.9038 7.09619C15.6848 5.87721 15 4.22391 15 2.5V1.5C15 1.10218 15.158 0.720644 15.4393 0.43934C15.7206 0.158035 16.1022 0 16.5 0C16.8978 0 17.2794 0.158035 17.5607 0.43934C17.842 0.720644 18 1.10218 18 1.5V2.5C18 3.42826 18.3687 4.3185 19.0251 4.97487C19.6815 5.63125 20.5717 6 21.5 6H22.5C22.8978 6 23.2794 6.15804 23.5607 6.43934C23.842 6.72064 24 7.10218 24 7.5C24 7.89782 23.842 8.27936 23.5607 8.56066C23.2794 8.84196 22.8978 9 22.5 9Z" fill="#374957"/>
<path d="M7.5 24C7.10218 24 6.72064 23.842 6.43934 23.5607C6.15804 23.2794 6 22.8978 6 22.5V21.5C6 20.5717 5.63125 19.6815 4.97487 19.0251C4.3185 18.3687 3.42826 18 2.5 18H1.5C1.10218 18 0.720644 17.842 0.43934 17.5607C0.158035 17.2794 0 16.8978 0 16.5C0 16.1022 0.158035 15.7206 0.43934 15.4393C0.720644 15.158 1.10218 15 1.5 15H2.5C4.22391 15 5.87721 15.6848 7.09619 16.9038C8.31518 18.1228 9 19.7761 9 21.5V22.5C9 22.8978 8.84196 23.2794 8.56066 23.5607C8.27936 23.842 7.89782 24 7.5 24Z" fill="#374957"/>
</g>
<defs>
<clipPath id="clip0_405_1742">
<rect width="24" height="24" fill="white"/>
</clipPath>
</defs>
</svg>
