<svg width="24" height="24" viewBox="0 0 24 24" fill="none" xmlns="http://www.w3.org/2000/svg">
<g clip-path="url(#clip0_405_1519)">
<path d="M19.5 7H18.909C19.6409 5.98165 20.0236 4.75384 20 3.5C20 3.10218 19.842 2.72064 19.5607 2.43934C19.2794 2.15804 18.8978 2 18.5 2C18.1022 2 17.7206 2.15804 17.4393 2.43934C17.158 2.72064 17 3.10218 17 3.5C17 5.67 15.176 6.493 13.721 6.807C14.4412 5.65645 14.8795 4.35202 15 3C15 2.20435 14.6839 1.44129 14.1213 0.87868C13.5587 0.31607 12.7956 0 12 0C11.2044 0 10.4413 0.31607 9.87868 0.87868C9.31607 1.44129 9 2.20435 9 3C9.12053 4.35202 9.55877 5.65645 10.279 6.807C8.824 6.493 7 5.67 7 3.5C7 3.10218 6.84196 2.72064 6.56066 2.43934C6.27936 2.15804 5.89782 2 5.5 2C5.10218 2 4.72064 2.15804 4.43934 2.43934C4.15804 2.72064 4 3.10218 4 3.5C3.97641 4.75384 4.35914 5.98165 5.091 7H4.5C3.30693 7.00132 2.16311 7.47585 1.31948 8.31948C0.475854 9.16311 0.00132343 10.3069 0 11.5L0 12.5C0.000112869 13.0762 0.199227 13.6346 0.563663 14.0808C0.928099 14.5271 1.43549 14.8338 2 14.949V18.682C2.00159 20.0919 2.56239 21.4437 3.55936 22.4406C4.55633 23.4376 5.90807 23.9984 7.318 24H16.682C18.0919 23.9984 19.4437 23.4376 20.4406 22.4406C21.4376 21.4437 21.9984 20.0919 22 18.682V14.949C22.5645 14.8338 23.0719 14.5271 23.4363 14.0808C23.8008 13.6346 23.9999 13.0762 24 12.5V11.5C23.9987 10.3069 23.5241 9.16311 22.6805 8.31948C21.8369 7.47585 20.6931 7.00132 19.5 7ZM21 11.5V12H13.5V10H19.5C19.8978 10 20.2794 10.158 20.5607 10.4393C20.842 10.7206 21 11.1022 21 11.5ZM3 11.5C3 11.1022 3.15804 10.7206 3.43934 10.4393C3.72064 10.158 4.10218 10 4.5 10H10.5V12H3V11.5ZM5 18.682V15H10.5V21H7.318C6.70347 20.9992 6.11434 20.7547 5.6798 20.3202C5.24527 19.8857 5.00079 19.2965 5 18.682ZM16.682 21H13.5V15H19V18.682C18.9992 19.2965 18.7547 19.8857 18.3202 20.3202C17.8857 20.7547 17.2965 20.9992 16.682 21Z" fill="#374957"/>
</g>
<defs>
<clipPath id="clip0_405_1519">
<rect width="24" height="24" fill="white"/>
</clipPath>
</defs>
</svg>
