<svg width="24" height="24" viewBox="0 0 24 24" fill="none" xmlns="http://www.w3.org/2000/svg">
<g clip-path="url(#clip0_405_1616)">
<path d="M18.4999 24.0001H13.0339C11.1607 24.0329 9.30125 23.6754 7.57378 22.9504C5.8463 22.2254 4.28863 21.1489 2.99985 19.7891C1.90937 18.597 1.08311 17.1879 0.575243 15.6541C0.0673742 14.1203 -0.110644 12.4965 0.0528543 10.8891C0.300943 8.27379 1.39876 5.81165 3.17844 3.87919C4.95812 1.94673 7.32172 0.650308 9.90786 0.188148C11.6068 -0.126982 13.3546 -0.0599384 15.0244 0.384414C16.6943 0.828767 18.2442 1.63928 19.5619 2.75715C20.9568 3.92975 22.0772 5.39433 22.8441 7.04743C23.6109 8.70053 24.0055 10.5018 23.9999 12.3241V18.5001C23.998 19.9583 23.4179 21.3561 22.3869 22.3872C21.3559 23.4182 19.958 23.9983 18.4999 24.0001ZM12.0299 3.00015C9.78436 2.99821 7.61886 3.8338 5.95668 5.34359C4.29451 6.85338 3.25518 8.9288 3.04185 11.1641C2.91951 12.3565 3.05047 13.5613 3.42615 14.6996C3.80184 15.8378 4.41377 16.8839 5.22185 17.7691C6.22899 18.8197 7.4435 19.6494 8.78832 20.2056C10.1331 20.7618 11.5789 21.0324 13.0339 21.0001H18.4999C19.1629 21.0001 19.7988 20.7368 20.2676 20.2679C20.7365 19.7991 20.9999 19.1632 20.9999 18.5001V12.3241C21.0045 10.94 20.7054 9.5716 20.1239 8.3155C19.5423 7.0594 18.6923 5.94613 17.6339 5.05415C16.0693 3.72529 14.0826 2.99712 12.0299 3.00015ZM11.9999 6.00015C11.602 6.00015 11.2205 6.15818 10.9392 6.43949C10.6579 6.72079 10.4999 7.10232 10.4999 7.50015C10.4999 7.89797 10.6579 8.2795 10.9392 8.56081C11.2205 8.84211 11.602 9.00015 11.9999 9.00015C12.3977 9.00015 12.7792 8.84211 13.0605 8.56081C13.3418 8.2795 13.4999 7.89797 13.4999 7.50015C13.4999 7.10232 13.3418 6.72079 13.0605 6.43949C12.7792 6.15818 12.3977 6.00015 11.9999 6.00015ZM12.4999 19.0001C12.102 19.0001 11.7205 18.8421 11.4392 18.5608C11.1579 18.2795 10.9999 17.898 10.9999 17.5001V13.0001H10.4999C10.102 13.0001 9.7205 12.8421 9.43919 12.5608C9.15789 12.2795 8.99986 11.898 8.99986 11.5001C8.99986 11.1023 9.15789 10.7208 9.43919 10.4395C9.7205 10.1582 10.102 10.0001 10.4999 10.0001H11.4999C12.1629 10.0001 12.7988 10.2635 13.2676 10.7324C13.7365 11.2012 13.9999 11.8371 13.9999 12.5001V17.5001C13.9999 17.898 13.8418 18.2795 13.5605 18.5608C13.2792 18.8421 12.8977 19.0001 12.4999 19.0001Z" fill="#374957"/>
</g>
<defs>
<clipPath id="clip0_405_1616">
<rect width="24" height="24" fill="white"/>
</clipPath>
</defs>
</svg>
