<svg width="24" height="24" viewBox="0 0 24 24" fill="none" xmlns="http://www.w3.org/2000/svg">
<g clip-path="url(#clip0_405_1375)">
<path d="M19.561 7.43897C19.7004 7.57827 19.8109 7.74367 19.8864 7.92572C19.9618 8.10777 20.0007 8.30291 20.0007 8.49997C20.0007 8.69703 19.9618 8.89217 19.8864 9.07422C19.8109 9.25627 19.7004 9.42167 19.561 9.56097L16.561 12.561C16.2796 12.8424 15.8979 13.0005 15.5 13.0005C15.102 13.0005 14.7204 12.8424 14.439 12.561C14.1576 12.2796 13.9995 11.8979 13.9995 11.5C13.9995 11.102 14.1576 10.7204 14.439 10.439L14.879 9.99997L14 9.12097L13.561 9.56097C13.2796 9.84237 12.8979 10.0005 12.5 10.0005C12.102 10.0005 11.7204 9.84237 11.439 9.56097C11.1576 9.27958 10.9995 8.89792 10.9995 8.49997C10.9995 8.10202 11.1576 7.72037 11.439 7.43897L14.439 4.43897C14.7204 4.15758 15.102 3.99949 15.5 3.99949C15.8979 3.99949 16.2796 4.15758 16.561 4.43897C16.8424 4.72037 17.0005 5.10202 17.0005 5.49997C17.0005 5.89792 16.8424 6.27958 16.561 6.56097L16.121 6.99997L17 7.87897L17.439 7.43897C17.5783 7.29958 17.7437 7.18901 17.9257 7.11356C18.1078 7.03812 18.3029 6.99929 18.5 6.99929C18.697 6.99929 18.8922 7.03812 19.0742 7.11356C19.2563 7.18901 19.4217 7.29958 19.561 7.43897ZM10.439 14.439L9.99998 14.879L9.12098 14L9.56098 13.561C9.84237 13.2796 10.0005 12.8979 10.0005 12.5C10.0005 12.102 9.84237 11.7204 9.56098 11.439C9.27958 11.1576 8.89793 10.9995 8.49998 10.9995C8.10203 10.9995 7.72037 11.1576 7.43898 11.439L4.43898 14.439C4.15758 14.7204 3.9995 15.102 3.9995 15.5C3.9995 15.8979 4.15758 16.2796 4.43898 16.561C4.72037 16.8424 5.10203 17.0005 5.49998 17.0005C5.89793 17.0005 6.27958 16.8424 6.56098 16.561L6.99998 16.121L7.87898 17L7.43898 17.439C7.15758 17.7204 6.9995 18.102 6.9995 18.5C6.9995 18.8979 7.15758 19.2796 7.43898 19.561C7.72037 19.8424 8.10203 20.0005 8.49998 20.0005C8.89793 20.0005 9.27958 19.8424 9.56098 19.561L12.561 16.561C12.8424 16.2796 13.0005 15.8979 13.0005 15.5C13.0005 15.102 12.8424 14.7204 12.561 14.439C12.2796 14.1576 11.8979 13.9995 11.5 13.9995C11.102 13.9995 10.7204 14.1576 10.439 14.439ZM24 7.89097C24.0027 8.92759 23.7997 9.95444 23.4029 10.9121C23.006 11.8697 22.4231 12.7391 21.688 13.47L13.47 21.688C12.7387 22.4268 11.8686 23.0138 10.9098 23.4152C9.9509 23.8167 8.92216 24.0247 7.88265 24.0274C6.84314 24.03 5.81335 23.8272 4.85246 23.4307C3.89156 23.0341 3.01851 22.4515 2.28346 21.7165C1.54841 20.9814 0.965863 20.1084 0.569282 19.1475C0.172702 18.1866 -0.03009 17.1568 -0.0274402 16.1173C-0.0247904 15.0778 0.183249 14.0491 0.584723 13.0902C0.986197 12.1313 1.57319 11.2613 2.31198 10.53L10.53 2.31197C11.6335 1.20871 13.0395 0.457415 14.57 0.153068C16.1004 -0.151279 17.6868 0.00498599 19.1285 0.602109C20.5702 1.19923 21.8025 2.2104 22.6696 3.50778C23.5367 4.80516 23.9997 6.33051 24 7.89097ZM21 7.89097C21.0003 6.92354 20.7136 5.97776 20.1762 5.1733C19.6389 4.36884 18.875 3.74185 17.9812 3.37165C17.0874 3.00146 16.1039 2.9047 15.1551 3.09362C14.2063 3.28254 13.3348 3.74865 12.651 4.43297L4.43298 12.651C3.51586 13.5681 3.00063 14.812 3.00063 16.109C3.00063 17.406 3.51586 18.6499 4.43298 19.567C5.3501 20.4841 6.59398 20.9993 7.89098 20.9993C9.18798 20.9993 10.4319 20.4841 11.349 19.567L19.567 11.349C20.0226 10.8959 20.3838 10.357 20.6297 9.76347C20.8757 9.16991 21.0016 8.53347 21 7.89097Z" fill="#374957"/>
</g>
<defs>
<clipPath id="clip0_405_1375">
<rect width="24" height="24" fill="white"/>
</clipPath>
</defs>
</svg>
