<svg width="24" height="24" viewBox="0 0 24 24" fill="none" xmlns="http://www.w3.org/2000/svg">
<g clip-path="url(#clip0_405_1507)">
<path d="M22.8 5.98347L21.467 4.65447L22.561 3.56147C22.8424 3.28007 23.0005 2.89842 23.0005 2.50047C23.0005 2.10252 22.8424 1.72086 22.561 1.43947C22.2796 1.15807 21.8979 0.999987 21.5 0.999987C21.102 0.999987 20.7204 1.15807 20.439 1.43947L19.346 2.53347L18.017 1.20047C17.635 0.818518 17.1816 0.515539 16.6826 0.308829C16.1835 0.10212 15.6486 -0.00427246 15.1085 -0.00427246C14.5683 -0.00427246 14.0335 0.10212 13.5344 0.308829C13.0354 0.515539 12.5819 0.818518 12.2 1.20047C11.818 1.58242 11.5151 2.03586 11.3083 2.5349C11.1016 3.03394 10.9952 3.56881 10.9952 4.10897C10.9952 4.64913 11.1016 5.184 11.3083 5.68304C11.5151 6.18208 11.818 6.63552 12.2 7.01747L13.529 8.34647L8.34598 13.5335L7.01698 12.2005C6.63503 11.8185 6.18159 11.5155 5.68255 11.3088C5.18351 11.1021 4.64864 10.9957 4.10848 10.9957C3.56832 10.9957 3.03345 11.1021 2.53441 11.3088C2.03537 11.5155 1.58193 11.8185 1.19998 12.2005C0.428597 12.9719 -0.00476074 14.0181 -0.00476074 15.109C-0.00476074 16.1999 0.428597 17.2461 1.19998 18.0175L2.52898 19.3465L1.43898 20.4395C1.15758 20.7209 0.999499 21.1025 0.999499 21.5005C0.999499 21.8984 1.15758 22.2801 1.43898 22.5615C1.72037 22.8429 2.10203 23.0009 2.49998 23.0009C2.89793 23.0009 3.27959 22.8429 3.56098 22.5615L4.65398 21.4675L5.98298 22.8005C6.75436 23.5719 7.80058 24.0052 8.89148 24.0052C9.98238 24.0052 11.0286 23.5719 11.8 22.8005C12.5714 22.0291 13.0047 20.9829 13.0047 19.892C13.0047 18.8011 12.5714 17.7549 11.8 16.9835L10.471 15.6555L15.659 10.4675L16.983 11.8005C17.3649 12.1824 17.8184 12.4854 18.3174 12.6921C18.8165 12.8988 19.3513 13.0052 19.8915 13.0052C20.4316 13.0052 20.9665 12.8988 21.4655 12.6921C21.9646 12.4854 22.418 12.1824 22.8 11.8005C23.1819 11.4185 23.4849 10.9651 23.6916 10.466C23.8983 9.967 24.0047 9.43213 24.0047 8.89197C24.0047 8.35181 23.8983 7.81694 23.6916 7.3179C23.4849 6.81886 23.1819 6.36542 22.8 5.98347ZM9.67498 20.6745C9.46319 20.8762 9.18194 20.9887 8.88948 20.9887C8.59702 20.9887 8.31577 20.8762 8.10398 20.6745L3.32498 15.9005C3.11612 15.6916 2.99879 15.4083 2.99879 15.113C2.99879 14.8176 3.11612 14.5343 3.32498 14.3255C3.53384 14.1166 3.81711 13.9993 4.11248 13.9993C4.40785 13.9993 4.69112 14.1166 4.89998 14.3255L9.67498 19.1005C9.88297 19.3088 9.99979 19.5911 9.99979 19.8855C9.99979 20.1798 9.88297 20.4622 9.67498 20.6705V20.6745ZM20.675 9.67447C20.4632 9.87616 20.1819 9.98866 19.8895 9.98866C19.597 9.98866 19.3158 9.87616 19.104 9.67447L14.325 4.90047C14.1161 4.69161 13.9988 4.40834 13.9988 4.11297C13.9988 3.8176 14.1161 3.53433 14.325 3.32547C14.5338 3.11661 14.8171 2.99927 15.1125 2.99927C15.4079 2.99927 15.6911 3.11661 15.9 3.32547L20.675 8.10047C20.883 8.30877 20.9998 8.5911 20.9998 8.88547C20.9998 9.17983 20.883 9.46216 20.675 9.67047V9.67447Z" fill="#374957"/>
</g>
<defs>
<clipPath id="clip0_405_1507">
<rect width="24" height="24" fill="white"/>
</clipPath>
</defs>
</svg>
