<svg width="24" height="24" viewBox="0 0 24 24" fill="none" xmlns="http://www.w3.org/2000/svg">
<g clip-path="url(#clip0_405_1658)">
<path d="M12.5661 24C5.93872 23.9982 0.567555 18.6242 0.569336 11.9968C0.571118 5.36943 5.94514 -0.0017808 12.5725 4.42906e-07C17.0987 0.00121919 21.2392 2.54906 23.2801 6.58897C23.6408 7.33475 23.3286 8.23175 22.5828 8.59241C21.8562 8.94383 20.9818 8.65728 20.6041 7.94394C18.3642 3.50671 12.9513 1.72537 8.51407 3.96524C4.0768 6.20511 2.29546 11.618 4.53533 16.0553C6.7752 20.4925 12.1881 22.2739 16.6254 20.034C18.3353 19.1709 19.7253 17.7846 20.5931 16.077C20.969 15.3385 21.8722 15.0446 22.6106 15.4205C23.349 15.7963 23.6429 16.6996 23.2671 17.438C21.2274 21.4723 17.0868 24.0114 12.5661 24Z" fill="#374957"/>
</g>
<defs>
<clipPath id="clip0_405_1658">
<rect width="24" height="24" fill="white"/>
</clipPath>
</defs>
</svg>
