<svg width="24" height="24" viewBox="0 0 24 24" fill="none" xmlns="http://www.w3.org/2000/svg">
<g clip-path="url(#clip0_405_1347)">
<path d="M7.99988 10.5C7.99988 10.1022 8.15791 9.72064 8.43922 9.43934C8.72052 9.15804 9.10205 9 9.49988 9H10.4999V8C10.4999 7.60218 10.6579 7.22064 10.9392 6.93934C11.2205 6.65804 11.6021 6.5 11.9999 6.5C12.3977 6.5 12.7792 6.65804 13.0605 6.93934C13.3418 7.22064 13.4999 7.60218 13.4999 8V9H14.4999C14.8977 9 15.2792 9.15804 15.5605 9.43934C15.8418 9.72064 15.9999 10.1022 15.9999 10.5C15.9999 10.8978 15.8418 11.2794 15.5605 11.5607C15.2792 11.842 14.8977 12 14.4999 12H13.4999V13C13.4999 13.3978 13.3418 13.7794 13.0605 14.0607C12.7792 14.342 12.3977 14.5 11.9999 14.5C11.6021 14.5 11.2205 14.342 10.9392 14.0607C10.6579 13.7794 10.4999 13.3978 10.4999 13V12H9.49988C9.10205 12 8.72052 11.842 8.43922 11.5607C8.15791 11.2794 7.99988 10.8978 7.99988 10.5ZM15.4999 16H8.49988C8.10205 16 7.72052 16.158 7.43922 16.4393C7.15791 16.7206 6.99988 17.1022 6.99988 17.5C6.99988 17.8978 7.15791 18.2794 7.43922 18.5607C7.72052 18.842 8.10205 19 8.49988 19H15.4999C15.8977 19 16.2792 18.842 16.5605 18.5607C16.8418 18.2794 16.9999 17.8978 16.9999 17.5C16.9999 17.1022 16.8418 16.7206 16.5605 16.4393C16.2792 16.158 15.8977 16 15.4999 16ZM21.9999 7.5V18.5C21.9983 19.9582 21.4183 21.3562 20.3872 22.3873C19.3561 23.4184 17.9581 23.9984 16.4999 24H7.49988C6.04167 23.9984 4.64365 23.4184 3.61254 22.3873C2.58144 21.3562 2.00147 19.9582 1.99988 18.5V7.5C2.00101 6.06965 2.55863 4.69585 3.55472 3.66934C4.5508 2.64283 5.90721 2.04415 7.33688 2C7.62078 1.40147 8.06872 0.895804 8.62863 0.541767C9.18854 0.18773 9.83743 -0.000136637 10.4999 7.4561e-08H13.4999C14.1623 -0.000136637 14.8112 0.18773 15.3711 0.541767C15.931 0.895804 16.379 1.40147 16.6629 2C18.0926 2.04415 19.449 2.64283 20.445 3.66934C21.4411 4.69585 21.9987 6.06965 21.9999 7.5ZM18.9999 7.5C18.9999 6.83696 18.7365 6.20107 18.2676 5.73223C17.7988 5.26339 17.1629 5 16.4999 5H15.4999C15.1021 5 14.7205 4.84196 14.4392 4.56066C14.1579 4.27936 13.9999 3.89782 13.9999 3.5C13.9999 3.36739 13.9472 3.24021 13.8534 3.14645C13.7597 3.05268 13.6325 3 13.4999 3H10.4999C10.3673 3 10.2401 3.05268 10.1463 3.14645C10.0526 3.24021 9.99988 3.36739 9.99988 3.5C9.99988 3.89782 9.84184 4.27936 9.56054 4.56066C9.27923 4.84196 8.8977 5 8.49988 5H7.49988C6.83684 5 6.20095 5.26339 5.73211 5.73223C5.26327 6.20107 4.99988 6.83696 4.99988 7.5V18.5C4.99988 19.163 5.26327 19.7989 5.73211 20.2678C6.20095 20.7366 6.83684 21 7.49988 21H16.4999C17.1629 21 17.7988 20.7366 18.2676 20.2678C18.7365 19.7989 18.9999 19.163 18.9999 18.5V7.5Z" fill="#374957"/>
</g>
<defs>
<clipPath id="clip0_405_1347">
<rect width="24" height="24" fill="white"/>
</clipPath>
</defs>
</svg>
