<svg width="24" height="24" viewBox="0 0 24 24" fill="none" xmlns="http://www.w3.org/2000/svg">
<g clip-path="url(#clip0_405_1735)">
<path d="M18.5 2.00061H5.5C4.0418 2.0022 2.64377 2.58217 1.61267 3.61328C0.581561 4.64438 0.00158817 6.04241 0 7.50061L0 13.5006C0.00158817 14.9588 0.581561 16.3568 1.61267 17.3879C2.64377 18.419 4.0418 18.999 5.5 19.0006H10.5V21.0006H8C7.60218 21.0006 7.22064 21.1586 6.93934 21.44C6.65804 21.7213 6.5 22.1028 6.5 22.5006C6.5 22.8984 6.65804 23.28 6.93934 23.5613C7.22064 23.8426 7.60218 24.0006 8 24.0006H16C16.3978 24.0006 16.7794 23.8426 17.0607 23.5613C17.342 23.28 17.5 22.8984 17.5 22.5006C17.5 22.1028 17.342 21.7213 17.0607 21.44C16.7794 21.1586 16.3978 21.0006 16 21.0006H13.5V19.0006H18.5C19.9582 18.999 21.3562 18.419 22.3873 17.3879C23.4184 16.3568 23.9984 14.9588 24 13.5006V7.50061C23.9984 6.04241 23.4184 4.64438 22.3873 3.61328C21.3562 2.58217 19.9582 2.0022 18.5 2.00061ZM21 13.5006C21 14.1637 20.7366 14.7995 20.2678 15.2684C19.7989 15.7372 19.163 16.0006 18.5 16.0006H5.5C4.83696 16.0006 4.20107 15.7372 3.73223 15.2684C3.26339 14.7995 3 14.1637 3 13.5006V7.50061C3 6.83757 3.26339 6.20168 3.73223 5.73284C4.20107 5.264 4.83696 5.00061 5.5 5.00061H18.5C19.163 5.00061 19.7989 5.264 20.2678 5.73284C20.7366 6.20168 21 6.83757 21 7.50061V13.5006Z" fill="#374957"/>
</g>
<defs>
<clipPath id="clip0_405_1735">
<rect width="24" height="24" fill="white"/>
</clipPath>
</defs>
</svg>
