<svg width="24" height="24" viewBox="0 0 24 24" fill="none" xmlns="http://www.w3.org/2000/svg">
<g clip-path="url(#clip0_405_1694)">
<path d="M7.135 14.549C7.172 14.561 9.055 15.034 9.055 15.034C9.055 15.034 9.663 17.018 9.681 17.062C9.91218 17.6296 10.3077 18.1151 10.8167 18.4563C11.3258 18.7975 11.9252 18.9788 12.538 18.977H12.588C13.2094 18.9689 13.8138 18.773 14.3218 18.4149C14.8298 18.0569 15.2175 17.5535 15.434 16.971C15.434 16.971 17.895 10.417 17.908 10.371C18.0627 9.77977 18.0598 9.15834 17.8998 8.56854C17.7397 7.97874 17.428 7.44114 16.9957 7.0092C16.5633 6.57727 16.0254 6.26607 15.4355 6.10656C14.8455 5.94705 14.2241 5.94479 13.633 6.10001C13.575 6.11001 7 8.71901 7 8.71901C6.40557 8.94953 5.89668 9.35773 5.54267 9.88797C5.18865 10.4182 5.00674 11.0447 5.02172 11.6821C5.0367 12.3195 5.24784 12.9368 5.62637 13.4498C6.0049 13.9628 6.5324 14.3467 7.137 14.549H7.135ZM8.095 11.511L14.461 8.98301C14.5379 8.97351 14.616 8.98203 14.6891 9.00789C14.7621 9.03375 14.8282 9.07623 14.882 9.132C14.9358 9.18776 14.9759 9.25528 14.9992 9.32921C15.0225 9.40314 15.0282 9.48147 15.016 9.55801L12.625 15.915C12.6199 15.9332 12.6089 15.9492 12.5936 15.9604C12.5784 15.9717 12.5599 15.9775 12.541 15.977C12.496 15.977 12.484 15.968 12.472 15.953L11.677 13.347C11.6015 13.0993 11.4632 12.8754 11.2755 12.697C11.0879 12.5186 10.8572 12.3918 10.606 12.329L8.057 11.692C8.037 11.68 8.023 11.661 8.022 11.612C8.021 11.54 8.047 11.53 8.1 11.511H8.095ZM12 24C14.3734 24 16.6935 23.2962 18.6668 21.9776C20.6402 20.6591 22.1783 18.7849 23.0866 16.5922C23.9948 14.3995 24.2324 11.9867 23.7694 9.65892C23.3064 7.33115 22.1635 5.19295 20.4853 3.51472C18.8071 1.83649 16.6689 0.693605 14.3411 0.230582C12.0133 -0.232441 9.60051 0.00519943 7.4078 0.913451C5.21509 1.8217 3.34094 3.35977 2.02236 5.33316C0.703788 7.30655 0 9.62663 0 12C0.00344108 15.1815 1.26883 18.2318 3.51852 20.4815C5.76821 22.7312 8.81846 23.9966 12 24ZM12 3.00001C13.78 3.00001 15.5201 3.52785 17.0001 4.51678C18.4802 5.50571 19.6337 6.91132 20.3149 8.55585C20.9961 10.2004 21.1743 12.01 20.8271 13.7558C20.4798 15.5016 19.6226 17.1053 18.364 18.364C17.1053 19.6226 15.5016 20.4798 13.7558 20.8271C12.01 21.1743 10.2004 20.9961 8.55585 20.3149C6.91131 19.6337 5.50571 18.4802 4.51677 17.0001C3.52784 15.5201 3 13.78 3 12C3.00265 9.61387 3.95171 7.32622 5.63896 5.63897C7.32622 3.95171 9.61386 3.00265 12 3.00001Z" fill="#374957"/>
</g>
<defs>
<clipPath id="clip0_405_1694">
<rect width="24" height="24" fill="white"/>
</clipPath>
</defs>
</svg>
