<svg width="24" height="24" viewBox="0 0 24 24" fill="none" xmlns="http://www.w3.org/2000/svg">
<g clip-path="url(#clip0_405_1356)">
<path d="M20 10.9991C17.7909 10.9991 16.0001 12.7899 16.0001 14.9991V19.9991C16.0001 22.2082 17.7909 23.9991 20 23.9991C22.2092 23.9991 24 22.2082 24 19.9991V14.9991C24 12.7899 22.2092 10.9991 20 10.9991ZM21 19.9991C21 20.5514 20.5523 20.9991 20 20.9991C19.4478 20.9991 19.0001 20.5514 19.0001 19.9991V14.9991C19.0001 14.4468 19.4478 13.9991 20 13.9991C20.5523 13.9991 21 14.4468 21 14.9991V19.9991Z" fill="#374957"/>
<path d="M10.5 14.9991C9.98784 15.0039 9.48037 15.0973 9 15.2751V15.0821C9.00056 14.4842 9.4851 13.9996 10.083 13.9991H11.5C12.3284 13.9991 13 13.3275 13 12.4991C13 11.6707 12.3284 10.9991 11.5 10.9991H10.083C7.82915 11.0019 6.00277 12.8282 6 15.0821C6 15.0821 6.01069 19.7003 6.03098 19.7991C6.20222 22.2729 8.34642 24.1396 10.8203 23.9683C13.2942 23.7971 15.1608 21.6529 14.9896 19.179C14.8264 16.8213 12.8634 14.9937 10.5 14.9991ZM10.5 20.9991C9.67157 20.9991 9 20.3275 9 19.4991C9 18.6706 9.67157 17.9991 10.5 17.9991C11.3284 17.9991 12 18.6706 12 19.4991C12 20.3275 11.3284 20.9991 10.5 20.9991Z" fill="#374957"/>
<path d="M22.2928 2.70751L20.9698 4.03051C16.5678 -0.923758 8.983 -1.37151 4.02869 3.03048C-0.16803 6.75934 -1.21855 12.8995 1.49978 17.8115C1.89588 18.5391 2.8068 18.8079 3.53439 18.4118C4.26199 18.0157 4.53077 17.1048 4.13467 16.3772C4.13111 16.3706 4.12745 16.3641 4.12375 16.3575C1.71461 12.0149 3.28202 6.54146 7.62466 4.13232C11.3688 2.05519 16.0583 2.90621 18.8338 6.16655L17.7068 7.29357C17.3163 7.68413 17.3164 8.31732 17.707 8.70779C17.8945 8.8952 18.1487 9.00052 18.4138 9.00057H22.9998C23.5521 9.00057 23.9998 8.55287 23.9998 8.00059V3.41452C23.9996 2.86224 23.5518 2.41463 22.9996 2.41473C22.7345 2.41477 22.4802 2.5201 22.2928 2.70751Z" fill="#374957"/>
</g>
<defs>
<clipPath id="clip0_405_1356">
<rect width="24" height="24" fill="white"/>
</clipPath>
</defs>
</svg>
