<svg width="24" height="24" viewBox="0 0 24 24" fill="none" xmlns="http://www.w3.org/2000/svg">
<g clip-path="url(#clip0_405_1597)">
<path d="M17.0002 12.5C17.0002 12.8978 16.8421 13.2794 16.5608 13.5607C16.2795 13.842 15.898 14 15.5002 14H8.50015C8.10233 14 7.7208 13.842 7.43949 13.5607C7.15819 13.2794 7.00015 12.8978 7.00015 12.5C7.00015 12.1022 7.15819 11.7207 7.43949 11.4394C7.7208 11.1581 8.10233 11 8.50015 11H15.5002C15.898 11 16.2795 11.1581 16.5608 11.4394C16.8421 11.7207 17.0002 12.1022 17.0002 12.5ZM12.5002 16H8.50015C8.10233 16 7.7208 16.1581 7.43949 16.4394C7.15819 16.7207 7.00015 17.1022 7.00015 17.5C7.00015 17.8978 7.15819 18.2794 7.43949 18.5607C7.7208 18.842 8.10233 19 8.50015 19H12.5002C12.898 19 13.2795 18.842 13.5608 18.5607C13.8421 18.2794 14.0002 17.8978 14.0002 17.5C14.0002 17.1022 13.8421 16.7207 13.5608 16.4394C13.2795 16.1581 12.898 16 12.5002 16ZM22.0002 8.15702V18.5C21.9986 19.9582 21.4186 21.3563 20.3875 22.3874C19.3564 23.4185 17.9584 23.9984 16.5002 24H7.50015C6.04195 23.9984 4.64393 23.4185 3.61282 22.3874C2.58171 21.3563 2.00174 19.9582 2.00015 18.5V5.50002C2.00174 4.04182 2.58171 2.6438 3.61282 1.61269C4.64393 0.581583 6.04195 0.00161038 7.50015 2.22109e-05H13.8432C14.5657 -0.00203834 15.2815 0.139292 15.9491 0.415827C16.6166 0.692361 17.2227 1.0986 17.7322 1.61102L20.3892 4.26802C20.9015 4.77754 21.3077 5.38361 21.5842 6.05116C21.8607 6.7187 22.0021 7.43447 22.0002 8.15702ZM19.0002 18.5V9.00002H15.0002C14.4697 9.00002 13.961 8.78931 13.5859 8.41424C13.2109 8.03916 13.0002 7.53046 13.0002 7.00002V3.00002H7.50015C6.83711 3.00002 6.20123 3.26341 5.73239 3.73226C5.26354 4.2011 5.00015 4.83698 5.00015 5.50002V18.5C5.00015 19.1631 5.26354 19.7989 5.73239 20.2678C6.20123 20.7366 6.83711 21 7.50015 21H16.5002C17.1632 21 17.7991 20.7366 18.2679 20.2678C18.7368 19.7989 19.0002 19.1631 19.0002 18.5Z" fill="#374957"/>
</g>
<defs>
<clipPath id="clip0_405_1597">
<rect width="24" height="24" fill="white"/>
</clipPath>
</defs>
</svg>
