<svg width="24" height="24" viewBox="0 0 24 24" fill="none" xmlns="http://www.w3.org/2000/svg">
<g clip-path="url(#clip0_405_1815)">
<path d="M19.0001 14.9999C19.0001 15.5304 18.7894 16.0391 18.4143 16.4142C18.0392 16.7892 17.5305 16.9999 17.0001 16.9999C16.4697 16.9999 15.961 16.7892 15.5859 16.4142C15.2108 16.0391 15.0001 15.5304 15.0001 14.9999C15.0001 14.4695 15.2108 13.9608 15.5859 13.5857C15.961 13.2107 16.4697 12.9999 17.0001 12.9999C17.5305 12.9999 18.0392 13.2107 18.4143 13.5857C18.7894 13.9608 19.0001 14.4695 19.0001 14.9999ZM8.00009 11.9999C7.46966 11.9999 6.96095 12.2107 6.58588 12.5857C6.21081 12.9608 6.00009 13.4695 6.00009 13.9999C6.00009 14.5304 6.21081 15.0391 6.58588 15.4142C6.96095 15.7892 7.46966 15.9999 8.00009 15.9999C8.53053 15.9999 9.03923 15.7892 9.41431 15.4142C9.78938 15.0391 10.0001 14.5304 10.0001 13.9999C10.0001 13.4695 9.78938 12.9608 9.41431 12.5857C9.03923 12.2107 8.53053 11.9999 8.00009 11.9999ZM24.0001 11.0069V18.4999C23.9985 19.9581 23.4185 21.3562 22.3874 22.3873C21.3563 23.4184 19.9583 23.9984 18.5001 23.9999H6.02509C4.87581 23.9994 3.75549 23.6393 2.82117 22.9701C1.88686 22.3008 1.18539 21.3559 0.815094 20.2679C-0.264292 17.1982 -0.26958 13.853 0.800094 10.7799C2.03762 6.89163 4.46695 3.49113 7.74409 1.05994C8.65081 0.39343 9.74138 0.0234829 10.8665 0.000748241C11.9916 -0.0219864 13.0962 0.303603 14.0291 0.932935L21.3181 5.74894C22.1448 6.35494 22.818 7.14621 23.2838 8.05931C23.7495 8.9724 23.9948 9.98193 24.0001 11.0069ZM6.05109 6.99994H17.7721L12.3721 3.43294C11.955 3.14527 11.459 2.99372 10.9523 2.99909C10.4457 3.00447 9.95304 3.16649 9.54209 3.46294C8.20836 4.46103 7.03164 5.65326 6.05109 6.99994ZM21.0001 11.0069C20.9996 10.6658 20.9494 10.3266 20.8511 9.99994H6.02609C5.50288 10.0003 4.99291 10.1645 4.5677 10.4693C4.14249 10.7742 3.82337 11.2045 3.65509 11.6999C2.78336 14.1583 2.78336 16.8416 3.65509 19.2999C3.82254 19.7957 4.14131 20.2264 4.56649 20.5314C4.99167 20.8364 5.50184 21.0002 6.02509 20.9999H9.00009C9.00009 20.2043 9.31616 19.4412 9.87877 18.8786C10.4414 18.316 11.2044 17.9999 12.0001 17.9999C12.7957 17.9999 13.5588 18.316 14.1214 18.8786C14.684 19.4412 15.0001 20.2043 15.0001 20.9999H18.5001C19.1631 20.9999 19.799 20.7365 20.2679 20.2677C20.7367 19.7989 21.0001 19.163 21.0001 18.4999V11.0069Z" fill="#374957"/>
</g>
<defs>
<clipPath id="clip0_405_1815">
<rect width="24" height="24" fill="white"/>
</clipPath>
</defs>
</svg>
