<svg width="24" height="24" viewBox="0 0 24 24" fill="none" xmlns="http://www.w3.org/2000/svg">
<g clip-path="url(#clip0_405_1400)">
<path d="M12.0001 23.9993C11.2987 24.0007 10.604 23.8635 9.95585 23.5956C9.30768 23.3277 8.71881 22.9344 8.2231 22.4383L1.5651 15.7763C1.06892 15.2804 0.675313 14.6916 0.406768 14.0435C0.138222 13.3954 0 12.7008 0 11.9993C0 11.2978 0.138222 10.6031 0.406768 9.95506C0.675313 9.30698 1.06892 8.71817 1.5651 8.22227L8.2231 1.56327C9.2258 0.563386 10.5841 0.00189209 12.0001 0.00189209C13.4161 0.00189209 14.7744 0.563386 15.7771 1.56327L22.4351 8.22227C22.9313 8.71817 23.3249 9.30698 23.5934 9.95506C23.862 10.6031 24.0002 11.2978 24.0002 11.9993C24.0002 12.7008 23.862 13.3954 23.5934 14.0435C23.3249 14.6916 22.9313 15.2804 22.4351 15.7763L15.7771 22.4353C15.2816 22.932 14.6929 23.3258 14.0447 23.5942C13.3965 23.8626 12.7017 24.0003 12.0001 23.9993ZM10.3441 20.3163C10.7837 20.7547 11.3792 21.0009 12.0001 21.0009C12.621 21.0009 13.2165 20.7547 13.6561 20.3163L20.3141 13.6583C20.7533 13.2191 21 12.6234 21 12.0023C21 11.3812 20.7533 10.7855 20.3141 10.3463L13.6561 3.68527C13.2165 3.24682 12.621 3.0006 12.0001 3.0006C11.3792 3.0006 10.7837 3.24682 10.3441 3.68527L3.6861 10.3433C3.24692 10.7825 3.00019 11.3782 3.00019 11.9993C3.00019 12.6204 3.24692 13.2161 3.6861 13.6553L10.3441 20.3163Z" fill="#374957"/>
</g>
<defs>
<clipPath id="clip0_405_1400">
<rect width="24" height="24" fill="white"/>
</clipPath>
</defs>
</svg>
