<svg width="24" height="24" viewBox="0 0 24 24" fill="none" xmlns="http://www.w3.org/2000/svg">
<g clip-path="url(#clip0_405_1384)">
<path d="M22.4422 11.988C21.6852 11.9947 21.0492 12.5586 20.9518 13.3093C20.2306 18.2367 15.6515 21.6465 10.7241 20.9253C5.79668 20.2041 2.38685 15.625 3.10804 10.6976C3.82922 5.77024 8.40832 2.36042 13.3357 3.0816C15.0153 3.32742 16.5914 4.04236 17.8827 5.14421L16.7516 6.27535C16.3607 6.6663 16.3608 7.30011 16.7518 7.69097C16.9402 7.87931 17.1959 7.98479 17.4623 7.98404H22.0528C22.6056 7.98404 23.0538 7.53589 23.0538 6.98306V2.39251C23.0537 1.83968 22.6054 1.39163 22.0526 1.39172C21.7872 1.39177 21.5327 1.4972 21.3451 1.68479L20.0118 3.01811C15.0513 -1.37673 7.46727 -0.918216 3.07238 4.04231C-1.32252 9.00284 -0.863906 16.5869 4.09657 20.9818C9.05706 25.3767 16.6411 24.9181 21.036 19.9576C22.5831 18.2113 23.5876 16.052 23.9267 13.7437C24.0594 12.9173 23.497 12.1398 22.6706 12.0071C22.5951 11.995 22.5188 11.9886 22.4422 11.988Z" fill="#374957"/>
</g>
<defs>
<clipPath id="clip0_405_1384">
<rect width="24" height="24" fill="white"/>
</clipPath>
</defs>
</svg>
