<svg width="24" height="24" viewBox="0 0 24 24" fill="none" xmlns="http://www.w3.org/2000/svg">
<g clip-path="url(#clip0_405_1477)">
<path d="M22.5002 15.4997C22.1023 15.4997 21.7208 15.6577 21.4395 15.939C21.1582 16.2203 21.0002 16.6019 21.0002 16.9997V18.4997C21.0002 19.1627 20.7368 19.7986 20.2679 20.2674C19.7991 20.7363 19.1632 20.9997 18.5002 20.9997H17.0002C16.6023 20.9997 16.2208 21.1577 15.9395 21.439C15.6582 21.7203 15.5002 22.1018 15.5002 22.4997C15.5002 22.8975 15.6582 23.279 15.9395 23.5603C16.2208 23.8416 16.6023 23.9997 17.0002 23.9997H18.5002C19.9584 23.9981 21.3564 23.4181 22.3875 22.387C23.4186 21.3559 23.9986 19.9579 24.0002 18.4997V16.9997C24.0002 16.6019 23.8421 16.2203 23.5608 15.939C23.2795 15.6577 22.898 15.4997 22.5002 15.4997Z" fill="#374957"/>
<path d="M1.5 8.5C1.89782 8.5 2.27936 8.34196 2.56066 8.06066C2.84196 7.77936 3 7.39782 3 7V5.5C3 4.83696 3.26339 4.20107 3.73223 3.73223C4.20107 3.26339 4.83696 3 5.5 3H7C7.39782 3 7.77936 2.84196 8.06066 2.56066C8.34196 2.27936 8.5 1.89782 8.5 1.5C8.5 1.10218 8.34196 0.720644 8.06066 0.43934C7.77936 0.158035 7.39782 0 7 0L5.5 0C4.0418 0.00158817 2.64377 0.581561 1.61267 1.61267C0.581561 2.64377 0.00158817 4.0418 0 5.5L0 7C0 7.39782 0.158035 7.77936 0.43934 8.06066C0.720644 8.34196 1.10218 8.5 1.5 8.5Z" fill="#374957"/>
<path d="M7 20.9997H5.5C4.83696 20.9997 4.20107 20.7363 3.73223 20.2674C3.26339 19.7986 3 19.1627 3 18.4997V16.9997C3 16.6019 2.84196 16.2203 2.56066 15.939C2.27936 15.6577 1.89782 15.4997 1.5 15.4997C1.10218 15.4997 0.720644 15.6577 0.43934 15.939C0.158035 16.2203 0 16.6019 0 16.9997L0 18.4997C0.00158817 19.9579 0.581561 21.3559 1.61267 22.387C2.64377 23.4181 4.0418 23.9981 5.5 23.9997H7C7.39782 23.9997 7.77936 23.8416 8.06066 23.5603C8.34196 23.279 8.5 22.8975 8.5 22.4997C8.5 22.1018 8.34196 21.7203 8.06066 21.439C7.77936 21.1577 7.39782 20.9997 7 20.9997Z" fill="#374957"/>
<path d="M18.5002 0H17.0002C16.6023 0 16.2208 0.158035 15.9395 0.43934C15.6582 0.720644 15.5002 1.10218 15.5002 1.5C15.5002 1.89782 15.6582 2.27936 15.9395 2.56066C16.2208 2.84196 16.6023 3 17.0002 3H18.5002C19.1632 3 19.7991 3.26339 20.2679 3.73223C20.7368 4.20107 21.0002 4.83696 21.0002 5.5V7C21.0002 7.39782 21.1582 7.77936 21.4395 8.06066C21.7208 8.34196 22.1023 8.5 22.5002 8.5C22.898 8.5 23.2795 8.34196 23.5608 8.06066C23.8421 7.77936 24.0002 7.39782 24.0002 7V5.5C23.9986 4.0418 23.4186 2.64377 22.3875 1.61267C21.3564 0.581561 19.9584 0.00158817 18.5002 0V0Z" fill="#374957"/>
<path d="M11.9998 11.0003C13.9328 11.0003 15.4998 9.4333 15.4998 7.50031C15.4998 5.56731 13.9328 4.00031 11.9998 4.00031C10.0669 4.00031 8.49985 5.56731 8.49985 7.50031C8.49985 9.4333 10.0669 11.0003 11.9998 11.0003Z" fill="#374957"/>
<path d="M6.10993 17.8476C6.08675 17.9904 6.09507 18.1366 6.13429 18.2759C6.17351 18.4151 6.2427 18.5441 6.337 18.6539C6.4313 18.7636 6.54844 18.8514 6.68022 18.9111C6.812 18.9709 6.95525 19.0011 7.09993 18.9996H16.8999C17.0448 19.0013 17.1882 18.9714 17.3203 18.9118C17.4523 18.8522 17.5697 18.7644 17.6642 18.6547C17.7587 18.5449 17.8281 18.4158 17.8674 18.2764C17.9068 18.1369 17.9151 17.9906 17.8919 17.8476C17.6264 16.4803 16.8935 15.248 15.8189 14.3619C14.7442 13.4759 13.3948 12.9913 12.0019 12.9913C10.6091 12.9913 9.25963 13.4759 8.18498 14.3619C7.11032 15.248 6.37741 16.4803 6.11193 17.8476H6.10993Z" fill="#374957"/>
</g>
<defs>
<clipPath id="clip0_405_1477">
<rect width="24" height="24" fill="white"/>
</clipPath>
</defs>
</svg>
