<svg width="24" height="24" viewBox="0 0 24 24" fill="none" xmlns="http://www.w3.org/2000/svg">
<g clip-path="url(#clip0_405_1501)">
<path d="M19.8821 4.43732C18.6465 2.78092 16.971 1.50449 15.046 0.753216C13.1209 0.00194114 11.0237 -0.194025 8.99283 0.187606C6.96194 0.569238 5.07891 1.51315 3.55792 2.91198C2.03693 4.31081 0.939022 6.10841 0.389078 8.10032C-0.0526952 9.75195 -0.101911 11.484 0.245366 13.1581C0.592643 14.8321 1.32678 16.4017 2.38908 17.7413C2.76714 18.2038 2.98193 18.7782 3.00007 19.3753V19.4853C2.99954 20.6803 3.473 21.8268 4.31659 22.6732C5.16019 23.5196 6.30506 23.9969 7.50007 24.0003H12.5001C13.4374 23.9992 14.3511 23.7059 15.1139 23.1612C15.8767 22.6165 16.4508 21.8475 16.7561 20.9613C17.9416 20.8224 19.0493 20.2998 19.9104 19.4732C20.7715 18.6466 21.3388 17.5612 21.5261 16.3823L21.6701 15.4973C22.3147 15.4646 22.9205 15.1795 23.3565 14.7036C23.7926 14.2277 24.0237 13.5993 24 12.9543C24 11.3553 21.0531 5.88232 19.8821 4.43732ZM20.3941 12.5003C20.0379 12.5005 19.6935 12.6273 19.4224 12.8582C19.1512 13.089 18.971 13.4088 18.9141 13.7603L18.5651 15.9003C18.4721 16.4868 18.1725 17.0207 17.7206 17.4058C17.2686 17.7908 16.6938 18.0017 16.1001 18.0003H15.5001C15.3031 18.0003 15.108 18.0391 14.926 18.1145C14.744 18.1899 14.5787 18.3004 14.4394 18.4397C14.3001 18.5789 14.1896 18.7443 14.1142 18.9263C14.0389 19.1083 14.0001 19.3033 14.0001 19.5003C14.0001 19.8981 13.842 20.2797 13.5607 20.561C13.2794 20.8423 12.8979 21.0003 12.5001 21.0003H7.50007C7.10046 20.9977 6.71819 20.8367 6.43703 20.5528C6.15587 20.2688 5.99874 19.8849 6.00007 19.4853V19.3753C5.98725 18.1109 5.55063 16.8873 4.76007 15.9003C3.97979 14.9285 3.4396 13.7864 3.18332 12.5667C2.92705 11.347 2.96191 10.084 3.28507 8.88032C3.69666 7.41423 4.51494 6.09464 5.64524 5.07424C6.77554 4.05383 8.17166 3.37432 9.67207 3.11432C10.1149 3.03978 10.563 3.00165 11.0121 3.00032C12.2759 3.00127 13.522 3.29795 14.6506 3.86662C15.7793 4.43529 16.7592 5.26018 17.5121 6.27532C18.8418 8.22421 19.9567 10.3114 20.8371 12.5003H20.3941ZM16.2251 8.05132C16.0297 7.70485 15.7047 7.45017 15.3216 7.34328C14.9385 7.23639 14.5286 7.28604 14.1821 7.48132L13.4741 7.88132C13.1787 7.64223 12.8508 7.44658 12.5001 7.30032V6.50032C12.5001 6.10249 12.342 5.72096 12.0607 5.43966C11.7794 5.15835 11.3979 5.00032 11.0001 5.00032C10.6022 5.00032 10.2207 5.15835 9.93941 5.43966C9.6581 5.72096 9.50007 6.10249 9.50007 6.50032V7.30032C9.1492 7.44751 8.8212 7.64417 8.52607 7.88432L7.81807 7.48432C7.6463 7.38753 7.45715 7.32553 7.26142 7.30185C7.06569 7.27816 6.86721 7.29326 6.67731 7.34628C6.48742 7.39931 6.30982 7.48921 6.15467 7.61087C5.99952 7.73252 5.86986 7.88355 5.77307 8.05532C5.67629 8.22709 5.61428 8.41624 5.5906 8.61197C5.56692 8.8077 5.58202 9.00618 5.63504 9.19608C5.74212 9.57959 5.99717 9.90485 6.34407 10.1003L7.05107 10.5003C7.02364 10.6658 7.00661 10.8328 7.00007 11.0003C7.00636 11.1699 7.02339 11.3389 7.05107 11.5063L6.34407 11.9063C5.99743 12.1018 5.74264 12.4269 5.63575 12.8103C5.52885 13.1936 5.57861 13.6037 5.77407 13.9503C5.96954 14.297 6.2947 14.5518 6.67802 14.6586C7.06134 14.7655 7.47143 14.7158 7.81807 14.5203L8.52607 14.1203C8.82145 14.3591 9.14943 14.5544 9.50007 14.7003V15.5003C9.50007 15.8981 9.6581 16.2797 9.93941 16.561C10.2207 16.8423 10.6022 17.0003 11.0001 17.0003C11.3979 17.0003 11.7794 16.8423 12.0607 16.561C12.342 16.2797 12.5001 15.8981 12.5001 15.5003V14.7003C12.8509 14.5531 13.1789 14.3565 13.4741 14.1163L14.1821 14.5163C14.5287 14.7118 14.9388 14.7615 15.3221 14.6546C15.7054 14.5478 16.0306 14.293 16.2261 13.9463C16.4215 13.5997 16.4713 13.1896 16.3644 12.8063C16.2575 12.4229 16.0027 12.0978 15.6561 11.9023L14.9491 11.5023C14.9766 11.3362 14.9936 11.1686 15.0001 11.0003C14.9938 10.8307 14.9767 10.6617 14.9491 10.4943L15.6561 10.0943C16.0024 9.89878 16.2568 9.57372 16.3635 9.19062C16.4702 8.80751 16.4204 8.39771 16.2251 8.05132ZM12.0001 11.0003C12.0001 11.1981 11.9414 11.3914 11.8315 11.5559C11.7217 11.7203 11.5655 11.8485 11.3827 11.9242C11.2 11.9999 10.999 12.0197 10.805 11.9811C10.611 11.9425 10.4328 11.8473 10.293 11.7074C10.1531 11.5676 10.0579 11.3894 10.0193 11.1954C9.9807 11.0014 10.0005 10.8004 10.0762 10.6176C10.1519 10.4349 10.28 10.2787 10.4445 10.1688C10.6089 10.059 10.8023 10.0003 11.0001 10.0003C11.2653 10.0003 11.5196 10.1057 11.7072 10.2932C11.8947 10.4807 12.0001 10.7351 12.0001 11.0003Z" fill="#374957"/>
</g>
<defs>
<clipPath id="clip0_405_1501">
<rect width="24" height="24" fill="white"/>
</clipPath>
</defs>
</svg>
