<svg width="24" height="24" viewBox="0 0 24 24" fill="none" xmlns="http://www.w3.org/2000/svg">
<g clip-path="url(#clip0_405_1653)">
<path d="M20.6998 14.025C20.0331 13.3898 19.1476 13.0355 18.2268 13.0355C17.306 13.0355 16.4204 13.3898 15.7538 14.025L15.3448 14.425C12.7888 13.2598 10.7425 11.2068 9.58578 8.647L9.97478 8.253C10.6191 7.60068 10.9837 6.72279 10.991 5.80592C10.9982 4.88905 10.6477 4.00548 10.0138 3.343L7.86079 1.025C7.21162 0.376101 6.33352 0.00818426 5.41568 0.000515313C4.49784 -0.00715363 3.61371 0.346039 2.95379 0.984C2.95379 0.984 1.88779 1.914 1.86279 1.938C-6.0372 10.206 13.7848 30.038 22.0628 22.138C22.0868 22.113 23.0168 21.047 23.0168 21.047C23.6574 20.3781 24.0083 19.4834 23.9932 18.5573C23.978 17.6313 23.598 16.7485 22.9358 16.101L20.6998 14.025ZM20.8568 18.967C20.8318 18.991 19.9078 20.05 19.9078 20.05C14.6548 24.774 -0.911203 10.126 3.94979 4.1C3.94979 4.1 5.00879 3.176 5.03279 3.151C5.11951 3.06296 5.23576 3.01016 5.35911 3.00277C5.48246 2.99539 5.60418 3.03394 5.70079 3.111L7.85379 5.424C7.90308 5.46999 7.94222 5.52576 7.96871 5.58775C7.99519 5.64974 8.00843 5.71658 8.00759 5.78399C8.00674 5.8514 7.99182 5.91788 7.96379 5.97919C7.93575 6.04049 7.89522 6.09527 7.84479 6.14L6.73579 7.266C6.53123 7.4741 6.39182 7.73735 6.33463 8.0235C6.27743 8.30964 6.30494 8.60626 6.41379 8.877C7.15897 10.8719 8.32436 12.6833 9.83095 14.1883C11.3375 15.6934 13.1501 16.8569 15.1458 17.6C15.4144 17.7027 15.707 17.7261 15.9885 17.6672C16.2701 17.6083 16.5288 17.4698 16.7338 17.268L17.8678 16.15C18.1578 15.936 18.3088 15.938 18.6158 16.19L20.8538 18.264C20.9463 18.3576 20.9982 18.4839 20.9982 18.6155C20.9982 18.7471 20.9463 18.8734 20.8538 18.967H20.8568ZM23.9998 1V5.474C23.9997 5.67175 23.9411 5.86505 23.8312 6.02946C23.7213 6.19387 23.5651 6.32201 23.3824 6.39768C23.1997 6.47335 22.9987 6.49315 22.8047 6.45458C22.6108 6.41602 22.4326 6.32081 22.2928 6.181L21.1268 5.015L17.5578 8.563C17.2742 8.83564 16.895 8.986 16.5016 8.98169C16.1083 8.97738 15.7324 8.81873 15.4549 8.53994C15.1774 8.26114 15.0206 7.8845 15.0181 7.49116C15.0157 7.09782 15.1678 6.71924 15.4418 6.437L19.0058 2.894L17.8188 1.707C17.679 1.56715 17.5838 1.38898 17.5452 1.19503C17.5066 1.00108 17.5264 0.800045 17.6021 0.617345C17.6778 0.434646 17.8059 0.278483 17.9703 0.168598C18.1347 0.0587141 18.328 4.22243e-05 18.5258 0L22.9998 0C23.265 0 23.5193 0.105357 23.7069 0.292893C23.8944 0.48043 23.9998 0.734784 23.9998 1Z" fill="#374957"/>
</g>
<defs>
<clipPath id="clip0_405_1653">
<rect width="24" height="24" fill="white"/>
</clipPath>
</defs>
</svg>
