<svg width="24" height="24" viewBox="0 0 24 24" fill="none" xmlns="http://www.w3.org/2000/svg">
<g clip-path="url(#clip0_405_1807)">
<path d="M6.37698 5.23512C6.85712 5.23643 7.25087 4.85506 7.26498 4.3751C7.25035 3.89557 6.85675 3.5148 6.37698 3.51612H5.53796L5.54396 5.2391L6.37698 5.23512Z" fill="#374957"/>
<path d="M17.2199 7.4381C18.1909 7.42108 18.6259 6.4631 18.6259 5.5211C18.6259 4.5791 18.2489 3.59412 17.1889 3.59412H16.369L16.377 7.44612C16.6819 7.4441 17.0249 7.4411 17.2199 7.4381Z" fill="#374957"/>
<path d="M19.5 0H4.5C2.01586 0.00276563 0.00276563 2.01586 0 4.5V19.5C0.00276563 21.9841 2.01586 23.9972 4.5 24H16.484C17.6782 24.0037 18.8242 23.529 19.666 22.682L22.682 19.667C23.5285 18.8249 24.0031 17.6791 24 16.485V4.5C23.9972 2.01586 21.9841 0.00276563 19.5 0ZM15.118 2.97C15.1163 2.62594 15.3939 2.34567 15.738 2.34398C15.7396 2.34398 15.7413 2.34398 15.743 2.34398H17.189C18.795 2.34398 19.876 3.621 19.876 5.52098C19.876 7.329 18.768 8.661 17.242 8.688C16.827 8.69498 15.756 8.69902 15.756 8.69902C15.412 8.69902 15.1327 8.421 15.131 8.07703L15.118 2.97ZM9.345 6.82702C9.55383 6.63023 9.87277 6.60886 10.106 6.77602L10.233 6.876C10.4819 7.09373 10.7691 7.26333 11.08 7.37602C11.4003 7.46967 11.7422 7.45739 12.055 7.341C12.2598 7.27847 12.4267 7.12884 12.511 6.93202C12.5761 6.72642 12.5183 6.50166 12.362 6.35302C12.2225 6.22814 12.0583 6.13411 11.88 6.07702C11.465 5.92603 11.0559 5.76202 10.647 5.59402C10.2566 5.45798 9.92011 5.20036 9.68695 4.85902C9.47934 4.53234 9.39595 4.14202 9.45197 3.759C9.48356 3.54802 9.55373 3.34462 9.65897 3.159C9.88575 2.76516 10.2518 2.4705 10.685 2.33302C11.5057 2.11552 12.3794 2.23467 13.112 2.664C13.2753 2.74627 13.4152 2.86837 13.519 3.01898C13.6753 3.24403 13.6618 3.54581 13.486 3.756C13.249 4.03702 12.903 3.95602 12.608 3.83002C12.341 3.7117 12.0675 3.60853 11.789 3.52102C11.5946 3.44981 11.3875 3.41981 11.181 3.43303C10.9717 3.44883 10.7858 3.57281 10.691 3.76003C10.6159 3.97781 10.6749 4.21941 10.842 4.37803C11.0092 4.52986 11.2145 4.63355 11.436 4.67803C11.715 4.75102 11.9979 4.80305 12.272 4.89605C12.6033 5.00845 12.9091 5.18517 13.172 5.41603C13.6418 5.81592 13.8692 6.43177 13.772 7.04105C13.5424 8.04525 12.6292 8.7428 11.6 8.70005C10.7291 8.70384 9.89583 8.3452 9.29995 7.71005C9.06853 7.45392 9.08855 7.05872 9.34467 6.8273C9.34481 6.82716 9.34491 6.82706 9.345 6.82702ZM4.905 2.26598H6.37702C7.54205 2.24062 8.50706 3.16453 8.53242 4.32956C8.55778 5.49459 7.63387 6.45961 6.46884 6.48497C6.43823 6.48562 6.40763 6.48562 6.37697 6.48497H5.53697V8.15198C5.53697 8.49717 5.25712 8.77697 4.91198 8.77697C4.56684 8.77697 4.287 8.49712 4.287 8.15198V2.89097C4.28602 2.84709 4.28606 2.63747 4.44848 2.46169C4.62816 2.26734 4.86666 2.26561 4.905 2.26598ZM21 15H17C15.8955 15 15 15.8955 15 17V21H4.5C3.67158 21 3 20.3284 3 19.5V11H21V15Z" fill="#374957"/>
</g>
<defs>
<clipPath id="clip0_405_1807">
<rect width="24" height="24" fill="white"/>
</clipPath>
</defs>
</svg>
