<svg width="24" height="24" viewBox="0 0 24 24" fill="none" xmlns="http://www.w3.org/2000/svg">
<g clip-path="url(#clip0_405_1712)">
<path d="M18.5 21H5.5C4.0418 20.9984 2.64377 20.4184 1.61267 19.3873C0.581561 18.3562 0.00158817 16.9582 0 15.5L0 8.5C0.00158817 7.0418 0.581561 5.64377 1.61267 4.61267C2.64377 3.58156 4.0418 3.00159 5.5 3H18.5C19.9582 3.00159 21.3562 3.58156 22.3873 4.61267C23.4184 5.64377 23.9984 7.0418 24 8.5V15.5C23.9984 16.9582 23.4184 18.3562 22.3873 19.3873C21.3562 20.4184 19.9582 20.9984 18.5 21ZM5.5 6C4.83696 6 4.20107 6.26339 3.73223 6.73223C3.26339 7.20107 3 7.83696 3 8.5V15.5C3 16.163 3.26339 16.7989 3.73223 17.2678C4.20107 17.7366 4.83696 18 5.5 18H18.5C19.163 18 19.7989 17.7366 20.2678 17.2678C20.7366 16.7989 21 16.163 21 15.5V8.5C21 7.83696 20.7366 7.20107 20.2678 6.73223C19.7989 6.26339 19.163 6 18.5 6H5.5ZM5.5 7C5.20333 7 4.91332 7.08797 4.66664 7.2528C4.41997 7.41762 4.22771 7.65189 4.11418 7.92597C4.00065 8.20006 3.97094 8.50166 4.02882 8.79264C4.0867 9.08361 4.22956 9.35088 4.43934 9.56066C4.64912 9.77044 4.91639 9.9133 5.20736 9.97118C5.49834 10.0291 5.79994 9.99935 6.07403 9.88582C6.34811 9.77229 6.58238 9.58003 6.7472 9.33335C6.91203 9.08668 7 8.79667 7 8.5C7 8.10218 6.84196 7.72064 6.56066 7.43934C6.27936 7.15804 5.89782 7 5.5 7ZM17 8.5C17 8.79667 17.088 9.08668 17.2528 9.33335C17.4176 9.58003 17.6519 9.77229 17.926 9.88582C18.2001 9.99935 18.5017 10.0291 18.7926 9.97118C19.0836 9.9133 19.3509 9.77044 19.5607 9.56066C19.7704 9.35088 19.9133 9.08361 19.9712 8.79264C20.0291 8.50166 19.9993 8.20006 19.8858 7.92597C19.7723 7.65189 19.58 7.41762 19.3334 7.2528C19.0867 7.08797 18.7967 7 18.5 7C18.1022 7 17.7206 7.15804 17.4393 7.43934C17.158 7.72064 17 8.10218 17 8.5ZM6.561 14.439C6.35118 14.2293 6.08391 14.0866 5.79296 14.0288C5.50202 13.971 5.20047 14.0007 4.92643 14.1143C4.6524 14.2278 4.41819 14.4201 4.25341 14.6667C4.08863 14.9134 4.00068 15.2034 4.00068 15.5C4.00068 15.7966 4.08863 16.0866 4.25341 16.3333C4.41819 16.5799 4.6524 16.7722 4.92643 16.8857C5.20047 16.9993 5.50202 17.029 5.79296 16.9712C6.08391 16.9134 6.35118 16.7707 6.561 16.561C6.70039 16.4217 6.81096 16.2563 6.88641 16.0742C6.96185 15.8922 7.00068 15.6971 7.00068 15.5C7.00068 15.3029 6.96185 15.1078 6.88641 14.9258C6.81096 14.7437 6.70039 14.5783 6.561 14.439ZM17 15.5C17 15.7967 17.088 16.0867 17.2528 16.3334C17.4176 16.58 17.6519 16.7723 17.926 16.8858C18.2001 16.9993 18.5017 17.0291 18.7926 16.9712C19.0836 16.9133 19.3509 16.7704 19.5607 16.5607C19.7704 16.3509 19.9133 16.0836 19.9712 15.7926C20.0291 15.5017 19.9993 15.2001 19.8858 14.926C19.7723 14.6519 19.58 14.4176 19.3334 14.2528C19.0867 14.088 18.7967 14 18.5 14C18.1022 14 17.7206 14.158 17.4393 14.4393C17.158 14.7206 17 15.1022 17 15.5ZM8.5 12C8.5 11.3078 8.70527 10.6311 9.08986 10.0555C9.47444 9.47993 10.0211 9.03133 10.6606 8.76642C11.3001 8.50151 12.0039 8.4322 12.6828 8.56725C13.3617 8.7023 13.9854 9.03564 14.4749 9.52513C14.9644 10.0146 15.2977 10.6382 15.4327 11.3172C15.5678 11.9961 15.4985 12.6999 15.2336 13.3394C14.9687 13.9789 14.5201 14.5256 13.9445 14.9101C13.3689 15.2947 12.6922 15.5 12 15.5C11.0717 15.5 10.1815 15.1313 9.52513 14.4749C8.86875 13.8185 8.5 12.9283 8.5 12Z" fill="#374957"/>
</g>
<defs>
<clipPath id="clip0_405_1712">
<rect width="24" height="24" fill="white"/>
</clipPath>
</defs>
</svg>
