<svg width="24" height="24" viewBox="0 0 24 24" fill="none" xmlns="http://www.w3.org/2000/svg">
<g clip-path="url(#clip0_405_1366)">
<path d="M23.964 10.4168C23.6623 8.19468 22.7459 6.10106 21.318 4.37193C19.8901 2.6428 18.0076 1.34692 15.8827 0.630373C13.7578 -0.0861735 11.475 -0.194891 9.29161 0.316476C7.10822 0.827844 5.11109 1.93896 3.52537 3.52457C1.93964 5.11018 0.828376 7.10723 0.316847 9.29058C-0.194682 11.4739 -0.0861326 13.7568 0.630257 15.8817C1.34665 18.0067 2.64239 19.8893 4.37141 21.3173C6.10044 22.7453 8.19399 23.6619 10.416 23.9638C10.5944 23.9877 10.7741 23.9998 10.954 23.9998C12.1061 23.9907 13.2081 23.5271 14.02 22.7098L22.709 14.0208C23.1797 13.5559 23.5376 12.9893 23.7551 12.3645C23.9727 11.7398 24.0441 11.0734 23.964 10.4168ZM3.05704 11.0008C3.29224 8.97137 4.20776 7.08145 5.65442 5.63892C7.10108 4.19639 8.99362 3.28629 11.0237 3.0569C13.0537 2.82751 15.1016 3.29236 16.8337 4.3757C18.5658 5.45905 19.8799 7.09703 20.562 9.02276C17.538 9.13661 14.6686 10.3888 12.5286 12.5286C10.3886 14.6684 9.13616 17.5377 9.02204 20.5618C7.0879 19.8852 5.44253 18.5689 4.35792 16.8304C3.27331 15.0919 2.8144 13.0354 3.05704 11.0008ZM12.027 20.4578C12.1618 18.2656 13.0934 16.1984 14.6465 14.6455C16.1996 13.0926 18.2669 12.1612 20.459 12.0268L12.027 20.4578Z" fill="#374957"/>
</g>
<defs>
<clipPath id="clip0_405_1366">
<rect width="24" height="24" fill="white"/>
</clipPath>
</defs>
</svg>
