<svg width="24" height="24" viewBox="0 0 24 24" fill="none" xmlns="http://www.w3.org/2000/svg">
<g clip-path="url(#clip0_405_1800)">
<path d="M15.341 5.99999H14.992C15.9405 5.68455 16.8094 5.16736 17.539 4.48399C18.3744 3.5525 18.8844 2.37463 18.992 1.12799C19.0116 0.976255 18.9961 0.822038 18.9468 0.677212C18.8974 0.532387 18.8155 0.400815 18.7073 0.292627C18.5992 0.184438 18.4676 0.102518 18.3228 0.0531715C18.1779 0.0038252 18.0237 -0.0116309 17.872 0.00799296C16.6253 0.115559 15.4475 0.625525 14.516 1.46099C13.8192 2.24465 13.3624 3.21206 13.2 4.24799C12.9352 2.97721 12.4437 1.76451 11.749 0.667993C11.5283 0.336472 11.185 0.106187 10.7945 0.0277966C10.4041 -0.0505936 9.9985 0.0293329 9.66698 0.249993C9.33545 0.470653 9.10517 0.813972 9.02678 1.20442C8.94839 1.59487 9.02832 2.00047 9.24898 2.33199C9.93478 3.44192 10.3462 4.69934 10.449 5.99999H8.65898C6.31844 6.04886 4.09274 7.02361 2.46964 8.71063C0.846539 10.3976 -0.0415587 12.6593 -2.42474e-05 15C-0.194024 20.655 5.93298 25.877 11.074 23.32C11.3553 23.108 11.6987 22.9948 12.0509 22.9979C12.4031 23.0009 12.7444 23.1201 13.022 23.337C18.138 25.882 24.181 20.578 24 15C24.0415 12.6593 23.1534 10.3976 21.5303 8.71063C19.9072 7.02361 17.6815 6.04886 15.341 5.99999ZM15.341 21C15.0128 20.9798 14.6962 20.8709 14.425 20.685C13.6914 20.2462 12.8547 20.0099 12 20C11.187 20.0174 10.3922 20.2437 9.69198 20.657C9.38451 20.8617 9.02779 20.9801 8.65898 21C1.18198 20.754 1.18498 9.244 8.65898 9H15.341C22.82 9.247 22.814 20.756 15.341 21Z" fill="#374957"/>
</g>
<defs>
<clipPath id="clip0_405_1800">
<rect width="24" height="24" fill="white"/>
</clipPath>
</defs>
</svg>
