<svg width="24" height="24" viewBox="0 0 24 24" fill="none" xmlns="http://www.w3.org/2000/svg">
<g clip-path="url(#clip0_405_1358)">
<path d="M15.5 0H14.812C14.4142 0 14.0326 0.158035 13.7513 0.43934C13.47 0.720644 13.312 1.10218 13.312 1.5C13.3168 1.67541 13.2865 1.85001 13.2227 2.01348C13.1589 2.17695 13.063 2.32598 12.9407 2.45176C12.8183 2.57754 12.672 2.67752 12.5103 2.74579C12.3487 2.81406 12.175 2.84923 11.9995 2.84923C11.824 2.84923 11.6503 2.81406 11.4887 2.74579C11.327 2.67752 11.1807 2.57754 11.0583 2.45176C10.936 2.32598 10.8401 2.17695 10.7763 2.01348C10.7125 1.85001 10.6822 1.67541 10.687 1.5C10.687 1.10218 10.529 0.720644 10.2477 0.43934C9.96636 0.158035 9.58483 0 9.187 0L8.5 0C7.0418 0.00158817 5.64377 0.581561 4.61267 1.61267C3.58156 2.64377 3.00159 4.0418 3 5.5V20.5C3 21.4283 3.36875 22.3185 4.02513 22.9749C4.6815 23.6313 5.57174 24 6.5 24H9.187C9.58483 24 9.96636 23.842 10.2477 23.5607C10.529 23.2794 10.687 22.8978 10.687 22.5C10.6822 22.3246 10.7125 22.15 10.7763 21.9865C10.8401 21.823 10.936 21.674 11.0583 21.5482C11.1807 21.4225 11.327 21.3225 11.4887 21.2542C11.6503 21.1859 11.824 21.1508 11.9995 21.1508C12.175 21.1508 12.3487 21.1859 12.5103 21.2542C12.672 21.3225 12.8183 21.4225 12.9407 21.5482C13.063 21.674 13.1589 21.823 13.2227 21.9865C13.2865 22.15 13.3168 22.3246 13.312 22.5C13.312 22.8978 13.47 23.2794 13.7513 23.5607C14.0326 23.842 14.4142 24 14.812 24H17.5C18.4283 24 19.3185 23.6313 19.9749 22.9749C20.6313 22.3185 21 21.4283 21 20.5V5.5C20.9984 4.0418 20.4184 2.64377 19.3873 1.61267C18.3562 0.581561 16.9582 0.00158817 15.5 0V0ZM17.5 21H16.05C15.7519 20.1644 15.2027 19.4415 14.4776 18.9304C13.7526 18.4192 12.8871 18.1448 12 18.1448C11.1129 18.1448 10.2474 18.4192 9.52237 18.9304C8.7973 19.4415 8.24808 20.1644 7.95 21H6.5C6.36739 21 6.24021 20.9473 6.14645 20.8536C6.05268 20.7598 6 20.6326 6 20.5V16H6.5C6.89782 16 7.27936 15.842 7.56066 15.5607C7.84196 15.2794 8 14.8978 8 14.5C8 14.1022 7.84196 13.7206 7.56066 13.4393C7.27936 13.158 6.89782 13 6.5 13H6V5.5C6.00009 4.92891 6.1957 4.37507 6.55429 3.9306C6.91289 3.48614 7.41285 3.17784 7.971 3.057C8.27731 3.87843 8.82737 4.58661 9.54748 5.08663C10.2676 5.58665 11.1233 5.85462 12 5.85462C12.8767 5.85462 13.7324 5.58665 14.4525 5.08663C15.1726 4.58661 15.7227 3.87843 16.029 3.057C16.5872 3.17784 17.0871 3.48614 17.4457 3.9306C17.8043 4.37507 17.9999 4.92891 18 5.5V13H17.5C17.1022 13 16.7206 13.158 16.4393 13.4393C16.158 13.7206 16 14.1022 16 14.5C16 14.8978 16.158 15.2794 16.4393 15.5607C16.7206 15.842 17.1022 16 17.5 16H18V20.5C18 20.6326 17.9473 20.7598 17.8536 20.8536C17.7598 20.9473 17.6326 21 17.5 21Z" fill="#374957"/>
<path d="M12.5001 12.9994H11.5001C10.6717 12.9994 10.0001 13.671 10.0001 14.4994C10.0001 15.3278 10.6717 15.9994 11.5001 15.9994H12.5001C13.3285 15.9994 14.0001 15.3278 14.0001 14.4994C14.0001 13.671 13.3285 12.9994 12.5001 12.9994Z" fill="#374957"/>
</g>
<defs>
<clipPath id="clip0_405_1358">
<rect width="24" height="24" fill="white"/>
</clipPath>
</defs>
</svg>
