<svg width="24" height="24" viewBox="0 0 24 24" fill="none" xmlns="http://www.w3.org/2000/svg">
<g clip-path="url(#clip0_405_1622)">
<path d="M18.5 0H5.5C4.04188 0.00185226 2.64401 0.58191 1.61296 1.61296C0.58191 2.64401 0.00185226 4.04188 0 5.5L0 14.5C0.00185226 15.9581 0.58191 17.356 1.61296 18.387C2.64401 19.4181 4.04188 19.9981 5.5 20H6.938L11.038 23.428C11.3078 23.6535 11.6483 23.7771 12 23.7771C12.3517 23.7771 12.6922 23.6535 12.962 23.428L17.062 20H18.5C19.9581 19.9981 21.356 19.4181 22.387 18.387C23.4181 17.356 23.9981 15.9581 24 14.5V5.5C23.9981 4.04188 23.4181 2.64401 22.387 1.61296C21.356 0.58191 19.9581 0.00185226 18.5 0V0ZM21 14.5C21 15.163 20.7366 15.7989 20.2678 16.2678C19.7989 16.7366 19.163 17 18.5 17H16.517C16.1652 17.0002 15.8247 17.1241 15.555 17.35L12 20.322L8.445 17.35C8.1753 17.1241 7.83479 17.0002 7.483 17H5.5C4.83696 17 4.20107 16.7366 3.73223 16.2678C3.26339 15.7989 3 15.163 3 14.5V5.5C3 4.83696 3.26339 4.20107 3.73223 3.73223C4.20107 3.26339 4.83696 3 5.5 3H18.5C19.163 3 19.7989 3.26339 20.2678 3.73223C20.7366 4.20107 21 4.83696 21 5.5V14.5Z" fill="#374957"/>
<path d="M7.5 9H10.5C10.8978 9 11.2794 8.84196 11.5607 8.56066C11.842 8.27936 12 7.89782 12 7.5C12 7.10218 11.842 6.72064 11.5607 6.43934C11.2794 6.15804 10.8978 6 10.5 6H7.5C7.10218 6 6.72064 6.15804 6.43934 6.43934C6.15804 6.72064 6 7.10218 6 7.5C6 7.89782 6.15804 8.27936 6.43934 8.56066C6.72064 8.84196 7.10218 9 7.5 9Z" fill="#374957"/>
<path d="M16.5 11.0001H7.5C7.10218 11.0001 6.72064 11.1582 6.43934 11.4395C6.15804 11.7208 6 12.1023 6 12.5001C6 12.8979 6.15804 13.2795 6.43934 13.5608C6.72064 13.8421 7.10218 14.0001 7.5 14.0001H16.5C16.8978 14.0001 17.2794 13.8421 17.5607 13.5608C17.842 13.2795 18 12.8979 18 12.5001C18 12.1023 17.842 11.7208 17.5607 11.4395C17.2794 11.1582 16.8978 11.0001 16.5 11.0001Z" fill="#374957"/>
</g>
<defs>
<clipPath id="clip0_405_1622">
<rect width="24" height="24" fill="white"/>
</clipPath>
</defs>
</svg>
