<svg width="24" height="24" viewBox="0 0 24 24" fill="none" xmlns="http://www.w3.org/2000/svg">
<g clip-path="url(#clip0_405_1327)">
<path d="M22.408 0.305185C22.0914 0.0649891 21.6925 -0.0397993 21.2988 0.0138212C20.9051 0.0674416 20.5488 0.275089 20.308 0.591185L12 11.5202L3.69398 0.591185C3.45316 0.274516 3.09641 0.0664818 2.70221 0.0128464C2.30801 -0.040789 1.90865 0.0643682 1.59198 0.305185C1.27531 0.546001 1.06728 0.902751 1.01364 1.29695C0.960004 1.69115 1.06516 2.09052 1.30598 2.40718L9.35598 12.9992H6.49998C6.10215 12.9992 5.72062 13.1572 5.43932 13.4385C5.15801 13.7198 4.99998 14.1014 4.99998 14.4992C4.99998 14.897 5.15801 15.2785 5.43932 15.5598C5.72062 15.8411 6.10215 15.9992 6.49998 15.9992H10.5V17.9992H6.49998C6.10215 17.9992 5.72062 18.1572 5.43932 18.4385C5.15801 18.7198 4.99998 19.1014 4.99998 19.4992C4.99998 19.897 5.15801 20.2785 5.43932 20.5598C5.72062 20.8412 6.10215 20.9992 6.49998 20.9992H10.5V22.4992C10.5 22.897 10.658 23.2785 10.9393 23.5598C11.2206 23.8412 11.6022 23.9992 12 23.9992C12.3978 23.9992 12.7793 23.8412 13.0606 23.5598C13.3419 23.2785 13.5 22.897 13.5 22.4992V20.9992H17.5C17.8978 20.9992 18.2793 20.8412 18.5606 20.5598C18.8419 20.2785 19 19.897 19 19.4992C19 19.1014 18.8419 18.7198 18.5606 18.4385C18.2793 18.1572 17.8978 17.9992 17.5 17.9992H13.5V15.9992H17.5C17.8978 15.9992 18.2793 15.8411 18.5606 15.5598C18.8419 15.2785 19 14.897 19 14.4992C19 14.1014 18.8419 13.7198 18.5606 13.4385C18.2793 13.1572 17.8978 12.9992 17.5 12.9992H14.644L22.694 2.40718C22.8132 2.25039 22.9004 2.07164 22.9506 1.88114C23.0007 1.69065 23.0129 1.49214 22.9863 1.29695C22.9598 1.10176 22.895 0.913713 22.7958 0.743545C22.6966 0.573378 22.5648 0.424422 22.408 0.305185Z" fill="#374957"/>
</g>
<defs>
<clipPath id="clip0_405_1327">
<rect width="24" height="24" fill="white"/>
</clipPath>
</defs>
</svg>
