<svg width="24" height="24" viewBox="0 0 24 24" fill="none" xmlns="http://www.w3.org/2000/svg">
<g clip-path="url(#clip0_405_1680)">
<path d="M20.17 1.99967L14.9 0.242666C13.5097 -0.177696 12.0098 -0.0334901 10.7251 0.644055C9.4404 1.3216 8.47429 2.47794 8.036 3.86267L8 3.99967H5.5C4.0418 4.00125 2.64377 4.58123 1.61267 5.61233C0.581561 6.64344 0.00158817 8.04146 0 9.49967L0 18.4997C0.00158817 19.9579 0.581561 21.3559 1.61267 22.387C2.64377 23.4181 4.0418 23.9981 5.5 23.9997H10.5C11.3182 23.9994 12.126 23.8164 12.8644 23.464C13.6029 23.1116 14.2532 22.5986 14.768 21.9627C16.0559 22.1328 17.3622 21.8378 18.4519 21.1307C19.5417 20.4237 20.3435 19.351 20.713 18.1057L23.8 8.79967C24.2034 7.41666 24.0494 5.9307 23.3709 4.65982C22.6925 3.38893 21.5436 2.4341 20.17 1.99967ZM13 18.4997C13 19.1627 12.7366 19.7986 12.2678 20.2674C11.7989 20.7363 11.163 20.9997 10.5 20.9997H5.5C4.83696 20.9997 4.20107 20.7363 3.73223 20.2674C3.26339 19.7986 3 19.1627 3 18.4997V9.49967C3 8.83663 3.26339 8.20074 3.73223 7.7319C4.20107 7.26306 4.83696 6.99967 5.5 6.99967H10.5C11.163 6.99967 11.7989 7.26306 12.2678 7.7319C12.7366 8.20074 13 8.83663 13 9.49967V18.4997ZM20.936 7.89967L17.85 17.2107C17.7232 17.6414 17.4822 18.0299 17.1527 18.335C16.8231 18.6401 16.4173 18.8504 15.978 18.9437C15.989 18.7967 16 18.6497 16 18.4997V9.49967C15.9985 8.17371 15.518 6.89293 14.6471 5.89315C13.7761 4.89337 12.5732 4.24189 11.26 4.05867C11.5575 3.63414 11.9805 3.3134 12.4696 3.14141C12.9586 2.96943 13.4892 2.95483 13.987 3.09967L19.255 4.85667C19.8752 5.04668 20.3973 5.47034 20.711 6.03815C21.0247 6.60597 21.1054 7.27347 20.936 7.89967ZM12 12.9997C12 14.4497 10.456 16.3907 9.286 17.3777C8.92652 17.6818 8.47088 17.8487 8 17.8487C7.52912 17.8487 7.07348 17.6818 6.714 17.3777C5.544 16.3907 4 14.4497 4 12.9997C4 12.4692 4.21071 11.9605 4.58579 11.5855C4.96086 11.2104 5.46957 10.9997 6 10.9997C6.53043 10.9997 7.03914 11.2104 7.41421 11.5855C7.78929 11.9605 8 12.4692 8 12.9997C8 12.4692 8.21072 11.9605 8.58579 11.5855C8.96086 11.2104 9.46957 10.9997 10 10.9997C10.5304 10.9997 11.0391 11.2104 11.4142 11.5855C11.7893 11.9605 12 12.4692 12 12.9997Z" fill="#374957"/>
</g>
<defs>
<clipPath id="clip0_405_1680">
<rect width="24" height="24" fill="white"/>
</clipPath>
</defs>
</svg>
