<svg width="24" height="24" viewBox="0 0 24 24" fill="none" xmlns="http://www.w3.org/2000/svg">
<g clip-path="url(#clip0_405_1625)">
<path d="M11.9999 24.0009C11.7669 24.001 11.5371 23.9465 11.3289 23.8419L10.9489 23.6509C8.85188 22.6009 1.99988 18.6719 1.99988 12.1519V7.05193C1.99908 5.94251 2.34823 4.8611 2.99763 3.9616C3.64702 3.0621 4.56359 2.39035 5.61688 2.04193L11.5279 0.0769306C11.8344 -0.0240973 12.1653 -0.0240973 12.4719 0.0769306L18.3829 2.03693C19.4362 2.38535 20.3527 3.0571 21.0021 3.9566C21.6515 4.8561 22.0007 5.93751 21.9999 7.04693V12.1469C21.9999 19.5169 15.0779 22.8749 12.9569 23.7279L12.5629 23.8869C12.3844 23.9611 12.1932 23.9998 11.9999 24.0009ZM11.9999 3.08093L6.56088 4.88093C6.10555 5.03128 5.70939 5.32171 5.42904 5.71073C5.14868 6.09974 4.99847 6.56742 4.99988 7.04693V12.1469C4.99988 16.7539 10.1429 19.8519 12.0679 20.8469C13.9679 20.0389 18.9999 17.4029 18.9999 12.1469V7.04693C19.0004 6.5681 18.8498 6.10132 18.5695 5.71311C18.2892 5.32489 17.8936 5.03506 17.4389 4.88493L11.9999 3.08093ZM13.4999 12.5009V6.50093C13.4999 6.10311 13.3418 5.72157 13.0605 5.44027C12.7792 5.15897 12.3977 5.00093 11.9999 5.00093C11.6021 5.00093 11.2205 5.15897 10.9392 5.44027C10.6579 5.72157 10.4999 6.10311 10.4999 6.50093V12.5009C10.4999 12.8988 10.6579 13.2803 10.9392 13.5616C11.2205 13.8429 11.6021 14.0009 11.9999 14.0009C12.3977 14.0009 12.7792 13.8429 13.0605 13.5616C13.3418 13.2803 13.4999 12.8988 13.4999 12.5009ZM11.9999 15.0009C11.7032 15.0009 11.4132 15.0889 11.1665 15.2537C10.9199 15.4185 10.7276 15.6528 10.6141 15.9269C10.5005 16.201 10.4708 16.5026 10.5287 16.7936C10.5866 17.0845 10.7294 17.3518 10.9392 17.5616C11.149 17.7714 11.4163 17.9142 11.7072 17.9721C11.9982 18.03 12.2998 18.0003 12.5739 17.8867C12.848 17.7732 13.0823 17.581 13.2471 17.3343C13.4119 17.0876 13.4999 16.7976 13.4999 16.5009C13.4999 16.1031 13.3418 15.7216 13.0605 15.4403C12.7792 15.159 12.3977 15.0009 11.9999 15.0009Z" fill="#374957"/>
</g>
<defs>
<clipPath id="clip0_405_1625">
<rect width="24" height="24" fill="white"/>
</clipPath>
</defs>
</svg>
