<svg width="24" height="24" viewBox="0 0 24 24" fill="none" xmlns="http://www.w3.org/2000/svg">
<g clip-path="url(#clip0_405_1389)">
<path d="M22.5 21H5.5C4.83696 21 4.20107 20.7366 3.73223 20.2678C3.26339 19.7989 3 19.163 3 18.5V1.5C3 1.10218 2.84196 0.720644 2.56066 0.43934C2.27936 0.158035 1.89782 0 1.5 0C1.10218 0 0.720644 0.158035 0.43934 0.43934C0.158035 0.720644 0 1.10218 0 1.5L0 18.5C0.00158817 19.9582 0.581561 21.3562 1.61267 22.3873C2.64377 23.4184 4.0418 23.9984 5.5 24H22.5C22.8978 24 23.2794 23.842 23.5607 23.5607C23.842 23.2794 24 22.8978 24 22.5C24 22.1022 23.842 21.7206 23.5607 21.4393C23.2794 21.158 22.8978 21 22.5 21Z" fill="#374957"/>
<path d="M22.4999 3.97607H19.4139C19.2161 3.97612 19.0228 4.03479 18.8584 4.14467C18.694 4.25456 18.5659 4.41072 18.4902 4.59342C18.4145 4.77612 18.3947 4.97715 18.4333 5.17111C18.4719 5.36506 18.5671 5.54322 18.7069 5.68307L19.4399 6.41507L15.8529 10.0001C15.8064 10.0466 15.7513 10.0836 15.6905 10.1088C15.6298 10.134 15.5647 10.147 15.4989 10.147C15.4331 10.147 15.368 10.134 15.3073 10.1088C15.2465 10.0836 15.1913 10.0466 15.1449 10.0001L14.9749 9.83007C14.3083 9.19324 13.4218 8.83788 12.4999 8.83788C11.578 8.83788 10.6915 9.19324 10.0249 9.83007L5.92491 13.9301C5.78165 14.0684 5.66737 14.234 5.58876 14.417C5.51015 14.6 5.46877 14.7968 5.46704 14.996C5.46531 15.1951 5.50326 15.3927 5.57868 15.577C5.6541 15.7614 5.76548 15.9288 5.90632 16.0697C6.04716 16.2105 6.21464 16.3219 6.39898 16.3973C6.58332 16.4727 6.78084 16.5107 6.98001 16.509C7.17918 16.5072 7.37601 16.4658 7.55902 16.3872C7.74202 16.3086 7.90754 16.1943 8.04591 16.0511L12.1459 11.9511C12.1923 11.9045 12.2475 11.8676 12.3083 11.8424C12.369 11.8172 12.4341 11.8042 12.4999 11.8042C12.5657 11.8042 12.6308 11.8172 12.6915 11.8424C12.7523 11.8676 12.8075 11.9045 12.8539 11.9511L13.0239 12.1211C13.6908 12.7575 14.5771 13.1125 15.4989 13.1125C16.4207 13.1125 17.307 12.7575 17.9739 12.1211L21.5599 8.53608L22.2919 9.26907C22.4317 9.40923 22.6099 9.50474 22.8041 9.5435C22.9982 9.58227 23.1994 9.56254 23.3823 9.48683C23.5653 9.41112 23.7216 9.28283 23.8315 9.1182C23.9414 8.95358 24 8.76003 23.9999 8.56208V5.47607C23.9999 5.07825 23.8418 4.69672 23.5605 4.41541C23.2792 4.13411 22.8977 3.97607 22.4999 3.97607Z" fill="#374957"/>
</g>
<defs>
<clipPath id="clip0_405_1389">
<rect width="24" height="24" fill="white"/>
</clipPath>
</defs>
</svg>
