<svg width="24" height="24" viewBox="0 0 24 24" fill="none" xmlns="http://www.w3.org/2000/svg">
<g clip-path="url(#clip0_405_1504)">
<path d="M16 2.75C16 4.913 13.18 7.601 11.775 8.728C11.5551 8.90426 11.2818 9.00031 11 9.00031C10.7182 9.00031 10.4449 8.90426 10.225 8.728C8.82 7.6 6 4.913 6 2.75C5.96846 2.05422 6.21378 1.37427 6.6823 0.858905C7.15081 0.343541 7.80437 0.0347185 8.5 0C9.19563 0.0347185 9.84919 0.343541 10.3177 0.858905C10.7862 1.37427 11.0315 2.05422 11 2.75C10.9685 2.05422 11.2138 1.37427 11.6823 0.858905C12.1508 0.343541 12.8044 0.0347185 13.5 0C14.1956 0.0347185 14.8492 0.343541 15.3177 0.858905C15.7862 1.37427 16.0315 2.05422 16 2.75ZM17.818 20.411L23.018 14.468C23.7076 13.7029 24.0649 12.6951 24.0115 11.6665C23.958 10.6378 23.4982 9.67256 22.733 8.983C21.9679 8.29344 20.9601 7.93607 19.9315 7.98952C18.9028 8.04297 17.9376 8.50285 17.248 9.268L14.81 11.947C14.1395 11.3358 13.2643 10.9979 12.357 11H4.5C3.30693 11.0013 2.16311 11.4759 1.31948 12.3195C0.475854 13.1631 0.00132343 14.3069 0 15.5L0 19.5C0.00132343 20.6931 0.475854 21.8369 1.31948 22.6805C2.16311 23.5241 3.30693 23.9987 4.5 24H9.914C11.4112 23.9999 12.891 23.6796 14.2543 23.0605C15.6175 22.4415 16.8326 21.5382 17.818 20.411ZM12.357 14C12.5201 13.9988 12.6775 14.0598 12.7972 14.1705C12.917 14.2811 12.9902 14.4332 13.0019 14.5959C13.0136 14.7585 12.963 14.9196 12.8603 15.0462C12.7576 15.1729 12.6106 15.2558 12.449 15.278L7.288 16.015C6.89415 16.0712 6.53877 16.2816 6.30004 16.5999C6.06131 16.9181 5.95877 17.3182 6.015 17.712C6.07123 18.1058 6.2816 18.4612 6.59985 18.7C6.9181 18.9387 7.31815 19.0412 7.712 18.985L12.874 18.248C13.6569 18.1322 14.3812 17.7661 14.9387 17.2044C15.4962 16.6427 15.857 15.9157 15.967 15.132L19.467 11.289C19.545 11.2031 19.6392 11.1335 19.7442 11.084C19.8492 11.0346 19.9629 11.0063 20.0788 11.0008C20.1947 10.9954 20.3105 11.0128 20.4197 11.0521C20.5289 11.0914 20.6292 11.1519 20.715 11.23C20.8874 11.3893 20.9899 11.6102 21.0002 11.8447C21.0105 12.0792 20.9278 12.3082 20.77 12.482L15.564 18.437C14.8594 19.2423 13.9907 19.8876 13.0162 20.3297C12.0418 20.7717 10.984 21.0003 9.914 21H4.5C4.10218 21 3.72064 20.842 3.43934 20.5607C3.15804 20.2794 3 19.8978 3 19.5V15.5C3 15.1022 3.15804 14.7206 3.43934 14.4393C3.72064 14.158 4.10218 14 4.5 14H12.357Z" fill="#374957"/>
</g>
<defs>
<clipPath id="clip0_405_1504">
<rect width="24" height="24" fill="white"/>
</clipPath>
</defs>
</svg>
