<svg width="24" height="24" viewBox="0 0 24 24" fill="none" xmlns="http://www.w3.org/2000/svg">
<g clip-path="url(#clip0_405_1433)">
<path d="M20.5002 7C19.5719 7 18.6817 6.63125 18.0253 5.97487C17.3689 5.3185 17.0002 4.42826 17.0002 3.5C17.0002 2.57174 17.3689 1.6815 18.0253 1.02513C18.6817 0.368749 19.5719 0 20.5002 0C21.4284 0 22.3187 0.368749 22.975 1.02513C23.6314 1.6815 24.0002 2.57174 24.0002 3.5C24.0002 4.42826 23.6314 5.3185 22.975 5.97487C22.3187 6.63125 21.4284 7 20.5002 7ZM21.0622 24H12.9362C12.4223 24.0046 11.9163 23.8733 11.4696 23.6194C11.0228 23.3654 10.6511 22.9979 10.3922 22.554C10.1388 22.1264 10.003 21.6394 9.99863 21.1424C9.99424 20.6454 10.1214 20.156 10.3672 19.724L14.4332 12.489C14.6964 12.0419 15.0717 11.6713 15.5221 11.4138C15.9725 11.1563 16.4824 11.0209 17.0012 11.0209C17.52 11.0209 18.0298 11.1563 18.4802 11.4138C18.9306 11.6713 19.306 12.0419 19.5692 12.489L23.6322 19.721C23.8784 20.1532 24.0058 20.6429 24.0014 21.1404C23.997 21.6378 23.861 22.1252 23.6072 22.553C23.3483 22.9972 22.9765 23.365 22.5295 23.6192C22.0825 23.8733 21.5763 24.0047 21.0622 24ZM16.9912 14.023L13.1072 21H20.9192L16.9912 14.023ZM8.00017 22.5C8.00017 22.1022 7.84213 21.7206 7.56083 21.4393C7.27952 21.158 6.89799 21 6.50017 21H3.71217C3.58898 21.0022 3.46749 20.9711 3.36049 20.91C3.25349 20.849 3.16494 20.7602 3.10417 20.653C3.04043 20.5479 3.00549 20.4279 3.00286 20.305C3.00023 20.1821 3.02999 20.0607 3.08917 19.953L9.35017 8.372C9.41069 8.25959 9.50052 8.16567 9.61012 8.10021C9.71972 8.03474 9.845 8.00018 9.97267 8.00018C10.1003 8.00018 10.2256 8.03474 10.3352 8.10021C10.4448 8.16567 10.5346 8.25959 10.5952 8.372L11.2172 9.522C11.3051 9.70471 11.4292 9.86768 11.5819 10.0011C11.7346 10.1345 11.9127 10.2356 12.1056 10.2982C12.2984 10.3608 12.502 10.3836 12.7039 10.3654C12.9059 10.3471 13.102 10.2881 13.2805 10.1918C13.459 10.0956 13.6161 9.96424 13.7424 9.80559C13.8687 9.64694 13.9615 9.46434 14.0152 9.26881C14.0689 9.07329 14.0824 8.86891 14.0549 8.66802C14.0274 8.46712 13.9594 8.27389 13.8552 8.1L13.2332 6.949C12.9097 6.36786 12.4369 5.88371 11.8636 5.54665C11.2902 5.20958 10.6372 5.03186 9.97217 5.03186C9.30709 5.03186 8.6541 5.20958 8.08077 5.54665C7.50743 5.88371 7.03459 6.36786 6.71117 6.949L0.450166 18.521C0.144514 19.0863 -0.00918941 19.7212 0.00408874 20.3637C0.0173669 21.0062 0.197172 21.6343 0.525918 22.1864C0.854665 22.7386 1.3211 23.196 1.87959 23.5139C2.43809 23.8318 3.06954 23.9993 3.71217 24H6.50017C6.89799 24 7.27952 23.842 7.56083 23.5607C7.84213 23.2794 8.00017 22.8978 8.00017 22.5Z" fill="#374957"/>
</g>
<defs>
<clipPath id="clip0_405_1433">
<rect width="24" height="24" fill="white"/>
</clipPath>
</defs>
</svg>
