<svg width="24" height="24" viewBox="0 0 24 24" fill="none" xmlns="http://www.w3.org/2000/svg">
<g clip-path="url(#clip0_405_1678)">
<path d="M22 15V8.5C21.9984 7.0418 21.4184 5.64377 20.3873 4.61267C19.3562 3.58156 17.9582 3.00159 16.5 3H7.5C6.0418 3.00159 4.64377 3.58156 3.61267 4.61267C2.58156 5.64377 2.00159 7.0418 2 8.5V15C1.46957 15 0.960859 15.2107 0.585786 15.5858C0.210714 15.9609 0 16.4696 0 17L0 18.154C0.000264957 18.6435 0.194839 19.1129 0.540973 19.459C0.887108 19.8052 1.35649 19.9997 1.846 20H22.154C22.6435 19.9997 23.1129 19.8052 23.459 19.459C23.8052 19.1129 23.9997 18.6435 24 18.154V17C24 16.4696 23.7893 15.9609 23.4142 15.5858C23.0391 15.2107 22.5304 15 22 15ZM14.769 16H9.231L8.308 15H5V8.5C5 7.83696 5.26339 7.20107 5.73223 6.73223C6.20107 6.26339 6.83696 6 7.5 6H16.5C17.163 6 17.7989 6.26339 18.2678 6.73223C18.7366 7.20107 19 7.83696 19 8.5V15H15.692L14.769 16Z" fill="#374957"/>
</g>
<defs>
<clipPath id="clip0_405_1678">
<rect width="24" height="24" fill="white"/>
</clipPath>
</defs>
</svg>
