<svg width="24" height="24" viewBox="0 0 24 24" fill="none" xmlns="http://www.w3.org/2000/svg">
<g clip-path="url(#clip0_405_1441)">
<path d="M18.449 16.0002C17.7194 15.9983 16.9967 16.1414 16.3229 16.4212C15.6491 16.701 15.0376 17.112 14.524 17.6302C12.244 19.9152 9.00599 21.0302 4.62399 21.0302H3.52399C3.41946 21.0334 3.31655 21.0038 3.22972 20.9455C3.1429 20.8872 3.07655 20.8032 3.03999 20.7052C2.99623 20.6086 2.98379 20.5007 3.00441 20.3967C3.02504 20.2927 3.07769 20.1978 3.15499 20.1252L3.66599 19.6132C5.97731 19.4641 8.15434 18.475 9.78699 16.8322L13.621 12.9842C13.67 12.9842 13.721 12.9962 13.768 12.9982C13.855 12.9982 13.942 13.0042 14.028 13.0042C15.6357 13.0024 17.1771 12.363 18.314 11.2262L19.226 10.3132C19.8197 9.71666 20.283 9.00336 20.5867 8.21845C20.8904 7.43354 21.0278 6.59412 20.9902 5.75334C20.9526 4.91257 20.7408 4.08877 20.3683 3.3341C19.9957 2.57943 19.4706 1.91034 18.826 1.36919C17.6197 0.408757 16.0994 -0.0688098 14.5606 0.0293287C13.0218 0.127467 11.5745 0.794298 10.5 1.90019L9.92199 2.48019C9.25697 3.14579 8.7463 3.94938 8.4261 4.83412C8.1059 5.71886 7.98399 6.66314 8.06899 7.60019L4.31999 11.3562C2.68223 12.9942 1.69716 15.1726 1.54899 17.4842L1.03299 18.0002C0.540214 18.4938 0.204704 19.1223 0.0688105 19.8064C-0.0670829 20.4905 0.00273123 21.1996 0.269441 21.844C0.536151 22.4885 0.987802 23.0395 1.56739 23.4275C2.14697 23.8155 2.82852 24.0232 3.52599 24.0242H4.62599C9.84399 24.0242 13.777 22.6242 16.649 19.7462C16.8846 19.5086 17.1651 19.3202 17.474 19.1918C17.783 19.0634 18.1144 18.9976 18.449 18.9982C19.127 18.9998 19.7766 19.2706 20.255 19.751C20.7333 20.2314 21.0013 20.8822 21 21.5602V22.5262C21 22.924 21.158 23.3055 21.4393 23.5868C21.7206 23.8682 22.1022 24.0262 22.5 24.0262C22.8978 24.0262 23.2793 23.8682 23.5607 23.5868C23.842 23.3055 24 22.924 24 22.5262V21.5602C24 20.0871 23.4154 18.6743 22.3747 17.6319C21.3339 16.5894 19.922 16.0026 18.449 16.0002ZM12.041 4.60019L12.618 4.02219C13.2542 3.37567 14.121 3.00809 15.028 3.00019C15.7102 2.99281 16.3728 3.22775 16.898 3.66319C17.2242 3.93704 17.4899 4.27564 17.6784 4.65755C17.8669 5.03946 17.9741 5.45635 17.993 5.88182C18.012 6.30729 17.9425 6.73207 17.7887 7.12925C17.635 7.52644 17.4005 7.88737 17.1 8.18919L16.188 9.10319C15.8886 9.40372 15.5297 9.63843 15.1344 9.79227C14.739 9.94612 14.3159 10.0157 13.8921 9.9966C13.4683 9.9775 13.0532 9.8701 12.6733 9.6813C12.2934 9.4925 11.9571 9.22645 11.686 8.90019C11.2038 8.26609 10.9733 7.47601 11.0389 6.68211C11.1044 5.88821 11.4614 5.14663 12.041 4.60019ZM6.44099 13.4802L9.26199 10.6492C9.30699 10.7072 9.33699 10.7722 9.38399 10.8282C9.71315 11.218 10.0905 11.5645 10.507 11.8592L7.66399 14.7102C6.85649 15.523 5.8495 16.1093 4.74399 16.4102C5.04409 15.3 5.63028 14.2879 6.44399 13.4752L6.44099 13.4802Z" fill="#374957"/>
</g>
<defs>
<clipPath id="clip0_405_1441">
<rect width="24" height="24" fill="white"/>
</clipPath>
</defs>
</svg>
