<svg width="24" height="24" viewBox="0 0 24 24" fill="none" xmlns="http://www.w3.org/2000/svg">
<g clip-path="url(#clip0_405_1700)">
<path d="M19.5101 23.9999H4.48807C3.71597 24.0023 2.95656 23.8036 2.28463 23.4232C1.61269 23.0429 1.05142 22.4941 0.656074 21.8309C0.253454 21.1689 0.0285552 20.4143 0.00315235 19.6399C-0.0222505 18.8656 0.152703 18.0978 0.511074 17.4109L8.02207 2.42788C8.39707 1.69595 8.96701 1.08186 9.66898 0.653403C10.371 0.224947 11.1777 -0.001215 12.0001 -0.000118099C12.8223 -0.000805223 13.6287 0.225537 14.3304 0.653959C15.0322 1.08238 15.602 1.69624 15.9771 2.42788L23.4971 17.4279C23.8502 18.1135 24.0215 18.8783 23.9946 19.649C23.9677 20.4198 23.7436 21.1708 23.3436 21.8301C22.9435 22.4895 22.3811 23.0352 21.7099 23.4151C21.0387 23.795 20.2813 23.9963 19.5101 23.9999ZM10.6771 3.80788L3.17107 18.7809C3.04731 19.0112 2.98589 19.2698 2.9929 19.5312C2.99992 19.7926 3.07513 20.0476 3.21107 20.2709C3.34202 20.4926 3.52888 20.6761 3.75298 20.803C3.97708 20.9299 4.23056 20.9957 4.48807 20.9939H19.5101C19.7685 20.9938 20.0225 20.9269 20.2474 20.7998C20.4724 20.6726 20.6607 20.4895 20.7941 20.2682C20.9275 20.0469 21.0015 19.7949 21.0088 19.5366C21.0162 19.2783 20.9567 19.0224 20.8361 18.7939L13.3171 3.79388C13.1922 3.55337 13.0029 3.35232 12.7703 3.21317C12.5377 3.07402 12.2711 3.00226 12.0001 3.00588C11.7268 3.00314 11.4581 3.07676 11.2243 3.21845C10.9906 3.36015 10.8011 3.56429 10.6771 3.80788Z" fill="#374957"/>
</g>
<defs>
<clipPath id="clip0_405_1700">
<rect width="24" height="24" fill="white"/>
</clipPath>
</defs>
</svg>
