<svg width="24" height="24" viewBox="0 0 24 24" fill="none" xmlns="http://www.w3.org/2000/svg">
<g clip-path="url(#clip0_405_1493)">
<path d="M21.6559 5.41903L14.9749 0.910028C14.0975 0.313561 13.061 -0.00537109 11.9999 -0.00537109C10.9389 -0.00537109 9.90242 0.313561 9.02494 0.910028L2.34394 5.41803C1.62168 5.90441 1.03011 6.56095 0.621352 7.32981C0.212594 8.09867 -0.000809372 8.95626 -5.90635e-05 9.82703V18.682C0.001529 20.092 0.562327 21.4437 1.5593 22.4407C2.55628 23.4376 3.90801 23.9984 5.31794 24H18.6819C20.0919 23.9984 21.4436 23.4376 22.4406 22.4407C23.4376 21.4437 23.9984 20.092 23.9999 18.682V9.82703C24.0008 8.95638 23.7874 8.0989 23.3786 7.33018C22.9699 6.56147 22.3783 5.90513 21.6559 5.41903ZM20.9999 18.682C20.9991 19.2966 20.7547 19.8857 20.3201 20.3202C19.8856 20.7548 19.2965 20.9992 18.6819 21H5.31794C4.70341 20.9992 4.11428 20.7548 3.67974 20.3202C3.24521 19.8857 3.00074 19.2966 2.99994 18.682V9.82703C2.99972 9.44755 3.09271 9.07382 3.27073 8.73869C3.44876 8.40356 3.70638 8.11729 4.02094 7.90503L10.6999 3.40003C11.0826 3.14071 11.5342 3.00209 11.9964 3.00209C12.4587 3.00209 12.9103 3.14071 13.2929 3.40003L19.9749 7.91003C20.2897 8.12117 20.5478 8.40641 20.7266 8.74067C20.9053 9.07493 20.9992 9.44798 20.9999 9.82703V18.682ZM11.9999 8.00003C11.0111 8.00004 10.0445 8.29326 9.22227 8.8426C8.40007 9.39195 7.75922 10.1728 7.38074 11.0863C7.00227 11.9998 6.90317 13.0051 7.09598 13.9749C7.28878 14.9448 7.76483 15.8357 8.46394 16.535L11.1129 19.126C11.35 19.3578 11.6684 19.4875 11.9999 19.4875C12.3315 19.4875 12.6498 19.3578 12.8869 19.126L15.5349 16.535C16.234 15.8358 16.71 14.945 16.9029 13.9752C17.0957 13.0054 16.9967 12.0003 16.6183 11.0868C16.24 10.1733 15.5993 9.39244 14.7772 8.84302C13.9552 8.2936 12.9887 8.00024 11.9999 8.00003ZM11.9999 14.554C11.7033 14.554 11.4133 14.4661 11.1666 14.3012C10.9199 14.1364 10.7277 13.9021 10.6141 13.6281C10.5006 13.354 10.4709 13.0524 10.5288 12.7614C10.5866 12.4704 10.7295 12.2031 10.9393 11.9934C11.1491 11.7836 11.4163 11.6407 11.7073 11.5828C11.9983 11.525 12.2999 11.5547 12.574 11.6682C12.8481 11.7817 13.0823 11.974 13.2471 12.2207C13.412 12.4673 13.4999 12.7574 13.4999 13.054C13.4999 13.4519 13.3419 13.8334 13.0606 14.1147C12.7793 14.396 12.3978 14.554 11.9999 14.554Z" fill="#374957"/>
</g>
<defs>
<clipPath id="clip0_405_1493">
<rect width="24" height="24" fill="white"/>
</clipPath>
</defs>
</svg>
