<svg width="24" height="24" viewBox="0 0 24 24" fill="none" xmlns="http://www.w3.org/2000/svg">
<g clip-path="url(#clip0_405_1703)">
<path d="M0.220948 4.28296C0.118346 4.11475 0.0498885 3.92797 0.0194878 3.73329C-0.0109129 3.53862 -0.0026616 3.33986 0.0437704 3.14838C0.0902023 2.95689 0.173905 2.77643 0.290097 2.6173C0.406289 2.45817 0.552694 2.32349 0.720948 2.22096L3.98895 0.22096C4.157 0.109054 4.34592 0.0322275 4.54438 -0.00491617C4.74283 -0.0420598 4.94675 -0.0387559 5.1439 0.00479747C5.34105 0.0483509 5.52738 0.131257 5.69172 0.248548C5.85606 0.36584 5.99503 0.515101 6.1003 0.687388C6.20557 0.859676 6.27498 1.05144 6.30436 1.2512C6.33374 1.45095 6.32249 1.65458 6.27129 1.84988C6.22009 2.04519 6.12998 2.22814 6.00638 2.38779C5.88277 2.54743 5.72821 2.68048 5.55195 2.77896L2.28295 4.77896C2.11474 4.88156 1.92796 4.95002 1.73328 4.98042C1.53861 5.01082 1.33985 5.00257 1.14836 4.95614C0.956879 4.90971 0.776418 4.826 0.617289 4.70981C0.45816 4.59362 0.323482 4.44721 0.220948 4.27896V4.28296ZM23.2879 17.983C22.9494 17.7741 22.5417 17.7083 22.1547 17.8C21.7676 17.8917 21.4328 18.1334 21.2239 18.472L19.2239 21.713C19.1158 21.8806 19.0422 22.0681 19.0074 22.2645C18.9726 22.4609 18.9773 22.6623 19.0213 22.8569C19.0652 23.0515 19.1476 23.2353 19.2635 23.3977C19.3794 23.56 19.5265 23.6976 19.6962 23.8025C19.8659 23.9073 20.0549 23.9772 20.2519 24.0081C20.449 24.039 20.6503 24.0303 20.8439 23.9825C21.0376 23.9347 21.2198 23.8487 21.3798 23.7296C21.5398 23.6105 21.6745 23.4607 21.7759 23.289L23.7759 20.048C23.8797 19.8803 23.9494 19.6938 23.981 19.4992C24.0126 19.3046 24.0056 19.1057 23.9603 18.9138C23.9149 18.7219 23.8322 18.5408 23.7169 18.3809C23.6015 18.2211 23.4558 18.0855 23.2879 17.982V17.983ZM20.8349 15.483L17.2349 21.348C16.7971 22.0651 16.2016 22.673 15.4936 23.1255C14.7855 23.5779 13.9837 23.863 13.1489 23.959C12.9289 23.9844 12.7075 23.9974 12.4859 23.998C11.2568 23.9931 10.0647 23.5766 9.09995 22.815C8.31518 23.5758 7.26377 23.9993 6.17072 23.9947C5.07768 23.9901 4.02984 23.5579 3.25147 22.7905C2.47309 22.0231 2.02602 20.9815 2.00592 19.8886C1.98583 18.7958 2.39431 17.7385 3.14395 16.943L1.64995 15.443C1.05201 14.85 0.597131 14.1285 0.319884 13.3333C0.042637 12.5381 -0.0496806 11.6902 0.0499483 10.854C0.144746 10.0261 0.427002 9.23066 0.87527 8.5282C1.32354 7.82573 1.92602 7.23468 2.63695 6.79996L8.12395 3.41296C9.63748 2.4445 11.4067 1.95226 13.2029 1.99986C14.9992 2.04745 16.7398 2.6327 18.1999 3.67996L19.4399 2.43896C19.7213 2.15756 20.103 1.99948 20.5009 1.99948C20.8989 1.99948 21.2806 2.15756 21.5619 2.43896C21.8433 2.72035 22.0014 3.10201 22.0014 3.49996C22.0014 3.89791 21.8433 4.27956 21.5619 4.56096L20.3229 5.79996C21.3182 7.19966 21.8948 8.85356 21.9854 10.5686C22.0761 12.2837 21.6771 13.9891 20.8349 15.486V15.483ZM17.2349 6.77596C16.2647 5.79976 14.9891 5.18559 13.6209 5.03583C12.2527 4.88607 10.8744 5.20976 9.71595 5.95296L4.21595 9.35296C3.8915 9.55198 3.61663 9.82227 3.41218 10.1433C3.20773 10.4644 3.07906 10.8278 3.03595 11.206C2.99026 11.5925 3.03334 11.9843 3.16192 12.3517C3.2905 12.7191 3.50119 13.0523 3.77795 13.326L10.6899 20.254C10.9639 20.5267 11.296 20.7339 11.6614 20.8601C12.0268 20.9864 12.416 21.0283 12.7999 20.9828C13.1837 20.9373 13.5524 20.8055 13.8781 20.5974C14.2039 20.3893 14.4783 20.1102 14.6809 19.781L18.2539 13.963C18.8878 12.8175 19.1313 11.4967 18.9476 10.2005C18.7639 8.90434 18.1631 7.70323 17.2359 6.77896L17.2349 6.77596Z" fill="#374957"/>
</g>
<defs>
<clipPath id="clip0_405_1703">
<rect width="24" height="24" fill="white"/>
</clipPath>
</defs>
</svg>
