<svg width="24" height="24" viewBox="0 0 24 24" fill="none" xmlns="http://www.w3.org/2000/svg">
<g clip-path="url(#clip0_405_1722)">
<path d="M18.5 0H13C12.6022 0 12.2206 0.158035 11.9393 0.43934C11.658 0.720644 11.5 1.10218 11.5 1.5C11.5 1.89782 11.658 2.27936 11.9393 2.56066C12.2206 2.84196 12.6022 3 13 3H18.5C18.6154 3.00348 18.7303 3.01518 18.844 3.035L0.443997 21.435C0.162603 21.7164 0.0045166 22.098 0.0045166 22.496C0.0045166 22.894 0.162603 23.2756 0.443997 23.557C0.725392 23.8384 1.10705 23.9965 1.505 23.9965C1.90295 23.9965 2.2846 23.8384 2.566 23.557L20.966 5.157C20.9854 5.27038 20.9968 5.38501 21 5.5V11C21 11.3978 21.158 11.7794 21.4393 12.0607C21.7206 12.342 22.1022 12.5 22.5 12.5C22.8978 12.5 23.2794 12.342 23.5607 12.0607C23.842 11.7794 24 11.3978 24 11V5.5C23.9981 4.04188 23.4181 2.64401 22.387 1.61296C21.356 0.58191 19.9581 0.00185226 18.5 0V0Z" fill="#374957"/>
<path d="M6.49988 11.0001C7.38989 11.0001 8.25992 10.7362 8.99994 10.2417C9.73996 9.74727 10.3167 9.04447 10.6573 8.2222C10.9979 7.39993 11.087 6.49513 10.9134 5.62222C10.7398 4.7493 10.3112 3.94748 9.68186 3.31814C9.05252 2.68881 8.2507 2.26022 7.37778 2.08659C6.50487 1.91296 5.60007 2.00207 4.7778 2.34267C3.95553 2.68326 3.25273 3.26004 2.75826 4.00006C2.2638 4.74008 1.99988 5.61011 1.99988 6.50012C2.0012 7.69319 2.47573 8.83702 3.31936 9.68064C4.16299 10.5243 5.30681 10.9988 6.49988 11.0001ZM6.49988 5.00012C6.79655 5.00012 7.08656 5.0881 7.33323 5.25292C7.57991 5.41774 7.77217 5.65201 7.8857 5.9261C7.99923 6.20019 8.02893 6.50179 7.97106 6.79276C7.91318 7.08373 7.77032 7.35101 7.56054 7.56078C7.35076 7.77056 7.08348 7.91342 6.79251 7.9713C6.50154 8.02918 6.19994 7.99948 5.92585 7.88594C5.65176 7.77241 5.4175 7.58015 5.25267 7.33348C5.08785 7.08681 4.99988 6.7968 4.99988 6.50012C4.99988 6.1023 5.15791 5.72077 5.43922 5.43946C5.72052 5.15816 6.10205 5.00012 6.49988 5.00012Z" fill="#374957"/>
<path d="M17.5 12.9999C16.61 12.9999 15.74 13.2638 14.9999 13.7583C14.2599 14.2527 13.6831 14.9555 13.3425 15.7778C13.0019 16.6001 12.9128 17.5049 13.0865 18.3778C13.2601 19.2507 13.6887 20.0525 14.318 20.6818C14.9474 21.3112 15.7492 21.7398 16.6221 21.9134C17.495 22.087 18.3998 21.9979 19.2221 21.6573C20.0443 21.3167 20.7472 20.74 21.2416 19.9999C21.7361 19.2599 22 18.3899 22 17.4999C21.9987 16.3068 21.5241 15.163 20.6805 14.3194C19.8369 13.4757 18.6931 13.0012 17.5 12.9999ZM17.5 18.9999C17.2033 18.9999 16.9133 18.9119 16.6666 18.7471C16.42 18.5823 16.2277 18.348 16.1142 18.0739C16.0007 17.7998 15.9709 17.4982 16.0288 17.2072C16.0867 16.9163 16.2296 16.649 16.4393 16.4392C16.6491 16.2294 16.9164 16.0866 17.2074 16.0287C17.4983 15.9708 17.7999 16.0005 18.074 16.1141C18.3481 16.2276 18.5824 16.4198 18.7472 16.6665C18.912 16.9132 19 17.2032 19 17.4999C19 17.8977 18.842 18.2792 18.5607 18.5605C18.2794 18.8418 17.8978 18.9999 17.5 18.9999Z" fill="#374957"/>
</g>
<defs>
<clipPath id="clip0_405_1722">
<rect width="24" height="24" fill="white"/>
</clipPath>
</defs>
</svg>
