<svg width="24" height="24" viewBox="0 0 24 24" fill="none" xmlns="http://www.w3.org/2000/svg">
<g clip-path="url(#clip0_405_1661)">
<path d="M24.0001 5C23.9985 4.32732 23.7708 3.6747 23.3537 3.14695C22.9366 2.6192 22.3542 2.24696 21.7001 2.09C21.4267 1.46892 20.9787 0.940702 20.4106 0.569637C19.8424 0.198572 19.1787 0.000663221 18.5001 0L5.50008 0C4.8215 0.000663221 4.15775 0.198572 3.58961 0.569637C3.02147 0.940702 2.57345 1.46892 2.30008 2.09C1.67126 2.2495 1.11109 2.60853 0.703543 3.11327C0.296 3.61801 0.0630486 4.24125 0.0396171 4.88956C0.0161856 5.53787 0.203536 6.1763 0.573579 6.70915C0.943623 7.24199 1.47642 7.64052 2.09208 7.845L3.53908 19.4C3.69896 20.6693 4.31618 21.8367 5.2751 22.6835C6.23401 23.5303 7.46879 23.9983 8.74808 24H15.2481C16.5274 23.9983 17.7622 23.5303 18.7211 22.6835C19.68 21.8367 20.2972 20.6693 20.4571 19.4L21.9061 7.845C22.5117 7.65412 23.041 7.27564 23.4174 6.76423C23.7938 6.25283 23.9978 5.63499 24.0001 5ZM18.2381 13H14.8161C13.9161 9.041 10.0831 9.043 9.18408 13H5.76208L5.13708 8H18.8631L18.2381 13ZM5.50008 3H18.5001C18.6327 3 18.7599 3.05268 18.8536 3.14645C18.9474 3.24021 19.0001 3.36739 19.0001 3.5V5H5.00008V3.5C5.00008 3.36739 5.05276 3.24021 5.14653 3.14645C5.2403 3.05268 5.36747 3 5.50008 3ZM15.2521 21H8.75208C8.20375 20.999 7.67458 20.7982 7.26357 20.4352C6.85257 20.0723 6.5879 19.572 6.51908 19.028L6.13708 16H9.18408C10.0841 19.959 13.9171 19.957 14.8161 16H17.8631L17.4841 19.029C17.4155 19.5728 17.151 20.073 16.7401 20.4358C16.3292 20.7986 15.8002 20.9992 15.2521 21Z" fill="#374957"/>
</g>
<defs>
<clipPath id="clip0_405_1661">
<rect width="24" height="24" fill="white"/>
</clipPath>
</defs>
</svg>
