<svg width="24" height="24" viewBox="0 0 24 24" fill="none" xmlns="http://www.w3.org/2000/svg">
<g clip-path="url(#clip0_405_1534)">
<path d="M11.608 3.52881H10.77L10.776 5.25179H11.608C12.0882 5.25362 12.4824 4.87271 12.497 4.39281C12.4845 3.91117 12.0898 3.52759 11.608 3.52881Z" fill="#374957"/>
<path d="M19.5 0H4.5C2.01586 0.00276563 0.00276563 2.01586 0 4.5V19.5C0.00276563 21.9841 2.01586 23.9972 4.5 24H16.484C17.6782 24.0037 18.8242 23.529 19.666 22.682L22.682 19.667C23.5285 18.8249 24.0031 17.6791 24 16.485V4.5C23.9972 2.01586 21.9841 0.00276563 19.5 0ZM14.6 6.92198C14.8086 6.72488 15.1275 6.70308 15.361 6.87L15.488 6.96998C15.7367 7.188 16.024 7.35755 16.335 7.47C16.6553 7.56366 16.9972 7.55138 17.31 7.43498C17.5149 7.37269 17.6819 7.22297 17.766 7.026C17.8312 6.82069 17.7733 6.5962 17.617 6.44798C17.4781 6.32231 17.3137 6.22819 17.135 6.17198C16.72 6.01997 16.311 5.85698 15.902 5.688C15.5114 5.55234 15.1748 5.29463 14.942 4.953C14.7341 4.62642 14.6507 4.236 14.707 3.85298C14.7383 3.64191 14.8085 3.43847 14.914 3.25298C15.1405 2.85891 15.5066 2.56411 15.94 2.427C16.7607 2.20847 17.6348 2.32772 18.367 2.75798C18.5303 2.83931 18.6702 2.96119 18.773 3.11198C18.93 3.3367 18.9168 3.63872 18.741 3.849C18.504 4.13002 18.158 4.04902 17.8629 3.92302C17.5959 3.8047 17.3225 3.70153 17.0439 3.61402C16.8496 3.54281 16.6425 3.51281 16.4359 3.52603C16.2264 3.54202 16.0406 3.66647 15.9459 3.85402C15.8711 4.07184 15.9301 4.31325 16.0969 4.47202C16.2645 4.62347 16.4696 4.72711 16.6909 4.77202C16.9699 4.84402 17.2529 4.896 17.5269 4.989C17.8601 5.10112 18.1677 5.27822 18.432 5.51002C18.9018 5.90944 19.1292 6.52505 19.032 7.134C18.8002 8.14008 17.8823 8.83659 16.851 8.78901C15.981 8.79398 15.1481 8.43764 14.5509 7.80502C14.3206 7.54791 14.3423 7.1528 14.5995 6.92245C14.5997 6.92231 14.5998 6.92217 14.6 6.92198ZM10.141 2.28H11.606C12.771 2.25464 13.736 3.1785 13.7614 4.34358C13.7868 5.50861 12.8629 6.47362 11.6978 6.49903C11.6672 6.49969 11.6366 6.49969 11.606 6.49903H10.766V8.16502C10.766 8.5102 10.4861 8.79 10.141 8.79C9.7958 8.79 9.516 8.51016 9.516 8.16502L9.51801 2.90002C9.51642 2.85834 9.51258 2.64694 9.67481 2.47102C9.85786 2.2725 10.1053 2.2785 10.141 2.28ZM4.809 2.92402C4.80956 2.57925 5.08922 2.30002 5.43398 2.30002H7.63397C7.97916 2.30002 8.25895 2.57986 8.25895 2.925C8.25895 3.27014 7.97911 3.54998 7.63397 3.54998H6.05897V4.90997H7.46798C7.81317 4.90997 8.09297 5.18981 8.09297 5.53495C8.09297 5.88009 7.81313 6.15994 7.46798 6.15994H6.05897V7.51594H7.62998C7.97517 7.51594 8.25497 7.79578 8.25497 8.14092C8.25497 8.48611 7.97512 8.76591 7.62998 8.76591H5.43C5.08481 8.76591 4.80502 8.48606 4.80502 8.14092L4.809 2.92402ZM21 15H17C15.8955 15 15 15.8955 15 17V21H4.5C3.67158 21 3 20.3284 3 19.5V11H21V15Z" fill="#374957"/>
</g>
<defs>
<clipPath id="clip0_405_1534">
<rect width="24" height="24" fill="white"/>
</clipPath>
</defs>
</svg>
