<svg width="24" height="24" viewBox="0 0 24 24" fill="none" xmlns="http://www.w3.org/2000/svg">
<g clip-path="url(#clip0_405_1741)">
<path d="M19.5 4H15.449C15.3286 2.90305 14.8084 1.88887 13.9878 1.15106C13.1671 0.413246 12.1035 0.00348639 11 0L4.5 0C3.30693 0.00132343 2.16311 0.475854 1.31948 1.31948C0.475854 2.16311 0.00132343 3.30693 0 4.5L0 22.5C0 22.8978 0.158035 23.2794 0.43934 23.5607C0.720644 23.842 1.10218 24 1.5 24C1.89782 24 2.27936 23.842 2.56066 23.5607C2.84196 23.2794 3 22.8978 3 22.5V14H9.551C9.67142 15.0969 10.1916 16.1111 11.0122 16.8489C11.8329 17.5868 12.8965 17.9965 14 18H19.5C20.6931 17.9987 21.8369 17.5241 22.6805 16.6805C23.5241 15.8369 23.9987 14.6931 24 13.5V8.5C23.9987 7.30693 23.5241 6.16311 22.6805 5.31948C21.8369 4.47585 20.6931 4.00132 19.5 4ZM3 4.5C3 4.10218 3.15804 3.72064 3.43934 3.43934C3.72064 3.15804 4.10218 3 4.5 3H11C11.3978 3 11.7794 3.15804 12.0607 3.43934C12.342 3.72064 12.5 4.10218 12.5 4.5V9.5C12.5 9.89782 12.342 10.2794 12.0607 10.5607C11.7794 10.842 11.3978 11 11 11H3V4.5ZM21 13.5C21 13.8978 20.842 14.2794 20.5607 14.5607C20.2794 14.842 19.8978 15 19.5 15H14C13.6408 14.9985 13.2941 14.8682 13.0229 14.6328C12.7517 14.3973 12.574 14.0724 12.522 13.717C13.3917 13.4055 14.1442 12.8335 14.6771 12.0789C15.21 11.3243 15.4974 10.4238 15.5 9.5V7H19.5C19.8978 7 20.2794 7.15804 20.5607 7.43934C20.842 7.72064 21 8.10218 21 8.5V13.5Z" fill="#374957"/>
</g>
<defs>
<clipPath id="clip0_405_1741">
<rect width="24" height="24" fill="white"/>
</clipPath>
</defs>
</svg>
