<svg width="24" height="24" viewBox="0 0 24 24" fill="none" xmlns="http://www.w3.org/2000/svg">
<g clip-path="url(#clip0_405_1551)">
<path d="M22.5 13.5H1.5C1.10218 13.5 0.720644 13.342 0.43934 13.0607C0.158035 12.7794 0 12.3978 0 12C0 11.6022 0.158035 11.2207 0.43934 10.9393C0.720644 10.658 1.10218 10.5 1.5 10.5H22.5C22.8978 10.5 23.2794 10.658 23.5607 10.9393C23.842 11.2207 24 11.6022 24 12C24 12.3978 23.842 12.7794 23.5607 13.0607C23.2794 13.342 22.8978 13.5 22.5 13.5ZM18.867 6.90001C19.0093 6.30437 18.9461 5.67813 18.6878 5.12288C18.4295 4.56763 17.9912 4.11591 17.444 3.84101C17.4033 3.82034 17.3613 3.80134 17.318 3.78401L8.863 0.400006C8.34585 0.127783 7.7684 -0.009615 7.18407 0.000522994C6.59973 0.010661 6.02739 0.168008 5.52 0.458006C5.05321 0.731945 4.6669 1.12413 4.40004 1.595C4.13317 2.06587 3.99519 2.59879 4 3.14001V5.78501C4.00079 6.63743 4.33977 7.45472 4.94253 8.05748C5.54529 8.66024 6.36257 8.99921 7.215 9.00001H16C16.6471 9.03584 17.2865 8.8461 17.8094 8.46315C18.3322 8.0802 18.706 7.52775 18.867 6.90001ZM14.779 6.00001H7.215C7.15798 6.00001 7.10329 5.97736 7.06297 5.93703C7.02265 5.89671 7 5.84203 7 5.78501V3.14001C7 3.06801 7.009 3.06301 7.042 3.04001C7.10177 3.01015 7.16829 2.99637 7.235 3.00001C7.317 3.00001 14.779 6.00001 14.779 6.00001ZM8.863 23.6L17.318 20.211C17.3607 20.1937 17.4027 20.1747 17.444 20.154C17.9913 19.8789 18.4296 19.427 18.6879 18.8716C18.9462 18.3162 19.0093 17.6898 18.867 17.094C18.7048 16.4674 18.3305 15.9163 17.8078 15.5345C17.2851 15.1528 16.6463 14.9639 16 15H7.215C6.36275 15.0008 5.54561 15.3396 4.94288 15.9422C4.34015 16.5447 4.00106 17.3618 4 18.214V20.859C3.99516 21.4001 4.13314 21.9329 4.40002 22.4036C4.66689 22.8743 5.05322 23.2663 5.52 23.54C6.03981 23.8432 6.63121 24.002 7.233 24C7.80048 23.9988 8.35941 23.8616 8.863 23.6ZM14.779 18C14.779 18 7.557 20.9 7.5 20.93C7.43125 20.9716 7.35334 20.9956 7.27312 20.9999C7.19291 21.0043 7.11285 20.9889 7.04 20.955C7.007 20.935 6.998 20.93 6.998 20.855V18.214C6.99813 18.1857 7.00385 18.1577 7.01484 18.1316C7.02583 18.1055 7.04187 18.0818 7.06203 18.0619C7.0822 18.042 7.10609 18.0263 7.13234 18.0157C7.15859 18.0051 7.18668 17.9997 7.215 18H14.779Z" fill="#374957"/>
</g>
<defs>
<clipPath id="clip0_405_1551">
<rect width="24" height="24" fill="white"/>
</clipPath>
</defs>
</svg>
