<svg width="24" height="24" viewBox="0 0 24 24" fill="none" xmlns="http://www.w3.org/2000/svg">
<g clip-path="url(#clip0_405_1407)">
<path d="M7.00006 24.0006C8.10462 24.0006 9.00005 23.1052 9.00005 22.0006C9.00005 20.896 8.10462 20.0006 7.00006 20.0006C5.89549 20.0006 5.00006 20.896 5.00006 22.0006C5.00006 23.1052 5.89549 24.0006 7.00006 24.0006Z" fill="#374957"/>
<path d="M17 24.0006C18.1046 24.0006 19 23.1052 19 22.0006C19 20.896 18.1046 20.0006 17 20.0006C15.8954 20.0006 15 20.896 15 22.0006C15 23.1052 15.8954 24.0006 17 24.0006Z" fill="#374957"/>
<path d="M19.75 13.162C19.605 13.6902 19.2905 14.1561 18.8549 14.4882C18.4193 14.8202 17.8867 15.0001 17.339 15H7.217C7.13523 14.9993 7.05665 14.9682 6.99657 14.9128C6.93648 14.8573 6.89921 14.7815 6.892 14.7L6.036 8H10.5C10.8978 8 11.2794 7.84196 11.5607 7.56066C11.842 7.27936 12 6.89782 12 6.5C12 6.10218 11.842 5.72064 11.5607 5.43934C11.2794 5.15804 10.8978 5 10.5 5H5.653L5.391 2.939C5.29594 2.12943 4.90697 1.38292 4.29793 0.841158C3.68888 0.299394 2.90214 7.30021e-05 2.087 0L1.5 0C1.10218 0 0.720644 0.158035 0.43934 0.43934C0.158035 0.720644 0 1.10218 0 1.5C0 1.89782 0.158035 2.27936 0.43934 2.56066C0.720644 2.84196 1.10218 3 1.5 3H2.087C2.16877 3.00068 2.24735 3.03178 2.30743 3.08724C2.36752 3.1427 2.4048 3.21855 2.412 3.3L3.912 15.06C4.00686 15.8699 4.39586 16.6168 5.00514 17.1588C5.61442 17.7008 6.40154 18.0001 7.217 18H17.339C18.5431 17.9993 19.7136 17.6035 20.671 16.8733C21.6285 16.1432 22.3198 15.119 22.639 13.958L22.655 13.898C22.7162 13.6757 22.7253 13.4423 22.6816 13.2159C22.6379 12.9894 22.5426 12.7762 22.4032 12.5926C22.2637 12.409 22.0837 12.26 21.8773 12.1572C21.6709 12.0545 21.4436 12.0007 21.213 12C20.8848 11.9999 20.5657 12.1075 20.3045 12.3062C20.0433 12.5049 19.8545 12.7837 19.767 13.1L19.75 13.162Z" fill="#374957"/>
<path d="M22.5 3H21V1.5C21 1.10218 20.842 0.720644 20.5607 0.43934C20.2794 0.158035 19.8978 0 19.5 0C19.1022 0 18.7206 0.158035 18.4393 0.43934C18.158 0.720644 18 1.10218 18 1.5V3H16.5C16.1022 3 15.7206 3.15804 15.4393 3.43934C15.158 3.72064 15 4.10218 15 4.5C15 4.89782 15.158 5.27936 15.4393 5.56066C15.7206 5.84196 16.1022 6 16.5 6H18V7.5C18 7.89782 18.158 8.27936 18.4393 8.56066C18.7206 8.84196 19.1022 9 19.5 9C19.8978 9 20.2794 8.84196 20.5607 8.56066C20.842 8.27936 21 7.89782 21 7.5V6H22.5C22.8978 6 23.2794 5.84196 23.5607 5.56066C23.842 5.27936 24 4.89782 24 4.5C24 4.10218 23.842 3.72064 23.5607 3.43934C23.2794 3.15804 22.8978 3 22.5 3Z" fill="#374957"/>
</g>
<defs>
<clipPath id="clip0_405_1407">
<rect width="24" height="24" fill="white"/>
</clipPath>
</defs>
</svg>
