<svg width="24" height="24" viewBox="0 0 24 24" fill="none" xmlns="http://www.w3.org/2000/svg">
<g clip-path="url(#clip0_405_1693)">
<path d="M18.5 24H5.5C4.0418 23.9984 2.64377 23.4184 1.61267 22.3873C0.581561 21.3562 0.00158817 19.9582 0 18.5L0 5.5C0.00158817 4.0418 0.581561 2.64377 1.61267 1.61267C2.64377 0.581561 4.0418 0.00158817 5.5 0L18.5 0C19.9582 0.00158817 21.3562 0.581561 22.3873 1.61267C23.4184 2.64377 23.9984 4.0418 24 5.5V18.5C23.9984 19.9582 23.4184 21.3562 22.3873 22.3873C21.3562 23.4184 19.9582 23.9984 18.5 24ZM5.5 3C4.83696 3 4.20107 3.26339 3.73223 3.73223C3.26339 4.20107 3 4.83696 3 5.5V18.5C3 19.163 3.26339 19.7989 3.73223 20.2678C4.20107 20.7366 4.83696 21 5.5 21H18.5C19.163 21 19.7989 20.7366 20.2678 20.2678C20.7366 19.7989 21 19.163 21 18.5V5.5C21 4.83696 20.7366 4.20107 20.2678 3.73223C19.7989 3.26339 19.163 3 18.5 3H5.5ZM19 7C19 6.46957 18.7893 5.96086 18.4142 5.58579C18.0391 5.21071 17.5304 5 17 5H7C6.46957 5 5.96086 5.21071 5.58579 5.58579C5.21071 5.96086 5 6.46957 5 7C5 7.53043 5.21071 8.03914 5.58579 8.41421C5.96086 8.78929 6.46957 9 7 9H17C17.5304 9 18.0391 8.78929 18.4142 8.41421C18.7893 8.03914 19 7.53043 19 7ZM6.5 11.5C6.20333 11.5 5.91332 11.588 5.66664 11.7528C5.41997 11.9176 5.22771 12.1519 5.11418 12.426C5.00065 12.7001 4.97094 13.0017 5.02882 13.2926C5.0867 13.5836 5.22956 13.8509 5.43934 14.0607C5.64912 14.2704 5.91639 14.4133 6.20736 14.4712C6.49834 14.5291 6.79994 14.4994 7.07403 14.3858C7.34811 14.2723 7.58238 14.08 7.7472 13.8334C7.91203 13.5867 8 13.2967 8 13C8 12.6022 7.84196 12.2206 7.56066 11.9393C7.27936 11.658 6.89782 11.5 6.5 11.5ZM11.5 11.5C11.2033 11.5 10.9133 11.588 10.6666 11.7528C10.42 11.9176 10.2277 12.1519 10.1142 12.426C10.0006 12.7001 9.97094 13.0017 10.0288 13.2926C10.0867 13.5836 10.2296 13.8509 10.4393 14.0607C10.6491 14.2704 10.9164 14.4133 11.2074 14.4712C11.4983 14.5291 11.7999 14.4994 12.074 14.3858C12.3481 14.2723 12.5824 14.08 12.7472 13.8334C12.912 13.5867 13 13.2967 13 13C13 12.6022 12.842 12.2206 12.5607 11.9393C12.2794 11.658 11.8978 11.5 11.5 11.5ZM6.5 16C6.20333 16 5.91332 16.088 5.66664 16.2528C5.41997 16.4176 5.22771 16.6519 5.11418 16.926C5.00065 17.2001 4.97094 17.5017 5.02882 17.7926C5.0867 18.0836 5.22956 18.3509 5.43934 18.5607C5.64912 18.7704 5.91639 18.9133 6.20736 18.9712C6.49834 19.0291 6.79994 18.9993 7.07403 18.8858C7.34811 18.7723 7.58238 18.58 7.7472 18.3334C7.91203 18.0867 8 17.7967 8 17.5C8 17.1022 7.84196 16.7206 7.56066 16.4393C7.27936 16.158 6.89782 16 6.5 16ZM11.5 16C11.2033 16 10.9133 16.088 10.6666 16.2528C10.42 16.4176 10.2277 16.6519 10.1142 16.926C10.0006 17.2001 9.97094 17.5017 10.0288 17.7926C10.0867 18.0836 10.2296 18.3509 10.4393 18.5607C10.6491 18.7704 10.9164 18.9133 11.2074 18.9712C11.4983 19.0291 11.7999 18.9993 12.074 18.8858C12.3481 18.7723 12.5824 18.58 12.7472 18.3334C12.912 18.0867 13 17.7967 13 17.5C13 17.1022 12.842 16.7206 12.5607 16.4393C12.2794 16.158 11.8978 16 11.5 16ZM19 17.5C19 17.1022 18.842 16.7206 18.5607 16.4393C18.2794 16.158 17.8978 16 17.5 16H16.5C16.1022 16 15.7206 16.158 15.4393 16.4393C15.158 16.7206 15 17.1022 15 17.5C15 17.8978 15.158 18.2794 15.4393 18.5607C15.7206 18.842 16.1022 19 16.5 19H17.5C17.8978 19 18.2794 18.842 18.5607 18.5607C18.842 18.2794 19 17.8978 19 17.5ZM19 13C19 12.6022 18.842 12.2206 18.5607 11.9393C18.2794 11.658 17.8978 11.5 17.5 11.5H16.5C16.1022 11.5 15.7206 11.658 15.4393 11.9393C15.158 12.2206 15 12.6022 15 13C15 13.3978 15.158 13.7794 15.4393 14.0607C15.7206 14.342 16.1022 14.5 16.5 14.5H17.5C17.8978 14.5 18.2794 14.342 18.5607 14.0607C18.842 13.7794 19 13.3978 19 13Z" fill="#374957"/>
</g>
<defs>
<clipPath id="clip0_405_1693">
<rect width="24" height="24" fill="white"/>
</clipPath>
</defs>
</svg>
