<svg width="24" height="24" viewBox="0 0 24 24" fill="none" xmlns="http://www.w3.org/2000/svg">
<g clip-path="url(#clip0_405_1581)">
<path d="M2.00001 14C1.99774 15.9142 2.54494 17.7889 3.57662 19.4014C4.6083 21.0138 6.08111 22.2962 7.82011 23.0964C9.55911 23.8965 11.4912 24.1807 13.387 23.9152C15.2827 23.6497 17.0624 22.8457 18.5147 21.5986C19.967 20.3515 21.0308 18.7138 21.5799 16.88C22.1289 15.0462 22.14 13.0933 21.612 11.2533C21.084 9.41337 20.0389 7.76362 18.6009 6.50004C17.163 5.23645 15.3926 4.41214 13.5 4.125V3H14.5C14.8978 3 15.2794 2.84196 15.5607 2.56066C15.842 2.27936 16 1.89783 16 1.5C16 1.10218 15.842 0.720644 15.5607 0.43934C15.2794 0.158035 14.8978 0 14.5 0L9.50001 0C9.10218 0 8.72065 0.158035 8.43935 0.43934C8.15804 0.720644 8.00001 1.10218 8.00001 1.5C8.00001 1.89783 8.15804 2.27936 8.43935 2.56066C8.72065 2.84196 9.10218 3 9.50001 3H10.5V4.125C8.13738 4.48469 5.98151 5.67813 4.42244 7.48941C2.86337 9.30068 2.00407 11.6102 2.00001 14ZM9.16701 20.4V16.684C7.86131 16.5608 6.56732 16.3351 5.29701 16.009C4.90033 14.698 4.90033 13.299 5.29701 11.988C6.56718 11.6635 7.86079 11.4388 9.16601 11.316V7.605C10.0572 7.20614 11.0226 6.99996 11.999 6.99996C12.9754 6.99996 13.9408 7.20614 14.832 7.605V11.315C16.1378 11.4387 17.4318 11.665 18.702 11.992C19.0987 13.303 19.0987 14.702 18.702 16.013C17.4316 16.3364 16.1381 16.5608 14.833 16.684V20.4C13.9418 20.7989 12.9764 21.005 12 21.005C11.0236 21.005 10.0582 20.7989 9.16701 20.4Z" fill="#374957"/>
<path d="M14.8329 16.6839V11.3149C13.8949 11.2219 12.9329 11.1669 11.9999 11.1669C11.0669 11.1669 10.1049 11.2229 9.16693 11.3159V16.6839C10.1049 16.7779 11.0669 16.8329 11.9999 16.8329C12.9329 16.8329 13.8999 16.7779 14.8329 16.6839Z" fill="#374957"/>
</g>
<defs>
<clipPath id="clip0_405_1581">
<rect width="24" height="24" fill="white"/>
</clipPath>
</defs>
</svg>
