<svg width="24" height="24" viewBox="0 0 24 24" fill="none" xmlns="http://www.w3.org/2000/svg">
<path d="M22.7521 8.00922C21.714 6.72273 20.1484 5.97639 18.4952 5.97986H16.4648L16.5545 5.45382C16.92 3.31089 15.4792 1.2774 13.3363 0.911871C13.1005 0.871653 12.8615 0.852996 12.6224 0.856184C11.1197 0.848356 9.74123 1.68873 9.05981 3.028L7.55348 5.97986H5.47931C2.45456 5.98318 0.00328125 8.43442 0 11.4592V16.4404C0.00328125 19.4652 2.45456 21.9165 5.47931 21.9197H17.4422C20.0277 21.9104 22.2583 20.1027 22.803 17.5751L23.856 12.5939C24.2015 10.9774 23.7956 9.29134 22.7521 8.00922ZM2.9887 16.4404V11.4592C2.9887 10.0837 4.10377 8.96861 5.47931 8.96861H6.97369V18.931H5.47931C4.10381 18.931 2.9887 17.8159 2.9887 16.4404ZM20.932 11.9753L19.878 16.9565C19.6308 18.1052 18.6172 18.9269 17.4421 18.931H9.96239V7.83386L11.7218 4.38587C11.9082 4.03684 12.2789 3.82632 12.6742 3.84493C13.1979 3.84526 13.6223 4.27018 13.622 4.79397C13.6219 4.84684 13.6175 4.89962 13.6087 4.95175L12.9242 8.96861H18.4952C19.8707 8.96847 20.9859 10.0834 20.986 11.4589C20.9861 11.6325 20.9679 11.8055 20.932 11.9753Z" fill="#374957"/>
</svg>
