<svg width="24" height="24" viewBox="0 0 24 24" fill="none" xmlns="http://www.w3.org/2000/svg">
<g clip-path="url(#clip0_405_1721)">
<path d="M13.185 16H10.815C10.287 16.0008 9.77236 15.834 9.3452 15.5237C8.91803 15.2133 8.60039 14.7754 8.43801 14.273L7.70601 12.02C7.54059 11.5173 7.53941 10.9751 7.70265 10.4717C7.86589 9.96831 8.18507 9.52993 8.61401 9.22L10.53 7.832C10.9565 7.52058 11.4709 7.35275 11.999 7.35275C12.5271 7.35275 13.0415 7.52058 13.468 7.832L15.385 9.224C15.8141 9.53382 16.1333 9.9722 16.2966 10.4756C16.4598 10.979 16.4586 11.5213 16.293 12.024L15.562 14.277C15.3981 14.7782 15.08 15.2147 14.6531 15.5242C14.2261 15.8336 13.7123 16.0002 13.185 16ZM24 12C24 14.3734 23.2962 16.6935 21.9776 18.6668C20.6591 20.6402 18.7849 22.1783 16.5922 23.0866C14.3995 23.9948 11.9867 24.2324 9.65892 23.7694C7.33115 23.3064 5.19295 22.1635 3.51472 20.4853C1.83649 18.8071 0.693605 16.6689 0.230582 14.3411C-0.232441 12.0133 0.00519943 9.60051 0.913451 7.4078C1.8217 5.21509 3.35977 3.34094 5.33316 2.02236C7.30655 0.703788 9.62663 0 12 0C15.1815 0.00344108 18.2318 1.26883 20.4815 3.51852C22.7312 5.76821 23.9966 8.81846 24 12ZM12 21C12.5178 20.997 13.0344 20.9495 13.544 20.858L14.392 18.077C14.5845 17.4727 14.9639 16.9453 15.4756 16.5707C15.9874 16.1961 16.6048 15.9938 17.239 15.993L20.056 15.988C20.5095 15.078 20.8041 14.0972 20.927 13.088L18.679 11.588C18.1602 11.2239 17.7705 10.7044 17.5659 10.1045C17.3614 9.50457 17.3527 8.8552 17.541 8.25L18.394 5.677C17.6789 4.95803 16.848 4.36443 15.936 3.921L13.764 5.427C13.2518 5.80071 12.6341 6.00208 12 6.00208C11.3659 6.00208 10.7482 5.80071 10.236 5.427L8.12201 3.891C7.22394 4.32002 6.40289 4.89442 5.69201 5.591L6.45901 8.248C6.64733 8.8532 6.63861 9.50257 6.43408 10.1025C6.22955 10.7024 5.8398 11.2219 5.32101 11.586L3.08701 13.181C3.21547 14.1576 3.50507 15.1062 3.94401 15.988L6.76001 15.993C7.39421 15.9935 8.01184 16.1956 8.52374 16.57C9.03564 16.9444 9.41533 17.4718 9.60801 18.076L10.473 20.86C10.977 20.9504 11.4879 20.9972 12 21Z" fill="#374957"/>
</g>
<defs>
<clipPath id="clip0_405_1721">
<rect width="24" height="24" fill="white"/>
</clipPath>
</defs>
</svg>
