<svg width="24" height="24" viewBox="0 0 24 24" fill="none" xmlns="http://www.w3.org/2000/svg">
<g clip-path="url(#clip0_405_1585)">
<path d="M22.511 16.4633C22.314 16.4634 22.1189 16.4247 21.9368 16.3493C21.7548 16.274 21.5893 16.1636 21.45 16.0243C20.1363 14.7131 18.3561 13.9767 16.5 13.9767C14.6439 13.9767 12.8637 14.7131 11.55 16.0243C11.2682 16.3056 10.8862 16.4634 10.4881 16.463C10.0899 16.4626 9.70825 16.3041 9.42699 16.0223C9.14572 15.7405 8.98792 15.3585 8.9883 14.9604C8.98867 14.5622 9.14719 14.1806 9.42899 13.8993C11.3055 12.0262 13.8486 10.9742 16.5 10.9742C19.1514 10.9742 21.6945 12.0262 23.571 13.8993C23.7805 14.1091 23.9231 14.3762 23.9809 14.667C24.0387 14.9578 24.009 15.2592 23.8956 15.5331C23.7821 15.8071 23.5901 16.0412 23.3437 16.2061C23.0972 16.3709 22.8075 16.459 22.511 16.4593V16.4633ZM20.035 19.5633C20.1744 19.424 20.285 19.2586 20.3604 19.0765C20.4358 18.8945 20.4747 18.6994 20.4747 18.5023C20.4747 18.3052 20.4358 18.1101 20.3604 17.9281C20.285 17.746 20.1744 17.5806 20.035 17.4413C19.0973 16.5039 17.8258 15.9774 16.5 15.9774C15.1742 15.9774 13.9026 16.5039 12.965 17.4413C12.8257 17.5806 12.7151 17.7459 12.6397 17.9279C12.5643 18.1099 12.5254 18.305 12.5254 18.5019C12.5253 18.6989 12.5641 18.894 12.6394 19.076C12.7148 19.2581 12.8252 19.4235 12.9645 19.5628C13.2457 19.8442 13.6273 20.0023 14.0251 20.0024C14.2221 20.0025 14.4172 19.9637 14.5992 19.8884C14.7813 19.813 14.9467 19.7026 15.086 19.5633C15.4671 19.1999 15.9734 18.9972 16.5 18.9972C17.0266 18.9972 17.5329 19.1999 17.914 19.5633C18.1953 19.8445 18.5767 20.0025 18.9745 20.0025C19.3722 20.0025 19.7537 19.8445 20.035 19.5633ZM16.5 20.9993C16.2033 20.9993 15.9133 21.0873 15.6666 21.2521C15.42 21.4169 15.2277 21.6512 15.1142 21.9253C15.0006 22.1994 14.9709 22.501 15.0288 22.7919C15.0867 23.0829 15.2295 23.3502 15.4393 23.56C15.6491 23.7697 15.9164 23.9126 16.2074 23.9705C16.4983 24.0284 16.7999 23.9987 17.074 23.8851C17.3481 23.7716 17.5824 23.5793 17.7472 23.3327C17.912 23.086 18 22.796 18 22.4993C18 22.1015 17.842 21.7199 17.5606 21.4386C17.2793 21.1573 16.8978 20.9993 16.5 20.9993ZM10.5 20.4993C10.5 20.1015 10.342 19.7199 10.0606 19.4386C9.77934 19.1573 9.39781 18.9993 8.99999 18.9993H5.96799C5.33237 19.0183 4.70789 18.8296 4.18911 18.4619C3.67034 18.0941 3.28554 17.5673 3.09299 16.9613C2.93678 16.3494 2.99489 15.7025 3.25763 15.1283C3.52036 14.554 3.97188 14.0871 4.53699 13.8053C5.11516 13.4934 5.54624 12.9652 5.7359 12.3362C5.92556 11.7073 5.85835 11.0288 5.54899 10.4493C5.03322 9.43094 4.87271 8.26937 5.09299 7.1493C5.28111 6.11277 5.78855 5.16097 6.54432 4.42708C7.30009 3.69318 8.26637 3.2139 9.30799 3.0563C9.99251 2.9528 10.6908 2.98686 11.362 3.15651C12.0332 3.32616 12.6638 3.62797 13.217 4.0443C13.7608 4.45292 14.2178 4.96581 14.5612 5.55301C14.9046 6.14022 15.1275 6.78997 15.217 7.4643C15.2609 7.79054 15.4108 8.09328 15.6438 8.32586C15.8767 8.55844 16.1797 8.70793 16.506 8.7513C17.2933 8.85408 18.0463 9.13746 18.706 9.5793C19.0375 9.79996 19.4431 9.87989 19.8336 9.8015C20.224 9.72311 20.5673 9.49282 20.788 9.1613C21.0086 8.82978 21.0886 8.42418 21.0102 8.03373C20.9318 7.64328 20.7015 7.29996 20.37 7.0793C19.6351 6.59384 18.8272 6.22922 17.977 5.9993C17.5028 4.26412 16.4646 2.73614 15.026 1.6563C14.1578 0.99913 13.1672 0.521777 12.1122 0.252193C11.0572 -0.0173911 9.95904 -0.0737892 8.88199 0.0863011C7.22177 0.332455 5.68 1.09131 4.47225 2.25674C3.2645 3.42217 2.45117 4.93592 2.14599 6.5863C1.82871 8.21212 2.01753 9.89612 2.68699 11.4113C1.65826 12.0627 0.862253 13.0232 0.413131 14.155C-0.0359908 15.2868 -0.115157 16.5317 0.186986 17.7113C0.540349 18.9649 1.29955 20.066 2.34567 20.8419C3.3918 21.6179 4.66575 22.0249 5.96799 21.9993H8.99999C9.39781 21.9993 9.77934 21.8413 10.0606 21.56C10.342 21.2787 10.5 20.8971 10.5 20.4993Z" fill="#374957"/>
</g>
<defs>
<clipPath id="clip0_405_1585">
<rect width="24" height="24" fill="white"/>
</clipPath>
</defs>
</svg>
