<svg width="24" height="24" viewBox="0 0 24 24" fill="none" xmlns="http://www.w3.org/2000/svg">
<g clip-path="url(#clip0_405_1544)">
<path d="M22.965 6.01872C23.2926 5.69136 23.5525 5.30265 23.7298 4.8748C23.9071 4.44695 23.9984 3.98836 23.9984 3.52522C23.9984 3.06209 23.9071 2.60349 23.7298 2.17564C23.5525 1.74779 23.2926 1.35908 22.965 1.03172C22.2938 0.391192 21.4017 0.0338135 20.474 0.0338135C19.5462 0.0338135 18.6541 0.391192 17.983 1.03172L16.547 2.46972C15.713 3.30472 13.829 3.06972 12.563 2.36972C11.9058 2.0103 11.1406 1.90103 10.409 2.06211C9.67744 2.22319 9.02894 2.64372 8.58343 3.24594C8.13792 3.84817 7.92555 4.59134 7.98558 5.33803C8.04561 6.08472 8.37399 6.78441 8.90999 7.30772L9.98699 8.38472L2.17199 16.4387C1.63047 16.9735 1.25535 17.6537 1.09191 18.397C0.928482 19.1403 0.983732 19.9151 1.25099 20.6277L0.438992 21.4387C0.157598 21.7201 -0.000488281 22.1018 -0.000488281 22.4997C-0.000488281 22.8977 0.157598 23.2793 0.438992 23.5607C0.720387 23.8421 1.10204 24.0002 1.49999 24.0002C1.89794 24.0002 2.2796 23.8421 2.56099 23.5607L3.26699 22.8537C4.01419 23.2232 4.859 23.3474 5.68091 23.2084C6.50282 23.0694 7.25984 22.6744 7.84399 22.0797L15.644 14.0417L16.692 15.0897C17.216 15.6225 17.9147 15.948 18.6596 16.0065C19.4046 16.0649 20.1455 15.8523 20.7462 15.4078C21.3468 14.9634 21.7667 14.3169 21.9286 13.5874C22.0904 12.8579 21.9833 12.0945 21.627 11.4377C20.927 10.1707 20.695 8.28772 21.527 7.45272L22.965 6.01872ZM5.70699 19.9747C5.61303 20.0666 5.50188 20.1392 5.3799 20.1881C5.25791 20.2371 5.12747 20.2616 4.99603 20.2601C4.86459 20.2587 4.73472 20.2314 4.61383 20.1797C4.49295 20.1281 4.38342 20.0532 4.29149 19.9592C4.19957 19.8653 4.12705 19.7541 4.07808 19.6321C4.02911 19.5101 4.00464 19.3797 4.00608 19.2483C4.00752 19.1168 4.03484 18.9869 4.08647 18.8661C4.1381 18.7452 4.21303 18.6356 4.30699 18.5437L12.107 10.5057L13.52 11.9197L5.70699 19.9747ZM20.846 3.89972L19.409 5.33172C17.475 7.26472 17.739 10.5937 18.964 12.9687C18.9438 12.9884 18.9167 12.9995 18.8885 12.9995C18.8603 12.9995 18.8332 12.9884 18.813 12.9687L11.031 5.18672C11 5.15072 11 5.07072 11.116 4.99972C13.405 6.25972 16.735 6.52372 18.668 4.59072L20.107 3.15172C20.2066 3.05987 20.3379 3.01016 20.4734 3.01304C20.6088 3.01591 20.7379 3.07115 20.8335 3.16715C20.9291 3.26315 20.9838 3.39245 20.9862 3.52792C20.9885 3.66339 20.9383 3.79449 20.846 3.89372V3.89972Z" fill="#374957"/>
</g>
<defs>
<clipPath id="clip0_405_1544">
<rect width="24" height="24" fill="white"/>
</clipPath>
</defs>
</svg>
