<svg width="24" height="24" viewBox="0 0 24 24" fill="none" xmlns="http://www.w3.org/2000/svg">
<g clip-path="url(#clip0_405_1410)">
<path d="M18.5 0H10.5C9.04188 0.00185226 7.64401 0.58191 6.61296 1.61296C5.58191 2.64401 5.00185 4.04188 5 5.5V10.025C3.63453 10.1512 2.36529 10.7824 1.44056 11.795C0.515826 12.8075 0.00214461 14.1287 0 15.5L0 18.5C0.00185226 19.9581 0.58191 21.356 1.61296 22.387C2.64401 23.4181 4.04188 23.9981 5.5 24H8.5C9.87129 23.9979 11.1925 23.4842 12.205 22.5594C13.2176 21.6347 13.8488 20.3655 13.975 19H18.5C19.9581 18.9981 21.356 18.4181 22.387 17.387C23.4181 16.356 23.9981 14.9581 24 13.5V5.5C23.9981 4.04188 23.4181 2.64401 22.387 1.61296C21.356 0.58191 19.9581 0.00185226 18.5 0V0ZM8.5 21H5.5C4.83696 21 4.20107 20.7366 3.73223 20.2678C3.26339 19.7989 3 19.163 3 18.5V15.5C3.00011 14.9238 3.19923 14.3654 3.56366 13.9192C3.9281 13.4729 4.43549 13.1662 5 13.051V13.5C5.00185 14.9581 5.58191 16.356 6.61296 17.387C7.64401 18.4181 9.04188 18.9981 10.5 19H10.949C10.8338 19.5645 10.5271 20.0719 10.0808 20.4363C9.63459 20.8008 9.07615 20.9999 8.5 21ZM21 13.5C21 14.163 20.7366 14.7989 20.2678 15.2678C19.7989 15.7366 19.163 16 18.5 16H14V15.5C14.0007 14.562 13.7597 13.6397 13.3 12.822L16 10.122V11.5C16 11.8978 16.158 12.2794 16.4393 12.5607C16.7206 12.842 17.1022 13 17.5 13C17.8978 13 18.2794 12.842 18.5607 12.5607C18.842 12.2794 19 11.8978 19 11.5V8.5C19 7.57174 18.6313 6.6815 17.9749 6.02513C17.3185 5.36875 16.4283 5 15.5 5H12.5C12.1022 5 11.7206 5.15804 11.4393 5.43934C11.158 5.72064 11 6.10218 11 6.5C11 6.89782 11.158 7.27936 11.4393 7.56066C11.7206 7.84196 12.1022 8 12.5 8H13.879L11.179 10.7C10.3611 10.2402 9.43834 9.99908 8.5 10H8V5.5C8 4.83696 8.26339 4.20107 8.73223 3.73223C9.20107 3.26339 9.83696 3 10.5 3H18.5C19.163 3 19.7989 3.26339 20.2678 3.73223C20.7366 4.20107 21 4.83696 21 5.5V13.5Z" fill="#374957"/>
</g>
<defs>
<clipPath id="clip0_405_1410">
<rect width="24" height="24" fill="white"/>
</clipPath>
</defs>
</svg>
