<svg width="24" height="24" viewBox="0 0 24 24" fill="none" xmlns="http://www.w3.org/2000/svg">
<g clip-path="url(#clip0_405_1517)">
<path d="M19.5 0C18.3069 0.00132343 17.1631 0.475854 16.3195 1.31948C15.4759 2.16311 15.0013 3.30693 15 4.5C15 4.89782 15.158 5.27936 15.4393 5.56066C15.7206 5.84196 16.1022 6 16.5 6C16.8978 6 17.2794 5.84196 17.5607 5.56066C17.842 5.27936 18 4.89782 18 4.5C18 4.10218 18.158 3.72064 18.4393 3.43934C18.7206 3.15804 19.1022 3 19.5 3C19.8978 3 20.2794 3.15804 20.5607 3.43934C20.842 3.72064 21 4.10218 21 4.5V13.607C19.8602 13.0199 18.5503 12.8519 17.2992 13.1323C16.0481 13.4127 14.9353 14.1236 14.155 15.141C13.5141 14.7227 12.7653 14.5 12 14.5C11.2347 14.5 10.4859 14.7227 9.845 15.141C9.06472 14.1236 7.95187 13.4127 6.70077 13.1323C5.44967 12.8519 4.13983 13.0199 3 13.607V4.5C3 4.10218 3.15804 3.72064 3.43934 3.43934C3.72064 3.15804 4.10218 3 4.5 3C4.89782 3 5.27936 3.15804 5.56066 3.43934C5.84196 3.72064 6 4.10218 6 4.5C6 4.89782 6.15804 5.27936 6.43934 5.56066C6.72064 5.84196 7.10218 6 7.5 6C7.89782 6 8.27936 5.84196 8.56066 5.56066C8.84196 5.27936 9 4.89782 9 4.5C9 3.30653 8.52589 2.16193 7.68198 1.31802C6.83807 0.474106 5.69347 0 4.5 0C3.30653 0 2.16193 0.474106 1.31802 1.31802C0.474106 2.16193 0 3.30653 0 4.5L0 18.5C0 19.9587 0.579463 21.3576 1.61091 22.3891C2.64236 23.4205 4.04131 24 5.5 24C6.95869 24 8.35764 23.4205 9.38909 22.3891C10.4205 21.3576 11 19.9587 11 18.5C11 18.2348 11.1054 17.9804 11.2929 17.7929C11.4804 17.6054 11.7348 17.5 12 17.5C12.2652 17.5 12.5196 17.6054 12.7071 17.7929C12.8946 17.9804 13 18.2348 13 18.5C13 19.9587 13.5795 21.3576 14.6109 22.3891C15.6424 23.4205 17.0413 24 18.5 24C19.9587 24 21.3576 23.4205 22.3891 22.3891C23.4205 21.3576 24 19.9587 24 18.5V4.5C23.9987 3.30693 23.5241 2.16311 22.6805 1.31948C21.8369 0.475854 20.6931 0.00132343 19.5 0V0ZM5.5 21C5.00555 21 4.5222 20.8534 4.11107 20.5787C3.69995 20.304 3.37952 19.9135 3.1903 19.4567C3.00108 18.9999 2.95157 18.4972 3.04804 18.0123C3.1445 17.5273 3.3826 17.0819 3.73223 16.7322C4.08186 16.3826 4.52732 16.1445 5.01227 16.048C5.49723 15.9516 5.99989 16.0011 6.45671 16.1903C6.91352 16.3795 7.30397 16.7 7.57867 17.1111C7.85338 17.5222 8 18.0055 8 18.5C8 19.163 7.73661 19.7989 7.26777 20.2678C6.79893 20.7366 6.16304 21 5.5 21ZM18.5 21C18.0055 21 17.5222 20.8534 17.1111 20.5787C16.7 20.304 16.3795 19.9135 16.1903 19.4567C16.0011 18.9999 15.9516 18.4972 16.048 18.0123C16.1445 17.5273 16.3826 17.0819 16.7322 16.7322C17.0819 16.3826 17.5273 16.1445 18.0123 16.048C18.4972 15.9516 18.9999 16.0011 19.4567 16.1903C19.9135 16.3795 20.304 16.7 20.5787 17.1111C20.8534 17.5222 21 18.0055 21 18.5C21 19.163 20.7366 19.7989 20.2678 20.2678C19.7989 20.7366 19.163 21 18.5 21Z" fill="#374957"/>
</g>
<defs>
<clipPath id="clip0_405_1517">
<rect width="24" height="24" fill="white"/>
</clipPath>
</defs>
</svg>
