<svg width="24" height="24" viewBox="0 0 24 24" fill="none" xmlns="http://www.w3.org/2000/svg">
<g clip-path="url(#clip0_405_1349)">
<path d="M15 24H11.5C11.1022 24 10.7206 23.842 10.4393 23.5607C10.158 23.2794 10 22.8978 10 22.5C10 22.1022 10.158 21.7206 10.4393 21.4393C10.7206 21.158 11.1022 21 11.5 21H15C15.2652 21 15.5196 20.8946 15.7071 20.7071C15.8946 20.5196 16 20.2652 16 20C16 19.7348 15.8946 19.4804 15.7071 19.2929C15.5196 19.1054 15.2652 19 15 19H7C5.93913 19 4.92172 18.5786 4.17157 17.8284C3.42143 17.0783 3 16.0609 3 15C3 13.9391 3.42143 12.9217 4.17157 12.1716C4.92172 11.4214 5.93913 11 7 11H20C20.2652 11 20.5196 10.8946 20.7071 10.7071C20.8946 10.5196 21 10.2652 21 10C21 9.73478 20.8946 9.48043 20.7071 9.29289C20.5196 9.10536 20.2652 9 20 9H4.5C3.30653 9 2.16193 8.52589 1.31802 7.68198C0.474106 6.83807 0 5.69347 0 4.5C0 3.30653 0.474106 2.16193 1.31802 1.31802C2.16193 0.474106 3.30653 0 4.5 0L22.5 0C22.8978 0 23.2794 0.158035 23.5607 0.43934C23.842 0.720644 24 1.10218 24 1.5C24 1.89782 23.842 2.27936 23.5607 2.56066C23.2794 2.84196 22.8978 3 22.5 3H4.5C4.10218 3 3.72064 3.15804 3.43934 3.43934C3.15804 3.72064 3 4.10218 3 4.5C3 4.89782 3.15804 5.27936 3.43934 5.56066C3.72064 5.84196 4.10218 6 4.5 6H20C21.0609 6 22.0783 6.42143 22.8284 7.17157C23.5786 7.92172 24 8.93913 24 10C24 11.0609 23.5786 12.0783 22.8284 12.8284C22.0783 13.5786 21.0609 14 20 14H7C6.73478 14 6.48043 14.1054 6.29289 14.2929C6.10536 14.4804 6 14.7348 6 15C6 15.2652 6.10536 15.5196 6.29289 15.7071C6.48043 15.8946 6.73478 16 7 16H15C16.0609 16 17.0783 16.4214 17.8284 17.1716C18.5786 17.9217 19 18.9391 19 20C19 21.0609 18.5786 22.0783 17.8284 22.8284C17.0783 23.5786 16.0609 24 15 24Z" fill="#374957"/>
</g>
<defs>
<clipPath id="clip0_405_1349">
<rect width="24" height="24" fill="white"/>
</clipPath>
</defs>
</svg>
