<svg width="24" height="24" viewBox="0 0 24 24" fill="none" xmlns="http://www.w3.org/2000/svg">
<g clip-path="url(#clip0_405_1362)">
<path d="M18.5 0H5.5C4.0418 0.00158817 2.64377 0.581561 1.61267 1.61267C0.581561 2.64377 0.00158817 4.0418 0 5.5L0 18.5C0.00158817 19.9582 0.581561 21.3562 1.61267 22.3873C2.64377 23.4184 4.0418 23.9984 5.5 24H18.5C19.9582 23.9984 21.3562 23.4184 22.3873 22.3873C23.4184 21.3562 23.9984 19.9582 24 18.5V5.5C23.9984 4.0418 23.4184 2.64377 22.3873 1.61267C21.3562 0.581561 19.9582 0.00158817 18.5 0V0ZM21 18.5C21 19.163 20.7366 19.7989 20.2678 20.2678C19.7989 20.7366 19.163 21 18.5 21H5.5C4.83696 21 4.20107 20.7366 3.73223 20.2678C3.26339 19.7989 3 19.163 3 18.5V5.5C3 4.83696 3.26339 4.20107 3.73223 3.73223C4.20107 3.26339 4.83696 3 5.5 3H18.5C19.163 3 19.7989 3.26339 20.2678 3.73223C20.7366 4.20107 21 4.83696 21 5.5V18.5ZM19 8.5C19 8.89782 18.842 9.27936 18.5607 9.56066C18.2794 9.84196 17.8978 10 17.5 10C17.1022 10 16.7206 9.84196 16.4393 9.56066C16.158 9.27936 16 8.89782 16 8.5C16 8.36739 15.9473 8.24021 15.8536 8.14645C15.7598 8.05268 15.6326 8 15.5 8H13.5V16C13.8978 16 14.2794 16.158 14.5607 16.4393C14.842 16.7206 15 17.1022 15 17.5C15 17.8978 14.842 18.2794 14.5607 18.5607C14.2794 18.842 13.8978 19 13.5 19H10.5C10.1022 19 9.72064 18.842 9.43934 18.5607C9.15804 18.2794 9 17.8978 9 17.5C9 17.1022 9.15804 16.7206 9.43934 16.4393C9.72064 16.158 10.1022 16 10.5 16V8H8.5C8.36739 8 8.24021 8.05268 8.14645 8.14645C8.05268 8.24021 8 8.36739 8 8.5C8 8.89782 7.84196 9.27936 7.56066 9.56066C7.27936 9.84196 6.89782 10 6.5 10C6.10218 10 5.72064 9.84196 5.43934 9.56066C5.15804 9.27936 5 8.89782 5 8.5C5 7.57174 5.36875 6.6815 6.02513 6.02513C6.6815 5.36875 7.57174 5 8.5 5H15.5C16.4283 5 17.3185 5.36875 17.9749 6.02513C18.6313 6.6815 19 7.57174 19 8.5Z" fill="#374957"/>
</g>
<defs>
<clipPath id="clip0_405_1362">
<rect width="24" height="24" fill="white"/>
</clipPath>
</defs>
</svg>
