<svg width="24" height="24" viewBox="0 0 24 24" fill="none" xmlns="http://www.w3.org/2000/svg">
<g clip-path="url(#clip0_405_1796)">
<path d="M23.009 11.951L21.19 7.86003C20.6786 6.71158 19.8455 5.73587 18.7913 5.05085C17.7372 4.36584 16.5072 4.00085 15.25 4.00003H14.792L14.243 1.35803C14.146 0.970069 13.9222 0.625657 13.607 0.379547C13.2918 0.133437 12.9034 -0.000244141 12.5035 -0.000244141C12.1036 -0.000244141 11.7152 0.133437 11.4 0.379547C11.0848 0.625657 10.861 0.970069 10.764 1.35803L10.21 4.00003H5.5C4.0418 4.00162 2.64377 4.58159 1.61267 5.61269C0.581561 6.6438 0.00158817 8.04182 0 9.50003L0 17.5C0.00338218 18.3392 0.308183 19.1493 0.858852 19.7825C1.40952 20.4158 2.1694 20.8301 3 20.95V21C3 21.7957 3.31607 22.5587 3.87868 23.1213C4.44129 23.684 5.20435 24 6 24C6.79565 24 7.55871 23.684 8.12132 23.1213C8.68393 22.5587 9 21.7957 9 21H14C14 21.7957 14.3161 22.5587 14.8787 23.1213C15.4413 23.684 16.2044 24 17 24C17.7957 24 18.5587 23.684 19.1213 23.1213C19.6839 22.5587 20 21.7957 20 21H20.5C21.4283 21 22.3185 20.6313 22.9749 19.9749C23.6313 19.3185 24 18.4283 24 17.5V16.622C24.0024 15.0126 23.6647 13.4208 23.009 11.951ZM21 17.5C21 17.6326 20.9473 17.7598 20.8536 17.8536C20.7598 17.9473 20.6326 18 20.5 18H3.5C3.36739 18 3.24022 17.9473 3.14645 17.8536C3.05268 17.7598 3 17.6326 3 17.5V9.50003C3 8.83699 3.26339 8.2011 3.73223 7.73226C4.20107 7.26342 4.83696 7.00003 5.5 7.00003H15.25C15.5026 7.00289 15.7541 7.0334 16 7.09103V12C16 12.5305 16.2107 13.0392 16.5858 13.4142C16.9609 13.7893 17.4696 14 18 14H20.586C20.8615 14.8467 21.0012 15.7317 21 16.622V17.5ZM13 12.5C13 12.8979 12.842 13.2794 12.5607 13.5607C12.2794 13.842 11.8978 14 11.5 14H11V14.5C11 14.8979 10.842 15.2794 10.5607 15.5607C10.2794 15.842 9.89783 16 9.5 16C9.10218 16 8.72064 15.842 8.43934 15.5607C8.15804 15.2794 8 14.8979 8 14.5V14H7.5C7.10218 14 6.72064 13.842 6.43934 13.5607C6.15804 13.2794 6 12.8979 6 12.5C6 12.1022 6.15804 11.7207 6.43934 11.4394C6.72064 11.1581 7.10218 11 7.5 11H8V10.5C8 10.1022 8.15804 9.72067 8.43934 9.43937C8.72064 9.15806 9.10218 9.00003 9.5 9.00003C9.89783 9.00003 10.2794 9.15806 10.5607 9.43937C10.842 9.72067 11 10.1022 11 10.5V11H11.5C11.8978 11 12.2794 11.1581 12.5607 11.4394C12.842 11.7207 13 12.1022 13 12.5Z" fill="#374957"/>
</g>
<defs>
<clipPath id="clip0_405_1796">
<rect width="24" height="24" fill="white"/>
</clipPath>
</defs>
</svg>
