<svg width="24" height="24" viewBox="0 0 24 24" fill="none" xmlns="http://www.w3.org/2000/svg">
<g clip-path="url(#clip0_405_1497)">
<path d="M20.4909 3.50987C18.813 1.8334 16.6756 0.692045 14.3491 0.230076C12.0226 -0.231893 9.61137 0.00626785 7.42019 0.914453C5.22902 1.82264 3.35628 3.36007 2.03873 5.33241C0.72117 7.30475 0.0179443 9.62344 0.0179443 11.9954C0.0179443 14.3673 0.72117 16.686 2.03873 18.6583C3.35628 20.6307 5.22902 22.1681 7.42019 23.0763C9.61137 23.9845 12.0226 24.2226 14.3491 23.7607C16.6756 23.2987 18.813 22.1573 20.4909 20.4809C22.7381 18.2286 24.0001 15.1769 24.0001 11.9954C24.0001 8.8138 22.7381 5.76214 20.4909 3.50987ZM20.7659 9.98587C19.0014 9.90449 17.3309 9.167 16.0818 7.91796C14.8328 6.66892 14.0953 4.9984 14.0139 3.23387C15.6635 3.6038 17.1741 4.43489 18.3695 5.63031C19.5649 6.82574 20.396 8.33626 20.7659 9.98587ZM3.24493 14.0009C5.01033 14.082 6.68173 14.8198 7.93138 16.0694C9.18102 17.3191 9.91876 18.9905 9.99992 20.7559C8.34922 20.3866 6.83761 19.5554 5.64153 18.3593C4.44545 17.1632 3.61424 15.6516 3.24493 14.0009ZM18.3699 18.3599C16.9231 19.8068 15.0245 20.7148 12.9899 20.9329C12.9593 18.3109 11.9041 15.805 10.05 13.9508C8.19583 12.0967 5.68989 11.0415 3.06793 11.0109C3.28604 8.97633 4.19403 7.07775 5.64092 5.63086C7.0878 4.18398 8.98638 3.27598 11.0209 3.05787C11.0538 5.6798 12.1093 8.18523 13.9625 10.0403C15.8157 11.8954 18.32 12.9534 20.9419 12.9889C20.7223 15.0202 19.8148 16.9153 18.3699 18.3599Z" fill="#374957"/>
</g>
<defs>
<clipPath id="clip0_405_1497">
<rect width="24" height="24" fill="white"/>
</clipPath>
</defs>
</svg>
