<svg width="24" height="24" viewBox="0 0 24 24" fill="none" xmlns="http://www.w3.org/2000/svg">
<g clip-path="url(#clip0_405_1626)">
<path d="M12 6.00001C10.8133 6.00001 9.65328 6.3519 8.66658 7.01119C7.67989 7.67048 6.91085 8.60755 6.45673 9.70391C6.0026 10.8003 5.88378 12.0067 6.11529 13.1705C6.3468 14.3344 6.91825 15.4035 7.75736 16.2426C8.59648 17.0818 9.66558 17.6532 10.8295 17.8847C11.9934 18.1162 13.1997 17.9974 14.2961 17.5433C15.3925 17.0892 16.3295 16.3201 16.9888 15.3334C17.6481 14.3467 18 13.1867 18 12C18 10.4087 17.3679 8.88258 16.2426 7.75736C15.1174 6.63215 13.5913 6.00001 12 6.00001ZM14.786 11.271L12.786 15.271C12.6847 15.44 12.5511 15.5873 12.3928 15.7046C12.2346 15.8219 12.0548 15.9069 11.8637 15.9547C11.6726 16.0026 11.4739 16.0123 11.2791 15.9833C11.0842 15.9544 10.897 15.8873 10.728 15.786C10.5591 15.6847 10.4117 15.5511 10.2944 15.3928C10.1771 15.2346 10.0921 15.0548 10.0443 14.8637C9.99646 14.6726 9.98674 14.4739 10.0157 14.2791C10.0446 14.0842 10.1117 13.897 10.213 13.728L11 12H10.5C10.1022 12 9.72065 11.842 9.43935 11.5607C9.15804 11.2794 9.00001 10.8978 9.00001 10.5C9.00001 10.1022 9.15804 9.72065 9.43935 9.43935C9.72065 9.15804 10.1022 9.00001 10.5 9.00001H13.5C13.7653 9.00013 14.0259 9.07062 14.255 9.20428C14.4842 9.33795 14.6738 9.53001 14.8046 9.76088C14.9353 9.99175 15.0025 10.2532 14.9992 10.5184C14.9959 10.7837 14.9224 11.0434 14.786 11.271ZM12 24C9.62663 24 7.30655 23.2962 5.33316 21.9776C3.35977 20.6591 1.8217 18.7849 0.913451 16.5922C0.00519943 14.3995 -0.232441 11.9867 0.230582 9.65892C0.693605 7.33115 1.83649 5.19295 3.51472 3.51472C5.19295 1.83649 7.33115 0.693605 9.65892 0.230582C11.9867 -0.232441 14.3995 0.00519943 16.5922 0.913451C18.7849 1.8217 20.6591 3.35977 21.9776 5.33316C23.2962 7.30655 24 9.62663 24 12C23.9966 15.1815 22.7312 18.2318 20.4815 20.4815C18.2318 22.7312 15.1815 23.9966 12 24ZM12 3.00001C10.22 3.00001 8.47992 3.52785 6.99987 4.51678C5.51983 5.50571 4.36628 6.91132 3.68509 8.55585C3.0039 10.2004 2.82567 12.01 3.17294 13.7558C3.5202 15.5016 4.37737 17.1053 5.63604 18.364C6.89472 19.6226 8.49836 20.4798 10.2442 20.8271C11.99 21.1743 13.7996 20.9961 15.4442 20.3149C17.0887 19.6337 18.4943 18.4802 19.4832 17.0001C20.4722 15.5201 21 13.78 21 12C20.9974 9.61387 20.0483 7.32622 18.361 5.63897C16.6738 3.95171 14.3861 3.00265 12 3.00001Z" fill="#374957"/>
</g>
<defs>
<clipPath id="clip0_405_1626">
<rect width="24" height="24" fill="white"/>
</clipPath>
</defs>
</svg>
