<svg width="24" height="24" viewBox="0 0 24 24" fill="none" xmlns="http://www.w3.org/2000/svg">
<g clip-path="url(#clip0_405_1567)">
<path d="M4.16 20.8087C3.05718 20.8066 2.00014 20.3675 1.22042 19.5876C0.440697 18.8077 0.00185013 17.7505 0 16.6477L0 7.34771C0.000820603 6.57991 0.214269 5.82734 0.616678 5.17344C1.01909 4.51954 1.59473 3.98986 2.27979 3.64314C2.96484 3.29642 3.73254 3.1462 4.49775 3.20914C5.26297 3.27208 5.9958 3.54571 6.615 3.99971L9.527 6.13471C9.72157 5.50022 10.0652 4.92151 10.5291 4.44692C10.9929 3.97233 11.5637 3.61564 12.1936 3.40666C12.8235 3.19767 13.4942 3.14246 14.1498 3.24563C14.8054 3.3488 15.4267 3.60736 15.962 3.99971L22.3 8.64771C22.8258 9.03378 23.2534 9.53822 23.5481 10.1202C23.8428 10.7022 23.9964 11.3454 23.9964 11.9977C23.9964 12.6501 23.8428 13.2932 23.5481 13.8752C23.2534 14.4572 22.8258 14.9616 22.3 15.3477L15.963 19.9997C15.4277 20.392 14.8062 20.6506 14.1506 20.7537C13.4949 20.8569 12.8241 20.8017 12.1942 20.5927C11.5642 20.3838 10.9934 20.0271 10.5294 19.5525C10.0654 19.0779 9.72171 18.4992 9.527 17.8647L6.615 19.9997C5.90398 20.5245 5.0437 20.808 4.16 20.8087ZM10.848 13.5367C11.2458 13.5367 11.6274 13.6947 11.9087 13.976C12.19 14.2574 12.348 14.6389 12.348 15.0367V16.6477C12.3478 16.8616 12.407 17.0713 12.5188 17.2536C12.6306 17.4359 12.7908 17.5836 12.9815 17.6804C13.1722 17.7771 13.3861 17.8191 13.5992 17.8017C13.8124 17.7843 14.0165 17.7081 14.189 17.5817L20.527 12.9327C20.6735 12.8252 20.7927 12.6848 20.8748 12.5227C20.957 12.3606 20.9998 12.1814 20.9998 11.9997C20.9998 11.818 20.957 11.6388 20.8748 11.4767C20.7927 11.3146 20.6735 11.1742 20.527 11.0667L14.188 6.41771C14.0155 6.29156 13.8115 6.21565 13.5985 6.19838C13.3855 6.18112 13.1719 6.22318 12.9813 6.31991C12.7908 6.41663 12.6307 6.56424 12.5189 6.74636C12.4071 6.92849 12.348 7.13801 12.348 7.35171V8.96271C12.3482 9.2401 12.2715 9.51211 12.1264 9.74852C11.9812 9.98492 11.7734 10.1765 11.526 10.3018C11.2785 10.4272 11.0012 10.4815 10.7247 10.4587C10.4483 10.4359 10.1836 10.3369 9.96 10.1727L4.841 6.41771C4.66842 6.29166 4.46432 6.21583 4.25131 6.19861C4.03829 6.18139 3.82466 6.22345 3.63408 6.32014C3.44349 6.41683 3.28338 6.56438 3.17147 6.74644C3.05955 6.92851 3.00021 7.138 3 7.35171V16.6517C3.00021 16.8654 3.05955 17.0749 3.17147 17.257C3.28338 17.439 3.44349 17.5866 3.63408 17.6833C3.82466 17.78 4.03829 17.822 4.25131 17.8048C4.46432 17.7876 4.66842 17.7118 4.841 17.5857L9.96 13.8267C10.2178 13.6384 10.5287 13.5368 10.848 13.5367Z" fill="#374957"/>
</g>
<defs>
<clipPath id="clip0_405_1567">
<rect width="24" height="24" fill="white"/>
</clipPath>
</defs>
</svg>
