<svg width="24" height="24" viewBox="0 0 24 24" fill="none" xmlns="http://www.w3.org/2000/svg">
<g clip-path="url(#clip0_405_1432)">
<path d="M18.9393 22.4594C18.9393 23.2852 18.2699 23.9546 17.4441 23.9546H1.49529C0.669489 23.9546 6.74925e-05 23.2852 6.74925e-05 22.4594C6.74925e-05 21.6336 0.669489 20.9641 1.49529 20.9641H17.4441C18.2699 20.9642 18.9393 21.6336 18.9393 22.4594ZM24.0001 8.50416C24.0001 11.5005 21.6078 14.9834 18.5177 14.9834H17.0344C16.4721 17.3297 14.3745 18.9847 11.9617 18.9855H6.97769C4.40796 18.991 2.2144 17.1299 1.80129 14.5936L0.06288 5.09409C-0.34287 2.74678 1.23105 0.515015 3.57836 0.109312C3.8201 0.0675465 4.06493 0.0464527 4.31022 0.0462652H14.6291C16.8867 0.0450934 18.7597 1.79222 18.9153 4.04442C22.1012 4.17502 24.0001 5.81278 24.0001 8.50416ZM15.934 4.5548C16.0435 3.83419 15.5482 3.1612 14.8276 3.05166C14.7619 3.04167 14.6956 3.03666 14.6291 3.03666H4.31022C3.58136 3.03947 2.99275 3.63258 2.99552 4.36148C2.9958 4.43428 3.00208 4.50694 3.01436 4.5787L4.75577 14.0792C4.9248 15.1772 5.8668 15.9894 6.97765 15.9951H11.9617C13.0684 15.9965 14.0122 15.1938 14.1885 14.1012V14.0773L15.934 4.5548ZM21.0097 8.50416C21.0097 8.05659 21.0097 7.00894 18.5246 7.00894L17.6116 11.993H18.5177C19.659 11.993 21.0097 10.099 21.0097 8.50416Z" fill="#374957"/>
</g>
<defs>
<clipPath id="clip0_405_1432">
<rect width="24" height="24" fill="white"/>
</clipPath>
</defs>
</svg>
