<svg width="24" height="24" viewBox="0 0 24 24" fill="none" xmlns="http://www.w3.org/2000/svg">
<g clip-path="url(#clip0_405_1391)">
<path d="M22.0238 1.97519C18.4998 -1.55382 9.37678 -0.177815 4.59977 4.59918C-0.177226 9.37619 -1.55123 18.4992 1.97577 22.0232C3.62243 23.429 5.75209 24.1378 7.91278 23.9992C12.1831 23.9602 16.2829 22.3184 19.3998 19.3992C24.1768 14.6202 25.5508 5.49919 22.0238 1.97519ZM17.2778 17.2752C15.1069 19.2726 12.362 20.5353 9.43277 20.8842L3.11377 14.5672C3.462 11.6377 4.72444 8.89236 6.72178 6.72119C8.89295 4.72385 11.6383 3.46142 14.5678 3.11319L20.8858 9.43119C20.5375 12.3607 19.2751 15.106 17.2778 17.2772V17.2752ZM17.5608 11.5582C17.4215 11.6976 17.2561 11.8082 17.074 11.8836C16.892 11.959 16.6968 11.9979 16.4998 11.9979C16.3027 11.9979 16.1076 11.959 15.9255 11.8836C15.7435 11.8082 15.5781 11.6976 15.4388 11.5582L14.9998 11.1202L14.1208 11.9992L14.5608 12.4382C14.8422 12.7196 15.0003 13.1012 15.0003 13.4992C15.0003 13.8971 14.8422 14.2788 14.5608 14.5602C14.2794 14.8416 13.8977 14.9997 13.4998 14.9997C13.1018 14.9997 12.7202 14.8416 12.4388 14.5602L11.9998 14.1202L11.1208 14.9992L11.5608 15.4382C11.8422 15.7196 12.0003 16.1012 12.0003 16.4992C12.0003 16.8971 11.8422 17.2788 11.5608 17.5602C11.2794 17.8416 10.8977 17.9997 10.4998 17.9997C10.1018 17.9997 9.72017 17.8416 9.43878 17.5602L6.43878 14.5602C6.29944 14.4209 6.18892 14.2554 6.11351 14.0734C6.03811 13.8913 5.99929 13.6962 5.99929 13.4992C5.99929 13.1012 6.15738 12.7196 6.43878 12.4382C6.72017 12.1568 7.10182 11.9987 7.49978 11.9987C7.89773 11.9987 8.27938 12.1568 8.56077 12.4382L8.99977 12.8782L9.87877 11.9992L9.43878 11.5602C9.15738 11.2788 8.99929 10.8971 8.99929 10.4992C8.99929 10.1012 9.15738 9.71958 9.43878 9.43819C9.72017 9.15679 10.1018 8.9987 10.4998 8.9987C10.8977 8.9987 11.2794 9.15679 11.5608 9.43819L11.9998 9.87819L12.8788 8.99919L12.4388 8.56019C12.1574 8.27879 11.9993 7.89714 11.9993 7.49919C11.9993 7.30214 12.0381 7.10702 12.1135 6.92498C12.1889 6.74293 12.2994 6.57752 12.4388 6.43819C12.5781 6.29885 12.7435 6.18833 12.9256 6.11292C13.1076 6.03752 13.3027 5.9987 13.4998 5.9987C13.8977 5.9987 14.2794 6.15679 14.5608 6.43819L17.5608 9.43819C17.7002 9.57749 17.8107 9.74289 17.8862 9.92494C17.9616 10.107 18.0005 10.3021 18.0005 10.4992C18.0005 10.6962 17.9616 10.8914 17.8862 11.0734C17.8107 11.2555 17.7002 11.4209 17.5608 11.5602V11.5582Z" fill="#374957"/>
</g>
<defs>
<clipPath id="clip0_405_1391">
<rect width="24" height="24" fill="white"/>
</clipPath>
</defs>
</svg>
