<svg width="24" height="24" viewBox="0 0 24 24" fill="none" xmlns="http://www.w3.org/2000/svg">
<g clip-path="url(#clip0_405_1778)">
<path d="M5.15387 16.83C5.05266 17.0741 5.00034 17.3357 4.99987 17.6C4.99987 19.466 6.73787 20.241 7.88887 20.754C8.24163 20.9029 8.58465 21.0739 8.91587 21.266C8.86487 21.357 8.78687 21.485 8.66887 21.66C8.44688 21.9902 8.36516 22.395 8.44167 22.7855C8.51819 23.1759 8.74667 23.52 9.07687 23.742C9.40706 23.964 9.81192 24.0457 10.2024 23.9692C10.5928 23.8927 10.9369 23.6642 11.1589 23.334C11.6479 22.7133 11.9407 21.9609 11.9999 21.173C11.9999 19.307 10.2619 18.531 9.11087 18.018C8.77879 17.8771 8.45464 17.7182 8.13987 17.542C8.20987 17.425 8.29687 17.291 8.38887 17.155C9.4005 16.8077 10.3304 16.2573 11.1215 15.5374C11.9125 14.8175 12.548 13.9435 12.9889 12.969C13.6803 14.3045 14.7883 15.3781 16.1449 16.027C15.5329 18.573 17.2659 19.751 18.1879 20.375C19.1689 21.039 19.1689 21.039 18.7879 21.881C18.7065 22.0605 18.6613 22.2543 18.6549 22.4513C18.6484 22.6482 18.6808 22.8446 18.7503 23.029C18.8198 23.2134 18.9249 23.3824 19.0597 23.5262C19.1945 23.67 19.3563 23.7858 19.5359 23.867C19.7296 23.955 19.94 24.0004 20.1529 24C20.4415 24.0003 20.7241 23.9174 20.9667 23.7611C21.2094 23.6048 21.4018 23.3819 21.5209 23.119C22.9439 19.972 20.8669 18.566 19.8689 17.89C18.9409 17.262 18.7389 17.115 19.3049 16.033C22.0709 14.89 23.9999 10.881 23.9999 7.22699C24.0285 6.39563 23.8858 5.56727 23.5807 4.79338C23.2756 4.01949 22.8147 3.3166 22.2265 2.72839C21.6383 2.14018 20.9354 1.67922 20.1615 1.37414C19.3876 1.06906 18.5592 0.926393 17.7279 0.954993C16.8494 0.935511 15.9767 1.10264 15.1676 1.44533C14.3584 1.78802 13.6312 2.29848 13.0339 2.94299C12.1327 1.71688 10.867 0.806936 9.41774 0.343162C7.96846 -0.120612 6.40968 -0.114493 4.96408 0.360645C3.51848 0.835783 2.26002 1.75563 1.36847 2.98879C0.476933 4.22194 -0.00207872 5.70531 -0.000131415 7.22699C-0.000131415 11.062 2.13487 15.4 5.15387 16.83ZM17.7279 3.95499C18.1641 3.93004 18.6007 3.99758 19.0089 4.15318C19.4172 4.30879 19.788 4.54894 20.097 4.8579C20.4059 5.16686 20.6461 5.53764 20.8017 5.94592C20.9573 6.35421 21.0248 6.79078 20.9999 7.22699C20.9999 10.388 19.1559 13.364 17.7279 13.364C16.2999 13.364 14.4539 10.388 14.4539 7.22699C14.4289 6.7906 14.4965 6.35385 14.6522 5.94542C14.8079 5.53699 15.0483 5.16611 15.3574 4.85712C15.6666 4.54813 16.0376 4.30802 16.4462 4.15254C16.8547 3.99707 17.2915 3.92974 17.7279 3.95499ZM7.22787 2.99999C8.34844 3.00132 9.42272 3.44712 10.215 4.23958C11.0073 5.03203 11.4528 6.10642 11.4539 7.22699C11.4539 10.541 9.20187 14.318 7.22787 14.318C5.25387 14.318 2.99987 10.541 2.99987 7.22699C3.00119 6.10616 3.4471 5.03162 4.23974 4.23916C5.03239 3.4467 6.10703 3.00105 7.22787 2.99999Z" fill="#374957"/>
</g>
<defs>
<clipPath id="clip0_405_1778">
<rect width="24" height="24" fill="white"/>
</clipPath>
</defs>
</svg>
