<svg width="24" height="24" viewBox="0 0 24 24" fill="none" xmlns="http://www.w3.org/2000/svg">
<g clip-path="url(#clip0_405_1719)">
<path d="M22.984 1.01812C22.364 0.404264 21.5366 0.044899 20.6648 0.010841C19.7929 -0.023217 18.94 0.270503 18.274 0.834117L5.648 11.7541C3.573 12.2271 0 13.5191 0 16.8001C0.00211748 18.709 0.761367 20.5391 2.11117 21.8889C3.46097 23.2388 5.29109 23.998 7.2 24.0001C10.482 24.0001 11.773 20.4271 12.246 18.3521L23.18 5.71012C23.7374 5.04402 24.0261 4.19395 23.9899 3.32619C23.9537 2.45843 23.595 1.63541 22.984 1.01812ZM7.2 21.0001C6.08609 21.0001 5.0178 20.5576 4.23015 19.77C3.4425 18.9823 3 17.914 3 16.8001C3 15.7061 5.121 14.9141 6.681 14.6001L9.4 17.3191C9.086 18.8811 8.294 21.0001 7.2 21.0001ZM20.9 3.76012L14.653 10.9831L13.016 9.34812L20.227 3.11212C20.3156 3.03655 20.4292 2.99667 20.5456 3.00024C20.6621 3.0038 20.773 3.05056 20.8568 3.13141C20.9407 3.21226 20.9914 3.32141 20.9992 3.43763C21.007 3.55384 20.9713 3.66879 20.899 3.76012H20.9Z" fill="#374957"/>
</g>
<defs>
<clipPath id="clip0_405_1719">
<rect width="24" height="24" fill="white"/>
</clipPath>
</defs>
</svg>
