<svg width="24" height="24" viewBox="0 0 24 24" fill="none" xmlns="http://www.w3.org/2000/svg">
<g clip-path="url(#clip0_405_1345)">
<path d="M23.7 9.886C22.8505 7.7953 21.4563 5.9704 19.6625 4.60111C17.8687 3.23183 15.7407 2.36818 13.5 2.1V1.5C13.5 1.10218 13.342 0.720644 13.0607 0.43934C12.7794 0.158035 12.3978 0 12 0C11.6022 0 11.2207 0.158035 10.9393 0.43934C10.658 0.720644 10.5 1.10218 10.5 1.5V2.107C8.26677 2.39463 6.14854 3.26489 4.35812 4.63035C2.5677 5.99581 1.16813 7.80839 0.300008 9.886C0.0366724 10.577 -0.054683 11.3216 0.0338157 12.0557C0.122314 12.7898 0.388012 13.4914 0.808008 14.1C1.20453 14.6821 1.73653 15.1591 2.35822 15.4901C2.97992 15.8211 3.67271 15.996 4.37701 16H10.5V20.25C10.4999 20.4414 10.4266 20.6255 10.2952 20.7646C10.1638 20.9037 9.98414 20.9873 9.79308 20.9983C9.60202 21.0093 9.41398 20.9468 9.26748 20.8237C9.12097 20.7006 9.02707 20.5261 9.00501 20.336C8.96151 19.9404 8.76266 19.5783 8.45219 19.3294C8.14173 19.0804 7.74508 18.965 7.34951 19.0085C6.95394 19.052 6.59185 19.2508 6.34289 19.5613C6.09394 19.8718 5.97851 20.2684 6.02201 20.664C6.12584 21.6185 6.59183 22.4968 7.32398 23.118C8.05612 23.7392 8.99863 24.0558 9.95731 24.0027C10.916 23.9497 11.8178 23.5309 12.4769 22.8327C13.136 22.1345 13.5022 21.2101 13.5 20.25V16H19.623C20.3273 15.996 21.0201 15.8211 21.6418 15.4901C22.2635 15.1591 22.7955 14.6821 23.192 14.1C23.612 13.4914 23.8777 12.7898 23.9662 12.0557C24.0547 11.3216 23.9633 10.577 23.7 9.886ZM20.722 12.4C20.6017 12.5824 20.4386 12.7325 20.2468 12.8371C20.055 12.9417 19.8405 12.9976 19.622 13H4.37701C4.15856 12.9976 3.94403 12.9417 3.75224 12.8371C3.56046 12.7325 3.39727 12.5824 3.27701 12.4C3.13046 12.1923 3.0376 11.9516 3.00671 11.6993C2.97583 11.4469 3.00788 11.1909 3.10001 10.954C3.84116 9.20009 5.07969 7.7016 6.66273 6.64352C8.24576 5.58544 10.104 5.01409 12.008 5C13.9097 5.01554 15.7652 5.58767 17.3454 6.64577C18.9256 7.70386 20.1613 9.20158 20.9 10.954C20.992 11.191 21.0239 11.4471 20.9928 11.6994C20.9618 11.9517 20.8687 12.1924 20.722 12.4Z" fill="#374957"/>
</g>
<defs>
<clipPath id="clip0_405_1345">
<rect width="24" height="24" fill="white"/>
</clipPath>
</defs>
</svg>
