<svg width="24" height="24" viewBox="0 0 24 24" fill="none" xmlns="http://www.w3.org/2000/svg">
<g clip-path="url(#clip0_405_1775)">
<path d="M6.50008 15.9997C6.79675 15.9997 7.08676 16.0877 7.33343 16.2525C7.58011 16.4173 7.77237 16.6516 7.8859 16.9257C7.99943 17.1998 8.02913 17.5014 7.97126 17.7924C7.91338 18.0833 7.77052 18.3506 7.56074 18.5604C7.35096 18.7702 7.08368 18.913 6.79271 18.9709C6.50174 19.0288 6.20014 18.9991 5.92605 18.8855C5.65196 18.772 5.4177 18.5798 5.25287 18.3331C5.08805 18.0864 5.00008 17.7964 5.00008 17.4997C5.00008 17.1019 5.15811 16.7204 5.43942 16.4391C5.72072 16.1578 6.10225 15.9997 6.50008 15.9997ZM9.50008 23.8607C10.8874 23.602 12.1806 22.9781 13.2467 22.0534C14.3127 21.1287 15.113 19.9366 15.5651 18.5997C15.9929 17.3635 16.1029 16.0396 15.8851 14.7497L16.5661 14.0607C16.8455 13.7785 17.0016 13.3969 17.0001 12.9997V10.9997H17.5001C17.8284 10.9997 18.1535 10.9351 18.4568 10.8094C18.7601 10.6838 19.0357 10.4996 19.2678 10.2675C19.5 10.0353 19.6841 9.75975 19.8098 9.45644C19.9354 9.15312 20.0001 8.82803 20.0001 8.49973V7.99973H21.2511C21.7421 7.99956 22.2223 7.8555 22.6323 7.58536C23.0423 7.31521 23.3642 6.93083 23.5581 6.47973C23.9182 5.65094 24.0613 4.74413 23.9741 3.84473C23.8569 2.77859 23.347 1.79426 22.5438 1.08347C21.7406 0.372682 20.7015 -0.0136517 19.6291 -0.000274213C18.9061 -0.00219233 18.19 0.139293 17.5221 0.415993C16.8542 0.692692 16.2478 1.09911 15.7381 1.61173L9.23808 8.11173C7.951 7.89646 6.63045 8.00857 5.39808 8.43773C3.60809 9.0557 2.09536 10.2886 1.12897 11.9171C0.162583 13.5456 -0.194794 15.4641 0.120412 17.3314C0.435618 19.1986 1.40297 20.8935 2.85038 22.1145C4.2978 23.3356 6.13142 24.0036 8.02508 23.9997C8.51995 23.9984 9.01367 23.9519 9.50008 23.8607ZM9.31508 11.1997C9.57118 11.2709 9.8416 11.2728 10.0987 11.2052C10.3557 11.1375 10.5902 11.0028 10.7781 10.8147L17.8591 3.73473C18.0908 3.50124 18.3666 3.31604 18.6704 3.18988C18.9743 3.06371 19.3001 2.99908 19.6291 2.99973C19.957 2.99193 20.2765 3.10452 20.527 3.31623C20.7776 3.52793 20.942 3.82408 20.9891 4.14873C21.0183 4.4349 20.9911 4.72402 20.9091 4.99973H19.5001C18.837 4.99973 18.2012 5.26312 17.7323 5.73196C17.2635 6.2008 17.0001 6.83669 17.0001 7.49973V7.99973H16.5001C15.837 7.99973 15.2012 8.26312 14.7323 8.73196C14.2635 9.2008 14.0001 9.83669 14.0001 10.4997V12.3837L13.1781 13.2147C12.9919 13.4029 12.8589 13.6371 12.7925 13.8933C12.7261 14.1496 12.7287 14.4188 12.8001 14.6737C13.0787 15.6431 13.0529 16.6746 12.7261 17.6287C12.4503 18.4307 11.9752 19.1493 11.3452 19.7171C10.7153 20.2848 9.95133 20.683 9.12513 20.8742C8.29894 21.0655 7.43769 21.0434 6.62238 20.8101C5.80706 20.5768 5.06448 20.14 4.46445 19.5408C3.86443 18.9415 3.42668 18.1994 3.19238 17.3844C2.95808 16.5694 2.93493 15.7082 3.1251 14.8818C3.31527 14.0553 3.71251 13.2908 4.27947 12.6602C4.84643 12.0295 5.56447 11.5535 6.36608 11.2767C6.87828 11.1 7.41624 11.0094 7.95808 11.0087C8.41699 11.0105 8.87352 11.0747 9.31508 11.1997Z" fill="#374957"/>
</g>
<defs>
<clipPath id="clip0_405_1775">
<rect width="24" height="24" fill="white"/>
</clipPath>
</defs>
</svg>
