<svg width="24" height="24" viewBox="0 0 24 24" fill="none" xmlns="http://www.w3.org/2000/svg">
<g clip-path="url(#clip0_405_1427)">
<path d="M22.874 14.877C22.7457 14.38 22.5187 13.9139 22.2065 13.5064C21.8944 13.0989 21.5035 12.7584 21.057 12.505L20.174 12.005L21.058 11.5C21.5044 11.2468 21.8953 10.9062 22.2073 10.4987C22.5193 10.0912 22.7461 9.62503 22.874 9.128C23.0075 8.61664 23.0366 8.08361 22.9594 7.56077C22.8823 7.03793 22.7005 6.53601 22.425 6.085C22.0659 5.4863 21.5664 4.98405 20.9696 4.62165C20.3729 4.25926 19.6969 4.04761 19 4.005C18.2787 3.98094 17.5649 4.15749 16.938 4.515L16 5.051V4C16 2.93913 15.5786 1.92172 14.8285 1.17157C14.0783 0.421427 13.0609 0 12 0C10.9392 0 9.92175 0.421427 9.1716 1.17157C8.42146 1.92172 8.00003 2.93913 8.00003 4V5.051L7.06103 4.515C6.44047 4.15933 5.73404 3.98117 5.01903 4C4.31799 4.04201 3.63771 4.25407 3.03697 4.61786C2.43623 4.98165 1.9331 5.48622 1.57103 6.088C1.29717 6.53822 1.11673 7.03894 1.04045 7.56036C0.964175 8.08177 0.993618 8.6132 1.12703 9.123C1.25468 9.62095 1.48136 10.0881 1.79355 10.4965C2.10573 10.9049 2.49701 11.2462 2.94403 11.5L3.82703 12L2.94303 12.505C2.4966 12.7584 2.10569 13.0989 1.79354 13.5064C1.48139 13.9139 1.25439 14.38 1.12603 14.877C0.992943 15.3879 0.964111 15.9204 1.04125 16.4427C1.11839 16.965 1.29993 17.4664 1.57503 17.917C1.96217 18.5607 2.51181 19.0913 3.16878 19.4555C3.82576 19.8197 4.56696 20.0047 5.31803 19.992C5.93121 19.9629 6.52881 19.7892 7.06203 19.485L8.00003 18.949V20C8.00003 21.0609 8.42146 22.0783 9.1716 22.8284C9.92175 23.5786 10.9392 24 12 24C13.0609 24 14.0783 23.5786 14.8285 22.8284C15.5786 22.0783 16 21.0609 16 20V18.949L16.939 19.485C17.5651 19.8441 18.2786 20.0224 19 20C19.6975 19.9558 20.3739 19.7432 20.9712 19.3804C21.5686 19.0176 22.0691 18.5155 22.43 17.917C22.7043 17.466 22.8849 16.9644 22.9612 16.4422C23.0375 15.9199 23.0079 15.3876 22.874 14.877ZM19.784 16.486C19.6505 16.7121 19.4358 16.8788 19.1836 16.952C18.9315 17.0252 18.6609 16.9995 18.427 16.88L15.244 15.063C15.0159 14.9327 14.7575 14.8646 14.4947 14.8655C14.232 14.8664 13.974 14.9364 13.7468 15.0683C13.5196 15.2003 13.331 15.3896 13.1999 15.6173C13.0689 15.8451 12.9999 16.1032 13 16.366V20C13 20.2652 12.8947 20.5196 12.7071 20.7071C12.5196 20.8946 12.2652 21 12 21C11.7348 21 11.4805 20.8946 11.2929 20.7071C11.1054 20.5196 11 20.2652 11 20V16.366C10.9996 16.1035 10.9303 15.8457 10.799 15.6184C10.6677 15.391 10.4791 15.2021 10.252 15.0706C10.0248 14.939 9.76711 14.8693 9.5046 14.8685C9.24209 14.8677 8.98397 14.9358 8.75603 15.066L5.57403 16.88C5.33889 17 5.06673 17.0254 4.81344 16.951C4.56015 16.8766 4.34495 16.7081 4.21203 16.48C4.13632 16.3757 4.08192 16.2575 4.05195 16.1322C4.02198 16.0068 4.01703 15.8768 4.03737 15.7496C4.05771 15.6223 4.10295 15.5003 4.1705 15.3906C4.23805 15.2808 4.32658 15.1855 4.43103 15.11L7.60003 13.3C7.82993 13.1689 8.02104 12.9793 8.15398 12.7504C8.28691 12.5216 8.35693 12.2617 8.35693 11.997C8.35693 11.7323 8.28691 11.4724 8.15398 11.2436C8.02104 11.0147 7.82993 10.8251 7.60003 10.694L4.43203 8.891C4.23814 8.72467 4.1099 8.49467 4.07031 8.2423C4.03072 7.98993 4.08239 7.73171 4.21603 7.514C4.34951 7.28787 4.56424 7.12119 4.81642 7.04797C5.06859 6.97475 5.3392 7.00051 5.57303 7.12L8.75603 8.937C8.98419 9.06733 9.24259 9.13544 9.50535 9.13451C9.76811 9.13358 10.026 9.06364 10.2532 8.93169C10.4805 8.79975 10.6691 8.61043 10.8001 8.38268C10.9312 8.15494 11.0001 7.89676 11 7.634V4C11 3.73478 11.1054 3.48043 11.2929 3.29289C11.4805 3.10536 11.7348 3 12 3C12.2652 3 12.5196 3.10536 12.7071 3.29289C12.8947 3.48043 13 3.73478 13 4V7.634C13.0005 7.89651 13.0698 8.15431 13.2011 8.38163C13.3323 8.60896 13.521 8.79786 13.7481 8.92945C13.9753 9.06104 14.233 9.13071 14.4955 9.13151C14.758 9.13231 15.0161 9.0642 15.244 8.934L18.426 7.12C18.6613 6.99996 18.9336 6.97453 19.1871 7.04891C19.4405 7.12329 19.6559 7.29185 19.789 7.52C19.9226 7.73648 19.9739 7.99378 19.9335 8.24492C19.8931 8.49607 19.7637 8.72431 19.569 8.888L16.4 10.7C16.1701 10.8311 15.979 11.0207 15.8461 11.2496C15.7131 11.4784 15.6431 11.7383 15.6431 12.003C15.6431 12.2677 15.7131 12.5276 15.8461 12.7564C15.979 12.9853 16.1701 13.1749 16.4 13.306L19.565 15.112C19.7654 15.2731 19.8987 15.5029 19.9392 15.7568C19.9796 16.0107 19.9243 16.2706 19.784 16.486Z" fill="#374957"/>
</g>
<defs>
<clipPath id="clip0_405_1427">
<rect width="24" height="24" fill="white"/>
</clipPath>
</defs>
</svg>
