<svg width="24" height="24" viewBox="0 0 24 24" fill="none" xmlns="http://www.w3.org/2000/svg">
<g clip-path="url(#clip0_405_1452)">
<path d="M22.8242 1.176C22.0598 0.44565 21.0433 0.0380859 19.9862 0.0380859C18.929 0.0380859 17.9125 0.44565 17.1482 1.176L1.61115 16.713C1.09906 17.2223 0.693017 17.828 0.416497 18.4952C0.139976 19.1624 -0.00153325 19.8778 0.00015221 20.6V22.5C0.00015221 22.8978 0.158187 23.2794 0.439492 23.5607C0.720797 23.842 1.10233 24 1.50015 24H3.40015C4.12271 24.0019 4.83847 23.8606 5.50602 23.584C6.17356 23.3075 6.77964 22.9013 7.28915 22.389L22.8242 6.852C23.5757 6.09874 23.9978 5.07809 23.9978 4.014C23.9978 2.9499 23.5757 1.92926 22.8242 1.176ZM5.16615 20.268C4.69654 20.7346 4.06213 20.9975 3.40015 21H3.00015V20.6C3.00221 19.9373 3.26519 19.3022 3.73215 18.832L15.3002 7.267L16.7332 8.7L5.16615 20.268ZM20.7002 4.731L18.8542 6.58L17.4202 5.146L19.2702 3.3C19.4631 3.11558 19.7197 3.01266 19.9867 3.01266C20.2536 3.01266 20.5102 3.11558 20.7032 3.3C20.8918 3.49056 20.9973 3.748 20.9967 4.01612C20.9962 4.28423 20.8896 4.54123 20.7002 4.731Z" fill="#374957"/>
</g>
<defs>
<clipPath id="clip0_405_1452">
<rect width="24" height="24" fill="white"/>
</clipPath>
</defs>
</svg>
