<svg width="24" height="24" viewBox="0 0 24 24" fill="none" xmlns="http://www.w3.org/2000/svg">
<g clip-path="url(#clip0_405_1779)">
<path d="M18.5 3H13.5V1.5C13.5 1.10218 13.342 0.720644 13.0607 0.43934C12.7794 0.158035 12.3978 0 12 0V0C11.6022 0 11.2206 0.158035 10.9393 0.43934C10.658 0.720644 10.5 1.10218 10.5 1.5V3H5.5C4.04131 3 2.64236 3.57946 1.61091 4.61091C0.579463 5.64236 0 7.04131 0 8.5L0 15.5C0 16.9587 0.579463 18.3576 1.61091 19.3891C2.64236 20.4205 4.04131 21 5.5 21H18.5C19.9587 21 21.3576 20.4205 22.3891 19.3891C23.4205 18.3576 24 16.9587 24 15.5V8.5C24 7.04131 23.4205 5.64236 22.3891 4.61091C21.3576 3.57946 19.9587 3 18.5 3ZM21 15.5C21 16.163 20.7366 16.7989 20.2678 17.2678C19.7989 17.7366 19.163 18 18.5 18H5.5C4.83696 18 4.20107 17.7366 3.73223 17.2678C3.26339 16.7989 3 16.163 3 15.5V8.5C3 7.83696 3.26339 7.20107 3.73223 6.73223C4.20107 6.26339 4.83696 6 5.5 6H18.5C19.163 6 19.7989 6.26339 20.2678 6.73223C20.7366 7.20107 21 7.83696 21 8.5V15.5Z" fill="#374957"/>
<path d="M6.49994 10.9996C7.32837 10.9996 7.99994 10.3281 7.99994 9.49963C7.99994 8.67121 7.32837 7.99963 6.49994 7.99963C5.67151 7.99963 4.99994 8.67121 4.99994 9.49963C4.99994 10.3281 5.67151 10.9996 6.49994 10.9996Z" fill="#374957"/>
<path d="M11.5001 10.9996C12.3285 10.9996 13.0001 10.3281 13.0001 9.49963C13.0001 8.67121 12.3285 7.99963 11.5001 7.99963C10.6716 7.99963 10.0001 8.67121 10.0001 9.49963C10.0001 10.3281 10.6716 10.9996 11.5001 10.9996Z" fill="#374957"/>
<path d="M17.5 7.99963H16.5C16.1022 7.99963 15.7206 8.15767 15.4393 8.43897C15.158 8.72028 15 9.10181 15 9.49963C15 9.89746 15.158 10.279 15.4393 10.5603C15.7206 10.8416 16.1022 10.9996 16.5 10.9996H17.5C17.8978 10.9996 18.2793 10.8416 18.5607 10.5603C18.842 10.279 19 9.89746 19 9.49963C19 9.10181 18.842 8.72028 18.5607 8.43897C18.2793 8.15767 17.8978 7.99963 17.5 7.99963Z" fill="#374957"/>
<path d="M11.4999 13.0004H6.49994C6.10211 13.0004 5.72058 13.1584 5.43928 13.4397C5.15797 13.721 4.99994 14.1025 4.99994 14.5004C4.99994 14.8982 5.15797 15.2797 5.43928 15.561C5.72058 15.8423 6.10211 16.0004 6.49994 16.0004H11.4999C11.8978 16.0004 12.2793 15.8423 12.5606 15.561C12.8419 15.2797 12.9999 14.8982 12.9999 14.5004C12.9999 14.1025 12.8419 13.721 12.5606 13.4397C12.2793 13.1584 11.8978 13.0004 11.4999 13.0004Z" fill="#374957"/>
<path d="M17.5 13.0004H16.5C16.1022 13.0004 15.7206 13.1584 15.4393 13.4397C15.158 13.721 15 14.1025 15 14.5004C15 14.8982 15.158 15.2797 15.4393 15.561C15.7206 15.8423 16.1022 16.0004 16.5 16.0004H17.5C17.8978 16.0004 18.2793 15.8423 18.5607 15.561C18.842 15.2797 19 14.8982 19 14.5004C19 14.1025 18.842 13.721 18.5607 13.4397C18.2793 13.1584 17.8978 13.0004 17.5 13.0004Z" fill="#374957"/>
</g>
<defs>
<clipPath id="clip0_405_1779">
<rect width="24" height="24" fill="white"/>
</clipPath>
</defs>
</svg>
