<svg width="24" height="24" viewBox="0 0 24 24" fill="none" xmlns="http://www.w3.org/2000/svg">
<g clip-path="url(#clip0_405_1399)">
<path d="M16.5001 0H7.50012C6.04192 0.00158817 4.64389 0.581561 3.61279 1.61267C2.58168 2.64377 2.00171 4.0418 2.00012 5.5V18.5C2.00171 19.9582 2.58168 21.3562 3.61279 22.3873C4.64389 23.4184 6.04192 23.9984 7.50012 24H16.5001C17.9583 23.9984 19.3563 23.4184 20.3875 22.3873C21.4186 21.3562 21.9985 19.9582 22.0001 18.5V5.5C21.9985 4.0418 21.4186 2.64377 20.3875 1.61267C19.3563 0.581561 17.9583 0.00158817 16.5001 0V0ZM19.0001 18H13.0001V19C13.0001 19.2652 12.8948 19.5196 12.7072 19.7071C12.5197 19.8946 12.2653 20 12.0001 20C11.7349 20 11.4806 19.8946 11.293 19.7071C11.1055 19.5196 11.0001 19.2652 11.0001 19V18H5.00012V5.5C5.00012 4.83696 5.26351 4.20107 5.73236 3.73223C6.2012 3.26339 6.83708 3 7.50012 3H16.5001C17.1632 3 17.799 3.26339 18.2679 3.73223C18.7367 4.20107 19.0001 4.83696 19.0001 5.5V18Z" fill="#374957"/>
</g>
<defs>
<clipPath id="clip0_405_1399">
<rect width="24" height="24" fill="white"/>
</clipPath>
</defs>
</svg>
