<svg width="24" height="24" viewBox="0 0 24 24" fill="none" xmlns="http://www.w3.org/2000/svg">
<g clip-path="url(#clip0_405_1463)">
<path d="M11.9998 15.0002C12.5041 15.001 13.0016 14.8843 13.4528 14.6592L15.2028 13.7842C15.7445 13.516 16.2 13.1012 16.5177 12.5869C16.8353 12.0727 17.0024 11.4797 16.9998 10.8752V9.12524C17.0017 8.52083 16.8341 7.928 16.5159 7.41412C16.1977 6.90025 15.7417 6.48592 15.1998 6.21824L13.4498 5.34323C12.9983 5.11879 12.501 5.00199 11.9968 5.00199C11.4926 5.00199 10.9953 5.11879 10.5438 5.34323L8.79982 6.21824C8.25792 6.48592 7.80197 6.90025 7.48378 7.41412C7.16559 7.928 6.99792 8.52083 6.99982 9.12524V10.8752C6.99792 11.4796 7.16559 12.0725 7.48378 12.5863C7.80197 13.1002 8.25792 13.5145 8.79982 13.7822L10.5498 14.6572C11 14.8825 11.4964 15 11.9998 15.0002ZM9.99982 10.8772V9.17724L11.3268 9.84024C11.5357 9.94509 11.7661 9.99969 11.9998 9.99969C12.2335 9.99969 12.464 9.94509 12.6728 9.84024L13.9998 9.17824V10.8782C14.0001 10.9249 13.9871 10.9706 13.9626 11.0102C13.938 11.0499 13.9027 11.0817 13.8608 11.1022L12.1108 11.9772C12.0764 11.9945 12.0384 12.0035 11.9998 12.0035C11.9613 12.0035 11.9233 11.9945 11.8888 11.9772L10.1388 11.1022C10.0965 11.0815 10.0609 11.0492 10.0363 11.009C10.0117 10.9688 9.99902 10.9224 9.99982 10.8752V10.8772ZM18.4998 21.0002H14.7598C15.0846 20.8033 15.3864 20.5709 15.6598 20.3072L19.0718 17.1382C20.9446 15.2498 21.9954 12.6979 21.9954 10.0382C21.9954 7.37861 20.9446 4.82669 19.0718 2.93823C18.1449 2.00554 17.0428 1.26535 15.8287 0.760247C14.6147 0.255148 13.3127 -0.00488281 11.9978 -0.00488281C10.6829 -0.00488281 9.38096 0.255148 8.16692 0.760247C6.95287 1.26535 5.8507 2.00554 4.92382 2.93823C3.04689 4.83581 1.9979 7.39952 2.00634 10.0685C2.01477 12.7375 3.07994 15.2946 4.96882 17.1802L8.30682 20.2802C8.59262 20.5555 8.90902 20.797 9.24982 21.0002H5.49982C5.102 21.0002 4.72047 21.1583 4.43916 21.4396C4.15786 21.7209 3.99982 22.1024 3.99982 22.5002C3.99982 22.8981 4.15786 23.2796 4.43916 23.5609C4.72047 23.8422 5.102 24.0002 5.49982 24.0002H18.4998C18.8976 24.0002 19.2792 23.8422 19.5605 23.5609C19.8418 23.2796 19.9998 22.8981 19.9998 22.5002C19.9998 22.1024 19.8418 21.7209 19.5605 21.4396C19.2792 21.1583 18.8976 21.0002 18.4998 21.0002ZM7.05282 15.0222C5.73934 13.6974 5.00238 11.9073 5.00238 10.0417C5.00238 8.17614 5.73934 6.38607 7.05282 5.06123C7.70058 4.40822 8.47121 3.88991 9.32028 3.53621C10.1693 3.1825 11.08 3.00039 11.9998 3.00039C12.9196 3.00039 13.8303 3.1825 14.6794 3.53621C15.5284 3.88991 16.2991 4.40822 16.9468 5.06123C18.256 6.37721 18.9945 8.15567 19.0025 10.0119C19.0105 11.8682 18.2875 13.653 16.9898 14.9802L13.5898 18.1372C13.1564 18.552 12.5781 18.781 11.9782 18.7753C11.3784 18.7697 10.8044 18.53 10.3788 18.1072L7.05282 15.0222Z" fill="#374957"/>
</g>
<defs>
<clipPath id="clip0_405_1463">
<rect width="24" height="24" fill="white"/>
</clipPath>
</defs>
</svg>
