<svg width="24" height="24" viewBox="0 0 24 24" fill="none" xmlns="http://www.w3.org/2000/svg">
<g clip-path="url(#clip0_405_1503)">
<path d="M22.5 8.99884C22.8978 8.99884 23.2794 8.8408 23.5607 8.5595C23.842 8.27819 24 7.89666 24 7.49884C24 7.10101 23.842 6.71948 23.5607 6.43818C23.2794 6.15687 22.8978 5.99884 22.5 5.99884H18.872L19.485 1.71084C19.5128 1.51582 19.502 1.31724 19.4531 1.12641C19.4042 0.935591 19.3182 0.75627 19.2 0.598689C19.0818 0.441108 18.9337 0.308353 18.7641 0.208003C18.5946 0.107654 18.407 0.0416759 18.212 0.0138357C18.017 -0.0140046 17.8184 -0.00316153 17.6276 0.0457457C17.4368 0.0946529 17.2574 0.180666 17.0999 0.298875C16.9423 0.417084 16.8095 0.565174 16.7092 0.734688C16.6088 0.904203 16.5428 1.09182 16.515 1.28684L15.842 5.99884H9.872L10.485 1.71084C10.5128 1.51582 10.502 1.31724 10.4531 1.12641C10.4042 0.935591 10.3182 0.75627 10.2 0.598689C10.0818 0.441108 9.93366 0.308353 9.76415 0.208003C9.59463 0.107654 9.40701 0.0416759 9.212 0.0138357C9.01699 -0.0140046 8.8184 -0.00316153 8.62758 0.0457457C8.43676 0.0946529 8.25743 0.180666 8.09985 0.298875C7.94227 0.417084 7.80952 0.565174 7.70917 0.734688C7.60882 0.904203 7.54284 1.09182 7.515 1.28684L6.842 5.99884H2.5C2.10218 5.99884 1.72064 6.15687 1.43934 6.43818C1.15804 6.71948 1 7.10101 1 7.49884C1 7.89666 1.15804 8.27819 1.43934 8.5595C1.72064 8.8408 2.10218 8.99884 2.5 8.99884H6.413L5.556 14.9988H1.5C1.10218 14.9988 0.720644 15.1569 0.43934 15.4382C0.158035 15.7195 0 16.101 0 16.4988C0 16.8967 0.158035 17.2782 0.43934 17.5595C0.720644 17.8408 1.10218 17.9988 1.5 17.9988H5.128L4.515 22.2868C4.48716 22.4818 4.498 22.6804 4.54691 22.8713C4.59582 23.0621 4.68183 23.2414 4.80004 23.399C5.03877 23.7172 5.39415 23.9276 5.788 23.9838C6.18185 24.0401 6.5819 23.9375 6.90015 23.6988C7.05773 23.5806 7.19048 23.4325 7.29083 23.263C7.39118 23.0935 7.45716 22.9058 7.485 22.7108L8.158 17.9988H14.128L13.515 22.2868C13.4588 22.6807 13.5613 23.0807 13.8 23.399C14.0388 23.7172 14.3942 23.9276 14.788 23.9838C15.1818 24.0401 15.5819 23.9375 15.9001 23.6988C16.2184 23.4601 16.4288 23.1047 16.485 22.7108L17.158 17.9988H21.5C21.8978 17.9988 22.2794 17.8408 22.5607 17.5595C22.842 17.2782 23 16.8967 23 16.4988C23 16.101 22.842 15.7195 22.5607 15.4382C22.2794 15.1569 21.8978 14.9988 21.5 14.9988H17.587L18.444 8.99884H22.5ZM14.556 14.9988H8.587L9.444 8.99884H15.413L14.556 14.9988Z" fill="#374957"/>
</g>
<defs>
<clipPath id="clip0_405_1503">
<rect width="24" height="24" fill="white"/>
</clipPath>
</defs>
</svg>
