<svg width="24" height="24" viewBox="0 0 24 24" fill="none" xmlns="http://www.w3.org/2000/svg">
<g clip-path="url(#clip0_405_1339)">
<path d="M8.47396 0C7.38617 0 6.3228 0.322569 5.41833 0.926917C4.51386 1.53126 3.80891 2.39025 3.39263 3.39524C2.97635 4.40023 2.86743 5.5061 3.07965 6.573C3.29187 7.63989 3.81569 8.6199 4.58488 9.38909C5.35407 10.1583 6.33407 10.6821 7.40097 10.8943C8.46786 11.1065 9.57373 10.9976 10.5787 10.5813C11.5837 10.1651 12.4427 9.46011 13.047 8.55564C13.6514 7.65117 13.974 6.5878 13.974 5.5C13.9724 4.0418 13.3924 2.64377 12.3613 1.61267C11.3302 0.581561 9.93217 0.00158817 8.47396 0V0ZM8.47396 8C7.97951 8 7.49616 7.85338 7.08504 7.57867C6.67392 7.30397 6.35349 6.91352 6.16427 6.45671C5.97505 5.99989 5.92554 5.49723 6.022 5.01227C6.11847 4.52732 6.35657 4.08186 6.7062 3.73223C7.05583 3.3826 7.50129 3.1445 7.98624 3.04804C8.47119 2.95157 8.97386 3.00108 9.43067 3.1903C9.88749 3.37952 10.2779 3.69995 10.5526 4.11107C10.8273 4.5222 10.974 5.00555 10.974 5.5C10.974 5.8283 10.9093 6.15339 10.7837 6.45671C10.658 6.76002 10.4739 7.03562 10.2417 7.26777C10.0096 7.49991 9.73398 7.68406 9.43067 7.8097C9.12736 7.93534 8.80227 8 8.47396 8Z" fill="#374957"/>
<path d="M8.972 14.3511C9.04804 14.7415 8.96592 15.1461 8.7437 15.476C8.52149 15.8059 8.17736 16.034 7.787 16.1101C6.4388 16.3759 5.22462 17.1013 4.35162 18.1625C3.47862 19.2237 3.00091 20.555 3 21.9291V22.5001C3 22.898 2.84196 23.2795 2.56066 23.5608C2.27936 23.8421 1.89783 24.0001 1.5 24.0001C1.10218 24.0001 0.720644 23.8421 0.43934 23.5608C0.158035 23.2795 0 22.898 0 22.5001L0 21.9291C0.00195142 19.8592 0.722057 17.854 2.03746 16.2558C3.35287 14.6575 5.18207 13.5652 7.213 13.1651C7.40637 13.1275 7.60527 13.1283 7.79832 13.1676C7.99138 13.2068 8.17481 13.2837 8.33816 13.3938C8.5015 13.5039 8.64155 13.6452 8.7503 13.8094C8.85906 13.9737 8.93439 14.1578 8.972 14.3511Z" fill="#374957"/>
<path d="M16.9998 9.99939C15.6153 9.99939 14.2619 10.4099 13.1108 11.1791C11.9597 11.9483 11.0624 13.0415 10.5326 14.3206C10.0028 15.5997 9.8642 17.0072 10.1343 18.365C10.4044 19.7229 11.0711 20.9702 12.05 21.9491C13.029 22.9281 14.2763 23.5948 15.6342 23.8649C16.992 24.135 18.3995 23.9964 19.6786 23.4665C20.9577 22.9367 22.0509 22.0395 22.8201 20.8884C23.5892 19.7372 23.9998 18.3839 23.9998 16.9994C23.9998 15.1429 23.2623 13.3624 21.9495 12.0496C20.6368 10.7369 18.8563 9.99939 16.9998 9.99939ZM20.2438 20.2444C20.1294 20.445 19.9702 20.6164 19.7787 20.7454C19.5871 20.8743 19.3684 20.9574 19.1395 20.9879C18.9107 21.0185 18.6778 20.9958 18.4591 20.9217C18.2405 20.8475 18.0418 20.7239 17.8788 20.5604L15.4388 18.1204C15.2995 17.981 15.1891 17.8156 15.1137 17.6336C15.0384 17.4515 14.9997 17.2564 14.9998 17.0594V13.5594C14.9998 13.1616 15.1578 12.78 15.4391 12.4987C15.7204 12.2174 16.102 12.0594 16.4998 12.0594C16.8976 12.0594 17.2791 12.2174 17.5604 12.4987C17.8418 12.78 17.9998 13.1616 17.9998 13.5594V16.4374L19.9378 18.3754C20.1867 18.6102 20.3516 18.9204 20.4069 19.2581C20.4622 19.5959 20.4049 19.9424 20.2438 20.2444Z" fill="#374957"/>
</g>
<defs>
<clipPath id="clip0_405_1339">
<rect width="24" height="24" fill="white"/>
</clipPath>
</defs>
</svg>
