<svg width="24" height="24" viewBox="0 0 24 24" fill="none" xmlns="http://www.w3.org/2000/svg">
<g clip-path="url(#clip0_405_1714)">
<path d="M23.46 2.273C23.084 1.58513 22.5298 1.01112 21.8556 0.611186C21.1814 0.211256 20.4119 0.000144594 19.628 0L4.37199 0C3.58807 0.000144594 2.81863 0.211256 2.14439 0.611186C1.47016 1.01112 0.915979 1.58513 0.53999 2.273C0.160302 2.95174 -0.0269452 3.72123 -0.00156956 4.49853C0.023806 5.27583 0.260842 6.03147 0.68399 6.684C1.7815 8.36086 3.2254 9.78324 4.91857 10.8554C6.61173 11.9276 8.51488 12.6248 10.5 12.9V21H7.49999C7.10216 21 6.72063 21.158 6.43933 21.4393C6.15802 21.7206 5.99999 22.1022 5.99999 22.5C5.99999 22.8978 6.15802 23.2794 6.43933 23.5607C6.72063 23.842 7.10216 24 7.49999 24H16.5C16.8978 24 17.2793 23.842 17.5606 23.5607C17.842 23.2794 18 22.8978 18 22.5C18 22.1022 17.842 21.7206 17.5606 21.4393C17.2793 21.158 16.8978 21 16.5 21H13.5V12.9C15.4852 12.6247 17.3884 11.9274 19.0816 10.855C20.7747 9.78262 22.2186 8.36005 23.316 6.683C23.7389 6.03058 23.9759 5.27513 24.0012 4.49802C24.0266 3.72092 23.8395 2.95162 23.46 2.273ZM12 10C10.2384 9.92892 8.51922 9.4381 6.98561 8.56841C5.45199 7.69872 4.14829 6.47531 3.18299 5H20.817C19.8516 6.47525 18.5479 7.69862 17.0143 8.5683C15.4807 9.43799 13.7616 9.92883 12 10Z" fill="#374957"/>
</g>
<defs>
<clipPath id="clip0_405_1714">
<rect width="24" height="24" fill="white"/>
</clipPath>
</defs>
</svg>
