<svg width="24" height="24" viewBox="0 0 24 24" fill="none" xmlns="http://www.w3.org/2000/svg">
<g clip-path="url(#clip0_405_1563)">
<path d="M24 15.5V18.5C23.9984 19.9582 23.4184 21.3562 22.3873 22.3873C21.3562 23.4184 19.9582 23.9984 18.5 24H5.5C4.0418 23.9984 2.64377 23.4184 1.61267 22.3873C0.581561 21.3562 0.00158817 19.9582 0 18.5L0 8.5C0.00158817 7.0418 0.581561 5.64377 1.61267 4.61267C2.64377 3.58156 4.0418 3.00159 5.5 3H13.5C13.8978 3 14.2794 3.15804 14.5607 3.43934C14.842 3.72064 15 4.10218 15 4.5C15 4.89782 14.842 5.27936 14.5607 5.56066C14.2794 5.84196 13.8978 6 13.5 6H5.5C5.04646 6.0015 4.60191 6.12671 4.21425 6.36212C3.82659 6.59754 3.51049 6.93425 3.3 7.336L10.231 14.268C10.7075 14.7223 11.3406 14.9758 11.999 14.9758C12.6574 14.9758 13.2905 14.7223 13.767 14.268C14.0499 13.9948 14.4288 13.8436 14.8221 13.847C15.2154 13.8504 15.5916 14.0082 15.8697 14.2863C16.1478 14.5644 16.3056 14.9406 16.309 15.3339C16.3124 15.7272 16.1612 16.1061 15.888 16.389C14.8533 17.4143 13.4556 17.9895 11.999 17.9895C10.5424 17.9895 9.14466 17.4143 8.11 16.389L3 11.277V18.5C3 19.163 3.26339 19.7989 3.73223 20.2678C4.20107 20.7366 4.83696 21 5.5 21H18.5C19.163 21 19.7989 20.7366 20.2678 20.2678C20.7366 19.7989 21 19.163 21 18.5V15.5C21 15.1022 21.158 14.7206 21.4393 14.4393C21.7206 14.158 22.1022 14 22.5 14C22.8978 14 23.2794 14.158 23.5607 14.4393C23.842 14.7206 24 15.1022 24 15.5ZM14.824 8C14.5939 7.99947 14.3688 8.06726 14.1773 8.19478C13.9858 8.3223 13.8364 8.50381 13.7482 8.7163C13.6599 8.9288 13.6368 9.16271 13.6816 9.38839C13.7264 9.61408 13.8372 9.82137 14 9.984L17.676 13.66C17.8942 13.8776 18.1898 13.9999 18.498 13.9999C18.8062 13.9999 19.1018 13.8776 19.32 13.66L23 9.984C23.1628 9.82137 23.2736 9.61408 23.3184 9.38839C23.3632 9.16271 23.3401 8.9288 23.2518 8.7163C23.1636 8.50381 23.0142 8.3223 22.8227 8.19478C22.6312 8.06726 22.4061 7.99947 22.176 8H20V1.5C20 1.10218 19.842 0.720644 19.5607 0.43934C19.2794 0.158035 18.8978 0 18.5 0C18.1022 0 17.7206 0.158035 17.4393 0.43934C17.158 0.720644 17 1.10218 17 1.5V8H14.824Z" fill="#374957"/>
</g>
<defs>
<clipPath id="clip0_405_1563">
<rect width="24" height="24" fill="white"/>
</clipPath>
</defs>
</svg>
