<svg width="24" height="24" viewBox="0 0 24 24" fill="none" xmlns="http://www.w3.org/2000/svg">
<g clip-path="url(#clip0_405_1587)">
<path d="M23.561 13.439C23.8424 13.7204 24.0005 14.1021 24.0005 14.5C24.0005 14.898 23.8424 15.2796 23.561 15.561C23.2796 15.8424 22.898 16.0005 22.5 16.0005C22.102 16.0005 21.7204 15.8424 21.439 15.561L20 14.121L18.561 15.561C18.2796 15.8424 17.898 16.0005 17.5 16.0005C17.102 16.0005 16.7204 15.8424 16.439 15.561C16.1576 15.2796 15.9995 14.898 15.9995 14.5C15.9995 14.1021 16.1576 13.7204 16.439 13.439L17.879 12L16.439 10.561C16.1576 10.2796 15.9995 9.89796 15.9995 9.5C15.9995 9.10205 16.1576 8.7204 16.439 8.439C16.7204 8.15761 17.102 7.99952 17.5 7.99952C17.898 7.99952 18.2796 8.15761 18.561 8.439L20 9.879L21.439 8.439C21.7204 8.15761 22.102 7.99952 22.5 7.99952C22.898 7.99952 23.2796 8.15761 23.561 8.439C23.8424 8.7204 24.0005 9.10205 24.0005 9.5C24.0005 9.89796 23.8424 10.2796 23.561 10.561L22.121 12L23.561 13.439ZM2 6C2 4.81332 2.35189 3.65328 3.01118 2.66658C3.67047 1.67989 4.60754 0.910851 5.7039 0.456726C6.80026 0.00259972 8.00666 -0.11622 9.17054 0.115291C10.3344 0.346802 11.4035 0.918247 12.2426 1.75736C13.0818 2.59648 13.6532 3.66558 13.8847 4.82946C14.1162 5.99335 13.9974 7.19975 13.5433 8.2961C13.0892 9.39246 12.3201 10.3295 11.3334 10.9888C10.3467 11.6481 9.18669 12 8 12C6.40919 11.9984 4.88399 11.3658 3.75911 10.2409C2.63424 9.11602 2.00159 7.59082 2 6ZM5 6C5 6.59335 5.17595 7.17337 5.50559 7.66671C5.83524 8.16006 6.30377 8.54458 6.85195 8.77164C7.40013 8.99871 8.00333 9.05812 8.58527 8.94236C9.16721 8.8266 9.70176 8.54088 10.1213 8.12132C10.5409 7.70177 10.8266 7.16722 10.9424 6.58527C11.0581 6.00333 10.9987 5.40013 10.7716 4.85195C10.5446 4.30377 10.1601 3.83524 9.66671 3.50559C9.17336 3.17595 8.59334 3 8 3C7.20435 3 6.44129 3.31607 5.87868 3.87868C5.31607 4.44129 5 5.20435 5 6ZM8 14C5.879 14.0024 3.84555 14.846 2.34578 16.3458C0.846002 17.8456 0.00238211 19.879 0 22L0 22.5C0 22.8978 0.158035 23.2794 0.43934 23.5607C0.720644 23.842 1.10218 24 1.5 24C1.89782 24 2.27936 23.842 2.56066 23.5607C2.84196 23.2794 3 22.8978 3 22.5V22C3 20.6739 3.52678 19.4022 4.46447 18.4645C5.40215 17.5268 6.67392 17 8 17C9.32608 17 10.5979 17.5268 11.5355 18.4645C12.4732 19.4022 13 20.6739 13 22V22.5C13 22.8978 13.158 23.2794 13.4393 23.5607C13.7206 23.842 14.1022 24 14.5 24C14.8978 24 15.2794 23.842 15.5607 23.5607C15.842 23.2794 16 22.8978 16 22.5V22C15.9976 19.879 15.154 17.8456 13.6542 16.3458C12.1544 14.846 10.121 14.0024 8 14Z" fill="#374957"/>
</g>
<defs>
<clipPath id="clip0_405_1587">
<rect width="24" height="24" fill="white"/>
</clipPath>
</defs>
</svg>
