<svg width="24" height="24" viewBox="0 0 24 24" fill="none" xmlns="http://www.w3.org/2000/svg">
<g clip-path="url(#clip0_405_1473)">
<path d="M22.5 21H22V14.318C21.9984 12.9081 21.4376 11.5563 20.4406 10.5594C19.4437 9.56238 18.0919 9.00158 16.682 8.99999H13.5V6.33299C13.9543 6.07151 14.332 5.69529 14.5952 5.24199C14.8585 4.78868 14.9981 4.27419 15 3.74999C14.8381 2.60756 14.3344 1.54084 13.555 0.689994C13.353 0.48216 13.1113 0.316951 12.8443 0.20414C12.5773 0.0913278 12.2904 0.0332031 12.0005 0.0332031C11.7106 0.0332031 11.4237 0.0913278 11.1567 0.20414C10.8897 0.316951 10.648 0.48216 10.446 0.689994C9.66668 1.54099 9.16266 2.60759 9 3.74999C9.00193 4.27419 9.14151 4.78868 9.40475 5.24199C9.66799 5.69529 10.0457 6.07151 10.5 6.33299V8.99999H7.318C5.90807 9.00158 4.55633 9.56238 3.55936 10.5594C2.56239 11.5563 2.00159 12.9081 2 14.318V21H1.5C1.10218 21 0.720644 21.158 0.43934 21.4393C0.158035 21.7206 0 22.1022 0 22.5C0 22.8978 0.158035 23.2794 0.43934 23.5607C0.720644 23.842 1.10218 24 1.5 24H22.5C22.8978 24 23.2794 23.842 23.5607 23.5607C23.842 23.2794 24 22.8978 24 22.5C24 22.1022 23.842 21.7206 23.5607 21.4393C23.2794 21.158 22.8978 21 22.5 21ZM5 16.74C5.44293 16.6322 5.84463 16.3971 6.15558 16.0637C6.46654 15.7304 6.67317 15.3133 6.75 14.864C6.84012 15.4843 7.15995 16.0481 7.64613 16.4437C8.1323 16.8393 8.74935 17.0378 9.375 17C10.0011 17.04 10.6193 16.8422 11.1059 16.4462C11.5926 16.0502 11.9119 15.4852 12 14.864C12.0901 15.4843 12.41 16.0481 12.8961 16.4437C13.3823 16.8393 13.9993 17.0378 14.625 17C15.2511 17.04 15.8693 16.8422 16.3559 16.4462C16.8426 16.0502 17.1619 15.4852 17.25 14.864C17.3293 15.3121 17.5369 15.7276 17.8475 16.0602C18.158 16.3928 18.5584 16.6282 19 16.738V21H5V16.74Z" fill="#374957"/>
</g>
<defs>
<clipPath id="clip0_405_1473">
<rect width="24" height="24" fill="white"/>
</clipPath>
</defs>
</svg>
