<svg width="24" height="24" viewBox="0 0 24 24" fill="none" xmlns="http://www.w3.org/2000/svg">
<g clip-path="url(#clip0_405_1528)">
<path d="M23.2631 14.7594C23.0088 14.4904 22.6964 14.2832 22.3498 14.1536C22.0031 14.024 21.6314 13.9753 21.2631 14.0114C18.3677 14.185 15.623 15.3609 13.5001 17.3374V14.8184C14.9221 14.48 16.1887 13.6727 17.0958 12.5265C18.0029 11.3803 18.4975 9.96205 18.5001 8.50036C18.5001 5.52736 16.4841 3.07036 14.5131 1.05936C13.8418 0.402053 12.9396 0.0339355 12.0001 0.0339355C11.0605 0.0339355 10.1584 0.402053 9.48708 1.05936C7.51608 3.07036 5.50008 5.52736 5.50008 8.50036C5.50262 9.96205 5.9973 11.3803 6.90438 12.5265C7.81146 13.6727 9.07809 14.48 10.5001 14.8184V17.3374C8.37698 15.3611 5.63239 14.1852 2.73708 14.0114C2.36877 13.9757 1.99718 14.0245 1.6506 14.1541C1.30401 14.2837 0.991577 14.4907 0.73708 14.7594C0.46522 15.0513 0.262358 15.4005 0.143455 15.7813C0.0245523 16.162 -0.00735719 16.5646 0.0500799 16.9594C0.86108 22.6324 6.65008 24.0674 10.6091 24.0674C15.6211 24.2104 22.7091 23.9104 23.9501 16.9594C24.0072 16.5646 23.9752 16.1621 23.8563 15.7814C23.7374 15.4007 23.5347 15.0514 23.2631 14.7594ZM8.50008 8.50036C8.68936 6.94322 9.39326 5.49388 10.5001 4.38236V7.50036C10.5001 7.89819 10.6581 8.27972 10.9394 8.56102C11.2207 8.84233 11.6023 9.00036 12.0001 9.00036C12.3979 9.00036 12.7794 8.84233 13.0607 8.56102C13.342 8.27972 13.5001 7.89819 13.5001 7.50036V4.38236C14.6069 5.49388 15.3108 6.94322 15.5001 8.50036C15.5001 9.42862 15.1313 10.3189 14.475 10.9752C13.8186 11.6316 12.9283 12.0004 12.0001 12.0004C11.0718 12.0004 10.1816 11.6316 9.52521 10.9752C8.86883 10.3189 8.50008 9.42862 8.50008 8.50036ZM3.12708 17.0774C4.44527 17.2102 5.71753 17.634 6.85211 18.3181C7.98669 19.0022 8.9553 19.9296 9.68808 21.0334C7.36908 20.9004 3.91708 20.1624 3.12708 17.0774ZM14.3121 21.0334C15.045 19.9297 16.0136 19.0024 17.1482 18.3183C18.2827 17.6342 19.5549 17.2104 20.8731 17.0774C20.0841 20.1624 16.6311 20.9004 14.3121 21.0334Z" fill="#374957"/>
</g>
<defs>
<clipPath id="clip0_405_1528">
<rect width="24" height="24" fill="white"/>
</clipPath>
</defs>
</svg>
