<svg width="24" height="24" viewBox="0 0 24 24" fill="none" xmlns="http://www.w3.org/2000/svg">
<g clip-path="url(#clip0_405_1351)">
<path d="M15.5 13.5H13.31C12.9301 13.8344 12.4371 14.0116 11.9312 13.9955C11.4253 13.9794 10.9446 13.7712 10.5867 13.4133C10.2288 13.0554 10.0206 12.5747 10.0045 12.0688C9.98844 11.5629 10.1656 11.0699 10.5 10.69V7C10.5 6.60218 10.658 6.22064 10.9393 5.93934C11.2206 5.65804 11.6022 5.5 12 5.5C12.3978 5.5 12.7794 5.65804 13.0607 5.93934C13.342 6.22064 13.5 6.60218 13.5 7V10.5H15.5C15.8978 10.5 16.2794 10.658 16.5607 10.9393C16.842 11.2206 17 11.6022 17 12C17 12.3978 16.842 12.7794 16.5607 13.0607C16.2794 13.342 15.8978 13.5 15.5 13.5ZM12 0C11.6022 0 11.2206 0.158035 10.9393 0.43934C10.658 0.720644 10.5 1.10218 10.5 1.5C10.5 1.89782 10.658 2.27936 10.9393 2.56066C11.2206 2.84196 11.6022 3 12 3C14.3861 3.00265 16.6738 3.95171 18.361 5.63896C20.0483 7.32622 20.9974 9.61386 21 12C21 12.3978 21.158 12.7794 21.4393 13.0607C21.7206 13.342 22.1022 13.5 22.5 13.5C22.8978 13.5 23.2794 13.342 23.5607 13.0607C23.842 12.7794 24 12.3978 24 12C23.9966 8.81846 22.7312 5.76821 20.4815 3.51852C18.2318 1.26883 15.1815 0.00344108 12 0V0ZM3 12.5C3 12.2033 2.91203 11.9133 2.74721 11.6666C2.58238 11.42 2.34811 11.2277 2.07403 11.1142C1.79994 11.0006 1.49834 10.9709 1.20737 11.0288C0.916394 11.0867 0.649119 11.2296 0.439341 11.4393C0.229562 11.6491 0.0867006 11.9164 0.0288228 12.2074C-0.0290551 12.4983 0.000649929 12.7999 0.114181 13.074C0.227713 13.3481 0.419972 13.5824 0.666645 13.7472C0.913319 13.912 1.20333 14 1.5 14C1.89783 14 2.27936 13.842 2.56066 13.5607C2.84197 13.2794 3 12.8978 3 12.5ZM6.74 1.894C6.44333 1.894 6.15332 1.98197 5.90665 2.1468C5.65997 2.31162 5.46771 2.54589 5.35418 2.81997C5.24065 3.09406 5.21094 3.39566 5.26882 3.68664C5.3267 3.97761 5.46956 4.24488 5.67934 4.45466C5.88912 4.66444 6.15639 4.8073 6.44736 4.86518C6.73834 4.92306 7.03994 4.89335 7.31403 4.77982C7.58811 4.66629 7.82238 4.47403 7.98721 4.22736C8.15203 3.98068 8.24 3.69067 8.24 3.394C8.24 2.99618 8.08197 2.61464 7.80066 2.33334C7.51936 2.05204 7.13783 1.894 6.74 1.894ZM2.913 5.75C2.61633 5.75 2.32632 5.83797 2.07965 6.0028C1.83297 6.16762 1.64071 6.40189 1.52718 6.67597C1.41365 6.95006 1.38394 7.25166 1.44182 7.54264C1.4997 7.83361 1.64256 8.10088 1.85234 8.31066C2.06212 8.52044 2.32939 8.6633 2.62037 8.72118C2.91134 8.77906 3.21294 8.74935 3.48703 8.63582C3.76112 8.52229 3.99538 8.33003 4.1602 8.08335C4.32503 7.83668 4.413 7.54667 4.413 7.25C4.413 6.85218 4.25497 6.47064 3.97366 6.18934C3.69236 5.90804 3.31083 5.75 2.913 5.75ZM6.74 20.106C6.44333 20.106 6.15332 20.194 5.90665 20.3588C5.65997 20.5236 5.46771 20.7579 5.35418 21.032C5.24065 21.3061 5.21094 21.6077 5.26882 21.8986C5.3267 22.1896 5.46956 22.4569 5.67934 22.6667C5.88912 22.8764 6.15639 23.0193 6.44736 23.0772C6.73834 23.1351 7.03994 23.1054 7.31403 22.9918C7.58811 22.8783 7.82238 22.686 7.98721 22.4394C8.15203 22.1927 8.24 21.9027 8.24 21.606C8.24 21.2082 8.08197 20.8266 7.80066 20.5453C7.51936 20.264 7.13783 20.106 6.74 20.106ZM2.913 16.25C2.61633 16.25 2.32632 16.338 2.07965 16.5028C1.83297 16.6676 1.64071 16.9019 1.52718 17.176C1.41365 17.4501 1.38394 17.7517 1.44182 18.0426C1.4997 18.3336 1.64256 18.6009 1.85234 18.8107C2.06212 19.0204 2.32939 19.1633 2.62037 19.2212C2.91134 19.2791 3.21294 19.2493 3.48703 19.1358C3.76112 19.0223 3.99538 18.83 4.1602 18.5834C4.32503 18.3367 4.413 18.0467 4.413 17.75C4.413 17.3522 4.25497 16.9706 3.97366 16.6893C3.69236 16.408 3.31083 16.25 2.913 16.25ZM12 21C11.7033 21 11.4133 21.088 11.1666 21.2528C10.92 21.4176 10.7277 21.6519 10.6142 21.926C10.5007 22.2001 10.4709 22.5017 10.5288 22.7926C10.5867 23.0836 10.7296 23.3509 10.9393 23.5607C11.1491 23.7704 11.4164 23.9133 11.7074 23.9712C11.9983 24.0291 12.2999 23.9993 12.574 23.8858C12.8481 23.7723 13.0824 23.58 13.2472 23.3334C13.412 23.0867 13.5 22.7967 13.5 22.5C13.5 22.1022 13.342 21.7206 13.0607 21.4393C12.7794 21.158 12.3978 21 12 21ZM21.106 15.76C20.8093 15.76 20.5193 15.848 20.2726 16.0128C20.026 16.1776 19.8337 16.4119 19.7202 16.686C19.6066 16.9601 19.5769 17.2617 19.6348 17.5526C19.6927 17.8436 19.8356 18.1109 20.0453 18.3207C20.2551 18.5304 20.5224 18.6733 20.8134 18.7312C21.1043 18.7891 21.4059 18.7593 21.68 18.6458C21.9541 18.5323 22.1884 18.34 22.3532 18.0934C22.518 17.8467 22.606 17.5567 22.606 17.26C22.606 16.8622 22.448 16.4806 22.1667 16.1993C21.8854 15.918 21.5038 15.76 21.106 15.76ZM17.25 19.587C16.9533 19.587 16.6633 19.675 16.4166 19.8398C16.17 20.0046 15.9777 20.2389 15.8642 20.513C15.7507 20.7871 15.7209 21.0887 15.7788 21.3796C15.8367 21.6706 15.9796 21.9379 16.1893 22.1477C16.3991 22.3574 16.6664 22.5003 16.9574 22.5582C17.2483 22.6161 17.5499 22.5863 17.824 22.4728C18.0981 22.3593 18.3324 22.167 18.4972 21.9204C18.662 21.6737 18.75 21.3837 18.75 21.087C18.75 20.6892 18.592 20.3076 18.3107 20.0263C18.0294 19.745 17.6478 19.587 17.25 19.587Z" fill="#374957"/>
</g>
<defs>
<clipPath id="clip0_405_1351">
<rect width="24" height="24" fill="white"/>
</clipPath>
</defs>
</svg>
