<svg width="24" height="24" viewBox="0 0 24 24" fill="none" xmlns="http://www.w3.org/2000/svg">
<g clip-path="url(#clip0_405_1359)">
<path d="M1.49993 24.0084C1.69708 24.0088 1.89235 23.9701 2.07446 23.8946C2.25658 23.819 2.42192 23.7082 2.56093 23.5684L8.51093 17.6144L9.23893 18.3674C10.2062 19.3828 11.537 19.9727 12.9389 20.0074C13.4215 20.0083 13.9007 19.9268 14.3559 19.7664C15.063 19.5169 15.684 19.0705 16.1457 18.4798C16.6074 17.8891 16.8906 17.1787 16.9619 16.4324C17.0661 15.4475 16.994 14.4519 16.7489 13.4924L16.7069 13.2924L20.0949 9.90538L20.5469 10.3584C20.8795 10.7078 21.3248 10.9287 21.8042 10.9821C22.2837 11.0355 22.7666 10.918 23.1679 10.6504C23.403 10.4824 23.5987 10.2654 23.7415 10.0143C23.8843 9.76318 23.9708 9.48401 23.995 9.19614C24.0191 8.90827 23.9804 8.61859 23.8815 8.34718C23.7825 8.07578 23.6257 7.82914 23.4219 7.62438L16.4549 0.641378C16.1223 0.291951 15.6771 0.0710828 15.1976 0.0176684C14.7182 -0.0357459 14.2353 0.0817191 13.8339 0.349378C13.5989 0.517307 13.4031 0.734353 13.2603 0.985465C13.1175 1.23658 13.031 1.51575 13.0069 1.80362C12.9827 2.09149 13.0214 2.38117 13.1204 2.65257C13.2194 2.92398 13.3762 3.17061 13.5799 3.37538L14.0999 3.90038L10.7199 7.28138C9.73892 7.02431 8.7194 6.94739 7.71093 7.05438C6.93259 7.13442 6.19341 7.43551 5.58067 7.92209C4.96793 8.40866 4.50722 9.06041 4.25293 9.80038C3.97863 10.5543 3.92485 11.3707 4.09789 12.154C4.27092 12.9374 4.6636 13.6552 5.22993 14.2234L6.42993 15.4594L0.438925 21.4484C0.229352 21.6582 0.0866829 21.9255 0.0289461 22.2164C-0.0287907 22.5072 0.000996292 22.8087 0.114543 23.0827C0.22809 23.3567 0.4203 23.5908 0.666884 23.7556C0.913468 23.9203 1.20336 24.0083 1.49993 24.0084ZM7.08093 10.8004C7.14745 10.5959 7.27184 10.4151 7.43903 10.2798C7.60622 10.1446 7.80904 10.0607 8.02293 10.0384C8.6783 9.96978 9.34069 10.0206 9.97793 10.1884L10.8069 10.3994C11.0591 10.4636 11.3235 10.4611 11.5744 10.3922C11.8253 10.3233 12.054 10.1904 12.2379 10.0064L16.2199 6.02238L17.9739 7.78238L14.0099 11.7474C13.8336 11.9238 13.7041 12.1413 13.633 12.3803C13.562 12.6194 13.5516 12.8723 13.6029 13.1164L13.8279 14.1794C13.9937 14.8125 14.0439 15.4704 13.9759 16.1214C13.9665 16.3047 13.9017 16.481 13.7901 16.6268C13.6785 16.7726 13.5254 16.8813 13.3509 16.9384C12.9919 17.0228 12.6163 17.0043 12.2673 16.8849C11.9183 16.7655 11.61 16.5501 11.3779 16.2634L7.36993 12.1184C7.20092 11.9492 7.0839 11.7352 7.03268 11.5016C6.98147 11.2681 6.99821 11.0247 7.08093 10.8004Z" fill="#374957"/>
</g>
<defs>
<clipPath id="clip0_405_1359">
<rect width="24" height="24" fill="white"/>
</clipPath>
</defs>
</svg>
