<svg width="24" height="24" viewBox="0 0 24 24" fill="none" xmlns="http://www.w3.org/2000/svg">
<g clip-path="url(#clip0_405_1530)">
<path d="M22.3268 18.422C23.0548 19.456 23.9998 20.651 23.9998 21.5C23.9998 22.1631 23.7364 22.7989 23.2676 23.2678C22.7987 23.7366 22.1629 24 21.4998 24C20.8368 24 20.2009 23.7366 19.7321 23.2678C19.2632 22.7989 18.9998 22.1631 18.9998 21.5C18.9998 20.725 19.9608 19.492 20.6918 18.431C20.7834 18.2995 20.9053 18.1919 21.0471 18.1173C21.189 18.0427 21.3467 18.0033 21.507 18.0024C21.6673 18.0016 21.8254 18.0392 21.9681 18.1122C22.1108 18.1853 22.2338 18.2915 22.3268 18.422ZM21.4518 14.569L13.6318 22.389C12.5993 23.4185 11.2008 23.9965 9.74283 23.9965C8.28483 23.9965 6.88631 23.4185 5.85383 22.389L1.61083 18.146C0.579429 17.1146 0 15.7157 0 14.257C0 12.7984 0.579429 11.3995 1.61083 10.368L5.42883 6.55002L2.43883 3.56102C2.15743 3.27963 1.99934 2.89797 1.99934 2.50002C1.99934 2.10207 2.15743 1.72042 2.43883 1.43902C2.72022 1.15763 3.10187 0.999541 3.49983 0.999541C3.89778 0.999541 4.27943 1.15763 4.56083 1.43902L7.54983 4.42902L9.43083 2.54802C9.16998 2.26195 9.02983 1.8861 9.03971 1.49908C9.04959 1.11206 9.20873 0.743846 9.48383 0.471452C9.75894 0.199059 10.1287 0.0435807 10.5158 0.0375365C10.9029 0.0314924 11.2773 0.17535 11.5608 0.439022L23.5608 12.439C23.8245 12.7225 23.9684 13.0969 23.9623 13.484C23.9563 13.8711 23.8008 14.2409 23.5284 14.516C23.256 14.7911 22.8878 14.9503 22.5008 14.9601C22.1137 14.97 21.7379 14.8299 21.4518 14.569ZM19.3288 12.45L11.5498 4.67102L9.67083 6.55002L13.5608 10.439C13.8422 10.7204 14.0003 11.1021 14.0003 11.5C14.0003 11.898 13.8422 12.2796 13.5608 12.561C13.2794 12.8424 12.8978 13.0005 12.4998 13.0005C12.1019 13.0005 11.7202 12.8424 11.4388 12.561L7.54983 8.67102L3.73183 12.489C3.49961 12.7212 3.3154 12.9968 3.18972 13.3002C3.06405 13.6035 2.99936 13.9287 2.99936 14.257C2.99936 14.5854 3.06405 14.9105 3.18972 15.2139C3.3154 15.5172 3.49961 15.7929 3.73183 16.025L7.97483 20.268C8.20698 20.5002 8.48261 20.6844 8.78596 20.8101C9.08932 20.9358 9.41446 21.0005 9.74283 21.0005C10.0712 21.0005 10.3963 20.9358 10.6997 20.8101C11.003 20.6844 11.2787 20.5002 11.5108 20.268L19.3288 12.45Z" fill="#374957"/>
</g>
<defs>
<clipPath id="clip0_405_1530">
<rect width="24" height="24" fill="white"/>
</clipPath>
</defs>
</svg>
