<svg width="24" height="24" viewBox="0 0 24 24" fill="none" xmlns="http://www.w3.org/2000/svg">
<g clip-path="url(#clip0_405_1754)">
<path d="M5.32388 23.9821H18.6809C19.5771 23.9826 20.4588 23.7563 21.2439 23.3242C22.0291 22.8921 22.6921 22.2684 23.1712 21.511C23.6504 20.7537 23.93 19.8874 23.9842 18.9929C24.0383 18.0984 23.8652 17.2047 23.4809 16.3951L16.8199 3.09507C16.3977 2.1729 15.7183 1.39216 14.8633 0.846544C14.0084 0.300925 13.0141 0.0136067 11.9999 0.019069C10.993 0.0115078 10.0052 0.293585 9.15419 0.831688C8.30316 1.36979 7.62477 2.14123 7.19988 3.05407L0.499883 16.4341C0.123824 17.2438 -0.0420252 18.1353 0.0176679 19.0262C0.0773609 19.917 0.360669 20.7784 0.841404 21.5307C1.32214 22.2831 1.98478 22.9021 2.76808 23.3306C3.55138 23.759 4.43006 23.9831 5.32288 23.9821H5.32388ZM3.21388 17.7161L9.89988 4.35807C10.0882 3.95458 10.3887 3.6138 10.7654 3.37636C11.1421 3.13893 11.5792 3.01487 12.0244 3.01898C12.4697 3.02309 12.9044 3.1552 13.2766 3.39955C13.6489 3.6439 13.943 3.99017 14.1239 4.39707L20.7859 17.6971C20.9495 18.0495 21.0216 18.4375 20.9955 18.8252C20.9694 19.2129 20.846 19.5877 20.6367 19.9151C20.4273 20.2424 20.1388 20.5117 19.7979 20.698C19.4569 20.8844 19.0744 20.9817 18.6859 20.9811H16.6589L13.7069 15.0861C13.5556 14.7612 13.3146 14.4863 13.0124 14.2937C12.7102 14.1011 12.3593 13.9987 12.0009 13.9987C11.6425 13.9987 11.2916 14.1011 10.9894 14.2937C10.6871 14.4863 10.4462 14.7612 10.2949 15.0861L7.34488 20.9861H5.32388C4.93685 20.987 4.55579 20.8907 4.21565 20.706C3.87552 20.5214 3.58721 20.2542 3.37719 19.9292C3.16716 19.6041 3.04215 19.2314 3.01362 18.8455C2.98508 18.4595 3.05394 18.0725 3.21388 17.7201V17.7161Z" fill="#374957"/>
</g>
<defs>
<clipPath id="clip0_405_1754">
<rect width="24" height="24" fill="white"/>
</clipPath>
</defs>
</svg>
