<svg width="24" height="24" viewBox="0 0 24 24" fill="none" xmlns="http://www.w3.org/2000/svg">
<g clip-path="url(#clip0_405_1526)">
<path d="M16.5 14.0002C16.5 14.3981 16.342 14.7796 16.0607 15.0609C15.7794 15.3422 15.3978 15.5002 15 15.5002H13.5V17.0002C13.5 17.3981 13.342 17.7796 13.0607 18.0609C12.7794 18.3422 12.3978 18.5002 12 18.5002C11.6022 18.5002 11.2206 18.3422 10.9393 18.0609C10.658 17.7796 10.5 17.3981 10.5 17.0002V15.5002H9C8.60218 15.5002 8.22064 15.3422 7.93934 15.0609C7.65804 14.7796 7.5 14.3981 7.5 14.0002C7.5 13.6024 7.65804 13.2209 7.93934 12.9396C8.22064 12.6583 8.60218 12.5002 9 12.5002H10.5V11.0002C10.5 10.6024 10.658 10.2209 10.9393 9.93958C11.2206 9.65828 11.6022 9.50024 12 9.50024C12.3978 9.50024 12.7794 9.65828 13.0607 9.93958C13.342 10.2209 13.5 10.6024 13.5 11.0002V12.5002H15C15.3978 12.5002 15.7794 12.6583 16.0607 12.9396C16.342 13.2209 16.5 13.6024 16.5 14.0002ZM24 8.50024V17.5002C23.9984 18.9584 23.4184 20.3565 22.3873 21.3876C21.3562 22.4187 19.9582 22.9987 18.5 23.0002H5.5C4.0418 22.9987 2.64377 22.4187 1.61267 21.3876C0.581561 20.3565 0.00158817 18.9584 0 17.5002L0 6.50024C0.00158817 5.04204 0.581561 3.64402 1.61267 2.61291C2.64377 1.58181 4.0418 1.00183 5.5 1.00024H8C8.2329 1.0001 8.46263 1.0542 8.671 1.15824L12.354 3.00024H18.5C19.9582 3.00183 21.3562 3.5818 22.3873 4.61291C23.4184 5.64402 23.9984 7.04204 24 8.50024ZM21 8.50024C20.9998 8.33229 20.9828 8.16477 20.949 8.00024H3V17.5002C3 18.1633 3.26339 18.7992 3.73223 19.268C4.20107 19.7369 4.83696 20.0002 5.5 20.0002H18.5C19.163 20.0002 19.7989 19.7369 20.2678 19.268C20.7366 18.7992 21 18.1633 21 17.5002V8.50024Z" fill="#374957"/>
</g>
<defs>
<clipPath id="clip0_405_1526">
<rect width="24" height="24" fill="white"/>
</clipPath>
</defs>
</svg>
