<svg width="24" height="24" viewBox="0 0 24 24" fill="none" xmlns="http://www.w3.org/2000/svg">
<g clip-path="url(#clip0_405_1550)">
<path d="M10 0.99939H1.5C1.10218 0.99939 0.720644 1.15742 0.43934 1.43873C0.158035 1.72003 0 2.10156 0 2.49939C0 2.89721 0.158035 3.27875 0.43934 3.56005C0.720644 3.84135 1.10218 3.99939 1.5 3.99939H2.98V6.99939H1.5C1.10218 6.99939 0.720644 7.15742 0.43934 7.43873C0.158035 7.72003 0 8.10156 0 8.49939C0 8.89721 0.158035 9.27875 0.43934 9.56005C0.720644 9.84135 1.10218 9.99939 1.5 9.99939H19.551C20.1513 10.9545 20.63 11.9807 20.976 13.0544C21.0464 13.2777 21.0629 13.5145 21.0239 13.7454C20.985 13.9762 20.8918 14.1946 20.752 14.3824C20.6125 14.574 20.4295 14.7298 20.2182 14.8371C20.0068 14.9443 19.773 14.9999 19.536 14.9994H1.5C1.10218 14.9994 0.720644 15.1574 0.43934 15.4387C0.158035 15.72 0 16.1016 0 16.4994C0 16.8972 0.158035 17.2787 0.43934 17.56C0.720644 17.8414 1.10218 17.9994 1.5 17.9994H19.536C20.2422 18.0001 20.9387 17.8346 21.5692 17.5163C22.1996 17.198 22.7462 16.7357 23.1649 16.1669C23.5835 15.5981 23.8624 14.9388 23.979 14.2423C24.0956 13.5457 24.0466 12.8315 23.836 12.1574C22.1 6.61239 16.788 0.99939 10 0.99939ZM12 4.22639C13.9055 4.69136 15.656 5.64744 17.077 6.99939H12V4.22639ZM5.98 3.99939H9V6.99939H5.98V3.99939ZM24 21.4994C24 21.8972 23.842 22.2787 23.5607 22.56C23.2794 22.8414 22.8978 22.9994 22.5 22.9994H1.5C1.10218 22.9994 0.720644 22.8414 0.43934 22.56C0.158035 22.2787 0 21.8972 0 21.4994C0 21.1016 0.158035 20.72 0.43934 20.4387C0.720644 20.1574 1.10218 19.9994 1.5 19.9994H22.5C22.8978 19.9994 23.2794 20.1574 23.5607 20.4387C23.842 20.72 24 21.1016 24 21.4994Z" fill="#374957"/>
</g>
<defs>
<clipPath id="clip0_405_1550">
<rect width="24" height="24" fill="white"/>
</clipPath>
</defs>
</svg>
