<svg width="24" height="24" viewBox="0 0 24 24" fill="none" xmlns="http://www.w3.org/2000/svg">
<g clip-path="url(#clip0_405_1471)">
<path d="M0.912167 10.6005L10.2002 16.1695C10.7437 16.4964 11.3659 16.6691 12.0002 16.6691C12.6344 16.6691 13.2567 16.4964 13.8002 16.1695L23.0882 10.6005C23.3638 10.4352 23.592 10.2013 23.7504 9.92155C23.9088 9.64186 23.992 9.3259 23.992 9.00447C23.992 8.68303 23.9088 8.36708 23.7504 8.08738C23.592 7.80768 23.3638 7.57378 23.0882 7.40847L13.8002 1.83147C13.2568 1.50422 12.6345 1.3313 12.0002 1.3313C11.3659 1.3313 10.7435 1.50422 10.2002 1.83147L0.912167 7.40047C0.636503 7.56578 0.408358 7.79969 0.249957 8.07938C0.0915564 8.35908 0.00830078 8.67503 0.00830078 8.99647C0.00830078 9.3179 0.0915564 9.63386 0.249957 9.91355C0.408358 10.1933 0.636503 10.4271 0.912167 10.5925V10.6005ZM11.7432 4.40047C11.8208 4.35394 11.9096 4.32936 12.0002 4.32936C12.0907 4.32936 12.1795 4.35394 12.2572 4.40047L19.9182 9.00047L12.2572 13.6005C12.1795 13.647 12.0907 13.6716 12.0002 13.6716C11.9096 13.6716 11.8208 13.647 11.7432 13.6005L4.08217 9.00047L11.7432 4.40047Z" fill="#374957"/>
<path d="M13.286 18.8309C12.8975 19.0639 12.453 19.187 12 19.187C11.547 19.187 11.1025 19.0639 10.714 18.8309L2.272 13.7659C2.0444 13.6293 1.78461 13.5555 1.51917 13.5521C1.25373 13.5487 0.992141 13.6158 0.761119 13.7466C0.530097 13.8774 0.337915 14.0671 0.204197 14.2964C0.0704792 14.5258 1.51371e-05 14.7865 0 15.0519H0C1.4767e-05 15.3109 0.0670729 15.5654 0.194648 15.7908C0.322222 16.0161 0.505968 16.2046 0.728 16.3379L9.17 21.3999C10.0244 21.9142 11.0028 22.1859 12 22.1859C12.9972 22.1859 13.9756 21.9142 14.83 21.3999L23.272 16.3349C23.4936 16.2019 23.6771 16.0139 23.8046 15.7891C23.9322 15.5643 23.9995 15.3104 24 15.0519C24 14.7865 23.9295 14.5258 23.7958 14.2964C23.6621 14.0671 23.4699 13.8774 23.2389 13.7466C23.0079 13.6158 22.7463 13.5487 22.4808 13.5521C22.2154 13.5555 21.9556 13.6293 21.728 13.7659L13.286 18.8309Z" fill="#374957"/>
</g>
<defs>
<clipPath id="clip0_405_1471">
<rect width="24" height="24" fill="white"/>
</clipPath>
</defs>
</svg>
