<svg width="24" height="24" viewBox="0 0 24 24" fill="none" xmlns="http://www.w3.org/2000/svg">
<g clip-path="url(#clip0_405_1634)">
<path d="M11.9999 23.9991C11.7902 23.9991 11.5827 23.9552 11.3909 23.8701C10.9999 23.6991 1.90894 19.5681 1.90894 11.9991V7.24607C1.90769 6.09135 2.27044 4.96562 2.94563 4.02887C3.62081 3.09212 4.57408 2.39202 5.66994 2.02807L11.5249 0.0760687C11.8334 -0.0259259 12.1665 -0.0259259 12.4749 0.0760687L18.3299 2.02807C19.4257 2.39215 20.3789 3.09229 21.0541 4.02901C21.7292 4.96573 22.092 6.09139 22.0909 7.24607V11.9991C22.0909 20.6171 12.8669 23.7911 12.4749 23.9221C12.3218 23.9733 12.1614 23.9993 11.9999 23.9991ZM11.9999 3.08007L6.61894 4.87407C6.121 5.03991 5.68789 5.35826 5.38098 5.78399C5.07407 6.20972 4.90892 6.72124 4.90894 7.24607V11.9991C4.90894 16.7341 10.3299 19.9511 12.0769 20.8641C13.8339 20.1311 19.0909 17.4811 19.0909 11.9991V7.24607C19.091 6.72124 18.9258 6.20972 18.6189 5.78399C18.312 5.35826 17.8789 5.03991 17.3809 4.87407L11.9999 3.08007Z" fill="#374957"/>
</g>
<defs>
<clipPath id="clip0_405_1634">
<rect width="24" height="24" fill="white"/>
</clipPath>
</defs>
</svg>
