<svg width="24" height="24" viewBox="0 0 24 24" fill="none" xmlns="http://www.w3.org/2000/svg">
<g clip-path="url(#clip0_405_1659)">
<path d="M15 24C13.2491 24.0012 11.5191 23.6193 9.9314 22.8809C8.34374 22.1426 6.93689 21.0658 5.80958 19.726C4.68226 18.3862 3.8618 16.816 3.40575 15.1255C2.94971 13.435 2.86913 11.6651 3.16969 9.94018C3.47024 8.21522 4.14463 6.57694 5.14555 5.14028C6.14647 3.70363 7.44965 2.50342 8.96365 1.62387C10.4777 0.744322 12.1658 0.206751 13.9096 0.0488784C15.6534 -0.108994 17.4107 0.116658 19.058 0.709999C19.5514 0.887023 19.9882 1.19316 20.323 1.59649C20.6578 1.99982 20.8782 2.48558 20.9614 3.00311C21.0445 3.52064 20.9873 4.05101 20.7957 4.5389C20.6041 5.02679 20.2851 5.45435 19.872 5.777C14.772 9.697 14.784 14.316 19.872 18.223C20.2851 18.5458 20.604 18.9735 20.7954 19.4615C20.9869 19.9495 21.0439 20.48 20.9606 20.9975C20.8772 21.5151 20.6565 22.0008 20.3216 22.404C19.9866 22.8072 19.5495 23.1132 19.056 23.29C17.754 23.7548 16.3825 23.9949 15 24ZM15 3C13.6918 2.99855 12.399 3.28233 11.2116 3.83156C10.0243 4.38079 8.97093 5.18227 8.12497 6.18017C7.27901 7.17806 6.66077 8.34839 6.31331 9.60963C5.96585 10.8709 5.89753 12.1927 6.1131 13.483C6.32867 14.7734 6.82296 16.0012 7.56153 17.081C8.3001 18.1608 9.26519 19.0666 10.3896 19.7353C11.514 20.4041 12.7706 20.8196 14.072 20.9531C15.3734 21.0865 16.6883 20.9346 17.925 20.508C11.414 15.443 11.436 8.539 17.925 3.492C16.9825 3.17294 15.995 3.00684 15 3Z" fill="#374957"/>
</g>
<defs>
<clipPath id="clip0_405_1659">
<rect width="24" height="24" fill="white"/>
</clipPath>
</defs>
</svg>
