<svg width="24" height="24" viewBox="0 0 24 24" fill="none" xmlns="http://www.w3.org/2000/svg">
<path d="M11.9999 14.2239C11.6021 14.2239 11.2205 14.0659 10.9392 13.7846C10.6579 13.5033 10.4999 13.1218 10.4999 12.7239V12.5009C10.4858 11.9418 10.6516 11.3929 10.973 10.935C11.2943 10.4772 11.7542 10.1347 12.2849 9.95793C12.5401 9.88153 12.7547 9.70708 12.8816 9.47279C13.0085 9.2385 13.0374 8.96346 12.9619 8.70793C12.9165 8.54832 12.8312 8.40292 12.7139 8.2855C12.5967 8.16808 12.4514 8.08252 12.2919 8.03693C12.1549 7.99794 12.0113 7.98776 11.8701 8.00704C11.729 8.02632 11.5934 8.07463 11.4719 8.14893C11.3566 8.22096 11.2571 8.3156 11.1794 8.42715C11.1017 8.5387 11.0475 8.66483 11.0199 8.79793C10.9805 8.99098 10.9034 9.17437 10.7932 9.33764C10.6829 9.50091 10.5416 9.64087 10.3772 9.74951C10.2128 9.85816 10.0287 9.93336 9.83526 9.97084C9.64183 10.0083 9.44292 10.0073 9.24988 9.96793C9.05684 9.92854 8.87344 9.8515 8.71017 9.74123C8.5469 9.63096 8.40694 9.48961 8.2983 9.32525C8.18966 9.16089 8.11445 8.97674 8.07697 8.78331C8.03949 8.58989 8.04048 8.39097 8.07988 8.19793C8.18853 7.66231 8.4058 7.15463 8.71827 6.70623C9.03073 6.25783 9.43178 5.87822 9.89665 5.59082C10.3615 5.30343 10.8804 5.11435 11.4211 5.03525C11.9619 4.95615 12.5132 4.98872 13.0409 5.13093C13.8517 5.3479 14.5738 5.81445 15.1048 6.46451C15.6358 7.11458 15.9488 7.91522 15.9996 8.75306C16.0504 9.5909 15.8363 10.4235 15.3877 11.1329C14.939 11.8423 14.2786 12.3926 13.4999 12.7059V12.7219C13.5001 12.9191 13.4615 13.1144 13.3863 13.2966C13.311 13.4788 13.2006 13.6444 13.0612 13.7839C12.9219 13.9234 12.7565 14.0341 12.5744 14.1096C12.3922 14.1851 12.197 14.2239 11.9999 14.2239ZM12.5629 23.8919L12.9569 23.7329C15.0779 22.8799 21.9999 19.5219 21.9999 12.1519V7.05193C22.0007 5.94251 21.6515 4.8611 21.0021 3.9616C20.3527 3.0621 19.4362 2.39035 18.3829 2.04193L12.4719 0.0769306C12.1653 -0.0240973 11.8344 -0.0240973 11.5279 0.0769306L5.61688 2.03693C4.56359 2.38535 3.64702 3.0571 2.99763 3.9566C2.34823 4.8561 1.99908 5.93751 1.99988 7.04693V12.1469C1.99988 18.6669 8.85188 22.5979 10.9509 23.6469L11.3309 23.8379C11.521 23.9331 11.7291 23.9868 11.9415 23.9954C12.1539 24.004 12.3657 23.9674 12.5629 23.8879V23.8919ZM17.4389 4.88493C17.8936 5.03506 18.2892 5.32489 18.5695 5.71311C18.8498 6.10132 19.0004 6.5681 18.9999 7.04693V12.1469C18.9999 17.4059 13.9699 20.0469 12.0679 20.8469C10.1429 19.8469 4.99988 16.7469 4.99988 12.1469V7.04693C4.99932 6.5681 5.14992 6.10132 5.43021 5.71311C5.71051 5.32489 6.1062 5.03506 6.56088 4.88493L11.9999 3.08093L17.4389 4.88493ZM11.9999 15.0009C11.7032 15.0009 11.4132 15.0889 11.1665 15.2537C10.9199 15.4185 10.7276 15.6528 10.6141 15.9269C10.5005 16.201 10.4708 16.5026 10.5287 16.7936C10.5866 17.0845 10.7294 17.3518 10.9392 17.5616C11.149 17.7714 11.4163 17.9142 11.7072 17.9721C11.9982 18.03 12.2998 18.0003 12.5739 17.8868C12.848 17.7732 13.0823 17.581 13.2471 17.3343C13.4119 17.0876 13.4999 16.7976 13.4999 16.5009C13.4999 16.1031 13.3418 15.7216 13.0605 15.4403C12.7792 15.159 12.3977 15.0009 11.9999 15.0009Z" fill="#374957"/>
</svg>
