<svg width="24" height="24" viewBox="0 0 24 24" fill="none" xmlns="http://www.w3.org/2000/svg">
<g clip-path="url(#clip0_405_1593)">
<path d="M23.9 11.3942C23.5072 8.37018 21.9778 5.60919 19.6227 3.67215C17.2676 1.73511 14.2633 0.767323 11.2204 0.965433C8.17746 1.16354 5.32407 2.51268 3.23998 4.73874C1.1559 6.96479 -0.00255228 9.90077 6.66622e-06 12.9502C-0.00550667 14.5778 0.325775 16.189 0.973025 17.6824C1.62028 19.1759 2.56949 20.5193 3.76101 21.6282C4.73347 22.5257 6.01277 23.0166 7.33601 23.0002H16.658C18.0507 23.0039 19.3893 22.461 20.386 21.4882C21.7205 20.1978 22.7335 18.6123 23.3439 16.8592C23.9542 15.1061 24.1446 13.2343 23.9 11.3942ZM18.293 19.3382C17.8556 19.7643 17.2686 20.002 16.658 20.0002H7.33601C6.77737 20.0119 6.23476 19.8131 5.81601 19.4432C4.92424 18.6136 4.21372 17.6085 3.72911 16.4911C3.24449 15.3737 2.99626 14.1681 3.00001 12.9502C3.00716 10.5721 3.95761 8.29401 5.64273 6.61601C7.32785 4.93802 9.60992 3.99723 11.988 4.00015C12.3422 4.00034 12.6961 4.02037 13.048 4.06015C15.0298 4.29186 16.8786 5.17498 18.3042 6.57094C19.7298 7.9669 20.6517 9.79668 20.925 11.7732C21.1081 13.152 20.9655 14.5546 20.5086 15.8683C20.0517 17.1821 19.2932 18.3705 18.294 19.3382H18.293ZM9.05301 15.4852C9.3222 15.7781 9.464 16.166 9.44722 16.5634C9.43044 16.9609 9.25644 17.3355 8.96351 17.6047C8.67058 17.8738 8.2827 18.0156 7.88522 17.9989C7.48774 17.9821 7.1132 17.8081 6.84401 17.5152C5.65682 16.2266 4.99845 14.5382 5.00001 12.7862C5.01082 11.0616 5.67473 9.40528 6.85803 8.15074C8.04132 6.89619 9.65607 6.13666 11.377 6.02515C11.7736 5.99253 12.167 6.11881 12.4705 6.3762C12.774 6.63359 12.9629 7.00102 12.9955 7.39765C13.0281 7.79428 12.9019 8.18763 12.6445 8.49116C12.3871 8.79468 12.0196 8.98353 11.623 9.01615C10.6505 9.05904 9.7318 9.47447 9.05729 10.1763C8.38278 10.8782 8.0042 11.8127 8.00001 12.7862C7.99937 13.7862 8.37531 14.7498 9.05301 15.4852ZM18.941 13.6932C18.7572 15.1219 18.1333 16.4579 17.156 17.5162C16.8865 17.8091 16.5118 17.983 16.1141 17.9996C15.7164 18.0162 15.3284 17.8741 15.0355 17.6047C14.7426 17.3352 14.5687 16.9604 14.5521 16.5627C14.5355 16.1651 14.6775 15.7771 14.947 15.4842C15.5049 14.8821 15.8614 14.1212 15.967 13.3072C16.0276 12.9209 16.2366 12.5736 16.5494 12.3392C16.8623 12.1048 17.2543 12.0018 17.642 12.0521C18.0296 12.1024 18.3824 12.3021 18.625 12.6086C18.8676 12.9151 18.981 13.3043 18.941 13.6932ZM13.986 13.1352C13.962 13.5193 13.8276 13.8884 13.599 14.1981C13.3704 14.5078 13.0572 14.7449 12.6972 14.881C12.3371 15.0171 11.9454 15.0465 11.5691 14.9655C11.1928 14.8845 10.8479 14.6966 10.5757 14.4245C10.3035 14.1523 10.1157 13.8073 10.0347 13.431C9.95369 13.0547 9.98302 12.663 10.1191 12.303C10.2553 11.9429 10.4924 11.6298 10.8021 11.4012C11.1118 11.1726 11.4808 11.0382 11.865 11.0142L14.439 8.43915C14.7204 8.15776 15.1021 7.99967 15.5 7.99967C15.898 7.99967 16.2796 8.15776 16.561 8.43915C16.8424 8.72055 17.0005 9.1022 17.0005 9.50015C17.0005 9.8981 16.8424 10.2798 16.561 10.5612L13.986 13.1352Z" fill="#374957"/>
</g>
<defs>
<clipPath id="clip0_405_1593">
<rect width="24" height="24" fill="white"/>
</clipPath>
</defs>
</svg>
