<svg width="24" height="24" viewBox="0 0 24 24" fill="none" xmlns="http://www.w3.org/2000/svg">
<g clip-path="url(#clip0_405_1579)">
<path d="M22.682 4.33268L19.667 1.31867C18.8253 0.471308 17.6793 -0.00372335 16.485 -0.000348349H4.5C2.01586 0.00241728 0.00276563 2.01551 0 4.49965V19.4997C0.00276563 21.9838 2.01586 23.9969 4.5 23.9997H19.5C21.9841 23.9969 23.9972 21.9838 24 19.4997V7.51465C24.0034 6.32051 23.5288 5.17465 22.682 4.33268ZM21 19.4997C21 20.3281 20.3284 20.9997 19.5 20.9997H4.5C3.67158 20.9997 3 20.3281 3 19.4997V4.49965C3 3.67123 3.67158 2.99965 4.5 2.99965H6C6 5.20878 7.79086 6.99964 9.99998 6.99964H13C15.1698 6.99532 16.9405 5.26189 16.991 3.09265C17.1991 3.16531 17.3884 3.28348 17.545 3.43864L20.561 6.45462C20.8429 6.73521 21.001 7.11687 21 7.5146V19.4997H21Z" fill="#374957"/>
<path d="M12 18C14.2091 18 16 16.2091 16 14C16 11.7909 14.2091 10 12 10C9.79085 10 8 11.7909 8 14C8 16.2091 9.79085 18 12 18Z" fill="#374957"/>
</g>
<defs>
<clipPath id="clip0_405_1579">
<rect width="24" height="24" fill="white"/>
</clipPath>
</defs>
</svg>
