<svg width="24" height="24" viewBox="0 0 24 24" fill="none" xmlns="http://www.w3.org/2000/svg">
<g clip-path="url(#clip0_405_1674)">
<path d="M12.9999 0C6.93487 0 1.99987 4.037 1.99987 9C2.00265 9.37551 2.03407 9.75027 2.09387 10.121C2.07587 10.138 2.05487 10.149 2.03687 10.167C1.38528 10.8206 0.980347 11.6798 0.891006 12.5984C0.801665 13.517 1.03344 14.4381 1.54687 15.205C0.512388 16.3929 -0.0395469 17.9253 -0.000131267 19.5C-0.0176984 20.0957 0.0866871 20.6887 0.306616 21.2426C0.526544 21.7966 0.857374 22.2997 1.27879 22.7211C1.70021 23.1425 2.20332 23.4733 2.75723 23.6933C3.31114 23.9132 3.90415 24.0176 4.49987 24C4.89331 23.9997 5.27069 23.8439 5.54964 23.5664C5.8286 23.289 5.98649 22.9124 5.98887 22.519C5.99187 22.1235 5.83936 21.7426 5.56421 21.4585C5.28905 21.1743 4.91328 21.0097 4.51787 21C4.31478 21.0217 4.10941 20.9979 3.91662 20.9304C3.72384 20.863 3.54846 20.7535 3.40318 20.61C3.2579 20.4664 3.14635 20.2923 3.07659 20.1004C3.00684 19.9084 2.98063 19.7033 2.99987 19.5C2.97825 18.9785 3.07726 18.459 3.28922 17.9821C3.50117 17.5051 3.82033 17.0835 4.22187 16.75C5.29454 16.9395 6.38268 17.0276 7.47187 17.013C7.63987 17.013 7.79687 17.003 7.96387 17C9.56008 17.6625 11.2717 18.0023 12.9999 18C19.0649 18 23.9999 13.963 23.9999 9C23.9999 4.037 19.0649 0 12.9999 0ZM12.9999 15C12.0754 14.9975 11.1555 14.8707 10.2649 14.623C9.61145 13.0255 8.73983 11.5262 7.67487 10.168C6.9618 9.4583 6.00546 9.04645 4.99987 9.016V9C4.99987 5.691 8.58887 3 12.9999 3C17.4109 3 20.9999 5.691 20.9999 9C20.9999 12.309 17.4109 15 12.9999 15Z" fill="#374957"/>
</g>
<defs>
<clipPath id="clip0_405_1674">
<rect width="24" height="24" fill="white"/>
</clipPath>
</defs>
</svg>
