<svg width="24" height="24" viewBox="0 0 24 24" fill="none" xmlns="http://www.w3.org/2000/svg">
<g clip-path="url(#clip0_405_1605)">
<path d="M18.0001 13.4999V7.57093C18.0035 6.71662 17.8373 5.87013 17.5111 5.08051C17.185 4.2909 16.7054 3.57385 16.1001 2.97093L15.0251 1.89993C14.4222 1.29467 13.7052 0.815067 12.9155 0.488922C12.1259 0.162777 11.2794 -0.0034315 10.4251 -7.21461e-05H7.50012C6.04192 0.00151602 4.64389 0.581489 3.61279 1.61259C2.58168 2.6437 2.00171 4.04173 2.00012 5.49993V13.4999C2.00171 14.9581 2.58168 16.3562 3.61279 17.3873C4.64389 18.4184 6.04192 18.9983 7.50012 18.9999H12.5001C13.9583 18.9983 15.3563 18.4184 16.3875 17.3873C17.4186 16.3562 17.9985 14.9581 18.0001 13.4999ZM5.00012 13.4999V5.49993C5.00012 4.83689 5.26351 4.201 5.73236 3.73216C6.2012 3.26332 6.83708 2.99993 7.50012 2.99993H10.4291C10.6207 3.00294 10.8116 3.02167 11.0001 3.05593V4.99993C11.0001 5.53036 11.2108 6.03907 11.5859 6.41414C11.961 6.78922 12.4697 6.99993 13.0001 6.99993H14.9441C14.9784 7.18841 14.9971 7.37938 15.0001 7.57093V13.4999C15.0001 14.163 14.7367 14.7989 14.2679 15.2677C13.799 15.7365 13.1632 15.9999 12.5001 15.9999H7.50012C6.83708 15.9999 6.2012 15.7365 5.73236 15.2677C5.26351 14.7989 5.00012 14.163 5.00012 13.4999ZM23.0001 8.49993V18.4999C22.9985 19.9581 22.4186 21.3562 21.3875 22.3873C20.3563 23.4184 18.9583 23.9983 17.5001 23.9999H9.50012C9.1023 23.9999 8.72077 23.8419 8.43946 23.5606C8.15816 23.2793 8.00012 22.8978 8.00012 22.4999C8.00012 22.1021 8.15816 21.7206 8.43946 21.4393C8.72077 21.158 9.1023 20.9999 9.50012 20.9999H17.5001C18.1632 20.9999 18.799 20.7365 19.2679 20.2677C19.7367 19.7989 20.0001 19.163 20.0001 18.4999V8.49993C20.0001 8.1021 20.1582 7.72057 20.4395 7.43927C20.7208 7.15796 21.1023 6.99993 21.5001 6.99993C21.8979 6.99993 22.2795 7.15796 22.5608 7.43927C22.8421 7.72057 23.0001 8.1021 23.0001 8.49993Z" fill="#374957"/>
</g>
<defs>
<clipPath id="clip0_405_1605">
<rect width="24" height="24" fill="white"/>
</clipPath>
</defs>
</svg>
