<svg width="24" height="24" viewBox="0 0 24 24" fill="none" xmlns="http://www.w3.org/2000/svg">
<path d="M20.463 7.7128L11.363 1.0358C10.5707 0.454282 9.63269 0.103747 8.65319 0.0231148C7.6737 -0.0575172 6.69102 0.13491 5.81429 0.579028C4.93755 1.02315 4.20106 1.70158 3.68661 2.53898C3.17215 3.37638 2.89986 4.33999 2.89997 5.3228V18.6768C2.89807 19.66 3.16914 20.6244 3.68298 21.4627C4.19683 22.3009 4.93328 22.9801 5.81031 23.4245C6.68734 23.869 7.67053 24.0612 8.65037 23.9799C9.63021 23.8985 10.5682 23.5468 11.36 22.9638L20.465 16.2868C21.1385 15.7932 21.6863 15.1478 22.0638 14.403C22.4414 13.6582 22.6382 12.8349 22.6382 11.9998C22.6382 11.1647 22.4414 10.3414 22.0638 9.59661C21.6863 8.85179 21.1385 8.20641 20.465 7.7128H20.463ZM18.689 13.8678L9.58897 20.5448C9.24372 20.7985 8.83488 20.9515 8.40789 20.9868C7.98091 21.0221 7.55249 20.9383 7.17026 20.7448C6.78802 20.5512 6.46694 20.2555 6.24269 19.8904C6.01844 19.5253 5.89981 19.1052 5.89997 18.6768V5.3228C5.89539 4.89373 6.01218 4.47211 6.23689 4.10656C6.4616 3.74101 6.78506 3.44643 7.16997 3.2568C7.49586 3.08947 7.85664 3.00142 8.22297 2.9998C8.7139 3.00222 9.19117 3.16166 9.58497 3.4548L18.685 10.1318C18.9784 10.3469 19.2171 10.6281 19.3816 10.9527C19.5461 11.2772 19.6319 11.6359 19.6319 11.9998C19.6319 12.3637 19.5461 12.7224 19.3816 13.0469C19.2171 13.3715 18.9784 13.6527 18.685 13.8678H18.689Z" fill="#374957"/>
</svg>
