<svg width="24" height="24" viewBox="0 0 24 24" fill="none" xmlns="http://www.w3.org/2000/svg">
<g clip-path="url(#clip0_405_1538)">
<path d="M20.8128 7.084V7.076C19.7842 5.25117 18.2171 3.78853 16.3258 2.888C16.0868 2.05727 15.5845 1.32659 14.8945 0.805797C14.2046 0.285001 13.3642 0.00223264 12.4998 0L11.4998 0C10.6359 0.00288112 9.79621 0.285948 9.10687 0.806696C8.41753 1.32744 7.91573 2.05777 7.67681 2.888C5.78589 3.78775 4.22138 5.25301 3.19981 7.081C2.38161 7.24661 1.63599 7.66475 1.06797 8.2765C0.499962 8.88825 0.138186 9.66279 0.0336098 10.491C-0.0709662 11.3192 0.086928 12.1594 0.48505 12.8931C0.883172 13.6269 1.50146 14.2172 2.25281 14.581C2.61224 15.9405 3.25717 17.2078 4.14466 18.2986C5.03214 19.3894 6.14182 20.2786 7.39981 20.907L7.06281 22.088C7.0042 22.2787 6.98421 22.4792 7.00402 22.6777C7.02383 22.8762 7.08304 23.0687 7.17818 23.2441C7.27332 23.4194 7.40249 23.574 7.55812 23.6989C7.71374 23.8237 7.8927 23.9162 8.08452 23.971C8.27634 24.0258 8.47717 24.0418 8.67525 24.018C8.87332 23.9943 9.06467 23.9313 9.23809 23.8326C9.41151 23.734 9.56351 23.6018 9.6852 23.4437C9.8069 23.2856 9.89583 23.1049 9.94681 22.912L10.2468 21.851C10.8259 21.9498 11.4123 21.9996 11.9998 22C12.5874 21.9996 13.1738 21.949 13.7528 21.849L14.0528 22.912C14.1038 23.1049 14.1927 23.2856 14.3144 23.4437C14.4361 23.6018 14.5881 23.734 14.7615 23.8326C14.9349 23.9313 15.1263 23.9943 15.3244 24.018C15.5225 24.0418 15.7233 24.0258 15.9151 23.971C16.1069 23.9162 16.2859 23.8237 16.4415 23.6989C16.5971 23.574 16.7263 23.4194 16.8214 23.2441C16.9166 23.0687 16.9758 22.8762 16.9956 22.6777C17.0154 22.4792 16.9954 22.2787 16.9368 22.088L16.5998 20.9C17.8572 20.2705 18.9666 19.3813 19.8548 18.2911C20.7429 17.201 21.3895 15.9347 21.7518 14.576C22.501 14.2117 23.1173 13.6219 23.5142 12.8895C23.9111 12.157 24.0686 11.3187 23.9647 10.4921C23.8608 9.66552 23.5006 8.89225 22.9348 8.28083C22.369 7.6694 21.6259 7.25053 20.8098 7.083L20.8128 7.084ZM19.9998 12H18.9998C18.7346 12 18.4802 11.8946 18.2927 11.7071C18.1052 11.5196 17.9998 11.2652 17.9998 11C17.9998 10.7348 18.1052 10.4804 18.2927 10.2929C18.4802 10.1054 18.7346 10 18.9998 10H19.9998C20.265 10 20.5194 10.1054 20.7069 10.2929C20.8945 10.4804 20.9998 10.7348 20.9998 11C20.9998 11.2652 20.8945 11.5196 20.7069 11.7071C20.5194 11.8946 20.265 12 19.9998 12ZM11.4998 3H12.4998C12.765 3 13.0194 3.10536 13.2069 3.29289C13.3945 3.48043 13.4998 3.73478 13.4998 4C13.4998 4.26522 13.3945 4.51957 13.2069 4.70711C13.0194 4.89464 12.765 5 12.4998 5H11.4998C11.2346 5 10.9802 4.89464 10.7927 4.70711C10.6052 4.51957 10.4998 4.26522 10.4998 4C10.4998 3.73478 10.6052 3.48043 10.7927 3.29289C10.9802 3.10536 11.2346 3 11.4998 3ZM4.99981 12H3.99981C3.73459 12 3.48024 11.8946 3.2927 11.7071C3.10517 11.5196 2.99981 11.2652 2.99981 11C2.99981 10.7348 3.10517 10.4804 3.2927 10.2929C3.48024 10.1054 3.73459 10 3.99981 10H4.99981C5.26503 10 5.51938 10.1054 5.70692 10.2929C5.89445 10.4804 5.99981 10.7348 5.99981 11C5.99981 11.2652 5.89445 11.5196 5.70692 11.7071C5.51938 11.8946 5.26503 12 4.99981 12ZM11.9998 19C11.6928 18.994 11.3866 18.9686 11.0828 18.924L11.9998 15.717L12.9198 18.935C12.6149 18.9764 12.3076 18.9981 11.9998 19ZM15.7568 17.943L14.6358 14.024C14.4814 13.4454 14.1409 12.9336 13.6668 12.5678C13.1927 12.2019 12.6114 12.0021 12.0125 11.9994C11.4136 11.9967 10.8305 12.1911 10.3531 12.5526C9.87567 12.9142 9.53049 13.4228 9.37081 14L8.24581 17.933C7.07471 17.2245 6.14079 16.1837 5.56281 14.943C6.41854 14.8256 7.21288 14.4331 7.82604 13.8247C8.43919 13.2164 8.83792 12.4251 8.96208 11.5704C9.08624 10.7156 8.92909 9.84362 8.51435 9.08596C8.09961 8.3283 7.44976 7.72604 6.66281 7.37C7.08353 6.88015 7.56899 6.44986 8.10581 6.091C8.4612 6.67276 8.95979 7.1537 9.55397 7.48791C10.1482 7.82212 10.8181 7.99842 11.4998 8H12.4998C13.1836 7.9984 13.8555 7.82095 14.4509 7.48471C15.0464 7.14847 15.5453 6.66474 15.8998 6.08C16.4375 6.44241 16.9236 6.87602 17.3448 7.369C16.557 7.72455 15.9062 8.3268 15.4908 9.08479C15.0754 9.84279 14.9179 10.7154 15.0421 11.5708C15.1663 12.4261 15.5655 13.2179 16.1794 13.8264C16.7932 14.4349 17.5884 14.8272 18.4448 14.944C17.8637 16.1866 16.9286 17.2298 15.7568 17.943Z" fill="#374957"/>
</g>
<defs>
<clipPath id="clip0_405_1538">
<rect width="24" height="24" fill="white"/>
</clipPath>
</defs>
</svg>
