<svg width="24" height="24" viewBox="0 0 24 24" fill="none" xmlns="http://www.w3.org/2000/svg">
<g clip-path="url(#clip0_405_1649)">
<path d="M23.258 4.94715C22.1295 3.59936 20.695 2.5411 19.0742 1.86074C17.4534 1.18037 15.6933 0.897638 13.941 1.03615C13.7512 0.830755 13.5357 0.650612 13.3 0.500154C12.8909 0.247081 12.432 0.085252 11.9546 0.0257125C11.4773 -0.0338271 10.9927 0.0103246 10.534 0.155154C8.5159 0.782194 6.64499 1.80977 5.03314 3.17643C3.42129 4.5431 2.10159 6.22078 1.15298 8.10915C0.748142 8.9097 0.411614 9.74299 0.146978 10.6002C0.0059718 11.055 -0.0354845 11.5348 0.0254257 12.0071C0.0863358 12.4794 0.248185 12.933 0.499978 13.3372C0.654033 13.5776 0.839318 13.7965 1.05098 13.9882C0.918981 15.7324 1.20453 17.483 1.88398 19.095C2.56342 20.7069 3.61719 22.1337 4.95798 23.2572C5.32798 23.5661 5.76298 23.7874 6.23051 23.9046C6.69804 24.0218 7.186 24.0319 7.65798 23.9342C8.14797 23.8362 8.60944 23.6286 9.00777 23.3269C9.4061 23.0253 9.73096 22.6373 9.95798 22.1922L13.168 15.9172C13.8081 15.6978 14.3897 15.3351 14.8683 14.8567C15.347 14.3784 15.7101 13.7971 15.93 13.1572L22.187 9.94815C22.6319 9.72102 23.0197 9.39611 23.3212 8.99779C23.6227 8.59946 23.8302 8.13806 23.928 7.64815C24.0269 7.17655 24.018 6.6887 23.902 6.22101C23.7859 5.75332 23.5658 5.31787 23.258 4.94715ZM3.01498 11.4842C3.62675 9.4959 4.71288 7.68625 6.17973 6.21121C7.64659 4.73617 9.45016 3.63998 11.435 3.01715C11.4815 3.00216 11.5307 2.99718 11.5793 3.00252C11.6279 3.00786 11.6748 3.02341 11.717 3.04815C11.7527 3.06931 11.7831 3.09831 11.806 3.13296C11.8289 3.16761 11.8436 3.207 11.849 3.24815L13.165 11.4482C13.2005 11.6816 13.1808 11.9201 13.1074 12.1445C13.034 12.3689 12.909 12.573 12.7424 12.7403C12.5758 12.9076 12.3722 13.0335 12.1481 13.1078C11.924 13.1821 11.6855 13.2028 11.452 13.1682L3.25198 11.8862C3.21066 11.8797 3.1713 11.8641 3.13672 11.8406C3.10214 11.8171 3.0732 11.7862 3.05198 11.7502C3.02613 11.7115 3.00937 11.6675 3.00296 11.6214C2.99655 11.5753 3.00066 11.5284 3.01498 11.4842ZM7.29298 20.8252C7.27064 20.8683 7.23892 20.9058 7.20016 20.9351C7.16139 20.9643 7.11657 20.9845 7.06898 20.9942C7.03783 21.003 7.005 21.0042 6.97329 20.9976C6.94159 20.991 6.91197 20.9768 6.88698 20.9562C6.01838 20.2305 5.31504 19.3275 4.82417 18.3076C4.33331 17.2878 4.06627 16.1747 4.04098 15.0432L9.79098 15.9432L7.29298 20.8252ZM20.824 7.27915L15.936 9.78515L15.011 4.01715C16.1485 4.03863 17.2682 4.30452 18.2939 4.79678C19.3197 5.28903 20.2276 5.99615 20.956 6.87015C20.9767 6.89526 20.991 6.92505 20.9977 6.95694C21.0043 6.98884 21.003 7.02186 20.994 7.05315C20.9844 7.10115 20.9641 7.14637 20.9347 7.18548C20.9052 7.2246 20.8674 7.25661 20.824 7.27915Z" fill="#374957"/>
</g>
<defs>
<clipPath id="clip0_405_1649">
<rect width="24" height="24" fill="white"/>
</clipPath>
</defs>
</svg>
