<svg width="24" height="24" viewBox="0 0 24 24" fill="none" xmlns="http://www.w3.org/2000/svg">
<g clip-path="url(#clip0_405_1447)">
<path d="M23.99 8C23.99 7.73478 23.8846 7.48043 23.6971 7.29289C23.5095 7.10536 23.2552 7 22.99 7H18.421C18.2232 7.00004 18.0299 7.05871 17.8655 7.1686C17.7011 7.27848 17.5729 7.43465 17.4973 7.61735C17.4216 7.80005 17.4018 8.00108 17.4404 8.19503C17.4789 8.38898 17.5741 8.56715 17.714 8.707L18.943 9.936L16.905 11.974C15.8831 11.3378 14.7036 11.0004 13.5 11C13.319 11 13.141 11.013 12.964 11.028C12.979 10.852 13 10.679 13 10.5C12.9986 9.29803 12.6612 8.12038 12.026 7.1L14.064 5.062L15.293 6.291C15.4332 6.43124 15.612 6.5266 15.8066 6.56494C16.0013 6.60329 16.2029 6.5829 16.3859 6.50636C16.5688 6.42982 16.7249 6.30059 16.8343 6.1351C16.9436 5.96961 17.0013 5.77535 17 5.577L16.99 1C16.99 0.734784 16.8846 0.48043 16.6971 0.292893C16.5095 0.105357 16.2552 0 15.99 0L11.421 0C11.2232 4.22243e-05 11.0299 0.0587141 10.8655 0.168598C10.7011 0.278483 10.5729 0.434646 10.4973 0.617346C10.4216 0.800045 10.4018 1.00108 10.4404 1.19503C10.4789 1.38898 10.5741 1.56715 10.714 1.707L11.943 2.936L9.89995 4.974C9.04431 4.44408 8.0773 4.12009 7.07511 4.02757C6.07293 3.93504 5.06294 4.0765 4.12474 4.4408C3.18654 4.80511 2.34575 5.3823 1.66862 6.1269C0.991493 6.87151 0.496523 7.76318 0.222712 8.73167C-0.0510997 9.70016 -0.0962721 10.719 0.0907534 11.7079C0.277779 12.6968 0.691893 13.6288 1.30047 14.4304C1.90904 15.232 2.69545 15.8814 3.59773 16.3273C4.50001 16.7732 5.49351 17.0035 6.49995 17C6.68295 17 6.85995 16.978 7.03995 16.963C7.02495 17.142 6.99995 17.318 6.99995 17.5C6.99648 18.5064 7.22677 19.4999 7.67268 20.4022C8.11858 21.3045 8.76792 22.0909 9.56953 22.6995C10.3711 23.3081 11.3031 23.7222 12.292 23.9092C13.281 24.0962 14.2998 24.0511 15.2683 23.7772C16.2368 23.5034 17.1284 23.0085 17.873 22.3313C18.6177 21.6542 19.1948 20.8134 19.5591 19.8752C19.9235 18.937 20.0649 17.927 19.9724 16.9248C19.8799 15.9227 19.5559 14.9556 19.026 14.1L21.064 12.062L22.293 13.291C22.4332 13.4312 22.612 13.5266 22.8066 13.5649C23.0013 13.6033 23.2029 13.5829 23.3859 13.5064C23.5688 13.4298 23.7249 13.3006 23.8343 13.1351C23.9436 12.9696 24.0013 12.7753 24 12.577L23.99 8ZM2.99995 10.5C2.99995 9.80777 3.20522 9.13108 3.58981 8.5555C3.97439 7.97993 4.52102 7.53133 5.16056 7.26642C5.8001 7.00152 6.50383 6.9322 7.18277 7.06725C7.8617 7.2023 8.48534 7.53564 8.97482 8.02513C9.46431 8.51461 9.79765 9.13825 9.9327 9.81718C10.0677 10.4961 9.99844 11.1999 9.73353 11.8394C9.46862 12.4789 9.02002 13.0256 8.44445 13.4101C7.86888 13.7947 7.19219 14 6.49995 14C5.57169 14 4.68145 13.6313 4.02508 12.9749C3.3687 12.3185 2.99995 11.4283 2.99995 10.5ZM13.5 21C12.8077 21 12.131 20.7947 11.5555 20.4101C10.9799 20.0256 10.5313 19.4789 10.2664 18.8394C10.0015 18.1999 9.93215 17.4961 10.0672 16.8172C10.2023 16.1383 10.5356 15.5146 11.0251 15.0251C11.5146 14.5356 12.1382 14.2023 12.8171 14.0673C13.4961 13.9322 14.1998 14.0015 14.8393 14.2664C15.4789 14.5313 16.0255 14.9799 16.4101 15.5555C16.7947 16.1311 17 16.8078 17 17.5C17 18.4283 16.6312 19.3185 15.9748 19.9749C15.3184 20.6313 14.4282 21 13.5 21Z" fill="#374957"/>
</g>
<defs>
<clipPath id="clip0_405_1447">
<rect width="24" height="24" fill="white"/>
</clipPath>
</defs>
</svg>
