<svg width="24" height="24" viewBox="0 0 24 24" fill="none" xmlns="http://www.w3.org/2000/svg">
<g clip-path="url(#clip0_405_1491)">
<path d="M22.9747 8.69514L15.8887 1.60916C13.7393 -0.534759 10.2602 -0.534759 8.11074 1.60916L1.02475 8.69514C0.366254 9.35013 -0.00283936 10.2413 -0.000261242 11.1701V21.5481C0.00194188 22.9027 1.10013 24 2.45477 24.0011H21.5447C22.8993 24 23.9975 22.9027 23.9997 21.5481V11.1701C24.0023 10.2413 23.6332 9.35013 22.9747 8.69514ZM20.9997 21.0011H15.9997V17.8191C15.9997 15.7105 14.2903 14.0011 12.1817 14.0011H11.8177C9.70913 14.0011 7.99974 15.7105 7.99974 17.8191V21.0011H2.99973V11.1701C3.00006 11.0375 3.05247 10.9104 3.14575 10.8161L10.2317 3.73015C11.2079 2.7537 12.7908 2.75352 13.7673 3.72969C13.7674 3.72983 13.7676 3.73001 13.7677 3.73015L20.8537 10.8161C20.947 10.9104 20.9994 11.0375 20.9997 11.1701V21.0011H20.9997Z" fill="#374957"/>
</g>
<defs>
<clipPath id="clip0_405_1491">
<rect width="24" height="24" fill="white"/>
</clipPath>
</defs>
</svg>
