<svg width="24" height="24" viewBox="0 0 24 24" fill="none" xmlns="http://www.w3.org/2000/svg">
<g clip-path="url(#clip0_405_1449)">
<path d="M19.78 3.23809C18.7607 2.212 17.5485 1.39766 16.2132 0.841965C14.8778 0.286267 13.4458 0.000183105 11.9995 0.000183105C10.5532 0.000183105 9.12111 0.286267 7.7858 0.841965C6.45049 1.39766 5.23829 2.212 4.21898 3.23809C2.15577 5.3237 1.00212 8.14127 1.01017 11.075C1.01823 14.0086 2.18735 16.8198 4.26198 18.8941L7.99998 22.3601C9.06228 23.4059 10.4916 23.9946 11.9824 24.0002C13.4731 24.0058 14.9068 23.4279 15.977 22.3901L19.784 18.8531C21.8416 16.7753 22.9955 13.969 22.9948 11.0448C22.994 8.12053 21.8386 5.31487 19.78 3.23809ZM17.7 16.7001L13.9 20.2251C13.3824 20.7186 12.6931 20.9915 11.9779 20.9859C11.2627 20.9803 10.5778 20.6967 10.068 20.1951L6.34598 16.7371C4.84502 15.2231 4.00287 13.1775 4.00287 11.0456C4.00287 8.91368 4.84502 6.86808 6.34598 5.35409C7.08644 4.60816 7.96719 4.01614 8.93749 3.61213C9.90778 3.20813 10.9484 3.00014 11.9995 3.00014C13.0505 3.00014 14.0912 3.20813 15.0615 3.61213C16.0318 4.01614 16.9125 4.60816 17.653 5.35409C19.1514 6.85903 19.9966 8.89375 20.0054 11.0174C20.0142 13.1411 19.1859 15.1828 17.7 16.7001ZM15.565 14.5651C15.4257 14.7045 15.2603 14.8151 15.0782 14.8905C14.8962 14.9659 14.701 15.0048 14.504 15.0048C14.3069 15.0048 14.1118 14.9659 13.9297 14.8905C13.7477 14.8151 13.5823 14.7045 13.443 14.5651L10.943 12.0651C10.8025 11.9256 10.691 11.7597 10.615 11.5769C10.539 11.3941 10.4999 11.1981 10.5 11.0001V7.50009C10.5 7.10226 10.658 6.72073 10.9393 6.43943C11.2206 6.15812 11.6022 6.00009 12 6.00009C12.3978 6.00009 12.7793 6.15812 13.0606 6.43943C13.3419 6.72073 13.5 7.10226 13.5 7.50009V10.3791L15.561 12.4391C15.7004 12.5784 15.8109 12.7438 15.8864 12.9258C15.9618 13.1079 16.0007 13.303 16.0007 13.5001C16.0007 13.6972 15.9618 13.8923 15.8864 14.0743C15.8109 14.2564 15.7004 14.4218 15.561 14.5611L15.565 14.5651Z" fill="#374957"/>
</g>
<defs>
<clipPath id="clip0_405_1449">
<rect width="24" height="24" fill="white"/>
</clipPath>
</defs>
</svg>
