<svg width="24" height="24" viewBox="0 0 24 24" fill="none" xmlns="http://www.w3.org/2000/svg">
<g clip-path="url(#clip0_405_1430)">
<path d="M20.5 7.00026H16.5C15.5717 7.00026 14.6815 7.36901 14.0251 8.02539C13.3687 8.68177 13 9.572 13 10.5003V15.0003H11V11.5003C10.9979 10.392 10.6615 9.31017 10.0348 8.39617C9.408 7.48217 8.52005 6.77854 7.487 6.37726C8.10152 5.95347 8.56446 5.34431 8.80818 4.63874C9.05191 3.93317 9.06367 3.16815 8.84174 2.45542C8.61982 1.74269 8.17583 1.11959 7.57462 0.677114C6.97341 0.234638 6.24648 -0.00402832 5.5 -0.00402832C4.75352 -0.00402832 4.02659 0.234638 3.42538 0.677114C2.82417 1.11959 2.38018 1.74269 2.15826 2.45542C1.93633 3.16815 1.94809 3.93317 2.19182 4.63874C2.43555 5.34431 2.89848 5.95347 3.513 6.37726C2.47995 6.77854 1.592 7.48217 0.965244 8.39617C0.338486 9.31017 0.00207836 10.392 0 11.5003L0 22.5003C0 22.8981 0.158035 23.2796 0.43934 23.5609C0.720644 23.8422 1.10218 24.0003 1.5 24.0003C1.89782 24.0003 2.27936 23.8422 2.56066 23.5609C2.84196 23.2796 3 22.8981 3 22.5003V18.0003H21V22.5003C21 22.8981 21.158 23.2796 21.4393 23.5609C21.7206 23.8422 22.1022 24.0003 22.5 24.0003C22.8978 24.0003 23.2794 23.8422 23.5607 23.5609C23.842 23.2796 24 22.8981 24 22.5003V10.5003C24 9.572 23.6313 8.68177 22.9749 8.02539C22.3185 7.36901 21.4283 7.00026 20.5 7.00026ZM5.5 9.00026C6.16304 9.00026 6.79893 9.26365 7.26777 9.7325C7.73661 10.2013 8 10.8372 8 11.5003V15.0003H3V11.5003C3 10.8372 3.26339 10.2013 3.73223 9.7325C4.20107 9.26365 4.83696 9.00026 5.5 9.00026ZM16 15.0003V10.5003C16 10.3677 16.0527 10.2405 16.1464 10.1467C16.2402 10.0529 16.3674 10.0003 16.5 10.0003H17V10.5003C17 10.8981 17.158 11.2796 17.4393 11.5609C17.7206 11.8422 18.1022 12.0003 18.5 12.0003C18.8978 12.0003 19.2794 11.8422 19.5607 11.5609C19.842 11.2796 20 10.8981 20 10.5003V10.0003H20.5C20.6326 10.0003 20.7598 10.0529 20.8536 10.1467C20.9473 10.2405 21 10.3677 21 10.5003V15.0003H16Z" fill="#374957"/>
</g>
<defs>
<clipPath id="clip0_405_1430">
<rect width="24" height="24" fill="white"/>
</clipPath>
</defs>
</svg>
