<svg width="24" height="24" viewBox="0 0 24 24" fill="none" xmlns="http://www.w3.org/2000/svg">
<g clip-path="url(#clip0_405_1553)">
<path d="M7.6999 15.0077C7.41861 15.2889 7.03715 15.4469 6.63941 15.4469C6.24166 15.4469 5.8602 15.2889 5.5789 15.0077L0.857904 10.2827C0.308498 9.73289 -0.00012207 8.98744 -0.00012207 8.21019C-0.00012207 7.43294 0.308498 6.68749 0.857904 6.13769L5.5829 1.4127C5.86832 1.15329 6.24269 1.0138 6.62826 1.02318C7.01383 1.03256 7.38097 1.1901 7.65343 1.46308C7.9259 1.73605 8.08274 2.10349 8.09139 2.48908C8.10005 2.87466 7.95985 3.24877 7.6999 3.53369L4.4669 6.70069H18.6799C20.0903 6.70201 21.4425 7.2628 22.4399 8.25999C23.4373 9.25718 23.9983 10.6093 23.9999 12.0197V18.7007C23.9986 20.1107 23.4379 21.4626 22.4408 22.4596C21.4438 23.4566 20.0919 24.0173 18.6819 24.0187H5.3179C4.92008 24.0187 4.53855 23.8606 4.25724 23.5793C3.97594 23.298 3.8179 22.9165 3.8179 22.5187C3.8179 22.1208 3.97594 21.7393 4.25724 21.458C4.53855 21.1767 4.92008 21.0187 5.3179 21.0187H18.6809C19.2956 21.0181 19.885 20.7738 20.3197 20.3392C20.7545 19.9047 20.9991 19.3154 20.9999 18.7007V12.0197C20.9994 11.4046 20.7547 10.8149 20.3197 10.3801C19.8848 9.94533 19.295 9.70095 18.6799 9.70069H4.5219L7.6999 12.8867C7.98111 13.168 8.13908 13.5494 8.13908 13.9472C8.13908 14.3449 7.98111 14.7264 7.6999 15.0077Z" fill="#374957"/>
</g>
<defs>
<clipPath id="clip0_405_1553">
<rect width="24" height="24" fill="white"/>
</clipPath>
</defs>
</svg>
