<svg width="24" height="24" viewBox="0 0 24 24" fill="none" xmlns="http://www.w3.org/2000/svg">
<g clip-path="url(#clip0_405_1738)">
<path d="M6.99994 24.0006C8.1045 24.0006 8.99993 23.1052 8.99993 22.0006C8.99993 20.896 8.1045 20.0006 6.99994 20.0006C5.89537 20.0006 4.99994 20.896 4.99994 22.0006C4.99994 23.1052 5.89537 24.0006 6.99994 24.0006Z" fill="#374957"/>
<path d="M17 24.0006C18.1046 24.0006 19 23.1052 19 22.0006C19 20.896 18.1046 20.0006 17 20.0006C15.8954 20.0006 15 20.896 15 22.0006C15 23.1052 15.8954 24.0006 17 24.0006Z" fill="#374957"/>
<path d="M19.75 13.163C19.6048 13.6908 19.2904 14.1564 18.855 14.4883C18.4197 14.8201 17.8874 14.9999 17.34 15H7.217C7.13523 14.9993 7.05665 14.9682 6.99657 14.9128C6.93648 14.8573 6.89921 14.7815 6.892 14.7L6.036 8H9.5C9.89782 8 10.2794 7.84196 10.5607 7.56066C10.842 7.27936 11 6.89782 11 6.5C11 6.10218 10.842 5.72064 10.5607 5.43934C10.2794 5.15804 9.89782 5 9.5 5H5.653L5.391 2.939C5.29594 2.12943 4.90697 1.38292 4.29793 0.841158C3.68888 0.299394 2.90214 7.30021e-05 2.087 0L1.5 0C1.10218 0 0.720644 0.158035 0.43934 0.43934C0.158035 0.720644 0 1.10218 0 1.5C0 1.89782 0.158035 2.27936 0.43934 2.56066C0.720644 2.84196 1.10218 3 1.5 3H2.087C2.16877 3.00068 2.24735 3.03178 2.30743 3.08724C2.36752 3.1427 2.4048 3.21855 2.412 3.3L3.912 15.06C4.00686 15.8699 4.39586 16.6168 5.00514 17.1588C5.61442 17.7008 6.40154 18.0001 7.217 18H17.339C18.5431 17.9993 19.7136 17.6035 20.671 16.8733C21.6285 16.1432 22.3198 15.119 22.639 13.958L22.655 13.898C22.7162 13.6757 22.7253 13.4423 22.6816 13.2159C22.6379 12.9894 22.5426 12.7762 22.4032 12.5926C22.2637 12.409 22.0837 12.26 21.8773 12.1572C21.6709 12.0545 21.4436 12.0007 21.213 12C20.8848 11.9999 20.5657 12.1075 20.3045 12.3062C20.0433 12.5049 19.8545 12.7837 19.767 13.1L19.75 13.163Z" fill="#374957"/>
<path d="M21.4129 2.4861L17.1189 6.7801L16.2679 5.8991C16.1314 5.75707 15.9682 5.64333 15.7878 5.56435C15.6073 5.48538 15.4131 5.44272 15.2161 5.43882C15.0192 5.43492 14.8234 5.46986 14.6399 5.54162C14.4565 5.61339 14.2889 5.72059 14.1469 5.8571C14.0049 5.99361 13.8911 6.15675 13.8122 6.33722C13.7332 6.51769 13.6905 6.71195 13.6866 6.9089C13.6788 7.30666 13.8292 7.69127 14.1049 7.9781L15.3679 9.2921C15.5869 9.52456 15.85 9.71098 16.1419 9.84045C16.4338 9.96992 16.7486 10.0398 17.0679 10.0461H17.1079C17.7417 10.0445 18.3494 9.79298 18.7989 9.3461L23.5329 4.6111C23.6762 4.47273 23.7904 4.30721 23.869 4.12421C23.9477 3.9412 23.989 3.74437 23.9908 3.5452C23.9925 3.34603 23.9545 3.14851 23.8791 2.96417C23.8037 2.77982 23.6923 2.61234 23.5515 2.47151C23.4106 2.33067 23.2432 2.21929 23.0588 2.14387C22.8745 2.06844 22.677 2.03049 22.4778 2.03222C22.2786 2.03395 22.0818 2.07533 21.8988 2.15395C21.7158 2.23256 21.5503 2.34683 21.4119 2.4901L21.4129 2.4861Z" fill="#374957"/>
</g>
<defs>
<clipPath id="clip0_405_1738">
<rect width="24" height="24" fill="white"/>
</clipPath>
</defs>
</svg>
