<svg width="24" height="24" viewBox="0 0 24 24" fill="none" xmlns="http://www.w3.org/2000/svg">
<g clip-path="url(#clip0_405_1450)">
<path d="M12 24C10.9391 24 9.92172 23.5786 9.17157 22.8284C8.42143 22.0783 8 21.0609 8 20V16H4C2.93913 16 1.92172 15.5786 1.17157 14.8284C0.421427 14.0783 0 13.0609 0 12C0 10.9391 0.421427 9.92172 1.17157 9.17157C1.92172 8.42143 2.93913 8 4 8H8V4C8 2.93913 8.42143 1.92172 9.17157 1.17157C9.92172 0.421427 10.9391 0 12 0C13.0609 0 14.0783 0.421427 14.8284 1.17157C15.5786 1.92172 16 2.93913 16 4V8H20C21.0609 8 22.0783 8.42143 22.8284 9.17157C23.5786 9.92172 24 10.9391 24 12C24 13.0609 23.5786 14.0783 22.8284 14.8284C22.0783 15.5786 21.0609 16 20 16H16V20C16 21.0609 15.5786 22.0783 14.8284 22.8284C14.0783 23.5786 13.0609 24 12 24ZM4 11C3.73478 11 3.48043 11.1054 3.29289 11.2929C3.10536 11.4804 3 11.7348 3 12C3 12.2652 3.10536 12.5196 3.29289 12.7071C3.48043 12.8946 3.73478 13 4 13H9.5C9.89782 13 10.2794 13.158 10.5607 13.4393C10.842 13.7206 11 14.1022 11 14.5V20C11 20.2652 11.1054 20.5196 11.2929 20.7071C11.4804 20.8946 11.7348 21 12 21C12.2652 21 12.5196 20.8946 12.7071 20.7071C12.8946 20.5196 13 20.2652 13 20V14.5C13 14.1022 13.158 13.7206 13.4393 13.4393C13.7206 13.158 14.1022 13 14.5 13H20C20.2652 13 20.5196 12.8946 20.7071 12.7071C20.8946 12.5196 21 12.2652 21 12C21 11.7348 20.8946 11.4804 20.7071 11.2929C20.5196 11.1054 20.2652 11 20 11H14.5C14.1022 11 13.7206 10.842 13.4393 10.5607C13.158 10.2794 13 9.89782 13 9.5V4C13 3.73478 12.8946 3.48043 12.7071 3.29289C12.5196 3.10536 12.2652 3 12 3C11.7348 3 11.4804 3.10536 11.2929 3.29289C11.1054 3.48043 11 3.73478 11 4V9.5C11 9.89782 10.842 10.2794 10.5607 10.5607C10.2794 10.842 9.89782 11 9.5 11H4Z" fill="#374957"/>
</g>
<defs>
<clipPath id="clip0_405_1450">
<rect width="24" height="24" fill="white"/>
</clipPath>
</defs>
</svg>
