<svg width="24" height="24" viewBox="0 0 24 24" fill="none" xmlns="http://www.w3.org/2000/svg">
<g clip-path="url(#clip0_405_1344)">
<path d="M12 18.989C14.3861 18.9864 16.6738 18.0373 18.361 16.35C20.0483 14.6628 20.9974 12.3751 21 9.989V1.5C21 1.10218 20.842 0.720644 20.5607 0.43934C20.2794 0.158035 19.8978 0 19.5 0C19.1022 0 18.7206 0.158035 18.4393 0.43934C18.158 0.720644 18 1.10218 18 1.5V9.989C18 11.5803 17.3679 13.1064 16.2426 14.2316C15.1174 15.3569 13.5913 15.989 12 15.989C10.4087 15.989 8.88258 15.3569 7.75736 14.2316C6.63214 13.1064 6 11.5803 6 9.989V1.5C6 1.10218 5.84196 0.720644 5.56066 0.43934C5.27936 0.158035 4.89782 0 4.5 0C4.10218 0 3.72064 0.158035 3.43934 0.43934C3.15804 0.720644 3 1.10218 3 1.5V9.989C3.00265 12.3751 3.95171 14.6628 5.63896 16.35C7.32622 18.0373 9.61386 18.9864 12 18.989Z" fill="#374957"/>
<path d="M22.544 21H1.5C1.10218 21 0.720644 21.158 0.43934 21.4393C0.158035 21.7206 0 22.1022 0 22.5C0 22.8978 0.158035 23.2794 0.43934 23.5607C0.720644 23.842 1.10218 24 1.5 24H22.544C22.9418 24 23.3234 23.842 23.6047 23.5607C23.886 23.2794 24.044 22.8978 24.044 22.5C24.044 22.1022 23.886 21.7206 23.6047 21.4393C23.3234 21.158 22.9418 21 22.544 21Z" fill="#374957"/>
</g>
<defs>
<clipPath id="clip0_405_1344">
<rect width="24" height="24" fill="white"/>
</clipPath>
</defs>
</svg>
