<svg width="24" height="24" viewBox="0 0 24 24" fill="none" xmlns="http://www.w3.org/2000/svg">
<g clip-path="url(#clip0_405_1383)">
<path d="M22.293 12.6999L21.561 13.4319L17.975 9.84191C17.3082 9.20612 16.4223 8.85143 15.501 8.85143C14.5797 8.85143 13.6937 9.20612 13.027 9.84191L12.853 10.0149C12.7592 10.1086 12.6321 10.1613 12.4995 10.1613C12.3669 10.1613 12.2397 10.1086 12.146 10.0149L8.04598 5.91491C7.76202 5.64669 7.38464 5.49983 6.99408 5.50553C6.60352 5.51124 6.23058 5.66907 5.95458 5.94546C5.67858 6.22186 5.52128 6.59501 5.51612 6.98558C5.51097 7.37615 5.65837 7.75333 5.92699 8.03691L10.027 12.1369C10.6936 12.7729 11.5796 13.1278 12.501 13.1278C13.4224 13.1278 14.3083 12.7729 14.975 12.1369L15.149 11.9639C15.2428 11.8702 15.3699 11.8175 15.5025 11.8175C15.6351 11.8175 15.7622 11.8702 15.856 11.9639L19.441 15.5489L18.708 16.2819C18.5682 16.4218 18.473 16.5999 18.4344 16.7939C18.3958 16.9878 18.4156 17.1889 18.4913 17.3716C18.567 17.5543 18.6951 17.7104 18.8595 17.8203C19.0239 17.9302 19.2172 17.9889 19.415 17.9889H22.5C22.8978 17.9889 23.2793 17.8309 23.5606 17.5496C23.8419 17.2683 24 16.8867 24 16.4889V13.3999C23.9986 13.2028 23.9389 13.0104 23.8285 12.8471C23.7181 12.6837 23.5618 12.5567 23.3794 12.4819C23.197 12.4071 22.9965 12.3879 22.8032 12.4266C22.6099 12.4654 22.4324 12.5605 22.293 12.6999Z" fill="#374957"/>
<path d="M22.5 21H5.5C4.83696 21 4.20107 20.7366 3.73223 20.2678C3.26339 19.7989 3 19.163 3 18.5V1.5C3 1.10218 2.84196 0.720644 2.56066 0.43934C2.27936 0.158035 1.89782 0 1.5 0C1.10218 0 0.720644 0.158035 0.43934 0.43934C0.158035 0.720644 0 1.10218 0 1.5L0 18.5C0.00158817 19.9582 0.581561 21.3562 1.61267 22.3873C2.64377 23.4184 4.0418 23.9984 5.5 24H22.5C22.8978 24 23.2794 23.842 23.5607 23.5607C23.842 23.2794 24 22.8978 24 22.5C24 22.1022 23.842 21.7206 23.5607 21.4393C23.2794 21.158 22.8978 21 22.5 21Z" fill="#374957"/>
</g>
<defs>
<clipPath id="clip0_405_1383">
<rect width="24" height="24" fill="white"/>
</clipPath>
</defs>
</svg>
