<svg width="24" height="24" viewBox="0 0 24 24" fill="none" xmlns="http://www.w3.org/2000/svg">
<g clip-path="url(#clip0_405_1552)">
<path d="M20.943 17.7269C19.9889 18.8849 18.7601 19.7856 17.3687 20.347C15.9772 20.9084 14.4674 21.1125 12.9768 20.9408C11.4863 20.7691 10.0624 20.2271 8.83501 19.364C7.60765 18.501 6.61583 17.3445 5.95 15.9999H14.5C14.8978 15.9999 15.2794 15.8418 15.5607 15.5605C15.842 15.2792 16 14.8977 16 14.4999C16 14.102 15.842 13.7205 15.5607 13.4392C15.2794 13.1579 14.8978 12.9999 14.5 12.9999H5.059C4.9803 12.3355 4.9803 11.6642 5.059 10.9999H14.5C14.8978 10.9999 15.2794 10.8418 15.5607 10.5605C15.842 10.2792 16 9.89768 16 9.49986C16 9.10203 15.842 8.7205 15.5607 8.4392C15.2794 8.15789 14.8978 7.99986 14.5 7.99986H5.95C6.61583 6.65526 7.60765 5.49872 8.83501 4.63569C10.0624 3.77265 11.4863 3.23058 12.9768 3.05888C14.4674 2.88719 15.9772 3.09134 17.3687 3.65272C18.7601 4.2141 19.9889 5.11486 20.943 6.27286C21.1963 6.57971 21.5611 6.77338 21.9572 6.81127C22.3532 6.84915 22.7481 6.72814 23.055 6.47486C23.3619 6.22157 23.5555 5.85677 23.5934 5.46069C23.6313 5.06461 23.5103 4.66971 23.257 4.36286C21.9063 2.72436 20.1447 1.47398 18.1523 0.739593C16.1599 0.00520772 14.0082 -0.186835 11.9173 0.183103C9.82631 0.553042 7.87112 1.47169 6.25164 2.8451C4.63215 4.21851 3.4065 5.9974 2.7 7.99986H1.5C1.10218 7.99986 0.720644 8.15789 0.43934 8.4392C0.158035 8.7205 0 9.10203 0 9.49986C0 9.89768 0.158035 10.2792 0.43934 10.5605C0.720644 10.8418 1.10218 10.9999 1.5 10.9999H2.051C2.023 11.3309 2 11.6619 2 11.9999C2 12.3379 2.023 12.6689 2.051 12.9999H1.5C1.10218 12.9999 0.720644 13.1579 0.43934 13.4392C0.158035 13.7205 0 14.102 0 14.4999C0 14.8977 0.158035 15.2792 0.43934 15.5605C0.720644 15.8418 1.10218 15.9999 1.5 15.9999H2.7C3.4065 18.0023 4.63215 19.7812 6.25164 21.1546C7.87112 22.528 9.82631 23.4467 11.9173 23.8166C14.0082 24.1865 16.1599 23.9945 18.1523 23.2601C20.1447 22.5257 21.9063 21.2754 23.257 19.6369C23.5103 19.33 23.6313 18.9351 23.5934 18.539C23.5555 18.1429 23.3619 17.7781 23.055 17.5249C22.9031 17.3994 22.7279 17.3052 22.5395 17.2475C22.3512 17.1897 22.1533 17.1697 21.9572 17.1884C21.5611 17.2263 21.1963 17.42 20.943 17.7269Z" fill="#374957"/>
</g>
<defs>
<clipPath id="clip0_405_1552">
<rect width="24" height="24" fill="white"/>
</clipPath>
</defs>
</svg>
