<svg width="24" height="24" viewBox="0 0 24 24" fill="none" xmlns="http://www.w3.org/2000/svg">
<g clip-path="url(#clip0_405_1523)">
<path d="M23.0692 0.533561C22.7801 0.30283 22.4425 0.14066 22.0817 0.0592516C21.7209 -0.0221567 21.3463 -0.0206834 20.9862 0.0635608C20.0721 0.321349 19.227 0.779803 18.5126 1.40552C17.7981 2.03124 17.2322 2.80846 16.8562 3.68056C13.6734 2.83956 10.3269 2.83956 7.14416 3.68056C6.76763 2.80859 6.20148 2.0315 5.48689 1.40582C4.7723 0.780145 3.92723 0.321607 3.01316 0.0635608C2.65267 -0.019606 2.27805 -0.0203912 1.91721 0.0612638C1.55637 0.142919 1.2186 0.304911 0.929029 0.535181C0.639461 0.765451 0.405561 1.05807 0.244739 1.39125C0.0839174 1.72443 0.000316979 2.0896 0.000160885 2.45956V9.95956C-0.00369808 11.4107 0.280224 12.8483 0.835503 14.189C1.39078 15.5297 2.20639 16.7471 3.23516 17.7706L7.68116 22.2096C8.82998 23.3487 10.3823 23.9879 12.0002 23.9879C13.618 23.9879 15.1703 23.3487 16.3192 22.2096L20.7652 17.7656C21.7941 16.7422 22.6098 15.5249 23.1651 14.1841C23.7204 12.8434 24.0042 11.4058 24.0002 9.95456V2.45956C24.001 2.08897 23.9177 1.72304 23.7564 1.38939C23.5951 1.05574 23.3601 0.763094 23.0692 0.533561ZM4.85016 5.97456C4.91301 6.16298 5.01265 6.33703 5.14331 6.48663C5.27396 6.63623 5.43303 6.75839 5.61127 6.84602C5.78952 6.93366 5.98339 6.98502 6.18164 6.99713C6.37989 7.00924 6.57858 6.98185 6.76616 6.91656C8.45771 6.36102 10.2205 6.05217 12.0002 5.99956C13.7798 6.05273 15.5425 6.36156 17.2342 6.91656C17.4218 6.98183 17.6206 7.00917 17.8189 6.997C18.0172 6.98482 18.2111 6.93337 18.3893 6.84564C18.5676 6.75791 18.7266 6.63564 18.8572 6.48594C18.9878 6.33623 19.0874 6.16207 19.1502 5.97356C19.4454 4.88967 20.0971 3.9368 21.0002 3.26856V7.16856C19.1213 7.46506 17.3346 8.1852 15.7753 9.27446C14.216 10.3637 12.9251 11.7935 12.0002 13.4556C11.0751 11.7937 9.78411 10.3641 8.22483 9.27502C6.66554 8.18594 4.87889 7.46595 3.00016 7.16956V3.26956C3.9032 3.9378 4.55488 4.89067 4.85016 5.97456ZM5.35716 15.6446C3.91853 14.2104 3.08066 12.2818 3.01416 10.2516C3.70718 10.4175 4.38339 10.6472 5.03416 10.9376C5.0945 11.5261 5.30905 12.0884 5.65616 12.5676C6.02481 13.0433 6.50364 13.4223 7.05136 13.6717C7.59909 13.9212 8.19927 14.0337 8.80016 13.9996C9.81653 15.5279 10.3869 17.3092 10.4472 19.1436C10.1282 19.349 9.8529 19.6154 9.63716 19.9276L5.35716 15.6446ZM18.6442 15.6446L14.3602 19.9266C14.1444 19.6144 13.8692 19.348 13.5502 19.1426C13.6115 17.3082 14.1829 15.5272 15.2002 13.9996C15.8014 14.0342 16.4021 13.922 16.9504 13.6727C17.4986 13.4234 17.978 13.0444 18.3472 12.5686C18.6943 12.0894 18.9088 11.5272 18.9692 10.9386C19.62 10.6483 20.2962 10.4187 20.9892 10.2526C20.9215 12.2827 20.083 14.2108 18.6442 15.6446Z" fill="#374957"/>
</g>
<defs>
<clipPath id="clip0_405_1523">
<rect width="24" height="24" fill="white"/>
</clipPath>
</defs>
</svg>
