<svg width="24" height="24" viewBox="0 0 24 24" fill="none" xmlns="http://www.w3.org/2000/svg">
<g clip-path="url(#clip0_405_1374)">
<path d="M14.5001 0H9.50012C8.04192 0.00158817 6.64389 0.581561 5.61279 1.61267C4.58168 2.64377 4.00171 4.0418 4.00012 5.5V18.5C4.00171 19.9582 4.58168 21.3562 5.61279 22.3873C6.64389 23.4184 8.04192 23.9984 9.50012 24H14.5001C15.9583 23.9984 17.3563 23.4184 18.3875 22.3873C19.4186 21.3562 19.9985 19.9582 20.0001 18.5V5.5C19.9985 4.0418 19.4186 2.64377 18.3875 1.61267C17.3563 0.581561 15.9583 0.00158817 14.5001 0V0ZM9.50012 3H14.5001C15.1632 3 15.799 3.26339 16.2679 3.73223C16.7367 4.20107 17.0001 4.83696 17.0001 5.5V18H7.00012V5.5C7.00012 4.83696 7.26351 4.20107 7.73236 3.73223C8.2012 3.26339 8.83708 3 9.50012 3ZM12.0001 22C11.7349 22 11.4806 21.8946 11.293 21.7071C11.1055 21.5196 11.0001 21.2652 11.0001 21C11.0001 20.7348 11.1055 20.4804 11.293 20.2929C11.4806 20.1054 11.7349 20 12.0001 20C12.2653 20 12.5197 20.1054 12.7072 20.2929C12.8948 20.4804 13.0001 20.7348 13.0001 21C13.0001 21.2652 12.8948 21.5196 12.7072 21.7071C12.5197 21.8946 12.2653 22 12.0001 22Z" fill="#374957"/>
</g>
<defs>
<clipPath id="clip0_405_1374">
<rect width="24" height="24" fill="white"/>
</clipPath>
</defs>
</svg>
