<svg width="24" height="24" viewBox="0 0 24 24" fill="none" xmlns="http://www.w3.org/2000/svg">
<g clip-path="url(#clip0_405_1733)">
<path d="M19.679 2.62999C19.3927 1.93609 18.9263 1.33124 18.328 0.877988C17.7965 0.472693 17.1779 0.196867 16.5212 0.0724054C15.8646 -0.0520561 15.1879 -0.0217262 14.545 0.160988L12.945 0.608988C12.6104 0.702809 12.2923 0.847859 12.002 1.03899C11.712 0.848051 11.3942 0.703011 11.06 0.608988L9.454 0.160988C8.81124 -0.0215622 8.13478 -0.0518076 7.47829 0.0726511C6.8218 0.19711 6.20335 0.472848 5.672 0.877988C5.07366 1.33124 4.60726 1.93609 4.321 2.62999C3.09741 2.90021 2.00251 3.57949 1.21695 4.55576C0.431395 5.53202 0.00213413 6.74692 0 7.99999L0 13.5C0.00185226 14.9581 0.58191 16.356 1.61296 17.387C2.64401 18.4181 4.04188 18.9981 5.5 19H10.5V21H8.5C8.10218 21 7.72064 21.158 7.43934 21.4393C7.15804 21.7206 7 22.1022 7 22.5C7 22.8978 7.15804 23.2793 7.43934 23.5606C7.72064 23.842 8.10218 24 8.5 24H15.5C15.8978 24 16.2794 23.842 16.5607 23.5606C16.842 23.2793 17 22.8978 17 22.5C17 22.1022 16.842 21.7206 16.5607 21.4393C16.2794 21.158 15.8978 21 15.5 21H13.5V19H18.5C19.9581 18.9981 21.356 18.4181 22.387 17.387C23.4181 16.356 23.9981 14.9581 24 13.5V7.99999C23.9979 6.74692 23.5686 5.53202 22.7831 4.55576C21.9975 3.57949 20.9026 2.90021 19.679 2.62999ZM13.5 3.79999C13.5041 3.72966 13.5307 3.66251 13.5759 3.60848C13.6211 3.55445 13.6825 3.51641 13.751 3.49999L15.351 3.05199C15.4708 3.01838 15.5946 3.00089 15.719 2.99999C16.008 2.99902 16.2893 3.09359 16.519 3.26899C16.6695 3.37975 16.7918 3.52435 16.876 3.69112C16.9603 3.85789 17.0041 4.04214 17.004 4.22899V7.80699C16.9987 8.07695 16.9056 8.33783 16.7387 8.55006C16.5717 8.76229 16.3401 8.91429 16.079 8.98299L13.5 9.69999V3.79999ZM7.485 3.26799C7.71376 3.09378 7.99346 2.99961 8.281 2.99999C8.40439 3.00072 8.52713 3.01787 8.646 3.05099L10.246 3.49899C10.3143 3.51559 10.3755 3.55371 10.4205 3.60773C10.4655 3.66174 10.492 3.72879 10.496 3.79899V9.69999L7.924 8.98299C7.66306 8.9141 7.43169 8.76203 7.26495 8.54981C7.09821 8.3376 7.0052 8.07682 7 7.80699V4.22799C6.99987 4.04114 7.04371 3.85689 7.12796 3.69012C7.21221 3.52335 7.33452 3.37875 7.485 3.26799ZM21 13.5C21 14.163 20.7366 14.7989 20.2678 15.2678C19.7989 15.7366 19.163 16 18.5 16H5.5C4.83696 16 4.20107 15.7366 3.73223 15.2678C3.26339 14.7989 3 14.163 3 13.5V7.99999C3.00101 7.61375 3.09189 7.23305 3.26545 6.88801C3.43902 6.54296 3.6905 6.24305 4 6.01199V7.81199C4.00673 8.73622 4.31457 9.63307 4.87686 10.3666C5.43915 11.1002 6.22524 11.6304 7.116 11.877L10.316 12.777C11.415 13.0836 12.577 13.0836 13.676 12.777L16.876 11.877C17.7691 11.6316 18.5575 11.1013 19.1215 10.3666C19.6854 9.6319 19.9939 8.73312 20 7.80699V6.00699C20.3102 6.23855 20.5621 6.53927 20.7357 6.88524C20.9093 7.23122 20.9998 7.61291 21 7.99999V13.5Z" fill="#374957"/>
</g>
<defs>
<clipPath id="clip0_405_1733">
<rect width="24" height="24" fill="white"/>
</clipPath>
</defs>
</svg>
