<svg width="24" height="24" viewBox="0 0 24 24" fill="none" xmlns="http://www.w3.org/2000/svg">
<g clip-path="url(#clip0_405_1740)">
<path d="M12 0C9.62663 0 7.30655 0.703788 5.33316 2.02236C3.35977 3.34094 1.8217 5.21509 0.913451 7.4078C0.00519943 9.60051 -0.232441 12.0133 0.230582 14.3411C0.693605 16.6689 1.83649 18.8071 3.51472 20.4853C5.19295 22.1635 7.33115 23.3064 9.65892 23.7694C11.9867 24.2324 14.3995 23.9948 16.5922 23.0866C18.7849 22.1783 20.6591 20.6402 21.9776 18.6668C23.2962 16.6935 24 14.3734 24 12C23.9966 8.81846 22.7312 5.76821 20.4815 3.51852C18.2318 1.26883 15.1815 0.00344108 12 0V0ZM19.231 17.336C18.7888 16.8985 18.4031 16.4073 18.083 15.874C18.4334 15.7251 18.7138 15.448 18.8668 15.0994C19.0197 14.7507 19.0339 14.3568 18.9062 13.9981C18.7786 13.6394 18.5188 13.343 18.1799 13.1694C17.8411 12.9958 17.4487 12.9581 17.083 13.064C17.0306 12.7117 17.0029 12.3562 17 12C17.0027 11.6425 17.0308 11.2856 17.084 10.932C17.2187 10.9745 17.3588 10.9974 17.5 11C17.8429 10.9958 18.1739 10.8742 18.438 10.6556C18.7022 10.4369 18.8834 10.1344 18.9516 9.79832C19.0197 9.46228 18.9707 9.11304 18.8127 8.80875C18.6546 8.50446 18.3971 8.2635 18.083 8.126C18.4031 7.59266 18.7888 7.1015 19.231 6.664C20.3796 8.2059 21.0001 10.0773 21.0001 12C21.0001 13.9227 20.3796 15.7941 19.231 17.336ZM4.76901 6.664C5.2112 7.1015 5.59687 7.59266 5.91701 8.126C5.6029 8.2635 5.34538 8.50446 5.18734 8.80875C5.0293 9.11304 4.98029 9.46228 5.04845 9.79832C5.11662 10.1344 5.29785 10.4369 5.56197 10.6556C5.82609 10.8742 6.15715 10.9958 6.50001 11C6.64122 10.9974 6.78132 10.9745 6.91601 10.932C6.96925 11.2856 6.99732 11.6425 7.00001 12C6.99711 12.3562 6.96938 12.7117 6.91701 13.064C6.5513 12.9581 6.15895 12.9958 5.82009 13.1694C5.48124 13.343 5.22145 13.6394 5.0938 13.9981C4.96615 14.3568 4.98026 14.7507 5.13326 15.0994C5.28626 15.448 5.56659 15.7251 5.91701 15.874C5.59687 16.4073 5.2112 16.8985 4.76901 17.336C3.62037 15.7941 2.99995 13.9227 2.99995 12C2.99995 10.0773 3.62037 8.2059 4.76901 6.664ZM6.92001 19.423C7.67785 18.6675 8.31466 17.7996 8.80801 16.85L9.02501 16.923C9.21188 16.9854 9.4092 17.0103 9.60572 16.9965C9.80224 16.9826 9.9941 16.9301 10.1703 16.8421C10.3466 16.7541 10.5038 16.6322 10.6329 16.4834C10.7621 16.3346 10.8606 16.1619 10.923 15.975C10.9854 15.7881 11.0103 15.5908 10.9965 15.3943C10.9826 15.1978 10.9301 15.0059 10.8421 14.8297C10.7541 14.6534 10.6322 14.4962 10.4834 14.3671C10.3346 14.238 10.1619 14.1394 9.97501 14.077L9.79301 14.017C9.92616 13.3528 9.99547 12.6774 10 12C9.99547 11.3226 9.92616 10.6472 9.79301 9.983L9.97501 9.923C10.3524 9.79702 10.6643 9.52628 10.8421 9.17034C11.0199 8.81439 11.049 8.4024 10.923 8.025C10.797 7.6476 10.5263 7.3357 10.1703 7.15791C9.8144 6.98013 9.40241 6.95102 9.02501 7.077L8.80801 7.15C8.31466 6.20039 7.67785 5.33253 6.92001 4.577C8.41499 3.5499 10.1862 3.00008 12 3.00008C13.8138 3.00008 15.585 3.5499 17.08 4.577C16.3222 5.33253 15.6854 6.20039 15.192 7.15L14.975 7.077C14.5976 6.95102 14.1856 6.98013 13.8297 7.15791C13.4737 7.3357 13.203 7.6476 13.077 8.025C12.951 8.4024 12.9801 8.81439 13.1579 9.17034C13.3357 9.52628 13.6476 9.79702 14.025 9.923L14.207 9.983C14.0739 10.6472 14.0045 11.3226 14 12C14.0045 12.6774 14.0739 13.3528 14.207 14.017L14.025 14.077C13.6476 14.203 13.3357 14.4737 13.1579 14.8297C12.9801 15.1856 12.951 15.5976 13.077 15.975C13.203 16.3524 13.4737 16.6643 13.8297 16.8421C14.1856 17.0199 14.5976 17.049 14.975 16.923L15.192 16.85C15.6854 17.7996 16.3222 18.6675 17.08 19.423C15.585 20.4501 13.8138 20.9999 12 20.9999C10.1862 20.9999 8.41499 20.4501 6.92001 19.423Z" fill="#374957"/>
</g>
<defs>
<clipPath id="clip0_405_1740">
<rect width="24" height="24" fill="white"/>
</clipPath>
</defs>
</svg>
