<svg width="24" height="24" viewBox="0 0 24 24" fill="none" xmlns="http://www.w3.org/2000/svg">
<g clip-path="url(#clip0_405_1650)">
<path d="M22.5 18H21V16.5C21 16.1022 20.842 15.7206 20.5607 15.4393C20.2794 15.158 19.8978 15 19.5 15C19.1022 15 18.7206 15.158 18.4393 15.4393C18.158 15.7206 18 16.1022 18 16.5V18H16.5C16.1022 18 15.7206 18.158 15.4393 18.4393C15.158 18.7206 15 19.1022 15 19.5C15 19.8978 15.158 20.2794 15.4393 20.5607C15.7206 20.842 16.1022 21 16.5 21H18V22.5C18 22.8978 18.158 23.2794 18.4393 23.5607C18.7206 23.842 19.1022 24 19.5 24C19.8978 24 20.2794 23.842 20.5607 23.5607C20.842 23.2794 21 22.8978 21 22.5V21H22.5C22.8978 21 23.2794 20.842 23.5607 20.5607C23.842 20.2794 24 19.8978 24 19.5C24 19.1022 23.842 18.7206 23.5607 18.4393C23.2794 18.158 22.8978 18 22.5 18Z" fill="#374957"/>
<path d="M20.5 6H18C18 4.4087 17.3679 2.88258 16.2426 1.75736C15.1174 0.632141 13.5913 0 12 0C10.4087 0 8.88258 0.632141 7.75736 1.75736C6.63214 2.88258 6 4.4087 6 6H3.5C2.57521 6.01116 1.69144 6.38349 1.03746 7.03746C0.383488 7.69144 0.0111574 8.57521 0 9.5L0 18.5C0.0127902 19.9547 0.596359 21.3463 1.62505 22.375C2.65374 23.4036 4.04527 23.9872 5.5 24H11.5C11.8978 24 12.2794 23.842 12.5607 23.5607C12.842 23.2794 13 22.8978 13 22.5C13 22.1022 12.842 21.7206 12.5607 21.4393C12.2794 21.158 11.8978 21 11.5 21H5.5C5.1708 21.0032 4.84427 20.9407 4.53951 20.8162C4.23475 20.6917 3.95787 20.5077 3.72509 20.2749C3.4923 20.0421 3.30827 19.7653 3.18377 19.4605C3.05927 19.1557 2.99679 18.8292 3 18.5V9.5C2.99591 9.43327 3.00604 9.36644 3.02972 9.30392C3.0534 9.24141 3.09009 9.18463 3.13736 9.13736C3.18463 9.09009 3.24141 9.0534 3.30392 9.02972C3.36644 9.00604 3.43327 8.99591 3.5 9H6V10.5C6.00964 10.8948 6.17077 11.2707 6.45001 11.55C6.72925 11.8292 7.10521 11.9904 7.5 12C7.89479 11.9904 8.27075 11.8292 8.54999 11.55C8.82923 11.2707 8.99036 10.8948 9 10.5V9H15V10.5C15 10.8978 15.158 11.2794 15.4393 11.5607C15.7206 11.842 16.1022 12 16.5 12C16.8978 12 17.2794 11.842 17.5607 11.5607C17.842 11.2794 18 10.8978 18 10.5V9H20.5C20.5667 8.99591 20.6336 9.00604 20.6961 9.02972C20.7586 9.0534 20.8154 9.09009 20.8626 9.13736C20.9099 9.18463 20.9466 9.24141 20.9703 9.30392C20.994 9.36644 21.0041 9.43327 21 9.5V11.5C21 11.8978 21.158 12.2794 21.4393 12.5607C21.7206 12.842 22.1022 13 22.5 13C22.8978 13 23.2794 12.842 23.5607 12.5607C23.842 12.2794 24 11.8978 24 11.5V9.5C23.9888 8.57521 23.6165 7.69144 22.9625 7.03746C22.3086 6.38349 21.4248 6.01116 20.5 6ZM9 6C9 5.20435 9.31607 4.44129 9.87868 3.87868C10.4413 3.31607 11.2044 3 12 3C12.7956 3 13.5587 3.31607 14.1213 3.87868C14.6839 4.44129 15 5.20435 15 6H9Z" fill="#374957"/>
</g>
<defs>
<clipPath id="clip0_405_1650">
<rect width="24" height="24" fill="white"/>
</clipPath>
</defs>
</svg>
