<svg width="24" height="24" viewBox="0 0 24 24" fill="none" xmlns="http://www.w3.org/2000/svg">
<g clip-path="url(#clip0_405_1335)">
<path d="M24.0001 7.49939C24.0029 6.10602 23.6168 4.73951 22.8851 3.55369C22.1535 2.36787 21.1053 1.40983 19.8587 0.787396C18.6121 0.164966 17.2164 -0.0971351 15.8289 0.0305972C14.4414 0.15833 13.1171 0.670824 12.0051 1.51039C11.1062 0.832169 10.0661 0.365065 8.962 0.143736C7.8579 -0.0775929 6.71814 -0.0474656 5.62728 0.231883C4.53643 0.511231 3.52247 1.03263 2.66065 1.75739C1.79884 2.48215 1.11128 3.39167 0.649 4.41847C0.186719 5.44526 -0.038418 6.56297 -0.00970758 7.68866C0.0190029 8.81435 0.300824 9.91913 0.814846 10.921C1.32887 11.9229 2.06189 12.7962 2.95954 13.4761C3.85718 14.156 4.89639 14.625 6.00007 14.8484V17.9994H5.00007C4.60225 17.9994 4.22072 18.1574 3.93941 18.4387C3.65811 18.72 3.50007 19.1016 3.50007 19.4994C3.50007 19.8972 3.65811 20.2787 3.93941 20.56C4.22072 20.8414 4.60225 20.9994 5.00007 20.9994H6.00007V22.4994C6.00007 22.8972 6.15811 23.2787 6.43941 23.56C6.72072 23.8414 7.10225 23.9994 7.50007 23.9994C7.8979 23.9994 8.27943 23.8414 8.56073 23.56C8.84204 23.2787 9.00007 22.8972 9.00007 22.4994V20.9994H10.0001C10.3979 20.9994 10.7794 20.8414 11.0607 20.56C11.342 20.2787 11.5001 19.8972 11.5001 19.4994C11.5001 19.1016 11.342 18.72 11.0607 18.4387C10.7794 18.1574 10.3979 17.9994 10.0001 17.9994H9.00007V14.8464C10.0907 14.6243 11.1177 14.1602 12.0051 13.4884C12.8896 14.1592 13.9129 14.6238 15.0001 14.8484V17.9994H14.0001C13.6023 17.9994 13.2207 18.1574 12.9394 18.4387C12.6581 18.72 12.5001 19.1016 12.5001 19.4994C12.5001 19.8972 12.6581 20.2787 12.9394 20.56C13.2207 20.8414 13.6023 20.9994 14.0001 20.9994H15.0001V22.4994C15.0001 22.8972 15.1581 23.2787 15.4394 23.56C15.7207 23.8414 16.1022 23.9994 16.5001 23.9994C16.8979 23.9994 17.2794 23.8414 17.5607 23.56C17.842 23.2787 18.0001 22.8972 18.0001 22.4994V20.9994H19.0001C19.3979 20.9994 19.7794 20.8414 20.0607 20.56C20.342 20.2787 20.5001 19.8972 20.5001 19.4994C20.5001 19.1016 20.342 18.72 20.0607 18.4387C19.7794 18.1574 19.3979 17.9994 19.0001 17.9994H18.0001V14.8484C19.6928 14.5004 21.2139 13.5794 22.3068 12.2407C23.3997 10.9021 23.9978 9.22755 24.0001 7.49939ZM3.00007 7.49939C2.9991 6.68422 3.21997 5.88416 3.63901 5.18494C4.05805 4.48572 4.65945 3.91371 5.37878 3.53021C6.0981 3.1467 6.90822 2.96617 7.72232 3.00795C8.53641 3.04974 9.32379 3.31226 10.0001 3.76739C9.34242 4.90119 8.99605 6.18865 8.99605 7.49939C8.99605 8.81013 9.34242 10.0976 10.0001 11.2314C9.32379 11.6865 8.53641 11.949 7.72232 11.9908C6.90822 12.0326 6.0981 11.8521 5.37878 11.4686C4.65945 11.0851 4.05805 10.5131 3.63901 9.81384C3.21997 9.11462 2.9991 8.31456 3.00007 7.49939ZM12.0001 7.49939C12.0001 6.60937 12.264 5.73934 12.7585 4.99932C13.2529 4.2593 13.9557 3.68253 14.778 3.34193C15.6003 3.00134 16.5051 2.91222 17.378 3.08586C18.2509 3.25949 19.0527 3.68807 19.6821 4.31741C20.3114 4.94675 20.74 5.74857 20.9136 6.62148C21.0872 7.4944 20.9981 8.3992 20.6575 9.22147C20.3169 10.0437 19.7402 10.7465 19.0001 11.241C18.2601 11.7355 17.3901 11.9994 16.5001 11.9994C15.307 11.9981 14.1632 11.5235 13.3196 10.6799C12.4759 9.83628 12.0014 8.69246 12.0001 7.49939Z" fill="#374957"/>
</g>
<defs>
<clipPath id="clip0_405_1335">
<rect width="24" height="24" fill="white"/>
</clipPath>
</defs>
</svg>
