<svg width="24" height="24" viewBox="0 0 24 24" fill="none" xmlns="http://www.w3.org/2000/svg">
<g clip-path="url(#clip0_405_1697)">
<path d="M18.5 1.00031H13.5C12.0418 1.00189 10.6438 1.58187 9.6127 2.61297C8.58159 3.64408 8.00162 5.0421 8.00003 6.50031V12.6073C6.95151 12.0715 5.75872 11.8864 4.59712 12.0791C3.43553 12.2718 2.36645 12.8323 1.54714 13.678C0.727842 14.5237 0.201573 15.61 0.0457533 16.7771C-0.110067 17.9442 0.112788 19.1305 0.681536 20.1616C1.25028 21.1926 2.1349 22.0138 3.20525 22.5045C4.2756 22.9953 5.47518 23.1295 6.62753 22.8876C7.77989 22.6456 8.82417 22.0402 9.60677 21.1605C10.3894 20.2807 10.869 19.173 10.975 18.0003H11V6.50031C11 5.83726 11.2634 5.20138 11.7323 4.73254C12.2011 4.2637 12.837 4.00031 13.5 4.00031H18.5C19.1631 4.00031 19.799 4.2637 20.2678 4.73254C20.7366 5.20138 21 5.83726 21 6.50031V12.6073C19.9515 12.0715 18.7587 11.8864 17.5971 12.0791C16.4355 12.2718 15.3664 12.8323 14.5471 13.678C13.7278 14.5237 13.2016 15.61 13.0458 16.7771C12.8899 17.9442 13.1128 19.1305 13.6815 20.1616C14.2503 21.1926 15.1349 22.0138 16.2052 22.5045C17.2756 22.9953 18.4752 23.1295 19.6275 22.8876C20.7799 22.6456 21.8242 22.0402 22.6068 21.1605C23.3894 20.2807 23.869 19.173 23.975 18.0003H24V6.50031C23.9984 5.0421 23.4185 3.64408 22.3874 2.61297C21.3563 1.58187 19.9582 1.00189 18.5 1.00031ZM5.50003 20.0003C5.00558 20.0003 4.52223 19.8537 4.1111 19.579C3.69998 19.3043 3.37955 18.9138 3.19033 18.457C3.00111 18.0002 2.9516 17.4975 3.04807 17.0126C3.14453 16.5276 3.38263 16.0822 3.73226 15.7325C4.08189 15.3829 4.52735 15.1448 5.0123 15.0483C5.49726 14.9519 5.99992 15.0014 6.45674 15.1906C6.91355 15.3798 7.304 15.7003 7.5787 16.1114C7.85341 16.5225 8.00003 17.0059 8.00003 17.5003C8.00003 18.1633 7.73664 18.7992 7.2678 19.2681C6.79895 19.7369 6.16307 20.0003 5.50003 20.0003ZM18.5 20.0003C18.0056 20.0003 17.5222 19.8537 17.1111 19.579C16.7 19.3043 16.3796 18.9138 16.1903 18.457C16.0011 18.0002 15.9516 17.4975 16.0481 17.0126C16.1445 16.5276 16.3826 16.0822 16.7323 15.7325C17.0819 15.3829 17.5274 15.1448 18.0123 15.0483C18.4973 14.9519 18.9999 15.0014 19.4567 15.1906C19.9136 15.3798 20.304 15.7003 20.5787 16.1114C20.8534 16.5225 21 17.0059 21 17.5003C21 18.1633 20.7366 18.7992 20.2678 19.2681C19.799 19.7369 19.1631 20.0003 18.5 20.0003Z" fill="#374957"/>
</g>
<defs>
<clipPath id="clip0_405_1697">
<rect width="24" height="24" fill="white"/>
</clipPath>
</defs>
</svg>
