<svg width="24" height="24" viewBox="0 0 24 24" fill="none" xmlns="http://www.w3.org/2000/svg">
<g clip-path="url(#clip0_405_1682)">
<path d="M22.5 19H15.149C14.8034 18.2784 14.2216 17.6966 13.5 17.351V14H21.154C21.6435 13.9997 22.1129 13.8052 22.459 13.459C22.8052 13.1129 22.9997 12.6435 23 12.154V11C23 10.4696 22.7893 9.96086 22.4142 9.58579C22.0391 9.21072 21.5304 9 21 9V4.5C20.9987 3.30693 20.5241 2.16311 19.6805 1.31948C18.8369 0.475854 17.6931 0.00132343 16.5 0L7.5 0C6.30693 0.00132343 5.16311 0.475854 4.31948 1.31948C3.47585 2.16311 3.00132 3.30693 3 4.5V9C2.46957 9 1.96086 9.21072 1.58579 9.58579C1.21071 9.96086 1 10.4696 1 11V12.154C1.00027 12.6435 1.19484 13.1129 1.54097 13.459C1.88711 13.8052 2.35649 13.9997 2.846 14H10.5V17.351C9.77841 17.6966 9.1966 18.2784 8.851 19H1.5C1.10218 19 0.720644 19.158 0.43934 19.4393C0.158035 19.7206 0 20.1022 0 20.5C0 20.8978 0.158035 21.2794 0.43934 21.5607C0.720644 21.842 1.10218 22 1.5 22H8.851C9.1316 22.5985 9.5769 23.1047 10.1348 23.4593C10.6926 23.8139 11.34 24.0022 12.001 24.0022C12.662 24.0022 13.3094 23.8139 13.8672 23.4593C14.4251 23.1047 14.8704 22.5985 15.151 22H22.5C22.8978 22 23.2794 21.842 23.5607 21.5607C23.842 21.2794 24 20.8978 24 20.5C24 20.1022 23.842 19.7206 23.5607 19.4393C23.2794 19.158 22.8978 19 22.5 19ZM8.934 9.678L8.605 9.322C8.51136 9.22048 8.39771 9.13946 8.27121 9.08404C8.14471 9.02862 8.00811 9.00001 7.87 9H6V4.5C6 4.10218 6.15804 3.72064 6.43934 3.43934C6.72064 3.15804 7.10218 3 7.5 3H16.5C16.8978 3 17.2794 3.15804 17.5607 3.43934C17.842 3.72064 18 4.10218 18 4.5V9H16.13C15.9919 9.00001 15.8553 9.02862 15.7288 9.08404C15.6023 9.13946 15.4886 9.22048 15.395 9.322L15.066 9.678C14.9724 9.77952 14.8587 9.86054 14.7322 9.91596C14.6057 9.97138 14.4691 9.99999 14.331 10H9.669C9.53089 9.99999 9.39429 9.97138 9.26779 9.91596C9.14128 9.86054 9.02764 9.77952 8.934 9.678Z" fill="#374957"/>
</g>
<defs>
<clipPath id="clip0_405_1682">
<rect width="24" height="24" fill="white"/>
</clipPath>
</defs>
</svg>
