<svg width="24" height="24" viewBox="0 0 24 24" fill="none" xmlns="http://www.w3.org/2000/svg">
<g clip-path="url(#clip0_405_1575)">
<path d="M23.9998 11.6001C24.0122 10.3799 23.399 9.23842 22.3748 8.57509C22.9435 6.95767 23.1534 5.23581 22.9898 3.52909C22.9741 2.72424 22.5854 1.97232 21.9378 1.4941C21.3176 1.03131 20.5174 0.883463 19.7728 1.09407C18.2153 1.53788 16.7562 2.27321 15.4728 3.26106C15.0493 2.44567 14.5565 1.6681 13.9998 0.937041C13.1429 -0.139912 11.5751 -0.318271 10.4982 0.538697C10.3508 0.656025 10.2171 0.789666 10.0998 0.937041C9.53129 1.68329 9.0294 2.47801 8.59984 3.31206C7.29732 2.29688 5.81064 1.54337 4.22186 1.09304C3.47879 0.883791 2.6807 1.03159 2.06186 1.49303C1.4139 1.97143 1.02512 2.72382 1.00984 3.52904C0.845919 5.23557 1.05512 6.95739 1.62282 8.57504C0.599544 9.23898 -0.0127846 10.3803 -0.000175176 11.6001C-0.000175176 16.5331 7.33984 19.6661 9.99981 20.6391C9.70736 20.9037 9.45175 21.2064 9.23982 21.5391C8.92581 22.0342 8.92192 22.6651 9.22984 23.1641C9.55525 23.6876 10.1295 24.0042 10.7458 24.0001H13.2538C13.8721 24.0037 14.4475 23.6845 14.7718 23.1581C15.0797 22.6592 15.0758 22.0282 14.7618 21.5331C14.6413 21.3441 14.5048 21.1658 14.3538 21.0001H16.4998C17.3282 21.0001 17.9998 21.6716 17.9998 22.5001C17.9998 23.3285 18.6714 24.0001 19.4998 24.0001C20.3282 24.0001 20.9998 23.3285 20.9998 22.5001C20.9941 20.8203 20.0506 19.2845 18.5548 18.52C21.2818 16.9321 23.9998 14.6001 23.9998 11.6001ZM17.1825 5.80032C17.2123 5.75565 17.2798 5.67503 17.2798 5.67503C18.077 4.99642 19.0018 4.48403 19.9998 4.16804C20.0971 5.25662 19.9653 6.35349 19.6128 7.38803C19.3875 7.7057 19.04 7.91513 18.6538 7.96604C18.2625 8.0236 17.8647 7.91767 17.5538 7.67303C16.9341 7.25846 16.7679 6.42001 17.1825 5.80032ZM12.0508 3.35307C12.7352 4.30417 13.2433 5.37043 13.5508 6.50106C13.5508 7.32948 12.8792 8.00106 12.0508 8.00106C11.2224 8.00106 10.5508 7.32948 10.5508 6.50106C10.859 5.37062 11.367 4.30449 12.0508 3.35307ZM3.9684 4.16804C4.96647 4.48407 5.89126 4.99642 6.68842 5.67503C6.68842 5.67503 6.75592 5.75565 6.78578 5.80032C7.20034 6.42001 7.03407 7.25846 6.41439 7.67303C6.10351 7.91762 5.70573 8.0236 5.31437 7.96604C4.92822 7.91518 4.58073 7.7057 4.35536 7.38803C4.00295 6.35354 3.87109 5.25662 3.9684 4.16804ZM20.9998 11.6001C20.9998 13.5351 18.0758 15.4931 15.3458 16.8061C15.6384 16.1467 15.8512 15.4548 15.9798 14.7451C16.1151 13.9277 15.5622 13.1554 14.7448 13.0201C13.9274 12.8847 13.1551 13.4377 13.0198 14.2551C12.8269 15.135 12.4907 15.9772 12.0248 16.7481C11.5549 15.942 11.1979 15.0752 10.9637 14.1721C10.7826 13.3635 9.98031 12.8549 9.17176 13.036C8.36322 13.2172 7.85462 14.0195 8.03575 14.828C8.19854 15.5177 8.42725 16.1901 8.71876 16.836C5.97081 15.523 2.99982 13.5501 2.99982 11.6001C2.98768 11.2811 3.2364 11.0126 3.55539 11.0005C3.5642 11.0002 3.57301 11 3.58182 11.0001H20.4178C20.737 10.9976 20.9978 11.2544 21.0002 11.5736C21.0003 11.5824 21.0002 11.5913 20.9998 11.6001Z" fill="#374957"/>
</g>
<defs>
<clipPath id="clip0_405_1575">
<rect width="24" height="24" fill="white"/>
</clipPath>
</defs>
</svg>
