<svg width="24" height="24" viewBox="0 0 24 24" fill="none" xmlns="http://www.w3.org/2000/svg">
<g clip-path="url(#clip0_405_1404)">
<path d="M23.268 0.733638C22.9715 0.435839 22.6045 0.217945 22.2011 0.100266C21.7977 -0.0174126 21.3711 -0.0310455 20.961 0.0606383C18.3735 0.841023 16.0266 2.26552 14.14 4.20064L5.92199 12.4226C4.5958 11.7484 3.17708 11.2743 1.71199 11.0156C1.32039 10.9633 0.923937 11.0675 0.608737 11.3057C0.293536 11.5439 0.085044 11.8969 0.0285432 12.2879C-0.0279576 12.6789 0.0720957 13.0764 0.306973 13.3941C0.541849 13.7118 0.892581 13.924 1.28299 13.9846C2.9566 14.3021 4.5459 14.9641 5.94999 15.9286L2.99999 18.8796L2.56099 18.4396C2.2796 18.1582 1.89794 18.0002 1.49999 18.0002C1.10204 18.0002 0.720387 18.1582 0.438992 18.4396C0.157598 18.721 -0.000488275 19.1027 -0.000488281 19.5006C-0.000488287 19.8986 0.157598 20.2802 0.438992 20.5616L3.43899 23.5616C3.72039 23.843 4.10204 24.0011 4.49999 24.0011C4.69704 24.0011 4.89215 23.9623 5.0742 23.8869C5.25625 23.8115 5.42166 23.701 5.56099 23.5616C5.70032 23.4223 5.81085 23.2569 5.88626 23.0749C5.96166 22.8928 6.00047 22.6977 6.00047 22.5006C6.00047 22.3036 5.96166 22.1085 5.88626 21.9264C5.81085 21.7444 5.70032 21.579 5.56099 21.4396L5.12099 21.0006L8.07099 18.0496C9.0359 19.4536 9.69826 21.0429 10.016 22.7166C10.0679 23.0732 10.2464 23.3992 10.5189 23.635C10.7914 23.8708 11.1397 24.0006 11.5 24.0006C11.5716 24.0006 11.6431 23.9956 11.714 23.9856C11.9093 23.9578 12.0972 23.8918 12.2669 23.7912C12.4367 23.6907 12.5849 23.5576 12.7032 23.3997C12.8214 23.2418 12.9073 23.0621 12.956 22.871C13.0048 22.6798 13.0153 22.4809 12.987 22.2856C12.7284 20.8206 12.2542 19.4018 11.58 18.0756L19.8 9.85964C21.6812 7.93043 23.0984 5.59812 23.944 3.03964C24.0349 2.62945 24.0206 2.20292 23.9024 1.79973C23.7843 1.39655 23.566 1.02981 23.268 0.733638ZM17.676 7.73864L9.89999 15.5146C9.68799 15.2626 9.46799 15.0146 9.22699 14.7726C8.98599 14.5306 8.73799 14.3116 8.48599 14.1006L16.261 6.32464C17.5151 5.0733 18.9962 4.07244 20.625 3.37564C19.9279 5.00402 18.9271 6.48474 17.676 7.73864Z" fill="#374957"/>
</g>
<defs>
<clipPath id="clip0_405_1404">
<rect width="24" height="24" fill="white"/>
</clipPath>
</defs>
</svg>
