<svg width="24" height="24" viewBox="0 0 24 24" fill="none" xmlns="http://www.w3.org/2000/svg">
<g clip-path="url(#clip0_405_1480)">
<path d="M20.5062 0H16.513C15.686 0 15.0155 0.670453 15.0155 1.49747C15.0155 2.32448 15.686 2.99494 16.513 2.99494H18.888L13.3683 8.51456C9.51385 5.82952 4.21253 6.77752 1.52748 10.632C-1.15757 14.4864 -0.209568 19.7878 3.64487 22.4728C7.49931 25.1579 12.8007 24.2099 15.4857 20.3554C17.521 17.4338 17.521 13.5536 15.4857 10.632L21.0054 5.11233V7.4873C21.0054 8.31431 21.6758 8.98477 22.5028 8.98477C23.3298 8.98477 24.0003 8.31431 24.0003 7.4873V3.49406C24.0003 1.56436 22.4359 0 20.5062 0ZM8.52653 20.9644C5.49409 20.9644 3.03582 18.5062 3.03582 15.4737C3.03582 12.4413 5.49409 9.98302 8.52653 9.98302C11.559 9.98302 14.0172 12.4413 14.0172 15.4737C14.0139 18.5048 11.5576 20.9611 8.52653 20.9644Z" fill="#374957"/>
</g>
<defs>
<clipPath id="clip0_405_1480">
<rect width="24" height="24" fill="white"/>
</clipPath>
</defs>
</svg>
