<svg width="24" height="24" viewBox="0 0 24 24" fill="none" xmlns="http://www.w3.org/2000/svg">
<g clip-path="url(#clip0_405_1594)">
<path d="M19.227 0.000135005H17.31C16.683 -0.00132997 16.0619 0.12166 15.4827 0.361979C14.9036 0.602297 14.3778 0.955165 13.936 1.40014L10.4 4.93513C9.50728 5.83238 9.00424 7.04541 9.00004 8.31114V11.9821C6.36504 13.9351 3.35804 16.1881 2.92304 16.6231C2.51749 17.0191 2.22976 17.5198 2.09188 18.0696C1.95399 18.6194 1.97136 19.1966 2.14204 19.7371L0.442044 21.4371C0.160649 21.7185 0.00256347 22.1002 0.00256348 22.4981C0.00256348 22.8961 0.160649 23.2777 0.442044 23.5591C0.723439 23.8405 1.10509 23.9986 1.50304 23.9986C1.901 23.9986 2.28265 23.8405 2.56404 23.5591L4.26404 21.8591C4.80431 22.0297 5.3813 22.0472 5.93087 21.9095C6.48045 21.7718 6.98106 21.4843 7.37704 21.0791C7.81204 20.6441 10.066 17.6371 12.019 15.0011H15.69C16.3171 15.0026 16.9382 14.8796 17.5174 14.6393C18.0965 14.399 18.6222 14.0461 19.064 13.6011L22.6 10.0651C23.4928 9.16789 23.9958 7.95486 24 6.68914V4.77213C23.9985 3.50684 23.495 2.29383 22.6003 1.39922C21.7055 0.504614 20.4923 0.0014581 19.227 0.000135005ZM21 6.68914C20.9989 7.15916 20.8124 7.60977 20.481 7.94313L16.943 11.4801C16.7789 11.6453 16.5837 11.7764 16.3686 11.8656C16.1536 11.9549 15.9229 12.0006 15.69 12.0001H14.232L14.541 11.5801L18.561 7.56113C18.7004 7.4218 18.8109 7.25639 18.8863 7.07434C18.9617 6.8923 19.0005 6.69718 19.0005 6.50013C19.0005 6.30309 18.9617 6.10797 18.8863 5.92593C18.8109 5.74388 18.7004 5.57847 18.561 5.43914C18.4217 5.2998 18.2563 5.18928 18.0743 5.11387C17.8922 5.03847 17.6971 4.99965 17.5 4.99965C17.303 4.99965 17.1079 5.03847 16.9258 5.11387C16.7438 5.18928 16.5784 5.2998 16.439 5.43914L12.418 9.46114L12 9.76814V8.31114C12.0012 7.84111 12.1877 7.3905 12.519 7.05714L16.057 3.52013C16.2211 3.35492 16.4164 3.22389 16.6315 3.13463C16.8465 3.04538 17.0772 2.99966 17.31 3.00013H19.227C19.697 3.0004 20.1477 3.18714 20.4801 3.51937C20.8125 3.8516 20.9995 4.30216 21 4.77213V6.68914Z" fill="#374957"/>
</g>
<defs>
<clipPath id="clip0_405_1594">
<rect width="24" height="24" fill="white"/>
</clipPath>
</defs>
</svg>
