<svg width="24" height="24" viewBox="0 0 24 24" fill="none" xmlns="http://www.w3.org/2000/svg">
<g clip-path="url(#clip0_405_1502)">
<path d="M1.4429 21.8238C1.84292 22.5275 2.43266 23.1046 3.14486 23.4894C3.85706 23.8741 4.66304 24.051 5.4709 23.9998H18.5289C19.3368 24.051 20.1427 23.8741 20.8549 23.4894C21.5671 23.1046 22.1569 22.5275 22.5569 21.8238C22.9067 21.0841 23.0476 20.2628 22.9642 19.4488C22.8808 18.6349 22.5764 17.8592 22.0839 17.2058L13.8439 5.34277C14.3324 4.95922 14.6891 4.43291 14.8645 3.8371C15.0398 3.24129 15.025 2.60564 14.8221 2.01865C14.6191 1.43166 14.2383 0.922545 13.7324 0.562191C13.2266 0.201837 12.621 0.00817871 11.9999 0.00817871C11.3788 0.00817871 10.7732 0.201837 10.2674 0.562191C9.76154 0.922545 9.38065 1.43166 9.17775 2.01865C8.97484 2.60564 8.96002 3.24129 9.13534 3.8371C9.31067 4.43291 9.66741 4.95922 10.1559 5.34277L1.9169 17.2058C1.42403 17.859 1.11932 18.6346 1.03577 19.4487C0.952214 20.2627 1.09301 21.084 1.4429 21.8238ZM16.9539 15.0788L12.8419 20.9998H9.4419L15.2559 12.6308L16.9539 15.0788ZM19.8999 20.4338C19.6429 20.9258 18.9319 20.9998 18.5309 20.9998H16.4999L18.7859 17.7088L19.6249 18.9168C19.8005 19.1229 19.9184 19.3718 19.9667 19.6382C20.015 19.9047 19.9919 20.1791 19.8999 20.4338ZM4.3809 18.9168L11.9999 7.94777L13.4259 9.99977L5.7849 20.9998H5.4709C5.0709 20.9998 4.3589 20.9258 4.1019 20.4338C4.01019 20.1788 3.9877 19.9041 4.03671 19.6376C4.08572 19.3711 4.20448 19.1224 4.3809 18.9168Z" fill="#374957"/>
</g>
<defs>
<clipPath id="clip0_405_1502">
<rect width="24" height="24" fill="white"/>
</clipPath>
</defs>
</svg>
