<svg width="24" height="24" viewBox="0 0 24 24" fill="none" xmlns="http://www.w3.org/2000/svg">
<g clip-path="url(#clip0_405_1651)">
<path d="M24 10.0915L22.751 4.3075C22.4853 3.08294 21.807 1.98685 20.8296 1.20277C19.8522 0.418696 18.635 -0.0057571 17.382 0.000495347H6.618C5.36497 -0.0057571 4.14784 0.418696 3.17043 1.20277C2.19302 1.98685 1.51468 3.08294 1.249 4.3075L0.036 9.76649L0 11.0465C0.00452092 12.0498 0.358074 13.0203 1 13.7915V18.5005C1.00159 19.9587 1.58156 21.3567 2.61267 22.3878C3.64377 23.4189 5.0418 23.9989 6.5 24.0005H17.5C18.9582 23.9989 20.3562 23.4189 21.3873 22.3878C22.4184 21.3567 22.9984 19.9587 23 18.5005V13.7915C23.6419 13.0203 23.9955 12.0498 24 11.0465V10.0915ZM3 10.2565L4.177 4.9565C4.30074 4.40145 4.61002 3.90517 5.0538 3.54957C5.49757 3.19397 6.04933 3.00029 6.618 3.0005H7V4.5005C7 4.89832 7.15804 5.27985 7.43934 5.56116C7.72064 5.84246 8.10218 6.0005 8.5 6.0005C8.89782 6.0005 9.27936 5.84246 9.56066 5.56116C9.84196 5.27985 10 4.89832 10 4.5005V3.0005H14V4.5005C14 4.89832 14.158 5.27985 14.4393 5.56116C14.7206 5.84246 15.1022 6.0005 15.5 6.0005C15.8978 6.0005 16.2794 5.84246 16.5607 5.56116C16.842 5.27985 17 4.89832 17 4.5005V3.0005H17.382C17.9509 3.00039 18.5029 3.19436 18.9467 3.55035C19.3905 3.90635 19.6997 4.40308 19.823 4.9585L21 10.2565V11.0465C20.9904 11.4017 20.8425 11.7392 20.5878 11.987C20.3332 12.2349 19.9919 12.3736 19.6365 12.3736C19.2811 12.3736 18.9398 12.2349 18.6852 11.987C18.4305 11.7392 18.2826 11.4017 18.273 11.0465C18.2796 10.72 18.221 10.3955 18.1006 10.0919C17.9802 9.78834 17.8005 9.51184 17.5719 9.27861C17.3433 9.04537 17.0705 8.86009 16.7694 8.73359C16.4683 8.6071 16.1451 8.54195 15.8185 8.54195C15.4919 8.54195 15.1687 8.6071 14.8676 8.73359C14.5665 8.86009 14.2937 9.04537 14.0651 9.27861C13.8365 9.51184 13.6568 9.78834 13.5364 10.0919C13.416 10.3955 13.3574 10.72 13.364 11.0465C13.364 11.4082 13.2203 11.7552 12.9645 12.011C12.7087 12.2668 12.3618 12.4105 12 12.4105C11.6382 12.4105 11.2913 12.2668 11.0355 12.011C10.7797 11.7552 10.636 11.4082 10.636 11.0465C10.6426 10.72 10.584 10.3955 10.4636 10.0919C10.3432 9.78834 10.1635 9.51184 9.93488 9.27861C9.7063 9.04537 9.43349 8.86009 9.13242 8.73359C8.83135 8.6071 8.50807 8.54195 8.1815 8.54195C7.85494 8.54195 7.53165 8.6071 7.23058 8.73359C6.92951 8.86009 6.6567 9.04537 6.42812 9.27861C6.19955 9.51184 6.0198 9.78834 5.89942 10.0919C5.77903 10.3955 5.72041 10.72 5.727 11.0465C5.71738 11.4017 5.5695 11.7392 5.31485 11.987C5.06019 12.2349 4.71886 12.3736 4.3635 12.3736C4.00814 12.3736 3.66681 12.2349 3.41215 11.987C3.1575 11.7392 3.00962 11.4017 3 11.0465V10.2565ZM17.5 21.0005H6.5C5.83696 21.0005 5.20107 20.7371 4.73223 20.2683C4.26339 19.7994 4 19.1635 4 18.5005V15.3725C4.122 15.3835 4.239 15.4095 4.364 15.4095C5.14356 15.4089 5.90876 15.1997 6.58015 14.8035C7.25153 14.4073 7.80463 13.8386 8.182 13.1565C8.55903 13.8389 9.11206 14.4078 9.78353 14.8039C10.455 15.2001 11.2204 15.409 12 15.409C12.7796 15.409 13.545 15.2001 14.2165 14.8039C14.8879 14.4078 15.441 13.8389 15.818 13.1565C16.1954 13.8386 16.7485 14.4073 17.4199 14.8035C18.0912 15.1997 18.8564 15.4089 19.636 15.4095C19.761 15.4095 19.878 15.3835 20 15.3725V18.5005C20 18.8288 19.9353 19.1539 19.8097 19.4572C19.6841 19.7605 19.4999 20.0361 19.2678 20.2683C19.0356 20.5004 18.76 20.6846 18.4567 20.8102C18.1534 20.9358 17.8283 21.0005 17.5 21.0005Z" fill="#374957"/>
</g>
<defs>
<clipPath id="clip0_405_1651">
<rect width="24" height="24" fill="white"/>
</clipPath>
</defs>
</svg>
