<svg width="24" height="24" viewBox="0 0 24 24" fill="none" xmlns="http://www.w3.org/2000/svg">
<g clip-path="url(#clip0_405_1336)">
<path d="M5.5 0H3.5C2.57174 0 1.6815 0.368749 1.02513 1.02513C0.368749 1.6815 0 2.57174 0 3.5L0 5.5C0.00226823 6.33771 0.305439 7.14673 0.854266 7.77962C1.40309 8.41252 2.16104 8.82716 2.99 8.948V9.493C2.98814 9.89031 3.14398 10.2721 3.42332 10.5547C3.70267 10.8372 4.0827 10.9974 4.48 11C4.67707 11.0011 4.87241 10.9633 5.05487 10.8888C5.23732 10.8143 5.40332 10.7046 5.54336 10.566C5.68341 10.4273 5.79476 10.2624 5.87105 10.0807C5.94734 9.89902 5.98708 9.70407 5.988 9.507V8.95C6.73251 8.84485 7.42305 8.50172 7.95653 7.97185C8.49001 7.44198 8.8378 6.75379 8.948 6.01H9.492C9.88948 6.01213 10.2716 5.8564 10.5543 5.57703C10.8371 5.29766 10.9974 4.91748 11 4.52C11.0011 4.32302 10.9633 4.12775 10.8889 3.94536C10.8145 3.76297 10.7049 3.59702 10.5663 3.45699C10.4278 3.31696 10.263 3.20559 10.0814 3.12924C9.89983 3.05288 9.70498 3.01305 9.508 3.012H8.95C8.83394 2.1787 8.42109 1.41526 7.7873 0.861931C7.15351 0.308603 6.34134 0.00255158 5.5 0V0ZM6 5.5C6 5.63261 5.94732 5.75979 5.85355 5.85355C5.75979 5.94732 5.63261 6 5.5 6H3.5C3.36739 6 3.24021 5.94732 3.14645 5.85355C3.05268 5.75979 3 5.63261 3 5.5V3.5C3 3.36739 3.05268 3.24021 3.14645 3.14645C3.24021 3.05268 3.36739 3 3.5 3H5.5C5.63261 3 5.75979 3.05268 5.85355 3.14645C5.94732 3.24021 6 3.36739 6 3.5V5.5Z" fill="#374957"/>
<path d="M20.4999 0H18.4999C17.6622 0.00226823 16.8532 0.305439 16.2203 0.854266C15.5874 1.40309 15.1727 2.16104 15.0519 2.99H14.5079C14.1104 2.98787 13.7283 3.1436 13.4456 3.42297C13.1628 3.70234 13.0025 4.08252 12.9999 4.48C12.9988 4.67698 13.0366 4.87225 13.111 5.05464C13.1854 5.23703 13.295 5.40298 13.4336 5.54301C13.5721 5.68304 13.7369 5.79441 13.9185 5.87076C14.1001 5.94711 14.2949 5.98695 14.4919 5.988H15.0499C15.1554 6.73215 15.4988 7.42224 16.0286 7.95532C16.5584 8.4884 17.2464 8.83591 17.9899 8.946V9.491C17.9875 9.88865 18.1431 10.271 18.4225 10.554C18.7019 10.8369 19.0822 10.9974 19.4799 11C19.677 11.0011 19.8723 10.9633 20.0548 10.8888C20.2372 10.8143 20.4032 10.7046 20.5433 10.566C20.6833 10.4273 20.7947 10.2624 20.8709 10.0807C20.9472 9.89902 20.987 9.70407 20.9879 9.507V8.95C21.8212 8.83394 22.5846 8.42109 23.138 7.7873C23.6913 7.15351 23.9973 6.34134 23.9999 5.5V3.5C23.9999 2.57174 23.6312 1.6815 22.9748 1.02513C22.3184 0.368749 21.4282 0 20.4999 0ZM20.9999 5.5C20.9999 5.63261 20.9472 5.75979 20.8535 5.85355C20.7597 5.94732 20.6325 6 20.4999 6H18.4999C18.3673 6 18.2401 5.94732 18.1463 5.85355C18.0526 5.75979 17.9999 5.63261 17.9999 5.5V3.5C17.9999 3.36739 18.0526 3.24021 18.1463 3.14645C18.2401 3.05268 18.3673 3 18.4999 3H20.4999C20.6325 3 20.7597 3.05268 20.8535 3.14645C20.9472 3.24021 20.9999 3.36739 20.9999 3.5V5.5Z" fill="#374957"/>
<path d="M21.0099 15.0528V14.5078C21.0118 14.1105 20.8559 13.7287 20.5766 13.4462C20.2972 13.1636 19.9172 13.0035 19.5199 13.0008C19.3228 12.9998 19.1275 13.0376 18.945 13.112C18.7626 13.1865 18.5966 13.2962 18.4565 13.4348C18.3165 13.5735 18.2051 13.7384 18.1288 13.9201C18.0526 14.1018 18.0128 14.2967 18.0119 14.4938V15.0508C17.2679 15.1566 16.5781 15.5 16.0452 16.0298C15.5123 16.5596 15.1649 17.2475 15.0549 17.9908H14.5109C14.3138 17.9894 14.1184 18.0268 13.9358 18.1009C13.7532 18.175 13.587 18.2843 13.4467 18.4227C13.3063 18.5611 13.1946 18.7258 13.118 18.9073C13.0413 19.0889 13.0012 19.2837 12.9999 19.4808C12.9988 19.6778 13.0366 19.8731 13.111 20.0555C13.1854 20.2378 13.295 20.4038 13.4336 20.5438C13.5721 20.6839 13.7369 20.7952 13.9185 20.8716C14.1001 20.9479 14.2949 20.9878 14.4919 20.9888H15.0499C15.166 21.8221 15.5788 22.5856 16.2126 23.1389C16.8464 23.6922 17.6586 23.9983 18.4999 24.0008H20.4999C21.4282 24.0008 22.3184 23.6321 22.9748 22.9757C23.6312 22.3193 23.9999 21.4291 23.9999 20.5008V18.5008C23.9976 17.6631 23.6945 16.8541 23.1456 16.2212C22.5968 15.5883 21.8389 15.1737 21.0099 15.0528ZM20.9999 20.5008C20.9999 20.6334 20.9472 20.7606 20.8535 20.8544C20.7597 20.9481 20.6325 21.0008 20.4999 21.0008H18.4999C18.3673 21.0008 18.2401 20.9481 18.1463 20.8544C18.0526 20.7606 17.9999 20.6334 17.9999 20.5008V18.5008C17.9999 18.3682 18.0526 18.241 18.1463 18.1473C18.2401 18.0535 18.3673 18.0008 18.4999 18.0008H20.4999C20.6325 18.0008 20.7597 18.0535 20.8535 18.1473C20.9472 18.241 20.9999 18.3682 20.9999 18.5008V20.5008Z" fill="#374957"/>
<path d="M6.01 15.0528V14.5078C6.01186 14.1105 5.85602 13.7287 5.57668 13.4462C5.29733 13.1636 4.9173 13.0035 4.52 13.0008C4.32293 12.9998 4.12759 13.0376 3.94513 13.112C3.76268 13.1865 3.59668 13.2962 3.45664 13.4348C3.31659 13.5735 3.20524 13.7384 3.12895 13.9201C3.05266 14.1018 3.01292 14.2967 3.012 14.4938V15.0508C2.1787 15.1669 1.41526 15.5797 0.861931 16.2135C0.308603 16.8473 0.00255158 17.6595 0 18.5008L0 20.5008C0 21.4291 0.368749 22.3193 1.02513 22.9757C1.6815 23.6321 2.57174 24.0008 3.5 24.0008H5.5C6.33771 23.9985 7.14673 23.6954 7.77962 23.1465C8.41252 22.5977 8.82716 21.8398 8.948 21.0108H9.492C9.88948 21.0129 10.2716 20.8572 10.5543 20.5778C10.8371 20.2985 10.9974 19.9183 11 19.5208C11.0011 19.3238 10.9633 19.1286 10.8889 18.9462C10.8145 18.7638 10.7049 18.5978 10.5663 18.4578C10.4278 18.3178 10.263 18.2064 10.0814 18.1301C9.89983 18.0537 9.70498 18.0139 9.508 18.0128H8.95C8.84485 17.2683 8.50172 16.5778 7.97185 16.0443C7.44198 15.5108 6.75379 15.163 6.01 15.0528ZM6 20.5008C6 20.6334 5.94732 20.7606 5.85355 20.8544C5.75979 20.9481 5.63261 21.0008 5.5 21.0008H3.5C3.36739 21.0008 3.24021 20.9481 3.14645 20.8544C3.05268 20.7606 3 20.6334 3 20.5008V18.5008C3 18.3682 3.05268 18.241 3.14645 18.1473C3.24021 18.0535 3.36739 18.0008 3.5 18.0008H5.5C5.63261 18.0008 5.75979 18.0535 5.85355 18.1473C5.94732 18.241 6 18.3682 6 18.5008V20.5008Z" fill="#374957"/>
</g>
<defs>
<clipPath id="clip0_405_1336">
<rect width="24" height="24" fill="white"/>
</clipPath>
</defs>
</svg>
