<svg width="24" height="24" viewBox="0 0 24 24" fill="none" xmlns="http://www.w3.org/2000/svg">
<g clip-path="url(#clip0_405_1564)">
<path d="M24 15.5V18.5C23.9984 19.9582 23.4184 21.3562 22.3873 22.3873C21.3562 23.4184 19.9582 23.9984 18.5 24H5.5C4.0418 23.9984 2.64377 23.4184 1.61267 22.3873C0.581561 21.3562 0.00158817 19.9582 0 18.5L0 8.5C0.00158817 7.0418 0.581561 5.64377 1.61267 4.61267C2.64377 3.58156 4.0418 3.00159 5.5 3H7.5C7.89782 3 8.27936 3.15804 8.56066 3.43934C8.84196 3.72064 9 4.10218 9 4.5C9 4.89782 8.84196 5.27936 8.56066 5.56066C8.27936 5.84196 7.89782 6 7.5 6H5.5C5.04646 6.0015 4.60191 6.12671 4.21425 6.36212C3.82659 6.59754 3.51049 6.93425 3.3 7.336L10.231 14.268C10.6189 14.6447 11.1165 14.8884 11.652 14.9639C12.1874 15.0394 12.733 14.9428 13.21 14.688C13.558 14.4951 13.9683 14.4482 14.3508 14.5579C14.7333 14.6675 15.0566 14.9245 15.2495 15.2725C15.4424 15.6205 15.4893 16.0308 15.3796 16.4133C15.27 16.7958 15.013 17.1191 14.665 17.312C13.6194 17.8871 12.4157 18.108 11.2341 17.9418C10.0524 17.7756 8.95637 17.2312 8.11 16.39L3 11.278V18.5C3 19.163 3.26339 19.7989 3.73223 20.2678C4.20107 20.7366 4.83696 21 5.5 21H18.5C19.163 21 19.7989 20.7366 20.2678 20.2678C20.7366 19.7989 21 19.163 21 18.5V15.5C21 15.1022 21.158 14.7206 21.4393 14.4393C21.7206 14.158 22.1022 14 22.5 14C22.8978 14 23.2794 14.158 23.5607 14.4393C23.842 14.7206 24 15.1022 24 15.5ZM11 6.5C11.0021 4.77674 11.6876 3.12467 12.9061 1.90614C14.1247 0.687616 15.7767 0.00211703 17.5 0C26.1 0.305 26.1 12.7 17.5 13C15.7767 12.9979 14.1247 12.3124 12.9061 11.0939C11.6876 9.87533 11.0021 8.22326 11 6.5ZM21 6.5C20.996 6.10259 20.9236 5.70885 20.786 5.336L16.336 9.786C16.8627 9.97173 17.4261 10.0287 17.9793 9.95227C18.5325 9.8758 19.0593 9.66807 19.5159 9.34643C19.9724 9.02479 20.3453 8.59858 20.6035 8.1034C20.8617 7.60822 20.9976 7.05844 21 6.5ZM14 6.5C14.004 6.89741 14.0764 7.29115 14.214 7.664L18.664 3.214C18.1373 3.02827 17.5739 2.97126 17.0207 3.04773C16.4675 3.1242 15.9407 3.33193 15.4841 3.65357C15.0276 3.97521 14.6547 4.40142 14.3965 4.8966C14.1383 5.39178 14.0024 5.94156 14 6.5Z" fill="#374957"/>
</g>
<defs>
<clipPath id="clip0_405_1564">
<rect width="24" height="24" fill="white"/>
</clipPath>
</defs>
</svg>
