<svg width="24" height="24" viewBox="0 0 24 24" fill="none" xmlns="http://www.w3.org/2000/svg">
<g clip-path="url(#clip0_405_1514)">
<path d="M18.5 3H5.5C4.04131 3 2.64236 3.57946 1.61091 4.61091C0.579463 5.64236 0 7.04131 0 8.5L0 11H2.006C2.26963 11 2.52245 11.1047 2.70886 11.2911C2.89528 11.4775 3 11.7304 3 11.994C3 12.1245 2.97428 12.2537 2.92432 12.3742C2.87435 12.4948 2.80112 12.6043 2.7088 12.6965C2.61649 12.7887 2.5069 12.8619 2.38631 12.9117C2.26572 12.9615 2.13649 12.9871 2.006 12.987H0V15.5C0 16.9587 0.579463 18.3576 1.61091 19.3891C2.64236 20.4205 4.04131 21 5.5 21H18.5C19.9587 21 21.3576 20.4205 22.3891 19.3891C23.4205 18.3576 24 16.9587 24 15.5V8.5C24 7.04131 23.4205 5.64236 22.3891 4.61091C21.3576 3.57946 19.9587 3 18.5 3ZM21 15.5C21.0102 16.1518 20.7614 16.781 20.3083 17.2497C19.8552 17.7183 19.2348 17.9882 18.583 18H6.981V6H18.581C19.2331 6.01131 19.8541 6.28092 20.3076 6.74963C20.7612 7.21835 21.0102 7.84787 21 8.5V15.5Z" fill="#374957"/>
</g>
<defs>
<clipPath id="clip0_405_1514">
<rect width="24" height="24" fill="white"/>
</clipPath>
</defs>
</svg>
