<svg width="24" height="24" viewBox="0 0 24 24" fill="none" xmlns="http://www.w3.org/2000/svg">
<g clip-path="url(#clip0_405_1646)">
<path d="M20.9998 13.5C20.4116 13.5005 19.8366 13.6744 19.3468 14L18.3278 13.491C18.5835 12.4065 18.5562 11.2744 18.2484 10.2034C17.9405 9.13252 17.3625 8.15871 16.5699 7.37552C15.7773 6.59233 14.7966 6.02606 13.7221 5.73107C12.6475 5.43608 11.5152 5.42228 10.4338 5.691L9.8338 4.61C10.1875 4.05253 10.3474 3.39395 10.2888 2.73635C10.2301 2.07875 9.95621 1.45886 9.50946 0.972768C9.06271 0.486673 8.46809 0.161522 7.81777 0.0477181C7.16744 -0.0660862 6.49774 0.0378115 5.91246 0.343306C5.32719 0.648801 4.85903 1.13883 4.58056 1.73744C4.30209 2.33604 4.22886 3.00979 4.37222 3.65424C4.51558 4.2987 4.86752 4.87787 5.3735 5.30197C5.87947 5.72608 6.51122 5.97143 7.1708 6L7.7708 7.074C6.60177 8.07585 5.82697 9.46067 5.5848 10.9811C5.34263 12.5015 5.64887 14.0585 6.4488 15.374L3.6398 18.069C2.99511 17.928 2.32192 18.0035 1.7245 18.2839C1.12708 18.5642 0.638759 19.0337 0.335179 19.6197C0.0315998 20.2056 -0.0703013 20.8753 0.0452587 21.5251C0.160819 22.1748 0.487391 22.7683 0.974396 23.2136C1.4614 23.659 2.08166 23.9313 2.73911 23.9885C3.39656 24.0456 4.0545 23.8844 4.61105 23.5298C5.16759 23.1751 5.59167 22.6469 5.81761 22.0268C6.04354 21.4068 6.05873 20.7295 5.8608 20.1L8.5538 17.514C9.88338 18.3474 11.4699 18.6708 13.0196 18.4244C14.5693 18.1781 15.9772 17.3786 16.9828 16.174L18.0058 16.685C18.0419 17.2694 18.2482 17.8304 18.5993 18.2989C18.9504 18.7675 19.4309 19.123 19.9816 19.3218C20.5323 19.5206 21.1291 19.5539 21.6985 19.4176C22.2679 19.2813 22.7849 18.9814 23.1859 18.5548C23.587 18.1282 23.8544 17.5936 23.9552 17.0169C24.0561 16.4401 23.986 15.8465 23.7536 15.3091C23.5212 14.7718 23.1366 14.3141 22.6473 13.9927C22.158 13.6712 21.5853 13.4999 20.9998 13.5ZM11.9998 15.5C11.3076 15.5 10.6309 15.2947 10.0553 14.9101C9.47974 14.5256 9.03113 13.9789 8.76623 13.3394C8.50132 12.6999 8.43201 11.9961 8.56706 11.3172C8.7021 10.6383 9.03545 10.0146 9.52493 9.52513C10.0144 9.03564 10.6381 8.7023 11.317 8.56725C11.9959 8.4322 12.6997 8.50152 13.3392 8.76642C13.9787 9.03133 14.5254 9.47993 14.9099 10.0555C15.2945 10.6311 15.4998 11.3078 15.4998 12C15.4998 12.9283 15.1311 13.8185 14.4747 14.4749C13.8183 15.1313 12.9281 15.5 11.9998 15.5Z" fill="#374957"/>
</g>
<defs>
<clipPath id="clip0_405_1646">
<rect width="24" height="24" fill="white"/>
</clipPath>
</defs>
</svg>
