<svg width="24" height="24" viewBox="0 0 24 24" fill="none" xmlns="http://www.w3.org/2000/svg">
<g clip-path="url(#clip0_405_1822)">
<path d="M17.5001 0H8.50012C7.4874 0.00110132 6.49464 0.281796 5.63127 0.811144C4.7679 1.34049 4.06745 2.09794 3.60712 3H2.50012C2.1023 3 1.72077 3.15804 1.43946 3.43934C1.15816 3.72064 1.00012 4.10218 1.00012 4.5C1.00012 4.89782 1.15816 5.27936 1.43946 5.56066C1.72077 5.84196 2.1023 6 2.50012 6H3.00012V8H2.50012C2.1023 8 1.72077 8.15804 1.43946 8.43934C1.15816 8.72064 1.00012 9.10218 1.00012 9.5C1.00012 9.89782 1.15816 10.2794 1.43946 10.5607C1.72077 10.842 2.1023 11 2.50012 11H3.00012V13H2.50012C2.1023 13 1.72077 13.158 1.43946 13.4393C1.15816 13.7206 1.00012 14.1022 1.00012 14.5C1.00012 14.8978 1.15816 15.2794 1.43946 15.5607C1.72077 15.842 2.1023 16 2.50012 16H3.00012V18H2.50012C2.1023 18 1.72077 18.158 1.43946 18.4393C1.15816 18.7206 1.00012 19.1022 1.00012 19.5C1.00012 19.8978 1.15816 20.2794 1.43946 20.5607C1.72077 20.842 2.1023 21 2.50012 21H3.60712C4.06745 21.9021 4.7679 22.6595 5.63127 23.1889C6.49464 23.7182 7.4874 23.9989 8.50012 24H17.5001C18.9583 23.9984 20.3563 23.4184 21.3875 22.3873C22.4186 21.3562 22.9985 19.9582 23.0001 18.5V5.5C22.9985 4.0418 22.4186 2.64377 21.3875 1.61267C20.3563 0.581561 18.9583 0.00158817 17.5001 0V0ZM20.0001 18.5C20.0001 19.163 19.7367 19.7989 19.2679 20.2678C18.799 20.7366 18.1632 21 17.5001 21H8.50012C7.83708 21 7.2012 20.7366 6.73236 20.2678C6.26351 19.7989 6.00012 19.163 6.00012 18.5V5.5C6.00012 4.83696 6.26351 4.20107 6.73236 3.73223C7.2012 3.26339 7.83708 3 8.50012 3H17.5001C18.1632 3 18.799 3.26339 19.2679 3.73223C19.7367 4.20107 20.0001 4.83696 20.0001 5.5V18.5ZM10.5001 9.5C10.5001 8.83696 10.7635 8.20107 11.2324 7.73223C11.7012 7.26339 12.3371 7 13.0001 7C13.6632 7 14.299 7.26339 14.7679 7.73223C15.2367 8.20107 15.5001 8.83696 15.5001 9.5C15.5001 10.163 15.2367 10.7989 14.7679 11.2678C14.299 11.7366 13.6632 12 13.0001 12C12.3371 12 11.7012 11.7366 11.2324 11.2678C10.7635 10.7989 10.5001 10.163 10.5001 9.5ZM16.9881 16.232C17.0032 16.3282 16.997 16.4266 16.9699 16.5202C16.9428 16.6137 16.8955 16.7002 16.8313 16.7735C16.7671 16.8467 16.6876 16.905 16.5984 16.9441C16.5092 16.9833 16.4125 17.0024 16.3151 17H9.65412C9.55674 17.0024 9.46003 16.9833 9.37083 16.9441C9.28164 16.905 9.20212 16.8467 9.13793 16.7735C9.07373 16.7002 9.02641 16.6137 8.99931 16.5202C8.97222 16.4266 8.96601 16.3282 8.98112 16.232C9.84212 11.965 16.1281 11.968 16.9881 16.232Z" fill="#374957"/>
</g>
<defs>
<clipPath id="clip0_405_1822">
<rect width="24" height="24" fill="white"/>
</clipPath>
</defs>
</svg>
