<svg width="24" height="24" viewBox="0 0 24 24" fill="none" xmlns="http://www.w3.org/2000/svg">
<g clip-path="url(#clip0_405_1557)">
<path d="M24 12.5V18.5C23.9984 19.9582 23.4184 21.3562 22.3873 22.3873C21.3562 23.4184 19.9582 23.9984 18.5 24H5.5C4.0418 23.9984 2.64377 23.4184 1.61267 22.3873C0.581561 21.3562 0.00158817 19.9582 0 18.5L0 8.5C0.00158817 7.0418 0.581561 5.64377 1.61267 4.61267C2.64377 3.58156 4.0418 3.00159 5.5 3H9.5C9.89782 3 10.2794 3.15804 10.5607 3.43934C10.842 3.72064 11 4.10218 11 4.5C11 4.89782 10.842 5.27936 10.5607 5.56066C10.2794 5.84196 9.89782 6 9.5 6H5.5C5.04646 6.0015 4.60191 6.12671 4.21425 6.36212C3.82659 6.59754 3.51049 6.93425 3.3 7.336L10.231 14.268C10.7075 14.7223 11.3406 14.9758 11.999 14.9758C12.6574 14.9758 13.2905 14.7223 13.767 14.268L14.991 12.968C15.1263 12.8247 15.2884 12.7095 15.4682 12.6289C15.648 12.5483 15.8419 12.5039 16.0389 12.4982C16.2358 12.4926 16.432 12.5257 16.6161 12.5959C16.8002 12.666 16.9687 12.7717 17.112 12.907C17.2553 13.0423 17.3705 13.2044 17.4511 13.3842C17.5317 13.564 17.5761 13.7579 17.5818 13.9549C17.5874 14.1518 17.5543 14.348 17.4841 14.5321C17.414 14.7162 17.3083 14.8847 17.173 15.028L15.918 16.356C15.4074 16.8708 14.8005 17.28 14.1317 17.5602C13.463 17.8404 12.7457 17.9862 12.0206 17.9891C11.2956 17.9921 10.5771 17.8522 9.90606 17.5775C9.23508 17.3028 8.62477 16.8986 8.11 16.388L3 11.278V18.5C3 19.163 3.26339 19.7989 3.73223 20.2678C4.20107 20.7366 4.83696 21 5.5 21H18.5C19.163 21 19.7989 20.7366 20.2678 20.2678C20.7366 19.7989 21 19.163 21 18.5V12.5C21 12.1022 21.158 11.7206 21.4393 11.4393C21.7206 11.158 22.1022 11 22.5 11C22.8978 11 23.2794 11.158 23.5607 11.4393C23.842 11.7206 24 12.1022 24 12.5ZM14.5 7H17V9.5C17 9.89782 17.158 10.2794 17.4393 10.5607C17.7206 10.842 18.1022 11 18.5 11C18.8978 11 19.2794 10.842 19.5607 10.5607C19.842 10.2794 20 9.89782 20 9.5V7H22.5C22.8978 7 23.2794 6.84196 23.5607 6.56066C23.842 6.27936 24 5.89782 24 5.5C24 5.10218 23.842 4.72064 23.5607 4.43934C23.2794 4.15804 22.8978 4 22.5 4H20V1.5C20 1.10218 19.842 0.720644 19.5607 0.43934C19.2794 0.158035 18.8978 0 18.5 0C18.1022 0 17.7206 0.158035 17.4393 0.43934C17.158 0.720644 17 1.10218 17 1.5V4H14.5C14.1022 4 13.7206 4.15804 13.4393 4.43934C13.158 4.72064 13 5.10218 13 5.5C13 5.89782 13.158 6.27936 13.4393 6.56066C13.7206 6.84196 14.1022 7 14.5 7Z" fill="#374957"/>
</g>
<defs>
<clipPath id="clip0_405_1557">
<rect width="24" height="24" fill="white"/>
</clipPath>
</defs>
</svg>
