<svg width="24" height="24" viewBox="0 0 24 24" fill="none" xmlns="http://www.w3.org/2000/svg">
<path d="M8.50006 22.4367C8.18305 22.4367 7.87416 22.3364 7.61774 22.15C7.36131 21.9636 7.17053 21.7007 7.07279 21.3992C6.97504 21.0976 6.97535 20.7728 7.07368 20.4714C7.172 20.1701 7.36328 19.9076 7.62006 19.7217C10.1321 17.9017 10.4851 14.5407 10.4981 11.4927C10.4999 11.0957 10.659 10.7157 10.9406 10.4358C11.2221 10.156 11.6031 9.99913 12.0001 9.99967H12.0061C12.2031 10.0005 12.3981 10.0401 12.5799 10.1162C12.7616 10.1924 12.9266 10.3036 13.0653 10.4436C13.2041 10.5835 13.3139 10.7495 13.3885 10.9319C13.4631 11.1143 13.501 11.3096 13.5001 11.5067C13.4901 13.8067 13.4671 19.1927 9.38006 22.1507C9.12461 22.3372 8.81635 22.4373 8.50006 22.4367ZM14.5281 23.4307C15.341 22.4178 16.0091 21.2967 16.5131 20.0997C16.6687 19.7334 16.6726 19.3203 16.5236 18.9512C16.3747 18.5822 16.0853 18.2873 15.7191 18.1317C15.3528 17.976 14.9397 17.9722 14.5706 18.1211C14.2015 18.27 13.9067 18.5594 13.7511 18.9257C13.3586 19.8657 12.8365 20.7462 12.2001 21.5417C11.9496 21.8508 11.8321 22.2467 11.8736 22.6424C11.915 23.0381 12.112 23.4012 12.4211 23.6517C12.7302 23.9022 13.1261 24.0196 13.5218 23.9782C13.9175 23.9367 14.2806 23.7398 14.5311 23.4307H14.5281ZM17.9361 13.5927C18.0001 12.5717 18.0001 11.6627 18.0001 10.9997C18.0002 10.0397 17.7701 9.09367 17.3289 8.24108C16.8877 7.38848 16.2484 6.65419 15.4646 6.09987C14.6809 5.54555 13.7755 5.18739 12.8247 5.05545C11.8738 4.92352 10.9051 5.02167 10.0001 5.34167C9.81133 5.40494 9.63709 5.50515 9.48748 5.63644C9.33787 5.76774 9.21589 5.9275 9.12865 6.10641C9.0414 6.28532 8.99064 6.47981 8.97932 6.67854C8.968 6.87727 8.99634 7.07626 9.0627 7.26393C9.12906 7.45159 9.23211 7.62417 9.36584 7.77161C9.49956 7.91904 9.6613 8.03839 9.84162 8.12269C10.0219 8.20699 10.2172 8.25456 10.4161 8.26263C10.615 8.27069 10.8135 8.23909 11.0001 8.16967C11.4527 8.00964 11.9371 7.96058 12.4126 8.02659C12.8881 8.09261 13.3408 8.27178 13.7328 8.54906C14.1247 8.82633 14.4443 9.19361 14.6648 9.62004C14.8853 10.0465 15.0003 10.5196 15.0001 10.9997C15.0001 11.6587 15.0001 12.4787 14.9421 13.4067C14.9295 13.6036 14.9558 13.801 15.0197 13.9877C15.0835 14.1744 15.1835 14.3467 15.314 14.4947C15.4445 14.6427 15.603 14.7634 15.7802 14.8501C15.9575 14.9367 16.1501 14.9876 16.3471 14.9997C16.3777 14.9997 16.4087 14.9997 16.4401 14.9997C16.8218 14.9996 17.1891 14.8541 17.4672 14.5927C17.7454 14.3313 17.9134 13.9736 17.9371 13.5927H17.9361ZM4.69106 18.9557C5.34249 18.8795 5.97105 18.669 6.53706 18.3377C8.97806 16.8727 8.99006 13.7707 9.00006 11.5057C9.00085 11.3086 8.9628 11.1133 8.88808 10.931C8.81337 10.7486 8.70345 10.5828 8.56461 10.4429C8.42578 10.303 8.26074 10.1919 8.07894 10.1159C7.89714 10.0398 7.70213 10.0003 7.50506 9.99967H7.50006C7.10327 9.99966 6.72265 10.1569 6.44152 10.4369C6.16038 10.7169 6.00165 11.0969 6.00006 11.4937C5.99106 13.8787 5.82806 15.2657 5.00006 15.7647C4.78801 15.8815 4.5548 15.9549 4.31406 15.9807C3.93599 16.0288 3.59041 16.219 3.34751 16.5127C3.10461 16.8064 2.98261 17.1815 3.00629 17.5619C3.02996 17.9422 3.19755 18.2993 3.47499 18.5606C3.75244 18.8219 4.11894 18.9678 4.50006 18.9687C4.56395 18.9687 4.62777 18.9644 4.69106 18.9557ZM20.7191 23.1277C22.3498 19.2982 23.1282 15.1599 23.0001 10.9997C23.0015 9.61148 22.7388 8.23569 22.2261 6.94567C22.0791 6.57595 21.7914 6.27975 21.426 6.12222C21.0607 5.96469 20.6478 5.95874 20.2781 6.10567C19.9083 6.2526 19.6121 6.54038 19.4546 6.9057C19.2971 7.27102 19.2911 7.68395 19.4381 8.05367C19.8109 8.99103 20.0016 9.99087 20.0001 10.9997C20.1215 14.7258 19.4372 18.4342 17.9941 21.8717C17.8275 22.233 17.8113 22.6457 17.9491 23.019C18.0868 23.3923 18.3672 23.6956 18.7286 23.8622C19.0899 24.0287 19.5026 24.0449 19.8759 23.9072C20.2492 23.7694 20.5525 23.489 20.7191 23.1277ZM4.00006 12.4997V10.9997C4.00021 9.61611 4.35918 8.25625 5.04191 7.05288C5.72463 5.84951 6.70778 4.84377 7.89532 4.13389C9.08287 3.424 10.4342 3.03423 11.8174 3.00264C13.2006 2.97105 14.5683 3.29873 15.7871 3.95367C16.1364 4.13541 16.5431 4.17252 16.9196 4.05698C17.296 3.94144 17.6119 3.68252 17.7991 3.3361C17.9863 2.98968 18.0297 2.58354 17.9201 2.20535C17.8105 1.82717 17.5565 1.50725 17.2131 1.31467C15.5374 0.412845 13.6564 -0.0388453 11.7539 0.00373072C9.85149 0.0463068 7.99261 0.581693 6.35895 1.55757C4.72529 2.53346 3.37274 3.91645 2.43346 5.57142C1.49417 7.22639 1.00029 9.09673 1.00006 10.9997V12.4997C1.00006 12.8975 1.1581 13.279 1.4394 13.5603C1.72071 13.8416 2.10224 13.9997 2.50006 13.9997C2.89789 13.9997 3.27942 13.8416 3.56072 13.5603C3.84203 13.279 4.00006 12.8975 4.00006 12.4997Z" fill="#374957"/>
</svg>
