<svg width="24" height="24" viewBox="0 0 24 24" fill="none" xmlns="http://www.w3.org/2000/svg">
<g clip-path="url(#clip0_405_1428)">
<path d="M24 3.94072C24.0053 3.42091 23.9063 2.90532 23.709 2.4244C23.5116 1.94348 23.2199 1.50699 22.851 1.14072C22.1188 0.414489 21.1312 0.00417307 20.0999 -0.00218334C19.0687 -0.00853975 18.0761 0.38957 17.335 1.10672L7.16399 11.0327C6.35089 11.0069 5.5411 11.1476 4.78442 11.4463C4.02773 11.745 3.34016 12.1954 2.76399 12.7697C1.14699 14.3887 0.245995 18.5417 0.0349946 20.0067C-0.0367742 20.504 -0.000878662 21.0108 0.140251 21.4929C0.281381 21.9751 0.524451 22.4213 0.853007 22.8013C1.18156 23.1814 1.58793 23.4864 2.04461 23.6957C2.50129 23.9051 2.99762 24.0139 3.49999 24.0147C3.67166 24.0148 3.84311 24.0024 4.01299 23.9777C5.476 23.7677 9.62799 22.8677 11.248 21.2477C11.878 20.6131 12.3571 19.8449 12.6498 18.9999C12.9425 18.155 13.0413 17.255 12.939 16.3667L22.819 6.72572C23.1917 6.36377 23.4882 5.93089 23.691 5.45259C23.8938 4.9743 23.9989 4.46025 24 3.94072ZM9.12299 19.1267C8.47099 19.7777 5.77699 20.6927 3.58199 21.0087C3.50351 21.021 3.42324 21.0145 3.34771 20.99C3.27218 20.9654 3.20352 20.9233 3.1473 20.8672C3.09109 20.8111 3.0489 20.7425 3.02417 20.667C2.99945 20.5915 2.99288 20.5112 3.00499 20.4327C3.32099 18.2327 4.23599 15.5427 4.88699 14.8907C5.44933 14.3301 6.21097 14.0154 7.00499 14.0154C7.79902 14.0154 8.56066 14.3301 9.12299 14.8907C9.46292 15.2363 9.71289 15.66 9.85099 16.1247C9.86883 16.2472 9.90245 16.3669 9.95099 16.4807C10.0365 16.9559 10.0059 17.4446 9.86173 17.9053C9.71756 18.3661 9.46411 18.7851 9.12299 19.1267ZM20.723 4.57772L11.723 13.3567C11.5761 13.151 11.4161 12.9549 11.244 12.7697C10.9824 12.5107 10.6976 12.2764 10.393 12.0697L19.43 3.25572C19.6045 3.08651 19.8385 2.99255 20.0816 2.99405C20.3247 2.99555 20.5575 3.09238 20.73 3.26372C20.8166 3.35005 20.8852 3.45274 20.9317 3.56582C20.9783 3.6789 21.0019 3.80011 21.0011 3.9224C21.0004 4.04468 20.9753 4.1656 20.9274 4.27811C20.8795 4.39061 20.8097 4.49246 20.722 4.57772H20.723Z" fill="#374957"/>
</g>
<defs>
<clipPath id="clip0_405_1428">
<rect width="24" height="24" fill="white"/>
</clipPath>
</defs>
</svg>
