<svg width="24" height="24" viewBox="0 0 24 24" fill="none" xmlns="http://www.w3.org/2000/svg">
<g clip-path="url(#clip0_405_1610)">
<path d="M18.5 0H5.5C4.0418 0.00158817 2.64377 0.581561 1.61267 1.61267C0.581561 2.64377 0.00158817 4.0418 0 5.5L0 13.5C0.00158817 14.9582 0.581561 16.3562 1.61267 17.3873C2.64377 18.4184 4.0418 18.9984 5.5 19H10.5V21H8C7.60218 21 7.22064 21.158 6.93934 21.4393C6.65804 21.7206 6.5 22.1022 6.5 22.5C6.5 22.8978 6.65804 23.2794 6.93934 23.5607C7.22064 23.842 7.60218 24 8 24H16C16.3978 24 16.7794 23.842 17.0607 23.5607C17.342 23.2794 17.5 22.8978 17.5 22.5C17.5 22.1022 17.342 21.7206 17.0607 21.4393C16.7794 21.158 16.3978 21 16 21H13.5V19H18.5C19.9582 18.9984 21.3562 18.4184 22.3873 17.3873C23.4184 16.3562 23.9984 14.9582 24 13.5V5.5C23.9984 4.0418 23.4184 2.64377 22.3873 1.61267C21.3562 0.581561 19.9582 0.00158817 18.5 0V0ZM5.5 3H18.5C19.163 3 19.7989 3.26339 20.2678 3.73223C20.7366 4.20107 21 4.83696 21 5.5V13H3V5.5C3 4.83696 3.26339 4.20107 3.73223 3.73223C4.20107 3.26339 4.83696 3 5.5 3Z" fill="#374957"/>
</g>
<defs>
<clipPath id="clip0_405_1610">
<rect width="24" height="24" fill="white"/>
</clipPath>
</defs>
</svg>
