<svg width="24" height="24" viewBox="0 0 24 24" fill="none" xmlns="http://www.w3.org/2000/svg">
<g clip-path="url(#clip0_405_1606)">
<path d="M9.61391 11.6128C10.7185 11.6128 11.6139 10.7174 11.6139 9.61281C11.6139 8.50823 10.7185 7.61279 9.61391 7.61279C8.50933 7.61279 7.61389 8.50823 7.61389 9.61281C7.61389 10.7174 8.50933 11.6128 9.61391 11.6128Z" fill="#374957"/>
<path d="M20 4.02176C21.1046 4.02176 22 3.12632 22 2.02174C22 0.917166 21.1046 0.0217285 20 0.0217285C18.8954 0.0217285 18 0.917166 18 2.02174C18 3.12632 18.8954 4.02176 20 4.02176Z" fill="#374957"/>
<path d="M12 18.0222C13.1046 18.0222 14 17.1268 14 16.0222C14 14.9177 13.1046 14.0222 12 14.0222C10.8954 14.0222 10 14.9177 10 16.0222C10 17.1268 10.8954 18.0222 12 18.0222Z" fill="#374957"/>
<path d="M23.942 10.853C23.8743 10.1366 23.3073 9.5693 22.591 9.501C18.3053 9.08606 14.9139 5.69377 14.5 1.40798C14.4319 0.692344 13.8656 0.125625 13.15 0.057C12.771 0.0219844 12.389 0 12 0C5.37258 0 0 5.37258 0 12C0 18.6274 5.37258 24 12 24C18.6274 24 24 18.6274 24 12C24 11.612 23.979 11.23 23.942 10.853ZM12 21C7.02942 21.0801 2.93508 17.1156 2.85502 12.145C2.77491 7.17445 6.73945 3.08006 11.71 3C12.6886 7.6657 16.3342 11.3108 21 12.289C20.8393 17.1443 16.8579 20.9978 12 21Z" fill="#374957"/>
</g>
<defs>
<clipPath id="clip0_405_1606">
<rect width="24" height="24" fill="white"/>
</clipPath>
</defs>
</svg>
