<svg width="24" height="24" viewBox="0 0 24 24" fill="none" xmlns="http://www.w3.org/2000/svg">
<g clip-path="url(#clip0_405_1506)">
<path d="M16.4998 8.00096H8.00032V7.22799C8.00074 4.89307 9.8939 3.00061 12.2288 3.00103C13.7662 3.00131 15.1822 3.8361 15.9268 5.18109C16.3288 5.90536 17.2419 6.16658 17.9661 5.76456C18.6904 5.36254 18.9516 4.44947 18.5496 3.7252C16.6147 0.233897 12.2158 -1.02776 8.72453 0.907167C6.42668 2.18068 5.00079 4.60082 5.00051 7.22799V8.6079C3.16144 9.54642 2.00295 11.4359 2.0007 13.5006V18.5003C2.00403 21.5363 4.46434 23.9966 7.50033 23.9999H16.4998C19.5357 23.9966 21.9961 21.5363 21.9994 18.5003V13.5006C21.9961 10.4646 19.5358 8.00429 16.4998 8.00096ZM18.9996 18.5003C18.9996 19.8809 17.8804 21.0001 16.4998 21.0001H7.50038C6.11976 21.0001 5.00056 19.8809 5.00056 18.5003V13.5006C5.00056 12.12 6.11976 11.0008 7.50038 11.0008H16.4998C17.8804 11.0008 18.9996 12.12 18.9996 13.5006V18.5003Z" fill="#374957"/>
<path d="M11.5001 13.9998H12.5C13.3284 13.9998 13.9999 14.6714 13.9999 15.4997C13.9999 16.3281 13.3284 16.9996 12.5 16.9996H11.5001C10.6717 16.9996 10.0002 16.3281 10.0002 15.4997C10.0002 14.6714 10.6717 13.9998 11.5001 13.9998Z" fill="#374957"/>
</g>
<defs>
<clipPath id="clip0_405_1506">
<rect width="24" height="24" fill="white"/>
</clipPath>
</defs>
</svg>
