<svg width="24" height="24" viewBox="0 0 24 24" fill="none" xmlns="http://www.w3.org/2000/svg">
<g clip-path="url(#clip0_405_1483)">
<path d="M23.0718 0.929027C22.6434 0.498055 22.0992 0.200565 21.5051 0.0725955C20.9111 -0.0553738 20.2927 -0.00833009 19.7248 0.208027L3.3538 6.65303C2.16214 7.12586 1.18225 8.0146 0.595708 9.1546C0.00916195 10.2946 -0.144285 11.6086 0.163797 12.853C0.883343 15.4794 2.27423 17.8732 4.19961 19.7989C6.125 21.7247 8.51856 23.116 11.1448 23.836C12.3912 24.1437 13.7069 23.989 14.8479 23.4006C15.9889 22.8122 16.8778 21.8299 17.3498 20.636L23.8068 4.23603C24.015 3.67246 24.0565 3.06083 23.9261 2.47433C23.7958 1.88783 23.4992 1.35133 23.0718 0.929027ZM19.3598 7.34403C18.9891 7.15676 18.5835 7.0489 18.1687 7.02734C17.754 7.00577 17.3393 7.07099 16.9513 7.21881C16.5632 7.36663 16.2102 7.5938 15.9149 7.8858C15.6196 8.1778 15.3885 8.52821 15.2363 8.91462C15.0842 9.30102 15.0143 9.71493 15.0312 10.1299C15.0481 10.5448 15.1515 10.9517 15.3346 11.3244C15.5177 11.6971 15.7765 12.0276 16.0946 12.2946C16.4127 12.5616 16.783 12.7593 17.1818 12.875L14.5618 19.529C14.4949 19.691 14.41 19.845 14.3088 19.988C9.2328 19.862 4.1358 14.765 4.0088 9.68803C4.1492 9.58903 4.30012 9.50586 4.4588 9.44003L20.7868 3.01403C20.8141 3.00026 20.8453 2.99632 20.8752 3.00288C20.9051 3.00943 20.9318 3.02609 20.9508 3.05003C20.9694 3.06482 20.9838 3.08424 20.9926 3.10635C21.0014 3.12846 21.0042 3.15249 21.0008 3.17603L19.3598 7.34403ZM11.9998 12C11.9998 12.5305 11.7891 13.0392 11.414 13.4142C11.0389 13.7893 10.5302 14 9.9998 14C9.46936 14 8.96066 13.7893 8.58558 13.4142C8.21051 13.0392 7.9998 12.5305 7.9998 12C7.9998 11.4696 8.21051 10.9609 8.58558 10.5858C8.96066 10.2107 9.46936 10 9.9998 10C10.5302 10 11.0389 10.2107 11.414 10.5858C11.7891 10.9609 11.9998 11.4696 11.9998 12Z" fill="#374957"/>
</g>
<defs>
<clipPath id="clip0_405_1483">
<rect width="24" height="24" fill="white"/>
</clipPath>
</defs>
</svg>
