<svg width="24" height="24" viewBox="0 0 24 24" fill="none" xmlns="http://www.w3.org/2000/svg">
<g clip-path="url(#clip0_405_1328)">
<path d="M12 0C9.62663 0 7.30655 0.703788 5.33316 2.02236C3.35977 3.34094 1.8217 5.21509 0.913451 7.4078C0.00519943 9.60051 -0.232441 12.0133 0.230582 14.3411C0.693605 16.6689 1.83649 18.8071 3.51472 20.4853C5.19295 22.1635 7.33115 23.3064 9.65892 23.7694C11.9867 24.2324 14.3995 23.9948 16.5922 23.0866C18.7849 22.1783 20.6591 20.6402 21.9776 18.6668C23.2962 16.6935 24 14.3734 24 12C23.9966 8.81846 22.7312 5.76821 20.4815 3.51852C18.2318 1.26883 15.1815 0.00344108 12 0V0ZM12.5 20.975V19.69C12.5 18.5787 12.0586 17.513 11.2728 16.7272C10.487 15.9414 9.42126 15.5 8.31001 15.5H8.30001C7.88714 15.5 7.47831 15.4187 7.09688 15.2607C6.71545 15.1026 6.36889 14.871 6.07701 14.579L3.02401 11.524C3.10556 9.93535 3.60741 8.39683 4.47829 7.06565C5.34917 5.73447 6.55785 4.65836 7.98081 3.94728C9.40378 3.23621 10.99 2.91566 12.5774 3.01839C14.1649 3.12112 15.6966 3.64345 17.016 4.532C16.7512 4.72633 16.4315 4.83139 16.103 4.832H14.669C14.4645 4.832 14.2621 4.87232 14.0732 4.95065C13.8844 5.02899 13.7128 5.1438 13.5684 5.28851C13.424 5.43322 13.3095 5.605 13.2315 5.79401C13.1535 5.98301 13.1136 6.18554 13.114 6.39V7.432C13.114 7.84441 12.9502 8.23993 12.6586 8.53155C12.3669 8.82317 11.9714 8.987 11.559 8.987C11.3545 8.98647 11.1518 9.02631 10.9627 9.10422C10.7736 9.18213 10.6017 9.29659 10.4569 9.44103C10.312 9.58548 10.1972 9.75708 10.1188 9.946C10.0404 10.1349 10 10.3375 10 10.542V11.584C10 11.9964 10.1638 12.3919 10.4555 12.6836C10.7471 12.9752 11.1426 13.139 11.555 13.139H15.711C16.1234 13.139 16.5189 13.3028 16.8106 13.5945C17.1022 13.8861 17.266 14.2816 17.266 14.694V16.214C17.266 16.4183 17.3063 16.6206 17.3845 16.8094C17.4628 16.9981 17.5775 17.1696 17.722 17.314L18.555 18.147C16.9767 19.8349 14.8074 20.8481 12.5 20.975Z" fill="#374957"/>
</g>
<defs>
<clipPath id="clip0_405_1328">
<rect width="24" height="24" fill="white"/>
</clipPath>
</defs>
</svg>
