<svg width="24" height="24" viewBox="0 0 24 24" fill="none" xmlns="http://www.w3.org/2000/svg">
<g clip-path="url(#clip0_405_1684)">
<path d="M18.5 0H5.5C4.04188 0.00185226 2.64401 0.58191 1.61296 1.61296C0.58191 2.64401 0.00185226 4.04188 0 5.5L0 18.5C0.00185226 19.9581 0.58191 21.356 1.61296 22.387C2.64401 23.4181 4.04188 23.9981 5.5 24H18.5C19.9581 23.9981 21.356 23.4181 22.387 22.387C23.4181 21.356 23.9981 19.9581 24 18.5V5.5C23.9981 4.04188 23.4181 2.64401 22.387 1.61296C21.356 0.58191 19.9581 0.00185226 18.5 0V0ZM20.949 5H16V3H18.5C19.0762 3.00011 19.6346 3.19923 20.0808 3.56366C20.5271 3.9281 20.8338 4.43549 20.949 5ZM11 3H13V7C13 7.26522 12.8946 7.51957 12.7071 7.70711C12.5196 7.89464 12.2652 8 12 8C11.7348 8 11.4804 7.89464 11.2929 7.70711C11.1054 7.51957 11 7.26522 11 7V3ZM5.5 3H8V5H3.051C3.16623 4.43549 3.47291 3.9281 3.91916 3.56366C4.36541 3.19923 4.92385 3.00011 5.5 3ZM18.5 21H5.5C4.83696 21 4.20107 20.7366 3.73223 20.2678C3.26339 19.7989 3 19.163 3 18.5V8H8.142C8.36027 8.85758 8.85806 9.618 9.55672 10.1611C10.2554 10.7042 11.1151 10.9991 12 10.9991C12.8849 10.9991 13.7446 10.7042 14.4433 10.1611C15.1419 9.618 15.6397 8.85758 15.858 8H21V18.5C21 19.163 20.7366 19.7989 20.2678 20.2678C19.7989 20.7366 19.163 21 18.5 21ZM19 17.5C19 17.8978 18.842 18.2794 18.5607 18.5607C18.2794 18.842 17.8978 19 17.5 19H14.5C14.1022 19 13.7206 18.842 13.4393 18.5607C13.158 18.2794 13 17.8978 13 17.5C13 17.1022 13.158 16.7206 13.4393 16.4393C13.7206 16.158 14.1022 16 14.5 16H17.5C17.8978 16 18.2794 16.158 18.5607 16.4393C18.842 16.7206 19 17.1022 19 17.5Z" fill="#374957"/>
</g>
<defs>
<clipPath id="clip0_405_1684">
<rect width="24" height="24" fill="white"/>
</clipPath>
</defs>
</svg>
