<svg width="24" height="24" viewBox="0 0 24 24" fill="none" xmlns="http://www.w3.org/2000/svg">
<g clip-path="url(#clip0_405_1554)">
<path d="M1.5 23.4489C1.10218 23.4489 0.720644 23.2909 0.43934 23.0096C0.158035 22.7283 0 22.3468 0 21.9489L0 15.9489C0.00291129 13.4303 1.00474 11.0156 2.7857 9.23464C4.56667 7.45368 6.98134 6.45185 9.5 6.44894H13.164V4.76794C13.164 4.32312 13.298 3.8886 13.5485 3.52103C13.799 3.15345 14.1544 2.86986 14.5684 2.70721C14.9825 2.54456 15.4359 2.51039 15.8696 2.60916C16.3033 2.70793 16.6972 2.93506 17 3.26094L23.217 9.95594C23.7172 10.4989 23.9948 11.2102 23.9948 11.9484C23.9948 12.6867 23.7172 13.3979 23.217 13.9409L17 20.6359C16.6973 20.9622 16.3033 21.1896 15.8694 21.2886C15.4355 21.3876 14.9819 21.3535 14.5676 21.1908C14.1534 21.0281 13.7978 20.7444 13.5472 20.3766C13.2967 20.0088 13.1628 19.574 13.163 19.1289V17.4489H7.5C6.30653 17.4489 5.16193 17.923 4.31802 18.767C3.47411 19.6109 3 20.7555 3 21.9489C3 22.3468 2.84196 22.7283 2.56066 23.0096C2.27936 23.2909 1.89782 23.4489 1.5 23.4489ZM7.5 14.4489H14.664C15.0618 14.4489 15.4434 14.607 15.7247 14.8883C16.006 15.1696 16.164 15.5511 16.164 15.9489V17.1279L21.019 11.8999L16.164 6.74694V7.94694C16.164 8.34477 16.006 8.7263 15.7247 9.0076C15.4434 9.2889 15.0618 9.44694 14.664 9.44694H9.5C7.77674 9.44906 6.12467 10.1346 4.90614 11.3531C3.68762 12.5716 3.00212 14.2237 3 15.9469C4.29704 14.9713 5.87696 14.4453 7.5 14.4489ZM14.8 5.29994L14.808 5.30794L14.8 5.29994Z" fill="#374957"/>
</g>
<defs>
<clipPath id="clip0_405_1554">
<rect width="24" height="24" fill="white"/>
</clipPath>
</defs>
</svg>
