<svg width="24" height="24" viewBox="0 0 24 24" fill="none" xmlns="http://www.w3.org/2000/svg">
<g clip-path="url(#clip0_405_1812)">
<path d="M13.5001 2.115V1.5C13.5001 1.10218 13.342 0.720644 13.0607 0.43934C12.7794 0.158035 12.3979 0 12.0001 0C11.6023 0 11.2207 0.158035 10.9394 0.43934C10.6581 0.720644 10.5001 1.10218 10.5001 1.5V2.115C8.59243 2.37259 6.78618 3.1277 5.2628 4.30446C3.73942 5.48123 2.55258 7.03819 1.82152 8.81892C1.09046 10.5997 0.840932 12.5414 1.09801 14.4491C1.35509 16.3569 2.10972 18.1633 3.28608 19.687C2.87203 20.0273 2.54101 20.4575 2.31817 20.945C2.09533 21.4324 1.98655 21.9642 2.00008 22.5C2.00008 22.8978 2.15811 23.2794 2.43942 23.5607C2.72072 23.842 3.10225 24 3.50008 24C3.8979 24 4.27943 23.842 4.56074 23.5607C4.84204 23.2794 5.00008 22.8978 5.00008 22.5C4.9848 22.3514 5.0219 22.2021 5.10497 22.078C5.18805 21.9538 5.31188 21.8626 5.45508 21.82C7.34356 23.2341 9.63933 23.9984 11.9986 23.9984C14.3578 23.9984 16.6536 23.2341 18.5421 21.82C18.6858 21.862 18.8103 21.953 18.894 22.0772C18.9777 22.2014 19.0152 22.351 19.0001 22.5C19.0001 22.8978 19.1581 23.2794 19.4394 23.5607C19.7207 23.842 20.1023 24 20.5001 24C20.8979 24 21.2794 23.842 21.5607 23.5607C21.842 23.2794 22.0001 22.8978 22.0001 22.5C22.0136 21.9642 21.9048 21.4324 21.682 20.945C21.4591 20.4575 21.1281 20.0273 20.7141 19.687C21.8904 18.1633 22.6451 16.3569 22.9021 14.4491C23.1592 12.5414 22.9097 10.5997 22.1786 8.81892C21.4476 7.03819 20.2607 5.48123 18.7374 4.30446C17.214 3.1277 15.4077 2.37259 13.5001 2.115ZM4.00008 13C4.00008 11.4177 4.46927 9.87103 5.34832 8.55544C6.22737 7.23984 7.4768 6.21447 8.93861 5.60896C10.4004 5.00346 12.009 4.84504 13.5608 5.15372C15.1126 5.4624 16.5381 6.22433 17.6569 7.34315C18.7758 8.46197 19.5377 9.88743 19.8464 11.4393C20.155 12.9911 19.9966 14.5997 19.3911 16.0615C18.7856 17.5233 17.7602 18.7727 16.4446 19.6518C15.129 20.5308 13.5823 21 12.0001 21C9.87908 20.9976 7.84563 20.154 6.34585 18.6542C4.84608 17.1544 4.00246 15.121 4.00008 13Z" fill="#374957"/>
<path d="M19.5 -2.3529e-05C19.1022 -2.3529e-05 18.7206 0.158012 18.4393 0.439316C18.158 0.720621 18 1.10215 18 1.49998C18 1.8978 18.158 2.27933 18.4393 2.56064C18.7206 2.84194 19.1022 2.99998 19.5 2.99998C19.6991 2.98449 19.8992 3.01301 20.086 3.08351C20.2729 3.15402 20.4419 3.26478 20.5812 3.40793C20.7204 3.55109 20.8264 3.72313 20.8917 3.91186C20.957 4.10059 20.98 4.30138 20.959 4.49998C20.959 4.8978 21.117 5.27933 21.3983 5.56064C21.6796 5.84194 22.0612 5.99998 22.459 5.99998C22.8568 5.99998 23.2384 5.84194 23.5197 5.56064C23.801 5.27933 23.959 4.8978 23.959 4.49998C23.9822 3.9063 23.883 3.31421 23.6676 2.76048C23.4523 2.20676 23.1254 1.70324 22.7072 1.28121C22.289 0.859178 21.7885 0.527658 21.2368 0.307248C20.685 0.0868383 20.0939 -0.0177519 19.5 -2.3529e-05Z" fill="#374957"/>
<path d="M3.04089 4.49998C3.01989 4.30138 3.04286 4.10059 3.10816 3.91186C3.17346 3.72313 3.27949 3.55109 3.41873 3.40793C3.55798 3.26478 3.72702 3.15402 3.91387 3.08351C4.10071 3.01301 4.30079 2.98449 4.49989 2.99998C4.89772 2.99998 5.27925 2.84194 5.56055 2.56064C5.84186 2.27933 5.99989 1.8978 5.99989 1.49998C5.99989 1.10215 5.84186 0.720621 5.56055 0.439316C5.27925 0.158012 4.89772 -2.3529e-05 4.49989 -2.3529e-05C3.90603 -0.0177519 3.31487 0.0868383 2.76314 0.307248C2.21141 0.527658 1.7109 0.859178 1.29271 1.28121C0.874531 1.70324 0.547606 2.20676 0.332255 2.76048C0.116904 3.31421 0.0177291 3.9063 0.0408921 4.49998C0.0408921 4.8978 0.198927 5.27933 0.480232 5.56064C0.761536 5.84194 1.14307 5.99998 1.54089 5.99998C1.93872 5.99998 2.32025 5.84194 2.60155 5.56064C2.88286 5.27933 3.04089 4.8978 3.04089 4.49998Z" fill="#374957"/>
<path d="M13.5301 12.379V8.5C13.5301 8.10217 13.3721 7.72064 13.0908 7.43934C12.8095 7.15803 12.428 7 12.0301 7C11.6323 7 11.2508 7.15803 10.9695 7.43934C10.6882 7.72064 10.5302 8.10217 10.5302 8.5V12.793C10.5303 13.3234 10.7411 13.832 11.1162 14.207L12.9091 16C13.1921 16.2732 13.571 16.4244 13.9642 16.421C14.3575 16.4176 14.7338 16.2598 15.0119 15.9817C15.29 15.7036 15.4477 15.3274 15.4512 14.9341C15.4546 14.5408 15.3034 14.1619 15.0301 13.879L13.5301 12.379Z" fill="#374957"/>
</g>
<defs>
<clipPath id="clip0_405_1812">
<rect width="24" height="24" fill="white"/>
</clipPath>
</defs>
</svg>
