<svg width="24" height="24" viewBox="0 0 24 24" fill="none" xmlns="http://www.w3.org/2000/svg">
<path d="M8.43914 12.439L9.87914 11L8.43914 9.56103C8.15775 9.27963 7.99966 8.89798 7.99966 8.50003C7.99966 8.10207 8.15775 7.72042 8.43914 7.43903C8.72054 7.15763 9.10219 6.99955 9.50014 6.99955C9.8981 6.99955 10.2797 7.15763 10.5611 7.43903L12.0001 8.87903L13.4391 7.43903C13.7205 7.15763 14.1022 6.99955 14.5001 6.99955C14.8981 6.99955 15.2797 7.15763 15.5611 7.43903C15.8425 7.72042 16.0006 8.10207 16.0006 8.50003C16.0006 8.89798 15.8425 9.27963 15.5611 9.56103L14.1211 11L15.5611 12.439C15.8425 12.7204 16.0006 13.1021 16.0006 13.5C16.0006 13.898 15.8425 14.2796 15.5611 14.561C15.2797 14.8424 14.8981 15.0005 14.5001 15.0005C14.1022 15.0005 13.7205 14.8424 13.4391 14.561L12.0001 13.121L10.5611 14.561C10.2797 14.8424 9.8981 15.0005 9.50014 15.0005C9.10219 15.0005 8.72054 14.8424 8.43914 14.561C8.15775 14.2796 7.99966 13.898 7.99966 13.5C7.99966 13.1021 8.15775 12.7204 8.43914 12.439ZM4.26214 18.894C2.18765 16.8196 1.01871 14.0084 1.01084 11.0747C1.00297 8.14101 2.15681 5.3235 4.22014 3.23803C5.23945 2.21194 6.45166 1.3976 7.78697 0.841904C9.12228 0.286206 10.5543 0.00012207 12.0006 0.00012207C13.447 0.00012207 14.879 0.286206 16.2143 0.841904C17.5496 1.3976 18.7618 2.21194 19.7811 3.23803C21.84 5.31495 22.9952 8.12105 22.9952 11.0455C22.9952 13.97 21.84 16.7761 19.7811 18.853L15.9731 22.39C14.9033 23.4269 13.4704 24.0042 11.9805 23.9986C10.4907 23.993 9.06214 23.4049 8.00014 22.36L4.26214 18.894ZM6.34614 16.737L10.0681 20.191C10.5781 20.6927 11.2632 20.9763 11.9786 20.9819C12.6939 20.9875 13.3834 20.7146 13.9011 20.221L17.7001 16.7C19.1854 15.1834 20.0136 13.1429 20.0056 11.0202C19.9975 8.89748 19.1538 6.86333 17.6571 5.35803C16.9166 4.61207 16.0358 4.02002 15.0654 3.61601C14.095 3.21199 13.0543 3.00399 12.0031 3.00399C10.952 3.00399 9.91129 3.21199 8.94091 3.61601C7.97053 4.02002 7.08969 4.61207 6.34914 5.35803C4.849 6.87145 4.00708 8.91598 4.00652 11.0469C4.00596 13.1778 4.8468 15.2228 6.34614 16.737Z" fill="#374957"/>
</svg>
