<svg width="24" height="24" viewBox="0 0 24 24" fill="none" xmlns="http://www.w3.org/2000/svg">
<g clip-path="url(#clip0_406_3684)">
<path d="M18.9999 14.0003C18.1769 14.0057 17.3683 14.2171 16.6479 14.6153L13.2999 10.6003L20.7669 1.64029L19.2309 0.360291L11.9999 9.03829L4.76794 0.360291L3.23194 1.64029L10.6999 10.6003L7.35194 14.6153C6.6314 14.2176 5.82293 14.0062 4.99994 14.0003C4.01103 14.0003 3.04434 14.2935 2.22209 14.8429C1.39984 15.3924 0.758982 16.1732 0.380544 17.0869C0.00210539 18.0005 -0.0969113 19.0058 0.0960148 19.9757C0.288941 20.9456 0.765145 21.8366 1.46441 22.5358C2.16367 23.2351 3.05458 23.7113 4.02449 23.9042C4.99439 24.0971 5.99973 23.9981 6.91336 23.6197C7.82699 23.2412 8.60788 22.6004 9.15729 21.7781C9.7067 20.9559 9.99994 19.9892 9.99994 19.0003C9.99421 17.8703 9.60179 16.7763 8.88794 15.9003L11.9999 12.1623L15.1109 15.9003C14.398 16.7767 14.006 17.8705 13.9999 19.0003C13.9999 19.9892 14.2932 20.9559 14.8426 21.7781C15.392 22.6004 16.1729 23.2412 17.0865 23.6197C18.0002 23.9981 19.0055 24.0971 19.9754 23.9042C20.9453 23.7113 21.8362 23.2351 22.5355 22.5358C23.2347 21.8366 23.7109 20.9456 23.9039 19.9757C24.0968 19.0058 23.9978 18.0005 23.6193 17.0869C23.2409 16.1732 22.6 15.3924 21.7778 14.8429C20.9555 14.2935 19.9888 14.0003 18.9999 14.0003V14.0003ZM4.99994 22.0003C4.4066 22.0003 3.82658 21.8243 3.33323 21.4947C2.83988 21.1651 2.45537 20.6965 2.2283 20.1483C2.00124 19.6002 1.94183 18.997 2.05759 18.415C2.17334 17.8331 2.45906 17.2985 2.87862 16.879C3.29818 16.4594 3.83273 16.1737 4.41467 16.0579C4.99661 15.9422 5.59981 16.0016 6.14799 16.2287C6.69617 16.4557 7.16471 16.8402 7.49435 17.3336C7.82399 17.8269 7.99994 18.4069 7.99994 19.0003C7.99994 19.7959 7.68387 20.559 7.12126 21.1216C6.55865 21.6842 5.79559 22.0003 4.99994 22.0003ZM18.9999 22.0003C18.4066 22.0003 17.8266 21.8243 17.3332 21.4947C16.8399 21.1651 16.4554 20.6965 16.2283 20.1483C16.0012 19.6002 15.9418 18.997 16.0576 18.415C16.1733 17.8331 16.4591 17.2985 16.8786 16.879C17.2982 16.4594 17.8327 16.1737 18.4147 16.0579C18.9966 15.9422 19.5998 16.0016 20.148 16.2287C20.6962 16.4557 21.1647 16.8402 21.4944 17.3336C21.824 17.8269 21.9999 18.4069 21.9999 19.0003C21.9999 19.7959 21.6839 20.559 21.1213 21.1216C20.5587 21.6842 19.7956 22.0003 18.9999 22.0003Z" fill="#374957"/>
</g>
<defs>
<clipPath id="clip0_406_3684">
<rect width="24" height="24" fill="white"/>
</clipPath>
</defs>
</svg>
