<svg width="24" height="24" viewBox="0 0 24 24" fill="none" xmlns="http://www.w3.org/2000/svg">
<g clip-path="url(#clip0_406_3814)">
<path d="M6 9.00024H9.99999C9.99999 8.46981 9.78928 7.9611 9.41421 7.58603C9.03913 7.21096 8.53043 7.00024 8 7.00024C7.46956 7.00024 6.96086 7.21096 6.58579 7.58603C6.21071 7.9611 6 8.46981 6 9.00024V9.00024Z" fill="#374957"/>
<path d="M8 5C8.45723 5.00463 8.91022 5.08819 9.339 5.247L11.793 2.793L13.207 4.207L11.014 6.4C11.6459 7.11913 11.9962 8.04269 12 9H16V3C16 2.20435 15.6839 1.44129 15.1213 0.87868C14.5587 0.31607 13.7956 0 13 0L3 0C2.20435 0 1.44129 0.31607 0.87868 0.87868C0.31607 1.44129 0 2.20435 0 3L0 9H4C4 7.93913 4.42143 6.92172 5.17157 6.17157C5.92172 5.42143 6.93913 5 8 5V5Z" fill="#374957"/>
<path d="M22.293 2.29333L19 5.58633V19.0003H16V11.0003H0V24.0003H16V21.0003H21V6.41434L23.707 3.70733L22.293 2.29333Z" fill="#374957"/>
</g>
<defs>
<clipPath id="clip0_406_3814">
<rect width="24" height="24" fill="white"/>
</clipPath>
</defs>
</svg>
