<svg width="24" height="24" viewBox="0 0 24 24" fill="none" xmlns="http://www.w3.org/2000/svg">
<g clip-path="url(#clip0_406_3669)">
<path d="M17 15.9994H7C6.73478 15.9994 6.48043 16.1047 6.29289 16.2923C6.10536 16.4798 6 16.7342 6 16.9994V23.9994H18V16.9994C18 16.7342 17.8946 16.4798 17.7071 16.2923C17.5196 16.1047 17.2652 15.9994 17 15.9994Z" fill="#374957"/>
<path d="M12 9.99939C13.6569 9.99939 15 8.65624 15 6.99939C15 5.34254 13.6569 3.99939 12 3.99939C10.3431 3.99939 9 5.34254 9 6.99939C9 8.65624 10.3431 9.99939 12 9.99939Z" fill="#374957"/>
<path d="M21 0H3C2.20435 0 1.44129 0.31607 0.87868 0.87868C0.31607 1.44129 0 2.20435 0 3L0 24H4V17C4 16.2044 4.31607 15.4413 4.87868 14.8787C5.44129 14.3161 6.20435 14 7 14H17C17.7956 14 18.5587 14.3161 19.1213 14.8787C19.6839 15.4413 20 16.2044 20 17V24H24V3C24 2.20435 23.6839 1.44129 23.1213 0.87868C22.5587 0.31607 21.7956 0 21 0V0ZM12 12C11.0111 12 10.0444 11.7068 9.22215 11.1573C8.3999 10.6079 7.75904 9.82705 7.3806 8.91342C7.00216 7.99979 6.90315 6.99445 7.09607 6.02455C7.289 5.05464 7.7652 4.16373 8.46447 3.46447C9.16373 2.7652 10.0546 2.289 11.0245 2.09607C11.9945 1.90315 12.9998 2.00216 13.9134 2.3806C14.827 2.75904 15.6079 3.3999 16.1573 4.22215C16.7068 5.04439 17 6.01109 17 7C16.9984 8.3256 16.4711 9.59644 15.5338 10.5338C14.5964 11.4711 13.3256 11.9984 12 12V12Z" fill="#374957"/>
</g>
<defs>
<clipPath id="clip0_406_3669">
<rect width="24" height="24" fill="white"/>
</clipPath>
</defs>
</svg>
