<svg width="24" height="24" viewBox="0 0 24 24" fill="none" xmlns="http://www.w3.org/2000/svg">
<g clip-path="url(#clip0_406_3859)">
<path d="M17.5001 23.9998C16.6829 23.961 15.8752 23.8085 15.1001 23.5468C13.0883 22.8608 10.9059 22.8608 8.8941 23.5468C5.5941 24.7268 2.8701 23.5678 2.9941 20.3688C3.0001 15.6408 7.4581 10.9998 12.0001 10.9998C16.5421 10.9998 21.0001 15.6408 21.0001 20.3688C21.0001 22.0248 20.3931 23.9998 17.5001 23.9998ZM21.8441 5.01384C20.4801 4.85084 19.2441 6.14184 19.0301 8.47384C18.5971 13.9818 23.3371 14.6988 23.9711 9.06284C24.1841 6.73184 23.2081 5.17684 21.8441 5.01384ZM0.0290993 9.06284C0.664099 14.6998 5.4001 13.9778 4.9701 8.47384C4.7561 6.14184 3.5201 4.85084 2.1561 5.01384C0.792099 5.17684 -0.183901 6.73184 0.0290993 9.06284ZM5.9771 4.06284C6.6121 9.70184 11.3511 8.97784 10.9171 3.47384C10.7001 1.14184 9.4681 -0.149161 8.1001 0.0138394C6.7321 0.176839 5.7631 1.73184 5.9771 4.06284V4.06284ZM15.8441 0.0138394C14.4801 -0.149161 13.2441 1.14184 13.0301 3.47384C12.5971 8.98184 17.3371 9.69884 17.9711 4.06284C18.1841 1.73184 17.2081 0.176839 15.8441 0.0138394Z" fill="#374957"/>
</g>
<defs>
<clipPath id="clip0_406_3859">
<rect width="24" height="24" fill="white"/>
</clipPath>
</defs>
</svg>
