<svg width="24" height="24" viewBox="0 0 24 24" fill="none" xmlns="http://www.w3.org/2000/svg">
<g clip-path="url(#clip0_406_4046)">
<path d="M15 2V4H17V7H7.00004V4H9.00004V3C9.00004 2.20435 9.31611 1.44129 9.87872 0.87868C10.4413 0.31607 11.2044 0 12 0L20 0V2H15ZM16 16H8.00004V18H16V16ZM22 17V24H2.00004V17C1.99826 15.3406 2.45827 13.7134 3.32859 12.3006C4.19892 10.8877 5.44521 9.74489 6.92804 9H17.072C18.5549 9.74489 19.8012 10.8877 20.6715 12.3006C21.5418 13.7134 22.0018 15.3406 22 17ZM18 14H6.00004V20H18V14Z" fill="#374957"/>
</g>
<defs>
<clipPath id="clip0_406_4046">
<rect width="24" height="24" fill="white"/>
</clipPath>
</defs>
</svg>
