<svg width="24" height="24" viewBox="0 0 24 24" fill="none" xmlns="http://www.w3.org/2000/svg">
<g clip-path="url(#clip0_406_3716)">
<path d="M22.293 15.707L20.005 13.419L21.419 12.005L23.707 14.293L22.293 15.707ZM23.707 5.707L22.293 4.293L20.043 6.543L21.457 7.957L23.707 5.707ZM24 9H21V11H24V9ZM8.37 17H2.739L5.85 24H7.25C7.70822 23.9997 8.15913 23.8851 8.56181 23.6664C8.96448 23.4477 9.30618 23.1319 9.55589 22.7477C9.8056 22.3635 9.95543 21.923 9.99177 21.4663C10.0281 21.0095 9.94982 20.5509 9.764 20.132L8.37 17ZM18 0V20H16C15.9984 18.6744 15.4711 17.4036 14.5338 16.4662C13.5964 15.5289 12.3256 15.0016 11 15H3C2.20435 15 1.44129 14.6839 0.87868 14.1213C0.31607 13.5587 0 12.7956 0 12L0 8C0 7.20435 0.31607 6.44129 0.87868 5.87868C1.44129 5.31607 2.20435 5 3 5H11C12.3256 4.99841 13.5964 4.47112 14.5338 3.53378C15.4711 2.59644 15.9984 1.3256 16 0L18 0Z" fill="#374957"/>
</g>
<defs>
<clipPath id="clip0_406_3716">
<rect width="24" height="24" fill="white"/>
</clipPath>
</defs>
</svg>
