<svg width="24" height="24" viewBox="0 0 24 24" fill="none" xmlns="http://www.w3.org/2000/svg">
<g clip-path="url(#clip0_406_3572)">
<path d="M7.99987 19.0003H10.9999V21.0003H7.99987V24.0003H5.99987V21.0003H2.99987V19.0003H5.99987V14.8493C4.98429 14.6449 4.02206 14.2323 3.17386 13.6375C2.32565 13.0427 1.60986 12.2787 1.0716 11.3936C0.53334 10.5084 0.18429 9.52137 0.0464519 8.49463C-0.0913861 7.46789 -0.0150229 6.42373 0.270728 5.42796C0.556478 4.4322 1.04542 3.50644 1.70673 2.70902C2.36804 1.91161 3.18737 1.25985 4.11308 0.794819C5.0388 0.32979 6.05081 0.0615803 7.08533 0.00709754C8.11985 -0.0473852 9.15443 0.113041 10.1239 0.478262C9.1405 1.36473 8.35429 2.44785 7.81615 3.65749C7.278 4.86713 6.99993 6.17632 6.99993 7.50026C6.99993 8.82421 7.278 10.1334 7.81615 11.343C8.35429 12.5527 9.1405 13.6358 10.1239 14.5223C9.44162 14.7759 8.72616 14.9292 7.99987 14.9773V19.0003ZM23.9999 7.50026C24.0015 6.03785 23.5755 4.60687 22.7744 3.38341C21.9733 2.15994 20.832 1.19738 19.4909 0.614169C18.1498 0.0309559 16.6675 -0.147461 15.2263 0.100873C13.7851 0.349206 12.448 1.01346 11.3794 2.01188C10.3109 3.01031 9.55754 4.29935 9.21211 5.72038C8.86667 7.14141 8.94422 8.63242 9.4352 10.01C9.92618 11.3875 10.8092 12.5914 11.9755 13.4736C13.1419 14.3558 14.5407 14.8778 15.9999 14.9753V19.0003H12.9999V21.0003H15.9999V24.0003H17.9999V21.0003H20.9999V19.0003H17.9999V14.8493C19.6926 14.5012 21.2136 13.5803 22.3066 12.2416C23.3995 10.903 23.9976 9.22842 23.9999 7.50026V7.50026Z" fill="#374957"/>
</g>
<defs>
<clipPath id="clip0_406_3572">
<rect width="24" height="24" fill="white"/>
</clipPath>
</defs>
</svg>
