<svg width="24" height="24" viewBox="0 0 24 24" fill="none" xmlns="http://www.w3.org/2000/svg">
<g clip-path="url(#clip0_406_3691)">
<path d="M5.52106 19.8996H10.8431L14.3621 23.4146C14.5512 23.6048 14.776 23.7557 15.0237 23.8586C15.2713 23.9616 15.5369 24.0146 15.8051 24.0146C15.9815 24.0143 16.1572 23.9918 16.3281 23.9476C16.6733 23.8605 16.9895 23.6839 17.2447 23.4356C17.5 23.1874 17.6853 22.8763 17.7821 22.5336L23.9891 1.42462L5.52106 19.8996Z" fill="#374957"/>
<path d="M4.08691 18.5001L22.5719 0.012146L1.47791 6.23315C1.13445 6.33082 0.82249 6.5166 0.572988 6.77206C0.323487 7.02751 0.145112 7.34376 0.0555608 7.68943C-0.0339903 8.0351 -0.0316055 8.39818 0.0624786 8.74265C0.156563 9.08711 0.339076 9.40099 0.591912 9.65315L4.08691 13.1451V18.5001Z" fill="#374957"/>
</g>
<defs>
<clipPath id="clip0_406_3691">
<rect width="24" height="24" fill="white"/>
</clipPath>
</defs>
</svg>
