<svg width="24" height="24" viewBox="0 0 24 24" fill="none" xmlns="http://www.w3.org/2000/svg">
<g clip-path="url(#clip0_406_3686)">
<path d="M8.293 11.1209L0 19.4139V23.9999H22.586L9.707 11.1209C9.51947 10.9334 9.26516 10.8281 9 10.8281C8.73484 10.8281 8.48053 10.9334 8.293 11.1209V11.1209Z" fill="#374957"/>
<path d="M11.121 9.707L24 22.586V3C24 2.20435 23.6839 1.44129 23.1213 0.87868C22.5587 0.31607 21.7956 0 21 0L3 0C2.20435 0 1.44129 0.31607 0.87868 0.87868C0.31607 1.44129 0 2.20435 0 3L0 16.586L6.879 9.707C7.44158 9.14459 8.20451 8.82864 9 8.82864C9.79549 8.82864 10.5584 9.14459 11.121 9.707V9.707ZM18 2C18.7911 2 19.5645 2.2346 20.2223 2.67412C20.8801 3.11365 21.3928 3.73836 21.6955 4.46927C21.9983 5.20017 22.0775 6.00444 21.9231 6.78036C21.7688 7.55629 21.3878 8.26902 20.8284 8.82843C20.269 9.38784 19.5563 9.7688 18.7804 9.92314C18.0044 10.0775 17.2002 9.99827 16.4693 9.69552C15.7384 9.39277 15.1136 8.88008 14.6741 8.22228C14.2346 7.56448 14 6.79113 14 6C14 4.93913 14.4214 3.92172 15.1716 3.17157C15.9217 2.42143 16.9391 2 18 2Z" fill="#374957"/>
<path d="M17.9998 7.99938C19.1044 7.99938 19.9998 7.10395 19.9998 5.99939C19.9998 4.89482 19.1044 3.99939 17.9998 3.99939C16.8953 3.99939 15.9998 4.89482 15.9998 5.99939C15.9998 7.10395 16.8953 7.99938 17.9998 7.99938Z" fill="#374957"/>
</g>
<defs>
<clipPath id="clip0_406_3686">
<rect width="24" height="24" fill="white"/>
</clipPath>
</defs>
</svg>
