<svg width="24" height="24" viewBox="0 0 24 24" fill="none" xmlns="http://www.w3.org/2000/svg">
<g clip-path="url(#clip0_406_4050)">
<path d="M6 8.00061H3C2.20435 8.00061 1.44129 8.31668 0.87868 8.87929C0.31607 9.4419 0 10.205 0 11.0006L0 19.0006C0 19.7963 0.31607 20.5593 0.87868 21.1219C1.44129 21.6845 2.20435 22.0006 3 22.0006H6V8.00061Z" fill="#374957"/>
<path d="M13.9996 7.99974L14.5546 4.67174C14.6507 4.17578 14.5786 3.66193 14.3497 3.21161C14.1207 2.7613 13.748 2.40027 13.2906 2.18574C12.7661 1.95674 12.1739 1.93654 11.635 2.12925C11.0961 2.32196 10.651 2.71306 10.3906 3.22274L7.99963 7.99974V21.9997H21.9996L23.9996 10.9997V7.99974H13.9996Z" fill="#374957"/>
</g>
<defs>
<clipPath id="clip0_406_4050">
<rect width="24" height="24" fill="white"/>
</clipPath>
</defs>
</svg>
