<svg width="24" height="24" viewBox="0 0 24 24" fill="none" xmlns="http://www.w3.org/2000/svg">
<g clip-path="url(#clip0_406_4060)">
<path d="M17.0001 12.1115V5.00049C16.7891 -1.6085 7.20913 -1.5995 7.00013 5.00049V12.1115C6.03546 13.096 5.38293 14.3435 5.12438 15.6974C4.86582 17.0513 5.01274 18.4514 5.54672 19.7222C6.0807 20.993 6.97796 22.0778 8.126 22.8406C9.27403 23.6035 10.6217 24.0104 12.0001 24.0104C13.3785 24.0104 14.7262 23.6035 15.8743 22.8406C17.0223 22.0778 17.9196 20.993 18.4535 19.7222C18.9875 18.4514 19.1344 17.0513 18.8759 15.6974C18.6173 14.3435 17.9648 13.096 17.0001 12.1115V12.1115ZM12.0001 20.0005C11.2985 19.9925 10.6219 19.7389 10.0879 19.2837C9.5539 18.8285 9.19636 18.2005 9.07747 17.509C8.95857 16.8175 9.08582 16.1062 9.4371 15.4988C9.78837 14.8914 10.3414 14.4263 11.0001 14.1845V8.00049H13.0001V14.1845C13.6588 14.4263 14.2119 14.8914 14.5632 15.4988C14.9144 16.1062 15.0417 16.8175 14.9228 17.509C14.8039 18.2005 14.4464 18.8285 13.9124 19.2837C13.3784 19.7389 12.7018 19.9925 12.0001 20.0005Z" fill="#374957"/>
</g>
<defs>
<clipPath id="clip0_406_4060">
<rect width="24" height="24" fill="white"/>
</clipPath>
</defs>
</svg>
