<svg width="24" height="24" viewBox="0 0 24 24" fill="none" xmlns="http://www.w3.org/2000/svg">
<g clip-path="url(#clip0_406_3889)">
<path d="M21.4142 5H17.0002V0.586L21.4142 5ZM22.0002 7V24H2.00015V3C2.00015 2.20435 2.31622 1.44129 2.87883 0.87868C3.44144 0.31607 4.2045 0 5.00015 0L15.0002 0V7H22.0002ZM16.6112 13.536L15.2002 12.122L11.6102 15.707C11.42 15.889 11.1669 15.9905 10.9037 15.9905C10.6404 15.9905 10.3874 15.889 10.1972 15.707L8.61115 14.122L7.20015 15.536L8.78515 17.121C9.06373 17.3996 9.39447 17.6207 9.75848 17.7715C10.1225 17.9222 10.5126 17.9999 10.9067 17.9999C11.3007 17.9999 11.6908 17.9222 12.0548 17.7715C12.4188 17.6207 12.7496 17.3996 13.0282 17.121L16.6112 13.536Z" fill="#374957"/>
</g>
<defs>
<clipPath id="clip0_406_3889">
<rect width="24" height="24" fill="white"/>
</clipPath>
</defs>
</svg>
