<svg width="24" height="24" viewBox="0 0 24 24" fill="none" xmlns="http://www.w3.org/2000/svg">
<g clip-path="url(#clip0_406_3987)">
<path d="M7 0C5.14414 0.00211736 3.36489 0.740295 2.05259 2.05259C0.740295 3.36489 0.00211736 5.14413 0 7C0 11.257 2.875 16 7 16C11.125 16 14 11.257 14 7C13.9979 5.14413 13.2597 3.36489 11.9474 2.05259C10.6351 0.740295 8.85587 0.00211736 7 0V0ZM10.617 11.646L8.917 10.584C9.45211 9.80895 9.81367 8.92756 9.977 8H11.977C11.8234 9.307 11.3569 10.5577 10.617 11.646V11.646ZM18 1C16.7554 0.983245 15.535 1.34449 14.5 2.036C15.4793 3.50618 16.0013 5.23349 16 7C15.9845 9.20714 15.3989 11.3728 14.3 13.287C14.7666 13.8107 15.3357 14.2329 15.9722 14.5276C16.6086 14.8223 17.2988 14.9831 18 15C21.309 15 24 11.411 24 7C24.0279 6.20454 23.8919 5.41185 23.6002 4.67126C23.3086 3.93067 22.8676 3.25803 22.3048 2.69521C21.742 2.13239 21.0693 1.69143 20.3287 1.39979C19.5882 1.10815 18.7955 0.972063 18 1V1ZM20.312 11.752L19 10.248C19.5507 9.618 19.8921 8.83246 19.977 8H21.977C21.8937 9.41079 21.3022 10.7437 20.312 11.752V11.752ZM21.412 24.062L19.65 23.117C20.364 21.787 20.008 21.512 18.534 20.67C17.9666 20.44 17.4542 20.0929 17.0303 19.6512C16.6064 19.2095 16.2805 18.6833 16.074 18.107C15.9734 17.6431 15.9792 17.1624 16.091 16.701C16.7088 16.8955 17.3523 16.9963 18 17C18.025 17 18.048 17 18.073 17C18.0022 17.2108 17.9847 17.4358 18.022 17.655C18.137 18.145 18.812 18.53 19.527 18.939C20.855 19.692 23.078 20.961 21.413 24.062H21.412ZM11 22C10.9377 22.7193 10.6862 23.4093 10.271 24L8.557 22.973C8.77261 22.6841 8.92368 22.3523 9 22C9 21.646 8.4 21.318 7.553 20.895C6.476 20.356 5 19.618 5 18C5.0073 17.9111 5.021 17.8229 5.041 17.736C5.67918 17.9116 6.33811 18.0004 7 18H7.024C7.016 18.023 6.998 18.06 6.994 18.077C7 18.356 7.6 18.684 8.447 19.107C9.524 19.644 11 20.382 11 22Z" fill="#374957"/>
</g>
<defs>
<clipPath id="clip0_406_3987">
<rect width="24" height="24" fill="white"/>
</clipPath>
</defs>
</svg>
