<svg width="24" height="24" viewBox="0 0 24 24" fill="none" xmlns="http://www.w3.org/2000/svg">
<g clip-path="url(#clip0_406_3894)">
<path d="M9.026 4.99976C9.026 3.92276 10.293 1.88276 11.18 0.466757C11.2701 0.324028 11.3949 0.206441 11.5428 0.124954C11.6906 0.0434671 11.8567 0.000732422 12.0255 0.000732422C12.1943 0.000732422 12.3604 0.0434671 12.5082 0.124954C12.6561 0.206441 12.7809 0.324028 12.871 0.466757C13.758 1.88276 15.026 3.92276 15.026 4.99976C15.026 5.79541 14.7099 6.55847 14.1473 7.12108C13.5847 7.68369 12.8217 7.99976 12.026 7.99976C11.2304 7.99976 10.4673 7.68369 9.90468 7.12108C9.34207 6.55847 9.026 5.79541 9.026 4.99976V4.99976ZM19.026 22.0258V20.0258H5.026V22.0258H3.026V24.0258H21.026V22.0258H19.026ZM15.039 10.0258H17.026V8.02576H7.026V10.0258H9.013C8.949 13.7988 8.008 16.0388 5.65 18.0258H18.4C16.043 16.0388 15.1 13.7998 15.038 10.0258H15.039Z" fill="#374957"/>
</g>
<defs>
<clipPath id="clip0_406_3894">
<rect width="24" height="24" fill="white"/>
</clipPath>
</defs>
</svg>
