<svg width="24" height="24" viewBox="0 0 24 24" fill="none" xmlns="http://www.w3.org/2000/svg">
<g clip-path="url(#clip0_406_3975)">
<path d="M24 5H20.414L23.707 1.707L22.293 0.293L19 3.586V0H17V5.456C16.1815 4.58461 15.2152 3.86486 14.146 3.33C13.4033 3.00206 12.5744 2.92372 11.7834 3.10672C10.9925 3.28972 10.2822 3.7242 9.75901 4.345L13.399 7.985L11.985 9.4L8.55001 5.964C7.79101 7.172 6.91501 8.827 6.03201 10.618L9.28401 13.87L7.87001 15.284L5.11201 12.526C3.17701 16.616 1.41201 20.806 1.07701 21.615L0.139008 23.861L2.38601 22.923C3.46901 22.47 10.634 19.456 15.486 16.899L12.7 14.111L14.111 12.7L17.311 15.9C18.1415 15.4508 18.9184 14.909 19.627 14.285C20.2596 13.7628 20.7044 13.0482 20.8937 12.2501C21.0831 11.4519 21.0066 10.6137 20.676 9.863C20.1397 8.7904 19.418 7.82113 18.544 7H24V5Z" fill="#374957"/>
</g>
<defs>
<clipPath id="clip0_406_3975">
<rect width="24" height="24" fill="white"/>
</clipPath>
</defs>
</svg>
