<svg width="24" height="24" viewBox="0 0 24 24" fill="none" xmlns="http://www.w3.org/2000/svg">
<g clip-path="url(#clip0_406_3769)">
<path d="M20.0001 13.0001V11.0001H23.9491C23.7097 8.17643 22.4793 5.52845 20.4755 3.52466C18.4717 1.52087 15.8237 0.290444 13.0001 0.0510864V4.00009H11.0001V0.0510864C8.17643 0.290444 5.52845 1.52087 3.52466 3.52466C1.52087 5.52845 0.290444 8.17643 0.0510864 11.0001H4.00009V13.0001H0.0510864C0.290444 15.8237 1.52087 18.4717 3.52466 20.4755C5.52845 22.4793 8.17643 23.7097 11.0001 23.9491V20.0001H13.0001V23.9491C15.8237 23.7097 18.4717 22.4793 20.4755 20.4755C22.4793 18.4717 23.7097 15.8237 23.9491 13.0001H20.0001ZM15.0001 13.0001H13.0001V15.0001H11.0001V13.0001H9.00009V11.0001H11.0001V9.00009H13.0001V11.0001H15.0001V13.0001Z" fill="#374957"/>
</g>
<defs>
<clipPath id="clip0_406_3769">
<rect width="24" height="24" fill="white"/>
</clipPath>
</defs>
</svg>
