<svg width="24" height="24" viewBox="0 0 24 24" fill="none" xmlns="http://www.w3.org/2000/svg">
<path d="M17.791 7.20903C17.3457 5.29903 16.2143 3.61916 14.6117 2.48857C13.0092 1.35799 11.0471 0.855473 9.09841 1.0765C7.14968 1.29752 5.35003 2.22668 4.04138 3.68745C2.73273 5.14822 2.00627 7.03881 2.00002 9.00003C1.99904 10.2784 2.30785 11.538 2.90002 12.671C1.82115 13.2492 0.966422 14.1713 0.471641 15.2908C-0.0231397 16.4104 -0.129593 17.6632 0.169193 18.8502C0.46798 20.0372 1.15487 21.0902 2.12073 21.8421C3.08658 22.594 4.27601 23.0016 5.50002 23H16C17.9612 22.9938 19.8518 22.2673 21.3126 20.9587C22.7734 19.65 23.7025 17.8504 23.9236 15.9016C24.1446 13.9529 23.6421 11.9909 22.5115 10.3883C21.3809 8.78577 19.701 7.65435 17.791 7.20903V7.20903ZM13.813 19.121C13.2504 19.6834 12.4875 19.9994 11.692 19.9994C10.8965 19.9994 10.1336 19.6834 9.57102 19.121L6.18702 15.737L7.60002 14.323L10.984 17.707C11.1744 17.8891 11.4276 17.9907 11.691 17.9907C11.9544 17.9907 12.2077 17.8891 12.398 17.707L18.052 12.053L19.466 13.467L13.813 19.121Z" fill="#374957"/>
</svg>
