<svg width="24" height="24" viewBox="0 0 24 24" fill="none" xmlns="http://www.w3.org/2000/svg">
<path d="M12.0001 0.999879C9.44917 0.999016 6.9644 1.81141 4.90669 3.31907C2.84898 4.82673 1.3255 6.95113 0.557529 9.38371C-0.210442 11.8163 -0.182905 14.4303 0.636139 16.8462C1.45518 19.2621 3.02308 21.3539 5.11209 22.8179L5.37109 22.9999H18.6291L18.8881 22.8179C20.9771 21.3539 22.545 19.2621 23.3641 16.8462C24.1831 14.4303 24.2106 11.8163 23.4427 9.38371C22.6747 6.95113 21.1512 4.82673 19.0935 3.31907C17.0358 1.81141 14.551 0.999016 12.0001 0.999879V0.999879ZM6.06009 19.7509C4.42396 18.3199 3.36191 16.3444 3.07069 14.1903C2.77946 12.0363 3.2788 9.84965 4.4762 8.03555C5.6736 6.22144 7.48791 4.90279 9.58305 4.32386C11.6782 3.74492 13.9121 3.94495 15.8711 4.88688L14.3451 6.41288C13.5931 6.14107 12.7997 6.00134 12.0001 5.99988C10.5775 5.99825 9.18827 6.43059 8.01783 7.23919C6.84739 8.04778 5.95145 9.19416 5.4496 10.5253C4.94775 11.8564 4.86388 13.309 5.20917 14.689C5.55447 16.069 6.31251 17.3109 7.38209 18.2489L6.06009 19.7509ZM12.0001 14.9999C11.7134 15.0037 11.4293 14.9458 11.1669 14.8301C10.9046 14.7144 10.6702 14.5437 10.4796 14.3295C10.289 14.1154 10.1467 13.8627 10.0623 13.5887C9.97791 13.3147 9.95343 13.0257 9.99051 12.7414C10.0276 12.4571 10.1254 12.1841 10.2772 11.9409C10.429 11.6977 10.6314 11.49 10.8705 11.3318C11.1097 11.1737 11.38 11.0688 11.6632 11.0243C11.9465 10.9798 12.236 10.9967 12.5121 11.0739L17.2931 6.29288L18.7071 7.70688L13.9261 12.4879C14.0095 12.7836 14.0227 13.0948 13.9648 13.3966C13.9068 13.6984 13.7793 13.9825 13.5923 14.2263C13.4054 14.4702 13.1641 14.6671 12.8877 14.8014C12.6113 14.9357 12.3074 15.0036 12.0001 14.9999V14.9999ZM17.9401 19.7509L16.6181 18.2509C17.6736 17.3311 18.4264 16.1138 18.7778 14.7586C19.1291 13.4034 19.0627 11.9736 18.5871 10.6569L20.1131 9.13088C20.9627 10.895 21.2103 12.8891 20.8178 14.8074C20.4253 16.7257 19.4144 18.4623 17.9401 19.7509V19.7509Z" fill="#374957"/>
</svg>
