<svg width="24" height="24" viewBox="0 0 24 24" fill="none" xmlns="http://www.w3.org/2000/svg">
<g clip-path="url(#clip0_406_3965)">
<path d="M21.9999 18.1838V15.9998C21.9999 15.2042 21.6838 14.4411 21.1212 13.8785C20.5586 13.3159 19.7955 12.9998 18.9999 12.9998H12.9999V9.89983C14.2139 9.65202 15.2927 8.96225 16.0271 7.96424C16.7615 6.96624 17.0991 5.73111 16.9746 4.49831C16.85 3.26551 16.2722 2.12286 15.353 1.2919C14.4339 0.460934 13.239 0.000854492 11.9999 0.000854492C10.7608 0.000854492 9.56587 0.460934 8.64673 1.2919C7.72759 2.12286 7.14974 3.26551 7.0252 4.49831C6.90066 5.73111 7.23831 6.96624 7.97269 7.96424C8.70706 8.96225 9.78584 9.65202 10.9999 9.89983V12.9998H4.99988C4.20423 12.9998 3.44117 13.3159 2.87856 13.8785C2.31595 14.4411 1.99988 15.2042 1.99988 15.9998V18.1838C1.33267 18.4197 0.77033 18.8839 0.412253 19.4943C0.0541754 20.1047 -0.0765828 20.8221 0.0430885 21.5196C0.16276 22.2171 0.525155 22.8498 1.06622 23.3059C1.60729 23.7621 2.2922 24.0123 2.99988 24.0123C3.70757 24.0123 4.39248 23.7621 4.93354 23.3059C5.47461 22.8498 5.83701 22.2171 5.95668 21.5196C6.07635 20.8221 5.94559 20.1047 5.58752 19.4943C5.22944 18.8839 4.6671 18.4197 3.99988 18.1838V15.9998C3.99988 15.7346 4.10524 15.4803 4.29278 15.2927C4.48031 15.1052 4.73467 14.9998 4.99988 14.9998H10.9999V18.1838C10.3327 18.4197 9.77033 18.8839 9.41225 19.4943C9.05418 20.1047 8.92342 20.8221 9.04309 21.5196C9.16276 22.2171 9.52516 22.8498 10.0662 23.3059C10.6073 23.7621 11.2922 24.0123 11.9999 24.0123C12.7076 24.0123 13.3925 23.7621 13.9335 23.3059C14.4746 22.8498 14.837 22.2171 14.9567 21.5196C15.0764 20.8221 14.9456 20.1047 14.5875 19.4943C14.2294 18.8839 13.6671 18.4197 12.9999 18.1838V14.9998H18.9999C19.2651 14.9998 19.5195 15.1052 19.707 15.2927C19.8945 15.4803 19.9999 15.7346 19.9999 15.9998V18.1838C19.3327 18.4197 18.7703 18.8839 18.4123 19.4943C18.0542 20.1047 17.9234 20.8221 18.0431 21.5196C18.1628 22.2171 18.5252 22.8498 19.0662 23.3059C19.6073 23.7621 20.2922 24.0123 20.9999 24.0123C21.7076 24.0123 22.3925 23.7621 22.9335 23.3059C23.4746 22.8498 23.837 22.2171 23.9567 21.5196C24.0763 20.8221 23.9456 20.1047 23.5875 19.4943C23.2294 18.8839 22.6671 18.4197 21.9999 18.1838Z" fill="#374957"/>
</g>
<defs>
<clipPath id="clip0_406_3965">
<rect width="24" height="24" fill="white"/>
</clipPath>
</defs>
</svg>
