<svg width="24" height="24" viewBox="0 0 24 24" fill="none" xmlns="http://www.w3.org/2000/svg">
<g clip-path="url(#clip0_406_3578)">
<path d="M17.9998 9H5.99982C5.46938 9 4.96068 9.21071 4.5856 9.58579C4.21053 9.96086 3.99982 10.4696 3.99982 11V16C3.99982 18.1217 4.84267 20.1566 6.34296 21.6569C7.84325 23.1571 9.87808 24 11.9998 24C14.1215 24 16.1564 23.1571 17.6567 21.6569C19.157 20.1566 19.9998 18.1217 19.9998 16V11C19.9998 10.4696 19.7891 9.96086 19.414 9.58579C19.039 9.21071 18.5302 9 17.9998 9Z" fill="#374957"/>
<path d="M18 0H6V7H18V0ZM11 5H9V3H11V5ZM15 5H13V3H15V5Z" fill="#374957"/>
</g>
<defs>
<clipPath id="clip0_406_3578">
<rect width="24" height="24" fill="white"/>
</clipPath>
</defs>
</svg>
