<svg width="24" height="24" viewBox="0 0 24 24" fill="none" xmlns="http://www.w3.org/2000/svg">
<g clip-path="url(#clip0_406_3637)">
<path d="M19 3.99939H0C0 3.20374 0.31607 2.44068 0.87868 1.87807C1.44129 1.31546 2.20435 0.99939 3 0.99939H16C16.7956 0.99939 17.5587 1.31546 18.1213 1.87807C18.6839 2.44068 19 3.20374 19 3.99939ZM6.942 19.9994C6.97863 20.1636 6.99807 20.3312 7 20.4994C7 21.1624 6.73661 21.7983 6.26777 22.2672C5.79893 22.736 5.16304 22.9994 4.5 22.9994C3.83696 22.9994 3.20107 22.736 2.73223 22.2672C2.26339 21.7983 2 21.1624 2 20.4994C2.00193 20.3312 2.02137 20.1636 2.058 19.9994H6.942ZM21.942 19.9994C21.9786 20.1636 21.9981 20.3312 22 20.4994C22 21.1624 21.7366 21.7983 21.2678 22.2672C20.7989 22.736 20.163 22.9994 19.5 22.9994C18.837 22.9994 18.2011 22.736 17.7322 22.2672C17.2634 21.7983 17 21.1624 17 20.4994C17.0019 20.3312 17.0214 20.1636 17.058 19.9994H21.942ZM5 9.99939H8V5.99939H5V9.99939ZM13 5.99939H10V17.9994H13V5.99939ZM19 5.99939H15V9.99939H19V5.99939ZM21 11.9994H15V17.9994H24V14.9994C24 14.2037 23.6839 13.4407 23.1213 12.8781C22.5587 12.3155 21.7956 11.9994 21 11.9994ZM3 9.99939V5.99939H0V9.99939H3ZM8 11.9994H0V17.9994H8V11.9994Z" fill="#374957"/>
</g>
<defs>
<clipPath id="clip0_406_3637">
<rect width="24" height="24" fill="white"/>
</clipPath>
</defs>
</svg>
