<svg width="24" height="24" viewBox="0 0 24 24" fill="none" xmlns="http://www.w3.org/2000/svg">
<g clip-path="url(#clip0_406_3708)">
<path d="M18.0024 2.03752V6.02195H16.0103V3.44602L12.6235 6.83279C14.9425 9.92645 14.3145 14.3143 11.2209 16.6333C8.12733 18.9523 3.73945 18.3243 1.42045 15.2307C-0.898547 12.137 -0.270656 7.74924 2.823 5.4302C5.30859 3.56696 8.7248 3.56452 11.213 5.42424L14.5998 2.03748H12.0259V0.0452881H16.0103C17.1105 0.045335 18.0024 0.937273 18.0024 2.03752ZM21.9869 6.02195H18.0024V8.01413H20.5784L17.1787 11.4138C16.8094 11.1304 16.4126 10.8848 15.9943 10.6807C15.9943 10.7883 16.0103 10.8939 16.0103 11.0025C16.0048 15.9514 11.9942 19.9619 7.04531 19.9674C6.93675 19.9674 6.83114 19.9545 6.72356 19.9515C8.36105 23.4332 12.511 24.9284 15.9928 23.2909C18.4379 22.141 19.9975 19.681 19.9946 16.9791C19.9916 15.4768 19.4981 14.0165 18.5891 12.8204L21.9868 9.42268V11.9986H23.979V8.01418C23.979 6.91388 23.0871 6.02195 21.9869 6.02195Z" fill="#374957"/>
</g>
<defs>
<clipPath id="clip0_406_3708">
<rect width="24" height="24" fill="white"/>
</clipPath>
</defs>
</svg>
