<svg width="24" height="24" viewBox="0 0 24 24" fill="none" xmlns="http://www.w3.org/2000/svg">
<g clip-path="url(#clip0_406_3629)">
<path d="M14 19C14 17.8418 14.3353 16.7083 14.9653 15.7364C15.5954 14.7645 16.4932 13.9957 17.5506 13.5229C18.6079 13.05 19.7795 12.8933 20.9239 13.0717C22.0684 13.2501 23.1367 13.7558 24 14.528V6H18C18 4.4087 17.3679 2.88258 16.2426 1.75736C15.1174 0.632141 13.5913 0 12 0C10.4087 0 8.88258 0.632141 7.75736 1.75736C6.63214 2.88258 6 4.4087 6 6H0V21C0 21.7956 0.31607 22.5587 0.87868 23.1213C1.44129 23.6839 2.20435 24 3 24H16.683C15.8576 23.453 15.1805 22.7101 14.7124 21.8376C14.2442 20.9651 13.9994 19.9902 14 19V19ZM12 2C13.0609 2 14.0783 2.42143 14.8284 3.17157C15.5786 3.92172 16 4.93913 16 6H8C8 4.93913 8.42143 3.92172 9.17157 3.17157C9.92172 2.42143 10.9391 2 12 2V2Z" fill="#374957"/>
<path d="M22.9997 17.9994H20.9997V15.9994H18.9997V17.9994H16.9997V19.9994H18.9997V21.9994H20.9997V19.9994H22.9997V17.9994Z" fill="#374957"/>
</g>
<defs>
<clipPath id="clip0_406_3629">
<rect width="24" height="24" fill="white"/>
</clipPath>
</defs>
</svg>
