<svg width="24" height="24" viewBox="0 0 24 24" fill="none" xmlns="http://www.w3.org/2000/svg">
<g clip-path="url(#clip0_406_3838)">
<path d="M9 12C12.3137 12 15 9.31371 15 6C15 2.68629 12.3137 0 9 0C5.68629 0 3 2.68629 3 6C3 9.31371 5.68629 12 9 12Z" fill="#374957"/>
<path d="M13.043 13.9996H4.957C3.64281 14.0012 2.3829 14.524 1.45363 15.4533C0.524352 16.3825 0.00158783 17.6424 0 18.9566L0 23.9996H18V18.9566C17.9984 17.6424 17.4756 16.3825 16.5464 15.4533C15.6171 14.524 14.3572 14.0012 13.043 13.9996V13.9996Z" fill="#374957"/>
<path d="M21.9999 7.875C21.4433 7.90272 20.9205 8.14977 20.5456 8.56207C20.1708 8.97437 19.9746 9.51836 19.9999 10.075C20.0252 9.51836 19.8289 8.97437 19.4541 8.56207C19.0793 8.14977 18.5564 7.90272 17.9999 7.875C17.4434 7.90272 16.9205 8.14977 16.5457 8.56207C16.1708 8.97437 15.9746 9.51836 15.9999 10.075C15.9999 12.375 19.9999 15.208 19.9999 15.208C19.9999 15.208 23.9999 12.379 23.9999 10.075C24.0251 9.51836 23.8289 8.97437 23.4541 8.56207C23.0793 8.14977 22.5564 7.90272 21.9999 7.875V7.875Z" fill="#374957"/>
</g>
<defs>
<clipPath id="clip0_406_3838">
<rect width="24" height="24" fill="white"/>
</clipPath>
</defs>
</svg>
