<svg width="24" height="24" viewBox="0 0 24 24" fill="none" xmlns="http://www.w3.org/2000/svg">
<path d="M22.0004 10.0068C22.0004 8.02902 21.4139 6.09566 20.3151 4.45119C19.2162 2.80673 17.6545 1.52502 15.8272 0.768159C14 0.0112944 11.9893 -0.186738 10.0495 0.199102C8.10975 0.584943 6.32793 1.53733 4.92941 2.93582C4.00032 3.86506 3.26348 4.9683 2.76101 6.18247C2.25854 7.39664 2.0003 8.69794 2.00104 10.012C2.00178 11.326 2.2615 12.627 2.76534 13.8406C3.26918 15.0542 4.00727 16.1566 4.93741 17.0848L9.96241 21.9998H5.00041V23.9998H19.0004V21.9998H14.0384L19.0714 17.0768C20.0029 16.1506 20.7414 15.0488 21.2442 13.8352C21.7469 12.6217 22.004 11.3204 22.0004 10.0068V10.0068ZM17.0004 12.6178L12.0004 15.1178L7.00041 12.6178V6.38182L12.0004 3.88182L17.0004 6.38182V12.6178ZM12.0004 8.99982L15.0004 7.49982V11.3818L12.0004 12.8818L9.00041 11.3818V7.49982L12.0004 8.99982Z" fill="#374957"/>
</svg>
