<svg width="24" height="24" viewBox="0 0 24 24" fill="none" xmlns="http://www.w3.org/2000/svg">
<g clip-path="url(#clip0_406_3789)">
<path d="M17.0002 4V2C17.0002 1.46957 16.7894 0.960859 16.4144 0.585786C16.0393 0.210714 15.5306 0 15.0002 0L9.00015 0C8.46972 0 7.96101 0.210714 7.58594 0.585786C7.21087 0.960859 7.00015 1.46957 7.00015 2V4H2.00015V6H4.00015V21C4.00015 21.7956 4.31622 22.5587 4.87883 23.1213C5.44144 23.6839 6.2045 24 7.00015 24H17.0002C17.7958 24 18.5589 23.6839 19.1215 23.1213C19.6841 22.5587 20.0002 21.7956 20.0002 21V6H22.0002V4H17.0002ZM11.0002 17H9.00015V11H11.0002V17ZM15.0002 17H13.0002V11H15.0002V17ZM15.0002 4H9.00015V2H15.0002V4Z" fill="#374957"/>
</g>
<defs>
<clipPath id="clip0_406_3789">
<rect width="24" height="24" fill="white"/>
</clipPath>
</defs>
</svg>
