<svg width="24" height="24" viewBox="0 0 24 24" fill="none" xmlns="http://www.w3.org/2000/svg">
<g clip-path="url(#clip0_406_3980)">
<path d="M23.9759 17.268L19.8509 23.952L18.1509 22.901L22.2759 16.217L23.9759 17.268ZM7.7759 1.76801L6.7289 0.0620117L-0.00610352 4.18401L1.0369 5.88901L7.7759 1.76801ZM20.1799 5.23401L22.0799 3.33401L20.6679 1.91801L18.7769 3.80901C17.4115 2.72626 15.742 2.09717 14.0016 2.00968C12.2612 1.92218 10.537 2.38065 9.0699 3.32101L2.3079 7.07001C1.94804 7.30804 1.64562 7.62312 1.42253 7.99242C1.19944 8.36172 1.06126 8.77601 1.018 9.20529C0.974734 9.63457 1.02747 10.0681 1.17239 10.4745C1.3173 10.8809 1.55077 11.25 1.8559 11.555L12.4399 22.143C12.7084 22.4143 13.0279 22.6298 13.3801 22.7769C13.7323 22.924 14.1102 22.9998 14.4919 23C14.6172 22.9998 14.7425 22.9921 14.8669 22.977C15.3059 22.9235 15.7267 22.7695 16.0966 22.5271C16.4666 22.2846 16.7756 21.9602 16.9999 21.579L20.9279 14.593C21.7435 13.1341 22.1077 11.466 21.9746 9.79997C21.8414 8.13391 21.2168 6.54484 20.1799 5.23401V5.23401ZM2.9999 18.283C2.99402 19.1023 3.20131 19.9091 3.6014 20.6241C4.00149 21.3391 4.58064 21.9378 5.28199 22.3614C5.98334 22.785 6.78279 23.019 7.60186 23.0403C8.42093 23.0616 9.23146 22.8696 9.9539 22.483L3.5599 16.083C3.19673 16.7597 3.00448 17.515 2.9999 18.283V18.283Z" fill="#374957"/>
</g>
<defs>
<clipPath id="clip0_406_3980">
<rect width="24" height="24" fill="white"/>
</clipPath>
</defs>
</svg>
