<svg width="24" height="24" viewBox="0 0 24 24" fill="none" xmlns="http://www.w3.org/2000/svg">
<g clip-path="url(#clip0_406_3596)">
<path d="M24.0002 3.00023V6.00023C24.0002 6.79588 23.6841 7.55894 23.1215 8.12155C22.5589 8.68416 21.7959 9.00023 21.0002 9.00023H18.0002V7.00023H20.6362C19.8222 5.59412 18.6775 4.40774 17.3014 3.54394C15.9253 2.68014 14.3593 2.16498 12.7391 2.04311C11.1189 1.92124 9.49345 2.19633 8.00361 2.84455C6.51376 3.49277 5.20449 4.49455 4.18925 5.76306C3.17402 7.03158 2.48348 8.52855 2.17746 10.1242C1.87145 11.7199 1.95921 13.3661 2.43313 14.9202C2.90706 16.4743 3.75284 17.8894 4.89718 19.0428C6.04152 20.1962 7.44989 21.0531 9.0002 21.5392V23.6052C7.11613 23.1186 5.37876 22.1809 3.938 20.873C2.49725 19.565 1.39639 17.9262 0.730414 16.0978C0.0644437 14.2694 -0.146633 12.3064 0.1154 10.3783C0.377433 8.45011 1.1047 6.61466 2.23446 5.03031C3.36421 3.44597 4.8625 2.16031 6.60005 1.28429C8.3376 0.408276 10.2622 -0.0317937 12.2078 0.00205952C14.1534 0.0359127 16.0616 0.542672 17.7676 1.47861C19.4736 2.41454 20.9263 3.75154 22.0002 5.37423V3.00023H24.0002ZM17.0002 18.0002C17.0002 17.2046 16.6841 16.4415 16.1215 15.8789C15.5589 15.3163 14.7959 15.0002 14.0002 15.0002C13.2046 15.0002 12.4415 15.3163 11.8789 15.8789C11.3163 16.4415 11.0002 17.2046 11.0002 18.0002H13.0002C13.0002 17.735 13.1056 17.4807 13.2931 17.2931C13.4806 17.1056 13.735 17.0002 14.0002 17.0002C14.2654 17.0002 14.5198 17.1056 14.7073 17.2931C14.8948 17.4807 15.0002 17.735 15.0002 18.0002C15.0002 18.5002 14.1502 19.1382 13.4002 19.7002C12.2752 20.5442 11.0002 21.5002 11.0002 23.0002V24.0002H17.0002V22.0002H13.7102C13.9812 21.7642 14.2992 21.5262 14.6002 21.3002C15.7252 20.4562 17.0002 19.5002 17.0002 18.0002ZM22.0002 19.0002H20.0002V15.0002H18.0002V19.0002C18.0002 19.5307 18.2109 20.0394 18.586 20.4144C18.9611 20.7895 19.4698 21.0002 20.0002 21.0002H22.0002V24.0002H24.0002V15.0002H22.0002V19.0002ZM13.0002 6.00023H11.0002V11.0002H7.0002V13.0002H13.0002V6.00023Z" fill="#374957"/>
</g>
<defs>
<clipPath id="clip0_406_3596">
<rect width="24" height="24" fill="white"/>
</clipPath>
</defs>
</svg>
