<svg width="24" height="24" viewBox="0 0 24 24" fill="none" xmlns="http://www.w3.org/2000/svg">
<g clip-path="url(#clip0_406_3848)">
<path d="M18.5002 3C19.3286 3 20.0002 2.32843 20.0002 1.5C20.0002 0.671573 19.3286 0 18.5002 0C17.6717 0 17.0002 0.671573 17.0002 1.5C17.0002 2.32843 17.6717 3 18.5002 3Z" fill="#374957"/>
<path d="M21.5002 8.00012C22.3286 8.00012 23.0002 7.32855 23.0002 6.50012C23.0002 5.67169 22.3286 5.00012 21.5002 5.00012C20.6718 5.00012 20.0002 5.67169 20.0002 6.50012C20.0002 7.32855 20.6718 8.00012 21.5002 8.00012Z" fill="#374957"/>
<path d="M24 12C24 14.3734 23.2962 16.6935 21.9776 18.6668C20.6591 20.6402 18.7849 22.1783 16.5922 23.0866C14.3995 23.9948 11.9867 24.2324 9.65892 23.7694C7.33115 23.3064 5.19295 22.1635 3.51472 20.4853C1.83649 18.8071 0.693605 16.6689 0.230582 14.3411C-0.232441 12.0133 0.00519943 9.60051 0.913451 7.4078C1.8217 5.21509 3.35977 3.34094 5.33316 2.02236C7.30655 0.703788 9.62663 0 12 0C12.387 0 12.769 0.021 13.146 0.057L13.97 0.134L14.048 0.958C14.2707 3.26786 15.2899 5.42835 16.9308 7.06924C18.5717 8.71013 20.7321 9.72927 23.042 9.952L23.866 10.03L23.943 10.854C23.979 11.231 24 11.613 24 12ZM8.50001 7C8.20333 7 7.91332 7.08797 7.66665 7.2528C7.41998 7.41762 7.22772 7.65189 7.11419 7.92598C7.00065 8.20006 6.97095 8.50167 7.02883 8.79264C7.08671 9.08361 7.22957 9.35088 7.43934 9.56066C7.64912 9.77044 7.9164 9.9133 8.20737 9.97118C8.49834 10.0291 8.79994 9.99935 9.07403 9.88582C9.34812 9.77229 9.58239 9.58003 9.74721 9.33336C9.91203 9.08668 10 8.79667 10 8.5C10 8.10218 9.84197 7.72065 9.56067 7.43934C9.27936 7.15804 8.89783 7 8.50001 7ZM8.50001 14C8.20333 14 7.91332 14.088 7.66665 14.2528C7.41998 14.4176 7.22772 14.6519 7.11419 14.926C7.00065 15.2001 6.97095 15.5017 7.02883 15.7926C7.08671 16.0836 7.22957 16.3509 7.43934 16.5607C7.64912 16.7704 7.9164 16.9133 8.20737 16.9712C8.49834 17.0291 8.79994 16.9994 9.07403 16.8858C9.34812 16.7723 9.58239 16.58 9.74721 16.3334C9.91203 16.0867 10 15.7967 10 15.5C10 15.1022 9.84197 14.7206 9.56067 14.4393C9.27936 14.158 8.89783 14 8.50001 14ZM15.5 13C15.2033 13 14.9133 13.088 14.6667 13.2528C14.42 13.4176 14.2277 13.6519 14.1142 13.926C14.0007 14.2001 13.9709 14.5017 14.0288 14.7926C14.0867 15.0836 14.2296 15.3509 14.4393 15.5607C14.6491 15.7704 14.9164 15.9133 15.2074 15.9712C15.4983 16.0291 15.7999 15.9994 16.074 15.8858C16.3481 15.7723 16.5824 15.58 16.7472 15.3334C16.912 15.0867 17 14.7967 17 14.5C17 14.1022 16.842 13.7206 16.5607 13.4393C16.2794 13.158 15.8978 13 15.5 13V13Z" fill="#374957"/>
</g>
<defs>
<clipPath id="clip0_406_3848">
<rect width="24" height="24" fill="white"/>
</clipPath>
</defs>
</svg>
