<svg width="24" height="24" viewBox="0 0 24 24" fill="none" xmlns="http://www.w3.org/2000/svg">
<g clip-path="url(#clip0_406_3806)">
<path d="M24 4V6H20V10H18V6H14V4H18V0H20V4H24ZM12 15.422C12.7955 15.4229 13.5588 15.1078 14.122 14.546L16.969 11.7C15.1965 11.1646 13.7088 9.94785 12.8323 8.31681C11.9559 6.68576 11.7623 4.77362 12.294 3H3C2.40116 3.0009 1.81629 3.181 1.32067 3.51711C0.825055 3.85323 0.441369 4.32998 0.219 4.886L9.878 14.546C10.4412 15.1078 11.2045 15.4229 12 15.422ZM15.536 15.96C14.5974 16.8963 13.3257 17.422 12 17.422C10.6743 17.422 9.40263 16.8963 8.464 15.96L0 7.5V24H24V9.894C22.811 11.1104 21.2184 11.8501 19.522 11.974L15.536 15.96Z" fill="#374957"/>
</g>
<defs>
<clipPath id="clip0_406_3806">
<rect width="24" height="24" fill="white"/>
</clipPath>
</defs>
</svg>
