<svg width="24" height="24" viewBox="0 0 24 24" fill="none" xmlns="http://www.w3.org/2000/svg">
<g clip-path="url(#clip0_406_3953)">
<path d="M10.1569 23.8429C7.96786 23.5039 5.91553 22.5652 4.22746 21.1309C2.53939 19.6967 1.28155 17.8229 0.593434 15.7174C-0.0946835 13.6119 -0.18619 11.357 0.329063 9.20266C0.844316 7.04833 1.94619 5.0788 3.5125 3.5125C5.0788 1.94619 7.04833 0.844316 9.20266 0.329063C11.357 -0.18619 13.6119 -0.0946835 15.7174 0.593434C17.8229 1.28155 19.6967 2.53939 21.1309 4.22746C22.5652 5.91553 23.5039 7.96786 23.8429 10.1569C21.9765 9.85059 20.064 9.99307 18.2635 10.5725C16.4631 11.152 14.8265 12.1518 13.4891 13.4891C12.1518 14.8265 11.152 16.4631 10.5725 18.2635C9.99307 20.064 9.85059 21.9765 10.1569 23.8429V23.8429ZM23.9999 12.1999C22.3799 11.8687 20.7032 11.9445 19.1197 12.4203C17.5362 12.8961 16.0954 13.7571 14.9262 14.9262C13.7571 16.0954 12.8961 17.5362 12.4203 19.1197C11.9445 20.7032 11.8687 22.3799 12.1999 23.9999L23.9999 12.1999Z" fill="#374957"/>
</g>
<defs>
<clipPath id="clip0_406_3953">
<rect width="24" height="24" fill="white"/>
</clipPath>
</defs>
</svg>
