<svg width="24" height="24" viewBox="0 0 24 24" fill="none" xmlns="http://www.w3.org/2000/svg">
<g clip-path="url(#clip0_406_3985)">
<path d="M19.0709 2.92896C18.1432 1.99428 17.0401 1.25202 15.8248 0.744804C14.6096 0.237586 13.3061 -0.024606 11.9892 -0.0267205C10.6723 -0.028835 9.36801 0.22917 8.15112 0.732483C6.93422 1.2358 5.82872 1.9745 4.89808 2.9062C3.96744 3.8379 3.22998 4.94423 2.72804 6.1617C2.22611 7.37916 1.96958 8.68377 1.97318 10.0006C1.97679 11.3175 2.24045 12.6207 2.74905 13.8354C3.25764 15.0501 4.00114 16.1524 4.93687 17.079L11.9999 23.987L19.0709 17.071C20.9462 15.1956 21.9997 12.6521 21.9997 9.99996C21.9997 7.34783 20.9462 4.80432 19.0709 2.92896V2.92896ZM15.9999 11H12.9999V14H10.9999V11H7.99987V8.99996H10.9999V5.99996H12.9999V8.99996H15.9999V11Z" fill="#374957"/>
</g>
<defs>
<clipPath id="clip0_406_3985">
<rect width="24" height="24" fill="white"/>
</clipPath>
</defs>
</svg>
