<svg width="24" height="24" viewBox="0 0 24 24" fill="none" xmlns="http://www.w3.org/2000/svg">
<g clip-path="url(#clip0_406_3570)">
<path d="M19.9999 7.99933C20.0011 6.45949 19.5579 4.95201 18.7234 3.65786C17.889 2.36371 16.6988 1.33788 15.2957 0.703506C13.8926 0.0691322 12.3362 -0.146826 10.8134 0.0815544C9.29055 0.309935 7.866 0.972948 6.71072 1.99101C5.55544 3.00907 4.71852 4.33891 4.30042 5.82091C3.88232 7.30291 3.90081 8.87408 4.35367 10.3458C4.80653 11.8176 5.67451 13.1274 6.85343 14.118C8.03235 15.1085 9.47211 15.7379 10.9999 15.9303V18.9993H7.99988V20.9993H10.9999V23.9993H12.9999V20.9993H15.9999V18.9993H12.9999V15.9303C14.9314 15.6853 16.7074 14.7449 17.9958 13.2852C19.2842 11.8254 19.9966 9.94631 19.9999 7.99933Z" fill="#374957"/>
</g>
<defs>
<clipPath id="clip0_406_3570">
<rect width="24" height="24" fill="white"/>
</clipPath>
</defs>
</svg>
