<svg width="24" height="24" viewBox="0 0 24 24" fill="none" xmlns="http://www.w3.org/2000/svg">
<g clip-path="url(#clip0_406_4009)">
<path d="M23.9999 11.9999C23.9995 14.9669 22.8944 17.8274 20.8999 20.0239C19.4208 18.857 18.2927 17.3043 17.6399 15.5369L19.5809 14.9579L19.0089 13.0419L17.1399 13.5999C17.0514 13.0711 17.0046 12.5361 16.9999 11.9999C17.0046 11.4637 17.0514 10.9288 17.1399 10.3999L19.0059 10.9559L19.5779 9.03993L17.6369 8.46093C18.2908 6.69395 19.42 5.14189 20.8999 3.97593C22.8944 6.17249 23.9995 9.03298 23.9999 11.9999V11.9999ZM6.36294 15.5369L4.42194 14.9579L4.99394 13.0419L6.85994 13.5999C6.94852 13.0711 6.99533 12.5361 6.99994 11.9999C6.99533 11.4637 6.94852 10.9288 6.85994 10.3999L4.99394 10.9559L4.42194 9.04193L6.36294 8.46293C5.7094 6.69522 4.5802 5.14244 3.09994 3.97593C1.10331 6.17137 -0.00308228 9.03235 -0.00308228 11.9999C-0.00308228 14.9675 1.10331 17.8285 3.09994 20.0239C4.5802 18.8574 5.7094 17.3046 6.36294 15.5369V15.5369ZM15.7239 16.1079L13.8239 16.6729L13.2519 14.7559L15.2119 14.1709C15.0767 13.455 15.0058 12.7285 14.9999 11.9999C15.0071 11.2713 15.0794 10.5447 15.2159 9.82893L13.2559 9.24393L13.8279 7.32693L15.7279 7.89193C16.4637 5.82546 17.7417 3.99488 19.4279 2.59193C17.3173 0.915463 14.7013 0.00292969 12.0059 0.00292969C9.31055 0.00292969 6.69454 0.915463 4.58394 2.59193C6.27019 3.99488 7.54814 5.82546 8.28394 7.89193L10.1839 7.32693L10.7559 9.24393L8.79594 9.82893C8.92848 10.5451 8.99675 11.2716 8.99994 11.9999C8.99279 12.7286 8.9205 13.4551 8.78394 14.1709L10.7439 14.7559L10.1719 16.6729L8.27194 16.1079C7.53614 18.1744 6.25819 20.005 4.57194 21.4079C6.68254 23.0844 9.29855 23.9969 11.9939 23.9969C14.6893 23.9969 17.3053 23.0844 19.4159 21.4079C17.7326 20.004 16.4575 18.1735 15.7239 16.1079V16.1079Z" fill="#374957"/>
</g>
<defs>
<clipPath id="clip0_406_4009">
<rect width="24" height="24" fill="white"/>
</clipPath>
</defs>
</svg>
