<svg width="24" height="24" viewBox="0 0 24 24" fill="none" xmlns="http://www.w3.org/2000/svg">
<g clip-path="url(#clip0_406_3825)">
<path d="M12.0322 19C12.4263 19.0007 12.8166 18.9234 13.1808 18.7728C13.545 18.6221 13.8758 18.4009 14.1542 18.122L18.0732 14.2L16.6592 12.79L13.0262 16.424L13.0002 0H11.0002L11.0262 16.408L7.40619 12.788L5.99219 14.2L9.91119 18.119C10.1893 18.3983 10.5198 18.6199 10.8838 18.7711C11.2478 18.9223 11.638 19.0001 12.0322 19V19Z" fill="#374957"/>
<path d="M22 15.9999V20.9999C22 21.2651 21.8946 21.5194 21.7071 21.707C21.5196 21.8945 21.2652 21.9999 21 21.9999H3C2.73478 21.9999 2.48043 21.8945 2.29289 21.707C2.10536 21.5194 2 21.2651 2 20.9999V15.9999H0V20.9999C0 21.7955 0.31607 22.5586 0.87868 23.1212C1.44129 23.6838 2.20435 23.9999 3 23.9999H21C21.7956 23.9999 22.5587 23.6838 23.1213 23.1212C23.6839 22.5586 24 21.7955 24 20.9999V15.9999H22Z" fill="#374957"/>
</g>
<defs>
<clipPath id="clip0_406_3825">
<rect width="24" height="24" fill="white"/>
</clipPath>
</defs>
</svg>
