<svg width="24" height="24" viewBox="0 0 24 24" fill="none" xmlns="http://www.w3.org/2000/svg">
<g clip-path="url(#clip0_406_3712)">
<path d="M10.247 9.752L14.434 5.566L18.434 9.566L14.248 13.753L10.247 9.752ZM8.83301 11.166L0.833013 19.166C0.437534 19.5616 0.168228 20.0656 0.0591372 20.6143C-0.0499534 21.163 0.00606889 21.7317 0.220122 22.2485C0.434176 22.7653 0.796651 23.2071 1.26173 23.518C1.72681 23.8288 2.27361 23.9948 2.83301 23.995C3.20467 23.9962 3.57285 23.9235 3.91619 23.7812C4.25952 23.6388 4.57116 23.4297 4.83301 23.166L12.833 15.166L8.83301 11.166ZM18.667 17.3L20 19.962L21.333 17.3L24 15.962L21.333 14.628L20 11.962L18.667 14.628L16 15.962L18.667 17.3ZM6.66701 5.338L8.00001 8L9.33301 5.333L12 4L9.33301 2.667L8.00001 0L6.66701 2.667L4.00001 4L6.66701 5.338ZM19.333 4.672L20.5 7L21.667 4.667L24 3.5L21.667 2.333L20.5 0L19.333 2.333L17 3.5L19.333 4.672Z" fill="#374957"/>
</g>
<defs>
<clipPath id="clip0_406_3712">
<rect width="24" height="24" fill="white"/>
</clipPath>
</defs>
</svg>
