<svg width="24" height="24" viewBox="0 0 24 24" fill="none" xmlns="http://www.w3.org/2000/svg">
<g clip-path="url(#clip0_406_3951)">
<path d="M23.9821 3H0.0181464C0.0123312 2.40156 0.186535 1.81519 0.518146 1.317C0.792916 0.911549 1.16278 0.579537 1.59543 0.349964C2.02808 0.12039 2.51036 0.000238447 3.00015 2.10226e-06H21.0001C21.4908 -0.000578671 21.9741 0.119183 22.4077 0.348792C22.8412 0.578401 23.2119 0.910849 23.4871 1.317C23.817 1.81576 23.9894 2.40209 23.9821 3ZM11.0001 11.962V22H6.00015V24H18.0001V22H13.0001V11.962C15.1882 11.8089 17.2981 11.0858 19.12 9.86437C20.942 8.64298 22.4124 6.96594 23.3851 5H0.615146C1.5879 6.96594 3.05834 8.64298 4.88025 9.86437C6.70216 11.0858 8.81206 11.8089 11.0001 11.962V11.962Z" fill="#374957"/>
</g>
<defs>
<clipPath id="clip0_406_3951">
<rect width="24" height="24" fill="white"/>
</clipPath>
</defs>
</svg>
