<svg width="24" height="24" viewBox="0 0 24 24" fill="none" xmlns="http://www.w3.org/2000/svg">
<g clip-path="url(#clip0_406_3667)">
<path d="M19.9442 2.634L12.0002 0L4.05615 2.634C3.45763 2.83242 2.93684 3.21438 2.56775 3.72563C2.19867 4.23689 2.00007 4.85144 2.00015 5.482V11.991C2.00015 19.515 11.2002 23.67 11.5942 23.843L11.9482 24L12.3162 23.878C12.7112 23.747 22.0002 20.568 22.0002 11.991V5.482C22.0002 4.85144 21.8016 4.23689 21.4326 3.72563C21.0635 3.21438 20.5427 2.83242 19.9442 2.634V2.634ZM13.0002 19.052H11.0002V17.052H13.0002V19.052ZM13.9282 12.557C13.6548 12.7634 13.43 13.0273 13.2697 13.33C13.1094 13.6327 13.0174 13.9669 13.0002 14.309V15.052H11.0002V14.309C11.0188 13.6102 11.2071 12.9265 11.5489 12.3167C11.8907 11.7069 12.3758 11.1895 12.9622 10.809C13.3325 10.6062 13.6293 10.2915 13.8098 9.90973C13.9903 9.52801 14.0454 9.09894 13.9672 8.684C13.8904 8.28818 13.697 7.92434 13.4119 7.63924C13.1268 7.35413 12.763 7.16077 12.3672 7.084C12.0782 7.03007 11.781 7.04048 11.4966 7.11448C11.2121 7.18848 10.9475 7.32426 10.7215 7.51216C10.4955 7.70006 10.3137 7.93545 10.189 8.2016C10.0644 8.46774 9.99986 8.7581 10.0002 9.052H8.00015C8.00005 8.46775 8.12794 7.89058 8.37482 7.36106C8.6217 6.83154 8.98158 6.36252 9.42915 5.987C9.85691 5.6294 10.3547 5.36518 10.8906 5.21128C11.4264 5.05738 11.9886 5.01721 12.5409 5.09334C13.0932 5.16947 13.6235 5.36023 14.0978 5.65336C14.572 5.94649 14.9798 6.33554 15.2948 6.79552C15.6099 7.2555 15.8253 7.77627 15.9272 8.32441C16.0292 8.87254 16.0154 9.43594 15.8868 9.97845C15.7583 10.5209 15.5177 11.0306 15.1805 11.4746C14.8434 11.9187 14.4172 12.2874 13.9292 12.557H13.9282Z" fill="#374957"/>
</g>
<defs>
<clipPath id="clip0_406_3667">
<rect width="24" height="24" fill="white"/>
</clipPath>
</defs>
</svg>
