<svg width="24" height="24" viewBox="0 0 24 24" fill="none" xmlns="http://www.w3.org/2000/svg">
<g clip-path="url(#clip0_406_3732)">
<path d="M15 22.2812L8.99999 23.7812V1.9242L15 0.314204V22.2812ZM6.99999 1.4172L4.15499 0.233204C3.69922 0.0430752 3.20356 -0.0315988 2.71199 0.0158097C2.22043 0.0632181 1.74818 0.231243 1.33714 0.504971C0.926102 0.7787 0.588994 1.14967 0.355735 1.58495C0.122476 2.02023 0.000280363 2.50636 -7.62939e-06 3.0002L-7.62939e-06 21.7542L6.99999 23.7542V1.4172ZM21.867 1.6172L17.515 0.155204C17.3471 0.100572 17.1748 0.0607532 17 0.0362044V22.2732L24 23.9782V4.4832C23.9998 3.83908 23.7923 3.21213 23.4081 2.69508C23.024 2.17804 22.4836 1.79836 21.867 1.6122V1.6172Z" fill="#374957"/>
</g>
<defs>
<clipPath id="clip0_406_3732">
<rect width="24" height="24" fill="white"/>
</clipPath>
</defs>
</svg>
