<svg width="24" height="24" viewBox="0 0 24 24" fill="none" xmlns="http://www.w3.org/2000/svg">
<g clip-path="url(#clip0_406_3970)">
<path d="M24.0002 11.9841C24.0003 10.9307 23.5848 9.9197 22.8439 9.17078C22.103 8.42186 21.0966 7.99544 20.0432 7.98411C19.1665 6.23793 17.7481 4.82239 16.0002 3.94911C15.9489 2.92414 15.5056 1.9581 14.762 1.25079C14.0185 0.543492 13.0315 0.149048 12.0052 0.149048C10.979 0.149048 9.99197 0.543492 9.24838 1.25079C8.50479 1.9581 8.06151 2.92414 8.01021 3.94911C6.25795 4.82168 4.83584 6.23888 3.95721 7.98811C2.90863 8.00247 1.90774 8.42855 1.17055 9.1744C0.433371 9.92025 0.019015 10.9261 0.0169148 11.9747C0.0148145 13.0234 0.425138 14.0309 1.15933 14.7797C1.89352 15.5285 2.89269 15.9586 3.94121 15.9771C4.8162 17.7414 6.24312 19.1718 8.00521 20.0511C8.05651 21.0761 8.49979 22.0421 9.24338 22.7494C9.98697 23.4567 10.974 23.8512 12.0002 23.8512C13.0265 23.8512 14.0135 23.4567 14.757 22.7494C15.5006 22.0421 15.9439 21.0761 15.9952 20.0511C17.7573 19.1718 19.1842 17.7414 20.0592 15.9771C21.1086 15.9616 22.1099 15.5343 22.8471 14.7874C23.5844 14.0404 23.9985 13.0336 24.0002 11.9841ZM15.4782 18.0611C15.1367 17.4372 14.6336 16.9166 14.0216 16.554C13.4097 16.1913 12.7115 16 12.0002 16C11.2889 16 10.5907 16.1913 9.97878 16.554C9.36686 16.9166 8.86376 17.4372 8.52221 18.0611C7.44484 17.4378 6.55134 16.5409 5.93221 15.4611C6.55686 15.1208 7.07847 14.6187 7.44239 14.0075C7.80631 13.3962 7.99914 12.6984 8.00068 11.9871C8.00221 11.2757 7.81239 10.577 7.45111 9.96426C7.08983 9.35148 6.57039 8.84715 5.94721 8.50411C6.566 7.43697 7.45388 6.55082 8.52221 5.93411C8.86376 6.55805 9.36686 7.07862 9.97878 7.44125C10.5907 7.80389 11.2889 7.99523 12.0002 7.99523C12.7115 7.99523 13.4097 7.80389 14.0216 7.44125C14.6336 7.07862 15.1367 6.55805 15.4782 5.93411C16.5465 6.55082 17.4344 7.43697 18.0532 8.50411C17.43 8.84715 16.9106 9.35148 16.5493 9.96426C16.188 10.577 15.9982 11.2757 15.9997 11.9871C16.0013 12.6984 16.1941 13.3962 16.558 14.0075C16.922 14.6187 17.4436 15.1208 18.0682 15.4611C17.4491 16.5409 16.5556 17.4378 15.4782 18.0611Z" fill="#374957"/>
</g>
<defs>
<clipPath id="clip0_406_3970">
<rect width="24" height="24" fill="white"/>
</clipPath>
</defs>
</svg>
