<svg width="24" height="24" viewBox="0 0 24 24" fill="none" xmlns="http://www.w3.org/2000/svg">
<g clip-path="url(#clip0_406_3759)">
<path d="M12.0001 7.99998C11.2088 7.99976 10.4352 8.23423 9.7772 8.67374C9.11919 9.11325 8.60632 9.73805 8.30348 10.4691C8.00063 11.2001 7.92142 12.0046 8.07585 12.7807C8.23029 13.5567 8.61144 14.2696 9.17108 14.829L12.0001 17.6L14.8361 14.826C15.3951 14.266 15.7755 13.5528 15.9291 12.7766C16.0827 12.0003 16.0027 11.196 15.6991 10.4653C15.3955 9.73457 14.882 9.11031 14.2236 8.67148C13.5651 8.23265 12.7914 7.99896 12.0001 7.99998V7.99998ZM12.0001 12.992C11.8023 12.992 11.609 12.9333 11.4445 12.8235C11.2801 12.7136 11.1519 12.5574 11.0762 12.3747C11.0005 12.1919 10.9807 11.9909 11.0193 11.7969C11.0579 11.6029 11.1531 11.4247 11.293 11.2849C11.4328 11.145 11.611 11.0498 11.805 11.0112C11.999 10.9726 12.2 10.9924 12.3828 11.0681C12.5655 11.1438 12.7217 11.272 12.8315 11.4364C12.9414 11.6009 13.0001 11.7942 13.0001 11.992C13.0001 12.2572 12.8947 12.5116 12.7072 12.6991C12.5196 12.8866 12.2653 12.992 12.0001 12.992ZM22.8491 7.67998L13.8491 0.636984C13.3211 0.223397 12.6698 -0.00134277 11.9991 -0.00134277C11.3284 -0.00134277 10.6771 0.223397 10.1491 0.636984L1.14908 7.67998C0.789872 7.96 0.499556 8.31856 0.300389 8.72816C0.101222 9.13776 -0.00150645 9.58753 7.91138e-05 10.043V24H24.0001V10.043C24.0014 9.58736 23.8984 9.13749 23.6989 8.72788C23.4994 8.31827 23.2087 7.9598 22.8491 7.67998V7.67998ZM16.2431 16.243L12.0001 20.393L7.76508 16.25C7.20742 15.6933 6.76487 15.0322 6.46269 14.3045C6.16051 13.5768 6.00462 12.7967 6.00392 12.0088C6.00323 11.2208 6.15774 10.4405 6.45863 9.71222C6.75952 8.98399 7.20091 8.32214 7.75758 7.76448C8.31425 7.20683 8.97531 6.76427 9.70302 6.46209C10.4307 6.15991 11.2108 6.00403 11.9988 6.00333C12.7867 6.00263 13.5671 6.15714 14.2953 6.45803C15.0236 6.75893 15.6854 7.20031 16.2431 7.75698V7.75698C17.3666 8.88327 17.9975 10.4092 17.9975 12C17.9975 13.5908 17.3666 15.1167 16.2431 16.243Z" fill="#374957"/>
</g>
<defs>
<clipPath id="clip0_406_3759">
<rect width="24" height="24" fill="white"/>
</clipPath>
</defs>
</svg>
