<svg width="24" height="24" viewBox="0 0 24 24" fill="none" xmlns="http://www.w3.org/2000/svg">
<path d="M20.9997 12.4176V10.9996C20.9997 8.61269 20.0515 6.3235 18.3636 4.63567C16.6758 2.94785 14.3866 1.99963 11.9997 1.99963C9.61272 1.99963 7.32353 2.94785 5.6357 4.63567C3.94788 6.3235 2.99967 8.61269 2.99967 10.9996V12.4176C1.94721 12.8773 1.08509 13.6853 0.558209 14.7058C0.0313274 15.7263 -0.128192 16.897 0.106464 18.0212C0.34112 19.1455 0.955645 20.1547 1.84675 20.8792C2.73785 21.6037 3.8512 21.9993 4.99967 21.9996H6.99967V11.9996H4.99967V10.9996C4.99967 9.14312 5.73716 7.36264 7.04992 6.04989C8.36267 4.73713 10.1431 3.99963 11.9997 3.99963C13.8562 3.99963 15.6367 4.73713 16.9494 6.04989C18.2622 7.36264 18.9997 9.14312 18.9997 10.9996V11.9996H16.9997V21.9996H18.9997C20.1481 21.9993 21.2615 21.6037 22.1526 20.8792C23.0437 20.1547 23.6582 19.1455 23.8929 18.0212C24.1275 16.897 23.968 15.7263 23.4411 14.7058C22.9142 13.6853 22.0521 12.8773 20.9997 12.4176Z" fill="#374957"/>
</svg>
