<svg width="24" height="24" viewBox="0 0 24 24" fill="none" xmlns="http://www.w3.org/2000/svg">
<g clip-path="url(#clip0_406_3816)">
<path d="M9.828 20H4V14.172L4.586 13.586L18.172 0H3C2.20435 0 1.44129 0.31607 0.87868 0.87868C0.31607 1.44129 0 2.20435 0 3L0 24H17V17H24V5.828L9.828 20Z" fill="#374957"/>
<path d="M18.9998 23.4144L23.4138 19.0004H18.9998V23.4144Z" fill="#374957"/>
<path d="M6 18H9L23.379 3.62095C23.7768 3.22313 24.0003 2.68356 24.0003 2.12095C24.0003 1.55834 23.7768 1.01878 23.379 0.620954C22.9812 0.223129 22.4416 -0.000366204 21.879 -0.000366211C21.3164 -0.000366218 20.7768 0.223129 20.379 0.620954L6 15V18Z" fill="#374957"/>
</g>
<defs>
<clipPath id="clip0_406_3816">
<rect width="24" height="24" fill="white"/>
</clipPath>
</defs>
</svg>
