<svg width="24" height="24" viewBox="0 0 24 24" fill="none" xmlns="http://www.w3.org/2000/svg">
<g clip-path="url(#clip0_406_3735)">
<path d="M20.9999 1.00031H10.9999C10.2042 1.00031 9.44117 1.31638 8.87856 1.87898C8.31595 2.44159 7.99988 3.20466 7.99988 4.00031V14.0003C7.09881 13.3245 5.99594 12.9727 4.86997 13.002C3.74401 13.0313 2.6609 13.4398 1.79615 14.1615C0.931391 14.8833 0.335646 15.8758 0.105434 16.9784C-0.124778 18.0809 0.0240299 19.2289 0.527748 20.2364C1.03147 21.2438 1.86058 22.0517 2.88077 22.529C3.90095 23.0064 5.05243 23.1253 6.14865 22.8666C7.24487 22.6078 8.22159 21.9864 8.92059 21.1032C9.61958 20.22 9.99988 19.1267 9.99988 18.0003V4.00031C9.99988 3.73509 10.1052 3.48073 10.2928 3.2932C10.4803 3.10566 10.7347 3.00031 10.9999 3.00031H20.9999C21.2651 3.00031 21.5195 3.10566 21.707 3.2932C21.8945 3.48073 21.9999 3.73509 21.9999 4.00031V14.0003C21.0988 13.3245 19.9959 12.9727 18.87 13.002C17.744 13.0313 16.6609 13.4398 15.7961 14.1615C14.9314 14.8833 14.3356 15.8758 14.1054 16.9784C13.8752 18.0809 14.024 19.2289 14.5277 20.2364C15.0315 21.2438 15.8606 22.0517 16.8808 22.529C17.9009 23.0064 19.0524 23.1253 20.1486 22.8666C21.2449 22.6078 22.2216 21.9864 22.9206 21.1032C23.6196 20.22 23.9999 19.1267 23.9999 18.0003V4.00031C23.9999 3.20466 23.6838 2.44159 23.1212 1.87898C22.5586 1.31638 21.7955 1.00031 20.9999 1.00031V1.00031Z" fill="#374957"/>
</g>
<defs>
<clipPath id="clip0_406_3735">
<rect width="24" height="24" fill="white"/>
</clipPath>
</defs>
</svg>
