<svg width="24" height="24" viewBox="0 0 24 24" fill="none" xmlns="http://www.w3.org/2000/svg">
<g clip-path="url(#clip0_406_3695)">
<path d="M4.30896 5.6084L2.77196 4.32941C1.88041 5.39844 1.18257 6.61508 0.709961 7.9244L2.59096 8.6044C2.98451 7.51318 3.56594 6.49923 4.30896 5.6084V5.6084Z" fill="#374957"/>
<path d="M1.99996 12.0002C2 11.423 2.04952 10.8469 2.14796 10.2782L0.17696 9.93622C-0.0603703 11.3067 -0.0603703 12.7078 0.17696 14.0782L2.14696 13.7342C2.04824 13.1615 1.99906 12.5814 1.99996 12.0002V12.0002Z" fill="#374957"/>
<path d="M8.50713 2.62656L7.80813 0.752563C6.50356 1.23901 5.29403 1.9497 4.23413 2.85256L5.53413 4.37656C6.41579 3.62474 7.42188 3.03252 8.50713 2.62656V2.62656Z" fill="#374957"/>
<path d="M4.24408 21.1567C5.30534 22.058 6.51586 22.767 7.82107 23.2517L8.52107 21.3767C7.43338 20.9733 6.4248 20.3823 5.54108 19.6307L4.24408 21.1567Z" fill="#374957"/>
<path d="M2.59991 15.4079L0.71991 16.0889C1.1946 17.3975 1.89373 18.6134 2.78591 19.6819L4.31691 18.3999C3.57507 17.5099 2.99404 16.4974 2.59991 15.4079V15.4079Z" fill="#374957"/>
<path d="M11.9999 0C11.2716 0.00124052 10.545 0.0681785 9.82886 0.2L10.1889 2.168C10.7862 2.05729 11.3923 2.00106 11.9999 2V22C11.3925 22.0003 10.7863 21.9454 10.1889 21.836L9.82886 23.8C11.5592 24.1165 13.3379 24.0491 15.0393 23.6024C16.7407 23.1558 18.3232 22.3409 19.6749 21.2153C21.0267 20.0897 22.1147 18.6809 22.862 17.0885C23.6094 15.4961 23.9978 13.759 23.9998 12C23.9964 8.81846 22.731 5.76821 20.4813 3.51852C18.2316 1.26883 15.1814 0.00344108 11.9999 0V0Z" fill="#374957"/>
</g>
<defs>
<clipPath id="clip0_406_3695">
<rect width="24" height="24" fill="white"/>
</clipPath>
</defs>
</svg>
