<svg width="24" height="24" viewBox="0 0 24 24" fill="none" xmlns="http://www.w3.org/2000/svg">
<g clip-path="url(#clip0_406_3879)">
<path d="M21.4142 5H17.0002V0.586L21.4142 5ZM22.0002 7V24H2.00015V3C2.00015 2.20435 2.31622 1.44129 2.87883 0.87868C3.44144 0.31607 4.2045 0 5.00015 0L15.0002 0V7H22.0002ZM15.0002 10H13.0002C12.4697 10 11.961 10.2107 11.5859 10.5858C11.2109 10.9609 11.0002 11.4696 11.0002 12V15.05C10.8355 15.0171 10.6681 15.0003 10.5002 15C10.0057 15 9.52235 15.1466 9.11123 15.4213C8.7001 15.696 8.37967 16.0865 8.19045 16.5433C8.00123 17.0001 7.95173 17.5028 8.04819 17.9877C8.14465 18.4727 8.38275 18.9181 8.73239 19.2678C9.08202 19.6174 9.52747 19.8555 10.0124 19.952C10.4974 20.0484 11 19.9989 11.4569 19.8097C11.9137 19.6205 12.3041 19.3 12.5788 18.8889C12.8535 18.4778 13.0002 17.9945 13.0002 17.5V12H15.0002V10Z" fill="#374957"/>
</g>
<defs>
<clipPath id="clip0_406_3879">
<rect width="24" height="24" fill="white"/>
</clipPath>
</defs>
</svg>
