<svg width="24" height="24" viewBox="0 0 24 24" fill="none" xmlns="http://www.w3.org/2000/svg">
<g clip-path="url(#clip0_406_3830)">
<path d="M14 7V0H6C5.20435 0 4.44129 0.31607 3.87868 0.87868C3.31607 1.44129 3 2.20435 3 3V24H21V7H14ZM7 10H17V12H7V10ZM7 14H17V16H7V14ZM13.135 21C12.4116 20.9994 11.7105 20.7501 11.149 20.294C10.835 20.071 10.725 20 10.487 20C9.82687 20.0227 9.1953 20.2749 8.701 20.713L7.293 19.293C8.15899 18.4785 9.29828 18.0173 10.487 18C11.1518 18.0079 11.7941 18.2421 12.308 18.664C12.5321 18.8752 12.8271 18.995 13.135 19C13.86 19 14.823 17.945 15.176 17.434L16.826 18.564C16.655 18.813 15.106 21 13.135 21V21ZM16 0.219C16.5959 0.408346 17.1391 0.734745 17.586 1.172L19.828 3.414C20.2676 3.85979 20.5956 4.40325 20.785 5H16V0.219Z" fill="#374957"/>
</g>
<defs>
<clipPath id="clip0_406_3830">
<rect width="24" height="24" fill="white"/>
</clipPath>
</defs>
</svg>
