<svg width="24" height="24" viewBox="0 0 24 24" fill="none" xmlns="http://www.w3.org/2000/svg">
<g clip-path="url(#clip0_406_3803)">
<path d="M9.87812 12.5462C10.4417 13.1076 11.2047 13.4227 12.0001 13.4227C12.7955 13.4227 13.5585 13.1076 14.1221 12.5462L23.7811 2.88624C23.5587 2.33022 23.1751 1.85347 22.6794 1.51735C22.1838 1.18124 21.599 1.00114 21.0001 1.00024H3.00012C2.40128 1.00114 1.81641 1.18124 1.32079 1.51735C0.825171 1.85347 0.441485 2.33022 0.219116 2.88624L9.87812 12.5462Z" fill="#374957"/>
<path d="M15.536 13.9602C14.5974 14.8965 13.3257 15.4223 12 15.4223C10.6743 15.4223 9.40263 14.8965 8.464 13.9602L0 5.50024V23.0002H24V5.50024L15.536 13.9602Z" fill="#374957"/>
</g>
<defs>
<clipPath id="clip0_406_3803">
<rect width="24" height="24" fill="white"/>
</clipPath>
</defs>
</svg>
