<svg width="24" height="24" viewBox="0 0 24 24" fill="none" xmlns="http://www.w3.org/2000/svg">
<g clip-path="url(#clip0_406_3610)">
<path d="M23.9999 13H-9.42376e-05V11H5.07091C5.15307 10.4418 5.30319 9.89575 5.51791 9.374L1.13391 6.822L2.13991 5.094L6.52491 7.646C6.86313 7.22427 7.24865 6.84277 7.67391 6.509L5.12591 2.127L6.85391 1.121L9.39991 5.5C9.91453 5.29632 10.4517 5.15499 10.9999 5.079V0H12.9999V5.079C13.5519 5.15711 14.0925 5.30148 14.6099 5.509L17.1619 1.121L18.8909 2.127L16.3369 6.518C16.7602 6.85117 17.1438 7.23202 17.4799 7.653L21.8799 5.094L22.8859 6.822L18.4859 9.382C18.6987 9.90135 18.8475 10.4447 18.9289 11H23.9999V13ZM20.9999 22C20.4695 22 19.9608 21.7893 19.5857 21.4142C19.2106 21.0391 18.9999 20.5304 18.9999 20H16.9999C16.9999 20.5304 16.7892 21.0391 16.4141 21.4142C16.039 21.7893 15.5303 22 14.9999 22C14.4695 22 13.9608 21.7893 13.5857 21.4142C13.2106 21.0391 12.9999 20.5304 12.9999 20H10.9999C10.9999 20.5304 10.7892 21.0391 10.4141 21.4142C10.039 21.7893 9.53034 22 8.99991 22C8.46947 22 7.96077 21.7893 7.58569 21.4142C7.21062 21.0391 6.99991 20.5304 6.99991 20H4.99991C4.99313 20.4031 4.86528 20.7949 4.63295 21.1244C4.40062 21.454 4.07456 21.706 3.69713 21.8478C3.31969 21.9896 2.90834 22.0146 2.5165 21.9196C2.12466 21.8246 1.77046 21.6139 1.49991 21.315L-0.00909424 22.632C0.367828 23.0574 0.830954 23.3977 1.34952 23.6303C1.86808 23.863 2.43021 23.9826 2.99857 23.9813C3.56692 23.98 4.12849 23.8577 4.64596 23.6227C5.16343 23.3876 5.62497 23.0451 5.99991 22.618C6.37474 23.0445 6.83621 23.3862 7.35352 23.6202C7.87083 23.8543 8.43211 23.9753 8.99991 23.9753C9.56771 23.9753 10.129 23.8543 10.6463 23.6202C11.1636 23.3862 11.6251 23.0445 11.9999 22.618C12.3747 23.0445 12.8362 23.3862 13.3535 23.6202C13.8708 23.8543 14.4321 23.9753 14.9999 23.9753C15.5677 23.9753 16.129 23.8543 16.6463 23.6202C17.1636 23.3862 17.6251 23.0445 17.9999 22.618C18.3748 23.0454 18.8365 23.3881 19.3541 23.6232C19.8717 23.8584 20.4334 23.9806 21.002 23.9819C21.5705 23.9831 22.1328 23.8633 22.6514 23.6304C23.17 23.3974 23.6331 23.0568 24.0099 22.631L22.4999 21.316C22.3132 21.5305 22.0827 21.7025 21.824 21.8205C21.5653 21.9384 21.2843 21.9997 20.9999 22V22ZM5.99991 17.618C6.37474 18.0445 6.83621 18.3862 7.35352 18.6202C7.87083 18.8543 8.43211 18.9753 8.99991 18.9753C9.56771 18.9753 10.129 18.8543 10.6463 18.6202C11.1636 18.3862 11.6251 18.0445 11.9999 17.618C12.3747 18.0445 12.8362 18.3862 13.3535 18.6202C13.8708 18.8543 14.4321 18.9753 14.9999 18.9753C15.5677 18.9753 16.129 18.8543 16.6463 18.6202C17.1636 18.3862 17.6251 18.0445 17.9999 17.618C18.3748 18.0454 18.8365 18.3881 19.3541 18.6232C19.8717 18.8584 20.4334 18.9806 21.002 18.9819C21.5705 18.9831 22.1328 18.8633 22.6514 18.6304C23.17 18.3974 23.6331 18.0568 24.0099 17.631L22.4999 16.316C22.2293 16.615 21.875 16.8257 21.4831 16.9207C21.0911 17.0157 20.6797 16.9906 20.3022 16.8486C19.9248 16.7067 19.5987 16.4545 19.3665 16.1248C19.1342 15.7951 19.0065 15.4032 18.9999 15H16.9999C16.9999 15.5304 16.7892 16.0391 16.4141 16.4142C16.039 16.7893 15.5303 17 14.9999 17C14.4695 17 13.9608 16.7893 13.5857 16.4142C13.2106 16.0391 12.9999 15.5304 12.9999 15H10.9999C10.9999 15.5304 10.7892 16.0391 10.4141 16.4142C10.039 16.7893 9.53034 17 8.99991 17C8.46947 17 7.96077 16.7893 7.58569 16.4142C7.21062 16.0391 6.99991 15.5304 6.99991 15H4.99991C4.99313 15.4031 4.86528 15.7949 4.63295 16.1244C4.40062 16.454 4.07456 16.706 3.69713 16.8478C3.31969 16.9896 2.90834 17.0146 2.5165 16.9196C2.12466 16.8246 1.77046 16.6139 1.49991 16.315L-0.00909424 17.632C0.367828 18.0574 0.830954 18.3977 1.34952 18.6303C1.86808 18.863 2.43021 18.9826 2.99857 18.9813C3.56692 18.98 4.12849 18.8577 4.64596 18.6227C5.16343 18.3876 5.62497 18.0451 5.99991 17.618V17.618Z" fill="#374957"/>
</g>
<defs>
<clipPath id="clip0_406_3610">
<rect width="24" height="24" fill="white"/>
</clipPath>
</defs>
</svg>
