<svg width="24" height="24" viewBox="0 0 24 24" fill="none" xmlns="http://www.w3.org/2000/svg">
<g clip-path="url(#clip0_406_3595)">
<path d="M24 18H20V7C20 6.20435 19.6839 5.44129 19.1213 4.87868C18.5587 4.31607 17.7956 4 17 4H6V0H4V4H0V6H4V17C4 17.7956 4.31607 18.5587 4.87868 19.1213C5.44129 19.6839 6.20435 20 7 20H18V24H20V20H24V18ZM7 18C6.73478 18 6.48043 17.8946 6.29289 17.7071C6.10536 17.5196 6 17.2652 6 17V6H17C17.2652 6 17.5196 6.10536 17.7071 6.29289C17.8946 6.48043 18 6.73478 18 7V18H7Z" fill="#374957"/>
</g>
<defs>
<clipPath id="clip0_406_3595">
<rect width="24" height="24" fill="white"/>
</clipPath>
</defs>
</svg>
