<svg width="24" height="24" viewBox="0 0 24 24" fill="none" xmlns="http://www.w3.org/2000/svg">
<g clip-path="url(#clip0_406_4008)">
<path d="M23.79 15.5654L19.978 16.6004L21.012 20.4124L19.082 20.9364L17.894 16.5574L15.931 15.4324L13 17.1244V19.3944L16.207 22.6004L14.793 24.0144L12 21.2224L9.20702 24.0154L7.79302 22.6004L11 19.3944V17.1244L8.06902 15.4324L6.10602 16.5574L4.91802 20.9364L2.98802 20.4124L4.02202 16.6004L0.210022 15.5654L0.733022 13.6364L5.11102 14.8234L7.00002 13.7404V10.3124L5.11102 9.22838L0.733022 10.4154L0.210022 8.48538L4.02202 7.45238L2.98802 3.64038L4.91802 3.11638L6.10602 7.49438L7.90002 8.52338L11 6.73338V4.65738L7.79302 1.45038L9.20702 0.036377L12 2.82938L14.793 0.036377L16.207 1.45038L13 4.65738V6.73338L16.1 8.52338L17.9 7.49438L19.087 3.11638L21.017 3.64038L19.978 7.45238L23.79 8.48538L23.267 10.4154L18.889 9.22838L17 10.3114V13.7404L18.889 14.8234L23.267 13.6364L23.79 15.5654Z" fill="#374957"/>
</g>
<defs>
<clipPath id="clip0_406_4008">
<rect width="24" height="24" fill="white"/>
</clipPath>
</defs>
</svg>
