<svg width="24" height="24" viewBox="0 0 24 24" fill="none" xmlns="http://www.w3.org/2000/svg">
<g clip-path="url(#clip0_406_3639)">
<path d="M14.4141 4.62185C15.1663 4.09687 15.7898 3.40824 16.2377 2.60772C16.6856 1.80719 16.9462 0.915577 17.0001 -0.000146711H19.0001C18.9982 1.22398 18.6728 2.42587 18.0571 3.48385C19.36 3.24013 20.6769 3.07848 22.0001 2.99985C21.8985 5.38577 21.4488 7.74403 20.6651 9.99985H16.4141L18.7071 7.70685L17.2931 6.29285L13.5861 9.99985H12.2441C11.9706 9.20905 11.9252 8.35726 12.113 7.54187C12.3008 6.72647 12.7143 5.98037 13.3061 5.38885C13.6345 5.07864 14.0081 4.82003 14.4141 4.62185V4.62185ZM23.3801 13.1739C23.0984 12.8075 22.7361 12.511 22.3212 12.3074C21.9064 12.1038 21.4502 11.9986 20.9881 11.9999H3.00009C2.53801 11.9988 2.08191 12.1042 1.6671 12.3078C1.2523 12.5113 0.889933 12.8077 0.608086 13.1739C0.332454 13.5251 0.141447 13.9352 0.0498803 14.3722C-0.0416861 14.8092 -0.0313504 15.2615 0.0800856 15.6939C1.00009 18.6939 4.90809 22.3359 8.00009 23.9999H16.0001C19.0431 22.3249 26.0161 16.6419 23.3801 13.1739ZM2.02009 9.99985H10.3801C10.3227 8.92998 9.85735 7.92282 9.07973 7.18577C8.30212 6.44872 7.2715 6.0379 6.20009 6.0379C5.12868 6.0379 4.09805 6.44872 3.32044 7.18577C2.54283 7.92282 2.07743 8.92998 2.02009 9.99985V9.99985ZM6.20009 3.99985C7.01953 3.99921 7.83085 4.16226 8.58643 4.47943C9.34201 4.79661 10.0266 5.26151 10.6001 5.84685C11.1522 4.60205 12.1086 3.58017 13.3141 2.94685C13.9376 2.45573 14.4345 1.82239 14.7631 1.09985C14.0606 0.430953 13.1378 0.0419245 12.1685 0.00600949C11.1992 -0.0299055 10.2501 0.289771 9.50009 0.904853C8.86181 0.377396 8.07455 0.0627679 7.24855 0.0050263C6.42255 -0.0527153 5.59918 0.149321 4.89373 0.582845C4.18827 1.01637 3.63607 1.65967 3.31444 2.42266C2.99281 3.18566 2.91786 4.03014 3.10009 4.83785C4.04093 4.28882 5.11076 3.99962 6.20009 3.99985V3.99985Z" fill="#374957"/>
</g>
<defs>
<clipPath id="clip0_406_3639">
<rect width="24" height="24" fill="white"/>
</clipPath>
</defs>
</svg>
