<svg width="24" height="24" viewBox="0 0 24 24" fill="none" xmlns="http://www.w3.org/2000/svg">
<g clip-path="url(#clip0_406_3804)">
<path d="M21.0382 4.452L21.9182 5.332L23.3322 3.918L20.1452 0.73L18.7302 2.145L19.6222 3.036L18.5742 4.2C16.952 2.97963 15.0218 2.23546 13.0002 2.051V0H11.0002V2.051C8.97857 2.23546 7.04838 2.97963 5.42617 4.2L4.37817 3.036L5.33217 2.082L3.91817 0.668L0.668167 3.918L2.08217 5.332L2.96217 4.452L3.94017 5.539C2.48316 7.10778 1.51563 9.06766 1.15625 11.1783C0.796857 13.2889 1.06123 15.4586 1.91693 17.4212C2.77264 19.3837 4.18249 21.0539 5.97358 22.2269C7.76467 23.3999 9.85915 24.0247 12.0002 24.0247C14.1412 24.0247 16.2357 23.3999 18.0268 22.2269C19.8178 21.0539 21.2277 19.3837 22.0834 17.4212C22.9391 15.4586 23.2035 13.2889 22.8441 11.1783C22.4847 9.06766 21.5172 7.10778 20.0602 5.539L21.0382 4.452ZM12.0002 15C11.5603 15.0015 11.1322 14.8575 10.7827 14.5904C10.4332 14.3233 10.1818 13.9481 10.0677 13.5233C9.95357 13.0984 9.98314 12.6478 10.1518 12.2415C10.3205 11.8352 10.6187 11.4961 11.0002 11.277V6H13.0002V11.277C13.3816 11.4961 13.6799 11.8352 13.8485 12.2415C14.0172 12.6478 14.0468 13.0984 13.9327 13.5233C13.8185 13.9481 13.5671 14.3233 13.2176 14.5904C12.8681 14.8575 12.4401 15.0015 12.0002 15V15Z" fill="#374957"/>
</g>
<defs>
<clipPath id="clip0_406_3804">
<rect width="24" height="24" fill="white"/>
</clipPath>
</defs>
</svg>
