<svg width="24" height="24" viewBox="0 0 24 24" fill="none" xmlns="http://www.w3.org/2000/svg">
<g clip-path="url(#clip0_406_3983)">
<path d="M24 13V19C23.9987 19.9718 23.7143 20.9221 23.1815 21.7348C22.6487 22.5475 21.8906 23.1873 21 23.576V13H24ZM19 11V17.356C18.1587 16.3084 17.093 15.4631 15.8815 14.8822C14.67 14.3013 13.3436 13.9998 12 13.9998C10.6564 13.9998 9.33001 14.3013 8.1185 14.8822C6.90699 15.4631 5.8413 16.3084 5 17.356V11C5.00071 9.8729 5.27388 8.76267 5.79624 7.76392C6.31859 6.76517 7.07466 5.90751 8 5.264V4C8 2.93913 8.42143 1.92172 9.17157 1.17157C9.92172 0.421427 10.9391 0 12 0C13.0609 0 14.0783 0.421427 14.8284 1.17157C15.5786 1.92172 16 2.93913 16 4V5.264C16.9253 5.90751 17.6814 6.76517 18.2038 7.76392C18.7261 8.76267 18.9993 9.8729 19 11V11ZM10 4.3C11.3043 3.90666 12.6957 3.90666 14 4.3V4C14 3.46957 13.7893 2.96086 13.4142 2.58579C13.0391 2.21071 12.5304 2 12 2C11.4696 2 10.9609 2.21071 10.5858 2.58579C10.2107 2.96086 10 3.46957 10 4V4.3ZM15 9H9V11H15V9ZM0 19C0.00127838 19.9718 0.285705 20.9221 0.818499 21.7348C1.35129 22.5475 2.10936 23.1873 3 23.576V13H0V19ZM12 16C10.1441 16.0021 8.36489 16.7403 7.05259 18.0526C5.7403 19.3649 5.00212 21.1441 5 23V24H19V23C18.9979 21.1441 18.2597 19.3649 16.9474 18.0526C15.6351 16.7403 13.8559 16.0021 12 16V16Z" fill="#374957"/>
</g>
<defs>
<clipPath id="clip0_406_3983">
<rect width="24" height="24" fill="white"/>
</clipPath>
</defs>
</svg>
