<svg width="24" height="24" viewBox="0 0 24 24" fill="none" xmlns="http://www.w3.org/2000/svg">
<g clip-path="url(#clip0_406_3900)">
<path d="M21.207 13.7809L15.5 8.07393L13.5 10.0739L7.70001 4.27393L6.28101 5.68293L13.5 12.8999L15.5 10.8999L19.793 15.1999L17 17.9879H22.5C22.8978 17.9879 23.2794 17.8299 23.5607 17.5486C23.842 17.2673 24 16.8858 24 16.4879V10.9879L21.207 13.7809Z" fill="#374957"/>
<path d="M2 20.976V0H0V20.976C0 21.7716 0.31607 22.5347 0.87868 23.0973C1.44129 23.6599 2.20435 23.976 3 23.976H24V21.976H3C2.73478 21.976 2.48043 21.8706 2.29289 21.6831C2.10536 21.4956 2 21.2412 2 20.976V20.976Z" fill="#374957"/>
</g>
<defs>
<clipPath id="clip0_406_3900">
<rect width="24" height="24" fill="white"/>
</clipPath>
</defs>
</svg>
