<svg width="24" height="24" viewBox="0 0 24 24" fill="none" xmlns="http://www.w3.org/2000/svg">
<g clip-path="url(#clip0_406_3850)">
<path d="M19 19H23.414L19 23.414V19ZM24 3V17H17V24H0V3C0 2.20435 0.31607 1.44129 0.87868 0.87868C1.44129 0.31607 2.20435 0 3 0L21 0C21.7956 0 22.5587 0.31607 23.1213 0.87868C23.6839 1.44129 24 2.20435 24 3ZM5.5 9V6.932C5.4988 6.83321 5.51733 6.73518 5.55452 6.64365C5.59171 6.55212 5.64681 6.46895 5.71657 6.39899C5.78634 6.32904 5.86937 6.27373 5.9608 6.23629C6.05223 6.19886 6.15021 6.18006 6.249 6.181C6.44616 6.18654 6.63372 6.26734 6.77319 6.40681C6.91266 6.54628 6.99346 6.73384 6.999 6.931H8.25C8.24659 6.40162 8.03478 5.89489 7.66045 5.52055C7.28611 5.14622 6.77938 4.93441 6.25 4.931C5.98829 4.92982 5.72891 4.98024 5.4867 5.07939C5.24449 5.17855 5.02421 5.32448 4.83845 5.50884C4.65269 5.6932 4.50511 5.91238 4.40414 6.15384C4.30316 6.39529 4.25079 6.65428 4.25 6.916V9.016C4.25092 9.27763 4.30339 9.53652 4.40442 9.77786C4.50545 10.0192 4.65306 10.2383 4.8388 10.4225C5.02455 10.6068 5.24479 10.7526 5.48693 10.8517C5.72907 10.9508 5.98837 11.0012 6.25 11C6.77767 11 7.28397 10.7915 7.65859 10.4199C8.0332 10.0483 8.24578 9.54366 8.25 9.016V7.931H6.25V8.931H7V9.015C6.99383 9.21056 6.91237 9.39619 6.77262 9.53314C6.63288 9.67009 6.44565 9.74778 6.25 9.75C6.15121 9.75107 6.0532 9.7324 5.96173 9.69509C5.87025 9.65778 5.78714 9.60258 5.71728 9.53272C5.64742 9.46286 5.59222 9.37975 5.55491 9.28827C5.5176 9.1968 5.49893 9.09879 5.5 9V9ZM11.25 4.931H10V11H11.25V4.931ZM16.263 4.931H13V10.956H14.25V8.569H16.114V7.319H14.25V6.181H16.263V4.931Z" fill="#374957"/>
</g>
<defs>
<clipPath id="clip0_406_3850">
<rect width="24" height="24" fill="white"/>
</clipPath>
</defs>
</svg>
