<svg width="24" height="24" viewBox="0 0 24 24" fill="none" xmlns="http://www.w3.org/2000/svg">
<g clip-path="url(#clip0_406_3940)">
<path d="M23.9999 11.309V24H12.0179C9.67684 23.9989 7.38728 23.3131 5.43117 22.027C3.47506 20.7409 1.93785 18.9108 1.00886 16.762C0.0798767 14.6132 -0.200302 12.2396 0.202835 9.93353C0.605972 7.62749 1.67482 5.48972 3.27772 3.78354C4.88062 2.07737 6.94758 0.877292 9.22399 0.331138C11.5004 -0.215015 13.8869 -0.0833956 16.0894 0.709785C18.2919 1.50297 20.2144 2.92307 21.6199 4.79517C23.0255 6.66727 23.8528 8.90961 23.9999 11.246V11.309ZM12.9999 7H6.99985V9H12.9999V7ZM16.9999 11H6.99985V13H16.9999V11ZM16.9999 15H6.99985V17H16.9999V15Z" fill="#374957"/>
</g>
<defs>
<clipPath id="clip0_406_3940">
<rect width="24" height="24" fill="white"/>
</clipPath>
</defs>
</svg>
