<svg width="24" height="24" viewBox="0 0 24 24" fill="none" xmlns="http://www.w3.org/2000/svg">
<g clip-path="url(#clip0_406_3893)">
<path d="M5 4.99988V18.9999H0V4.99988H5ZM24 18.9999V4.99988H19V18.9999H24ZM17 4.99988V18.9999H7V4.99988H17ZM13 9.99988C13 10.1977 13.0586 10.391 13.1685 10.5554C13.2784 10.7199 13.4346 10.8481 13.6173 10.9238C13.8 10.9994 14.0011 11.0192 14.1951 10.9807C14.3891 10.9421 14.5673 10.8468 14.7071 10.707C14.847 10.5671 14.9422 10.3889 14.9808 10.195C15.0194 10.001 14.9996 9.79992 14.9239 9.61719C14.8482 9.43447 14.72 9.27829 14.5556 9.16841C14.3911 9.05853 14.1978 8.99988 14 8.99988C13.7348 8.99988 13.4804 9.10523 13.2929 9.29277C13.1054 9.48031 13 9.73466 13 9.99988ZM11 13.9999C11 13.8021 10.9414 13.6088 10.8315 13.4443C10.7216 13.2799 10.5654 13.1517 10.3827 13.076C10.2 13.0003 9.99889 12.9805 9.80491 13.0191C9.61093 13.0577 9.43275 13.1529 9.29289 13.2928C9.15304 13.4326 9.0578 13.6108 9.01921 13.8048C8.98063 13.9988 9.00043 14.1998 9.07612 14.3826C9.15181 14.5653 9.27998 14.7215 9.44443 14.8313C9.60888 14.9412 9.80222 14.9999 10 14.9999C10.2652 14.9999 10.5196 14.8945 10.7071 14.707C10.8946 14.5194 11 14.2651 11 13.9999ZM11 9.99988C11 9.8021 10.9414 9.60876 10.8315 9.44431C10.7216 9.27986 10.5654 9.15169 10.3827 9.076C10.2 9.00031 9.99889 8.98051 9.80491 9.01909C9.61093 9.05768 9.43275 9.15292 9.29289 9.29277C9.15304 9.43262 9.0578 9.61081 9.01921 9.80479C8.98063 9.99877 9.00043 10.1998 9.07612 10.3826C9.15181 10.5653 9.27998 10.7215 9.44443 10.8313C9.60888 10.9412 9.80222 10.9999 10 10.9999C10.2652 10.9999 10.5196 10.8945 10.7071 10.707C10.8946 10.5194 11 10.2651 11 9.99988ZM15 13.9999C15 13.8021 14.9414 13.6088 14.8315 13.4443C14.7216 13.2799 14.5654 13.1517 14.3827 13.076C14.2 13.0003 13.9989 12.9805 13.8049 13.0191C13.6109 13.0577 13.4327 13.1529 13.2929 13.2928C13.153 13.4326 13.0578 13.6108 13.0192 13.8048C12.9806 13.9988 13.0004 14.1998 13.0761 14.3826C13.1518 14.5653 13.28 14.7215 13.4444 14.8313C13.6089 14.9412 13.8022 14.9999 14 14.9999C14.2652 14.9999 14.5196 14.8945 14.7071 14.707C14.8946 14.5194 15 14.2651 15 13.9999Z" fill="#374957"/>
</g>
<defs>
<clipPath id="clip0_406_3893">
<rect width="24" height="24" fill="white"/>
</clipPath>
</defs>
</svg>
