<svg width="24" height="24" viewBox="0 0 24 24" fill="none" xmlns="http://www.w3.org/2000/svg">
<g clip-path="url(#clip0_406_4016)">
<path d="M15.0003 2.41632V4.51632C17.0019 5.22401 18.6889 6.61653 19.7632 8.44776C20.8374 10.279 21.2297 12.431 20.8707 14.5235C20.5116 16.616 19.4245 18.5142 17.8013 19.8826C16.178 21.2511 14.1233 22.0016 12.0003 22.0016C9.87721 22.0016 7.8225 21.2511 6.19929 19.8826C4.57608 18.5142 3.4889 16.616 3.12988 14.5235C2.77087 12.431 3.16314 10.279 4.23738 8.44776C5.31161 6.61653 6.99863 5.22401 9.00027 4.51632V2.41632C6.44589 3.14042 4.2396 4.76397 2.78851 6.98737C1.33743 9.21078 0.739488 11.884 1.10502 14.5137C1.47055 17.1435 2.77488 19.5523 4.77734 21.2957C6.7798 23.039 9.34524 23.9993 12.0003 23.9993C14.6553 23.9993 17.2207 23.039 19.2232 21.2957C21.2257 19.5523 22.53 17.1435 22.8955 14.5137C23.2611 11.884 22.6631 9.21078 21.212 6.98737C19.7609 4.76397 17.5547 3.14042 15.0003 2.41632V2.41632Z" fill="#374957"/>
<path d="M13.0001 0H11.0001V8H13.0001V0Z" fill="#374957"/>
</g>
<defs>
<clipPath id="clip0_406_4016">
<rect width="24" height="24" fill="white"/>
</clipPath>
</defs>
</svg>
