<svg width="24" height="24" viewBox="0 0 24 24" fill="none" xmlns="http://www.w3.org/2000/svg">
<g clip-path="url(#clip0_406_3700)">
<path d="M15.9999 10.0003C17.6567 10.0003 18.9999 8.65716 18.9999 7.00031C18.9999 5.34345 17.6567 4.00031 15.9999 4.00031C14.343 4.00031 12.9999 5.34345 12.9999 7.00031C12.9999 8.65716 14.343 10.0003 15.9999 10.0003Z" fill="#374957"/>
<path d="M3.99988 18.9996C3.99988 19.2648 4.10523 19.5192 4.29277 19.7067C4.48031 19.8943 4.73466 19.9996 4.99988 19.9996H19.9999V18.5856L11.1209 9.70661C10.5583 9.14419 9.79537 8.82825 8.99988 8.82825C8.20439 8.82825 7.44146 9.14419 6.87888 9.70661L3.99988 12.5856V18.9996Z" fill="#374957"/>
<path d="M20.9999 24.0003H15.9999V22.0003H20.9999C21.2651 22.0003 21.5194 21.8949 21.707 21.7074C21.8945 21.5199 21.9999 21.2655 21.9999 21.0003V16.0003H23.9999V21.0003C23.9999 21.7959 23.6838 22.559 23.1212 23.1216C22.5586 23.6842 21.7955 24.0003 20.9999 24.0003Z" fill="#374957"/>
<path d="M2 8H0V3C0 2.20435 0.31607 1.44129 0.87868 0.87868C1.44129 0.31607 2.20435 0 3 0L8 0V2H3C2.73478 2 2.48043 2.10536 2.29289 2.29289C2.10536 2.48043 2 2.73478 2 3V8Z" fill="#374957"/>
<path d="M8 24.0003H3C2.20435 24.0003 1.44129 23.6842 0.87868 23.1216C0.31607 22.559 0 21.7959 0 21.0003L0 16.0003H2V21.0003C2 21.2655 2.10536 21.5199 2.29289 21.7074C2.48043 21.8949 2.73478 22.0003 3 22.0003H8V24.0003Z" fill="#374957"/>
<path d="M23.9999 8H21.9999V3C21.9999 2.73478 21.8945 2.48043 21.707 2.29289C21.5194 2.10536 21.2651 2 20.9999 2H15.9999V0H20.9999C21.7955 0 22.5586 0.31607 23.1212 0.87868C23.6838 1.44129 23.9999 2.20435 23.9999 3V8Z" fill="#374957"/>
</g>
<defs>
<clipPath id="clip0_406_3700">
<rect width="24" height="24" fill="white"/>
</clipPath>
</defs>
</svg>
