<svg width="24" height="24" viewBox="0 0 24 24" fill="none" xmlns="http://www.w3.org/2000/svg">
<g clip-path="url(#clip0_406_3794)">
<path d="M14 12.0003C14 12.3959 13.8827 12.7825 13.6629 13.1114C13.4432 13.4403 13.1308 13.6967 12.7654 13.8481C12.3999 13.9994 11.9978 14.039 11.6098 13.9619C11.2219 13.8847 10.8655 13.6942 10.5858 13.4145C10.3061 13.1348 10.1156 12.7784 10.0384 12.3905C9.96126 12.0025 10.0009 11.6004 10.1522 11.2349C10.3036 10.8695 10.56 10.5571 10.8889 10.3374C11.2178 10.1176 11.6044 10.0003 12 10.0003C12.5304 10.0003 13.0391 10.211 13.4142 10.5861C13.7893 10.9612 14 11.4699 14 12.0003ZM24 7.00031V20.0003H0V7.00031C0 6.20466 0.31607 5.44159 0.87868 4.87898C1.44129 4.31638 2.20435 4.00031 3 4.00031H21C21.7956 4.00031 22.5587 4.31638 23.1213 4.87898C23.6839 5.44159 24 6.20466 24 7.00031V7.00031ZM5 16.0003C5 15.8025 4.94135 15.6092 4.83147 15.4447C4.72159 15.2803 4.56541 15.1521 4.38268 15.0764C4.19996 15.0007 3.99889 14.9809 3.80491 15.0195C3.61093 15.0581 3.43275 15.1533 3.29289 15.2932C3.15304 15.4331 3.0578 15.6112 3.01921 15.8052C2.98063 15.9992 3.00043 16.2003 3.07612 16.383C3.15181 16.5657 3.27998 16.7219 3.44443 16.8318C3.60888 16.9417 3.80222 17.0003 4 17.0003C4.26522 17.0003 4.51957 16.8949 4.70711 16.7074C4.89464 16.5199 5 16.2655 5 16.0003ZM5 8.00031C5 7.80252 4.94135 7.60918 4.83147 7.44474C4.72159 7.28029 4.56541 7.15211 4.38268 7.07643C4.19996 7.00074 3.99889 6.98093 3.80491 7.01952C3.61093 7.05811 3.43275 7.15335 3.29289 7.2932C3.15304 7.43305 3.0578 7.61123 3.01921 7.80521C2.98063 7.9992 3.00043 8.20026 3.07612 8.38299C3.15181 8.56572 3.27998 8.72189 3.44443 8.83177C3.60888 8.94166 3.80222 9.00031 4 9.00031C4.26522 9.00031 4.51957 8.89495 4.70711 8.70741C4.89464 8.51988 5 8.26552 5 8.00031V8.00031ZM16 12.0003C16 11.2092 15.7654 10.4358 15.3259 9.77802C14.8864 9.12023 14.2616 8.60754 13.5307 8.30479C12.7998 8.00204 11.9956 7.92282 11.2196 8.07716C10.4437 8.2315 9.73098 8.61247 9.17157 9.17188C8.61216 9.73129 8.2312 10.444 8.07686 11.2199C7.92252 11.9959 8.00173 12.8001 8.30448 13.531C8.60723 14.2619 9.11992 14.8867 9.77772 15.3262C10.4355 15.7657 11.2089 16.0003 12 16.0003C13.0609 16.0003 14.0783 15.5789 14.8284 14.8287C15.5786 14.0786 16 13.0612 16 12.0003ZM21 16.0003C21 15.8025 20.9414 15.6092 20.8315 15.4447C20.7216 15.2803 20.5654 15.1521 20.3827 15.0764C20.2 15.0007 19.9989 14.9809 19.8049 15.0195C19.6109 15.0581 19.4327 15.1533 19.2929 15.2932C19.153 15.4331 19.0578 15.6112 19.0192 15.8052C18.9806 15.9992 19.0004 16.2003 19.0761 16.383C19.1518 16.5657 19.28 16.7219 19.4444 16.8318C19.6089 16.9417 19.8022 17.0003 20 17.0003C20.2652 17.0003 20.5196 16.8949 20.7071 16.7074C20.8946 16.5199 21 16.2655 21 16.0003ZM21 8.00031C21 7.80252 20.9414 7.60918 20.8315 7.44474C20.7216 7.28029 20.5654 7.15211 20.3827 7.07643C20.2 7.00074 19.9989 6.98093 19.8049 7.01952C19.6109 7.05811 19.4327 7.15335 19.2929 7.2932C19.153 7.43305 19.0578 7.61123 19.0192 7.80521C18.9806 7.9992 19.0004 8.20026 19.0761 8.38299C19.1518 8.56572 19.28 8.72189 19.4444 8.83177C19.6089 8.94166 19.8022 9.00031 20 9.00031C20.2652 9.00031 20.5196 8.89495 20.7071 8.70741C20.8946 8.51988 21 8.26552 21 8.00031V8.00031Z" fill="#374957"/>
</g>
<defs>
<clipPath id="clip0_406_3794">
<rect width="24" height="24" fill="white"/>
</clipPath>
</defs>
</svg>
