<svg width="24" height="24" viewBox="0 0 24 24" fill="none" xmlns="http://www.w3.org/2000/svg">
<g clip-path="url(#clip0_406_3786)">
<path d="M15 14H9V12H15V14ZM21 7V24H3V3C3 2.20435 3.31607 1.44129 3.87868 0.87868C4.44129 0.31607 5.20435 0 6 0L14 0V7H21ZM17 18H7V20H17V18ZM17 10H7V16H17V10ZM19.828 3.414L17.586 1.172C17.1391 0.734745 16.5959 0.408346 16 0.219V5H20.785C20.5956 4.40325 20.2676 3.85979 19.828 3.414V3.414Z" fill="#374957"/>
</g>
<defs>
<clipPath id="clip0_406_3786">
<rect width="24" height="24" fill="white"/>
</clipPath>
</defs>
</svg>
