<svg width="24" height="24" viewBox="0 0 24 24" fill="none" xmlns="http://www.w3.org/2000/svg">
<g clip-path="url(#clip0_406_4000)">
<path d="M12.9492 0.0513774V4.06438C11.8224 3.92099 10.6781 4.01918 9.59219 4.35243C8.50633 4.68567 7.50388 5.24632 6.65153 5.99708C5.79917 6.74784 5.11646 7.67149 4.64881 8.7066C4.18116 9.74171 3.93928 10.8645 3.93928 12.0004C3.93928 13.1362 4.18116 14.259 4.64881 15.2942C5.11646 16.3293 5.79917 17.2529 6.65153 18.0037C7.50388 18.7544 8.50633 19.3151 9.59219 19.6483C10.6781 19.9816 11.8224 20.0798 12.9492 19.9364V23.9494C15.9497 23.7037 18.748 22.3382 20.788 20.1242C22.8281 17.9103 23.9606 15.0099 23.9606 11.9994C23.9606 8.98883 22.8281 6.08845 20.788 3.87451C18.748 1.66056 15.9497 0.295085 12.9492 0.0493774V0.0513774ZM12.9492 13.7234V17.0004H10.9492V13.7234C10.6453 13.5499 10.3927 13.2992 10.217 12.9966C10.0414 12.694 9.94882 12.3503 9.94882 12.0004C9.94882 11.6505 10.0414 11.3068 10.217 11.0042C10.3927 10.7016 10.6453 10.4509 10.9492 10.2774V6.00038H12.9492V10.2774C13.2531 10.4509 13.5056 10.7016 13.6813 11.0042C13.857 11.3068 13.9496 11.6505 13.9496 12.0004C13.9496 12.3503 13.857 12.694 13.6813 12.9966C13.5056 13.2992 13.2531 13.5499 12.9492 13.7234V13.7234ZM1.35919 6.36038C1.73425 5.65628 2.17808 4.99104 2.68419 4.37438L4.20019 5.68138C3.79777 6.17447 3.44286 6.70449 3.14019 7.26438L1.35919 6.36038ZM2.36819 9.14638C2.1815 9.7806 2.05823 10.4318 2.00019 11.0904L0.010188 10.8904C0.0812118 10.0981 0.231292 9.31483 0.458188 8.55238L2.36819 9.14638ZM7.28719 3.15738C6.7041 3.46468 6.15276 3.82878 5.64119 4.24438L4.40019 2.68138C5.00488 2.19002 5.65595 1.75865 6.34419 1.39338L7.28719 3.15738ZM11.0442 2.04638C10.3903 2.10496 9.74378 2.22823 9.11419 2.41438L8.54719 0.500377C9.30255 0.275723 10.0784 0.126658 10.8632 0.0553774L11.0442 2.04638ZM3.14419 16.7364C3.44559 17.2961 3.79915 17.8261 4.20019 18.3194L2.68419 19.6264C2.17808 19.0097 1.73425 18.3445 1.35919 17.6404L3.14419 16.7364ZM0.458188 15.4484C0.229271 14.6845 0.0775127 13.8996 0.00518799 13.1054L2.00019 12.9104C2.05986 13.5691 2.1848 14.2203 2.37319 14.8544L0.458188 15.4484ZM6.34419 22.6074C5.65595 22.2421 5.00488 21.8107 4.40019 21.3194L5.64519 19.7564C6.15676 20.172 6.7081 20.5361 7.29119 20.8434L6.34419 22.6074ZM10.8632 23.9454C10.0784 23.8741 9.30255 23.725 8.54719 23.5004L9.11419 21.5834C9.74378 21.7695 10.3903 21.8928 11.0442 21.9514L10.8632 23.9454Z" fill="#374957"/>
</g>
<defs>
<clipPath id="clip0_406_4000">
<rect width="24" height="24" fill="white"/>
</clipPath>
</defs>
</svg>
