<svg width="24" height="24" viewBox="0 0 24 24" fill="none" xmlns="http://www.w3.org/2000/svg">
<g clip-path="url(#clip0_406_3944)">
<path d="M16.636 23.0003C16.636 22.8025 16.6947 22.6091 16.8046 22.4447C16.9144 22.2802 17.0706 22.1521 17.2533 22.0764C17.4361 22.0007 17.6371 21.9809 17.8311 22.0195C18.0251 22.0581 18.2033 22.1533 18.3431 22.2932C18.483 22.433 18.5782 22.6112 18.6168 22.8052C18.6554 22.9992 18.6356 23.2002 18.5599 23.3829C18.4842 23.5657 18.356 23.7219 18.1916 23.8317C18.0271 23.9416 17.8338 24.0003 17.636 24.0003C17.3708 24.0003 17.1165 23.8949 16.9289 23.7074C16.7414 23.5198 16.636 23.2655 16.636 23.0003ZM21.171 19.4643C20.2334 18.5269 18.9618 18.0003 17.636 18.0003C16.3102 18.0003 15.0387 18.5269 14.101 19.4643L15.515 20.8783C16.0867 20.3333 16.8462 20.0293 17.636 20.0293C18.4258 20.0293 19.1853 20.3333 19.757 20.8783L21.171 19.4643ZM24 16.6363C22.3106 14.951 20.0218 14.0046 17.6355 14.0046C15.2493 14.0046 12.9604 14.951 11.271 16.6363L12.686 18.0503C14.0002 16.74 15.7803 16.0043 17.636 16.0043C19.4918 16.0043 21.2718 16.74 22.586 18.0503L24 16.6363ZM8.44202 16.6363L9.85702 15.2223C11.697 13.3899 14.1253 12.2666 16.7131 12.0507C19.3009 11.8347 21.8818 12.5401 24 14.0423V14.0003C24 10.2593 21.378 8.03226 17.79 7.20926C17.3438 5.30022 16.2122 3.62148 14.6099 2.49176C13.0077 1.36204 11.0463 0.860004 9.09834 1.08096C7.15034 1.30191 5.35129 2.23048 4.04276 3.69036C2.73422 5.15024 2.00731 7.03979 2.00002 9.00026C1.99904 10.2787 2.30785 11.5383 2.90002 12.6713C1.82115 13.2494 0.966422 14.1715 0.471641 15.2911C-0.0231397 16.4106 -0.129593 17.6634 0.169193 18.8504C0.46798 20.0374 1.15487 21.0905 2.12073 21.8424C3.08658 22.5943 4.27601 23.0018 5.50002 23.0003H14.677L8.44202 16.6363Z" fill="#374957"/>
</g>
<defs>
<clipPath id="clip0_406_3944">
<rect width="24" height="24" fill="white"/>
</clipPath>
</defs>
</svg>
