<svg width="24" height="24" viewBox="0 0 24 24" fill="none" xmlns="http://www.w3.org/2000/svg">
<g clip-path="url(#clip0_406_3767)">
<path d="M23.121 7.1221L20.707 4.7071L22.707 2.7071L21.293 1.2931L19.293 3.2931L16.879 0.879103C16.6004 0.600474 16.2697 0.37945 15.9057 0.228654C15.5417 0.0778583 15.1515 0.000244141 14.7575 0.000244141C14.3635 0.000244141 13.9733 0.0778583 13.6093 0.228654C13.2453 0.37945 12.9146 0.600474 12.636 0.879103L9.808 3.7071L14.343 8.2431L8.243 14.3431L3.707 9.8081L0.879 12.6361C0.316587 13.1987 0.000640869 13.9616 0.000640869 14.7571C0.000640869 15.5526 0.316587 16.3155 0.879 16.8781L3.293 19.2931L1.293 21.2931L2.707 22.7071L4.707 20.7071L7.121 23.1211C7.39958 23.3997 7.73032 23.6208 8.09433 23.7716C8.45834 23.9223 8.84849 24 9.2425 24C9.63651 24 10.0267 23.9223 10.3907 23.7716C10.7547 23.6208 11.0854 23.3997 11.364 23.1211L14.192 20.2931L9.657 15.7571L15.757 9.6571L20.292 14.1921L23.12 11.3641C23.6824 10.8015 23.9984 10.0386 23.9984 9.2431C23.9984 8.44761 23.6824 7.68469 23.12 7.1221H23.121Z" fill="#374957"/>
</g>
<defs>
<clipPath id="clip0_406_3767">
<rect width="24" height="24" fill="white"/>
</clipPath>
</defs>
</svg>
