<svg width="24" height="24" viewBox="0 0 24 24" fill="none" xmlns="http://www.w3.org/2000/svg">
<g clip-path="url(#clip0_406_3633)">
<path d="M14.7 14L11.7 16H0V24H14C15.3132 24 16.6136 23.7413 17.8268 23.2388C19.0401 22.7362 20.1425 21.9997 21.0711 21.0711C21.9997 20.1425 22.7362 19.0401 23.2388 17.8268C23.7413 16.6136 24 15.3132 24 14H14.7ZM3 21C2.80222 21 2.60888 20.9414 2.44443 20.8315C2.27998 20.7216 2.15181 20.5654 2.07612 20.3827C2.00043 20.2 1.98063 19.9989 2.01921 19.8049C2.0578 19.6109 2.15304 19.4327 2.29289 19.2929C2.43275 19.153 2.61093 19.0578 2.80491 19.0192C2.99889 18.9806 3.19996 19.0004 3.38268 19.0761C3.56541 19.1518 3.72159 19.28 3.83147 19.4444C3.94135 19.6089 4 19.8022 4 20C4 20.2652 3.89464 20.5196 3.70711 20.7071C3.51957 20.8946 3.26522 21 3 21ZM7 21C6.80222 21 6.60888 20.9414 6.44443 20.8315C6.27998 20.7216 6.15181 20.5654 6.07612 20.3827C6.00043 20.2 5.98063 19.9989 6.01921 19.8049C6.0578 19.6109 6.15304 19.4327 6.29289 19.2929C6.43275 19.153 6.61093 19.0578 6.80491 19.0192C6.99889 18.9806 7.19996 19.0004 7.38268 19.0761C7.56541 19.1518 7.72159 19.28 7.83147 19.4444C7.94135 19.6089 8 19.8022 8 20C8 20.2652 7.89464 20.5196 7.70711 20.7071C7.51957 20.8946 7.26522 21 7 21ZM11 21C10.8022 21 10.6089 20.9414 10.4444 20.8315C10.28 20.7216 10.1518 20.5654 10.0761 20.3827C10.0004 20.2 9.98063 19.9989 10.0192 19.8049C10.0578 19.6109 10.153 19.4327 10.2929 19.2929C10.4327 19.153 10.6109 19.0578 10.8049 19.0192C10.9989 18.9806 11.2 19.0004 11.3827 19.0761C11.5654 19.1518 11.7216 19.28 11.8315 19.4444C11.9414 19.6089 12 19.8022 12 20C12 20.2652 11.8946 20.5196 11.7071 20.7071C11.5196 20.8946 11.2652 21 11 21ZM10 11V9H0V6H11.78C12.9396 6.00201 14.0629 6.40435 14.96 7.139C16.5586 8.48159 17.8671 10.1355 18.806 12H14.092L11.092 14H0V11H10ZM2.083 4L1.029 0H7L8.056 4H2.083Z" fill="#374957"/>
</g>
<defs>
<clipPath id="clip0_406_3633">
<rect width="24" height="24" fill="white"/>
</clipPath>
</defs>
</svg>
