<svg width="24" height="24" viewBox="0 0 24 24" fill="none" xmlns="http://www.w3.org/2000/svg">
<g clip-path="url(#clip0_406_3860)">
<path d="M18.9569 23.9926H9.98213C7.77652 23.9717 6.00544 22.1668 6.0263 19.9612C6.04341 18.1537 7.27242 16.583 9.02283 16.1317C8.40956 9.41858 17.868 7.63157 19.7417 14.0825C22.4612 14.5147 24.3154 17.0698 23.8831 19.7893C23.4981 22.2112 21.4092 23.9936 18.9569 23.9926ZM3.99895 20.0038C3.99558 17.8507 5.15161 15.8626 7.02445 14.8004C7.74042 7.2696 18.1213 5.50855 21.2535 12.4072C22.2692 12.7572 23.1898 13.3382 23.9429 14.1044C23.9748 10.3588 21.4002 7.09386 17.7503 6.25152C16.7918 1.95106 12.5288 -0.758123 8.22839 0.20033C3.92803 1.15878 1.2188 5.42188 2.17725 9.72224C2.33053 10.41 2.57423 11.0744 2.90203 11.6981C0.243141 13.1606 -0.726797 16.5016 0.73561 19.1605C1.48636 20.5255 2.78123 21.5076 4.29811 21.8626C4.10067 21.2627 3.9997 20.6353 3.99895 20.0038Z" fill="#374957"/>
</g>
<defs>
<clipPath id="clip0_406_3860">
<rect width="24" height="24" fill="white"/>
</clipPath>
</defs>
</svg>
