<svg width="24" height="24" viewBox="0 0 24 24" fill="none" xmlns="http://www.w3.org/2000/svg">
<g clip-path="url(#clip0_406_3919)">
<path d="M7.00012 24.0006C8.10469 24.0006 9.00011 23.1052 9.00011 22.0006C9.00011 20.896 8.10469 20.0006 7.00012 20.0006C5.89555 20.0006 5.00012 20.896 5.00012 22.0006C5.00012 23.1052 5.89555 24.0006 7.00012 24.0006Z" fill="#374957"/>
<path d="M17 24.0006C18.1046 24.0006 19 23.1052 19 22.0006C19 20.896 18.1046 20.0006 17 20.0006C15.8954 20.0006 15 20.896 15 22.0006C15 23.1052 15.8954 24.0006 17 24.0006Z" fill="#374957"/>
<path d="M22.813 9.583C21.9022 10.8202 20.5516 11.6609 19.0394 11.9319C17.5272 12.2029 15.9687 11.8835 14.6849 11.0395C13.4012 10.1955 12.4902 8.89131 12.1395 7.39559C11.7888 5.89986 12.0252 4.3266 12.8 3H4.242L4.2 2.648C4.11382 1.9186 3.76306 1.24615 3.21419 0.758104C2.66532 0.270054 1.95647 0.000312836 1.222 0L0 0V2H1.222C1.46693 2.00003 1.70334 2.08996 1.88637 2.25272C2.06941 2.41547 2.18634 2.63975 2.215 2.883L3.8 16.351C3.88595 17.0806 4.23662 17.7533 4.78551 18.2415C5.3344 18.7298 6.04337 18.9997 6.778 19H20V17H6.778C6.53291 16.9999 6.29638 16.9099 6.11333 16.7469C5.93027 16.5839 5.81343 16.3594 5.785 16.116L5.654 15H21.836L22.813 9.583Z" fill="#374957"/>
<path d="M21 5H19V3H17V5H15V7H17V9H19V7H21V5Z" fill="#374957"/>
</g>
<defs>
<clipPath id="clip0_406_3919">
<rect width="24" height="24" fill="white"/>
</clipPath>
</defs>
</svg>
