<svg width="24" height="24" viewBox="0 0 24 24" fill="none" xmlns="http://www.w3.org/2000/svg">
<g clip-path="url(#clip0_406_3598)">
<path d="M1.35919 6.36009C1.73425 5.65599 2.17808 4.99075 2.68419 4.37409L4.20019 5.68109C3.79777 6.17418 3.44286 6.7042 3.14019 7.26409L1.35919 6.36009ZM0.459188 8.55209C0.229605 9.31757 0.077508 10.1042 0.00518799 10.9001L1.99519 11.1001C2.05486 10.4413 2.1798 9.79014 2.36819 9.15609L0.459188 8.55209ZM6.34419 1.39309C5.65595 1.75836 5.00488 2.18973 4.40019 2.68109L5.64119 4.24409C6.15276 3.82849 6.7041 3.46439 7.28719 3.15709L6.34419 1.39309ZM10.8632 0.0550864C10.0784 0.126367 9.30255 0.275432 8.54719 0.500086L9.11419 2.41709C9.74378 2.23094 10.3903 2.10767 11.0442 2.04909L10.8632 0.0550864ZM1.35919 17.6401C1.73425 18.3442 2.17808 19.0094 2.68419 19.6261L4.20019 18.3191C3.79777 17.826 3.44286 17.296 3.14019 16.7361L1.35919 17.6401ZM2.36819 14.8541C2.1815 14.2199 2.05823 13.5687 2.00019 12.9101L0.010188 13.1101C0.0825127 13.9043 0.234271 14.6892 0.463188 15.4531L2.36819 14.8541ZM7.28719 20.8431C6.7041 20.5358 6.15276 20.1717 5.64119 19.7561L4.40019 21.3191C5.00615 21.8107 5.65857 22.242 6.34819 22.6071L7.28719 20.8431ZM11.0442 21.9541C10.3903 21.8955 9.74378 21.7722 9.11419 21.5861L8.54719 23.5001C9.30265 23.7237 10.0785 23.8718 10.8632 23.9421L11.0442 21.9541ZM20.7592 16.7891C20.4575 17.3493 20.1029 17.8794 19.7002 18.3721L21.2172 19.6791C21.7237 19.0628 22.1676 18.3975 22.5422 17.6931L20.7592 16.7891ZM23.4432 15.5001C23.6721 14.7362 23.8239 13.9513 23.8962 13.1571L21.9062 12.9571C21.8466 13.6162 21.7217 14.2677 21.5332 14.9021L23.4432 15.5001ZM17.5572 22.6601C18.2468 22.295 18.8992 21.8637 19.5052 21.3721L18.2602 19.8101C17.7485 20.2264 17.1972 20.5915 16.6142 20.9001L17.5572 22.6601ZM13.0382 24.0001C13.8228 23.9293 14.5986 23.7813 15.3542 23.5581L14.7872 21.6401C14.1576 21.8266 13.5111 21.9502 12.8572 22.0091L13.0382 24.0001ZM19.8802 11.0001C20.0833 12.6126 19.7906 14.2487 19.0408 15.6907C18.291 17.1326 17.1199 18.312 15.6832 19.0719C14.2465 19.8317 12.6125 20.136 10.9986 19.9442C9.38476 19.7523 7.86759 19.0735 6.64909 17.998C5.43058 16.9225 4.56853 15.5015 4.1777 13.9239C3.78686 12.3464 3.88578 10.6872 4.46128 9.16727C5.03678 7.64734 6.06156 6.33874 7.39922 5.41566C8.73688 4.49258 10.324 3.99882 11.9492 4.00009C12.2806 4.00198 12.6116 4.0247 12.9402 4.06809H12.9492V0.0510864C15.773 0.290577 18.4211 1.52099 20.4252 3.52471C22.4293 5.52842 23.6602 8.17633 23.9002 11.0001H19.8802ZM16.9492 11.0001H13.6722C13.4979 10.7005 13.2488 10.4514 12.9492 10.2771V6.00009H10.9492V10.2771C10.684 10.4298 10.4574 10.6415 10.2872 10.8958C10.1169 11.1502 10.0075 11.4403 9.96738 11.7437C9.92726 12.0471 9.95751 12.3557 10.0558 12.6455C10.1541 12.9353 10.3178 13.1987 10.5342 13.4151C10.7506 13.6315 11.0139 13.7952 11.3038 13.8935C11.5936 13.9918 11.9022 14.022 12.2056 13.9819C12.509 13.9418 12.7991 13.8323 13.0534 13.6621C13.3078 13.4918 13.5195 13.2653 13.6722 13.0001H16.9492V11.0001Z" fill="#374957"/>
</g>
<defs>
<clipPath id="clip0_406_3598">
<rect width="24" height="24" fill="white"/>
</clipPath>
</defs>
</svg>
