<svg width="24" height="24" viewBox="0 0 24 24" fill="none" xmlns="http://www.w3.org/2000/svg">
<path d="M19 1.00012H5.00004C3.95597 1.00591 2.9399 1.33838 2.09438 1.95092C1.24885 2.56345 0.61629 3.42531 0.285427 4.41558C-0.0454362 5.40585 -0.0579985 6.47486 0.249502 7.47263C0.557003 8.47041 1.16914 9.34689 2.00004 9.97912V23.0001H22V9.97912C22.8309 9.34689 23.4431 8.47041 23.7506 7.47263C24.0581 6.47486 24.0455 5.40585 23.7146 4.41558C23.3838 3.42531 22.7512 2.56345 21.9057 1.95092C21.0602 1.33838 20.0441 1.00591 19 1.00012V1.00012ZM8.00004 18.0001C7.73482 18.0001 7.48047 17.8948 7.29293 17.7072C7.10539 17.5197 7.00004 17.2653 7.00004 17.0001C7.00004 16.7349 7.10539 16.4806 7.29293 16.293C7.48047 16.1055 7.73482 16.0001 8.00004 16.0001C8.26525 16.0001 8.51961 16.1055 8.70714 16.293C8.89468 16.4806 9.00004 16.7349 9.00004 17.0001C9.00004 17.2653 8.89468 17.5197 8.70714 17.7072C8.51961 17.8948 8.26525 18.0001 8.00004 18.0001V18.0001ZM8.00004 14.0001C7.73482 14.0001 7.48047 13.8948 7.29293 13.7072C7.10539 13.5197 7.00004 13.2653 7.00004 13.0001C7.00004 12.7349 7.10539 12.4806 7.29293 12.293C7.48047 12.1055 7.73482 12.0001 8.00004 12.0001C8.26525 12.0001 8.51961 12.1055 8.70714 12.293C8.89468 12.4806 9.00004 12.7349 9.00004 13.0001C9.00004 13.2653 8.89468 13.5197 8.70714 13.7072C8.51961 13.8948 8.26525 14.0001 8.00004 14.0001V14.0001ZM12 18.0001C11.7348 18.0001 11.4805 17.8948 11.2929 17.7072C11.1054 17.5197 11 17.2653 11 17.0001C11 16.7349 11.1054 16.4806 11.2929 16.293C11.4805 16.1055 11.7348 16.0001 12 16.0001C12.2653 16.0001 12.5196 16.1055 12.7071 16.293C12.8947 16.4806 13 16.7349 13 17.0001C13 17.2653 12.8947 17.5197 12.7071 17.7072C12.5196 17.8948 12.2653 18.0001 12 18.0001Z" fill="#374957"/>
</svg>
