<svg width="24" height="24" viewBox="0 0 24 24" fill="none" xmlns="http://www.w3.org/2000/svg">
<g clip-path="url(#clip0_406_3594)">
<path d="M24 24H18V22H22V18H24V24ZM24 3C24 2.20435 23.6839 1.44129 23.1213 0.87868C22.5587 0.31607 21.7956 0 21 0L18 0V2H21C21.2652 2 21.5196 2.10536 21.7071 2.29289C21.8946 2.48043 22 2.73478 22 3V6H24V3ZM24 9H22V15H24V9ZM6 22H2V18H0V24H6V22ZM2 3C2 2.73478 2.10536 2.48043 2.29289 2.29289C2.48043 2.10536 2.73478 2 3 2H6V0H3C2.20435 0 1.44129 0.31607 0.87868 0.87868C0.31607 1.44129 0 2.20435 0 3L0 6H2V3ZM2 9H0V15H2V9ZM15 0H9V2H15V0ZM15 22H9V24H15V22ZM20 4H4V20H20V4Z" fill="#374957"/>
</g>
<defs>
<clipPath id="clip0_406_3594">
<rect width="24" height="24" fill="white"/>
</clipPath>
</defs>
</svg>
