<svg width="24" height="24" viewBox="0 0 24 24" fill="none" xmlns="http://www.w3.org/2000/svg">
<g clip-path="url(#clip0_406_3677)">
<path d="M12.9965 9.22879C12.9965 10.3007 11.3997 11.9924 10.0024 13.1022C8.60516 11.9924 7.00827 10.3007 7.00827 9.22879C6.95844 8.62415 7.40258 8.09118 8.00633 8.03114C8.52158 7.99514 8.96839 8.38368 9.00439 8.89889C9.00744 8.94225 9.00744 8.98579 9.00439 9.0292H11.0005C10.9645 8.51395 11.353 8.06714 11.8682 8.03114C11.9116 8.02809 11.9551 8.02809 11.9985 8.03114C12.602 8.09165 13.0458 8.62429 12.9965 9.22879ZM24 22.5887L22.5888 23.9999L16.339 17.7501C12.065 21.2448 5.76716 20.6129 2.27248 16.3389C-1.22219 12.0648 -0.59036 5.76703 3.68375 2.27236C7.95786 -1.22231 14.2556 -0.590478 17.7503 3.68358C20.7604 7.36504 20.7604 12.6574 17.7503 16.3388L24 22.5887ZM14.9926 9.22879C15.0436 7.52161 13.7054 6.09417 11.9985 6.03501C11.2529 6.03839 10.5375 6.33023 10.0024 6.84942C9.46672 6.33103 8.75173 6.03933 8.00633 6.03501C6.29914 6.09361 4.96062 7.52137 5.01219 9.22879C5.01219 11.9654 8.97345 14.8468 9.42556 15.1662L10.0025 15.5743L10.5783 15.1662C11.0304 14.8468 14.9926 11.9654 14.9926 9.22879Z" fill="#374957"/>
</g>
<defs>
<clipPath id="clip0_406_3677">
<rect width="24" height="24" fill="white"/>
</clipPath>
</defs>
</svg>
