<svg width="24" height="24" viewBox="0 0 24 24" fill="none" xmlns="http://www.w3.org/2000/svg">
<g clip-path="url(#clip0_406_3757)">
<path d="M15.624 19H8.383C9.17153 17.2646 10.4295 15.7842 12.015 14.726C13.5979 15.7807 14.8493 17.2627 15.624 19V19ZM21 21V24H3V21C3.0598 19.2706 3.4868 17.5738 4.25265 16.0221C5.0185 14.4704 6.10567 13.0993 7.442 12C6.10567 10.9007 5.0185 9.52964 4.25265 7.97794C3.4868 6.42624 3.0598 4.72937 3 3C3 2.20435 3.31607 1.44129 3.87868 0.87868C4.44129 0.31607 5.20435 0 6 0L18 0C18.7956 0 19.5587 0.31607 20.1213 0.87868C20.6839 1.44129 21 2.20435 21 3C20.941 4.72779 20.516 6.4234 19.7532 7.97482C18.9905 9.52624 17.9072 10.8982 16.575 12C17.9072 13.1018 18.9905 14.4738 19.7532 16.0252C20.516 17.5766 20.941 19.2722 21 21ZM17.91 19.845C17.349 16.279 14.317 13.822 12.561 12.676L12.012 12.317L11.465 12.677C9.7 13.833 6.659 16.3 6.092 19.842L5.907 21H18.092L17.91 19.845Z" fill="#374957"/>
</g>
<defs>
<clipPath id="clip0_406_3757">
<rect width="24" height="24" fill="white"/>
</clipPath>
</defs>
</svg>
