<svg width="24" height="24" viewBox="0 0 24 24" fill="none" xmlns="http://www.w3.org/2000/svg">
<g clip-path="url(#clip0_406_4019)">
<path d="M23.9998 6.857C23.9998 7.542 23.6588 8 22.9738 8H16.9838C16.8178 15.694 14.7158 20.2 9.83583 22.369C9.2409 20.4361 8.18182 18.6782 6.75105 17.2488C5.32028 15.8194 3.56135 14.762 1.62783 14.169C3.79983 9.286 8.29982 7.182 15.9998 7.016V1.026C15.9998 0.341 16.4578 0 17.1428 0C18.0507 0.00473132 18.92 0.367551 19.5619 1.00962C20.2038 1.65169 20.5664 2.52112 20.5708 3.429C21.4787 3.43347 22.3481 3.79603 22.9902 4.43791C23.6323 5.07979 23.9951 5.94912 23.9998 6.857V6.857ZM7.96082 23.066C5.36382 23.7477 2.68409 24.0621 -0.000174826 24C-0.0622634 21.3185 0.251449 18.6415 0.931825 16.047C2.59741 16.5349 4.11382 17.4333 5.34193 18.6596C6.57004 19.886 7.47054 21.4011 7.96082 23.066V23.066ZM3.99983 21C3.99983 20.7348 3.89447 20.4804 3.70693 20.2929C3.5194 20.1054 3.26504 20 2.99983 20C2.73461 20 2.48025 20.1054 2.29272 20.2929C2.10518 20.4804 1.99983 20.7348 1.99983 21C1.99983 21.2652 2.10518 21.5196 2.29272 21.7071C2.48025 21.8946 2.73461 22 2.99983 22C3.26504 22 3.5194 21.8946 3.70693 21.7071C3.89447 21.5196 3.99983 21.2652 3.99983 21ZM11.9998 5.3V3C9.12239 3.07671 6.28315 3.67825 3.62183 4.775C3.13306 5.02774 2.72323 5.41004 2.43716 5.88007C2.15108 6.3501 1.99979 6.88976 1.99983 7.44V9.914C4.24083 7.4 7.48983 5.9 11.9998 5.3ZM18.6998 12C18.4644 14.0736 17.9074 16.0979 17.0488 18H18.2938C21.3818 17.881 20.8508 14.414 21.0018 12H18.6998Z" fill="#374957"/>
</g>
<defs>
<clipPath id="clip0_406_4019">
<rect width="24" height="24" fill="white"/>
</clipPath>
</defs>
</svg>
