<svg width="24" height="24" viewBox="0 0 24 24" fill="none" xmlns="http://www.w3.org/2000/svg">
<g clip-path="url(#clip0_406_3828)">
<path d="M19.0001 8V7.068C18.9988 5.72429 18.4644 4.43599 17.5143 3.48584C16.5641 2.5357 15.2758 2.00132 13.9321 2H13.0001V0H11.0001V2H10.0681C8.86544 2.00128 7.70241 2.43023 6.78692 3.21018C5.87142 3.99012 5.26313 5.07022 5.07078 6.25742C4.87842 7.44462 5.11453 8.66154 5.73691 9.69066C6.3593 10.7198 7.32738 11.494 8.46812 11.875L11.0001 12.72V20H10.0681C9.25468 19.9992 8.47479 19.6757 7.8996 19.1005C7.32441 18.5253 7.00092 17.7454 7.00012 16.932V16H5.00012V16.932C5.00145 18.2757 5.53582 19.564 6.48597 20.5142C7.43611 21.4643 8.72441 21.9987 10.0681 22H11.0001V24H13.0001V22H13.9321C15.1348 21.9987 16.2978 21.5698 17.2133 20.7898C18.1288 20.0099 18.7371 18.9298 18.9295 17.7426C19.1218 16.5554 18.8857 15.3385 18.2633 14.3093C17.6409 13.2802 16.6729 12.506 15.5321 12.125L13.0001 11.28V4H13.9321C14.7456 4.00079 15.5255 4.32428 16.1006 4.89947C16.6758 5.47466 16.9993 6.25456 17.0001 7.068V8H19.0001ZM14.9001 14.021C15.5914 14.2511 16.1782 14.7196 16.5556 15.3428C16.933 15.966 17.0763 16.7031 16.9598 17.4223C16.8434 18.1415 16.4748 18.7958 15.9201 19.2681C15.3654 19.7403 14.6607 19.9998 13.9321 20H13.0001V13.387L14.9001 14.021ZM11.0001 10.613L9.10012 9.979C8.40886 9.74893 7.82203 9.28037 7.44466 8.65718C7.06728 8.034 6.92399 7.29685 7.04042 6.57768C7.15686 5.8585 7.52542 5.20422 8.08015 4.73194C8.63489 4.25966 9.33958 4.00021 10.0681 4H11.0001V10.613Z" fill="#374957"/>
</g>
<defs>
<clipPath id="clip0_406_3828">
<rect width="24" height="24" fill="white"/>
</clipPath>
</defs>
</svg>
