<svg width="24" height="24" viewBox="0 0 24 24" fill="none" xmlns="http://www.w3.org/2000/svg">
<g clip-path="url(#clip0_406_4061)">
<path d="M24 3.02285C24.0012 3.42013 23.9236 3.8137 23.7715 4.18072C23.6194 4.54774 23.3959 4.88089 23.114 5.16085L19.707 8.56784C19.0644 9.20434 18.697 10.0675 18.6837 10.9718C18.6704 11.8762 19.0123 12.7497 19.636 13.4048L18.2 14.7998L9.2 5.79985L10.6 4.36385C11.2552 4.98726 12.1287 5.329 13.033 5.31573C13.9373 5.30246 14.8004 4.93523 15.437 4.29285L18.839 0.885851C19.4147 0.335474 20.1805 0.0283203 20.977 0.0283203C21.7735 0.0283203 22.5393 0.335474 23.115 0.885851C23.3966 1.16577 23.6198 1.49879 23.7717 1.86563C23.9237 2.23246 24.0012 2.6258 24 3.02285V3.02285ZM1.913 17.6808C1.45019 18.1383 1.14449 18.7308 1.0399 19.373C0.935315 20.0153 1.03724 20.6742 1.331 21.2548L0 22.5858L1.414 23.9998L2.745 22.6688C3.32564 22.9626 3.98453 23.0645 4.62679 22.9599C5.26905 22.8553 5.86156 22.5496 6.319 22.0868L14.368 14.0378L9.962 9.63184L1.913 17.6808Z" fill="#374957"/>
</g>
<defs>
<clipPath id="clip0_406_4061">
<rect width="24" height="24" fill="white"/>
</clipPath>
</defs>
</svg>
