<svg width="24" height="24" viewBox="0 0 24 24" fill="none" xmlns="http://www.w3.org/2000/svg">
<g clip-path="url(#clip0_406_3705)">
<path d="M18 5H6V0H18V5ZM18 9H15.99L16 7H8.048L8 9H6C5.20435 9 4.44129 9.31607 3.87868 9.87868C3.31607 10.4413 3 11.2044 3 12V24H21V12C21 11.2044 20.6839 10.4413 20.1213 9.87868C19.5587 9.31607 18.7956 9 18 9ZM16 17H13V20H11V17H8V15H11V12H13V15H16V17Z" fill="#374957"/>
</g>
<defs>
<clipPath id="clip0_406_3705">
<rect width="24" height="24" fill="white"/>
</clipPath>
</defs>
</svg>
