<svg width="24" height="24" viewBox="0 0 24 24" fill="none" xmlns="http://www.w3.org/2000/svg">
<g clip-path="url(#clip0_406_3909)">
<path d="M12 0C9.62662 0 7.30654 0.703788 5.33315 2.02236C3.35976 3.34094 1.82169 5.21509 0.913443 7.4078C0.0051918 9.60051 -0.232448 12.0133 0.230574 14.3411C0.693597 16.6689 1.83649 18.8071 3.51472 20.4853C5.19295 22.1635 7.33114 23.3064 9.65891 23.7694C11.9867 24.2324 14.3995 23.9948 16.5922 23.0866C18.7849 22.1783 20.6591 20.6402 21.9776 18.6668C23.2962 16.6935 24 14.3734 24 12C23.9966 8.81846 22.7312 5.76821 20.4815 3.51852C18.2318 1.26883 15.1815 0.00344108 12 0V0ZM12 2C14.3067 1.99781 16.5424 2.79704 18.325 4.261L4.261 18.325C3.06204 16.8605 2.30357 15.0857 2.07384 13.2071C1.84411 11.3284 2.15255 9.42316 2.96329 7.71295C3.77404 6.00273 5.05374 4.55789 6.65351 3.54653C8.25328 2.53516 10.1073 1.99885 12 2V2ZM12 22C9.69326 22.0026 7.45735 21.2033 5.675 19.739L19.739 5.675C20.938 7.13946 21.6964 8.91426 21.9262 10.7929C22.1559 12.6716 21.8474 14.5768 21.0367 16.2871C20.226 17.9973 18.9463 19.4421 17.3465 20.4535C15.7467 21.4648 13.8926 22.0011 12 22V22Z" fill="#374957"/>
</g>
<defs>
<clipPath id="clip0_406_3909">
<rect width="24" height="24" fill="white"/>
</clipPath>
</defs>
</svg>
