<svg width="24" height="24" viewBox="0 0 24 24" fill="none" xmlns="http://www.w3.org/2000/svg">
<g clip-path="url(#clip0_406_3782)">
<path d="M24 7.36094e-07V8.015C18.811 8.29 13.137 11.286 13 18.993V20H11V19V18.993C11 12.026 6.034 9.412 3.14 8.48C2.12361 8.16223 1.06491 8.0004 0 8L0 7.36094e-07H1C2.20841 -0.0190471 3.39353 0.333467 4.39508 1.00987C5.39663 1.68627 6.1663 2.65394 6.6 3.782C8.36031 3.297 10.1744 3.03429 12 3C13.8256 3.0342 15.6397 3.29691 17.4 3.782C17.8337 2.65394 18.6034 1.68627 19.6049 1.00987C20.6065 0.333467 21.7916 -0.0190471 23 7.36094e-07H24ZM21.491 10.352C20.9809 10.5091 20.4827 10.7022 20 10.93C19.8265 11.7691 19.3757 12.5254 18.7201 13.0772C18.0646 13.629 17.2424 13.9442 16.386 13.972C15.4331 15.4697 14.9503 17.2185 15 18.993V20C15 20.5304 14.7893 21.0391 14.4142 21.4142C14.0391 21.7893 13.5304 22 13 22H11C10.4696 22 9.96086 21.7893 9.58579 21.4142C9.21071 21.0391 9 20.5304 9 20V17.993C9.06525 16.5253 8.56974 15.0878 7.614 13.972C6.75759 13.9442 5.93544 13.629 5.27989 13.0772C4.62434 12.5254 4.17353 11.7691 4 10.93C2.75698 10.3129 1.38777 9.99252 0 9.994L0 11.929C7.46059e-05 13.52 0.63207 15.0459 1.757 16.171L8.707 23.121C8.98563 23.3997 9.31645 23.6208 9.68055 23.7716C10.0446 23.9224 10.4349 24 10.829 24H13.172C13.9671 23.9998 14.7296 23.684 15.292 23.122L22.242 16.172C22.7994 15.6147 23.2416 14.9531 23.5432 14.2249C23.8449 13.4967 24.0001 12.7162 24 11.928V9.994C23.1506 9.98849 22.305 10.1091 21.491 10.352V10.352Z" fill="#374957"/>
</g>
<defs>
<clipPath id="clip0_406_3782">
<rect width="24" height="24" fill="white"/>
</clipPath>
</defs>
</svg>
