<svg width="24" height="24" viewBox="0 0 24 24" fill="none" xmlns="http://www.w3.org/2000/svg">
<g clip-path="url(#clip0_406_3718)">
<path d="M11 9.167C11 9.167 6 5.63 6 2.75C5.96846 2.05422 6.21378 1.37427 6.6823 0.858905C7.15081 0.343541 7.80437 0.0347185 8.5 0C9.19563 0.0347185 9.84919 0.343541 10.3177 0.858905C10.7862 1.37427 11.0315 2.05422 11 2.75C10.9685 2.05422 11.2138 1.37427 11.6823 0.858905C12.1508 0.343541 12.8044 0.0347185 13.5 0C14.1956 0.0347185 14.8492 0.343541 15.3177 0.858905C15.7862 1.37427 16.0315 2.05422 16 2.75C16 5.63 11 9.167 11 9.167ZM23.148 8.681C22.6394 8.21697 21.9679 7.97302 21.2801 8.00244C20.5923 8.03185 19.9441 8.33224 19.477 8.838L15.935 12.575C15.9734 12.7856 15.9951 12.999 16 13.213C15.9957 14.226 15.6285 15.2038 14.9648 15.9691C14.3012 16.7344 13.3852 17.2364 12.383 17.384L8.142 17.99L7.858 16.01L12.1 15.4C12.649 15.3153 13.1462 15.0272 13.4926 14.5929C13.839 14.1587 14.0095 13.61 13.9701 13.0558C13.9306 12.5017 13.6842 11.9827 13.2798 11.6018C12.8754 11.2209 12.3425 11.0061 11.787 11H3C2.20435 11 1.44129 11.3161 0.87868 11.8787C0.31607 12.4413 0 13.2044 0 14L0 21C0 21.7956 0.31607 22.5587 0.87868 23.1213C1.44129 23.6839 2.20435 24 3 24H12.664L23.338 12.345C23.7933 11.8314 24.0285 11.1595 23.993 10.4741C23.9575 9.7887 23.654 9.14472 23.148 8.681V8.681Z" fill="#374957"/>
</g>
<defs>
<clipPath id="clip0_406_3718">
<rect width="24" height="24" fill="white"/>
</clipPath>
</defs>
</svg>
