<svg width="24" height="24" viewBox="0 0 24 24" fill="none" xmlns="http://www.w3.org/2000/svg">
<g clip-path="url(#clip0_406_4042)">
<path d="M19.9442 2.64258L12.0002 0.00958252L4.05615 2.64258C3.45763 2.841 2.93684 3.22296 2.56775 3.73422C2.19867 4.24547 2.00007 4.86002 2.00015 5.49058V12.0006C2.00015 19.5246 11.2002 23.6796 11.5942 23.8526L11.9482 24.0096L12.3162 23.8876C12.7122 23.7556 22.0002 20.5776 22.0002 12.0006V5.49058C22.0002 4.86002 21.8016 4.24547 21.4326 3.73422C21.0635 3.22296 20.5427 2.841 19.9442 2.64258V2.64258ZM12.4442 13.9896C12.2693 14.1656 12.0613 14.3051 11.8321 14.4C11.603 14.4949 11.3572 14.5434 11.1092 14.5426H11.0762C10.823 14.5387 10.5733 14.4835 10.3422 14.3804C10.111 14.2773 9.90313 14.1283 9.73115 13.9426L7.42515 11.5426L8.86815 10.1606L11.1122 12.5006L16.2932 7.31958L17.7072 8.73358L12.4442 13.9896Z" fill="#374957"/>
</g>
<defs>
<clipPath id="clip0_406_4042">
<rect width="24" height="24" fill="white"/>
</clipPath>
</defs>
</svg>
