<svg width="24" height="24" viewBox="0 0 24 24" fill="none" xmlns="http://www.w3.org/2000/svg">
<g clip-path="url(#clip0_406_3807)">
<path d="M2 14H11V24H2V14ZM13 24H22V14H13V24ZM24 10V12H13V8.953C12.674 8.982 12.342 9 12 9C11.658 9 11.326 8.982 11 8.953V12H0V10C0 9.20435 0.31607 8.44129 0.87868 7.87868C1.44129 7.31607 2.20435 7 3 7H6.134C5.4409 6.36808 4.89167 5.59461 4.5235 4.73197C4.15532 3.86932 3.97679 2.93764 4 2H6C6 4.881 7.971 6.307 10.152 6.8C9.49712 5.6318 9.10405 4.33519 9 3C9 2.20435 9.31607 1.44129 9.87868 0.87868C10.4413 0.31607 11.2044 0 12 0C12.7956 0 13.5587 0.31607 14.1213 0.87868C14.6839 1.44129 15 2.20435 15 3C14.896 4.33519 14.5029 5.6318 13.848 6.8C16.029 6.307 18 4.881 18 2H20C20.0232 2.93764 19.8447 3.86932 19.4765 4.73197C19.1083 5.59461 18.5591 6.36808 17.866 7H21C21.7956 7 22.5587 7.31607 23.1213 7.87868C23.6839 8.44129 24 9.20435 24 10ZM11 3C11.1207 4.06283 11.4613 5.08891 12 6.013C12.5387 5.08891 12.8793 4.06283 13 3C13 2.73478 12.8946 2.48043 12.7071 2.29289C12.5196 2.10536 12.2652 2 12 2C11.7348 2 11.4804 2.10536 11.2929 2.29289C11.1054 2.48043 11 2.73478 11 3V3Z" fill="#374957"/>
</g>
<defs>
<clipPath id="clip0_406_3807">
<rect width="24" height="24" fill="white"/>
</clipPath>
</defs>
</svg>
