<svg width="24" height="24" viewBox="0 0 24 24" fill="none" xmlns="http://www.w3.org/2000/svg">
<g clip-path="url(#clip0_406_4002)">
<path d="M23.958 13.485C23.5821 15.7188 22.6881 17.8335 21.3477 19.6595C20.0072 21.4855 18.2576 22.9721 16.239 24H7.77301C5.75271 22.9729 4.0011 21.4868 2.65857 19.6608C1.31604 17.8348 0.419912 15.7197 0.0420145 13.485C-0.0301493 13.0585 -0.0082001 12.6213 0.106325 12.2041C0.22085 11.787 0.425183 11.3999 0.705014 11.07C0.987931 10.7346 1.34072 10.465 1.73869 10.2802C2.13667 10.0954 2.57022 9.99976 3.00901 10H20.99C21.4282 10.0001 21.861 10.096 22.2583 10.2808C22.6556 10.4656 23.0077 10.7349 23.29 11.07C23.5707 11.3995 23.776 11.7864 23.8914 12.2036C24.0068 12.6207 24.0295 13.0581 23.958 13.485V13.485ZM14 5.414V7H16V5.414C16.0018 4.83409 15.8884 4.25961 15.6664 3.72386C15.4445 3.18811 15.1184 2.70175 14.707 2.293C14.256 1.83916 14.002 1.22585 14 0.586V0H12V0.586C12.0036 1.75603 12.4677 2.8776 13.292 3.708C13.5171 3.93131 13.6956 4.19711 13.8172 4.48997C13.9387 4.78283 14.0009 5.09692 14 5.414V5.414ZM10 6.414V8H12V6.414C12.0016 5.83397 11.8882 5.25937 11.6662 4.72348C11.4443 4.18759 11.1183 3.70104 10.707 3.292C10.4819 3.06874 10.3035 2.80293 10.1821 2.51004C10.0607 2.21715 9.99881 1.90304 10 1.586V0H8.00001V1.586C7.99828 2.16581 8.11158 2.74021 8.33336 3.27593C8.55513 3.81165 8.88097 4.29806 9.29201 4.707C9.7437 5.16049 9.99814 5.77394 10 6.414V6.414Z" fill="#374957"/>
</g>
<defs>
<clipPath id="clip0_406_4002">
<rect width="24" height="24" fill="white"/>
</clipPath>
</defs>
</svg>
