<svg width="24" height="24" viewBox="0 0 24 24" fill="none" xmlns="http://www.w3.org/2000/svg">
<g clip-path="url(#clip0_406_3778)">
<path d="M24 3V14H22V8C21.9984 6.6744 21.4711 5.40356 20.5338 4.46622C19.5964 3.52888 18.3256 3.00159 17 3H8C8 2.20435 8.31607 1.44129 8.87868 0.87868C9.44129 0.31607 10.2044 0 11 0L21 0C21.7956 0 22.5587 0.31607 23.1213 0.87868C23.6839 1.44129 24 2.20435 24 3ZM17 5H7C6.20435 5 5.44129 5.31607 4.87868 5.87868C4.31607 6.44129 4 7.20435 4 8H13C14.3256 8.00159 15.5964 8.52888 16.5338 9.46622C17.4711 10.4036 17.9984 11.6744 18 13V19H20V8C20 7.20435 19.6839 6.44129 19.1213 5.87868C18.5587 5.31607 17.7956 5 17 5ZM16 13V24H0V13C0 12.2044 0.31607 11.4413 0.87868 10.8787C1.44129 10.3161 2.20435 10 3 10H13C13.7956 10 14.5587 10.3161 15.1213 10.8787C15.6839 11.4413 16 12.2044 16 13ZM3 14C3 14.1978 3.05865 14.3911 3.16853 14.5556C3.27841 14.72 3.43459 14.8482 3.61732 14.9239C3.80004 14.9996 4.00111 15.0194 4.19509 14.9808C4.38907 14.9422 4.56725 14.847 4.70711 14.7071C4.84696 14.5673 4.9422 14.3891 4.98079 14.1951C5.01937 14.0011 4.99957 13.8 4.92388 13.6173C4.84819 13.4346 4.72002 13.2784 4.55557 13.1685C4.39112 13.0586 4.19778 13 4 13C3.73478 13 3.48043 13.1054 3.29289 13.2929C3.10536 13.4804 3 13.7348 3 14V14ZM14 12.293L10 16.293L8.053 14.345L2 19.533V22.166L7.947 17.066L10 19.121L14 15.121V12.293Z" fill="#374957"/>
</g>
<defs>
<clipPath id="clip0_406_3778">
<rect width="24" height="24" fill="white"/>
</clipPath>
</defs>
</svg>
