<svg width="24" height="24" viewBox="0 0 24 24" fill="none" xmlns="http://www.w3.org/2000/svg">
<g clip-path="url(#clip0_406_3872)">
<path d="M13.245 15.04L2.51297 10.153C2.16765 9.97641 1.86315 9.72945 1.61912 9.42802C1.37508 9.12658 1.19691 8.77735 1.0961 8.40285C0.995288 8.02834 0.974071 7.63686 1.03382 7.25365C1.09356 6.87044 1.23294 6.50401 1.44297 6.17796C2.68783 4.29809 4.2981 2.68782 6.17797 1.44296V1.44296C6.50554 1.23189 6.87387 1.09216 7.25901 1.03284C7.64415 0.973521 8.03746 0.995954 8.41335 1.09868C8.78925 1.2014 9.13931 1.38211 9.44075 1.62905C9.74219 1.876 9.98827 2.18364 10.163 2.53196L15 13.284L13.245 15.04ZM16.966 0.737961C16.6339 0.452099 16.2442 0.240941 15.8234 0.118789C15.4026 -0.00336318 14.9605 -0.0336565 14.527 0.0299605C13.611 0.16396 12.427 0.376961 11.28 0.659961C11.5441 0.956096 11.7699 1.28435 11.952 1.63696L16.9 12.393C17.039 12.339 18 12 18 12V2.99996C18.0001 2.5708 17.9077 2.14666 17.7293 1.75635C17.5509 1.36604 17.2906 1.01871 16.966 0.737961V0.737961ZM22.375 3.78496C21.6199 3.35693 20.8244 3.00455 20 2.73296V9.99496C20.306 9.93196 21.056 9.82596 21.056 9.82596C21.752 9.7571 22.4073 9.46617 22.9252 8.99616C23.4431 8.52616 23.7961 7.90201 23.932 7.21596C24.0751 6.5527 24.0009 5.861 23.7205 5.24313C23.4401 4.62526 22.9684 4.11401 22.375 3.78496V3.78496ZM2.99997 18H12C12 18 12.339 17.039 12.393 16.9L1.63897 11.951C1.2866 11.7689 0.958383 11.5435 0.661969 11.28C0.378969 12.426 0.161969 13.61 0.0319693 14.526C-0.031714 14.9595 -0.00145266 15.4017 0.120702 15.8225C0.242857 16.2433 0.454051 16.6329 0.739969 16.965C1.0204 17.2895 1.36737 17.5499 1.75732 17.7284C2.14727 17.907 2.57107 17.9996 2.99997 18V18ZM7.21597 23.932C7.90202 23.7961 8.52617 23.4431 8.99617 22.9252C9.46617 22.4073 9.75711 21.7519 9.82597 21.056C9.82597 21.056 9.93397 20.305 9.99997 20H2.73497C3.00656 20.8243 3.35894 21.6199 3.78697 22.375C4.11616 22.9682 4.62748 23.4397 5.24534 23.7199C5.8632 24.0001 6.55482 24.0741 7.21797 23.931L7.21597 23.932Z" fill="#374957"/>
</g>
<defs>
<clipPath id="clip0_406_3872">
<rect width="24" height="24" fill="white"/>
</clipPath>
</defs>
</svg>
