<svg width="24" height="24" viewBox="0 0 24 24" fill="none" xmlns="http://www.w3.org/2000/svg">
<g clip-path="url(#clip0_406_3657)">
<path d="M13.9998 24.0009C13.2116 24.0033 12.4307 23.8492 11.7025 23.5474C10.9742 23.2456 10.3132 22.8022 9.75781 22.2429C8.63907 21.1145 8.01137 19.5898 8.01137 18.0009C8.01137 16.4119 8.63907 14.8873 9.75781 13.7589L13.9998 9.26187L18.2628 13.7789C19.3717 14.9097 19.9912 16.4314 19.9873 18.0152C19.9833 19.599 19.3563 21.1176 18.2418 22.2429V22.2429C17.6864 22.8022 17.0254 23.2456 16.2972 23.5474C15.569 23.8492 14.7881 24.0033 13.9998 24.0009V24.0009ZM4.99981 12.0009C4.34299 12.0025 3.69238 11.8738 3.0856 11.6224C2.47883 11.3709 1.92794 11.0016 1.46481 10.5359C0.532807 9.5954 0.00991821 8.32493 0.00991821 7.00087C0.00991821 5.67682 0.532807 4.40634 1.46481 3.46587L4.99981 0.00787354L8.52681 3.45787C9.46279 4.39737 9.98899 5.66906 9.99049 6.99522C9.99199 8.32139 9.46867 9.59427 8.53481 10.5359C8.07178 11.0018 7.52091 11.3711 6.91411 11.6226C6.30732 11.8741 5.65665 12.0027 4.99981 12.0009V12.0009ZM19.9998 10.0009C19.4743 10.0022 18.9538 9.89936 18.4684 9.69818C17.983 9.49701 17.5423 9.20154 17.1718 8.82887C16.4261 8.07657 16.0077 7.06016 16.0077 6.00087C16.0077 4.94158 16.4261 3.92517 17.1718 3.17287L19.9818 0.0498735L22.8598 3.20587C23.5906 3.96128 23.9965 4.97286 23.9905 6.0239C23.9846 7.07494 23.5672 8.08184 22.8278 8.82887V8.82887C22.4574 9.20154 22.0167 9.49701 21.5312 9.69818C21.0458 9.89936 20.5253 10.0022 19.9998 10.0009Z" fill="#374957"/>
</g>
<defs>
<clipPath id="clip0_406_3657">
<rect width="24" height="24" fill="white"/>
</clipPath>
</defs>
</svg>
