<svg width="24" height="24" viewBox="0 0 24 24" fill="none" xmlns="http://www.w3.org/2000/svg">
<g clip-path="url(#clip0_406_3612)">
<path d="M24 24H3C2.20435 24 1.44129 23.6839 0.87868 23.1213C0.31607 22.5587 0 21.7956 0 21L0 0H2V21C2 21.2652 2.10536 21.5196 2.29289 21.7071C2.48043 21.8946 2.73478 22 3 22H24V24Z" fill="#374957"/>
<path d="M16.0001 11.0006H14.0001V20.0006H16.0001V11.0006Z" fill="#374957"/>
<path d="M8 11.0006H6V20.0006H8V11.0006Z" fill="#374957"/>
<path d="M20 6H18V20H20V6Z" fill="#374957"/>
<path d="M11.9999 6H9.99988V20H11.9999V6Z" fill="#374957"/>
</g>
<defs>
<clipPath id="clip0_406_3612">
<rect width="24" height="24" fill="white"/>
</clipPath>
</defs>
</svg>
