<svg width="24" height="24" viewBox="0 0 24 24" fill="none" xmlns="http://www.w3.org/2000/svg">
<g clip-path="url(#clip0_406_4026)">
<path d="M7.09301 11.071L6.98501 11.043L15.1 8.9L12.986 17L11.267 12.729L7.09301 11.071ZM24 12C24 14.3734 23.2962 16.6935 21.9776 18.6668C20.6591 20.6402 18.7849 22.1783 16.5922 23.0866C14.3995 23.9948 11.9867 24.2324 9.65892 23.7694C7.33115 23.3064 5.19295 22.1635 3.51472 20.4853C1.83649 18.8071 0.693605 16.6689 0.230582 14.3411C-0.232441 12.0133 0.00519943 9.60051 0.913451 7.4078C1.8217 5.21509 3.35977 3.34094 5.33316 2.02236C7.30655 0.703788 9.62663 0 12 0C15.1815 0.00344108 18.2318 1.26883 20.4815 3.51852C22.7312 5.76821 23.9966 8.81846 24 12ZM17.9 6.1L6.46101 9.113C6.04047 9.22757 5.66943 9.47757 5.40532 9.8243C5.14121 10.171 4.99875 10.5951 5.00001 11.031C4.98989 11.4515 5.11637 11.864 5.36049 12.2066C5.60461 12.5491 5.95321 12.8033 6.35401 12.931L9.73301 14.273L11.082 17.613C11.2093 18.0174 11.4629 18.3704 11.8056 18.6201C12.1483 18.8697 12.562 19.0029 12.986 19H13C13.4385 18.9999 13.8647 18.855 14.2122 18.5877C14.5598 18.3204 14.8094 17.9458 14.922 17.522L17.9 6.1Z" fill="#374957"/>
</g>
<defs>
<clipPath id="clip0_406_4026">
<rect width="24" height="24" fill="white"/>
</clipPath>
</defs>
</svg>
