<svg width="24" height="24" viewBox="0 0 24 24" fill="none" xmlns="http://www.w3.org/2000/svg">
<g clip-path="url(#clip0_406_3855)">
<path d="M19.9998 0H2.99983V3H0.999832V5H2.99983V7H0.999832V9H2.99983V11H0.999832V13H2.99983V15H0.999832V17H2.99983V19H0.999832V21H2.99983V24H19.9998C20.7955 24 21.5585 23.6839 22.1212 23.1213C22.6838 22.5587 22.9998 21.7956 22.9998 21V3C22.9998 2.20435 22.6838 1.44129 22.1212 0.878679C21.5585 0.31607 20.7955 0 19.9998 0V0ZM12.9998 4C13.6921 4 14.3688 4.20527 14.9443 4.58985C15.5199 4.97444 15.9685 5.52106 16.2334 6.16061C16.4983 6.80015 16.5676 7.50388 16.4326 8.18281C16.2975 8.86175 15.9642 9.48539 15.4747 9.97487C14.9852 10.4644 14.3616 10.7977 13.6826 10.9327C13.0037 11.0678 12.3 10.9985 11.6604 10.7336C11.0209 10.4687 10.4743 10.0201 10.0897 9.44449C9.7051 8.86892 9.49983 8.19223 9.49983 7.5C9.49983 6.57174 9.86858 5.6815 10.525 5.02512C11.1813 4.36875 12.0716 4 12.9998 4V4ZM18.9998 18H16.9998V16C16.9998 15.7348 16.8945 15.4804 16.7069 15.2929C16.5194 15.1054 16.265 15 15.9998 15H9.99983C9.73462 15 9.48026 15.1054 9.29273 15.2929C9.10519 15.4804 8.99983 15.7348 8.99983 16V18H6.99983V16C6.99983 15.2043 7.3159 14.4413 7.87851 13.8787C8.44112 13.3161 9.20418 13 9.99983 13H15.9998C16.7955 13 17.5585 13.3161 18.1212 13.8787C18.6838 14.4413 18.9998 15.2043 18.9998 16V18ZM11.4998 7.5C11.4998 7.20333 11.5878 6.91332 11.7526 6.66664C11.9174 6.41997 12.1517 6.22771 12.4258 6.11418C12.6999 6.00065 13.0015 5.97094 13.2925 6.02882C13.5834 6.0867 13.8507 6.22956 14.0605 6.43934C14.2703 6.64912 14.4131 6.91639 14.471 7.20736C14.5289 7.49833 14.4992 7.79993 14.3857 8.07402C14.2721 8.34811 14.0799 8.58238 13.8332 8.7472C13.5865 8.91202 13.2965 9 12.9998 9C12.602 9 12.2205 8.84196 11.9392 8.56066C11.6579 8.27935 11.4998 7.89782 11.4998 7.5V7.5Z" fill="#374957"/>
</g>
<defs>
<clipPath id="clip0_406_3855">
<rect width="24" height="24" fill="white"/>
</clipPath>
</defs>
</svg>
