<svg width="24" height="24" viewBox="0 0 24 24" fill="none" xmlns="http://www.w3.org/2000/svg">
<g clip-path="url(#clip0_406_3742)">
<path d="M16.0002 8C14.8699 8.00096 13.7528 8.24218 12.7229 8.70767C11.6929 9.17316 10.7737 9.85228 10.0262 10.7C9.54967 10.4684 9.04802 10.2925 8.53117 10.176L10.2172 6.8L8.41417 5H5.58617L3.78617 6.8L5.47217 10.171C4.44314 10.3976 3.47854 10.8535 2.65029 11.5049C1.82205 12.1562 1.15153 12.9862 0.688743 13.9328C0.225956 14.8794 -0.0171615 15.9183 -0.0224786 16.9719C-0.0277957 18.0256 0.204824 19.0669 0.658035 20.0181C1.11125 20.9693 1.77335 21.806 2.59498 22.4656C3.41661 23.1253 4.37657 23.591 5.40326 23.8279C6.42995 24.0649 7.49689 24.067 8.52451 23.8341C9.55214 23.6013 10.5139 23.1394 11.3382 22.483C12.3615 23.2229 13.5454 23.71 14.7931 23.9045C16.0408 24.099 17.3168 23.9954 18.5168 23.6021C19.7168 23.2089 20.8066 22.5372 21.6971 21.6419C22.5877 20.7466 23.2537 19.6533 23.6406 18.4513C24.0275 17.2492 24.1244 15.9727 23.9233 14.726C23.7222 13.4794 23.2289 12.298 22.4837 11.2786C21.7384 10.2592 20.7624 9.43071 19.6356 8.86086C18.5087 8.29101 17.2629 7.99602 16.0002 8V8ZM11.2342 19.63C10.5701 18.7672 10.1557 17.7386 10.0362 16.6564C9.9166 15.5742 10.0965 14.48 10.5562 13.493C11.3485 14.2874 11.8472 15.3275 11.9704 16.4427C12.0936 17.5579 11.834 18.6818 11.2342 19.63V19.63ZM2.00017 17C1.99806 16.1803 2.19804 15.3727 2.5824 14.6487C2.96676 13.9247 3.52366 13.3066 4.20382 12.8491C4.88397 12.3917 5.66641 12.1089 6.48189 12.0258C7.29738 11.9428 8.12076 12.062 8.87917 12.373C8.16562 13.7623 7.87672 15.331 8.0485 16.8834C8.22028 18.4358 8.84513 19.9033 9.84517 21.103C9.09636 21.6254 8.21858 21.9323 7.3074 21.9904C6.39623 22.0484 5.4866 21.8553 4.67755 21.4322C3.8685 21.0091 3.19105 20.3721 2.71897 19.5906C2.24689 18.8091 1.99826 17.913 2.00017 17V17ZM16.0002 22C14.8351 22.0004 13.6955 21.6593 12.7222 21.019C13.7068 19.6273 14.1465 17.9227 13.9582 16.2283C13.7698 14.5339 12.9664 12.9675 11.7002 11.826C12.3897 11.114 13.2449 10.5838 14.1894 10.283C15.1339 9.98218 16.1381 9.92003 17.1125 10.1021C18.0868 10.2842 19.0009 10.7048 19.773 11.3264C20.5451 11.948 21.1511 12.7512 21.537 13.6642C21.9229 14.5772 22.0766 15.5716 21.9843 16.5585C21.892 17.5454 21.5567 18.4941 21.0083 19.3198C20.4599 20.1454 19.7154 20.8224 18.8415 21.2901C17.9676 21.7578 16.9914 22.0017 16.0002 22V22ZM10.4182 4L9.00017 2.581L11.2932 0.293L12.7072 1.707L10.4182 4ZM3.54317 3.957L1.29317 1.707L2.70717 0.293L4.95717 2.543L3.54317 3.957ZM8.00017 3H6.00017V0H8.00017V3Z" fill="#374957"/>
</g>
<defs>
<clipPath id="clip0_406_3742">
<rect width="24" height="24" fill="white"/>
</clipPath>
</defs>
</svg>
