<svg width="24" height="24" viewBox="0 0 24 24" fill="none" xmlns="http://www.w3.org/2000/svg">
<g clip-path="url(#clip0_406_3676)">
<path d="M9.96192 8L7.64292 0H10.3999C10.939 -1.77366e-06 11.4681 0.145243 11.9316 0.420463C12.3951 0.695682 12.7759 1.09071 13.0339 1.564L16.2689 8H9.96192ZM20.9999 10H4.98692L2.39992 7.411C2.1622 7.16049 1.84029 7.00669 1.49604 6.97914C1.1518 6.9516 0.809519 7.05226 0.534994 7.26178C0.26047 7.4713 0.0730728 7.7749 0.00882188 8.11421C-0.055429 8.45353 0.00800042 8.80462 0.186919 9.1L3.40692 15H10.5549L7.01892 24H10.0819C10.6108 24.0021 11.1306 23.863 11.5876 23.597C12.0447 23.331 12.4225 22.9478 12.6819 22.487L17.2689 15H23.9999V13C23.9999 12.2044 23.6839 11.4413 23.1212 10.8787C22.5586 10.3161 21.7956 10 20.9999 10Z" fill="#374957"/>
</g>
<defs>
<clipPath id="clip0_406_3676">
<rect width="24" height="24" fill="white"/>
</clipPath>
</defs>
</svg>
