<svg width="24" height="24" viewBox="0 0 24 24" fill="none" xmlns="http://www.w3.org/2000/svg">
<g clip-path="url(#clip0_406_3818)">
<path d="M22 0H13V2H20.586L0 22.586L1.414 24L22 3.414V11H24V2C24 1.46957 23.7893 0.960859 23.4142 0.585786C23.0391 0.210714 22.5304 0 22 0V0Z" fill="#374957"/>
<path d="M6.00015 10.0001C6.79128 10.0001 7.56464 9.76553 8.22243 9.326C8.88023 8.88648 9.39292 8.26176 9.69567 7.53086C9.99842 6.79995 10.0776 5.99569 9.92329 5.21976C9.76895 4.44384 9.38799 3.73111 8.82858 3.1717C8.26917 2.61229 7.55644 2.23132 6.78051 2.07698C6.00459 1.92264 5.20032 2.00186 4.46942 2.30461C3.73851 2.60736 3.1138 3.12005 2.67427 3.77784C2.23475 4.43564 2.00015 5.209 2.00015 6.00012C2.00015 7.06099 2.42158 8.07841 3.17173 8.82855C3.92187 9.5787 4.93929 10.0001 6.00015 10.0001ZM6.00015 4.00012C6.39572 4.00012 6.78239 4.11742 7.11129 4.33718C7.44019 4.55695 7.69654 4.8693 7.84791 5.23476C7.99929 5.60021 8.03889 6.00234 7.96172 6.3903C7.88455 6.77827 7.69407 7.13463 7.41437 7.41434C7.13466 7.69404 6.7783 7.88452 6.39033 7.96169C6.00237 8.03887 5.60024 7.99926 5.23479 7.84788C4.86933 7.69651 4.55698 7.44016 4.33721 7.11126C4.11745 6.78237 4.00015 6.39569 4.00015 6.00012C4.00015 5.46969 4.21087 4.96098 4.58594 4.58591C4.96101 4.21084 5.46972 4.00012 6.00015 4.00012V4.00012Z" fill="#374957"/>
<path d="M18.0001 13.9996C17.209 13.9996 16.4356 14.2342 15.7778 14.6738C15.12 15.1133 14.6074 15.738 14.3046 16.4689C14.0019 17.1998 13.9226 18.0041 14.077 18.78C14.2313 19.5559 14.6123 20.2687 15.1717 20.8281C15.7311 21.3875 16.4438 21.7684 17.2198 21.9228C17.9957 22.0771 18.8 21.9979 19.5309 21.6952C20.2618 21.3924 20.8865 20.8797 21.326 20.2219C21.7655 19.5641 22.0001 18.7908 22.0001 17.9996C22.0001 16.9388 21.5787 15.9214 20.8286 15.1712C20.0784 14.4211 19.061 13.9996 18.0001 13.9996V13.9996ZM18.0001 19.9996C17.6046 19.9996 17.2179 19.8823 16.889 19.6626C16.5601 19.4428 16.3037 19.1305 16.1524 18.765C16.001 18.3995 15.9614 17.9974 16.0386 17.6095C16.1157 17.2215 16.3062 16.8651 16.5859 16.5854C16.8656 16.3057 17.222 16.1152 17.6099 16.0381C17.9979 15.9609 18.4 16.0005 18.7655 16.1519C19.1309 16.3032 19.4433 16.5596 19.6631 16.8885C19.8828 17.2174 20.0001 17.6041 20.0001 17.9996C20.0001 18.5301 19.7894 19.0388 19.4143 19.4138C19.0393 19.7889 18.5306 19.9996 18.0001 19.9996Z" fill="#374957"/>
</g>
<defs>
<clipPath id="clip0_406_3818">
<rect width="24" height="24" fill="white"/>
</clipPath>
</defs>
</svg>
