<svg width="24" height="24" viewBox="0 0 24 24" fill="none" xmlns="http://www.w3.org/2000/svg">
<g clip-path="url(#clip0_406_3631)">
<path d="M12 7.838L4 10.505V8C4 7.20435 4.31607 6.44129 4.87868 5.87868C5.44129 5.31607 6.20435 5 7 5H17C17.7956 5 18.5587 5.31607 19.1213 5.87868C19.6839 6.44129 20 7.20435 20 8V10.505L12 7.838ZM22 21C22 21.344 21.318 22 20.25 22C19.945 22.0116 19.6413 21.9548 19.3611 21.8336C19.0809 21.7125 18.8315 21.5302 18.631 21.3C19.6958 20.264 20.5424 19.0254 21.1211 17.6571C21.6997 16.2889 21.9985 14.8186 22 13.333V13.279L13 10.279V21H11V10.28L2 13.28V13.334C2.0024 14.8199 2.30226 16.2902 2.8819 17.6583C3.46154 19.0264 4.30924 20.2647 5.375 21.3C5.17379 21.5308 4.92333 21.7136 4.64208 21.8347C4.36083 21.9559 4.05598 22.0124 3.75 22C2.661 22 2 21.306 2 21H0C0 22.626 1.718 24 3.75 24C4.75699 24.0076 5.73312 23.6527 6.5 23C7.27182 23.6421 8.24347 23.9949 9.24748 23.9974C10.2515 24 11.2249 23.6522 12 23.014C12.7751 23.6522 13.7485 24 14.7525 23.9974C15.7565 23.9949 16.7282 23.6421 17.5 23C18.2666 23.6524 19.2423 24.0074 20.249 24C22.282 24 24 22.626 24 21H22ZM16 2C16 1.46957 15.7893 0.960859 15.4142 0.585786C15.0391 0.210714 14.5304 0 14 0L10 0C9.46957 0 8.96086 0.210714 8.58579 0.585786C8.21071 0.960859 8 1.46957 8 2V3H16V2Z" fill="#374957"/>
</g>
<defs>
<clipPath id="clip0_406_3631">
<rect width="24" height="24" fill="white"/>
</clipPath>
</defs>
</svg>
