<svg width="24" height="24" viewBox="0 0 24 24" fill="none" xmlns="http://www.w3.org/2000/svg">
<g clip-path="url(#clip0_406_3647)">
<path d="M12 2C13.3295 2.00252 14.6452 2.26901 15.8708 2.78399C17.0965 3.29898 18.2077 4.05221 19.14 5H15V7H20.143C20.6353 6.99947 21.1074 6.80365 21.4555 6.45551C21.8037 6.10737 21.9995 5.63534 22 5.143V0H20V3.06C18.2736 1.5159 16.1373 0.504399 13.8488 0.147551C11.5603 -0.209296 9.21748 0.103762 7.10297 1.04895C4.98846 1.99413 3.19266 3.53106 1.93229 5.47425C0.671915 7.41744 0.000824399 9.68385 0 12H2C2.00291 9.34873 3.05742 6.80688 4.93215 4.93215C6.80688 3.05742 9.34873 2.00291 12 2V2Z" fill="#374957"/>
<path d="M22.0001 12C21.9998 13.986 21.4082 15.927 20.3006 17.5755C19.193 19.224 17.6196 20.5054 15.781 21.2562C13.9424 22.0071 11.9218 22.1936 9.97685 21.7917C8.03189 21.3899 6.25063 20.418 4.86012 19H9.00012V17H3.85712C3.36478 17.0005 2.89275 17.1963 2.54461 17.5445C2.19647 17.8926 2.00065 18.3647 2.00012 18.857V24H4.00012V20.94C5.72648 22.4841 7.8628 23.4956 10.1513 23.8524C12.4398 24.2093 14.7826 23.8962 16.8972 22.9511C19.0117 22.0059 20.8075 20.4689 22.0678 18.5258C23.3282 16.5826 23.9993 14.3161 24.0001 12H22.0001Z" fill="#374957"/>
</g>
<defs>
<clipPath id="clip0_406_3647">
<rect width="24" height="24" fill="white"/>
</clipPath>
</defs>
</svg>
