<svg width="24" height="24" viewBox="0 0 24 24" fill="none" xmlns="http://www.w3.org/2000/svg">
<g clip-path="url(#clip0_406_3777)">
<path d="M20.7 3.3L20.4 3H3.6L3.3 3.3C1.2 5.7 0 8.8 0 12C0 17.5 2.2 22 5 22C7.2 22 8.3 18.8 8.8 17H15.2C15.7 18.8 16.8 22 19 22C21.8 22 24 17.5 24 12C24 8.8 22.8 5.7 20.7 3.3ZM9 11H7V13H5V11H3V9H5V7H7V9H9V11ZM15.5 13C14.7 13 14 12.3 14 11.5C14 10.7 14.7 10 15.5 10C16.3 10 17 10.7 17 11.5C17 12.3 16.3 13 15.5 13ZM18.5 10C17.7 10 17 9.3 17 8.5C17 7.7 17.7 7 18.5 7C19.3 7 20 7.7 20 8.5C20 9.3 19.3 10 18.5 10Z" fill="#374957"/>
</g>
<defs>
<clipPath id="clip0_406_3777">
<rect width="24" height="24" fill="white"/>
</clipPath>
</defs>
</svg>
