<svg width="24" height="24" viewBox="0 0 24 24" fill="none" xmlns="http://www.w3.org/2000/svg">
<g clip-path="url(#clip0_406_3795)">
<path d="M9.35586 0L0.374856 19.759C0.167235 20.2159 0.0775759 20.7177 0.114091 21.2183C0.150606 21.7188 0.312127 22.2022 0.583862 22.6242C0.855598 23.0462 1.22886 23.3933 1.66947 23.6336C2.11008 23.874 2.60395 24 3.10586 24H10.9999V1.046L10.9929 0H9.35586ZM8.99986 22H3.10586C2.93845 22.0001 2.7737 21.9582 2.6267 21.8781C2.4797 21.798 2.35516 21.6823 2.2645 21.5416C2.17383 21.4009 2.11994 21.2396 2.10778 21.0727C2.09561 20.9057 2.12555 20.7384 2.19486 20.586L8.99986 5.616V22Z" fill="#374957"/>
<path d="M23.6249 19.759L14.9299 0.628L14.6259 0H12.9999V24H20.8939C21.3958 24 21.8896 23.874 22.3303 23.6336C22.7709 23.3933 23.1441 23.0462 23.4159 22.6242C23.6876 22.2022 23.8491 21.7188 23.8856 21.2183C23.9221 20.7177 23.8325 20.2159 23.6249 19.759Z" fill="#374957"/>
</g>
<defs>
<clipPath id="clip0_406_3795">
<rect width="24" height="24" fill="white"/>
</clipPath>
</defs>
</svg>
