<svg width="24" height="24" viewBox="0 0 24 24" fill="none" xmlns="http://www.w3.org/2000/svg">
<g clip-path="url(#clip0_406_3963)">
<path d="M1 18.9997V16.9997C1.00363 14.257 2.03079 11.6144 3.88041 9.58927C5.73002 7.56413 8.26889 6.30225 11 6.05065V4.72265C10.6187 4.50252 10.3207 4.16272 10.1522 3.75597C9.98376 3.34921 9.9542 2.89823 10.0681 2.47296C10.1821 2.0477 10.4332 1.67191 10.7825 1.40389C11.1318 1.13588 11.5597 0.990601 12 0.990601C12.4403 0.990601 12.8682 1.13588 13.2175 1.40389C13.5668 1.67191 13.8179 2.0477 13.9319 2.47296C14.0458 2.89823 14.0162 3.34921 13.8478 3.75597C13.6793 4.16272 13.3813 4.50252 13 4.72265V6.05065C15.7311 6.30225 18.27 7.56413 20.1196 9.58927C21.9692 11.6144 22.9964 14.257 23 16.9997V18.9997H1ZM0 20.9997V22.9997H24V20.9997H0Z" fill="#374957"/>
</g>
<defs>
<clipPath id="clip0_406_3963">
<rect width="24" height="24" fill="white"/>
</clipPath>
</defs>
</svg>
