<svg width="24" height="24" viewBox="0 0 24 24" fill="none" xmlns="http://www.w3.org/2000/svg">
<g clip-path="url(#clip0_406_3763)">
<path d="M17.0311 11.9999L10.2071 23.9999H6.17708L14.9431 8.23888L17.0311 11.9999ZM18.1681 14.0459L12.5081 23.9999H16.7001L20.2481 17.7909L18.1681 14.0459ZM21.3851 19.8369L19.0061 23.9999H23.7001L21.3851 19.8369ZM12.5421 3.91588C13.007 3.78498 13.4089 3.49022 13.6735 3.08606C13.938 2.6819 14.0474 2.19565 13.9813 1.71715C13.9152 1.23865 13.6782 0.800229 13.314 0.482886C12.9498 0.165543 12.4831 -0.00927734 12.0001 -0.00927734C11.517 -0.00927734 11.0503 0.165543 10.6861 0.482886C10.322 0.800229 10.085 1.23865 10.0189 1.71715C9.9528 2.19565 10.0621 2.6819 10.3267 3.08606C10.5912 3.49022 10.9931 3.78498 11.4581 3.91588L0.300079 23.9999H3.88908L13.8001 6.17988L12.5421 3.91588Z" fill="#374957"/>
</g>
<defs>
<clipPath id="clip0_406_3763">
<rect width="24" height="24" fill="white"/>
</clipPath>
</defs>
</svg>
