<svg width="24" height="24" viewBox="0 0 24 24" fill="none" xmlns="http://www.w3.org/2000/svg">
<g clip-path="url(#clip0_406_3891)">
<path d="M10.874 2.9998C10.653 2.14027 10.1524 1.37865 9.4511 0.83482C8.74976 0.290994 7.88748 -0.00415039 7 -0.00415039C6.11252 -0.00415039 5.25024 0.290994 4.5489 0.83482C3.84756 1.37865 3.34699 2.14027 3.126 2.9998H0V4.9998H3.126C3.34699 5.85932 3.84756 6.62094 4.5489 7.16477C5.25024 7.7086 6.11252 8.00374 7 8.00374C7.88748 8.00374 8.74976 7.7086 9.4511 7.16477C10.1524 6.62094 10.653 5.85932 10.874 4.9998H24V2.9998H10.874Z" fill="#374957"/>
<path d="M17 8.00061C16.113 8.00039 15.2512 8.29496 14.5499 8.83802C13.8486 9.38108 13.3477 10.1418 13.126 11.0006H0V13.0006H13.126C13.347 13.8601 13.8476 14.6218 14.5489 15.1656C15.2502 15.7094 16.1125 16.0046 17 16.0046C17.8875 16.0046 18.7498 15.7094 19.4511 15.1656C20.1524 14.6218 20.653 13.8601 20.874 13.0006H24V11.0006H20.874C20.6523 10.1418 20.1514 9.38108 19.4501 8.83802C18.7488 8.29496 17.887 8.00039 17 8.00061Z" fill="#374957"/>
<path d="M7 15.9994C6.11304 15.9992 5.25117 16.2937 4.5499 16.8368C3.84862 17.3799 3.34774 18.1406 3.126 18.9994H0V20.9994H3.126C3.34699 21.8589 3.84756 22.6205 4.5489 23.1644C5.25024 23.7082 6.11252 24.0033 7 24.0033C7.88748 24.0033 8.74976 23.7082 9.4511 23.1644C10.1524 22.6205 10.653 21.8589 10.874 20.9994H24V18.9994H10.874C10.6523 18.1406 10.1514 17.3799 9.4501 16.8368C8.74883 16.2937 7.88696 15.9992 7 15.9994V15.9994Z" fill="#374957"/>
</g>
<defs>
<clipPath id="clip0_406_3891">
<rect width="24" height="24" fill="white"/>
</clipPath>
</defs>
</svg>
