<svg width="24" height="24" viewBox="0 0 24 24" fill="none" xmlns="http://www.w3.org/2000/svg">
<g clip-path="url(#clip0_406_4029)">
<path d="M12.0001 17.9992C7.43909 17.9992 2.63609 16.9992 0.358093 14.8622C0.995481 17.4689 2.48921 19.7862 4.60003 21.4431C6.71086 23.0999 9.31666 24.0005 12.0001 24.0005C14.6835 24.0005 17.2893 23.0999 19.4002 21.4431C21.511 19.7862 23.0047 17.4689 23.6421 14.8622C21.3641 16.9992 16.5611 17.9992 12.0001 17.9992Z" fill="#374957"/>
<path d="M12.0001 6.00093C16.5611 6.00093 21.3641 7.00093 23.6421 9.13793C23.0047 6.5313 21.511 4.21398 19.4002 2.55711C17.2893 0.900244 14.6835 -0.000305176 12.0001 -0.000305176C9.31666 -0.000305176 6.71086 0.900244 4.60003 2.55711C2.48921 4.21398 0.995481 6.5313 0.358093 9.13793C2.63609 7.00093 7.43909 6.00093 12.0001 6.00093Z" fill="#374957"/>
<path d="M12.0001 16.0006C18.0752 16.0006 23.0001 14.2097 23.0001 12.0006C23.0001 9.79147 18.0752 8.00061 12.0001 8.00061C5.92493 8.00061 1.00006 9.79147 1.00006 12.0006C1.00006 14.2097 5.92493 16.0006 12.0001 16.0006Z" fill="#374957"/>
</g>
<defs>
<clipPath id="clip0_406_4029">
<rect width="24" height="24" fill="white"/>
</clipPath>
</defs>
</svg>
