<svg width="24" height="24" viewBox="0 0 24 24" fill="none" xmlns="http://www.w3.org/2000/svg">
<g clip-path="url(#clip0_406_3809)">
<path d="M1.2 8.43697L8.48 1.44897C9.419 0.518179 10.6884 -0.00279978 12.0106 1.13172e-05C13.3327 0.00282241 14.6 0.529194 15.535 1.46397L22.805 8.43697L14.121 17.122C13.5493 17.6669 12.7898 17.9709 12 17.9709C11.2102 17.9709 10.4507 17.6669 9.879 17.122L1.2 8.43697ZM15.54 18.537C14.6024 19.4743 13.3308 20.0009 12.005 20.0009C10.6792 20.0009 9.40764 19.4743 8.47 18.537L0.16 10.23C0.0597823 10.5712 0.00596553 10.9244 0 11.28L0 24H24V11.28C23.994 10.9244 23.9402 10.5712 23.84 10.23L15.54 18.537Z" fill="#374957"/>
</g>
<defs>
<clipPath id="clip0_406_3809">
<rect width="24" height="24" fill="white"/>
</clipPath>
</defs>
</svg>
