<svg width="24" height="24" viewBox="0 0 24 24" fill="none" xmlns="http://www.w3.org/2000/svg">
<g clip-path="url(#clip0_406_3737)">
<path d="M22.9159 0.690913C22.5768 0.409244 22.1796 0.205995 21.7528 0.0957019C21.326 -0.0145911 20.8801 -0.0292025 20.4469 0.0529129L8.44794 2.29991C7.75963 2.42876 7.13808 2.79434 6.69099 3.3333C6.24389 3.87226 5.99942 4.55065 5.99994 5.25091V16.5559C5.39459 16.196 4.70419 16.0041 3.99994 15.9999C3.20882 15.9999 2.43546 16.2345 1.77766 16.674C1.11986 17.1136 0.607173 17.7383 0.304423 18.4692C0.00167209 19.2001 -0.0775412 20.0043 0.0767996 20.7803C0.231141 21.5562 0.612104 22.2689 1.17151 22.8283C1.73092 23.3877 2.44366 23.7687 3.21958 23.9231C3.9955 24.0774 4.79977 23.9982 5.53068 23.6954C6.26158 23.3927 6.88629 22.88 7.32582 22.2222C7.76535 21.5644 7.99994 20.791 7.99994 19.9999V9.41991L21.9999 6.79991V13.5609C21.3951 13.1992 20.7047 13.0056 19.9999 12.9999C19.2088 12.9999 18.4355 13.2345 17.7777 13.674C17.1199 14.1136 16.6072 14.7383 16.3044 15.4692C16.0017 16.2001 15.9225 17.0043 16.0768 17.7803C16.2311 18.5562 16.6121 19.2689 17.1715 19.8283C17.7309 20.3877 18.4437 20.7687 19.2196 20.9231C19.9955 21.0774 20.7998 20.9982 21.5307 20.6954C22.2616 20.3927 22.8863 19.88 23.3258 19.2222C23.7653 18.5644 23.9999 17.791 23.9999 16.9999V2.99991C24 2.55903 23.9029 2.12355 23.7156 1.72447C23.5282 1.32538 23.2552 0.972488 22.9159 0.690913V0.690913Z" fill="#374957"/>
</g>
<defs>
<clipPath id="clip0_406_3737">
<rect width="24" height="24" fill="white"/>
</clipPath>
</defs>
</svg>
