<svg width="24" height="24" viewBox="0 0 24 24" fill="none" xmlns="http://www.w3.org/2000/svg">
<g clip-path="url(#clip0_406_3682)">
<path d="M21.855 20.4408L23.955 22.5408L22.541 23.9548L0.043022 1.45685L1.45702 0.0428467L4.55702 3.14285C5.58401 2.18635 6.84484 1.51728 8.21261 1.20296C9.58038 0.888638 11.0068 0.940171 12.3483 1.35237C13.6899 1.76457 14.8991 2.52288 15.8544 3.55099C16.8097 4.5791 17.4773 5.84071 17.79 7.20885C19.1584 7.52099 20.4204 8.18826 21.4488 9.14344C22.4772 10.0986 23.2357 11.308 23.6479 12.6497C24.0601 13.9913 24.1114 15.4179 23.7966 16.7858C23.4819 18.1536 22.8122 19.4143 21.855 20.4408ZM2.00002 8.99985C1.99904 10.2783 2.30785 11.5379 2.90002 12.6708C1.82115 13.249 0.966422 14.1711 0.471641 15.2906C-0.0231397 16.4102 -0.129593 17.663 0.169193 18.85C0.46798 20.037 1.15487 21.0901 2.12073 21.842C3.08658 22.5938 4.27601 23.0014 5.50002 22.9998H16C16.8093 22.9972 17.6134 22.8718 18.385 22.6278L2.37202 6.61385C2.12801 7.38578 2.00258 8.19027 2.00002 8.99985V8.99985Z" fill="#374957"/>
</g>
<defs>
<clipPath id="clip0_406_3682">
<rect width="24" height="24" fill="white"/>
</clipPath>
</defs>
</svg>
