<svg width="24" height="24" viewBox="0 0 24 24" fill="none" xmlns="http://www.w3.org/2000/svg">
<g clip-path="url(#clip0_406_3694)">
<path d="M24 8V24H22V18H2V24H0V13.481C0 12.0223 0.579463 10.6234 1.61091 9.59192C2.64236 8.56047 4.04131 7.981 5.5 7.981C6.95869 7.981 8.35764 8.56047 9.38909 9.59192C10.4205 10.6234 11 12.0223 11 13.481V16H14V8H18V11H20V8H24ZM5.5 7C6.19223 7 6.86892 6.79473 7.4445 6.41015C8.02007 6.02556 8.46867 5.47894 8.73358 4.83939C8.99849 4.19985 9.0678 3.49612 8.93275 2.81719C8.7977 2.13825 8.46436 1.51461 7.97487 1.02513C7.48539 0.535644 6.86175 0.202301 6.18282 0.0672531C5.50388 -0.0677952 4.80015 0.00151652 4.16061 0.266423C3.52107 0.53133 2.97444 0.979934 2.58986 1.55551C2.20527 2.13108 2 2.80777 2 3.5C2 4.42826 2.36875 5.3185 3.02513 5.97488C3.6815 6.63125 4.57174 7 5.5 7V7Z" fill="#374957"/>
</g>
<defs>
<clipPath id="clip0_406_3694">
<rect width="24" height="24" fill="white"/>
</clipPath>
</defs>
</svg>
