<svg width="24" height="24" viewBox="0 0 24 24" fill="none" xmlns="http://www.w3.org/2000/svg">
<g clip-path="url(#clip0_406_3597)">
<path d="M3.141 7.26409L1.359 6.36409C1.73383 5.65861 2.17767 4.99201 2.684 4.37409L4.2 5.68109C3.79793 6.17422 3.44335 6.70424 3.141 7.26409V7.26409ZM2.368 9.14609L0.458 8.55209C0.228756 9.31761 0.0769938 10.1042 0.005 10.9001L1.995 11.1001C2.05401 10.438 2.17897 9.78339 2.368 9.14609V9.14609ZM7.287 3.15709L6.344 1.39309C5.65576 1.75836 5.0047 2.18973 4.4 2.68109L5.641 4.24409C6.15257 3.82849 6.70391 3.46439 7.287 3.15709V3.15709ZM11.044 2.04609L10.863 0.0550864C10.0782 0.126367 9.30236 0.275432 8.547 0.500086L9.114 2.41709C9.74349 2.22992 10.39 2.10565 11.044 2.04609V2.04609ZM23.949 12.0001C23.9232 15.0785 22.7153 18.0293 20.575 20.2421C18.4347 22.455 15.5259 23.7606 12.4501 23.889C9.3742 24.0175 6.36663 22.9589 4.04936 20.9321C1.73208 18.9054 0.282353 16.0656 0 13.0001H4.023C3.97703 12.6687 3.95231 12.3347 3.949 12.0001C3.94773 10.8647 4.1884 9.74216 4.65498 8.70713C5.12157 7.67209 5.80335 6.74836 6.65491 5.99746C7.50648 5.24657 8.50828 4.68576 9.59357 4.35239C10.6789 4.01901 11.8227 3.92073 12.949 4.06409V0.0510864C15.9457 0.303757 18.7385 1.67156 20.7753 3.88408C22.8121 6.0966 23.9446 8.9928 23.949 12.0001V12.0001ZM13.949 12.0001C13.9481 11.6504 13.8553 11.3071 13.6797 11.0047C13.5042 10.7022 13.2522 10.4513 12.949 10.2771V6.00009H10.949V10.2781C10.6497 10.4519 10.4008 10.7008 10.227 11.0001H6.949V13.0001H10.227C10.4461 13.3815 10.7852 13.6798 11.1915 13.8485C11.5978 14.0171 12.0484 14.0467 12.4733 13.9326C12.8981 13.8185 13.2733 13.5671 13.5404 13.2175C13.8075 12.868 13.9515 12.44 13.95 12.0001H13.949Z" fill="#374957"/>
</g>
<defs>
<clipPath id="clip0_406_3597">
<rect width="24" height="24" fill="white"/>
</clipPath>
</defs>
</svg>
