<svg width="24" height="24" viewBox="0 0 24 24" fill="none" xmlns="http://www.w3.org/2000/svg">
<g clip-path="url(#clip0_406_3722)">
<path d="M22.0002 7.99963V9.02563C21.1398 8.36383 20.0856 8.00331 19.0002 7.99963C17.6741 7.99963 16.4023 8.52642 15.4646 9.4641C14.5269 10.4018 14.0002 11.6736 14.0002 12.9996C14.0002 14.3257 14.5269 15.5975 15.4646 16.5352C16.4023 17.4728 17.6741 17.9996 19.0002 17.9996C20.0856 17.996 21.1398 17.6354 22.0002 16.9736V17.9996H24.0002V7.99963H22.0002ZM19.0002 15.9996C18.4068 15.9996 17.8268 15.8237 17.3334 15.494C16.8401 15.1644 16.4556 14.6959 16.2285 14.1477C16.0015 13.5995 15.942 12.9963 16.0578 12.4144C16.1736 11.8324 16.4593 11.2979 16.8788 10.8783C17.2984 10.4588 17.8329 10.173 18.4149 10.0573C18.9968 9.94152 19.6 10.0009 20.1482 10.228C20.6964 10.4551 21.1649 10.8396 21.4946 11.3329C21.8242 11.8263 22.0002 12.4063 22.0002 12.9996C22.0002 13.7953 21.6841 14.5583 21.1215 15.121C20.5589 15.6836 19.7958 15.9996 19.0002 15.9996Z" fill="#374957"/>
<path d="M12 17.9998H14.236L7.118 3.76379L0 17.9998H2.236L4.236 13.9998H10L12 17.9998ZM5.236 11.9998L7.118 8.23579L9 11.9998H5.236Z" fill="#374957"/>
</g>
<defs>
<clipPath id="clip0_406_3722">
<rect width="24" height="24" fill="white"/>
</clipPath>
</defs>
</svg>
