<svg width="24" height="24" viewBox="0 0 24 24" fill="none" xmlns="http://www.w3.org/2000/svg">
<g clip-path="url(#clip0_406_3836)">
<path d="M15.7259 9L11.9999 24L8.27394 9H15.7259ZM10.9729 0L8.42794 7H15.5719L13.0269 0H10.9729ZM17.6999 7H23.8409C23.7487 6.71469 23.6138 6.44498 23.4409 6.2L19.9099 1.257C19.6325 0.868319 19.2662 0.551492 18.8417 0.332861C18.4171 0.11423 17.9465 0.000113137 17.4689 0L15.1549 0L17.6999 7ZM17.7849 9L15.0199 20.3L23.3589 9.8C23.5464 9.55774 23.6952 9.28787 23.7999 9H17.7849ZM6.21494 9H0.199936C0.306383 9.2879 0.456471 9.55772 0.644936 9.8L8.97993 20.3L6.21494 9ZM6.29994 7L8.84494 0H6.53094C6.05338 0.000113137 5.58276 0.11423 5.1582 0.332861C4.73363 0.551492 4.36739 0.868319 4.08994 1.257L0.558936 6.2C0.385662 6.44475 0.250775 6.71453 0.158936 7H6.29994Z" fill="#374957"/>
</g>
<defs>
<clipPath id="clip0_406_3836">
<rect width="24" height="24" fill="white"/>
</clipPath>
</defs>
</svg>
