<svg width="24" height="24" viewBox="0 0 24 24" fill="none" xmlns="http://www.w3.org/2000/svg">
<g clip-path="url(#clip0_406_3899)">
<path d="M22.579 8.96075L19.517 5.90875L16.467 8.96675L15.045 7.56175L18.1 4.49975L15.039 1.44175L16.453 0.027752C16.68 0.254752 17.984 1.55575 19.513 3.07975L22.564 0.020752L23.978 1.43575L20.929 4.49175L23.985 7.53875L22.579 8.96075ZM13.501 16.9608C10.5902 15.7277 8.27532 13.4075 7.04902 10.4938L11.174 6.36775L4.90802 0.099752L1.73802 3.26975C1.18754 3.82275 0.752384 4.47958 0.457807 5.20212C0.163231 5.92465 0.0151025 6.6985 0.0220212 7.47875C0.0220212 14.7268 9.27402 23.9788 16.522 23.9788C17.3019 23.985 18.0752 23.8365 18.7973 23.542C19.5194 23.2474 20.176 22.8126 20.729 22.2628L23.9 19.0918L17.636 12.8258L13.501 16.9608Z" fill="#374957"/>
</g>
<defs>
<clipPath id="clip0_406_3899">
<rect width="24" height="24" fill="white"/>
</clipPath>
</defs>
</svg>
