<svg width="24" height="24" viewBox="0 0 24 24" fill="none" xmlns="http://www.w3.org/2000/svg">
<g clip-path="url(#clip0_406_3783)">
<path d="M22.5348 7.32409L23.9648 5.92409L18.2148 0.0510864L16.7848 1.45109L19.0408 3.75109L16.8618 5.79209L15.9498 4.87909C15.3887 4.31836 14.6283 4.00271 13.835 4.00121C13.0417 3.99972 12.2801 4.31248 11.7168 4.87109L14.9228 8.07709L13.5088 9.49109L10.2998 6.28409L8.71585 7.87009L11.9228 11.0771L10.5088 12.4911L7.29985 9.28409L5.71585 10.8701L8.92285 14.0771L7.50885 15.4911L4.29985 12.2841L2.99985 13.5861V19.5861L0.0428467 22.5431L1.45685 23.9571L4.41385 21.0001H10.4138L19.1208 12.2931C19.3995 12.0145 19.6205 11.6838 19.7713 11.3198C19.9221 10.9557 19.9997 10.5656 19.9997 10.1716C19.9997 9.77758 19.9221 9.38743 19.7713 9.02342C19.6205 8.65941 19.3995 8.32867 19.1208 8.05009L18.2768 7.20709L20.4398 5.18409L22.5348 7.32409Z" fill="#374957"/>
</g>
<defs>
<clipPath id="clip0_406_3783">
<rect width="24" height="24" fill="white"/>
</clipPath>
</defs>
</svg>
