<svg width="24" height="24" viewBox="0 0 24 24" fill="none" xmlns="http://www.w3.org/2000/svg">
<g clip-path="url(#clip0_406_3698)">
<path d="M18.9998 23.4144L23.4138 19.0004H18.9998V23.4144Z" fill="#374957"/>
<path d="M6.47977 8.57372H7.57677L7.03077 7.12671L6.47977 8.57372Z" fill="#374957"/>
<path d="M21 0H3C2.20435 0 1.44129 0.31607 0.87868 0.87868C0.31607 1.44129 0 2.20435 0 3L0 24H17V17H24V3C24 2.20435 23.6839 1.44129 23.1213 0.87868C22.5587 0.31607 21.7956 0 21 0V0ZM8.563 11.187L8.049 9.824H6L5.48 11.188H4.146L6.5 5.007L7.566 5L9.9 11.188L8.563 11.187ZM12.406 11.131H11.156V5.062H12.406V11.131Z" fill="#374957"/>
</g>
<defs>
<clipPath id="clip0_406_3698">
<rect width="24" height="24" fill="white"/>
</clipPath>
</defs>
</svg>
