<svg width="24" height="24" viewBox="0 0 24 24" fill="none" xmlns="http://www.w3.org/2000/svg">
<g clip-path="url(#clip0_406_4013)">
<path d="M17.9999 3V4H23.9999V6H17.9999V8H23.9999V10H17.9999V12H23.9999V14H17.9999V16H23.9999V18H17.9999V24H15.9999V3C15.9999 2.20435 16.316 1.44129 16.8786 0.87868C17.4412 0.316071 18.2042 0 18.9999 0L23.9999 0V2H18.9999C18.7347 2 18.4803 2.10536 18.2928 2.29289C18.1052 2.48043 17.9999 2.73478 17.9999 3V3ZM13.9999 20C14.0035 20.8144 13.7574 21.6103 13.2947 22.2805C12.832 22.9507 12.175 23.463 11.4122 23.7483C10.6494 24.0336 9.81746 24.0782 9.02853 23.8761C8.2396 23.674 7.53158 23.2349 6.99989 22.618C6.58069 23.1002 6.0518 23.4746 5.45773 23.7098C4.86366 23.945 4.22178 24.034 3.58613 23.9694C2.95047 23.9048 2.33963 23.6885 1.80502 23.3386C1.27041 22.9887 0.827662 22.5155 0.514048 21.9588C0.200434 21.4022 0.0251256 20.7783 0.00287719 20.1398C-0.0193712 19.5012 0.112091 18.8667 0.386201 18.2895C0.66031 17.7124 1.06905 17.2095 1.57801 16.8233C2.08697 16.437 2.68127 16.1787 3.31089 16.07L5.91189 10L4.26289 6.151C3.42739 4.20807 2.99761 2.11495 2.99989 0L4.99989 0C4.99734 1.84426 5.37166 3.6696 6.09989 5.364L6.99989 7.464L7.89989 5.364C8.62812 3.6696 9.00244 1.84426 8.99989 0H10.9999C11.0022 2.11495 10.5724 4.20807 9.73689 6.151L8.08789 10L10.6879 16.07C11.6137 16.2316 12.453 16.7141 13.0586 17.4327C13.6642 18.1513 13.9974 19.0602 13.9999 20ZM5.99989 20C5.99989 19.6044 5.88259 19.2178 5.66283 18.8889C5.44307 18.56 5.13071 18.3036 4.76526 18.1522C4.39981 18.0009 3.99767 17.9613 3.60971 18.0384C3.22175 18.1156 2.86538 18.3061 2.58568 18.5858C2.30597 18.8655 2.11549 19.2219 2.03832 19.6098C1.96115 19.9978 2.00076 20.3999 2.15213 20.7654C2.30351 21.1308 2.55985 21.4432 2.88875 21.6629C3.21765 21.8827 3.60433 22 3.99989 22C4.53032 22 5.03903 21.7893 5.4141 21.4142C5.78918 21.0391 5.99989 20.5304 5.99989 20ZM6.99989 17.382C7.43253 16.8834 7.98236 16.5003 8.59989 16.267L6.99989 12.538L5.39989 16.267C6.01742 16.5003 6.56725 16.8834 6.99989 17.382V17.382ZM11.9999 20C11.9999 19.6044 11.8826 19.2178 11.6628 18.8889C11.4431 18.56 11.1307 18.3036 10.7653 18.1522C10.3998 18.0009 9.99767 17.9613 9.60971 18.0384C9.22175 18.1156 8.86538 18.3061 8.58568 18.5858C8.30597 18.8655 8.11549 19.2219 8.03832 19.6098C7.96115 19.9978 8.00076 20.3999 8.15213 20.7654C8.30351 21.1308 8.55985 21.4432 8.88875 21.6629C9.21765 21.8827 9.60433 22 9.99989 22C10.5303 22 11.039 21.7893 11.4141 21.4142C11.7892 21.0391 11.9999 20.5304 11.9999 20Z" fill="#374957"/>
</g>
<defs>
<clipPath id="clip0_406_4013">
<rect width="24" height="24" fill="white"/>
</clipPath>
</defs>
</svg>
