<svg width="24" height="24" viewBox="0 0 24 24" fill="none" xmlns="http://www.w3.org/2000/svg">
<g clip-path="url(#clip0_406_3846)">
<path d="M24 15C24 16.0609 23.5786 17.0783 22.8284 17.8284C22.0783 18.5786 21.0609 19 20 19C18.9391 19 17.9217 18.5786 17.1716 17.8284C16.4214 17.0783 16 16.0609 16 15H18C18 15.3956 18.1173 15.7822 18.3371 16.1111C18.5568 16.44 18.8692 16.6964 19.2346 16.8478C19.6001 16.9991 20.0022 17.0387 20.3902 16.9616C20.7781 16.8844 21.1345 16.6939 21.4142 16.4142C21.6939 16.1345 21.8844 15.7781 21.9616 15.3902C22.0387 15.0022 21.9991 14.6001 21.8478 14.2346C21.6964 13.8692 21.44 13.5568 21.1111 13.3371C20.7822 13.1173 20.3956 13 20 13H10V11H17C17.5933 11 18.1734 10.8241 18.6667 10.4944C19.1601 10.1648 19.5446 9.69623 19.7716 9.14805C19.9987 8.59987 20.0581 7.99667 19.9424 7.41473C19.8266 6.83279 19.5409 6.29824 19.1213 5.87868C18.7018 5.45912 18.1672 5.1734 17.5853 5.05764C17.0033 4.94189 16.4001 5.0013 15.8519 5.22836C15.3038 5.45543 14.8352 5.83994 14.5056 6.33329C14.1759 6.82664 14 7.40666 14 8V9H12V8C11.9983 7.20224 12.1878 6.4157 12.5528 5.70631C12.9177 4.99693 13.4474 4.38539 14.0975 3.92296C14.7476 3.46054 15.499 3.16071 16.2889 3.04862C17.0787 2.93653 17.8839 3.01545 18.637 3.27875C19.39 3.54206 20.069 3.98208 20.6169 4.56191C21.1648 5.14175 21.5657 5.8445 21.786 6.61125C22.0063 7.37799 22.0395 8.18637 21.8829 8.96861C21.7263 9.75085 21.3845 10.4841 20.886 11.107C21.7691 11.3076 22.558 11.8019 23.1236 12.5091C23.6893 13.2162 23.9983 14.0944 24 15ZM8 11H0V13H8V11ZM11 4C11 2.93913 10.5786 1.92172 9.82843 1.17157C9.07828 0.421427 8.06087 0 7 0C5.93913 0 4.92172 0.421427 4.17157 1.17157C3.42143 1.92172 3 2.93913 3 4H5C5 3.60444 5.1173 3.21776 5.33706 2.88886C5.55682 2.55996 5.86918 2.30362 6.23463 2.15224C6.60009 2.00087 7.00222 1.96126 7.39018 2.03843C7.77814 2.1156 8.13451 2.30608 8.41421 2.58579C8.69392 2.86549 8.8844 3.22186 8.96157 3.60982C9.03874 3.99778 8.99913 4.39992 8.84776 4.76537C8.69638 5.13082 8.44004 5.44318 8.11114 5.66294C7.78224 5.8827 7.39556 6 7 6H0V8H7C8.06087 8 9.07828 7.57857 9.82843 6.82843C10.5786 6.07828 11 5.06087 11 4ZM11 16H0V18H11C11.3956 18 11.7822 18.1173 12.1111 18.3371C12.44 18.5568 12.6964 18.8692 12.8478 19.2346C12.9991 19.6001 13.0387 20.0022 12.9616 20.3902C12.8844 20.7781 12.6939 21.1345 12.4142 21.4142C12.1345 21.6939 11.7781 21.8844 11.3902 21.9616C11.0022 22.0387 10.6001 21.9991 10.2346 21.8478C9.86918 21.6964 9.55682 21.44 9.33706 21.1111C9.1173 20.7822 9 20.3956 9 20H7C7 20.7911 7.2346 21.5645 7.67412 22.2223C8.11365 22.8801 8.73836 23.3928 9.46927 23.6955C10.2002 23.9983 11.0044 24.0775 11.7804 23.9231C12.5563 23.7688 13.269 23.3878 13.8284 22.8284C14.3878 22.269 14.7688 21.5563 14.9231 20.7804C15.0775 20.0044 14.9983 19.2002 14.6955 18.4693C14.3928 17.7384 13.8801 17.1136 13.2223 16.6741C12.5645 16.2346 11.7911 16 11 16Z" fill="#374957"/>
</g>
<defs>
<clipPath id="clip0_406_3846">
<rect width="24" height="24" fill="white"/>
</clipPath>
</defs>
</svg>
