<svg width="24" height="24" viewBox="0 0 24 24" fill="none" xmlns="http://www.w3.org/2000/svg">
<g clip-path="url(#clip0_406_3792)">
<path d="M22.973 14.0002C20.8312 13.9744 18.7319 14.5982 16.9516 15.7892C15.1713 16.9802 13.7936 18.6827 13 20.6722V13.9102C14.3965 13.6729 15.6643 12.9497 16.5792 11.8682C17.4941 10.7868 17.9974 9.41673 18 8.00017C18 4.00017 14.108 0.872175 14.085 0.850175C12.8333 3.39321 12.1233 6.16846 12 9.00018H10C10.1201 5.89327 10.8893 2.84591 12.258 0.0541751C11.8177 0.0112624 11.3733 0.0654984 10.9561 0.213057C10.539 0.360615 10.1594 0.597901 9.844 0.908175C7.943 2.84818 6 5.20718 6 8.00017C6.00263 9.41673 6.50587 10.7868 7.4208 11.8682C8.33573 12.9497 9.60346 13.6729 11 13.9102V20.6722C10.2064 18.6827 8.82872 16.9802 7.04843 15.7892C5.26815 14.5982 3.1688 13.9744 1.027 14.0002H0L0.127 15.1242C0.923 22.1452 7.5 24.0002 10.86 24.0002H13.14C16.505 24.0002 23.076 22.1452 23.871 15.1242L24 14.0002H22.973Z" fill="#374957"/>
</g>
<defs>
<clipPath id="clip0_406_3792">
<rect width="24" height="24" fill="white"/>
</clipPath>
</defs>
</svg>
