<svg width="24" height="24" viewBox="0 0 24 24" fill="none" xmlns="http://www.w3.org/2000/svg">
<g clip-path="url(#clip0_406_3745)">
<path d="M12 10C9.27313 10.0552 6.56494 9.53844 4.05 8.483C4.52 0.12 8.807 0 9 0C9.15 0 10.436 0.0999999 12 2.513C13.513 0.128 14.85 0 15 0C15.193 0 19.481 0.12 19.95 8.483C17.4351 9.53852 14.7269 10.0553 12 10V10ZM22.079 9.666C18.9764 11.2991 15.5046 12.103 12 12C8.49534 12.1035 5.02341 11.2995 1.921 9.666C0.654 10.3 0 11.075 0 12C0 15.157 7.543 16 12 16C16.457 16 24 15.157 24 12C24 11.075 23.346 10.3 22.079 9.666ZM16.5 17C15.806 17.0008 15.1279 17.2079 14.5519 17.595C13.9759 17.9821 13.5279 18.5317 13.265 19.174C12.4376 18.942 11.5624 18.942 10.735 19.174C10.4158 18.4 9.82922 17.7664 9.08215 17.3885C8.33508 17.0106 7.47714 16.9135 6.6645 17.1149C5.85187 17.3163 5.13856 17.8028 4.65442 18.4858C4.17028 19.1689 3.9475 20.003 4.02662 20.8365C4.10575 21.67 4.48152 22.4473 5.08554 23.0271C5.68956 23.6068 6.48167 23.9504 7.31768 23.9953C8.1537 24.0402 8.97804 23.7834 9.64065 23.2716C10.3033 22.7599 10.7601 22.0272 10.928 21.207C11.2724 21.0827 11.6341 21.0128 12 21C12.3659 21.0127 12.7276 21.0826 13.072 21.207C13.2057 21.8553 13.5205 22.4524 13.9799 22.929C14.4393 23.4056 15.0244 23.7421 15.6673 23.8996C16.3103 24.057 16.9847 24.0289 17.6123 23.8185C18.2399 23.6081 18.795 23.224 19.2131 22.7109C19.6313 22.1977 19.8953 21.5765 19.9746 20.9193C20.0539 20.2622 19.9453 19.596 19.6612 18.9981C19.3772 18.4002 18.9294 17.8951 18.3698 17.5414C17.8103 17.1878 17.1619 17 16.5 17V17Z" fill="#374957"/>
</g>
<defs>
<clipPath id="clip0_406_3745">
<rect width="24" height="24" fill="white"/>
</clipPath>
</defs>
</svg>
