<svg width="24" height="24" viewBox="0 0 24 24" fill="none" xmlns="http://www.w3.org/2000/svg">
<g clip-path="url(#clip0_406_3982)">
<path d="M22.9998 13C22.9998 12.2044 22.6838 11.4413 22.1212 10.8787C21.5586 10.3161 20.7955 10 19.9998 10H18.9998V8H10.9998V13C10.9998 13.7957 10.6838 14.5587 10.1212 15.1213C9.55856 15.6839 8.7955 16 7.99985 16C7.2042 16 6.44114 15.6839 5.87853 15.1213C5.31592 14.5587 4.99985 13.7957 4.99985 13V8H0.999847V21C0.999847 21.7957 1.31592 22.5587 1.87853 23.1213C2.44114 23.6839 3.2042 24 3.99985 24H15.9998C16.7955 24 17.5586 23.6839 18.1212 23.1213C18.6838 22.5587 18.9998 21.7957 18.9998 21V20H22.9998V13ZM20.9998 18H18.9998V12H19.9998C20.2651 12 20.5194 12.1054 20.707 12.2929C20.8945 12.4804 20.9998 12.7348 20.9998 13V18ZM6.99985 6H1.99985C1.99987 4.97983 2.38969 3.99822 3.08955 3.25598C3.78942 2.51373 4.74644 2.06694 5.76485 2.007C6.18236 1.393 6.74485 0.891432 7.4025 0.546743C8.06015 0.202054 8.79267 0.0248783 9.53515 0.0309108C10.2776 0.0369432 11.0072 0.225997 11.6591 0.581327C12.3111 0.936656 12.8654 1.44729 13.2728 2.068C13.8496 1.96355 14.4421 1.98672 15.0089 2.13588C15.5757 2.28504 16.103 2.55657 16.5535 2.93137C17.0041 3.30617 17.3671 3.77514 17.617 4.3053C17.8669 4.83545 17.9975 5.41392 17.9998 6H8.99985V13C8.99985 13.2652 8.89449 13.5196 8.70695 13.7071C8.51942 13.8946 8.26506 14 7.99985 14C7.73463 14 7.48028 13.8946 7.29274 13.7071C7.1052 13.5196 6.99985 13.2652 6.99985 13V6Z" fill="#374957"/>
</g>
<defs>
<clipPath id="clip0_406_3982">
<rect width="24" height="24" fill="white"/>
</clipPath>
</defs>
</svg>
