<svg width="24" height="24" viewBox="0 0 24 24" fill="none" xmlns="http://www.w3.org/2000/svg">
<g clip-path="url(#clip0_406_3827)">
<path d="M9.00009 5C9.00009 3.343 12.0001 0 12.0001 0C12.0001 0 15.0001 3.343 15.0001 5C15.0001 5.79565 14.684 6.55871 14.1214 7.12132C13.5588 7.68393 12.7957 8 12.0001 8C11.2044 8 10.4414 7.68393 9.87877 7.12132C9.31616 6.55871 9.00009 5.79565 9.00009 5V5ZM16.1851 7.4C16.4955 7.63611 16.8499 7.80805 17.2275 7.90578C17.6051 8.00351 17.9983 8.02508 18.3843 7.96923C18.7704 7.91338 19.1414 7.78123 19.4758 7.58049C19.8102 7.37974 20.1013 7.11442 20.3321 6.8C21.3131 5.474 20.9241 1 20.9241 1C20.9241 1 16.5741 1.874 15.5931 3.2C15.1213 3.83785 14.9189 4.63552 15.0297 5.42114C15.1404 6.20675 15.5553 6.91742 16.1851 7.4V7.4ZM7.81509 7.4C8.44483 6.91742 8.85977 6.20675 8.97051 5.42114C9.08124 4.63552 8.8789 3.83785 8.40709 3.2C7.42609 1.874 3.07609 1 3.07609 1C3.07609 1 2.68709 5.474 3.66809 6.8C3.89888 7.11442 4.18997 7.37974 4.52438 7.58049C4.85878 7.78123 5.22981 7.91338 5.61583 7.96923C6.00184 8.02508 6.39511 8.00351 6.7727 7.90578C7.15029 7.80805 7.50464 7.63611 7.81509 7.4ZM23.6871 10.3C23.4684 9.90631 23.1485 9.57821 22.7605 9.34965C22.3725 9.12109 21.9304 9.00038 21.4801 9H2.52009C2.06847 9.0007 1.6253 9.12251 1.23678 9.35275C0.848248 9.58298 0.528581 9.9132 0.311088 10.309C0.0965828 10.6872 -0.0111404 11.1166 -0.000572636 11.5513C0.00999516 11.986 0.138457 12.4096 0.371088 12.777C2.97109 16.913 10.5651 20.051 11.2571 20C10.8071 19.663 7.00009 16.4 7.00009 13H9.00009C9.00009 14.708 10.8191 16.67 12.0001 17.708C13.1811 16.67 15.0001 14.708 15.0001 13H17.0001C17.0001 16.4 13.1931 19.663 12.7431 20H11.2571C10.3691 20.956 9.00009 22.648 9.00009 24H15.0001C14.8447 22.8811 14.3546 21.8353 13.5941 21H16.0001C16.5305 21 17.0392 21.2107 17.4143 21.5858C17.7894 21.9609 18.0001 22.4696 18.0001 23H20.0001C20.0001 21.9391 19.5787 20.9217 18.8285 20.1716C18.0784 19.4214 17.061 19 16.0001 19H15.1331C17.7821 17.784 21.8991 15.55 23.6331 12.773C23.8648 12.4051 23.9922 11.9812 24.0017 11.5465C24.0112 11.1118 23.9025 10.6827 23.6871 10.305V10.3Z" fill="#374957"/>
</g>
<defs>
<clipPath id="clip0_406_3827">
<rect width="24" height="24" fill="white"/>
</clipPath>
</defs>
</svg>
