<svg width="24" height="24" viewBox="0 0 24 24" fill="none" xmlns="http://www.w3.org/2000/svg">
<path d="M15.993 11.4999C15.993 11.7966 15.905 12.0866 15.7402 12.3333C15.5754 12.58 15.3411 12.7722 15.067 12.8858C14.7929 12.9993 14.4913 13.029 14.2004 12.9711C13.9094 12.9132 13.6421 12.7704 13.4323 12.5606C13.2226 12.3508 13.0797 12.0835 13.0218 11.7926C12.9639 11.5016 12.9936 11.2 13.1072 10.9259C13.2207 10.6518 13.413 10.4176 13.6596 10.2527C13.9063 10.0879 14.1963 9.99994 14.493 9.99994C14.8908 9.99994 15.2724 10.158 15.5537 10.4393C15.835 10.7206 15.993 11.1021 15.993 11.4999V11.4999ZM23.993 11.4999C23.9924 10.8102 23.788 10.136 23.4055 9.56207C23.0229 8.98812 22.4794 8.53998 21.843 8.27394C21.441 5.99024 20.2579 3.9172 18.4961 2.40958C16.7343 0.901951 14.5033 0.0534478 12.1849 0.00926321C9.86656 -0.0349214 7.60487 0.727959 5.7869 2.16736C3.96893 3.60676 2.70769 5.63321 2.219 7.89994L1.5 11.9999C1.5 11.9999 3.106 11.9999 3.278 11.9869C4.97649 11.9358 6.64553 11.5301 8.178 10.7959C8.06018 11.0106 7.99731 11.2511 7.995 11.4959C7.99271 11.7878 8.0756 12.0739 8.23352 12.3194C8.39143 12.5648 8.61752 12.7588 8.88406 12.8777C9.15061 12.9965 9.44603 13.0351 9.73414 12.9885C10.0223 12.942 10.2905 12.8124 10.5061 12.6157C10.7217 12.419 10.8752 12.1636 10.9478 11.8809C11.0204 11.5983 11.009 11.3006 10.9149 11.0243C10.8209 10.748 10.6483 10.5052 10.4182 10.3256C10.1882 10.1459 9.91083 10.0373 9.62 10.0129C9.645 9.99694 9.672 9.98294 9.697 9.96794C12.4609 8.37242 14.6929 5.9974 16.114 3.13994C17.1756 3.77512 18.0747 4.64884 18.74 5.69185C19.4053 6.73486 19.8186 7.91849 19.947 9.14894L20.025 9.89494L20.763 10.0279C21.1077 10.091 21.4194 10.2728 21.6441 10.5416C21.8687 10.8105 21.9922 11.1496 21.993 11.4999H22C22 11.8978 21.842 12.2793 21.5607 12.5606C21.2794 12.8419 20.8978 12.9999 20.5 12.9999C20.4154 12.9976 20.3312 12.9886 20.248 12.9729L19.413 12.8249L19.131 13.6249C18.215 16.2209 15.13 18.9999 12 18.9999C8.974 18.9999 5.977 16.3809 4.959 13.8469C4.31057 13.9453 3.65584 13.9965 3 13.9999H2.88C2.942 14.1809 2.986 14.2999 3 14.3389C3.95053 16.7391 5.72248 18.7236 8 19.9389V23.9999H16V19.9539C18.0641 18.8443 19.7215 17.1064 20.732 14.9919C21.6181 14.9331 22.4487 14.5396 23.0555 13.8912C23.6623 13.2428 23.9999 12.388 24 11.4999H23.993Z" fill="#374957"/>
</svg>
