<svg width="24" height="24" viewBox="0 0 24 24" fill="none" xmlns="http://www.w3.org/2000/svg">
<g clip-path="url(#clip0_406_3652)">
<path d="M12 9C11.4067 9 10.8266 9.17595 10.3333 9.50559C9.83995 9.83524 9.45543 10.3038 9.22837 10.852C9.0013 11.4001 8.94189 12.0033 9.05765 12.5853C9.17341 13.1672 9.45913 13.7018 9.87868 14.1213C10.2982 14.5409 10.8328 14.8266 11.4147 14.9424C11.9967 15.0581 12.5999 14.9987 13.1481 14.7716C13.6962 14.5446 14.1648 14.1601 14.4944 13.6667C14.8241 13.1734 15 12.5933 15 12C15 11.2044 14.6839 10.4413 14.1213 9.87868C13.5587 9.31607 12.7957 9 12 9ZM12 13C11.8022 13 11.6089 12.9414 11.4444 12.8315C11.28 12.7216 11.1518 12.5654 11.0761 12.3827C11.0004 12.2 10.9806 11.9989 11.0192 11.8049C11.0578 11.6109 11.153 11.4327 11.2929 11.2929C11.4328 11.153 11.6109 11.0578 11.8049 11.0192C11.9989 10.9806 12.2 11.0004 12.3827 11.0761C12.5654 11.1518 12.7216 11.28 12.8315 11.4444C12.9414 11.6089 13 11.8022 13 12C13 12.2652 12.8946 12.5196 12.7071 12.7071C12.5196 12.8946 12.2652 13 12 13ZM12 0C9.62663 0 7.30655 0.703788 5.33316 2.02236C3.35977 3.34094 1.8217 5.21509 0.913451 7.4078C0.00519943 9.60051 -0.232441 12.0133 0.230582 14.3411C0.693605 16.6689 1.83649 18.8071 3.51472 20.4853C5.19295 22.1635 7.33115 23.3064 9.65892 23.7694C11.9867 24.2324 14.3995 23.9948 16.5922 23.0866C18.7849 22.1783 20.6591 20.6402 21.9776 18.6668C23.2962 16.6935 24 14.3734 24 12C23.9966 8.81846 22.7312 5.76821 20.4815 3.51852C18.2318 1.26883 15.1815 0.00344108 12 0V0ZM12 17C11.0111 17 10.0444 16.7068 9.22215 16.1574C8.39991 15.6079 7.75905 14.827 7.38061 13.9134C7.00217 12.9998 6.90315 11.9945 7.09608 11.0245C7.289 10.0546 7.76521 9.16373 8.46447 8.46447C9.16373 7.7652 10.0546 7.289 11.0246 7.09607C11.9945 6.90315 12.9998 7.00217 13.9134 7.3806C14.8271 7.75904 15.6079 8.3999 16.1574 9.22215C16.7068 10.0444 17 11.0111 17 12C16.9984 13.3256 16.4711 14.5964 15.5338 15.5338C14.5964 16.4711 13.3256 16.9984 12 17V17Z" fill="#374957"/>
</g>
<defs>
<clipPath id="clip0_406_3652">
<rect width="24" height="24" fill="white"/>
</clipPath>
</defs>
</svg>
