<svg width="24" height="24" viewBox="0 0 24 24" fill="none" xmlns="http://www.w3.org/2000/svg">
<path d="M20.9999 12.4176V10.9996C20.9999 8.61269 20.0517 6.3235 18.3639 4.63567C16.676 2.94785 14.3869 1.99963 11.9999 1.99963C9.61296 1.99963 7.32378 2.94785 5.63595 4.63567C3.94812 6.3235 2.99991 8.61269 2.99991 10.9996V12.4176C1.94746 12.8773 1.08533 13.6853 0.558453 14.7058C0.0315715 15.7263 -0.127948 16.897 0.106708 18.0212C0.341364 19.1455 0.955889 20.1547 1.84699 20.8792C2.73809 21.6037 3.85144 21.9993 4.99991 21.9996H6.99991V11.9996H4.99991V10.9996C4.99991 9.14312 5.73741 7.36264 7.05016 6.04989C8.36292 4.73713 10.1434 3.99963 11.9999 3.99963C13.8564 3.99963 15.6369 4.73713 16.9497 6.04989C18.2624 7.36264 18.9999 9.14312 18.9999 10.9996V11.9996H16.9999V19.9996H12.9999V21.9996H18.9999C20.1484 21.9993 21.2617 21.6037 22.1528 20.8792C23.0439 20.1547 23.6585 19.1455 23.8931 18.0212C24.1278 16.897 23.9682 15.7263 23.4414 14.7058C22.9145 13.6853 22.0524 12.8773 20.9999 12.4176Z" fill="#374957"/>
</svg>
