<svg width="24" height="24" viewBox="0 0 24 24" fill="none" xmlns="http://www.w3.org/2000/svg">
<g clip-path="url(#clip0_406_3964)">
<path d="M19.7899 12.08C19.0199 9.21198 17.8669 6.06698 17.2899 4.54598C17.7802 4.3473 18.281 4.17538 18.7899 4.03098C18.9289 3.99494 19.0743 3.99153 19.2148 4.02103C19.3554 4.05052 19.4872 4.11211 19.5999 4.20098C19.7245 4.29579 19.8255 4.41817 19.8949 4.55853C19.9643 4.69889 20.0002 4.85341 19.9999 5.00998H21.9999C22.0014 4.54669 21.8955 4.08936 21.6906 3.67384C21.4857 3.25831 21.1873 2.89589 20.8189 2.61498C20.4636 2.33855 20.0491 2.14819 19.6079 2.05883C19.1667 1.96948 18.7108 1.98357 18.2759 2.09998C17.359 2.36872 16.4613 2.69914 15.5889 3.08898L14.7159 3.48198L15.0709 4.37298C15.0809 4.39698 15.5769 5.63998 16.1919 7.36298L12.0199 10.606L8.41391 6.99998H9.99991V4.99998H3.99991V6.99998H5.58591L10.4289 11.844L8.44091 13.39C7.54752 12.5493 6.37399 12.07 5.1475 12.0448C3.92101 12.0197 2.72881 12.4505 1.80171 13.2538C0.874607 14.0572 0.278544 15.176 0.128919 16.3935C-0.0207062 17.6111 0.286749 18.8409 0.991761 19.8449C1.69677 20.8488 2.7492 21.5554 3.94528 21.828C5.14137 22.1005 6.39604 21.9196 7.46639 21.3202C8.53675 20.7209 9.34665 19.7457 9.73931 18.5835C10.132 17.4213 10.0794 16.1547 9.59191 15.029L16.8799 9.36098C17.1799 10.279 17.4799 11.242 17.7459 12.179C16.5489 12.491 15.51 13.2357 14.8301 14.2691C14.1501 15.3025 13.8774 16.5513 14.0647 17.7741C14.2519 18.9969 14.8858 20.1068 15.8438 20.8895C16.8017 21.6721 18.0158 22.0718 19.2514 22.0113C20.487 21.9509 21.6562 21.4346 22.5333 20.5622C23.4103 19.6898 23.9328 18.5232 23.9997 17.288C24.0667 16.0528 23.6734 14.8366 22.8959 13.8745C22.1183 12.9124 21.0117 12.2727 19.7899 12.079V12.08Z" fill="#374957"/>
</g>
<defs>
<clipPath id="clip0_406_3964">
<rect width="24" height="24" fill="white"/>
</clipPath>
</defs>
</svg>
