<svg width="24" height="24" viewBox="0 0 24 24" fill="none" xmlns="http://www.w3.org/2000/svg">
<g clip-path="url(#clip0_406_3906)">
<path d="M18.9998 16.9992C17.9464 16.9988 16.9116 16.7208 15.9998 16.1932C15.088 16.7208 14.0533 16.9988 12.9998 16.9992H10.9998C9.94494 16.9979 8.90943 16.7155 7.99985 16.1812C7.0903 16.7156 6.05477 16.998 4.99985 16.9992H3.99985C2.94547 16.9989 1.91013 16.7183 0.999847 16.1862V20.9992C0.999847 21.7948 1.31592 22.5579 1.87853 23.1205C2.44114 23.6831 3.2042 23.9992 3.99985 23.9992H19.9998C20.7955 23.9992 21.5586 23.6831 22.1212 23.1205C22.6838 22.5579 22.9998 21.7948 22.9998 20.9992V16.1872C22.0893 16.7185 21.0541 16.9987 19.9998 16.9992H18.9998Z" fill="#374957"/>
<path d="M17 0V6H15V0H9V6H7V0H2.2L0.024 9.783L0 11C0 12.0609 0.421427 13.0783 1.17157 13.8284C1.92172 14.5786 2.93913 15 4 15H5C5.56989 14.9982 6.13273 14.8738 6.65034 14.6354C7.16795 14.3969 7.62824 14.0499 8 13.618C8.37176 14.0499 8.83205 14.3969 9.34966 14.6354C9.86727 14.8738 10.4301 14.9982 11 15H13C13.5678 15.0003 14.1292 14.8794 14.6465 14.6454C15.1639 14.4114 15.6253 14.0696 16 13.643C16.3747 14.0696 16.8361 14.4114 17.3535 14.6454C17.8708 14.8794 18.4322 15.0003 19 15H20C21.0609 15 22.0783 14.5786 22.8284 13.8284C23.5786 13.0783 24 12.0609 24 11V10L21.8 0H17Z" fill="#374957"/>
</g>
<defs>
<clipPath id="clip0_406_3906">
<rect width="24" height="24" fill="white"/>
</clipPath>
</defs>
</svg>
