<svg width="24" height="24" viewBox="0 0 24 24" fill="none" xmlns="http://www.w3.org/2000/svg">
<g clip-path="url(#clip0_406_3593)">
<path d="M17.9998 -0.000668965C16.6707 -0.000288026 15.3499 0.207201 14.0848 0.614331C13.4132 0.847231 12.7102 0.977037 11.9998 0.999331C11.2893 0.977037 10.5863 0.847231 9.91476 0.614331C8.6496 0.207329 7.32877 -0.000157791 5.99976 -0.000668965C5.20373 -0.0308466 4.41004 0.103705 3.66843 0.394554C2.92682 0.685403 2.25328 1.12628 1.68999 1.68957C1.12671 2.25285 0.685831 2.9264 0.394981 3.66801C0.104132 4.40961 -0.0304194 5.2033 -0.000241719 5.99933C-0.000241719 13.0603 4.02876 19.9993 6.43276 23.9993H9.99976V15.1063C9.98896 14.6195 10.1497 14.1443 10.4539 13.7641C10.7582 13.3838 11.1864 13.1227 11.6638 13.0263C11.9508 12.9774 12.2451 12.9918 12.526 13.0684C12.807 13.145 13.0678 13.2821 13.2903 13.47C13.5127 13.6579 13.6915 13.8921 13.814 14.1562C13.9366 14.4204 14 14.7081 13.9998 14.9993V23.9993H17.5668C19.9718 19.9993 23.9998 13.0593 23.9998 5.99933C24.0299 5.2033 23.8954 4.40961 23.6045 3.66801C23.3137 2.9264 22.8728 2.25285 22.3095 1.68957C21.7462 1.12628 21.0727 0.685403 20.3311 0.394554C19.5895 0.103705 18.7958 -0.0308466 17.9998 -0.000668965V-0.000668965Z" fill="#374957"/>
</g>
<defs>
<clipPath id="clip0_406_3593">
<rect width="24" height="24" fill="white"/>
</clipPath>
</defs>
</svg>
