<svg width="24" height="24" viewBox="0 0 24 24" fill="none" xmlns="http://www.w3.org/2000/svg">
<g clip-path="url(#clip0_406_3655)">
<path d="M12.9999 11.0002C12.9999 11.3958 12.8826 11.7825 12.6629 12.1114C12.4431 12.4403 12.1307 12.6966 11.7653 12.848C11.3998 12.9994 10.9977 13.039 10.6097 12.9618C10.2218 12.8846 9.86541 12.6941 9.58571 12.4144C9.306 12.1347 9.11552 11.7784 9.03835 11.3904C8.96118 11.0024 9.00079 10.6003 9.15216 10.2349C9.30354 9.8694 9.55988 9.55704 9.88878 9.33728C10.2177 9.11752 10.6044 9.00022 10.9999 9.00022C11.5304 9.00022 12.0391 9.21093 12.4141 9.586C12.7892 9.96108 12.9999 10.4698 12.9999 11.0002ZM23.9999 12.7882V15.0002H21.6699L21.2209 18.3942C21.1238 19.1146 20.769 19.7755 20.2223 20.2546C19.6756 20.7336 18.9738 20.9985 18.2469 21.0002H15.9999V24.0002H2.99993V19.2912C2.99968 18.8301 2.83799 18.3836 2.54293 18.0292C1.2913 16.5238 0.464117 14.7117 0.146766 12.7798C-0.170584 10.8479 0.0333987 8.86638 0.737659 7.03968C1.44192 5.21298 2.62094 3.60734 4.153 2.3885C5.68507 1.16966 7.51466 0.381789 9.45292 0.106217C11.4065 -0.179372 13.401 0.0710174 15.2234 0.830647C17.0457 1.59028 18.6276 2.83062 19.7999 4.41922C21.2113 6.51608 22.3763 8.76861 23.2719 11.1322C23.4859 11.6222 23.9999 12.7882 23.9999 12.7882ZM14.8389 9.93922L16.6999 8.86622L15.6999 7.13422L13.8499 8.20022C13.3403 7.68674 12.7009 7.32109 11.9999 7.14222V5.00022H9.99992V7.14222C9.29893 7.32109 8.65957 7.68674 8.14992 8.20022L6.29993 7.13422L5.29993 8.86622L7.16093 9.93922C7.05934 10.2839 7.00518 10.6409 6.99993 11.0002C7.00518 11.3596 7.05934 11.7165 7.16093 12.0612L5.29993 13.1342L6.29993 14.8662L8.14992 13.8002C8.65957 14.3137 9.29893 14.6793 9.99992 14.8582V17.0002H11.9999V14.8582C12.7009 14.6793 13.3403 14.3137 13.8499 13.8002L15.6999 14.8662L16.6999 13.1342L14.8429 12.0612C14.9431 11.7163 14.996 11.3594 14.9999 11.0002C14.9947 10.6409 14.9405 10.2839 14.8389 9.93922V9.93922Z" fill="#374957"/>
</g>
<defs>
<clipPath id="clip0_406_3655">
<rect width="24" height="24" fill="white"/>
</clipPath>
</defs>
</svg>
