<svg width="24" height="24" viewBox="0 0 24 24" fill="none" xmlns="http://www.w3.org/2000/svg">
<path d="M17.792 7.21208C17.3476 5.30137 16.2167 3.62053 14.6142 2.48907C13.0116 1.35761 11.0492 0.854401 9.09996 1.0751C7.1507 1.2958 5.35048 2.22502 4.04148 3.68613C2.73248 5.14724 2.00596 7.03838 2.00002 9.00008C1.99856 10.2785 2.3074 11.5383 2.90002 12.6711C1.82115 13.2492 0.966422 14.1713 0.471641 15.2909C-0.0231397 16.4104 -0.129593 17.6632 0.169193 18.8502C0.46798 20.0372 1.15487 21.0903 2.12073 21.8422C3.08658 22.5941 4.27601 23.0016 5.50002 23.0001H14V15.4141L11.707 17.7071L10.293 16.2931L13.586 13.0001C13.9611 12.6251 14.4697 12.4145 15 12.4145C15.5304 12.4145 16.039 12.6251 16.414 13.0001L19.707 16.2931L18.293 17.7071L16 15.4141V23.0001C17.9591 22.991 19.8468 22.2633 21.3051 20.9551C22.7634 19.6469 23.6909 17.849 23.9119 15.9024C24.1328 13.9558 23.6318 11.9958 22.5038 10.394C21.3758 8.79221 19.6992 7.66002 17.792 7.21208V7.21208Z" fill="#374957"/>
</svg>
