<svg width="24" height="24" viewBox="0 0 24 24" fill="none" xmlns="http://www.w3.org/2000/svg">
<g clip-path="url(#clip0_406_3928)">
<path d="M13.4799 16.9809C10.5683 15.7476 8.25294 13.4266 7.02693 10.5119L11.1509 6.38687L4.88693 0.121873L1.71693 3.29187C1.16616 3.8445 0.730742 4.5011 0.43598 5.2235C0.141218 5.9459 -0.00700483 6.71968 -7.27975e-05 7.49987C-7.27975e-05 14.7479 9.25193 23.9999 16.4999 23.9999C17.2798 24.0066 18.0532 23.8585 18.7753 23.5641C19.4975 23.2697 20.1541 22.8349 20.7069 22.2849L23.8779 19.1129L17.6129 12.8479L13.4799 16.9809ZM10.1519 2.55887C10.8827 1.77194 11.7646 1.14043 12.7449 0.702093C13.7253 0.263755 14.7839 0.0275894 15.8576 0.00771576C16.9313 -0.0121579 17.998 0.184668 18.9939 0.586427C19.9898 0.988186 20.8945 1.58663 21.6538 2.34598C22.4132 3.10533 23.0116 4.01 23.4134 5.00589C23.8151 6.00179 24.012 7.06848 23.9921 8.14218C23.9722 9.21588 23.736 10.2745 23.2977 11.2549C22.8594 12.2352 22.2279 13.1171 21.4409 13.8479L20.0279 12.4339C20.6299 11.889 21.1149 11.2275 21.4533 10.4895C21.7918 9.75155 21.9768 8.95245 21.9969 8.14078C22.0171 7.32911 21.8721 6.52181 21.5707 5.76791C21.2692 5.01401 20.8177 4.32924 20.2436 3.7552C19.6694 3.18115 18.9845 2.7298 18.2305 2.42857C17.4766 2.12734 16.6692 1.9825 15.8576 2.00286C15.0459 2.02322 14.2468 2.20834 13.5089 2.547C12.771 2.88565 12.1096 3.37076 11.5649 3.97287L10.1519 2.55887ZM14.9999 8.49987V4.99987H16.9999V7.75787L18.5609 9.31787L17.1889 10.6889L14.9999 8.49987Z" fill="#374957"/>
</g>
<defs>
<clipPath id="clip0_406_3928">
<rect width="24" height="24" fill="white"/>
</clipPath>
</defs>
</svg>
