<svg width="24" height="24" viewBox="0 0 24 24" fill="none" xmlns="http://www.w3.org/2000/svg">
<g clip-path="url(#clip0_406_3817)">
<path d="M18.9998 23.4144L23.4138 19.0004H18.9998V23.4144Z" fill="#374957"/>
<path d="M23.419 1.56794C23.2321 1.38088 23.009 1.23392 22.7633 1.13606C22.5176 1.0382 22.2546 0.991487 21.9902 0.998788C21.7259 1.00609 21.4658 1.06725 21.2259 1.17852C20.986 1.2898 20.7713 1.44885 20.595 1.64594L11.835 11.3459C12.8628 11.7543 13.7273 12.4899 14.295 13.4389L23.419 4.31494C23.7832 3.95059 23.9877 3.45656 23.9877 2.94144C23.9877 2.42632 23.7832 1.93229 23.419 1.56794V1.56794Z" fill="#374957"/>
<path d="M14.982 15.583C14.994 15.721 15 15.86 15 16C14.9984 17.3256 14.4711 18.5964 13.5338 19.5338C12.5964 20.4711 11.3256 20.9984 10 21H5C4.7095 21 4.42247 20.9368 4.15889 20.8146C3.89531 20.6925 3.6615 20.5144 3.47373 20.2928C3.28595 20.0711 3.14872 19.8112 3.07157 19.5311C2.99442 19.2511 2.97921 18.9575 3.027 18.671C3.481 15.945 5.335 11.414 9.427 11.027L19.105 0.313C19.2035 0.202996 19.308 0.0985042 19.418 0L3 0C2.20435 0 1.44129 0.31607 0.87868 0.87868C0.31607 1.44129 0 2.20435 0 3L0 24H17V17H24V6.565L14.982 15.583Z" fill="#374957"/>
<path d="M5.00015 19.0004C5.00015 19.0004 6.00015 13.0004 10.0001 13.0004C10.7958 13.0004 11.5589 13.3164 12.1215 13.879C12.6841 14.4417 13.0001 15.2047 13.0001 16.0004C13.0001 16.796 12.6841 17.5591 12.1215 18.1217C11.5589 18.6843 10.7958 19.0004 10.0001 19.0004H5.00015Z" fill="#374957"/>
</g>
<defs>
<clipPath id="clip0_406_3817">
<rect width="24" height="24" fill="white"/>
</clipPath>
</defs>
</svg>
