<svg width="24" height="24" viewBox="0 0 24 24" fill="none" xmlns="http://www.w3.org/2000/svg">
<g clip-path="url(#clip0_406_3645)">
<path d="M21 0H3C2.20435 0 1.44129 0.31607 0.87868 0.87868C0.31607 1.44129 0 2.20435 0 3L0 24H24V3C24 2.20435 23.6839 1.44129 23.1213 0.87868C22.5587 0.31607 21.7956 0 21 0V0ZM10.748 17.333C10.5623 17.5188 10.3418 17.6662 10.0991 17.7668C9.85635 17.8673 9.59621 17.9191 9.3335 17.9191C9.07079 17.9191 8.81065 17.8673 8.56795 17.7668C8.32524 17.6662 8.10473 17.5188 7.919 17.333L3.293 12.707L4.707 11.293L9.333 15.919L19.293 5.96L20.707 7.374L10.748 17.333Z" fill="#374957"/>
</g>
<defs>
<clipPath id="clip0_406_3645">
<rect width="24" height="24" fill="white"/>
</clipPath>
</defs>
</svg>
