<svg width="24" height="24" viewBox="0 0 24 24" fill="none" xmlns="http://www.w3.org/2000/svg">
<g clip-path="url(#clip0_406_3802)">
<path d="M19.9999 0.0579834C18.9391 0.0579834 17.9217 0.479411 17.1715 1.22956C16.4214 1.9797 15.9999 2.99712 15.9999 4.05798H17.9999C17.9999 3.52755 18.2107 3.01884 18.5857 2.64377C18.9608 2.2687 19.4695 2.05798 19.9999 2.05798H21.9999V15.083C21.1392 14.4219 20.0852 14.0618 18.9999 14.058C17.8477 14.0593 16.7311 14.4578 15.8385 15.1865C14.9459 15.9151 14.3319 16.9293 14.0999 18.058H9.89994C9.66802 16.9293 9.05398 15.9151 8.16138 15.1865C7.26877 14.4578 6.1522 14.0593 4.99994 14.058C3.91466 14.0618 2.86067 14.4219 1.99994 15.083V2.05798H3.99994C4.53037 2.05798 5.03908 2.2687 5.41416 2.64377C5.78923 3.01884 5.99994 3.52755 5.99994 4.05798H7.99994C7.99994 2.99712 7.57851 1.9797 6.82837 1.22956C6.07822 0.479411 5.06081 0.0579834 3.99994 0.0579834H-5.85073e-05V19.058C-0.00130466 20.2979 0.458222 21.4941 1.28931 22.4143C2.12041 23.3345 3.26377 23.9131 4.49745 24.0377C5.73112 24.1623 6.96709 23.8241 7.96541 23.0887C8.96374 22.3533 9.6532 21.2731 9.89994 20.058H14.0999C14.3467 21.2731 15.0361 22.3533 16.0345 23.0887C17.0328 23.8241 18.2688 24.1623 19.5024 24.0377C20.7361 23.9131 21.8795 23.3345 22.7106 22.4143C23.5417 21.4941 24.0012 20.2979 23.9999 19.058V0.0579834H19.9999Z" fill="#374957"/>
</g>
<defs>
<clipPath id="clip0_406_3802">
<rect width="24" height="24" fill="white"/>
</clipPath>
</defs>
</svg>
