<svg width="24" height="24" viewBox="0 0 24 24" fill="none" xmlns="http://www.w3.org/2000/svg">
<g clip-path="url(#clip0_406_3589)">
<path d="M24 24H18V22H22V18H24V24ZM24 3C24 2.20435 23.6839 1.44129 23.1213 0.87868C22.5587 0.31607 21.7956 0 21 0L18 0V2H21C21.2652 2 21.5196 2.10536 21.7071 2.29289C21.8946 2.48043 22 2.73478 22 3V6H24V3ZM6 22H2V18H0V24H6V22ZM2 3C2 2.73478 2.10536 2.48043 2.29289 2.29289C2.48043 2.10536 2.73478 2 3 2H6V0H3C2.20435 0 1.44129 0.31607 0.87868 0.87868C0.31607 1.44129 0 2.20435 0 3L0 6H2V3ZM16 12C16 11.2089 15.7654 10.4355 15.3259 9.77772C14.8864 9.11992 14.2616 8.60723 13.5307 8.30448C12.7998 8.00173 11.9956 7.92252 11.2196 8.07686C10.4437 8.2312 9.73098 8.61216 9.17157 9.17157C8.61216 9.73098 8.2312 10.4437 8.07686 11.2196C7.92252 11.9956 8.00173 12.7998 8.30448 13.5307C8.60723 14.2616 9.11992 14.8864 9.77772 15.3259C10.4355 15.7654 11.2089 16 12 16C13.0609 16 14.0783 15.5786 14.8284 14.8284C15.5786 14.0783 16 13.0609 16 12Z" fill="#374957"/>
</g>
<defs>
<clipPath id="clip0_406_3589">
<rect width="24" height="24" fill="white"/>
</clipPath>
</defs>
</svg>
