<svg width="24" height="24" viewBox="0 0 24 24" fill="none" xmlns="http://www.w3.org/2000/svg">
<g clip-path="url(#clip0_406_3577)">
<path d="M9 12C12.3137 12 15 9.31371 15 6C15 2.68629 12.3137 0 9 0C5.68629 0 3 2.68629 3 6C3 9.31371 5.68629 12 9 12Z" fill="#374957"/>
<path d="M13.043 14.0006H4.957C3.64281 14.0022 2.3829 14.525 1.45363 15.4542C0.524352 16.3835 0.00158783 17.6434 0 18.9576L0 24.0006H18V18.9576C17.9984 17.6434 17.4756 16.3835 16.5464 15.4542C15.6171 14.525 14.3572 14.0022 13.043 14.0006V14.0006Z" fill="#374957"/>
<path d="M20.9999 9.99938V6.99939H18.9999V9.99938H15.9999V11.9994H18.9999V14.9994H20.9999V11.9994H23.9999V9.99938H20.9999Z" fill="#374957"/>
</g>
<defs>
<clipPath id="clip0_406_3577">
<rect width="24" height="24" fill="white"/>
</clipPath>
</defs>
</svg>
