<svg width="24" height="24" viewBox="0 0 24 24" fill="none" xmlns="http://www.w3.org/2000/svg">
<g clip-path="url(#clip0_406_3692)">
<path d="M23.305 16.2499C23.1926 16.5458 23.0075 16.8087 22.7669 17.0143C22.5263 17.22 22.2378 17.3619 21.928 17.4269C21.6131 17.4963 21.2858 17.4849 20.9766 17.3938C20.6673 17.3027 20.386 17.1349 20.159 16.9059L20.059 16.8059C19.5583 16.3052 18.9199 15.9649 18.2251 15.8283C17.5304 15.6917 16.8106 15.7649 16.1576 16.0387C15.5046 16.3125 14.9479 16.7745 14.5583 17.3657C14.1687 17.957 13.9639 18.6509 13.97 19.3589L14.01 23.8749L13.086 23.9519C12.755 23.9799 12.423 24.0019 12.086 24.0019C9.6946 24.0027 7.35748 23.289 5.37452 21.9523C3.39156 20.6155 1.85322 18.7168 0.956867 16.4998C0.0605123 14.2827 -0.152968 11.8483 0.343816 9.50909C0.8406 7.16983 2.02499 5.03236 3.74502 3.37091C4.89983 2.24563 6.27153 1.36709 7.77665 0.78877C9.28177 0.210447 10.8888 -0.0555689 12.5 0.00691313C15.5448 0.149026 18.425 1.4299 20.5698 3.59564C22.7146 5.76139 23.9675 8.65393 24.08 11.6999C24.1205 13.2526 23.8572 14.7982 23.305 16.2499V16.2499ZM17.115 8.04991C16.8283 8.12609 16.5706 8.28556 16.3746 8.50818C16.1785 8.73079 16.0528 9.00655 16.0135 9.30057C15.9741 9.5946 16.0228 9.8937 16.1534 10.16C16.284 10.4264 16.4907 10.648 16.7472 10.797C17.0038 10.9459 17.2988 11.0153 17.5948 10.9966C17.8909 10.9779 18.1748 10.8718 18.4105 10.6918C18.6463 10.5118 18.8234 10.2659 18.9194 9.98517C19.0155 9.70449 19.0261 9.40164 18.95 9.11491C18.8995 8.92448 18.8119 8.74587 18.6924 8.58928C18.5728 8.43269 18.4235 8.30119 18.2531 8.20229C18.0827 8.10339 17.8945 8.03903 17.6992 8.01288C17.504 7.98674 17.3054 7.99932 17.115 8.04991ZM12.115 5.04991C11.8283 5.12609 11.5706 5.28556 11.3746 5.50818C11.1785 5.73079 11.0528 6.00654 11.0135 6.30057C10.9741 6.5946 11.0228 6.8937 11.1534 7.16005C11.284 7.4264 11.4907 7.64804 11.7472 7.79695C12.0038 7.94586 12.2988 8.01535 12.5948 7.99663C12.8909 7.97791 13.1748 7.87183 13.4105 7.69179C13.6463 7.51176 13.8234 7.26585 13.9194 6.98517C14.0155 6.70449 14.0261 6.40164 13.95 6.11491C13.8995 5.92448 13.8119 5.74587 13.6924 5.58928C13.5728 5.43269 13.4235 5.30119 13.2531 5.20229C13.0827 5.10339 12.8945 5.03903 12.6992 5.01288C12.504 4.98674 12.3054 4.99932 12.115 5.04991V5.04991ZM7.11502 8.04991C6.82832 8.12609 6.57064 8.28556 6.37456 8.50818C6.17849 8.73079 6.05282 9.00655 6.01346 9.30057C5.97409 9.5946 6.02279 9.8937 6.15341 10.16C6.28402 10.4264 6.49067 10.648 6.74724 10.797C7.00382 10.9459 7.29878 11.0153 7.59484 10.9966C7.8909 10.9779 8.17476 10.8718 8.41053 10.6918C8.64631 10.5118 8.8234 10.2659 8.91943 9.98517C9.01546 9.70449 9.0261 9.40164 8.95002 9.11491C8.89949 8.92448 8.81194 8.74587 8.69236 8.58928C8.57279 8.43269 8.42354 8.30119 8.25314 8.20229C8.08274 8.10339 7.89452 8.03903 7.69924 8.01288C7.50396 7.98674 7.30544 7.99932 7.11502 8.04991V8.04991ZM7.11502 14.0499C6.82832 14.1261 6.57064 14.2856 6.37456 14.5082C6.17849 14.7308 6.05282 15.0065 6.01346 15.3006C5.97409 15.5946 6.02279 15.8937 6.15341 16.16C6.28402 16.4264 6.49067 16.648 6.74724 16.797C7.00382 16.9459 7.29878 17.0153 7.59484 16.9966C7.8909 16.9779 8.17476 16.8718 8.41053 16.6918C8.64631 16.5118 8.8234 16.2659 8.91943 15.9852C9.01546 15.7045 9.0261 15.4016 8.95002 15.1149C8.89949 14.9245 8.81194 14.7459 8.69236 14.5893C8.57279 14.4327 8.42354 14.3012 8.25314 14.2023C8.08274 14.1034 7.89452 14.039 7.69924 14.0129C7.50396 13.9867 7.30544 13.9993 7.11502 14.0499V14.0499Z" fill="#374957"/>
</g>
<defs>
<clipPath id="clip0_406_3692">
<rect width="24" height="24" fill="white"/>
</clipPath>
</defs>
</svg>
