<svg width="24" height="24" viewBox="0 0 24 24" fill="none" xmlns="http://www.w3.org/2000/svg">
<g clip-path="url(#clip0_406_4049)">
<path d="M23.8208 11.181C22.9428 9.261 19.4998 3 11.9998 3C4.49981 3 1.05681 9.261 0.17881 11.181C0.0609485 11.4383 -6.10352e-05 11.718 -6.10352e-05 12.001C-6.10352e-05 12.284 0.0609485 12.5637 0.17881 12.821C1.05681 14.739 4.49981 21 11.9998 21C19.4998 21 22.9428 14.739 23.8208 12.819C23.9384 12.562 23.9993 12.2827 23.9993 12C23.9993 11.7173 23.9384 11.438 23.8208 11.181V11.181ZM11.9998 18C10.8131 18 9.65308 17.6481 8.66639 16.9888C7.67969 16.3295 6.91066 15.3925 6.45653 14.2961C6.00241 13.1997 5.88359 11.9933 6.1151 10.8295C6.34661 9.66557 6.91806 8.59647 7.75717 7.75736C8.59629 6.91824 9.66538 6.3468 10.8293 6.11529C11.9932 5.88378 13.1996 6.0026 14.2959 6.45672C15.3923 6.91085 16.3293 7.67988 16.9886 8.66658C17.6479 9.65327 17.9998 10.8133 17.9998 12C17.9982 13.5908 17.3656 15.116 16.2407 16.2409C15.1158 17.3658 13.5906 17.9984 11.9998 18V18Z" fill="#374957"/>
<path d="M12.0001 15.9996C14.2092 15.9996 16.0001 14.2088 16.0001 11.9996C16.0001 9.79049 14.2092 7.99963 12.0001 7.99963C9.79098 7.99963 8.00012 9.79049 8.00012 11.9996C8.00012 14.2088 9.79098 15.9996 12.0001 15.9996Z" fill="#374957"/>
</g>
<defs>
<clipPath id="clip0_406_4049">
<rect width="24" height="24" fill="white"/>
</clipPath>
</defs>
</svg>
