<svg width="24" height="24" viewBox="0 0 24 24" fill="none" xmlns="http://www.w3.org/2000/svg">
<g clip-path="url(#clip0_406_3934)">
<path d="M20 8C18.9391 8 17.9217 7.57857 17.1716 6.82843C16.4214 6.07828 16 5.06087 16 4C16 2.93913 16.4214 1.92172 17.1716 1.17157C17.9217 0.421427 18.9391 0 20 0C21.0609 0 22.0783 0.421427 22.8284 1.17157C23.5786 1.92172 24 2.93913 24 4C24 5.06087 23.5786 6.07828 22.8284 6.82843C22.0783 7.57857 21.0609 8 20 8ZM11 24V22.781L15.277 13.438C15.477 13.0178 15.792 12.663 16.1854 12.4145C16.5789 12.166 17.0347 12.0342 17.5 12.0342C17.9653 12.0342 18.4211 12.166 18.8146 12.4145C19.208 12.663 19.523 13.0178 19.723 13.438L24 22.737V23.956L11 24ZM12.248 6.541C12.0321 6.08594 11.6915 5.70147 11.2658 5.43226C10.84 5.16305 10.3467 5.02015 9.843 5.02015C9.33931 5.02015 8.84595 5.16305 8.42024 5.43226C7.99452 5.70147 7.65392 6.08594 7.438 6.541L0 22.781V24H9V22L13.46 12.6C13.6939 12.0969 14.0191 11.6415 14.419 11.257L12.248 6.541Z" fill="#374957"/>
</g>
<defs>
<clipPath id="clip0_406_3934">
<rect width="24" height="24" fill="white"/>
</clipPath>
</defs>
</svg>
