<svg width="24" height="24" viewBox="0 0 24 24" fill="none" xmlns="http://www.w3.org/2000/svg">
<g clip-path="url(#clip0_406_3844)">
<path d="M10 23.9993H0V21.9993H10V23.9993ZM8 17.9993H0V19.9993H8V17.9993ZM6 13.9993H0V15.9993H6V13.9993ZM23.991 11.5253C24.053 13.1394 23.7888 14.7494 23.2143 16.2591C22.6398 17.7687 21.7667 19.147 20.6473 20.3115C19.5279 21.476 18.1852 22.4028 16.6994 23.0364C15.2136 23.6701 13.6153 23.9976 12 23.9993V21.9993C12 21.4689 11.7893 20.9602 11.4142 20.5851C11.0391 20.2101 10.5304 19.9993 10 19.9993V17.9993C10 17.4689 9.78929 16.9602 9.41421 16.5851C9.03914 16.2101 8.53043 15.9993 8 15.9993V13.9993C8 13.4689 7.78929 12.9602 7.41421 12.5851C7.03914 12.2101 6.53043 11.9993 6 11.9993H0C0.00190274 10.384 0.329529 8.78569 0.963289 7.29989C1.59705 5.81409 2.52393 4.47135 3.6885 3.35197C4.85307 2.23258 6.23141 1.35953 7.74112 0.785033C9.25082 0.210533 10.8609 -0.0536234 12.475 0.00836049C15.4826 0.153511 18.3283 1.41353 20.4573 3.54275C22.5863 5.67198 23.8461 8.51779 23.991 11.5253ZM11 5.79235V11.2063L14.293 14.4993L15.707 13.0853L13 10.3783V5.79235H11Z" fill="#374957"/>
</g>
<defs>
<clipPath id="clip0_406_3844">
<rect width="24" height="24" fill="white"/>
</clipPath>
</defs>
</svg>
