<svg width="24" height="24" viewBox="0 0 24 24" fill="none" xmlns="http://www.w3.org/2000/svg">
<g clip-path="url(#clip0_406_3661)">
<path d="M21.9996 12V3C21.9996 2.20435 21.6836 1.44129 21.121 0.87868C20.5583 0.31607 19.7953 0 18.9996 0L4.99963 0C4.20398 0 3.44092 0.31607 2.87831 0.87868C2.3157 1.44129 1.99963 2.20435 1.99963 3V12H21.9996Z" fill="#374957"/>
<path d="M0 14.0006V16.0006H11V20.0006H9C8.20435 20.0006 7.44129 20.3167 6.87868 20.8793C6.31607 21.4419 6 22.205 6 23.0006V24.0006H8V23.0006C8 22.7354 8.10536 22.481 8.29289 22.2935C8.48043 22.106 8.73478 22.0006 9 22.0006H15C15.2652 22.0006 15.5196 22.106 15.7071 22.2935C15.8946 22.481 16 22.7354 16 23.0006V24.0006H18V23.0006C18 22.205 17.6839 21.4419 17.1213 20.8793C16.5587 20.3167 15.7956 20.0006 15 20.0006H13V16.0006H24V14.0006H0Z" fill="#374957"/>
</g>
<defs>
<clipPath id="clip0_406_3661">
<rect width="24" height="24" fill="white"/>
</clipPath>
</defs>
</svg>
