<svg width="24" height="24" viewBox="0 0 24 24" fill="none" xmlns="http://www.w3.org/2000/svg">
<g clip-path="url(#clip0_406_3875)">
<path d="M19 23.414L23.414 19H19V23.414Z" fill="#374957"/>
<path d="M16.3099 6.27686H15.6099L15.6319 9.69986C15.8939 9.69986 16.1719 9.69986 16.3319 9.69287C17.1869 9.67787 17.5688 8.82686 17.5688 7.99286C17.5729 7.58786 17.4818 6.27686 16.3099 6.27686Z" fill="#374957"/>
<path d="M21 0H3C1.34316 0 0 1.34316 0 3V24H17V17H24V3C24 1.34316 22.6568 0 21 0ZM5.94698 8.97H5.22998V11.07H3.98002V5.00002H5.94703C7.0433 5.00002 7.93205 5.88872 7.93205 6.98503C7.93205 8.08134 7.0433 8.97 5.94698 8.97ZM10.383 6.945C10.398 6.945 10.997 7.20802 11.655 7.45102C12.5734 7.65886 13.1832 8.53106 13.063 9.465C12.8474 10.4074 11.9887 11.0607 11.023 11.017C10.2159 11.0246 9.44292 10.6917 8.89397 10.1L8.47397 9.63698L9.39998 8.79998L9.81998 9.26297C10.1342 9.58763 10.5683 9.76847 11.02 9.76298C11.378 9.7965 11.7126 9.58092 11.83 9.24098C11.892 8.89697 11.379 8.679 11.22 8.61998C10.468 8.343 9.78998 8.04 9.78998 8.04C9.23302 7.72153 8.92552 7.09659 9.01298 6.46102C9.11878 5.79745 9.60361 5.25745 10.252 5.08102C11.1082 4.86591 12.0157 5.06428 12.704 5.61703L13.183 6.01702L12.383 6.97303L11.907 6.57305C11.5426 6.28692 11.0701 6.17705 10.617 6.27305C10.4337 6.30844 10.2904 6.45178 10.2549 6.63506C10.2305 6.75478 10.2811 6.87741 10.383 6.945ZM14.371 10.955L14.36 5.03498V5.02697H16.31C17.81 5.02697 18.823 6.21797 18.823 7.98998C18.823 9.47747 17.9093 10.7846 16.4373 10.9396C16.4113 10.9414 16.3799 10.9418 16.359 10.943L14.371 10.955Z" fill="#374957"/>
<path d="M5.9468 6.25H5.23181V7.723H5.94183C6.34777 7.72324 6.67702 7.39436 6.67725 6.98842C6.67749 6.58249 6.34861 6.25323 5.94267 6.253C5.94239 6.253 5.94211 6.253 5.94183 6.253L5.9468 6.25Z" fill="#374957"/>
</g>
<defs>
<clipPath id="clip0_406_3875">
<rect width="24" height="24" fill="white"/>
</clipPath>
</defs>
</svg>
