<svg width="24" height="24" viewBox="0 0 24 24" fill="none" xmlns="http://www.w3.org/2000/svg">
<g clip-path="url(#clip0_406_4054)">
<path d="M23.9999 21.242V24H21.9999V21.242C21.9997 20.6008 21.8094 19.9742 21.4531 19.4411C21.0968 18.9081 20.5905 18.4926 19.9981 18.2472C19.4058 18.0018 18.754 17.9375 18.1251 18.0624C17.4963 18.1873 16.9185 18.4959 16.4649 18.949L13.4649 21.949C12.8167 22.6009 12.0456 23.1179 11.1963 23.4699C10.347 23.822 9.43631 24.0021 8.51694 24H3.12295C2.50564 24 1.90218 23.817 1.38889 23.4741C0.875599 23.1312 0.475536 22.6437 0.239295 22.0734C0.00305495 21.5031 -0.0587516 20.8755 0.0616926 20.2701C0.182137 19.6646 0.479421 19.1085 0.915949 18.672L4.09994 15.485L7.63894 2.227C7.71744 1.93898 7.83915 1.66453 7.99994 1.413L13.0869 6.5L4.10594 15.482L5.51994 16.9L14.4999 7.915L19.5869 13C19.3353 13.1604 19.0609 13.2818 18.7729 13.36L5.51994 16.9L2.32995 20.09C2.17441 20.247 2.06873 20.4464 2.02621 20.6633C1.98368 20.8802 2.00621 21.1048 2.09095 21.3088C2.17568 21.5129 2.31886 21.6874 2.50247 21.8104C2.68609 21.9334 2.90196 21.9993 3.12295 22H8.51694C9.1739 22.0016 9.82465 21.8729 10.4316 21.6215C11.0385 21.37 11.5896 21.0007 12.0529 20.535L15.0529 17.535C15.7861 16.8024 16.7201 16.3037 17.7367 16.1018C18.7533 15.8998 19.8069 16.0038 20.7644 16.4005C21.722 16.7973 22.5404 17.4689 23.1163 18.3307C23.6922 19.1924 23.9997 20.2055 23.9999 21.242V21.242ZM19.2869 0.3C18.8858 0.104843 18.446 0.00231722 17.9999 0L10.5359 0C10.2087 0.000507701 9.88373 0.054555 9.57394 0.16L14.4999 5.087L19.2869 0.3ZM20.8399 11.426C20.9454 11.1162 20.9994 10.7912 20.9999 10.464V3C20.9976 2.5549 20.8951 2.11603 20.6999 1.716L15.9149 6.5L20.8399 11.426Z" fill="#374957"/>
</g>
<defs>
<clipPath id="clip0_406_4054">
<rect width="24" height="24" fill="white"/>
</clipPath>
</defs>
</svg>
