<svg width="24" height="24" viewBox="0 0 24 24" fill="none" xmlns="http://www.w3.org/2000/svg">
<g clip-path="url(#clip0_406_3681)">
<path d="M11.0001 17.5C11.0014 16.2264 11.3767 14.9813 12.0796 13.9192C12.7824 12.8572 13.7818 12.025 14.9536 11.526C16.1253 11.0271 17.4178 10.8833 18.6706 11.1127C19.9233 11.342 21.0811 11.9343 22.0001 12.816V0H5.00012C4.20447 0 3.44141 0.31607 2.8788 0.87868C2.31619 1.44129 2.00012 2.20435 2.00012 3V21C2.00012 21.7956 2.31619 22.5587 2.8788 23.1213C3.44141 23.6839 4.20447 24 5.00012 24H17.5001C15.7762 24 14.1229 23.3152 12.9039 22.0962C11.6849 20.8772 11.0001 19.2239 11.0001 17.5V17.5ZM7.00012 5H17.0001V7H7.00012V5ZM22.5431 23.957L19.8861 21.3C19.1733 21.755 18.3458 21.9977 17.5001 22C16.6101 22 15.7401 21.7361 15.0001 21.2416C14.26 20.7471 13.6833 20.0443 13.3427 19.2221C13.0021 18.3998 12.913 17.495 13.0866 16.6221C13.2602 15.7492 13.6888 14.9474 14.3181 14.318C14.9475 13.6887 15.7493 13.2601 16.6222 13.0865C17.4951 12.9128 18.3999 13.0019 19.2222 13.3425C20.0445 13.6831 20.7473 14.2599 21.2417 14.9999C21.7362 15.74 22.0001 16.61 22.0001 17.5C21.9979 18.3456 21.7551 19.1732 21.3001 19.886L23.9571 22.543L22.5431 23.957Z" fill="#374957"/>
</g>
<defs>
<clipPath id="clip0_406_3681">
<rect width="24" height="24" fill="white"/>
</clipPath>
</defs>
</svg>
