<svg width="24" height="24" viewBox="0 0 24 24" fill="none" xmlns="http://www.w3.org/2000/svg">
<g clip-path="url(#clip0_406_3938)">
<path d="M18.9998 23.4144L23.4138 19.0004H18.9998V23.4144Z" fill="#374957"/>
<path d="M21 0H3C2.20435 0 1.44129 0.31607 0.87868 0.87868C0.31607 1.44129 0 2.20435 0 3L0 24H17V17H24V3C24 2.20435 23.6839 1.44129 23.1213 0.87868C22.5587 0.31607 21.7956 0 21 0V0ZM7.261 6.246H5.248V7.384H7.112V8.634H5.248V9.771H7.261V11.021H4V5H7.261V6.246ZM10.984 8.966H10.267V11.066H9.017V5H10.984C11.5105 5 12.0153 5.20913 12.3876 5.58139C12.7599 5.95365 12.969 6.45855 12.969 6.985C12.969 7.51145 12.7599 8.01635 12.3876 8.38861C12.0153 8.76087 11.5105 8.97 10.984 8.97V8.966ZM15.419 6.941C15.435 6.941 16.033 7.204 16.692 7.448C17.1349 7.5485 17.5245 7.81037 17.7848 8.18254C18.0451 8.5547 18.1575 9.01048 18.1 9.461C17.9955 9.91764 17.7341 10.3231 17.3613 10.6068C16.9885 10.8904 16.528 11.0342 16.06 11.013C15.6609 11.0172 15.2654 10.9381 14.8986 10.7807C14.5318 10.6233 14.2019 10.3911 13.93 10.099L13.51 9.637L14.436 8.796L14.856 9.259C15.0113 9.41987 15.1979 9.54723 15.4042 9.63323C15.6106 9.71922 15.8324 9.76202 16.056 9.759C16.2297 9.77494 16.4037 9.73231 16.5503 9.63789C16.6969 9.54347 16.8077 9.4027 16.865 9.238C16.927 8.893 16.414 8.675 16.255 8.616C15.503 8.339 14.825 8.036 14.825 8.036C14.5528 7.88033 14.3333 7.6468 14.1948 7.36542C14.0564 7.08404 14.0052 6.76767 14.048 6.457C14.1 6.13222 14.2446 5.82932 14.4643 5.58457C14.6841 5.33982 14.9697 5.1636 15.287 5.077C15.7094 4.97055 16.1507 4.96365 16.5762 5.05684C17.0017 5.15003 17.3998 5.34076 17.739 5.614L18.218 6.014L17.418 6.97L16.943 6.57C16.7629 6.42885 16.5541 6.32884 16.3313 6.27701C16.1084 6.22519 15.8769 6.22279 15.653 6.27C15.5634 6.28706 15.4809 6.33056 15.4162 6.3949C15.3515 6.45924 15.3076 6.54147 15.29 6.631C15.2781 6.68964 15.2841 6.7505 15.3071 6.80574C15.3301 6.86098 15.369 6.90808 15.419 6.941V6.941Z" fill="#374957"/>
<path d="M10.9842 6.24597H10.2692V7.71898H10.9792C11.1742 7.71898 11.3611 7.64154 11.4989 7.5037C11.6368 7.36586 11.7142 7.17891 11.7142 6.98397C11.7142 6.78904 11.6368 6.60209 11.4989 6.46425C11.3611 6.32641 11.1742 6.24897 10.9792 6.24897L10.9842 6.24597Z" fill="#374957"/>
</g>
<defs>
<clipPath id="clip0_406_3938">
<rect width="24" height="24" fill="white"/>
</clipPath>
</defs>
</svg>
