<svg width="24" height="24" viewBox="0 0 24 24" fill="none" xmlns="http://www.w3.org/2000/svg">
<g clip-path="url(#clip0_406_3994)">
<path d="M11.9776 9.73156C13.9879 8.21323 16.5878 7.71102 19.019 8.37144C19.0359 8.17245 19.0548 7.98341 19.0548 7.78541C19.0553 3.86581 15.8782 0.687969 11.9586 0.6875C8.03902 0.687031 4.86117 3.86413 4.86066 7.78372V7.78541C4.86066 7.98439 4.87955 8.18338 4.89745 8.38241C7.33908 7.71078 9.95409 8.20911 11.9776 9.73156Z" fill="#374957"/>
<path d="M11.2292 13.8347C11.7251 13.8941 12.2264 13.8921 12.7217 13.8288C12.5269 13.3641 12.276 12.925 11.9745 12.5214C11.6735 12.9272 11.4232 13.3682 11.2292 13.8347Z" fill="#374957"/>
<path d="M21.0512 10.4729C20.6615 10.1922 20.2442 9.95173 19.8059 9.75537C19.1821 12.2008 17.458 14.2179 15.1395 15.2148C15.1815 15.5378 15.2034 15.8631 15.2052 16.1888C15.2096 18.3672 14.3295 20.4541 12.7665 21.9716C15.9418 24.2593 20.3704 23.5399 22.6582 20.3646C24.9459 17.1893 24.2264 12.7607 21.0512 10.4729Z" fill="#374957"/>
<path d="M8.75164 16.1891C8.7529 15.8697 8.77386 15.5507 8.81431 15.2339C6.48416 14.2525 4.74476 12.2409 4.11012 9.79346C0.559248 11.4414 -0.983314 15.6559 0.66467 19.2068C2.31265 22.7577 6.52719 24.3003 10.0781 22.6523C10.4754 22.4679 10.8547 22.2471 11.2112 21.9927C9.63533 20.4737 8.74709 18.3778 8.75164 16.1891Z" fill="#374957"/>
<path d="M13.2003 15.7808C12.3907 15.9064 11.5669 15.9088 10.7566 15.7877C10.7467 15.922 10.7417 16.0564 10.7417 16.1857C10.7385 17.5154 11.1731 18.8091 11.9785 19.8671C12.784 18.8092 13.2186 17.5154 13.2152 16.1857C13.2152 16.0544 13.2102 15.9171 13.2003 15.7808Z" fill="#374957"/>
<path d="M9.29631 13.2795C9.59471 12.5026 10.0112 11.7763 10.531 11.1264C9.29232 10.2806 7.78604 9.91945 6.29846 10.1115C6.87629 11.4989 7.94293 12.6261 9.29631 13.2795Z" fill="#374957"/>
<path d="M13.4254 11.1263C13.9418 11.7711 14.3559 12.4916 14.6532 13.2624C15.9873 12.6038 17.0375 11.484 17.6092 10.1104C16.1374 9.92809 14.6497 10.2893 13.4254 11.1263Z" fill="#374957"/>
</g>
<defs>
<clipPath id="clip0_406_3994">
<rect width="24" height="24" fill="white"/>
</clipPath>
</defs>
</svg>
