<svg width="24" height="24" viewBox="0 0 24 24" fill="none" xmlns="http://www.w3.org/2000/svg">
<g clip-path="url(#clip0_406_3619)">
<path d="M21 24H3V3C3 2.20435 3.31607 1.44129 3.87868 0.87868C4.44129 0.31607 5.20435 0 6 0L18 0C18.7956 0 19.5587 0.31607 20.1213 0.87868C20.6839 1.44129 21 2.20435 21 3V24ZM12 3.5C11.7033 3.5 11.4133 3.58797 11.1666 3.7528C10.92 3.91762 10.7277 4.15189 10.6142 4.42597C10.5006 4.70006 10.4709 5.00166 10.5288 5.29264C10.5867 5.58361 10.7296 5.85088 10.9393 6.06066C11.1491 6.27044 11.4164 6.4133 11.7074 6.47118C11.9983 6.52906 12.2999 6.49935 12.574 6.38582C12.8481 6.27229 13.0824 6.08003 13.2472 5.83336C13.412 5.58668 13.5 5.29667 13.5 5C13.5 4.60218 13.342 4.22064 13.0607 3.93934C12.7794 3.65804 12.3978 3.5 12 3.5ZM18 16C18 14.8133 17.6481 13.6533 16.9888 12.6666C16.3295 11.6799 15.3925 10.9108 14.2961 10.4567C13.1997 10.0026 11.9933 9.88378 10.8295 10.1153C9.66557 10.3468 8.59647 10.9182 7.75736 11.7574C6.91824 12.5965 6.3468 13.6656 6.11529 14.8295C5.88378 15.9933 6.0026 17.1997 6.45672 18.2961C6.91085 19.3925 7.67988 20.3295 8.66658 20.9888C9.65327 21.6481 10.8133 22 12 22C13.5908 21.9984 15.116 21.3658 16.2409 20.2409C17.3658 19.116 17.9984 17.5908 18 16ZM16 16C16 16.7911 15.7654 17.5645 15.3259 18.2223C14.8864 18.8801 14.2616 19.3928 13.5307 19.6955C12.7998 19.9983 11.9956 20.0775 11.2196 19.9231C10.4437 19.7688 9.73098 19.3878 9.17157 18.8284C8.61216 18.269 8.2312 17.5563 8.07686 16.7804C7.92252 16.0044 8.00173 15.2002 8.30448 14.4693C8.60723 13.7384 9.11992 13.1136 9.77772 12.6741C10.4355 12.2346 11.2089 12 12 12C13.0609 12 14.0783 12.4214 14.8284 13.1716C15.5786 13.9217 16 14.9391 16 16ZM13 15H11V17H13V15Z" fill="#374957"/>
</g>
<defs>
<clipPath id="clip0_406_3619">
<rect width="24" height="24" fill="white"/>
</clipPath>
</defs>
</svg>
