<svg width="24" height="24" viewBox="0 0 24 24" fill="none" xmlns="http://www.w3.org/2000/svg">
<g clip-path="url(#clip0_406_3710)">
<path d="M12 4.99994C11.0111 4.99994 10.0444 5.29319 9.22218 5.84259C8.39993 6.392 7.75907 7.1729 7.38063 8.08653C7.00219 9.00016 6.90318 10.0055 7.0961 10.9754C7.28903 11.9453 7.76523 12.8362 8.46449 13.5355C9.16376 14.2347 10.0547 14.7109 11.0246 14.9039C11.9945 15.0968 12.9998 14.9978 13.9134 14.6193C14.8271 14.2409 15.608 13.6 16.1574 12.7778C16.7068 11.9555 17 10.9888 17 9.99994C16.9984 8.67435 16.4711 7.4035 15.5338 6.46616C14.5965 5.52882 13.3256 5.00153 12 4.99994V4.99994ZM12.793 12.2069L11 10.4139V6.99994H13V9.58594L14.207 10.7929L12.793 12.2069ZM19.071 2.93594C18.1452 1.99341 17.0418 1.24369 15.8245 0.730086C14.6072 0.216483 13.3003 -0.0508166 11.9791 -0.0563692C10.6579 -0.0619218 9.34874 0.194383 8.12719 0.697736C6.90565 1.20109 5.79596 1.94151 4.86224 2.87623C3.92852 3.81094 3.18927 4.92141 2.68721 6.14349C2.18516 7.36556 1.93024 8.67501 1.9372 9.99618C1.94415 11.3173 2.21284 12.624 2.72773 13.8408C3.24262 15.0575 3.99352 16.1601 4.93703 17.0849L12 23.9939L19.071 17.0779C20.9437 15.2012 21.9953 12.6582 21.9953 10.0069C21.9953 7.3557 20.9437 4.81273 19.071 2.93594V2.93594ZM12 16.9999C10.6156 16.9999 9.26218 16.5894 8.11104 15.8202C6.95989 15.0511 6.06269 13.9578 5.53287 12.6787C5.00306 11.3996 4.86443 9.99218 5.13453 8.63431C5.40463 7.27644 6.07131 6.02916 7.05028 5.0502C8.02925 4.07123 9.27653 3.40454 10.6344 3.13445C11.9923 2.86435 13.3997 3.00297 14.6788 3.53279C15.9579 4.0626 17.0511 4.95981 17.8203 6.11095C18.5895 7.26209 19 8.61547 19 9.99994C18.9979 11.8558 18.2597 13.6351 16.9474 14.9474C15.6351 16.2596 13.8559 16.9978 12 16.9999V16.9999Z" fill="#374957"/>
</g>
<defs>
<clipPath id="clip0_406_3710">
<rect width="24" height="24" fill="white"/>
</clipPath>
</defs>
</svg>
