<svg width="24" height="24" viewBox="0 0 24 24" fill="none" xmlns="http://www.w3.org/2000/svg">
<g clip-path="url(#clip0_406_3843)">
<path d="M12 0C9.62663 0 7.30655 0.703788 5.33316 2.02236C3.35977 3.34094 1.8217 5.21509 0.913451 7.4078C0.00519943 9.60051 -0.232441 12.0133 0.230582 14.3411C0.693605 16.6689 1.83649 18.8071 3.51472 20.4853C5.19295 22.1635 7.33115 23.3064 9.65892 23.7694C11.9867 24.2324 14.3995 23.9948 16.5922 23.0866C18.7849 22.1783 20.6591 20.6402 21.9776 18.6668C23.2962 16.6935 24 14.3734 24 12C23.9966 8.81846 22.7312 5.76821 20.4815 3.51852C18.2318 1.26883 15.1815 0.00344108 12 0V0ZM8.46401 15.536C9.40276 16.472 10.6743 16.9976 12 16.9976C13.3257 16.9976 14.5972 16.472 15.536 15.536L16.95 16.95C15.971 17.9289 14.7237 18.5955 13.3659 18.8656C12.008 19.1356 10.6006 18.9969 9.32156 18.4671C8.04252 17.9373 6.94931 17.04 6.18017 15.8889C5.41104 14.7378 5.00051 13.3844 5.00051 12C5.00051 10.6156 5.41104 9.26221 6.18017 8.11108C6.94931 6.95996 8.04252 6.06275 9.32156 5.53291C10.6006 5.00308 12.008 4.86441 13.3659 5.13445C14.7237 5.40449 15.971 6.0711 16.95 7.05L15.536 8.464C14.5982 7.5262 13.3263 6.99934 12 6.99934C10.6737 6.99934 9.40181 7.5262 8.46401 8.464C7.5262 9.40181 6.99935 10.6737 6.99935 12C6.99935 13.3263 7.5262 14.5982 8.46401 15.536V15.536Z" fill="#374957"/>
</g>
<defs>
<clipPath id="clip0_406_3843">
<rect width="24" height="24" fill="white"/>
</clipPath>
</defs>
</svg>
