<svg width="24" height="24" viewBox="0 0 24 24" fill="none" xmlns="http://www.w3.org/2000/svg">
<g clip-path="url(#clip0_406_3961)">
<path d="M23.9739 2.93997C23.5316 5.7313 22.6935 8.44529 21.4849 11H14.4138L17.9569 7.45697L16.5428 6.04297L9.99985 12.586V4.16797C13.3708 2.07383 17.1223 0.666537 21.0388 0.0269731C21.4359 -0.0318004 21.8412 0.00281535 22.2226 0.128072C22.604 0.253328 22.9509 0.465774 23.2358 0.748541C23.5207 1.03131 23.7357 1.3766 23.8638 1.75701C23.992 2.13742 24.0296 2.54246 23.9739 2.93997V2.93997ZM7.99985 5.53297C7.02956 6.24383 6.11245 7.02457 5.25585 7.86897C4.49666 8.63243 3.90478 9.54563 3.51792 10.5504C3.13105 11.5552 2.95768 12.6295 3.00885 13.705C3.07984 15.265 3.62745 16.7658 4.57785 18.005L7.99985 14.586V5.53297ZM10.5858 20.994C11.6929 20.9897 12.7876 20.7613 13.804 20.3225C14.8204 19.8837 15.7375 19.2437 16.4998 18.441C18.0454 16.8022 19.3767 14.974 20.4618 13H12.4138L5.99085 19.423C7.30354 20.4461 8.92153 20.9993 10.5858 20.994V20.994ZM4.57785 18.008L0.0428467 22.543L1.45685 23.957L5.99085 19.423C5.93685 19.381 5.87585 19.352 5.82185 19.308C5.3593 18.9231 4.94196 18.487 4.57785 18.008V18.008Z" fill="#374957"/>
</g>
<defs>
<clipPath id="clip0_406_3961">
<rect width="24" height="24" fill="white"/>
</clipPath>
</defs>
</svg>
