<svg width="24" height="24" viewBox="0 0 24 24" fill="none" xmlns="http://www.w3.org/2000/svg">
<g clip-path="url(#clip0_406_3697)">
<path d="M15.4998 3H12.9998V0H10.9998V3H8.49985C7.30678 3.00132 6.16296 3.47585 5.31933 4.31948C4.4757 5.16311 4.00117 6.30693 3.99985 7.5V16C3.99985 18.1217 4.8427 20.1566 6.34299 21.6569C7.84328 23.1571 9.87812 24 11.9998 24C14.1216 24 16.1564 23.1571 17.6567 21.6569C19.157 20.1566 19.9998 18.1217 19.9998 16V7.5C19.9985 6.30693 19.524 5.16311 18.6804 4.31948C17.8367 3.47585 16.6929 3.00132 15.4998 3V3ZM12.9998 11H10.9998V7H12.9998V11Z" fill="#374957"/>
</g>
<defs>
<clipPath id="clip0_406_3697">
<rect width="24" height="24" fill="white"/>
</clipPath>
</defs>
</svg>
