<svg width="24" height="24" viewBox="0 0 24 24" fill="none" xmlns="http://www.w3.org/2000/svg">
<g clip-path="url(#clip0_406_3978)">
<path d="M4.06805 18H19.724C20.2059 18 20.6806 17.884 21.1081 17.6617C21.5356 17.4394 21.9033 17.1174 22.18 16.723C22.4567 16.3285 22.6344 15.8732 22.6979 15.3956C22.7615 14.918 22.709 14.4321 22.545 13.979L19.693 6.094C19.206 4.34171 18.1583 2.79719 16.7104 1.69667C15.2624 0.59615 13.4938 0.000212078 11.675 1.01731e-09V1.01731e-09C9.78177 -2.95923e-05 7.9451 0.645588 6.46826 1.83026C4.99142 3.01493 3.96274 4.66781 3.55205 6.516L1.20205 14.116C1.06369 14.5647 1.03258 15.0396 1.11124 15.5025C1.18989 15.9654 1.37611 16.4034 1.6549 16.7812C1.93369 17.1591 2.29728 17.4662 2.71641 17.6779C3.13554 17.8895 3.5985 17.9999 4.06805 18V18Z" fill="#374957"/>
<path d="M7.09985 20C7.32937 21.1303 7.94258 22.1465 8.8356 22.8764C9.72861 23.6063 10.8465 24.005 11.9999 24.005C13.1532 24.005 14.2711 23.6063 15.1641 22.8764C16.0571 22.1465 16.6703 21.1303 16.8999 20H7.09985Z" fill="#374957"/>
</g>
<defs>
<clipPath id="clip0_406_3978">
<rect width="24" height="24" fill="white"/>
</clipPath>
</defs>
</svg>
