<svg width="24" height="24" viewBox="0 0 24 24" fill="none" xmlns="http://www.w3.org/2000/svg">
<g clip-path="url(#clip0_406_3770)">
<path d="M6.5 17.5004H0V21.0004C0 21.796 0.31607 22.5591 0.87868 23.1217C1.44129 23.6843 2.20435 24.0004 3 24.0004H6.5V17.5004Z" fill="#374957"/>
<path d="M23.9998 17.5004H17.4998V24.0004H20.9998C21.7955 24.0004 22.5585 23.6843 23.1212 23.1217C23.6838 22.5591 23.9998 21.796 23.9998 21.0004V17.5004Z" fill="#374957"/>
<path d="M6.5 8.74976H0V15.2497H6.5V8.74976Z" fill="#374957"/>
<path d="M23.9998 8.74976H17.4998V15.2497H23.9998V8.74976Z" fill="#374957"/>
<path d="M6.5 0H3C2.20435 0 1.44129 0.31607 0.87868 0.87868C0.31607 1.44129 0 2.20435 0 3L0 6.5H6.5V0Z" fill="#374957"/>
<path d="M15.2501 17.5004H8.75015V24.0004H15.2501V17.5004Z" fill="#374957"/>
<path d="M15.2501 8.74976H8.75015V15.2497H15.2501V8.74976Z" fill="#374957"/>
<path d="M15.2501 0H8.75015V6.5H15.2501V0Z" fill="#374957"/>
<path d="M20.9998 0H17.4998V6.5H23.9998V3C23.9998 2.20435 23.6838 1.44129 23.1212 0.87868C22.5585 0.31607 21.7955 0 20.9998 0V0Z" fill="#374957"/>
</g>
<defs>
<clipPath id="clip0_406_3770">
<rect width="24" height="24" fill="white"/>
</clipPath>
</defs>
</svg>
