<svg width="24" height="24" viewBox="0 0 24 24" fill="none" xmlns="http://www.w3.org/2000/svg">
<g clip-path="url(#clip0_406_3960)">
<path d="M16 8C14.3738 8.00272 12.7874 8.50314 11.454 9.434C11.632 9.82 11.83 10.212 12.039 10.615C13.214 12.5469 13.8881 14.7416 14 17C14.0296 19.1608 13.5111 21.2939 12.493 23.2C13.5746 23.7238 14.7603 23.9972 15.962 24C17.1638 24.0027 18.3507 23.7346 19.4346 23.2157C20.5185 22.6967 21.4716 21.9402 22.2231 21.0024C22.9746 20.0646 23.5051 18.9695 23.7753 17.7985C24.0454 16.6275 24.0483 15.4107 23.7837 14.2385C23.5191 13.0662 22.9938 11.9686 22.2468 11.0272C21.4998 10.0858 20.5503 9.32486 19.4688 8.80078C18.3874 8.2767 17.2017 8.00299 16 8V8ZM17 16C16.8022 16 16.6089 15.9414 16.4444 15.8315C16.28 15.7216 16.1518 15.5654 16.0761 15.3827C16.0004 15.2 15.9806 14.9989 16.0192 14.8049C16.0578 14.6109 16.153 14.4327 16.2929 14.2929C16.4327 14.153 16.6109 14.0578 16.8049 14.0192C16.9989 13.9806 17.1999 14.0004 17.3827 14.0761C17.5654 14.1518 17.7216 14.28 17.8314 14.4444C17.9413 14.6089 18 14.8022 18 15C18 15.2652 17.8946 15.5196 17.7071 15.7071C17.5196 15.8946 17.2652 16 17 16ZM19 13C18.8022 13 18.6089 12.9414 18.4444 12.8315C18.28 12.7216 18.1518 12.5654 18.0761 12.3827C18.0004 12.2 17.9806 11.9989 18.0192 11.8049C18.0578 11.6109 18.153 11.4327 18.2929 11.2929C18.4327 11.153 18.6109 11.0578 18.8049 11.0192C18.9989 10.9806 19.1999 11.0004 19.3827 11.0761C19.5654 11.1518 19.7216 11.28 19.8314 11.4444C19.9413 11.6089 20 11.8022 20 12C20 12.2652 19.8946 12.5196 19.7071 12.7071C19.5196 12.8946 19.2652 13 19 13ZM21 16C20.8022 16 20.6089 15.9414 20.4444 15.8315C20.28 15.7216 20.1518 15.5654 20.0761 15.3827C20.0004 15.2 19.9806 14.9989 20.0192 14.8049C20.0578 14.6109 20.153 14.4327 20.2929 14.2929C20.4327 14.153 20.6109 14.0578 20.8049 14.0192C20.9989 13.9806 21.1999 14.0004 21.3827 14.0761C21.5654 14.1518 21.7216 14.28 21.8314 14.4444C21.9413 14.6089 22 14.8022 22 15C22 15.2652 21.8946 15.5196 21.7071 15.7071C21.5196 15.8946 21.2652 16 21 16ZM10.264 11.537C11.2836 13.1873 11.8799 15.0638 12 17C12.1059 19.4444 11.2872 21.8391 9.70698 23.707L9.41398 24H2.58598L2.29298 23.707C0.71272 21.8391 -0.105963 19.4444 -2.0246e-05 17C0.120049 15.0638 0.716367 13.1873 1.73598 11.537C2.00898 11.012 2.27198 10.5 2.48898 10H9.51098C9.72798 10.5 9.99098 11.012 10.264 11.537V11.537ZM2.44598 5.825C2.21789 5.23887 2.06794 4.62527 1.99998 4C1.99998 2.93913 2.42141 1.92172 3.17155 1.17157C3.9217 0.421427 4.93911 0 5.99998 0C7.06085 0 8.07826 0.421427 8.82841 1.17157C9.57855 1.92172 9.99998 2.93913 9.99998 4C9.93202 4.62527 9.78207 5.23887 9.55398 5.825C9.29955 6.53042 9.11402 7.25882 8.99998 8H2.99998C2.88594 7.25882 2.70041 6.53042 2.44598 5.825V5.825Z" fill="#374957"/>
</g>
<defs>
<clipPath id="clip0_406_3960">
<rect width="24" height="24" fill="white"/>
</clipPath>
</defs>
</svg>
