<svg width="24" height="24" viewBox="0 0 24 24" fill="none" xmlns="http://www.w3.org/2000/svg">
<g clip-path="url(#clip0_406_3723)">
<path d="M24.0421 -0.0476074L24.0001 1.04039C23.9791 1.59139 23.4171 14.6084 18.9291 19.0964C17.1904 20.831 14.8704 21.8597 12.4175 21.9836C9.96459 22.1075 7.55279 21.318 5.64808 19.7674L16.7081 8.70739L15.2931 7.29339L4.23308 18.3534C2.68243 16.449 1.89242 14.0376 2.01561 11.5848C2.13879 9.132 3.16643 6.81186 4.90008 5.07239C9.30008 0.672392 22.4001 0.0263926 22.9551 0.000392579L24.0421 -0.0476074ZM4.23308 18.3534L0.0430832 22.5434L1.45708 23.9574L5.64708 19.7674C5.12944 19.3448 4.65572 18.871 4.23308 18.3534V18.3534Z" fill="#374957"/>
</g>
<defs>
<clipPath id="clip0_406_3723">
<rect width="24" height="24" fill="white"/>
</clipPath>
</defs>
</svg>
