<svg width="24" height="24" viewBox="0 0 24 24" fill="none" xmlns="http://www.w3.org/2000/svg">
<g clip-path="url(#clip0_406_3644)">
<path d="M12 23.0006C15.3137 23.0006 18 20.3143 18 17.0006C18 13.6869 15.3137 11.0006 12 11.0006C8.68629 11.0006 6 13.6869 6 17.0006C6 20.3143 8.68629 23.0006 12 23.0006Z" fill="#374957"/>
<path d="M11.383 9.02397L7.706 2.65297C7.61823 2.50096 7.49199 2.37474 7.33998 2.28698C7.18796 2.19922 7.01553 2.15302 6.84 2.15302C6.66447 2.15302 6.49204 2.19922 6.34002 2.28698C6.18801 2.37474 6.06177 2.50096 5.974 2.65297L0 13H5.074C5.72419 11.8752 6.63829 10.9255 7.73744 10.2328C8.83658 9.54007 10.0877 9.12521 11.383 9.02397V9.02397Z" fill="#374957"/>
<path d="M13.0004 3.99939V9.06138C14.5893 9.2644 16.0811 9.93846 17.2836 10.9968C18.486 12.055 19.3441 13.4491 19.7474 14.9994H24.0004V3.99939H13.0004Z" fill="#374957"/>
</g>
<defs>
<clipPath id="clip0_406_3644">
<rect width="24" height="24" fill="white"/>
</clipPath>
</defs>
</svg>
