<svg width="24" height="24" viewBox="0 0 24 24" fill="none" xmlns="http://www.w3.org/2000/svg">
<g clip-path="url(#clip0_406_4025)">
<path d="M19.4091 7.02607C16.2891 8.38007 15.8931 7.89307 13.0001 8.00007V6.00007C13.037 4.04302 12.4912 2.11919 11.4321 0.473067C11.3441 0.324067 11.2621 0.185067 11.1901 0.0520674L9.43511 1.01007C9.51611 1.16007 9.60911 1.31807 9.70811 1.48707C10.5869 2.8254 11.0375 4.39947 11.0001 6.00007V6.40907C5.55011 4.56307 -0.0668912 9.10007 0.00010876 15.0001C-0.106891 21.3311 6.41711 25.9531 12.0001 23.2001C22.4591 27.6191 28.7931 12.4441 19.4091 7.02607ZM19.5331 4.48607C18.2616 5.5345 16.6464 6.07397 15.0001 6.00007C14.8761 2.22707 17.1651 -0.186933 20.9921 0.00806735C21.0933 1.63201 20.5716 3.23346 19.5331 4.48607V4.48607Z" fill="#374957"/>
</g>
<defs>
<clipPath id="clip0_406_4025">
<rect width="24" height="24" fill="white"/>
</clipPath>
</defs>
</svg>
