<svg width="24" height="24" viewBox="0 0 24 24" fill="none" xmlns="http://www.w3.org/2000/svg">
<g clip-path="url(#clip0_406_3845)">
<path d="M14 22.0004C11.8727 21.9979 9.80148 21.318 8.08642 20.0595C6.37137 18.8009 5.10157 17.029 4.461 15.0004H16V13.0005H4.051C3.983 12.3355 3.983 11.6654 4.051 11.0005H16V9.00046H4.461C5.00103 7.28317 5.99461 5.74351 7.33689 4.54395C8.67918 3.34438 10.3204 2.5294 12.0873 2.185C13.8543 1.84061 15.6814 1.97957 17.376 2.58722C19.0705 3.19488 20.5696 4.24869 21.715 5.63746L23.257 4.36346C21.8496 2.65775 19.998 1.37451 17.9067 0.65566C15.8155 -0.0631947 13.5661 -0.189656 11.4075 0.290262C9.24882 0.77018 7.26496 1.83778 5.67529 3.37499C4.08561 4.9122 2.95206 6.85912 2.4 9.00046H0V11.0005H2.051C2.023 11.3315 2 11.6625 2 12.0005C2 12.3385 2.023 12.6695 2.051 13.0005H0V15.0004H2.4C2.95144 17.1429 4.08492 19.091 5.67498 20.6291C7.26505 22.1672 9.24969 23.2354 11.4093 23.7154C13.5688 24.1954 15.8191 24.0685 17.911 23.3488C20.0029 22.6291 21.8549 21.3446 23.262 19.6374L21.72 18.3634C20.7823 19.5029 19.6034 20.4201 18.2685 21.049C16.9335 21.6779 15.4757 22.0029 14 22.0004V22.0004Z" fill="#374957"/>
</g>
<defs>
<clipPath id="clip0_406_3845">
<rect width="24" height="24" fill="white"/>
</clipPath>
</defs>
</svg>
