<svg width="24" height="24" viewBox="0 0 24 24" fill="none" xmlns="http://www.w3.org/2000/svg">
<g clip-path="url(#clip0_406_4045)">
<path d="M22.761 11H16V3.99996H17.05C17.8236 4.00066 18.5805 4.22529 19.2293 4.64673C19.878 5.06818 20.3909 5.66841 20.706 6.37497L22.761 11ZM24 15.062V19H0V6.99997C0 6.20432 0.31607 5.44125 0.87868 4.87864C1.44129 4.31603 2.20435 3.99996 3 3.99996H10L10.757 0.969961C10.8261 0.692584 10.986 0.446291 11.2113 0.270281C11.4365 0.0942707 11.7141 -0.00134277 12 -0.00134277C12.2859 -0.00134277 12.5635 0.0942707 12.7887 0.270281C13.014 0.446291 13.1739 0.692584 13.243 0.969961L14 3.99996V13H23.627C23.8723 13.6598 23.9986 14.358 24 15.062V15.062ZM10 11H8V8.99997H6V11H4V13H6V15H8V13H10V11ZM3.058 21C3.02137 21.1642 3.00193 21.3317 3 21.5C3 22.163 3.26339 22.7989 3.73223 23.2677C4.20107 23.7366 4.83696 24 5.5 24C6.16304 24 6.79893 23.7366 7.26777 23.2677C7.73661 22.7989 8 22.163 8 21.5C7.99807 21.3317 7.97863 21.1642 7.942 21H3.058ZM17.058 21C17.0214 21.1642 17.0019 21.3317 17 21.5C17 22.163 17.2634 22.7989 17.7322 23.2677C18.2011 23.7366 18.837 24 19.5 24C20.163 24 20.7989 23.7366 21.2678 23.2677C21.7366 22.7989 22 22.163 22 21.5C21.9981 21.3317 21.9786 21.1642 21.942 21H17.058Z" fill="#374957"/>
</g>
<defs>
<clipPath id="clip0_406_4045">
<rect width="24" height="24" fill="white"/>
</clipPath>
</defs>
</svg>
