<svg width="24" height="24" viewBox="0 0 24 24" fill="none" xmlns="http://www.w3.org/2000/svg">
<g clip-path="url(#clip0_406_3565)">
<path d="M11 16.9991H6.086L0.045 10.9581C0.016 11.2991 0 11.6481 0 11.9991C6.5391e-05 15.0085 1.1309 17.9081 3.16833 20.1229C5.20575 22.3378 8.00102 23.7063 11 23.9571V16.9991Z" fill="#374957"/>
<path d="M19.1261 19.1245C18.4509 18.4531 17.9154 17.6546 17.5505 16.7752C17.1856 15.8957 16.9985 14.9526 17.0001 14.0005H13.0001C12.2045 14.0005 11.4414 13.6844 10.8788 13.1218C10.3162 12.5592 10.0001 11.7961 10.0001 11.0005V8.00046H13.0001V4.00046H17.0861L18.9001 2.18346C17.343 1.08956 15.548 0.381672 13.6633 0.118231C11.7787 -0.145211 9.85836 0.0433481 8.06094 0.668344C6.26352 1.29334 4.6405 2.33685 3.32587 3.71274C2.01123 5.08864 1.04267 6.75746 0.500122 8.58146L6.91412 15.0005H10.0001C10.7958 15.0005 11.5588 15.3165 12.1214 15.8791C12.6841 16.4418 13.0001 17.2048 13.0001 18.0005V23.9585C15.9281 23.7163 18.6648 22.4058 20.6891 20.2765L19.1261 19.1245Z" fill="#374957"/>
<path d="M20.489 17.6579L21.943 18.7199C23.5094 16.4021 24.2167 13.6099 23.9429 10.8259C23.669 8.04189 22.431 5.44105 20.443 3.47293L17.914 6.00093H15V10.0009H12V12.0009H19V13.9909C19.0042 15.3597 19.5378 16.6737 20.489 17.6579V17.6579Z" fill="#374957"/>
</g>
<defs>
<clipPath id="clip0_406_3565">
<rect width="24" height="24" fill="white"/>
</clipPath>
</defs>
</svg>
