<svg width="24" height="24" viewBox="0 0 24 24" fill="none" xmlns="http://www.w3.org/2000/svg">
<g clip-path="url(#clip0_406_3785)">
<path d="M23.4139 0.587262C23.1631 0.339975 22.8521 0.162538 22.5116 0.0725511C22.1712 -0.017436 21.8131 -0.0168461 21.4729 0.0742624L17.7579 1.29226L5.51791 13.5323C4.1497 12.7949 2.67238 12.2811 1.14192 12.0103L0.855919 13.9893C2.803 14.3543 4.637 15.172 6.20991 16.3763L2.49992 20.0863L1.47592 19.0623L0.0619202 20.4763L3.56192 23.9763L4.97591 22.5623L3.91392 21.5003L7.62391 17.7903C8.82859 19.3628 9.64598 21.197 10.0099 23.1443L11.9899 22.8583C11.7201 21.3275 11.2063 19.85 10.4679 18.4823L22.7079 6.24226L23.9529 2.43226C24.0258 2.10423 24.0146 1.76309 23.9204 1.44053C23.8261 1.11797 23.6519 0.824464 23.4139 0.587262V0.587262Z" fill="#374957"/>
</g>
<defs>
<clipPath id="clip0_406_3785">
<rect width="24" height="24" fill="white"/>
</clipPath>
</defs>
</svg>
