<svg width="24" height="24" viewBox="0 0 24 24" fill="none" xmlns="http://www.w3.org/2000/svg">
<g clip-path="url(#clip0_406_3576)">
<path d="M3 6C3 4.81332 3.35189 3.65328 4.01118 2.66658C4.67047 1.67989 5.60754 0.910851 6.7039 0.456726C7.80026 0.00259972 9.00666 -0.11622 10.1705 0.115291C11.3344 0.346802 12.4035 0.918247 13.2426 1.75736C14.0818 2.59648 14.6532 3.66558 14.8847 4.82946C15.1162 5.99335 14.9974 7.19975 14.5433 8.2961C14.0892 9.39246 13.3201 10.3295 12.3334 10.9888C11.3467 11.6481 10.1867 12 9 12C7.4087 12 5.88258 11.3679 4.75736 10.2426C3.63214 9.11743 3 7.5913 3 6V6ZM13.043 14H4.957C3.64281 14.0016 2.3829 14.5244 1.45363 15.4536C0.524352 16.3829 0.00158783 17.6428 0 18.957L0 24H18V18.957C17.9984 17.6428 17.4756 16.3829 16.5464 15.4536C15.6171 14.5244 14.3572 14.0016 13.043 14V14ZM16 10V12H24V10H16Z" fill="#374957"/>
</g>
<defs>
<clipPath id="clip0_406_3576">
<rect width="24" height="24" fill="white"/>
</clipPath>
</defs>
</svg>
