<svg width="24" height="24" viewBox="0 0 24 24" fill="none" xmlns="http://www.w3.org/2000/svg">
<g clip-path="url(#clip0_406_3620)">
<path d="M24 19.5C24 21.985 18.627 24 12 24C5.373 24 0 21.985 0 19.5C0 17.015 5.373 15 12 15C18.627 15 24 17.015 24 19.5ZM12.5 7C7.253 7 3 8.567 3 10.5C3 12.433 7.253 14 12.5 14C17.747 14 22 12.433 22 10.5C22 8.567 17.747 7 12.5 7ZM10.5 0C7.462 0 5 1.343 5 3C5 4.657 7.462 6 10.5 6C13.538 6 16 4.657 16 3C16 1.343 13.538 0 10.5 0Z" fill="#374957"/>
</g>
<defs>
<clipPath id="clip0_406_3620">
<rect width="24" height="24" fill="white"/>
</clipPath>
</defs>
</svg>
