<svg width="24" height="24" viewBox="0 0 24 24" fill="none" xmlns="http://www.w3.org/2000/svg">
<g clip-path="url(#clip0_406_3622)">
<path d="M21.8352 2.16567C21.149 1.47933 20.3344 0.934887 19.4378 0.563434C18.5412 0.19198 17.5802 0.000793457 16.6097 0.000793457C15.6392 0.000793457 14.6782 0.19198 13.7816 0.563434C12.885 0.934887 12.0703 1.47933 11.3842 2.16567L2.16516 11.3847C1.47589 12.0702 0.928654 12.885 0.554807 13.7824C0.18096 14.6798 -0.0121521 15.6422 -0.0134668 16.6143C-0.0147814 17.5865 0.175728 18.5493 0.547146 19.4477C0.918565 20.3461 1.46359 21.1624 2.15101 21.8498C2.83842 22.5372 3.65471 23.0823 4.55311 23.4537C5.45151 23.8251 6.41437 24.0156 7.38652 24.0143C8.35867 24.013 9.32101 23.8199 10.2184 23.446C11.1158 23.0722 11.9306 22.5249 12.6162 21.8357L21.8352 12.6167C22.5215 11.9305 23.0659 11.1159 23.4374 10.2193C23.8088 9.32267 24 8.36167 24 7.39117C24 6.42067 23.8088 5.45967 23.4374 4.56307C23.0659 3.66647 22.5215 2.85183 21.8352 2.16567V2.16567ZM9.70716 19.7077L8.29316 18.2937L9.08616 17.5007L6.50016 14.9147L5.70716 15.7077L4.29316 14.2937L7.29316 11.2937L8.70716 12.7077L7.91416 13.5007L10.5002 16.0867L11.2932 15.2937L12.7072 16.7077L9.70716 19.7077ZM16.7072 12.7077L15.2932 11.2937L16.0862 10.5007L13.5002 7.91467L12.7072 8.70767L11.2932 7.29367L14.2932 4.29367L15.7072 5.70767L14.9142 6.50067L17.5002 9.08667L18.2932 8.29367L19.7072 9.70767L16.7072 12.7077Z" fill="#374957"/>
</g>
<defs>
<clipPath id="clip0_406_3622">
<rect width="24" height="24" fill="white"/>
</clipPath>
</defs>
</svg>
