<svg width="24" height="24" viewBox="0 0 24 24" fill="none" xmlns="http://www.w3.org/2000/svg">
<g clip-path="url(#clip0_406_3808)">
<path d="M21 16.0004V12.0004C20.9994 10.6555 20.696 9.32788 20.1125 8.11612C19.5289 6.90435 18.6801 5.83947 17.629 5.00041H20.277C20.4986 5.37802 20.8385 5.67205 21.2441 5.83699C21.6497 6.00193 22.0983 6.02857 22.5206 5.91279C22.9429 5.79702 23.3152 5.54528 23.5799 5.19655C23.8447 4.84781 23.9871 4.42154 23.9851 3.9837C23.9831 3.54586 23.8369 3.12089 23.569 2.77455C23.3011 2.42822 22.9266 2.17984 22.5033 2.06787C22.08 1.9559 21.6316 1.98657 21.2275 2.15515C20.8235 2.32373 20.4862 2.62081 20.268 3.00041H15.858C15.6397 2.14282 15.1419 1.38241 14.4433 0.839299C13.7446 0.296188 12.8849 0.00134277 12 0.00134277C11.1151 0.00134277 10.2554 0.296188 9.55672 0.839299C8.85806 1.38241 8.36027 2.14282 8.142 3.00041H3.723C3.50139 2.62279 3.16148 2.32876 2.75589 2.16382C2.3503 1.99889 1.90166 1.97225 1.4794 2.08802C1.05714 2.2038 0.684827 2.45554 0.42008 2.80427C0.155333 3.153 0.0129225 3.57928 0.0148928 4.01711C0.0168631 4.45495 0.163104 4.87993 0.430979 5.22626C0.698853 5.5726 1.07342 5.82098 1.4967 5.93295C1.91999 6.04492 2.36837 6.01424 2.77246 5.84566C3.17655 5.67708 3.51379 5.38 3.732 5.00041H6.371C5.31986 5.83947 4.47106 6.90435 3.88751 8.11612C3.30395 9.32788 3.00062 10.6555 3 12.0004V16.0004H0V21.0004C0 21.7961 0.31607 22.5591 0.87868 23.1217C1.44129 23.6843 2.20435 24.0004 3 24.0004H8V16.0004H5V12.0004C5.00137 10.7692 5.32777 9.5602 5.9462 8.49559C6.56463 7.43098 7.45317 6.54852 8.522 5.93741C8.8631 6.56189 9.36604 7.08301 9.97802 7.44607C10.59 7.80912 11.2884 8.0007 12 8.0007C12.7116 8.0007 13.41 7.80912 14.022 7.44607C14.634 7.08301 15.1369 6.56189 15.478 5.93741C16.5468 6.54852 17.4354 7.43098 18.0538 8.49559C18.6722 9.5602 18.9986 10.7692 19 12.0004V16.0004H16V24.0004H21C21.7956 24.0004 22.5587 23.6843 23.1213 23.1217C23.6839 22.5591 24 21.7961 24 21.0004V16.0004H21Z" fill="#374957"/>
</g>
<defs>
<clipPath id="clip0_406_3808">
<rect width="24" height="24" fill="white"/>
</clipPath>
</defs>
</svg>
