<svg width="24" height="24" viewBox="0 0 24 24" fill="none" xmlns="http://www.w3.org/2000/svg">
<g clip-path="url(#clip0_406_3762)">
<path d="M24.0002 21.2419V23.9999H22.0002V21.2419C21.9999 20.6007 21.8096 19.9739 21.4531 19.4408C21.0967 18.9077 20.5902 18.4922 19.9977 18.2469C19.4052 18.0016 18.7533 17.9374 18.1243 18.0626C17.4954 18.1877 16.9177 18.4965 16.4642 18.9499L13.4642 21.9499C12.8159 22.602 12.0446 23.1189 11.1951 23.4708C10.3456 23.8227 9.43469 24.0026 8.51518 23.9999H3.12218C2.50478 24.0002 1.90119 23.8173 1.38774 23.4745C0.8743 23.1316 0.474082 22.6441 0.237717 22.0738C0.00135233 21.5034 -0.0605386 20.8758 0.0598739 20.2702C0.180286 19.6647 0.477592 19.1085 0.91418 18.6719L1.22018 18.3659C1.00945 17.8729 0.950933 17.3281 1.05215 16.8016C1.15336 16.275 1.40968 15.7907 1.78818 15.4109L7.78818 9.41094C8.06955 10.0309 8.43315 10.6101 8.86918 11.1329C9.6099 12.018 10.5334 12.7324 11.5762 13.2269L5.58918 19.2119C5.21012 19.5922 4.72556 19.8499 4.19831 19.9515C3.67106 20.0532 3.12545 19.9941 2.63218 19.7819L2.33218 20.0819C2.17407 20.2383 2.06605 20.4382 2.02185 20.6561C1.97765 20.8741 1.99928 21.1003 2.08397 21.3059C2.16866 21.5115 2.3126 21.6873 2.49747 21.8109C2.68234 21.9345 2.8998 22.0003 3.12218 21.9999H8.51518C9.172 22.0016 9.82264 21.873 10.4294 21.6215C11.0362 21.3701 11.5871 21.0007 12.0502 20.5349L15.0502 17.5349C15.7834 16.8018 16.7176 16.3026 17.7345 16.1004C18.7515 15.8981 19.8055 16.002 20.7635 16.3987C21.7214 16.7955 22.5402 17.4674 23.1163 18.3295C23.6925 19.1915 24 20.2051 24.0002 21.2419V21.2419ZM15.0002 11.9999C16.1869 11.9999 17.3469 11.648 18.3336 10.9888C19.3203 10.3295 20.0893 9.3924 20.5435 8.29604C20.9976 7.19969 21.1164 5.99329 20.8849 4.8294C20.6534 3.66551 20.0819 2.59642 19.2428 1.7573C18.4037 0.918186 17.3346 0.346741 16.1707 0.11523C15.0068 -0.116281 13.8004 0.00253868 12.7041 0.456664C11.6077 0.91079 10.6707 1.67983 10.0114 2.66652C9.35207 3.65322 9.00018 4.81325 9.00018 5.99994C9.00018 7.59124 9.63232 9.11736 10.7575 10.2426C11.8828 11.3678 13.4089 11.9999 15.0002 11.9999Z" fill="#374957"/>
</g>
<defs>
<clipPath id="clip0_406_3762">
<rect width="24" height="24" fill="white"/>
</clipPath>
</defs>
</svg>
