<svg width="24" height="24" viewBox="0 0 24 24" fill="none" xmlns="http://www.w3.org/2000/svg">
<g clip-path="url(#clip0_406_3933)">
<path d="M2 13V12C2 11.2043 2.31607 10.4412 2.87868 9.87864C3.44129 9.31603 4.20435 8.99996 5 8.99996H11V6.81596C10.4171 6.60987 9.91209 6.22873 9.55409 5.72466C9.19608 5.22059 9.00256 4.61822 9 3.99996C9 2.53396 10.813 0.945957 11.369 0.493957L12 -0.019043L12.631 0.493957C13.187 0.945957 15 2.53396 15 3.99996C14.9974 4.61822 14.8039 5.22059 14.4459 5.72466C14.0879 6.22873 13.5829 6.60987 13 6.81596V8.99996H19C19.7956 8.99996 20.5587 9.31603 21.1213 9.87864C21.6839 10.4412 22 11.2043 22 12V13C22 13.343 21.318 14 20.25 14C19.161 14 18.5 13.306 18.5 13H16.5C16.5 13.343 15.818 14 14.75 14C13.661 14 13 13.306 13 13H11C11 13.343 10.318 14 9.25 14C8.161 14 7.5 13.306 7.5 13H5.5C5.5 13.343 4.818 14 3.75 14C2.661 14 2 13.306 2 13ZM0 22V24H24V22H0ZM22 15.625C21.4489 15.8697 20.853 15.9973 20.25 16C19.243 16.0076 18.2669 15.6526 17.5 15C16.7286 15.643 15.7569 15.9963 14.7527 15.9991C13.7485 16.0018 12.7749 15.6537 12 15.015C11.2251 15.6537 10.2515 16.0018 9.2473 15.9991C8.24308 15.9963 7.27136 15.643 6.5 15C5.73312 15.6526 4.75699 16.0076 3.75 16C3.14701 15.9973 2.55112 15.8697 2 15.625V20H22V15.625Z" fill="#374957"/>
</g>
<defs>
<clipPath id="clip0_406_3933">
<rect width="24" height="24" fill="white"/>
</clipPath>
</defs>
</svg>
