<svg width="24" height="24" viewBox="0 0 24 24" fill="none" xmlns="http://www.w3.org/2000/svg">
<path d="M14.0002 12.0003C14.0002 12.5307 13.7895 13.0394 13.4145 13.4145C13.0394 13.7895 12.5307 14.0003 12.0002 14.0003C11.4698 14.0003 10.9611 13.7895 10.586 13.4145C10.211 13.0394 10.0002 12.5307 10.0002 12.0003C10.0002 11.4698 10.211 10.9611 10.586 10.586C10.9611 10.211 11.4698 10.0003 12.0002 10.0003C12.5307 10.0003 13.0394 10.211 13.4145 10.586C13.7895 10.9611 14.0002 11.4698 14.0002 12.0003V12.0003ZM22.9092 15.7623C22.9036 16.5269 22.6974 17.2767 22.3113 17.9367C21.9252 18.5968 21.3727 19.144 20.709 19.5237C20.0453 19.9035 19.2935 20.1024 18.5288 20.1008C17.7642 20.0991 17.0133 19.8969 16.3512 19.5143C16.3442 25.4473 7.65124 25.4443 7.65124 19.5143C2.49624 22.3413 -1.67376 14.8623 3.38524 11.9443C-1.66876 9.02825 2.48524 1.56025 7.63924 4.36825C7.63924 3.21111 8.09891 2.10136 8.91713 1.28314C9.73536 0.464921 10.8451 0.00524902 12.0022 0.00524902C13.1594 0.00524902 14.2691 0.464921 15.0873 1.28314C15.9056 2.10136 16.3652 3.21111 16.3652 4.36825C21.5202 1.55925 25.6712 9.03225 20.6192 11.9443C21.3099 12.3149 21.8874 12.8654 22.2905 13.5376C22.6937 14.2097 22.9075 14.9785 22.9092 15.7623V15.7623ZM16.0002 12.0003C16.0002 10.9394 15.5788 9.92197 14.8287 9.17182C14.0785 8.42168 13.0611 8.00025 12.0002 8.00025C10.9394 8.00025 9.92196 8.42168 9.17181 9.17182C8.42167 9.92197 8.00024 10.9394 8.00024 12.0003C8.00024 13.0611 8.42167 14.0785 9.17181 14.8287C9.92196 15.5788 10.9394 16.0003 12.0002 16.0003C13.0611 16.0003 14.0785 15.5788 14.8287 14.8287C15.5788 14.0785 16.0002 13.0611 16.0002 12.0003Z" fill="#374957"/>
</svg>
