<svg width="24" height="24" viewBox="0 0 24 24" fill="none" xmlns="http://www.w3.org/2000/svg">
<g clip-path="url(#clip0_406_3600)">
<path d="M21.379 19.9649L23.5 22.0869L22.086 23.5009L19.964 21.3799L17.843 23.5009L16.429 22.0869L18.55 19.9649L16.429 17.8439L17.843 16.4299L19.964 18.5509L22.086 16.4299L23.5 17.8439L21.379 19.9649Z" fill="#374957"/>
<path d="M12.0168 0.000727217C5.39978 -0.0192728 0.0197813 5.33673 -0.000218735 11.9637C-0.0202187 18.5907 5.32678 23.9807 11.9428 24.0007C13.0398 24.0037 14.1328 23.8567 15.1898 23.5617C13.2218 20.9037 13.7788 17.1507 16.4328 15.1797C18.5488 13.6087 21.4418 13.6087 23.5578 15.1797C25.3288 8.81273 21.6118 2.21373 15.2558 0.439727C14.2018 0.145727 13.1118 -0.00227278 12.0168 0.000727217V0.000727217ZM13.0168 11.4147L9.72378 14.7077L8.30978 13.2937L11.0168 10.5867V6.00073H13.0168V11.4147Z" fill="#374957"/>
</g>
<defs>
<clipPath id="clip0_406_3600">
<rect width="24" height="24" fill="white"/>
</clipPath>
</defs>
</svg>
