<svg width="24" height="24" viewBox="0 0 24 24" fill="none" xmlns="http://www.w3.org/2000/svg">
<g clip-path="url(#clip0_406_4015)">
<path d="M21.0166 13.4249C20.2065 13.4252 19.4317 13.7564 18.8716 14.3417L16.5974 13.3752C16.7528 12.9101 16.8347 12.4236 16.84 11.9332C16.8345 9.29934 14.7007 7.16545 12.0668 7.16001C11.6686 7.16498 11.2726 7.22043 10.8884 7.3251L9.5807 4.99715C10.6879 3.7837 10.6017 1.90242 9.38827 0.795229C8.17482 -0.311958 6.29354 -0.225802 5.18635 0.987651C4.07917 2.2011 4.16532 4.08239 5.37877 5.18957C5.92913 5.69174 6.64792 5.96906 7.39299 5.96671C7.53601 5.96264 7.6786 5.94834 7.8196 5.92396L9.10538 8.21114C7.17413 9.71498 6.7157 12.447 8.05027 14.4989L4.28738 18.1395C2.74768 17.4564 0.945759 18.1509 0.262697 19.6906C-0.420366 21.2303 0.274087 23.0322 1.81379 23.7153C3.35349 24.3983 5.15542 23.7039 5.83848 22.1642C6.2184 21.3078 6.18367 20.3243 5.74421 19.4969L9.44448 15.917C11.4104 17.2251 14.04 16.8816 15.6039 15.1124L18.0582 16.1546C18.0512 16.2391 18.0333 16.3207 18.0333 16.4062C18.0333 18.0538 19.369 19.3895 21.0166 19.3895C22.6642 19.3895 23.9999 18.0538 23.9999 16.4062C23.9999 14.7585 22.6642 13.4229 21.0166 13.4229V13.4249V13.4249Z" fill="#374957"/>
</g>
<defs>
<clipPath id="clip0_406_4015">
<rect width="24" height="24" fill="white"/>
</clipPath>
</defs>
</svg>
