<svg width="24" height="24" viewBox="0 0 24 24" fill="none" xmlns="http://www.w3.org/2000/svg">
<g clip-path="url(#clip0_406_3787)">
<path d="M23.124 0.875447C22.8135 0.562037 22.4368 0.322055 22.0215 0.173077C21.6063 0.0240987 21.1629 -0.030101 20.724 0.0144474C18.452 0.235447 12.71 1.21445 8.461 5.46045C4.77341 9.14734 1.96266 13.6167 0.237 18.5374L0 19.1454L1.72 20.8654L15.586 6.99945L17 8.41345L3.134 22.2795L4.854 23.9994L5.463 23.7614C10.3834 22.0363 14.8525 19.2258 18.539 15.5384C22.787 11.2904 23.764 5.54745 23.985 3.27545C24.0286 2.83658 23.974 2.39351 23.8251 1.97839C23.6761 1.56326 23.4367 1.1865 23.124 0.875447V0.875447Z" fill="#374957"/>
</g>
<defs>
<clipPath id="clip0_406_3787">
<rect width="24" height="24" fill="white"/>
</clipPath>
</defs>
</svg>
