<svg width="24" height="24" viewBox="0 0 24 24" fill="none" xmlns="http://www.w3.org/2000/svg">
<g clip-path="url(#clip0_406_4005)">
<path d="M11.9997 16.9191L16.1837 24.0001H7.81574L11.9997 16.9191ZM23.5917 19.6001L11.9997 -0.0129395L0.407736 19.6001C0.145333 20.0427 0.00481539 20.5469 0.00047014 21.0615C-0.00387511 21.576 0.128107 22.0825 0.382997 22.5295C0.637887 22.9765 1.0066 23.348 1.45163 23.6063C1.89667 23.8646 2.40217 24.0005 2.91674 24.0001H5.49174L11.9997 12.9871L18.5077 24.0001H21.0827C21.5973 24.0005 22.1028 23.8646 22.5478 23.6063C22.9929 23.348 23.3616 22.9765 23.6165 22.5295C23.8714 22.0825 24.0033 21.576 23.999 21.0615C23.9947 20.5469 23.8541 20.0427 23.5917 19.6001V19.6001Z" fill="#374957"/>
</g>
<defs>
<clipPath id="clip0_406_4005">
<rect width="24" height="24" fill="white"/>
</clipPath>
</defs>
</svg>
