<svg width="24" height="24" viewBox="0 0 24 24" fill="none" xmlns="http://www.w3.org/2000/svg">
<g clip-path="url(#clip0_406_3701)">
<path d="M22 13.0003C21.9974 15.3864 21.0483 17.6741 19.361 19.3613C17.6738 21.0486 15.3861 21.9976 13 22.0003H11C8.61395 21.9974 6.32645 21.0482 4.63925 19.361C2.95206 17.6738 2.00291 15.3864 2 13.0003H0C0.00344047 15.9166 1.16347 18.7125 3.22563 20.7747C5.28778 22.8368 8.08367 23.9968 11 24.0003H13C15.9163 23.9968 18.7122 22.8368 20.7744 20.7747C22.8365 18.7125 23.9966 15.9166 24 13.0003H22Z" fill="#374957"/>
<path d="M9.00012 13H5.07112C5.31039 14.6672 6.14272 16.1922 7.41543 17.2952C8.68814 18.3983 10.3159 19.0056 12.0001 19.0056C13.6843 19.0056 15.3121 18.3983 16.5848 17.2952C17.8575 16.1922 18.6899 14.6672 18.9291 13H15.0001V11H19.0001V8.00004H15.0001V6.00004H18.9291C18.6899 4.3329 17.8575 2.80793 16.5848 1.70484C15.3121 0.601745 13.6843 -0.00549316 12.0001 -0.00549316C10.3159 -0.00549316 8.68814 0.601745 7.41543 1.70484C6.14272 2.80793 5.31039 4.3329 5.07112 6.00004H9.00012V8.00004H5.00012V11H9.00012V13Z" fill="#374957"/>
</g>
<defs>
<clipPath id="clip0_406_3701">
<rect width="24" height="24" fill="white"/>
</clipPath>
</defs>
</svg>
