<svg width="24" height="24" viewBox="0 0 24 24" fill="none" xmlns="http://www.w3.org/2000/svg">
<g clip-path="url(#clip0_406_3959)">
<path d="M22.9998 6H0.999817V5C0.999817 4.20435 1.31589 3.44129 1.8785 2.87868C2.44111 2.31607 3.20417 2 3.99982 2H4.17082C4.3784 1.41549 4.76172 0.909511 5.2682 0.551443C5.77469 0.193376 6.37954 0.000756748 6.99982 0L16.9998 0C17.6201 0.000756748 18.2249 0.193376 18.7314 0.551443C19.2379 0.909511 19.6212 1.41549 19.8288 2H19.9998C20.7955 2 21.5585 2.31607 22.1211 2.87868C22.6837 3.44129 22.9998 4.20435 22.9998 5V6ZM9.99982 16C10.1048 19.954 13.8948 19.953 13.9998 16C13.8998 12.046 10.1048 12.047 9.99982 16ZM8.08082 15C8.97282 9.713 15.0288 9.716 15.9188 15H21.0078L21.8828 8H2.11682L2.99182 15H8.08082ZM15.9188 17C15.0268 22.287 8.97182 22.284 8.08082 17H3.24182L4.11682 24H19.8828L20.7578 17H15.9188Z" fill="#374957"/>
</g>
<defs>
<clipPath id="clip0_406_3959">
<rect width="24" height="24" fill="white"/>
</clipPath>
</defs>
</svg>
