<svg width="24" height="24" viewBox="0 0 24 24" fill="none" xmlns="http://www.w3.org/2000/svg">
<g clip-path="url(#clip0_406_3753)">
<path d="M22 19.9996C22 20.5301 21.7893 21.0388 21.4142 21.4139C21.0391 21.7889 20.5304 21.9996 20 21.9996H16V17.9996H22V15.0996C21.9973 13.7134 21.5157 12.3707 20.6369 11.2987C19.758 10.2267 18.5358 9.49116 17.177 9.21664L15.441 8.86864L13.362 12.4066L11.638 11.3936L13.365 8.45364C13.1318 8.40583 12.907 8.3236 12.698 8.20964L9.674 10.0466L8.635 8.33764L11.685 6.48364L11.637 5.99964H8V3.99964H11.438L11.3 2.57564C11.2408 2.16129 11.0955 1.76392 10.8735 1.40907C10.6515 1.05423 10.3578 0.749761 10.0111 0.515244C9.66438 0.280727 9.27245 0.121352 8.86049 0.0473644C8.44852 -0.0266234 8.02563 -0.0135862 7.619 0.0856378L0 2.24364V17.9996H5V21.9996H0V23.9996H20C21.0609 23.9996 22.0783 23.5782 22.8284 22.8281C23.5786 22.0779 24 21.0605 24 19.9996H22ZM14 21.9996H7V17.9996H14V21.9996Z" fill="#374957"/>
</g>
<defs>
<clipPath id="clip0_406_3753">
<rect width="24" height="24" fill="white"/>
</clipPath>
</defs>
</svg>
