<svg width="24" height="24" viewBox="0 0 24 24" fill="none" xmlns="http://www.w3.org/2000/svg">
<g clip-path="url(#clip0_406_3833)">
<path d="M8.00012 0H16.0001V2H13.0001V4.056C13.6789 4.12209 14.3491 4.2578 15.0001 4.461V9.151C14.0171 9.053 13.0081 9 12.0001 9C10.9921 9 9.98312 9.053 9.00012 9.151V4.461C9.65114 4.2578 10.3213 4.12209 11.0001 4.056V2H8.00012V0ZM2.00012 14C2.00012 14.82 3.87912 15.927 7.00012 16.541V11.459C3.87912 12.073 2.00012 13.18 2.00012 14ZM17.0001 5.353V9.425C18.5519 9.66884 20.0592 10.1406 21.4731 10.825C20.6952 8.51884 19.1055 6.57409 17.0001 5.353V5.353ZM9.00012 11.16V16.84C9.9965 16.9474 10.998 17.0008 12.0001 17C13.0023 17.0008 14.0037 16.9474 15.0001 16.84V11.16C13.0058 10.9466 10.9944 10.9466 9.00012 11.16V11.16ZM17.0001 11.46V16.542C20.1211 15.928 22.0001 14.821 22.0001 14.001C22.0001 13.181 20.1211 12.073 17.0001 11.459V11.46ZM9.00012 18.85V23.54C10.9529 24.1547 13.0473 24.1547 15.0001 23.54V18.85C14.0171 18.95 13.0081 19.001 12.0001 19.001C10.9921 19.001 9.98312 18.947 9.00012 18.849V18.85ZM17.0001 22.65C19.1047 21.4299 20.6943 19.4867 21.4731 17.182C20.0588 17.864 18.5516 18.3334 17.0001 18.575V22.65ZM7.00012 22.65V18.575C5.44831 18.3312 3.94104 17.8594 2.52712 17.175C3.30506 19.4812 4.89477 21.4259 7.00012 22.647V22.65ZM2.52712 10.821C3.94126 10.138 5.44852 9.66757 7.00012 9.425V5.353C4.89552 6.57311 3.3059 8.51633 2.52712 10.821V10.821Z" fill="#374957"/>
</g>
<defs>
<clipPath id="clip0_406_3833">
<rect width="24" height="24" fill="white"/>
</clipPath>
</defs>
</svg>
