<svg width="24" height="24" viewBox="0 0 24 24" fill="none" xmlns="http://www.w3.org/2000/svg">
<g clip-path="url(#clip0_406_3826)">
<path d="M22 15.9994V20.9994C22 21.2646 21.8946 21.519 21.7071 21.7065C21.5196 21.894 21.2652 21.9994 21 21.9994H3C2.73478 21.9994 2.48043 21.894 2.29289 21.7065C2.10536 21.519 2 21.2646 2 20.9994V15.9994H0V20.9994C0 21.795 0.31607 22.5581 0.87868 23.1207C1.44129 23.6833 2.20435 23.9994 3 23.9994H21C21.7956 23.9994 22.5587 23.6833 23.1213 23.1207C23.6839 22.5581 24 21.795 24 20.9994V15.9994H22Z" fill="#374957"/>
<path d="M11.967 -0.000232767C11.5732 -0.00131837 11.183 0.0753242 10.8189 0.225302C10.4547 0.37528 10.1238 0.595645 9.84496 0.873767L5.92596 4.79277L7.33996 6.20677L10.974 2.57377L11 18.9998H13L12.974 2.58777L16.593 6.20677L18.007 4.79277L14.088 0.873767C13.8093 0.595676 13.4786 0.375322 13.1146 0.225341C12.7506 0.0753607 12.3606 -0.00129599 11.967 -0.000232767V-0.000232767Z" fill="#374957"/>
</g>
<defs>
<clipPath id="clip0_406_3826">
<rect width="24" height="24" fill="white"/>
</clipPath>
</defs>
</svg>
