<svg width="24" height="24" viewBox="0 0 24 24" fill="none" xmlns="http://www.w3.org/2000/svg">
<g clip-path="url(#clip0_406_3733)">
<path d="M21.9998 -0.000232061H20.5638C20.1697 -0.00135454 19.7793 0.0757631 19.4152 0.22665C19.0511 0.377538 18.7206 0.599193 18.4428 0.878768L9.91582 9.39977C8.30864 8.85074 6.56292 8.86207 4.96301 9.43191C3.36309 10.0018 2.00326 11.0965 1.10502 12.5379C0.206772 13.9793 -0.176961 15.6824 0.0163252 17.3697C0.209611 19.057 0.968526 20.6292 2.16945 21.8301C3.37038 23.0311 4.94255 23.79 6.62988 23.9833C8.31721 24.1765 10.0203 23.7928 11.4617 22.8946C12.9031 21.9963 13.9978 20.6365 14.5677 19.0366C15.1375 17.4367 15.1488 15.6909 14.5998 14.0838L16.9998 11.6838V7.99977H19.9998V4.99977H23.5508C23.8428 4.53022 23.9982 3.98867 23.9998 3.43577V1.99977C23.9998 1.46934 23.7891 0.960627 23.414 0.585554C23.039 0.210482 22.5302 -0.000232061 21.9998 -0.000232061V-0.000232061ZM5.49982 19.9998C5.20314 19.9998 4.91313 19.9118 4.66646 19.747C4.41979 19.5821 4.22753 19.3479 4.114 19.0738C4.00047 18.7997 3.97076 18.4981 4.02864 18.2071C4.08652 17.9162 4.22938 17.6489 4.43916 17.4391C4.64893 17.2293 4.91621 17.0865 5.20718 17.0286C5.49815 16.9707 5.79975 17.0004 6.07384 17.1139C6.34793 17.2275 6.5822 17.4197 6.74702 17.6664C6.91184 17.9131 6.99982 18.2031 6.99982 18.4998C6.99982 18.8976 6.84178 19.2791 6.56048 19.5604C6.27917 19.8417 5.89764 19.9998 5.49982 19.9998Z" fill="#374957"/>
</g>
<defs>
<clipPath id="clip0_406_3733">
<rect width="24" height="24" fill="white"/>
</clipPath>
</defs>
</svg>
