<svg width="24" height="24" viewBox="0 0 24 24" fill="none" xmlns="http://www.w3.org/2000/svg">
<g clip-path="url(#clip0_406_3583)">
<path d="M24 14C23.9956 10.9927 22.8631 8.09652 20.8263 5.884C18.7895 3.67147 15.9967 2.30367 13 2.051V0H11V2.051C8.00334 2.30367 5.21054 3.67147 3.17374 5.884C1.13694 8.09652 0.0043918 10.9927 0 14L0 15H11V21C11 21.2652 10.8946 21.5196 10.7071 21.7071C10.5196 21.8946 10.2652 22 10 22C9.73478 22 9.48043 21.8946 9.29289 21.7071C9.10536 21.5196 9 21.2652 9 21H7C7 21.7956 7.31607 22.5587 7.87868 23.1213C8.44129 23.6839 9.20435 24 10 24C10.7956 24 11.5587 23.6839 12.1213 23.1213C12.6839 22.5587 13 21.7956 13 21V15H24V14Z" fill="#374957"/>
</g>
<defs>
<clipPath id="clip0_406_3583">
<rect width="24" height="24" fill="white"/>
</clipPath>
</defs>
</svg>
