<svg width="24" height="24" viewBox="0 0 24 24" fill="none" xmlns="http://www.w3.org/2000/svg">
<g clip-path="url(#clip0_406_3779)">
<path d="M21 5H3V3C3 2.20435 3.31607 1.44129 3.87868 0.87868C4.44129 0.31607 5.20435 0 6 0L9.4 0L12.31 2H18C18.7956 2 19.5587 2.31607 20.1213 2.87868C20.6839 3.44129 21 4.20435 21 5ZM24 20H14.816C14.6666 19.5818 14.4262 19.2019 14.1122 18.8878C13.7981 18.5738 13.4182 18.3334 13 18.184V15H21V7H3V15H11V18.184C10.5818 18.3334 10.2019 18.5738 9.88785 18.8878C9.5738 19.2019 9.3334 19.5818 9.184 20H0V22H9.184C9.38765 22.5845 9.76815 23.0912 10.2727 23.4498C10.7773 23.8083 11.381 24.0009 12 24.0009C12.619 24.0009 13.2227 23.8083 13.7273 23.4498C14.2318 23.0912 14.6124 22.5845 14.816 22H24V20Z" fill="#374957"/>
</g>
<defs>
<clipPath id="clip0_406_3779">
<rect width="24" height="24" fill="white"/>
</clipPath>
</defs>
</svg>
