<svg width="24" height="24" viewBox="0 0 24 24" fill="none" xmlns="http://www.w3.org/2000/svg">
<g clip-path="url(#clip0_406_3768)">
<path d="M10.0002 15.0001C10.0002 15.1979 9.94155 15.3912 9.83167 15.5557C9.72179 15.7201 9.56561 15.8483 9.38288 15.924C9.20016 15.9997 8.99909 16.0195 8.80511 15.9809C8.61113 15.9423 8.43295 15.847 8.29309 15.7072C8.15324 15.5673 8.058 15.3892 8.01941 15.1952C7.98083 15.0012 8.00063 14.8001 8.07632 14.6174C8.15201 14.4347 8.28018 14.2785 8.44463 14.1686C8.60908 14.0587 8.80242 14.0001 9.0002 14.0001C9.26542 14.0001 9.51977 14.1054 9.7073 14.293C9.89484 14.4805 10.0002 14.7349 10.0002 15.0001ZM13.4532 11.9611L17.6932 7.76109C18.576 8.85946 19.036 10.2378 18.9898 11.6463C18.9436 13.0547 18.3942 14.4 17.4412 15.4381C17.0489 15.8301 16.5944 16.1545 16.0962 16.3981C16.0694 16.4097 16.0461 16.428 16.0286 16.4513C16.011 16.4747 15.9999 16.5021 15.9962 16.5311C16.0546 17.5028 15.911 18.4761 15.5745 19.3896C15.238 20.3031 14.716 21.137 14.0412 21.8387C13.3665 22.5405 12.5537 23.0948 11.654 23.4668C10.7544 23.8388 9.78748 24.0203 8.8142 24.0001C6.48868 23.9726 4.26861 23.0256 2.63921 21.3661C-0.634789 18.0941 -0.891789 13.0261 2.06421 10.0661C2.77247 9.36759 3.61831 8.82408 4.54796 8.47013C5.47761 8.11617 6.47073 7.9595 7.4642 8.01009C7.52104 7.99052 7.56919 7.95158 7.6002 7.90009C7.84385 7.40218 8.16823 6.94805 8.5602 6.55609C9.60678 5.59822 10.9635 5.04955 12.3817 5.01061C13.7999 4.97167 15.1846 5.44508 16.2822 6.34409L12.0472 10.5371L13.4532 11.9611ZM6.9532 19.5431L4.45321 17.0431L3.04321 18.4571L5.5432 20.9571L6.9532 19.5431ZM12.0002 15.0001C12.0002 14.4067 11.8242 13.8267 11.4946 13.3334C11.165 12.84 10.6964 12.4555 10.1482 12.2284C9.60007 12.0014 8.99687 11.942 8.41493 12.0577C7.83299 12.1735 7.29844 12.4592 6.87888 12.8788C6.45932 13.2983 6.1736 13.8329 6.05785 14.4148C5.94209 14.9968 6.0015 15.6 6.22856 16.1481C6.45563 16.6963 6.84014 17.1649 7.33349 17.4945C7.82684 17.8241 8.40686 18.0001 9.0002 18.0001C9.79585 18.0001 10.5589 17.684 11.1215 17.1214C11.6841 16.5588 12.0002 15.7957 12.0002 15.0001V15.0001ZM23.4822 0.518085C23.3181 0.353841 23.1232 0.223548 22.9087 0.134652C22.6943 0.0457557 22.4644 0 22.2322 0C22 0 21.7701 0.0457557 21.5556 0.134652C21.3411 0.223548 21.1463 0.353841 20.9822 0.518085L19.0002 2.50009V3.65609L16.2822 6.34609C16.5466 6.53541 16.7969 6.74362 17.0312 6.96909C17.2718 7.21863 17.4931 7.48607 17.6932 7.76909L20.4852 5.00009H21.5002L23.4822 3.01809C23.6464 2.85398 23.7767 2.65912 23.8656 2.44464C23.9545 2.23016 24.0003 2.00026 24.0003 1.76809C24.0003 1.53591 23.9545 1.30601 23.8656 1.09153C23.7767 0.877047 23.6464 0.682186 23.4822 0.518085V0.518085Z" fill="#374957"/>
</g>
<defs>
<clipPath id="clip0_406_3768">
<rect width="24" height="24" fill="white"/>
</clipPath>
</defs>
</svg>
