<svg width="24" height="24" viewBox="0 0 24 24" fill="none" xmlns="http://www.w3.org/2000/svg">
<g clip-path="url(#clip0_406_4034)">
<path d="M21.45 13.8642L12.192 23.1212C11.9134 23.3999 11.5826 23.6209 11.2186 23.7717C10.8546 23.9225 10.4645 24.0001 10.0705 24.0001C9.67646 24.0001 9.28631 23.9225 8.9223 23.7717C8.55829 23.6209 8.22755 23.3999 7.94897 23.1212L0.87897 16.0502C0.316557 15.4876 0.000610352 14.7247 0.000610352 13.9292C0.000610352 13.1337 0.316557 12.3708 0.87897 11.8082L7.17897 5.50823L4.31797 2.62223L5.73997 1.21623L14.709 10.2962L16.246 8.77023L10.121 2.57023L10.136 2.55423L9.03597 1.45423L10.451 0.0372314L24.028 13.6132L22.613 15.0282L21.45 13.8642ZM19 21.5002C19 22.1633 19.2634 22.7992 19.7322 23.268C20.201 23.7368 20.8369 24.0002 21.5 24.0002C22.163 24.0002 22.7989 23.7368 23.2677 23.268C23.7366 22.7992 24 22.1633 24 21.5002C24 20.1192 21.5 17.0002 21.5 17.0002C21.5 17.0002 19 20.2502 19 21.5002Z" fill="#374957"/>
</g>
<defs>
<clipPath id="clip0_406_4034">
<rect width="24" height="24" fill="white"/>
</clipPath>
</defs>
</svg>
