<svg width="24" height="24" viewBox="0 0 24 24" fill="none" xmlns="http://www.w3.org/2000/svg">
<g clip-path="url(#clip0_406_3566)">
<path d="M7.99989 2.99997C7.99989 2.40663 8.17584 1.82661 8.50548 1.33326C8.83513 0.839913 9.30366 0.455395 9.85184 0.228332C10.4 0.00126934 11.0032 -0.0581407 11.5852 0.057615C12.1671 0.173371 12.7017 0.459093 13.1212 0.878651C13.5408 1.29821 13.8265 1.83276 13.9422 2.4147C14.058 2.99664 13.9986 3.59984 13.7715 4.14802C13.5445 4.6962 13.1599 5.16474 12.6666 5.49438C12.1733 5.82402 11.5932 5.99997 10.9999 5.99997C10.2042 5.99997 9.44118 5.6839 8.87857 5.12129C8.31596 4.55868 7.99989 3.79562 7.99989 2.99997V2.99997ZM21.7209 21L19.7209 15H12.9999C12.7347 15 12.4803 14.8946 12.2928 14.7071C12.1052 14.5195 11.9999 14.2652 11.9999 14V13H18.9999V11H11.9999V7.99997H9.99989V14C9.99989 14.7956 10.316 15.5587 10.8786 16.1213C11.4412 16.6839 12.2042 17 12.9999 17H18.2799L20.2799 23H23.9999V21H21.7209ZM7.99989 14V7.99997C6.54814 7.99903 5.1235 8.39314 3.87865 9.14007C2.6338 9.887 1.61566 10.9586 0.933341 12.24C0.251027 13.5214 -0.0697388 14.9643 0.00542017 16.4141C0.0805791 17.8639 0.54883 19.266 1.35999 20.47C2.17115 21.6739 3.29464 22.6345 4.61006 23.2487C5.92547 23.8629 7.38323 24.1076 8.82709 23.9565C10.271 23.8055 11.6465 23.2644 12.8063 22.3912C13.9661 21.5181 14.8665 20.3458 15.4109 19H12.9999C11.6743 18.9984 10.4034 18.4711 9.46611 17.5338C8.52877 16.5964 8.00148 15.3256 7.99989 14V14Z" fill="#374957"/>
</g>
<defs>
<clipPath id="clip0_406_3566">
<rect width="24" height="24" fill="white"/>
</clipPath>
</defs>
</svg>
