<svg width="24" height="24" viewBox="0 0 24 24" fill="none" xmlns="http://www.w3.org/2000/svg">
<g clip-path="url(#clip0_406_3734)">
<path d="M19 19H23.414L19 23.414V19ZM10.967 6.25H10.252V7.723H10.962C11.1569 7.723 11.3439 7.64556 11.4817 7.50772C11.6196 7.36988 11.697 7.18293 11.697 6.988C11.697 6.79307 11.6196 6.60612 11.4817 6.46828C11.3439 6.33044 11.1569 6.253 10.962 6.253L10.967 6.25ZM24 3V17H17V24H0V3C0 2.20435 0.31607 1.44129 0.87868 0.87868C1.44129 0.31607 2.20435 0 3 0L21 0C21.7956 0 22.5587 0.31607 23.1213 0.87868C23.6839 1.44129 24 2.20435 24 3ZM8 5H6.75V9.068C6.75121 9.16687 6.73264 9.26499 6.69538 9.35658C6.65813 9.44818 6.60295 9.5314 6.53308 9.60137C6.46321 9.67133 6.38005 9.72663 6.28851 9.764C6.19697 9.80137 6.09887 9.82007 6 9.819C5.80435 9.81678 5.61712 9.73909 5.47738 9.60214C5.33763 9.46519 5.25617 9.27956 5.25 9.084C5.25 9.054 5.25 9 5.25 9H4V9.084C4.00422 9.61166 4.2168 10.1163 4.59141 10.4879C4.96603 10.8595 5.47233 11.068 6 11.068C6.26163 11.0692 6.52093 11.0188 6.76307 10.9197C7.00521 10.8206 7.22545 10.6748 7.4112 10.4905C7.59694 10.3063 7.74455 10.0872 7.84558 9.84586C7.94661 9.60452 7.99908 9.34563 8 9.084V5ZM12.979 6.985C12.975 6.45509 12.7609 5.94841 12.3837 5.57623C12.0064 5.20405 11.4969 4.99681 10.967 5H9V11.069H10.25V8.969H10.967C11.4967 8.9722 12.0061 8.76509 12.3833 8.39312C12.7605 8.02116 12.9748 7.51474 12.979 6.985V6.985ZM15.251 9.068V7C15.2499 6.9013 15.2686 6.80337 15.3058 6.71196C15.3431 6.62055 15.3982 6.53749 15.4679 6.46764C15.5377 6.3978 15.6207 6.34257 15.712 6.3052C15.8034 6.26783 15.9013 6.24906 16 6.25C16.1972 6.25554 16.3847 6.33634 16.5242 6.47581C16.6637 6.61528 16.7445 6.80284 16.75 7H18C17.9966 6.47062 17.7848 5.96389 17.4104 5.58955C17.0361 5.21522 16.5294 5.00341 16 5C15.7383 4.99882 15.4789 5.04924 15.2367 5.14839C14.9945 5.24755 14.7742 5.39348 14.5885 5.57784C14.4027 5.7622 14.2551 5.98138 14.1541 6.22284C14.0532 6.46429 14.0008 6.72328 14 6.985V9.085C14.0008 9.34672 14.0532 9.60571 14.1541 9.84716C14.2551 10.0886 14.4027 10.3078 14.5885 10.4922C14.7742 10.6765 14.9945 10.8225 15.2367 10.9216C15.4789 11.0208 15.7383 11.0712 16 11.07C16.5277 11.07 17.034 10.8615 17.4086 10.4899C17.7832 10.1183 17.9958 9.61366 18 9.086V8H16V9H16.749V9.084C16.7428 9.27956 16.6614 9.46519 16.5216 9.60214C16.3819 9.73909 16.1946 9.81678 15.999 9.819C15.9003 9.81981 15.8024 9.80091 15.7111 9.76341C15.6198 9.72592 15.5369 9.67058 15.4672 9.60065C15.3976 9.53071 15.3426 9.44757 15.3054 9.35611C15.2683 9.26465 15.2498 9.1667 15.251 9.068V9.068Z" fill="#374957"/>
</g>
<defs>
<clipPath id="clip0_406_3734">
<rect width="24" height="24" fill="white"/>
</clipPath>
</defs>
</svg>
