<svg width="24" height="24" viewBox="0 0 24 24" fill="none" xmlns="http://www.w3.org/2000/svg">
<g clip-path="url(#clip0_406_3643)">
<path d="M2.14318 8.03893C3.53848 5.25641 5.55762 2.83378 8.04318 0.959934C8.8674 0.355959 9.85799 0.0211716 10.8796 0.00130459C11.9012 -0.0185624 12.9041 0.27746 13.7512 0.848934L23.3322 7.99993H2.67318C2.49585 8.00126 2.3188 8.01429 2.14318 8.03893V8.03893ZM24.0002 9.99993V23.9999H15.0002C15.0002 23.2043 14.6841 22.4412 14.1215 21.8786C13.5589 21.316 12.7958 20.9999 12.0002 20.9999C11.2045 20.9999 10.4415 21.316 9.87886 21.8786C9.31625 22.4412 9.00018 23.2043 9.00018 23.9999H4.83318C-0.528819 23.9219 -0.647819 14.8419 0.884181 11.1309C1.04453 10.7922 1.29784 10.5061 1.61458 10.3059C1.93132 10.1056 2.29845 9.99953 2.67318 9.99993H24.0002ZM9.00018 14.9999C9.00018 14.4695 8.78947 13.9608 8.41439 13.5857C8.03932 13.2106 7.53061 12.9999 7.00018 12.9999C6.46975 12.9999 5.96104 13.2106 5.58597 13.5857C5.21089 13.9608 5.00018 14.4695 5.00018 14.9999C5.00018 15.5304 5.21089 16.0391 5.58597 16.4141C5.96104 16.7892 6.46975 16.9999 7.00018 16.9999C7.53061 16.9999 8.03932 16.7892 8.41439 16.4141C8.78947 16.0391 9.00018 15.5304 9.00018 14.9999ZM20.0002 17.9999C20.0002 17.4695 19.7895 16.9608 19.4144 16.5857C19.0393 16.2106 18.5306 15.9999 18.0002 15.9999C17.4698 15.9999 16.961 16.2106 16.586 16.5857C16.2109 16.9608 16.0002 17.4695 16.0002 17.9999C16.0002 18.5304 16.2109 19.0391 16.586 19.4141C16.961 19.7892 17.4698 19.9999 18.0002 19.9999C18.5306 19.9999 19.0393 19.7892 19.4144 19.4141C19.7895 19.0391 20.0002 18.5304 20.0002 17.9999Z" fill="#374957"/>
</g>
<defs>
<clipPath id="clip0_406_3643">
<rect width="24" height="24" fill="white"/>
</clipPath>
</defs>
</svg>
