<svg width="24" height="24" viewBox="0 0 24 24" fill="none" xmlns="http://www.w3.org/2000/svg">
<g clip-path="url(#clip0_406_3744)">
<path d="M24 12C24 14.3734 23.2962 16.6935 21.9776 18.6668C20.6591 20.6402 18.7849 22.1783 16.5922 23.0866C14.3995 23.9948 11.9867 24.2324 9.65892 23.7694C7.33115 23.3064 5.19295 22.1635 3.51472 20.4853C1.83649 18.8071 0.693605 16.6689 0.230582 14.3411C-0.232441 12.0133 0.00519943 9.60051 0.913451 7.4078C1.8217 5.21509 3.35977 3.34094 5.33316 2.02236C7.30655 0.703788 9.62663 0 12 0C15.1815 0.00344108 18.2318 1.26883 20.4815 3.51852C22.7312 5.76821 23.9966 8.81846 24 12ZM14 12C14 11.4696 13.7893 10.9609 13.4142 10.5858C13.0391 10.2107 12.5304 10 12 10H10V12H12V19H14V12ZM12 5C11.7033 5 11.4133 5.08797 11.1667 5.2528C10.92 5.41762 10.7277 5.65189 10.6142 5.92598C10.5007 6.20006 10.4709 6.50166 10.5288 6.79264C10.5867 7.08361 10.7296 7.35088 10.9393 7.56066C11.1491 7.77044 11.4164 7.9133 11.7074 7.97118C11.9983 8.02906 12.2999 7.99935 12.574 7.88582C12.8481 7.77229 13.0824 7.58003 13.2472 7.33336C13.412 7.08668 13.5 6.79667 13.5 6.5C13.5 6.10218 13.342 5.72064 13.0607 5.43934C12.7794 5.15804 12.3978 5 12 5Z" fill="#374957"/>
</g>
<defs>
<clipPath id="clip0_406_3744">
<rect width="24" height="24" fill="white"/>
</clipPath>
</defs>
</svg>
