<svg width="24" height="24" viewBox="0 0 24 24" fill="none" xmlns="http://www.w3.org/2000/svg">
<g clip-path="url(#clip0_406_3588)">
<path d="M22.907 22.0006L18.24 15.0006H20.907L16.907 9.00061H19.1L13.716 0.70061C13.2659 0.265647 12.6645 0.022522 12.0385 0.022522C11.4126 0.022522 10.8112 0.265647 10.361 0.70061L4.94604 9.00061H7.17004L3.17004 15.0006H5.83604L1.17004 22.0006H11.039V24.0006H13.039V22.0006H22.907ZM13 18.0006C12.8023 18.0006 12.6089 17.942 12.4445 17.8321C12.28 17.7222 12.1519 17.566 12.0762 17.3833C12.0005 17.2006 11.9807 16.9995 12.0193 16.8055C12.0578 16.6115 12.1531 16.4334 12.2929 16.2935C12.4328 16.1537 12.611 16.0584 12.805 16.0198C12.9989 15.9812 13.2 16.001 13.3827 16.0767C13.5655 16.1524 13.7216 16.2806 13.8315 16.445C13.9414 16.6095 14 16.8028 14 17.0006C14 17.2658 13.8947 17.5202 13.7072 17.7077C13.5196 17.8953 13.2653 18.0006 13 18.0006ZM16 18.0006C16.1978 18.0006 16.3912 18.0593 16.5556 18.1691C16.7201 18.279 16.8482 18.4352 16.9239 18.6179C16.9996 18.8007 17.0194 19.0017 16.9808 19.1957C16.9422 19.3897 16.847 19.5679 16.7072 19.7077C16.5673 19.8476 16.3891 19.9428 16.1951 19.9814C16.0012 20.02 15.8001 20.0002 15.6174 19.9245C15.4346 19.8488 15.2785 19.7206 15.1686 19.5562C15.0587 19.3917 15 19.1984 15 19.0006C15 18.7354 15.1054 18.481 15.2929 18.2935C15.4805 18.106 15.7348 18.0006 16 18.0006V18.0006ZM15 11.0006C15.1978 11.0006 15.3912 11.0593 15.5556 11.1691C15.7201 11.279 15.8482 11.4352 15.9239 11.6179C15.9996 11.8007 16.0194 12.0017 15.9808 12.1957C15.9422 12.3897 15.847 12.5679 15.7072 12.7077C15.5673 12.8476 15.3891 12.9428 15.1951 12.9814C15.0012 13.02 14.8001 13.0002 14.6174 12.9245C14.4346 12.8488 14.2785 12.7206 14.1686 12.5562C14.0587 12.3917 14 12.1984 14 12.0006C14 11.7354 14.1054 11.481 14.2929 11.2935C14.4805 11.106 14.7348 11.0006 15 11.0006V11.0006ZM13 5.00061C13.1978 5.00061 13.3912 5.05926 13.5556 5.16914C13.7201 5.27902 13.8482 5.4352 13.9239 5.61793C13.9996 5.80065 14.0194 6.00172 13.9808 6.1957C13.9422 6.38968 13.847 6.56786 13.7072 6.70772C13.5673 6.84757 13.3891 6.94281 13.1951 6.9814C13.0012 7.01998 12.8001 7.00018 12.6174 6.92449C12.4346 6.8488 12.2785 6.72063 12.1686 6.55618C12.0587 6.39173 12 6.19839 12 6.00061C12 5.73539 12.1054 5.48104 12.2929 5.2935C12.4805 5.10597 12.7348 5.00061 13 5.00061V5.00061ZM8.00004 20.0006C7.80226 20.0006 7.60892 19.942 7.44447 19.8321C7.28002 19.7222 7.15185 19.566 7.07616 19.3833C7.00048 19.2006 6.98067 18.9995 7.01926 18.8055C7.05784 18.6115 7.15308 18.4334 7.29294 18.2935C7.43279 18.1537 7.61097 18.0584 7.80495 18.0198C7.99893 17.9812 8.2 18.001 8.38273 18.0767C8.56545 18.1524 8.72163 18.2806 8.83151 18.445C8.94139 18.6095 9.00004 18.8028 9.00004 19.0006C9.00004 19.2658 8.89469 19.5202 8.70715 19.7077C8.51961 19.8953 8.26526 20.0006 8.00004 20.0006V20.0006ZM9.00004 15.0006C8.80226 15.0006 8.60892 14.942 8.44447 14.8321C8.28002 14.7222 8.15185 14.566 8.07616 14.3833C8.00048 14.2006 7.98067 13.9995 8.01926 13.8055C8.05784 13.6115 8.15308 13.4334 8.29294 13.2935C8.43279 13.1537 8.61097 13.0584 8.80495 13.0198C8.99893 12.9812 9.2 13.001 9.38273 13.0767C9.56545 13.1524 9.72163 13.2806 9.83151 13.445C9.94139 13.6095 10 13.8028 10 14.0006C10 14.2658 9.89469 14.5202 9.70715 14.7077C9.51961 14.8953 9.26526 15.0006 9.00004 15.0006ZM10 10.0006C10 9.80283 10.0587 9.60949 10.1686 9.44504C10.2785 9.28059 10.4346 9.15242 10.6174 9.07673C10.8001 9.00104 11.0012 8.98124 11.1951 9.01982C11.3891 9.05841 11.5673 9.15365 11.7072 9.2935C11.847 9.43336 11.9422 9.61154 11.9808 9.80552C12.0194 9.9995 11.9996 10.2006 11.9239 10.3833C11.8482 10.566 11.7201 10.7222 11.5556 10.8321C11.3912 10.942 11.1978 11.0006 11 11.0006C10.7348 11.0006 10.4805 10.8953 10.2929 10.7077C10.1054 10.5202 10 10.2658 10 10.0006Z" fill="#374957"/>
</g>
<defs>
<clipPath id="clip0_406_3588">
<rect width="24" height="24" fill="white"/>
</clipPath>
</defs>
</svg>
