<svg width="24" height="24" viewBox="0 0 24 24" fill="none" xmlns="http://www.w3.org/2000/svg">
<g clip-path="url(#clip0_406_4030)">
<path d="M21.0005 6.99992C20.5795 6.99901 20.163 7.08672 19.7782 7.25733C19.3933 7.42794 19.0487 7.67765 18.7667 7.9902C18.4846 8.30275 18.2716 8.67116 18.1413 9.07148C18.011 9.47179 17.9664 9.89503 18.0105 10.3137C18.0545 10.7324 18.1861 11.1371 18.3969 11.5015C18.6076 11.866 18.8926 12.182 19.2335 12.429C19.5744 12.6761 19.9634 12.8486 20.3754 12.9354C20.7873 13.0222 21.2129 13.0214 21.6245 12.9329C21.0112 15.3548 19.6586 17.5255 17.7545 19.143C15.8504 20.7604 13.4896 21.7444 11.0005 21.9579V19.9289C12.6645 19.7617 14.2601 19.1797 15.6411 18.2363C17.0222 17.293 18.1445 16.0183 18.9055 14.5289C18.0386 14.132 17.304 13.4944 16.7889 12.6921C16.2739 11.8897 16.0001 10.9563 16.0001 10.0029C16.0001 9.04949 16.2739 8.11612 16.7889 7.31378C17.304 6.51144 18.0386 5.87389 18.9055 5.47692C18.1204 3.92785 16.9454 2.60994 15.4962 1.65293C14.0471 0.695923 12.3736 0.132815 10.6407 0.0190434C8.9078 -0.0947283 7.17512 0.244759 5.61326 1.00408C4.05141 1.76341 2.71422 2.91639 1.73335 4.34952C0.752482 5.78265 0.161744 7.44651 0.0192958 9.17732C-0.123153 10.9081 0.1876 12.6462 0.920959 14.2204C1.65432 15.7946 2.785 17.1507 4.20169 18.1552C5.61839 19.1596 7.27225 19.7778 9.00045 19.9489V23.9999H10.0005C13.7123 23.996 17.2709 22.5197 19.8956 19.895C22.5202 17.2704 23.9965 13.7117 24.0005 9.99992C24.0005 9.20427 23.6844 8.44121 23.1218 7.8786C22.5592 7.31599 21.7961 6.99992 21.0005 6.99992ZM10.0005 7.99992C10.396 7.99992 10.7827 8.11722 11.1116 8.33698C11.4405 8.55674 11.6968 8.8691 11.8482 9.23455C11.9996 9.6 12.0392 10.0021 11.962 10.3901C11.8849 10.7781 11.6944 11.1344 11.4147 11.4141C11.135 11.6938 10.7786 11.8843 10.3906 11.9615C10.0027 12.0387 9.60054 11.9991 9.23509 11.8477C8.86963 11.6963 8.55728 11.44 8.33751 11.1111C8.11775 10.7822 8.00045 10.3955 8.00045 9.99992C8.00045 9.46949 8.21117 8.96078 8.58624 8.5857C8.96131 8.21063 9.47002 7.99992 10.0005 7.99992V7.99992Z" fill="#374957"/>
</g>
<defs>
<clipPath id="clip0_406_4030">
<rect width="24" height="24" fill="white"/>
</clipPath>
</defs>
</svg>
