<svg width="24" height="24" viewBox="0 0 24 24" fill="none" xmlns="http://www.w3.org/2000/svg">
<g clip-path="url(#clip0_406_3630)">
<path d="M0 3V11H11V0H3C2.20435 0 1.44129 0.31607 0.87868 0.87868C0.31607 1.44129 0 2.20435 0 3H0Z" fill="#374957"/>
<path d="M0 21C0 21.7956 0.31607 22.5587 0.87868 23.1213C1.44129 23.6839 2.20435 24 3 24H11V13H0V21Z" fill="#374957"/>
<path d="M12.9998 13V24H20.9998C21.7955 24 22.5585 23.6839 23.1212 23.1213C23.6838 22.5587 23.9998 21.7956 23.9998 21V13H12.9998Z" fill="#374957"/>
<path d="M16.9998 11H18.9998V7H22.9998V5H18.9998V1H16.9998V5H12.9998V7H16.9998V11Z" fill="#374957"/>
</g>
<defs>
<clipPath id="clip0_406_3630">
<rect width="24" height="24" fill="white"/>
</clipPath>
</defs>
</svg>
