<svg width="24" height="24" viewBox="0 0 24 24" fill="none" xmlns="http://www.w3.org/2000/svg">
<g clip-path="url(#clip0_406_3719)">
<path d="M12.0002 0C9.34888 0.0029116 6.80703 1.05742 4.9323 2.93215C3.05757 4.80688 2.00306 7.34873 2.00015 10C2.00015 15.282 10.4002 22.533 11.3542 23.343L12.0002 23.889L12.6462 23.343C13.6002 22.533 22.0002 15.282 22.0002 10C21.9972 7.34873 20.9427 4.80688 19.068 2.93215C17.1933 1.05742 14.6514 0.0029116 12.0002 0V0ZM12.0002 15C11.0112 15 10.0445 14.7068 9.2223 14.1573C8.40006 13.6079 7.75919 12.827 7.38075 11.9134C7.00232 10.9998 6.9033 9.99445 7.09623 9.02455C7.28915 8.05464 7.76536 7.16373 8.46462 6.46447C9.16388 5.7652 10.0548 5.289 11.0247 5.09607C11.9946 4.90315 12.9999 5.00216 13.9136 5.3806C14.8272 5.75904 15.6081 6.3999 16.1575 7.22215C16.7069 8.04439 17.0002 9.01109 17.0002 10C16.9986 11.3256 16.4713 12.5964 15.5339 13.5338C14.5966 14.4711 13.3257 14.9984 12.0002 15V15Z" fill="#374957"/>
<path d="M12 13.0003C13.6569 13.0003 15 11.6572 15 10.0003C15 8.34345 13.6569 7.00031 12 7.00031C10.3431 7.00031 9 8.34345 9 10.0003C9 11.6572 10.3431 13.0003 12 13.0003Z" fill="#374957"/>
</g>
<defs>
<clipPath id="clip0_406_3719">
<rect width="24" height="24" fill="white"/>
</clipPath>
</defs>
</svg>
