<svg width="24" height="24" viewBox="0 0 24 24" fill="none" xmlns="http://www.w3.org/2000/svg">
<g clip-path="url(#clip0_406_3568)">
<path d="M15.7608 0.611913C17.8109 1.29417 19.6393 2.51609 21.0539 4.14925C22.4685 5.7824 23.4171 7.76647 23.7998 9.89291C22.6319 10.6903 21.3377 11.2847 19.9718 11.6509C19.6736 7.63958 18.21 3.80275 15.7608 0.611913V0.611913ZM12.9768 11.2999C14.5704 11.9237 16.2884 12.1635 17.9918 11.9999C17.6916 7.50885 15.81 3.26938 12.6808 0.0339128C12.4538 0.0219128 12.2298 -8.72113e-05 11.9998 -8.72113e-05C10.3887 -0.00146138 8.79401 0.323399 7.31183 0.954913C8.97017 2.14531 10.3401 3.69282 11.3206 5.48329C12.3011 7.27376 12.8671 9.26151 12.9768 11.2999V11.2999ZM16.9338 14.0649C15.2933 14.0631 13.6684 13.7457 12.1478 13.1299C10.9997 14.0082 10.0075 15.0734 9.21283 16.2809C13.5106 18.3072 18.4353 18.552 22.9128 16.9619C23.6075 15.4468 23.9761 13.8026 23.9948 12.1359C21.851 13.3873 19.4161 14.0536 16.9338 14.0679V14.0649ZM16.6548 19.9999C13.7287 20.0258 10.8388 19.352 8.22583 18.0349C7.4871 19.5519 7.06486 21.2035 6.98483 22.8889C9.42224 24.0227 12.1711 24.3001 14.7859 23.6761C17.4007 23.0521 19.7281 21.5632 21.3908 19.4509C19.8371 19.8069 18.2488 19.991 16.6548 19.9999V19.9999ZM8.63983 5.00591C7.7348 3.81101 6.60622 2.80334 5.31683 2.03891C3.17209 3.47589 1.54833 5.56663 0.686959 8.00031C-0.174417 10.434 -0.227419 13.0807 0.535831 15.5469C2.04394 11.2589 4.88352 7.56546 8.63983 5.00591V5.00591ZM10.9678 11.5199C10.8957 9.84642 10.4607 8.20861 9.69283 6.71991C5.7308 9.42825 2.92972 13.5251 1.84383 18.1999L1.72583 18.1729C2.58096 19.5944 3.72001 20.8244 5.07183 21.7859C5.62297 17.7259 7.73875 14.0419 10.9678 11.5199V11.5199Z" fill="#374957"/>
</g>
<defs>
<clipPath id="clip0_406_3568">
<rect width="24" height="24" fill="white"/>
</clipPath>
</defs>
</svg>
