<svg width="24" height="24" viewBox="0 0 24 24" fill="none" xmlns="http://www.w3.org/2000/svg">
<g clip-path="url(#clip0_406_3798)">
<path d="M18.974 3C19.6358 2.13961 19.9963 1.08547 20 0H18C18 0.795649 17.6839 1.55871 17.1213 2.12132C16.5587 2.68393 15.7956 3 15 3H9C8.20435 3 7.44129 2.68393 6.87868 2.12132C6.31607 1.55871 6 0.795649 6 0L4 0C4.00368 1.08547 4.36419 2.13961 5.026 3H0V4C0.1071 5.45365 0.703111 6.82825 1.691 7.9C3.10149 6.54849 4.58897 5.27971 6.146 4.1C6.81876 4.56393 7.59585 4.85421 8.408 4.945C8.408 4.945 5.577 7.077 4.538 8H6C7.3256 8.00159 8.59644 8.52888 9.53378 9.46622C10.4711 10.4036 10.9984 11.6744 11 13V18H9V13C8.99706 12.6472 8.93137 12.2978 8.806 11.968V11.968C8.56292 12.0183 8.31116 12.0075 8.07327 11.9366C7.83539 11.8657 7.61883 11.7368 7.443 11.5616C7.26718 11.3864 7.13759 11.1703 7.06586 10.9326C6.99413 10.695 6.98249 10.4432 7.032 10.2V10.2C6.70258 10.0727 6.35314 10.005 6 10H3.435L6.021 21.2C6.07018 21.9574 6.40516 22.6678 6.95819 23.1876C7.51122 23.7074 8.24103 23.9978 9 24H15C15.759 23.9978 16.4888 23.7074 17.0418 23.1876C17.5948 22.6678 17.9298 21.9574 17.979 21.2L20.565 10H18C17.6472 10.003 17.2978 10.0687 16.968 10.194V10.194C17.0183 10.4371 17.0075 10.6888 16.9366 10.9267C16.8657 11.1646 16.7368 11.3812 16.5616 11.557C16.3864 11.7328 16.1703 11.8624 15.9326 11.9341C15.695 12.0059 15.4432 12.0175 15.2 11.968V11.968C15.0726 12.2974 15.0049 12.6469 15 13V18H13V13C13.0016 11.6744 13.5289 10.4036 14.4662 9.46622C15.4036 8.52888 16.6744 8.00159 18 8H19.462C18.423 7.077 15.592 4.94 15.592 4.94C16.4037 4.85071 17.1808 4.56215 17.854 4.1C19.411 5.27971 20.8985 6.54849 22.309 7.9C23.2969 6.82825 23.8929 5.45365 24 4V3H18.974ZM15 20C15.2652 20 15.5196 20.1054 15.7071 20.2929C15.8946 20.4804 16 20.7348 16 21C16 21.2652 15.8946 21.5196 15.7071 21.7071C15.5196 21.8946 15.2652 22 15 22H9C8.73478 22 8.48043 21.8946 8.29289 21.7071C8.10536 21.5196 8 21.2652 8 21C8 20.7348 8.10536 20.4804 8.29289 20.2929C8.48043 20.1054 8.73478 20 9 20H15Z" fill="#374957"/>
</g>
<defs>
<clipPath id="clip0_406_3798">
<rect width="24" height="24" fill="white"/>
</clipPath>
</defs>
</svg>
