<svg width="24" height="24" viewBox="0 0 24 24" fill="none" xmlns="http://www.w3.org/2000/svg">
<g clip-path="url(#clip0_406_3567)">
<path d="M2 5.99942C1.46957 5.99942 0.960859 6.21013 0.585786 6.5852C0.210714 6.96028 0 7.46899 0 7.99942L0 15.9994C0 16.5299 0.210714 17.0386 0.585786 17.4136C0.960859 17.7887 1.46957 17.9994 2 17.9994H4.8L12 23.9764V0.0164185L4.8 5.99942H2Z" fill="#374957"/>
<path d="M19.9997 11.9994C19.9981 10.6738 19.4708 9.40295 18.5335 8.46561C17.5961 7.52827 16.3253 7.00098 14.9997 6.99939H13.9997V8.99939H14.9997C15.7953 8.99939 16.5584 9.31546 17.121 9.87807C17.6836 10.4407 17.9997 11.2037 17.9997 11.9994C17.9997 12.795 17.6836 13.5581 17.121 14.1207C16.5584 14.6833 15.7953 14.9994 14.9997 14.9994H13.9997V16.9994H14.9997C16.3253 16.9978 17.5961 16.4705 18.5335 15.5332C19.4708 14.5958 19.9981 13.325 19.9997 11.9994V11.9994Z" fill="#374957"/>
<path d="M14.9997 3H13.9997V5H14.9997C16.8562 5 18.6367 5.7375 19.9494 7.05025C21.2622 8.36301 21.9997 10.1435 21.9997 12C21.9997 13.8565 21.2622 15.637 19.9494 16.9497C18.6367 18.2625 16.8562 19 14.9997 19H13.9997V21H14.9997C17.3866 21 19.6758 20.0518 21.3636 18.364C23.0515 16.6761 23.9997 14.3869 23.9997 12C23.9997 9.61305 23.0515 7.32387 21.3636 5.63604C19.6758 3.94821 17.3866 3 14.9997 3V3Z" fill="#374957"/>
</g>
<defs>
<clipPath id="clip0_406_3567">
<rect width="24" height="24" fill="white"/>
</clipPath>
</defs>
</svg>
