<svg width="24" height="24" viewBox="0 0 24 24" fill="none" xmlns="http://www.w3.org/2000/svg">
<g clip-path="url(#clip0_406_3636)">
<path d="M24 9V11H18L13 6H21C21.7956 6 22.5587 6.31607 23.1213 6.87868C23.6839 7.44129 24 8.20435 24 9ZM0 9V11H6L11 6H3C2.20435 6 1.44129 6.31607 0.87868 6.87868C0.31607 7.44129 0 8.20435 0 9H0ZM17 2.5L13 0H11V6H13V5L17 2.5ZM17.172 13H24V24H15V20C15 19.2044 14.6839 18.4413 14.1213 17.8787C13.5587 17.3161 12.7956 17 12 17C11.2044 17 10.4413 17.3161 9.87868 17.8787C9.31607 18.4413 9 19.2044 9 20V24H0V13H6.828L12 8L17.172 13ZM6 20H3V22H6V20ZM6 16H3V18H6V16ZM14 13C14 12.6044 13.8827 12.2178 13.6629 11.8889C13.4432 11.56 13.1308 11.3036 12.7654 11.1522C12.3999 11.0009 11.9978 10.9613 11.6098 11.0384C11.2219 11.1156 10.8655 11.3061 10.5858 11.5858C10.3061 11.8655 10.1156 12.2219 10.0384 12.6098C9.96126 12.9978 10.0009 13.3999 10.1522 13.7654C10.3036 14.1308 10.56 14.4432 10.8889 14.6629C11.2178 14.8827 11.6044 15 12 15C12.5304 15 13.0391 14.7893 13.4142 14.4142C13.7893 14.0391 14 13.5304 14 13ZM18 18H21V16H18V18ZM18 22H21V20H18V22ZM12 19C11.7348 19 11.4804 19.1054 11.2929 19.2929C11.1054 19.4804 11 19.7348 11 20V24H13V20C13 19.7348 12.8946 19.4804 12.7071 19.2929C12.5196 19.1054 12.2652 19 12 19Z" fill="#374957"/>
</g>
<defs>
<clipPath id="clip0_406_3636">
<rect width="24" height="24" fill="white"/>
</clipPath>
</defs>
</svg>
