<svg width="24" height="24" viewBox="0 0 24 24" fill="none" xmlns="http://www.w3.org/2000/svg">
<g clip-path="url(#clip0_406_3771)">
<path d="M7 0H11V5H7V0ZM0 11H5V7H0V11ZM11 11V7H7V11H11ZM5 17V13H0V17H5ZM17 11V7H13V11H17ZM19 5H24V3C24 2.20435 23.6839 1.44129 23.1213 0.87868C22.5587 0.31607 21.7956 0 21 0L19 0V5ZM11 13H7V17H11V13ZM13 0V5H17V0H13ZM24 13H19V17H24V13ZM11 24V19H7V24H11ZM5 5V0H3C2.20435 0 1.44129 0.31607 0.87868 0.87868C0.31607 1.44129 0 2.20435 0 3L0 5H5ZM5 19H0V24H5V19ZM19 7V11H24V7H19ZM17 19H13V24H17V19ZM13 13V17H17V13H13ZM19 19V24H24V19H19Z" fill="#374957"/>
</g>
<defs>
<clipPath id="clip0_406_3771">
<rect width="24" height="24" fill="white"/>
</clipPath>
</defs>
</svg>
