<svg width="24" height="24" viewBox="0 0 24 24" fill="none" xmlns="http://www.w3.org/2000/svg">
<g clip-path="url(#clip0_406_3832)">
<path d="M16.9998 0H6.99982V6H16.9998V0Z" fill="#374957"/>
<path d="M11.9998 16C13.1044 16 13.9998 15.1046 13.9998 14C13.9998 12.8954 13.1044 12 11.9998 12C10.8952 12 9.99982 12.8954 9.99982 14C9.99982 15.1046 10.8952 16 11.9998 16Z" fill="#374957"/>
<path d="M19 0V8H5V0H3C2.20435 0 1.44129 0.31607 0.87868 0.87868C0.31607 1.44129 0 2.20435 0 3L0 24H24V5L19 0ZM12 18C11.2089 18 10.4355 17.7654 9.77772 17.3259C9.11992 16.8864 8.60723 16.2616 8.30448 15.5307C8.00173 14.7998 7.92252 13.9956 8.07686 13.2196C8.2312 12.4437 8.61216 11.731 9.17157 11.1716C9.73098 10.6122 10.4437 10.2312 11.2196 10.0769C11.9956 9.92252 12.7998 10.0017 13.5307 10.3045C14.2616 10.6072 14.8864 11.1199 15.3259 11.7777C15.7654 12.4355 16 13.2089 16 14C16 15.0609 15.5786 16.0783 14.8284 16.8284C14.0783 17.5786 13.0609 18 12 18Z" fill="#374957"/>
</g>
<defs>
<clipPath id="clip0_406_3832">
<rect width="24" height="24" fill="white"/>
</clipPath>
</defs>
</svg>
