<svg width="24" height="24" viewBox="0 0 24 24" fill="none" xmlns="http://www.w3.org/2000/svg">
<g clip-path="url(#clip0_406_3760)">
<path d="M12.0001 9.00698C11.0111 9.0068 10.0442 9.29994 9.2218 9.84934C8.39938 10.3987 7.75838 11.1797 7.37986 12.0934C7.00135 13.0072 6.90233 14.0127 7.09533 14.9827C7.28834 15.9527 7.76469 16.8437 8.46414 17.543L12.0001 21.2L15.5431 17.531C16.2389 16.8307 16.7118 15.9401 16.9022 14.9714C17.0926 14.0028 16.9921 12.9995 16.6132 12.0879C16.2343 11.1763 15.594 10.3973 14.7731 9.84905C13.9522 9.30078 12.9873 9.00778 12.0001 9.00698ZM12.0001 15.994C11.6046 15.994 11.2179 15.8767 10.889 15.6569C10.5601 15.4372 10.3038 15.1248 10.1524 14.7594C10.001 14.3939 9.9614 13.9918 10.0386 13.6038C10.1157 13.2158 10.3062 12.8595 10.5859 12.5798C10.8656 12.3001 11.222 12.1096 11.61 12.0324C11.9979 11.9552 12.4001 11.9948 12.7655 12.1462C13.131 12.2976 13.4433 12.5539 13.6631 12.8828C13.8828 13.2117 14.0001 13.5984 14.0001 13.994C14.0001 14.5244 13.7894 15.0331 13.4144 15.4082C13.0393 15.7833 12.5306 15.994 12.0001 15.994ZM22.8491 7.68098L13.8491 0.636984C13.3212 0.223397 12.6698 -0.00134277 11.9991 -0.00134277C11.3285 -0.00134277 10.6771 0.223397 10.1491 0.636984L1.14914 7.67898C0.789946 7.95947 0.49967 8.31839 0.300519 8.72831C0.101369 9.13822 -0.00137819 9.58826 0.000138623 10.044V24H24.0001V10.044C24.0013 9.58839 23.8982 9.13857 23.6987 8.72898C23.4992 8.31939 23.2086 7.9609 22.8491 7.68098V7.68098ZM16.9491 18.957L12.1051 23.9L7.05814 18.965C6.07732 17.9872 5.40858 16.7405 5.13652 15.3826C4.86447 14.0246 5.00133 12.6165 5.5298 11.3364C6.05827 10.0563 6.95458 8.96166 8.10534 8.19109C9.25609 7.42052 10.6096 7.00862 11.9945 7.0075C13.3794 7.00638 14.7335 7.41609 15.8855 8.1848C17.0375 8.95351 17.9356 10.0467 18.4661 11.3259C18.9967 12.6052 19.1358 14.0131 18.866 15.3715C18.5961 16.7298 17.9294 17.9776 16.9501 18.957H16.9491Z" fill="#374957"/>
</g>
<defs>
<clipPath id="clip0_406_3760">
<rect width="24" height="24" fill="white"/>
</clipPath>
</defs>
</svg>
