<svg width="24" height="24" viewBox="0 0 24 24" fill="none" xmlns="http://www.w3.org/2000/svg">
<g clip-path="url(#clip0_406_3696)">
<path d="M0 22H20V24H0V22ZM24 8C24 10.774 21.815 14 19 14H17.965L16.828 20H3.172L0.065 3.618C-0.0231696 3.18163 -0.0137706 2.73115 0.0925243 2.29884C0.198819 1.86652 0.399381 1.46305 0.67985 1.11731C0.960319 0.771575 1.31376 0.492123 1.71486 0.298963C2.11597 0.105803 2.55482 0.00371203 3 0L17 0C17.4494 1.04118e-05 17.8931 0.100997 18.2983 0.295499C18.7034 0.490001 19.0597 0.773047 19.3408 1.12373C19.6219 1.47441 19.8206 1.88376 19.9222 2.32154C20.0238 2.75933 20.0258 3.21435 19.928 3.653L19.852 4.053C22.46 4.307 24 5.734 24 8ZM22 8C22 7.533 22 6.169 19.479 6.015L18.345 12H19C20.545 12 22 9.746 22 8Z" fill="#374957"/>
</g>
<defs>
<clipPath id="clip0_406_3696">
<rect width="24" height="24" fill="white"/>
</clipPath>
</defs>
</svg>
