<svg width="24" height="24" viewBox="0 0 24 24" fill="none" xmlns="http://www.w3.org/2000/svg">
<g clip-path="url(#clip0_406_4037)">
<path d="M24 22H14.816C14.6124 22.5845 14.2318 23.0912 13.7273 23.4498C13.2227 23.8083 12.619 24.0009 12 24.0009C11.381 24.0009 10.7773 23.8083 10.2727 23.4498C9.76815 23.0912 9.38765 22.5845 9.184 22H0V20H9.184C9.3334 19.5818 9.5738 19.2019 9.88785 18.8878C10.2019 18.5738 10.5818 18.3334 11 18.184V14H5C4.20435 14 3.44129 13.6839 2.87868 13.1213C2.31607 12.5587 2 11.7956 2 11V10H8.586L9.586 11H14.414L15.414 10H22V11C22 11.7956 21.6839 12.5587 21.1213 13.1213C20.5587 13.6839 19.7956 14 19 14H13V18.184C13.4182 18.3334 13.7981 18.5738 14.1122 18.8878C14.4262 19.2019 14.6666 19.5818 14.816 20H24V22ZM10.414 9H13.586L14.586 8H21V3C21 2.20435 20.6839 1.44129 20.1213 0.87868C19.5587 0.31607 18.7956 0 18 0L6 0C5.20435 0 4.44129 0.31607 3.87868 0.87868C3.31607 1.44129 3 2.20435 3 3V8H9.414L10.414 9Z" fill="#374957"/>
</g>
<defs>
<clipPath id="clip0_406_4037">
<rect width="24" height="24" fill="white"/>
</clipPath>
</defs>
</svg>
