<svg width="24" height="24" viewBox="0 0 24 24" fill="none" xmlns="http://www.w3.org/2000/svg">
<path d="M13.0406 9.99975C12.5996 3.78875 21.6996 3.27175 21.9996 9.49975V9.52275V9.53776C21.9996 9.69276 21.9806 9.84575 21.9666 9.99975H13.0406ZM10.9656 9.99975C11.3786 3.38576 1.61956 3.38875 2.03356 9.99975H10.9656ZM2.63256 11.9998C2.67656 12.0838 11.9996 23.9898 11.9996 23.9898C11.9996 23.9898 21.3236 12.0838 21.3666 11.9998H2.63256ZM12.0236 6.09075C12.5254 5.28699 13.1973 4.60305 13.9921 4.08713C14.7869 3.57122 15.6851 3.23588 16.6236 3.10475C16.241 2.19847 15.6007 1.42455 14.782 0.879133C13.9633 0.333718 13.0025 0.0408472 12.0188 0.0369056C11.0351 0.0329639 10.0719 0.318125 9.2489 0.856963C8.4259 1.3958 7.77935 2.16457 7.38956 3.06775C8.3368 3.19969 9.24326 3.53904 10.0443 4.06158C10.8453 4.58412 11.5211 5.27699 12.0236 6.09075V6.09075Z" fill="#374957"/>
</svg>
