<svg width="24" height="24" viewBox="0 0 24 24" fill="none" xmlns="http://www.w3.org/2000/svg">
<g clip-path="url(#clip0_406_3590)">
<path d="M20.832 18.555L21 18.3V8.861C18.972 12.658 15.625 16 12 16C8.37499 16 5.02799 12.658 2.99999 8.861V18.3L3.16799 18.552C3.57984 19.1031 4.08071 19.5817 4.64999 19.968L2.99999 24H5.16199L6.40799 20.954C8.18025 21.6834 10.0839 22.0395 12 22C13.9161 22.0395 15.8197 21.6834 17.592 20.954L18.838 24H21L19.35 19.968C19.919 19.5826 20.4199 19.105 20.832 18.555V18.555ZM12 20C11.8022 20 11.6089 19.9414 11.4444 19.8315C11.28 19.7216 11.1518 19.5654 11.0761 19.3827C11.0004 19.2 10.9806 18.9989 11.0192 18.8049C11.0578 18.6109 11.153 18.4327 11.2929 18.2929C11.4327 18.153 11.6109 18.0578 11.8049 18.0192C11.9989 17.9806 12.2 18.0004 12.3827 18.0761C12.5654 18.1518 12.7216 18.28 12.8315 18.4444C12.9413 18.6089 13 18.8022 13 19C13 19.2652 12.8946 19.5196 12.7071 19.7071C12.5196 19.8946 12.2652 20 12 20ZM12 14C15.779 14 20.081 8.05 20.863 3.407C20.7315 2.98272 20.5064 2.59336 20.2044 2.26763C19.9024 1.94191 19.5311 1.68813 19.118 1.525C16.8576 0.58883 14.4456 0.0720694 12 0C9.55442 0.0719582 7.14239 0.588724 4.88199 1.525C4.46884 1.68813 4.09756 1.94191 3.79555 2.26763C3.49354 2.59336 3.26849 2.98272 3.13699 3.407C3.91899 8.05 8.22099 14 12 14ZM8.99999 3H15V5H8.99999V3Z" fill="#374957"/>
</g>
<defs>
<clipPath id="clip0_406_3590">
<rect width="24" height="24" fill="white"/>
</clipPath>
</defs>
</svg>
