<svg width="24" height="24" viewBox="0 0 24 24" fill="none" xmlns="http://www.w3.org/2000/svg">
<g clip-path="url(#clip0_406_3776)">
<path d="M4.99987 8.00014C4.99987 6.41789 5.46906 4.87118 6.34811 3.55558C7.22716 2.23999 8.47659 1.21461 9.9384 0.609107C11.4002 0.00360621 13.0087 -0.15482 14.5606 0.153861C16.1124 0.462543 17.5379 1.22447 18.6567 2.34329C19.7755 3.46211 20.5375 4.88757 20.8462 6.43942C21.1548 7.99127 20.9964 9.5998 20.3909 11.0616C19.7854 12.5234 18.76 13.7729 17.4444 14.6519C16.1288 15.531 14.5821 16.0001 12.9999 16.0001C10.8789 15.9978 8.84542 15.1541 7.34565 13.6544C5.84587 12.1546 5.00225 10.1211 4.99987 8.00014V8.00014ZM22.9069 14.7731L21.2559 13.6431C20.4819 14.7732 19.4841 15.7323 18.3242 16.4608C17.1643 17.1894 15.8671 17.6719 14.5131 17.8784C13.1591 18.0849 11.777 18.0111 10.4527 17.6615C9.12836 17.3118 7.88997 16.6939 6.81432 15.8459C5.73866 14.9979 4.84868 13.938 4.19955 12.7319C3.55043 11.5258 3.156 10.1992 3.04073 8.83432C2.92545 7.46947 3.09179 6.09549 3.52943 4.79759C3.96707 3.49968 4.66668 2.30552 5.58487 1.28914L4.09987 -0.0528564C2.59885 1.6055 1.5915 3.65057 1.19165 5.85133C0.791805 8.05209 1.01538 10.3208 1.83713 12.4012C2.65888 14.4815 4.04604 16.2907 5.8419 17.6241C7.63776 18.9576 9.77074 19.7622 11.9999 19.9471V22.0001H7.99987V24.0001H17.9999V22.0001H13.9999V19.9391C15.775 19.7935 17.4954 19.2544 19.036 18.3608C20.5767 17.4672 21.899 16.2416 22.9069 14.7731V14.7731Z" fill="#374957"/>
</g>
<defs>
<clipPath id="clip0_406_3776">
<rect width="24" height="24" fill="white"/>
</clipPath>
</defs>
</svg>
