<svg width="24" height="24" viewBox="0 0 24 24" fill="none" xmlns="http://www.w3.org/2000/svg">
<g clip-path="url(#clip0_406_3921)">
<path d="M17.6129 12.848L23.8779 19.113L20.7069 22.284C20.1541 22.8342 19.4976 23.2692 18.7754 23.5637C18.0533 23.8583 17.2798 24.0066 16.4999 24C9.25191 24 -9.42942e-05 14.748 -9.42942e-05 7.5C-0.00669212 6.7201 0.14159 5.94664 0.436156 5.22447C0.730722 4.5023 1.16571 3.84579 1.71591 3.293L4.88691 0.122L11.1519 6.387L7.02691 10.512C8.25382 13.4261 10.5688 15.7469 13.4799 16.981L17.6129 12.848ZM21.5289 0H16.9999V2H20.6149L14.9999 7.62L16.4139 9.034L21.9999 3.443V7H23.9999V2.5C24.0031 1.841 23.7447 1.20765 23.2815 0.738954C22.8182 0.270254 22.1879 0.00449512 21.5289 0Z" fill="#374957"/>
</g>
<defs>
<clipPath id="clip0_406_3921">
<rect width="24" height="24" fill="white"/>
</clipPath>
</defs>
</svg>
