<svg width="24" height="24" viewBox="0 0 24 24" fill="none" xmlns="http://www.w3.org/2000/svg">
<g clip-path="url(#clip0_406_3989)">
<path d="M8 0H3C2.20435 0 1.44129 0.31607 0.87868 0.87868C0.31607 1.44129 0 2.20435 0 3L0 8H3L2.979 11L4.979 11.01L5 8H8V4.984L11 5L11.01 3L8 2.984V0Z" fill="#374957"/>
<path d="M21.0001 0H16.0001V3L13.0051 2.984L12.9951 4.984L16.0001 5V8H19.0151L19.0001 11L21.0001 11.01L21.0151 8H24.0001V3C24.0001 2.20435 23.684 1.44129 23.1214 0.87868C22.5588 0.31607 21.7957 0 21.0001 0V0Z" fill="#374957"/>
<path d="M21.0208 13.0051L19.0208 12.9951L19.0048 16.0001H15.9998V19.0161L13.0048 19.0001L12.9998 21.0001L15.9998 21.0161V24.0001H20.9998C21.7955 24.0001 22.5585 23.684 23.1212 23.1214C23.6838 22.5588 23.9998 21.7957 23.9998 21.0001V16.0001H20.9998L21.0208 13.0051Z" fill="#374957"/>
<path d="M8 15.9994H4.985L5 13.0044L3 12.9994L2.985 15.9994H0V20.9994C0 21.795 0.31607 22.5581 0.87868 23.1207C1.44129 23.6833 2.20435 23.9994 3 23.9994H8V20.9994L11 21.0204L11.01 19.0204L8 19.0044V15.9994Z" fill="#374957"/>
</g>
<defs>
<clipPath id="clip0_406_3989">
<rect width="24" height="24" fill="white"/>
</clipPath>
</defs>
</svg>
