<svg width="24" height="24" viewBox="0 0 24 24" fill="none" xmlns="http://www.w3.org/2000/svg">
<g clip-path="url(#clip0_406_4003)">
<path d="M2 14H24V22H22V19H2V22H0V2H2V14ZM5.5 12C5.99445 12 6.4778 11.8534 6.88893 11.5787C7.30005 11.304 7.62048 10.9135 7.8097 10.4567C7.99892 9.99989 8.04843 9.49723 7.95196 9.01227C7.8555 8.52732 7.6174 8.08187 7.26777 7.73223C6.91814 7.3826 6.47268 7.1445 5.98773 7.04804C5.50277 6.95157 5.00011 7.00108 4.54329 7.1903C4.08648 7.37952 3.69603 7.69995 3.42133 8.11108C3.14662 8.5222 3 9.00555 3 9.5C3 9.82831 3.06466 10.1534 3.1903 10.4567C3.31594 10.76 3.50009 11.0356 3.73223 11.2678C4.20107 11.7366 4.83696 12 5.5 12V12ZM21 6H12C11.2044 6 10.4413 6.31607 9.87868 6.87868C9.31607 7.44129 9 8.20435 9 9V12H24V9C24 8.20435 23.6839 7.44129 23.1213 6.87868C22.5587 6.31607 21.7956 6 21 6Z" fill="#374957"/>
</g>
<defs>
<clipPath id="clip0_406_4003">
<rect width="24" height="24" fill="white"/>
</clipPath>
</defs>
</svg>
