<svg width="24" height="24" viewBox="0 0 24 24" fill="none" xmlns="http://www.w3.org/2000/svg">
<g clip-path="url(#clip0_406_3991)">
<path d="M22 12C22.0003 14.3178 21.1955 16.5638 19.7231 18.3539C18.2508 20.144 16.2023 21.367 13.928 21.8138C11.6536 22.2607 9.29468 21.9037 7.25447 20.8037C5.21427 19.7038 3.6195 17.9293 2.74285 15.7837C1.8662 13.638 1.76212 11.2545 2.44839 9.0406C3.13467 6.8267 4.56868 4.91995 6.50524 3.64637C8.4418 2.37278 10.7606 1.81145 13.0653 2.05836C15.3699 2.30527 17.5172 3.34508 19.14 5H15V7H20.143C20.6353 6.99947 21.1074 6.80365 21.4555 6.45551C21.8037 6.10737 21.9995 5.63534 22 5.143V0H20V3.06C17.9519 1.22815 15.3372 0.154659 12.5928 0.0189227C9.84836 -0.116813 7.14048 0.693425 4.92164 2.31424C2.7028 3.93506 1.10741 6.26827 0.402084 8.92398C-0.303246 11.5797 -0.0757952 14.397 1.04643 16.9052C2.16865 19.4134 4.11767 21.4604 6.56778 22.7043C9.0179 23.9482 11.8207 24.3135 14.5078 23.7393C17.1949 23.1651 19.6035 21.686 21.3312 19.5494C23.0589 17.4127 24.001 14.7478 24 12H22Z" fill="#374957"/>
</g>
<defs>
<clipPath id="clip0_406_3991">
<rect width="24" height="24" fill="white"/>
</clipPath>
</defs>
</svg>
