<svg width="24" height="24" viewBox="0 0 24 24" fill="none" xmlns="http://www.w3.org/2000/svg">
<g clip-path="url(#clip0_406_3758)">
<path d="M12 13.9996C11.2044 13.9996 10.4413 14.3157 9.87868 14.8783C9.31607 15.4409 9 16.204 9 16.9996V24.0256H15V16.9996C15 16.204 14.6839 15.4409 14.1213 14.8783C13.5587 14.3157 12.7956 13.9996 12 13.9996Z" fill="#374957"/>
<path d="M13.338 0.833055C12.9707 0.502491 12.4941 0.31958 12 0.31958C11.5059 0.31958 11.0293 0.502491 10.662 0.833055L0 10.4291V20.8291C0 21.6778 0.337142 22.4917 0.937258 23.0918C1.53737 23.6919 2.35131 24.0291 3.2 24.0291H7V17.0001C7 15.674 7.52678 14.4022 8.46447 13.4645C9.40215 12.5268 10.6739 12.0001 12 12.0001C13.3261 12.0001 14.5979 12.5268 15.5355 13.4645C16.4732 14.4022 17 15.674 17 17.0001V24.0261H20.8C21.6487 24.0261 22.4626 23.6889 23.0627 23.0888C23.6629 22.4887 24 21.6748 24 20.8261V10.4261L13.338 0.833055Z" fill="#374957"/>
</g>
<defs>
<clipPath id="clip0_406_3758">
<rect width="24" height="24" fill="white"/>
</clipPath>
</defs>
</svg>
