<svg width="24" height="24" viewBox="0 0 24 24" fill="none" xmlns="http://www.w3.org/2000/svg">
<g clip-path="url(#clip0_406_3942)">
<path d="M19.9442 2.64258L12.0002 0.00958252L4.05615 2.64258C3.45763 2.841 2.93684 3.22296 2.56775 3.73422C2.19867 4.24547 2.00007 4.86002 2.00015 5.49058V12.0006C2.00015 19.5246 11.2002 23.6796 11.5942 23.8526L11.9482 24.0096L12.3162 23.8876C12.7122 23.7556 22.0002 20.5776 22.0002 12.0006V5.49058C22.0002 4.86002 21.8016 4.24547 21.4326 3.73422C21.0635 3.22296 20.5427 2.841 19.9442 2.64258V2.64258ZM16.0002 13.0006H13.0002V16.0006H11.0002V13.0006H8.00015V11.0006H11.0002V8.00058H13.0002V11.0006H16.0002V13.0006Z" fill="#374957"/>
</g>
<defs>
<clipPath id="clip0_406_3942">
<rect width="24" height="24" fill="white"/>
</clipPath>
</defs>
</svg>
