<svg width="24" height="24" viewBox="0 0 24 24" fill="none" xmlns="http://www.w3.org/2000/svg">
<g clip-path="url(#clip0_406_3813)">
<path d="M18 8.2V0H20V8.2L22.242 5.958L23.656 7.372L20.747 10.281C20.2835 10.744 19.6551 11.0041 19 11.0041C18.3449 11.0041 17.7165 10.744 17.253 10.281L14.382 7.406L15.8 5.992L18 8.2ZM12 15.426C12.7955 15.4269 13.5588 15.1118 14.122 14.55L16.463 12.209C16.2398 12.0566 16.0307 11.8845 15.838 11.695L12.968 8.82C12.5931 8.44494 12.3824 7.93633 12.3824 7.406C12.3824 6.87567 12.5931 6.36706 12.968 5.992L15.96 3H3C2.40116 3.0009 1.81629 3.181 1.32067 3.51711C0.825055 3.85323 0.441369 4.32998 0.219 4.886L9.878 14.546C10.4412 15.1078 11.2045 15.4229 12 15.422V15.426ZM22.161 11.695C21.7076 12.1868 21.1401 12.5593 20.5085 12.7797C19.877 13.0002 19.2009 13.0618 18.54 12.959L15.54 15.964C14.6014 16.9003 13.3297 17.426 12.004 17.426C10.6783 17.426 9.40663 16.9003 8.468 15.964L0 7.5V24H24V9.852L22.161 11.695Z" fill="#374957"/>
</g>
<defs>
<clipPath id="clip0_406_3813">
<rect width="24" height="24" fill="white"/>
</clipPath>
</defs>
</svg>
