<svg width="24" height="24" viewBox="0 0 24 24" fill="none" xmlns="http://www.w3.org/2000/svg">
<g clip-path="url(#clip0_406_3981)">
<path d="M12.0001 18.9999C14.2092 18.9999 16.0001 17.209 16.0001 14.9999C16.0001 12.7907 14.2092 10.9999 12.0001 10.9999C9.79098 10.9999 8.00012 12.7907 8.00012 14.9999C8.00012 17.209 9.79098 18.9999 12.0001 18.9999Z" fill="#374957"/>
<path d="M21 4.99988H3C2.20435 4.99988 1.44129 5.31595 0.87868 5.87856C0.31607 6.44116 0 7.20423 0 7.99987L0 23.9998H24V7.99987C24 7.20423 23.6839 6.44116 23.1213 5.87856C22.5587 5.31595 21.7956 4.99988 21 4.99988ZM12 20.9999C10.8133 20.9999 9.65327 20.648 8.66658 19.9887C7.67988 19.3294 6.91085 18.3923 6.45672 17.296C6.0026 16.1996 5.88378 14.9932 6.11529 13.8293C6.3468 12.6654 6.91824 11.5963 7.75736 10.7572C8.59647 9.91812 9.66557 9.34667 10.8295 9.11516C11.9933 8.88365 13.1997 9.00247 14.2961 9.45659C15.3925 9.91072 16.3295 10.6798 16.9888 11.6664C17.6481 12.6531 18 13.8132 18 14.9999C17.9984 16.5907 17.3658 18.1159 16.2409 19.2407C15.116 20.3656 13.5908 20.9983 12 20.9999V20.9999Z" fill="#374957"/>
<path d="M17.7201 3L15.4062 0H8.59315L6.28015 3H17.7201Z" fill="#374957"/>
</g>
<defs>
<clipPath id="clip0_406_3981">
<rect width="24" height="24" fill="white"/>
</clipPath>
</defs>
</svg>
