<svg width="24" height="24" viewBox="0 0 24 24" fill="none" xmlns="http://www.w3.org/2000/svg">
<g clip-path="url(#clip0_406_3607)">
<path d="M7 21.0006V24.0006H5V21.0006H2V24.0006H0V15.0006H2V19.0006H5C5.53043 19.0006 6.03914 19.2113 6.41421 19.5864C6.78929 19.9615 7 20.4702 7 21.0006ZM22 19.0006H19C18.4696 19.0006 17.9609 19.2113 17.5858 19.5864C17.2107 19.9615 17 20.4702 17 21.0006V24.0006H19V21.0006H22V24.0006H24V15.0006H22V19.0006ZM24 9.54661V13.0006H13V24.0006H11V13.0006H0V9.54661C0.000943922 9.07388 0.113033 8.60801 0.327218 8.18658C0.541402 7.76516 0.85168 7.40001 1.233 7.12061L10.233 0.575609C10.7459 0.202469 11.3638 0.00146484 11.998 0.00146484C12.6322 0.00146484 13.2501 0.202469 13.763 0.575609L22.763 7.12061C23.1451 7.39959 23.4561 7.76455 23.671 8.186C23.8859 8.60744 23.9986 9.07354 24 9.54661ZM20 9.70861C20.0011 9.11801 19.8271 8.54035 19.5 8.04861L12 0.125609L4.5 8.04861C4.17289 8.54035 3.99889 9.11801 4 9.70861V11.0006H6V9.70861C6.00001 9.53581 6.0448 9.36595 6.13 9.21561L11 4.08361V11.0006H13V4.08361L17.87 9.21561C17.9552 9.36595 18 9.53581 18 9.70861V11.0006H20V9.70861Z" fill="#374957"/>
</g>
<defs>
<clipPath id="clip0_406_3607">
<rect width="24" height="24" fill="white"/>
</clipPath>
</defs>
</svg>
