<svg width="24" height="24" viewBox="0 0 24 24" fill="none" xmlns="http://www.w3.org/2000/svg">
<g clip-path="url(#clip0_406_3815)">
<path d="M18.5 11C19.5878 11 20.6512 10.6774 21.5556 10.0731C22.4601 9.46874 23.1651 8.60976 23.5813 7.60476C23.9976 6.59977 24.1065 5.4939 23.8943 4.42701C23.6821 3.36011 23.1583 2.3801 22.3891 1.61092C21.6199 0.841726 20.6399 0.317902 19.573 0.105683C18.5061 -0.106535 17.4002 0.00238308 16.3952 0.418665C15.3902 0.834947 14.5313 1.5399 13.9269 2.44437C13.3226 3.34884 13 4.41221 13 5.5C13.0016 6.95821 13.5816 8.35623 14.6127 9.38734C15.6438 10.4184 17.0418 10.9984 18.5 11V11ZM18.5 9C17.9217 8.99614 17.3536 8.84689 16.848 8.566L21.566 3.848C21.8469 4.35357 21.9961 4.92166 22 5.5C22 6.42826 21.6313 7.3185 20.9749 7.97488C20.3185 8.63125 19.4283 9 18.5 9V9ZM18.5 2C19.0783 2.00387 19.6464 2.15311 20.152 2.434L15.434 7.152C15.1531 6.64643 15.0039 6.07835 15 5.5C15 4.57175 15.3688 3.68151 16.0251 3.02513C16.6815 2.36875 17.5717 2 18.5 2V2ZM9.878 14.546L0.219 4.886C0.441369 4.32998 0.825055 3.85323 1.32067 3.51711C1.81629 3.181 2.40116 3.0009 3 3H11.436C11.1021 3.93393 10.9575 4.92501 11.0106 5.91541C11.0637 6.90582 11.3135 7.87574 11.7454 8.76859C12.1773 9.66145 12.7827 10.4594 13.5262 11.1158C14.2697 11.7722 15.1365 12.2741 16.076 12.592L14.122 14.546C13.5583 15.1071 12.7953 15.4221 12 15.4221C11.2047 15.4221 10.4417 15.1071 9.878 14.546V14.546ZM18.5 13C19.5338 13 20.5564 12.7856 21.503 12.3703C22.4497 11.9549 23.3 11.3477 24 10.587V24H0V7.5L8.464 15.96C9.40263 16.8963 10.6743 17.422 12 17.422C13.3257 17.422 14.5974 16.8963 15.536 15.96L18.5 13Z" fill="#374957"/>
</g>
<defs>
<clipPath id="clip0_406_3815">
<rect width="24" height="24" fill="white"/>
</clipPath>
</defs>
</svg>
