<svg width="24" height="24" viewBox="0 0 24 24" fill="none" xmlns="http://www.w3.org/2000/svg">
<g clip-path="url(#clip0_406_3730)">
<path d="M12.0001 0L2.00012 5.522V21C2.00012 21.7956 2.31619 22.5587 2.8788 23.1213C3.44141 23.6839 4.20447 24 5.00012 24H19.0001C19.795 23.9976 20.5567 23.6808 21.1188 23.1187C21.6809 22.5566 21.9977 21.7949 22.0001 21V5.522L12.0001 0ZM12.0001 8.5C11.7035 8.5 11.4134 8.41203 11.1668 8.2472C10.9201 8.08238 10.7278 7.84811 10.6143 7.57403C10.5008 7.29994 10.4711 6.99834 10.5289 6.70736C10.5868 6.41639 10.7297 6.14912 10.9395 5.93934C11.1492 5.72956 11.4165 5.5867 11.7075 5.52882C11.9985 5.47094 12.3001 5.50065 12.5741 5.61418C12.8482 5.72771 13.0825 5.91997 13.2473 6.16664C13.4121 6.41332 13.5001 6.70333 13.5001 7C13.5001 7.39782 13.3421 7.77936 13.0608 8.06066C12.7795 8.34196 12.3979 8.5 12.0001 8.5V8.5Z" fill="#374957"/>
</g>
<defs>
<clipPath id="clip0_406_3730">
<rect width="24" height="24" fill="white"/>
</clipPath>
</defs>
</svg>
