<svg width="24" height="24" viewBox="0 0 24 24" fill="none" xmlns="http://www.w3.org/2000/svg">
<g clip-path="url(#clip0_406_3602)">
<path d="M21 15V3C21 2.20435 20.6839 1.44129 20.1213 0.87868C19.5587 0.31607 18.7956 0 18 0L14 0V1C14 1.53043 13.7893 2.03914 13.4142 2.41421C13.0391 2.78929 12.5304 3 12 3C11.4696 3 10.9609 2.78929 10.5858 2.41421C10.2107 2.03914 10 1.53043 10 1V0H6C5.20435 0 4.44129 0.31607 3.87868 0.87868C3.31607 1.44129 3 2.20435 3 3V15H7V17H3V24H10V23C10 22.4696 10.2107 21.9609 10.5858 21.5858C10.9609 21.2107 11.4696 21 12 21C12.5304 21 13.0391 21.2107 13.4142 21.5858C13.7893 21.9609 14 22.4696 14 23V24H21V17H17V15H21ZM14 17H10V15H14V17Z" fill="#374957"/>
</g>
<defs>
<clipPath id="clip0_406_3602">
<rect width="24" height="24" fill="white"/>
</clipPath>
</defs>
</svg>
