<svg width="24" height="24" viewBox="0 0 24 24" fill="none" xmlns="http://www.w3.org/2000/svg">
<g clip-path="url(#clip0_406_3884)">
<path d="M23.9998 11.4999C23.9998 10.8103 23.7958 10.136 23.4134 9.56216C23.031 8.98827 22.4873 8.54038 21.8508 8.27491C21.4497 5.95473 20.2407 3.85127 18.4378 2.3368C16.6349 0.822333 14.3544 -0.00547033 11.9998 -9.56659e-05V-9.56659e-05C9.64537 -0.0055108 7.36492 0.822151 5.56204 2.33642C3.75916 3.85068 2.55009 5.95392 2.1488 8.27391C1.42386 8.57997 0.823214 9.12141 0.443815 9.8108C0.0644156 10.5002 -0.0715974 11.2973 0.0577307 12.0735C0.187059 12.8497 0.574182 13.5597 1.15661 14.0888C1.73904 14.618 2.48279 14.9354 3.2678 14.9899C3.6539 15.8184 4.14858 16.5919 4.7388 17.2899C4.22133 17.5296 3.7829 17.9119 3.47491 18.3918C3.16691 18.8718 3.0021 19.4296 2.9998 19.9999V23.9999H20.9998V19.9999C20.9978 19.4296 20.8332 18.8716 20.5254 18.3914C20.2176 17.9113 19.7792 17.5288 19.2618 17.2889C19.8514 16.5907 20.3457 15.8172 20.7318 14.9889C21.6169 14.9289 22.4464 14.5355 23.0529 13.888C23.6594 13.2405 23.9978 12.3871 23.9998 11.4999ZM20.2478 12.9729L19.4128 12.8249L19.1308 13.6249C18.2148 16.2209 15.1298 18.9999 11.9998 18.9999C8.8698 18.9999 5.7858 16.2199 4.8688 13.6239L4.5888 12.8309L3.7588 12.9709C3.67342 12.9877 3.58679 12.9974 3.4998 12.9999C3.13025 12.9932 2.77619 12.8503 2.50553 12.5985C2.23488 12.3468 2.06669 12.0041 2.03323 11.636C1.99977 11.2679 2.10339 10.9004 2.32421 10.604C2.54504 10.3076 2.86752 10.1032 3.2298 10.0299L3.9678 9.89591L4.0458 9.15191C4.18806 7.7866 4.68059 6.48119 5.47565 5.36219C6.27071 4.24318 7.34134 3.34852 8.5838 2.7649C8.46998 3.27657 8.47255 3.80727 8.59131 4.31782C8.71006 4.82836 8.94198 5.30571 9.26993 5.71463C9.59788 6.12354 10.0135 6.45357 10.4861 6.68034C10.9586 6.90712 11.4761 7.02486 12.0003 7.02486C12.5245 7.02486 13.042 6.90712 13.5145 6.68034C13.9871 6.45357 14.4027 6.12354 14.7307 5.71463C15.0586 5.30571 15.2905 4.82836 15.4093 4.31782C15.528 3.80727 15.5306 3.27657 15.4168 2.7649C16.6588 3.34815 17.7292 4.24234 18.524 5.36082C19.3189 6.4793 19.8114 7.78415 19.9538 9.14891L20.0318 9.89291L20.7698 10.0259C21.1363 10.095 21.4639 10.2982 21.6887 10.5958C21.9135 10.8934 22.0194 11.2641 21.9857 11.6355C21.952 12.007 21.7811 12.3526 21.5063 12.6048C21.2316 12.8571 20.8728 12.9979 20.4998 12.9999C20.4152 12.9976 20.331 12.9885 20.2478 12.9729V12.9729Z" fill="#374957"/>
<path d="M9.49963 12.9999C10.3281 12.9999 10.9996 12.3283 10.9996 11.4999C10.9996 10.6715 10.3281 9.99988 9.49963 9.99988C8.67121 9.99988 7.99963 10.6715 7.99963 11.4999C7.99963 12.3283 8.67121 12.9999 9.49963 12.9999Z" fill="#374957"/>
<path d="M14.5004 12.9999C15.3288 12.9999 16.0004 12.3283 16.0004 11.4999C16.0004 10.6715 15.3288 9.99988 14.5004 9.99988C13.6719 9.99988 13.0004 10.6715 13.0004 11.4999C13.0004 12.3283 13.6719 12.9999 14.5004 12.9999Z" fill="#374957"/>
</g>
<defs>
<clipPath id="clip0_406_3884">
<rect width="24" height="24" fill="white"/>
</clipPath>
</defs>
</svg>
