<svg width="24" height="24" viewBox="0 0 24 24" fill="none" xmlns="http://www.w3.org/2000/svg">
<g clip-path="url(#clip0_406_3638)">
<path d="M17 5V7H12.087L13.887 3.453L12.103 2.547L9.842 7H7V5C7 3.67392 7.52678 2.40215 8.46447 1.46447C9.40215 0.526784 10.6739 0 12 0C13.3261 0 14.5979 0.526784 15.5355 1.46447C16.4732 2.40215 17 3.67392 17 5V5ZM21 2H18.315C18.7645 2.93631 18.9985 3.9614 19 5V9H5V5C5.00147 3.9614 5.23553 2.93631 5.685 2H3C2.20435 2 1.44129 2.31607 0.87868 2.87868C0.31607 3.44129 0 4.20435 0 5L0 24H24V5C24 4.20435 23.6839 3.44129 23.1213 2.87868C22.5587 2.31607 21.7956 2 21 2Z" fill="#374957"/>
</g>
<defs>
<clipPath id="clip0_406_3638">
<rect width="24" height="24" fill="white"/>
</clipPath>
</defs>
</svg>
