<svg width="24" height="24" viewBox="0 0 24 24" fill="none" xmlns="http://www.w3.org/2000/svg">
<g clip-path="url(#clip0_406_3672)">
<path d="M21 0H3C2.20435 0 1.44129 0.31607 0.87868 0.87868C0.31607 1.44129 0 2.20435 0 3L0 20H6.9L10.708 23.218C11.069 23.5231 11.5264 23.6905 11.999 23.6905C12.4716 23.6905 12.929 23.5231 13.29 23.218L17.1 20H24V3C24 2.20435 23.6839 1.44129 23.1213 0.87868C22.5587 0.31607 21.7956 0 21 0V0ZM6 5H12V7H6V5ZM18 15H6V13H18V15ZM18 11H6V9H18V11Z" fill="#374957"/>
</g>
<defs>
<clipPath id="clip0_406_3672">
<rect width="24" height="24" fill="white"/>
</clipPath>
</defs>
</svg>
