<svg width="24" height="24" viewBox="0 0 24 24" fill="none" xmlns="http://www.w3.org/2000/svg">
<g clip-path="url(#clip0_406_3849)">
<path d="M4.49488e-07 20L2.667 18.667L4 16L5.333 18.667L8 20L5.333 21.333L4 24L2.667 21.333L4.49488e-07 20ZM18.667 21.333L20 24L21.333 21.333L24 20L21.333 18.667L20 16L18.667 18.667L16 20L18.667 21.333ZM10.667 5.333L12 8L13.333 5.333L16 4L13.333 2.667L12 0L10.667 2.667L8 4L10.667 5.333ZM5 12C4.80222 12 4.60888 12.0586 4.44443 12.1685C4.27998 12.2784 4.15181 12.4346 4.07612 12.6173C4.00043 12.8 3.98063 13.0011 4.01922 13.1951C4.0578 13.3891 4.15304 13.5673 4.29289 13.7071C4.43275 13.847 4.61093 13.9422 4.80491 13.9808C4.99889 14.0194 5.19996 13.9996 5.38268 13.9239C5.56541 13.8482 5.72159 13.72 5.83147 13.5556C5.94135 13.3911 6 13.1978 6 13C6 12.7348 5.89464 12.4804 5.70711 12.2929C5.51957 12.1054 5.26522 12 5 12ZM1 8C0.802219 8 0.608879 8.05865 0.44443 8.16853C0.279981 8.27841 0.151809 8.43459 0.0761209 8.61732C0.000433281 8.80004 -0.0193701 9.00111 0.0192152 9.19509C0.0578004 9.38907 0.153041 9.56725 0.292894 9.70711C0.432746 9.84696 0.610929 9.9422 0.80491 9.98079C0.998891 10.0194 1.19996 9.99957 1.38268 9.92388C1.56541 9.84819 1.72159 9.72002 1.83147 9.55557C1.94135 9.39112 2 9.19778 2 9C2 8.73478 1.89464 8.48043 1.70711 8.29289C1.51957 8.10536 1.26522 8 1 8V8ZM5 4C4.80222 4 4.60888 4.05865 4.44443 4.16853C4.27998 4.27841 4.15181 4.43459 4.07612 4.61732C4.00043 4.80004 3.98063 5.00111 4.01922 5.19509C4.0578 5.38907 4.15304 5.56725 4.29289 5.70711C4.43275 5.84696 4.61093 5.9422 4.80491 5.98079C4.99889 6.01937 5.19996 5.99957 5.38268 5.92388C5.56541 5.84819 5.72159 5.72002 5.83147 5.55557C5.94135 5.39112 6 5.19778 6 5C6 4.73478 5.89464 4.48043 5.70711 4.29289C5.51957 4.10536 5.26522 4 5 4V4ZM1 0C0.802219 0 0.608879 0.058649 0.44443 0.16853C0.279981 0.278412 0.151809 0.43459 0.0761209 0.617317C0.000433281 0.800043 -0.0193701 1.00111 0.0192152 1.19509C0.0578004 1.38907 0.153041 1.56725 0.292894 1.70711C0.432746 1.84696 0.610929 1.9422 0.80491 1.98079C0.998891 2.01937 1.19996 1.99957 1.38268 1.92388C1.56541 1.84819 1.72159 1.72002 1.83147 1.55557C1.94135 1.39112 2 1.19778 2 1C2 0.734784 1.89464 0.48043 1.70711 0.292893C1.51957 0.105357 1.26522 0 1 0V0ZM23 12C22.8022 12 22.6089 12.0586 22.4444 12.1685C22.28 12.2784 22.1518 12.4346 22.0761 12.6173C22.0004 12.8 21.9806 13.0011 22.0192 13.1951C22.0578 13.3891 22.153 13.5673 22.2929 13.7071C22.4327 13.847 22.6109 13.9422 22.8049 13.9808C22.9989 14.0194 23.2 13.9996 23.3827 13.9239C23.5654 13.8482 23.7216 13.72 23.8315 13.5556C23.9414 13.3911 24 13.1978 24 13C24 12.7348 23.8946 12.4804 23.7071 12.2929C23.5196 12.1054 23.2652 12 23 12ZM19 8C18.8022 8 18.6089 8.05865 18.4444 8.16853C18.28 8.27841 18.1518 8.43459 18.0761 8.61732C18.0004 8.80004 17.9806 9.00111 18.0192 9.19509C18.0578 9.38907 18.153 9.56725 18.2929 9.70711C18.4327 9.84696 18.6109 9.9422 18.8049 9.98079C18.9989 10.0194 19.2 9.99957 19.3827 9.92388C19.5654 9.84819 19.7216 9.72002 19.8315 9.55557C19.9414 9.39112 20 9.19778 20 9C20 8.73478 19.8946 8.48043 19.7071 8.29289C19.5196 8.10536 19.2652 8 19 8ZM23 4C22.8022 4 22.6089 4.05865 22.4444 4.16853C22.28 4.27841 22.1518 4.43459 22.0761 4.61732C22.0004 4.80004 21.9806 5.00111 22.0192 5.19509C22.0578 5.38907 22.153 5.56725 22.2929 5.70711C22.4327 5.84696 22.6109 5.9422 22.8049 5.98079C22.9989 6.01937 23.2 5.99957 23.3827 5.92388C23.5654 5.84819 23.7216 5.72002 23.8315 5.55557C23.9414 5.39112 24 5.19778 24 5C24 4.73478 23.8946 4.48043 23.7071 4.29289C23.5196 4.10536 23.2652 4 23 4V4ZM19 0C18.8022 0 18.6089 0.058649 18.4444 0.16853C18.28 0.278412 18.1518 0.43459 18.0761 0.617317C18.0004 0.800043 17.9806 1.00111 18.0192 1.19509C18.0578 1.38907 18.153 1.56725 18.2929 1.70711C18.4327 1.84696 18.6109 1.9422 18.8049 1.98079C18.9989 2.01937 19.2 1.99957 19.3827 1.92388C19.5654 1.84819 19.7216 1.72002 19.8315 1.55557C19.9414 1.39112 20 1.19778 20 1C20 0.734784 19.8946 0.48043 19.7071 0.292893C19.5196 0.105357 19.2652 0 19 0V0ZM14 22C13.8022 22 13.6089 22.0586 13.4444 22.1685C13.28 22.2784 13.1518 22.4346 13.0761 22.6173C13.0004 22.8 12.9806 23.0011 13.0192 23.1951C13.0578 23.3891 13.153 23.5673 13.2929 23.7071C13.4327 23.847 13.6109 23.9422 13.8049 23.9808C13.9989 24.0194 14.2 23.9996 14.3827 23.9239C14.5654 23.8482 14.7216 23.72 14.8315 23.5556C14.9414 23.3911 15 23.1978 15 23C15 22.7348 14.8946 22.4804 14.7071 22.2929C14.5196 22.1054 14.2652 22 14 22ZM10 18C9.80222 18 9.60888 18.0586 9.44443 18.1685C9.27998 18.2784 9.15181 18.4346 9.07612 18.6173C9.00043 18.8 8.98063 19.0011 9.01921 19.1951C9.0578 19.3891 9.15304 19.5673 9.29289 19.7071C9.43275 19.847 9.61093 19.9422 9.80491 19.9808C9.99889 20.0194 10.2 19.9996 10.3827 19.9239C10.5654 19.8482 10.7216 19.72 10.8315 19.5556C10.9414 19.3911 11 19.1978 11 19C11 18.7348 10.8946 18.4804 10.7071 18.2929C10.5196 18.1054 10.2652 18 10 18ZM14 14C13.8022 14 13.6089 14.0586 13.4444 14.1685C13.28 14.2784 13.1518 14.4346 13.0761 14.6173C13.0004 14.8 12.9806 15.0011 13.0192 15.1951C13.0578 15.3891 13.153 15.5673 13.2929 15.7071C13.4327 15.847 13.6109 15.9422 13.8049 15.9808C13.9989 16.0194 14.2 15.9996 14.3827 15.9239C14.5654 15.8482 14.7216 15.72 14.8315 15.5556C14.9414 15.3911 15 15.1978 15 15C15 14.7348 14.8946 14.4804 14.7071 14.2929C14.5196 14.1054 14.2652 14 14 14ZM10 10C9.80222 10 9.60888 10.0586 9.44443 10.1685C9.27998 10.2784 9.15181 10.4346 9.07612 10.6173C9.00043 10.8 8.98063 11.0011 9.01921 11.1951C9.0578 11.3891 9.15304 11.5673 9.29289 11.7071C9.43275 11.847 9.61093 11.9422 9.80491 11.9808C9.99889 12.0194 10.2 11.9996 10.3827 11.9239C10.5654 11.8482 10.7216 11.72 10.8315 11.5556C10.9414 11.3911 11 11.1978 11 11C11 10.7348 10.8946 10.4804 10.7071 10.2929C10.5196 10.1054 10.2652 10 10 10Z" fill="#374957"/>
</g>
<defs>
<clipPath id="clip0_406_3849">
<rect width="24" height="24" fill="white"/>
</clipPath>
</defs>
</svg>
