<svg width="24" height="24" viewBox="0 0 24 24" fill="none" xmlns="http://www.w3.org/2000/svg">
<g clip-path="url(#clip0_406_3699)">
<path d="M11.9996 11C14.2088 11 15.9996 9.20914 15.9996 7C15.9996 4.79086 14.2088 3 11.9996 3C9.79049 3 7.99963 4.79086 7.99963 7C7.99963 9.20914 9.79049 11 11.9996 11Z" fill="#374957"/>
<path d="M4.99963 16.0003V20.0003H18.9996V16.0003C18.9996 15.2047 18.6836 14.4416 18.121 13.879C17.5583 13.3164 16.7953 13.0003 15.9996 13.0003H7.99963C7.20398 13.0003 6.44092 13.3164 5.87831 13.879C5.3157 14.4416 4.99963 15.2047 4.99963 16.0003Z" fill="#374957"/>
<path d="M21.0004 24.0003H16.0004V22.0003H21.0004C21.2656 22.0003 21.5199 21.8949 21.7075 21.7074C21.895 21.5199 22.0004 21.2655 22.0004 21.0003V16.0003H24.0004V21.0003C24.0004 21.7959 23.6843 22.559 23.1217 23.1216C22.5591 23.6842 21.796 24.0003 21.0004 24.0003Z" fill="#374957"/>
<path d="M2 8H0V3C0 2.20435 0.31607 1.44129 0.87868 0.87868C1.44129 0.31607 2.20435 0 3 0L8 0V2H3C2.73478 2 2.48043 2.10536 2.29289 2.29289C2.10536 2.48043 2 2.73478 2 3V8Z" fill="#374957"/>
<path d="M8 24.0003H3C2.20435 24.0003 1.44129 23.6842 0.87868 23.1216C0.31607 22.559 0 21.7959 0 21.0003L0 16.0003H2V21.0003C2 21.2655 2.10536 21.5199 2.29289 21.7074C2.48043 21.8949 2.73478 22.0003 3 22.0003H8V24.0003Z" fill="#374957"/>
<path d="M24.0004 8H22.0004V3C22.0004 2.73478 21.895 2.48043 21.7075 2.29289C21.5199 2.10536 21.2656 2 21.0004 2H16.0004V0H21.0004C21.796 0 22.5591 0.31607 23.1217 0.87868C23.6843 1.44129 24.0004 2.20435 24.0004 3V8Z" fill="#374957"/>
</g>
<defs>
<clipPath id="clip0_406_3699">
<rect width="24" height="24" fill="white"/>
</clipPath>
</defs>
</svg>
