<svg width="24" height="24" viewBox="0 0 24 24" fill="none" xmlns="http://www.w3.org/2000/svg">
<g clip-path="url(#clip0_406_3918)">
<path d="M0 3V11H11V0H3C2.20435 0 1.44129 0.31607 0.87868 0.87868C0.31607 1.44129 0 2.20435 0 3H0Z" fill="#374957"/>
<path d="M0 21C0 21.7956 0.31607 22.5587 0.87868 23.1213C1.44129 23.6839 2.20435 24 3 24H11V13H0V21Z" fill="#374957"/>
<path d="M19.9999 21.417V2.58601L22.5839 5.16601L23.9999 3.75101L21.1209 0.876006C20.5584 0.31451 19.7961 -0.000854492 19.0014 -0.000854492C18.2066 -0.000854492 17.4443 0.31451 16.8819 0.876006L14.0069 3.74601L15.4199 5.16101L17.9999 2.58201V21.416L15.4149 18.834L14.0019 20.249L16.8809 23.124C17.4433 23.6855 18.2056 24.0009 19.0004 24.0009C19.7951 24.0009 20.5574 23.6855 21.1199 23.124L23.9999 20.254L22.5869 18.839L19.9999 21.417Z" fill="#374957"/>
</g>
<defs>
<clipPath id="clip0_406_3918">
<rect width="24" height="24" fill="white"/>
</clipPath>
</defs>
</svg>
