<svg width="24" height="24" viewBox="0 0 24 24" fill="none" xmlns="http://www.w3.org/2000/svg">
<g clip-path="url(#clip0_406_3774)">
<path d="M12 0C9.62663 0 7.30655 0.703788 5.33316 2.02236C3.35977 3.34094 1.8217 5.21509 0.913451 7.4078C0.00519943 9.60051 -0.232441 12.0133 0.230582 14.3411C0.693605 16.6689 1.83649 18.8071 3.51472 20.4853C5.19295 22.1635 7.33115 23.3064 9.65892 23.7694C11.9867 24.2324 14.3995 23.9948 16.5922 23.0866C18.7849 22.1783 20.6591 20.6402 21.9776 18.6668C23.2962 16.6935 24 14.3734 24 12C23.9966 8.81846 22.7312 5.76821 20.4815 3.51852C18.2318 1.26883 15.1815 0.00344108 12 0V0ZM20.657 7H17.431C16.708 5.3235 15.7552 3.7558 14.6 2.342C17.154 3.03577 19.3308 4.70978 20.657 7ZM16.5 12C16.4928 13.018 16.3334 14.0292 16.027 15H7.97301C7.66664 14.0292 7.50721 13.018 7.50001 12C7.50721 10.982 7.66664 9.97082 7.97301 9H16.027C16.3334 9.97082 16.4928 10.982 16.5 12ZM8.77401 17H15.226C14.3766 18.6764 13.2901 20.2216 12 21.588C10.7099 20.2216 9.62338 18.6764 8.77401 17V17ZM8.77401 7C9.62338 5.32365 10.7099 3.77844 12 2.412C13.2901 3.77844 14.3766 5.32365 15.226 7H8.77401ZM9.40001 2.342C8.24505 3.75598 7.29227 5.32365 6.56901 7H3.34301C4.66925 4.70978 6.84605 3.03577 9.40001 2.342V2.342ZM2.46001 9H5.89201C5.36936 10.9659 5.36936 13.0341 5.89201 15H2.46001C1.8467 13.047 1.8467 10.953 2.46001 9V9ZM3.34301 17H6.56901C7.29198 18.6765 8.24479 20.2442 9.40001 21.658C6.84605 20.9642 4.66925 19.2902 3.34301 17V17ZM14.6 21.658C15.755 20.244 16.7077 18.6764 17.431 17H20.657C19.3308 19.2902 17.154 20.9642 14.6 21.658ZM21.54 15H18.108C18.6307 13.0341 18.6307 10.9659 18.108 9H21.54C22.1533 10.953 22.1533 13.047 21.54 15Z" fill="#374957"/>
</g>
<defs>
<clipPath id="clip0_406_3774">
<rect width="24" height="24" fill="white"/>
</clipPath>
</defs>
</svg>
