<svg width="24" height="24" viewBox="0 0 24 24" fill="none" xmlns="http://www.w3.org/2000/svg">
<g clip-path="url(#clip0_406_4017)">
<path d="M19 11H5V10C5.00216 9.24872 5.28678 8.52573 5.79735 7.97459C6.30791 7.42345 7.00707 7.08449 7.756 7.025L7 4C7 3.73478 7.10536 3.48043 7.29289 3.29289C7.48043 3.10536 7.73478 3 8 3H10C10.2652 3 10.5196 3.10536 10.7071 3.29289C10.8946 3.48043 11 3.73478 11 4L10.25 7H13.2L13.839 3.8C13.8851 3.57396 14.008 3.37082 14.1868 3.22502C14.3656 3.07922 14.5893 2.99972 14.82 3H15.18C15.4107 2.99972 15.6344 3.07922 15.8132 3.22502C15.992 3.37082 16.1149 3.57396 16.161 3.8L16.826 7.126C17.4508 7.30493 18.0005 7.68191 18.3926 8.20021C18.7847 8.71851 18.9978 9.35012 19 10V11ZM9 2C9.19778 2 9.39112 1.94135 9.55557 1.83147C9.72002 1.72159 9.84819 1.56541 9.92388 1.38268C9.99957 1.19996 10.0194 0.998891 9.98079 0.80491C9.9422 0.610929 9.84696 0.432746 9.70711 0.292894C9.56725 0.153041 9.38907 0.0578004 9.19509 0.0192152C9.00111 -0.0193701 8.80004 0.000433281 8.61732 0.0761209C8.43459 0.151809 8.27841 0.279981 8.16853 0.44443C8.05865 0.608879 8 0.802219 8 1C8 1.26522 8.10536 1.51957 8.29289 1.70711C8.48043 1.89464 8.73478 2 9 2ZM15 2C15.1978 2 15.3911 1.94135 15.5556 1.83147C15.72 1.72159 15.8482 1.56541 15.9239 1.38268C15.9996 1.19996 16.0194 0.998891 15.9808 0.80491C15.9422 0.610929 15.847 0.432746 15.7071 0.292894C15.5673 0.153041 15.3891 0.0578004 15.1951 0.0192152C15.0011 -0.0193701 14.8 0.000433281 14.6173 0.0761209C14.4346 0.151809 14.2784 0.279981 14.1685 0.44443C14.0586 0.608879 14 0.802219 14 1C14 1.26522 14.1054 1.51957 14.2929 1.70711C14.4804 1.89464 14.7348 2 15 2ZM3.75 18C4.818 18 5.5 17.343 5.5 17H7.5C7.5 17.306 8.161 18 9.25 18C10.318 18 11 17.343 11 17H13C13 17.306 13.661 18 14.75 18C15.818 18 16.5 17.343 16.5 17H18.5C18.5 17.306 19.161 18 20.25 18C21.318 18 22 17.343 22 17V16C22 15.2044 21.6839 14.4413 21.1213 13.8787C20.5587 13.3161 19.7956 13 19 13H5C4.20435 13 3.44129 13.3161 2.87868 13.8787C2.31607 14.4413 2 15.2044 2 16V17C2 17.306 2.661 18 3.75 18ZM22 22V19.625C21.4489 19.8697 20.853 19.9974 20.25 20C19.243 20.0076 18.2669 19.6527 17.5 19C16.7286 19.643 15.7569 19.9964 14.7527 19.9991C13.7485 20.0019 12.7749 19.6538 12 19.015C11.2251 19.6538 10.2515 20.0019 9.2473 19.9991C8.24308 19.9964 7.27136 19.643 6.5 19C5.73312 19.6527 4.75699 20.0076 3.75 20C3.14701 19.9974 2.55112 19.8697 2 19.625V22H0V24H24V22H22Z" fill="#374957"/>
</g>
<defs>
<clipPath id="clip0_406_4017">
<rect width="24" height="24" fill="white"/>
</clipPath>
</defs>
</svg>
