<svg width="24" height="24" viewBox="0 0 24 24" fill="none" xmlns="http://www.w3.org/2000/svg">
<g clip-path="url(#clip0_406_3679)">
<path d="M16.9 20.9578L15.676 23.9998H15C11.0231 23.9953 7.21044 22.4135 4.39837 19.6015C1.5863 16.7894 0.00449947 12.9767 0 8.99982L0 8.32382L3.042 7.09982C3.454 15.4588 8.541 20.5458 16.9 20.9578ZM23.832 3.67283L17.687 18.9888C9.613 18.8738 5.126 14.3888 5.011 6.31383L20.3 0.180825C20.7895 -0.00419229 21.3217 -0.0448666 21.8336 0.0636315C22.3455 0.17213 22.8155 0.425242 23.1878 0.792917C23.5601 1.16059 23.8191 1.62738 23.934 2.13787C24.0489 2.64836 24.0149 3.18109 23.836 3.67283H23.832ZM13 10.9998C13 10.4694 12.7893 9.96068 12.4142 9.58561C12.0391 9.21054 11.5304 8.99982 11 8.99982C10.4696 8.99982 9.96086 9.21054 9.58579 9.58561C9.21071 9.96068 9 10.4694 9 10.9998C9 11.5303 9.21071 12.039 9.58579 12.414C9.96086 12.7891 10.4696 12.9998 11 12.9998C11.5304 12.9998 12.0391 12.7891 12.4142 12.414C12.7893 12.039 13 11.5303 13 10.9998ZM18.784 10.8828L20.63 6.28282C20.3225 6.12841 19.9862 6.03949 19.6426 6.02171C19.2989 6.00392 18.9553 6.05764 18.6335 6.17949C18.3116 6.30133 18.0186 6.48863 17.7729 6.72955C17.5271 6.97048 17.3341 7.25977 17.2059 7.57914C17.0778 7.8985 17.0173 8.24099 17.0283 8.58494C17.0393 8.92889 17.1216 9.26681 17.2699 9.57733C17.4182 9.88784 17.6294 10.1642 17.89 10.3889C18.1506 10.6136 18.455 10.7818 18.784 10.8828V10.8828Z" fill="#374957"/>
</g>
<defs>
<clipPath id="clip0_406_3679">
<rect width="24" height="24" fill="white"/>
</clipPath>
</defs>
</svg>
