<svg width="24" height="24" viewBox="0 0 24 24" fill="none" xmlns="http://www.w3.org/2000/svg">
<g clip-path="url(#clip0_406_3877)">
<path d="M0 10V3C0 2.20435 0.31607 1.44129 0.87868 0.87868C1.44129 0.31607 2.20435 0 3 0L11 0V4H13V0H15V6H17V0H19V8H21V0C21.7956 0 22.5587 0.31607 23.1213 0.87868C23.6839 1.44129 24 2.20435 24 3V10H0ZM5 17H9V24H15V17H19C20.3256 16.9984 21.5964 16.4711 22.5338 15.5338C23.4711 14.5964 23.9984 13.3256 24 12H0C0.00158786 13.3256 0.528882 14.5964 1.46622 15.5338C2.40356 16.4711 3.6744 16.9984 5 17V17Z" fill="#374957"/>
</g>
<defs>
<clipPath id="clip0_406_3877">
<rect width="24" height="24" fill="white"/>
</clipPath>
</defs>
</svg>
