<svg width="24" height="24" viewBox="0 0 24 24" fill="none" xmlns="http://www.w3.org/2000/svg">
<g clip-path="url(#clip0_406_3856)">
<path d="M15.4768 18.6102C15.4768 17.3272 14.6688 16.5812 13.1198 15.2662C12.7698 14.9662 12.3918 14.6482 12.0018 14.2942C11.5568 14.7032 11.1338 15.0632 10.7458 15.3942C9.19977 16.7002 8.52277 17.3392 8.52277 18.6102C8.52277 19.5323 8.88909 20.4167 9.54116 21.0688C10.1932 21.7209 11.0776 22.0872 11.9998 22.0872C12.9219 22.0872 13.8063 21.7209 14.4584 21.0688C15.1104 20.4167 15.4768 19.5323 15.4768 18.6102V18.6102Z" fill="#374957"/>
<path d="M16.4081 4.035C15.2081 3.016 13.9681 1.963 12.7141 0.71L12.0001 0L11.3001 0.711C9.04612 2.973 7.98012 6.447 7.51812 8.531C7.1636 7.98206 6.90051 7.37922 6.73912 6.746L6.31212 5.109L5.07912 6.266C2.92012 8.294 1.47911 10.305 1.47911 13.525C1.45836 15.8485 2.21467 18.1123 3.6279 19.9568C5.04113 21.8012 7.03021 23.1205 9.27912 23.705C9.84419 23.8482 10.4196 23.9468 11.0001 24C9.74139 23.7654 8.60421 23.0983 7.78524 22.1141C6.96627 21.1299 6.51699 19.8904 6.51512 18.61C6.51512 16.36 7.87212 15.21 9.44312 13.868C10.0041 13.391 10.6431 12.85 11.2881 12.201L12.0001 11.493L12.7081 12.201C13.2841 12.777 13.8601 13.265 14.4171 13.739C15.9931 15.076 17.4811 16.339 17.4811 18.61C17.4795 19.8853 17.0339 21.1203 16.2207 22.1028C15.4076 23.0853 14.2777 23.754 13.0251 23.994C15.6257 23.7417 18.039 22.5298 19.7945 20.5946C21.5499 18.6594 22.5216 16.1398 22.5201 13.527C22.5201 9.225 19.6871 6.82 16.4081 4.035Z" fill="#374957"/>
</g>
<defs>
<clipPath id="clip0_406_3856">
<rect width="24" height="24" fill="white"/>
</clipPath>
</defs>
</svg>
