<svg width="24" height="24" viewBox="0 0 24 24" fill="none" xmlns="http://www.w3.org/2000/svg">
<g clip-path="url(#clip0_406_3971)">
<path d="M19.071 2.93588C18.1452 1.99335 17.0418 1.24363 15.8245 0.730025C14.6072 0.216422 13.3003 -0.0508776 11.9791 -0.0564302C10.6579 -0.0619829 9.34875 0.194322 8.12721 0.697675C6.90567 1.20103 5.79598 1.94145 4.86226 2.87616C3.92853 3.81088 3.18929 4.92135 2.68723 6.14343C2.18517 7.3655 1.93026 8.67495 1.93721 9.99612C1.94417 11.3173 2.21285 12.624 2.72775 13.8407C3.24264 15.0574 3.99353 16.16 4.93704 17.0849L12 23.9939L19.071 17.0769C20.9461 15.2016 21.9994 12.6583 21.9994 10.0064C21.9994 7.3545 20.9461 4.8112 19.071 2.93588V2.93588ZM17 13.9999H7.00004V9.40888C7.0012 9.02473 7.09041 8.64597 7.26082 8.30168C7.43123 7.9574 7.6783 7.65676 7.98304 7.42288L10.483 5.51288C10.9194 5.18109 11.4524 5.00144 12.0005 5.00144C12.5487 5.00144 13.0817 5.18109 13.518 5.51288L16.018 7.42288C16.3225 7.65697 16.5693 7.95767 16.7395 8.30192C16.9097 8.64618 16.9989 9.02484 17 9.40888V13.9999ZM14.8 9.01288C14.8621 9.05945 14.9125 9.11985 14.9473 9.18927C14.982 9.2587 15 9.33526 15 9.41288V11.9999H13V9.99988H11V11.9999H9.00004V9.40888C9.00004 9.33126 9.01812 9.2547 9.05283 9.18528C9.08754 9.11585 9.13795 9.05546 9.20004 9.00888L11.7 7.09988C11.7873 7.03306 11.8941 6.99685 12.004 6.99685C12.1139 6.99685 12.2208 7.03306 12.308 7.09988L14.8 9.01288Z" fill="#374957"/>
</g>
<defs>
<clipPath id="clip0_406_3971">
<rect width="24" height="24" fill="white"/>
</clipPath>
</defs>
</svg>
