<svg width="24" height="24" viewBox="0 0 24 24" fill="none" xmlns="http://www.w3.org/2000/svg">
<g clip-path="url(#clip0_406_3898)">
<path d="M16 0H21C21.7956 0 22.5587 0.31607 23.1213 0.87868C23.6839 1.44129 24 2.20435 24 3V5H16V0ZM14 0H10V9H14V0ZM24 7V24H0V7H8V11H16V7H24ZM21 19H16V21H21V19ZM8 5V0H3C2.20435 0 1.44129 0.31607 0.87868 0.87868C0.31607 1.44129 0 2.20435 0 3L0 5H8Z" fill="#374957"/>
</g>
<defs>
<clipPath id="clip0_406_3898">
<rect width="24" height="24" fill="white"/>
</clipPath>
</defs>
</svg>
