<svg width="24" height="24" viewBox="0 0 24 24" fill="none" xmlns="http://www.w3.org/2000/svg">
<g clip-path="url(#clip0_406_3935)">
<path d="M12 3V9H7V11H9V13H3V11H5V9H0V3C0 2.20435 0.31607 1.44129 0.87868 0.87868C1.44129 0.31607 2.20435 0 3 0L9 0C9.79565 0 10.5587 0.31607 11.1213 0.87868C11.6839 1.44129 12 2.20435 12 3ZM18 6V9H20V6C20 5.20435 19.6839 4.44129 19.1213 3.87868C18.5587 3.31607 17.7956 3 17 3H14V5H17C17.2652 5 17.5196 5.10536 17.7071 5.29289C17.8946 5.48043 18 5.73478 18 6ZM7 18V15H5V18C5 18.7956 5.31607 19.5587 5.87868 20.1213C6.44129 20.6839 7.20435 21 8 21H12V19H8C7.73478 19 7.48043 18.8946 7.29289 18.7071C7.10536 18.5196 7 18.2652 7 18ZM24 14V24H14V14C14 13.2044 14.3161 12.4413 14.8787 11.8787C15.4413 11.3161 16.2044 11 17 11H21C21.7956 11 22.5587 11.3161 23.1213 11.8787C23.6839 12.4413 24 13.2044 24 14V14ZM20 20C20 19.8022 19.9414 19.6089 19.8315 19.4444C19.7216 19.28 19.5654 19.1518 19.3827 19.0761C19.2 19.0004 18.9989 18.9806 18.8049 19.0192C18.6109 19.0578 18.4327 19.153 18.2929 19.2929C18.153 19.4327 18.0578 19.6109 18.0192 19.8049C17.9806 19.9989 18.0004 20.2 18.0761 20.3827C18.1518 20.5654 18.28 20.7216 18.4444 20.8315C18.6089 20.9414 18.8022 21 19 21C19.2652 21 19.5196 20.8946 19.7071 20.7071C19.8946 20.5196 20 20.2652 20 20Z" fill="#374957"/>
</g>
<defs>
<clipPath id="clip0_406_3935">
<rect width="24" height="24" fill="white"/>
</clipPath>
</defs>
</svg>
