<svg width="24" height="24" viewBox="0 0 24 24" fill="none" xmlns="http://www.w3.org/2000/svg">
<g clip-path="url(#clip0_406_3646)">
<path d="M6 18H13V24H0V14C0 13.2044 0.31607 12.4413 0.87868 11.8787C1.44129 11.3161 2.20435 11 3 11H6V18ZM10 13H8V16H11V14C11 13.7348 10.8946 13.4804 10.7071 13.2929C10.5196 13.1054 10.2652 13 10 13ZM21 0H9C8.20435 0 7.44129 0.31607 6.87868 0.87868C6.31607 1.44129 6 2.20435 6 3V11H10C10.4455 11.0017 10.8848 11.1043 11.285 11.3L16.585 6H13V4H20V11H18V7.414L12.7 12.714C12.8959 13.1145 12.9984 13.5542 13 14V18H24V3C24 2.20435 23.6839 1.44129 23.1213 0.87868C22.5587 0.31607 21.7956 0 21 0V0Z" fill="#374957"/>
</g>
<defs>
<clipPath id="clip0_406_3646">
<rect width="24" height="24" fill="white"/>
</clipPath>
</defs>
</svg>
