<svg width="24" height="24" viewBox="0 0 24 24" fill="none" xmlns="http://www.w3.org/2000/svg">
<g clip-path="url(#clip0_406_3617)">
<path d="M0.414795 12.0003C0.419749 9.20676 1.39921 6.50243 3.18433 4.35359C4.96944 2.20475 7.44834 0.746048 10.1937 0.228975C12.939 -0.288099 15.7787 0.168855 18.2232 1.52106C20.6677 2.87326 22.5639 5.03597 23.5848 7.63635L21.7218 8.36435C21.0601 6.66894 19.9482 5.18627 18.506 4.07613C17.0638 2.966 15.346 2.27049 13.5377 2.06457C11.7294 1.85865 9.89921 2.15012 8.24434 2.90758C6.58948 3.66503 5.17271 4.85975 4.14671 6.36296C3.12072 7.86618 2.52442 9.62089 2.42207 11.438C2.31972 13.2551 2.71521 15.0657 3.5659 16.6746C4.4166 18.2835 5.69025 19.6298 7.24959 20.5683C8.80893 21.5067 10.5948 22.0019 12.4148 22.0003C14.4281 22.0071 16.396 21.4022 18.058 20.2658C19.72 19.1293 20.9976 17.515 21.7218 15.6363L23.5848 16.3643C22.5639 18.9647 20.6677 21.1274 18.2232 22.4796C15.7787 23.8318 12.939 24.2888 10.1937 23.7717C7.44834 23.2546 4.96944 21.7959 3.18433 19.6471C1.39921 17.4983 0.419749 14.7939 0.414795 12.0003V12.0003Z" fill="#374957"/>
</g>
<defs>
<clipPath id="clip0_406_3617">
<rect width="24" height="24" fill="white"/>
</clipPath>
</defs>
</svg>
