<svg width="24" height="24" viewBox="0 0 24 24" fill="none" xmlns="http://www.w3.org/2000/svg">
<g clip-path="url(#clip0_406_3773)">
<path d="M24 7.99965V19.9997H22V9.28965L14.12 14.3717C13.4889 14.7816 12.7525 14.9997 12 14.9997C11.2475 14.9997 10.5111 14.7816 9.88 14.3717L0 7.99965L9.88 1.62665C10.5114 1.21771 11.2477 1.00012 12 1.00012C12.7523 1.00012 13.4886 1.21771 14.12 1.62665L24 7.99965ZM12 16.9997C10.8644 16.9989 9.75316 16.67 8.8 16.0527L4 12.9597V20.4137L4.293 20.7067C4.387 20.7997 6.647 22.9997 12 22.9997C17.353 22.9997 19.613 20.7997 19.707 20.7067L20 20.4137V12.9597L15.2 16.0527C14.2468 16.67 13.1356 16.9989 12 16.9997Z" fill="#374957"/>
</g>
<defs>
<clipPath id="clip0_406_3773">
<rect width="24" height="24" fill="white"/>
</clipPath>
</defs>
</svg>
