<svg width="24" height="24" viewBox="0 0 24 24" fill="none" xmlns="http://www.w3.org/2000/svg">
<g clip-path="url(#clip0_406_3664)">
<path d="M12 0C8.8174 0 5.76516 1.26428 3.51472 3.51472C1.26428 5.76516 0 8.8174 0 12C0 15.1826 1.26428 18.2348 3.51472 20.4853C5.76516 22.7357 8.8174 24 12 24H24V12C23.9966 8.81846 22.7312 5.76821 20.4815 3.51852C18.2318 1.26883 15.1815 0.00344108 12 0V0ZM12 5C12.2967 5 12.5867 5.08797 12.8334 5.2528C13.08 5.41762 13.2723 5.65189 13.3858 5.92597C13.4994 6.20006 13.5291 6.50166 13.4712 6.79264C13.4133 7.08361 13.2704 7.35088 13.0607 7.56066C12.8509 7.77044 12.5836 7.9133 12.2926 7.97118C12.0017 8.02906 11.7001 7.99935 11.426 7.88582C11.1519 7.77229 10.9176 7.58003 10.7528 7.33336C10.588 7.08668 10.5 6.79667 10.5 6.5C10.5 6.10218 10.658 5.72064 10.9393 5.43934C11.2206 5.15804 11.6022 5 12 5ZM14 19H12V12H10V10H12C12.5304 10 13.0391 10.2107 13.4142 10.5858C13.7893 10.9609 14 11.4696 14 12V19Z" fill="#374957"/>
</g>
<defs>
<clipPath id="clip0_406_3664">
<rect width="24" height="24" fill="white"/>
</clipPath>
</defs>
</svg>
