<svg width="24" height="24" viewBox="0 0 24 24" fill="none" xmlns="http://www.w3.org/2000/svg">
<g clip-path="url(#clip0_406_3924)">
<path d="M24 20.2509V23.9999H16V19.2549C14.7007 18.7696 13.3269 18.5141 11.94 18.4999C10.592 18.5031 9.25629 18.7553 8 19.2439V23.9999H0V20.2499C0.0014891 19.5445 0.143073 18.8464 0.416534 18.1961C0.689995 17.5459 1.08989 16.9564 1.593 16.4619C3.741 14.3139 7.63 13.0209 12 12.9999C16.364 13.0129 20.192 14.2409 22.412 16.4619C22.9143 16.9569 23.3133 17.5468 23.5859 18.1972C23.8585 18.8476 23.9992 19.5457 24 20.2509V20.2509ZM5 4.38891L10.928 10.3379C11.1337 10.5454 11.3786 10.71 11.6485 10.8221C11.9183 10.9342 12.2078 10.9916 12.5 10.9909V10.9909C12.7917 10.9921 13.0808 10.9352 13.3503 10.8236C13.6198 10.712 13.8645 10.5479 14.07 10.3409L20.954 3.45691L19.543 2.04291L12.659 8.92691C12.6385 8.9474 12.6142 8.96361 12.5874 8.9746C12.5607 8.98559 12.5319 8.99113 12.503 8.99091V8.99091C12.4738 8.99102 12.4449 8.98534 12.418 8.97418C12.391 8.96302 12.3666 8.94661 12.346 8.92591L6.439 2.99991H10V0.999907H5.5C4.841 0.996713 4.20765 1.2551 3.73895 1.71836C3.27025 2.18163 3.0045 2.81192 3 3.47091V7.99991H5V4.38891Z" fill="#374957"/>
</g>
<defs>
<clipPath id="clip0_406_3924">
<rect width="24" height="24" fill="white"/>
</clipPath>
</defs>
</svg>
