<svg width="24" height="24" viewBox="0 0 24 24" fill="none" xmlns="http://www.w3.org/2000/svg">
<g clip-path="url(#clip0_406_3995)">
<path d="M24 24H0V17C0 16.2044 0.31607 15.4413 0.87868 14.8787C1.44129 14.3161 2.20435 14 3 14H21C21.7956 14 22.5587 14.3161 23.1213 14.8787C23.6839 15.4413 24 16.2044 24 17V24ZM22 9H2V12H22V9ZM19.965 7C19.633 2.28 17.02 0.285 16.9 0.2L16.637 0H15V1C15.0172 1.2671 14.9772 1.53479 14.8828 1.78524C14.7884 2.03568 14.6416 2.26311 14.4524 2.45237C14.2631 2.64163 14.0357 2.78836 13.7852 2.88279C13.5348 2.97723 13.2671 3.01718 13 3H10C8.74093 2.92147 7.49278 3.27515 6.46207 4.00254C5.43137 4.72992 4.6799 5.7874 4.332 7H19.965Z" fill="#374957"/>
</g>
<defs>
<clipPath id="clip0_406_3995">
<rect width="24" height="24" fill="white"/>
</clipPath>
</defs>
</svg>
