<svg width="24" height="24" viewBox="0 0 24 24" fill="none" xmlns="http://www.w3.org/2000/svg">
<g clip-path="url(#clip0_406_4028)">
<path d="M13 3.9991H3C2.20435 3.9991 1.44129 4.31517 0.87868 4.87778C0.31607 5.44039 0 6.20345 0 6.9991L0 23.9991H16V6.9991C16 6.20345 15.6839 5.44039 15.1213 4.87778C14.5587 4.31517 13.7956 3.9991 13 3.9991V3.9991ZM8 17.9991C8 17.9991 4 15.3321 4 12.9991C4 12.4687 4.21071 11.96 4.58579 11.5849C4.96086 11.2098 5.46957 10.9991 6 10.9991C6.53043 10.9991 7.03914 11.2098 7.41421 11.5849C7.78929 11.96 8 12.4687 8 12.9991C8 12.4687 8.21071 11.96 8.58579 11.5849C8.96086 11.2098 9.46957 10.9991 10 10.9991C10.5304 10.9991 11.0391 11.2098 11.4142 11.5849C11.7893 11.96 12 12.4687 12 12.9991C12 15.3321 8 17.9991 8 17.9991ZM23.88 6.6921L19.1 23.1061L18 22.6991V6.9991C17.9984 5.6735 17.4711 4.40266 16.5338 3.46532C15.5964 2.52798 14.3256 2.00069 13 1.9991H8.757C9.00816 1.27586 9.52823 0.677133 10.2092 0.327238C10.8902 -0.0226556 11.6798 -0.0968368 12.414 0.120097L21.85 2.9761C22.6111 3.20103 23.252 3.71837 23.6325 4.41483C24.013 5.1113 24.102 5.93015 23.88 6.6921V6.6921Z" fill="#374957"/>
</g>
<defs>
<clipPath id="clip0_406_4028">
<rect width="24" height="24" fill="white"/>
</clipPath>
</defs>
</svg>
