<svg width="24" height="24" viewBox="0 0 24 24" fill="none" xmlns="http://www.w3.org/2000/svg">
<g clip-path="url(#clip0_406_3717)">
<path d="M7.02805 23.9997C5.63829 24.0006 4.2795 23.5892 3.12363 22.8176C1.96776 22.046 1.06677 20.9488 0.534681 19.6649C0.00259167 18.3811 -0.13668 16.9682 0.134491 15.6052C0.405663 14.2421 1.07509 12.9902 2.05805 12.0077L6.31905 7.74072L7.73405 9.15472L3.47205 13.4197C2.55055 14.367 2.03909 15.6391 2.04832 16.9607C2.05754 18.2822 2.58672 19.547 3.52136 20.4814C4.456 21.4157 5.72094 21.9446 7.0425 21.9534C8.36406 21.9623 9.63597 21.4505 10.5831 20.5287L14.8451 16.2667L16.2591 17.6807L12.0001 21.9427C11.3476 22.5961 10.5725 23.1142 9.71927 23.4672C8.86602 23.8202 7.95144 24.0012 7.02805 23.9997V23.9997Z" fill="#374957"/>
<path d="M17.6799 16.2595L16.2659 14.8455L20.5279 10.5835C21.2312 9.88047 21.7102 8.98463 21.9044 8.00931C22.0986 7.03398 21.9992 6.02297 21.6188 5.10414C21.2384 4.18531 20.594 3.39993 19.7672 2.84731C18.9404 2.2947 17.9683 1.99967 16.9739 1.99953V1.99953C16.3136 1.9977 15.6595 2.12686 15.0494 2.37953C14.4394 2.6322 13.8855 3.00336 13.4199 3.47153L9.15387 7.73453L7.73987 6.31953L12.0049 2.05753C12.6558 1.40319 13.4301 0.884393 14.2828 0.531147C15.1356 0.1779 16.0499 -0.00278693 16.9729 -0.000466207V-0.000466207C18.3634 -0.000926313 19.7228 0.411165 20.879 1.18365C22.0352 1.95613 22.9362 3.05426 23.468 4.33906C23.9998 5.62386 24.1384 7.03755 23.8664 8.40119C23.5944 9.76484 22.9239 11.0171 21.9399 11.9995L17.6799 16.2595Z" fill="#374957"/>
<path d="M14.8448 7.74189L7.74045 14.8462L9.15466 16.2604L16.259 9.1561L14.8448 7.74189Z" fill="#374957"/>
</g>
<defs>
<clipPath id="clip0_406_3717">
<rect width="24" height="24" fill="white"/>
</clipPath>
</defs>
</svg>
