<svg width="24" height="24" viewBox="0 0 24 24" fill="none" xmlns="http://www.w3.org/2000/svg">
<g clip-path="url(#clip0_406_3726)">
<path d="M0.0238037 23.9757L0.0998037 22.9257C0.175804 21.8257 0.644804 16.2377 2.4068 14.4747C3.35534 13.5488 4.63068 13.0342 5.95617 13.0425C7.28166 13.0509 8.55042 13.5815 9.48724 14.5192C10.4241 15.4569 10.9534 16.7262 10.9604 18.0517C10.9675 19.3772 10.4516 20.6521 9.5248 21.5997C7.7628 23.3617 2.1758 23.8297 1.0728 23.9057L0.0238037 23.9757ZM23.0998 0.867679C22.5162 0.310366 21.7403 -0.000610352 20.9333 -0.000610352C20.1263 -0.000610352 19.3504 0.310366 18.7668 0.867679L8.2518 11.3867C9.25725 11.7288 10.1712 12.2963 10.9237 13.0457C11.6763 13.7951 12.2475 14.7067 12.5938 15.7107L23.0998 5.19968C23.6733 4.62473 23.9954 3.84578 23.9954 3.03368C23.9954 2.22158 23.6733 1.44263 23.0998 0.867679V0.867679Z" fill="#374957"/>
</g>
<defs>
<clipPath id="clip0_406_3726">
<rect width="24" height="24" fill="white"/>
</clipPath>
</defs>
</svg>
