<svg width="24" height="24" viewBox="0 0 24 24" fill="none" xmlns="http://www.w3.org/2000/svg">
<g clip-path="url(#clip0_406_3862)">
<path d="M5.86823 15.5829C4.81357 14.6087 4.00912 13.3948 3.52295 12.0439C3.03679 10.6929 2.88321 9.24478 3.07523 7.82193C3.2651 6.37919 3.80197 5.00401 4.63982 3.81424C5.47768 2.62448 6.59153 1.65562 7.88591 0.990699C9.18029 0.325783 10.6166 -0.015358 12.0717 -0.00348452C13.5269 0.00838899 14.9574 0.372923 16.2408 1.05887C17.5241 1.74482 18.622 2.73173 19.4404 3.93501C20.2587 5.13829 20.773 6.52205 20.9393 7.9677C21.1056 9.41334 20.9189 10.8777 20.3952 12.2354C19.8714 13.5931 19.0263 14.8035 17.9322 15.7629C16.99 16.6132 16.3557 17.7514 16.1282 18.9999H13.0002V10.8159C13.5831 10.6098 14.0881 10.2287 14.4461 9.72463C14.8041 9.22056 14.9977 8.61819 15.0002 7.99993H13.0002C13.0002 8.26515 12.8949 8.5195 12.7073 8.70704C12.5198 8.89457 12.2655 8.99993 12.0002 8.99993C11.735 8.99993 11.4807 8.89457 11.2931 8.70704C11.1056 8.5195 11.0002 8.26515 11.0002 7.99993H9.00023C9.0028 8.61819 9.19632 9.22056 9.55432 9.72463C9.91233 10.2287 10.4173 10.6098 11.0002 10.8159V18.9999H7.87523C7.57584 17.6807 6.87462 16.4869 5.86823 15.5829V15.5829ZM8.00023 20.9999V23.9999H16.0002V20.9999H8.00023Z" fill="#374957"/>
</g>
<defs>
<clipPath id="clip0_406_3862">
<rect width="24" height="24" fill="white"/>
</clipPath>
</defs>
</svg>
