<svg width="24" height="24" viewBox="0 0 24 24" fill="none" xmlns="http://www.w3.org/2000/svg">
<g clip-path="url(#clip0_406_3976)">
<path d="M22.922 1.7C22.5764 1.41347 22.1711 1.20769 21.7359 1.09766C21.3006 0.987631 20.8463 0.976133 20.406 1.064L16.284 2.064C15.3624 2.23169 14.5288 2.71753 13.9287 3.43682C13.3285 4.15611 12.9999 5.06323 13 6V20.8L12 20.981L11 20.8V6C11.0037 5.0725 10.6832 4.17286 10.094 3.45655C9.50474 2.74025 8.6838 2.25229 7.773 2.077L3.536 1.049C3.10377 0.970515 2.65957 0.987911 2.2348 1.09996C1.81004 1.21201 1.41506 1.41598 1.07778 1.69746C0.740505 1.97893 0.469162 2.33105 0.282926 2.72892C0.0966906 3.12679 0.000106745 3.5607 0 4L0 20.834L12 23.017L24 20.834V4C24 3.56103 23.9035 3.12741 23.7172 2.72993C23.5309 2.33244 23.2594 1.98082 22.922 1.7V1.7Z" fill="#374957"/>
</g>
<defs>
<clipPath id="clip0_406_3976">
<rect width="24" height="24" fill="white"/>
</clipPath>
</defs>
</svg>
