<svg width="24" height="24" viewBox="0 0 24 24" fill="none" xmlns="http://www.w3.org/2000/svg">
<g clip-path="url(#clip0_406_4006)">
<path d="M19.0001 8V7C19.0001 5.14348 18.2626 3.36301 16.9499 2.05025C15.6371 0.737498 13.8566 0 12.0001 0C10.1436 0 8.36313 0.737498 7.05037 2.05025C5.73762 3.36301 5.00012 5.14348 5.00012 7V8H2.00012V21C2.00012 21.7956 2.31619 22.5587 2.8788 23.1213C3.44141 23.6839 4.20447 24 5.00012 24H19.0001C19.7958 24 20.5588 23.6839 21.1214 23.1213C21.6841 22.5587 22.0001 21.7956 22.0001 21V8H19.0001ZM13.0001 18H11.0001V14H13.0001V18ZM17.0001 8H7.00012V7C7.00012 5.67392 7.52691 4.40215 8.46459 3.46447C9.40227 2.52678 10.674 2 12.0001 2C13.3262 2 14.598 2.52678 15.5357 3.46447C16.4733 4.40215 17.0001 5.67392 17.0001 7V8Z" fill="#374957"/>
</g>
<defs>
<clipPath id="clip0_406_4006">
<rect width="24" height="24" fill="white"/>
</clipPath>
</defs>
</svg>
