<svg width="24" height="24" viewBox="0 0 24 24" fill="none" xmlns="http://www.w3.org/2000/svg">
<g clip-path="url(#clip0_406_3853)">
<path d="M21 0H3C2.20435 0 1.44129 0.31607 0.87868 0.87868C0.31607 1.44129 0 2.20435 0 3L0 20H6.923L10.671 23.156C11.0394 23.4841 11.5156 23.6653 12.009 23.665C12.4842 23.6669 12.9436 23.4943 13.3 23.18L17.147 20H24V3C24 2.20435 23.6839 1.44129 23.1213 0.87868C22.5587 0.31607 21.7956 0 21 0V0ZM12 3C12.6922 3 13.3689 3.20527 13.9445 3.58986C14.5201 3.97444 14.9687 4.52107 15.2336 5.16061C15.4985 5.80015 15.5678 6.50388 15.4327 7.18282C15.2977 7.86175 14.9644 8.48539 14.4749 8.97487C13.9854 9.46436 13.3618 9.7977 12.6828 9.93275C12.0039 10.0678 11.3001 9.99849 10.6606 9.73358C10.0211 9.46867 9.47444 9.02007 9.08986 8.4445C8.70527 7.86892 8.5 7.19223 8.5 6.5C8.5 5.57174 8.86875 4.6815 9.52513 4.02513C10.1815 3.36875 11.0717 3 12 3V3ZM18 17H16V15C16 14.7348 15.8946 14.4804 15.7071 14.2929C15.5196 14.1054 15.2652 14 15 14H9C8.73478 14 8.48043 14.1054 8.29289 14.2929C8.10536 14.4804 8 14.7348 8 15V17H6V15C6 14.2044 6.31607 13.4413 6.87868 12.8787C7.44129 12.3161 8.20435 12 9 12H15C15.7956 12 16.5587 12.3161 17.1213 12.8787C17.6839 13.4413 18 14.2044 18 15V17ZM10.5 6.5C10.5 6.20333 10.588 5.91332 10.7528 5.66664C10.9176 5.41997 11.1519 5.22771 11.426 5.11418C11.7001 5.00065 12.0017 4.97094 12.2926 5.02882C12.5836 5.0867 12.8509 5.22956 13.0607 5.43934C13.2704 5.64912 13.4133 5.91639 13.4712 6.20736C13.5291 6.49834 13.4994 6.79994 13.3858 7.07403C13.2723 7.34811 13.08 7.58238 12.8334 7.7472C12.5867 7.91203 12.2967 8 12 8C11.6022 8 11.2206 7.84196 10.9393 7.56066C10.658 7.27936 10.5 6.89782 10.5 6.5Z" fill="#374957"/>
</g>
<defs>
<clipPath id="clip0_406_3853">
<rect width="24" height="24" fill="white"/>
</clipPath>
</defs>
</svg>
