<svg width="24" height="24" viewBox="0 0 24 24" fill="none" xmlns="http://www.w3.org/2000/svg">
<g clip-path="url(#clip0_406_4051)">
<path d="M12 9.99963C11.315 9.99963 10.651 10.0396 10 10.0996V16.9996H8V8.05263L14.915 4.55862L8.9 0.211624C8.59494 0.0579014 8.25558 -0.0151211 7.91429 -0.000481706C7.573 0.0141576 7.24114 0.115971 6.95036 0.295252C6.65958 0.474533 6.41957 0.725305 6.2532 1.02366C6.08684 1.32202 5.99967 1.65802 6 1.99962V10.9216C2.392 12.1146 0 14.3606 0 16.9996C0 20.9246 5.271 23.9996 12 23.9996C18.729 23.9996 24 20.9246 24 16.9996C24 13.0746 18.729 9.99963 12 9.99963ZM15 18.9996C14.6044 18.9996 14.2178 18.8823 13.8889 18.6626C13.56 18.4428 13.3036 18.1304 13.1522 17.765C13.0009 17.3995 12.9613 16.9974 13.0384 16.6094C13.1156 16.2215 13.3061 15.8651 13.5858 15.5854C13.8655 15.3057 14.2219 15.1152 14.6098 15.0381C14.9978 14.9609 15.3999 15.0005 15.7654 15.1519C16.1308 15.3032 16.4432 15.5596 16.6629 15.8885C16.8827 16.2174 17 16.6041 17 16.9996C17 17.5301 16.7893 18.0388 16.4142 18.4138C16.0391 18.7889 15.5304 18.9996 15 18.9996Z" fill="#374957"/>
</g>
<defs>
<clipPath id="clip0_406_4051">
<rect width="24" height="24" fill="white"/>
</clipPath>
</defs>
</svg>
