<svg width="32" height="32" viewBox="0 0 32 32" fill="none" xmlns="http://www.w3.org/2000/svg">
<g clip-path="url(#clip0_403_3304)" filter="url(#filter0_d_403_3304)">
<path d="M13 11.9999C14.1867 11.9999 15.3467 11.648 16.3334 10.9888C17.3201 10.3295 18.0892 9.3924 18.5433 8.29604C18.9974 7.19969 19.1162 5.99329 18.8847 4.8294C18.6532 3.66551 18.0818 2.59642 17.2426 1.7573C16.4035 0.918186 15.3344 0.346741 14.1705 0.11523C13.0067 -0.116281 11.8003 0.00253868 10.7039 0.456664C9.60754 0.91079 8.67047 1.67983 8.01118 2.66652C7.35189 3.65322 7 4.81325 7 5.99994C7.00159 7.59075 7.63424 9.11595 8.75911 10.2408C9.88399 11.3657 11.4092 11.9984 13 11.9999ZM13 1.99994C13.7911 1.99994 14.5645 2.23454 15.2223 2.67406C15.8801 3.11359 16.3928 3.7383 16.6955 4.46921C16.9983 5.20011 17.0775 6.00438 16.9231 6.7803C16.7688 7.55623 16.3878 8.26896 15.8284 8.82837C15.269 9.38778 14.5563 9.76874 13.7804 9.92308C13.0044 10.0774 12.2002 9.99821 11.4693 9.69546C10.7384 9.39271 10.1136 8.88002 9.67412 8.22222C9.2346 7.56443 9 6.79107 9 5.99994C9 4.93908 9.42143 3.92166 10.1716 3.17151C10.9217 2.42137 11.9391 1.99994 13 1.99994V1.99994Z" fill="#374957"/>
<path d="M24.9999 9.99938V6.99939H22.9999V9.99938H19.9999V11.9994H22.9999V14.9994H24.9999V11.9994H27.9999V9.99938H24.9999Z" fill="#374957"/>
<path d="M17.043 14.0006H8.957C7.64281 14.0022 6.3829 14.525 5.45363 15.4542C4.52435 16.3835 4.00159 17.6434 4 18.9576L4 24.0006H6V18.9576C6.00079 18.1736 6.31259 17.4219 6.86696 16.8676C7.42134 16.3132 8.173 16.0014 8.957 16.0006H17.043C17.827 16.0014 18.5787 16.3132 19.133 16.8676C19.6874 17.4219 19.9992 18.1736 20 18.9576V24.0006H22V18.9576C21.9984 17.6434 21.4756 16.3835 20.5464 15.4542C19.6171 14.525 18.3572 14.0022 17.043 14.0006V14.0006Z" fill="#374957"/>
</g>
<defs>
<filter id="filter0_d_403_3304" x="0" y="0" width="32" height="32" filterUnits="userSpaceOnUse" color-interpolation-filters="sRGB">
<feFlood flood-opacity="0" result="BackgroundImageFix"/>
<feColorMatrix in="SourceAlpha" type="matrix" values="0 0 0 0 0 0 0 0 0 0 0 0 0 0 0 0 0 0 127 0" result="hardAlpha"/>
<feOffset dy="4"/>
<feGaussianBlur stdDeviation="2"/>
<feComposite in2="hardAlpha" operator="out"/>
<feColorMatrix type="matrix" values="0 0 0 0 0 0 0 0 0 0 0 0 0 0 0 0 0 0 0.25 0"/>
<feBlend mode="normal" in2="BackgroundImageFix" result="effect1_dropShadow_403_3304"/>
<feBlend mode="normal" in="SourceGraphic" in2="effect1_dropShadow_403_3304" result="shape"/>
</filter>
<clipPath id="clip0_403_3304">
<rect width="24" height="24" fill="white" transform="translate(4)"/>
</clipPath>
</defs>
</svg>
