<svg width="32" height="32" viewBox="0 0 32 32" fill="none" xmlns="http://www.w3.org/2000/svg">
<g clip-path="url(#clip0_403_3448)" filter="url(#filter0_d_403_3448)">
<path d="M25.9998 -0.000232061H23.8278C23.4337 -0.00135454 23.0433 0.0757631 22.6792 0.22665C22.3151 0.377538 21.9846 0.599193 21.7068 0.878768L13.3458 9.23877C11.7451 8.82575 10.053 8.95049 8.53012 9.59375C7.00724 10.237 5.7381 11.3631 4.91818 12.7986C4.09826 14.2341 3.77305 15.8994 3.99264 17.5379C4.21223 19.1764 4.96443 20.6973 6.13339 21.8662C7.30235 23.0352 8.82321 23.7874 10.4617 24.007C12.1002 24.2266 13.7655 23.9013 15.201 23.0814C16.6365 22.2615 17.7626 20.9924 18.4059 19.4695C19.0491 17.9466 19.1739 16.2545 18.7608 14.6538L19.9998 13.4148V10.9998H22.9998V7.99977H25.4138L27.1208 6.29277C27.4003 6.0147 27.6219 5.68399 27.7728 5.31976C27.9236 4.95553 28.0008 4.56501 27.9998 4.17077V1.99977C27.9998 1.46934 27.7891 0.960627 27.4141 0.585554C27.039 0.210482 26.5303 -0.000232061 25.9998 -0.000232061V-0.000232061ZM25.9998 4.17077C26 4.30225 25.9741 4.43246 25.9238 4.55394C25.8736 4.67543 25.7998 4.78581 25.7068 4.87877L24.5858 5.99977H20.9998V8.99977H17.9998V12.5848L16.4548 14.1298C16.8067 14.8707 16.9927 15.6795 16.9998 16.4998C16.9998 17.5876 16.6773 18.6509 16.0729 19.5554C15.4686 20.4599 14.6096 21.1648 13.6046 21.5811C12.5996 21.9974 11.4937 22.1063 10.4269 21.8941C9.35995 21.6819 8.37995 21.158 7.61076 20.3889C6.84157 19.6197 6.31775 18.6397 6.10553 17.5728C5.89331 16.5059 6.00223 15.4 6.41851 14.395C6.83479 13.39 7.53974 12.531 8.44421 11.9267C9.34868 11.3223 10.412 10.9998 11.4998 10.9998C12.3257 10.9458 13.1493 11.1349 13.8688 11.5438L23.1208 2.29277C23.3089 2.10605 23.5628 2.0008 23.8278 1.99977H25.9998V4.17077ZM8.99985 17.9998C8.99985 18.1975 9.0585 18.3909 9.16838 18.5553C9.27826 18.7198 9.43444 18.848 9.61716 18.9236C9.79989 18.9993 10.001 19.0191 10.1949 18.9806C10.3889 18.942 10.5671 18.8467 10.707 18.7069C10.8468 18.567 10.942 18.3888 10.9806 18.1949C11.0192 18.0009 10.9994 17.7998 10.9237 17.6171C10.848 17.4344 10.7199 17.2782 10.5554 17.1683C10.391 17.0584 10.1976 16.9998 9.99985 16.9998C9.73463 16.9998 9.48028 17.1051 9.29274 17.2927C9.1052 17.4802 8.99985 17.7346 8.99985 17.9998Z" fill="#374957"/>
</g>
<defs>
<filter id="filter0_d_403_3448" x="0" y="0" width="32" height="32" filterUnits="userSpaceOnUse" color-interpolation-filters="sRGB">
<feFlood flood-opacity="0" result="BackgroundImageFix"/>
<feColorMatrix in="SourceAlpha" type="matrix" values="0 0 0 0 0 0 0 0 0 0 0 0 0 0 0 0 0 0 127 0" result="hardAlpha"/>
<feOffset dy="4"/>
<feGaussianBlur stdDeviation="2"/>
<feComposite in2="hardAlpha" operator="out"/>
<feColorMatrix type="matrix" values="0 0 0 0 0 0 0 0 0 0 0 0 0 0 0 0 0 0 0.25 0"/>
<feBlend mode="normal" in2="BackgroundImageFix" result="effect1_dropShadow_403_3448"/>
<feBlend mode="normal" in="SourceGraphic" in2="effect1_dropShadow_403_3448" result="shape"/>
</filter>
<clipPath id="clip0_403_3448">
<rect width="24" height="24" fill="white" transform="translate(4)"/>
</clipPath>
</defs>
</svg>
