<svg width="32" height="32" viewBox="0 0 32 32" fill="none" xmlns="http://www.w3.org/2000/svg">
<g clip-path="url(#clip0_403_3317)" filter="url(#filter0_d_403_3317)">
<path d="M6.54204 15.255L4.65004 15.9C4.41479 15.2171 4.24208 14.5142 4.13404 13.8L6.11104 13.5C6.20153 14.0968 6.34579 14.6842 6.54204 15.255V15.255ZM7.28204 16.903L5.54004 17.886C5.89672 18.5165 6.30902 19.1139 6.77204 19.671L8.31004 18.393C7.9232 17.9272 7.57914 17.4276 7.28204 16.9V16.903ZM12.773 0.439C12.0741 0.634065 11.3943 0.892122 10.742 1.21L11.619 3.01C12.162 2.74444 12.728 2.52888 13.31 2.366L12.773 0.439ZM8.30604 21.209C8.86162 21.6738 9.45804 22.0875 10.088 22.445L11.075 20.705C10.5495 20.4069 10.0518 20.0622 9.58804 19.675L8.30604 21.209ZM6.22204 9.9L4.26604 9.477C4.1149 10.1857 4.02789 10.9067 4.00604 11.631L6.00604 11.691C6.02408 11.0887 6.09638 10.4893 6.22204 9.9V9.9ZM10.072 3.95L8.88604 2.335C8.30278 2.76516 7.75927 3.24675 7.26204 3.774L8.71804 5.146C9.13222 4.70564 9.5854 4.30366 10.072 3.945V3.95ZM7.60004 6.57L5.92204 5.482C5.5282 6.08955 5.19016 6.73151 4.91204 7.4L6.75904 8.167C6.99049 7.61032 7.27197 7.07579 7.60004 6.57V6.57ZM19.807 21.25L20.568 23.099C21.2387 22.8224 21.883 22.4857 22.493 22.093L21.41 20.411C20.9019 20.738 20.3654 21.0188 19.807 21.25V21.25ZM12.066 23.34C12.7515 23.5772 13.457 23.7516 14.174 23.861L14.474 21.884C13.8775 21.7926 13.2904 21.6473 12.72 21.45L12.066 23.34ZM24.982 16.4L26.782 17.283C27.1023 16.6316 27.3627 15.9525 27.56 15.254L25.634 14.712C25.4689 15.2935 25.2507 15.8585 24.982 16.4ZM22.837 19.3L24.2 20.757C24.7282 20.2617 25.2111 19.7202 25.643 19.139L24.043 17.946C23.6824 18.4325 23.2788 18.8857 22.837 19.3V19.3ZM16.284 22L16.338 24C17.0629 23.9803 17.7845 23.8953 18.494 23.746L18.08 21.789C17.4889 21.913 16.8878 21.9836 16.284 22V22ZM16 0C15.633 0 15.269 0.017 14.91 0.049L15.091 2.041C15.3904 2.01367 15.6934 2 16 2C18.6513 2.00291 21.1932 3.05742 23.0679 4.93215C24.9426 6.80688 25.9971 9.34873 26 12C26 12.307 25.985 12.611 25.959 12.911L27.951 13.088C27.983 12.73 28 12.367 28 12C27.9966 8.81846 26.7312 5.76821 24.4815 3.51852C22.2318 1.26883 19.1816 0.00344108 16 0V0ZM17.723 13H21V11H17.723C17.5488 10.7004 17.2996 10.4513 17 10.277V6H15V10.277C14.7348 10.4297 14.5083 10.6414 14.338 10.8958C14.1678 11.1501 14.0584 11.4402 14.0182 11.7436C13.9781 12.047 14.0084 12.3556 14.1067 12.6454C14.205 12.9353 14.3686 13.1986 14.5851 13.415C14.8015 13.6314 15.0648 13.7951 15.3546 13.8934C15.6445 13.9917 15.953 14.0219 16.2564 13.9818C16.5599 13.9417 16.85 13.8323 17.1043 13.662C17.3586 13.4917 17.5703 13.2652 17.723 13Z" fill="#374957"/>
</g>
<defs>
<filter id="filter0_d_403_3317" x="0" y="0" width="32" height="32" filterUnits="userSpaceOnUse" color-interpolation-filters="sRGB">
<feFlood flood-opacity="0" result="BackgroundImageFix"/>
<feColorMatrix in="SourceAlpha" type="matrix" values="0 0 0 0 0 0 0 0 0 0 0 0 0 0 0 0 0 0 127 0" result="hardAlpha"/>
<feOffset dy="4"/>
<feGaussianBlur stdDeviation="2"/>
<feComposite in2="hardAlpha" operator="out"/>
<feColorMatrix type="matrix" values="0 0 0 0 0 0 0 0 0 0 0 0 0 0 0 0 0 0 0.25 0"/>
<feBlend mode="normal" in2="BackgroundImageFix" result="effect1_dropShadow_403_3317"/>
<feBlend mode="normal" in="SourceGraphic" in2="effect1_dropShadow_403_3317" result="shape"/>
</filter>
<clipPath id="clip0_403_3317">
<rect width="24" height="24" fill="white" transform="translate(4)"/>
</clipPath>
</defs>
</svg>
