<svg width="28" height="32" viewBox="0 0 28 32" fill="none" xmlns="http://www.w3.org/2000/svg">
<g clip-path="url(#clip0_403_3711)" filter="url(#filter0_d_403_3711)">
<path d="M21.0002 0H7.00015C6.2045 0 5.44144 0.31607 4.87883 0.87868C4.31622 1.44129 4.00015 2.20435 4.00015 3V24H24.0002V3C24.0002 2.20435 23.6841 1.44129 23.1215 0.87868C22.5589 0.31607 21.7958 0 21.0002 0V0ZM7.00015 2H21.0002C21.2654 2 21.5197 2.10536 21.7073 2.29289C21.8948 2.48043 22.0002 2.73478 22.0002 3V11H6.00015V3C6.00015 2.73478 6.10551 2.48043 6.29305 2.29289C6.48058 2.10536 6.73494 2 7.00015 2ZM6.00015 22V13H22.0002V22H6.00015Z" fill="#374957"/>
<path d="M16.0003 6H12.0003V8H16.0003V6Z" fill="#374957"/>
<path d="M16.0003 17H12.0003V19H16.0003V17Z" fill="#374957"/>
</g>
<defs>
<filter id="filter0_d_403_3711" x="-2" y="0" width="32" height="32" filterUnits="userSpaceOnUse" color-interpolation-filters="sRGB">
<feFlood flood-opacity="0" result="BackgroundImageFix"/>
<feColorMatrix in="SourceAlpha" type="matrix" values="0 0 0 0 0 0 0 0 0 0 0 0 0 0 0 0 0 0 127 0" result="hardAlpha"/>
<feOffset dy="4"/>
<feGaussianBlur stdDeviation="2"/>
<feComposite in2="hardAlpha" operator="out"/>
<feColorMatrix type="matrix" values="0 0 0 0 0 0 0 0 0 0 0 0 0 0 0 0 0 0 0.25 0"/>
<feBlend mode="normal" in2="BackgroundImageFix" result="effect1_dropShadow_403_3711"/>
<feBlend mode="normal" in="SourceGraphic" in2="effect1_dropShadow_403_3711" result="shape"/>
</filter>
<clipPath id="clip0_403_3711">
<rect width="24" height="24" fill="white" transform="translate(2)"/>
</clipPath>
</defs>
</svg>
