<svg width="32" height="32" viewBox="0 0 32 32" fill="none" xmlns="http://www.w3.org/2000/svg">
<g clip-path="url(#clip0_403_3311)" filter="url(#filter0_d_403_3311)">
<path d="M28 24H22V22H26V18H28V24ZM28 3C28 2.20435 27.6839 1.44129 27.1213 0.87868C26.5587 0.31607 25.7956 0 25 0L22 0V2H25C25.2652 2 25.5196 2.10536 25.7071 2.29289C25.8946 2.48043 26 2.73478 26 3V6H28V3ZM10 22H6V18H4V24H10V22ZM6 3C6 2.73478 6.10536 2.48043 6.29289 2.29289C6.48043 2.10536 6.73478 2 7 2H10V0H7C6.20435 0 5.44129 0.31607 4.87868 0.87868C4.31607 1.44129 4 2.20435 4 3V6H6V3ZM20 12C20 11.2089 19.7654 10.4355 19.3259 9.77772C18.8864 9.11992 18.2616 8.60723 17.5307 8.30448C16.7998 8.00173 15.9956 7.92252 15.2196 8.07686C14.4437 8.2312 13.731 8.61216 13.1716 9.17157C12.6122 9.73098 12.2312 10.4437 12.0769 11.2196C11.9225 11.9956 12.0017 12.7998 12.3045 13.5307C12.6072 14.2616 13.1199 14.8864 13.7777 15.3259C14.4355 15.7654 15.2089 16 16 16C17.0609 16 18.0783 15.5786 18.8284 14.8284C19.5786 14.0783 20 13.0609 20 12ZM18 12C18 12.3956 17.8827 12.7822 17.6629 13.1111C17.4432 13.44 17.1308 13.6964 16.7654 13.8478C16.3999 13.9991 15.9978 14.0387 15.6098 13.9616C15.2219 13.8844 14.8655 13.6939 14.5858 13.4142C14.3061 13.1345 14.1156 12.7781 14.0384 12.3902C13.9613 12.0022 14.0009 11.6001 14.1522 11.2346C14.3036 10.8692 14.56 10.5568 14.8889 10.3371C15.2178 10.1173 15.6044 10 16 10C16.5304 10 17.0391 10.2107 17.4142 10.5858C17.7893 10.9609 18 11.4696 18 12Z" fill="#374957"/>
</g>
<defs>
<filter id="filter0_d_403_3311" x="0" y="0" width="32" height="32" filterUnits="userSpaceOnUse" color-interpolation-filters="sRGB">
<feFlood flood-opacity="0" result="BackgroundImageFix"/>
<feColorMatrix in="SourceAlpha" type="matrix" values="0 0 0 0 0 0 0 0 0 0 0 0 0 0 0 0 0 0 127 0" result="hardAlpha"/>
<feOffset dy="4"/>
<feGaussianBlur stdDeviation="2"/>
<feComposite in2="hardAlpha" operator="out"/>
<feColorMatrix type="matrix" values="0 0 0 0 0 0 0 0 0 0 0 0 0 0 0 0 0 0 0.25 0"/>
<feBlend mode="normal" in2="BackgroundImageFix" result="effect1_dropShadow_403_3311"/>
<feBlend mode="normal" in="SourceGraphic" in2="effect1_dropShadow_403_3311" result="shape"/>
</filter>
<clipPath id="clip0_403_3311">
<rect width="24" height="24" fill="white" transform="translate(4)"/>
</clipPath>
</defs>
</svg>
