<svg width="32" height="32" viewBox="0 0 32 32" fill="none" xmlns="http://www.w3.org/2000/svg">
<g clip-path="url(#clip0_403_3728)" filter="url(#filter0_d_403_3728)">
<path d="M8 13H11V15H8V13ZM13 15H16V13H13V15ZM8 19H11V17H8V19ZM13 19H16V17H13V19ZM8 7H11V5H8V7ZM13 7H16V5H13V7ZM8 11H11V9H8V11ZM13 11H16V9H13V11ZM28 8V24H4V3C4 2.20435 4.31607 1.44129 4.87868 0.87868C5.44129 0.31607 6.20435 0 7 0L17 0C17.7956 0 18.5587 0.31607 19.1213 0.87868C19.6839 1.44129 20 2.20435 20 3V5H25C25.7956 5 26.5587 5.31607 27.1213 5.87868C27.6839 6.44129 28 7.20435 28 8ZM18 3C18 2.73478 17.8946 2.48043 17.7071 2.29289C17.5196 2.10536 17.2652 2 17 2H7C6.73478 2 6.48043 2.10536 6.29289 2.29289C6.10536 2.48043 6 2.73478 6 3V22H18V3ZM26 8C26 7.73478 25.8946 7.48043 25.7071 7.29289C25.5196 7.10536 25.2652 7 25 7H20V22H26V8ZM22 15H24V13H22V15ZM22 19H24V17H22V19ZM22 11H24V9H22V11Z" fill="#374957"/>
</g>
<defs>
<filter id="filter0_d_403_3728" x="0" y="0" width="32" height="32" filterUnits="userSpaceOnUse" color-interpolation-filters="sRGB">
<feFlood flood-opacity="0" result="BackgroundImageFix"/>
<feColorMatrix in="SourceAlpha" type="matrix" values="0 0 0 0 0 0 0 0 0 0 0 0 0 0 0 0 0 0 127 0" result="hardAlpha"/>
<feOffset dy="4"/>
<feGaussianBlur stdDeviation="2"/>
<feComposite in2="hardAlpha" operator="out"/>
<feColorMatrix type="matrix" values="0 0 0 0 0 0 0 0 0 0 0 0 0 0 0 0 0 0 0.25 0"/>
<feBlend mode="normal" in2="BackgroundImageFix" result="effect1_dropShadow_403_3728"/>
<feBlend mode="normal" in="SourceGraphic" in2="effect1_dropShadow_403_3728" result="shape"/>
</filter>
<clipPath id="clip0_403_3728">
<rect width="24" height="24" fill="white" transform="translate(4)"/>
</clipPath>
</defs>
</svg>
