<svg width="32" height="32" viewBox="0 0 32 32" fill="none" xmlns="http://www.w3.org/2000/svg">
<g clip-path="url(#clip0_403_3294)" filter="url(#filter0_d_403_3294)">
<path d="M25.7208 21.0006L23.7208 15.0006H16.9998C16.7346 15.0006 16.4802 14.8953 16.2927 14.7077C16.1051 14.5202 15.9998 14.2659 15.9998 14.0006V13.0006H22.9998V11.0006H15.9998V7.85864C16.9424 7.61525 17.764 7.03641 18.3104 6.23063C18.8568 5.42485 19.0906 4.44745 18.9679 3.48164C18.8452 2.51583 18.3745 1.62791 17.644 0.984318C16.9135 0.340729 15.9734 -0.0143433 14.9998 -0.0143433C14.0262 -0.0143433 13.0861 0.340729 12.3556 0.984318C11.6251 1.62791 11.1543 2.51583 11.0317 3.48164C10.909 4.44745 11.1428 5.42485 11.6892 6.23063C12.2356 7.03641 13.0571 7.61525 13.9998 7.85864V14.0006C13.9998 14.7963 14.3159 15.5594 14.8785 16.122C15.4411 16.6846 16.2041 17.0006 16.9998 17.0006H17.9098C17.7191 18.1288 17.2098 19.179 16.4419 20.0272C15.674 20.8755 14.6796 21.4865 13.5759 21.7883C12.4722 22.09 11.3053 22.0698 10.2127 21.7302C9.12003 21.3906 8.1473 20.7456 7.40917 19.8713C6.67104 18.997 6.19828 17.9299 6.04664 16.7958C5.89499 15.6617 6.07079 14.5079 6.5533 13.4704C7.03581 12.4329 7.80491 11.5551 8.76992 10.9403C9.73492 10.3255 10.8556 9.99948 11.9998 10.0006V8.00064C10.4599 7.99944 8.95247 8.44266 7.65832 9.27711C6.36417 10.1116 5.33834 11.3018 4.70396 12.7049C4.06959 14.108 3.85363 15.6643 4.08201 17.1872C4.31039 18.71 4.97341 20.1345 5.99147 21.2898C7.00953 22.4451 8.33937 23.282 9.82137 23.7001C11.3034 24.1182 12.8745 24.0997 14.3463 23.6469C15.818 23.194 17.1278 22.326 18.1184 21.1471C19.109 19.9682 19.7383 18.5284 19.9308 17.0006H22.2788L24.2788 23.0006H27.9998V21.0006H25.7208ZM12.9998 4.00064C12.9998 3.60508 13.1171 3.2184 13.3369 2.8895C13.5566 2.5606 13.869 2.30426 14.2344 2.15288C14.5999 2.00151 15.002 1.9619 15.39 2.03907C15.7779 2.11624 16.1343 2.30672 16.414 2.58643C16.6937 2.86613 16.8842 3.2225 16.9614 3.61046C17.0385 3.99842 16.9989 4.40056 16.8475 4.76601C16.6962 5.13146 16.4398 5.44382 16.1109 5.66358C15.782 5.88334 15.3954 6.00064 14.9998 6.00064C14.4694 6.00064 13.9606 5.78993 13.5856 5.41485C13.2105 5.03978 12.9998 4.53107 12.9998 4.00064Z" fill="#374957"/>
</g>
<defs>
<filter id="filter0_d_403_3294" x="0" y="0" width="32" height="32" filterUnits="userSpaceOnUse" color-interpolation-filters="sRGB">
<feFlood flood-opacity="0" result="BackgroundImageFix"/>
<feColorMatrix in="SourceAlpha" type="matrix" values="0 0 0 0 0 0 0 0 0 0 0 0 0 0 0 0 0 0 127 0" result="hardAlpha"/>
<feOffset dy="4"/>
<feGaussianBlur stdDeviation="2"/>
<feComposite in2="hardAlpha" operator="out"/>
<feColorMatrix type="matrix" values="0 0 0 0 0 0 0 0 0 0 0 0 0 0 0 0 0 0 0.25 0"/>
<feBlend mode="normal" in2="BackgroundImageFix" result="effect1_dropShadow_403_3294"/>
<feBlend mode="normal" in="SourceGraphic" in2="effect1_dropShadow_403_3294" result="shape"/>
</filter>
<clipPath id="clip0_403_3294">
<rect width="24" height="24" fill="white" transform="translate(4)"/>
</clipPath>
</defs>
</svg>
