<svg width="32" height="32" viewBox="0 0 32 32" fill="none" xmlns="http://www.w3.org/2000/svg">
<g clip-path="url(#clip0_403_3642)" filter="url(#filter0_d_403_3642)">
<path d="M14.0001 12C13.6046 12 13.2179 12.1173 12.889 12.3371C12.5601 12.5568 12.3037 12.8692 12.1524 13.2346C12.001 13.6001 11.9614 14.0022 12.0386 14.3902C12.1157 14.7781 12.3062 15.1345 12.5859 15.4142C12.8656 15.6939 13.222 15.8844 13.6099 15.9616C13.9979 16.0387 14.4 15.9991 14.7655 15.8477C15.1309 15.6964 15.4433 15.44 15.6631 15.1111C15.8828 14.7822 16.0001 14.3956 16.0001 14C16.0001 13.4696 15.7894 12.9609 15.4143 12.5858C15.0393 12.2107 14.5306 12 14.0001 12Z" fill="#374957"/>
<path d="M9.4567 16.0429L8.04248 17.4572L10.5428 19.9575L11.957 18.5433L9.4567 16.0429Z" fill="#374957"/>
<path d="M25.5002 5.00033L27.4822 3.01833C27.8048 2.685 27.9836 2.23819 27.9798 1.77428C27.976 1.31036 27.7901 0.866514 27.462 0.538465C27.134 0.210416 26.6901 0.0244546 26.2262 0.0206882C25.7623 0.0169219 25.3155 0.195653 24.9822 0.518332L23.0002 2.50033V3.65233L20.2792 6.34333C19.1815 5.44555 17.7971 4.97315 16.3796 5.01263C14.9621 5.05212 13.6062 5.60084 12.5602 6.55833C12.1684 6.94969 11.844 7.40314 11.6002 7.90033C11.5692 7.94979 11.5223 7.98719 11.4672 8.00633C10.4737 7.95575 9.48056 8.11242 8.55091 8.46637C7.62126 8.82033 6.77541 9.36383 6.06715 10.0623C3.11115 13.0193 3.36715 18.0873 6.64215 21.3623C8.27017 23.0226 10.4891 23.971 12.8142 24.0003C13.7864 24.02 14.7522 23.8382 15.6507 23.4664C16.5493 23.0947 17.3612 22.541 18.0354 21.8402C18.7096 21.1394 19.2315 20.3067 19.5683 19.3944C19.905 18.4822 20.0493 17.5101 19.9922 16.5393C19.9958 16.5104 20.007 16.4829 20.0245 16.4596C20.0421 16.4363 20.0654 16.4179 20.0922 16.4063C20.5904 16.1628 21.0449 15.8384 21.4372 15.4463C22.3925 14.4077 22.9434 13.0607 22.9898 11.6503C23.0363 10.2399 22.5751 8.85958 21.6902 7.76033L24.4812 5.00033H25.5002ZM20.0262 14.0283C19.7885 14.2652 19.5131 14.4609 19.2112 14.6073C18.8376 14.7886 18.5242 15.0736 18.3084 15.4282C18.0925 15.7829 17.9834 16.1923 17.9942 16.6073C18.0338 17.3267 17.9233 18.0464 17.6697 18.7208C17.4161 19.3951 17.025 20.0093 16.5212 20.5243C14.3462 22.6993 10.5462 22.4443 8.05315 19.9503C5.56015 17.4563 5.30015 13.6553 7.47915 11.4793C7.96757 10.9994 8.5466 10.6215 9.18251 10.3676C9.81843 10.1137 10.4985 9.98882 11.1832 10.0003C11.2542 10.0003 11.3252 10.0003 11.3972 10.0003C11.813 10.0138 12.2237 9.9056 12.5789 9.68907C12.9342 9.47255 13.2185 9.15708 13.3972 8.78133C13.5436 8.47974 13.7393 8.20464 13.9762 7.96733C14.6402 7.37805 15.4869 7.03547 16.3738 6.99722C17.2608 6.95897 18.1339 7.2274 18.8462 7.75733L17.0462 9.53333L18.4522 10.9553L20.2522 9.17633C20.7767 9.88831 21.0406 10.759 20.9994 11.6424C20.9583 12.5258 20.6146 13.3682 20.0262 14.0283V14.0283Z" fill="#374957"/>
</g>
<defs>
<filter id="filter0_d_403_3642" x="0" y="0" width="32" height="32" filterUnits="userSpaceOnUse" color-interpolation-filters="sRGB">
<feFlood flood-opacity="0" result="BackgroundImageFix"/>
<feColorMatrix in="SourceAlpha" type="matrix" values="0 0 0 0 0 0 0 0 0 0 0 0 0 0 0 0 0 0 127 0" result="hardAlpha"/>
<feOffset dy="4"/>
<feGaussianBlur stdDeviation="2"/>
<feComposite in2="hardAlpha" operator="out"/>
<feColorMatrix type="matrix" values="0 0 0 0 0 0 0 0 0 0 0 0 0 0 0 0 0 0 0.25 0"/>
<feBlend mode="normal" in2="BackgroundImageFix" result="effect1_dropShadow_403_3642"/>
<feBlend mode="normal" in="SourceGraphic" in2="effect1_dropShadow_403_3642" result="shape"/>
</filter>
<clipPath id="clip0_403_3642">
<rect width="24" height="24" fill="white" transform="translate(4)"/>
</clipPath>
</defs>
</svg>
