<svg width="32" height="32" viewBox="0 0 32 32" fill="none" xmlns="http://www.w3.org/2000/svg">
<g clip-path="url(#clip0_403_3578)" filter="url(#filter0_d_403_3578)">
<path d="M27.9997 13.9999C27.9997 9.26385 24.0237 5.29385 18.7097 4.26685C18.9243 3.81055 19.0201 3.30746 18.9883 2.80424C18.9565 2.30103 18.7981 1.81399 18.5279 1.38831C18.2576 0.962636 17.8843 0.612104 17.4424 0.369235C17.0005 0.126365 16.5045 -0.000976563 16.0002 -0.000976562C15.496 -0.000976563 15 0.126365 14.5581 0.369235C14.1162 0.612104 13.7429 0.962636 13.4726 1.38831C13.2024 1.81399 13.044 2.30103 13.0122 2.80424C12.9804 3.30746 13.0762 3.81055 13.2907 4.26685C7.97574 5.29385 3.99974 9.26385 3.99974 13.9999C3.98811 14.65 4.1919 15.2857 4.57935 15.8079C4.96681 16.3301 5.51615 16.7095 6.14174 16.8869L6.96774 21.5249C7.09102 22.2185 7.45447 22.8466 7.99439 23.2991C8.53431 23.7516 9.21626 23.9997 9.92074 23.9999H22.0797C22.7842 23.9997 23.4662 23.7516 24.0061 23.2991C24.546 22.8466 24.9095 22.2185 25.0327 21.5249L25.8577 16.8869C26.4833 16.7095 27.0327 16.3301 27.4201 15.8079C27.8076 15.2857 28.0114 14.65 27.9997 13.9999ZM14.9997 2.99985C14.9997 2.73464 15.1051 2.48028 15.2926 2.29275C15.4802 2.10521 15.7345 1.99985 15.9997 1.99985C16.265 1.99985 16.5193 2.10521 16.7068 2.29275C16.8944 2.48028 16.9997 2.73464 16.9997 2.99985C16.9997 3.26507 16.8944 3.51943 16.7068 3.70696C16.5193 3.8945 16.265 3.99985 15.9997 3.99985C15.7345 3.99985 15.4802 3.8945 15.2926 3.70696C15.1051 3.51943 14.9997 3.26507 14.9997 2.99985ZM22.0797 21.9999H9.92074C9.68611 21.9998 9.45899 21.9172 9.27911 21.7665C9.09922 21.6159 8.97803 21.4068 8.93674 21.1759L8.27274 17.4449C8.82752 17.8353 9.49847 18.0257 10.1756 17.9848C10.8528 17.9439 11.496 17.6742 11.9997 17.2199C12.5488 17.7139 13.2612 17.9872 13.9997 17.9872C14.7383 17.9872 15.4507 17.7139 15.9997 17.2199C16.5488 17.7139 17.2612 17.9872 17.9997 17.9872C18.7383 17.9872 19.4507 17.7139 19.9997 17.2199C20.5042 17.6733 21.1474 17.9424 21.8245 17.9832C22.5015 18.0241 23.1724 17.8343 23.7277 17.4449L23.0637 21.1749C23.0227 21.406 22.9016 21.6153 22.7216 21.7662C22.5417 21.917 22.3145 21.9997 22.0797 21.9999V21.9999ZM24.9997 14.9999H22.9997C22.9997 15.2651 22.8944 15.5194 22.7068 15.707C22.5193 15.8945 22.265 15.9999 21.9997 15.9999C21.7345 15.9999 21.4802 15.8945 21.2926 15.707C21.1051 15.5194 20.9997 15.2651 20.9997 14.9999H18.9997C18.9997 15.2651 18.8944 15.5194 18.7068 15.707C18.5193 15.8945 18.265 15.9999 17.9997 15.9999C17.7345 15.9999 17.4802 15.8945 17.2926 15.707C17.1051 15.5194 16.9997 15.2651 16.9997 14.9999H14.9997C14.9997 15.2651 14.8944 15.5194 14.7068 15.707C14.5193 15.8945 14.265 15.9999 13.9997 15.9999C13.7345 15.9999 13.4802 15.8945 13.2926 15.707C13.1051 15.5194 12.9997 15.2651 12.9997 14.9999H10.9997C10.9997 15.2651 10.8944 15.5194 10.7068 15.707C10.5193 15.8945 10.265 15.9999 9.99974 15.9999C9.73452 15.9999 9.48017 15.8945 9.29263 15.707C9.1051 15.5194 8.99974 15.2651 8.99974 14.9999H6.99974C6.86514 15.0131 6.72929 14.9963 6.60196 14.9507C6.47463 14.9051 6.35899 14.8319 6.26336 14.7362C6.16773 14.6406 6.09449 14.525 6.0489 14.3976C6.00332 14.2703 5.98653 14.1345 5.99974 13.9999C6.50574 3.39985 25.4917 3.40885 25.9997 13.9879C26.0143 14.1233 25.9985 14.2602 25.9536 14.3888C25.9087 14.5174 25.8357 14.6344 25.74 14.7313C25.6443 14.8281 25.5282 14.9025 25.4001 14.949C25.2721 14.9954 25.1353 15.0128 24.9997 14.9999Z" fill="#374957"/>
</g>
<defs>
<filter id="filter0_d_403_3578" x="0" y="0" width="32" height="32" filterUnits="userSpaceOnUse" color-interpolation-filters="sRGB">
<feFlood flood-opacity="0" result="BackgroundImageFix"/>
<feColorMatrix in="SourceAlpha" type="matrix" values="0 0 0 0 0 0 0 0 0 0 0 0 0 0 0 0 0 0 127 0" result="hardAlpha"/>
<feOffset dy="4"/>
<feGaussianBlur stdDeviation="2"/>
<feComposite in2="hardAlpha" operator="out"/>
<feColorMatrix type="matrix" values="0 0 0 0 0 0 0 0 0 0 0 0 0 0 0 0 0 0 0.25 0"/>
<feBlend mode="normal" in2="BackgroundImageFix" result="effect1_dropShadow_403_3578"/>
<feBlend mode="normal" in="SourceGraphic" in2="effect1_dropShadow_403_3578" result="shape"/>
</filter>
<clipPath id="clip0_403_3578">
<rect width="24" height="24" fill="white" transform="translate(4)"/>
</clipPath>
</defs>
</svg>
