<svg width="32" height="30" viewBox="0 0 32 30" fill="none" xmlns="http://www.w3.org/2000/svg">
<g clip-path="url(#clip0_403_3713)" filter="url(#filter0_d_403_3713)">
<path d="M25 5.99988H15C14.3111 5.99999 13.6431 6.23723 13.1085 6.67173C12.5738 7.10623 12.205 7.71151 12.064 8.38588C11.5804 8.13563 11.0445 8.00336 10.5 7.99988C9.57174 7.99988 8.6815 8.36863 8.02513 9.025C7.36875 9.68138 7 10.5716 7 11.4999C7.00293 12.0199 7.12289 12.5326 7.351 12.9999H6V1.99988H4V21.9999H6V18.9999H26V21.9999H28V8.99988C28 8.20423 27.6839 7.44117 27.1213 6.87856C26.5587 6.31595 25.7956 5.99988 25 5.99988ZM14 8.99988C14 8.73466 14.1054 8.48031 14.2929 8.29277C14.4804 8.10523 14.7348 7.99988 15 7.99988H25C25.2652 7.99988 25.5196 8.10523 25.7071 8.29277C25.8946 8.48031 26 8.73466 26 8.99988V12.9999H14V8.99988ZM9 11.4999C9 11.2032 9.08797 10.9132 9.2528 10.6665C9.41762 10.4198 9.65189 10.2276 9.92597 10.1141C10.2001 10.0005 10.5017 9.97082 10.7926 10.0287C11.0836 10.0866 11.3509 10.2294 11.5607 10.4392C11.7704 10.649 11.9133 10.9163 11.9712 11.2072C12.0291 11.4982 11.9994 11.7998 11.8858 12.0739C11.7723 12.348 11.58 12.5823 11.3334 12.7471C11.0867 12.9119 10.7967 12.9999 10.5 12.9999C10.1022 12.9999 9.72064 12.8418 9.43934 12.5605C9.15804 12.2792 9 11.8977 9 11.4999ZM6 16.9999V14.9999H26V16.9999H6Z" fill="#374957"/>
</g>
<defs>
<filter id="filter0_d_403_3713" x="0" y="0" width="32" height="32" filterUnits="userSpaceOnUse" color-interpolation-filters="sRGB">
<feFlood flood-opacity="0" result="BackgroundImageFix"/>
<feColorMatrix in="SourceAlpha" type="matrix" values="0 0 0 0 0 0 0 0 0 0 0 0 0 0 0 0 0 0 127 0" result="hardAlpha"/>
<feOffset dy="4"/>
<feGaussianBlur stdDeviation="2"/>
<feComposite in2="hardAlpha" operator="out"/>
<feColorMatrix type="matrix" values="0 0 0 0 0 0 0 0 0 0 0 0 0 0 0 0 0 0 0.25 0"/>
<feBlend mode="normal" in2="BackgroundImageFix" result="effect1_dropShadow_403_3713"/>
<feBlend mode="normal" in="SourceGraphic" in2="effect1_dropShadow_403_3713" result="shape"/>
</filter>
<clipPath id="clip0_403_3713">
<rect width="24" height="24" fill="white" transform="translate(4)"/>
</clipPath>
</defs>
</svg>
