<svg width="32" height="32" viewBox="0 0 32 32" fill="none" xmlns="http://www.w3.org/2000/svg">
<g clip-path="url(#clip0_403_3666)" filter="url(#filter0_d_403_3666)">
<path d="M4 3V11H15V0H7C6.20435 0 5.44129 0.31607 4.87868 0.87868C4.31607 1.44129 4 2.20435 4 3V3ZM13 9H6V3C6 2.73478 6.10536 2.48043 6.29289 2.29289C6.48043 2.10536 6.73478 2 7 2H13V9Z" fill="#374957"/>
<path d="M4 21C4 21.7956 4.31607 22.5587 4.87868 23.1213C5.44129 23.6839 6.20435 24 7 24H15V13H4V21ZM6 15H13V22H7C6.73478 22 6.48043 21.8946 6.29289 21.7071C6.10536 21.5196 6 21.2652 6 21V15Z" fill="#374957"/>
<path d="M23.9999 21.417V2.58601L26.5839 5.16601L27.9999 3.75101L25.1209 0.876006C24.5584 0.31451 23.7961 -0.000854492 23.0014 -0.000854492C22.2066 -0.000854492 21.4443 0.31451 20.8819 0.876006L18.0069 3.74601L19.4199 5.16101L21.9999 2.58201V21.416L19.4149 18.834L18.0019 20.249L20.8809 23.124C21.4433 23.6855 22.2056 24.0009 23.0004 24.0009C23.7951 24.0009 24.5574 23.6855 25.1199 23.124L27.9999 20.254L26.5869 18.839L23.9999 21.417Z" fill="#374957"/>
</g>
<defs>
<filter id="filter0_d_403_3666" x="0" y="0" width="32" height="32" filterUnits="userSpaceOnUse" color-interpolation-filters="sRGB">
<feFlood flood-opacity="0" result="BackgroundImageFix"/>
<feColorMatrix in="SourceAlpha" type="matrix" values="0 0 0 0 0 0 0 0 0 0 0 0 0 0 0 0 0 0 127 0" result="hardAlpha"/>
<feOffset dy="4"/>
<feGaussianBlur stdDeviation="2"/>
<feComposite in2="hardAlpha" operator="out"/>
<feColorMatrix type="matrix" values="0 0 0 0 0 0 0 0 0 0 0 0 0 0 0 0 0 0 0.25 0"/>
<feBlend mode="normal" in2="BackgroundImageFix" result="effect1_dropShadow_403_3666"/>
<feBlend mode="normal" in="SourceGraphic" in2="effect1_dropShadow_403_3666" result="shape"/>
</filter>
<clipPath id="clip0_403_3666">
<rect width="24" height="24" fill="white" transform="translate(4)"/>
</clipPath>
</defs>
</svg>
