<svg width="32" height="32" viewBox="0 0 32 32" fill="none" xmlns="http://www.w3.org/2000/svg">
<g clip-path="url(#clip0_403_3614)" filter="url(#filter0_d_403_3614)">
<path d="M27.4868 1.317C27.2116 0.910849 26.8409 0.578401 26.4073 0.348792C25.9737 0.119183 25.4905 -0.000578671 24.9998 2.10226e-06H6.99983C6.50958 -0.000537815 6.02667 0.119076 5.59335 0.348378C5.16003 0.57768 4.78951 0.909682 4.5142 1.31533C4.2389 1.72099 4.06721 2.18792 4.01415 2.67529C3.96108 3.16266 4.02827 3.65561 4.20983 4.111C5.09363 6.29777 6.57348 8.19257 8.481 9.57981C10.3885 10.9671 12.6471 11.791 14.9998 11.958V22H9.99983V24H21.9998V22H16.9998V11.958C19.3525 11.791 21.6111 10.9671 23.5186 9.57981C25.4262 8.19257 26.906 6.29777 27.7898 4.111C27.9713 3.65595 28.0386 3.16337 27.9857 2.67633C27.9329 2.18928 27.7616 1.72258 27.4868 1.317V1.317ZM6.16883 2.44C6.25981 2.30333 6.38346 2.19151 6.52856 2.11468C6.67367 2.03785 6.83564 1.99844 6.99983 2H24.9998C25.1635 1.99945 25.3248 2.03908 25.4696 2.11541C25.6144 2.19175 25.7382 2.30245 25.8302 2.4378C25.9222 2.57316 25.9796 2.72903 25.9973 2.89174C26.015 3.05444 25.9925 3.21901 25.9318 3.371C25.8488 3.579 25.7548 3.789 25.6528 4H6.34683C6.24683 3.789 6.14683 3.579 6.06783 3.371C6.00608 3.21963 5.98298 3.05526 6.00061 2.89273C6.01824 2.7302 6.07605 2.57461 6.16883 2.44V2.44ZM15.9998 10C14.3897 10.0206 12.7963 9.67052 11.3431 8.97692C9.88981 8.28332 8.61554 7.26476 7.61883 6H24.3808C23.3841 7.26476 22.1098 8.28332 20.6566 8.97692C19.2033 9.67052 17.61 10.0206 15.9998 10V10Z" fill="#374957"/>
</g>
<defs>
<filter id="filter0_d_403_3614" x="0" y="0" width="32" height="32" filterUnits="userSpaceOnUse" color-interpolation-filters="sRGB">
<feFlood flood-opacity="0" result="BackgroundImageFix"/>
<feColorMatrix in="SourceAlpha" type="matrix" values="0 0 0 0 0 0 0 0 0 0 0 0 0 0 0 0 0 0 127 0" result="hardAlpha"/>
<feOffset dy="4"/>
<feGaussianBlur stdDeviation="2"/>
<feComposite in2="hardAlpha" operator="out"/>
<feColorMatrix type="matrix" values="0 0 0 0 0 0 0 0 0 0 0 0 0 0 0 0 0 0 0.25 0"/>
<feBlend mode="normal" in2="BackgroundImageFix" result="effect1_dropShadow_403_3614"/>
<feBlend mode="normal" in="SourceGraphic" in2="effect1_dropShadow_403_3614" result="shape"/>
</filter>
<clipPath id="clip0_403_3614">
<rect width="24" height="24" fill="white" transform="translate(4)"/>
</clipPath>
</defs>
</svg>
