<svg width="32" height="32" viewBox="0 0 32 32" fill="none" xmlns="http://www.w3.org/2000/svg">
<g clip-path="url(#clip0_403_3490)" filter="url(#filter0_d_403_3490)">
<path d="M25.4061 7.228C25.1271 6.84807 24.7628 6.53899 24.3424 6.32569C23.9221 6.11239 23.4575 6.00083 22.9861 6H9.01414C8.54277 6.00083 8.07819 6.11239 7.65784 6.32569C7.23749 6.53899 6.87314 6.84807 6.59414 7.228L4.54714 10.021C4.11641 10.6068 3.91376 11.3295 3.97707 12.0539C4.04038 12.7782 4.36531 13.4548 4.89114 13.957L16.0001 23.931L27.1461 13.923C27.6588 13.4191 27.9721 12.747 28.0286 12.0304C28.085 11.3138 27.8806 10.6009 27.4531 10.023L25.4061 7.228ZM11.3091 13L13.6141 19.1L6.81614 13H11.3091ZM18.5531 13L16.0001 19.757L13.4471 13H18.5531ZM13.4771 11L14.6771 8H17.3231L18.5231 11H13.4771ZM20.6911 13H25.1821L18.3821 19.1L20.6911 13ZM23.7911 8.409L25.6921 11H20.6771L19.4771 8H22.9861C23.1433 7.99995 23.2983 8.03696 23.4385 8.10802C23.5788 8.17908 23.7002 8.2822 23.7931 8.409H23.7911ZM8.20514 8.409C8.29824 8.28192 8.42004 8.17864 8.56063 8.10756C8.70122 8.03649 8.85661 7.99963 9.01414 8H12.5231L11.3231 11H6.30814L8.20514 8.409Z" fill="#374957"/>
<path d="M17.0002 0H15.0002V4H17.0002V0Z" fill="#374957"/>
<path d="M22.1569 0.569594L20.1571 3.71265L21.8451 4.78665L23.8449 1.64359L22.1569 0.569594Z" fill="#374957"/>
<path d="M9.84365 0.578333L8.15649 1.65234L10.1563 4.79383L11.8435 3.71982L9.84365 0.578333Z" fill="#374957"/>
</g>
<defs>
<filter id="filter0_d_403_3490" x="0" y="0" width="32" height="32" filterUnits="userSpaceOnUse" color-interpolation-filters="sRGB">
<feFlood flood-opacity="0" result="BackgroundImageFix"/>
<feColorMatrix in="SourceAlpha" type="matrix" values="0 0 0 0 0 0 0 0 0 0 0 0 0 0 0 0 0 0 127 0" result="hardAlpha"/>
<feOffset dy="4"/>
<feGaussianBlur stdDeviation="2"/>
<feComposite in2="hardAlpha" operator="out"/>
<feColorMatrix type="matrix" values="0 0 0 0 0 0 0 0 0 0 0 0 0 0 0 0 0 0 0.25 0"/>
<feBlend mode="normal" in2="BackgroundImageFix" result="effect1_dropShadow_403_3490"/>
<feBlend mode="normal" in="SourceGraphic" in2="effect1_dropShadow_403_3490" result="shape"/>
</filter>
<clipPath id="clip0_403_3490">
<rect width="24" height="24" fill="white" transform="translate(4)"/>
</clipPath>
</defs>
</svg>
