<svg width="28" height="32" viewBox="0 0 28 32" fill="none" xmlns="http://www.w3.org/2000/svg">
<g clip-path="url(#clip0_403_3630)" filter="url(#filter0_d_403_3630)">
<path d="M24.0002 4.145L19.9862 0H12.0002C11.2045 0 10.4414 0.31607 9.87883 0.87868C9.31622 1.44129 9.00015 2.20435 9.00015 3V4H7.00015C6.2045 4 5.44144 4.31607 4.87883 4.87868C4.31622 5.44129 4.00015 6.20435 4.00015 7V24H20.0002V19H24.0002V4.145ZM18.0002 22H6.00015V7C6.00015 6.73478 6.10551 6.48043 6.29305 6.29289C6.48058 6.10536 6.73494 6 7.00015 6H9.00015V19H18.0002V22ZM11.0002 17V3C11.0002 2.73478 11.1055 2.48043 11.293 2.29289C11.4806 2.10536 11.7349 2 12.0002 2H18.0002V6H22.0002V17H11.0002Z" fill="#374957"/>
</g>
<defs>
<filter id="filter0_d_403_3630" x="-2" y="0" width="32" height="32" filterUnits="userSpaceOnUse" color-interpolation-filters="sRGB">
<feFlood flood-opacity="0" result="BackgroundImageFix"/>
<feColorMatrix in="SourceAlpha" type="matrix" values="0 0 0 0 0 0 0 0 0 0 0 0 0 0 0 0 0 0 127 0" result="hardAlpha"/>
<feOffset dy="4"/>
<feGaussianBlur stdDeviation="2"/>
<feComposite in2="hardAlpha" operator="out"/>
<feColorMatrix type="matrix" values="0 0 0 0 0 0 0 0 0 0 0 0 0 0 0 0 0 0 0.25 0"/>
<feBlend mode="normal" in2="BackgroundImageFix" result="effect1_dropShadow_403_3630"/>
<feBlend mode="normal" in="SourceGraphic" in2="effect1_dropShadow_403_3630" result="shape"/>
</filter>
<clipPath id="clip0_403_3630">
<rect width="24" height="24" fill="white" transform="translate(2)"/>
</clipPath>
</defs>
</svg>
