<svg width="32" height="31" viewBox="0 0 32 31" fill="none" xmlns="http://www.w3.org/2000/svg">
<g clip-path="url(#clip0_403_3661)" filter="url(#filter0_d_403_3661)">
<path d="M25 1.00012H7C6.20435 1.00012 5.44129 1.31619 4.87868 1.8788C4.31607 2.44141 4 3.20447 4 4.00012V23.0001H28V4.00012C28 3.20447 27.6839 2.44141 27.1213 1.8788C26.5587 1.31619 25.7956 1.00012 25 1.00012V1.00012ZM7 3.00012H25C25.2652 3.00012 25.5196 3.10548 25.7071 3.29302C25.8946 3.48055 26 3.73491 26 4.00012V7.00012H6V4.00012C6 3.73491 6.10536 3.48055 6.29289 3.29302C6.48043 3.10548 6.73478 3.00012 7 3.00012V3.00012ZM6 21.0001V9.00012H26V21.0001H6ZM9 12.0001H23V14.0001H9V12.0001ZM9 16.0001H19V18.0001H9V16.0001ZM7 5.00012C7 4.80234 7.05865 4.609 7.16853 4.44455C7.27841 4.2801 7.43459 4.15193 7.61732 4.07624C7.80004 4.00055 8.00111 3.98075 8.19509 4.01934C8.38907 4.05792 8.56725 4.15316 8.70711 4.29302C8.84696 4.43287 8.9422 4.61105 8.98079 4.80503C9.01937 4.99901 8.99957 5.20008 8.92388 5.38281C8.84819 5.56553 8.72002 5.72171 8.55557 5.83159C8.39112 5.94147 8.19778 6.00012 8 6.00012C7.73478 6.00012 7.48043 5.89477 7.29289 5.70723C7.10536 5.51969 7 5.26534 7 5.00012ZM10 5.00012C10 4.80234 10.0586 4.609 10.1685 4.44455C10.2784 4.2801 10.4346 4.15193 10.6173 4.07624C10.8 4.00055 11.0011 3.98075 11.1951 4.01934C11.3891 4.05792 11.5673 4.15316 11.7071 4.29302C11.847 4.43287 11.9422 4.61105 11.9808 4.80503C12.0194 4.99901 11.9996 5.20008 11.9239 5.38281C11.8482 5.56553 11.72 5.72171 11.5556 5.83159C11.3911 5.94147 11.1978 6.00012 11 6.00012C10.7348 6.00012 10.4804 5.89477 10.2929 5.70723C10.1054 5.51969 10 5.26534 10 5.00012ZM13 5.00012C13 4.80234 13.0586 4.609 13.1685 4.44455C13.2784 4.2801 13.4346 4.15193 13.6173 4.07624C13.8 4.00055 14.0011 3.98075 14.1951 4.01934C14.3891 4.05792 14.5673 4.15316 14.7071 4.29302C14.847 4.43287 14.9422 4.61105 14.9808 4.80503C15.0194 4.99901 14.9996 5.20008 14.9239 5.38281C14.8482 5.56553 14.72 5.72171 14.5556 5.83159C14.3911 5.94147 14.1978 6.00012 14 6.00012C13.7348 6.00012 13.4804 5.89477 13.2929 5.70723C13.1054 5.51969 13 5.26534 13 5.00012Z" fill="#374957"/>
</g>
<defs>
<filter id="filter0_d_403_3661" x="0" y="0" width="32" height="32" filterUnits="userSpaceOnUse" color-interpolation-filters="sRGB">
<feFlood flood-opacity="0" result="BackgroundImageFix"/>
<feColorMatrix in="SourceAlpha" type="matrix" values="0 0 0 0 0 0 0 0 0 0 0 0 0 0 0 0 0 0 127 0" result="hardAlpha"/>
<feOffset dy="4"/>
<feGaussianBlur stdDeviation="2"/>
<feComposite in2="hardAlpha" operator="out"/>
<feColorMatrix type="matrix" values="0 0 0 0 0 0 0 0 0 0 0 0 0 0 0 0 0 0 0.25 0"/>
<feBlend mode="normal" in2="BackgroundImageFix" result="effect1_dropShadow_403_3661"/>
<feBlend mode="normal" in="SourceGraphic" in2="effect1_dropShadow_403_3661" result="shape"/>
</filter>
<clipPath id="clip0_403_3661">
<rect width="24" height="24" fill="white" transform="translate(4)"/>
</clipPath>
</defs>
</svg>
