<svg width="32" height="32" viewBox="0 0 32 32" fill="none" xmlns="http://www.w3.org/2000/svg">
<g clip-path="url(#clip0_403_3620)" filter="url(#filter0_d_403_3620)">
<path d="M28 19.9995V5.9995C28 5.20385 27.6839 4.44079 27.1213 3.87818C26.5587 3.31557 25.7956 2.9995 25 2.9995H24C23.9999 2.53523 23.8921 2.07731 23.6849 1.66179C23.4778 1.24627 23.1771 0.884499 22.8064 0.604941C22.4357 0.325384 22.0052 0.135674 21.5488 0.050744C21.0923 -0.0341858 20.6224 -0.0120176 20.176 0.115504L17.176 0.973504C16.7394 1.09837 16.3372 1.32138 16 1.6255C15.6628 1.32138 15.2606 1.09837 14.824 0.973504L11.824 0.115504C11.3776 -0.0120176 10.9077 -0.0341858 10.4512 0.050744C9.99477 0.135674 9.56427 0.325384 9.19359 0.604941C8.82292 0.884499 8.52218 1.24627 8.31507 1.66179C8.10795 2.07731 8.0001 2.53523 8 2.9995H7C6.20435 2.9995 5.44129 3.31557 4.87868 3.87818C4.31607 4.44079 4 5.20385 4 5.9995V19.9995H15V21.9995H11V23.9995H21V21.9995H17V19.9995H28ZM17 3.8575C17.0001 3.64032 17.0709 3.42907 17.2017 3.25569C17.3325 3.08231 17.5162 2.95623 17.725 2.8965L20.725 2.0395C20.8144 2.01363 20.9069 2.00017 21 1.9995C21.2652 1.9995 21.5196 2.10486 21.7071 2.2924C21.8946 2.47993 22 2.73429 22 2.9995V9.2455L17 10.6735V3.8575ZM10 2.9995C10.0002 2.84482 10.0363 2.6923 10.1055 2.55393C10.1746 2.41556 10.2749 2.29512 10.3985 2.20208C10.5221 2.10903 10.6655 2.04593 10.8176 2.01772C10.9697 1.98951 11.1263 1.99697 11.275 2.0395L14.275 2.8965C14.4838 2.95623 14.6675 3.08231 14.7983 3.25569C14.9291 3.42907 14.9999 3.64032 15 3.8575V10.6735L10 9.2455V2.9995ZM6 5.9995C6 5.73429 6.10536 5.47993 6.29289 5.2924C6.48043 5.10486 6.73478 4.9995 7 4.9995H8V10.7535L16 13.0395L24 10.7535V4.9995H25C25.2652 4.9995 25.5196 5.10486 25.7071 5.2924C25.8946 5.47993 26 5.73429 26 5.9995V17.9995H6V5.9995Z" fill="#374957"/>
</g>
<defs>
<filter id="filter0_d_403_3620" x="0" y="0" width="32" height="32" filterUnits="userSpaceOnUse" color-interpolation-filters="sRGB">
<feFlood flood-opacity="0" result="BackgroundImageFix"/>
<feColorMatrix in="SourceAlpha" type="matrix" values="0 0 0 0 0 0 0 0 0 0 0 0 0 0 0 0 0 0 127 0" result="hardAlpha"/>
<feOffset dy="4"/>
<feGaussianBlur stdDeviation="2"/>
<feComposite in2="hardAlpha" operator="out"/>
<feColorMatrix type="matrix" values="0 0 0 0 0 0 0 0 0 0 0 0 0 0 0 0 0 0 0.25 0"/>
<feBlend mode="normal" in2="BackgroundImageFix" result="effect1_dropShadow_403_3620"/>
<feBlend mode="normal" in="SourceGraphic" in2="effect1_dropShadow_403_3620" result="shape"/>
</filter>
<clipPath id="clip0_403_3620">
<rect width="24" height="24" fill="white" transform="translate(4)"/>
</clipPath>
</defs>
</svg>
