<svg width="32" height="32" viewBox="0 0 32 32" fill="none" xmlns="http://www.w3.org/2000/svg">
<g clip-path="url(#clip0_403_3608)" filter="url(#filter0_d_403_3608)">
<path d="M24 8C22.9391 8 21.9217 7.57857 21.1716 6.82843C20.4214 6.07828 20 5.06087 20 4C20 2.93913 20.4214 1.92172 21.1716 1.17157C21.9217 0.421427 22.9391 0 24 0C25.0609 0 26.0783 0.421427 26.8284 1.17157C27.5786 1.92172 28 2.93913 28 4C28 5.06087 27.5786 6.07828 26.8284 6.82843C26.0783 7.57857 25.0609 8 24 8ZM24 2C23.4696 2 22.9609 2.21071 22.5858 2.58579C22.2107 2.96086 22 3.46957 22 4C22 4.53043 22.2107 5.03914 22.5858 5.41421C22.9609 5.78929 23.4696 6 24 6C24.5304 6 25.0391 5.78929 25.4142 5.41421C25.7893 5.03914 26 4.53043 26 4C26 3.46957 25.7893 2.96086 25.4142 2.58579C25.0391 2.21071 24.5304 2 24 2ZM15 24V22.781L19.277 13.438C19.477 13.0178 19.792 12.663 20.1854 12.4145C20.5789 12.166 21.0347 12.0342 21.5 12.0342C21.9653 12.0342 22.4211 12.166 22.8146 12.4145C23.208 12.663 23.523 13.0178 23.723 13.438L28 22.737V23.956L15 24ZM17.54 22H25.46L21.906 14.274C21.8719 14.1946 21.8152 14.127 21.743 14.0795C21.6709 14.032 21.5864 14.0067 21.5 14.0067C21.4136 14.0067 21.3291 14.032 21.257 14.0795C21.1848 14.127 21.1281 14.1946 21.094 14.274L17.54 22ZM16.248 6.541C16.0321 6.08594 15.6915 5.70147 15.2658 5.43226C14.84 5.16305 14.3467 5.02015 13.843 5.02015C13.3393 5.02015 12.846 5.16305 12.4202 5.43226C11.9945 5.70147 11.6539 6.08594 11.438 6.541L4 22.781V24H13V22H6.528L13.255 7.377C13.3068 7.26453 13.3898 7.16927 13.4941 7.1025C13.5984 7.03573 13.7197 7.00024 13.8435 7.00024C13.9673 7.00024 14.0886 7.03573 14.1929 7.1025C14.2972 7.16927 14.3802 7.26453 14.432 7.377L17.148 13.277L17.46 12.599C17.6939 12.0959 18.0191 11.6405 18.419 11.256L16.248 6.541Z" fill="#374957"/>
</g>
<defs>
<filter id="filter0_d_403_3608" x="0" y="0" width="32" height="32" filterUnits="userSpaceOnUse" color-interpolation-filters="sRGB">
<feFlood flood-opacity="0" result="BackgroundImageFix"/>
<feColorMatrix in="SourceAlpha" type="matrix" values="0 0 0 0 0 0 0 0 0 0 0 0 0 0 0 0 0 0 127 0" result="hardAlpha"/>
<feOffset dy="4"/>
<feGaussianBlur stdDeviation="2"/>
<feComposite in2="hardAlpha" operator="out"/>
<feColorMatrix type="matrix" values="0 0 0 0 0 0 0 0 0 0 0 0 0 0 0 0 0 0 0.25 0"/>
<feBlend mode="normal" in2="BackgroundImageFix" result="effect1_dropShadow_403_3608"/>
<feBlend mode="normal" in="SourceGraphic" in2="effect1_dropShadow_403_3608" result="shape"/>
</filter>
<clipPath id="clip0_403_3608">
<rect width="24" height="24" fill="white" transform="translate(4)"/>
</clipPath>
</defs>
</svg>
