<svg width="32" height="32" viewBox="0 0 32 32" fill="none" xmlns="http://www.w3.org/2000/svg">
<g clip-path="url(#clip0_403_3769)" filter="url(#filter0_d_403_3769)">
<path d="M20.0003 16C20.0003 16.1978 19.9417 16.3911 19.8318 16.5556C19.7219 16.72 19.5658 16.8482 19.383 16.9239C19.2003 16.9996 18.9992 17.0194 18.8053 16.9808C18.6113 16.9422 18.4331 16.847 18.2932 16.7071C18.1534 16.5673 18.0581 16.3891 18.0196 16.1951C17.981 16.0011 18.0008 15.8 18.0765 15.6173C18.1522 15.4346 18.2803 15.2784 18.4448 15.1685C18.6092 15.0586 18.8026 15 19.0003 15C19.2656 15 19.5199 15.1054 19.7075 15.2929C19.895 15.4804 20.0003 15.7348 20.0003 16ZM23.0003 15C22.8026 15 22.6092 15.0586 22.4448 15.1685C22.2803 15.2784 22.1522 15.4346 22.0765 15.6173C22.0008 15.8 21.981 16.0011 22.0196 16.1951C22.0581 16.3891 22.1534 16.5673 22.2932 16.7071C22.4331 16.847 22.6113 16.9422 22.8053 16.9808C22.9992 17.0194 23.2003 16.9996 23.383 16.9239C23.5658 16.8482 23.7219 16.72 23.8318 16.5556C23.9417 16.3911 24.0003 16.1978 24.0003 16C24.0003 15.7348 23.895 15.4804 23.7075 15.2929C23.5199 15.1054 23.2656 15 23.0003 15ZM21.0003 12C20.8026 12 20.6092 12.0586 20.4448 12.1685C20.2803 12.2784 20.1522 12.4346 20.0765 12.6173C20.0008 12.8 19.981 13.0011 20.0196 13.1951C20.0581 13.3891 20.1534 13.5673 20.2932 13.7071C20.4331 13.847 20.6113 13.9422 20.8053 13.9808C20.9992 14.0194 21.2003 13.9996 21.383 13.9239C21.5658 13.8482 21.7219 13.72 21.8318 13.5556C21.9417 13.3911 22.0003 13.1978 22.0003 13C22.0003 12.7348 21.895 12.4804 21.7075 12.2929C21.5199 12.1054 21.2656 12 21.0003 12ZM28.0003 16C28.002 17.528 27.5655 19.0245 26.7426 20.312C25.9196 21.5995 24.7448 22.6241 23.3574 23.2643C21.9699 23.9046 20.428 24.1335 18.9144 23.9242C17.4008 23.7148 15.9789 23.0758 14.8173 22.083C14.5223 22.6719 14.1489 23.2182 13.7073 23.707L13.4143 24H6.58635L6.29335 23.707C4.71309 21.8391 3.8944 19.4444 4.00035 17C4.12042 15.0638 4.71673 13.1873 5.73635 11.537C6.41798 10.4679 6.85 9.25897 7.00035 8C6.88631 7.25882 6.70077 6.53042 6.44635 5.825C6.21826 5.23887 6.0683 4.62527 6.00035 4C6.00035 2.93913 6.42177 1.92172 7.17192 1.17157C7.92206 0.421427 8.93948 0 10.0003 0C11.0612 0 12.0786 0.421427 12.8288 1.17157C13.5789 1.92172 14.0003 2.93913 14.0003 4C13.9324 4.62527 13.7824 5.23887 13.5543 5.825C13.2999 6.53042 13.1144 7.25882 13.0003 8C13.0857 9.00243 13.3957 9.97276 13.9073 10.839C14.9636 9.58638 16.3795 8.68891 17.9631 8.26831C19.5467 7.8477 21.2213 7.92432 22.7599 8.48776C24.2985 9.0512 25.6265 10.0742 26.564 11.418C27.5014 12.7619 28.0029 14.3615 28.0003 16V16ZM8.00035 4C8.01635 4.15 8.21135 4.772 8.35435 5.226C8.69224 6.11778 8.9095 7.05069 9.00035 8H11.0003C11.0912 7.05069 11.3084 6.11778 11.6463 5.226C11.7869 4.81505 11.9051 4.39677 12.0003 3.973C11.9968 3.44257 11.7826 2.93528 11.405 2.56274C11.0274 2.1902 10.5173 1.98292 9.98685 1.9865C9.45641 1.99008 8.94913 2.20423 8.57659 2.58183C8.20405 2.95944 7.99677 3.46957 8.00035 4V4ZM14.0003 17C13.8676 15.3867 13.349 13.829 12.4883 12.458C12.0553 11.6672 11.6809 10.8457 11.3683 10H8.63235C8.31976 10.8457 7.94542 11.6672 7.51235 12.458C6.65165 13.829 6.13309 15.3867 6.00035 17C5.94028 18.7807 6.45423 20.5336 7.46635 22H12.5353C13.5472 20.5335 14.0608 18.7806 14.0003 17ZM26.0003 16C26.0021 14.6964 25.5786 13.4278 24.7941 12.3866C24.0096 11.3455 22.9069 10.5886 21.6534 10.2309C20.3998 9.87315 19.0637 9.93407 17.8479 10.4044C16.6321 10.8747 15.6028 11.7288 14.9163 12.837C15.5861 14.1255 15.9567 15.5485 16.0003 17C16.0048 18.0346 15.8702 19.0652 15.6003 20.064C16.4179 20.9511 17.4841 21.5708 18.6595 21.8421C19.835 22.1135 21.065 22.0237 22.1886 21.5846C23.3122 21.1455 24.2772 20.3776 24.9573 19.3812C25.6373 18.3848 26.0009 17.2064 26.0003 16Z" fill="#374957"/>
</g>
<defs>
<filter id="filter0_d_403_3769" x="0" y="0" width="32" height="32" filterUnits="userSpaceOnUse" color-interpolation-filters="sRGB">
<feFlood flood-opacity="0" result="BackgroundImageFix"/>
<feColorMatrix in="SourceAlpha" type="matrix" values="0 0 0 0 0 0 0 0 0 0 0 0 0 0 0 0 0 0 127 0" result="hardAlpha"/>
<feOffset dy="4"/>
<feGaussianBlur stdDeviation="2"/>
<feComposite in2="hardAlpha" operator="out"/>
<feColorMatrix type="matrix" values="0 0 0 0 0 0 0 0 0 0 0 0 0 0 0 0 0 0 0.25 0"/>
<feBlend mode="normal" in2="BackgroundImageFix" result="effect1_dropShadow_403_3769"/>
<feBlend mode="normal" in="SourceGraphic" in2="effect1_dropShadow_403_3769" result="shape"/>
</filter>
<clipPath id="clip0_403_3769">
<rect width="24" height="24" fill="white" transform="translate(4)"/>
</clipPath>
</defs>
</svg>
