<svg width="32" height="32" viewBox="0 0 32 32" fill="none" xmlns="http://www.w3.org/2000/svg">
<g clip-path="url(#clip0_403_3402)" filter="url(#filter0_d_403_3402)">
<path d="M28 20H18.816C18.6666 19.5818 18.4262 19.2019 18.1122 18.8878C17.7981 18.5738 17.4182 18.3334 17 18.184V14H23C23.7956 14 24.5587 13.6839 25.1213 13.1213C25.6839 12.5587 26 11.7956 26 11V8H25V3C25 2.20435 24.6839 1.44129 24.1213 0.87868C23.5587 0.31607 22.7956 0 22 0L10 0C9.20435 0 8.44129 0.31607 7.87868 0.87868C7.31607 1.44129 7 2.20435 7 3V8H6V11C6 11.7956 6.31607 12.5587 6.87868 13.1213C7.44129 13.6839 8.20435 14 9 14H15V18.184C14.5818 18.3334 14.2019 18.5738 13.8878 18.8878C13.5738 19.2019 13.3334 19.5818 13.184 20H4V22H13.184C13.3876 22.5845 13.7682 23.0912 14.2727 23.4498C14.7773 23.8083 15.381 24.0009 16 24.0009C16.619 24.0009 17.2227 23.8083 17.7273 23.4498C18.2318 23.0912 18.6124 22.5845 18.816 22H28V20ZM9 3C9 2.73478 9.10536 2.48043 9.29289 2.29289C9.48043 2.10536 9.73478 2 10 2H22C22.2652 2 22.5196 2.10536 22.7071 2.29289C22.8946 2.48043 23 2.73478 23 3V8H18.586L17.586 9H14.414L13.414 8H9V3ZM8 11V10H12.586L13.586 11H18.414L19.414 10H24V11C24 11.2652 23.8946 11.5196 23.7071 11.7071C23.5196 11.8946 23.2652 12 23 12H9C8.73478 12 8.48043 11.8946 8.29289 11.7071C8.10536 11.5196 8 11.2652 8 11ZM16 22C15.8022 22 15.6089 21.9414 15.4444 21.8315C15.28 21.7216 15.1518 21.5654 15.0761 21.3827C15.0004 21.2 14.9806 20.9989 15.0192 20.8049C15.0578 20.6109 15.153 20.4327 15.2929 20.2929C15.4327 20.153 15.6109 20.0578 15.8049 20.0192C15.9989 19.9806 16.2 20.0004 16.3827 20.0761C16.5654 20.1518 16.7216 20.28 16.8315 20.4444C16.9414 20.6089 17 20.8022 17 21C17 21.2652 16.8946 21.5196 16.7071 21.7071C16.5196 21.8946 16.2652 22 16 22Z" fill="#374957"/>
</g>
<defs>
<filter id="filter0_d_403_3402" x="0" y="0" width="32" height="32" filterUnits="userSpaceOnUse" color-interpolation-filters="sRGB">
<feFlood flood-opacity="0" result="BackgroundImageFix"/>
<feColorMatrix in="SourceAlpha" type="matrix" values="0 0 0 0 0 0 0 0 0 0 0 0 0 0 0 0 0 0 127 0" result="hardAlpha"/>
<feOffset dy="4"/>
<feGaussianBlur stdDeviation="2"/>
<feComposite in2="hardAlpha" operator="out"/>
<feColorMatrix type="matrix" values="0 0 0 0 0 0 0 0 0 0 0 0 0 0 0 0 0 0 0.25 0"/>
<feBlend mode="normal" in2="BackgroundImageFix" result="effect1_dropShadow_403_3402"/>
<feBlend mode="normal" in="SourceGraphic" in2="effect1_dropShadow_403_3402" result="shape"/>
</filter>
<clipPath id="clip0_403_3402">
<rect width="24" height="24" fill="white" transform="translate(4)"/>
</clipPath>
</defs>
</svg>
