<svg width="32" height="32" viewBox="0 0 32 32" fill="none" xmlns="http://www.w3.org/2000/svg">
<g clip-path="url(#clip0_403_3336)" filter="url(#filter0_d_403_3336)">
<path d="M11 13H4.009V11H9.077C9.15679 10.441 9.3049 9.89391 9.518 9.371L5.143 6.822L6.148 5.094L10.528 7.645C10.8652 7.22094 11.2496 6.83679 11.674 6.5L9.131 2.127L10.858 1.121L13.4 5.5C13.9141 5.29293 14.4513 5.14855 15 5.07V0H17V5.071C17.5525 5.1508 18.0934 5.29685 18.611 5.506L21.159 1.121L22.886 2.127L20.337 6.512C20.7593 6.84726 21.1417 7.22975 21.477 7.652L25.868 5.094L26.873 6.822L22.485 9.379C22.6962 9.89957 22.8433 10.4439 22.923 11H27.991V13H21V12C20.785 5.39 11.213 5.4 11 12V13ZM24.989 22C24.4586 22 23.9499 21.7893 23.5748 21.4142C23.1997 21.0391 22.989 20.5304 22.989 20H21C21 20.5304 20.7893 21.0391 20.4142 21.4142C20.0391 21.7893 19.5304 22 19 22C18.4696 22 17.9609 21.7893 17.5858 21.4142C17.2107 21.0391 17 20.5304 17 20H15C15 20.5304 14.7893 21.0391 14.4142 21.4142C14.0391 21.7893 13.5304 22 13 22C12.4696 22 11.9609 21.7893 11.5858 21.4142C11.2107 21.0391 11 20.5304 11 20H9C8.99475 20.4039 8.86778 20.7967 8.63567 21.1273C8.40357 21.4578 8.07714 21.7106 7.69905 21.8527C7.32096 21.9947 6.90881 22.0194 6.51648 21.9235C6.12414 21.8276 5.76988 21.6155 5.5 21.315L4 22.632C4.3767 23.0557 4.8387 23.3951 5.35571 23.6278C5.87271 23.8605 6.43307 23.9814 7.00004 23.9824C7.56701 23.9834 8.1278 23.8647 8.64566 23.6338C9.16351 23.403 9.62675 23.0654 10.005 22.643C10.3832 23.064 10.8458 23.4006 11.3627 23.6311C11.8795 23.8615 12.4391 23.9806 13.005 23.9806C13.5709 23.9806 14.1305 23.8615 14.6473 23.6311C15.1642 23.4006 15.6268 23.064 16.005 22.643C16.3832 23.064 16.8458 23.4006 17.3627 23.6311C17.8795 23.8615 18.4391 23.9806 19.005 23.9806C19.5709 23.9806 20.1305 23.8615 20.6473 23.6311C21.1642 23.4006 21.6268 23.064 22.005 22.643C22.3832 23.0646 22.8462 23.4016 23.3636 23.6319C23.8811 23.8623 24.4413 23.9807 25.0077 23.9796C25.5741 23.9785 26.1338 23.8578 26.6503 23.6254C27.1669 23.393 27.6285 23.0541 28.005 22.631L26.499 21.316C26.3117 21.5313 26.0803 21.7039 25.8204 21.8219C25.5606 21.9399 25.2784 22.0006 24.993 22H24.989ZM7.007 19C7.57483 19.0004 8.13619 18.8795 8.65354 18.6455C9.1709 18.4115 9.63234 18.0697 10.007 17.643C10.3852 18.064 10.8478 18.4006 11.3647 18.6311C11.8815 18.8615 12.4411 18.9806 13.007 18.9806C13.5729 18.9806 14.1325 18.8615 14.6493 18.6311C15.1662 18.4006 15.6288 18.064 16.007 17.643C16.3852 18.064 16.8478 18.4006 17.3647 18.6311C17.8815 18.8615 18.4411 18.9806 19.007 18.9806C19.5729 18.9806 20.1325 18.8615 20.6493 18.6311C21.1662 18.4006 21.6288 18.064 22.007 17.643C22.3852 18.0646 22.8482 18.4016 23.3656 18.6319C23.8831 18.8623 24.4433 18.9807 25.0097 18.9796C25.5761 18.9785 26.1358 18.8578 26.6523 18.6254C27.1689 18.393 27.6305 18.0541 28.007 17.631L26.501 16.316C26.2311 16.6169 25.8767 16.8293 25.4841 16.9254C25.0915 17.0216 24.679 16.9969 24.3007 16.8547C23.9223 16.7124 23.5957 16.4593 23.3637 16.1284C23.1316 15.7975 23.0048 15.4042 23 15H21C21 15.5304 20.7893 16.0391 20.4142 16.4142C20.0391 16.7893 19.5304 17 19 17C18.4696 17 17.9609 16.7893 17.5858 16.4142C17.2107 16.0391 17 15.5304 17 15H15C15 15.5304 14.7893 16.0391 14.4142 16.4142C14.0391 16.7893 13.5304 17 13 17C12.4696 17 11.9609 16.7893 11.5858 16.4142C11.2107 16.0391 11 15.5304 11 15H9C8.99475 15.4039 8.86778 15.7967 8.63567 16.1273C8.40357 16.4578 8.07714 16.7106 7.69905 16.8527C7.32096 16.9947 6.90881 17.0194 6.51648 16.9235C6.12414 16.8276 5.76988 16.6155 5.5 16.315L4 17.632C4.37459 18.0614 4.83674 18.4056 5.35539 18.6416C5.87405 18.8775 6.4372 18.9997 7.007 19V19Z" fill="#374957"/>
</g>
<defs>
<filter id="filter0_d_403_3336" x="0" y="0" width="32" height="32" filterUnits="userSpaceOnUse" color-interpolation-filters="sRGB">
<feFlood flood-opacity="0" result="BackgroundImageFix"/>
<feColorMatrix in="SourceAlpha" type="matrix" values="0 0 0 0 0 0 0 0 0 0 0 0 0 0 0 0 0 0 127 0" result="hardAlpha"/>
<feOffset dy="4"/>
<feGaussianBlur stdDeviation="2"/>
<feComposite in2="hardAlpha" operator="out"/>
<feColorMatrix type="matrix" values="0 0 0 0 0 0 0 0 0 0 0 0 0 0 0 0 0 0 0.25 0"/>
<feBlend mode="normal" in2="BackgroundImageFix" result="effect1_dropShadow_403_3336"/>
<feBlend mode="normal" in="SourceGraphic" in2="effect1_dropShadow_403_3336" result="shape"/>
</filter>
<clipPath id="clip0_403_3336">
<rect width="24" height="24" fill="white" transform="translate(4)"/>
</clipPath>
</defs>
</svg>
