<svg width="32" height="32" viewBox="0 0 32 32" fill="none" xmlns="http://www.w3.org/2000/svg">
<g clip-path="url(#clip0_403_3480)" filter="url(#filter0_d_403_3480)">
<path d="M25.0003 10H21.6933L17.4463 1.563C17.1881 1.08989 16.8073 0.695071 16.3438 0.420033C15.8803 0.144995 15.3512 -9.97046e-05 14.8123 5.14037e-08H11.1303L14.0303 10H10.4003L8.10028 7.705C7.84011 7.44509 7.5237 7.24845 7.17546 7.13025C6.82723 7.01205 6.45649 6.97545 6.09187 7.02329C5.72725 7.07113 5.37849 7.20212 5.07253 7.40614C4.76658 7.61017 4.51159 7.88178 4.32728 8.2C4.11344 8.56347 4.00002 8.97722 3.99861 9.39892C3.9972 9.82062 4.10787 10.2351 4.31928 10.6L7.40728 16H14.0193L11.0193 24H14.8123C15.342 24.003 15.8628 23.8643 16.3208 23.5983C16.7789 23.3323 17.1574 22.9486 17.4173 22.487L21.4643 16H28.0003V13C28.0003 12.2044 27.6842 11.4413 27.1216 10.8787C26.559 10.3161 25.7959 10 25.0003 10ZM13.7923 2H14.8123C14.9866 1.9985 15.1583 2.04313 15.3099 2.12935C15.4614 2.21558 15.5875 2.34035 15.6753 2.491L19.4553 10H16.1103L13.7923 2ZM26.0003 14H20.3543L15.6903 21.479C15.6042 21.6367 15.4773 21.7683 15.3228 21.86C15.1683 21.9517 14.9919 22 14.8123 22H13.9003L16.9003 14H8.56728L6.05528 9.6C6.01997 9.53886 6.00147 9.46945 6.00167 9.39885C6.00187 9.32824 6.02076 9.25894 6.05641 9.198C6.09206 9.13705 6.14321 9.08663 6.20466 9.05185C6.26611 9.01708 6.33567 8.99919 6.40628 9C6.45923 8.99983 6.51169 9.01017 6.56061 9.03042C6.60953 9.05068 6.65395 9.08045 6.69128 9.118L9.57328 12H25.0003C25.2655 12 25.5199 12.1054 25.7074 12.2929C25.8949 12.4804 26.0003 12.7348 26.0003 13V14Z" fill="#374957"/>
</g>
<defs>
<filter id="filter0_d_403_3480" x="0" y="0" width="32" height="32" filterUnits="userSpaceOnUse" color-interpolation-filters="sRGB">
<feFlood flood-opacity="0" result="BackgroundImageFix"/>
<feColorMatrix in="SourceAlpha" type="matrix" values="0 0 0 0 0 0 0 0 0 0 0 0 0 0 0 0 0 0 127 0" result="hardAlpha"/>
<feOffset dy="4"/>
<feGaussianBlur stdDeviation="2"/>
<feComposite in2="hardAlpha" operator="out"/>
<feColorMatrix type="matrix" values="0 0 0 0 0 0 0 0 0 0 0 0 0 0 0 0 0 0 0.25 0"/>
<feBlend mode="normal" in2="BackgroundImageFix" result="effect1_dropShadow_403_3480"/>
<feBlend mode="normal" in="SourceGraphic" in2="effect1_dropShadow_403_3480" result="shape"/>
</filter>
<clipPath id="clip0_403_3480">
<rect width="24" height="24" fill="white" transform="translate(4)"/>
</clipPath>
</defs>
</svg>
