<svg width="30" height="32" viewBox="0 0 30 32" fill="none" xmlns="http://www.w3.org/2000/svg">
<g filter="url(#filter0_d_403_3687)">
<path d="M26.0003 12C26.0003 11.2043 25.6842 10.4413 25.1216 9.87866C24.559 9.31605 23.796 8.99998 23.0003 8.99998H22.0003V5.99998H21.0003C20.998 5.41389 20.8673 4.83543 20.6174 4.30527C20.3676 3.77512 20.0046 3.30615 19.554 2.93135C19.1034 2.55654 18.5762 2.28501 18.0094 2.13585C17.4426 1.98669 16.85 1.96352 16.2733 2.06798C15.865 1.44576 15.3093 0.934166 14.6554 0.57874C14.0016 0.223314 13.27 0.035092 12.5258 0.0308356C11.7817 0.0265791 11.048 0.20642 10.3901 0.554344C9.73226 0.902268 9.17065 1.40748 8.75531 2.02498C7.74118 2.08553 6.78827 2.53036 6.09063 3.26887C5.39299 4.00739 5.00308 4.98405 5.00031 5.99998H4.00031V21C4.00031 21.7956 4.31638 22.5587 4.87898 23.1213C5.44159 23.6839 6.20466 24 7.00031 24H19.0003C19.796 24 20.559 23.6839 21.1216 23.1213C21.6842 22.5587 22.0003 21.7956 22.0003 21V19H26.0003V12ZM9.00031 3.99998C9.05931 3.99998 9.91931 4.14198 9.91931 4.14198L10.2393 3.45398C10.4486 3.01189 10.783 2.64091 11.2011 2.387C11.6192 2.13309 12.1025 2.00739 12.5913 2.02549C13.0801 2.04359 13.5529 2.20468 13.951 2.48881C14.3492 2.77294 14.6553 3.16762 14.8313 3.62398L15.2083 4.62398L16.1803 4.18398C16.4843 4.04734 16.8175 3.98883 17.1498 4.01374C17.4822 4.03865 17.803 4.14621 18.0832 4.32664C18.3633 4.50707 18.594 4.75464 18.7542 5.04688C18.9143 5.33911 18.9989 5.66673 19.0003 5.99998H12.0003V13C12.0003 13.2652 11.8949 13.5196 11.7074 13.7071C11.5199 13.8946 11.2655 14 11.0003 14C10.7351 14 10.4807 13.8946 10.2932 13.7071C10.1057 13.5196 10.0003 13.2652 10.0003 13V5.99998H7.00031C7.00031 5.46955 7.21102 4.96084 7.58609 4.58577C7.96116 4.21069 8.46987 3.99998 9.00031 3.99998V3.99998ZM20.0003 21C20.0003 21.2652 19.8949 21.5196 19.7074 21.7071C19.5199 21.8946 19.2655 22 19.0003 22H7.00031C6.73509 22 6.48073 21.8946 6.2932 21.7071C6.10566 21.5196 6.00031 21.2652 6.00031 21V7.99998H8.00031V13C8.00031 13.7956 8.31638 14.5587 8.87898 15.1213C9.44159 15.6839 10.2047 16 11.0003 16C11.796 16 12.559 15.6839 13.1216 15.1213C13.6842 14.5587 14.0003 13.7956 14.0003 13V7.99998H20.0003V21ZM24.0003 17H22.0003V11H23.0003C23.2655 11 23.5199 11.1053 23.7074 11.2929C23.8949 11.4804 24.0003 11.7348 24.0003 12V17Z" fill="#374957"/>
</g>
<defs>
<filter id="filter0_d_403_3687" x="-1" y="0" width="32" height="32" filterUnits="userSpaceOnUse" color-interpolation-filters="sRGB">
<feFlood flood-opacity="0" result="BackgroundImageFix"/>
<feColorMatrix in="SourceAlpha" type="matrix" values="0 0 0 0 0 0 0 0 0 0 0 0 0 0 0 0 0 0 127 0" result="hardAlpha"/>
<feOffset dy="4"/>
<feGaussianBlur stdDeviation="2"/>
<feComposite in2="hardAlpha" operator="out"/>
<feColorMatrix type="matrix" values="0 0 0 0 0 0 0 0 0 0 0 0 0 0 0 0 0 0 0.25 0"/>
<feBlend mode="normal" in2="BackgroundImageFix" result="effect1_dropShadow_403_3687"/>
<feBlend mode="normal" in="SourceGraphic" in2="effect1_dropShadow_403_3687" result="shape"/>
</filter>
</defs>
</svg>
