<svg width="28" height="32" viewBox="0 0 28 32" fill="none" xmlns="http://www.w3.org/2000/svg">
<g clip-path="url(#clip0_403_3403)" filter="url(#filter0_d_403_3403)">
<path d="M21.0001 24H7.00012C6.20758 24 5.44723 23.6864 4.88514 23.1277C4.32305 22.569 4.00488 21.8105 4.00012 21.018V5.522L14.0001 0L24.0001 5.522V21.022C23.9943 21.8138 23.6757 22.5713 23.1137 23.1291C22.5517 23.687 21.792 24 21.0001 24V24ZM6.00012 6.692V21.018C6.00171 21.2822 6.10776 21.535 6.29513 21.7212C6.48249 21.9075 6.73594 22.012 7.00012 22.012H21.0001C21.2643 22.012 21.5178 21.9075 21.7051 21.7212C21.8925 21.535 21.9985 21.2822 22.0001 21.018V6.692L14.0001 2.274L6.00012 6.692Z" fill="#374957"/>
<path d="M14 8.57214C14.8284 8.57214 15.5 7.90057 15.5 7.07214C15.5 6.24371 14.8284 5.57214 14 5.57214C13.1716 5.57214 12.5 6.24371 12.5 7.07214C12.5 7.90057 13.1716 8.57214 14 8.57214Z" fill="#374957"/>
</g>
<defs>
<filter id="filter0_d_403_3403" x="-2" y="0" width="32" height="32" filterUnits="userSpaceOnUse" color-interpolation-filters="sRGB">
<feFlood flood-opacity="0" result="BackgroundImageFix"/>
<feColorMatrix in="SourceAlpha" type="matrix" values="0 0 0 0 0 0 0 0 0 0 0 0 0 0 0 0 0 0 127 0" result="hardAlpha"/>
<feOffset dy="4"/>
<feGaussianBlur stdDeviation="2"/>
<feComposite in2="hardAlpha" operator="out"/>
<feColorMatrix type="matrix" values="0 0 0 0 0 0 0 0 0 0 0 0 0 0 0 0 0 0 0.25 0"/>
<feBlend mode="normal" in2="BackgroundImageFix" result="effect1_dropShadow_403_3403"/>
<feBlend mode="normal" in="SourceGraphic" in2="effect1_dropShadow_403_3403" result="shape"/>
</filter>
<clipPath id="clip0_403_3403">
<rect width="24" height="24" fill="white" transform="translate(2)"/>
</clipPath>
</defs>
</svg>
