<svg width="32" height="31" viewBox="0 0 32 31" fill="none" xmlns="http://www.w3.org/2000/svg">
<g clip-path="url(#clip0_403_3502)" filter="url(#filter0_d_403_3502)">
<path d="M25 3.00024H16.236L12.236 1.00024H6.99999C6.20434 1.00024 5.44128 1.31631 4.87867 1.87892C4.31606 2.44153 3.99999 3.20459 3.99999 4.00024L3.99999 23.0002H28V6.00024C28 5.20459 27.6839 4.44153 27.1213 3.87892C26.5587 3.31631 25.7956 3.00024 25 3.00024ZM6.99999 3.00024H11.764L15.764 5.00024H25C25.2652 5.00024 25.5196 5.1056 25.7071 5.29314C25.8946 5.48067 26 5.73503 26 6.00024V6.88124L5.99999 6.99424V4.00024C5.99999 3.73503 6.10535 3.48067 6.29289 3.29314C6.48042 3.1056 6.73478 3.00024 6.99999 3.00024V3.00024ZM5.99999 21.0002V8.99424L26 8.88124V21.0002H5.99999Z" fill="#374957"/>
</g>
<defs>
<filter id="filter0_d_403_3502" x="0" y="0" width="32" height="32" filterUnits="userSpaceOnUse" color-interpolation-filters="sRGB">
<feFlood flood-opacity="0" result="BackgroundImageFix"/>
<feColorMatrix in="SourceAlpha" type="matrix" values="0 0 0 0 0 0 0 0 0 0 0 0 0 0 0 0 0 0 127 0" result="hardAlpha"/>
<feOffset dy="4"/>
<feGaussianBlur stdDeviation="2"/>
<feComposite in2="hardAlpha" operator="out"/>
<feColorMatrix type="matrix" values="0 0 0 0 0 0 0 0 0 0 0 0 0 0 0 0 0 0 0.25 0"/>
<feBlend mode="normal" in2="BackgroundImageFix" result="effect1_dropShadow_403_3502"/>
<feBlend mode="normal" in="SourceGraphic" in2="effect1_dropShadow_403_3502" result="shape"/>
</filter>
<clipPath id="clip0_403_3502">
<rect width="24" height="24" fill="white" transform="translate(4)"/>
</clipPath>
</defs>
</svg>
