<svg width="32" height="31" viewBox="0 0 32 31" fill="none" xmlns="http://www.w3.org/2000/svg">
<g clip-path="url(#clip0_403_3504)" filter="url(#filter0_d_403_3504)">
<path d="M17 14.0002H20V16.0002H17V19.0002H15V16.0002H12V14.0002H15V11.0002H17V14.0002ZM28 6.00024V23.0002H4V4.00024C4 3.20459 4.31607 2.44153 4.87868 1.87892C5.44129 1.31631 6.20435 1.00024 7 1.00024H12.236L16.236 3.00024H25C25.7956 3.00024 26.5587 3.31631 27.1213 3.87892C27.6839 4.44153 28 5.20459 28 6.00024ZM6 4.00024V7.00024H26V6.00024C26 5.73503 25.8946 5.48067 25.7071 5.29314C25.5196 5.1056 25.2652 5.00024 25 5.00024H15.764L11.764 3.00024H7C6.73478 3.00024 6.48043 3.1056 6.29289 3.29314C6.10536 3.48067 6 3.73503 6 4.00024V4.00024ZM26 21.0002V9.00024H6V21.0002H26Z" fill="#374957"/>
</g>
<defs>
<filter id="filter0_d_403_3504" x="0" y="0" width="32" height="32" filterUnits="userSpaceOnUse" color-interpolation-filters="sRGB">
<feFlood flood-opacity="0" result="BackgroundImageFix"/>
<feColorMatrix in="SourceAlpha" type="matrix" values="0 0 0 0 0 0 0 0 0 0 0 0 0 0 0 0 0 0 127 0" result="hardAlpha"/>
<feOffset dy="4"/>
<feGaussianBlur stdDeviation="2"/>
<feComposite in2="hardAlpha" operator="out"/>
<feColorMatrix type="matrix" values="0 0 0 0 0 0 0 0 0 0 0 0 0 0 0 0 0 0 0.25 0"/>
<feBlend mode="normal" in2="BackgroundImageFix" result="effect1_dropShadow_403_3504"/>
<feBlend mode="normal" in="SourceGraphic" in2="effect1_dropShadow_403_3504" result="shape"/>
</filter>
<clipPath id="clip0_403_3504">
<rect width="24" height="24" fill="white" transform="translate(4)"/>
</clipPath>
</defs>
</svg>
