<svg width="26" height="32" viewBox="0 0 26 32" fill="none" xmlns="http://www.w3.org/2000/svg">
<g clip-path="url(#clip0_403_3326)" filter="url(#filter0_d_403_3326)">
<path d="M19 0H15V1C15 1.53043 14.7893 2.03914 14.4142 2.41421C14.0391 2.78929 13.5304 3 13 3C12.4696 3 11.9609 2.78929 11.5858 2.41421C11.2107 2.03914 11 1.53043 11 1V0H7C6.20435 0 5.44129 0.31607 4.87868 0.87868C4.31607 1.44129 4 2.20435 4 3V24H11V23C11 22.4696 11.2107 21.9609 11.5858 21.5858C11.9609 21.2107 12.4696 21 13 21C13.5304 21 14.0391 21.2107 14.4142 21.5858C14.7893 21.9609 15 22.4696 15 23V24H22V3C22 2.20435 21.6839 1.44129 21.1213 0.87868C20.5587 0.31607 19.7956 0 19 0V0ZM16.874 22C16.653 21.1405 16.1524 20.3789 15.4511 19.835C14.7498 19.2912 13.8875 18.9961 13 18.9961C12.1125 18.9961 11.2502 19.2912 10.5489 19.835C9.84756 20.3789 9.347 21.1405 9.126 22H6V17H9V15H6V3C6 2.73478 6.10536 2.48043 6.29289 2.29289C6.48043 2.10536 6.73478 2 7 2H9.126C9.347 2.85953 9.84756 3.62115 10.5489 4.16498C11.2502 4.7088 12.1125 5.00395 13 5.00395C13.8875 5.00395 14.7498 4.7088 15.4511 4.16498C16.1524 3.62115 16.653 2.85953 16.874 2H19C19.2652 2 19.5196 2.10536 19.7071 2.29289C19.8946 2.48043 20 2.73478 20 3V15H17V17H20V22H16.874Z" fill="#374957"/>
<path d="M14.9998 15H10.9998V17H14.9998V15Z" fill="#374957"/>
</g>
<defs>
<filter id="filter0_d_403_3326" x="-3" y="0" width="32" height="32" filterUnits="userSpaceOnUse" color-interpolation-filters="sRGB">
<feFlood flood-opacity="0" result="BackgroundImageFix"/>
<feColorMatrix in="SourceAlpha" type="matrix" values="0 0 0 0 0 0 0 0 0 0 0 0 0 0 0 0 0 0 127 0" result="hardAlpha"/>
<feOffset dy="4"/>
<feGaussianBlur stdDeviation="2"/>
<feComposite in2="hardAlpha" operator="out"/>
<feColorMatrix type="matrix" values="0 0 0 0 0 0 0 0 0 0 0 0 0 0 0 0 0 0 0.25 0"/>
<feBlend mode="normal" in2="BackgroundImageFix" result="effect1_dropShadow_403_3326"/>
<feBlend mode="normal" in="SourceGraphic" in2="effect1_dropShadow_403_3326" result="shape"/>
</filter>
<clipPath id="clip0_403_3326">
<rect width="24" height="24" fill="white" transform="translate(1)"/>
</clipPath>
</defs>
</svg>
