<svg width="32" height="30" viewBox="0 0 32 30" fill="none" xmlns="http://www.w3.org/2000/svg">
<g clip-path="url(#clip0_403_3730)" filter="url(#filter0_d_403_3730)">
<path d="M5.87815 5.12107L4.29315 3.53607L5.70715 2.12207L7.29315 3.70707C7.48352 3.8891 7.73676 3.99069 8.00015 3.99069C8.26354 3.99069 8.51678 3.8891 8.70715 3.70707L12.2932 0.12207L13.7072 1.53607L10.1212 5.12107C9.84257 5.3997 9.51183 5.62072 9.14782 5.77152C8.78381 5.92232 8.39366 5.99993 7.99965 5.99993C7.60564 5.99993 7.21549 5.92232 6.85148 5.77152C6.48747 5.62072 6.15673 5.3997 5.87815 5.12107V5.12107ZM16.0002 5.00007H28.0002V3.00007H16.0002V5.00007ZM8.00015 14.0001C8.39426 14.0012 8.78468 13.9241 9.14877 13.7732C9.51285 13.6223 9.84337 13.4006 10.1212 13.1211L13.7072 9.53607L12.2932 8.12207L8.70715 11.7071C8.51678 11.8891 8.26354 11.9907 8.00015 11.9907C7.73676 11.9907 7.48352 11.8891 7.29315 11.7071L5.70715 10.1221L4.29315 11.5361L5.87815 13.1211C6.15619 13.4006 6.48689 13.6222 6.85113 13.7731C7.21536 13.924 7.6059 14.0011 8.00015 14.0001V14.0001ZM16.0002 13.0001H28.0002V11.0001H16.0002V13.0001ZM8.00015 22.0001C8.39426 22.0012 8.78468 21.9241 9.14877 21.7732C9.51285 21.6223 9.84337 21.4006 10.1212 21.1211L13.7072 17.5361L12.2932 16.1221L8.70715 19.7071C8.51678 19.8891 8.26354 19.9907 8.00015 19.9907C7.73676 19.9907 7.48352 19.8891 7.29315 19.7071L5.70715 18.1221L4.29315 19.5361L5.87815 21.1211C6.15619 21.4006 6.48689 21.6222 6.85113 21.7731C7.21536 21.9239 7.6059 22.0011 8.00015 22.0001V22.0001ZM16.0002 21.0001H28.0002V19.0001H16.0002V21.0001Z" fill="#374957"/>
</g>
<defs>
<filter id="filter0_d_403_3730" x="0" y="0" width="32" height="32" filterUnits="userSpaceOnUse" color-interpolation-filters="sRGB">
<feFlood flood-opacity="0" result="BackgroundImageFix"/>
<feColorMatrix in="SourceAlpha" type="matrix" values="0 0 0 0 0 0 0 0 0 0 0 0 0 0 0 0 0 0 127 0" result="hardAlpha"/>
<feOffset dy="4"/>
<feGaussianBlur stdDeviation="2"/>
<feComposite in2="hardAlpha" operator="out"/>
<feColorMatrix type="matrix" values="0 0 0 0 0 0 0 0 0 0 0 0 0 0 0 0 0 0 0.25 0"/>
<feBlend mode="normal" in2="BackgroundImageFix" result="effect1_dropShadow_403_3730"/>
<feBlend mode="normal" in="SourceGraphic" in2="effect1_dropShadow_403_3730" result="shape"/>
</filter>
<clipPath id="clip0_403_3730">
<rect width="24" height="24" fill="white" transform="translate(4)"/>
</clipPath>
</defs>
</svg>
