<svg width="32" height="32" viewBox="0 0 32 32" fill="none" xmlns="http://www.w3.org/2000/svg">
<g clip-path="url(#clip0_403_3422)" filter="url(#filter0_d_403_3422)">
<path d="M17.25 11.516C17.5641 10.5005 18.1943 9.61182 19.0487 8.9794C19.903 8.34697 20.937 8.00385 22 8C22.7956 8 23.5587 7.68393 24.1213 7.12132C24.6839 6.55871 25 5.79565 25 5C25 4.20435 24.6839 3.44129 24.1213 2.87868C23.5587 2.31607 22.7956 2 22 2C21.0678 1.99978 20.145 2.18649 19.2862 2.54908C18.4274 2.91166 17.65 3.44277 17 4.111V0H15V4.11C14.3498 3.44214 13.5723 2.91133 12.7136 2.54893C11.8548 2.18653 10.9321 1.99988 10 2C9.20435 2 8.44129 2.31607 7.87868 2.87868C7.31607 3.44129 7 4.20435 7 5C7 5.79565 7.31607 6.55871 7.87868 7.12132C8.44129 7.68393 9.20435 8 10 8C11.063 8.00385 12.097 8.34697 12.9513 8.9794C13.8057 9.61182 14.4359 10.5005 14.75 11.516C11.5907 10.5408 8.3063 10.0301 5 10H4V11C4 22.311 8.386 24 11 24C12.1155 23.9402 13.1841 23.5316 14.055 22.832C14.6059 22.3669 15.2832 22.0772 16 22C16.7168 22.0772 17.3941 22.3669 17.945 22.832C18.8159 23.5316 19.8845 23.9402 21 24C23.614 24 28 22.311 28 11V10H27C23.6937 10.03 20.4093 10.5406 17.25 11.516V11.516ZM22 4C22.2652 4 22.5196 4.10536 22.7071 4.29289C22.8946 4.48043 23 4.73478 23 5C23 5.26522 22.8946 5.51957 22.7071 5.70711C22.5196 5.89464 22.2652 6 22 6C20.1665 5.99854 18.4061 6.7192 17.1 8.006C17.3307 6.87622 17.9442 5.86067 18.8369 5.13082C19.7297 4.40097 20.8469 4.00155 22 4V4ZM10 6C9.73478 6 9.48043 5.89464 9.29289 5.70711C9.10536 5.51957 9 5.26522 9 5C9 4.73478 9.10536 4.48043 9.29289 4.29289C9.48043 4.10536 9.73478 4 10 4C11.153 4.00174 12.2702 4.40123 13.1629 5.13104C14.0556 5.86086 14.6691 6.87631 14.9 8.006C13.5935 6.71975 11.8334 5.99919 10 6V6ZM21 22C20.2832 21.9228 19.6059 21.6331 19.055 21.168C18.1841 20.4684 17.1155 20.0598 16 20C14.8845 20.0598 13.8159 20.4684 12.945 21.168C12.3941 21.6331 11.7168 21.9228 11 22C7.934 22 6.178 18.467 6.013 12.02C9.29644 12.1663 12.5387 12.8099 15.629 13.929L16 14.077L16.372 13.929C19.461 12.8064 22.7034 12.1627 25.987 12.02C25.822 18.466 24.066 22 21 22Z" fill="#374957"/>
<path d="M22.6859 15.3707C20.9108 15.655 19.1664 16.106 17.4759 16.7177L16.6759 17.0327C18.5339 17.2147 19.7509 18.7497 20.7289 18.9997C22.0089 19.3277 22.2929 17.7127 22.6859 15.3707Z" fill="#374957"/>
<path d="M9.31409 15.3707C9.70709 17.7127 9.99109 19.3277 11.2721 18.9997C12.2501 18.7497 13.4721 17.2147 15.3251 17.0327L14.5251 16.7177C12.8343 16.1059 11.0896 15.6549 9.31409 15.3707V15.3707Z" fill="#374957"/>
</g>
<defs>
<filter id="filter0_d_403_3422" x="0" y="0" width="32" height="32" filterUnits="userSpaceOnUse" color-interpolation-filters="sRGB">
<feFlood flood-opacity="0" result="BackgroundImageFix"/>
<feColorMatrix in="SourceAlpha" type="matrix" values="0 0 0 0 0 0 0 0 0 0 0 0 0 0 0 0 0 0 127 0" result="hardAlpha"/>
<feOffset dy="4"/>
<feGaussianBlur stdDeviation="2"/>
<feComposite in2="hardAlpha" operator="out"/>
<feColorMatrix type="matrix" values="0 0 0 0 0 0 0 0 0 0 0 0 0 0 0 0 0 0 0.25 0"/>
<feBlend mode="normal" in2="BackgroundImageFix" result="effect1_dropShadow_403_3422"/>
<feBlend mode="normal" in="SourceGraphic" in2="effect1_dropShadow_403_3422" result="shape"/>
</filter>
<clipPath id="clip0_403_3422">
<rect width="24" height="24" fill="white" transform="translate(4)"/>
</clipPath>
</defs>
</svg>
