<svg width="28" height="32" viewBox="0 0 28 32" fill="none" xmlns="http://www.w3.org/2000/svg">
<g clip-path="url(#clip0_403_3753)" filter="url(#filter0_d_403_3753)">
<path d="M16.4142 0H7.00015C6.2045 0 5.44144 0.31607 4.87883 0.87868C4.31622 1.44129 4.00015 2.20435 4.00015 3V24H24.0002V7.586L16.4142 0ZM17.0002 3.414L20.5862 7H17.0002V3.414ZM6.00015 22V3C6.00015 2.73478 6.10551 2.48043 6.29305 2.29289C6.48058 2.10536 6.73494 2 7.00015 2H15.0002V9H22.0002V22H6.00015ZM15.0002 11H17.0002V13H15.0002V17.5C15.0002 17.9945 14.8535 18.4778 14.5788 18.8889C14.3041 19.3 13.9137 19.6205 13.4569 19.8097C13 19.9989 12.4974 20.0484 12.0124 19.952C11.5275 19.8555 11.082 19.6174 10.7324 19.2678C10.3828 18.9181 10.1447 18.4727 10.0482 17.9877C9.95173 17.5028 10.0012 17.0001 10.1905 16.5433C10.3797 16.0865 10.7001 15.696 11.1112 15.4213C11.5223 15.1466 12.0057 15 12.5002 15C12.6681 15.0003 12.8355 15.0171 13.0002 15.05V13C13.0002 12.4696 13.2109 11.9609 13.5859 11.5858C13.961 11.2107 14.4697 11 15.0002 11V11Z" fill="#374957"/>
</g>
<defs>
<filter id="filter0_d_403_3753" x="-2" y="0" width="32" height="32" filterUnits="userSpaceOnUse" color-interpolation-filters="sRGB">
<feFlood flood-opacity="0" result="BackgroundImageFix"/>
<feColorMatrix in="SourceAlpha" type="matrix" values="0 0 0 0 0 0 0 0 0 0 0 0 0 0 0 0 0 0 127 0" result="hardAlpha"/>
<feOffset dy="4"/>
<feGaussianBlur stdDeviation="2"/>
<feComposite in2="hardAlpha" operator="out"/>
<feColorMatrix type="matrix" values="0 0 0 0 0 0 0 0 0 0 0 0 0 0 0 0 0 0 0.25 0"/>
<feBlend mode="normal" in2="BackgroundImageFix" result="effect1_dropShadow_403_3753"/>
<feBlend mode="normal" in="SourceGraphic" in2="effect1_dropShadow_403_3753" result="shape"/>
</filter>
<clipPath id="clip0_403_3753">
<rect width="24" height="24" fill="white" transform="translate(2)"/>
</clipPath>
</defs>
</svg>
