<svg width="32" height="32" viewBox="0 0 32 32" fill="none" xmlns="http://www.w3.org/2000/svg">
<g clip-path="url(#clip0_403_3531)" filter="url(#filter0_d_403_3531)">
<path d="M26 0H17V2H24.586L4 22.586L5.414 24L26 3.414V11H28V2C28 1.46957 27.7893 0.960859 27.4142 0.585786C27.0391 0.210714 26.5304 0 26 0V0Z" fill="#374957"/>
<path d="M10.0002 9.99964C10.7913 9.99964 11.5646 9.76504 12.2224 9.32551C12.8802 8.88599 13.3929 8.26127 13.6957 7.53037C13.9984 6.79946 14.0776 5.9952 13.9233 5.21927C13.769 4.44335 13.388 3.73062 12.8286 3.17121C12.2692 2.6118 11.5564 2.23084 10.7805 2.07649C10.0046 1.92215 9.20032 2.00137 8.46942 2.30412C7.73851 2.60687 7.1138 3.11956 6.67427 3.77735C6.23475 4.43515 6.00015 5.20851 6.00015 5.99964C6.00015 7.0605 6.42158 8.07792 7.17173 8.82806C7.92187 9.57821 8.93929 9.99964 10.0002 9.99964ZM10.0002 3.99964C10.3957 3.99964 10.7824 4.11693 11.1113 4.3367C11.4402 4.55646 11.6965 4.86882 11.8479 5.23427C11.9993 5.59972 12.0389 6.00185 11.9617 6.38982C11.8846 6.77778 11.6941 7.13414 11.4144 7.41385C11.1347 7.69355 10.7783 7.88404 10.3903 7.96121C10.0024 8.03838 9.60024 7.99877 9.23479 7.84739C8.86933 7.69602 8.55698 7.43967 8.33721 7.11078C8.11745 6.78188 8.00015 6.3952 8.00015 5.99964C8.00015 5.4692 8.21087 4.96049 8.58594 4.58542C8.96101 4.21035 9.46972 3.99964 10.0002 3.99964V3.99964Z" fill="#374957"/>
<path d="M22.0001 13.9996C21.209 13.9996 20.4356 14.2342 19.7778 14.6738C19.12 15.1133 18.6074 15.738 18.3046 16.4689C18.0019 17.1998 17.9226 18.0041 18.077 18.78C18.2313 19.5559 18.6123 20.2687 19.1717 20.8281C19.7311 21.3875 20.4438 21.7684 21.2198 21.9228C21.9957 22.0771 22.8 21.9979 23.5309 21.6952C24.2618 21.3924 24.8865 20.8797 25.326 20.2219C25.7655 19.5641 26.0001 18.7908 26.0001 17.9996C26.0001 16.9388 25.5787 15.9214 24.8286 15.1712C24.0784 14.4211 23.061 13.9996 22.0001 13.9996V13.9996ZM22.0001 19.9996C21.6046 19.9996 21.2179 19.8823 20.889 19.6626C20.5601 19.4428 20.3037 19.1305 20.1524 18.765C20.001 18.3995 19.9614 17.9974 20.0386 17.6095C20.1157 17.2215 20.3062 16.8651 20.5859 16.5854C20.8656 16.3057 21.222 16.1152 21.6099 16.0381C21.9979 15.9609 22.4 16.0005 22.7655 16.1519C23.1309 16.3032 23.4433 16.5596 23.6631 16.8885C23.8828 17.2174 24.0001 17.6041 24.0001 17.9996C24.0001 18.5301 23.7894 19.0388 23.4143 19.4138C23.0393 19.7889 22.5306 19.9996 22.0001 19.9996Z" fill="#374957"/>
</g>
<defs>
<filter id="filter0_d_403_3531" x="0" y="0" width="32" height="32" filterUnits="userSpaceOnUse" color-interpolation-filters="sRGB">
<feFlood flood-opacity="0" result="BackgroundImageFix"/>
<feColorMatrix in="SourceAlpha" type="matrix" values="0 0 0 0 0 0 0 0 0 0 0 0 0 0 0 0 0 0 127 0" result="hardAlpha"/>
<feOffset dy="4"/>
<feGaussianBlur stdDeviation="2"/>
<feComposite in2="hardAlpha" operator="out"/>
<feColorMatrix type="matrix" values="0 0 0 0 0 0 0 0 0 0 0 0 0 0 0 0 0 0 0.25 0"/>
<feBlend mode="normal" in2="BackgroundImageFix" result="effect1_dropShadow_403_3531"/>
<feBlend mode="normal" in="SourceGraphic" in2="effect1_dropShadow_403_3531" result="shape"/>
</filter>
<clipPath id="clip0_403_3531">
<rect width="24" height="24" fill="white" transform="translate(4)"/>
</clipPath>
</defs>
</svg>
