<svg width="32" height="32" viewBox="0 0 32 32" fill="none" xmlns="http://www.w3.org/2000/svg">
<g clip-path="url(#clip0_403_3731)" filter="url(#filter0_d_403_3731)">
<path d="M4 3V11H15V0H7C6.20435 0 5.44129 0.31607 4.87868 0.87868C4.31607 1.44129 4 2.20435 4 3V3ZM13 9H6V3C6 2.73478 6.10536 2.48043 6.29289 2.29289C6.48043 2.10536 6.73478 2 7 2H13V9Z" fill="#374957"/>
<path d="M4 21C4 21.7956 4.31607 22.5587 4.87868 23.1213C5.44129 23.6839 6.20435 24 7 24H15V13H4V21ZM6 15H13V22H7C6.73478 22 6.48043 21.8946 6.29289 21.7071C6.10536 21.5196 6 21.2652 6 21V15Z" fill="#374957"/>
<path d="M16.9998 13V24H24.9998C25.7955 24 26.5585 23.6839 27.1212 23.1213C27.6838 22.5587 27.9998 21.7956 27.9998 21V13H16.9998ZM25.9998 21C25.9998 21.2652 25.8945 21.5196 25.7069 21.7071C25.5194 21.8946 25.2651 22 24.9998 22H18.9998V15H25.9998V21Z" fill="#374957"/>
<path d="M20.9998 11H22.9998V7H26.9998V5H22.9998V1H20.9998V5H16.9998V7H20.9998V11Z" fill="#374957"/>
</g>
<defs>
<filter id="filter0_d_403_3731" x="0" y="0" width="32" height="32" filterUnits="userSpaceOnUse" color-interpolation-filters="sRGB">
<feFlood flood-opacity="0" result="BackgroundImageFix"/>
<feColorMatrix in="SourceAlpha" type="matrix" values="0 0 0 0 0 0 0 0 0 0 0 0 0 0 0 0 0 0 127 0" result="hardAlpha"/>
<feOffset dy="4"/>
<feGaussianBlur stdDeviation="2"/>
<feComposite in2="hardAlpha" operator="out"/>
<feColorMatrix type="matrix" values="0 0 0 0 0 0 0 0 0 0 0 0 0 0 0 0 0 0 0.25 0"/>
<feBlend mode="normal" in2="BackgroundImageFix" result="effect1_dropShadow_403_3731"/>
<feBlend mode="normal" in="SourceGraphic" in2="effect1_dropShadow_403_3731" result="shape"/>
</filter>
<clipPath id="clip0_403_3731">
<rect width="24" height="24" fill="white" transform="translate(4)"/>
</clipPath>
</defs>
</svg>
