<svg width="30" height="32" viewBox="0 0 30 32" fill="none" xmlns="http://www.w3.org/2000/svg">
<g clip-path="url(#clip0_403_3408)" filter="url(#filter0_d_403_3408)">
<path d="M16.9999 24.0003C13.8184 23.9969 10.7682 22.7315 8.51847 20.4818C6.26878 18.2321 5.00339 15.1819 4.99995 12.0003C4.84695 3.04432 15.0309 -2.98468 22.791 1.50932L24.344 2.37132L22.801 3.25132C16.101 6.93932 16.5909 17.1213 23.601 20.1573L25.222 20.8883L23.7549 21.8943C21.7683 23.2638 19.4129 23.9981 16.9999 24.0003V24.0003ZM16.9999 2.00032C14.3487 2.00323 11.8068 3.05774 9.9321 4.93247C8.05736 6.8072 7.00286 9.34905 6.99995 12.0003C6.84495 19.1173 14.763 24.2003 21.155 21.0823C19.6585 20.078 18.4179 18.7373 17.5327 17.1675C16.6474 15.5977 16.1419 13.8424 16.0568 12.0422C15.9716 10.242 16.3091 8.44689 17.0423 6.80054C17.7755 5.15419 18.884 3.70237 20.2789 2.56132C19.2262 2.18777 18.117 1.998 16.9999 2.00032V2.00032Z" fill="#374957"/>
</g>
<defs>
<filter id="filter0_d_403_3408" x="-1" y="0" width="32" height="32" filterUnits="userSpaceOnUse" color-interpolation-filters="sRGB">
<feFlood flood-opacity="0" result="BackgroundImageFix"/>
<feColorMatrix in="SourceAlpha" type="matrix" values="0 0 0 0 0 0 0 0 0 0 0 0 0 0 0 0 0 0 127 0" result="hardAlpha"/>
<feOffset dy="4"/>
<feGaussianBlur stdDeviation="2"/>
<feComposite in2="hardAlpha" operator="out"/>
<feColorMatrix type="matrix" values="0 0 0 0 0 0 0 0 0 0 0 0 0 0 0 0 0 0 0.25 0"/>
<feBlend mode="normal" in2="BackgroundImageFix" result="effect1_dropShadow_403_3408"/>
<feBlend mode="normal" in="SourceGraphic" in2="effect1_dropShadow_403_3408" result="shape"/>
</filter>
<clipPath id="clip0_403_3408">
<rect width="24" height="24" fill="white" transform="translate(3)"/>
</clipPath>
</defs>
</svg>
