<svg width="32" height="32" viewBox="0 0 32 32" fill="none" xmlns="http://www.w3.org/2000/svg">
<g clip-path="url(#clip0_403_3720)" filter="url(#filter0_d_403_3720)">
<path d="M12.474 11C11.3862 11 10.3228 10.6774 9.41836 10.0731C8.51389 9.46874 7.80894 8.60976 7.39266 7.60476C6.97638 6.59977 6.86746 5.4939 7.07968 4.42701C7.2919 3.36011 7.81572 2.3801 8.58491 1.61092C9.3541 0.841726 10.3341 0.317902 11.401 0.105683C12.4679 -0.106535 13.5738 0.00238308 14.5788 0.418665C15.5838 0.834947 16.4427 1.5399 17.0471 2.44437C17.6514 3.34884 17.974 4.41221 17.974 5.5C17.9724 6.95821 17.3924 8.35623 16.3613 9.38734C15.3302 10.4184 13.9322 10.9984 12.474 11V11ZM12.474 2C11.7818 2 11.1051 2.20527 10.5295 2.58986C9.95393 2.97444 9.50533 3.52107 9.24042 4.16061C8.97552 4.80015 8.9062 5.50389 9.04125 6.18282C9.1763 6.86175 9.50964 7.48539 9.99913 7.97488C10.4886 8.46436 11.1123 8.7977 11.7912 8.93275C12.4701 9.0678 13.1739 8.99849 13.8134 8.73358C14.4529 8.46868 14.9996 8.02007 15.3841 7.4445C15.7687 6.86893 15.974 6.19224 15.974 5.5C15.974 4.57175 15.6053 3.68151 14.9489 3.02513C14.2925 2.36875 13.4023 2 12.474 2V2ZM21 24C19.6155 24 18.2622 23.5895 17.111 22.8203C15.9599 22.0511 15.0627 20.9579 14.5328 19.6788C14.003 18.3997 13.8644 16.9922 14.1345 15.6344C14.4046 14.2765 15.0713 13.0292 16.0503 12.0503C17.0292 11.0713 18.2765 10.4046 19.6344 10.1345C20.9922 9.86441 22.3997 10.003 23.6788 10.5328C24.9579 11.0627 26.0511 11.9599 26.8203 13.111C27.5895 14.2622 28 15.6155 28 17C27.9979 18.8559 27.2597 20.6351 25.9474 21.9474C24.6351 23.2597 22.8559 23.9979 21 24V24ZM21 12C20.0111 12 19.0444 12.2932 18.2221 12.8427C17.3999 13.3921 16.759 14.173 16.3806 15.0866C16.0022 16.0002 15.9031 17.0056 16.0961 17.9755C16.289 18.9454 16.7652 19.8363 17.4645 20.5355C18.1637 21.2348 19.0546 21.711 20.0245 21.9039C20.9945 22.0969 21.9998 21.9978 22.9134 21.6194C23.827 21.241 24.6079 20.6001 25.1573 19.7779C25.7068 18.9556 26 17.9889 26 17C25.9984 15.6744 25.4711 14.4036 24.5338 13.4662C23.5964 12.5289 22.3256 12.0016 21 12ZM23.707 18.293L22 16.586V14H20V17.414L22.293 19.707L23.707 18.293ZM12.947 13H9C7.6744 13.0016 6.40356 13.5289 5.46622 14.4662C4.52888 15.4036 4.00159 16.6744 4 18L4 24H6V18C6 17.2044 6.31607 16.4413 6.87868 15.8787C7.44129 15.3161 8.20435 15 9 15H12.231C12.3885 14.307 12.6289 13.6355 12.947 13V13Z" fill="#374957"/>
</g>
<defs>
<filter id="filter0_d_403_3720" x="0" y="0" width="32" height="32" filterUnits="userSpaceOnUse" color-interpolation-filters="sRGB">
<feFlood flood-opacity="0" result="BackgroundImageFix"/>
<feColorMatrix in="SourceAlpha" type="matrix" values="0 0 0 0 0 0 0 0 0 0 0 0 0 0 0 0 0 0 127 0" result="hardAlpha"/>
<feOffset dy="4"/>
<feGaussianBlur stdDeviation="2"/>
<feComposite in2="hardAlpha" operator="out"/>
<feColorMatrix type="matrix" values="0 0 0 0 0 0 0 0 0 0 0 0 0 0 0 0 0 0 0.25 0"/>
<feBlend mode="normal" in2="BackgroundImageFix" result="effect1_dropShadow_403_3720"/>
<feBlend mode="normal" in="SourceGraphic" in2="effect1_dropShadow_403_3720" result="shape"/>
</filter>
<clipPath id="clip0_403_3720">
<rect width="24" height="24" fill="white" transform="translate(4)"/>
</clipPath>
</defs>
</svg>
