<svg width="32" height="32" viewBox="0 0 32 32" fill="none" xmlns="http://www.w3.org/2000/svg">
<g clip-path="url(#clip0_403_3603)" filter="url(#filter0_d_403_3603)">
<path d="M13.5002 11.0001C14.3286 11.0001 15.0002 10.3285 15.0002 9.50012C15.0002 8.67169 14.3286 8.00012 13.5002 8.00012C12.6717 8.00012 12.0002 8.67169 12.0002 9.50012C12.0002 10.3285 12.6717 11.0001 13.5002 11.0001Z" fill="#374957"/>
<path d="M22.5002 3C23.3286 3 24.0002 2.32843 24.0002 1.5C24.0002 0.671573 23.3286 0 22.5002 0C21.6717 0 21.0002 0.671573 21.0002 1.5C21.0002 2.32843 21.6717 3 22.5002 3Z" fill="#374957"/>
<path d="M25.5002 8.00012C26.3286 8.00012 27.0002 7.32855 27.0002 6.50012C27.0002 5.67169 26.3286 5.00012 25.5002 5.00012C24.6718 5.00012 24.0002 5.67169 24.0002 6.50012C24.0002 7.32855 24.6718 8.00012 25.5002 8.00012Z" fill="#374957"/>
<path d="M13.5002 15.9999C14.3286 15.9999 15.0002 15.3283 15.0002 14.4999C15.0002 13.6715 14.3286 12.9999 13.5002 12.9999C12.6717 12.9999 12.0002 13.6715 12.0002 14.4999C12.0002 15.3283 12.6717 15.9999 13.5002 15.9999Z" fill="#374957"/>
<path d="M18.4998 15.9999C19.3283 15.9999 19.9998 15.3283 19.9998 14.4999C19.9998 13.6715 19.3283 12.9999 18.4998 12.9999C17.6714 12.9999 16.9998 13.6715 16.9998 14.4999C16.9998 15.3283 17.6714 15.9999 18.4998 15.9999Z" fill="#374957"/>
<path d="M16 24C12.8174 24 9.76516 22.7357 7.51472 20.4853C5.26428 18.2348 4 15.1826 4 12C4 8.8174 5.26428 5.76516 7.51472 3.51472C9.76516 1.26428 12.8174 0 16 0C16.387 0 16.769 0.021 17.146 0.057L17.97 0.134L18.048 0.958C18.2707 3.26786 19.2899 5.42835 20.9308 7.06924C22.5717 8.71013 24.7321 9.72926 27.042 9.952L27.866 10.03L27.943 10.854C27.979 11.231 28 11.613 28 12C27.9966 15.1815 26.7312 18.2318 24.4815 20.4815C22.2318 22.7312 19.1815 23.9966 16 24ZM16 2C14.0222 2 12.0888 2.58649 10.4443 3.6853C8.79981 4.78412 7.51808 6.3459 6.7612 8.17317C6.00433 10.0004 5.8063 12.0111 6.19215 13.9509C6.578 15.8907 7.53041 17.6725 8.92893 19.0711C10.3275 20.4696 12.1093 21.422 14.0491 21.8079C15.9889 22.1937 17.9996 21.9957 19.8268 21.2388C21.6541 20.4819 23.2159 19.2002 24.3147 17.5557C25.4135 15.9112 26 13.9778 26 12C26 11.943 26 11.887 26 11.83C23.5442 11.4136 21.2788 10.2437 19.5175 8.48247C17.7563 6.72121 16.5864 4.45575 16.17 2H16Z" fill="#374957"/>
</g>
<defs>
<filter id="filter0_d_403_3603" x="0" y="0" width="32" height="32" filterUnits="userSpaceOnUse" color-interpolation-filters="sRGB">
<feFlood flood-opacity="0" result="BackgroundImageFix"/>
<feColorMatrix in="SourceAlpha" type="matrix" values="0 0 0 0 0 0 0 0 0 0 0 0 0 0 0 0 0 0 127 0" result="hardAlpha"/>
<feOffset dy="4"/>
<feGaussianBlur stdDeviation="2"/>
<feComposite in2="hardAlpha" operator="out"/>
<feColorMatrix type="matrix" values="0 0 0 0 0 0 0 0 0 0 0 0 0 0 0 0 0 0 0.25 0"/>
<feBlend mode="normal" in2="BackgroundImageFix" result="effect1_dropShadow_403_3603"/>
<feBlend mode="normal" in="SourceGraphic" in2="effect1_dropShadow_403_3603" result="shape"/>
</filter>
<clipPath id="clip0_403_3603">
<rect width="24" height="24" fill="white" transform="translate(4)"/>
</clipPath>
</defs>
</svg>
