<svg width="32" height="32" viewBox="0 0 32 32" fill="none" xmlns="http://www.w3.org/2000/svg">
<g clip-path="url(#clip0_403_3657)" filter="url(#filter0_d_403_3657)">
<path d="M26.7631 10.2311L21.8131 5.28113L20.4001 6.69913L24.7001 10.9991H10.6171V12.9991H24.7001L20.4001 17.2991L21.8141 18.7131L26.7641 13.7631C26.9963 13.531 27.1805 13.2553 27.3062 12.952C27.4318 12.6486 27.4965 12.3235 27.4965 11.9951C27.4965 11.6668 27.4318 11.3416 27.3062 11.0383C27.1805 10.7349 26.9963 10.4593 26.7641 10.2271L26.7631 10.2311Z" fill="#374957"/>
<path d="M14.476 21C14.476 21.2652 14.3706 21.5196 14.1831 21.7071C13.9956 21.8946 13.7412 22 13.476 22H7C6.73478 22 6.48043 21.8946 6.29289 21.7071C6.10536 21.5196 6 21.2652 6 21V3C6 2.73478 6.10536 2.48043 6.29289 2.29289C6.48043 2.10536 6.73478 2 7 2H13.476C13.7412 2 13.9956 2.10536 14.1831 2.29289C14.3706 2.48043 14.476 2.73478 14.476 3V8.333H16.476V3C16.476 2.20435 16.1599 1.44129 15.5973 0.87868C15.0347 0.31607 14.2716 0 13.476 0L7 0C6.20435 0 5.44129 0.31607 4.87868 0.87868C4.31607 1.44129 4 2.20435 4 3V21C4 21.7956 4.31607 22.5587 4.87868 23.1213C5.44129 23.6839 6.20435 24 7 24H13.476C14.2716 24 15.0347 23.6839 15.5973 23.1213C16.1599 22.5587 16.476 21.7956 16.476 21V15.667H14.476V21Z" fill="#374957"/>
</g>
<defs>
<filter id="filter0_d_403_3657" x="0" y="0" width="32" height="32" filterUnits="userSpaceOnUse" color-interpolation-filters="sRGB">
<feFlood flood-opacity="0" result="BackgroundImageFix"/>
<feColorMatrix in="SourceAlpha" type="matrix" values="0 0 0 0 0 0 0 0 0 0 0 0 0 0 0 0 0 0 127 0" result="hardAlpha"/>
<feOffset dy="4"/>
<feGaussianBlur stdDeviation="2"/>
<feComposite in2="hardAlpha" operator="out"/>
<feColorMatrix type="matrix" values="0 0 0 0 0 0 0 0 0 0 0 0 0 0 0 0 0 0 0.25 0"/>
<feBlend mode="normal" in2="BackgroundImageFix" result="effect1_dropShadow_403_3657"/>
<feBlend mode="normal" in="SourceGraphic" in2="effect1_dropShadow_403_3657" result="shape"/>
</filter>
<clipPath id="clip0_403_3657">
<rect width="24" height="24" fill="white" transform="translate(4)"/>
</clipPath>
</defs>
</svg>
