<svg width="28" height="32" viewBox="0 0 28 32" fill="none" xmlns="http://www.w3.org/2000/svg">
<g clip-path="url(#clip0_403_3390)" filter="url(#filter0_d_403_3390)">
<path d="M22.977 11.27C22.7487 8.50094 21.4984 5.91583 19.4695 4.01759C17.4406 2.11935 14.7781 1.04373 12 1V0H6.99999C6.20434 0 5.44128 0.31607 4.87867 0.87868C4.31606 1.44129 3.99999 2.20435 3.99999 3V21C3.99999 21.7956 4.31606 22.5587 4.87867 23.1213C5.44128 23.6839 6.20434 24 6.99999 24H12V23C13.5044 22.9976 14.9924 22.6877 16.3728 22.0895C17.7531 21.4912 18.9966 20.6172 20.027 19.521C21.0621 18.4241 21.8586 17.1246 22.3663 15.7045C22.8741 14.2844 23.082 12.7745 22.977 11.27V11.27ZM18.567 18.153C17.7286 19.0557 16.7122 19.7748 15.5819 20.2648C14.4516 20.7549 13.2319 21.0052 12 21H9.99999V22H6.99999C6.73478 22 6.48042 21.8946 6.29289 21.7071C6.10535 21.5196 5.99999 21.2652 5.99999 21V19H7.99999V17H5.99999V15H7.99999V13H5.99999V11H7.99999V9H5.99999V7H7.99999V5H5.99999V3C5.99999 2.73478 6.10535 2.48043 6.29289 2.29289C6.48042 2.10536 6.73478 2 6.99999 2H9.99999V3H11.657C13.9856 2.96007 16.2427 3.80479 17.973 5.36373C19.7032 6.92268 20.7778 9.07983 20.98 11.4C21.0666 12.6313 20.8969 13.8672 20.4816 15.0295C20.0662 16.1919 19.4143 17.2554 18.567 18.153V18.153ZM12 7H9.99999V17H12C13.3261 17 14.5978 16.4732 15.5355 15.5355C16.4732 14.5979 17 13.3261 17 12C17 10.6739 16.4732 9.40215 15.5355 8.46447C14.5978 7.52678 13.3261 7 12 7V7ZM12 15V9C12.7956 9 13.5587 9.31607 14.1213 9.87868C14.6839 10.4413 15 11.2044 15 12C15 12.7956 14.6839 13.5587 14.1213 14.1213C13.5587 14.6839 12.7956 15 12 15V15Z" fill="#374957"/>
</g>
<defs>
<filter id="filter0_d_403_3390" x="-3" y="0" width="32" height="32" filterUnits="userSpaceOnUse" color-interpolation-filters="sRGB">
<feFlood flood-opacity="0" result="BackgroundImageFix"/>
<feColorMatrix in="SourceAlpha" type="matrix" values="0 0 0 0 0 0 0 0 0 0 0 0 0 0 0 0 0 0 127 0" result="hardAlpha"/>
<feOffset dy="4"/>
<feGaussianBlur stdDeviation="2"/>
<feComposite in2="hardAlpha" operator="out"/>
<feColorMatrix type="matrix" values="0 0 0 0 0 0 0 0 0 0 0 0 0 0 0 0 0 0 0.25 0"/>
<feBlend mode="normal" in2="BackgroundImageFix" result="effect1_dropShadow_403_3390"/>
<feBlend mode="normal" in="SourceGraphic" in2="effect1_dropShadow_403_3390" result="shape"/>
</filter>
<clipPath id="clip0_403_3390">
<rect width="24" height="24" fill="white" transform="translate(1)"/>
</clipPath>
</defs>
</svg>
