<svg width="32" height="32" viewBox="0 0 32 32" fill="none" xmlns="http://www.w3.org/2000/svg">
<g clip-path="url(#clip0_403_3656)" filter="url(#filter0_d_403_3656)">
<path d="M26 7C26.5304 7 27.0391 6.78929 27.4142 6.41421C27.7893 6.03914 28 5.53043 28 5V0H26V5H21.946C21.4663 3.81779 20.6447 2.80562 19.5864 2.09298C18.5282 1.38035 17.2813 0.999681 16.0055 0.999681C14.7297 0.999681 13.4828 1.38035 12.4246 2.09298C11.3663 2.80562 10.5447 3.81779 10.065 5H6V0H4V5C4 5.53043 4.21071 6.03914 4.58579 6.41421C4.96086 6.78929 5.46957 7 6 7H9.485L8.472 11H4V13H7.965L7.82 13.573L7.8 13.7C7.75541 14.0422 7.73203 14.3869 7.73 14.732C7.73101 15.4994 7.83974 16.2628 8.053 17H6C5.46957 17 4.96086 17.2107 4.58579 17.5858C4.21071 17.9609 4 18.4696 4 19V24H6V19H8.93C9.66311 20.2202 10.6995 21.2298 11.9384 21.9308C13.1773 22.6317 14.5765 23.0001 16 23.0001C17.4235 23.0001 18.8227 22.6317 20.0616 21.9308C21.3005 21.2298 22.3369 20.2202 23.07 19H26V24H28V19C28 18.4696 27.7893 17.9609 27.4142 17.5858C27.0391 17.2107 26.5304 17 26 17H23.947C24.1614 16.2613 24.2708 15.4962 24.272 14.727C24.2691 14.3835 24.2451 14.0405 24.2 13.7L24.025 13H28V11H23.522L22.513 7H26ZM16 21C14.337 20.9981 12.7426 20.3366 11.5667 19.1606C10.3909 17.9845 9.72959 16.39 9.728 14.727C9.72938 14.484 9.74507 14.2412 9.775 14L11.805 5.97C12.1097 5.1051 12.6742 4.3555 13.4213 3.82381C14.1684 3.29212 15.0616 3.00434 15.9786 2.99985C16.8955 2.99536 17.7915 3.27439 18.5438 3.79874C19.2961 4.32309 19.8679 5.06712 20.181 5.929L22.225 14C22.2549 14.2405 22.2705 14.4826 22.272 14.725C22.2709 16.3884 21.6099 17.9834 20.434 19.1599C19.2581 20.3363 17.6634 20.9981 16 21V21Z" fill="#374957"/>
</g>
<defs>
<filter id="filter0_d_403_3656" x="0" y="0" width="32" height="32" filterUnits="userSpaceOnUse" color-interpolation-filters="sRGB">
<feFlood flood-opacity="0" result="BackgroundImageFix"/>
<feColorMatrix in="SourceAlpha" type="matrix" values="0 0 0 0 0 0 0 0 0 0 0 0 0 0 0 0 0 0 127 0" result="hardAlpha"/>
<feOffset dy="4"/>
<feGaussianBlur stdDeviation="2"/>
<feComposite in2="hardAlpha" operator="out"/>
<feColorMatrix type="matrix" values="0 0 0 0 0 0 0 0 0 0 0 0 0 0 0 0 0 0 0.25 0"/>
<feBlend mode="normal" in2="BackgroundImageFix" result="effect1_dropShadow_403_3656"/>
<feBlend mode="normal" in="SourceGraphic" in2="effect1_dropShadow_403_3656" result="shape"/>
</filter>
<clipPath id="clip0_403_3656">
<rect width="24" height="24" fill="white" transform="translate(4)"/>
</clipPath>
</defs>
</svg>
