<svg width="32" height="32" viewBox="0 0 32 32" fill="none" xmlns="http://www.w3.org/2000/svg">
<g clip-path="url(#clip0_403_3629)" filter="url(#filter0_d_403_3629)">
<path d="M18 24C17.2117 24.0023 16.4307 23.848 15.7025 23.546C14.9743 23.2441 14.3134 22.8005 13.758 22.241C12.6393 21.112 12.0117 19.5869 12.0117 17.9975C12.0117 16.4081 12.6393 14.883 13.758 13.754L18 9.253L22.263 13.772C23.3718 14.9033 23.9911 16.4253 23.9872 18.0093C23.9833 19.5933 23.3564 21.1123 22.242 22.238C21.6869 22.798 21.026 23.2421 20.2978 23.5446C19.5696 23.8471 18.7885 24.0019 18 24V24ZM18 12.171L15.192 15.148C14.4366 15.8986 14.0101 16.9185 14.0064 17.9834C14.0026 19.0483 14.4219 20.0711 15.172 20.827C15.9336 21.5549 16.9465 21.9611 18 21.9611C19.0535 21.9611 20.0664 21.5549 20.828 20.827V20.827C21.5736 20.0742 21.9919 19.0575 21.9919 17.998C21.9919 16.9385 21.5736 15.9218 20.828 15.169L18 12.171ZM8.99999 11.996C8.34314 11.9978 7.69246 11.8693 7.08565 11.6178C6.47884 11.3663 5.92798 10.9969 5.46499 10.531C4.53286 9.59019 4.00992 8.31938 4.00992 6.995C4.00992 5.67062 4.53286 4.39981 5.46499 3.459L8.99999 0L12.527 3.448C13.4629 4.38796 13.9889 5.65994 13.9904 6.98635C13.9919 8.31276 13.4687 9.58593 12.535 10.528C12.0721 10.9941 11.5212 11.3636 10.9144 11.615C10.3076 11.8665 9.65686 11.995 8.99999 11.993V11.996ZM8.99999 2.796L6.87099 4.878C6.32537 5.44469 6.02418 6.20302 6.03228 6.98964C6.04039 7.77626 6.35714 8.52823 6.91431 9.08356C7.47148 9.63889 8.22448 9.95316 9.01112 9.95867C9.79777 9.96418 10.5551 9.66048 11.12 9.113V9.113C11.6793 8.54858 11.9931 7.78611 11.9931 6.9915C11.9931 6.19689 11.6793 5.43443 11.12 4.87L8.99999 2.796ZM24 9.996C23.4743 9.99679 22.9536 9.89325 22.4681 9.69139C21.9827 9.48952 21.5421 9.19334 21.172 8.82C20.4264 8.0674 20.0081 7.05087 20.0081 5.9915C20.0081 4.93213 20.4264 3.9156 21.172 3.163L23.982 0.039L26.86 3.2C27.5909 3.95557 27.9968 4.96732 27.9908 6.01853C27.9848 7.06973 27.5674 8.07679 26.828 8.824V8.824C26.4572 9.19608 26.0164 9.49097 25.531 9.69162C25.0456 9.89227 24.5252 9.99471 24 9.993V9.996ZM23.992 3.021L22.622 4.542C22.2418 4.91224 22.0243 5.41835 22.0172 5.94898C22.0102 6.47962 22.2142 6.99131 22.5845 7.3715C22.9547 7.75169 23.4608 7.96923 23.9915 7.97626C24.5221 7.98329 25.0338 7.77924 25.414 7.409C25.7868 7.03262 25.9959 6.52427 25.9959 5.9945C25.9959 5.46473 25.7868 4.95638 25.414 4.58L23.992 3.021Z" fill="#374957"/>
</g>
<defs>
<filter id="filter0_d_403_3629" x="0" y="0" width="32" height="32" filterUnits="userSpaceOnUse" color-interpolation-filters="sRGB">
<feFlood flood-opacity="0" result="BackgroundImageFix"/>
<feColorMatrix in="SourceAlpha" type="matrix" values="0 0 0 0 0 0 0 0 0 0 0 0 0 0 0 0 0 0 127 0" result="hardAlpha"/>
<feOffset dy="4"/>
<feGaussianBlur stdDeviation="2"/>
<feComposite in2="hardAlpha" operator="out"/>
<feColorMatrix type="matrix" values="0 0 0 0 0 0 0 0 0 0 0 0 0 0 0 0 0 0 0.25 0"/>
<feBlend mode="normal" in2="BackgroundImageFix" result="effect1_dropShadow_403_3629"/>
<feBlend mode="normal" in="SourceGraphic" in2="effect1_dropShadow_403_3629" result="shape"/>
</filter>
<clipPath id="clip0_403_3629">
<rect width="24" height="24" fill="white" transform="translate(4)"/>
</clipPath>
</defs>
</svg>
