<svg width="32" height="32" viewBox="0 0 32 32" fill="none" xmlns="http://www.w3.org/2000/svg">
<g clip-path="url(#clip0_403_3529)" filter="url(#filter0_d_403_3529)">
<path d="M22 8.2V0H24V8.2L26.242 5.958L27.656 7.372L24.747 10.281C24.2835 10.744 23.6551 11.0041 23 11.0041C22.3449 11.0041 21.7165 10.744 21.253 10.281L18.382 7.406L19.8 5.992L22 8.2ZM26.161 11.7C26.111 11.75 26.052 11.786 26 11.833V22H6V9.07L12.465 15.536C13.4026 16.4734 14.6742 16.9999 16 16.9999C17.3258 16.9999 18.5974 16.4734 19.535 15.536L22.153 12.917C21.4481 12.7787 20.7878 12.4697 20.23 12.017L18.121 14.126C17.5493 14.671 16.7898 14.975 16 14.975C15.2102 14.975 14.4507 14.671 13.879 14.126L6 6.242V6C6 5.73478 6.10536 5.48043 6.29289 5.29289C6.48043 5.10536 6.73478 5 7 5H18L20 3H7C6.20435 3 5.44129 3.31607 4.87868 3.87868C4.31607 4.44129 4 5.20435 4 6V24H28V9.852L26.161 11.7Z" fill="#374957"/>
</g>
<defs>
<filter id="filter0_d_403_3529" x="0" y="0" width="32" height="32" filterUnits="userSpaceOnUse" color-interpolation-filters="sRGB">
<feFlood flood-opacity="0" result="BackgroundImageFix"/>
<feColorMatrix in="SourceAlpha" type="matrix" values="0 0 0 0 0 0 0 0 0 0 0 0 0 0 0 0 0 0 127 0" result="hardAlpha"/>
<feOffset dy="4"/>
<feGaussianBlur stdDeviation="2"/>
<feComposite in2="hardAlpha" operator="out"/>
<feColorMatrix type="matrix" values="0 0 0 0 0 0 0 0 0 0 0 0 0 0 0 0 0 0 0.25 0"/>
<feBlend mode="normal" in2="BackgroundImageFix" result="effect1_dropShadow_403_3529"/>
<feBlend mode="normal" in="SourceGraphic" in2="effect1_dropShadow_403_3529" result="shape"/>
</filter>
<clipPath id="clip0_403_3529">
<rect width="24" height="24" fill="white" transform="translate(4)"/>
</clipPath>
</defs>
</svg>
