<svg width="32" height="32" viewBox="0 0 32 32" fill="none" xmlns="http://www.w3.org/2000/svg">
<g clip-path="url(#clip0_403_3495)" filter="url(#filter0_d_403_3495)">
<path d="M28 14.214L26 3H7C6.20435 3 5.44129 3.31607 4.87868 3.87868C4.31607 4.44129 4 5.20435 4 6V15C4 15.7956 4.31607 16.5587 4.87868 17.1213C5.44129 17.6839 6.20435 18 7 18H11.712L13.626 21.879C13.9488 22.5313 14.495 23.046 15.1652 23.3296C15.8355 23.6131 16.5852 23.6466 17.2781 23.424C17.971 23.2014 18.561 22.7375 18.9407 22.1166C19.3203 21.4958 19.4645 20.7592 19.347 20.041L19.011 18H28V14.214ZM6 15V6C6 5.73478 6.10536 5.48043 6.29289 5.29289C6.48043 5.10536 6.73478 5 7 5H11V16H7C6.73478 16 6.48043 15.8946 6.29289 15.7071C6.10536 15.5196 6 15.2652 6 15V15ZM26 16H16.655L17.374 20.365C17.3994 20.5135 17.3916 20.6658 17.3513 20.811C17.3111 20.9562 17.2392 21.0908 17.141 21.205C17.0257 21.329 16.8826 21.4239 16.7236 21.4819C16.5645 21.5398 16.3939 21.5593 16.2259 21.5386C16.0578 21.5179 15.8971 21.4577 15.7568 21.3628C15.6166 21.268 15.5008 21.1412 15.419 20.993L13 16.091V5H24.33L26 14.3V16Z" fill="#374957"/>
</g>
<defs>
<filter id="filter0_d_403_3495" x="0" y="0" width="32" height="32" filterUnits="userSpaceOnUse" color-interpolation-filters="sRGB">
<feFlood flood-opacity="0" result="BackgroundImageFix"/>
<feColorMatrix in="SourceAlpha" type="matrix" values="0 0 0 0 0 0 0 0 0 0 0 0 0 0 0 0 0 0 127 0" result="hardAlpha"/>
<feOffset dy="4"/>
<feGaussianBlur stdDeviation="2"/>
<feComposite in2="hardAlpha" operator="out"/>
<feColorMatrix type="matrix" values="0 0 0 0 0 0 0 0 0 0 0 0 0 0 0 0 0 0 0.25 0"/>
<feBlend mode="normal" in2="BackgroundImageFix" result="effect1_dropShadow_403_3495"/>
<feBlend mode="normal" in="SourceGraphic" in2="effect1_dropShadow_403_3495" result="shape"/>
</filter>
<clipPath id="clip0_403_3495">
<rect width="24" height="24" fill="white" transform="translate(4)"/>
</clipPath>
</defs>
</svg>
