<svg width="32" height="32" viewBox="0 0 32 32" fill="none" xmlns="http://www.w3.org/2000/svg">
<g clip-path="url(#clip0_403_3554)" filter="url(#filter0_d_403_3554)">
<path d="M25 0H7C6.20435 0 5.44129 0.31607 4.87868 0.87868C4.31607 1.44129 4 2.20435 4 3V24H28V3C28 2.20435 27.6839 1.44129 27.1213 0.87868C26.5587 0.31607 25.7956 0 25 0V0ZM26 3V6H22V2H25C25.2652 2 25.5196 2.10536 25.7071 2.29289C25.8946 2.48043 26 2.73478 26 3ZM17 6V2H20V6H17ZM20 8V11H17V8H20ZM15 6H12V2H15V6ZM15 8V11H12V8H15ZM10 11H6V8H10V11ZM10 13V16H6V13H10ZM12 13H15V16H12V13ZM15 18V22H12V18H15ZM17 18H20V22H17V18ZM17 16V13H20V16H17ZM22 13H26V16H22V13ZM22 11V8H26V11H22ZM7 2H10V6H6V3C6 2.73478 6.10536 2.48043 6.29289 2.29289C6.48043 2.10536 6.73478 2 7 2V2ZM6 18H10V22H6V18ZM22 22V18H26V22H22Z" fill="#374957"/>
</g>
<defs>
<filter id="filter0_d_403_3554" x="0" y="0" width="32" height="32" filterUnits="userSpaceOnUse" color-interpolation-filters="sRGB">
<feFlood flood-opacity="0" result="BackgroundImageFix"/>
<feColorMatrix in="SourceAlpha" type="matrix" values="0 0 0 0 0 0 0 0 0 0 0 0 0 0 0 0 0 0 127 0" result="hardAlpha"/>
<feOffset dy="4"/>
<feGaussianBlur stdDeviation="2"/>
<feComposite in2="hardAlpha" operator="out"/>
<feColorMatrix type="matrix" values="0 0 0 0 0 0 0 0 0 0 0 0 0 0 0 0 0 0 0.25 0"/>
<feBlend mode="normal" in2="BackgroundImageFix" result="effect1_dropShadow_403_3554"/>
<feBlend mode="normal" in="SourceGraphic" in2="effect1_dropShadow_403_3554" result="shape"/>
</filter>
<clipPath id="clip0_403_3554">
<rect width="24" height="24" fill="white" transform="translate(4)"/>
</clipPath>
</defs>
</svg>
