<svg width="32" height="32" viewBox="0 0 32 32" fill="none" xmlns="http://www.w3.org/2000/svg">
<g clip-path="url(#clip0_403_3558)" filter="url(#filter0_d_403_3558)">
<path d="M16 0C12.8174 0 9.76516 1.26428 7.51472 3.51472C5.26428 5.76516 4 8.8174 4 12C4 15.1826 5.26428 18.2348 7.51472 20.4853C9.76516 22.7357 12.8174 24 16 24H28V12C27.9966 8.81846 26.7312 5.76821 24.4815 3.51852C22.2318 1.26883 19.1815 0.00344108 16 0V0ZM26 22H16C14.0222 22 12.0888 21.4135 10.4443 20.3147C8.79981 19.2159 7.51808 17.6541 6.7612 15.8268C6.00433 13.9996 5.8063 11.9889 6.19215 10.0491C6.578 8.10929 7.53041 6.32746 8.92893 4.92893C10.3275 3.53041 12.1093 2.578 14.0491 2.19215C15.9889 1.8063 17.9996 2.00433 19.8268 2.7612C21.6541 3.51808 23.2159 4.79981 24.3147 6.4443C25.4135 8.08879 26 10.0222 26 12V22ZM18.5 7C17.5684 6.98551 16.6691 7.34161 16 7.99C15.3309 7.34161 14.4316 6.98551 13.5 7C12.5458 7.02825 11.6417 7.43351 10.9857 8.127C10.3297 8.8205 9.97524 9.74571 10 10.7C10 13.956 14.874 17.436 15.43 17.821L16 18.221L16.57 17.821C17.126 17.436 22 13.956 22 10.7C22.0248 9.74571 21.6703 8.8205 21.0143 8.127C20.3583 7.43351 19.4542 7.02825 18.5 7ZM16 15.762C14.259 14.432 12 12.202 12 10.7C11.9758 10.2762 12.1198 9.86003 12.4007 9.54175C12.6815 9.22347 13.0765 9.0288 13.5 9C13.6967 8.98574 13.8942 9.01322 14.0796 9.08061C14.265 9.14801 14.434 9.25382 14.5756 9.3911C14.7172 9.52837 14.8282 9.69403 14.9014 9.8772C14.9745 10.0604 15.0081 10.2569 15 10.454V11H17V10.454C16.9919 10.2569 17.0255 10.0604 17.0986 9.8772C17.1718 9.69403 17.2828 9.52837 17.4244 9.3911C17.566 9.25382 17.735 9.14801 17.9204 9.08061C18.1058 9.01322 18.3033 8.98574 18.5 9C18.9235 9.0288 19.3185 9.22347 19.5993 9.54175C19.8802 9.86003 20.0242 10.2762 20 10.7C20 12.2 17.741 14.432 16 15.762Z" fill="#374957"/>
</g>
<defs>
<filter id="filter0_d_403_3558" x="0" y="0" width="32" height="32" filterUnits="userSpaceOnUse" color-interpolation-filters="sRGB">
<feFlood flood-opacity="0" result="BackgroundImageFix"/>
<feColorMatrix in="SourceAlpha" type="matrix" values="0 0 0 0 0 0 0 0 0 0 0 0 0 0 0 0 0 0 127 0" result="hardAlpha"/>
<feOffset dy="4"/>
<feGaussianBlur stdDeviation="2"/>
<feComposite in2="hardAlpha" operator="out"/>
<feColorMatrix type="matrix" values="0 0 0 0 0 0 0 0 0 0 0 0 0 0 0 0 0 0 0.25 0"/>
<feBlend mode="normal" in2="BackgroundImageFix" result="effect1_dropShadow_403_3558"/>
<feBlend mode="normal" in="SourceGraphic" in2="effect1_dropShadow_403_3558" result="shape"/>
</filter>
<clipPath id="clip0_403_3558">
<rect width="24" height="24" fill="white" transform="translate(4)"/>
</clipPath>
</defs>
</svg>
