<svg width="32" height="32" viewBox="0 0 32 32" fill="none" xmlns="http://www.w3.org/2000/svg">
<g clip-path="url(#clip0_403_3658)" filter="url(#filter0_d_403_3658)">
<path d="M28 5H24.414L27.707 1.707L26.293 0.293L23 3.586V0H21V5.456C20.1815 4.58461 19.2152 3.86486 18.146 3.33C17.3953 2.99886 16.5569 2.92204 15.7585 3.11122C14.9601 3.3004 14.2453 3.74522 13.723 4.378C11.31 6.791 5.70801 20.1 5.07701 21.615L4.13901 23.861L6.38601 22.923C7.89601 22.292 21.21 16.69 23.622 14.277C24.2546 13.7548 24.6994 13.0402 24.8887 12.2421C25.0781 11.4439 25.0016 10.6057 24.671 9.855C24.1354 8.78564 23.4154 7.81916 22.544 7H28V5ZM22.208 12.863C21.4819 13.473 20.6892 13.999 19.845 14.431L17.457 12.043L16.043 13.457L18 15.416C15.084 16.916 11.216 18.675 7.88701 20.116C8.72401 18.175 9.67301 16.051 10.615 14.036L12.605 16.02L14.02 14.605L11.529 12.115C12.429 10.253 13.289 8.598 13.998 7.415L16.543 9.96L17.957 8.546L15.174 5.76C16.021 4.971 16.54 4.838 17.357 5.168C18.4911 5.8152 19.508 6.64887 20.365 7.634C21.3505 8.49132 22.1845 9.50856 22.832 10.643C23.081 11.223 23.178 11.894 22.208 12.863Z" fill="#374957"/>
</g>
<defs>
<filter id="filter0_d_403_3658" x="0" y="0" width="32" height="32" filterUnits="userSpaceOnUse" color-interpolation-filters="sRGB">
<feFlood flood-opacity="0" result="BackgroundImageFix"/>
<feColorMatrix in="SourceAlpha" type="matrix" values="0 0 0 0 0 0 0 0 0 0 0 0 0 0 0 0 0 0 127 0" result="hardAlpha"/>
<feOffset dy="4"/>
<feGaussianBlur stdDeviation="2"/>
<feComposite in2="hardAlpha" operator="out"/>
<feColorMatrix type="matrix" values="0 0 0 0 0 0 0 0 0 0 0 0 0 0 0 0 0 0 0.25 0"/>
<feBlend mode="normal" in2="BackgroundImageFix" result="effect1_dropShadow_403_3658"/>
<feBlend mode="normal" in="SourceGraphic" in2="effect1_dropShadow_403_3658" result="shape"/>
</filter>
<clipPath id="clip0_403_3658">
<rect width="24" height="24" fill="white" transform="translate(4)"/>
</clipPath>
</defs>
</svg>
