<svg width="32" height="32" viewBox="0 0 32 32" fill="none" xmlns="http://www.w3.org/2000/svg">
<g clip-path="url(#clip0_403_3481)" filter="url(#filter0_d_403_3481)">
<path d="M28 14.006C27.9988 13.5866 27.9091 13.1722 27.7368 12.7898C27.5645 12.4074 27.3134 12.0657 27 11.787V9C26.9974 6.61386 26.0483 4.32622 24.361 2.63896C22.6738 0.951708 20.3861 0.00264685 18 0L14 0C11.6139 0.00264685 9.32621 0.951708 7.63896 2.63896C5.95171 4.32622 5.00264 6.61386 5 9V11.787C4.68659 12.0657 4.43553 12.4074 4.26321 12.7898C4.09089 13.1722 4.0012 13.5866 4 14.006V14.177C3.99817 14.6013 4.08636 15.0211 4.25874 15.4088C4.43111 15.7965 4.68376 16.1432 5 16.426V20C5 21.0609 5.42142 22.0783 6.17157 22.8284C6.92172 23.5786 7.93913 24 9 24H23C24.0609 24 25.0783 23.5786 25.8284 22.8284C26.5786 22.0783 27 21.0609 27 20V16.226C27.3135 15.9472 27.5647 15.6053 27.737 15.2228C27.9093 14.8402 27.9989 14.4256 28 14.006V14.006ZM7 9C7.00211 7.14413 7.74029 5.36489 9.05259 4.05259C10.3649 2.7403 12.1441 2.00212 14 2H18C19.8559 2.00212 21.6351 2.7403 22.9474 4.05259C24.2597 5.36489 24.9979 7.14413 25 9V11.006H7V9ZM25 15.006H21C18.3492 15.0076 15.7881 15.9664 13.788 17.706C13.5703 17.8973 13.2903 18.0028 13.0005 18.0028C12.7107 18.0028 12.4307 17.8973 12.213 17.706C10.6724 16.3657 8.7891 15.4806 6.774 15.15C6.55145 15.1042 6.35206 14.9816 6.21061 14.8038C6.06916 14.626 5.99462 14.4042 6 14.177V14.006C6 13.7408 6.10535 13.4864 6.29289 13.2989C6.48043 13.1114 6.73478 13.006 7 13.006H25C25.2652 13.006 25.5196 13.1114 25.7071 13.2989C25.8946 13.4864 26 13.7408 26 14.006C26 14.2712 25.8946 14.5256 25.7071 14.7131C25.5196 14.9006 25.2652 15.006 25 15.006ZM25 20C25 20.5304 24.7893 21.0391 24.4142 21.4142C24.0391 21.7893 23.5304 22 23 22H9C8.46956 22 7.96086 21.7893 7.58578 21.4142C7.21071 21.0391 7 20.5304 7 20V17.253C8.44104 17.575 9.78053 18.2471 10.9 19.21C11.4801 19.7213 12.2268 20.0034 13 20.0034C13.7732 20.0034 14.5199 19.7213 15.1 19.21C16.7376 17.7902 18.8326 17.009 21 17.01H25V20ZM15 5C15 5.26522 14.8946 5.51957 14.7071 5.70711C14.5196 5.89464 14.2652 6 14 6C13.7348 6 13.4804 5.89464 13.2929 5.70711C13.1054 5.51957 13 5.26522 13 5C13 4.73478 13.1054 4.48043 13.2929 4.29289C13.4804 4.10536 13.7348 4 14 4C14.2652 4 14.5196 4.10536 14.7071 4.29289C14.8946 4.48043 15 4.73478 15 5ZM12 8C12 8.26522 11.8946 8.51957 11.7071 8.70711C11.5196 8.89464 11.2652 9 11 9C10.7348 9 10.4804 8.89464 10.2929 8.70711C10.1054 8.51957 10 8.26522 10 8C10 7.73478 10.1054 7.48043 10.2929 7.29289C10.4804 7.10536 10.7348 7 11 7C11.2652 7 11.5196 7.10536 11.7071 7.29289C11.8946 7.48043 12 7.73478 12 8V8Z" fill="#374957"/>
</g>
<defs>
<filter id="filter0_d_403_3481" x="0" y="0" width="32" height="32" filterUnits="userSpaceOnUse" color-interpolation-filters="sRGB">
<feFlood flood-opacity="0" result="BackgroundImageFix"/>
<feColorMatrix in="SourceAlpha" type="matrix" values="0 0 0 0 0 0 0 0 0 0 0 0 0 0 0 0 0 0 127 0" result="hardAlpha"/>
<feOffset dy="4"/>
<feGaussianBlur stdDeviation="2"/>
<feComposite in2="hardAlpha" operator="out"/>
<feColorMatrix type="matrix" values="0 0 0 0 0 0 0 0 0 0 0 0 0 0 0 0 0 0 0.25 0"/>
<feBlend mode="normal" in2="BackgroundImageFix" result="effect1_dropShadow_403_3481"/>
<feBlend mode="normal" in="SourceGraphic" in2="effect1_dropShadow_403_3481" result="shape"/>
</filter>
<clipPath id="clip0_403_3481">
<rect width="24" height="24" fill="white" transform="translate(4)"/>
</clipPath>
</defs>
</svg>
