<svg width="32" height="32" viewBox="0 0 32 32" fill="none" xmlns="http://www.w3.org/2000/svg">
<g clip-path="url(#clip0_403_3640)" filter="url(#filter0_d_403_3640)">
<path d="M16 0C13.6266 0 11.3066 0.703788 9.33316 2.02236C7.35977 3.34094 5.8217 5.21509 4.91345 7.4078C4.0052 9.60051 3.76756 12.0133 4.23058 14.3411C4.6936 16.6689 5.83649 18.8071 7.51472 20.4853C9.19295 22.1635 11.3312 23.3064 13.6589 23.7694C15.9867 24.2324 18.3995 23.9948 20.5922 23.0866C22.7849 22.1783 24.6591 20.6402 25.9776 18.6668C27.2962 16.6935 28 14.3734 28 12C28 8.8174 26.7357 5.76516 24.4853 3.51472C22.2349 1.26428 19.1826 0 16 0V0ZM25.949 11H17V2.051C19.2938 2.28456 21.4368 3.30244 23.0672 4.93281C24.6976 6.56318 25.7154 8.70617 25.949 11V11ZM6.00001 12C6.00313 9.52195 6.92504 7.13308 8.58745 5.29538C10.2499 3.45768 12.5347 2.3017 15 2.051V12.414L22.324 19.738C20.8598 20.9374 19.0851 21.6963 17.2064 21.9264C15.3277 22.1564 13.4223 21.8481 11.712 21.0374C10.0017 20.2267 8.55688 18.9469 7.54565 17.3469C6.53441 15.747 5.9984 13.8927 6.00001 12V12ZM23.738 18.324L18.414 13H25.949C25.754 14.9541 24.9846 16.8066 23.738 18.324Z" fill="#374957"/>
</g>
<defs>
<filter id="filter0_d_403_3640" x="0" y="0" width="32" height="32" filterUnits="userSpaceOnUse" color-interpolation-filters="sRGB">
<feFlood flood-opacity="0" result="BackgroundImageFix"/>
<feColorMatrix in="SourceAlpha" type="matrix" values="0 0 0 0 0 0 0 0 0 0 0 0 0 0 0 0 0 0 127 0" result="hardAlpha"/>
<feOffset dy="4"/>
<feGaussianBlur stdDeviation="2"/>
<feComposite in2="hardAlpha" operator="out"/>
<feColorMatrix type="matrix" values="0 0 0 0 0 0 0 0 0 0 0 0 0 0 0 0 0 0 0.25 0"/>
<feBlend mode="normal" in2="BackgroundImageFix" result="effect1_dropShadow_403_3640"/>
<feBlend mode="normal" in="SourceGraphic" in2="effect1_dropShadow_403_3640" result="shape"/>
</filter>
<clipPath id="clip0_403_3640">
<rect width="24" height="24" fill="white" transform="translate(4)"/>
</clipPath>
</defs>
</svg>
