<svg width="26" height="32" viewBox="0 0 26 32" fill="none" xmlns="http://www.w3.org/2000/svg">
<g clip-path="url(#clip0_403_3783)" filter="url(#filter0_d_403_3783)">
<path d="M20 8.184V0H6V8.184C5.41709 8.39008 4.91209 8.77123 4.55409 9.2753C4.19608 9.77937 4.00256 10.3817 4 11V15C4 17.3869 4.94821 19.6761 6.63604 21.364C8.32387 23.0518 10.6131 24 13 24C15.3869 24 17.6761 23.0518 19.364 21.364C21.0518 19.6761 22 17.3869 22 15V11C21.9974 10.3817 21.8039 9.77937 21.4459 9.2753C21.0879 8.77123 20.5829 8.39008 20 8.184V8.184ZM8 2H18V8H8V2ZM20 15C20 16.8565 19.2625 18.637 17.9497 19.9497C16.637 21.2625 14.8565 22 13 22C11.1435 22 9.36301 21.2625 8.05025 19.9497C6.7375 18.637 6 16.8565 6 15V11C6 10.7348 6.10536 10.4804 6.29289 10.2929C6.48043 10.1054 6.73478 10 7 10H19C19.2652 10 19.5196 10.1054 19.7071 10.2929C19.8946 10.4804 20 10.7348 20 11V15Z" fill="#374957"/>
<path d="M15.9999 3.99939H13.9999V5.99939H15.9999V3.99939Z" fill="#374957"/>
<path d="M12 3.99939H10V5.99939H12V3.99939Z" fill="#374957"/>
</g>
<defs>
<filter id="filter0_d_403_3783" x="-3" y="0" width="32" height="32" filterUnits="userSpaceOnUse" color-interpolation-filters="sRGB">
<feFlood flood-opacity="0" result="BackgroundImageFix"/>
<feColorMatrix in="SourceAlpha" type="matrix" values="0 0 0 0 0 0 0 0 0 0 0 0 0 0 0 0 0 0 127 0" result="hardAlpha"/>
<feOffset dy="4"/>
<feGaussianBlur stdDeviation="2"/>
<feComposite in2="hardAlpha" operator="out"/>
<feColorMatrix type="matrix" values="0 0 0 0 0 0 0 0 0 0 0 0 0 0 0 0 0 0 0.25 0"/>
<feBlend mode="normal" in2="BackgroundImageFix" result="effect1_dropShadow_403_3783"/>
<feBlend mode="normal" in="SourceGraphic" in2="effect1_dropShadow_403_3783" result="shape"/>
</filter>
<clipPath id="clip0_403_3783">
<rect width="24" height="24" fill="white" transform="translate(1)"/>
</clipPath>
</defs>
</svg>
