<svg width="32" height="32" viewBox="0 0 32 32" fill="none" xmlns="http://www.w3.org/2000/svg">
<g clip-path="url(#clip0_403_3316)" filter="url(#filter0_d_403_3316)">
<path d="M21.0002 18C21.0002 17.2044 20.6841 16.4413 20.1215 15.8787C19.5589 15.3161 18.7958 15 18.0002 15C17.2045 15 16.4415 15.3161 15.8789 15.8787C15.3163 16.4413 15.0002 17.2044 15.0002 18H17.0002C17.0002 17.7348 17.1055 17.4804 17.2931 17.2929C17.4806 17.1054 17.735 17 18.0002 17C18.2654 17 18.5198 17.1054 18.7073 17.2929C18.8948 17.4804 19.0002 17.7348 19.0002 18C19.0002 18.5 18.1502 19.138 17.4002 19.7C16.2752 20.544 15.0002 21.5 15.0002 23V24H21.0002V22H17.7102C17.9812 21.764 18.2992 21.526 18.6002 21.3C19.7252 20.456 21.0002 19.5 21.0002 18Z" fill="#374957"/>
<path d="M26 19H24V15H22V19C22 19.5304 22.2107 20.0391 22.5858 20.4142C22.9609 20.7893 23.4696 21 24 21H26V24H28V15H26V19Z" fill="#374957"/>
<path d="M16.9998 6H14.9998V11H10.9998V13H16.9998V6Z" fill="#374957"/>
<path d="M25.9998 1.99985V5.37385C24.9262 3.75006 23.4734 2.41198 21.7671 1.47512C20.0607 0.538258 18.1519 0.0307789 16.2056 -0.00350985C14.2592 -0.0377986 12.3337 0.402134 10.5954 1.27831C8.85709 2.15448 7.35812 3.44057 6.22793 5.02553C5.09773 6.6105 4.37027 8.44672 4.10835 10.3757C3.84642 12.3046 4.0579 14.2683 4.72453 16.0973C5.39116 17.9263 6.4929 19.5655 7.93465 20.8735C9.3764 22.1815 11.1148 23.1189 12.9998 23.6049V21.5389C11.4452 21.0553 10.0321 20.1994 8.88331 19.0456C7.73457 17.8917 6.88493 16.4749 6.40822 14.918C5.9315 13.3612 5.84213 11.7116 6.14786 10.1124C6.45359 8.51315 7.14518 7.01278 8.16255 5.7416C9.17991 4.47042 10.4923 3.46688 11.9856 2.81816C13.479 2.16944 15.1081 1.89516 16.7316 2.01916C18.355 2.14317 19.9236 2.66169 21.3011 3.52969C22.6786 4.39769 23.8233 5.58891 24.6358 6.99985H20.9998V8.99985H25.9998C26.5303 8.99985 27.039 8.78914 27.4141 8.41407C27.7891 8.03899 27.9998 7.53029 27.9998 6.99985V1.99985H25.9998Z" fill="#374957"/>
</g>
<defs>
<filter id="filter0_d_403_3316" x="0" y="0" width="32" height="32" filterUnits="userSpaceOnUse" color-interpolation-filters="sRGB">
<feFlood flood-opacity="0" result="BackgroundImageFix"/>
<feColorMatrix in="SourceAlpha" type="matrix" values="0 0 0 0 0 0 0 0 0 0 0 0 0 0 0 0 0 0 127 0" result="hardAlpha"/>
<feOffset dy="4"/>
<feGaussianBlur stdDeviation="2"/>
<feComposite in2="hardAlpha" operator="out"/>
<feColorMatrix type="matrix" values="0 0 0 0 0 0 0 0 0 0 0 0 0 0 0 0 0 0 0.25 0"/>
<feBlend mode="normal" in2="BackgroundImageFix" result="effect1_dropShadow_403_3316"/>
<feBlend mode="normal" in="SourceGraphic" in2="effect1_dropShadow_403_3316" result="shape"/>
</filter>
<clipPath id="clip0_403_3316">
<rect width="24" height="24" fill="white" transform="translate(4)"/>
</clipPath>
</defs>
</svg>
