<svg width="32" height="32" viewBox="0 0 32 32" fill="none" xmlns="http://www.w3.org/2000/svg">
<g clip-path="url(#clip0_403_3696)" filter="url(#filter0_d_403_3696)">
<path d="M27.0001 13C26.9965 10.2573 25.9693 7.61476 24.1197 5.58962C22.2701 3.56448 19.7312 2.3026 17.0001 2.051V0H15.0001V2.051C12.9544 2.2338 11.001 2.98687 9.36198 4.2246C7.72296 5.46233 6.46407 7.13506 5.72841 9.05265C4.99275 10.9702 4.80983 13.0558 5.20045 15.0721C5.59108 17.0885 6.53957 18.9549 7.9381 20.459L6.0101 22.577L7.4901 23.923L9.4241 21.8C11.3183 23.2297 13.6269 24.0031 16.0001 24.0031C18.3733 24.0031 20.6819 23.2297 22.5761 21.8L24.5101 23.926L25.9901 22.58L24.0621 20.462C25.95 18.4358 26.9998 15.7694 27.0001 13V13ZM16.0001 22C14.2201 22 12.48 21.4722 11 20.4832C9.51993 19.4943 8.36637 18.0887 7.68519 16.4442C7.004 14.7996 6.82577 12.99 7.17303 11.2442C7.5203 9.49836 8.37747 7.89471 9.63614 6.63604C10.8948 5.37737 12.4985 4.5202 14.2443 4.17293C15.9901 3.82567 17.7997 4.0039 19.4443 4.68508C21.0888 5.36627 22.4944 6.51983 23.4833 7.99987C24.4723 9.47991 25.0001 11.22 25.0001 13C24.9972 15.3861 24.048 17.6735 22.3608 19.3607C20.6737 21.0479 18.3862 21.9971 16.0001 22V22Z" fill="#374957"/>
<path d="M9.52288 1.74503L8.45588 0.0560303C6.72983 1.06867 5.22119 2.41281 4.01688 4.01103L5.67988 5.12003C6.72753 3.75425 8.03324 2.60754 9.52288 1.74503V1.74503Z" fill="#374957"/>
<path d="M26.3202 5.12003L27.9832 4.01103C26.7789 2.41281 25.2702 1.06867 23.5442 0.0560303L22.4772 1.74503C23.9668 2.60754 25.2725 3.75425 26.3202 5.12003V5.12003Z" fill="#374957"/>
<path d="M15.0002 7V12.414L18.2931 15.707L19.7071 14.293L17.0001 11.586V7H15.0002Z" fill="#374957"/>
</g>
<defs>
<filter id="filter0_d_403_3696" x="0" y="0" width="32" height="32" filterUnits="userSpaceOnUse" color-interpolation-filters="sRGB">
<feFlood flood-opacity="0" result="BackgroundImageFix"/>
<feColorMatrix in="SourceAlpha" type="matrix" values="0 0 0 0 0 0 0 0 0 0 0 0 0 0 0 0 0 0 127 0" result="hardAlpha"/>
<feOffset dy="4"/>
<feGaussianBlur stdDeviation="2"/>
<feComposite in2="hardAlpha" operator="out"/>
<feColorMatrix type="matrix" values="0 0 0 0 0 0 0 0 0 0 0 0 0 0 0 0 0 0 0.25 0"/>
<feBlend mode="normal" in2="BackgroundImageFix" result="effect1_dropShadow_403_3696"/>
<feBlend mode="normal" in="SourceGraphic" in2="effect1_dropShadow_403_3696" result="shape"/>
</filter>
<clipPath id="clip0_403_3696">
<rect width="24" height="24" fill="white" transform="translate(4)"/>
</clipPath>
</defs>
</svg>
