<svg width="32" height="32" viewBox="0 0 32 32" fill="none" xmlns="http://www.w3.org/2000/svg">
<g clip-path="url(#clip0_403_3360)" filter="url(#filter0_d_403_3360)">
<path d="M14.0002 5.99967C14.8526 6.00331 15.6815 6.27985 16.3653 6.78876C17.0491 7.29767 17.552 8.0122 17.8002 8.82767L19.9772 9.61867C19.9053 8.46604 19.5023 7.35867 18.8165 6.42946C18.1307 5.50025 17.1914 4.78869 16.1112 4.3802C15.031 3.9717 13.8558 3.88363 12.7268 4.12655C11.5978 4.36947 10.5628 4.93306 9.74622 5.74967C8.92961 6.56628 8.36602 7.60121 8.1231 8.73024C7.88018 9.85927 7.96825 11.0344 8.37675 12.1146C8.78524 13.1948 9.4968 14.1342 10.426 14.8199C11.3552 15.5057 12.4626 15.9087 13.6152 15.9807L12.8282 13.7997C11.9153 13.5191 11.1334 12.9202 10.6247 12.1119C10.116 11.3036 9.91424 10.3396 10.0562 9.3951C10.1981 8.45064 10.6742 7.58847 11.398 6.96536C12.1218 6.34225 13.0452 5.99959 14.0002 5.99967V5.99967Z" fill="#374957"/>
<path d="M14 18.0001C12.4178 18.0001 10.8711 17.5309 9.55547 16.6518C8.23987 15.7728 7.21449 14.5233 6.60899 13.0615C6.00349 11.5997 5.84506 9.99118 6.15375 8.43934C6.46243 6.88749 7.22435 5.46202 8.34317 4.3432C9.46199 3.22438 10.8875 2.46246 12.4393 2.15378C13.9912 1.84509 15.5997 2.00352 17.0615 2.60902C18.5233 3.21452 19.7727 4.2399 20.6518 5.5555C21.5308 6.87109 22 8.41781 22 10.0001C22 10.1171 21.987 10.2311 21.982 10.3471L23.942 11.0601C24.1647 8.99917 23.7425 6.91994 22.7336 5.10914C21.7247 3.29834 20.1788 1.84517 18.3092 0.950036C16.4395 0.0549033 14.3382 -0.23809 12.295 0.111461C10.2518 0.461013 8.36737 1.43589 6.90161 2.90164C5.43586 4.3674 4.46098 6.25182 4.11143 8.29503C3.76188 10.3382 4.05487 12.4396 4.95001 14.3092C5.84514 16.1789 7.29831 17.7247 9.10911 18.7336C10.9199 19.7425 12.9991 20.1648 15.06 19.9421L14.347 17.9821C14.231 17.9871 14.117 18.0001 14 18.0001Z" fill="#374957"/>
<path d="M28.0001 14.7787L17.5381 10.9787C17.1805 10.8488 16.7933 10.8236 16.4219 10.906C16.0505 10.9884 15.7103 11.1751 15.4412 11.444C15.1721 11.713 14.9854 12.0531 14.9028 12.4245C14.8202 12.7959 14.8453 13.1831 14.9751 13.5407L18.7791 23.9997L22.6791 20.0997L25.4721 22.8927L26.8861 21.4787L24.1001 18.6827L28.0001 14.7787ZM19.5861 20.3647L16.8551 12.8547L24.3651 15.5857L19.5861 20.3647Z" fill="#374957"/>
</g>
<defs>
<filter id="filter0_d_403_3360" x="0" y="0" width="32" height="32" filterUnits="userSpaceOnUse" color-interpolation-filters="sRGB">
<feFlood flood-opacity="0" result="BackgroundImageFix"/>
<feColorMatrix in="SourceAlpha" type="matrix" values="0 0 0 0 0 0 0 0 0 0 0 0 0 0 0 0 0 0 127 0" result="hardAlpha"/>
<feOffset dy="4"/>
<feGaussianBlur stdDeviation="2"/>
<feComposite in2="hardAlpha" operator="out"/>
<feColorMatrix type="matrix" values="0 0 0 0 0 0 0 0 0 0 0 0 0 0 0 0 0 0 0.25 0"/>
<feBlend mode="normal" in2="BackgroundImageFix" result="effect1_dropShadow_403_3360"/>
<feBlend mode="normal" in="SourceGraphic" in2="effect1_dropShadow_403_3360" result="shape"/>
</filter>
<clipPath id="clip0_403_3360">
<rect width="24" height="24" fill="white" transform="translate(4)"/>
</clipPath>
</defs>
</svg>
