<svg width="32" height="31" viewBox="0 0 32 31" fill="none" xmlns="http://www.w3.org/2000/svg">
<g clip-path="url(#clip0_403_3621)" filter="url(#filter0_d_403_3621)">
<path d="M28 15C27.9976 17.121 27.154 19.1545 25.6542 20.6543C24.1545 22.154 22.121 22.9976 20 23H19.763L22.178 20.585C23.4175 20.1036 24.4616 19.2236 25.146 18.0837C25.8303 16.9437 26.1161 15.6084 25.9582 14.2882C25.8004 12.9679 25.2079 11.7377 24.274 10.7912C23.3402 9.84466 22.118 9.23564 20.8 9.06003L20.042 8.96003L19.942 8.20203C19.7319 6.70041 18.961 5.33404 17.7844 4.37767C16.6078 3.4213 15.1128 2.94586 13.5999 3.04696C12.087 3.14805 10.6685 3.81818 9.62962 4.9226C8.59073 6.02701 8.00851 7.4838 8.00002 9.00003C7.99887 10.2842 8.41355 11.5342 9.18202 12.563L10.066 13.755L8.62802 14.126C7.80278 14.3362 7.08282 14.8408 6.60366 15.5447C6.12449 16.2487 5.91917 17.1036 6.02634 17.9484C6.1335 18.7932 6.54577 19.5697 7.18554 20.1317C7.82531 20.6938 8.64845 21.0026 9.50002 21H9.62102L11.621 23H9.50002C8.27601 23.0016 7.08658 22.594 6.12073 21.8421C5.15487 21.0902 4.46798 20.0372 4.16919 18.8502C3.87041 17.6632 3.97686 16.4104 4.47164 15.2908C4.96642 14.1713 5.82115 13.2492 6.90002 12.671C6.30785 11.538 5.99904 10.2784 6.00002 9.00003C6.00627 7.03881 6.73273 5.14822 8.04138 3.68745C9.35003 2.22668 11.1497 1.29752 13.0984 1.0765C15.0471 0.855473 17.0092 1.35799 18.6117 2.48857C20.2143 3.61916 21.3457 5.29903 21.791 7.20903C23.5526 7.61772 25.1245 8.60965 26.2515 10.0239C27.3786 11.4381 27.9947 13.1916 28 15V15ZM17.813 22.121L23.467 16.467L22.053 15.053L16.4 20.707C16.2097 20.8891 15.9564 20.9907 15.693 20.9907C15.4296 20.9907 15.1764 20.8891 14.986 20.707L11.6 17.323L10.187 18.737L13.571 22.121C14.1336 22.6834 14.8965 22.9994 15.692 22.9994C16.4875 22.9994 17.2504 22.6834 17.813 22.121V22.121Z" fill="#374957"/>
</g>
<defs>
<filter id="filter0_d_403_3621" x="0" y="0" width="32" height="32" filterUnits="userSpaceOnUse" color-interpolation-filters="sRGB">
<feFlood flood-opacity="0" result="BackgroundImageFix"/>
<feColorMatrix in="SourceAlpha" type="matrix" values="0 0 0 0 0 0 0 0 0 0 0 0 0 0 0 0 0 0 127 0" result="hardAlpha"/>
<feOffset dy="4"/>
<feGaussianBlur stdDeviation="2"/>
<feComposite in2="hardAlpha" operator="out"/>
<feColorMatrix type="matrix" values="0 0 0 0 0 0 0 0 0 0 0 0 0 0 0 0 0 0 0.25 0"/>
<feBlend mode="normal" in2="BackgroundImageFix" result="effect1_dropShadow_403_3621"/>
<feBlend mode="normal" in="SourceGraphic" in2="effect1_dropShadow_403_3621" result="shape"/>
</filter>
<clipPath id="clip0_403_3621">
<rect width="24" height="24" fill="white" transform="translate(4)"/>
</clipPath>
</defs>
</svg>
