<svg width="26" height="32" viewBox="0 0 26 32" fill="none" xmlns="http://www.w3.org/2000/svg">
<g clip-path="url(#clip0_403_3576)" filter="url(#filter0_d_403_3576)">
<path d="M19 0H7C6.20435 0 5.44129 0.31607 4.87868 0.87868C4.31607 1.44129 4 2.20435 4 3V24H22V3C22 2.20435 21.6839 1.44129 21.1213 0.87868C20.5587 0.31607 19.7956 0 19 0V0ZM20 22H14V20H12V22H6V3C6 2.73478 6.10536 2.48043 6.29289 2.29289C6.48043 2.10536 6.73478 2 7 2H19C19.2652 2 19.5196 2.10536 19.7071 2.29289C19.8946 2.48043 20 2.73478 20 3V22ZM12 11H14V12H16V10.293C16.0012 9.29869 15.7894 8.31565 15.379 7.41L14.857 6.258C14.7104 5.88946 14.4576 5.57282 14.1306 5.34833C13.8037 5.12384 13.4173 5.00163 13.0207 4.99723C12.6242 4.99284 12.2352 5.10646 11.9034 5.32365C11.5715 5.54084 11.3117 5.8518 11.157 6.217L10.621 7.411C10.2105 8.31626 9.99871 9.299 10 10.293V12H12V11ZM13.018 7.041L13.556 8.233C13.6611 8.48135 13.7457 8.73787 13.809 9H12.191C12.2538 8.73818 12.3381 8.48198 12.443 8.234L13.018 7.041ZM9 14H17V16H9V14Z" fill="#374957"/>
</g>
<defs>
<filter id="filter0_d_403_3576" x="-3" y="0" width="32" height="32" filterUnits="userSpaceOnUse" color-interpolation-filters="sRGB">
<feFlood flood-opacity="0" result="BackgroundImageFix"/>
<feColorMatrix in="SourceAlpha" type="matrix" values="0 0 0 0 0 0 0 0 0 0 0 0 0 0 0 0 0 0 127 0" result="hardAlpha"/>
<feOffset dy="4"/>
<feGaussianBlur stdDeviation="2"/>
<feComposite in2="hardAlpha" operator="out"/>
<feColorMatrix type="matrix" values="0 0 0 0 0 0 0 0 0 0 0 0 0 0 0 0 0 0 0.25 0"/>
<feBlend mode="normal" in2="BackgroundImageFix" result="effect1_dropShadow_403_3576"/>
<feBlend mode="normal" in="SourceGraphic" in2="effect1_dropShadow_403_3576" result="shape"/>
</filter>
<clipPath id="clip0_403_3576">
<rect width="24" height="24" fill="white" transform="translate(1)"/>
</clipPath>
</defs>
</svg>
