<svg width="32" height="29" viewBox="0 0 32 29" fill="none" xmlns="http://www.w3.org/2000/svg">
<g clip-path="url(#clip0_403_3669)" filter="url(#filter0_d_403_3669)">
<path d="M28.0003 4.00037H11.0003V6.00036H28.0003V4.00037Z" fill="#374957"/>
<path d="M28.0003 10.9998H11.0003V12.9998H28.0003V10.9998Z" fill="#374957"/>
<path d="M28.0003 18H11.0003V20H28.0003V18Z" fill="#374957"/>
<path d="M6 6.99999C7.10457 6.99999 8 6.10456 8 5C8 3.89543 7.10457 3 6 3C4.89543 3 4 3.89543 4 5C4 6.10456 4.89543 6.99999 6 6.99999Z" fill="#374957"/>
<path d="M6 14.0004C7.10457 14.0004 8 13.1049 8 12.0004C8 10.8958 7.10457 10.0004 6 10.0004C4.89543 10.0004 4 10.8958 4 12.0004C4 13.1049 4.89543 14.0004 6 14.0004Z" fill="#374957"/>
<path d="M6 20.9997C7.10457 20.9997 8 20.1043 8 18.9997C8 17.8951 7.10457 16.9997 6 16.9997C4.89543 16.9997 4 17.8951 4 18.9997C4 20.1043 4.89543 20.9997 6 20.9997Z" fill="#374957"/>
</g>
<defs>
<filter id="filter0_d_403_3669" x="0" y="0" width="32" height="32" filterUnits="userSpaceOnUse" color-interpolation-filters="sRGB">
<feFlood flood-opacity="0" result="BackgroundImageFix"/>
<feColorMatrix in="SourceAlpha" type="matrix" values="0 0 0 0 0 0 0 0 0 0 0 0 0 0 0 0 0 0 127 0" result="hardAlpha"/>
<feOffset dy="4"/>
<feGaussianBlur stdDeviation="2"/>
<feComposite in2="hardAlpha" operator="out"/>
<feColorMatrix type="matrix" values="0 0 0 0 0 0 0 0 0 0 0 0 0 0 0 0 0 0 0.25 0"/>
<feBlend mode="normal" in2="BackgroundImageFix" result="effect1_dropShadow_403_3669"/>
<feBlend mode="normal" in="SourceGraphic" in2="effect1_dropShadow_403_3669" result="shape"/>
</filter>
<clipPath id="clip0_403_3669">
<rect width="24" height="24" fill="white" transform="translate(4)"/>
</clipPath>
</defs>
</svg>
