<svg width="32" height="32" viewBox="0 0 32 32" fill="none" xmlns="http://www.w3.org/2000/svg">
<g clip-path="url(#clip0_403_3465)" filter="url(#filter0_d_403_3465)">
<path d="M26 19.9996C26 20.5301 25.7893 21.0388 25.4142 21.4139C25.0391 21.7889 24.5304 21.9996 24 21.9996H20V17.9996H26V14.0996C25.9973 12.7134 25.5157 11.3707 24.6369 10.2987C23.758 9.22666 22.5358 8.49116 21.177 8.21664L17.3 7.43964C16.8903 7.35801 16.5165 7.15017 16.231 6.84528C15.9455 6.54039 15.7626 6.15376 15.708 5.73964L15.3 2.57564C15.2408 2.16129 15.0955 1.76392 14.8735 1.40907C14.6515 1.05423 14.3578 0.749761 14.0111 0.515244C13.6644 0.280727 13.2725 0.121352 12.8605 0.0473644C12.4485 -0.0266234 12.0256 -0.0135862 11.619 0.0856378L4 2.24364V17.9996H9V21.9996H4V23.9996H24C25.0609 23.9996 26.0783 23.5782 26.8284 22.8281C27.5786 22.0779 28 21.0605 28 19.9996H26ZM6 3.75564L12.107 2.02364C12.2407 1.99368 12.3792 1.99153 12.5138 2.01732C12.6484 2.04311 12.7762 2.09629 12.8894 2.17356C13.0026 2.25083 13.0987 2.35054 13.1717 2.46649C13.2448 2.58245 13.2932 2.71218 13.314 2.84764L13.466 3.99964H11V5.99964H13.729C13.7737 6.31335 13.856 6.62054 13.974 6.91464L11.635 8.33764L12.674 10.0466L15.14 8.54664C15.4003 8.76156 15.6869 8.94235 15.993 9.08464L14.638 11.3916L16.362 12.4046L18 9.61964L20.784 10.1766C21.6901 10.3597 22.5051 10.8501 23.0911 11.565C23.6772 12.2799 23.9982 13.1753 24 14.0996V15.9996H6V3.75564ZM11 17.9996H18V21.9996H11V17.9996Z" fill="#374957"/>
</g>
<defs>
<filter id="filter0_d_403_3465" x="0" y="0" width="32" height="32" filterUnits="userSpaceOnUse" color-interpolation-filters="sRGB">
<feFlood flood-opacity="0" result="BackgroundImageFix"/>
<feColorMatrix in="SourceAlpha" type="matrix" values="0 0 0 0 0 0 0 0 0 0 0 0 0 0 0 0 0 0 127 0" result="hardAlpha"/>
<feOffset dy="4"/>
<feGaussianBlur stdDeviation="2"/>
<feComposite in2="hardAlpha" operator="out"/>
<feColorMatrix type="matrix" values="0 0 0 0 0 0 0 0 0 0 0 0 0 0 0 0 0 0 0.25 0"/>
<feBlend mode="normal" in2="BackgroundImageFix" result="effect1_dropShadow_403_3465"/>
<feBlend mode="normal" in="SourceGraphic" in2="effect1_dropShadow_403_3465" result="shape"/>
</filter>
<clipPath id="clip0_403_3465">
<rect width="24" height="24" fill="white" transform="translate(4)"/>
</clipPath>
</defs>
</svg>
