<svg width="32" height="32" viewBox="0 0 32 32" fill="none" xmlns="http://www.w3.org/2000/svg">
<g clip-path="url(#clip0_403_3445)" filter="url(#filter0_d_403_3445)">
<path d="M8.3092 5.6084L6.7722 4.32941C5.88065 5.39844 5.18282 6.61508 4.71021 7.9244L6.59121 8.6044C6.98476 7.51318 7.56619 6.49923 8.3092 5.6084V5.6084Z" fill="#374957"/>
<path d="M6.0002 12.0002C6.00024 11.423 6.04976 10.8469 6.1482 10.2782L4.1772 9.93622C3.93987 11.3067 3.93987 12.7078 4.1772 14.0782L6.1472 13.7342C6.04848 13.1615 5.9993 12.5814 6.0002 12.0002V12.0002Z" fill="#374957"/>
<path d="M12.5071 2.62656L11.8081 0.752563C10.5036 1.23901 9.29403 1.9497 8.23413 2.85256L9.53413 4.37656C10.4158 3.62474 11.4219 3.03252 12.5071 2.62656V2.62656Z" fill="#374957"/>
<path d="M8.24414 21.1567C9.3054 22.058 10.5159 22.767 11.8211 23.2517L12.5211 21.3767C11.4334 20.9733 10.4249 20.3823 9.54114 19.6307L8.24414 21.1567Z" fill="#374957"/>
<path d="M6.60015 15.4088L4.72015 16.0898C5.19484 17.3984 5.89397 18.6143 6.78615 19.6828L8.31715 18.4008C7.57532 17.5108 6.99429 16.4983 6.60015 15.4088V15.4088Z" fill="#374957"/>
<path d="M16.0003 0C15.2721 0.00124052 14.5455 0.0681785 13.8293 0.2L14.1893 2.168C14.7866 2.05729 15.3928 2.00106 16.0003 2V22C15.3929 22.0003 14.7867 21.9454 14.1893 21.836L13.8293 23.8C15.5596 24.1165 17.3383 24.0491 19.0397 23.6024C20.7411 23.1558 22.3236 22.3409 23.6754 21.2153C25.0271 20.0897 26.1151 18.6809 26.8625 17.0885C27.6098 15.4961 27.9982 13.759 28.0003 12C27.9968 8.81846 26.7315 5.76821 24.4818 3.51852C22.2321 1.26883 19.1818 0.00344108 16.0003 0V0Z" fill="#374957"/>
</g>
<defs>
<filter id="filter0_d_403_3445" x="0" y="0" width="32" height="32" filterUnits="userSpaceOnUse" color-interpolation-filters="sRGB">
<feFlood flood-opacity="0" result="BackgroundImageFix"/>
<feColorMatrix in="SourceAlpha" type="matrix" values="0 0 0 0 0 0 0 0 0 0 0 0 0 0 0 0 0 0 127 0" result="hardAlpha"/>
<feOffset dy="4"/>
<feGaussianBlur stdDeviation="2"/>
<feComposite in2="hardAlpha" operator="out"/>
<feColorMatrix type="matrix" values="0 0 0 0 0 0 0 0 0 0 0 0 0 0 0 0 0 0 0.25 0"/>
<feBlend mode="normal" in2="BackgroundImageFix" result="effect1_dropShadow_403_3445"/>
<feBlend mode="normal" in="SourceGraphic" in2="effect1_dropShadow_403_3445" result="shape"/>
</filter>
<clipPath id="clip0_403_3445">
<rect width="24" height="24" fill="white" transform="translate(4)"/>
</clipPath>
</defs>
</svg>
