<svg width="32" height="32" viewBox="0 0 32 32" fill="none" xmlns="http://www.w3.org/2000/svg">
<g clip-path="url(#clip0_403_3392)" filter="url(#filter0_d_403_3392)">
<path d="M28 16V14H26V3C26 2.20435 25.6839 1.44129 25.1213 0.87868C24.5587 0.31607 23.7956 0 23 0L9 0C8.20435 0 7.44129 0.31607 6.87868 0.87868C6.31607 1.44129 6 2.20435 6 3V14H4V16H15V20H13C12.2044 20 11.4413 20.3161 10.8787 20.8787C10.3161 21.4413 10 22.2044 10 23V24H12V23C12 22.7348 12.1054 22.4804 12.2929 22.2929C12.4804 22.1054 12.7348 22 13 22H19C19.2652 22 19.5196 22.1054 19.7071 22.2929C19.8946 22.4804 20 22.7348 20 23V24H22V23C22 22.2044 21.6839 21.4413 21.1213 20.8787C20.5587 20.3161 19.7956 20 19 20H17V16H28ZM8 3C8 2.73478 8.10536 2.48043 8.29289 2.29289C8.48043 2.10536 8.73478 2 9 2H23C23.2652 2 23.5196 2.10536 23.7071 2.29289C23.8946 2.48043 24 2.73478 24 3V14H8V3Z" fill="#374957"/>
</g>
<defs>
<filter id="filter0_d_403_3392" x="0" y="0" width="32" height="32" filterUnits="userSpaceOnUse" color-interpolation-filters="sRGB">
<feFlood flood-opacity="0" result="BackgroundImageFix"/>
<feColorMatrix in="SourceAlpha" type="matrix" values="0 0 0 0 0 0 0 0 0 0 0 0 0 0 0 0 0 0 127 0" result="hardAlpha"/>
<feOffset dy="4"/>
<feGaussianBlur stdDeviation="2"/>
<feComposite in2="hardAlpha" operator="out"/>
<feColorMatrix type="matrix" values="0 0 0 0 0 0 0 0 0 0 0 0 0 0 0 0 0 0 0.25 0"/>
<feBlend mode="normal" in2="BackgroundImageFix" result="effect1_dropShadow_403_3392"/>
<feBlend mode="normal" in="SourceGraphic" in2="effect1_dropShadow_403_3392" result="shape"/>
</filter>
<clipPath id="clip0_403_3392">
<rect width="24" height="24" fill="white" transform="translate(4)"/>
</clipPath>
</defs>
</svg>
