<svg width="32" height="32" viewBox="0 0 32 32" fill="none" xmlns="http://www.w3.org/2000/svg">
<g clip-path="url(#clip0_403_3381)" filter="url(#filter0_d_403_3381)">
<path d="M27.4719 16.1939L25.8309 13.7079L24.1629 14.8079L25.7999 17.2999C25.9154 17.4681 25.9817 17.6651 25.9916 17.8689C26.0015 18.0727 25.9545 18.2753 25.8559 18.4539C25.7563 18.6402 25.6073 18.7955 25.4252 18.9027C25.2432 19.0099 25.0352 19.065 24.8239 19.0619H16.8789L18.3569 17.5869L16.9449 16.1709L14.4219 18.6879C14.2358 18.8751 14.0883 19.0972 13.9881 19.3415C13.8878 19.5858 13.8367 19.8474 13.8376 20.1114C13.8385 20.3755 13.8915 20.6368 13.9935 20.8803C14.0955 21.1239 14.2445 21.3449 14.4319 21.5309L16.9509 23.9999L18.3509 22.5729L16.8089 21.0579H24.8279C25.3999 21.0598 25.9616 20.9066 26.4534 20.6146C26.9452 20.3227 27.3487 19.9029 27.6209 19.3999C27.8935 18.9035 28.0238 18.3416 27.9975 17.7759C27.9712 17.2103 27.7894 16.6628 27.4719 16.1939V16.1939Z" fill="#374957"/>
<path d="M15.7601 3.01288C15.9557 3.01225 16.1486 3.05948 16.3219 3.15047C16.4951 3.24145 16.6435 3.37342 16.754 3.53488L21.0271 9.99988L18.8121 9.56288L18.426 11.5249L22.046 12.2389C22.3053 12.2902 22.5722 12.2896 22.8312 12.2372C23.0903 12.1847 23.3364 12.0814 23.5553 11.9333C23.7742 11.7852 23.9615 11.5951 24.1065 11.3742C24.2515 11.1532 24.3513 10.9057 24.4 10.6459L25.084 6.98188L23.1171 6.61488L22.692 8.89388L18.4231 2.43288C18.1297 1.99041 17.7302 1.62854 17.2609 1.38037C16.7916 1.13221 16.2676 1.00567 15.7368 1.01234C15.206 1.019 14.6853 1.15866 14.2224 1.41852C13.7595 1.67839 13.3691 2.05018 13.0871 2.49988L11.8521 4.46788L13.5451 5.53188L14.7831 3.56088C14.8854 3.39357 15.029 3.25532 15.2 3.15938C15.3711 3.06343 15.5639 3.01299 15.7601 3.01288V3.01288Z" fill="#374957"/>
<path d="M10.4572 10.4526L10.8872 12.7626L12.8542 12.3996L12.1702 8.73162C12.1215 8.47197 12.0219 8.22452 11.8771 8.00358C11.7323 7.78264 11.5451 7.59258 11.3265 7.44437C11.1078 7.29616 10.8619 7.19275 10.603 7.1401C10.3441 7.08745 10.0774 7.08661 9.8182 7.13762L6.2002 7.85062L6.5872 9.81262L8.7712 9.38162L4.4782 16.2096C4.18008 16.6813 4.0154 17.225 4.00167 17.7828C3.98793 18.3407 4.12566 18.8918 4.4002 19.3776C4.67246 19.8731 5.07388 20.2855 5.56179 20.5711C6.0497 20.8567 6.60587 21.0048 7.1712 20.9996H11.0002V18.9996H7.1712C6.96278 19.0023 6.75752 18.9485 6.57723 18.8439C6.39693 18.7393 6.24833 18.5879 6.1472 18.4056C6.04787 18.2317 5.99789 18.0341 6.00265 17.8339C6.00741 17.6337 6.06672 17.4386 6.1742 17.2696L10.4572 10.4526Z" fill="#374957"/>
</g>
<defs>
<filter id="filter0_d_403_3381" x="0" y="0" width="32" height="32" filterUnits="userSpaceOnUse" color-interpolation-filters="sRGB">
<feFlood flood-opacity="0" result="BackgroundImageFix"/>
<feColorMatrix in="SourceAlpha" type="matrix" values="0 0 0 0 0 0 0 0 0 0 0 0 0 0 0 0 0 0 127 0" result="hardAlpha"/>
<feOffset dy="4"/>
<feGaussianBlur stdDeviation="2"/>
<feComposite in2="hardAlpha" operator="out"/>
<feColorMatrix type="matrix" values="0 0 0 0 0 0 0 0 0 0 0 0 0 0 0 0 0 0 0.25 0"/>
<feBlend mode="normal" in2="BackgroundImageFix" result="effect1_dropShadow_403_3381"/>
<feBlend mode="normal" in="SourceGraphic" in2="effect1_dropShadow_403_3381" result="shape"/>
</filter>
<clipPath id="clip0_403_3381">
<rect width="24" height="24" fill="white" transform="translate(4)"/>
</clipPath>
</defs>
</svg>
