<svg width="32" height="32" viewBox="0 0 32 32" fill="none" xmlns="http://www.w3.org/2000/svg">
<g clip-path="url(#clip0_403_3615)" filter="url(#filter0_d_403_3615)">
<path d="M23 10C24.1568 9.99932 25.2776 9.59755 26.1714 8.86315C27.0651 8.12874 27.6766 7.10715 27.9016 5.97244C28.1266 4.83773 27.9511 3.66011 27.4052 2.64025C26.8592 1.62038 25.9765 0.821378 24.9075 0.379376C23.8385 -0.062626 22.6493 -0.120275 21.5425 0.216253C20.4357 0.55278 19.4799 1.26266 18.8379 2.22494C18.1958 3.18721 17.9073 4.34234 18.0215 5.49349C18.1357 6.64464 18.6454 7.72059 19.464 8.538C19.9282 9.00235 20.4795 9.37051 21.0863 9.62139C21.6931 9.87227 22.3434 10.0009 23 10ZM25.122 7.124C24.6829 7.55932 24.1199 7.84831 23.5102 7.95142C22.9005 8.05452 22.2739 7.96671 21.716 7.7L25.7 3.716C25.9665 4.27407 26.0539 4.90085 25.9505 5.51055C25.847 6.12025 25.5577 6.68308 25.122 7.122V7.124ZM20.878 2.878C21.3169 2.44235 21.8797 2.15299 22.4895 2.04952C23.0992 1.94606 23.7259 2.03354 24.284 2.3L20.3 6.284C20.0335 5.72593 19.9461 5.09915 20.0495 4.48945C20.153 3.87975 20.4423 3.31692 20.878 2.878V2.878ZM28 9.9V24H4V6C4 5.20435 4.31607 4.44129 4.87868 3.87868C5.44129 3.31607 6.20435 3 7 3H16.293C16.0997 3.64911 16.001 4.32271 16 5H7C6.73478 5 6.48043 5.10536 6.29289 5.29289C6.10536 5.48043 6 5.73478 6 6V6.242L13.878 14.122C14.4498 14.6675 15.2097 14.9719 16 14.9719C16.7903 14.9719 17.5502 14.6675 18.122 14.122L20.654 11.59C21.407 11.8592 22.2004 11.9978 23 12C23.026 12 23.051 12 23.077 12L19.536 15.542C19.0717 16.0064 18.5204 16.3748 17.9137 16.6262C17.307 16.8776 16.6567 17.0069 16 17.0069C15.3433 17.0069 14.693 16.8776 14.0863 16.6262C13.4796 16.3748 12.9283 16.0064 12.464 15.542L6 9.071V22H26V11.318C26.7238 10.9775 27.3835 10.5147 27.95 9.95C27.968 9.932 27.983 9.912 28 9.9Z" fill="#374957"/>
</g>
<defs>
<filter id="filter0_d_403_3615" x="0" y="0" width="32" height="32" filterUnits="userSpaceOnUse" color-interpolation-filters="sRGB">
<feFlood flood-opacity="0" result="BackgroundImageFix"/>
<feColorMatrix in="SourceAlpha" type="matrix" values="0 0 0 0 0 0 0 0 0 0 0 0 0 0 0 0 0 0 127 0" result="hardAlpha"/>
<feOffset dy="4"/>
<feGaussianBlur stdDeviation="2"/>
<feComposite in2="hardAlpha" operator="out"/>
<feColorMatrix type="matrix" values="0 0 0 0 0 0 0 0 0 0 0 0 0 0 0 0 0 0 0.25 0"/>
<feBlend mode="normal" in2="BackgroundImageFix" result="effect1_dropShadow_403_3615"/>
<feBlend mode="normal" in="SourceGraphic" in2="effect1_dropShadow_403_3615" result="shape"/>
</filter>
<clipPath id="clip0_403_3615">
<rect width="24" height="24" fill="white" transform="translate(4)"/>
</clipPath>
</defs>
</svg>
