<svg width="32" height="32" viewBox="0 0 32 32" fill="none" xmlns="http://www.w3.org/2000/svg">
<g clip-path="url(#clip0_403_3450)" filter="url(#filter0_d_403_3450)">
<path d="M16 24C13.6266 24 11.3066 23.2962 9.33316 21.9776C7.35977 20.6591 5.8217 18.7849 4.91345 16.5922C4.0052 14.3995 3.76756 11.9867 4.23058 9.65892C4.6936 7.33115 5.83649 5.19295 7.51472 3.51472C9.19295 1.83649 11.3312 0.693605 13.6589 0.230582C15.9867 -0.232441 18.3995 0.00519943 20.5922 0.913451C22.7849 1.8217 24.6591 3.35977 25.9776 5.33316C27.2962 7.30655 28 9.62663 28 12C27.9966 15.1815 26.7312 18.2318 24.4815 20.4815C22.2318 22.7312 19.1815 23.9966 16 24V24ZM16 2.00001C14.0222 2.00001 12.0888 2.5865 10.4443 3.68531C8.79981 4.78412 7.51809 6.34591 6.76121 8.17317C6.00433 10.0004 5.8063 12.0111 6.19215 13.9509C6.578 15.8907 7.53041 17.6725 8.92894 19.0711C10.3275 20.4696 12.1093 21.422 14.0491 21.8079C15.9889 22.1937 17.9996 21.9957 19.8268 21.2388C21.6541 20.4819 23.2159 19.2002 24.3147 17.5557C25.4135 15.9112 26 13.9778 26 12C25.9971 9.34873 24.9426 6.80689 23.0679 4.93215C21.1931 3.05742 18.6513 2.00292 16 2.00001V2.00001Z" fill="#374957"/>
<path d="M16.9997 14.9997H14.9997V14.2567C14.9849 13.5511 15.1593 12.8544 15.5046 12.239C15.85 11.6235 16.3538 11.1117 16.9637 10.7567C17.3332 10.5532 17.6288 10.2381 17.8084 9.85642C17.988 9.47476 18.0424 9.04609 17.9637 8.63168C17.8858 8.23689 17.6919 7.87428 17.4069 7.59017C17.1219 7.30607 16.7587 7.11337 16.3637 7.03668C16.0754 6.98332 15.7789 6.994 15.4952 7.06794C15.2115 7.14189 14.9476 7.27731 14.722 7.4646C14.4965 7.65189 14.3148 7.88648 14.19 8.15176C14.0652 8.41703 14.0002 8.70651 13.9997 8.99968H11.9997C11.9999 8.29419 12.1868 7.60131 12.5412 6.99133C12.8957 6.38136 13.4052 5.87598 14.018 5.52647C14.6309 5.17696 15.3252 4.99575 16.0307 5.00122C16.7362 5.00669 17.4277 5.19865 18.035 5.55762C18.6423 5.9166 19.1439 6.42982 19.4889 7.04522C19.8338 7.66062 20.0099 8.35631 19.9992 9.06173C19.9885 9.76714 19.7915 10.4572 19.428 11.0618C19.0645 11.6665 18.5476 12.1643 17.9297 12.5047C17.6344 12.6893 17.393 12.9484 17.2298 13.256C17.0665 13.5635 16.9871 13.9087 16.9997 14.2567V14.9997Z" fill="#374957"/>
<path d="M16.9997 16.9996H14.9997V18.9996H16.9997V16.9996Z" fill="#374957"/>
</g>
<defs>
<filter id="filter0_d_403_3450" x="0" y="0" width="32" height="32" filterUnits="userSpaceOnUse" color-interpolation-filters="sRGB">
<feFlood flood-opacity="0" result="BackgroundImageFix"/>
<feColorMatrix in="SourceAlpha" type="matrix" values="0 0 0 0 0 0 0 0 0 0 0 0 0 0 0 0 0 0 127 0" result="hardAlpha"/>
<feOffset dy="4"/>
<feGaussianBlur stdDeviation="2"/>
<feComposite in2="hardAlpha" operator="out"/>
<feColorMatrix type="matrix" values="0 0 0 0 0 0 0 0 0 0 0 0 0 0 0 0 0 0 0.25 0"/>
<feBlend mode="normal" in2="BackgroundImageFix" result="effect1_dropShadow_403_3450"/>
<feBlend mode="normal" in="SourceGraphic" in2="effect1_dropShadow_403_3450" result="shape"/>
</filter>
<clipPath id="clip0_403_3450">
<rect width="24" height="24" fill="white" transform="translate(4)"/>
</clipPath>
</defs>
</svg>
