<svg width="32" height="32" viewBox="0 0 32 32" fill="none" xmlns="http://www.w3.org/2000/svg">
<g clip-path="url(#clip0_403_3747)" filter="url(#filter0_d_403_3747)">
<path d="M27.9999 22.5888L21.7501 16.339C25.2448 12.0649 24.6129 5.76712 20.3389 2.27245C16.0648 -1.22222 9.76703 -0.590391 6.27236 3.68372C2.77769 7.95783 3.40952 14.2556 7.68358 17.7502C11.365 20.7604 16.6574 20.7604 20.3388 17.7502L26.5887 24L27.9999 22.5888ZM14.0272 18.0117C9.61755 18.0117 6.04282 14.437 6.04282 10.0273C6.04282 5.61764 9.61755 2.04291 14.0272 2.04291C18.4369 2.04291 22.0116 5.61764 22.0116 10.0273C22.0066 14.4349 18.4348 18.0068 14.0272 18.0117Z" fill="#374957"/>
<path d="M15.0253 6.03601H13.0292V9.03015H10.035V11.0263H13.0292V14.0204H15.0253V11.0263H18.0194V9.03015H15.0253V6.03601Z" fill="#374957"/>
</g>
<defs>
<filter id="filter0_d_403_3747" x="0" y="0" width="32" height="32" filterUnits="userSpaceOnUse" color-interpolation-filters="sRGB">
<feFlood flood-opacity="0" result="BackgroundImageFix"/>
<feColorMatrix in="SourceAlpha" type="matrix" values="0 0 0 0 0 0 0 0 0 0 0 0 0 0 0 0 0 0 127 0" result="hardAlpha"/>
<feOffset dy="4"/>
<feGaussianBlur stdDeviation="2"/>
<feComposite in2="hardAlpha" operator="out"/>
<feColorMatrix type="matrix" values="0 0 0 0 0 0 0 0 0 0 0 0 0 0 0 0 0 0 0.25 0"/>
<feBlend mode="normal" in2="BackgroundImageFix" result="effect1_dropShadow_403_3747"/>
<feBlend mode="normal" in="SourceGraphic" in2="effect1_dropShadow_403_3747" result="shape"/>
</filter>
<clipPath id="clip0_403_3747">
<rect width="24" height="24" fill="white" transform="translate(4)"/>
</clipPath>
</defs>
</svg>
