<svg width="32" height="32" viewBox="0 0 32 32" fill="none" xmlns="http://www.w3.org/2000/svg">
<g clip-path="url(#clip0_403_3374)" filter="url(#filter0_d_403_3374)">
<path d="M28 2.99988H17V7.73588L14.329 3.10788C14.1535 2.80387 13.901 2.55141 13.597 2.37589C13.2929 2.20037 12.9481 2.10797 12.597 2.10797C12.2459 2.10797 11.9011 2.20037 11.597 2.37589C11.293 2.55141 11.0405 2.80387 10.865 3.10788L4 14.9999H11.294C10.9672 16.0886 10.9104 17.2405 11.1286 18.356C11.3468 19.4716 11.8333 20.5172 12.5462 21.4026C13.2591 22.2879 14.1769 22.9864 15.2202 23.4375C16.2635 23.8887 17.401 24.0789 18.5344 23.9919C19.6677 23.9049 20.7628 23.5432 21.7251 22.938C22.6873 22.3329 23.4877 21.5025 24.057 20.5187C24.6264 19.5349 24.9476 18.4272 24.9929 17.2914C25.0382 16.1556 24.8062 15.0259 24.317 13.9999H28V2.99988ZM7.464 12.9999L12.6 4.10888L16.148 10.2559C14.5713 10.6884 13.1958 11.6592 12.26 12.9999H7.464ZM18 21.9999C17.0111 21.9999 16.0444 21.7066 15.2221 21.1572C14.3999 20.6078 13.759 19.8269 13.3806 18.9133C13.0022 17.9997 12.9031 16.9943 13.0961 16.0244C13.289 15.0545 13.7652 14.1636 14.4645 13.4643C15.1637 12.7651 16.0546 12.2889 17.0245 12.0959C17.9945 11.903 18.9998 12.002 19.9134 12.3805C20.827 12.7589 21.6079 13.3998 22.1573 14.222C22.7068 15.0443 23 16.011 23 16.9999C22.9984 18.3255 22.4711 19.5963 21.5338 20.5336C20.5964 21.471 19.3256 21.9983 18 21.9999V21.9999ZM26 11.9999H22.894C21.8336 10.9616 20.4693 10.2889 19 10.0799V4.99988H26V11.9999Z" fill="#374957"/>
</g>
<defs>
<filter id="filter0_d_403_3374" x="0" y="0" width="32" height="32" filterUnits="userSpaceOnUse" color-interpolation-filters="sRGB">
<feFlood flood-opacity="0" result="BackgroundImageFix"/>
<feColorMatrix in="SourceAlpha" type="matrix" values="0 0 0 0 0 0 0 0 0 0 0 0 0 0 0 0 0 0 127 0" result="hardAlpha"/>
<feOffset dy="4"/>
<feGaussianBlur stdDeviation="2"/>
<feComposite in2="hardAlpha" operator="out"/>
<feColorMatrix type="matrix" values="0 0 0 0 0 0 0 0 0 0 0 0 0 0 0 0 0 0 0.25 0"/>
<feBlend mode="normal" in2="BackgroundImageFix" result="effect1_dropShadow_403_3374"/>
<feBlend mode="normal" in="SourceGraphic" in2="effect1_dropShadow_403_3374" result="shape"/>
</filter>
<clipPath id="clip0_403_3374">
<rect width="24" height="24" fill="white" transform="translate(4)"/>
</clipPath>
</defs>
</svg>
