<svg width="32" height="32" viewBox="0 0 32 32" fill="none" xmlns="http://www.w3.org/2000/svg">
<g clip-path="url(#clip0_403_3349)" filter="url(#filter0_d_403_3349)">
<path d="M20.225 24H11.774L11.574 23.9C9.58344 22.8846 7.86255 21.4108 6.55305 19.6001C5.24356 17.7893 4.38292 15.6935 4.04201 13.485C3.96985 13.0585 3.9918 12.6213 4.10633 12.2041C4.22085 11.787 4.42518 11.3999 4.70501 11.07C4.98793 10.7346 5.34072 10.465 5.73869 10.2802C6.13667 10.0954 6.57022 9.99976 7.00901 10H24.99C25.4282 10.0001 25.861 10.096 26.2583 10.2808C26.6556 10.4656 27.0077 10.7349 27.29 11.07C27.5702 11.3997 27.7749 11.7867 27.8898 12.2039C28.0046 12.6211 28.0269 13.0583 27.955 13.485C27.6142 15.693 26.7541 17.7885 25.4453 19.5991C24.1366 21.4098 22.4166 22.8838 20.427 23.9L20.225 24ZM12.225 22H19.77C21.4112 21.0954 22.8242 19.8281 23.9013 18.2945C24.9783 16.761 25.691 15.0018 25.985 13.151C26.0091 13.0113 26.0019 12.868 25.9641 12.7314C25.9262 12.5949 25.8586 12.4683 25.766 12.361C25.6709 12.2478 25.5521 12.1569 25.418 12.0945C25.284 12.0322 25.1379 11.9999 24.99 12H7.00901C6.86115 11.9998 6.71504 12.0321 6.58097 12.0944C6.44691 12.1568 6.32813 12.2478 6.23301 12.361C6.14046 12.4684 6.07275 12.5949 6.03472 12.7314C5.99669 12.868 5.98928 13.0112 6.01301 13.151C6.3074 15.0018 7.02036 16.7609 8.09757 18.2944C9.17478 19.8279 10.5878 21.0953 12.229 22H12.225ZM16 6.414C16.0016 5.83397 15.8882 5.25937 15.6662 4.72348C15.4443 4.18759 15.1183 3.70104 14.707 3.292C14.4819 3.06874 14.3035 2.80293 14.1821 2.51004C14.0607 2.21715 13.9988 1.90304 14 1.586V0H12V1.586C11.9983 2.16581 12.1116 2.74021 12.3334 3.27593C12.5551 3.81165 12.881 4.29806 13.292 4.707C13.7437 5.16049 13.9981 5.77394 14 6.414V8H16V6.414ZM20 5.414C20.0018 4.83409 19.8884 4.25961 19.6664 3.72386C19.4445 3.18811 19.1184 2.70175 18.707 2.293C18.256 1.83916 18.002 1.22585 18 0.586V0H16V0.586C16.0036 1.75603 16.4677 2.8776 17.292 3.708C17.5171 3.93131 17.6956 4.19711 17.8172 4.48997C17.9387 4.78283 18.0009 5.09692 18 5.414V7H20V5.414Z" fill="#374957"/>
</g>
<defs>
<filter id="filter0_d_403_3349" x="0" y="0" width="32" height="32" filterUnits="userSpaceOnUse" color-interpolation-filters="sRGB">
<feFlood flood-opacity="0" result="BackgroundImageFix"/>
<feColorMatrix in="SourceAlpha" type="matrix" values="0 0 0 0 0 0 0 0 0 0 0 0 0 0 0 0 0 0 127 0" result="hardAlpha"/>
<feOffset dy="4"/>
<feGaussianBlur stdDeviation="2"/>
<feComposite in2="hardAlpha" operator="out"/>
<feColorMatrix type="matrix" values="0 0 0 0 0 0 0 0 0 0 0 0 0 0 0 0 0 0 0.25 0"/>
<feBlend mode="normal" in2="BackgroundImageFix" result="effect1_dropShadow_403_3349"/>
<feBlend mode="normal" in="SourceGraphic" in2="effect1_dropShadow_403_3349" result="shape"/>
</filter>
<clipPath id="clip0_403_3349">
<rect width="24" height="24" fill="white" transform="translate(4)"/>
</clipPath>
</defs>
</svg>
