<svg width="32" height="29" viewBox="0 0 32 29" fill="none" xmlns="http://www.w3.org/2000/svg">
<g clip-path="url(#clip0_403_3773)" filter="url(#filter0_d_403_3773)">
<path d="M28 20.9997H26V14.9997C25.449 1.72971 6.546 1.74071 6 14.9997V20.9997H4V14.9997C4.661 -0.92429 27.345 -0.91129 28 14.9997V20.9997ZM24 14.9997C23.6 4.39971 8.4 4.40671 8 14.9997V20.9997H10V14.9997C10.253 7.06771 21.75 7.07371 22 14.9997V20.9997H24V14.9997ZM20 14.9997C20 13.9388 19.5786 12.9214 18.8284 12.1713C18.0783 11.4211 17.0609 10.9997 16 10.9997C14.9391 10.9997 13.9217 11.4211 13.1716 12.1713C12.4214 12.9214 12 13.9388 12 14.9997V20.9997H14V14.9997C14 14.4693 14.2107 13.9606 14.5858 13.5855C14.9609 13.2104 15.4696 12.9997 16 12.9997C16.5304 12.9997 17.0391 13.2104 17.4142 13.5855C17.7893 13.9606 18 14.4693 18 14.9997V20.9997H20V14.9997Z" fill="#374957"/>
</g>
<defs>
<filter id="filter0_d_403_3773" x="0" y="0" width="32" height="32" filterUnits="userSpaceOnUse" color-interpolation-filters="sRGB">
<feFlood flood-opacity="0" result="BackgroundImageFix"/>
<feColorMatrix in="SourceAlpha" type="matrix" values="0 0 0 0 0 0 0 0 0 0 0 0 0 0 0 0 0 0 127 0" result="hardAlpha"/>
<feOffset dy="4"/>
<feGaussianBlur stdDeviation="2"/>
<feComposite in2="hardAlpha" operator="out"/>
<feColorMatrix type="matrix" values="0 0 0 0 0 0 0 0 0 0 0 0 0 0 0 0 0 0 0.25 0"/>
<feBlend mode="normal" in2="BackgroundImageFix" result="effect1_dropShadow_403_3773"/>
<feBlend mode="normal" in="SourceGraphic" in2="effect1_dropShadow_403_3773" result="shape"/>
</filter>
<clipPath id="clip0_403_3773">
<rect width="24" height="24" fill="white" transform="translate(4)"/>
</clipPath>
</defs>
</svg>
