<svg width="26" height="32" viewBox="0 0 26 32" fill="none" xmlns="http://www.w3.org/2000/svg">
<g clip-path="url(#clip0_403_3473)" filter="url(#filter0_d_403_3473)">
<path d="M22 24H4V3C4 2.20435 4.31607 1.44129 4.87868 0.87868C5.44129 0.31607 6.20435 0 7 0L19 0C19.7956 0 20.5587 0.31607 21.1213 0.87868C21.6839 1.44129 22 2.20435 22 3V24ZM6 22H20V3C20 2.73478 19.8946 2.48043 19.7071 2.29289C19.5196 2.10536 19.2652 2 19 2H7C6.73478 2 6.48043 2.10536 6.29289 2.29289C6.10536 2.48043 6 2.73478 6 3V22Z" fill="#374957"/>
<path d="M12.9999 9C12.4066 9 11.8266 8.82405 11.3332 8.49441C10.8399 8.16477 10.4554 7.69623 10.2283 7.14805C10.0012 6.59987 9.94183 5.99667 10.0576 5.41473C10.1733 4.83279 10.4591 4.29824 10.8786 3.87868C11.2982 3.45912 11.8327 3.1734 12.4147 3.05765C12.9966 2.94189 13.5998 3.0013 14.148 3.22836C14.6962 3.45543 15.1647 3.83994 15.4943 4.33329C15.824 4.82664 15.9999 5.40666 15.9999 6C15.9999 6.79565 15.6839 7.55871 15.1213 8.12132C14.5587 8.68393 13.7956 9 12.9999 9ZM12.9999 5C12.8022 5 12.6088 5.05865 12.4444 5.16853C12.2799 5.27841 12.1517 5.43459 12.0761 5.61732C12.0004 5.80004 11.9806 6.00111 12.0192 6.19509C12.0577 6.38907 12.153 6.56726 12.2928 6.70711C12.4327 6.84696 12.6109 6.9422 12.8049 6.98079C12.9988 7.01937 13.1999 6.99957 13.3826 6.92388C13.5654 6.84819 13.7215 6.72002 13.8314 6.55557C13.9413 6.39112 13.9999 6.19778 13.9999 6C13.9999 5.73479 13.8946 5.48043 13.707 5.2929C13.5195 5.10536 13.2652 5 12.9999 5Z" fill="#374957"/>
<path d="M13.0002 19.9993C12.0113 19.9993 11.0446 19.7061 10.2224 19.1567C9.40015 18.6073 8.75929 17.8264 8.38085 16.9128C8.00241 15.9991 7.90339 14.9938 8.09632 14.0239C8.28925 13.054 8.76545 12.1631 9.46471 11.4638C10.164 10.7645 11.0549 10.2883 12.0248 10.0954C12.9947 9.90248 14 10.0015 14.9137 10.3799C15.8273 10.7584 16.6082 11.3992 17.1576 12.2215C17.707 13.0437 18.0002 14.0104 18.0002 14.9993C17.9987 16.3249 17.4714 17.5958 16.534 18.5331C15.5967 19.4705 14.3258 19.9977 13.0002 19.9993V19.9993ZM13.0002 11.9993C12.4069 11.9993 11.8269 12.1753 11.3335 12.5049C10.8402 12.8346 10.4557 13.3031 10.2286 13.8513C10.0015 14.3995 9.94213 15.0027 10.0579 15.5846C10.1736 16.1665 10.4594 16.7011 10.8789 17.1207C11.2985 17.5402 11.833 17.8259 12.415 17.9417C12.9969 18.0574 13.6001 17.998 14.1483 17.771C14.6965 17.5439 15.165 17.1594 15.4947 16.666C15.8243 16.1727 16.0002 15.5927 16.0002 14.9993C16.0002 14.2037 15.6842 13.4406 15.1216 12.878C14.559 12.3154 13.7959 11.9993 13.0002 11.9993Z" fill="#374957"/>
<path d="M13.9997 14.0006H11.9997V16.0006H13.9997V14.0006Z" fill="#374957"/>
</g>
<defs>
<filter id="filter0_d_403_3473" x="-3" y="0" width="32" height="32" filterUnits="userSpaceOnUse" color-interpolation-filters="sRGB">
<feFlood flood-opacity="0" result="BackgroundImageFix"/>
<feColorMatrix in="SourceAlpha" type="matrix" values="0 0 0 0 0 0 0 0 0 0 0 0 0 0 0 0 0 0 127 0" result="hardAlpha"/>
<feOffset dy="4"/>
<feGaussianBlur stdDeviation="2"/>
<feComposite in2="hardAlpha" operator="out"/>
<feColorMatrix type="matrix" values="0 0 0 0 0 0 0 0 0 0 0 0 0 0 0 0 0 0 0.25 0"/>
<feBlend mode="normal" in2="BackgroundImageFix" result="effect1_dropShadow_403_3473"/>
<feBlend mode="normal" in="SourceGraphic" in2="effect1_dropShadow_403_3473" result="shape"/>
</filter>
<clipPath id="clip0_403_3473">
<rect width="24" height="24" fill="white" transform="translate(1)"/>
</clipPath>
</defs>
</svg>
