<svg width="32" height="28" viewBox="0 0 32 28" fill="none" xmlns="http://www.w3.org/2000/svg">
<g clip-path="url(#clip0_403_3409)" filter="url(#filter0_d_403_3409)">
<path d="M25 4.00031H7C6.20435 4.00031 5.44129 4.31638 4.87868 4.87898C4.31607 5.44159 4 6.20466 4 7.00031V20.0003H28V7.00031C28 6.20466 27.6839 5.44159 27.1213 4.87898C26.5587 4.31638 25.7956 4.00031 25 4.00031V4.00031ZM26 18.0003H6V7.00031C6 6.73509 6.10536 6.48073 6.29289 6.2932C6.48043 6.10566 6.73478 6.00031 7 6.00031H25C25.2652 6.00031 25.5196 6.10566 25.7071 6.2932C25.8946 6.48073 26 6.73509 26 7.00031V18.0003ZM16 8.00031C15.2089 8.00031 14.4355 8.2349 13.7777 8.67443C13.1199 9.11395 12.6072 9.73867 12.3045 10.4696C12.0017 11.2005 11.9225 12.0047 12.0769 12.7807C12.2312 13.5566 12.6122 14.2693 13.1716 14.8287C13.731 15.3881 14.4437 15.7691 15.2196 15.9234C15.9956 16.0778 16.7998 15.9986 17.5307 15.6958C18.2616 15.3931 18.8864 14.8804 19.3259 14.2226C19.7654 13.5648 20 12.7914 20 12.0003C20 10.9394 19.5786 9.92202 18.8284 9.17188C18.0783 8.42173 17.0609 8.00031 16 8.00031V8.00031ZM16 14.0003C15.6044 14.0003 15.2178 13.883 14.8889 13.6632C14.56 13.4435 14.3036 13.1311 14.1522 12.7657C14.0009 12.4002 13.9613 11.9981 14.0384 11.6101C14.1156 11.2222 14.3061 10.8658 14.5858 10.5861C14.8655 10.3064 15.2219 10.1159 15.6098 10.0387C15.9978 9.96156 16.3999 10.0012 16.7654 10.1525C17.1308 10.3039 17.4432 10.5603 17.6629 10.8892C17.8827 11.2181 18 11.6047 18 12.0003C18 12.5307 17.7893 13.0394 17.4142 13.4145C17.0391 13.7896 16.5304 14.0003 16 14.0003ZM10 9.00031C10 9.19809 9.94135 9.39143 9.83147 9.55588C9.72159 9.72032 9.56541 9.8485 9.38268 9.92418C9.19996 9.99987 8.99889 10.0197 8.80491 9.98109C8.61093 9.94251 8.43275 9.84726 8.29289 9.70741C8.15304 9.56756 8.0578 9.38938 8.01921 9.1954C7.98063 9.00141 8.00043 8.80035 8.07612 8.61762C8.15181 8.4349 8.27998 8.27872 8.44443 8.16884C8.60888 8.05895 8.80222 8.00031 9 8.00031C9.26522 8.00031 9.51957 8.10566 9.70711 8.2932C9.89464 8.48073 10 8.73509 10 9.00031ZM24 9.00031C24 9.19809 23.9414 9.39143 23.8315 9.55588C23.7216 9.72032 23.5654 9.8485 23.3827 9.92418C23.2 9.99987 22.9989 10.0197 22.8049 9.98109C22.6109 9.94251 22.4327 9.84726 22.2929 9.70741C22.153 9.56756 22.0578 9.38938 22.0192 9.1954C21.9806 9.00141 22.0004 8.80035 22.0761 8.61762C22.1518 8.4349 22.28 8.27872 22.4444 8.16884C22.6089 8.05895 22.8022 8.00031 23 8.00031C23.2652 8.00031 23.5196 8.10566 23.7071 8.2932C23.8946 8.48073 24 8.73509 24 9.00031ZM10 15.0003C10 15.1981 9.94135 15.3914 9.83147 15.5559C9.72159 15.7203 9.56541 15.8485 9.38268 15.9242C9.19996 15.9999 8.99889 16.0197 8.80491 15.9811C8.61093 15.9425 8.43275 15.8473 8.29289 15.7074C8.15304 15.5676 8.0578 15.3894 8.01921 15.1954C7.98063 15.0014 8.00043 14.8003 8.07612 14.6176C8.15181 14.4349 8.27998 14.2787 8.44443 14.1688C8.60888 14.059 8.80222 14.0003 9 14.0003C9.26522 14.0003 9.51957 14.1057 9.70711 14.2932C9.89464 14.4807 10 14.7351 10 15.0003ZM24 15.0003C24 15.1981 23.9414 15.3914 23.8315 15.5559C23.7216 15.7203 23.5654 15.8485 23.3827 15.9242C23.2 15.9999 22.9989 16.0197 22.8049 15.9811C22.6109 15.9425 22.4327 15.8473 22.2929 15.7074C22.153 15.5676 22.0578 15.3894 22.0192 15.1954C21.9806 15.0014 22.0004 14.8003 22.0761 14.6176C22.1518 14.4349 22.28 14.2787 22.4444 14.1688C22.6089 14.059 22.8022 14.0003 23 14.0003C23.2652 14.0003 23.5196 14.1057 23.7071 14.2932C23.8946 14.4807 24 14.7351 24 15.0003Z" fill="#374957"/>
</g>
<defs>
<filter id="filter0_d_403_3409" x="0" y="0" width="32" height="32" filterUnits="userSpaceOnUse" color-interpolation-filters="sRGB">
<feFlood flood-opacity="0" result="BackgroundImageFix"/>
<feColorMatrix in="SourceAlpha" type="matrix" values="0 0 0 0 0 0 0 0 0 0 0 0 0 0 0 0 0 0 127 0" result="hardAlpha"/>
<feOffset dy="4"/>
<feGaussianBlur stdDeviation="2"/>
<feComposite in2="hardAlpha" operator="out"/>
<feColorMatrix type="matrix" values="0 0 0 0 0 0 0 0 0 0 0 0 0 0 0 0 0 0 0.25 0"/>
<feBlend mode="normal" in2="BackgroundImageFix" result="effect1_dropShadow_403_3409"/>
<feBlend mode="normal" in="SourceGraphic" in2="effect1_dropShadow_403_3409" result="shape"/>
</filter>
<clipPath id="clip0_403_3409">
<rect width="24" height="24" fill="white" transform="translate(4)"/>
</clipPath>
</defs>
</svg>
