<svg width="32" height="32" viewBox="0 0 32 32" fill="none" xmlns="http://www.w3.org/2000/svg">
<g clip-path="url(#clip0_403_3530)" filter="url(#filter0_d_403_3530)">
<path d="M18.96 6.139C18.0629 5.40435 16.9396 5.00201 15.78 5H12.771L11.453 0H5.029L6.347 5H4V7H15.78C16.4778 7.00182 17.1535 7.24449 17.693 7.687C19.1057 8.87658 20.2577 10.3449 21.077 12H18.7L15.7 14H4V16H16.3L19.3 14H25.941C25.6926 16.1985 24.644 18.2288 22.9952 19.7041C21.3464 21.1794 19.2125 21.9966 17 22H4V24H17C19.9163 23.9966 22.7122 22.8365 24.7744 20.7744C26.8365 18.7122 27.9966 15.9163 28 13V12H23.287C22.3233 9.73457 20.8412 7.72704 18.96 6.139V6.139ZM7.625 2H9.912L10.7 5H8.415L7.625 2ZM16 11H4V9H16V11ZM7 20C6.80222 20 6.60888 19.9414 6.44443 19.8315C6.27998 19.7216 6.15181 19.5654 6.07612 19.3827C6.00043 19.2 5.98063 18.9989 6.01921 18.8049C6.0578 18.6109 6.15304 18.4327 6.29289 18.2929C6.43275 18.153 6.61093 18.0578 6.80491 18.0192C6.99889 17.9806 7.19996 18.0004 7.38268 18.0761C7.56541 18.1518 7.72159 18.28 7.83147 18.4444C7.94135 18.6089 8 18.8022 8 19C8 19.2652 7.89464 19.5196 7.70711 19.7071C7.51957 19.8946 7.26522 20 7 20ZM11 20C10.8022 20 10.6089 19.9414 10.4444 19.8315C10.28 19.7216 10.1518 19.5654 10.0761 19.3827C10.0004 19.2 9.98063 18.9989 10.0192 18.8049C10.0578 18.6109 10.153 18.4327 10.2929 18.2929C10.4327 18.153 10.6109 18.0578 10.8049 18.0192C10.9989 17.9806 11.2 18.0004 11.3827 18.0761C11.5654 18.1518 11.7216 18.28 11.8315 18.4444C11.9414 18.6089 12 18.8022 12 19C12 19.2652 11.8946 19.5196 11.7071 19.7071C11.5196 19.8946 11.2652 20 11 20ZM15 20C14.8022 20 14.6089 19.9414 14.4444 19.8315C14.28 19.7216 14.1518 19.5654 14.0761 19.3827C14.0004 19.2 13.9806 18.9989 14.0192 18.8049C14.0578 18.6109 14.153 18.4327 14.2929 18.2929C14.4327 18.153 14.6109 18.0578 14.8049 18.0192C14.9989 17.9806 15.2 18.0004 15.3827 18.0761C15.5654 18.1518 15.7216 18.28 15.8315 18.4444C15.9414 18.6089 16 18.8022 16 19C16 19.2652 15.8946 19.5196 15.7071 19.7071C15.5196 19.8946 15.2652 20 15 20Z" fill="#374957"/>
</g>
<defs>
<filter id="filter0_d_403_3530" x="0" y="0" width="32" height="32" filterUnits="userSpaceOnUse" color-interpolation-filters="sRGB">
<feFlood flood-opacity="0" result="BackgroundImageFix"/>
<feColorMatrix in="SourceAlpha" type="matrix" values="0 0 0 0 0 0 0 0 0 0 0 0 0 0 0 0 0 0 127 0" result="hardAlpha"/>
<feOffset dy="4"/>
<feGaussianBlur stdDeviation="2"/>
<feComposite in2="hardAlpha" operator="out"/>
<feColorMatrix type="matrix" values="0 0 0 0 0 0 0 0 0 0 0 0 0 0 0 0 0 0 0.25 0"/>
<feBlend mode="normal" in2="BackgroundImageFix" result="effect1_dropShadow_403_3530"/>
<feBlend mode="normal" in="SourceGraphic" in2="effect1_dropShadow_403_3530" result="shape"/>
</filter>
<clipPath id="clip0_403_3530">
<rect width="24" height="24" fill="white" transform="translate(4)"/>
</clipPath>
</defs>
</svg>
