<svg width="24" height="24" viewBox="0 0 24 24" fill="none" xmlns="http://www.w3.org/2000/svg">
<g clip-path="url(#clip0_403_3549)">
<path d="M7 12H12V14H7V12ZM17 8H7V10H17V8ZM17 4H7V6H17V4ZM20 19.444V24L18 22L16 24V19.444C15.2373 19.0058 14.641 18.3277 14.3038 17.5154C13.9666 16.703 13.9076 15.8019 14.1358 14.9525C14.364 14.103 14.8667 13.3529 15.5656 12.8189C16.2646 12.2849 17.1204 11.997 18 12C18.338 12.0042 18.6741 12.0519 19 12.142V3C19 2.73478 18.8946 2.48043 18.7071 2.29289C18.5196 2.10536 18.2652 2 18 2H6C5.73478 2 5.48043 2.10536 5.29289 2.29289C5.10536 2.48043 5 2.73478 5 3V20H14V22H3V3C3 2.20435 3.31607 1.44129 3.87868 0.87868C4.44129 0.31607 5.20435 0 6 0L18 0C18.7956 0 19.5587 0.31607 20.1213 0.87868C20.6839 1.44129 21 2.20435 21 3V13.382C21.3917 13.8219 21.6801 14.3438 21.844 14.9096C22.0079 15.4753 22.0433 16.0706 21.9474 16.6518C21.8515 17.2329 21.6269 17.7853 21.2899 18.2684C20.953 18.7516 20.5122 19.1532 20 19.444V19.444ZM20 16C20 15.6044 19.8827 15.2178 19.6629 14.8889C19.4432 14.56 19.1308 14.3036 18.7654 14.1522C18.3999 14.0009 17.9978 13.9613 17.6098 14.0384C17.2219 14.1156 16.8655 14.3061 16.5858 14.5858C16.3061 14.8655 16.1156 15.2219 16.0384 15.6098C15.9613 15.9978 16.0009 16.3999 16.1522 16.7654C16.3036 17.1308 16.56 17.4432 16.8889 17.6629C17.2178 17.8827 17.6044 18 18 18C18.5304 18 19.0391 17.7893 19.4142 17.4142C19.7893 17.0391 20 16.5304 20 16Z" fill="#374957"/>
</g>
<defs>
<clipPath id="clip0_403_3549">
<rect width="24" height="24" fill="white"/>
</clipPath>
</defs>
</svg>
