<svg width="32" height="32" viewBox="0 0 32 32" fill="none" xmlns="http://www.w3.org/2000/svg">
<g clip-path="url(#clip0_403_3458)" filter="url(#filter0_d_403_3458)">
<path d="M19 3C19 2.20435 18.6839 1.44129 18.1213 0.87868C17.5587 0.31607 16.7956 0 16 0L4 0V24H6V13H14V14C14 14.7956 14.3161 15.5587 14.8787 16.1213C15.4413 16.6839 16.2044 17 17 17H28V4H19V3ZM6 2H16C16.2652 2 16.5196 2.10536 16.7071 2.29289C16.8946 2.48043 17 2.73478 17 3V11H6V2ZM26 6V15H17C16.7348 15 16.4804 14.8946 16.2929 14.7071C16.1054 14.5196 16 14.2652 16 14V13H19V6H26Z" fill="#374957"/>
</g>
<defs>
<filter id="filter0_d_403_3458" x="0" y="0" width="32" height="32" filterUnits="userSpaceOnUse" color-interpolation-filters="sRGB">
<feFlood flood-opacity="0" result="BackgroundImageFix"/>
<feColorMatrix in="SourceAlpha" type="matrix" values="0 0 0 0 0 0 0 0 0 0 0 0 0 0 0 0 0 0 127 0" result="hardAlpha"/>
<feOffset dy="4"/>
<feGaussianBlur stdDeviation="2"/>
<feComposite in2="hardAlpha" operator="out"/>
<feColorMatrix type="matrix" values="0 0 0 0 0 0 0 0 0 0 0 0 0 0 0 0 0 0 0.25 0"/>
<feBlend mode="normal" in2="BackgroundImageFix" result="effect1_dropShadow_403_3458"/>
<feBlend mode="normal" in="SourceGraphic" in2="effect1_dropShadow_403_3458" result="shape"/>
</filter>
<clipPath id="clip0_403_3458">
<rect width="24" height="24" fill="white" transform="translate(4)"/>
</clipPath>
</defs>
</svg>
