<svg width="26" height="32" viewBox="0 0 26 32" fill="none" xmlns="http://www.w3.org/2000/svg">
<g clip-path="url(#clip0_403_3312)" filter="url(#filter0_d_403_3312)">
<path d="M16 6H9.99999V4H16V6ZM22 18.3L21.832 18.552C21.4199 19.102 20.919 19.5796 20.35 19.965L22 24H19.838L18.592 20.954C16.8197 21.6834 14.9161 22.0395 13 22C11.0839 22.0395 9.18025 21.6834 7.40799 20.954L6.16199 24H3.99999L5.64999 19.968C5.08095 19.5826 4.58009 19.105 4.16799 18.555L3.99999 18.3V4C4.05032 3.45257 4.25344 2.9303 4.58618 2.4927C4.91893 2.05511 5.36793 1.7198 5.88199 1.525C8.14239 0.588724 10.5544 0.0719582 13 0C15.4456 0.0720694 17.8576 0.58883 20.118 1.525C20.632 1.7199 21.0809 2.05524 21.4137 2.49281C21.7464 2.93039 21.9495 3.45261 22 4V18.3ZM6.00899 4.25C6.09999 8.42 8.52199 14 13 14C17.478 14 19.9 8.42 19.991 4.25C19.9829 4.06252 19.9211 3.88131 19.813 3.72796C19.7048 3.5746 19.5549 3.45556 19.381 3.385C17.3528 2.54898 15.1922 2.08002 13 2C10.8077 2.08002 8.64715 2.54898 6.61899 3.385C6.44511 3.45556 6.29516 3.5746 6.18702 3.72796C6.07887 3.88131 6.01707 4.06252 6.00899 4.25ZM20 11.411C18.417 14.094 15.981 16 13 16C10.019 16 7.58299 14.094 5.99999 11.411V17.648C6.55199 18.257 8.52599 20 13 20C17.474 20 19.438 18.265 20 17.647V11.411ZM13 17C12.8022 17 12.6089 17.0586 12.4444 17.1685C12.28 17.2784 12.1518 17.4346 12.0761 17.6173C12.0004 17.8 11.9806 18.0011 12.0192 18.1951C12.0578 18.3891 12.153 18.5673 12.2929 18.7071C12.4327 18.847 12.6109 18.9422 12.8049 18.9808C12.9989 19.0194 13.2 18.9996 13.3827 18.9239C13.5654 18.8482 13.7216 18.72 13.8315 18.5556C13.9413 18.3911 14 18.1978 14 18C14 17.7348 13.8946 17.4804 13.7071 17.2929C13.5196 17.1054 13.2652 17 13 17Z" fill="#374957"/>
</g>
<defs>
<filter id="filter0_d_403_3312" x="-3" y="0" width="32" height="32" filterUnits="userSpaceOnUse" color-interpolation-filters="sRGB">
<feFlood flood-opacity="0" result="BackgroundImageFix"/>
<feColorMatrix in="SourceAlpha" type="matrix" values="0 0 0 0 0 0 0 0 0 0 0 0 0 0 0 0 0 0 127 0" result="hardAlpha"/>
<feOffset dy="4"/>
<feGaussianBlur stdDeviation="2"/>
<feComposite in2="hardAlpha" operator="out"/>
<feColorMatrix type="matrix" values="0 0 0 0 0 0 0 0 0 0 0 0 0 0 0 0 0 0 0.25 0"/>
<feBlend mode="normal" in2="BackgroundImageFix" result="effect1_dropShadow_403_3312"/>
<feBlend mode="normal" in="SourceGraphic" in2="effect1_dropShadow_403_3312" result="shape"/>
</filter>
<clipPath id="clip0_403_3312">
<rect width="24" height="24" fill="white" transform="translate(1)"/>
</clipPath>
</defs>
</svg>
