<svg width="32" height="32" viewBox="0 0 32 32" fill="none" xmlns="http://www.w3.org/2000/svg">
<g clip-path="url(#clip0_403_3439)" filter="url(#filter0_d_403_3439)">
<path d="M26.913 0.049C26.357 0.075 13.262 0.72 8.862 5.12C7.12804 6.8589 6.09984 9.17857 5.97592 11.6311C5.852 14.0837 6.64115 16.4952 8.191 18.4L4 22.591L5.415 24L9.605 19.816C11.5099 21.3662 13.9217 22.1555 16.3746 22.0314C18.8274 21.9073 21.1473 20.8786 22.886 19.144C27.374 14.657 27.936 1.644 27.957 1.088L28 0L26.913 0.049ZM21.472 17.73C20.1084 19.0898 18.2966 19.9069 16.3747 20.0287C14.4529 20.1505 12.5524 19.5687 11.028 18.392L20.665 8.755L19.251 7.341L9.614 16.978C8.43726 15.4536 7.8555 13.5531 7.97731 11.6313C8.09913 9.70942 8.91621 7.89758 10.276 6.534C13.455 3.355 22.683 2.372 25.891 2.122C25.657 5.315 24.716 14.486 21.472 17.73Z" fill="#374957"/>
</g>
<defs>
<filter id="filter0_d_403_3439" x="0" y="0" width="32" height="32" filterUnits="userSpaceOnUse" color-interpolation-filters="sRGB">
<feFlood flood-opacity="0" result="BackgroundImageFix"/>
<feColorMatrix in="SourceAlpha" type="matrix" values="0 0 0 0 0 0 0 0 0 0 0 0 0 0 0 0 0 0 127 0" result="hardAlpha"/>
<feOffset dy="4"/>
<feGaussianBlur stdDeviation="2"/>
<feComposite in2="hardAlpha" operator="out"/>
<feColorMatrix type="matrix" values="0 0 0 0 0 0 0 0 0 0 0 0 0 0 0 0 0 0 0.25 0"/>
<feBlend mode="normal" in2="BackgroundImageFix" result="effect1_dropShadow_403_3439"/>
<feBlend mode="normal" in="SourceGraphic" in2="effect1_dropShadow_403_3439" result="shape"/>
</filter>
<clipPath id="clip0_403_3439">
<rect width="24" height="24" fill="white" transform="translate(4)"/>
</clipPath>
</defs>
</svg>
