<svg width="32" height="32" viewBox="0 0 32 32" fill="none" xmlns="http://www.w3.org/2000/svg">
<g clip-path="url(#clip0_403_3413)" filter="url(#filter0_d_403_3413)">
<path d="M15.9998 20C18.1208 19.9976 20.1543 19.154 21.654 17.6542C23.1538 16.1544 23.9974 14.121 23.9998 12V8C23.9998 5.87827 23.157 3.84344 21.6567 2.34315C20.1564 0.842855 18.1215 0 15.9998 0C13.8781 0 11.8433 0.842855 10.343 2.34315C8.84267 3.84344 7.99982 5.87827 7.99982 8V12C8.0022 14.121 8.84582 16.1544 10.3456 17.6542C11.8454 19.154 13.8788 19.9976 15.9998 20V20ZM9.99982 9H13.9998V7H10.0898C10.3249 5.60251 11.0475 4.33352 12.1295 3.41832C13.2114 2.50313 14.5827 2.00096 15.9998 2.00096C17.4169 2.00096 18.7882 2.50313 19.8702 3.41832C20.9521 4.33352 21.6748 5.60251 21.9098 7H17.9998V9H21.9998V11H17.9998V13H21.9098C21.6748 14.3975 20.9521 15.6665 19.8702 16.5817C18.7882 17.4969 17.4169 17.999 15.9998 17.999C14.5827 17.999 13.2114 17.4969 12.1295 16.5817C11.0475 15.6665 10.3249 14.3975 10.0898 13H13.9998V11H9.99982V9Z" fill="#374957"/>
<path d="M26 13.0003C25.9974 15.3864 25.0483 17.6741 23.361 19.3613C21.6738 21.0486 19.3861 21.9976 17 22.0003H15C12.6139 21.9974 10.3265 21.0482 8.63925 19.361C6.95206 17.6738 6.00291 15.3864 6 13.0003H4C4.00344 15.9166 5.16347 18.7125 7.22563 20.7747C9.28778 22.8368 12.0837 23.9968 15 24.0003H17C19.9163 23.9968 22.7122 22.8368 24.7744 20.7747C26.8365 18.7125 27.9966 15.9166 28 13.0003H26Z" fill="#374957"/>
</g>
<defs>
<filter id="filter0_d_403_3413" x="0" y="0" width="32" height="32" filterUnits="userSpaceOnUse" color-interpolation-filters="sRGB">
<feFlood flood-opacity="0" result="BackgroundImageFix"/>
<feColorMatrix in="SourceAlpha" type="matrix" values="0 0 0 0 0 0 0 0 0 0 0 0 0 0 0 0 0 0 127 0" result="hardAlpha"/>
<feOffset dy="4"/>
<feGaussianBlur stdDeviation="2"/>
<feComposite in2="hardAlpha" operator="out"/>
<feColorMatrix type="matrix" values="0 0 0 0 0 0 0 0 0 0 0 0 0 0 0 0 0 0 0.25 0"/>
<feBlend mode="normal" in2="BackgroundImageFix" result="effect1_dropShadow_403_3413"/>
<feBlend mode="normal" in="SourceGraphic" in2="effect1_dropShadow_403_3413" result="shape"/>
</filter>
<clipPath id="clip0_403_3413">
<rect width="24" height="24" fill="white" transform="translate(4)"/>
</clipPath>
</defs>
</svg>
