<svg width="32" height="32" viewBox="0 0 32 32" fill="none" xmlns="http://www.w3.org/2000/svg">
<g clip-path="url(#clip0_403_3544)" filter="url(#filter0_d_403_3544)">
<path d="M23 0H7C6.20435 0 5.44129 0.31607 4.87868 0.87868C4.31607 1.44129 4 2.20435 4 3V24H28V5L23 0ZM11 2H21V6H11V2ZM26 22H6V3C6 2.73478 6.10536 2.48043 6.29289 2.29289C6.48043 2.10536 6.73478 2 7 2H9V8H23V2.828L26 5.828V22Z" fill="#374957"/>
<path d="M16.0001 9.99988C15.209 9.99988 14.4356 10.2345 13.7778 10.674C13.12 11.1135 12.6074 11.7382 12.3046 12.4691C12.0019 13.2 11.9226 14.0043 12.077 14.7802C12.2313 15.5562 12.6123 16.2689 13.1717 16.8283C13.7311 17.3877 14.4438 17.7687 15.2198 17.923C15.9957 18.0774 16.8 17.9981 17.5309 17.6954C18.2618 17.3926 18.8865 16.88 19.326 16.2222C19.7655 15.5644 20.0001 14.791 20.0001 13.9999C20.0001 12.939 19.5787 11.9216 18.8286 11.1715C18.0784 10.4213 17.061 9.99988 16.0001 9.99988V9.99988ZM16.0001 15.9999C15.6046 15.9999 15.2179 15.8826 14.889 15.6628C14.5601 15.4431 14.3037 15.1307 14.1524 14.7652C14.001 14.3998 13.9614 13.9977 14.0386 13.6097C14.1157 13.2217 14.3062 12.8654 14.5859 12.5857C14.8656 12.306 15.222 12.1155 15.6099 12.0383C15.9979 11.9611 16.4 12.0007 16.7655 12.1521C17.1309 12.3035 17.4433 12.5598 17.6631 12.8887C17.8828 13.2176 18.0001 13.6043 18.0001 13.9999C18.0001 14.5303 17.7894 15.039 17.4143 15.4141C17.0393 15.7892 16.5306 15.9999 16.0001 15.9999Z" fill="#374957"/>
</g>
<defs>
<filter id="filter0_d_403_3544" x="0" y="0" width="32" height="32" filterUnits="userSpaceOnUse" color-interpolation-filters="sRGB">
<feFlood flood-opacity="0" result="BackgroundImageFix"/>
<feColorMatrix in="SourceAlpha" type="matrix" values="0 0 0 0 0 0 0 0 0 0 0 0 0 0 0 0 0 0 127 0" result="hardAlpha"/>
<feOffset dy="4"/>
<feGaussianBlur stdDeviation="2"/>
<feComposite in2="hardAlpha" operator="out"/>
<feColorMatrix type="matrix" values="0 0 0 0 0 0 0 0 0 0 0 0 0 0 0 0 0 0 0.25 0"/>
<feBlend mode="normal" in2="BackgroundImageFix" result="effect1_dropShadow_403_3544"/>
<feBlend mode="normal" in="SourceGraphic" in2="effect1_dropShadow_403_3544" result="shape"/>
</filter>
<clipPath id="clip0_403_3544">
<rect width="24" height="24" fill="white" transform="translate(4)"/>
</clipPath>
</defs>
</svg>
