<svg width="24" height="24" viewBox="0 0 24 24" fill="none" xmlns="http://www.w3.org/2000/svg">
<g clip-path="url(#clip0_403_3370)">
<path d="M22.0998 1.90052C18.6638 -1.53048 9.37184 -0.0664764 4.65184 4.65252C-0.0681596 9.37152 -1.53116 18.6645 1.89984 22.1005C3.50643 23.4499 5.57365 24.1238 7.66684 23.9805C12.0009 23.9422 16.1653 22.2908 19.3478 19.3485C24.0658 14.6295 25.5308 5.33652 22.0998 1.90052V1.90052ZM16.3328 2.00052C17.8969 1.87517 19.4506 2.34441 20.6838 3.31452C21.6998 4.33152 22.1108 6.30052 21.9588 8.54552L15.4588 2.04552C15.7538 2.02652 16.0498 2.00052 16.3328 2.00052V2.00052ZM3.31584 20.6845C2.29984 19.6695 1.88884 17.7005 2.04084 15.4555L8.54084 21.9555C6.29984 22.1105 4.33084 21.7005 3.31584 20.6845ZM17.9338 17.9345C15.998 19.7585 13.6031 21.0225 11.0048 21.5915L2.40484 12.9915C2.97514 10.3941 4.24056 8.00048 6.06584 6.06652C8.00486 4.24311 10.4042 2.98261 13.0058 2.42052L21.5918 11.0065C21.0229 13.6047 19.7585 15.9994 17.9338 17.9345V17.9345ZM13.7068 6.29352L17.7068 10.2935L16.2928 11.7075L14.9998 10.4145L13.4138 12.0005L14.7068 13.2935L13.2928 14.7075L11.9998 13.4145L10.4138 15.0005L11.7068 16.2935L10.2928 17.7075L6.29284 13.7075L7.70684 12.2935L8.99984 13.5865L10.5858 12.0005L9.29284 10.7075L10.7068 9.29352L11.9998 10.5865L13.5858 9.00052L12.2928 7.70752L13.7068 6.29352Z" fill="#374957"/>
</g>
<defs>
<clipPath id="clip0_403_3370">
<rect width="24" height="24" fill="white"/>
</clipPath>
</defs>
</svg>
