<svg width="24" height="24" viewBox="0 0 24 24" fill="none" xmlns="http://www.w3.org/2000/svg">
<g clip-path="url(#clip0_403_3556)">
<path d="M21.159 8.016C20.1568 5.69436 18.3056 3.84321 15.984 2.841C15.9434 2.07598 15.6117 1.35548 15.0568 0.827234C14.502 0.298983 13.7661 0.0030094 13 0H11C10.2339 0.0030094 9.498 0.298983 8.94316 0.827234C8.38832 1.35548 8.0566 2.07598 8.016 2.841C5.69453 3.84346 3.84346 5.69453 2.841 8.016C2.07598 8.0566 1.35548 8.38832 0.827234 8.94316C0.298983 9.498 0.0030094 10.2339 0 11L0 14H2.2C2.51374 15.5449 3.18944 16.9933 4.17162 18.2263C5.15379 19.4593 6.41442 20.4418 7.85 21.093L6.861 24H8.974L9.744 21.735C11.2272 22.089 12.7728 22.089 14.256 21.735L15.027 24H17.139L16.15 21.093C17.5854 20.4415 18.8459 19.4589 19.828 18.226C20.8101 16.993 21.486 15.5447 21.8 14H24V11C23.997 10.2339 23.701 9.498 23.1728 8.94316C22.6445 8.38832 21.924 8.0566 21.159 8.016V8.016ZM10 3C10 2.73478 10.1054 2.48043 10.2929 2.29289C10.4804 2.10536 10.7348 2 11 2H13C13.2652 2 13.5196 2.10536 13.7071 2.29289C13.8946 2.48043 14 2.73478 14 3V4H10V3ZM2 11C2 10.7348 2.10536 10.4804 2.29289 10.2929C2.48043 10.1054 2.73478 10 3 10H5C5.26522 10 5.51957 10.1054 5.70711 10.2929C5.89464 10.4804 6 10.7348 6 11V12H2V11ZM12 20C11.4595 19.9988 10.9204 19.9432 10.391 19.834L12 15.1L13.609 19.83C13.0797 19.9405 12.5407 19.9975 12 20V20ZM15.5 19.194L12.944 11.678C12.8769 11.4801 12.7494 11.3082 12.5796 11.1865C12.4097 11.0647 12.206 10.9992 11.997 10.9992C11.788 10.9992 11.5843 11.0647 11.4144 11.1865C11.2446 11.3082 11.1171 11.4801 11.05 11.678L8.5 19.194C7.45842 18.6882 6.53956 17.9615 5.80732 17.0645C5.07509 16.1675 4.54707 15.1218 4.26 14H8V11C7.9982 10.2196 7.69235 9.47056 7.14736 8.91194C6.60237 8.35332 5.86114 8.02907 5.081 8.008C5.78553 6.79815 6.79112 5.79119 8 5.085V6H16V5.085C17.2086 5.79121 18.2139 6.7982 18.918 8.008C18.138 8.02933 17.3971 8.35369 16.8523 8.91228C16.3075 9.47088 16.0018 10.2197 16 11V14H19.74C19.4526 15.1216 18.9245 16.1672 18.1923 17.0642C17.4601 17.9611 16.5414 18.6879 15.5 19.194V19.194ZM22 12H18V11C18 10.7348 18.1054 10.4804 18.2929 10.2929C18.4804 10.1054 18.7348 10 19 10H21C21.2652 10 21.5196 10.1054 21.7071 10.2929C21.8946 10.4804 22 10.7348 22 11V12Z" fill="#374957"/>
</g>
<defs>
<clipPath id="clip0_403_3556">
<rect width="24" height="24" fill="white"/>
</clipPath>
</defs>
</svg>
