<svg width="24" height="24" viewBox="0 0 24 24" fill="none" xmlns="http://www.w3.org/2000/svg">
<g clip-path="url(#clip0_403_3582)">
<path d="M11.3623 14H13.3783L12.6263 20H10.6103L11.3623 14ZM21.9273 7.653L19.8833 24H4.11732L2.05632 7.556C1.97845 7.12337 1.99594 6.67897 2.10755 6.2538C2.21916 5.82863 2.42222 5.43293 2.70254 5.09434C2.98286 4.75574 3.3337 4.4824 3.73056 4.29339C4.12743 4.10438 4.56076 4.00425 5.00032 4H12.6153L13.1153 0H20.0003V2H14.8833L14.6323 4H19.0003C19.4497 4.00001 19.8934 4.101 20.2986 4.2955C20.7037 4.49 21.06 4.77305 21.3411 5.12373C21.6222 5.47441 21.8209 5.88376 21.9225 6.32154C22.0242 6.75933 22.0261 7.21435 21.9283 7.653H21.9273ZM14.3813 6L13.8813 10H19.6233L19.9603 7.312C20.0051 7.15263 20.0123 6.98502 19.9812 6.8224C19.9502 6.65979 19.8817 6.50662 19.7813 6.375C19.6876 6.25793 19.5687 6.16344 19.4335 6.09853C19.2983 6.03362 19.1503 5.99994 19.0003 6H14.3813ZM4.02432 7.216L4.37432 10H11.8643L12.3643 6H5.00032C4.85105 6.00116 4.70391 6.03553 4.56956 6.10061C4.43522 6.16569 4.31704 6.25985 4.22361 6.37627C4.13017 6.49268 4.06381 6.62844 4.02934 6.77368C3.99487 6.91892 3.99315 7.07001 4.02432 7.216ZM18.1173 22L19.3713 12H4.62532L5.88232 22H18.1173Z" fill="#374957"/>
</g>
<defs>
<clipPath id="clip0_403_3582">
<rect width="24" height="24" fill="white"/>
</clipPath>
</defs>
</svg>
