<svg width="24" height="24" viewBox="0 0 24 24" fill="none" xmlns="http://www.w3.org/2000/svg">
<g clip-path="url(#clip0_403_3777)">
<path d="M22.407 16.4619C20.187 14.2409 16.359 13.0129 12 12.9999C7.635 13.0209 3.746 14.3139 1.6 16.4619C1.09562 16.9558 0.694436 17.545 0.419762 18.1953C0.145087 18.8456 0.00240262 19.544 0 20.2499L0 23.9999H8V19.7439C9.25629 19.2553 10.592 19.0031 11.94 18.9999H12C13.3673 19.0149 14.7213 19.2705 16 19.7549V23.9999H24V20.2509C23.9986 19.5453 23.857 18.847 23.5836 18.1966C23.3101 17.5462 22.9102 16.9565 22.407 16.4619ZM22 21.9999H18V18.4169L17.393 18.1569C15.6925 17.4146 13.8603 17.0212 12.005 16.9999C10.1383 16.997 8.29255 17.3939 6.592 18.1639L6 18.4289V21.9999H2V20.2489C2.00222 19.8064 2.09239 19.3687 2.26526 18.9613C2.43814 18.5539 2.69027 18.185 3.007 17.8759C4.765 16.1189 8.212 15.0179 12.007 14.9999C15.802 14.9819 19.177 16.0569 20.995 17.8759C21.3115 18.1853 21.5633 18.5545 21.7359 18.962C21.9084 19.3696 21.9982 19.8073 22 20.2499V21.9999ZM5 7.99991H3V3.47091C3.0045 2.81192 3.27025 2.18163 3.73895 1.71836C4.20765 1.2551 4.841 0.996713 5.5 0.999907H10V2.99991H6.439L12.345 8.92591C12.3656 8.94661 12.39 8.96302 12.417 8.97418C12.4439 8.98534 12.4728 8.99102 12.502 8.99091V8.99091C12.5309 8.99113 12.5597 8.98559 12.5864 8.9746C12.6132 8.96361 12.6375 8.9474 12.658 8.92691L19.542 2.04291L20.956 3.45691L14.072 10.3409C13.8665 10.5479 13.6218 10.712 13.3523 10.8236C13.0828 10.9352 12.7937 10.9921 12.502 10.9909V10.9909C12.2098 10.9916 11.9203 10.9342 11.6505 10.8221C11.3806 10.71 11.1357 10.5454 10.93 10.3379L5 4.38891V7.99991Z" fill="#374957"/>
</g>
<defs>
<clipPath id="clip0_403_3777">
<rect width="24" height="24" fill="white"/>
</clipPath>
</defs>
</svg>
