<svg width="32" height="32" viewBox="0 0 32 32" fill="none" xmlns="http://www.w3.org/2000/svg">
<g clip-path="url(#clip0_403_3622)" filter="url(#filter0_d_403_3622)">
<path d="M10.983 24.0071C9.59675 24.0104 8.24073 23.602 7.08685 22.8337C5.93298 22.0653 5.03321 20.9717 4.50162 19.6914C3.97003 18.4111 3.83055 17.0018 4.10087 15.6421C4.37119 14.2825 5.03913 13.0337 6.02002 12.0541L16.62 1.46911C17.5582 0.528784 18.8315 -0.000327564 20.1599 -0.00182786C21.4882 -0.00332815 22.7627 0.522906 23.703 1.46111C24.6433 2.39931 25.1725 3.67263 25.174 5.00095C25.1755 6.32927 24.6492 7.60378 23.711 8.54411L13.11 19.1281C12.5367 19.6745 11.775 19.9793 10.983 19.9793C10.191 19.9793 9.42936 19.6745 8.85602 19.1281C8.57709 18.8495 8.35582 18.5186 8.20484 18.1544C8.05387 17.7902 7.97616 17.3999 7.97616 17.0056C7.97616 16.6114 8.05387 16.221 8.20484 15.8568C8.35582 15.4926 8.57709 15.1617 8.85602 14.8831L18.75 5.00711L20.168 6.42211L10.274 16.3001C10.0866 16.4876 9.98124 16.7419 9.98124 17.0071C9.98124 17.2723 10.0866 17.5266 10.274 17.7141C10.4651 17.8964 10.719 17.9981 10.983 17.9981C11.2471 17.9981 11.501 17.8964 11.692 17.7141L22.3 7.12911C22.8629 6.56486 23.1787 5.8001 23.1777 5.00307C23.1768 4.20604 22.8593 3.44203 22.295 2.87911C21.7308 2.31619 20.966 2.00047 20.169 2.00141C19.372 2.00234 18.6079 2.31986 18.045 2.88411L7.43802 13.4681C6.49969 14.4083 5.97327 15.6827 5.97458 17.0111C5.9759 18.3394 6.50483 19.6128 7.44502 20.5511C8.38521 21.4894 9.65965 22.0159 10.988 22.0145C12.3163 22.0132 13.5897 21.4843 14.528 20.5441L26.549 8.54411L27.967 9.95911L15.946 21.9591C15.2943 22.6103 14.5203 23.1264 13.6687 23.4778C12.817 23.8293 11.9043 24.0091 10.983 24.0071V24.0071Z" fill="#374957"/>
</g>
<defs>
<filter id="filter0_d_403_3622" x="0" y="0" width="32" height="32" filterUnits="userSpaceOnUse" color-interpolation-filters="sRGB">
<feFlood flood-opacity="0" result="BackgroundImageFix"/>
<feColorMatrix in="SourceAlpha" type="matrix" values="0 0 0 0 0 0 0 0 0 0 0 0 0 0 0 0 0 0 127 0" result="hardAlpha"/>
<feOffset dy="4"/>
<feGaussianBlur stdDeviation="2"/>
<feComposite in2="hardAlpha" operator="out"/>
<feColorMatrix type="matrix" values="0 0 0 0 0 0 0 0 0 0 0 0 0 0 0 0 0 0 0.25 0"/>
<feBlend mode="normal" in2="BackgroundImageFix" result="effect1_dropShadow_403_3622"/>
<feBlend mode="normal" in="SourceGraphic" in2="effect1_dropShadow_403_3622" result="shape"/>
</filter>
<clipPath id="clip0_403_3622">
<rect width="24" height="24" fill="white" transform="translate(4)"/>
</clipPath>
</defs>
</svg>
