<svg width="24" height="24" viewBox="0 0 24 24" fill="none" xmlns="http://www.w3.org/2000/svg">
<g clip-path="url(#clip0_403_3561)">
<path d="M24 3C24 2.20435 23.6839 1.44129 23.1213 0.87868C22.5587 0.31607 21.7956 0 21 0L3 0C2.20435 0 1.44129 0.31607 0.87868 0.87868C0.31607 1.44129 0 2.20435 0 3L0 6C0.00260366 6.7404 0.280648 7.45333 0.78 8C0.280648 8.54667 0.00260366 9.2596 0 10L0 13C0.00260366 13.7404 0.280648 14.4533 0.78 15C0.280648 15.5467 0.00260366 16.2596 0 17L0 23H24V17C23.9974 16.2596 23.7194 15.5467 23.22 15C23.7194 14.4533 23.9974 13.7404 24 13V10C23.9974 9.2596 23.7194 8.54667 23.22 8C23.7194 7.45333 23.9974 6.7404 24 6V3ZM2 3C2 2.73478 2.10536 2.48043 2.29289 2.29289C2.48043 2.10536 2.73478 2 3 2H5V4H7V2H9V4H11V2H21C21.2652 2 21.5196 2.10536 21.7071 2.29289C21.8946 2.48043 22 2.73478 22 3V6C22 6.26522 21.8946 6.51957 21.7071 6.70711C21.5196 6.89464 21.2652 7 21 7H3C2.73478 7 2.48043 6.89464 2.29289 6.70711C2.10536 6.51957 2 6.26522 2 6V3ZM22 10V13C22 13.2652 21.8946 13.5196 21.7071 13.7071C21.5196 13.8946 21.2652 14 21 14H3C2.73478 14 2.48043 13.8946 2.29289 13.7071C2.10536 13.5196 2 13.2652 2 13V10C2 9.73478 2.10536 9.48043 2.29289 9.29289C2.48043 9.10536 2.73478 9 3 9H5V11H7V9H9V11H11V9H21C21.2652 9 21.5196 9.10536 21.7071 9.29289C21.8946 9.48043 22 9.73478 22 10ZM22 21H2V17C2 16.7348 2.10536 16.4804 2.29289 16.2929C2.48043 16.1054 2.73478 16 3 16H5V18H7V16H9V18H11V16H21C21.2652 16 21.5196 16.1054 21.7071 16.2929C21.8946 16.4804 22 16.7348 22 17V21Z" fill="#374957"/>
</g>
<defs>
<clipPath id="clip0_403_3561">
<rect width="24" height="24" fill="white"/>
</clipPath>
</defs>
</svg>
