<svg width="32" height="32" viewBox="0 0 32 32" fill="none" xmlns="http://www.w3.org/2000/svg">
<g clip-path="url(#clip0_403_3778)" filter="url(#filter0_d_403_3778)">
<path d="M26.9159 0.690913C26.5768 0.409244 26.1796 0.205995 25.7528 0.0957019C25.326 -0.0145911 24.8801 -0.0292025 24.4469 0.0529129L12.4479 2.29991C11.7596 2.42876 11.1381 2.79434 10.691 3.3333C10.2439 3.87226 9.99942 4.55065 9.99994 5.25091V16.5559C9.39459 16.196 8.70419 16.0041 7.99994 15.9999C7.20882 15.9999 6.43546 16.2345 5.77766 16.674C5.11986 17.1136 4.60717 17.7383 4.30442 18.4692C4.00167 19.2001 3.92246 20.0043 4.0768 20.7803C4.23114 21.5562 4.6121 22.2689 5.17151 22.8283C5.73092 23.3877 6.44366 23.7687 7.21958 23.9231C7.9955 24.0774 8.79977 23.9982 9.53068 23.6954C10.2616 23.3927 10.8863 22.88 11.3258 22.2222C11.7653 21.5644 11.9999 20.791 11.9999 19.9999V9.41991L25.9999 6.79991V13.5609C25.3951 13.1992 24.7047 13.0056 23.9999 12.9999C23.2088 12.9999 22.4355 13.2345 21.7777 13.674C21.1199 14.1136 20.6072 14.7383 20.3044 15.4692C20.0017 16.2001 19.9225 17.0043 20.0768 17.7803C20.2311 18.5562 20.6121 19.2689 21.1715 19.8283C21.7309 20.3877 22.4437 20.7687 23.2196 20.9231C23.9955 21.0774 24.7998 20.9982 25.5307 20.6954C26.2616 20.3927 26.8863 19.88 27.3258 19.2222C27.7653 18.5644 27.9999 17.791 27.9999 16.9999V2.99991C28 2.55903 27.9029 2.12355 27.7156 1.72447C27.5282 1.32538 27.2552 0.972488 26.9159 0.690913V0.690913ZM7.99994 21.9999C7.60438 21.9999 7.2177 21.8826 6.8888 21.6629C6.5599 21.4431 6.30356 21.1307 6.15218 20.7653C6.00081 20.3998 5.9612 19.9977 6.03837 19.6097C6.11554 19.2218 6.30602 18.8654 6.58573 18.5857C6.86543 18.306 7.2218 18.1155 7.60976 18.0383C7.99772 17.9612 8.39986 18.0008 8.76531 18.1522C9.13076 18.3035 9.44312 18.5599 9.66288 18.8888C9.88264 19.2177 9.99994 19.6043 9.99994 19.9999C9.99994 20.5303 9.78923 21.0391 9.41416 21.4141C9.03908 21.7892 8.53037 21.9999 7.99994 21.9999ZM11.9999 7.38591V5.25091C11.9999 5.01775 12.0813 4.79189 12.2301 4.61239C12.3789 4.4329 12.5858 4.31105 12.8149 4.26791L24.8149 2.01791C24.9593 1.99073 25.108 1.9957 25.2502 2.03248C25.3925 2.06925 25.5249 2.13692 25.638 2.23068C25.7512 2.32443 25.8422 2.44197 25.9048 2.57492C25.9673 2.70787 25.9998 2.85298 25.9999 2.99991V4.75991L11.9999 7.38591ZM23.9999 18.9999C23.6044 18.9999 23.2177 18.8826 22.8888 18.6629C22.5599 18.4431 22.3036 18.1307 22.1522 17.7653C22.0008 17.3998 21.9612 16.9977 22.0384 16.6097C22.1155 16.2218 22.306 15.8654 22.5857 15.5857C22.8654 15.306 23.2218 15.1155 23.6098 15.0383C23.9977 14.9612 24.3999 15.0008 24.7653 15.1522C25.1308 15.3035 25.4431 15.5599 25.6629 15.8888C25.8826 16.2177 25.9999 16.6043 25.9999 16.9999C25.9999 17.5303 25.7892 18.0391 25.4142 18.4141C25.0391 18.7892 24.5304 18.9999 23.9999 18.9999Z" fill="#374957"/>
</g>
<defs>
<filter id="filter0_d_403_3778" x="0" y="0" width="32" height="32" filterUnits="userSpaceOnUse" color-interpolation-filters="sRGB">
<feFlood flood-opacity="0" result="BackgroundImageFix"/>
<feColorMatrix in="SourceAlpha" type="matrix" values="0 0 0 0 0 0 0 0 0 0 0 0 0 0 0 0 0 0 127 0" result="hardAlpha"/>
<feOffset dy="4"/>
<feGaussianBlur stdDeviation="2"/>
<feComposite in2="hardAlpha" operator="out"/>
<feColorMatrix type="matrix" values="0 0 0 0 0 0 0 0 0 0 0 0 0 0 0 0 0 0 0.25 0"/>
<feBlend mode="normal" in2="BackgroundImageFix" result="effect1_dropShadow_403_3778"/>
<feBlend mode="normal" in="SourceGraphic" in2="effect1_dropShadow_403_3778" result="shape"/>
</filter>
<clipPath id="clip0_403_3778">
<rect width="24" height="24" fill="white" transform="translate(4)"/>
</clipPath>
</defs>
</svg>
