<svg width="24" height="24" viewBox="0 0 24 24" fill="none" xmlns="http://www.w3.org/2000/svg">
<g clip-path="url(#clip0_403_3587)">
<path d="M21.511 2.49016C19.9159 0.898002 17.7542 0.00378418 15.5005 0.00378418C13.2468 0.00378418 11.0851 0.898002 9.49 2.49016C6.318 5.66116 6.012 13.6282 6 13.9662L5.986 14.4002L7.086 15.5002L2.807 19.7792C2.6659 19.5211 2.45202 19.3101 2.19197 19.1726C1.93193 19.0351 1.6372 18.9771 1.34444 19.0059C1.05169 19.0346 0.773842 19.1487 0.545462 19.3341C0.317082 19.5195 0.148253 19.768 0.0599789 20.0486C-0.028295 20.3292 -0.0321173 20.6295 0.0489874 20.9123C0.130092 21.195 0.292544 21.4477 0.516132 21.6388C0.73972 21.83 1.01458 21.9512 1.3065 21.9873C1.59843 22.0235 1.89454 21.973 2.158 21.8422C2.02717 22.1056 1.97669 22.4017 2.01284 22.6937C2.04899 22.9856 2.17018 23.2604 2.36132 23.484C2.55247 23.7076 2.80514 23.8701 3.08789 23.9512C3.37065 24.0323 3.67101 24.0285 3.95161 23.9402C4.2322 23.8519 4.48066 23.6831 4.66605 23.4547C4.85144 23.2263 4.9656 22.9485 4.99431 22.6557C5.02302 22.363 4.96502 22.0682 4.82752 21.8082C4.69003 21.5481 4.47911 21.3343 4.221 21.1932L8.5 16.9142L9.6 18.0142L10.034 18.0002C10.372 17.9882 18.334 17.6822 21.511 14.5102C23.1026 12.915 23.9965 10.7536 23.9965 8.50016C23.9965 6.24675 23.1026 4.08535 21.511 2.49016ZM20.1 13.1002C18.064 15.1352 12.765 15.8442 10.4 15.9842L8.02 13.6052C8.16 11.2382 8.869 5.93916 10.904 3.90516C12.1233 2.68569 13.7772 2.00055 15.5016 2.00046C17.2261 2.00037 18.88 2.68533 20.0995 3.90466C21.319 5.12399 22.0041 6.77782 22.0042 8.50231C22.0043 10.2268 21.3193 11.8807 20.1 13.1002Z" fill="#374957"/>
</g>
<defs>
<clipPath id="clip0_403_3587">
<rect width="24" height="24" fill="white"/>
</clipPath>
</defs>
</svg>
