<svg width="24" height="24" viewBox="0 0 24 24" fill="none" xmlns="http://www.w3.org/2000/svg">
<g clip-path="url(#clip0_403_3298)">
<path d="M19.9999 7.99933C20.0011 6.45949 19.5579 4.95201 18.7234 3.65786C17.889 2.36371 16.6988 1.33788 15.2957 0.703506C13.8926 0.0691322 12.3362 -0.146826 10.8134 0.0815544C9.29055 0.309935 7.866 0.972948 6.71072 1.99101C5.55544 3.00907 4.71852 4.33891 4.30042 5.82091C3.88232 7.30291 3.90081 8.87408 4.35367 10.3458C4.80653 11.8176 5.67451 13.1274 6.85343 14.118C8.03235 15.1085 9.47211 15.7379 10.9999 15.9303V18.9993H7.99988V20.9993H10.9999V23.9993H12.9999V20.9993H15.9999V18.9993H12.9999V15.9303C14.9314 15.6853 16.7074 14.7449 17.9958 13.2852C19.2842 11.8254 19.9966 9.94631 19.9999 7.99933ZM5.99988 7.99933C5.99988 6.81264 6.35177 5.65261 7.01106 4.66591C7.67035 3.67922 8.60742 2.91018 9.70377 2.45605C10.8001 2.00193 12.0065 1.88311 13.1704 2.11462C14.3343 2.34613 15.4034 2.91758 16.2425 3.75669C17.0816 4.59581 17.6531 5.6649 17.8846 6.82879C18.1161 7.99268 17.9973 9.19908 17.5432 10.2954C17.089 11.3918 16.32 12.3289 15.3333 12.9881C14.3466 13.6474 13.1866 13.9993 11.9999 13.9993C10.4091 13.9977 8.88386 13.3651 7.75899 12.2402C6.63411 11.1153 6.00146 9.59014 5.99988 7.99933Z" fill="#374957"/>
</g>
<defs>
<clipPath id="clip0_403_3298">
<rect width="24" height="24" fill="white"/>
</clipPath>
</defs>
</svg>
