<svg width="28" height="32" viewBox="0 0 28 32" fill="none" xmlns="http://www.w3.org/2000/svg">
<g filter="url(#filter0_d_403_3430)">
<path d="M14.0002 0.00695801C12.0217 0.00718134 10.0876 0.594328 8.4429 1.6941C6.79816 2.79386 5.51662 4.35682 4.76046 6.18518C4.0043 8.01353 3.80751 10.0251 4.19499 11.9654C4.58247 13.9056 5.5368 15.6873 6.93722 17.085L14.0002 23.993L21.0712 17.077C22.4694 15.6784 23.4215 13.8967 23.8071 11.957C24.1927 10.0174 23.9946 8.00699 23.2378 6.17995C22.481 4.35291 21.1994 2.79129 19.5552 1.69253C17.9109 0.593758 15.9778 0.00718254 14.0002 0.00695801V0.00695801ZM19.6652 15.655L14.0002 21.2L8.34322 15.663C7.22478 14.5445 6.46301 13.1195 6.15419 11.5682C5.84536 10.0169 6.00333 8.40885 6.60815 6.9473C7.21296 5.48575 8.23746 4.23629 9.55218 3.35683C10.8669 2.47736 12.4128 2.00737 13.9946 2.00626C15.5763 2.00514 17.1229 2.47294 18.4389 3.35055C19.7548 4.22815 20.7811 5.47616 21.388 6.93686C21.9948 8.39755 22.1551 10.0054 21.8485 11.5571C21.5418 13.1089 20.7821 14.5349 19.6652 15.655V15.655ZM18.0182 7.42296L15.5182 5.51296C15.0819 5.18116 14.5489 5.00151 14.0007 5.00151C13.4526 5.00151 12.9195 5.18116 12.4832 5.51296L9.98322 7.42296C9.67847 7.65684 9.4314 7.95747 9.26099 8.30176C9.09058 8.64604 9.00137 9.02481 9.00022 9.40896V14H19.0002V9.40896C18.999 9.02492 18.9099 8.64625 18.7397 8.302C18.5695 7.95775 18.3227 7.65704 18.0182 7.42296V7.42296ZM17.0002 12H15.0002V9.99996H13.0002V12H11.0002V9.40896C11.0002 9.33134 11.0183 9.25478 11.053 9.18535C11.0877 9.11592 11.1381 9.05553 11.2002 9.00896L13.7002 7.09996C13.7875 7.03314 13.8943 6.99693 14.0042 6.99693C14.1141 6.99693 14.221 7.03314 14.3082 7.09996L16.8082 9.00996C16.8703 9.05653 16.9207 9.11692 16.9554 9.18635C16.9901 9.25578 17.0082 9.33234 17.0082 9.40996L17.0002 12Z" fill="#374957"/>
</g>
<defs>
<filter id="filter0_d_403_3430" x="-2" y="0" width="32" height="32" filterUnits="userSpaceOnUse" color-interpolation-filters="sRGB">
<feFlood flood-opacity="0" result="BackgroundImageFix"/>
<feColorMatrix in="SourceAlpha" type="matrix" values="0 0 0 0 0 0 0 0 0 0 0 0 0 0 0 0 0 0 127 0" result="hardAlpha"/>
<feOffset dy="4"/>
<feGaussianBlur stdDeviation="2"/>
<feComposite in2="hardAlpha" operator="out"/>
<feColorMatrix type="matrix" values="0 0 0 0 0 0 0 0 0 0 0 0 0 0 0 0 0 0 0.25 0"/>
<feBlend mode="normal" in2="BackgroundImageFix" result="effect1_dropShadow_403_3430"/>
<feBlend mode="normal" in="SourceGraphic" in2="effect1_dropShadow_403_3430" result="shape"/>
</filter>
</defs>
</svg>
