<svg width="32" height="32" viewBox="0 0 32 32" fill="none" xmlns="http://www.w3.org/2000/svg">
<g clip-path="url(#clip0_403_3321)" filter="url(#filter0_d_403_3321)">
<path d="M25.9999 1.99994V5.36194C24.8523 3.63374 23.2764 2.23255 21.4258 1.2951C19.5752 0.35764 17.5132 -0.084055 15.441 0.0131113C13.3687 0.110278 11.3571 0.742987 9.60236 1.8495C7.84761 2.95601 6.40968 4.49852 5.42889 6.32652C4.4481 8.15451 3.95795 10.2055 4.00628 12.2795C4.0546 14.3534 4.63975 16.3794 5.70461 18.1597C6.76948 19.94 8.27769 21.4139 10.0821 22.4375C11.8865 23.4611 13.9254 23.9994 15.9999 23.9999V21.9999C14.2447 21.9991 12.5207 21.5363 11.001 20.6581C9.48137 19.7799 8.21962 18.5172 7.34258 16.9969C6.46554 15.4765 6.0041 13.7521 6.00462 11.997C6.00514 10.2418 6.4676 8.5177 7.34555 6.99789C8.22349 5.47808 9.48598 4.21611 11.0062 3.3388C12.5263 2.46149 14.2506 1.99973 16.0058 1.99994C17.761 2.00015 19.4852 2.46231 21.0051 3.33998C22.5251 4.21766 23.7873 5.47992 24.6649 6.99994H20.9999V8.99994H25.9999C26.5303 8.99994 27.039 8.78923 27.4141 8.41416C27.7892 8.03908 27.9999 7.53037 27.9999 6.99994V1.99994H25.9999Z" fill="#374957"/>
<path d="M17.0003 13H11.0003V11H15.0003V6H17.0003V13Z" fill="#374957"/>
<path d="M25 24C24.2044 24 23.4413 23.6839 22.8787 23.1213C22.3161 22.5587 22 21.7956 22 21V18C22 17.2044 22.3161 16.4413 22.8787 15.8787C23.4413 15.3161 24.2044 15 25 15C25.7956 15 26.5587 15.3161 27.1213 15.8787C27.6839 16.4413 28 17.2044 28 18V21C28 21.7956 27.6839 22.5587 27.1213 23.1213C26.5587 23.6839 25.7956 24 25 24ZM25 17C24.7348 17 24.4804 17.1054 24.2929 17.2929C24.1054 17.4804 24 17.7348 24 18V21C24 21.2652 24.1054 21.5196 24.2929 21.7071C24.4804 21.8946 24.7348 22 25 22C25.2652 22 25.5196 21.8946 25.7071 21.7071C25.8946 21.5196 26 21.2652 26 21V18C26 17.7348 25.8946 17.4804 25.7071 17.2929C25.5196 17.1054 25.2652 17 25 17Z" fill="#374957"/>
<path d="M20.9997 24.0006H18.9997V18.4146L17.7067 19.7076L16.2927 18.2936L19.2927 15.2936C19.4326 15.1538 19.6107 15.0586 19.8047 15.0201C19.9986 14.9815 20.1997 15.0013 20.3824 15.077C20.5651 15.1526 20.7212 15.2808 20.8311 15.4452C20.941 15.6096 20.9997 15.8029 20.9997 16.0006V24.0006Z" fill="#374957"/>
</g>
<defs>
<filter id="filter0_d_403_3321" x="0" y="0" width="32" height="32" filterUnits="userSpaceOnUse" color-interpolation-filters="sRGB">
<feFlood flood-opacity="0" result="BackgroundImageFix"/>
<feColorMatrix in="SourceAlpha" type="matrix" values="0 0 0 0 0 0 0 0 0 0 0 0 0 0 0 0 0 0 127 0" result="hardAlpha"/>
<feOffset dy="4"/>
<feGaussianBlur stdDeviation="2"/>
<feComposite in2="hardAlpha" operator="out"/>
<feColorMatrix type="matrix" values="0 0 0 0 0 0 0 0 0 0 0 0 0 0 0 0 0 0 0.25 0"/>
<feBlend mode="normal" in2="BackgroundImageFix" result="effect1_dropShadow_403_3321"/>
<feBlend mode="normal" in="SourceGraphic" in2="effect1_dropShadow_403_3321" result="shape"/>
</filter>
<clipPath id="clip0_403_3321">
<rect width="24" height="24" fill="white" transform="translate(4)"/>
</clipPath>
</defs>
</svg>
