<svg width="24" height="24" viewBox="0 0 24 24" fill="none" xmlns="http://www.w3.org/2000/svg">
<g clip-path="url(#clip0_403_3411)">
<path d="M21.0004 24.0003H16.0004V22.0003H21.0004C21.2656 22.0003 21.5199 21.8949 21.7075 21.7074C21.895 21.5199 22.0004 21.2655 22.0004 21.0003V16.0003H24.0004V21.0003C24.0004 21.7959 23.6843 22.559 23.1217 23.1216C22.5591 23.6842 21.796 24.0003 21.0004 24.0003Z" fill="#374957"/>
<path d="M2 8H0V3C0 2.20435 0.31607 1.44129 0.87868 0.87868C1.44129 0.31607 2.20435 0 3 0L8 0V2H3C2.73478 2 2.48043 2.10536 2.29289 2.29289C2.10536 2.48043 2 2.73478 2 3V8Z" fill="#374957"/>
<path d="M8 24.0003H3C2.20435 24.0003 1.44129 23.6842 0.87868 23.1216C0.31607 22.559 0 21.7959 0 21.0003L0 16.0003H2V21.0003C2 21.2655 2.10536 21.5199 2.29289 21.7074C2.48043 21.8949 2.73478 22.0003 3 22.0003H8V24.0003Z" fill="#374957"/>
<path d="M24.0004 8H22.0004V3C22.0004 2.73478 21.895 2.48043 21.7075 2.29289C21.5199 2.10536 21.2656 2 21.0004 2H16.0004V0H21.0004C21.796 0 22.5591 0.31607 23.1217 0.87868C23.6843 1.44129 24.0004 2.20435 24.0004 3V8Z" fill="#374957"/>
<path d="M11.9996 10.9999C11.2085 10.9999 10.4352 10.7653 9.77736 10.3258C9.11956 9.88629 8.60687 9.26158 8.30412 8.53067C8.00137 7.79977 7.92215 6.9955 8.07649 6.21958C8.23084 5.44366 8.6118 4.73092 9.17121 4.17151C9.73062 3.6121 10.4434 3.23114 11.2193 3.0768C11.9952 2.92246 12.7995 3.00167 13.5304 3.30442C14.2613 3.60717 14.886 4.11986 15.3255 4.77766C15.765 5.43546 15.9996 6.20882 15.9996 6.99994C15.9996 8.06081 15.5782 9.07822 14.8281 9.82837C14.0779 10.5785 13.0605 10.9999 11.9996 10.9999ZM11.9996 4.99994C11.6041 4.99994 11.2174 5.11724 10.8885 5.337C10.5596 5.55676 10.3033 5.86912 10.1519 6.23457C10.0005 6.60003 9.96089 7.00216 10.0381 7.39012C10.1152 7.77808 10.3057 8.13445 10.5854 8.41415C10.8651 8.69386 11.2215 8.88434 11.6095 8.96151C11.9974 9.03868 12.3996 8.99908 12.765 8.8477C13.1305 8.69632 13.4428 8.43998 13.6626 8.11108C13.8823 7.78218 13.9996 7.3955 13.9996 6.99994C13.9996 6.46951 13.7889 5.9608 13.4138 5.58573C13.0388 5.21065 12.5301 4.99994 11.9996 4.99994V4.99994Z" fill="#374957"/>
<path d="M18.9996 20.0003H16.9996V16.0003C16.9996 15.7351 16.8943 15.4807 16.7067 15.2932C16.5192 15.1057 16.2649 15.0003 15.9996 15.0003H7.99963C7.73442 15.0003 7.48006 15.1057 7.29253 15.2932C7.10499 15.4807 6.99963 15.7351 6.99963 16.0003V20.0003H4.99963V16.0003C4.99963 15.2047 5.3157 14.4416 5.87831 13.879C6.44092 13.3164 7.20398 13.0003 7.99963 13.0003H15.9996C16.7953 13.0003 17.5583 13.3164 18.121 13.879C18.6836 14.4416 18.9996 15.2047 18.9996 16.0003V20.0003Z" fill="#374957"/>
</g>
<defs>
<clipPath id="clip0_403_3411">
<rect width="24" height="24" fill="white"/>
</clipPath>
</defs>
</svg>
