<svg width="24" height="24" viewBox="0 0 24 24" fill="none" xmlns="http://www.w3.org/2000/svg">
<g clip-path="url(#clip0_403_3347)">
<path d="M12 0C9.62663 0 7.30655 0.703788 5.33316 2.02236C3.35977 3.34094 1.8217 5.21509 0.913451 7.4078C0.00519943 9.60051 -0.232441 12.0133 0.230582 14.3411C0.693605 16.6689 1.83649 18.8071 3.51472 20.4853C5.19295 22.1635 7.33115 23.3064 9.65892 23.7694C11.9867 24.2324 14.3995 23.9948 16.5922 23.0866C18.7849 22.1783 20.6591 20.6402 21.9776 18.6668C23.2962 16.6935 24 14.3734 24 12C23.9966 8.81846 22.7312 5.76821 20.4815 3.51852C18.2318 1.26883 15.1815 0.00344108 12 0V0ZM12 15C5.98801 15 2.00001 13.194 2.00001 12C2.00001 10.806 5.98801 9 12 9C18.012 9 22 10.806 22 12C22 13.194 18.012 15 12 15ZM12 2C14.0941 2.00345 16.1345 2.66352 17.8338 3.8873C19.5331 5.11108 20.8059 6.83696 21.473 8.822C18.4889 7.52174 15.2535 6.89947 12 7C8.74647 6.89947 5.51112 7.52174 2.52701 8.822C3.19409 6.83696 4.46687 5.11108 6.16621 3.8873C7.86555 2.66352 9.90588 2.00345 12 2V2ZM12 22C9.90588 21.9966 7.86555 21.3365 6.16621 20.1127C4.46687 18.8889 3.19409 17.163 2.52701 15.178C5.51112 16.4783 8.74647 17.1005 12 17C15.2535 17.1005 18.4889 16.4783 21.473 15.178C20.8059 17.163 19.5331 18.8889 17.8338 20.1127C16.1345 21.3365 14.0941 21.9966 12 22V22Z" fill="#374957"/>
</g>
<defs>
<clipPath id="clip0_403_3347">
<rect width="24" height="24" fill="white"/>
</clipPath>
</defs>
</svg>
