<svg width="24" height="24" viewBox="0 0 24 24" fill="none" xmlns="http://www.w3.org/2000/svg">
<path d="M16.9003 4.02044C16.663 2.89664 16.0467 1.88854 15.1546 1.16511C14.2625 0.441677 13.1488 0.046875 12.0003 0.046875C10.8517 0.046875 9.73805 0.441677 8.84594 1.16511C7.95384 1.88854 7.33752 2.89664 7.10028 4.02044C6.17453 4.09408 5.28243 4.4006 4.50691 4.91149C3.7314 5.42239 3.09765 6.12107 2.66459 6.94259C2.23153 7.76411 2.01322 8.68179 2.02995 9.61031C2.04668 10.5388 2.2979 11.4481 2.76028 12.2534L12.0003 23.9904L21.2403 12.2534C21.7029 11.4481 21.9544 10.5388 21.9712 9.61021C21.9881 8.68159 21.7698 7.76379 21.3367 6.94218C20.9036 6.12058 20.2697 5.42186 19.4941 4.91102C18.7184 4.40018 17.8261 4.09382 16.9003 4.02044V4.02044ZM20.0003 9.50044C19.9988 9.66792 19.9848 9.83505 19.9583 10.0004H13.0453C12.5093 5.07544 19.8003 4.54944 20.0003 9.50044ZM12.0003 2.00044C12.6632 2.00297 13.3066 2.22503 13.83 2.63192C14.3534 3.0388 14.7273 3.6076 14.8933 4.24944C13.7238 4.60706 12.7063 5.3429 12.0003 6.34144C11.2943 5.3429 10.2767 4.60706 9.10728 4.24944C9.27323 3.6076 9.64711 3.0388 10.1705 2.63192C10.6939 2.22503 11.3373 2.00297 12.0003 2.00044V2.00044ZM7.50028 6.00044C8.00139 6.00174 8.49638 6.11063 8.95177 6.31975C9.40717 6.52888 9.81234 6.83335 10.1399 7.21258C10.4675 7.59182 10.7098 8.03697 10.8504 8.51793C10.9911 8.9989 11.0269 9.50446 10.9553 10.0004H4.04227C3.97065 9.50421 4.00647 8.99839 4.14732 8.51721C4.28816 8.03604 4.53074 7.59074 4.85863 7.21145C5.18652 6.83217 5.59207 6.52776 6.04783 6.31882C6.50358 6.10989 6.99891 6.00131 7.50028 6.00044V6.00044ZM5.10028 12.0004H18.9103L12.0003 20.7604L5.10028 12.0004Z" fill="#374957"/>
</svg>
