<svg width="28" height="32" viewBox="0 0 28 32" fill="none" xmlns="http://www.w3.org/2000/svg">
<g filter="url(#filter0_d_403_3453)">
<path d="M18.9003 4.02044C18.663 2.89664 18.0467 1.88854 17.1546 1.16511C16.2625 0.441677 15.1488 0.046875 14.0003 0.046875C12.8517 0.046875 11.738 0.441677 10.8459 1.16511C9.95384 1.88854 9.33752 2.89664 9.10028 4.02044C8.17453 4.09408 7.28243 4.4006 6.50691 4.91149C5.7314 5.42239 5.09765 6.12107 4.66459 6.94259C4.23153 7.76411 4.01322 8.68179 4.02995 9.61031C4.04668 10.5388 4.2979 11.4481 4.76028 12.2534L14.0003 23.9904L23.2403 12.2534C23.7029 11.4481 23.9544 10.5388 23.9712 9.61021C23.9881 8.68159 23.7698 7.76379 23.3367 6.94218C22.9036 6.12058 22.2697 5.42186 21.4941 4.91102C20.7184 4.40018 19.8261 4.09382 18.9003 4.02044V4.02044ZM22.0003 9.50044C21.9988 9.66792 21.9848 9.83505 21.9583 10.0004H15.0453C14.5093 5.07544 21.8003 4.54944 22.0003 9.50044ZM14.0003 2.00044C14.6632 2.00297 15.3066 2.22503 15.83 2.63192C16.3534 3.0388 16.7273 3.6076 16.8933 4.24944C15.7238 4.60706 14.7063 5.3429 14.0003 6.34144C13.2943 5.3429 12.2767 4.60706 11.1073 4.24944C11.2732 3.6076 11.6471 3.0388 12.1705 2.63192C12.6939 2.22503 13.3373 2.00297 14.0003 2.00044V2.00044ZM9.50028 6.00044C10.0014 6.00174 10.4964 6.11063 10.9518 6.31975C11.4072 6.52888 11.8123 6.83335 12.1399 7.21258C12.4675 7.59182 12.7098 8.03697 12.8504 8.51793C12.9911 8.9989 13.0269 9.50446 12.9553 10.0004H6.04227C5.97065 9.50421 6.00647 8.99839 6.14732 8.51721C6.28816 8.03604 6.53074 7.59074 6.85863 7.21145C7.18652 6.83217 7.59207 6.52776 8.04783 6.31882C8.50358 6.10989 8.99891 6.00131 9.50028 6.00044V6.00044ZM7.10028 12.0004H20.9103L14.0003 20.7604L7.10028 12.0004Z" fill="#374957"/>
</g>
<defs>
<filter id="filter0_d_403_3453" x="-2" y="0" width="32" height="32" filterUnits="userSpaceOnUse" color-interpolation-filters="sRGB">
<feFlood flood-opacity="0" result="BackgroundImageFix"/>
<feColorMatrix in="SourceAlpha" type="matrix" values="0 0 0 0 0 0 0 0 0 0 0 0 0 0 0 0 0 0 127 0" result="hardAlpha"/>
<feOffset dy="4"/>
<feGaussianBlur stdDeviation="2"/>
<feComposite in2="hardAlpha" operator="out"/>
<feColorMatrix type="matrix" values="0 0 0 0 0 0 0 0 0 0 0 0 0 0 0 0 0 0 0.25 0"/>
<feBlend mode="normal" in2="BackgroundImageFix" result="effect1_dropShadow_403_3453"/>
<feBlend mode="normal" in="SourceGraphic" in2="effect1_dropShadow_403_3453" result="shape"/>
</filter>
</defs>
</svg>
