<svg width="24" height="24" viewBox="0 0 24 24" fill="none" xmlns="http://www.w3.org/2000/svg">
<g clip-path="url(#clip0_403_3595)">
<path d="M22 12.184V8H20C20 2.56 17.028 0.291 16.9 0.2L16.637 0H15V1C15.0172 1.2671 14.9772 1.53479 14.8828 1.78524C14.7884 2.03568 14.6416 2.26311 14.4524 2.45237C14.2631 2.64163 14.0357 2.78836 13.7852 2.88279C13.5348 2.97723 13.2671 3.01718 13 3H10C8.56323 2.92373 7.15152 3.39867 6.05302 4.32787C4.95452 5.25707 4.25205 6.57048 4.089 8H2V12.184C1.41709 12.3901 0.912091 12.7712 0.554088 13.2753C0.196084 13.7794 0.00256297 14.3817 0 15L0 24H24V15C23.9974 14.3817 23.8039 13.7794 23.4459 13.2753C23.0879 12.7712 22.5829 12.3901 22 12.184V12.184ZM10 5H13C13.7431 5.00819 14.474 4.81055 15.1117 4.42896C15.7493 4.04736 16.269 3.49672 16.613 2.838C17.5826 4.38061 18.0659 6.17917 18 8H6.131C6.29118 7.11023 6.77518 6.3113 7.48963 5.75732C8.20408 5.20334 9.09838 4.93355 10 5V5ZM20 10V12H4V10H20ZM22 22H2V15C2 14.7348 2.10536 14.4804 2.29289 14.2929C2.48043 14.1054 2.73478 14 3 14H21C21.2652 14 21.5196 14.1054 21.7071 14.2929C21.8946 14.4804 22 14.7348 22 15V22Z" fill="#374957"/>
</g>
<defs>
<clipPath id="clip0_403_3595">
<rect width="24" height="24" fill="white"/>
</clipPath>
</defs>
</svg>
