<svg width="24" height="24" viewBox="0 0 24 24" fill="none" xmlns="http://www.w3.org/2000/svg">
<g clip-path="url(#clip0_403_3466)">
<path d="M14.9998 2.42676V4.52676C17.0014 5.23444 18.6884 6.62696 19.7627 8.4582C20.8369 10.2894 21.2292 12.4415 20.8702 14.534C20.5112 16.6264 19.424 18.5246 17.8008 19.8931C16.1776 21.2615 14.1228 22.012 11.9998 22.012C9.87672 22.012 7.82201 21.2615 6.1988 19.8931C4.5756 18.5246 3.48841 16.6264 3.1294 14.534C2.77038 12.4415 3.16266 10.2894 4.23689 8.4582C5.31112 6.62696 6.99814 5.23444 8.99978 4.52676V2.42676C6.4454 3.15086 4.23911 4.7744 2.78803 6.99781C1.33694 9.22122 0.738999 11.8944 1.10453 14.5242C1.47006 17.1539 2.7744 19.5627 4.77685 21.3061C6.77931 23.0495 9.34475 24.0098 11.9998 24.0098C14.6548 24.0098 17.2203 23.0495 19.2227 21.3061C21.2252 19.5627 22.5295 17.1539 22.895 14.5242C23.2606 11.8944 22.6626 9.22122 21.2115 6.99781C19.7605 4.7744 17.5542 3.15086 14.9998 2.42676V2.42676Z" fill="#374957"/>
<path d="M12.9998 0H10.9998V8H12.9998V0Z" fill="#374957"/>
</g>
<defs>
<clipPath id="clip0_403_3466">
<rect width="24" height="24" fill="white"/>
</clipPath>
</defs>
</svg>
