<svg width="24" height="24" viewBox="0 0 24 24" fill="none" xmlns="http://www.w3.org/2000/svg">
<g clip-path="url(#clip0_403_3527)">
<path d="M23 7.36181e-07C21.7916 -0.0190471 20.6065 0.333467 19.6049 1.00987C18.6034 1.68627 17.8337 2.65394 17.4 3.782C15.6397 3.29692 13.8256 3.0342 12 3C10.1744 3.03429 8.3603 3.297 6.59999 3.782C6.16629 2.65394 5.39662 1.68627 4.39507 1.00987C3.39352 0.333467 2.20841 -0.0190471 0.999993 7.36181e-07H-7.08607e-06V11.929C-0.00221717 12.7171 0.151936 13.4979 0.453528 14.226C0.75512 14.9542 1.19816 15.6153 1.75699 16.171L8.70699 23.121C8.9849 23.4007 9.31557 23.6224 9.67984 23.7733C10.0441 23.9242 10.4347 24.0013 10.829 24H13.172C13.5661 24.0011 13.9565 23.924 14.3206 23.7731C14.6847 23.6222 15.0152 23.4006 15.293 23.121L22.242 16.172C22.8012 15.6162 23.2445 14.955 23.5463 14.2267C23.848 13.4984 24.0023 12.7174 24 11.929V7.36181e-07H23ZM8.99999 20.586L3.17099 14.757C2.79856 14.3864 2.5033 13.9457 2.3023 13.4603C2.1013 12.9748 1.99855 12.4544 1.99999 11.929V10.215C2.68777 10.3926 3.35736 10.6343 3.99999 10.937C4.17085 11.7799 4.62203 12.5402 5.28007 13.094C5.93812 13.6478 6.76426 13.9626 7.62399 13.987C8.57037 15.4843 9.0494 17.2294 8.99999 19V20.586ZM22 11.929C22.0016 12.4545 21.8988 12.9751 21.6976 13.4605C21.4964 13.946 21.2008 14.3867 20.828 14.757L15 20.586V19C14.9506 17.2294 15.4296 15.4843 16.376 13.987C17.2357 13.9626 18.0619 13.6478 18.7199 13.094C19.378 12.5402 19.8291 11.7799 20 10.937C20.6426 10.6343 21.3122 10.3926 22 10.215V11.929ZM22 8.173C19.569 8.732 13 10.988 13 19V20H11V19C11 10.987 4.43099 8.732 1.99999 8.173V2.109C2.75026 2.31917 3.42982 2.72811 3.96685 3.29261C4.50389 3.85711 4.87847 4.5562 5.05099 5.316L5.36799 6.264L6.31499 5.949C8.15714 5.37194 10.0703 5.05258 12 5C13.9297 5.0527 15.8428 5.37206 17.685 5.949L18.633 6.264L18.948 5.316C19.1209 4.55621 19.4957 3.8572 20.0329 3.29273C20.5701 2.72827 21.2497 2.31931 22 2.109V8.173Z" fill="#374957"/>
</g>
<defs>
<clipPath id="clip0_403_3527">
<rect width="24" height="24" fill="white"/>
</clipPath>
</defs>
</svg>
