<svg width="32" height="32" viewBox="0 0 32 32" fill="none" xmlns="http://www.w3.org/2000/svg">
<g clip-path="url(#clip0_403_3472)" filter="url(#filter0_d_403_3472)">
<path d="M19.7004 7.13422L17.8504 8.20022C17.3408 7.68674 16.7014 7.32109 16.0004 7.14222V5.00022H14.0004V7.14222C13.2994 7.32109 12.6601 7.68674 12.1504 8.20022L10.3004 7.13422L9.30042 8.86622L11.1614 9.93922C11.0598 10.2839 11.0057 10.6409 11.0004 11.0002C11.0057 11.3596 11.0598 11.7165 11.1614 12.0612L9.30042 13.1342L10.3004 14.8662L12.1504 13.8002C12.6601 14.3137 13.2994 14.6793 14.0004 14.8582V17.0002H16.0004V14.8582C16.7014 14.6793 17.3408 14.3137 17.8504 13.8002L19.7004 14.8662L20.7004 13.1342L18.8434 12.0612C18.9437 11.7163 18.9965 11.3594 19.0004 11.0002C18.9952 10.6409 18.941 10.2839 18.8394 9.93922L20.7004 8.86622L19.7004 7.13422ZM15.0004 13.0002C14.6049 13.0002 14.2182 12.8829 13.8893 12.6632C13.5604 12.4434 13.304 12.131 13.1527 11.7656C13.0013 11.4001 12.9617 10.998 13.0389 10.61C13.116 10.2221 13.3065 9.86571 13.5862 9.586C13.8659 9.3063 14.2223 9.11582 14.6102 9.03865C14.9982 8.96148 15.4003 9.00108 15.7658 9.15246C16.1312 9.30383 16.4436 9.56018 16.6634 9.88908C16.8831 10.218 17.0004 10.6047 17.0004 11.0002C17.0004 11.5307 16.7897 12.0394 16.4146 12.4144C16.0396 12.7895 15.5309 13.0002 15.0004 13.0002ZM27.2724 11.1322C26.3768 8.76861 25.2118 6.51608 23.8004 4.41922C22.6281 2.83062 21.0462 1.59028 19.2239 0.830647C17.4015 0.0710174 15.407 -0.179372 13.4534 0.106217C11.5152 0.381789 9.68556 1.16966 8.15349 2.3885C6.62143 3.60734 5.44241 5.21298 4.73815 7.03968C4.03389 8.86638 3.8299 10.8479 4.14725 12.7798C4.46461 14.7117 5.29179 16.5238 6.54342 18.0292C6.83848 18.3836 7.00017 18.8301 7.00042 19.2912V24.0002H20.0004V21.0002H22.2474C22.9744 20.9985 23.6761 20.7336 24.2228 20.2546C24.7695 19.7755 25.1243 19.1146 25.2214 18.3942L25.6704 15.0002H28.0004V12.7882C28.0004 12.7882 27.4864 11.6222 27.2724 11.1322ZM23.9174 13.0002L23.2394 18.1312C23.2076 18.3718 23.0895 18.5925 22.907 18.7524C22.7245 18.9123 22.4901 19.0004 22.2474 19.0002H18.0004V22.0002H9.00042V19.2912C8.9999 18.3625 8.67443 17.4632 8.08042 16.7492C7.30613 15.8254 6.72545 14.7553 6.37289 13.6026C6.02033 12.4499 5.90308 11.238 6.02811 10.0391C6.15314 8.84021 6.5179 7.67865 7.10071 6.62349C7.68352 5.56832 8.47249 4.64108 9.42073 3.89686C10.369 3.15264 11.4572 2.60662 12.6206 2.29126C13.784 1.9759 14.999 1.89762 16.1933 2.06109C17.3876 2.22456 18.5368 2.62643 19.5727 3.24282C20.6086 3.85922 21.51 4.67756 22.2234 5.64922C23.519 7.6217 24.5973 9.72864 25.4394 11.9332C25.5954 12.2902 25.7514 12.6482 25.9074 13.0022L23.9174 13.0002Z" fill="#374957"/>
</g>
<defs>
<filter id="filter0_d_403_3472" x="0" y="0" width="32" height="32" filterUnits="userSpaceOnUse" color-interpolation-filters="sRGB">
<feFlood flood-opacity="0" result="BackgroundImageFix"/>
<feColorMatrix in="SourceAlpha" type="matrix" values="0 0 0 0 0 0 0 0 0 0 0 0 0 0 0 0 0 0 127 0" result="hardAlpha"/>
<feOffset dy="4"/>
<feGaussianBlur stdDeviation="2"/>
<feComposite in2="hardAlpha" operator="out"/>
<feColorMatrix type="matrix" values="0 0 0 0 0 0 0 0 0 0 0 0 0 0 0 0 0 0 0.25 0"/>
<feBlend mode="normal" in2="BackgroundImageFix" result="effect1_dropShadow_403_3472"/>
<feBlend mode="normal" in="SourceGraphic" in2="effect1_dropShadow_403_3472" result="shape"/>
</filter>
<clipPath id="clip0_403_3472">
<rect width="24" height="24" fill="white" transform="translate(4)"/>
</clipPath>
</defs>
</svg>
