<svg width="24" height="32" viewBox="0 0 24 32" fill="none" xmlns="http://www.w3.org/2000/svg">
<g clip-path="url(#clip0_403_3675)" filter="url(#filter0_d_403_3675)">
<path d="M17.0002 13.0004V9.00041H16.0002V2.00041C16.0001 1.65949 15.9128 1.32425 15.7467 1.02654C15.5806 0.728818 15.3412 0.478502 15.0511 0.299358C14.761 0.120213 14.43 0.0181881 14.0894 0.00297034C13.7488 -0.0122474 13.41 0.0598476 13.1052 0.212409L9.65815 1.93641C9.1587 2.18402 8.73862 2.56664 8.44556 3.04087C8.15251 3.51509 7.99821 4.06195 8.00015 4.61941V9.00041H7.00015V13.0004H5.00015V24.0004H19.0002V13.0004H17.0002ZM10.0002 4.61941C10.0003 4.43375 10.052 4.25178 10.1497 4.09388C10.2474 3.93599 10.3871 3.8084 10.5532 3.72541L14.0002 2.00041V9.00041H10.0002V4.61941ZM9.00015 11.0004H15.0002V13.0004H9.00015V11.0004ZM17.0002 22.0004H7.00015V15.0004H17.0002V22.0004Z" fill="#374957"/>
</g>
<defs>
<filter id="filter0_d_403_3675" x="-4" y="0" width="32" height="32" filterUnits="userSpaceOnUse" color-interpolation-filters="sRGB">
<feFlood flood-opacity="0" result="BackgroundImageFix"/>
<feColorMatrix in="SourceAlpha" type="matrix" values="0 0 0 0 0 0 0 0 0 0 0 0 0 0 0 0 0 0 127 0" result="hardAlpha"/>
<feOffset dy="4"/>
<feGaussianBlur stdDeviation="2"/>
<feComposite in2="hardAlpha" operator="out"/>
<feColorMatrix type="matrix" values="0 0 0 0 0 0 0 0 0 0 0 0 0 0 0 0 0 0 0.25 0"/>
<feBlend mode="normal" in2="BackgroundImageFix" result="effect1_dropShadow_403_3675"/>
<feBlend mode="normal" in="SourceGraphic" in2="effect1_dropShadow_403_3675" result="shape"/>
</filter>
<clipPath id="clip0_403_3675">
<rect width="24" height="24" fill="white"/>
</clipPath>
</defs>
</svg>
