<svg width="30" height="32" viewBox="0 0 30 32" fill="none" xmlns="http://www.w3.org/2000/svg">
<g clip-path="url(#clip0_403_3650)" filter="url(#filter0_d_403_3650)">
<path d="M14.0391 22.0004V24.0004H16.0391V22.0004H25.9071L21.24 15.0004H23.907L19.9071 9.00041H22.1001C22.1001 9.00041 18.239 2.84408 16.8461 0.863423C16.8161 0.820767 16.7511 0.739064 16.7161 0.700439C15.9036 -0.197358 14.1095 -0.26228 13.3611 0.700439L7.94606 9.00041H10.17L6.17006 15.0004H8.83608L4.17004 22.0004H14.0391ZM9.90703 13.0004L13.907 7.00039H11.63L14.837 2.06338C14.9509 1.96152 15.1231 1.96152 15.237 2.06338L18.426 7.00039H16.17L20.17 13.0004H17.5L22.167 20.0004H7.90706L12.5741 13.0004H9.90703V13.0004Z" fill="#374957"/>
<path d="M13.038 18C13.5903 18 14.038 17.5523 14.038 17C14.038 16.4478 13.5903 16.0001 13.038 16.0001C12.4857 16.0001 12.038 16.4478 12.038 17C12.038 17.5523 12.4857 18 13.038 18Z" fill="#374957"/>
<path d="M17.0379 18.9991C17.5902 18.9991 18.0379 18.5513 18.0379 17.9991C18.0379 17.4468 17.5902 16.9991 17.0379 16.9991C16.4857 16.9991 16.038 17.4468 16.038 17.9991C16.038 18.5513 16.4857 18.9991 17.0379 18.9991Z" fill="#374957"/>
<path d="M15.038 15C15.5903 15 16.038 14.5523 16.038 14C16.038 13.4478 15.5903 13.0001 15.038 13.0001C14.4857 13.0001 14.038 13.4478 14.038 14C14.038 14.5523 14.4857 15 15.038 15Z" fill="#374957"/>
<path d="M14.0379 11C14.5902 11 15.0379 10.5523 15.0379 9.99998C15.0379 9.44771 14.5902 9 14.0379 9C13.4857 9 13.038 9.44771 13.038 9.99998C13.038 10.5523 13.4857 11 14.0379 11Z" fill="#374957"/>
</g>
<defs>
<filter id="filter0_d_403_3650" x="-1" y="0" width="32" height="32" filterUnits="userSpaceOnUse" color-interpolation-filters="sRGB">
<feFlood flood-opacity="0" result="BackgroundImageFix"/>
<feColorMatrix in="SourceAlpha" type="matrix" values="0 0 0 0 0 0 0 0 0 0 0 0 0 0 0 0 0 0 127 0" result="hardAlpha"/>
<feOffset dy="4"/>
<feGaussianBlur stdDeviation="2"/>
<feComposite in2="hardAlpha" operator="out"/>
<feColorMatrix type="matrix" values="0 0 0 0 0 0 0 0 0 0 0 0 0 0 0 0 0 0 0.25 0"/>
<feBlend mode="normal" in2="BackgroundImageFix" result="effect1_dropShadow_403_3650"/>
<feBlend mode="normal" in="SourceGraphic" in2="effect1_dropShadow_403_3650" result="shape"/>
</filter>
<clipPath id="clip0_403_3650">
<rect width="24" height="24" fill="white" transform="translate(3)"/>
</clipPath>
</defs>
</svg>
