<svg width="24" height="24" viewBox="0 0 24 24" fill="none" xmlns="http://www.w3.org/2000/svg">
<g clip-path="url(#clip0_403_3348)">
<path d="M18.769 14.813C20.769 13.91 22 12.562 22 11C22 8.62 19.149 6.734 15.058 6.175C15.6448 5.6014 15.983 4.82041 16 4C16 1.757 13.364 0 10 0C6.636 0 4 1.757 4 4C4.05074 4.68711 4.2916 5.34656 4.69567 5.90462C5.09973 6.46267 5.65105 6.89734 6.288 7.16C4.254 8.063 3 9.423 3 11C3 12.47 4.092 13.751 5.888 14.649C2.511 15.424 0 16.885 0 19C0 22.283 6.037 24 12 24C17.963 24 24 22.283 24 19C24 17.025 21.809 15.621 18.769 14.813V14.813ZM10 2C12.29 2 14 3.056 14 4C14 4.944 12.29 6 10 6C7.71 6 6 4.944 6 4C6 3.056 7.71 2 10 2ZM5 11C5 9.747 7.853 8 12.5 8C17.147 8 20 9.747 20 11C20 12.253 17.146 14 12.5 14C7.854 14 5 12.253 5 11V11ZM12 22C5.988 22 2 20.194 2 19C2 17.806 5.988 16 12 16C18.012 16 22 17.806 22 19C22 20.194 18.012 22 12 22V22Z" fill="#374957"/>
</g>
<defs>
<clipPath id="clip0_403_3348">
<rect width="24" height="24" fill="white"/>
</clipPath>
</defs>
</svg>
