<svg width="32" height="32" viewBox="0 0 32 32" fill="none" xmlns="http://www.w3.org/2000/svg">
<g clip-path="url(#clip0_403_3548)" filter="url(#filter0_d_403_3548)">
<path d="M28 24H16C13.6266 24 11.3066 23.2962 9.33316 21.9776C7.35977 20.6591 5.8217 18.7849 4.91345 16.5922C4.0052 14.3995 3.76756 11.9867 4.23058 9.65892C4.6936 7.33115 5.83649 5.19295 7.51472 3.51472C9.19295 1.83649 11.3312 0.693605 13.6589 0.230582C15.9867 -0.232441 18.3995 0.00519943 20.5922 0.913451C22.7849 1.8217 24.6591 3.35977 25.9776 5.33316C27.2962 7.30655 28 9.62663 28 12V24ZM16 2.00001C13.3478 2.00001 10.8043 3.05357 8.92894 4.92894C7.05357 6.8043 6.00001 9.34784 6.00001 12C6.00001 14.6522 7.05357 17.1957 8.92894 19.0711C10.8043 20.9464 13.3478 22 16 22H26V12C25.9971 9.34873 24.9426 6.80689 23.0679 4.93215C21.1931 3.05742 18.6513 2.00292 16 2.00001V2.00001ZM15.909 16.419L22.7 9.71201L21.3 8.28801L14.494 14.988L10.7 11.285L9.30001 12.715L13.085 16.415C13.4599 16.7884 13.9674 16.9981 14.4965 16.9981C15.0256 16.9981 15.5332 16.7884 15.908 16.415L15.909 16.419Z" fill="#374957"/>
</g>
<defs>
<filter id="filter0_d_403_3548" x="0" y="0" width="32" height="32" filterUnits="userSpaceOnUse" color-interpolation-filters="sRGB">
<feFlood flood-opacity="0" result="BackgroundImageFix"/>
<feColorMatrix in="SourceAlpha" type="matrix" values="0 0 0 0 0 0 0 0 0 0 0 0 0 0 0 0 0 0 127 0" result="hardAlpha"/>
<feOffset dy="4"/>
<feGaussianBlur stdDeviation="2"/>
<feComposite in2="hardAlpha" operator="out"/>
<feColorMatrix type="matrix" values="0 0 0 0 0 0 0 0 0 0 0 0 0 0 0 0 0 0 0.25 0"/>
<feBlend mode="normal" in2="BackgroundImageFix" result="effect1_dropShadow_403_3548"/>
<feBlend mode="normal" in="SourceGraphic" in2="effect1_dropShadow_403_3548" result="shape"/>
</filter>
<clipPath id="clip0_403_3548">
<rect width="24" height="24" fill="white" transform="translate(4)"/>
</clipPath>
</defs>
</svg>
