<svg width="24" height="24" viewBox="0 0 24 24" fill="none" xmlns="http://www.w3.org/2000/svg">
<g clip-path="url(#clip0_403_3331)">
<path d="M20.4 5.051C20.2011 4.45454 19.8198 3.93565 19.3101 3.56762C18.8003 3.19959 18.1877 3.00104 17.559 3H16.72L16.4 2.051C16.2011 1.45454 15.8198 0.935647 15.3101 0.56762C14.8003 0.199593 14.1877 0.00103652 13.559 0L10.441 0C9.81191 0.000199332 9.19887 0.198549 8.6889 0.566894C8.17892 0.935238 7.79793 1.45486 7.6 2.052L7.28 3H6.441C5.81225 3.00104 5.19973 3.19959 4.68994 3.56762C4.18016 3.93565 3.79889 4.45454 3.6 5.051L2.28 9H0V11H1.613L1.052 12.684L1.1 12.7C0.758036 12.9782 0.482014 13.3288 0.291807 13.7265C0.1016 14.1242 0.00193913 14.5592 0 15L0 20H2V24H8V20H16V24H22V20H24V15C23.9981 14.5592 23.8984 14.1242 23.7082 13.7265C23.518 13.3288 23.242 12.9782 22.9 12.7L22.946 12.685L22.387 11H24V9H21.72L20.4 5.051ZM9.492 2.684C9.55835 2.48479 9.68572 2.31153 9.85605 2.18876C10.0264 2.06599 10.231 1.99995 10.441 2H13.559C13.769 1.99995 13.9736 2.06599 14.144 2.18876C14.3143 2.31153 14.4417 2.48479 14.508 2.684L14.613 3H9.387L9.492 2.684ZM5.492 5.684C5.55835 5.48479 5.68572 5.31153 5.85605 5.18876C6.02638 5.06599 6.23104 4.99995 6.441 5H17.559C17.769 4.99995 17.9736 5.06599 18.144 5.18876C18.3143 5.31153 18.4417 5.48479 18.508 5.684L20.613 12H3.387L5.492 5.684ZM6 22H4V20H6V22ZM20 22H18V20H20V22ZM22 18H2V15C2 14.7348 2.10536 14.4804 2.29289 14.2929C2.48043 14.1054 2.73478 14 3 14H4V15C4 15.2652 4.10536 15.5196 4.29289 15.7071C4.48043 15.8946 4.73478 16 5 16C5.26522 16 5.51957 15.8946 5.70711 15.7071C5.89464 15.5196 6 15.2652 6 15V14H18V15C18 15.2652 18.1054 15.5196 18.2929 15.7071C18.4804 15.8946 18.7348 16 19 16C19.2652 16 19.5196 15.8946 19.7071 15.7071C19.8946 15.5196 20 15.2652 20 15V14H21C21.2652 14 21.5196 14.1054 21.7071 14.2929C21.8946 14.4804 22 14.7348 22 15V18Z" fill="#374957"/>
</g>
<defs>
<clipPath id="clip0_403_3331">
<rect width="24" height="24" fill="white"/>
</clipPath>
</defs>
</svg>
