<svg width="28" height="32" viewBox="0 0 28 32" fill="none" xmlns="http://www.w3.org/2000/svg">
<g clip-path="url(#clip0_403_3655)" filter="url(#filter0_d_403_3655)">
<path d="M21.0001 8V7C21.0001 5.14348 20.2626 3.36301 18.9499 2.05025C17.6371 0.737498 15.8566 0 14.0001 0C12.1436 0 10.3631 0.737498 9.05037 2.05025C7.73762 3.36301 7.00012 5.14348 7.00012 7V8H4.00012V21C4.00012 21.7956 4.31619 22.5587 4.8788 23.1213C5.44141 23.6839 6.20447 24 7.00012 24H21.0001C21.7958 24 22.5588 23.6839 23.1214 23.1213C23.6841 22.5587 24.0001 21.7956 24.0001 21V8H21.0001ZM9.00012 7C9.00012 5.67392 9.52691 4.40215 10.4646 3.46447C11.4023 2.52678 12.674 2 14.0001 2C15.3262 2 16.598 2.52678 17.5357 3.46447C18.4733 4.40215 19.0001 5.67392 19.0001 7V8H9.00012V7ZM22.0001 21C22.0001 21.2652 21.8948 21.5196 21.7072 21.7071C21.5197 21.8946 21.2653 22 21.0001 22H7.00012C6.73491 22 6.48055 21.8946 6.29302 21.7071C6.10548 21.5196 6.00012 21.2652 6.00012 21V10H22.0001V21Z" fill="#374957"/>
<path d="M15.0001 13.9996H13.0001V17.9996H15.0001V13.9996Z" fill="#374957"/>
</g>
<defs>
<filter id="filter0_d_403_3655" x="-2" y="0" width="32" height="32" filterUnits="userSpaceOnUse" color-interpolation-filters="sRGB">
<feFlood flood-opacity="0" result="BackgroundImageFix"/>
<feColorMatrix in="SourceAlpha" type="matrix" values="0 0 0 0 0 0 0 0 0 0 0 0 0 0 0 0 0 0 127 0" result="hardAlpha"/>
<feOffset dy="4"/>
<feGaussianBlur stdDeviation="2"/>
<feComposite in2="hardAlpha" operator="out"/>
<feColorMatrix type="matrix" values="0 0 0 0 0 0 0 0 0 0 0 0 0 0 0 0 0 0 0.25 0"/>
<feBlend mode="normal" in2="BackgroundImageFix" result="effect1_dropShadow_403_3655"/>
<feBlend mode="normal" in="SourceGraphic" in2="effect1_dropShadow_403_3655" result="shape"/>
</filter>
<clipPath id="clip0_403_3655">
<rect width="24" height="24" fill="white" transform="translate(2)"/>
</clipPath>
</defs>
</svg>
