<svg width="24" height="24" viewBox="0 0 24 24" fill="none" xmlns="http://www.w3.org/2000/svg">
<g clip-path="url(#clip0_403_3759)">
<path d="M16.0002 24H14.0002V22H16.0002C16.2654 22 16.5198 21.8946 16.7073 21.7071C16.8949 21.5196 17.0002 21.2652 17.0002 21C17.0002 20.7348 16.8949 20.4804 16.7073 20.2929C16.5198 20.1054 16.2654 20 16.0002 20H12.0002C11.2046 20 10.4415 19.6839 9.8789 19.1213C9.31629 18.5587 9.00022 17.7956 9.00022 17C9.00022 16.2044 9.31629 15.4413 9.8789 14.8787C10.4415 14.3161 11.2046 14 12.0002 14H19.0002C19.2654 14 19.5198 13.8946 19.7073 13.7071C19.8949 13.5196 20.0002 13.2652 20.0002 13C20.0002 12.7348 19.8949 12.4804 19.7073 12.2929C19.5198 12.1054 19.2654 12 19.0002 12H6.00022C-1.93178 11.747 -1.92578 0.25 6.00022 0H20.0002C21.0611 0 22.0785 0.421427 22.8286 1.17157C23.5788 1.92172 24.0002 2.93913 24.0002 4C24.0002 5.06087 23.5788 6.07828 22.8286 6.82843C22.0785 7.57857 21.0611 8 20.0002 8H6.00022V6H20.0002C20.5307 6 21.0394 5.78929 21.4144 5.41421C21.7895 5.03914 22.0002 4.53043 22.0002 4C22.0002 3.46957 21.7895 2.96086 21.4144 2.58579C21.0394 2.21071 20.5307 2 20.0002 2H6.00022C4.93935 2 3.92194 2.42143 3.17179 3.17157C2.42164 3.92172 2.00022 4.93913 2.00022 6C2.00022 7.06087 2.42164 8.07828 3.17179 8.82843C3.92194 9.57857 4.93935 10 6.00022 10H19.0002C19.7959 10 20.5589 10.3161 21.1215 10.8787C21.6841 11.4413 22.0002 12.2044 22.0002 13C22.0002 13.7956 21.6841 14.5587 21.1215 15.1213C20.5589 15.6839 19.7959 16 19.0002 16H12.0002C11.735 16 11.4806 16.1054 11.2931 16.2929C11.1056 16.4804 11.0002 16.7348 11.0002 17C11.0002 17.2652 11.1056 17.5196 11.2931 17.7071C11.4806 17.8946 11.735 18 12.0002 18H16.0002C16.7959 18 17.5589 18.3161 18.1215 18.8787C18.6841 19.4413 19.0002 20.2044 19.0002 21C19.0002 21.7956 18.6841 22.5587 18.1215 23.1213C17.5589 23.6839 16.7959 24 16.0002 24Z" fill="#374957"/>
</g>
<defs>
<clipPath id="clip0_403_3759">
<rect width="24" height="24" fill="white"/>
</clipPath>
</defs>
</svg>
