<svg width="32" height="30" viewBox="0 0 32 30" fill="none" xmlns="http://www.w3.org/2000/svg">
<g clip-path="url(#clip0_403_3493)" filter="url(#filter0_d_403_3493)">
<path d="M24.4 3H7.6L7.3 3.3C5.2 5.7 4 8.8 4 12C4 17.5 6.2 22 9 22C11.2 22 12.3 18.8 12.8 17H19.2C19.7 18.8 20.8 22 23 22C25.8 22 28 17.5 28 12C28 8.8 26.8 5.7 24.7 3.3L24.4 3ZM23 20C22.4 20 21.4 17.9 21 15.8L20.8 15H11.2L11 15.8C10.6 17.9 9.6 20 9 20C8 20 6 16.9 6 12C6 9.5 6.9 7 8.5 5H23.6C25.2 7 26 9.5 26 12C26 16.9 24 20 23 20Z" fill="#374957"/>
<path d="M12.0003 7.00024H10.0003V9.00024H8.00031V11.0002H10.0003V13.0002H12.0003V11.0002H14.0003V9.00024H12.0003V7.00024Z" fill="#374957"/>
<path d="M22.4997 10.0002C23.3281 10.0002 23.9997 9.32867 23.9997 8.50024C23.9997 7.67182 23.3281 7.00024 22.4997 7.00024C21.6713 7.00024 20.9997 7.67182 20.9997 8.50024C20.9997 9.32867 21.6713 10.0002 22.4997 10.0002Z" fill="#374957"/>
<path d="M19.4997 13.0002C20.3281 13.0002 20.9997 12.3287 20.9997 11.5002C20.9997 10.6718 20.3281 10.0002 19.4997 10.0002C18.6713 10.0002 17.9997 10.6718 17.9997 11.5002C17.9997 12.3287 18.6713 13.0002 19.4997 13.0002Z" fill="#374957"/>
</g>
<defs>
<filter id="filter0_d_403_3493" x="0" y="0" width="32" height="32" filterUnits="userSpaceOnUse" color-interpolation-filters="sRGB">
<feFlood flood-opacity="0" result="BackgroundImageFix"/>
<feColorMatrix in="SourceAlpha" type="matrix" values="0 0 0 0 0 0 0 0 0 0 0 0 0 0 0 0 0 0 127 0" result="hardAlpha"/>
<feOffset dy="4"/>
<feGaussianBlur stdDeviation="2"/>
<feComposite in2="hardAlpha" operator="out"/>
<feColorMatrix type="matrix" values="0 0 0 0 0 0 0 0 0 0 0 0 0 0 0 0 0 0 0.25 0"/>
<feBlend mode="normal" in2="BackgroundImageFix" result="effect1_dropShadow_403_3493"/>
<feBlend mode="normal" in="SourceGraphic" in2="effect1_dropShadow_403_3493" result="shape"/>
</filter>
<clipPath id="clip0_403_3493">
<rect width="24" height="24" fill="white" transform="translate(4)"/>
</clipPath>
</defs>
</svg>
