<svg width="24" height="24" viewBox="0 0 24 24" fill="none" xmlns="http://www.w3.org/2000/svg">
<g clip-path="url(#clip0_403_3678)">
<path d="M20.4179 2.97512C20.2066 2.39721 19.8231 1.89801 19.3192 1.54485C18.8153 1.19169 18.2152 1.00157 17.5999 1.00012H6.39989C5.78455 1.00157 5.18447 1.19169 4.68057 1.54485C4.17667 1.89801 3.7932 2.39721 3.58188 2.97512L1.43788 8.86912C0.484594 11.4847 -0.00212665 14.2473 -0.000115865 17.0311V19.0001H1.99988V23.0001H7.99989V19.0001H15.9999V23.0001H21.9999V19.0001H23.9999V17.0311C24.0019 14.2473 23.5152 11.4847 22.5619 8.86912L20.4179 2.97512ZM5.46088 3.65812C5.53103 3.46539 5.65874 3.29888 5.82671 3.18118C5.99468 3.06347 6.19478 3.00027 6.39989 3.00012H17.5999C17.805 3.00027 18.0051 3.06347 18.1731 3.18118C18.341 3.29888 18.4687 3.46539 18.5389 3.65812L20.6829 9.55812C20.8559 10.0351 20.9999 10.5201 21.1389 11.0051H2.86088C2.99988 10.5201 3.14388 10.0351 3.31688 9.55812L5.46088 3.65812ZM5.99989 21.0001H3.99988V19.0001H5.99989V21.0001ZM19.9999 21.0001H17.9999V19.0001H19.9999V21.0001ZM1.99988 17.0001C2.00437 15.6579 2.13224 14.3189 2.38188 13.0001H3.99988V14.0001C3.99988 14.2653 4.10524 14.5197 4.29278 14.7072C4.48031 14.8948 4.73467 15.0001 4.99988 15.0001C5.2651 15.0001 5.51945 14.8948 5.70699 14.7072C5.89453 14.5197 5.99989 14.2653 5.99989 14.0001V13.0001H17.9999V14.0001C17.9999 14.2653 18.1052 14.5197 18.2928 14.7072C18.4803 14.8948 18.7347 15.0001 18.9999 15.0001C19.2651 15.0001 19.5195 14.8948 19.707 14.7072C19.8945 14.5197 19.9999 14.2653 19.9999 14.0001V13.0001H21.6179C21.8675 14.3189 21.9954 15.6579 21.9999 17.0001H1.99988Z" fill="#374957"/>
</g>
<defs>
<clipPath id="clip0_403_3678">
<rect width="24" height="24" fill="white"/>
</clipPath>
</defs>
</svg>
