<svg width="26" height="32" viewBox="0 0 26 32" fill="none" xmlns="http://www.w3.org/2000/svg">
<g clip-path="url(#clip0_403_3505)" filter="url(#filter0_d_403_3505)">
<path d="M22 23.9L18.337 21.389L15.673 23.214L13.007 21.388L10.341 23.212L7.67 21.386L4 23.9V3C4 2.20435 4.31607 1.44129 4.87868 0.87868C5.44129 0.31607 6.20435 0 7 0L19 0C19.7956 0 20.5587 0.31607 21.1213 0.87868C21.6839 1.44129 22 2.20435 22 3V23.9ZM7.67 18.962L10.34 20.788L13.007 18.962L15.673 20.788L18.338 18.961L20 20.1V3C20 2.73478 19.8946 2.48043 19.7071 2.29289C19.5196 2.10536 19.2652 2 19 2H7C6.73478 2 6.48043 2.10536 6.29289 2.29289C6.10536 2.48043 6 2.73478 6 3V20.1L7.67 18.962Z" fill="#374957"/>
<path d="M18.0003 8.00061H8.00031V10.0006H18.0003V8.00061Z" fill="#374957"/>
<path d="M16.0003 12H8.00031V14H16.0003V12Z" fill="#374957"/>
</g>
<defs>
<filter id="filter0_d_403_3505" x="-3" y="0" width="32" height="32" filterUnits="userSpaceOnUse" color-interpolation-filters="sRGB">
<feFlood flood-opacity="0" result="BackgroundImageFix"/>
<feColorMatrix in="SourceAlpha" type="matrix" values="0 0 0 0 0 0 0 0 0 0 0 0 0 0 0 0 0 0 127 0" result="hardAlpha"/>
<feOffset dy="4"/>
<feGaussianBlur stdDeviation="2"/>
<feComposite in2="hardAlpha" operator="out"/>
<feColorMatrix type="matrix" values="0 0 0 0 0 0 0 0 0 0 0 0 0 0 0 0 0 0 0.25 0"/>
<feBlend mode="normal" in2="BackgroundImageFix" result="effect1_dropShadow_403_3505"/>
<feBlend mode="normal" in="SourceGraphic" in2="effect1_dropShadow_403_3505" result="shape"/>
</filter>
<clipPath id="clip0_403_3505">
<rect width="24" height="24" fill="white" transform="translate(1)"/>
</clipPath>
</defs>
</svg>
