<svg width="26" height="32" viewBox="0 0 26 32" fill="none" xmlns="http://www.w3.org/2000/svg">
<g clip-path="url(#clip0_403_3651)" filter="url(#filter0_d_403_3651)">
<path d="M9.00006 20.149V24H17.0001V20.315C16.9805 19.4626 17.1426 18.6157 17.4757 17.8309C17.8089 17.046 18.3053 16.3411 18.9321 15.763C20.2999 14.564 21.2724 12.9787 21.7213 11.2159C22.1702 9.45322 22.0745 7.59585 21.4467 5.88864C20.8189 4.18143 19.6885 2.70452 18.2046 1.65257C16.7206 0.600621 14.9527 0.023012 13.134 -0.0041249C11.3152 -0.0312618 9.53087 0.493347 8.01621 1.50056C6.50154 2.50776 5.32761 3.95029 4.64916 5.63801C3.97071 7.32573 3.81958 9.17942 4.21568 10.9547C4.61179 12.7301 5.53655 14.3437 6.86806 15.583C7.52026 16.1549 8.04654 16.8561 8.41354 17.6421C8.78054 18.4281 8.98027 19.2817 9.00006 20.149V20.149ZM15.0001 22H11.0001V20.149C11.0001 20.099 10.9931 20.049 10.9921 20H15.0161C15.0161 20.105 15.0001 20.209 15.0001 20.315V22ZM6.06006 8.07497C6.20872 6.95315 6.62714 5.88409 7.27947 4.9594C7.93179 4.03471 8.79858 3.28195 9.80556 2.76563C10.8125 2.24931 11.9297 1.98482 13.0613 1.99482C14.1928 2.00482 15.3051 2.28902 16.3028 2.82306C17.3005 3.35709 18.1539 4.12505 18.7897 5.06112C19.4256 5.9972 19.8251 7.07349 19.9539 8.19776C20.0827 9.32203 19.937 10.4608 19.5293 11.5164C19.1217 12.5721 18.4641 13.5131 17.6131 14.259C16.5001 15.2555 15.703 16.5559 15.3201 18H14.0001V10.816C14.583 10.6099 15.088 10.2287 15.446 9.72467C15.804 9.2206 15.9975 8.61823 16.0001 7.99997H14.0001C14.0001 8.26519 13.8947 8.51954 13.7072 8.70708C13.5196 8.89461 13.2653 8.99997 13.0001 8.99997C12.7348 8.99997 12.4805 8.89461 12.293 8.70708C12.1054 8.51954 12.0001 8.26519 12.0001 7.99997H10.0001C10.0026 8.61823 10.1961 9.2206 10.5541 9.72467C10.9121 10.2287 11.4171 10.6099 12.0001 10.816V18H10.6781C10.227 16.5092 9.38117 15.1682 8.23006 14.119C7.4096 13.3598 6.78405 12.4142 6.40633 11.3622C6.02861 10.3102 5.90984 9.18262 6.06006 8.07497V8.07497Z" fill="#374957"/>
</g>
<defs>
<filter id="filter0_d_403_3651" x="-3" y="0" width="32" height="32" filterUnits="userSpaceOnUse" color-interpolation-filters="sRGB">
<feFlood flood-opacity="0" result="BackgroundImageFix"/>
<feColorMatrix in="SourceAlpha" type="matrix" values="0 0 0 0 0 0 0 0 0 0 0 0 0 0 0 0 0 0 127 0" result="hardAlpha"/>
<feOffset dy="4"/>
<feGaussianBlur stdDeviation="2"/>
<feComposite in2="hardAlpha" operator="out"/>
<feColorMatrix type="matrix" values="0 0 0 0 0 0 0 0 0 0 0 0 0 0 0 0 0 0 0.25 0"/>
<feBlend mode="normal" in2="BackgroundImageFix" result="effect1_dropShadow_403_3651"/>
<feBlend mode="normal" in="SourceGraphic" in2="effect1_dropShadow_403_3651" result="shape"/>
</filter>
<clipPath id="clip0_403_3651">
<rect width="24" height="24" fill="white" transform="translate(1)"/>
</clipPath>
</defs>
</svg>
