<svg width="24" height="24" viewBox="0 0 24 24" fill="none" xmlns="http://www.w3.org/2000/svg">
<g clip-path="url(#clip0_403_3509)">
<path d="M21.4801 8.99962H21.3681C22.2381 7.23862 21.9851 3.66263 21.9201 2.91363L21.8201 1.79863L20.7201 2.01963C19.9751 2.16863 16.3781 2.95363 15.0061 4.34863C14.3372 3.28006 13.5781 2.27071 12.7371 1.33163L12.0001 0.499634L11.2561 1.32863C10.4149 2.26866 9.6558 3.27902 8.98709 4.34863C7.61509 2.95363 4.01809 2.16863 3.27309 2.01963L2.17709 1.79963L2.07709 2.91463C2.01209 3.66363 1.75909 7.23963 2.62909 9.00062H2.52009C2.06857 9.00122 1.62547 9.12289 1.23695 9.35294C0.848435 9.58299 0.528711 9.91301 0.311088 10.3086C0.0965828 10.6868 -0.0111404 11.1162 -0.000572636 11.5509C0.00999516 11.9856 0.138457 12.4093 0.371088 12.7766C2.30009 15.8426 7.37909 18.2316 10.0261 19.3136C8.89456 20.2299 8.16722 21.5532 8.00009 22.9996V23.9996H16.0001V22.9996C15.9144 21.8696 15.4307 20.8066 14.6351 19.9996H16.0001C16.5305 19.9996 17.0392 20.2103 17.4143 20.5854C17.7894 20.9605 18.0001 21.4692 18.0001 21.9996H20.0001C19.9985 21.0667 19.671 20.1637 19.074 19.4467C18.4771 18.7298 17.6483 18.2441 16.7311 18.0736C19.2891 16.8046 22.2631 14.9666 23.6311 12.7736C23.8626 12.4058 23.9899 11.9821 23.9994 11.5476C24.0089 11.1131 23.9003 10.6842 23.6851 10.3066C23.4675 9.91193 23.1483 9.58261 22.7606 9.3528C22.3729 9.12299 21.9308 9.00105 21.4801 8.99962V8.99962ZM16.4001 5.79963C16.7751 5.29363 18.3851 4.67063 20.0001 4.24763C20.0521 5.94763 19.9121 7.69862 19.5341 8.20962C19.3821 8.4176 19.1901 8.59319 18.9695 8.72615C18.7488 8.85911 18.5039 8.94677 18.249 8.98401C17.9941 9.02125 17.7343 9.00732 17.4849 8.94304C17.2354 8.87876 17.0013 8.76541 16.7961 8.60962C16.3752 8.28641 16.098 7.81099 16.0239 7.28554C15.9499 6.76009 16.085 6.22656 16.4001 5.79963V5.79963ZM12.0001 3.54863C13.0621 4.88063 14.0001 6.37963 14.0001 6.99963C14.0001 7.53006 13.7894 8.03876 13.4143 8.41384C13.0392 8.78891 12.5305 8.99962 12.0001 8.99962C11.4697 8.99962 10.9609 8.78891 10.5859 8.41384C10.2108 8.03876 10.0001 7.53006 10.0001 6.99963C10.0001 6.36263 10.9391 4.87463 12.0001 3.54863ZM4.00609 4.24263C5.61909 4.66563 7.22909 5.28863 7.60009 5.79963C7.91279 6.22512 8.04701 6.75589 7.97416 7.27889C7.90132 7.80188 7.62716 8.27577 7.21009 8.59962C7.00492 8.75541 6.77077 8.86876 6.52131 8.93304C6.27185 8.99732 6.01208 9.01125 5.75718 8.97401C5.50227 8.93677 5.25734 8.84911 5.0367 8.71615C4.81605 8.58319 4.62411 8.4076 4.47209 8.19962C4.09409 7.69362 3.95409 5.93963 4.00609 4.24263ZM10.3541 21.9996C10.8095 21.3339 11.3646 20.7423 12.0001 20.2456C12.6355 20.7423 13.1907 21.3339 13.6461 21.9996H10.3541ZM21.9371 11.7126C20.6431 13.7846 17.4011 15.5826 14.9031 16.7306C15.5726 15.5972 15.9496 14.315 16.0001 12.9996H14.0001C13.8151 14.6645 13.116 16.2304 12.0001 17.4796C10.8841 16.2304 10.1851 14.6645 10.0001 12.9996H8.00009C8.05058 14.3118 8.42578 15.591 9.09209 16.7226C6.60009 15.5716 3.36109 13.7736 2.06409 11.7116C2.02297 11.6463 2.00115 11.5708 2.00115 11.4936C2.00115 11.4165 2.02297 11.3409 2.06409 11.2756C2.10837 11.193 2.17407 11.1237 2.25429 11.0752C2.33451 11.0266 2.42632 11.0005 2.52009 10.9996H21.4801C21.5741 11.0003 21.6661 11.0261 21.7467 11.0745C21.8272 11.1229 21.8933 11.192 21.9381 11.2746C21.9788 11.3405 22.0003 11.4164 22.0001 11.4938C21.9999 11.5712 21.9781 11.647 21.9371 11.7126Z" fill="#374957"/>
</g>
<defs>
<clipPath id="clip0_403_3509">
<rect width="24" height="24" fill="white"/>
</clipPath>
</defs>
</svg>
