<svg width="32" height="32" viewBox="0 0 32 32" fill="none" xmlns="http://www.w3.org/2000/svg">
<g clip-path="url(#clip0_403_3693)" filter="url(#filter0_d_403_3693)">
<path d="M16 0C13.6266 0 11.3066 0.703788 9.33316 2.02236C7.35977 3.34094 5.8217 5.21509 4.91345 7.4078C4.0052 9.60051 3.76756 12.0133 4.23058 14.3411C4.6936 16.6689 5.83649 18.8071 7.51472 20.4853C9.19295 22.1635 11.3312 23.3064 13.6589 23.7694C15.9867 24.2324 18.3995 23.9948 20.5922 23.0866C22.7849 22.1783 24.6591 20.6402 25.9776 18.6668C27.2962 16.6935 28 14.3734 28 12C27.9966 8.81846 26.7312 5.76821 24.4815 3.51852C22.2318 1.26883 19.1815 0.00344108 16 0V0ZM19.254 7.332C18.0194 5.82736 17.2544 3.99298 17.054 2.057C18.9865 2.26045 20.8171 3.02524 22.32 4.257L19.254 7.332ZM17.836 8.75L16 10.586L9.67601 4.262C11.2081 3.00536 13.0803 2.23447 15.053 2.048C15.2624 4.51674 16.2351 6.85908 17.836 8.75V8.75ZM14.586 12L12.749 13.837C10.8592 12.2354 8.51735 11.2623 6.04901 11.053C6.23519 9.08039 7.00573 7.2082 8.26201 5.676L14.586 12ZM11.332 15.254L8.26201 18.324C7.03025 16.8211 6.26546 14.9905 6.06201 13.058C7.99581 13.2582 9.82827 14.0217 11.332 15.254V15.254ZM12.746 16.668C13.9806 18.1726 14.7456 20.007 14.946 21.943C13.013 21.7381 11.1823 20.9716 9.68001 19.738L12.746 16.668ZM14.163 15.251L16 13.414L22.324 19.738C20.7922 20.9951 18.9198 21.766 16.947 21.952C16.7379 19.4833 15.7648 17.1411 14.163 15.251V15.251ZM17.414 12L19.25 10.164C21.1404 11.7645 23.482 12.7372 25.95 12.947C25.7635 14.9197 24.9926 16.7919 23.736 18.324L17.414 12ZM20.668 8.746L23.738 5.676C24.9716 7.17829 25.7381 9.00898 25.943 10.942C24.0076 10.7423 22.1734 9.97875 20.668 8.746V8.746Z" fill="#374957"/>
</g>
<defs>
<filter id="filter0_d_403_3693" x="0" y="0" width="32" height="32" filterUnits="userSpaceOnUse" color-interpolation-filters="sRGB">
<feFlood flood-opacity="0" result="BackgroundImageFix"/>
<feColorMatrix in="SourceAlpha" type="matrix" values="0 0 0 0 0 0 0 0 0 0 0 0 0 0 0 0 0 0 127 0" result="hardAlpha"/>
<feOffset dy="4"/>
<feGaussianBlur stdDeviation="2"/>
<feComposite in2="hardAlpha" operator="out"/>
<feColorMatrix type="matrix" values="0 0 0 0 0 0 0 0 0 0 0 0 0 0 0 0 0 0 0.25 0"/>
<feBlend mode="normal" in2="BackgroundImageFix" result="effect1_dropShadow_403_3693"/>
<feBlend mode="normal" in="SourceGraphic" in2="effect1_dropShadow_403_3693" result="shape"/>
</filter>
<clipPath id="clip0_403_3693">
<rect width="24" height="24" fill="white" transform="translate(4)"/>
</clipPath>
</defs>
</svg>
