<svg width="24" height="24" viewBox="0 0 24 24" fill="none" xmlns="http://www.w3.org/2000/svg">
<g clip-path="url(#clip0_403_3652)">
<path d="M12 0C9.62663 0 7.30655 0.703788 5.33316 2.02236C3.35977 3.34094 1.8217 5.21509 0.913451 7.4078C0.00519943 9.60051 -0.232441 12.0133 0.230582 14.3411C0.693605 16.6689 1.83649 18.8071 3.51472 20.4853C5.19295 22.1635 7.33115 23.3064 9.65892 23.7694C11.9867 24.2324 14.3995 23.9948 16.5922 23.0866C18.7849 22.1783 20.6591 20.6402 21.9776 18.6668C23.2962 16.6935 24 14.3734 24 12C23.9966 8.81846 22.7312 5.76821 20.4815 3.51852C18.2318 1.26883 15.1815 0.00344108 12 0V0ZM12 22C10.0222 22 8.08879 21.4135 6.4443 20.3147C4.79981 19.2159 3.51809 17.6541 2.76121 15.8268C2.00433 13.9996 1.8063 11.9889 2.19215 10.0491C2.578 8.10929 3.53041 6.32746 4.92894 4.92893C6.32746 3.53041 8.10929 2.578 10.0491 2.19215C11.9889 1.8063 13.9996 2.00433 15.8268 2.76121C17.6541 3.51808 19.2159 4.79981 20.3147 6.4443C21.4135 8.08879 22 10.0222 22 12C21.9971 14.6513 20.9426 17.1931 19.0679 19.0679C17.1931 20.9426 14.6513 21.9971 12 22V22Z" fill="#374957"/>
<path d="M12.0002 6.99939C11.0113 6.99939 10.0446 7.29263 9.2224 7.84204C8.40015 8.39145 7.75929 9.17234 7.38085 10.086C7.00241 10.9996 6.90339 12.0049 7.09632 12.9748C7.28925 13.9447 7.76545 14.8357 8.46471 15.5349C9.16398 16.2342 10.0549 16.7104 11.0248 16.9033C11.9947 17.0962 13 16.9972 13.9137 16.6188C14.8273 16.2404 15.6082 15.5995 16.1576 14.7772C16.707 13.955 17.0002 12.9883 17.0002 11.9994C16.9987 10.6738 16.4714 9.40295 15.534 8.46561C14.5967 7.52827 13.3258 7.00098 12.0002 6.99939V6.99939ZM12.0002 14.9994C11.4069 14.9994 10.8269 14.8234 10.3335 14.4938C9.84019 14.1642 9.45567 13.6956 9.22861 13.1474C9.00154 12.5993 8.94213 11.9961 9.05789 11.4141C9.17365 10.8322 9.45937 10.2976 9.87893 9.87807C10.2985 9.45851 10.833 9.17279 11.415 9.05703C11.9969 8.94128 12.6001 9.00069 13.1483 9.22775C13.6965 9.45481 14.165 9.83933 14.4947 10.3327C14.8243 10.826 15.0002 11.406 15.0002 11.9994C15.0002 12.795 14.6842 13.5581 14.1216 14.1207C13.559 14.6833 12.7959 14.9994 12.0002 14.9994Z" fill="#374957"/>
<path d="M11.9997 13.0006C12.552 13.0006 12.9997 12.5529 12.9997 12.0006C12.9997 11.4483 12.552 11.0006 11.9997 11.0006C11.4474 11.0006 10.9997 11.4483 10.9997 12.0006C10.9997 12.5529 11.4474 13.0006 11.9997 13.0006Z" fill="#374957"/>
</g>
<defs>
<clipPath id="clip0_403_3652">
<rect width="24" height="24" fill="white"/>
</clipPath>
</defs>
</svg>
