<svg width="24" height="24" viewBox="0 0 24 24" fill="none" xmlns="http://www.w3.org/2000/svg">
<g clip-path="url(#clip0_403_3378)">
<path d="M24 13.0007H0V11.0007H24V13.0007ZM8.886 0.427726L8.786 0.359726C8.40684 0.132289 7.97415 0.00947458 7.53205 0.00380656C7.08994 -0.00186146 6.65424 0.10982 6.26938 0.327462C5.88452 0.545104 5.56426 0.86092 5.34126 1.24271C5.11827 1.62449 5.00051 2.05859 5 2.50073V9.00073H19.916L8.886 0.427726ZM7 2.50073C7 2.41603 7.02151 2.33271 7.06252 2.2586C7.10353 2.18449 7.1627 2.12201 7.23447 2.07703C7.30624 2.03205 7.38826 2.00604 7.47284 2.00144C7.55741 1.99684 7.64177 2.0138 7.718 2.05073L14.084 7.00073H7V2.50073ZM8.787 23.6417L19.916 15.0007H5V21.5007C4.99816 21.9439 5.11445 22.3796 5.33691 22.7629C5.55938 23.1463 5.87997 23.4634 6.26569 23.6817C6.65142 23.8999 7.08834 24.0115 7.53149 24.0048C7.97464 23.9981 8.40802 23.8735 8.787 23.6437V23.6417ZM14.084 17.0007L7.718 21.9487C7.64193 21.9856 7.55775 22.0026 7.47334 21.998C7.38892 21.9935 7.30703 21.9677 7.23532 21.923C7.1636 21.8782 7.1044 21.816 7.06324 21.7422C7.02209 21.6683 7.00033 21.5853 7 21.5007V17.0007H14.084Z" fill="#374957"/>
</g>
<defs>
<clipPath id="clip0_403_3378">
<rect width="24" height="24" fill="white"/>
</clipPath>
</defs>
</svg>
