<svg width="24" height="24" viewBox="0 0 24 24" fill="none" xmlns="http://www.w3.org/2000/svg">
<g clip-path="url(#clip0_403_3295)">
<path d="M2 5.99C1.46957 5.99 0.960859 6.20071 0.585786 6.57579C0.210714 6.95086 0 7.45957 0 7.99L0 16.004C0 16.5344 0.210714 17.0431 0.585786 17.4182C0.960859 17.7933 1.46957 18.004 2 18.004H4.8L12 24V0L4.8 5.99H2ZM10 4.268V19.729L5.525 16.007H2V7.993H5.525L10 4.268Z" fill="#374957"/>
<path d="M19.9997 12.0005C19.9994 10.6738 19.4728 9.40134 18.5354 8.46245C17.598 7.52355 16.3264 6.99491 14.9997 6.99252H13.9997V8.99252H14.9997C15.7967 8.99252 16.561 9.30912 17.1245 9.87266C17.6881 10.4362 18.0047 11.2005 18.0047 11.9975C18.0047 12.7945 17.6881 13.5588 17.1245 14.1224C16.561 14.6859 15.7967 15.0025 14.9997 15.0025H13.9997V17.0025H14.9997C16.3253 16.9999 17.5958 16.472 18.533 15.5344C19.4702 14.5969 19.9976 13.3261 19.9997 12.0005V12.0005Z" fill="#374957"/>
<path d="M14.9997 2.9843H13.9997V4.9843H14.9997C16.8594 4.9843 18.6429 5.72306 19.9579 7.03807C21.2729 8.35307 22.0117 10.1366 22.0117 11.9963C22.0117 13.856 21.2729 15.6395 19.9579 16.9545C18.6429 18.2695 16.8594 19.0083 14.9997 19.0083H13.9997V21.0083H14.9997C17.3906 21.0083 19.6836 20.0585 21.3743 18.3679C23.0649 16.6772 24.0147 14.3842 24.0147 11.9933C24.0147 9.60238 23.0649 7.30937 21.3743 5.61873C19.6836 3.92809 17.3906 2.9783 14.9997 2.9783V2.9843Z" fill="#374957"/>
</g>
<defs>
<clipPath id="clip0_403_3295">
<rect width="24" height="24" fill="white"/>
</clipPath>
</defs>
</svg>
