<svg width="32" height="32" viewBox="0 0 32 32" fill="none" xmlns="http://www.w3.org/2000/svg">
<g clip-path="url(#clip0_403_3428)" filter="url(#filter0_d_403_3428)">
<path d="M16 0C13.6266 0 11.3066 0.703788 9.33316 2.02236C7.35977 3.34094 5.8217 5.21509 4.91345 7.4078C4.0052 9.60051 3.76756 12.0133 4.23058 14.3411C4.6936 16.6689 5.83649 18.8071 7.51472 20.4853C9.19295 22.1635 11.3312 23.3064 13.6589 23.7694C15.9867 24.2324 18.3995 23.9948 20.5922 23.0866C22.7849 22.1783 24.6591 20.6402 25.9776 18.6668C27.2962 16.6935 28 14.3734 28 12C27.9966 8.81846 26.7312 5.76821 24.4815 3.51852C22.2318 1.26883 19.1815 0.00344108 16 0V0ZM17 21.949V19H15V21.949C12.7062 21.7154 10.5632 20.6976 8.93282 19.0672C7.30245 17.4368 6.28456 15.2938 6.05101 13H9.00001V11H6.05101C6.28456 8.70617 7.30245 6.56318 8.93282 4.93281C10.5632 3.30244 12.7062 2.28456 15 2.051V5H17V2.051C19.2938 2.28456 21.4368 3.30244 23.0672 4.93281C24.6976 6.56318 25.7154 8.70617 25.949 11H23V13H25.949C25.7154 15.2938 24.6976 17.4368 23.0672 19.0672C21.4368 20.6976 19.2938 21.7154 17 21.949V21.949ZM17 11H19V13H17V15H15V13H13V11H15V9H17V11Z" fill="#374957"/>
</g>
<defs>
<filter id="filter0_d_403_3428" x="0" y="0" width="32" height="32" filterUnits="userSpaceOnUse" color-interpolation-filters="sRGB">
<feFlood flood-opacity="0" result="BackgroundImageFix"/>
<feColorMatrix in="SourceAlpha" type="matrix" values="0 0 0 0 0 0 0 0 0 0 0 0 0 0 0 0 0 0 127 0" result="hardAlpha"/>
<feOffset dy="4"/>
<feGaussianBlur stdDeviation="2"/>
<feComposite in2="hardAlpha" operator="out"/>
<feColorMatrix type="matrix" values="0 0 0 0 0 0 0 0 0 0 0 0 0 0 0 0 0 0 0.25 0"/>
<feBlend mode="normal" in2="BackgroundImageFix" result="effect1_dropShadow_403_3428"/>
<feBlend mode="normal" in="SourceGraphic" in2="effect1_dropShadow_403_3428" result="shape"/>
</filter>
<clipPath id="clip0_403_3428">
<rect width="24" height="24" fill="white" transform="translate(4)"/>
</clipPath>
</defs>
</svg>
