<svg width="24" height="24" viewBox="0 0 24 24" fill="none" xmlns="http://www.w3.org/2000/svg">
<g clip-path="url(#clip0_403_3563)">
<path d="M14.4136 0H4.99963C4.20398 0 3.44092 0.31607 2.87831 0.87868C2.3157 1.44129 1.99963 2.20435 1.99963 3V24H21.9996V7.586L14.4136 0ZM14.9996 3.414L18.5856 7H14.9996V3.414ZM3.99963 22V3C3.99963 2.73478 4.10499 2.48043 4.29253 2.29289C4.48006 2.10536 4.73442 2 4.99963 2H12.9996V9H19.9996V22H3.99963ZM12.9996 14H15.9996V16H12.9996V19H10.9996V16H7.99963V14H10.9996V11H12.9996V14Z" fill="#374957"/>
</g>
<defs>
<clipPath id="clip0_403_3563">
<rect width="24" height="24" fill="white"/>
</clipPath>
</defs>
</svg>
