<svg width="24" height="24" viewBox="0 0 24 24" fill="none" xmlns="http://www.w3.org/2000/svg">
<g clip-path="url(#clip0_403_3569)">
<path d="M21 0H16.586L11 5.586V10.705C7.734 13.12 3.419 16.338 2.879 16.879C2.4439 17.317 2.15489 17.8789 2.05159 18.4875C1.9483 19.0962 2.03576 19.722 2.302 20.279L0 22.586L1.414 24L3.714 21.7C4.27115 21.9718 4.89945 22.062 5.51058 21.9582C6.1217 21.8543 6.6849 21.5615 7.121 21.121C7.662 20.58 10.88 16.266 13.3 13H18.419L24 7.414V3C24 2.20435 23.6839 1.44129 23.1213 0.87868C22.5587 0.31607 21.7956 0 21 0V0ZM5.707 19.707C5.51687 19.8895 5.26354 19.9914 5 19.9914C4.73646 19.9914 4.48313 19.8895 4.293 19.707C4.10553 19.5195 4.00021 19.2652 4.00021 19C4.00021 18.7348 4.10553 18.4805 4.293 18.293C4.632 17.957 7.293 15.95 10.241 13.759C8.049 16.706 6.042 19.369 5.707 19.707V19.707ZM22 6.586L17.586 11H14.771L15.762 9.652L20.707 4.707L19.293 3.293L14.349 8.237L13 9.229V6.414L17.414 2H21C21.2652 2 21.5196 2.10536 21.7071 2.29289C21.8946 2.48043 22 2.73478 22 3V6.586Z" fill="#374957"/>
</g>
<defs>
<clipPath id="clip0_403_3569">
<rect width="24" height="24" fill="white"/>
</clipPath>
</defs>
</svg>
