<svg width="32" height="32" viewBox="0 0 32 32" fill="none" xmlns="http://www.w3.org/2000/svg">
<g clip-path="url(#clip0_403_3393)" filter="url(#filter0_d_403_3393)">
<path d="M19.0004 24H13.0004V20.487C11.9577 20.1181 10.9919 19.5601 10.1514 18.841L7.10742 20.6L4.10742 15.4L7.15042 13.645C6.95053 12.5574 6.95053 11.4426 7.15042 10.355L4.10742 8.6L7.10742 3.4L10.1514 5.159C10.9919 4.43993 11.9577 3.88194 13.0004 3.513V0H19.0004V3.513C20.0432 3.88194 21.009 4.43993 21.8494 5.159L24.8934 3.4L27.8934 8.6L24.8504 10.355C25.0503 11.4426 25.0503 12.5574 24.8504 13.645L27.8934 15.4L24.8934 20.6L21.8494 18.842C21.0089 19.5607 20.0431 20.1184 19.0004 20.487V24ZM15.0004 22H17.0004V18.973L17.7514 18.779C18.9834 18.4598 20.1048 17.8101 20.9944 16.9L21.5374 16.347L24.1604 17.862L25.1604 16.13L22.5404 14.617L22.7464 13.871C23.0851 12.6439 23.0851 11.3481 22.7464 10.121L22.5404 9.375L25.1604 7.862L24.1604 6.13L21.5374 7.649L20.9944 7.1C20.1043 6.19134 18.983 5.54302 17.7514 5.225L17.0004 5.027V2H15.0004V5.027L14.2494 5.221C13.0174 5.54015 11.896 6.18988 11.0064 7.1L10.4634 7.653L7.84042 6.134L6.84042 7.866L9.46042 9.379L9.25442 10.125C8.91578 11.3521 8.91578 12.6479 9.25442 13.875L9.46042 14.621L6.84042 16.134L7.84042 17.866L10.4634 16.351L11.0064 16.904C11.8965 17.8127 13.0178 18.461 14.2494 18.779L15.0004 18.973V22ZM16.0004 16C15.2093 16 14.4359 15.7654 13.7781 15.3259C13.1203 14.8864 12.6077 14.2616 12.3049 13.5307C12.0022 12.7998 11.9229 11.9956 12.0773 11.2196C12.2316 10.4437 12.6126 9.73098 13.172 9.17157C13.7314 8.61216 14.4441 8.2312 15.2201 8.07686C15.996 7.92252 16.8003 8.00173 17.5312 8.30448C18.2621 8.60723 18.8868 9.11992 19.3263 9.77772C19.7658 10.4355 20.0004 11.2089 20.0004 12C20.0004 13.0609 19.579 14.0783 18.8288 14.8284C18.0787 15.5786 17.0613 16 16.0004 16ZM16.0004 10C15.6049 10 15.2182 10.1173 14.8893 10.3371C14.5604 10.5568 14.304 10.8692 14.1527 11.2346C14.0013 11.6001 13.9617 12.0022 14.0389 12.3902C14.116 12.7781 14.3065 13.1345 14.5862 13.4142C14.8659 13.6939 15.2223 13.8844 15.6102 13.9616C15.9982 14.0387 16.4003 13.9991 16.7658 13.8478C17.1312 13.6964 17.4436 13.44 17.6634 13.1111C17.8831 12.7822 18.0004 12.3956 18.0004 12C18.0004 11.4696 17.7897 10.9609 17.4146 10.5858C17.0396 10.2107 16.5309 10 16.0004 10Z" fill="#374957"/>
</g>
<defs>
<filter id="filter0_d_403_3393" x="0" y="0" width="32" height="32" filterUnits="userSpaceOnUse" color-interpolation-filters="sRGB">
<feFlood flood-opacity="0" result="BackgroundImageFix"/>
<feColorMatrix in="SourceAlpha" type="matrix" values="0 0 0 0 0 0 0 0 0 0 0 0 0 0 0 0 0 0 127 0" result="hardAlpha"/>
<feOffset dy="4"/>
<feGaussianBlur stdDeviation="2"/>
<feComposite in2="hardAlpha" operator="out"/>
<feColorMatrix type="matrix" values="0 0 0 0 0 0 0 0 0 0 0 0 0 0 0 0 0 0 0.25 0"/>
<feBlend mode="normal" in2="BackgroundImageFix" result="effect1_dropShadow_403_3393"/>
<feBlend mode="normal" in="SourceGraphic" in2="effect1_dropShadow_403_3393" result="shape"/>
</filter>
<clipPath id="clip0_403_3393">
<rect width="24" height="24" fill="white" transform="translate(4)"/>
</clipPath>
</defs>
</svg>
