<svg width="24" height="24" viewBox="0 0 24 24" fill="none" xmlns="http://www.w3.org/2000/svg">
<g clip-path="url(#clip0_403_3632)">
<path d="M0.999817 24H22.9998V3C22.9998 2.20435 22.6837 1.44129 22.1211 0.87868C21.5585 0.31607 20.7955 0 19.9998 0L3.99982 0C3.20417 0 2.44111 0.31607 1.8785 0.87868C1.31589 1.44129 0.999817 2.20435 0.999817 3V24ZM2.99982 3C2.99982 2.73478 3.10517 2.48043 3.29271 2.29289C3.48025 2.10536 3.7346 2 3.99982 2H19.9998C20.265 2 20.5194 2.10536 20.7069 2.29289C20.8945 2.48043 20.9998 2.73478 20.9998 3V22H2.99982V3ZM4.99982 10H18.9998V4H4.99982V10ZM6.99982 6H16.9998V8H6.99982V6ZM4.99982 13H6.99982V15H4.99982V13ZM8.99982 13H10.9998V15H8.99982V13ZM14.9998 13V15H12.9998V13H14.9998ZM4.99982 17H6.99982V19H4.99982V17ZM8.99982 17H10.9998V19H8.99982V17ZM16.9998 13H18.9998V15H16.9998V13ZM12.9998 17H18.9998V19H12.9998V17Z" fill="#374957"/>
</g>
<defs>
<clipPath id="clip0_403_3632">
<rect width="24" height="24" fill="white"/>
</clipPath>
</defs>
</svg>
