<svg width="24" height="24" viewBox="0 0 24 24" fill="none" xmlns="http://www.w3.org/2000/svg">
<g clip-path="url(#clip0_403_3335)">
<path d="M23.124 0.875447C22.8135 0.562037 22.4368 0.322055 22.0215 0.173077C21.6063 0.0240987 21.1629 -0.030101 20.724 0.0144474C18.452 0.235447 12.71 1.21445 8.461 5.46045C4.78207 9.14397 1.97381 13.6039 0.242 18.5134L0 19.1214L4.855 23.9764L5.464 23.7384C10.377 22.0121 14.8427 19.2106 18.535 15.5384C22.783 11.2904 23.76 5.54745 23.981 3.27545C24.0251 2.83689 23.9711 2.394 23.8229 1.97889C23.6747 1.56379 23.4359 1.18687 23.124 0.875447V0.875447ZM17.124 14.1244C13.7968 17.4619 9.77611 20.0265 5.347 21.6364L4.562 20.8514L16.707 8.70645L15.293 7.29245L3.148 19.4374L2.348 18.6374C3.97602 14.2179 6.54417 10.2044 9.875 6.87445C13.667 3.08345 18.861 2.20545 20.919 2.00445C21.0637 1.99113 21.2095 2.00975 21.3462 2.059C21.4829 2.10825 21.6071 2.18692 21.71 2.28945C21.814 2.39152 21.894 2.51545 21.9441 2.65227C21.9943 2.78908 22.0134 2.93534 22 3.08045C21.794 5.13845 20.916 10.3334 17.125 14.1244H17.124Z" fill="#374957"/>
</g>
<defs>
<clipPath id="clip0_403_3335">
<rect width="24" height="24" fill="white"/>
</clipPath>
</defs>
</svg>
