<svg width="24" height="24" viewBox="0 0 24 24" fill="none" xmlns="http://www.w3.org/2000/svg">
<g clip-path="url(#clip0_403_3458)">
<path d="M15 3C15 2.20435 14.6839 1.44129 14.1213 0.87868C13.5587 0.31607 12.7956 0 12 0L0 0V24H2V13H10V14C10 14.7956 10.3161 15.5587 10.8787 16.1213C11.4413 16.6839 12.2044 17 13 17H24V4H15V3ZM2 2H12C12.2652 2 12.5196 2.10536 12.7071 2.29289C12.8946 2.48043 13 2.73478 13 3V11H2V2ZM22 6V15H13C12.7348 15 12.4804 14.8946 12.2929 14.7071C12.1054 14.5196 12 14.2652 12 14V13H15V6H22Z" fill="#374957"/>
</g>
<defs>
<clipPath id="clip0_403_3458">
<rect width="24" height="24" fill="white"/>
</clipPath>
</defs>
</svg>
