<svg width="32" height="32" viewBox="0 0 32 32" fill="none" xmlns="http://www.w3.org/2000/svg">
<g clip-path="url(#clip0_403_3557)" filter="url(#filter0_d_403_3557)">
<path d="M27.3593 9.8C27.7583 9.28855 27.9818 8.66209 27.9966 8.01358C28.0113 7.36508 27.8166 6.72909 27.4413 6.2L23.9103 1.257C23.6329 0.86832 23.2666 0.551492 22.8421 0.332861C22.4175 0.11423 21.9469 0.000113137 21.4693 0L10.5313 0C10.0538 0.000113137 9.58316 0.11423 9.15859 0.332861C8.73403 0.551492 8.36779 0.86832 8.09033 1.257L4.55933 6.2C4.18478 6.72953 3.99078 7.36564 4.00609 8.01407C4.0214 8.6625 4.2452 9.28874 4.64433 9.8L16.0003 24.108L27.3593 9.8ZM11.2533 9L14.0533 18.432L6.56233 9H11.2533ZM25.4383 9L17.9523 18.432L20.7473 9H25.4383ZM18.6613 9L16.0003 17.979L13.3393 9H18.6613ZM13.3263 7L14.7543 2H17.2463L18.6743 7H13.3263ZM22.2833 2.419L25.5553 7H20.7553L19.3263 2H21.4693C21.6286 1.99998 21.7855 2.038 21.9271 2.11088C22.0687 2.18376 22.1908 2.28939 22.2833 2.419V2.419ZM9.71733 2.419C9.80985 2.28939 9.93199 2.18376 10.0736 2.11088C10.2152 2.038 10.3721 1.99998 10.5313 2H12.6743L11.2463 7H6.44633L9.71733 2.419Z" fill="#374957"/>
</g>
<defs>
<filter id="filter0_d_403_3557" x="0" y="0" width="32" height="32" filterUnits="userSpaceOnUse" color-interpolation-filters="sRGB">
<feFlood flood-opacity="0" result="BackgroundImageFix"/>
<feColorMatrix in="SourceAlpha" type="matrix" values="0 0 0 0 0 0 0 0 0 0 0 0 0 0 0 0 0 0 127 0" result="hardAlpha"/>
<feOffset dy="4"/>
<feGaussianBlur stdDeviation="2"/>
<feComposite in2="hardAlpha" operator="out"/>
<feColorMatrix type="matrix" values="0 0 0 0 0 0 0 0 0 0 0 0 0 0 0 0 0 0 0.25 0"/>
<feBlend mode="normal" in2="BackgroundImageFix" result="effect1_dropShadow_403_3557"/>
<feBlend mode="normal" in="SourceGraphic" in2="effect1_dropShadow_403_3557" result="shape"/>
</filter>
<clipPath id="clip0_403_3557">
<rect width="24" height="24" fill="white" transform="translate(4)"/>
</clipPath>
</defs>
</svg>
