<svg width="32" height="32" viewBox="0 0 32 32" fill="none" xmlns="http://www.w3.org/2000/svg">
<g clip-path="url(#clip0_403_3398)" filter="url(#filter0_d_403_3398)">
<path d="M27.2 0.800583C26.8291 0.426717 26.3574 0.168843 25.8425 0.0583991C25.3276 -0.0520447 24.7916 -0.0102865 24.3 0.178583L4 8.32258V9.00058C4.0045 12.9774 5.5863 16.7901 8.39837 19.6022C11.2104 22.4143 15.0231 23.9961 19 24.0006H19.676L27.832 3.67058C28.0141 3.18212 28.0513 2.65149 27.9392 2.1424C27.8271 1.6333 27.5704 1.16738 27.2 0.800583V0.800583ZM25.01 2.04558C25.1411 1.99521 25.2841 1.98457 25.4213 2.01498C25.5584 2.04539 25.6835 2.11551 25.781 2.21658C25.8798 2.30905 25.9496 2.42816 25.9821 2.55949C26.0145 2.69082 26.0083 2.82874 25.964 2.95658L25.288 4.64058C19.58 2.68458 16.374 10.7666 21.822 13.2796L19.93 18.0006C13.551 17.9706 10.029 14.4476 10 8.06858L25.01 2.04558ZM21 9.00058C21.0005 8.5761 21.1028 8.15793 21.2983 7.78113C21.4937 7.40433 21.7767 7.0799 22.1234 6.83503C22.4702 6.59016 22.8706 6.432 23.291 6.37381C23.7115 6.31561 24.1398 6.35909 24.54 6.50058L22.567 11.4186C22.1015 11.2081 21.7064 10.8683 21.4285 10.4396C21.1507 10.0109 21.002 9.51142 21 9.00058ZM18.331 21.9836C15.1198 21.8139 12.085 20.4618 9.8114 18.1878C7.53777 15.9138 6.18616 12.8788 6.017 9.66758L8.033 8.85858C8.354 15.5646 12.433 19.6456 19.139 19.9676L18.331 21.9836Z" fill="#374957"/>
<path d="M15 13C15.5304 13 16.0391 12.7893 16.4142 12.4142C16.7893 12.0391 17 11.5304 17 11C17 10.4696 16.7893 9.96086 16.4142 9.58579C16.0391 9.21071 15.5304 9 15 9C14.4696 9 13.9609 9.21071 13.5858 9.58579C13.2107 9.96086 13 10.4696 13 11C13 11.5304 13.2107 12.0391 13.5858 12.4142C13.9609 12.7893 14.4696 13 15 13Z" fill="#374957"/>
</g>
<defs>
<filter id="filter0_d_403_3398" x="0" y="0" width="32" height="32" filterUnits="userSpaceOnUse" color-interpolation-filters="sRGB">
<feFlood flood-opacity="0" result="BackgroundImageFix"/>
<feColorMatrix in="SourceAlpha" type="matrix" values="0 0 0 0 0 0 0 0 0 0 0 0 0 0 0 0 0 0 127 0" result="hardAlpha"/>
<feOffset dy="4"/>
<feGaussianBlur stdDeviation="2"/>
<feComposite in2="hardAlpha" operator="out"/>
<feColorMatrix type="matrix" values="0 0 0 0 0 0 0 0 0 0 0 0 0 0 0 0 0 0 0.25 0"/>
<feBlend mode="normal" in2="BackgroundImageFix" result="effect1_dropShadow_403_3398"/>
<feBlend mode="normal" in="SourceGraphic" in2="effect1_dropShadow_403_3398" result="shape"/>
</filter>
<clipPath id="clip0_403_3398">
<rect width="24" height="24" fill="white" transform="translate(4)"/>
</clipPath>
</defs>
</svg>
