<svg width="24" height="24" viewBox="0 0 24 24" fill="none" xmlns="http://www.w3.org/2000/svg">
<g clip-path="url(#clip0_403_3769)">
<path d="M16.0003 16C16.0003 16.1978 15.9417 16.3911 15.8318 16.5556C15.7219 16.72 15.5658 16.8482 15.383 16.9239C15.2003 16.9996 14.9992 17.0194 14.8053 16.9808C14.6113 16.9422 14.4331 16.847 14.2932 16.7071C14.1534 16.5673 14.0581 16.3891 14.0196 16.1951C13.981 16.0011 14.0008 15.8 14.0765 15.6173C14.1522 15.4346 14.2803 15.2784 14.4448 15.1685C14.6092 15.0586 14.8026 15 15.0003 15C15.2656 15 15.5199 15.1054 15.7075 15.2929C15.895 15.4804 16.0003 15.7348 16.0003 16ZM19.0003 15C18.8026 15 18.6092 15.0586 18.4448 15.1685C18.2803 15.2784 18.1522 15.4346 18.0765 15.6173C18.0008 15.8 17.981 16.0011 18.0196 16.1951C18.0581 16.3891 18.1534 16.5673 18.2932 16.7071C18.4331 16.847 18.6113 16.9422 18.8053 16.9808C18.9992 17.0194 19.2003 16.9996 19.383 16.9239C19.5658 16.8482 19.7219 16.72 19.8318 16.5556C19.9417 16.3911 20.0003 16.1978 20.0003 16C20.0003 15.7348 19.895 15.4804 19.7075 15.2929C19.5199 15.1054 19.2656 15 19.0003 15ZM17.0003 12C16.8026 12 16.6092 12.0586 16.4448 12.1685C16.2803 12.2784 16.1522 12.4346 16.0765 12.6173C16.0008 12.8 15.981 13.0011 16.0196 13.1951C16.0581 13.3891 16.1534 13.5673 16.2932 13.7071C16.4331 13.847 16.6113 13.9422 16.8053 13.9808C16.9992 14.0194 17.2003 13.9996 17.383 13.9239C17.5658 13.8482 17.7219 13.72 17.8318 13.5556C17.9417 13.3911 18.0003 13.1978 18.0003 13C18.0003 12.7348 17.895 12.4804 17.7075 12.2929C17.5199 12.1054 17.2656 12 17.0003 12ZM24.0003 16C24.002 17.528 23.5655 19.0245 22.7426 20.312C21.9196 21.5995 20.7448 22.6241 19.3574 23.2643C17.9699 23.9046 16.428 24.1335 14.9144 23.9242C13.4008 23.7148 11.9789 23.0758 10.8173 22.083C10.5223 22.6719 10.1489 23.2182 9.70735 23.707L9.41435 24H2.58635L2.29335 23.707C0.713086 21.8391 -0.105597 19.4444 0.000345965 17C0.120415 15.0638 0.716733 13.1873 1.73635 11.537C2.41798 10.4679 2.85 9.25897 3.00035 8C2.88631 7.25882 2.70077 6.53042 2.44635 5.825C2.21826 5.23887 2.0683 4.62527 2.00035 4C2.00035 2.93913 2.42177 1.92172 3.17192 1.17157C3.92206 0.421427 4.93948 0 6.00035 0C7.06121 0 8.07863 0.421427 8.82877 1.17157C9.57892 1.92172 10.0003 2.93913 10.0003 4C9.93239 4.62527 9.78244 5.23887 9.55435 5.825C9.29992 6.53042 9.11439 7.25882 9.00035 8C9.0857 9.00243 9.3957 9.97276 9.90735 10.839C10.9636 9.58638 12.3795 8.68891 13.9631 8.26831C15.5467 7.8477 17.2213 7.92432 18.7599 8.48776C20.2985 9.0512 21.6265 10.0742 22.564 11.418C23.5014 12.7619 24.0029 14.3615 24.0003 16V16ZM4.00035 4C4.01635 4.15 4.21135 4.772 4.35435 5.226C4.69224 6.11778 4.9095 7.05069 5.00035 8H7.00035C7.09119 7.05069 7.30845 6.11778 7.64635 5.226C7.78694 4.81505 7.90511 4.39677 8.00035 3.973C7.99677 3.44257 7.78262 2.93528 7.40501 2.56274C7.02741 2.1902 6.51728 1.98292 5.98685 1.9865C5.45641 1.99008 4.94913 2.20423 4.57659 2.58183C4.20405 2.95944 3.99677 3.46957 4.00035 4V4ZM10.0003 17C9.8676 15.3867 9.34904 13.829 8.48835 12.458C8.05527 11.6672 7.68093 10.8457 7.36835 10H4.63235C4.31976 10.8457 3.94542 11.6672 3.51235 12.458C2.65165 13.829 2.13309 15.3867 2.00035 17C1.94028 18.7807 2.45423 20.5336 3.46635 22H8.53535C9.54718 20.5335 10.0608 18.7806 10.0003 17ZM22.0003 16C22.0021 14.6964 21.5786 13.4278 20.7941 12.3866C20.0096 11.3455 18.9069 10.5886 17.6534 10.2309C16.3998 9.87315 15.0637 9.93407 13.8479 10.4044C12.6321 10.8747 11.6028 11.7288 10.9163 12.837C11.5861 14.1255 11.9567 15.5485 12.0003 17C12.0048 18.0346 11.8702 19.0652 11.6003 20.064C12.4179 20.9511 13.4841 21.5708 14.6595 21.8421C15.835 22.1135 17.065 22.0237 18.1886 21.5846C19.3122 21.1455 20.2772 20.3776 20.9573 19.3812C21.6373 18.3848 22.0009 17.2064 22.0003 16Z" fill="#374957"/>
</g>
<defs>
<clipPath id="clip0_403_3769">
<rect width="24" height="24" fill="white"/>
</clipPath>
</defs>
</svg>
