<svg width="32" height="32" viewBox="0 0 32 32" fill="none" xmlns="http://www.w3.org/2000/svg">
<g clip-path="url(#clip0_403_3491)" filter="url(#filter0_d_403_3491)">
<path d="M26.293 2.293L23 5.586V19H20V3C20 2.20435 19.6839 1.44129 19.1213 0.87868C18.5587 0.31607 17.7956 0 17 0L7 0C6.20435 0 5.44129 0.31607 4.87868 0.87868C4.31607 1.44129 4 2.20435 4 3V24H20V21H25V6.414L27.707 3.707L26.293 2.293ZM7 2H17C17.2652 2 17.5196 2.10536 17.7071 2.29289C17.8946 2.48043 18 2.73478 18 3V9H16C15.9961 8.04289 15.6462 7.11946 15.015 6.4L16.707 4.707L15.293 3.293L13.339 5.247C12.7369 5.02379 12.0896 4.95028 11.4527 5.03279C10.8159 5.11529 10.2087 5.35135 9.68337 5.72063C9.15803 6.08991 8.73032 6.58135 8.43708 7.15262C8.14383 7.7239 7.99383 8.35789 8 9H6V3C6 2.73478 6.10536 2.48043 6.29289 2.29289C6.48043 2.10536 6.73478 2 7 2V2ZM14 9H10C10 8.46957 10.2107 7.96086 10.5858 7.58579C10.9609 7.21071 11.4696 7 12 7C12.5304 7 13.0391 7.21071 13.4142 7.58579C13.7893 7.96086 14 8.46957 14 9V9ZM6 22V11H18V22H6Z" fill="#374957"/>
</g>
<defs>
<filter id="filter0_d_403_3491" x="0" y="0" width="32" height="32" filterUnits="userSpaceOnUse" color-interpolation-filters="sRGB">
<feFlood flood-opacity="0" result="BackgroundImageFix"/>
<feColorMatrix in="SourceAlpha" type="matrix" values="0 0 0 0 0 0 0 0 0 0 0 0 0 0 0 0 0 0 127 0" result="hardAlpha"/>
<feOffset dy="4"/>
<feGaussianBlur stdDeviation="2"/>
<feComposite in2="hardAlpha" operator="out"/>
<feColorMatrix type="matrix" values="0 0 0 0 0 0 0 0 0 0 0 0 0 0 0 0 0 0 0.25 0"/>
<feBlend mode="normal" in2="BackgroundImageFix" result="effect1_dropShadow_403_3491"/>
<feBlend mode="normal" in="SourceGraphic" in2="effect1_dropShadow_403_3491" result="shape"/>
</filter>
<clipPath id="clip0_403_3491">
<rect width="24" height="24" fill="white" transform="translate(4)"/>
</clipPath>
</defs>
</svg>
