<svg width="24" height="24" viewBox="0 0 24 24" fill="none" xmlns="http://www.w3.org/2000/svg">
<g clip-path="url(#clip0_403_3473)">
<path d="M21 24H3V3C3 2.20435 3.31607 1.44129 3.87868 0.87868C4.44129 0.31607 5.20435 0 6 0L18 0C18.7956 0 19.5587 0.31607 20.1213 0.87868C20.6839 1.44129 21 2.20435 21 3V24ZM5 22H19V3C19 2.73478 18.8946 2.48043 18.7071 2.29289C18.5196 2.10536 18.2652 2 18 2H6C5.73478 2 5.48043 2.10536 5.29289 2.29289C5.10536 2.48043 5 2.73478 5 3V22Z" fill="#374957"/>
<path d="M11.9999 9C11.4066 9 10.8266 8.82405 10.3332 8.49441C9.83988 8.16477 9.45536 7.69623 9.2283 7.14805C9.00124 6.59987 8.94183 5.99667 9.05758 5.41473C9.17334 4.83279 9.45906 4.29824 9.87862 3.87868C10.2982 3.45912 10.8327 3.1734 11.4147 3.05765C11.9966 2.94189 12.5998 3.0013 13.148 3.22836C13.6962 3.45543 14.1647 3.83994 14.4943 4.33329C14.824 4.82664 14.9999 5.40666 14.9999 6C14.9999 6.79565 14.6839 7.55871 14.1213 8.12132C13.5587 8.68393 12.7956 9 11.9999 9ZM11.9999 5C11.8022 5 11.6088 5.05865 11.4444 5.16853C11.2799 5.27841 11.1517 5.43459 11.0761 5.61732C11.0004 5.80004 10.9806 6.00111 11.0192 6.19509C11.0577 6.38907 11.153 6.56726 11.2928 6.70711C11.4327 6.84696 11.6109 6.9422 11.8049 6.98079C11.9988 7.01937 12.1999 6.99957 12.3826 6.92388C12.5654 6.84819 12.7215 6.72002 12.8314 6.55557C12.9413 6.39112 12.9999 6.19778 12.9999 6C12.9999 5.73479 12.8946 5.48043 12.707 5.2929C12.5195 5.10536 12.2652 5 11.9999 5Z" fill="#374957"/>
<path d="M12.0002 19.9993C11.0113 19.9993 10.0446 19.7061 9.2224 19.1567C8.40015 18.6073 7.75929 17.8264 7.38085 16.9128C7.00241 15.9991 6.90339 14.9938 7.09632 14.0239C7.28925 13.054 7.76545 12.1631 8.46471 11.4638C9.16398 10.7645 10.0549 10.2883 11.0248 10.0954C11.9947 9.90248 13 10.0015 13.9137 10.3799C14.8273 10.7584 15.6082 11.3992 16.1576 12.2215C16.707 13.0437 17.0002 14.0104 17.0002 14.9993C16.9987 16.3249 16.4714 17.5958 15.534 18.5331C14.5967 19.4705 13.3258 19.9977 12.0002 19.9993V19.9993ZM12.0002 11.9993C11.4069 11.9993 10.8269 12.1753 10.3335 12.5049C9.84019 12.8346 9.45567 13.3031 9.22861 13.8513C9.00154 14.3995 8.94213 15.0027 9.05789 15.5846C9.17365 16.1665 9.45937 16.7011 9.87893 17.1207C10.2985 17.5402 10.833 17.8259 11.415 17.9417C11.9969 18.0574 12.6001 17.998 13.1483 17.771C13.6965 17.5439 14.165 17.1594 14.4947 16.666C14.8243 16.1727 15.0002 15.5927 15.0002 14.9993C15.0002 14.2037 14.6842 13.4406 14.1216 12.878C13.559 12.3154 12.7959 11.9993 12.0002 11.9993Z" fill="#374957"/>
<path d="M12.9997 14.0006H10.9997V16.0006H12.9997V14.0006Z" fill="#374957"/>
</g>
<defs>
<clipPath id="clip0_403_3473">
<rect width="24" height="24" fill="white"/>
</clipPath>
</defs>
</svg>
