<svg width="24" height="24" viewBox="0 0 24 24" fill="none" xmlns="http://www.w3.org/2000/svg">
<g clip-path="url(#clip0_403_3637)">
<path d="M13.905 1.24307C13.7402 0.875729 13.4726 0.563882 13.1347 0.345088C12.7967 0.126295 12.4026 0.0098877 12 0.0098877C11.5974 0.0098877 11.2033 0.126295 10.8653 0.345088C10.5274 0.563882 10.2598 0.875729 10.095 1.24307L0 24.0001H24L13.905 1.24307ZM18.263 16.0001H5.737L7.511 12.0001H16.489L18.263 16.0001ZM11.919 2.06207C11.935 2.02707 11.943 2.01007 12 2.01007C12.057 2.01007 12.065 2.02707 12.077 2.05407L15.6 10.0001H8.4L11.919 2.06207ZM4.849 18.0001H19.149L20.923 22.0001H3.075L4.849 18.0001Z" fill="#374957"/>
</g>
<defs>
<clipPath id="clip0_403_3637">
<rect width="24" height="24" fill="white"/>
</clipPath>
</defs>
</svg>
