<svg width="24" height="24" viewBox="0 0 24 24" fill="none" xmlns="http://www.w3.org/2000/svg">
<path d="M12.0001 0.999879C9.44917 0.999016 6.9644 1.81141 4.90669 3.31907C2.84898 4.82673 1.3255 6.95113 0.557529 9.38371C-0.210442 11.8163 -0.182905 14.4303 0.636139 16.8462C1.45518 19.2621 3.02308 21.3539 5.11209 22.8179L5.37109 22.9999H18.6291L18.8881 22.8179C20.9771 21.3539 22.545 19.2621 23.3641 16.8462C24.1831 14.4303 24.2106 11.8163 23.4427 9.38371C22.6747 6.95113 21.1512 4.82673 19.0935 3.31907C17.0358 1.81141 14.551 0.999016 12.0001 0.999879V0.999879ZM17.9881 20.9999H6.01209C4.33012 19.7423 3.08675 17.9872 2.45832 15.9833C1.82988 13.9794 1.84828 11.8286 2.51089 9.83573C3.17351 7.8429 4.44672 6.10925 6.14995 4.88066C7.85319 3.65207 9.89999 2.99089 12.0001 2.99089C14.1002 2.99089 16.147 3.65207 17.8502 4.88066C19.5535 6.10925 20.8267 7.8429 21.4893 9.83573C22.1519 11.8286 22.1703 13.9794 21.5419 15.9833C20.9134 17.9872 19.6701 19.7423 17.9881 20.9999V20.9999ZM20.0001 12.9999C20.003 14.0652 19.7915 15.1202 19.3781 16.102C18.9648 17.0838 18.3581 17.9724 17.5941 18.7149L16.1941 17.2849C16.9574 16.5442 17.5081 15.6123 17.7886 14.5863C18.0692 13.5604 18.0693 12.4779 17.7891 11.4519L19.3641 9.87688C19.7843 10.8644 20.0006 11.9267 20.0001 12.9999ZM6.00009 12.9999C5.99731 13.7983 6.15524 14.5892 6.46448 15.3254C6.77372 16.0615 7.22794 16.7279 7.8001 17.2849L6.40009 18.7149C5.07037 17.4107 4.23735 15.6835 4.04468 13.8309C3.85201 11.9784 4.31176 10.1167 5.34466 8.56683C6.37755 7.01695 7.91886 5.87604 9.70282 5.34081C11.4868 4.80558 13.4016 4.90958 15.1171 5.63488L13.5481 7.20988C12.6596 6.96783 11.7272 6.93435 10.8237 7.11205C9.92011 7.28975 9.06984 7.67382 8.33919 8.2343C7.60854 8.79477 7.01727 9.51649 6.61152 10.3431C6.20578 11.1698 5.99653 12.079 6.00009 12.9999V12.9999ZM13.9261 12.4879C14.0464 12.9206 14.0201 13.3811 13.8511 13.7972C13.6822 14.2134 13.3801 14.562 12.9922 14.7884C12.6043 15.0148 12.1523 15.1064 11.7068 15.0488C11.2613 14.9912 10.8475 14.7877 10.5299 14.4701C10.2123 14.1525 10.0088 13.7386 9.95119 13.2932C9.89361 12.8477 9.98518 12.3957 10.2116 12.0078C10.438 11.6198 10.7865 11.3178 11.2027 11.1489C11.6189 10.9799 12.0793 10.9535 12.5121 11.0739L16.7931 6.79288L18.2071 8.20688L13.9261 12.4879Z" fill="#374957"/>
</svg>
