<svg width="24" height="24" viewBox="0 0 24 24" fill="none" xmlns="http://www.w3.org/2000/svg">
<g clip-path="url(#clip0_403_3773)">
<path d="M24 20.9997H22V14.9997C21.449 1.72971 2.546 1.74071 2 14.9997V20.9997H0V14.9997C0.661 -0.92429 23.345 -0.91129 24 14.9997V20.9997ZM20 14.9997C19.6 4.39971 4.4 4.40671 4 14.9997V20.9997H6V14.9997C6.253 7.06771 17.75 7.07371 18 14.9997V20.9997H20V14.9997ZM16 14.9997C16 13.9388 15.5786 12.9214 14.8284 12.1713C14.0783 11.4211 13.0609 10.9997 12 10.9997C10.9391 10.9997 9.92172 11.4211 9.17157 12.1713C8.42143 12.9214 8 13.9388 8 14.9997V20.9997H10V14.9997C10 14.4693 10.2107 13.9606 10.5858 13.5855C10.9609 13.2104 11.4696 12.9997 12 12.9997C12.5304 12.9997 13.0391 13.2104 13.4142 13.5855C13.7893 13.9606 14 14.4693 14 14.9997V20.9997H16V14.9997Z" fill="#374957"/>
</g>
<defs>
<clipPath id="clip0_403_3773">
<rect width="24" height="24" fill="white"/>
</clipPath>
</defs>
</svg>
