<svg width="32" height="32" viewBox="0 0 32 32" fill="none" xmlns="http://www.w3.org/2000/svg">
<g clip-path="url(#clip0_403_3291)" filter="url(#filter0_d_403_3291)">
<path d="M27.912 20.0271L26.855 14.0671C27.2905 13.6738 27.6194 13.1767 27.811 12.622C28.0027 12.0674 28.0508 11.4733 27.951 10.895C27.8512 10.3168 27.6067 9.77321 27.2402 9.31493C26.8737 8.85664 26.3972 8.49857 25.855 8.27406C25.4556 5.98762 24.2733 3.91132 22.5108 2.4011C20.7483 0.89087 18.5153 0.040783 16.1946 -0.00343302C13.874 -0.047649 11.6103 0.716759 9.79149 2.15875C7.97271 3.60074 6.71218 5.6305 6.22599 7.90006L5.49999 12.0001H6.99999C8.79555 11.989 10.5662 11.5791 12.184 10.8001C12.0656 11.0145 12.0023 11.2551 12 11.5001C11.9986 11.7913 12.0821 12.0767 12.2402 12.3213C12.3983 12.5659 12.6242 12.7592 12.8903 12.8776C13.1564 12.996 13.4512 13.0343 13.7388 12.9879C14.0263 12.9416 14.2941 12.8125 14.5096 12.6164C14.725 12.4204 14.8787 12.1659 14.9518 11.884C15.025 11.6021 15.0146 11.305 14.9217 11.0289C14.8289 10.7528 14.6577 10.5098 14.429 10.3294C14.2003 10.149 13.9241 10.0391 13.634 10.0131C15.7676 8.68188 17.5745 6.88796 18.921 4.76406C18.3321 4.43716 17.692 4.21264 17.028 4.10006C15.49 6.37906 12.217 9.56306 7.89299 9.95906L8.18799 8.29006C8.59627 6.43704 9.64988 4.78947 11.1607 3.64153C12.6715 2.49359 14.5412 1.92003 16.4358 2.02326C18.3305 2.12649 20.1268 2.89979 21.5039 4.20508C22.8811 5.51036 23.7495 7.26266 23.954 9.14906L24.032 9.89506L24.77 10.0281C25.1343 10.0993 25.4593 10.3032 25.682 10.6001C25.9048 10.8971 26.0095 11.2662 25.9759 11.6359C25.9423 12.0056 25.7728 12.3497 25.5002 12.6017C25.2276 12.8537 24.8712 12.9956 24.5 13.0001C24.414 13.0001 23.413 12.8251 23.413 12.8251L23.131 13.6251C22.214 16.2221 19.13 19.0001 16 19.0001C13.139 19.0001 10.322 16.6771 9.15799 14.3001L8.64799 17.1791C9.59892 18.3447 10.7772 19.3045 12.111 20.0001H12V22.0001H7.23799C7.05232 21.9994 6.86915 21.9572 6.70197 21.8764C6.53479 21.7956 6.38784 21.6784 6.27195 21.5333C6.15605 21.3882 6.07416 21.219 6.03228 21.0382C5.99041 20.8573 5.98963 20.6693 6.02999 20.4881L7.17999 13.9881C7.11999 13.9881 7.06099 13.9991 6.99999 13.9991H5.14699L4.06499 20.1151C3.96907 20.5854 3.97894 21.0712 4.09387 21.5373C4.2088 22.0034 4.42592 22.4381 4.72952 22.8099C5.03312 23.1818 5.4156 23.4814 5.84927 23.6873C6.28294 23.8931 6.75695 24 7.23699 24.0001H14V20.7341C15.3097 21.0887 16.6902 21.0887 18 20.7341V24.0001H24.762C25.2565 24.0016 25.7448 23.889 26.1888 23.6712C26.6327 23.4534 27.0205 23.1361 27.322 22.7441C27.6202 22.3657 27.8283 21.9244 27.9305 21.4536C28.0328 20.9829 28.0264 20.495 27.912 20.0271V20.0271ZM25.74 21.5201C25.6248 21.6699 25.4767 21.7911 25.3071 21.8743C25.1375 21.9576 24.9509 22.0006 24.762 22.0001H20V19.9541C22.0641 18.8444 23.7215 17.1065 24.732 14.9921C24.817 14.9871 24.897 14.9631 24.98 14.9521L25.959 20.4521C26.0073 20.6349 26.0126 20.8265 25.9746 21.0117C25.9366 21.197 25.8563 21.371 25.74 21.5201ZM18.5 13.0001C18.2033 13.0001 17.9133 12.9121 17.6666 12.7473C17.42 12.5824 17.2277 12.3482 17.1142 12.0741C17.0006 11.8 16.9709 11.4984 17.0288 11.2074C17.0867 10.9164 17.2296 10.6492 17.4393 10.4394C17.6491 10.2296 17.9164 10.0868 18.2074 10.0289C18.4983 9.971 18.7999 10.0007 19.074 10.1142C19.3481 10.2278 19.5824 10.42 19.7472 10.6667C19.912 10.9134 20 11.2034 20 11.5001C20 11.8979 19.842 12.2794 19.5607 12.5607C19.2793 12.842 18.8978 13.0001 18.5 13.0001Z" fill="#374957"/>
</g>
<defs>
<filter id="filter0_d_403_3291" x="0" y="0" width="32" height="32" filterUnits="userSpaceOnUse" color-interpolation-filters="sRGB">
<feFlood flood-opacity="0" result="BackgroundImageFix"/>
<feColorMatrix in="SourceAlpha" type="matrix" values="0 0 0 0 0 0 0 0 0 0 0 0 0 0 0 0 0 0 127 0" result="hardAlpha"/>
<feOffset dy="4"/>
<feGaussianBlur stdDeviation="2"/>
<feComposite in2="hardAlpha" operator="out"/>
<feColorMatrix type="matrix" values="0 0 0 0 0 0 0 0 0 0 0 0 0 0 0 0 0 0 0.25 0"/>
<feBlend mode="normal" in2="BackgroundImageFix" result="effect1_dropShadow_403_3291"/>
<feBlend mode="normal" in="SourceGraphic" in2="effect1_dropShadow_403_3291" result="shape"/>
</filter>
<clipPath id="clip0_403_3291">
<rect width="24" height="24" fill="white" transform="translate(4)"/>
</clipPath>
</defs>
</svg>
