<svg width="32" height="32" viewBox="0 0 32 32" fill="none" xmlns="http://www.w3.org/2000/svg">
<g clip-path="url(#clip0_403_3616)" filter="url(#filter0_d_403_3616)">
<path d="M24.9999 24.0004H19.9999V22.0004H24.9999C25.2651 22.0004 25.5194 21.895 25.707 21.7075C25.8945 21.5199 25.9999 21.2656 25.9999 21.0004V16.0004H27.9999V21.0004C27.9999 21.796 27.6838 22.5591 27.1212 23.1217C26.5586 23.6843 25.7955 24.0004 24.9999 24.0004Z" fill="#374957"/>
<path d="M6 8H4V3C4 2.20435 4.31607 1.44129 4.87868 0.87868C5.44129 0.31607 6.20435 0 7 0L12 0V2H7C6.73478 2 6.48043 2.10536 6.29289 2.29289C6.10536 2.48043 6 2.73478 6 3V8Z" fill="#374957"/>
<path d="M12 24.0004H7C6.20435 24.0004 5.44129 23.6843 4.87868 23.1217C4.31607 22.5591 4 21.796 4 21.0004V16.0004H6V21.0004C6 21.2656 6.10536 21.5199 6.29289 21.7075C6.48043 21.895 6.73478 22.0004 7 22.0004H12V24.0004Z" fill="#374957"/>
<path d="M27.9999 8H25.9999V3C25.9999 2.73478 25.8945 2.48043 25.707 2.29289C25.5194 2.10536 25.2651 2 24.9999 2H19.9999V0H24.9999C25.7955 0 26.5586 0.31607 27.1212 0.87868C27.6838 1.44129 27.9999 2.20435 27.9999 3V8Z" fill="#374957"/>
</g>
<defs>
<filter id="filter0_d_403_3616" x="0" y="0" width="32" height="32" filterUnits="userSpaceOnUse" color-interpolation-filters="sRGB">
<feFlood flood-opacity="0" result="BackgroundImageFix"/>
<feColorMatrix in="SourceAlpha" type="matrix" values="0 0 0 0 0 0 0 0 0 0 0 0 0 0 0 0 0 0 127 0" result="hardAlpha"/>
<feOffset dy="4"/>
<feGaussianBlur stdDeviation="2"/>
<feComposite in2="hardAlpha" operator="out"/>
<feColorMatrix type="matrix" values="0 0 0 0 0 0 0 0 0 0 0 0 0 0 0 0 0 0 0.25 0"/>
<feBlend mode="normal" in2="BackgroundImageFix" result="effect1_dropShadow_403_3616"/>
<feBlend mode="normal" in="SourceGraphic" in2="effect1_dropShadow_403_3616" result="shape"/>
</filter>
<clipPath id="clip0_403_3616">
<rect width="24" height="24" fill="white" transform="translate(4)"/>
</clipPath>
</defs>
</svg>
