<svg width="28" height="32" viewBox="0 0 28 32" fill="none" xmlns="http://www.w3.org/2000/svg">
<g clip-path="url(#clip0_403_3710)" filter="url(#filter0_d_403_3710)">
<path d="M9.00012 8.00087V7.00087C8.99981 5.89228 9.36795 4.81501 10.0466 3.93845C10.7253 3.06188 11.6761 2.43573 12.7495 2.15843C13.8228 1.88113 14.9579 1.96842 15.9762 2.40656C16.9946 2.8447 17.8384 3.60885 18.3751 4.57887L20.1241 3.60787C19.3724 2.25019 18.1908 1.18079 16.7652 0.567786C15.3395 -0.04522 13.7505 -0.167078 12.248 0.221368C10.7455 0.609813 9.41469 1.48654 8.46475 2.71372C7.51481 3.94091 6.9996 5.44898 7.00012 7.00087V8.00087H4.00012V21.0009C4.00012 21.7965 4.31619 22.5596 4.8788 23.1222C5.44141 23.6848 6.20447 24.0009 7.00012 24.0009H21.0001C21.7958 24.0009 22.5588 23.6848 23.1214 23.1222C23.6841 22.5596 24.0001 21.7965 24.0001 21.0009V8.00087H9.00012ZM22.0001 21.0009C22.0001 21.2661 21.8948 21.5204 21.7072 21.708C21.5197 21.8955 21.2653 22.0009 21.0001 22.0009H7.00012C6.73491 22.0009 6.48055 21.8955 6.29302 21.708C6.10548 21.5204 6.00012 21.2661 6.00012 21.0009V10.0009H22.0001V21.0009Z" fill="#374957"/>
<path d="M15.0001 14.0006H13.0001V18.0006H15.0001V14.0006Z" fill="#374957"/>
</g>
<defs>
<filter id="filter0_d_403_3710" x="-2" y="0" width="32" height="32" filterUnits="userSpaceOnUse" color-interpolation-filters="sRGB">
<feFlood flood-opacity="0" result="BackgroundImageFix"/>
<feColorMatrix in="SourceAlpha" type="matrix" values="0 0 0 0 0 0 0 0 0 0 0 0 0 0 0 0 0 0 127 0" result="hardAlpha"/>
<feOffset dy="4"/>
<feGaussianBlur stdDeviation="2"/>
<feComposite in2="hardAlpha" operator="out"/>
<feColorMatrix type="matrix" values="0 0 0 0 0 0 0 0 0 0 0 0 0 0 0 0 0 0 0.25 0"/>
<feBlend mode="normal" in2="BackgroundImageFix" result="effect1_dropShadow_403_3710"/>
<feBlend mode="normal" in="SourceGraphic" in2="effect1_dropShadow_403_3710" result="shape"/>
</filter>
<clipPath id="clip0_403_3710">
<rect width="24" height="24" fill="white" transform="translate(2)"/>
</clipPath>
</defs>
</svg>
