<svg width="32" height="32" viewBox="0 0 32 32" fill="none" xmlns="http://www.w3.org/2000/svg">
<g clip-path="url(#clip0_403_3420)" filter="url(#filter0_d_403_3420)">
<path d="M5.717 14.7L9.85 24H12.306C12.7642 23.9997 13.2151 23.8851 13.6178 23.6664C14.0205 23.4477 14.3622 23.1319 14.6119 22.7477C14.8616 22.3635 15.0114 21.923 15.0478 21.4663C15.0841 21.0095 15.0058 20.5509 14.82 20.132L12.539 15H15C16.3256 15.0016 17.5964 15.5289 18.5338 16.4662C19.4711 17.4036 19.9984 18.6744 20 20H22V0H20C19.9984 1.3256 19.4711 2.59644 18.5338 3.53378C17.5964 4.47112 16.3256 4.99841 15 5H7C6.20435 5 5.44129 5.31607 4.87868 5.87868C4.31607 6.44129 4 7.20435 4 8V12C4.00223 12.5662 4.16465 13.1202 4.46849 13.598C4.77233 14.0758 5.20518 14.4579 5.717 14.7V14.7ZM12.992 20.943C13.043 21.0574 13.0646 21.1827 13.0549 21.3075C13.0451 21.4324 13.0043 21.5528 12.9361 21.6578C12.8679 21.7629 12.7746 21.8492 12.6645 21.909C12.5545 21.9687 12.4312 22 12.306 22H11.15L8.039 15H10.35L12.992 20.943ZM6 8C6 7.73478 6.10536 7.48043 6.29289 7.29289C6.48043 7.10536 6.73478 7 7 7H15C15.9322 7.00022 16.855 6.81351 17.7138 6.45092C18.5726 6.08834 19.35 5.55723 20 4.889V15.111C19.35 14.4428 18.5726 13.9117 17.7138 13.5491C16.855 13.1865 15.9322 12.9998 15 13H7C6.73478 13 6.48043 12.8946 6.29289 12.7071C6.10536 12.5196 6 12.2652 6 12V8ZM26.293 15.707L24.005 13.419L25.419 12.005L27.707 14.293L26.293 15.707ZM25.457 7.957L24.043 6.543L26.293 4.293L27.707 5.707L25.457 7.957ZM25 9H28V11H25V9Z" fill="#374957"/>
</g>
<defs>
<filter id="filter0_d_403_3420" x="0" y="0" width="32" height="32" filterUnits="userSpaceOnUse" color-interpolation-filters="sRGB">
<feFlood flood-opacity="0" result="BackgroundImageFix"/>
<feColorMatrix in="SourceAlpha" type="matrix" values="0 0 0 0 0 0 0 0 0 0 0 0 0 0 0 0 0 0 127 0" result="hardAlpha"/>
<feOffset dy="4"/>
<feGaussianBlur stdDeviation="2"/>
<feComposite in2="hardAlpha" operator="out"/>
<feColorMatrix type="matrix" values="0 0 0 0 0 0 0 0 0 0 0 0 0 0 0 0 0 0 0.25 0"/>
<feBlend mode="normal" in2="BackgroundImageFix" result="effect1_dropShadow_403_3420"/>
<feBlend mode="normal" in="SourceGraphic" in2="effect1_dropShadow_403_3420" result="shape"/>
</filter>
<clipPath id="clip0_403_3420">
<rect width="24" height="24" fill="white" transform="translate(4)"/>
</clipPath>
</defs>
</svg>
