<svg width="24" height="24" viewBox="0 0 24 24" fill="none" xmlns="http://www.w3.org/2000/svg">
<g clip-path="url(#clip0_403_3450)">
<path d="M12 24C9.62663 24 7.30655 23.2962 5.33316 21.9776C3.35977 20.6591 1.8217 18.7849 0.913451 16.5922C0.00519943 14.3995 -0.232441 11.9867 0.230582 9.65892C0.693605 7.33115 1.83649 5.19295 3.51472 3.51472C5.19295 1.83649 7.33115 0.693605 9.65892 0.230582C11.9867 -0.232441 14.3995 0.00519943 16.5922 0.913451C18.7849 1.8217 20.6591 3.35977 21.9776 5.33316C23.2962 7.30655 24 9.62663 24 12C23.9966 15.1815 22.7312 18.2318 20.4815 20.4815C18.2318 22.7312 15.1815 23.9966 12 24V24ZM12 2.00001C10.0222 2.00001 8.08879 2.5865 6.4443 3.68531C4.79981 4.78412 3.51809 6.34591 2.76121 8.17317C2.00433 10.0004 1.8063 12.0111 2.19215 13.9509C2.578 15.8907 3.53041 17.6725 4.92894 19.0711C6.32746 20.4696 8.10929 21.422 10.0491 21.8079C11.9889 22.1937 13.9996 21.9957 15.8268 21.2388C17.6541 20.4819 19.2159 19.2002 20.3147 17.5557C21.4135 15.9112 22 13.9778 22 12C21.9971 9.34873 20.9426 6.80689 19.0679 4.93215C17.1931 3.05742 14.6513 2.00292 12 2.00001V2.00001Z" fill="#374957"/>
<path d="M12.9997 14.9997H10.9997V14.2567C10.9849 13.5511 11.1593 12.8544 11.5046 12.239C11.85 11.6235 12.3538 11.1117 12.9637 10.7567C13.3332 10.5532 13.6288 10.2381 13.8084 9.85642C13.988 9.47476 14.0424 9.04609 13.9637 8.63168C13.8858 8.23689 13.6919 7.87428 13.4069 7.59017C13.1219 7.30607 12.7587 7.11337 12.3637 7.03668C12.0754 6.98332 11.7789 6.994 11.4952 7.06794C11.2115 7.14189 10.9476 7.27731 10.722 7.4646C10.4965 7.65189 10.3148 7.88648 10.19 8.15176C10.0652 8.41703 10.0002 8.70651 9.99969 8.99968H7.99969C7.99994 8.29419 8.18678 7.60131 8.54125 6.99133C8.89572 6.38136 9.40521 5.87598 10.018 5.52647C10.6309 5.17696 11.3252 4.99575 12.0307 5.00122C12.7362 5.00669 13.4277 5.19865 14.035 5.55762C14.6423 5.9166 15.1439 6.42982 15.4889 7.04522C15.8338 7.66062 16.0099 8.35631 15.9992 9.06173C15.9885 9.76714 15.7915 10.4572 15.428 11.0618C15.0645 11.6665 14.5476 12.1643 13.9297 12.5047C13.6344 12.6893 13.393 12.9484 13.2298 13.256C13.0665 13.5635 12.9871 13.9087 12.9997 14.2567V14.9997Z" fill="#374957"/>
<path d="M12.9997 16.9996H10.9997V18.9996H12.9997V16.9996Z" fill="#374957"/>
</g>
<defs>
<clipPath id="clip0_403_3450">
<rect width="24" height="24" fill="white"/>
</clipPath>
</defs>
</svg>
