<svg width="32" height="32" viewBox="0 0 32 32" fill="none" xmlns="http://www.w3.org/2000/svg">
<g clip-path="url(#clip0_403_3433)" filter="url(#filter0_d_403_3433)">
<path d="M14.5831 20.5297C13.636 21.4514 12.3641 21.9633 11.0425 21.9544C9.72094 21.9455 8.456 21.4167 7.52136 20.4824C6.58672 19.548 6.05754 18.2832 6.04832 16.9616C6.03909 15.6401 6.55055 14.368 7.47205 13.4207L11.7341 9.1557L10.3191 7.7417L6.05805 12.0067C4.74032 13.3251 4.00029 15.1129 4.00076 16.9769C4.00123 18.841 4.74216 20.6284 6.06055 21.9462C7.37894 23.2639 9.1668 24.0039 11.0308 24.0035C12.8948 24.003 14.6823 23.2621 16.0001 21.9437L20.2621 17.6817L18.8481 16.2677L14.5831 20.5297Z" fill="#374957"/>
<path d="M25.9439 2.06139C25.2932 1.40621 24.5189 0.886669 23.666 0.532887C22.813 0.179104 21.8983 -0.00189024 20.9749 0.000390852V0.000390852C20.052 -0.00206088 19.1377 0.178469 18.285 0.531542C17.4322 0.884615 16.658 1.40323 16.0069 2.05739L11.7399 6.32039L13.1539 7.73539L17.4189 3.47339C17.8845 3.00504 18.4383 2.63369 19.0483 2.38085C19.6584 2.12801 20.3125 1.99869 20.9729 2.00039V2.00039C21.9672 2.00072 22.939 2.29582 23.7656 2.84839C24.5922 3.40096 25.2364 4.18619 25.6167 5.10481C25.9971 6.02343 26.0966 7.03421 25.9026 8.00937C25.7086 8.98452 25.2299 9.88028 24.5269 10.5834L20.2649 14.8454L21.6799 16.2604L25.9419 12.0004C27.2579 10.6815 27.9972 8.89449 27.9976 7.0313C27.998 5.16812 27.2594 3.38082 25.9439 2.06139V2.06139Z" fill="#374957"/>
<path d="M18.8452 7.74189L11.7409 14.8462L13.1551 16.2604L20.2594 9.1561L18.8452 7.74189Z" fill="#374957"/>
</g>
<defs>
<filter id="filter0_d_403_3433" x="0" y="0" width="32" height="32" filterUnits="userSpaceOnUse" color-interpolation-filters="sRGB">
<feFlood flood-opacity="0" result="BackgroundImageFix"/>
<feColorMatrix in="SourceAlpha" type="matrix" values="0 0 0 0 0 0 0 0 0 0 0 0 0 0 0 0 0 0 127 0" result="hardAlpha"/>
<feOffset dy="4"/>
<feGaussianBlur stdDeviation="2"/>
<feComposite in2="hardAlpha" operator="out"/>
<feColorMatrix type="matrix" values="0 0 0 0 0 0 0 0 0 0 0 0 0 0 0 0 0 0 0.25 0"/>
<feBlend mode="normal" in2="BackgroundImageFix" result="effect1_dropShadow_403_3433"/>
<feBlend mode="normal" in="SourceGraphic" in2="effect1_dropShadow_403_3433" result="shape"/>
</filter>
<clipPath id="clip0_403_3433">
<rect width="24" height="24" fill="white" transform="translate(4)"/>
</clipPath>
</defs>
</svg>
