<svg width="32" height="32" viewBox="0 0 32 32" fill="none" xmlns="http://www.w3.org/2000/svg">
<g clip-path="url(#clip0_403_3411)" filter="url(#filter0_d_403_3411)">
<path d="M25.0004 24.0003H20.0004V22.0003H25.0004C25.2656 22.0003 25.5199 21.8949 25.7075 21.7074C25.895 21.5199 26.0004 21.2655 26.0004 21.0003V16.0003H28.0004V21.0003C28.0004 21.7959 27.6843 22.559 27.1217 23.1216C26.5591 23.6842 25.796 24.0003 25.0004 24.0003Z" fill="#374957"/>
<path d="M6 8H4V3C4 2.20435 4.31607 1.44129 4.87868 0.87868C5.44129 0.31607 6.20435 0 7 0L12 0V2H7C6.73478 2 6.48043 2.10536 6.29289 2.29289C6.10536 2.48043 6 2.73478 6 3V8Z" fill="#374957"/>
<path d="M12 24.0003H7C6.20435 24.0003 5.44129 23.6842 4.87868 23.1216C4.31607 22.559 4 21.7959 4 21.0003V16.0003H6V21.0003C6 21.2655 6.10536 21.5199 6.29289 21.7074C6.48043 21.8949 6.73478 22.0003 7 22.0003H12V24.0003Z" fill="#374957"/>
<path d="M28.0004 8H26.0004V3C26.0004 2.73478 25.895 2.48043 25.7075 2.29289C25.5199 2.10536 25.2656 2 25.0004 2H20.0004V0H25.0004C25.796 0 26.5591 0.31607 27.1217 0.87868C27.6843 1.44129 28.0004 2.20435 28.0004 3V8Z" fill="#374957"/>
<path d="M15.9996 10.9999C15.2085 10.9999 14.4352 10.7653 13.7774 10.3258C13.1196 9.88629 12.6069 9.26158 12.3041 8.53067C12.0014 7.79977 11.9222 6.9955 12.0765 6.21958C12.2308 5.44366 12.6118 4.73092 13.1712 4.17151C13.7306 3.6121 14.4434 3.23114 15.2193 3.0768C15.9952 2.92246 16.7995 3.00167 17.5304 3.30442C18.2613 3.60717 18.886 4.11986 19.3255 4.77766C19.765 5.43546 19.9996 6.20882 19.9996 6.99994C19.9996 8.06081 19.5782 9.07822 18.8281 9.82837C18.0779 10.5785 17.0605 10.9999 15.9996 10.9999ZM15.9996 4.99994C15.6041 4.99994 15.2174 5.11724 14.8885 5.337C14.5596 5.55676 14.3033 5.86912 14.1519 6.23457C14.0005 6.60003 13.9609 7.00216 14.0381 7.39012C14.1152 7.77808 14.3057 8.13445 14.5854 8.41415C14.8651 8.69386 15.2215 8.88434 15.6095 8.96151C15.9974 9.03868 16.3996 8.99908 16.765 8.8477C17.1305 8.69632 17.4428 8.43998 17.6626 8.11108C17.8823 7.78218 17.9996 7.3955 17.9996 6.99994C17.9996 6.46951 17.7889 5.9608 17.4138 5.58573C17.0388 5.21065 16.5301 4.99994 15.9996 4.99994V4.99994Z" fill="#374957"/>
<path d="M22.9996 20.0003H20.9996V16.0003C20.9996 15.7351 20.8943 15.4807 20.7067 15.2932C20.5192 15.1057 20.2649 15.0003 19.9996 15.0003H11.9996C11.7344 15.0003 11.4801 15.1057 11.2925 15.2932C11.105 15.4807 10.9996 15.7351 10.9996 16.0003V20.0003H8.99963V16.0003C8.99963 15.2047 9.3157 14.4416 9.87831 13.879C10.4409 13.3164 11.204 13.0003 11.9996 13.0003H19.9996C20.7953 13.0003 21.5583 13.3164 22.121 13.879C22.6836 14.4416 22.9996 15.2047 22.9996 16.0003V20.0003Z" fill="#374957"/>
</g>
<defs>
<filter id="filter0_d_403_3411" x="0" y="0" width="32" height="32" filterUnits="userSpaceOnUse" color-interpolation-filters="sRGB">
<feFlood flood-opacity="0" result="BackgroundImageFix"/>
<feColorMatrix in="SourceAlpha" type="matrix" values="0 0 0 0 0 0 0 0 0 0 0 0 0 0 0 0 0 0 127 0" result="hardAlpha"/>
<feOffset dy="4"/>
<feGaussianBlur stdDeviation="2"/>
<feComposite in2="hardAlpha" operator="out"/>
<feColorMatrix type="matrix" values="0 0 0 0 0 0 0 0 0 0 0 0 0 0 0 0 0 0 0.25 0"/>
<feBlend mode="normal" in2="BackgroundImageFix" result="effect1_dropShadow_403_3411"/>
<feBlend mode="normal" in="SourceGraphic" in2="effect1_dropShadow_403_3411" result="shape"/>
</filter>
<clipPath id="clip0_403_3411">
<rect width="24" height="24" fill="white" transform="translate(4)"/>
</clipPath>
</defs>
</svg>
