<svg width="24" height="24" viewBox="0 0 24 24" fill="none" xmlns="http://www.w3.org/2000/svg">
<g clip-path="url(#clip0_403_3534)">
<path d="M23.8208 11.181C22.9428 9.261 19.4998 3 11.9998 3C4.49981 3 1.05681 9.261 0.17881 11.181C0.0609485 11.4383 -6.10352e-05 11.718 -6.10352e-05 12.001C-6.10352e-05 12.284 0.0609485 12.5637 0.17881 12.821C1.05681 14.739 4.49981 21 11.9998 21C19.4998 21 22.9428 14.739 23.8208 12.819C23.9384 12.562 23.9993 12.2827 23.9993 12C23.9993 11.7173 23.9384 11.438 23.8208 11.181V11.181ZM11.9998 19C5.69281 19 2.74981 13.634 1.99981 12.011C2.74981 10.366 5.69281 5 11.9998 5C18.2918 5 21.2358 10.343 21.9998 12C21.2358 13.657 18.2918 19 11.9998 19Z" fill="#374957"/>
<path d="M11.9998 7.00037C11.0109 7.00037 10.0442 7.29361 9.22191 7.84302C8.39966 8.39243 7.7588 9.17332 7.38036 10.0869C7.00192 11.0006 6.90291 12.0059 7.09583 12.9758C7.28876 13.9457 7.76496 14.8366 8.46422 15.5359C9.16349 16.2352 10.0544 16.7114 11.0243 16.9043C11.9942 17.0972 12.9995 16.9982 13.9132 16.6198C14.8268 16.2413 15.6077 15.6005 16.1571 14.7782C16.7065 13.956 16.9998 12.9893 16.9998 12.0004C16.9982 10.6748 16.4709 9.40392 15.5335 8.46659C14.5962 7.52925 13.3254 7.00195 11.9998 7.00037V7.00037ZM11.9998 15.0004C11.4064 15.0004 10.8264 14.8244 10.333 14.4948C9.8397 14.1651 9.45518 13.6966 9.22812 13.1484C9.00106 12.6002 8.94165 11.997 9.0574 11.4151C9.17316 10.8332 9.45888 10.2986 9.87844 9.87905C10.298 9.45949 10.8325 9.17377 11.4145 9.05801C11.9964 8.94225 12.5996 9.00166 13.1478 9.22873C13.696 9.45579 14.1645 9.84031 14.4942 10.3337C14.8238 10.827 14.9998 11.407 14.9998 12.0004C14.9998 12.796 14.6837 13.5591 14.1211 14.1217C13.5585 14.6843 12.7954 15.0004 11.9998 15.0004Z" fill="#374957"/>
</g>
<defs>
<clipPath id="clip0_403_3534">
<rect width="24" height="24" fill="white"/>
</clipPath>
</defs>
</svg>
