<svg width="24" height="24" viewBox="0 0 24 24" fill="none" xmlns="http://www.w3.org/2000/svg">
<g clip-path="url(#clip0_403_3555)">
<path d="M10.0002 -5.78855e-05H12.0002V8.99994C12.0002 9.79559 11.6841 10.5587 11.1215 11.1213C10.5589 11.6839 9.7958 11.9999 9.00015 11.9999H8.00015V23.9999H6.00015V11.9999H5.00015C4.2045 11.9999 3.44144 11.6839 2.87883 11.1213C2.31622 10.5587 2.00015 9.79559 2.00015 8.99994V-5.78855e-05H4.00015V8.99994C4.00015 9.26516 4.10551 9.51951 4.29305 9.70705C4.48058 9.89459 4.73494 9.99994 5.00015 9.99994H6.00015V-5.78855e-05H8.00015V9.99994H9.00015C9.26537 9.99994 9.51972 9.89459 9.70726 9.70705C9.8948 9.51951 10.0002 9.26516 10.0002 8.99994V-5.78855e-05ZM22.0002 9.26694C22.0002 13.9439 18.1232 18.4579 17.0002 19.6669V23.9999H15.0002V1.99994C15.0001 1.57888 15.133 1.16856 15.3798 0.827429C15.6267 0.486303 15.9749 0.231779 16.3748 0.100125C16.7748 -0.0315287 17.2061 -0.033597 17.6072 0.094215C18.0084 0.222027 18.3591 0.473199 18.6092 0.811942C20.1552 2.88694 22.0002 6.03894 22.0002 9.26694ZM17.0002 16.5269C20.9002 11.4989 20.9202 7.04994 17.0002 2.00694V16.5269Z" fill="#374957"/>
</g>
<defs>
<clipPath id="clip0_403_3555">
<rect width="24" height="24" fill="white"/>
</clipPath>
</defs>
</svg>
