<svg width="24" height="24" viewBox="0 0 24 24" fill="none" xmlns="http://www.w3.org/2000/svg">
<g clip-path="url(#clip0_403_3362)">
<path d="M23.9999 22.5888L17.7501 16.339C21.2448 12.065 20.6129 5.76716 16.3389 2.27248C12.0648 -1.22219 5.76703 -0.59036 2.27236 3.68375C-1.22231 7.95786 -0.590478 14.2556 3.68358 17.7503C7.36504 20.7604 12.6574 20.7604 16.3388 17.7503L22.5887 24L23.9999 22.5888ZM10.0272 18.0117C5.61755 18.0117 2.04282 14.437 2.04282 10.0273C2.04282 5.61767 5.61755 2.04294 10.0272 2.04294C14.4369 2.04294 18.0116 5.61767 18.0116 10.0273C18.0066 14.435 14.4348 18.0068 10.0272 18.0117ZM11.9984 6.03514C11.2717 6.02628 10.5671 6.28447 10.0182 6.76072C9.45759 6.28301 8.7426 6.0252 8.00615 6.03514C6.29897 6.09373 4.96045 7.5215 5.01202 9.22892C5.01202 11.9656 8.97328 14.8469 9.42538 15.1663L10.0023 15.5745L10.5781 15.1663C11.0302 14.8469 14.9925 11.9655 14.9925 9.22892C15.0435 7.52169 13.7053 6.09425 11.9984 6.03514ZM10.0023 13.1023C8.60503 11.9925 7.00814 10.3008 7.00814 9.22892C6.95831 8.62428 7.40245 8.09131 8.0062 8.03126C8.53528 7.99606 8.99273 8.39647 9.02793 8.92555C9.03023 8.96009 9.03065 8.99473 9.0292 9.02928H11.0253C10.9784 8.52598 11.3483 8.08001 11.8516 8.03309C11.9004 8.02855 11.9495 8.02794 11.9984 8.03122C12.6018 8.09178 13.0457 8.62437 12.9964 9.22887C12.9964 10.3008 11.3955 11.9925 10.0023 13.1023Z" fill="#374957"/>
</g>
<defs>
<clipPath id="clip0_403_3362">
<rect width="24" height="24" fill="white"/>
</clipPath>
</defs>
</svg>
