<svg width="26" height="32" viewBox="0 0 26 32" fill="none" xmlns="http://www.w3.org/2000/svg">
<g clip-path="url(#clip0_403_3301)" filter="url(#filter0_d_403_3301)">
<path d="M22 24.0006H20V18.9576C19.9992 18.1736 19.6874 17.4219 19.133 16.8676C18.5787 16.3132 17.827 16.0014 17.043 16.0006H8.95699C8.17299 16.0014 7.42133 16.3132 6.86695 16.8676C6.31258 17.4219 6.00079 18.1736 5.99999 18.9576V24.0006H3.99999V18.9576C4.00158 17.6434 4.52434 16.3835 5.45362 15.4542C6.38289 14.525 7.6428 14.0022 8.95699 14.0006H17.043C18.3572 14.0022 19.6171 14.525 20.5464 15.4542C21.4756 16.3835 21.9984 17.6434 22 18.9576V24.0006Z" fill="#374957"/>
<path d="M12.9999 11.9999C11.8132 11.9999 10.6532 11.648 9.66651 10.9888C8.67982 10.3295 7.91078 9.3924 7.45666 8.29604C7.00253 7.19969 6.88371 5.99329 7.11522 4.8294C7.34673 3.66551 7.91818 2.59642 8.75729 1.7573C9.59641 0.918186 10.6655 0.346741 11.8294 0.11523C12.9933 -0.116281 14.1997 0.00253868 15.296 0.456664C16.3924 0.91079 17.3295 1.67983 17.9888 2.66652C18.648 3.65322 18.9999 4.81325 18.9999 5.99994C18.9983 7.59075 18.3657 9.11595 17.2408 10.2408C16.1159 11.3657 14.5907 11.9984 12.9999 11.9999V11.9999ZM12.9999 1.99994C12.2088 1.99994 11.4355 2.23454 10.7777 2.67406C10.1199 3.11359 9.60717 3.7383 9.30442 4.46921C9.00167 5.20011 8.92245 6.00438 9.07679 6.7803C9.23113 7.55623 9.6121 8.26896 10.1715 8.82837C10.7309 9.38778 11.4436 9.76874 12.2196 9.92308C12.9955 10.0774 13.7998 9.99821 14.5307 9.69546C15.2616 9.39271 15.8863 8.88002 16.3258 8.22222C16.7653 7.56443 16.9999 6.79107 16.9999 5.99994C16.9999 4.93908 16.5785 3.92166 15.8284 3.17151C15.0782 2.42137 14.0608 1.99994 12.9999 1.99994Z" fill="#374957"/>
</g>
<defs>
<filter id="filter0_d_403_3301" x="-3" y="0" width="32" height="32" filterUnits="userSpaceOnUse" color-interpolation-filters="sRGB">
<feFlood flood-opacity="0" result="BackgroundImageFix"/>
<feColorMatrix in="SourceAlpha" type="matrix" values="0 0 0 0 0 0 0 0 0 0 0 0 0 0 0 0 0 0 127 0" result="hardAlpha"/>
<feOffset dy="4"/>
<feGaussianBlur stdDeviation="2"/>
<feComposite in2="hardAlpha" operator="out"/>
<feColorMatrix type="matrix" values="0 0 0 0 0 0 0 0 0 0 0 0 0 0 0 0 0 0 0.25 0"/>
<feBlend mode="normal" in2="BackgroundImageFix" result="effect1_dropShadow_403_3301"/>
<feBlend mode="normal" in="SourceGraphic" in2="effect1_dropShadow_403_3301" result="shape"/>
</filter>
<clipPath id="clip0_403_3301">
<rect width="24" height="24" fill="white" transform="translate(1)"/>
</clipPath>
</defs>
</svg>
