<svg width="24" height="24" viewBox="0 0 24 24" fill="none" xmlns="http://www.w3.org/2000/svg">
<g clip-path="url(#clip0_403_3436)">
<path d="M23.9999 12.0003C24.0007 9.16402 22.9923 6.42 21.1549 4.2593L22.0149 3.3993L20.5999 1.9853L19.7399 2.8453C17.5787 1.00873 14.835 0.000366211 11.9989 0.000366211C9.16277 0.000366211 6.41904 1.00873 4.25789 2.8453L3.39789 1.9853L1.98489 3.4003L2.84489 4.2603C1.00832 6.42145 -4.57764e-05 9.16519 -4.57764e-05 12.0013C-4.57764e-05 14.8374 1.00832 17.5812 2.84489 19.7423L1.98489 20.6023L3.39989 22.0153L4.25989 21.1553C6.42104 22.9919 9.16477 24.0002 12.0009 24.0002C14.837 24.0002 17.5807 22.9919 19.7419 21.1553L20.6019 22.0153L22.0149 20.6003L21.1549 19.7403C22.992 17.5799 24.0005 14.8362 23.9999 12.0003V12.0003ZM21.9999 12.0003C22.0017 14.3068 21.2021 16.5422 19.7379 18.3243L16.1669 14.7533C16.71 13.9379 16.9998 12.98 16.9998 12.0003C16.9998 11.0206 16.71 10.0627 16.1669 9.2473L19.7379 5.6763C21.2021 7.45838 22.0017 9.69383 21.9999 12.0003V12.0003ZM8.99989 12.0003C8.99989 11.407 9.17584 10.8269 9.50548 10.3336C9.83513 9.84024 10.3037 9.45573 10.8518 9.22866C11.4 9.0016 12.0032 8.94219 12.5852 9.05795C13.1671 9.1737 13.7017 9.45943 14.1212 9.87898C14.5408 10.2985 14.8265 10.8331 14.9422 11.415C15.058 11.997 14.9986 12.6002 14.7715 13.1484C14.5445 13.6965 14.1599 14.1651 13.6666 14.4947C13.1733 14.8244 12.5932 15.0003 11.9999 15.0003C11.2042 15.0003 10.4412 14.6842 9.87857 14.1216C9.31596 13.559 8.99989 12.796 8.99989 12.0003ZM11.9999 2.0003C14.3064 1.99846 16.5418 2.79805 18.3239 4.2623L14.7529 7.8333C13.9375 7.29016 12.9796 7.00036 11.9999 7.00036C11.0202 7.00036 10.0623 7.29016 9.24689 7.8333L5.67589 4.2623C7.45796 2.79805 9.69342 1.99846 11.9999 2.0003V2.0003ZM1.99989 12.0003C1.99805 9.69383 2.79764 7.45838 4.26189 5.6763L7.83289 9.2473C7.28975 10.0627 6.99995 11.0206 6.99995 12.0003C6.99995 12.98 7.28975 13.9379 7.83289 14.7533L4.26189 18.3243C2.79764 16.5422 1.99805 14.3068 1.99989 12.0003V12.0003ZM11.9999 22.0003C9.69342 22.0021 7.45796 21.2026 5.67589 19.7383L9.24689 16.1673C10.0623 16.7104 11.0202 17.0002 11.9999 17.0002C12.9796 17.0002 13.9375 16.7104 14.7529 16.1673L18.3239 19.7383C16.5418 21.2026 14.3064 22.0021 11.9999 22.0003V22.0003Z" fill="#374957"/>
</g>
<defs>
<clipPath id="clip0_403_3436">
<rect width="24" height="24" fill="white"/>
</clipPath>
</defs>
</svg>
