<svg width="32" height="32" viewBox="0 0 32 32" fill="none" xmlns="http://www.w3.org/2000/svg">
<g clip-path="url(#clip0_403_3743)" filter="url(#filter0_d_403_3743)">
<path d="M16 0C13.6266 0 11.3066 0.703788 9.33316 2.02236C7.35977 3.34094 5.8217 5.21509 4.91345 7.4078C4.0052 9.60051 3.76756 12.0133 4.23058 14.3411C4.6936 16.6689 5.83649 18.8071 7.51472 20.4853C9.19295 22.1635 11.3312 23.3064 13.6589 23.7694C15.9867 24.2324 18.3995 23.9948 20.5922 23.0866C22.7849 22.1783 24.6591 20.6402 25.9776 18.6668C27.2962 16.6935 28 14.3734 28 12C27.9966 8.81846 26.7312 5.76821 24.4815 3.51852C22.2318 1.26883 19.1815 0.00344108 16 0V0ZM26 12C25.9987 12.6378 25.9365 13.274 25.814 13.9L23.882 13.32C24.0393 12.447 24.0393 11.553 23.882 10.68L25.814 10.1C25.9365 10.726 25.9987 11.3622 26 12V12ZM25.24 8.184L23.31 8.763C22.5013 6.94934 21.0507 5.49868 19.237 4.69L19.816 2.76C22.2695 3.78051 24.2195 5.73049 25.24 8.184V8.184ZM16 18C14.8133 18 13.6533 17.6481 12.6666 16.9888C11.6799 16.3295 10.9109 15.3925 10.4567 14.2961C10.0026 13.1997 9.88378 11.9933 10.1153 10.8295C10.3468 9.66557 10.9182 8.59648 11.7574 7.75736C12.5965 6.91825 13.6656 6.3468 14.8295 6.11529C15.9934 5.88378 17.1997 6.0026 18.2961 6.45672C19.3925 6.91085 20.3295 7.67988 20.9888 8.66658C21.6481 9.65327 22 10.8133 22 12C21.9984 13.5908 21.3658 15.116 20.2409 16.2409C19.116 17.3658 17.5908 17.9984 16 18ZM17.9 2.186L17.32 4.118C16.447 3.96067 15.553 3.96067 14.68 4.118L14.1 2.186C15.3545 1.93807 16.6455 1.93807 17.9 2.186V2.186ZM12.184 2.76L12.763 4.69C10.9493 5.49868 9.49869 6.94934 8.69001 8.763L6.76001 8.184C7.78052 5.73049 9.73049 3.78051 12.184 2.76V2.76ZM6.00001 12C6.00127 11.3622 6.06355 10.726 6.18601 10.1L8.11801 10.68C7.96067 11.553 7.96067 12.447 8.11801 13.32L6.18601 13.9C6.06355 13.274 6.00127 12.6378 6.00001 12V12ZM6.76001 15.816L8.69001 15.237C9.49869 17.0507 10.9493 18.5013 12.763 19.31L12.184 21.24C9.73049 20.2195 7.78052 18.2695 6.76001 15.816V15.816ZM14.1 21.816L14.68 19.884C15.553 20.0413 16.447 20.0413 17.32 19.884L17.9 21.816C16.6455 22.0639 15.3545 22.0639 14.1 21.816V21.816ZM19.816 21.241L19.237 19.312C21.0507 18.5033 22.5013 17.0527 23.31 15.239L25.24 15.818C24.2193 18.2707 22.2693 20.2197 19.816 21.239V21.241ZM16 8L19 12L16 16L13 12L16 8Z" fill="#374957"/>
</g>
<defs>
<filter id="filter0_d_403_3743" x="0" y="0" width="32" height="32" filterUnits="userSpaceOnUse" color-interpolation-filters="sRGB">
<feFlood flood-opacity="0" result="BackgroundImageFix"/>
<feColorMatrix in="SourceAlpha" type="matrix" values="0 0 0 0 0 0 0 0 0 0 0 0 0 0 0 0 0 0 127 0" result="hardAlpha"/>
<feOffset dy="4"/>
<feGaussianBlur stdDeviation="2"/>
<feComposite in2="hardAlpha" operator="out"/>
<feColorMatrix type="matrix" values="0 0 0 0 0 0 0 0 0 0 0 0 0 0 0 0 0 0 0.25 0"/>
<feBlend mode="normal" in2="BackgroundImageFix" result="effect1_dropShadow_403_3743"/>
<feBlend mode="normal" in="SourceGraphic" in2="effect1_dropShadow_403_3743" result="shape"/>
</filter>
<clipPath id="clip0_403_3743">
<rect width="24" height="24" fill="white" transform="translate(4)"/>
</clipPath>
</defs>
</svg>
