<svg width="32" height="32" viewBox="0 0 32 32" fill="none" xmlns="http://www.w3.org/2000/svg">
<g clip-path="url(#clip0_403_3485)" filter="url(#filter0_d_403_3485)">
<path d="M16 9.99963C14.657 9.99816 13.3172 10.1295 12 10.3916V8.05263L18.915 4.55862L13.034 0.299624L12.9 0.211624C12.5949 0.0579014 12.2556 -0.0151211 11.9143 -0.000481706C11.573 0.0141576 11.2411 0.115971 10.9504 0.295252C10.6596 0.474533 10.4196 0.725305 10.2532 1.02366C10.0868 1.32202 9.99967 1.65802 10 1.99962V10.9136C6.391 12.1086 4 14.3596 4 16.9996C4 20.9246 9.271 23.9996 16 23.9996C22.729 23.9996 28 20.9246 28 16.9996C28 13.0746 22.729 9.99963 16 9.99963ZM12 2.01762L15.085 4.25262L12 5.81162V2.01762ZM16 21.9996C10.58 21.9996 6 19.7096 6 16.9996C6 15.4056 7.591 13.9606 10 13.0376V16.9996H12V12.4366C13.3132 12.1442 14.6546 11.9976 16 11.9996C21.42 11.9996 26 14.2896 26 16.9996C26 19.7096 21.42 21.9996 16 21.9996ZM21 16.9996C21 17.3952 20.8827 17.7819 20.6629 18.1108C20.4432 18.4397 20.1308 18.696 19.7654 18.8474C19.3999 18.9988 18.9978 19.0384 18.6098 18.9612C18.2219 18.884 17.8655 18.6935 17.5858 18.4138C17.3061 18.1341 17.1156 17.7778 17.0384 17.3898C16.9613 17.0018 17.0009 16.5997 17.1522 16.2343C17.3036 15.8688 17.56 15.5564 17.8889 15.3367C18.2178 15.1169 18.6044 14.9996 19 14.9996C19.5304 14.9996 20.0391 15.2103 20.4142 15.5854C20.7893 15.9605 21 16.4692 21 16.9996Z" fill="#374957"/>
</g>
<defs>
<filter id="filter0_d_403_3485" x="0" y="0" width="32" height="32" filterUnits="userSpaceOnUse" color-interpolation-filters="sRGB">
<feFlood flood-opacity="0" result="BackgroundImageFix"/>
<feColorMatrix in="SourceAlpha" type="matrix" values="0 0 0 0 0 0 0 0 0 0 0 0 0 0 0 0 0 0 127 0" result="hardAlpha"/>
<feOffset dy="4"/>
<feGaussianBlur stdDeviation="2"/>
<feComposite in2="hardAlpha" operator="out"/>
<feColorMatrix type="matrix" values="0 0 0 0 0 0 0 0 0 0 0 0 0 0 0 0 0 0 0.25 0"/>
<feBlend mode="normal" in2="BackgroundImageFix" result="effect1_dropShadow_403_3485"/>
<feBlend mode="normal" in="SourceGraphic" in2="effect1_dropShadow_403_3485" result="shape"/>
</filter>
<clipPath id="clip0_403_3485">
<rect width="24" height="24" fill="white" transform="translate(4)"/>
</clipPath>
</defs>
</svg>
