<svg width="32" height="32" viewBox="0 0 32 32" fill="none" xmlns="http://www.w3.org/2000/svg">
<g clip-path="url(#clip0_403_3351)" filter="url(#filter0_d_403_3351)">
<path d="M27.467 13.6371L23.012 14.8261L21.089 13.7421V10.3101L23.011 9.22615L27.467 10.4141L28 8.48215L24.12 7.44815L25.172 3.63215L23.208 3.10815L22 7.49015L20.174 8.52015L17.018 6.72815V4.65115L20.282 1.44115L18.843 0.0251465L16 2.82115L13.157 0.0251465L11.718 1.44115L14.982 4.65115V6.72815L11.826 8.52015L10 7.49015L8.792 3.10815L6.828 3.63215L7.88 7.44815L4 8.48215L4.533 10.4141L8.988 9.22615L10.911 10.3101V13.7421L8.988 14.8261L4.533 13.6371L4 15.5691L7.88 16.6001L6.828 20.4201L8.792 20.9441L10 16.5611L12 15.4351L14.983 17.1281V19.4001L11.718 22.6101L13.157 24.0251L16 21.2301L18.843 24.0251L20.282 22.6101L17.018 19.4001V17.1281L20 15.4351L22 16.5611L23.209 20.9441L25.173 20.4201L24.12 16.6001L28 15.5691L27.467 13.6371ZM19.053 13.6621L16 15.4001L12.947 13.6621V10.2001L16 8.46115L19.053 10.2001V13.6621Z" fill="#374957"/>
</g>
<defs>
<filter id="filter0_d_403_3351" x="0" y="0" width="32" height="32" filterUnits="userSpaceOnUse" color-interpolation-filters="sRGB">
<feFlood flood-opacity="0" result="BackgroundImageFix"/>
<feColorMatrix in="SourceAlpha" type="matrix" values="0 0 0 0 0 0 0 0 0 0 0 0 0 0 0 0 0 0 127 0" result="hardAlpha"/>
<feOffset dy="4"/>
<feGaussianBlur stdDeviation="2"/>
<feComposite in2="hardAlpha" operator="out"/>
<feColorMatrix type="matrix" values="0 0 0 0 0 0 0 0 0 0 0 0 0 0 0 0 0 0 0.25 0"/>
<feBlend mode="normal" in2="BackgroundImageFix" result="effect1_dropShadow_403_3351"/>
<feBlend mode="normal" in="SourceGraphic" in2="effect1_dropShadow_403_3351" result="shape"/>
</filter>
<clipPath id="clip0_403_3351">
<rect width="24" height="24" fill="white" transform="translate(4)"/>
</clipPath>
</defs>
</svg>
