<svg width="24" height="24" viewBox="0 0 24 24" fill="none" xmlns="http://www.w3.org/2000/svg">
<g clip-path="url(#clip0_403_3630)">
<path d="M22.0002 4.145L17.9862 0H10.0002C9.2045 0 8.44144 0.31607 7.87883 0.87868C7.31622 1.44129 7.00015 2.20435 7.00015 3V4H5.00015C4.2045 4 3.44144 4.31607 2.87883 4.87868C2.31622 5.44129 2.00015 6.20435 2.00015 7V24H18.0002V19H22.0002V4.145ZM16.0002 22H4.00015V7C4.00015 6.73478 4.10551 6.48043 4.29305 6.29289C4.48058 6.10536 4.73494 6 5.00015 6H7.00015V19H16.0002V22ZM9.00015 17V3C9.00015 2.73478 9.10551 2.48043 9.29305 2.29289C9.48058 2.10536 9.73494 2 10.0002 2H16.0002V6H20.0002V17H9.00015Z" fill="#374957"/>
</g>
<defs>
<clipPath id="clip0_403_3630">
<rect width="24" height="24" fill="white"/>
</clipPath>
</defs>
</svg>
