<svg width="32" height="32" viewBox="0 0 32 32" fill="none" xmlns="http://www.w3.org/2000/svg">
<g clip-path="url(#clip0_403_3774)" filter="url(#filter0_d_403_3774)">
<path d="M10 18.9997C10 19.265 9.89464 19.5193 9.70711 19.7069C9.51957 19.8944 9.26522 19.9997 9 19.9997C8.73478 19.9997 8.48043 19.8944 8.29289 19.7069C8.10536 19.5193 8 19.265 8 18.9997C8 18.7345 8.10536 18.4802 8.29289 18.2926C8.48043 18.1051 8.73478 17.9997 9 17.9997C9.26522 17.9997 9.51957 18.1051 9.70711 18.2926C9.89464 18.4802 10 18.7345 10 18.9997V18.9997ZM28 6.99974C28.0187 7.25871 27.9832 7.51873 27.8956 7.76318C27.8081 8.00762 27.6705 8.23111 27.4917 8.41935C27.3129 8.60759 27.0967 8.75644 26.8571 8.85638C26.6174 8.95632 26.3596 9.00515 26.1 8.99974H20.981C20.962 10.0627 20.92 11.0707 20.838 11.9997H24.038V12.9997C24.0387 14.0068 23.9416 15.0115 23.748 15.9997C23.6326 16.5653 23.325 17.0734 22.8775 17.438C22.43 17.8025 21.8702 18.001 21.293 17.9997H19.439C17.388 22.4647 13.064 23.9997 5 23.9997H4V22.9997C4 18.1157 4.57 14.6147 6 12.1437V8.43974C5.99996 7.8895 6.15126 7.34984 6.43733 6.87981C6.7234 6.40978 7.13324 6.02749 7.622 5.77474C9.90034 4.58743 12.4309 3.96561 15 3.96174H16V7.16174C16.929 7.07974 17.937 7.03774 19 7.01874V1.89974C19.3 -1.49226 24.372 0.0817397 24.905 3.09974C25.7791 3.31691 26.5567 3.81727 27.1166 4.52276C27.6764 5.22824 27.9871 6.09919 28 6.99974ZM8 8.43974V9.78774C9.75356 8.47503 11.824 7.651 14 7.39974V5.99974C12.0976 6.14631 10.2438 6.67232 8.548 7.54674C8.38365 7.63115 8.24564 7.75907 8.14901 7.91654C8.05237 8.07401 8.00083 8.25499 8 8.43974V8.43974ZM6.008 21.9917C8.2894 22.0233 10.5643 21.7413 12.769 21.1537C12.4213 19.7178 11.6843 18.4056 10.6392 17.3613C9.59406 16.3171 8.28121 15.5813 6.845 15.2347C6.25845 17.4382 5.97682 19.7117 6.008 21.9917V21.9917ZM18.992 9.00774C12.776 9.10774 9.357 10.1957 7.606 13.3737C9.28393 13.8355 10.8132 14.7252 12.0439 15.9556C13.2747 17.186 14.1648 18.7149 14.627 20.3927C17.8 18.6427 18.892 15.2237 18.992 9.00774ZM20.6 13.9997C20.4915 14.6738 20.3467 15.3414 20.166 15.9997H21.294C21.4082 16.0019 21.5197 15.9645 21.6094 15.8937C21.6991 15.823 21.7615 15.7233 21.786 15.6117C21.8894 15.0792 21.9608 14.5409 22 13.9997H20.6ZM26 6.99974C25.9863 6.47361 25.7712 5.9728 25.3991 5.60065C25.0269 5.2285 24.5261 5.0134 24 4.99974H23V3.99974C22.9873 3.4733 22.7725 2.97193 22.4002 2.59958C22.0278 2.22722 21.5264 2.01243 21 1.99974V6.99974H26Z" fill="#374957"/>
</g>
<defs>
<filter id="filter0_d_403_3774" x="0" y="0" width="32" height="32" filterUnits="userSpaceOnUse" color-interpolation-filters="sRGB">
<feFlood flood-opacity="0" result="BackgroundImageFix"/>
<feColorMatrix in="SourceAlpha" type="matrix" values="0 0 0 0 0 0 0 0 0 0 0 0 0 0 0 0 0 0 127 0" result="hardAlpha"/>
<feOffset dy="4"/>
<feGaussianBlur stdDeviation="2"/>
<feComposite in2="hardAlpha" operator="out"/>
<feColorMatrix type="matrix" values="0 0 0 0 0 0 0 0 0 0 0 0 0 0 0 0 0 0 0.25 0"/>
<feBlend mode="normal" in2="BackgroundImageFix" result="effect1_dropShadow_403_3774"/>
<feBlend mode="normal" in="SourceGraphic" in2="effect1_dropShadow_403_3774" result="shape"/>
</filter>
<clipPath id="clip0_403_3774">
<rect width="24" height="24" fill="white" transform="translate(4)"/>
</clipPath>
</defs>
</svg>
