<svg width="24" height="24" viewBox="0 0 24 24" fill="none" xmlns="http://www.w3.org/2000/svg">
<g clip-path="url(#clip0_403_3554)">
<path d="M21 0H3C2.20435 0 1.44129 0.31607 0.87868 0.87868C0.31607 1.44129 0 2.20435 0 3L0 24H24V3C24 2.20435 23.6839 1.44129 23.1213 0.87868C22.5587 0.31607 21.7956 0 21 0V0ZM22 3V6H18V2H21C21.2652 2 21.5196 2.10536 21.7071 2.29289C21.8946 2.48043 22 2.73478 22 3ZM13 6V2H16V6H13ZM16 8V11H13V8H16ZM11 6H8V2H11V6ZM11 8V11H8V8H11ZM6 11H2V8H6V11ZM6 13V16H2V13H6ZM8 13H11V16H8V13ZM11 18V22H8V18H11ZM13 18H16V22H13V18ZM13 16V13H16V16H13ZM18 13H22V16H18V13ZM18 11V8H22V11H18ZM3 2H6V6H2V3C2 2.73478 2.10536 2.48043 2.29289 2.29289C2.48043 2.10536 2.73478 2 3 2V2ZM2 18H6V22H2V18ZM18 22V18H22V22H18Z" fill="#374957"/>
</g>
<defs>
<clipPath id="clip0_403_3554">
<rect width="24" height="24" fill="white"/>
</clipPath>
</defs>
</svg>
