<svg width="24" height="24" viewBox="0 0 24 24" fill="none" xmlns="http://www.w3.org/2000/svg">
<g clip-path="url(#clip0_403_3496)">
<path d="M22.74 9.25013L9 0.137129V6.48513L0 0.0571289V23.9431L9 17.5151V23.9431L22.741 14.1321C23.1295 13.8546 23.4461 13.4883 23.6646 13.0637C23.883 12.6392 23.997 12.1686 23.997 11.6911C23.997 11.2137 23.883 10.7431 23.6646 10.3185C23.4461 9.89398 23.1295 9.52769 22.741 9.25013H22.74ZM21.578 12.5051L11 20.0571V13.6281L2 20.0571V3.94313L11 10.3721V3.86313L21.59 10.8861C21.7172 10.9798 21.8204 11.1023 21.8911 11.2435C21.9618 11.3848 21.9981 11.5407 21.9969 11.6987C21.9957 11.8566 21.9572 12.0121 21.8843 12.1522C21.8115 12.2924 21.7066 12.4133 21.578 12.5051Z" fill="#374957"/>
</g>
<defs>
<clipPath id="clip0_403_3496">
<rect width="24" height="24" fill="white"/>
</clipPath>
</defs>
</svg>
