<svg width="24" height="24" viewBox="0 0 24 24" fill="none" xmlns="http://www.w3.org/2000/svg">
<g clip-path="url(#clip0_403_3409)">
<path d="M21 4.00031H3C2.20435 4.00031 1.44129 4.31638 0.87868 4.87898C0.31607 5.44159 0 6.20466 0 7.00031L0 20.0003H24V7.00031C24 6.20466 23.6839 5.44159 23.1213 4.87898C22.5587 4.31638 21.7956 4.00031 21 4.00031ZM22 18.0003H2V7.00031C2 6.73509 2.10536 6.48074 2.29289 6.2932C2.48043 6.10566 2.73478 6.00031 3 6.00031H21C21.2652 6.00031 21.5196 6.10566 21.7071 6.2932C21.8946 6.48074 22 6.73509 22 7.00031V18.0003ZM12 8.00031C11.2089 8.00031 10.4355 8.2349 9.77772 8.67443C9.11992 9.11395 8.60723 9.73867 8.30448 10.4696C8.00173 11.2005 7.92252 12.0047 8.07686 12.7807C8.2312 13.5566 8.61216 14.2693 9.17157 14.8287C9.73098 15.3881 10.4437 15.7691 11.2196 15.9234C11.9956 16.0778 12.7998 15.9986 13.5307 15.6958C14.2616 15.3931 14.8864 14.8804 15.3259 14.2226C15.7654 13.5648 16 12.7914 16 12.0003C16 10.9394 15.5786 9.92202 14.8284 9.17188C14.0783 8.42173 13.0609 8.00031 12 8.00031ZM12 14.0003C11.6044 14.0003 11.2178 13.883 10.8889 13.6632C10.56 13.4435 10.3036 13.1311 10.1522 12.7657C10.0009 12.4002 9.96126 11.9981 10.0384 11.6101C10.1156 11.2222 10.3061 10.8658 10.5858 10.5861C10.8655 10.3064 11.2219 10.1159 11.6098 10.0387C11.9978 9.96156 12.3999 10.0012 12.7654 10.1525C13.1308 10.3039 13.4432 10.5603 13.6629 10.8892C13.8827 11.2181 14 11.6047 14 12.0003C14 12.5307 13.7893 13.0394 13.4142 13.4145C13.0391 13.7896 12.5304 14.0003 12 14.0003ZM6 9.00031C6 9.19809 5.94135 9.39143 5.83147 9.55588C5.72159 9.72032 5.56541 9.8485 5.38268 9.92418C5.19996 9.99987 4.99889 10.0197 4.80491 9.98109C4.61093 9.94251 4.43275 9.84726 4.29289 9.70741C4.15304 9.56756 4.0578 9.38938 4.01921 9.1954C3.98063 9.00141 4.00043 8.80035 4.07612 8.61762C4.15181 8.4349 4.27998 8.27872 4.44443 8.16884C4.60888 8.05895 4.80222 8.00031 5 8.00031C5.26522 8.00031 5.51957 8.10566 5.70711 8.2932C5.89464 8.48073 6 8.73509 6 9.00031ZM20 9.00031C20 9.19809 19.9414 9.39143 19.8315 9.55588C19.7216 9.72032 19.5654 9.8485 19.3827 9.92418C19.2 9.99987 18.9989 10.0197 18.8049 9.98109C18.6109 9.94251 18.4327 9.84726 18.2929 9.70741C18.153 9.56756 18.0578 9.38938 18.0192 9.1954C17.9806 9.00141 18.0004 8.80035 18.0761 8.61762C18.1518 8.4349 18.28 8.27872 18.4444 8.16884C18.6089 8.05895 18.8022 8.00031 19 8.00031C19.2652 8.00031 19.5196 8.10566 19.7071 8.2932C19.8946 8.48073 20 8.73509 20 9.00031ZM6 15.0003C6 15.1981 5.94135 15.3914 5.83147 15.5559C5.72159 15.7203 5.56541 15.8485 5.38268 15.9242C5.19996 15.9999 4.99889 16.0197 4.80491 15.9811C4.61093 15.9425 4.43275 15.8473 4.29289 15.7074C4.15304 15.5676 4.0578 15.3894 4.01921 15.1954C3.98063 15.0014 4.00043 14.8003 4.07612 14.6176C4.15181 14.4349 4.27998 14.2787 4.44443 14.1688C4.60888 14.059 4.80222 14.0003 5 14.0003C5.26522 14.0003 5.51957 14.1057 5.70711 14.2932C5.89464 14.4807 6 14.7351 6 15.0003ZM20 15.0003C20 15.1981 19.9414 15.3914 19.8315 15.5559C19.7216 15.7203 19.5654 15.8485 19.3827 15.9242C19.2 15.9999 18.9989 16.0197 18.8049 15.9811C18.6109 15.9425 18.4327 15.8473 18.2929 15.7074C18.153 15.5676 18.0578 15.3894 18.0192 15.1954C17.9806 15.0014 18.0004 14.8003 18.0761 14.6176C18.1518 14.4349 18.28 14.2787 18.4444 14.1688C18.6089 14.059 18.8022 14.0003 19 14.0003C19.2652 14.0003 19.5196 14.1057 19.7071 14.2932C19.8946 14.4807 20 14.7351 20 15.0003Z" fill="#374957"/>
</g>
<defs>
<clipPath id="clip0_403_3409">
<rect width="24" height="24" fill="white"/>
</clipPath>
</defs>
</svg>
