<svg width="32" height="32" viewBox="0 0 32 32" fill="none" xmlns="http://www.w3.org/2000/svg">
<g clip-path="url(#clip0_403_3587)" filter="url(#filter0_d_403_3587)">
<path d="M25.511 2.49016C23.9159 0.898002 21.7542 0.00378418 19.5005 0.00378418C17.2468 0.00378418 15.0851 0.898002 13.49 2.49016C10.318 5.66116 10.012 13.6282 10 13.9662L9.986 14.4002L11.086 15.5002L6.807 19.7792C6.6659 19.5211 6.45202 19.3101 6.19197 19.1726C5.93193 19.0351 5.6372 18.9771 5.34444 19.0059C5.05169 19.0346 4.77384 19.1487 4.54546 19.3341C4.31708 19.5195 4.14825 19.768 4.05998 20.0486C3.97171 20.3292 3.96788 20.6295 4.04899 20.9123C4.13009 21.195 4.29254 21.4477 4.51613 21.6388C4.73972 21.83 5.01457 21.9512 5.3065 21.9873C5.59843 22.0235 5.89454 21.973 6.158 21.8422C6.02717 22.1056 5.97669 22.4017 6.01284 22.6937C6.04899 22.9856 6.17018 23.2604 6.36132 23.484C6.55247 23.7076 6.80514 23.8701 7.08789 23.9512C7.37064 24.0323 7.67101 24.0285 7.95161 23.9402C8.23221 23.8519 8.48066 23.6831 8.66605 23.4547C8.85144 23.2263 8.9656 22.9485 8.99431 22.6557C9.02302 22.363 8.96502 22.0682 8.82752 21.8082C8.69003 21.5481 8.47911 21.3343 8.221 21.1932L12.5 16.9142L13.6 18.0142L14.034 18.0002C14.372 17.9882 22.334 17.6822 25.511 14.5102C27.1026 12.915 27.9965 10.7536 27.9965 8.50016C27.9965 6.24675 27.1026 4.08535 25.511 2.49016V2.49016ZM24.1 13.1002C22.064 15.1352 16.765 15.8442 14.4 15.9842L12.02 13.6052C12.16 11.2382 12.869 5.93916 14.904 3.90516C16.1233 2.68569 17.7772 2.00055 19.5016 2.00046C21.2261 2.00037 22.88 2.68533 24.0995 3.90466C25.319 5.12399 26.0041 6.77782 26.0042 8.50231C26.0043 10.2268 25.3193 11.8807 24.1 13.1002V13.1002Z" fill="#374957"/>
</g>
<defs>
<filter id="filter0_d_403_3587" x="0" y="0" width="32" height="32" filterUnits="userSpaceOnUse" color-interpolation-filters="sRGB">
<feFlood flood-opacity="0" result="BackgroundImageFix"/>
<feColorMatrix in="SourceAlpha" type="matrix" values="0 0 0 0 0 0 0 0 0 0 0 0 0 0 0 0 0 0 127 0" result="hardAlpha"/>
<feOffset dy="4"/>
<feGaussianBlur stdDeviation="2"/>
<feComposite in2="hardAlpha" operator="out"/>
<feColorMatrix type="matrix" values="0 0 0 0 0 0 0 0 0 0 0 0 0 0 0 0 0 0 0.25 0"/>
<feBlend mode="normal" in2="BackgroundImageFix" result="effect1_dropShadow_403_3587"/>
<feBlend mode="normal" in="SourceGraphic" in2="effect1_dropShadow_403_3587" result="shape"/>
</filter>
<clipPath id="clip0_403_3587">
<rect width="24" height="24" fill="white" transform="translate(4)"/>
</clipPath>
</defs>
</svg>
