<svg width="32" height="31" viewBox="0 0 32 31" fill="none" xmlns="http://www.w3.org/2000/svg">
<g clip-path="url(#clip0_403_3366)" filter="url(#filter0_d_403_3366)">
<path d="M28 13.9994C28 13.2037 27.6839 12.4407 27.1213 11.8781C26.5587 11.3155 25.7956 10.9994 25 10.9994H23V3.99939C23 3.20374 22.6839 2.44068 22.1213 1.87807C21.5587 1.31546 20.7956 0.99939 20 0.99939H7C6.20435 0.99939 5.44129 1.31546 4.87868 1.87807C4.31607 2.44068 4 3.20374 4 3.99939V18.9994H6.041C6.01527 19.1648 6.00157 19.332 6 19.4994C6 20.4276 6.36875 21.3179 7.02513 21.9743C7.6815 22.6306 8.57174 22.9994 9.5 22.9994C10.4283 22.9994 11.3185 22.6306 11.9749 21.9743C12.6313 21.3179 13 20.4276 13 19.4994C12.9984 19.332 12.9847 19.1648 12.959 18.9994H19.041C19.0153 19.1648 19.0016 19.332 19 19.4994C19 20.4276 19.3687 21.3179 20.0251 21.9743C20.6815 22.6306 21.5717 22.9994 22.5 22.9994C23.4283 22.9994 24.3185 22.6306 24.9749 21.9743C25.6313 21.3179 26 20.4276 26 19.4994C25.9984 19.332 25.9847 19.1648 25.959 18.9994H28V13.9994ZM17 12.9994V16.9994H14V6.99939H17V12.9994ZM6 10.9994V6.99939H8V10.9994H6ZM10 6.99939H12V10.9994H10V6.99939ZM19 6.99939H21V10.9994H19V6.99939ZM7 2.99939H20C20.2652 2.99939 20.5196 3.10475 20.7071 3.29228C20.8946 3.47982 21 3.73417 21 3.99939V4.99939H6V3.99939C6 3.73417 6.10536 3.47982 6.29289 3.29228C6.48043 3.10475 6.73478 2.99939 7 2.99939V2.99939ZM6 12.9994H12V16.9994H6V12.9994ZM11 19.4994C11 19.8972 10.842 20.2787 10.5607 20.56C10.2794 20.8414 9.89782 20.9994 9.5 20.9994C9.10218 20.9994 8.72064 20.8414 8.43934 20.56C8.15804 20.2787 8 19.8972 8 19.4994C8.00044 19.3285 8.03195 19.159 8.093 18.9994H10.907C10.968 19.159 10.9996 19.3285 11 19.4994V19.4994ZM24 19.4994C24 19.8972 23.842 20.2787 23.5607 20.56C23.2794 20.8414 22.8978 20.9994 22.5 20.9994C22.1022 20.9994 21.7206 20.8414 21.4393 20.56C21.158 20.2787 21 19.8972 21 19.4994C21.0004 19.3285 21.032 19.159 21.093 18.9994H23.907C23.968 19.159 23.9996 19.3285 24 19.4994V19.4994ZM26 16.9994H19V12.9994H25C25.2652 12.9994 25.5196 13.1047 25.7071 13.2923C25.8946 13.4798 26 13.7342 26 13.9994V16.9994Z" fill="#374957"/>
</g>
<defs>
<filter id="filter0_d_403_3366" x="0" y="0" width="32" height="32" filterUnits="userSpaceOnUse" color-interpolation-filters="sRGB">
<feFlood flood-opacity="0" result="BackgroundImageFix"/>
<feColorMatrix in="SourceAlpha" type="matrix" values="0 0 0 0 0 0 0 0 0 0 0 0 0 0 0 0 0 0 127 0" result="hardAlpha"/>
<feOffset dy="4"/>
<feGaussianBlur stdDeviation="2"/>
<feComposite in2="hardAlpha" operator="out"/>
<feColorMatrix type="matrix" values="0 0 0 0 0 0 0 0 0 0 0 0 0 0 0 0 0 0 0.25 0"/>
<feBlend mode="normal" in2="BackgroundImageFix" result="effect1_dropShadow_403_3366"/>
<feBlend mode="normal" in="SourceGraphic" in2="effect1_dropShadow_403_3366" result="shape"/>
</filter>
<clipPath id="clip0_403_3366">
<rect width="24" height="24" fill="white" transform="translate(4)"/>
</clipPath>
</defs>
</svg>
