<svg width="32" height="32" viewBox="0 0 32 32" fill="none" xmlns="http://www.w3.org/2000/svg">
<g clip-path="url(#clip0_403_3763)" filter="url(#filter0_d_403_3763)">
<path d="M25 0H7C6.20435 0 5.44129 0.31607 4.87868 0.87868C4.31607 1.44129 4 2.20435 4 3V24H28V3C28 2.20435 27.6839 1.44129 27.1213 0.87868C26.5587 0.31607 25.7956 0 25 0V0ZM11 22V17C11 16.7348 11.1054 16.4804 11.2929 16.2929C11.4804 16.1054 11.7348 16 12 16H20C20.2652 16 20.5196 16.1054 20.7071 16.2929C20.8946 16.4804 21 16.7348 21 17V22H11ZM26 22H23V17C23 16.2044 22.6839 15.4413 22.1213 14.8787C21.5587 14.3161 20.7956 14 20 14H12C11.2044 14 10.4413 14.3161 9.87868 14.8787C9.31607 15.4413 9 16.2044 9 17V22H6V3C6 2.73478 6.10536 2.48043 6.29289 2.29289C6.48043 2.10536 6.73478 2 7 2H25C25.2652 2 25.5196 2.10536 25.7071 2.29289C25.8946 2.48043 26 2.73478 26 3V22Z" fill="#374957"/>
<path d="M16.0001 3.99939C15.209 3.99939 14.4356 4.23399 13.7778 4.67351C13.12 5.11304 12.6074 5.73775 12.3046 6.46866C12.0019 7.19956 11.9226 8.00383 12.077 8.77975C12.2313 9.55567 12.6123 10.2684 13.1717 10.8278C13.7311 11.3872 14.4438 11.7682 15.2198 11.9225C15.9957 12.0769 16.8 11.9977 17.5309 11.6949C18.2618 11.3922 18.8865 10.8795 19.326 10.2217C19.7655 9.56387 20.0001 8.79051 20.0001 7.99939C20.0001 6.93852 19.5787 5.92111 18.8286 5.17096C18.0784 4.42082 17.061 3.99939 16.0001 3.99939ZM16.0001 9.99939C15.6046 9.99939 15.2179 9.88209 14.889 9.66233C14.5601 9.44257 14.3037 9.13021 14.1524 8.76476C14.001 8.3993 13.9614 7.99717 14.0386 7.60921C14.1157 7.22125 14.3062 6.86488 14.5859 6.58518C14.8656 6.30547 15.222 6.11499 15.6099 6.03782C15.9979 5.96065 16.4 6.00026 16.7655 6.15163C17.1309 6.30301 17.4433 6.55935 17.6631 6.88825C17.8828 7.21715 18.0001 7.60383 18.0001 7.99939C18.0001 8.52982 17.7894 9.03853 17.4143 9.4136C17.0393 9.78868 16.5306 9.99939 16.0001 9.99939Z" fill="#374957"/>
</g>
<defs>
<filter id="filter0_d_403_3763" x="0" y="0" width="32" height="32" filterUnits="userSpaceOnUse" color-interpolation-filters="sRGB">
<feFlood flood-opacity="0" result="BackgroundImageFix"/>
<feColorMatrix in="SourceAlpha" type="matrix" values="0 0 0 0 0 0 0 0 0 0 0 0 0 0 0 0 0 0 127 0" result="hardAlpha"/>
<feOffset dy="4"/>
<feGaussianBlur stdDeviation="2"/>
<feComposite in2="hardAlpha" operator="out"/>
<feColorMatrix type="matrix" values="0 0 0 0 0 0 0 0 0 0 0 0 0 0 0 0 0 0 0.25 0"/>
<feBlend mode="normal" in2="BackgroundImageFix" result="effect1_dropShadow_403_3763"/>
<feBlend mode="normal" in="SourceGraphic" in2="effect1_dropShadow_403_3763" result="shape"/>
</filter>
<clipPath id="clip0_403_3763">
<rect width="24" height="24" fill="white" transform="translate(4)"/>
</clipPath>
</defs>
</svg>
