<svg width="24" height="24" viewBox="0 0 24 24" fill="none" xmlns="http://www.w3.org/2000/svg">
<g clip-path="url(#clip0_403_3332)">
<path d="M1.99969 0V21C1.99969 21.7956 2.31577 22.5587 2.87837 23.1213C3.44098 23.6839 4.20405 24 4.99969 24H18.9997C19.7953 24 20.5584 23.6839 21.121 23.1213C21.6836 22.5587 21.9997 21.7956 21.9997 21V0H1.99969ZM19.9997 2V17H3.99969V2H19.9997ZM18.9997 22H4.99969C4.73448 22 4.48012 21.8946 4.29259 21.7071C4.10505 21.5196 3.99969 21.2652 3.99969 21V19H10.9997V21H12.9997V19H19.9997V21C19.9997 21.2652 19.8943 21.5196 19.7068 21.7071C19.5193 21.8946 19.2649 22 18.9997 22Z" fill="#374957"/>
</g>
<defs>
<clipPath id="clip0_403_3332">
<rect width="24" height="24" fill="white"/>
</clipPath>
</defs>
</svg>
