<svg width="32" height="32" viewBox="0 0 32 32" fill="none" xmlns="http://www.w3.org/2000/svg">
<g clip-path="url(#clip0_403_3571)" filter="url(#filter0_d_403_3571)">
<path d="M9.00015 18.9998H13.4142L27.0572 5.35677C27.6415 4.77094 27.9697 3.97724 27.9697 3.14977C27.9697 2.32229 27.6415 1.5286 27.0572 0.942768C26.4628 0.374661 25.6723 0.0576172 24.8502 0.0576172C24.028 0.0576172 23.2375 0.374661 22.6432 0.942768L9.00015 14.5858V18.9998ZM11.0002 15.4138L24.0572 2.35677C24.2707 2.15272 24.5548 2.03886 24.8502 2.03886C25.1455 2.03886 25.4296 2.15272 25.6432 2.35677C25.8531 2.56728 25.971 2.85246 25.971 3.14977C25.971 3.44708 25.8531 3.73225 25.6432 3.94277L12.5862 16.9998H11.0002V15.4138Z" fill="#374957"/>
<path d="M27.621 7.622L26 9.243V16H20V22H6V3C6 2.73478 6.10536 2.48043 6.29289 2.29289C6.48043 2.10536 6.73478 2 7 2H18.758L20.379 0.379C20.525 0.243624 20.6789 0.117066 20.84 0L7 0C6.20435 0 5.44129 0.31607 4.87868 0.87868C4.31607 1.44129 4 2.20435 4 3V24H22.414L28 18.414V7.161C27.8827 7.32186 27.7561 7.47579 27.621 7.622V7.622ZM22 21.586V18H25.586L22 21.586Z" fill="#374957"/>
</g>
<defs>
<filter id="filter0_d_403_3571" x="0" y="0" width="32" height="32" filterUnits="userSpaceOnUse" color-interpolation-filters="sRGB">
<feFlood flood-opacity="0" result="BackgroundImageFix"/>
<feColorMatrix in="SourceAlpha" type="matrix" values="0 0 0 0 0 0 0 0 0 0 0 0 0 0 0 0 0 0 127 0" result="hardAlpha"/>
<feOffset dy="4"/>
<feGaussianBlur stdDeviation="2"/>
<feComposite in2="hardAlpha" operator="out"/>
<feColorMatrix type="matrix" values="0 0 0 0 0 0 0 0 0 0 0 0 0 0 0 0 0 0 0.25 0"/>
<feBlend mode="normal" in2="BackgroundImageFix" result="effect1_dropShadow_403_3571"/>
<feBlend mode="normal" in="SourceGraphic" in2="effect1_dropShadow_403_3571" result="shape"/>
</filter>
<clipPath id="clip0_403_3571">
<rect width="24" height="24" fill="white" transform="translate(4)"/>
</clipPath>
</defs>
</svg>
