<svg width="28" height="32" viewBox="0 0 28 32" fill="none" xmlns="http://www.w3.org/2000/svg">
<g filter="url(#filter0_d_403_3660)">
<path d="M14.0002 0.00695801C12.0217 0.00718134 10.0876 0.594327 8.4429 1.69409C6.79816 2.79386 5.51662 4.35681 4.76046 6.18517C4.0043 8.01352 3.80751 10.0251 4.19499 11.9653C4.58247 13.9056 5.5368 15.6873 6.93722 17.0849L11.9622 21.9999H7.00022V23.9999H21.0002V21.9999H16.0382L21.0712 17.0769C22.4694 15.6784 23.4215 13.8966 23.8071 11.957C24.1927 10.0174 23.9946 8.00698 23.2378 6.17994C22.481 4.35291 21.1994 2.79129 19.5552 1.69252C17.9109 0.593758 15.9778 0.00718254 14.0002 0.00695801V0.00695801ZM19.6652 15.6549L14.0002 21.1999L8.34322 15.6629C7.22478 14.5444 6.46301 13.1195 6.15419 11.5682C5.84536 10.0169 6.00333 8.40884 6.60815 6.94729C7.21296 5.48574 8.23746 4.23628 9.55218 3.35682C10.8669 2.47736 12.4128 2.00737 13.9946 2.00625C15.5763 2.00514 17.1229 2.47294 18.4389 3.35054C19.7548 4.22814 20.7811 5.47615 21.388 6.93685C21.9948 8.39754 22.1551 10.0054 21.8485 11.5571C21.5418 13.1088 20.7821 14.5349 19.6652 15.6549V15.6549ZM9.00022 6.38195V12.6179L14.0002 15.1179L19.0002 12.6179V6.38195L14.0002 3.88195L9.00022 6.38195ZM17.0002 11.3819L14.0002 12.8819L11.0002 11.3819V7.61795L11.1182 7.55895L14.0002 8.99995L16.8822 7.55895L17.0002 7.61795V11.3819Z" fill="#374957"/>
</g>
<defs>
<filter id="filter0_d_403_3660" x="-2" y="0" width="32" height="32" filterUnits="userSpaceOnUse" color-interpolation-filters="sRGB">
<feFlood flood-opacity="0" result="BackgroundImageFix"/>
<feColorMatrix in="SourceAlpha" type="matrix" values="0 0 0 0 0 0 0 0 0 0 0 0 0 0 0 0 0 0 127 0" result="hardAlpha"/>
<feOffset dy="4"/>
<feGaussianBlur stdDeviation="2"/>
<feComposite in2="hardAlpha" operator="out"/>
<feColorMatrix type="matrix" values="0 0 0 0 0 0 0 0 0 0 0 0 0 0 0 0 0 0 0.25 0"/>
<feBlend mode="normal" in2="BackgroundImageFix" result="effect1_dropShadow_403_3660"/>
<feBlend mode="normal" in="SourceGraphic" in2="effect1_dropShadow_403_3660" result="shape"/>
</filter>
</defs>
</svg>
