<svg width="24" height="27" viewBox="0 0 24 27" fill="none" xmlns="http://www.w3.org/2000/svg">
<g filter="url(#filter0_d_403_3624)">
<path d="M12.0001 19.0001C10.6156 19.0001 9.26223 18.5896 8.11109 17.8204C6.95994 17.0512 6.06274 15.958 5.53292 14.6789C5.00311 13.3998 4.86449 11.9924 5.13458 10.6345C5.40468 9.27663 6.07136 8.02935 7.05033 7.05038C8.0293 6.07141 9.27658 5.40472 10.6344 5.13463C11.9923 4.86453 13.3998 5.00316 14.6789 5.53297C15.9579 6.06278 17.0512 6.95999 17.8204 8.11113C18.5895 9.26228 19.0001 10.6157 19.0001 12.0001C18.998 13.856 18.2598 15.6352 16.9475 16.9475C15.6352 18.2598 13.8559 18.998 12.0001 19.0001V19.0001ZM12.0001 7.00013C11.0112 7.00013 10.0445 7.29337 9.22223 7.84278C8.39998 8.39218 7.75912 9.17308 7.38068 10.0867C7.00224 11.0003 6.90323 12.0057 7.09615 12.9756C7.28908 13.9455 7.76528 14.8364 8.46455 15.5357C9.16381 16.2349 10.0547 16.7111 11.0246 16.9041C11.9945 17.097 12.9999 16.998 13.9135 16.6195C14.8271 16.2411 15.608 15.6002 16.1574 14.778C16.7068 13.9557 17.0001 12.989 17.0001 12.0001C16.9985 10.6745 16.4712 9.40368 15.5339 8.46635C14.5965 7.52901 13.3257 7.00171 12.0001 7.00013V7.00013Z" fill="#374957"/>
</g>
<defs>
<filter id="filter0_d_403_3624" x="-4" y="0" width="32" height="32" filterUnits="userSpaceOnUse" color-interpolation-filters="sRGB">
<feFlood flood-opacity="0" result="BackgroundImageFix"/>
<feColorMatrix in="SourceAlpha" type="matrix" values="0 0 0 0 0 0 0 0 0 0 0 0 0 0 0 0 0 0 127 0" result="hardAlpha"/>
<feOffset dy="4"/>
<feGaussianBlur stdDeviation="2"/>
<feComposite in2="hardAlpha" operator="out"/>
<feColorMatrix type="matrix" values="0 0 0 0 0 0 0 0 0 0 0 0 0 0 0 0 0 0 0.25 0"/>
<feBlend mode="normal" in2="BackgroundImageFix" result="effect1_dropShadow_403_3624"/>
<feBlend mode="normal" in="SourceGraphic" in2="effect1_dropShadow_403_3624" result="shape"/>
</filter>
</defs>
</svg>
