<svg width="32" height="32" viewBox="0 0 32 32" fill="none" xmlns="http://www.w3.org/2000/svg">
<g clip-path="url(#clip0_403_3618)" filter="url(#filter0_d_403_3618)">
<path d="M26.5432 0.0423584L13.6772 12.9083C12.8956 11.9616 12.2463 10.913 11.7472 9.79135L15.1472 6.39135L8.88723 0.121358L5.71623 3.29135C5.16623 3.8445 4.73137 4.50121 4.43683 5.22351C4.14228 5.9458 3.99388 6.71933 4.00023 7.49935C4.00023 10.7403 5.79123 14.4993 8.82523 17.7603L4.04323 22.5423L5.45723 23.9563L27.9572 1.45636L26.5432 0.0423584ZM6.00023 7.49935C5.99434 6.98218 6.09119 6.46899 6.28517 5.98954C6.47914 5.5101 6.76638 5.07393 7.13023 4.70635L8.88723 2.94935L12.3242 6.38635L9.38923 9.32135L9.63423 9.93535C10.2649 11.5314 11.1522 13.0136 12.2612 14.3233L10.2362 16.3493C7.56923 13.4653 6.00023 10.2313 6.00023 7.49935ZM21.6132 12.8473L27.8782 19.1123L24.7072 22.2833C24.1546 22.8337 23.4981 23.2688 22.7759 23.5634C22.0537 23.858 21.2802 24.0062 20.5002 23.9993C17.8352 23.9993 14.7002 22.6933 11.7832 20.4553L13.2092 19.0293C15.7002 20.8893 18.3562 21.9993 20.5002 21.9993C21.0173 22.0055 21.5304 21.9087 22.0097 21.7147C22.489 21.5207 22.925 21.2334 23.2922 20.8693L25.0502 19.1123L21.6132 15.6753L18.6872 18.5993L18.0812 18.3683C17.1016 17.9945 16.1633 17.5203 15.2812 16.9533L16.7382 15.4993C17.209 15.7833 17.6973 16.0371 18.2002 16.2593L21.6132 12.8473Z" fill="#374957"/>
</g>
<defs>
<filter id="filter0_d_403_3618" x="0" y="0" width="32" height="32" filterUnits="userSpaceOnUse" color-interpolation-filters="sRGB">
<feFlood flood-opacity="0" result="BackgroundImageFix"/>
<feColorMatrix in="SourceAlpha" type="matrix" values="0 0 0 0 0 0 0 0 0 0 0 0 0 0 0 0 0 0 127 0" result="hardAlpha"/>
<feOffset dy="4"/>
<feGaussianBlur stdDeviation="2"/>
<feComposite in2="hardAlpha" operator="out"/>
<feColorMatrix type="matrix" values="0 0 0 0 0 0 0 0 0 0 0 0 0 0 0 0 0 0 0.25 0"/>
<feBlend mode="normal" in2="BackgroundImageFix" result="effect1_dropShadow_403_3618"/>
<feBlend mode="normal" in="SourceGraphic" in2="effect1_dropShadow_403_3618" result="shape"/>
</filter>
<clipPath id="clip0_403_3618">
<rect width="24" height="24" fill="white" transform="translate(4)"/>
</clipPath>
</defs>
</svg>
