<svg width="24" height="24" viewBox="0 0 24 24" fill="none" xmlns="http://www.w3.org/2000/svg">
<g clip-path="url(#clip0_403_3736)">
<path d="M-1.52074e-05 22.0001H24V24.0001H-1.52074e-05V22.0001ZM24 7.90907V10.0001H21V18.0001H23V20.0001H0.999985V18.0001H2.99998V10.0001H-1.52074e-05V7.90907C-0.000114963 7.37011 0.14498 6.84108 0.420018 6.37758C0.695055 5.91408 1.08988 5.53323 1.56298 5.27507L10.563 0.366068C11.0036 0.124927 11.4977 -0.00146484 12 -0.00146484C12.5022 -0.00146484 12.9964 0.124927 13.437 0.366068L22.437 5.27507C22.9101 5.53323 23.3049 5.91408 23.58 6.37758C23.855 6.84108 24.0001 7.37011 24 7.90907ZM4.99998 18.0001H7.99998V10.0001H4.99998V18.0001ZM9.99998 10.0001V18.0001H14V10.0001H9.99998ZM19 10.0001H16V18.0001H19V10.0001ZM22 7.90907C22 7.72942 21.9517 7.55307 21.86 7.39857C21.7683 7.24407 21.6367 7.11712 21.479 7.03107L12.479 2.12207C12.3321 2.04189 12.1674 1.99988 12 1.99988C11.8326 1.99988 11.6679 2.04189 11.521 2.12207L2.52098 7.03107C2.36328 7.11712 2.23167 7.24407 2.14 7.39857C2.04832 7.55307 1.99995 7.72942 1.99998 7.90907V8.00007H22V7.90907Z" fill="#374957"/>
</g>
<defs>
<clipPath id="clip0_403_3736">
<rect width="24" height="24" fill="white"/>
</clipPath>
</defs>
</svg>
