<svg width="24" height="24" viewBox="0 0 24 24" fill="none" xmlns="http://www.w3.org/2000/svg">
<g clip-path="url(#clip0_403_3323)">
<path d="M10 24H0V22H10V24ZM8 18H0V20H8V18ZM6 14H0V16H6V14ZM12 0C8.81846 0.00344108 5.76821 1.26883 3.51852 3.51852C1.26883 5.76821 0.00344108 8.81846 0 12H2C2 10.0222 2.58649 8.08879 3.6853 6.4443C4.78412 4.79981 6.3459 3.51808 8.17317 2.7612C10.0004 2.00433 12.0111 1.8063 13.9509 2.19215C15.8907 2.578 17.6725 3.53041 19.0711 4.92893C20.4696 6.32746 21.422 8.10929 21.8079 10.0491C22.1937 11.9889 21.9957 13.9996 21.2388 15.8268C20.4819 17.6541 19.2002 19.2159 17.5557 20.3147C15.9112 21.4135 13.9778 22 12 22V24C15.1826 24 18.2348 22.7357 20.4853 20.4853C22.7357 18.2348 24 15.1826 24 12C24 8.8174 22.7357 5.76516 20.4853 3.51472C18.2348 1.26428 15.1826 0 12 0V0ZM11 7V12.414L14.293 15.707L15.707 14.293L13 11.586V7H11Z" fill="#374957"/>
</g>
<defs>
<clipPath id="clip0_403_3323">
<rect width="24" height="24" fill="white"/>
</clipPath>
</defs>
</svg>
