<svg width="32" height="32" viewBox="0 0 32 32" fill="none" xmlns="http://www.w3.org/2000/svg">
<g clip-path="url(#clip0_403_3446)" filter="url(#filter0_d_403_3446)">
<path d="M22.7599 16C22.0712 15.998 21.389 16.1326 20.7526 16.3961C20.1163 16.6596 19.5386 17.0467 19.0529 17.535L16.0529 20.535C15.5896 21.0007 15.0385 21.37 14.4316 21.6215C13.8247 21.8729 13.1739 22.0016 12.5169 22H7.12295C6.90114 22.0001 6.68427 21.9345 6.4998 21.8113C6.31533 21.6881 6.17155 21.513 6.08665 21.3081C6.00175 21.1032 5.97955 20.8777 6.02286 20.6601C6.06617 20.4426 6.17304 20.2428 6.32995 20.086L9.51994 16.9L22.7729 13.365C23.412 13.1946 23.9768 12.8177 24.3796 12.2931C24.7823 11.7684 25.0004 11.1254 24.9999 10.464V3C24.9999 2.20435 24.6839 1.44129 24.1212 0.87868C23.5586 0.316071 22.7956 2.81137e-07 21.9999 2.81137e-07H14.5359C13.8747 -0.000285885 13.2319 0.217899 12.7075 0.620634C12.183 1.02337 11.8063 1.58809 11.6359 2.227L8.09994 15.485L4.91595 18.672C4.47942 19.1085 4.18214 19.6646 4.06169 20.2701C3.94125 20.8755 4.00305 21.5031 4.2393 22.0734C4.47554 22.6437 4.8756 23.1312 5.38889 23.4741C5.90218 23.817 6.50564 24.0001 7.12295 24H12.5169C13.4367 24.0024 14.3477 23.8224 15.1974 23.4703C16.047 23.1183 16.8184 22.6012 17.4669 21.949L20.4669 18.949C20.9206 18.4965 21.4982 18.1886 22.1267 18.0641C22.7552 17.9396 23.4066 18.0041 23.9985 18.2494C24.5904 18.4947 25.0964 18.9098 25.4526 19.4424C25.8088 19.9751 25.9993 20.6013 25.9999 21.242V24H27.9999V21.242C27.9981 19.8527 27.4455 18.5207 26.4632 17.5381C25.481 16.5555 24.1493 16.0024 22.7599 16V16ZM22.9999 3.416V9.586L19.9149 6.5L22.9999 3.416ZM18.4999 5.087L15.4139 2H21.5879L18.4999 5.087ZM22.0659 11.481L12.3419 14.074L18.4999 7.915L22.0659 11.481ZM13.5189 2.933L17.0869 6.5L10.9249 12.663L13.5189 2.933Z" fill="#374957"/>
</g>
<defs>
<filter id="filter0_d_403_3446" x="0" y="0" width="32" height="32" filterUnits="userSpaceOnUse" color-interpolation-filters="sRGB">
<feFlood flood-opacity="0" result="BackgroundImageFix"/>
<feColorMatrix in="SourceAlpha" type="matrix" values="0 0 0 0 0 0 0 0 0 0 0 0 0 0 0 0 0 0 127 0" result="hardAlpha"/>
<feOffset dy="4"/>
<feGaussianBlur stdDeviation="2"/>
<feComposite in2="hardAlpha" operator="out"/>
<feColorMatrix type="matrix" values="0 0 0 0 0 0 0 0 0 0 0 0 0 0 0 0 0 0 0.25 0"/>
<feBlend mode="normal" in2="BackgroundImageFix" result="effect1_dropShadow_403_3446"/>
<feBlend mode="normal" in="SourceGraphic" in2="effect1_dropShadow_403_3446" result="shape"/>
</filter>
<clipPath id="clip0_403_3446">
<rect width="24" height="24" fill="white" transform="translate(4)"/>
</clipPath>
</defs>
</svg>
