<svg width="32" height="32" viewBox="0 0 32 32" fill="none" xmlns="http://www.w3.org/2000/svg">
<g clip-path="url(#clip0_403_3387)" filter="url(#filter0_d_403_3387)">
<path d="M20.5 17C19.806 17.0008 19.1279 17.2079 18.5519 17.595C17.9759 17.9821 17.5279 18.5317 17.265 19.174C16.4376 18.942 15.5624 18.942 14.735 19.174C14.4158 18.4 13.8292 17.7664 13.0821 17.3885C12.3351 17.0106 11.4771 16.9135 10.6645 17.1149C9.85187 17.3163 9.13856 17.8028 8.65442 18.4858C8.17028 19.1689 7.9475 20.003 8.02662 20.8365C8.10575 21.67 8.48152 22.4473 9.08554 23.0271C9.68956 23.6068 10.4817 23.9504 11.3177 23.9953C12.1537 24.0402 12.978 23.7834 13.6407 23.2716C14.3033 22.7599 14.7601 22.0272 14.928 21.207C15.2724 21.0827 15.6341 21.0128 16 21C16.3659 21.0127 16.7276 21.0826 17.072 21.207C17.2057 21.8553 17.5205 22.4524 17.9799 22.929C18.4393 23.4056 19.0244 23.7421 19.6673 23.8996C20.3103 24.057 20.9847 24.0289 21.6123 23.8185C22.2399 23.6081 22.795 23.224 23.2131 22.7109C23.6313 22.1977 23.8953 21.5765 23.9746 20.9193C24.0539 20.2622 23.9453 19.596 23.6612 18.9981C23.3772 18.4002 22.9294 17.8951 22.3698 17.5414C21.8103 17.1878 21.1619 17 20.5 17V17ZM11.5 22C11.2033 22 10.9133 21.912 10.6666 21.7472C10.42 21.5824 10.2277 21.3481 10.1142 21.074C10.0006 20.7999 9.97094 20.4983 10.0288 20.2074C10.0867 19.9164 10.2296 19.6491 10.4393 19.4393C10.6491 19.2296 10.9164 19.0867 11.2074 19.0288C11.4983 18.9709 11.7999 19.0007 12.074 19.1142C12.3481 19.2277 12.5824 19.42 12.7472 19.6666C12.912 19.9133 13 20.2033 13 20.5C13 20.8978 12.842 21.2794 12.5607 21.5607C12.2794 21.842 11.8978 22 11.5 22V22ZM20.5 22C20.2033 22 19.9133 21.912 19.6666 21.7472C19.42 21.5824 19.2277 21.3481 19.1142 21.074C19.0006 20.7999 18.9709 20.4983 19.0288 20.2074C19.0867 19.9164 19.2296 19.6491 19.4393 19.4393C19.6491 19.2296 19.9164 19.0867 20.2074 19.0288C20.4983 18.9709 20.7999 19.0007 21.074 19.1142C21.3481 19.2277 21.5824 19.42 21.7472 19.6666C21.912 19.9133 22 20.2033 22 20.5C22 20.8978 21.842 21.2794 21.5607 21.5607C21.2794 21.842 20.8978 22 20.5 22ZM23.977 8.9C23.635 0.11 19.2 0 19 0C17.8743 0.050131 16.8064 0.512885 16 1.3C15.1937 0.512726 14.1258 0.0499452 13 0C12.8 0 8.365 0.11 8.023 8.9C5.363 9.619 4 10.657 4 12C4 15.157 11.543 16 16 16C20.457 16 28 15.157 28 12C28 10.657 26.637 9.619 23.977 8.9ZM12.989 2C13.4379 2.03351 13.87 2.18497 14.2415 2.43906C14.6131 2.69314 14.9109 3.04085 15.105 3.447L16 5.236L16.9 3.447C17.0909 3.04772 17.3818 2.70463 17.7446 2.45107C18.1073 2.19752 18.5294 2.04212 18.97 2C18.999 2 21.817 2.272 21.991 9.308C20.0378 9.82601 18.0199 10.0591 16 10C13.9797 10.0575 11.9617 9.82375 10.008 9.306C10.183 2.271 13 2 12.989 2ZM16 14C9.956 14 6.273 12.671 5.994 12.042C6.059 11.878 6.66 11.342 8.465 10.851L8.553 10.895C8.643 10.939 10.823 12 16 12C21.177 12 23.356 10.939 23.447 10.895L23.535 10.851C24.4374 11.0105 25.2863 11.3908 26.006 11.958C25.727 12.671 22.044 14 16 14Z" fill="#374957"/>
</g>
<defs>
<filter id="filter0_d_403_3387" x="0" y="0" width="32" height="32" filterUnits="userSpaceOnUse" color-interpolation-filters="sRGB">
<feFlood flood-opacity="0" result="BackgroundImageFix"/>
<feColorMatrix in="SourceAlpha" type="matrix" values="0 0 0 0 0 0 0 0 0 0 0 0 0 0 0 0 0 0 127 0" result="hardAlpha"/>
<feOffset dy="4"/>
<feGaussianBlur stdDeviation="2"/>
<feComposite in2="hardAlpha" operator="out"/>
<feColorMatrix type="matrix" values="0 0 0 0 0 0 0 0 0 0 0 0 0 0 0 0 0 0 0.25 0"/>
<feBlend mode="normal" in2="BackgroundImageFix" result="effect1_dropShadow_403_3387"/>
<feBlend mode="normal" in="SourceGraphic" in2="effect1_dropShadow_403_3387" result="shape"/>
</filter>
<clipPath id="clip0_403_3387">
<rect width="24" height="24" fill="white" transform="translate(4)"/>
</clipPath>
</defs>
</svg>
