<svg width="32" height="32" viewBox="0 0 32 32" fill="none" xmlns="http://www.w3.org/2000/svg">
<g clip-path="url(#clip0_403_3368)" filter="url(#filter0_d_403_3368)">
<path d="M27.293 11.0704C27.0185 10.7455 26.6781 10.4828 26.2943 10.2995C25.9106 10.1162 25.4922 10.0167 25.067 10.0074C25.5888 8.05678 25.9016 6.05618 26 4.03939L26.043 2.95039L24.954 2.99939C23.7262 3.06531 22.5034 3.20422 21.292 3.41539C21.7792 2.34357 22.0211 1.17655 22 -0.000611145H20C20.0111 0.770614 19.8754 1.53691 19.6 2.25739C19.4099 1.8522 19.1519 1.48253 18.837 1.16439C18.138 0.46709 17.2048 0.0543681 16.2186 0.00632408C15.2324 -0.0417199 14.2635 0.278341 13.5 0.904389C12.759 0.291547 11.8207 -0.0314172 10.8594 -0.00448419C9.89817 0.0224488 8.9794 0.397447 8.27384 1.05082C7.56828 1.70419 7.12392 2.5915 7.02335 3.54785C6.92277 4.5042 7.17282 5.46453 7.72703 6.25039C7.16187 6.73411 6.7138 7.33974 6.41657 8.02168C6.11933 8.70362 5.98067 9.4441 6.01103 10.1874C5.34322 10.4123 4.77773 10.8685 4.41653 11.4735C4.05532 12.0786 3.92215 12.7928 4.04103 13.4874C4.38259 15.6951 5.2434 17.7902 6.55266 19.6003C7.86192 21.4104 9.58221 22.8839 11.572 23.8994L11.772 23.9994H20.223L20.423 23.8994C22.4136 22.8834 24.1342 21.409 25.4434 19.5977C26.7525 17.7865 27.6127 15.6902 27.953 13.4814C28.0252 13.0557 28.0035 12.6194 27.8895 12.2029C27.7755 11.7865 27.5719 11.4 27.293 11.0704V11.0704ZM22.973 9.99939H20.414L21.707 8.70639L20.292 7.29239L17.585 9.99939H16.036C15.9631 9.47344 16.0133 8.93774 16.1826 8.43449C16.352 7.93124 16.6359 7.4742 17.012 7.09939C18.144 5.96739 21.476 5.31539 23.919 5.08339C23.7851 6.75181 23.4679 8.40041 22.973 9.99939V9.99939ZM8.00003 9.99939C8.00003 9.20374 8.3161 8.44068 8.87871 7.87807C9.44132 7.31546 10.2044 6.99939 11 6.99939C11.7957 6.99939 12.5587 7.31546 13.1213 7.87807C13.684 8.44068 14 9.20374 14 9.99939H8.00003ZM9.57803 2.57839C9.9488 2.20876 10.451 2.0012 10.9745 2.0012C11.4981 2.0012 12.0003 2.20876 12.371 2.57839C12.466 2.67839 13.499 3.80839 13.499 3.80839C13.499 3.80839 14.533 2.67439 14.627 2.57939C14.92 2.2817 15.3005 2.08541 15.7129 2.01913C16.1253 1.95286 16.5481 2.02007 16.9196 2.21097C17.2912 2.40187 17.592 2.70647 17.7783 3.08035C17.9645 3.45423 18.0264 3.87784 17.955 4.28939C16.6283 4.69421 15.4959 5.57116 14.772 6.75439C14.1397 6.00715 13.2988 5.46569 12.3569 5.19934C11.415 4.933 10.415 4.95391 9.48503 5.25939C9.15971 4.88308 8.98854 4.39778 9.00578 3.90065C9.02303 3.40352 9.22742 2.93125 9.57803 2.57839V2.57839ZM25.985 13.1514C25.691 15.002 24.9782 16.7611 23.9012 18.2944C22.8241 19.8278 21.4112 21.095 19.77 21.9994H12.229C10.5877 21.0949 9.17466 19.8276 8.09759 18.294C7.02051 16.7605 6.30787 15.0012 6.01403 13.1504C5.99016 13.0107 5.99741 12.8675 6.03527 12.7309C6.07312 12.5944 6.14065 12.4678 6.23303 12.3604C6.32828 12.2473 6.44708 12.1565 6.58112 12.0941C6.71516 12.0317 6.8612 11.9994 7.00903 11.9994H24.99C25.1379 11.9994 25.2839 12.0317 25.4179 12.0941C25.552 12.1565 25.6708 12.2473 25.766 12.3604C25.8583 12.4681 25.9257 12.5948 25.9635 12.7315C26.0014 12.8682 26.0087 13.0115 25.985 13.1514Z" fill="#374957"/>
</g>
<defs>
<filter id="filter0_d_403_3368" x="0" y="0" width="32" height="32" filterUnits="userSpaceOnUse" color-interpolation-filters="sRGB">
<feFlood flood-opacity="0" result="BackgroundImageFix"/>
<feColorMatrix in="SourceAlpha" type="matrix" values="0 0 0 0 0 0 0 0 0 0 0 0 0 0 0 0 0 0 127 0" result="hardAlpha"/>
<feOffset dy="4"/>
<feGaussianBlur stdDeviation="2"/>
<feComposite in2="hardAlpha" operator="out"/>
<feColorMatrix type="matrix" values="0 0 0 0 0 0 0 0 0 0 0 0 0 0 0 0 0 0 0.25 0"/>
<feBlend mode="normal" in2="BackgroundImageFix" result="effect1_dropShadow_403_3368"/>
<feBlend mode="normal" in="SourceGraphic" in2="effect1_dropShadow_403_3368" result="shape"/>
</filter>
<clipPath id="clip0_403_3368">
<rect width="24" height="24" fill="white" transform="translate(4)"/>
</clipPath>
</defs>
</svg>
