<svg width="32" height="32" viewBox="0 0 32 32" fill="none" xmlns="http://www.w3.org/2000/svg">
<g clip-path="url(#clip0_403_3652)" filter="url(#filter0_d_403_3652)">
<path d="M16 0C13.6266 0 11.3066 0.703788 9.33316 2.02236C7.35977 3.34094 5.8217 5.21509 4.91345 7.4078C4.0052 9.60051 3.76756 12.0133 4.23058 14.3411C4.6936 16.6689 5.83649 18.8071 7.51472 20.4853C9.19295 22.1635 11.3312 23.3064 13.6589 23.7694C15.9867 24.2324 18.3995 23.9948 20.5922 23.0866C22.7849 22.1783 24.6591 20.6402 25.9776 18.6668C27.2962 16.6935 28 14.3734 28 12C27.9966 8.81846 26.7312 5.76821 24.4815 3.51852C22.2318 1.26883 19.1815 0.00344108 16 0V0ZM16 22C14.0222 22 12.0888 21.4135 10.4443 20.3147C8.79981 19.2159 7.51809 17.6541 6.76121 15.8268C6.00433 13.9996 5.8063 11.9889 6.19215 10.0491C6.578 8.10929 7.53041 6.32746 8.92894 4.92893C10.3275 3.53041 12.1093 2.578 14.0491 2.19215C15.9889 1.8063 17.9996 2.00433 19.8268 2.76121C21.6541 3.51808 23.2159 4.79981 24.3147 6.4443C25.4135 8.08879 26 10.0222 26 12C25.9971 14.6513 24.9426 17.1931 23.0679 19.0679C21.1931 20.9426 18.6513 21.9971 16 22V22Z" fill="#374957"/>
<path d="M16.0002 6.99939C15.0113 6.99939 14.0446 7.29263 13.2224 7.84204C12.4001 8.39145 11.7593 9.17234 11.3808 10.086C11.0024 10.9996 10.9034 12.0049 11.0963 12.9748C11.2892 13.9447 11.7654 14.8357 12.4647 15.5349C13.164 16.2342 14.0549 16.7104 15.0248 16.9033C15.9947 17.0962 17 16.9972 17.9137 16.6188C18.8273 16.2404 19.6082 15.5995 20.1576 14.7772C20.707 13.955 21.0002 12.9883 21.0002 11.9994C20.9987 10.6738 20.4714 9.40295 19.534 8.46561C18.5967 7.52827 17.3258 7.00098 16.0002 6.99939V6.99939ZM16.0002 14.9994C15.4069 14.9994 14.8269 14.8234 14.3335 14.4938C13.8402 14.1642 13.4557 13.6956 13.2286 13.1474C13.0015 12.5993 12.9421 11.9961 13.0579 11.4141C13.1736 10.8322 13.4594 10.2976 13.8789 9.87807C14.2985 9.45851 14.833 9.17279 15.415 9.05703C15.9969 8.94128 16.6001 9.00069 17.1483 9.22775C17.6965 9.45481 18.165 9.83933 18.4947 10.3327C18.8243 10.826 19.0002 11.406 19.0002 11.9994C19.0002 12.795 18.6842 13.5581 18.1216 14.1207C17.559 14.6833 16.7959 14.9994 16.0002 14.9994Z" fill="#374957"/>
<path d="M15.9997 13.0006C16.552 13.0006 16.9997 12.5529 16.9997 12.0006C16.9997 11.4483 16.552 11.0006 15.9997 11.0006C15.4474 11.0006 14.9997 11.4483 14.9997 12.0006C14.9997 12.5529 15.4474 13.0006 15.9997 13.0006Z" fill="#374957"/>
</g>
<defs>
<filter id="filter0_d_403_3652" x="0" y="0" width="32" height="32" filterUnits="userSpaceOnUse" color-interpolation-filters="sRGB">
<feFlood flood-opacity="0" result="BackgroundImageFix"/>
<feColorMatrix in="SourceAlpha" type="matrix" values="0 0 0 0 0 0 0 0 0 0 0 0 0 0 0 0 0 0 127 0" result="hardAlpha"/>
<feOffset dy="4"/>
<feGaussianBlur stdDeviation="2"/>
<feComposite in2="hardAlpha" operator="out"/>
<feColorMatrix type="matrix" values="0 0 0 0 0 0 0 0 0 0 0 0 0 0 0 0 0 0 0.25 0"/>
<feBlend mode="normal" in2="BackgroundImageFix" result="effect1_dropShadow_403_3652"/>
<feBlend mode="normal" in="SourceGraphic" in2="effect1_dropShadow_403_3652" result="shape"/>
</filter>
<clipPath id="clip0_403_3652">
<rect width="24" height="24" fill="white" transform="translate(4)"/>
</clipPath>
</defs>
</svg>
