<svg width="24" height="24" viewBox="0 0 24 24" fill="none" xmlns="http://www.w3.org/2000/svg">
<g clip-path="url(#clip0_403_3548)">
<path d="M24 24H12C9.62663 24 7.30655 23.2962 5.33316 21.9776C3.35977 20.6591 1.8217 18.7849 0.913451 16.5922C0.00519943 14.3995 -0.232441 11.9867 0.230582 9.65892C0.693605 7.33115 1.83649 5.19295 3.51472 3.51472C5.19295 1.83649 7.33115 0.693605 9.65892 0.230582C11.9867 -0.232441 14.3995 0.00519943 16.5922 0.913451C18.7849 1.8217 20.6591 3.35977 21.9776 5.33316C23.2962 7.30655 24 9.62663 24 12V24ZM12 2.00001C9.34784 2.00001 6.8043 3.05357 4.92894 4.92894C3.05357 6.8043 2.00001 9.34784 2.00001 12C2.00001 14.6522 3.05357 17.1957 4.92894 19.0711C6.8043 20.9464 9.34784 22 12 22H22V12C21.9971 9.34873 20.9426 6.80689 19.0679 4.93215C17.1931 3.05742 14.6513 2.00292 12 2.00001V2.00001ZM11.909 16.419L18.7 9.71201L17.3 8.28801L10.494 14.988L6.70001 11.285L5.30001 12.715L9.08501 16.415C9.45986 16.7884 9.9674 16.9981 10.4965 16.9981C11.0256 16.9981 11.5332 16.7884 11.908 16.415L11.909 16.419Z" fill="#374957"/>
</g>
<defs>
<clipPath id="clip0_403_3548">
<rect width="24" height="24" fill="white"/>
</clipPath>
</defs>
</svg>
