<svg width="32" height="32" viewBox="0 0 32 32" fill="none" xmlns="http://www.w3.org/2000/svg">
<g clip-path="url(#clip0_403_3736)" filter="url(#filter0_d_403_3736)">
<path d="M3.99998 22.0001H28V24.0001H3.99998V22.0001ZM28 7.90907V10.0001H25V18.0001H27V20.0001H4.99998V18.0001H6.99998V10.0001H3.99998V7.90907C3.99989 7.37011 4.14498 6.84108 4.42002 6.37758C4.69506 5.91408 5.08988 5.53323 5.56298 5.27507L14.563 0.366068C15.0036 0.124927 15.4977 -0.00146484 16 -0.00146484C16.5022 -0.00146484 16.9964 0.124927 17.437 0.366068L26.437 5.27507C26.9101 5.53323 27.3049 5.91408 27.58 6.37758C27.855 6.84108 28.0001 7.37011 28 7.90907ZM8.99998 18.0001H12V10.0001H8.99998V18.0001ZM14 10.0001V18.0001H18V10.0001H14ZM23 10.0001H20V18.0001H23V10.0001ZM26 7.90907C26 7.72942 25.9517 7.55307 25.86 7.39857C25.7683 7.24407 25.6367 7.11712 25.479 7.03107L16.479 2.12207C16.3321 2.04189 16.1674 1.99988 16 1.99988C15.8326 1.99988 15.6679 2.04189 15.521 2.12207L6.52098 7.03107C6.36328 7.11712 6.23167 7.24407 6.14 7.39857C6.04832 7.55307 5.99995 7.72942 5.99998 7.90907V8.00007H26V7.90907Z" fill="#374957"/>
</g>
<defs>
<filter id="filter0_d_403_3736" x="0" y="0" width="32" height="32" filterUnits="userSpaceOnUse" color-interpolation-filters="sRGB">
<feFlood flood-opacity="0" result="BackgroundImageFix"/>
<feColorMatrix in="SourceAlpha" type="matrix" values="0 0 0 0 0 0 0 0 0 0 0 0 0 0 0 0 0 0 127 0" result="hardAlpha"/>
<feOffset dy="4"/>
<feGaussianBlur stdDeviation="2"/>
<feComposite in2="hardAlpha" operator="out"/>
<feColorMatrix type="matrix" values="0 0 0 0 0 0 0 0 0 0 0 0 0 0 0 0 0 0 0.25 0"/>
<feBlend mode="normal" in2="BackgroundImageFix" result="effect1_dropShadow_403_3736"/>
<feBlend mode="normal" in="SourceGraphic" in2="effect1_dropShadow_403_3736" result="shape"/>
</filter>
<clipPath id="clip0_403_3736">
<rect width="24" height="24" fill="white" transform="translate(4)"/>
</clipPath>
</defs>
</svg>
