<svg width="24" height="24" viewBox="0 0 24 24" fill="none" xmlns="http://www.w3.org/2000/svg">
<g clip-path="url(#clip0_403_3659)">
<path d="M24 22.0006H0V5.00061C0 4.20496 0.31607 3.4419 0.87868 2.87929C1.44129 2.31668 2.20435 2.00061 3 2.00061H21C21.7956 2.00061 22.5587 2.31668 23.1213 2.87929C23.6839 3.4419 24 4.20496 24 5.00061V22.0006ZM2 20.0006H22V5.00061C22 4.73539 21.8946 4.48104 21.7071 4.2935C21.5196 4.10597 21.2652 4.00061 21 4.00061H3C2.73478 4.00061 2.48043 4.10597 2.29289 4.2935C2.10536 4.48104 2 4.73539 2 5.00061V20.0006Z" fill="#374957"/>
<path d="M20 11.0006H9V13.0006H20V11.0006Z" fill="#374957"/>
<path d="M6.99985 11.0006H3.99985V13.0006H6.99985V11.0006Z" fill="#374957"/>
<path d="M14.9998 16.0012H3.99985V18.0012H14.9998V16.0012Z" fill="#374957"/>
<path d="M20.0002 16.0012H17.0002V18.0012H20.0002V16.0012Z" fill="#374957"/>
</g>
<defs>
<clipPath id="clip0_403_3659">
<rect width="24" height="24" fill="white"/>
</clipPath>
</defs>
</svg>
