<svg width="24" height="24" viewBox="0 0 24 24" fill="none" xmlns="http://www.w3.org/2000/svg">
<g clip-path="url(#clip0_403_3539)">
<path d="M21 6.243C21.0014 5.71738 20.8985 5.19671 20.6973 4.71111C20.4962 4.22552 20.2007 3.78464 19.828 3.414L17.586 1.172C16.8347 0.423839 15.8183 0.00262745 14.758 0L6 0C5.20435 0 4.44129 0.31607 3.87868 0.87868C3.31607 1.44129 3 2.20435 3 3V24H21V6.243ZM18.414 4.828C18.4643 4.88257 18.5114 4.93999 18.555 5H16V2.445C16.06 2.48864 16.1174 2.53572 16.172 2.586L18.414 4.828ZM5 22V3C5 2.73478 5.10536 2.48043 5.29289 2.29289C5.48043 2.10536 5.73478 2 6 2H14V7H19V22H5ZM8 9H16V11H8V9ZM8 13H16V15H8V13ZM14.018 16.814L15.983 17.18C15.792 18.227 14.978 20 13.135 20C12.4116 19.9994 11.7105 19.7501 11.149 19.294C10.835 19.071 10.725 19 10.487 19C10.129 19.1357 9.81308 19.3634 9.571 19.66L8.071 18.343C8.67588 17.6039 9.54001 17.1236 10.487 17C11.1518 17.0079 11.7941 17.2421 12.308 17.664C12.5321 17.8752 12.8271 17.995 13.135 18C13.758 18 14.015 16.827 14.018 16.814Z" fill="#374957"/>
</g>
<defs>
<clipPath id="clip0_403_3539">
<rect width="24" height="24" fill="white"/>
</clipPath>
</defs>
</svg>
