<svg width="24" height="24" viewBox="0 0 24 24" fill="none" xmlns="http://www.w3.org/2000/svg">
<g clip-path="url(#clip0_403_3528)">
<path d="M15 0V8.948C15.0005 9.33399 15.1099 9.712 15.3156 10.0386C15.5213 10.3652 15.815 10.6271 16.163 10.7942C16.5109 10.9613 16.8989 11.0269 17.2824 10.9833C17.666 10.9398 18.0294 10.7889 18.331 10.548L19.5 9.613L20.669 10.549C20.9707 10.7899 21.3342 10.9408 21.7178 10.9844C22.1014 11.0279 22.4895 10.9622 22.8375 10.795C23.1855 10.6278 23.4792 10.3657 23.6848 10.039C23.8905 9.71222 23.9997 9.33407 24 8.948V0H15ZM21.919 8.987L19.5 7.052L17 8.948V2H21.99L21.919 8.987ZM22 13H24V24H0V6C0 5.20435 0.31607 4.44129 0.87868 3.87868C1.44129 3.31607 2.20435 3 3 3H13V5H3C2.73478 5 2.48043 5.10536 2.29289 5.29289C2.10536 5.48043 2 5.73478 2 6V6.242L9.878 14.122C10.4497 14.6672 11.2095 14.9714 11.9995 14.9714C12.7895 14.9714 13.5493 14.6672 14.121 14.122L15.243 13H18.071L15.535 15.536C14.5973 16.4737 13.3256 17.0004 11.9995 17.0004C10.6734 17.0004 9.40168 16.4737 8.464 15.536L2 9.071V22H22V13Z" fill="#374957"/>
</g>
<defs>
<clipPath id="clip0_403_3528">
<rect width="24" height="24" fill="white"/>
</clipPath>
</defs>
</svg>
