<svg width="32" height="31" viewBox="0 0 32 31" fill="none" xmlns="http://www.w3.org/2000/svg">
<g filter="url(#filter0_d_403_3670)">
<path d="M26 23.0001H6.00004V9.97912C5.16914 9.34689 4.557 8.47041 4.2495 7.47263C3.942 6.47486 3.95456 5.40585 4.28543 4.41558C4.61629 3.42531 5.24885 2.56345 6.09438 1.95092C6.9399 1.33838 7.95597 1.00591 9.00004 1.00012H23C24.0441 1.00591 25.0602 1.33838 25.9057 1.95092C26.7512 2.56345 27.3838 3.42531 27.7146 4.41558C28.0455 5.40585 28.0581 6.47486 27.7506 7.47263C27.4431 8.47041 26.8309 9.34689 26 9.97912V23.0001ZM8.00004 21.0001H24V8.87012L24.5 8.58112C25.0636 8.24727 25.5025 7.73813 25.7495 7.13145C25.9966 6.52478 26.0383 5.85391 25.8683 5.22131C25.6982 4.58871 25.3258 4.02914 24.8079 3.62806C24.29 3.22699 23.6551 3.00645 23 3.00012H9.00004C8.34501 3.00645 7.71006 3.22699 7.19215 3.62806C6.67424 4.02914 6.30184 4.58871 6.13181 5.22131C5.96179 5.85391 6.00349 6.52478 6.25055 7.13145C6.49761 7.73813 6.93644 8.24727 7.50004 8.58112L8.00004 8.87012V21.0001ZM12 12.0001C11.7348 12.0001 11.4805 12.1055 11.2929 12.293C11.1054 12.4806 11 12.7349 11 13.0001C11 13.2653 11.1054 13.5197 11.2929 13.7072C11.4805 13.8948 11.7348 14.0001 12 14.0001C12.2653 14.0001 12.5196 13.8948 12.7071 13.7072C12.8947 13.5197 13 13.2653 13 13.0001C13 12.7349 12.8947 12.4806 12.7071 12.293C12.5196 12.1055 12.2653 12.0001 12 12.0001V12.0001ZM16 16.0001C15.7348 16.0001 15.4805 16.1055 15.2929 16.293C15.1054 16.4806 15 16.7349 15 17.0001C15 17.2653 15.1054 17.5197 15.2929 17.7072C15.4805 17.8948 15.7348 18.0001 16 18.0001C16.2653 18.0001 16.5196 17.8948 16.7071 17.7072C16.8947 17.5197 17 17.2653 17 17.0001C17 16.7349 16.8947 16.4806 16.7071 16.293C16.5196 16.1055 16.2653 16.0001 16 16.0001ZM12 16.0001C11.7348 16.0001 11.4805 16.1055 11.2929 16.293C11.1054 16.4806 11 16.7349 11 17.0001C11 17.2653 11.1054 17.5197 11.2929 17.7072C11.4805 17.8948 11.7348 18.0001 12 18.0001C12.2653 18.0001 12.5196 17.8948 12.7071 17.7072C12.8947 17.5197 13 17.2653 13 17.0001C13 16.7349 12.8947 16.4806 12.7071 16.293C12.5196 16.1055 12.2653 16.0001 12 16.0001V16.0001Z" fill="#374957"/>
</g>
<defs>
<filter id="filter0_d_403_3670" x="0" y="0" width="32" height="32" filterUnits="userSpaceOnUse" color-interpolation-filters="sRGB">
<feFlood flood-opacity="0" result="BackgroundImageFix"/>
<feColorMatrix in="SourceAlpha" type="matrix" values="0 0 0 0 0 0 0 0 0 0 0 0 0 0 0 0 0 0 127 0" result="hardAlpha"/>
<feOffset dy="4"/>
<feGaussianBlur stdDeviation="2"/>
<feComposite in2="hardAlpha" operator="out"/>
<feColorMatrix type="matrix" values="0 0 0 0 0 0 0 0 0 0 0 0 0 0 0 0 0 0 0.25 0"/>
<feBlend mode="normal" in2="BackgroundImageFix" result="effect1_dropShadow_403_3670"/>
<feBlend mode="normal" in="SourceGraphic" in2="effect1_dropShadow_403_3670" result="shape"/>
</filter>
</defs>
</svg>
