<svg width="32" height="32" viewBox="0 0 32 32" fill="none" xmlns="http://www.w3.org/2000/svg">
<g clip-path="url(#clip0_403_3691)" filter="url(#filter0_d_403_3691)">
<path d="M17 2V9H6V3C6 2.73478 6.10536 2.48043 6.29289 2.29289C6.48043 2.10536 6.73478 2 7 2H17ZM19 0H7C6.20435 0 5.44129 0.31607 4.87868 0.87868C4.31607 1.44129 4 2.20435 4 3V11H19V0Z" fill="#374957"/>
<path d="M24.9996 2C25.2648 2 25.5192 2.10536 25.7067 2.29289C25.8943 2.48043 25.9996 2.73478 25.9996 3V9H22.9996V2H24.9996ZM24.9996 0H20.9996V11H27.9996V3C27.9996 2.20435 27.6835 1.44129 27.1209 0.87868C26.5583 0.31607 25.7953 0 24.9996 0V0Z" fill="#374957"/>
<path d="M9 15.0004V22.0004H7C6.73478 22.0004 6.48043 21.895 6.29289 21.7075C6.10536 21.5199 6 21.2656 6 21.0004V15.0004H9ZM11 13.0004H4V21.0004C4 21.796 4.31607 22.5591 4.87868 23.1217C5.44129 23.6843 6.20435 24.0004 7 24.0004H11V13.0004Z" fill="#374957"/>
<path d="M26 15.0004V21.0004C26 21.2656 25.8946 21.5199 25.7071 21.7075C25.5196 21.895 25.2652 22.0004 25 22.0004H15V15.0004H26ZM28 13.0004H13V24.0004H25C25.7956 24.0004 26.5587 23.6843 27.1213 23.1217C27.6839 22.5591 28 21.796 28 21.0004V13.0004Z" fill="#374957"/>
</g>
<defs>
<filter id="filter0_d_403_3691" x="0" y="0" width="32" height="32" filterUnits="userSpaceOnUse" color-interpolation-filters="sRGB">
<feFlood flood-opacity="0" result="BackgroundImageFix"/>
<feColorMatrix in="SourceAlpha" type="matrix" values="0 0 0 0 0 0 0 0 0 0 0 0 0 0 0 0 0 0 127 0" result="hardAlpha"/>
<feOffset dy="4"/>
<feGaussianBlur stdDeviation="2"/>
<feComposite in2="hardAlpha" operator="out"/>
<feColorMatrix type="matrix" values="0 0 0 0 0 0 0 0 0 0 0 0 0 0 0 0 0 0 0.25 0"/>
<feBlend mode="normal" in2="BackgroundImageFix" result="effect1_dropShadow_403_3691"/>
<feBlend mode="normal" in="SourceGraphic" in2="effect1_dropShadow_403_3691" result="shape"/>
</filter>
<clipPath id="clip0_403_3691">
<rect width="24" height="24" fill="white" transform="translate(4)"/>
</clipPath>
</defs>
</svg>
