<svg width="24" height="24" viewBox="0 0 24 24" fill="none" xmlns="http://www.w3.org/2000/svg">
<g clip-path="url(#clip0_403_3566)">
<path d="M2 14.0003C3.10457 14.0003 4 13.1049 4 12.0003C4 10.8957 3.10457 10.0003 2 10.0003C0.89543 10.0003 0 10.8957 0 12.0003C0 13.1049 0.89543 14.0003 2 14.0003Z" fill="#374957"/>
<path d="M11.9999 14.0003C13.1044 14.0003 13.9999 13.1049 13.9999 12.0003C13.9999 10.8957 13.1044 10.0003 11.9999 10.0003C10.8953 10.0003 9.99988 10.8957 9.99988 12.0003C9.99988 13.1049 10.8953 14.0003 11.9999 14.0003Z" fill="#374957"/>
<path d="M22.0002 14.0003C23.1047 14.0003 24.0002 13.1049 24.0002 12.0003C24.0002 10.8957 23.1047 10.0003 22.0002 10.0003C20.8956 10.0003 20.0002 10.8957 20.0002 12.0003C20.0002 13.1049 20.8956 14.0003 22.0002 14.0003Z" fill="#374957"/>
</g>
<defs>
<clipPath id="clip0_403_3566">
<rect width="24" height="24" fill="white"/>
</clipPath>
</defs>
</svg>
