<svg width="32" height="32" viewBox="0 0 32 32" fill="none" xmlns="http://www.w3.org/2000/svg">
<g filter="url(#filter0_d_403_3601)">
<path d="M24.0001 9.07988C24.0001 9.05288 24.0001 9.02688 24.0001 8.99988C24.0001 6.87815 23.1572 4.84331 21.6569 3.34302C20.1567 1.84273 18.1218 0.999878 16.0001 0.999878C13.8784 0.999878 11.8435 1.84273 10.3432 3.34302C8.84294 4.84331 8.00009 6.87815 8.00009 8.99988C8.00009 9.02688 8.00009 9.05288 8.00009 9.07988C7.09147 9.60517 6.29522 10.3043 5.65678 11.1373C5.01835 11.9703 4.55024 12.9209 4.27919 13.9348C4.00813 14.9488 3.93944 16.0061 4.07703 17.0466C4.21462 18.0871 4.5558 19.0903 5.08109 19.9989C5.60638 20.9075 6.30548 21.7037 7.1385 22.3422C7.97151 22.9806 8.92212 23.4487 9.93604 23.7198C10.95 23.9908 12.0073 24.0595 13.0478 23.9219C14.0883 23.7843 15.0915 23.4432 16.0001 22.9179C16.9087 23.4432 17.9119 23.7843 18.9524 23.9219C19.9928 24.0595 21.0502 23.9908 22.0641 23.7198C23.0781 23.4487 24.0287 22.9806 24.8617 22.3422C25.6947 21.7037 26.3938 20.9075 26.9191 19.9989C27.4444 19.0903 27.7856 18.0871 27.9231 17.0466C28.0607 16.0061 27.992 14.9488 27.721 13.9348C27.4499 12.9209 26.9818 11.9703 26.3434 11.1373C25.705 10.3043 24.9087 9.60517 24.0001 9.07988V9.07988ZM16.0001 20.4599C14.9252 19.4981 14.2335 18.1808 14.0521 16.7499C15.3306 17.0839 16.6735 17.0839 17.9521 16.7499C17.7696 18.1813 17.0765 19.4988 16.0001 20.4599V20.4599ZM16.0001 14.9999C15.3698 14.9986 14.7437 14.8973 14.1451 14.6999C14.4188 13.4789 15.0674 12.374 16.0001 11.5399C16.9328 12.374 17.5814 13.4789 17.8551 14.6999C17.2565 14.8973 16.6304 14.9986 16.0001 14.9999V14.9999ZM12.3311 13.7369C11.2239 12.8812 10.4507 11.6654 10.1451 10.2999C11.4896 9.85839 12.9475 9.91051 14.2571 10.4469C13.3596 11.3725 12.6988 12.5011 12.3311 13.7369V13.7369ZM17.7431 10.4439C19.0527 9.90751 20.5105 9.85539 21.8551 10.2969C21.5501 11.6635 20.7768 12.8804 19.6691 13.7369C19.3018 12.5001 18.641 11.3703 17.7431 10.4439V10.4439ZM16.0001 2.99988C17.4603 3.00215 18.8697 3.53644 19.9645 4.50276C21.0593 5.46908 21.7645 6.80121 21.9481 8.24988C19.9334 7.72937 17.7946 8.02855 16.0001 9.08188C14.2056 8.02855 12.0667 7.72937 10.0521 8.24988C10.2357 6.80121 10.9409 5.46908 12.0356 4.50276C13.1304 3.53644 14.5398 3.00215 16.0001 2.99988V2.99988ZM6.00009 15.9999C6.00071 15.0847 6.21116 14.1818 6.61525 13.3606C7.01934 12.5394 7.60632 11.8218 8.33109 11.2629C8.91519 13.2264 10.2278 14.8925 12.0001 15.9199C12.0001 15.9469 12.0001 15.9729 12.0001 15.9999C12.0002 18.0751 12.8099 20.0685 14.2571 21.5559C13.3465 21.9274 12.3585 22.0691 11.3802 21.9685C10.4019 21.868 9.46334 21.5282 8.6474 20.9791C7.83145 20.4301 7.16317 19.6887 6.70149 18.8203C6.23981 17.952 5.99892 16.9833 6.00009 15.9999V15.9999ZM20.0001 21.9999C19.2261 21.9995 18.4596 21.8487 17.7431 21.5559C19.1902 20.0685 20 18.0751 20.0001 15.9999C20.0001 15.9729 20.0001 15.9469 20.0001 15.9199C21.7739 14.8932 23.088 13.2271 23.6731 11.2629C24.6639 12.0277 25.3904 13.0836 25.7506 14.2823C26.1107 15.481 26.0866 16.7624 25.6815 17.9467C25.2763 19.1309 24.5106 20.1587 23.4916 20.8856C22.4727 21.6125 21.2517 22.0022 20.0001 21.9999V21.9999Z" fill="#374957"/>
</g>
<defs>
<filter id="filter0_d_403_3601" x="0" y="0" width="32" height="32" filterUnits="userSpaceOnUse" color-interpolation-filters="sRGB">
<feFlood flood-opacity="0" result="BackgroundImageFix"/>
<feColorMatrix in="SourceAlpha" type="matrix" values="0 0 0 0 0 0 0 0 0 0 0 0 0 0 0 0 0 0 127 0" result="hardAlpha"/>
<feOffset dy="4"/>
<feGaussianBlur stdDeviation="2"/>
<feComposite in2="hardAlpha" operator="out"/>
<feColorMatrix type="matrix" values="0 0 0 0 0 0 0 0 0 0 0 0 0 0 0 0 0 0 0.25 0"/>
<feBlend mode="normal" in2="BackgroundImageFix" result="effect1_dropShadow_403_3601"/>
<feBlend mode="normal" in="SourceGraphic" in2="effect1_dropShadow_403_3601" result="shape"/>
</filter>
</defs>
</svg>
