<svg width="32" height="32" viewBox="0 0 32 32" fill="none" xmlns="http://www.w3.org/2000/svg">
<g clip-path="url(#clip0_403_3331)" filter="url(#filter0_d_403_3331)">
<path d="M24.4 5.051C24.2011 4.45454 23.8198 3.93565 23.3101 3.56762C22.8003 3.19959 22.1877 3.00104 21.559 3H20.72L20.4 2.051C20.2011 1.45454 19.8198 0.935647 19.3101 0.56762C18.8003 0.199593 18.1877 0.00103652 17.559 0L14.441 0C13.8119 0.000199332 13.1989 0.198549 12.6889 0.566894C12.1789 0.935238 11.7979 1.45486 11.6 2.052L11.28 3H10.441C9.81225 3.00104 9.19973 3.19959 8.68994 3.56762C8.18016 3.93565 7.79889 4.45454 7.6 5.051L6.28 9H4V11H5.613L5.052 12.684L5.1 12.7C4.75804 12.9782 4.48201 13.3288 4.29181 13.7265C4.1016 14.1242 4.00194 14.5592 4 15V20H6V24H12V20H20V24H26V20H28V15C27.9981 14.5592 27.8984 14.1242 27.7082 13.7265C27.518 13.3288 27.242 12.9782 26.9 12.7L26.946 12.685L26.387 11H28V9H25.72L24.4 5.051ZM13.492 2.684C13.5583 2.48479 13.6857 2.31153 13.856 2.18876C14.0264 2.06599 14.231 1.99995 14.441 2H17.559C17.769 1.99995 17.9736 2.06599 18.144 2.18876C18.3143 2.31153 18.4417 2.48479 18.508 2.684L18.613 3H13.387L13.492 2.684ZM9.492 5.684C9.55835 5.48479 9.68572 5.31153 9.85605 5.18876C10.0264 5.06599 10.231 4.99995 10.441 5H21.559C21.769 4.99995 21.9736 5.06599 22.144 5.18876C22.3143 5.31153 22.4417 5.48479 22.508 5.684L24.613 12H7.387L9.492 5.684ZM10 22H8V20H10V22ZM24 22H22V20H24V22ZM26 18H6V15C6 14.7348 6.10536 14.4804 6.29289 14.2929C6.48043 14.1054 6.73478 14 7 14H8V15C8 15.2652 8.10536 15.5196 8.29289 15.7071C8.48043 15.8946 8.73478 16 9 16C9.26522 16 9.51957 15.8946 9.70711 15.7071C9.89464 15.5196 10 15.2652 10 15V14H22V15C22 15.2652 22.1054 15.5196 22.2929 15.7071C22.4804 15.8946 22.7348 16 23 16C23.2652 16 23.5196 15.8946 23.7071 15.7071C23.8946 15.5196 24 15.2652 24 15V14H25C25.2652 14 25.5196 14.1054 25.7071 14.2929C25.8946 14.4804 26 14.7348 26 15V18Z" fill="#374957"/>
</g>
<defs>
<filter id="filter0_d_403_3331" x="0" y="0" width="32" height="32" filterUnits="userSpaceOnUse" color-interpolation-filters="sRGB">
<feFlood flood-opacity="0" result="BackgroundImageFix"/>
<feColorMatrix in="SourceAlpha" type="matrix" values="0 0 0 0 0 0 0 0 0 0 0 0 0 0 0 0 0 0 127 0" result="hardAlpha"/>
<feOffset dy="4"/>
<feGaussianBlur stdDeviation="2"/>
<feComposite in2="hardAlpha" operator="out"/>
<feColorMatrix type="matrix" values="0 0 0 0 0 0 0 0 0 0 0 0 0 0 0 0 0 0 0.25 0"/>
<feBlend mode="normal" in2="BackgroundImageFix" result="effect1_dropShadow_403_3331"/>
<feBlend mode="normal" in="SourceGraphic" in2="effect1_dropShadow_403_3331" result="shape"/>
</filter>
<clipPath id="clip0_403_3331">
<rect width="24" height="24" fill="white" transform="translate(4)"/>
</clipPath>
</defs>
</svg>
