<svg width="24" height="24" viewBox="0 0 24 24" fill="none" xmlns="http://www.w3.org/2000/svg">
<g clip-path="url(#clip0_403_3317)">
<path d="M2.54204 15.255L0.650042 15.9C0.414793 15.2171 0.242083 14.5142 0.134042 13.8L2.11104 13.5C2.20153 14.0968 2.34579 14.6842 2.54204 15.255V15.255ZM3.28204 16.903L1.54004 17.886C1.89672 18.5165 2.30902 19.1139 2.77204 19.671L4.31004 18.393C3.9232 17.9272 3.57914 17.4276 3.28204 16.9V16.903ZM8.77304 0.439C8.07412 0.634065 7.39434 0.892122 6.74204 1.21L7.61904 3.01C8.16199 2.74444 8.72799 2.52888 9.31004 2.366L8.77304 0.439ZM4.30604 21.209C4.86162 21.6738 5.45804 22.0875 6.08804 22.445L7.07504 20.705C6.54951 20.4069 6.05185 20.0622 5.58804 19.675L4.30604 21.209ZM2.22204 9.9L0.266042 9.477C0.114905 10.1857 0.027887 10.9067 0.00604248 11.631L2.00604 11.691C2.02408 11.0887 2.09638 10.4893 2.22204 9.9V9.9ZM6.07204 3.95L4.88604 2.335C4.30278 2.76516 3.75927 3.24675 3.26204 3.774L4.71804 5.146C5.13222 4.70564 5.5854 4.30366 6.07204 3.945V3.95ZM3.60004 6.57L1.92204 5.482C1.5282 6.08955 1.19016 6.73151 0.912042 7.4L2.75904 8.167C2.99049 7.61032 3.27197 7.07579 3.60004 6.57V6.57ZM15.807 21.25L16.568 23.099C17.2387 22.8224 17.883 22.4857 18.493 22.093L17.41 20.411C16.9019 20.738 16.3654 21.0188 15.807 21.25V21.25ZM8.06604 23.34C8.75146 23.5772 9.45703 23.7516 10.174 23.861L10.474 21.884C9.87747 21.7926 9.2904 21.6473 8.72004 21.45L8.06604 23.34ZM20.982 16.4L22.782 17.283C23.1023 16.6316 23.3627 15.9525 23.56 15.254L21.634 14.712C21.4689 15.2935 21.2507 15.8585 20.982 16.4ZM18.837 19.3L20.2 20.757C20.7282 20.2617 21.2111 19.7202 21.643 19.139L20.043 17.946C19.6824 18.4325 19.2788 18.8857 18.837 19.3V19.3ZM12.284 22L12.338 24C13.0629 23.9803 13.7845 23.8953 14.494 23.746L14.08 21.789C13.4889 21.913 12.8878 21.9836 12.284 22V22ZM12 0C11.633 0 11.269 0.017 10.91 0.049L11.091 2.041C11.3904 2.01367 11.6934 2 12 2C14.6513 2.00291 17.1932 3.05742 19.0679 4.93215C20.9426 6.80688 21.9971 9.34873 22 12C22 12.307 21.985 12.611 21.959 12.911L23.951 13.088C23.983 12.73 24 12.367 24 12C23.9966 8.81846 22.7312 5.76821 20.4815 3.51852C18.2318 1.26883 15.1816 0.00344108 12 0V0ZM13.723 13H17V11H13.723C13.5488 10.7004 13.2996 10.4513 13 10.277V6H11V10.277C10.7348 10.4297 10.5083 10.6414 10.338 10.8958C10.1678 11.1501 10.0584 11.4402 10.0182 11.7436C9.97811 12.047 10.0084 12.3556 10.1067 12.6454C10.205 12.9353 10.3686 13.1986 10.5851 13.415C10.8015 13.6314 11.0648 13.7951 11.3546 13.8934C11.6445 13.9917 11.953 14.0219 12.2564 13.9818C12.5599 13.9417 12.85 13.8323 13.1043 13.662C13.3586 13.4917 13.5703 13.2652 13.723 13Z" fill="#374957"/>
</g>
<defs>
<clipPath id="clip0_403_3317">
<rect width="24" height="24" fill="white"/>
</clipPath>
</defs>
</svg>
