<svg width="24" height="24" viewBox="0 0 24 24" fill="none" xmlns="http://www.w3.org/2000/svg">
<g clip-path="url(#clip0_403_3293)">
<path d="M11 23.0003C11 22.8025 11.0587 22.6091 11.1686 22.4447C11.2784 22.2802 11.4346 22.1521 11.6173 22.0764C11.8001 22.0007 12.0011 21.9809 12.1951 22.0195C12.3891 22.0581 12.5673 22.1533 12.7071 22.2932C12.847 22.433 12.9422 22.6112 12.9808 22.8052C13.0194 22.9992 12.9996 23.2002 12.9239 23.3829C12.8482 23.5657 12.72 23.7219 12.5556 23.8317C12.3911 23.9416 12.1978 24.0003 12 24.0003C11.7348 24.0003 11.4805 23.8949 11.2929 23.7074C11.1054 23.5198 11 23.2655 11 23.0003ZM15.535 19.4643C14.5974 18.5269 13.3258 18.0003 12 18.0003C10.6742 18.0003 9.40266 18.5269 8.46502 19.4643L9.87902 20.8783C10.4507 20.3333 11.2102 20.0293 12 20.0293C12.7898 20.0293 13.5493 20.3333 14.121 20.8783L15.535 19.4643ZM18.364 16.6363C16.6749 14.9509 14.3862 14.0043 12 14.0043C9.61387 14.0043 7.32515 14.9509 5.63602 16.6363L7.05002 18.0503C8.36422 16.74 10.1443 16.0043 12 16.0043C13.8558 16.0043 15.6358 16.74 16.95 18.0503L18.364 16.6363ZM17.79 7.20926C17.3438 5.30022 16.2122 3.62148 14.6099 2.49176C13.0077 1.36204 11.0463 0.860004 9.09834 1.08096C7.15034 1.30191 5.35129 2.23048 4.04276 3.69036C2.73422 5.15024 2.00731 7.03979 2.00002 9.00026C1.99904 10.2787 2.30785 11.5383 2.90002 12.6713C1.82115 13.2494 0.966422 14.1715 0.471641 15.2911C-0.0231397 16.4106 -0.129593 17.6634 0.169193 18.8504C0.46798 20.0374 1.15487 21.0905 2.12073 21.8424C3.08658 22.5943 4.27601 23.0018 5.50002 23.0003H9.00002C9.00002 22.9473 9.01302 22.9003 9.01602 22.8443L7.17202 21.0003H5.50002C4.64845 21.0028 3.82531 20.694 3.18554 20.132C2.54577 19.5699 2.1335 18.7934 2.02634 17.9486C1.91917 17.1038 2.12449 16.2489 2.60366 15.545C3.08282 14.841 3.80278 14.3364 4.62802 14.1263L6.02802 13.7643L6.05602 13.7483L5.17802 12.5633C4.41059 11.5341 3.99728 10.284 4.00002 9.00026C4.01309 7.48741 4.5972 6.03534 5.63537 4.93484C6.67354 3.83435 8.08913 3.16667 9.59865 3.06552C11.1082 2.96437 12.6002 3.43722 13.7759 4.38937C14.9516 5.34152 15.7242 6.70268 15.939 8.20026L16.039 8.95826L16.798 9.05826C18.2282 9.24954 19.5413 9.95046 20.4961 11.0322C21.4509 12.114 21.9833 13.504 21.9955 14.9469C22.0076 16.3897 21.4988 17.7885 20.5623 18.8862C19.6259 19.984 18.3248 20.7069 16.898 20.9223L14.979 22.8423C14.979 22.8953 14.995 22.9423 14.995 22.9983H15.995C17.9551 22.9909 19.8443 22.2642 21.304 20.9561C22.7637 19.648 23.6924 17.8495 23.9138 15.902C24.1352 13.9544 23.634 11.9934 22.5051 10.391C21.3763 8.78861 19.6984 7.65641 17.79 7.20926V7.20926Z" fill="#374957"/>
</g>
<defs>
<clipPath id="clip0_403_3293">
<rect width="24" height="24" fill="white"/>
</clipPath>
</defs>
</svg>
