<svg width="24" height="24" viewBox="0 0 24 24" fill="none" xmlns="http://www.w3.org/2000/svg">
<g clip-path="url(#clip0_403_3318)">
<path d="M12 0C9.04586 0.00893639 6.19829 1.10454 4 3.078V0H2V5.143C2.00053 5.63535 2.19635 6.10737 2.54449 6.45551C2.89263 6.80365 3.36466 6.99947 3.857 7H9V5H4.879C6.50426 3.35357 8.65081 2.3226 10.9519 2.08323C13.2529 1.84386 15.5657 2.41095 17.4951 3.68762C19.4244 4.96428 20.8506 6.87128 21.5299 9.08278C22.2092 11.2943 22.0994 13.6731 21.2195 15.8126C20.3395 17.9522 18.7438 19.7199 16.7052 20.8135C14.6665 21.9072 12.3113 22.259 10.0421 21.8088C7.77282 21.3586 5.73029 20.1344 4.26348 18.3454C2.79667 16.5564 1.99661 14.3135 2 12H0C0 14.3734 0.703788 16.6935 2.02236 18.6668C3.34094 20.6402 5.21509 22.1783 7.4078 23.0866C9.60051 23.9948 12.0133 24.2324 14.3411 23.7694C16.6689 23.3064 18.8071 22.1635 20.4853 20.4853C22.1635 18.8071 23.3064 16.6689 23.7694 14.3411C24.2324 12.0133 23.9948 9.60051 23.0866 7.4078C22.1783 5.21509 20.6402 3.34094 18.6668 2.02236C16.6935 0.703788 14.3734 0 12 0V0Z" fill="#374957"/>
<path d="M11.0002 6.99939V12.4134L14.2932 15.7064L15.7072 14.2924L13.0002 11.5854V6.99939H11.0002Z" fill="#374957"/>
</g>
<defs>
<clipPath id="clip0_403_3318">
<rect width="24" height="24" fill="white"/>
</clipPath>
</defs>
</svg>
