<svg width="32" height="32" viewBox="0 0 32 32" fill="none" xmlns="http://www.w3.org/2000/svg">
<g clip-path="url(#clip0_403_3626)" filter="url(#filter0_d_403_3626)">
<path d="M27.9998 11.4999C27.9998 10.8103 27.7958 10.136 27.4134 9.56216C27.031 8.98826 26.4873 8.54038 25.8508 8.2749C25.4497 5.95473 24.2407 3.85127 22.4378 2.3368C20.6349 0.822332 18.3544 -0.00547072 15.9998 -9.60623e-05V-9.60623e-05C13.6452 -0.00547072 11.3647 0.822332 9.56176 2.3368C7.75886 3.85127 6.54988 5.95473 6.1488 8.2749C5.42386 8.58097 4.82321 9.1224 4.44381 9.8118C4.06442 10.5012 3.9284 11.2983 4.05773 12.0745C4.18706 12.8507 4.57418 13.5607 5.15661 14.0898C5.73904 14.619 6.48279 14.9364 7.2678 14.9909C7.6539 15.8194 8.14858 16.5929 8.7388 17.2909C8.22148 17.5305 7.78316 17.9126 7.47517 18.3924C7.16719 18.8722 7.00229 19.4298 6.9998 19.9999V23.9999H8.9998V19.9999C8.9998 19.7347 9.10515 19.4803 9.29269 19.2928C9.48023 19.1053 9.73458 18.9999 9.9998 18.9999H10.5278C12.0824 20.2499 14.0055 20.9528 15.9998 20.9999V20.9999C17.995 20.9531 19.9192 20.2502 21.4748 18.9999H21.9998C22.265 18.9999 22.5194 19.1053 22.7069 19.2928C22.8944 19.4803 22.9998 19.7347 22.9998 19.9999V23.9999H24.9998V19.9999C24.9978 19.4296 24.8332 18.8716 24.5254 18.3914C24.2176 17.9113 23.7792 17.5288 23.2618 17.2889C23.8514 16.5907 24.3457 15.8172 24.7318 14.9889C25.6169 14.9289 26.4464 14.5355 27.0529 13.888C27.6594 13.2405 27.9978 12.3871 27.9998 11.4999ZM24.2478 12.9729L23.4128 12.8249L23.1308 13.6249C22.2148 16.2219 19.1298 18.9999 15.9998 18.9999C12.8698 18.9999 9.7858 16.2199 8.8688 13.6239L8.5888 12.8309L7.7588 12.9709C7.67342 12.9877 7.58679 12.9974 7.4998 12.9999C7.12943 12.9943 6.77422 12.8519 6.5026 12.6C6.23098 12.3482 6.06215 12.0047 6.02862 11.6358C5.9951 11.2669 6.09925 10.8987 6.32102 10.602C6.5428 10.3053 6.8665 10.1012 7.2298 10.0289L7.9678 9.8999L8.0458 9.1559C8.1798 7.87415 8.6229 6.64408 9.33704 5.5713C10.0512 4.49853 11.015 3.61511 12.1458 2.9969C12.0544 3.32362 12.0054 3.6607 11.9998 3.9999C11.9998 5.06077 12.4212 6.07819 13.1714 6.82833C13.9215 7.57848 14.9389 7.9999 15.9998 7.9999C17.0607 7.9999 18.0781 7.57848 18.8282 6.82833C19.5784 6.07819 19.9998 5.06077 19.9998 3.9999H17.9998C17.9998 4.39547 17.8825 4.78215 17.6627 5.11105C17.443 5.43994 17.1306 5.69629 16.7652 5.84766C16.3997 5.99904 15.9976 6.03865 15.6096 5.96148C15.2217 5.88431 14.8653 5.69382 14.5856 5.41412C14.3059 5.13441 14.1154 4.77805 14.0382 4.39009C13.9611 4.00212 14.0007 3.59999 14.152 3.23454C14.3034 2.86909 14.5598 2.55673 14.8887 2.33696C15.2176 2.1172 15.6042 1.9999 15.9998 1.9999C17.9756 1.99518 19.8829 2.72381 21.3523 4.04469C22.8218 5.36558 23.7487 7.18474 23.9538 9.1499L24.0318 9.8939L24.7698 10.0269C25.1352 10.0971 25.4615 10.3006 25.6852 10.5979C25.909 10.8952 26.0143 11.2651 25.9806 11.6356C25.947 12.0062 25.7768 12.351 25.5031 12.6031C25.2295 12.8553 24.8719 12.9967 24.4998 12.9999C24.4152 12.9979 24.331 12.9892 24.2478 12.9739V12.9729Z" fill="#374957"/>
<path d="M13.4996 13.0012C14.3281 13.0012 14.9996 12.3296 14.9996 11.5012C14.9996 10.6728 14.3281 10.0012 13.4996 10.0012C12.6712 10.0012 11.9996 10.6728 11.9996 11.5012C11.9996 12.3296 12.6712 13.0012 13.4996 13.0012Z" fill="#374957"/>
<path d="M18.5004 13.0012C19.3288 13.0012 20.0004 12.3296 20.0004 11.5012C20.0004 10.6728 19.3288 10.0012 18.5004 10.0012C17.6719 10.0012 17.0004 10.6728 17.0004 11.5012C17.0004 12.3296 17.6719 13.0012 18.5004 13.0012Z" fill="#374957"/>
</g>
<defs>
<filter id="filter0_d_403_3626" x="0" y="0" width="32" height="32" filterUnits="userSpaceOnUse" color-interpolation-filters="sRGB">
<feFlood flood-opacity="0" result="BackgroundImageFix"/>
<feColorMatrix in="SourceAlpha" type="matrix" values="0 0 0 0 0 0 0 0 0 0 0 0 0 0 0 0 0 0 127 0" result="hardAlpha"/>
<feOffset dy="4"/>
<feGaussianBlur stdDeviation="2"/>
<feComposite in2="hardAlpha" operator="out"/>
<feColorMatrix type="matrix" values="0 0 0 0 0 0 0 0 0 0 0 0 0 0 0 0 0 0 0.25 0"/>
<feBlend mode="normal" in2="BackgroundImageFix" result="effect1_dropShadow_403_3626"/>
<feBlend mode="normal" in="SourceGraphic" in2="effect1_dropShadow_403_3626" result="shape"/>
</filter>
<clipPath id="clip0_403_3626">
<rect width="24" height="24" fill="white" transform="translate(4)"/>
</clipPath>
</defs>
</svg>
