<svg width="24" height="24" viewBox="0 0 24 24" fill="none" xmlns="http://www.w3.org/2000/svg">
<path d="M16.382 4.0672C15.1834 3.05142 13.9489 1.99767 12.6994 0.7522L11.9872 0.0450439L11.2881 0.753185C9.0388 3.00848 7.9761 6.47132 7.51466 8.54882C7.16146 8.00137 6.89938 7.40029 6.7386 6.76898L6.31611 5.13797L5.08761 6.29259C2.93511 8.31309 1.49985 10.3177 1.49985 13.5278C1.4585 18.2919 4.66335 22.4734 9.27449 23.6716C9.94972 23.8358 10.639 23.9362 11.333 23.9712C11.561 23.9877 12.2139 24.0042 12.3258 23.9972C17.9829 23.827 22.4793 19.1895 22.4746 13.5298C22.4746 9.24098 19.651 6.84384 16.382 4.0672ZM12.1807 21.9867C12.0761 21.9957 11.981 21.9967 11.8753 21.9957C10.0076 21.9386 8.52182 20.4104 8.51727 18.5419C8.51727 17.2762 9.19607 16.6453 10.7323 15.3376C11.1196 15.0082 11.5408 14.6499 11.984 14.2396C12.3724 14.592 12.7497 14.9114 13.098 15.2078C14.6413 16.5175 15.4468 17.2612 15.4468 18.5389C15.4433 20.3719 14.0108 21.8841 12.1807 21.9867ZM17.1917 20.2188L17.1717 20.2328C17.3509 19.687 17.4425 19.1163 17.4432 18.5418C17.4432 16.2809 15.9598 15.0211 14.3907 13.6885C13.8347 13.2174 13.2607 12.7303 12.6878 12.1573L11.981 11.4515L11.2753 12.1573C10.6285 12.8031 9.99561 13.3421 9.43761 13.8173C7.87241 15.1489 6.51983 16.2998 6.51983 18.5418C6.52194 19.1409 6.62314 19.7356 6.81931 20.3017C4.71303 18.6843 3.48369 16.1754 3.4963 13.5198C3.47989 11.7682 4.15785 10.0813 5.38189 8.82825C5.59274 9.25598 5.84267 9.66333 6.12857 10.0451C6.55527 10.6209 7.28338 10.888 7.98125 10.7249C8.69071 10.5669 9.24228 10.0087 9.39172 9.29742C9.80971 7.00317 10.7137 4.82493 12.043 2.90887C13.0961 3.90708 14.1392 4.79048 15.0805 5.59008C18.2069 8.24531 20.4709 10.1639 20.4709 13.5258C20.4758 16.1451 19.2639 18.618 17.1907 20.2188H17.1917V20.2188Z" fill="#374957"/>
</svg>
