<svg width="24" height="24" viewBox="0 0 24 24" fill="none" xmlns="http://www.w3.org/2000/svg">
<g clip-path="url(#clip0_403_3567)">
<path d="M4.29447 21.8685C1.33788 21.1767 -0.498076 18.219 0.193752 15.2624C0.548924 13.7446 1.53166 12.4489 2.8975 11.6977C0.846533 7.79518 2.34752 2.96888 6.25005 0.917911C10.1526 -1.13306 14.9789 0.367927 17.0298 4.27046C17.3579 4.8946 17.6017 5.55943 17.7551 6.2476C21.407 7.09079 23.9831 10.3576 23.9516 14.1054C23.3267 13.4803 22.588 12.9803 21.7753 12.6327C21.201 10.2323 19.2124 8.43038 16.7673 8.09457L16.0099 7.99477L15.9101 7.23844C15.4719 3.96441 12.4626 1.66557 9.1886 2.10375C5.91461 2.54194 3.61572 5.55132 4.05391 8.8253C4.18792 9.82669 4.57347 10.7778 5.1745 11.5899L6.19928 13.0238C5.67011 12.9869 5.13836 13.0293 4.6217 13.1495C2.75922 13.6508 1.65574 15.5671 2.15702 17.4296C2.42139 18.4119 3.10094 19.2301 4.018 19.6703C3.96091 20.4142 4.05494 21.1619 4.29447 21.8685ZM23.9516 19.0107C23.9488 16.5594 22.168 14.4722 19.7478 14.0835C17.8698 7.62455 8.40747 9.42061 9.02214 16.134C6.88492 16.685 5.5991 18.8642 6.15011 21.0015C6.6017 22.7529 8.17338 23.9828 9.98205 23.9999H18.9625C21.7165 23.9966 23.9483 21.7648 23.9516 19.0107ZM11.6784 18.0129L11.2024 16.6799C9.66874 11.7705 17.1404 10.0394 17.9257 15.1343L18.0255 16.0223H19.0233C20.6746 16.1045 21.9465 17.5096 21.8644 19.1608C21.7868 20.7204 20.5234 21.9584 18.9625 22.0043H9.98205C8.87988 22.0043 7.98639 21.1108 7.98639 20.0086C7.98639 18.9064 8.87988 18.0129 9.98205 18.0129H11.6784V18.0129Z" fill="#374957"/>
</g>
<defs>
<clipPath id="clip0_403_3567">
<rect width="24" height="24" fill="white"/>
</clipPath>
</defs>
</svg>
