<svg width="24" height="24" viewBox="0 0 24 24" fill="none" xmlns="http://www.w3.org/2000/svg">
<g clip-path="url(#clip0_403_3692)">
<path d="M23.0998 0.899665C22.5161 0.343687 21.7409 0.0335693 20.9348 0.0335693C20.1287 0.0335693 19.3535 0.343687 18.7698 0.899665L7.5628 12.0997C7.21415 12.0326 6.85986 11.9991 6.5048 11.9997C5.78301 11.9976 5.06797 12.1387 4.4011 12.4149C3.73423 12.6911 3.12878 13.0969 2.6198 13.6087C0.699804 15.5327 0.185804 21.6277 0.0998037 22.8297L0.0238037 23.9757L1.1688 23.8957C2.3688 23.8137 8.4688 23.3027 10.3908 21.3797C11.0266 20.7421 11.4959 19.958 11.7575 19.0964C12.019 18.2348 12.0648 17.3221 11.8908 16.4387L23.0998 5.22967C23.6725 4.65467 23.994 3.87619 23.994 3.06466C23.994 2.25314 23.6725 1.47466 23.0998 0.899665V0.899665ZM8.9768 19.9657C8.0468 20.8947 4.7098 21.5257 2.2028 21.7957C2.4858 19.1957 3.1458 15.9117 4.0338 15.0227C4.70005 14.4226 5.57117 14.1011 6.4675 14.1245C7.36382 14.1479 8.21698 14.5145 8.851 15.1485C9.48501 15.7825 9.85152 16.6356 9.87493 17.532C9.89834 18.4283 9.57686 19.2994 8.9768 19.9657V19.9657ZM21.6878 3.81566L11.0668 14.4377C10.6722 13.8402 10.1622 13.3275 9.56681 12.9297L20.1838 2.31166C20.3858 2.11874 20.6545 2.01109 20.9338 2.01109C21.2132 2.01109 21.4818 2.11874 21.6838 2.31166C21.783 2.41006 21.8618 2.52705 21.9157 2.65595C21.9696 2.78485 21.9975 2.92312 21.9979 3.06283C21.9983 3.20255 21.9711 3.34096 21.9179 3.47015C21.8647 3.59933 21.7865 3.71675 21.6878 3.81566V3.81566Z" fill="#374957"/>
</g>
<defs>
<clipPath id="clip0_403_3692">
<rect width="24" height="24" fill="white"/>
</clipPath>
</defs>
</svg>
