<svg width="24" height="24" viewBox="0 0 24 24" fill="none" xmlns="http://www.w3.org/2000/svg">
<g clip-path="url(#clip0_403_3771)">
<path d="M19.9492 2.64458L12.0002 0.00958252L4.05115 2.64458C3.45475 2.84074 2.93545 3.22007 2.56719 3.72856C2.19894 4.23704 2.0005 4.84875 2.00015 5.47658V12.0006C2.00015 19.5246 11.2002 23.6796 11.5942 23.8526L11.9482 24.0096L12.3162 23.8876C12.7122 23.7556 22.0002 20.5776 22.0002 12.0006V5.47658C21.9998 4.84875 21.8014 4.23704 21.4331 3.72856C21.0649 3.22007 20.5456 2.84074 19.9492 2.64458V2.64458ZM20.0002 12.0006C20.0002 18.2636 13.6512 21.2166 12.0472 21.8616C10.4402 21.0586 4.00015 17.4946 4.00015 12.0006V5.47658C3.99994 5.26718 4.06599 5.06308 4.18886 4.89351C4.31172 4.72394 4.4851 4.5976 4.68415 4.53258L12.0002 2.10658L19.3162 4.53258C19.5152 4.5976 19.6886 4.72394 19.8114 4.89351C19.9343 5.06308 20.0004 5.26718 20.0002 5.47658V12.0006Z" fill="#374957"/>
<path d="M13.0001 8.00067H11.0001V11.0007H8.00015V13.0007H11.0001V16.0007H13.0001V13.0007H16.0001V11.0007H13.0001V8.00067Z" fill="#374957"/>
</g>
<defs>
<clipPath id="clip0_403_3771">
<rect width="24" height="24" fill="white"/>
</clipPath>
</defs>
</svg>
