<svg width="24" height="24" viewBox="0 0 24 24" fill="none" xmlns="http://www.w3.org/2000/svg">
<g clip-path="url(#clip0_403_3344)">
<path d="M8.76 22.0006H6.3L2.539 11.6586C2.46885 11.4659 2.34114 11.2994 2.17317 11.1817C2.0052 11.064 1.8051 11.0008 1.6 11.0006H0V9.00061H1.6C2.21554 9.00171 2.81591 9.19168 3.32003 9.54487C3.82416 9.89806 4.20775 10.3975 4.419 10.9756L7.44 19.2826L11.63 4.20061C11.8063 3.56897 12.1842 3.01222 12.706 2.61508C13.2279 2.21795 13.8652 2.00218 14.521 2.00061H24V4.00061H14.521C14.3024 4.00048 14.0898 4.07199 13.9157 4.20419C13.7416 4.33639 13.6156 4.522 13.557 4.73261L8.76 22.0006ZM20.693 17.0006L24 12.0006H21.615L19.5 15.2006L17.385 12.0006H15L18.307 17.0006L15 22.0006H17.385L19.5 18.8006L21.615 22.0006H24L20.693 17.0006Z" fill="#374957"/>
</g>
<defs>
<clipPath id="clip0_403_3344">
<rect width="24" height="24" fill="white"/>
</clipPath>
</defs>
</svg>
