<svg width="32" height="32" viewBox="0 0 32 32" fill="none" xmlns="http://www.w3.org/2000/svg">
<g clip-path="url(#clip0_403_3330)" filter="url(#filter0_d_403_3330)">
<path d="M24.4852 3.5159C22.8073 1.83963 20.6702 0.698428 18.3439 0.236545C16.0176 -0.225338 13.6066 0.0128371 11.4156 0.920964C9.22464 1.82909 7.3521 3.3664 6.03467 5.33856C4.71725 7.31072 4.0141 9.62919 4.0141 12.0009C4.0141 14.3726 4.71725 16.6911 6.03467 18.6632C7.3521 20.6354 9.22464 22.1727 11.4156 23.0808C13.6066 23.989 16.0176 24.2271 18.3439 23.7653C20.6702 23.3034 22.8073 22.1622 24.4852 20.4859C26.7323 18.2338 27.9942 15.1823 27.9942 12.0009C27.9942 8.8195 26.7323 5.768 24.4852 3.5159V3.5159ZM25.9342 10.9329C24.735 11.0784 23.5184 10.9491 22.3766 10.555C21.2347 10.1609 20.1975 9.51215 19.3434 8.65794C18.4893 7.80373 17.8407 6.76643 17.4467 5.62453C17.0527 4.48263 16.9236 3.26606 17.0692 2.0669C19.3389 2.30553 21.4579 3.31633 23.0715 4.93021C24.6852 6.54408 25.6958 8.66315 25.9342 10.9329V10.9329ZM6.06617 13.0689C7.26535 12.9234 8.4819 13.0527 9.62376 13.4468C10.7656 13.8409 11.8028 14.4897 12.657 15.3439C13.5111 16.1981 14.1597 17.2354 14.5537 18.3773C14.9477 19.5192 15.0768 20.7357 14.9312 21.9349C12.6614 21.6963 10.5425 20.6855 8.9288 19.0716C7.31511 17.4577 6.30455 15.3387 6.06617 13.0689V13.0689ZM23.0712 19.0689C21.4283 20.7154 19.2603 21.7341 16.9442 21.9479C17.0877 20.4812 16.9043 19.0009 16.4071 17.6135C15.91 16.2262 15.1115 14.9663 14.0692 13.9245C13.0268 12.8827 11.7665 12.0849 10.3788 11.5885C8.99122 11.0922 7.51082 10.9096 6.04417 11.0539C6.26168 8.73819 7.28127 6.5712 8.92675 4.92736C10.5722 3.28352 12.7402 2.2661 15.0562 2.0509C14.9217 3.43746 15.0788 4.83681 15.5174 6.15902C15.956 7.48123 16.6664 8.69704 17.603 9.72831C18.5395 10.7596 19.6814 11.5835 20.9554 12.1471C22.2293 12.7107 23.6071 13.0015 25.0002 13.0009C25.3172 13.0009 25.6352 12.9849 25.9532 12.9549C25.736 15.2678 24.7164 17.4318 23.0712 19.0719V19.0689Z" fill="#374957"/>
</g>
<defs>
<filter id="filter0_d_403_3330" x="0" y="0" width="32" height="32" filterUnits="userSpaceOnUse" color-interpolation-filters="sRGB">
<feFlood flood-opacity="0" result="BackgroundImageFix"/>
<feColorMatrix in="SourceAlpha" type="matrix" values="0 0 0 0 0 0 0 0 0 0 0 0 0 0 0 0 0 0 127 0" result="hardAlpha"/>
<feOffset dy="4"/>
<feGaussianBlur stdDeviation="2"/>
<feComposite in2="hardAlpha" operator="out"/>
<feColorMatrix type="matrix" values="0 0 0 0 0 0 0 0 0 0 0 0 0 0 0 0 0 0 0.25 0"/>
<feBlend mode="normal" in2="BackgroundImageFix" result="effect1_dropShadow_403_3330"/>
<feBlend mode="normal" in="SourceGraphic" in2="effect1_dropShadow_403_3330" result="shape"/>
</filter>
<clipPath id="clip0_403_3330">
<rect width="24" height="24" fill="white" transform="translate(4)"/>
</clipPath>
</defs>
</svg>
