<svg width="24" height="24" viewBox="0 0 24 24" fill="none" xmlns="http://www.w3.org/2000/svg">
<path d="M15.9995 23.0001H5.49953C4.27552 23.0016 3.0861 22.5941 2.12024 21.8422C1.15438 21.0903 0.467492 20.0372 0.168705 18.8502C-0.130082 17.6632 -0.023628 16.4104 0.471153 15.2909C0.965933 14.1713 1.82066 13.2492 2.89953 12.6711C2.30748 11.5381 1.99867 10.2785 1.99953 9.00008C2.00547 7.03838 2.73199 5.14724 4.04099 3.68613C5.34999 2.22502 7.15021 1.2958 9.09947 1.0751C11.0487 0.854401 13.0111 1.35761 14.6137 2.48907C16.2162 3.62053 17.3472 5.30137 17.7915 7.21208C19.6987 7.66002 21.3753 8.79221 22.5033 10.394C23.6313 11.9958 24.1323 13.9558 23.9114 15.9024C23.6904 17.849 22.7629 19.6469 21.3046 20.9551C19.8463 22.2633 17.9586 22.991 15.9995 23.0001ZM9.99953 3.00008C8.40872 3.00167 6.88352 3.63432 5.75865 4.7592C4.63377 5.88407 4.00112 7.40927 3.99953 9.00008C3.99795 10.284 4.41268 11.5338 5.18153 12.5621L6.06353 13.7551L4.62753 14.1261C3.80229 14.3363 3.08233 14.8408 2.60317 15.5448C2.124 16.2488 1.91868 17.1036 2.02585 17.9484C2.13302 18.7932 2.54528 19.5697 3.18505 20.1318C3.82482 20.6938 4.64796 21.0026 5.49953 21.0001H15.9995C17.5112 20.9854 18.9617 20.4006 20.0608 19.3626C21.1599 18.3246 21.8267 16.9099 21.9277 15.4015C22.0288 13.8932 21.5568 12.4022 20.606 11.2268C19.6552 10.0515 18.2958 9.27836 16.7995 9.06209L16.0425 8.96208L15.9425 8.20408C15.7478 6.76505 15.0386 5.4452 13.9461 4.48855C12.8536 3.5319 11.4517 3.00316 9.99953 3.00008V3.00008Z" fill="#374957"/>
</svg>
