<svg width="24" height="24" viewBox="0 0 24 24" fill="none" xmlns="http://www.w3.org/2000/svg">
<g clip-path="url(#clip0_403_3367)">
<path d="M21 1.99916H16.46C15.8997 1.37014 15.2126 0.866762 14.4439 0.52208C13.6753 0.177398 12.8424 -0.000793457 12 -0.000793457C11.1576 -0.000793457 10.3247 0.177398 9.55606 0.52208C8.7874 0.866762 8.10034 1.37014 7.54 1.99916H3C2.20435 1.99916 1.44129 2.31523 0.87868 2.87784C0.31607 3.44045 0 4.20351 0 4.99916L0 23.9992H24V4.99916C24 4.20351 23.6839 3.44045 23.1213 2.87784C22.5587 2.31523 21.7956 1.99916 21 1.99916ZM12 1.99916C13.0609 1.99916 14.0783 2.42058 14.8284 3.17073C15.5786 3.92087 16 4.93829 16 5.99916V6.99916H12.618L13.9 4.44616L12.11 3.55216L10.382 6.99916H8V5.99916C8 4.93829 8.42143 3.92087 9.17157 3.17073C9.92172 2.42058 10.9391 1.99916 12 1.99916V1.99916ZM22 21.9992H2V4.99916C2 4.73394 2.10536 4.47959 2.29289 4.29205C2.48043 4.10451 2.73478 3.99916 3 3.99916H6.35C6.12011 4.64098 6.00173 5.31741 6 5.99916V8.99916H18V5.99916C17.9983 5.31741 17.8799 4.64098 17.65 3.99916H21C21.2652 3.99916 21.5196 4.10451 21.7071 4.29205C21.8946 4.47959 22 4.73394 22 4.99916V21.9992Z" fill="#374957"/>
</g>
<defs>
<clipPath id="clip0_403_3367">
<rect width="24" height="24" fill="white"/>
</clipPath>
</defs>
</svg>
