<svg width="32" height="32" viewBox="0 0 32 32" fill="none" xmlns="http://www.w3.org/2000/svg">
<g clip-path="url(#clip0_403_3333)" filter="url(#filter0_d_403_3333)">
<path d="M26.5353 7.32409L27.9653 5.92409L22.2153 0.0510864L20.7853 1.45109L23.0413 3.75109L20.8623 5.79209L19.9503 4.87909C19.6717 4.60046 19.341 4.37943 18.977 4.22864C18.613 4.07784 18.2228 4.00023 17.8288 4.00023C17.4348 4.00023 17.0446 4.07784 16.6806 4.22864C16.3166 4.37943 15.9859 4.60046 15.7073 4.87909L7.0003 13.5861V19.5861L4.0433 22.5431L5.4573 23.9571L8.4143 21.0001H14.4143L23.1213 12.2931C23.3999 12.0145 23.621 11.6838 23.7718 11.3198C23.9226 10.9557 24.0002 10.5656 24.0002 10.1716C24.0002 9.77758 23.9226 9.38743 23.7718 9.02342C23.621 8.65941 23.3999 8.32867 23.1213 8.05009L22.2773 7.20709L24.4403 5.18409L26.5353 7.32409ZM21.7073 10.8791L13.5863 19.0001H9.0003V15.2891L10.9183 17.2071L12.3323 15.7931L9.9773 13.4381L11.5633 11.8521L13.9183 14.2071L15.3323 12.7931L12.9773 10.4381L14.5633 8.85209L16.9183 11.2071L18.3323 9.79309L15.9773 7.43809L17.1213 6.29309C17.2142 6.20011 17.3245 6.12635 17.4459 6.07603C17.5673 6.0257 17.6974 5.9998 17.8288 5.9998C17.9602 5.9998 18.0903 6.0257 18.2117 6.07603C18.3331 6.12635 18.4434 6.20011 18.5363 6.29309L21.7073 9.46409C21.8003 9.55696 21.874 9.66725 21.9244 9.78865C21.9747 9.91005 22.0006 10.0402 22.0006 10.1716C22.0006 10.303 21.9747 10.4331 21.9244 10.5545C21.874 10.6759 21.8003 10.7862 21.7073 10.8791V10.8791Z" fill="#374957"/>
</g>
<defs>
<filter id="filter0_d_403_3333" x="0" y="0" width="32" height="32" filterUnits="userSpaceOnUse" color-interpolation-filters="sRGB">
<feFlood flood-opacity="0" result="BackgroundImageFix"/>
<feColorMatrix in="SourceAlpha" type="matrix" values="0 0 0 0 0 0 0 0 0 0 0 0 0 0 0 0 0 0 127 0" result="hardAlpha"/>
<feOffset dy="4"/>
<feGaussianBlur stdDeviation="2"/>
<feComposite in2="hardAlpha" operator="out"/>
<feColorMatrix type="matrix" values="0 0 0 0 0 0 0 0 0 0 0 0 0 0 0 0 0 0 0.25 0"/>
<feBlend mode="normal" in2="BackgroundImageFix" result="effect1_dropShadow_403_3333"/>
<feBlend mode="normal" in="SourceGraphic" in2="effect1_dropShadow_403_3333" result="shape"/>
</filter>
<clipPath id="clip0_403_3333">
<rect width="24" height="24" fill="white" transform="translate(4)"/>
</clipPath>
</defs>
</svg>
