<svg width="24" height="24" viewBox="0 0 24 24" fill="none" xmlns="http://www.w3.org/2000/svg">
<g clip-path="url(#clip0_403_3517)">
<path d="M24 12C24 15.1826 22.7357 18.2348 20.4853 20.4853C18.2348 22.7357 15.1826 24 12 24C8.8174 24 5.76516 22.7357 3.51472 20.4853C1.26428 18.2348 0 15.1826 0 12C0 11.633 0.017 11.269 0.049 10.91L2.041 11.091C2.01367 11.3903 2 11.6933 2 12C2 13.9778 2.58649 15.9112 3.6853 17.5557C4.78412 19.2002 6.3459 20.4819 8.17317 21.2388C10.0004 21.9957 12.0111 22.1937 13.9509 21.8079C15.8907 21.422 17.6725 20.4696 19.0711 19.0711C20.4696 17.6725 21.422 15.8907 21.8079 13.9509C22.1937 12.0111 21.9957 10.0004 21.2388 8.17317C20.4819 6.3459 19.2002 4.78412 17.5557 3.6853C15.9112 2.58649 13.9778 2 12 2C11.6933 2 11.3903 2.01367 11.091 2.041L10.91 0.049C11.269 0.017 11.633 0 12 0C15.1815 0.00344108 18.2318 1.26883 20.4815 3.51852C22.7312 5.76821 23.9966 8.81846 24 12ZM5.663 4.263L4.395 2.717C3.78121 3.2216 3.2185 3.78531 2.715 4.4L4.262 5.665C4.68212 5.15305 5.15135 4.68348 5.663 4.263ZM9.142 2.415L8.571 0.5C7.80965 0.726352 7.0727 1.02783 6.371 1.4L7.31 3.166C7.89418 2.85539 8.50789 2.60381 9.142 2.415V2.415ZM3.164 7.315L1.4 6.375C1.02801 7.07678 0.726533 7.81372 0.5 8.575L2.417 9.146C2.60454 8.51172 2.85478 7.89769 3.164 7.313V7.315ZM11 6V10.277C10.7004 10.4513 10.4513 10.7004 10.277 11H7V13H10.277C10.4297 13.2652 10.6414 13.4917 10.8958 13.662C11.1501 13.8323 11.4402 13.9417 11.7436 13.9818C12.047 14.0219 12.3556 13.9917 12.6454 13.8934C12.9353 13.7951 13.1986 13.6314 13.415 13.415C13.6314 13.1986 13.7951 12.9353 13.8934 12.6454C13.9917 12.3556 14.0219 12.047 13.9818 11.7436C13.9417 11.4402 13.8323 11.1501 13.662 10.8958C13.4917 10.6414 13.2652 10.4297 13 10.277V6H11Z" fill="#374957"/>
</g>
<defs>
<clipPath id="clip0_403_3517">
<rect width="24" height="24" fill="white"/>
</clipPath>
</defs>
</svg>
