<svg width="26" height="32" viewBox="0 0 26 32" fill="none" xmlns="http://www.w3.org/2000/svg">
<g clip-path="url(#clip0_403_3503)" filter="url(#filter0_d_403_3503)">
<path d="M22 24H4V21C4.0598 19.2706 4.4868 17.5738 5.25265 16.0221C6.0185 14.4704 7.10567 13.0993 8.442 12C7.10567 10.9007 6.0185 9.52964 5.25265 7.97794C4.4868 6.42624 4.0598 4.72937 4 3C4 2.20435 4.31607 1.44129 4.87868 0.87868C5.44129 0.31607 6.20435 0 7 0L19 0C19.7956 0 20.5587 0.31607 21.1213 0.87868C21.6839 1.44129 22 2.20435 22 3C21.941 4.72779 21.516 6.4234 20.7532 7.97482C19.9905 9.52624 18.9072 10.8982 17.575 12C18.9072 13.1018 19.9905 14.4738 20.7532 16.0252C21.516 17.5766 21.941 19.2722 22 21V24ZM6 22H20V21C20 17.226 17.5 14.448 15.408 12.783L14.424 12L15.408 11.217C17.5 9.552 20 6.774 20 3C20 2.73478 19.8946 2.48043 19.7071 2.29289C19.5196 2.10536 19.2652 2 19 2H7C6.73478 2 6.48043 2.10536 6.29289 2.29289C6.10536 2.48043 6 2.73478 6 3C6 6.773 8.508 9.551 10.611 11.216L11.6 12L10.608 12.784C8.508 14.449 6 17.227 6 21V22Z" fill="#374957"/>
</g>
<defs>
<filter id="filter0_d_403_3503" x="-3" y="0" width="32" height="32" filterUnits="userSpaceOnUse" color-interpolation-filters="sRGB">
<feFlood flood-opacity="0" result="BackgroundImageFix"/>
<feColorMatrix in="SourceAlpha" type="matrix" values="0 0 0 0 0 0 0 0 0 0 0 0 0 0 0 0 0 0 127 0" result="hardAlpha"/>
<feOffset dy="4"/>
<feGaussianBlur stdDeviation="2"/>
<feComposite in2="hardAlpha" operator="out"/>
<feColorMatrix type="matrix" values="0 0 0 0 0 0 0 0 0 0 0 0 0 0 0 0 0 0 0.25 0"/>
<feBlend mode="normal" in2="BackgroundImageFix" result="effect1_dropShadow_403_3503"/>
<feBlend mode="normal" in="SourceGraphic" in2="effect1_dropShadow_403_3503" result="shape"/>
</filter>
<clipPath id="clip0_403_3503">
<rect width="24" height="24" fill="white" transform="translate(1)"/>
</clipPath>
</defs>
</svg>
