<svg width="24" height="24" viewBox="0 0 24 24" fill="none" xmlns="http://www.w3.org/2000/svg">
<g clip-path="url(#clip0_403_3780)">
<path d="M12 24C9.62663 24 7.30655 23.2962 5.33316 21.9776C3.35977 20.6591 1.8217 18.7849 0.913451 16.5922C0.00519943 14.3995 -0.232441 11.9867 0.230582 9.65892C0.693605 7.33115 1.83649 5.19295 3.51472 3.51472C5.19295 1.83649 7.33115 0.693605 9.65892 0.230582C11.9867 -0.232441 14.3995 0.00519943 16.5922 0.913451C18.7849 1.8217 20.6591 3.35977 21.9776 5.33316C23.2962 7.30655 24 9.62663 24 12C23.9966 15.1815 22.7312 18.2318 20.4815 20.4815C18.2318 22.7312 15.1815 23.9966 12 24V24ZM12 2.00001C10.0222 2.00001 8.08879 2.5865 6.4443 3.68531C4.79981 4.78412 3.51809 6.34591 2.76121 8.17317C2.00433 10.0004 1.8063 12.0111 2.19215 13.9509C2.578 15.8907 3.53041 17.6725 4.92894 19.0711C6.32746 20.4696 8.10929 21.422 10.0491 21.8079C11.9889 22.1937 13.9996 21.9957 15.8268 21.2388C17.6541 20.4819 19.2159 19.2002 20.3147 17.5557C21.4135 15.9112 22 13.9778 22 12C21.9971 9.34873 20.9426 6.80689 19.0679 4.93215C17.1931 3.05742 14.6513 2.00292 12 2.00001V2.00001Z" fill="#374957"/>
<path d="M11.9997 19.0001C10.8486 19 9.71522 18.7161 8.70006 18.1734C7.68489 17.6307 6.81923 16.846 6.17974 15.8889C5.54025 14.9317 5.14667 13.8316 5.03387 12.6861C4.92107 11.5405 5.09253 10.3848 5.53306 9.32127C5.97358 8.25778 6.66958 7.31934 7.55941 6.58907C8.44923 5.8588 9.50542 5.35925 10.6344 5.13465C11.7634 4.91006 12.9304 4.96735 14.0319 5.30147C15.1335 5.63558 16.1357 6.2362 16.9497 7.05012L15.5357 8.46412C14.8364 7.76499 13.9454 7.28892 12.9756 7.0961C12.0057 6.90328 11.0004 7.00237 10.0869 7.38085C9.17334 7.75933 8.39252 8.40019 7.84317 9.22241C7.29382 10.0446 7.00061 11.0113 7.00061 12.0001C7.00061 12.989 7.29382 13.9556 7.84317 14.7778C8.39252 15.6001 9.17334 16.2409 10.0869 16.6194C11.0004 16.9979 12.0057 17.097 12.9756 16.9041C13.9454 16.7113 14.8364 16.2353 15.5357 15.5361L16.9497 16.9501C16.3002 17.6009 15.5286 18.117 14.6791 18.4687C13.8297 18.8205 12.9191 19.0011 11.9997 19.0001V19.0001Z" fill="#374957"/>
</g>
<defs>
<clipPath id="clip0_403_3780">
<rect width="24" height="24" fill="white"/>
</clipPath>
</defs>
</svg>
