<svg width="32" height="28" viewBox="0 0 32 28" fill="none" xmlns="http://www.w3.org/2000/svg">
<g clip-path="url(#clip0_403_3610)" filter="url(#filter0_d_403_3610)">
<path d="M25 4.00024H6V11.0002H4V13.0002H6V20.0002H25C25.7956 20.0002 26.5587 19.6842 27.1213 19.1216C27.6839 18.559 28 17.7959 28 17.0002V7.00024C28 6.20459 27.6839 5.44153 27.1213 4.87892C26.5587 4.31631 25.7956 4.00024 25 4.00024V4.00024ZM8 13.0002H9V11.0002H8V6.00024H11V18.0002H8V13.0002ZM26 17.0002C26 17.2655 25.8946 17.5198 25.7071 17.7074C25.5196 17.8949 25.2652 18.0002 25 18.0002H13V6.00024H25C25.2652 6.00024 25.5196 6.1056 25.7071 6.29314C25.8946 6.48067 26 6.73503 26 7.00024V17.0002Z" fill="#374957"/>
</g>
<defs>
<filter id="filter0_d_403_3610" x="0" y="0" width="32" height="32" filterUnits="userSpaceOnUse" color-interpolation-filters="sRGB">
<feFlood flood-opacity="0" result="BackgroundImageFix"/>
<feColorMatrix in="SourceAlpha" type="matrix" values="0 0 0 0 0 0 0 0 0 0 0 0 0 0 0 0 0 0 127 0" result="hardAlpha"/>
<feOffset dy="4"/>
<feGaussianBlur stdDeviation="2"/>
<feComposite in2="hardAlpha" operator="out"/>
<feColorMatrix type="matrix" values="0 0 0 0 0 0 0 0 0 0 0 0 0 0 0 0 0 0 0.25 0"/>
<feBlend mode="normal" in2="BackgroundImageFix" result="effect1_dropShadow_403_3610"/>
<feBlend mode="normal" in="SourceGraphic" in2="effect1_dropShadow_403_3610" result="shape"/>
</filter>
<clipPath id="clip0_403_3610">
<rect width="24" height="24" fill="white" transform="translate(4)"/>
</clipPath>
</defs>
</svg>
