<svg width="24" height="24" viewBox="0 0 24 24" fill="none" xmlns="http://www.w3.org/2000/svg">
<g clip-path="url(#clip0_403_3643)">
<path d="M24 15.062C24.0011 14.222 23.8249 13.3912 23.483 12.624L20.706 6.37496C20.3909 5.66841 19.878 5.06817 19.2293 4.64673C18.5805 4.22529 17.8236 4.00066 17.05 3.99996H14L13.243 0.969961C13.1739 0.692583 13.014 0.446291 12.7887 0.270281C12.5635 0.0942707 12.2859 -0.00134277 12 -0.00134277C11.7141 -0.00134277 11.4365 0.0942707 11.2113 0.270281C10.986 0.446291 10.8261 0.692583 10.757 0.969961L10 3.99996H3C2.20435 3.99996 1.44129 4.31603 0.87868 4.87864C0.31607 5.44125 0 6.20432 0 6.99997L0 20H2.041C2.01527 20.1654 2.00157 20.3325 2 20.5C2 21.4282 2.36875 22.3185 3.02513 22.9749C3.6815 23.6312 4.57174 24 5.5 24C6.42826 24 7.3185 23.6312 7.97487 22.9749C8.63125 22.3185 9 21.4282 9 20.5C8.99843 20.3325 8.98473 20.1654 8.959 20H15.041C15.0153 20.1654 15.0016 20.3325 15 20.5C15 21.4282 15.3687 22.3185 16.0251 22.9749C16.6815 23.6312 17.5717 24 18.5 24C19.4283 24 20.3185 23.6312 20.9749 22.9749C21.6313 22.3185 22 21.4282 22 20.5C21.9984 20.3325 21.9847 20.1654 21.959 20H24V15.062ZM18.878 7.18797L20.572 11H16V5.99996H17.05C17.437 5.99992 17.8156 6.11213 18.1401 6.32299C18.4646 6.53386 18.7209 6.83433 18.878 7.18797V7.18797ZM7 20.5C7 20.8978 6.84196 21.2793 6.56066 21.5606C6.27936 21.8419 5.89782 22 5.5 22C5.10218 22 4.72064 21.8419 4.43934 21.5606C4.15804 21.2793 4 20.8978 4 20.5C4.00061 20.3291 4.03212 20.1597 4.093 20H6.907C6.96788 20.1597 6.99939 20.3291 7 20.5ZM20 20.5C20 20.8978 19.842 21.2793 19.5607 21.5606C19.2794 21.8419 18.8978 22 18.5 22C18.1022 22 17.7206 21.8419 17.4393 21.5606C17.158 21.2793 17 20.8978 17 20.5C17.0006 20.3291 17.0321 20.1597 17.093 20H19.907C19.9679 20.1597 19.9994 20.3291 20 20.5V20.5ZM22 18H2V6.99997C2 6.73475 2.10536 6.48039 2.29289 6.29286C2.48043 6.10532 2.73478 5.99996 3 5.99996H14V13H21.461L21.655 13.437C21.8833 13.9482 22.0009 14.502 22 15.062V18ZM9 11H11V13H9V15H7V13H5V11H7V8.99997H9V11Z" fill="#374957"/>
</g>
<defs>
<clipPath id="clip0_403_3643">
<rect width="24" height="24" fill="white"/>
</clipPath>
</defs>
</svg>
