<svg width="32" height="32" viewBox="0 0 32 32" fill="none" xmlns="http://www.w3.org/2000/svg">
<g clip-path="url(#clip0_403_3345)" filter="url(#filter0_d_403_3345)">
<path d="M4.41479 12.0003C4.41975 9.20676 5.39921 6.50243 7.18433 4.35359C8.96944 2.20475 11.4483 0.746048 14.1937 0.228975C16.939 -0.288099 19.7787 0.168855 22.2232 1.52106C24.6677 2.87326 26.5639 5.03597 27.5848 7.63635L25.7218 8.36435C25.0601 6.66894 23.9482 5.18627 22.506 4.07613C21.0638 2.966 19.346 2.27049 17.5377 2.06457C15.7294 1.85865 13.8992 2.15012 12.2443 2.90758C10.5895 3.66503 9.17271 4.85975 8.14671 6.36296C7.12072 7.86618 6.52442 9.62089 6.42207 11.438C6.31972 13.2551 6.71521 15.0657 7.5659 16.6746C8.4166 18.2835 9.69025 19.6298 11.2496 20.5683C12.8089 21.5067 14.5948 22.0019 16.4148 22.0003C18.4281 22.0071 20.396 21.4022 22.058 20.2658C23.72 19.1293 24.9976 17.515 25.7218 15.6363L27.5848 16.3643C26.5639 18.9647 24.6677 21.1274 22.2232 22.4796C19.7787 23.8318 16.939 24.2888 14.1937 23.7717C11.4483 23.2546 8.96944 21.7959 7.18433 19.6471C5.39921 17.4983 4.41975 14.7939 4.41479 12.0003V12.0003Z" fill="#374957"/>
</g>
<defs>
<filter id="filter0_d_403_3345" x="0" y="0" width="32" height="32" filterUnits="userSpaceOnUse" color-interpolation-filters="sRGB">
<feFlood flood-opacity="0" result="BackgroundImageFix"/>
<feColorMatrix in="SourceAlpha" type="matrix" values="0 0 0 0 0 0 0 0 0 0 0 0 0 0 0 0 0 0 127 0" result="hardAlpha"/>
<feOffset dy="4"/>
<feGaussianBlur stdDeviation="2"/>
<feComposite in2="hardAlpha" operator="out"/>
<feColorMatrix type="matrix" values="0 0 0 0 0 0 0 0 0 0 0 0 0 0 0 0 0 0 0.25 0"/>
<feBlend mode="normal" in2="BackgroundImageFix" result="effect1_dropShadow_403_3345"/>
<feBlend mode="normal" in="SourceGraphic" in2="effect1_dropShadow_403_3345" result="shape"/>
</filter>
<clipPath id="clip0_403_3345">
<rect width="24" height="24" fill="white" transform="translate(4)"/>
</clipPath>
</defs>
</svg>
