<svg width="32" height="29" viewBox="0 0 32 29" fill="none" xmlns="http://www.w3.org/2000/svg">
<g clip-path="url(#clip0_403_3593)" filter="url(#filter0_d_403_3593)">
<path d="M9.49988 17.0001C10.3283 17.0001 10.9999 16.3285 10.9999 15.5001C10.9999 14.6717 10.3283 14.0001 9.49988 14.0001C8.67145 14.0001 7.99988 14.6717 7.99988 15.5001C7.99988 16.3285 8.67145 17.0001 9.49988 17.0001Z" fill="#374957"/>
<path d="M25 3H7C6.20435 3 5.44129 3.31607 4.87868 3.87868C4.31607 4.44129 4 5.20435 4 6V21H28V6C28 5.20435 27.6839 4.44129 27.1213 3.87868C26.5587 3.31607 25.7956 3 25 3ZM7 5H25C25.2652 5 25.5196 5.10536 25.7071 5.29289C25.8946 5.48043 26 5.73478 26 6V8H6V6C6 5.73478 6.10536 5.48043 6.29289 5.29289C6.48043 5.10536 6.73478 5 7 5V5ZM6 19V10H26V19H6Z" fill="#374957"/>
</g>
<defs>
<filter id="filter0_d_403_3593" x="0" y="0" width="32" height="32" filterUnits="userSpaceOnUse" color-interpolation-filters="sRGB">
<feFlood flood-opacity="0" result="BackgroundImageFix"/>
<feColorMatrix in="SourceAlpha" type="matrix" values="0 0 0 0 0 0 0 0 0 0 0 0 0 0 0 0 0 0 127 0" result="hardAlpha"/>
<feOffset dy="4"/>
<feGaussianBlur stdDeviation="2"/>
<feComposite in2="hardAlpha" operator="out"/>
<feColorMatrix type="matrix" values="0 0 0 0 0 0 0 0 0 0 0 0 0 0 0 0 0 0 0.25 0"/>
<feBlend mode="normal" in2="BackgroundImageFix" result="effect1_dropShadow_403_3593"/>
<feBlend mode="normal" in="SourceGraphic" in2="effect1_dropShadow_403_3593" result="shape"/>
</filter>
<clipPath id="clip0_403_3593">
<rect width="24" height="24" fill="white" transform="translate(4)"/>
</clipPath>
</defs>
</svg>
