<svg width="24" height="24" viewBox="0 0 24 24" fill="none" xmlns="http://www.w3.org/2000/svg">
<g clip-path="url(#clip0_403_3445)">
<path d="M4.3092 5.6084L2.7722 4.32941C1.88065 5.39844 1.18282 6.61508 0.710205 7.9244L2.59121 8.6044C2.98476 7.51318 3.56619 6.49923 4.3092 5.6084V5.6084Z" fill="#374957"/>
<path d="M2.0002 12.0002C2.00024 11.423 2.04976 10.8469 2.1482 10.2782L0.177205 9.93622C-0.0601261 11.3067 -0.0601261 12.7078 0.177205 14.0782L2.1472 13.7342C2.04848 13.1615 1.9993 12.5814 2.0002 12.0002V12.0002Z" fill="#374957"/>
<path d="M8.50713 2.62656L7.80813 0.752563C6.50356 1.23901 5.29403 1.9497 4.23413 2.85256L5.53413 4.37656C6.41579 3.62474 7.42188 3.03252 8.50713 2.62656V2.62656Z" fill="#374957"/>
<path d="M4.24414 21.1567C5.3054 22.058 6.51592 22.767 7.82113 23.2517L8.52113 21.3767C7.43345 20.9733 6.42486 20.3823 5.54114 19.6307L4.24414 21.1567Z" fill="#374957"/>
<path d="M2.60015 15.4088L0.720154 16.0898C1.19484 17.3984 1.89397 18.6143 2.78615 19.6828L4.31715 18.4008C3.57532 17.5108 2.99429 16.4983 2.60015 15.4088V15.4088Z" fill="#374957"/>
<path d="M12.0003 0C11.2721 0.00124052 10.5455 0.0681785 9.82928 0.2L10.1893 2.168C10.7866 2.05729 11.3928 2.00106 12.0003 2V22C11.3929 22.0003 10.7867 21.9454 10.1893 21.836L9.82928 23.8C11.5596 24.1165 13.3383 24.0491 15.0397 23.6024C16.7411 23.1558 18.3236 22.3409 19.6754 21.2153C21.0271 20.0897 22.1151 18.6809 22.8625 17.0885C23.6098 15.4961 23.9982 13.759 24.0003 12C23.9968 8.81846 22.7315 5.76821 20.4818 3.51852C18.2321 1.26883 15.1818 0.00344108 12.0003 0V0Z" fill="#374957"/>
</g>
<defs>
<clipPath id="clip0_403_3445">
<rect width="24" height="24" fill="white"/>
</clipPath>
</defs>
</svg>
