<svg width="28" height="32" viewBox="0 0 28 32" fill="none" xmlns="http://www.w3.org/2000/svg">
<g clip-path="url(#clip0_403_3537)" filter="url(#filter0_d_403_3537)">
<path d="M9.00012 12H19.0001V14H9.00012V12ZM9.00012 18H16.0001V16H9.00012V18ZM24.0001 7.586V24H4.00012V3C4.00012 2.20435 4.31619 1.44129 4.8788 0.87868C5.44141 0.31607 6.20447 0 7.00012 0L16.4141 0L24.0001 7.586ZM17.0001 7H20.5861L17.0001 3.414V7ZM22.0001 22V9H15.0001V2H7.00012C6.73491 2 6.48055 2.10536 6.29302 2.29289C6.10548 2.48043 6.00012 2.73478 6.00012 3V22H22.0001Z" fill="#374957"/>
</g>
<defs>
<filter id="filter0_d_403_3537" x="-2" y="0" width="32" height="32" filterUnits="userSpaceOnUse" color-interpolation-filters="sRGB">
<feFlood flood-opacity="0" result="BackgroundImageFix"/>
<feColorMatrix in="SourceAlpha" type="matrix" values="0 0 0 0 0 0 0 0 0 0 0 0 0 0 0 0 0 0 127 0" result="hardAlpha"/>
<feOffset dy="4"/>
<feGaussianBlur stdDeviation="2"/>
<feComposite in2="hardAlpha" operator="out"/>
<feColorMatrix type="matrix" values="0 0 0 0 0 0 0 0 0 0 0 0 0 0 0 0 0 0 0.25 0"/>
<feBlend mode="normal" in2="BackgroundImageFix" result="effect1_dropShadow_403_3537"/>
<feBlend mode="normal" in="SourceGraphic" in2="effect1_dropShadow_403_3537" result="shape"/>
</filter>
<clipPath id="clip0_403_3537">
<rect width="24" height="24" fill="white" transform="translate(2)"/>
</clipPath>
</defs>
</svg>
