<svg width="24" height="24" viewBox="0 0 24 24" fill="none" xmlns="http://www.w3.org/2000/svg">
<path d="M21.0004 12.4236V10.9996C21.0004 8.61269 20.0522 6.3235 18.3643 4.63567C16.6765 2.94785 14.3873 1.99963 12.0004 1.99963C9.61343 1.99963 7.32424 2.94785 5.63642 4.63567C3.94859 6.3235 3.00038 8.61269 3.00038 10.9996V12.4236C1.95154 12.8855 1.09318 13.6936 0.568999 14.7127C0.0448205 15.7318 -0.113361 16.9001 0.120935 18.0219C0.355232 19.1437 0.967785 20.151 1.85605 20.8751C2.74431 21.5992 3.85436 21.9962 5.00038 21.9996H7.00038V11.9996H5.00038V10.9996C5.00038 9.14312 5.73788 7.36264 7.05063 6.04989C8.36338 4.73713 10.1439 3.99963 12.0004 3.99963C13.8569 3.99963 15.6374 4.73713 16.9501 6.04989C18.2629 7.36264 19.0004 9.14312 19.0004 10.9996V11.9996H17.0004V21.9996H19.0004C20.1464 21.9962 21.2564 21.5992 22.1447 20.8751C23.033 20.151 23.6455 19.1437 23.8798 18.0219C24.1141 16.9001 23.9559 15.7318 23.4318 14.7127C22.9076 13.6936 22.0492 12.8855 21.0004 12.4236V12.4236ZM5.00038 19.9996C4.20473 19.9996 3.44167 19.6836 2.87906 19.121C2.31645 18.5583 2.00038 17.7953 2.00038 16.9996C2.00038 16.204 2.31645 15.4409 2.87906 14.8783C3.44167 14.3157 4.20473 13.9996 5.00038 13.9996V19.9996ZM19.0004 19.9996V13.9996C19.796 13.9996 20.5591 14.3157 21.1217 14.8783C21.6843 15.4409 22.0004 16.204 22.0004 16.9996C22.0004 17.7953 21.6843 18.5583 21.1217 19.121C20.5591 19.6836 19.796 19.9996 19.0004 19.9996Z" fill="#374957"/>
</svg>
