<svg width="24" height="24" viewBox="0 0 24 24" fill="none" xmlns="http://www.w3.org/2000/svg">
<g clip-path="url(#clip0_403_3631)">
<path d="M15 16.0001C15 16.5306 15.2107 17.0393 15.5858 17.4143C15.9609 17.7894 16.4696 18.0001 17 18.0001C17.5304 18.0001 18.0391 17.7894 18.4142 17.4143C18.7893 17.0393 19 16.5306 19 16.0001C19 15.4697 18.7893 14.961 18.4142 14.5859C18.0391 14.2108 17.5304 14.0001 17 14.0001C16.4696 14.0001 15.9609 14.2108 15.5858 14.5859C15.2107 14.961 15 15.4697 15 16.0001Z" fill="#374957"/>
<path d="M8.00024 19.0001C6.93938 19.0001 5.92196 18.5787 5.17182 17.8285C4.42167 17.0784 4.00024 16.061 4.00024 15.0001C4.00024 13.9393 4.42167 12.9218 5.17182 12.1717C5.92196 11.4215 6.93938 11.0001 8.00024 11.0001C9.06111 11.0001 10.0785 11.4215 10.8287 12.1717C11.5788 12.9218 12.0002 13.9393 12.0002 15.0001C12.0002 16.061 11.5788 17.0784 10.8287 17.8285C10.0785 18.5787 9.06111 19.0001 8.00024 19.0001ZM8.00024 13.0001C7.46981 13.0001 6.9611 13.2108 6.58603 13.5859C6.21096 13.961 6.00024 14.4697 6.00024 15.0001C6.00024 15.5305 6.21096 16.0393 6.58603 16.4143C6.9611 16.7894 7.46981 17.0001 8.00024 17.0001C8.53068 17.0001 9.03938 16.7894 9.41446 16.4143C9.78953 16.0393 10.0002 15.5305 10.0002 15.0001C10.0002 14.4697 9.78953 13.961 9.41446 13.5859C9.03938 13.2108 8.53068 13.0001 8.00024 13.0001Z" fill="#374957"/>
<path d="M24.0001 23.9999H14.0001V22.9999C14.0001 22.6021 13.8421 22.2206 13.5608 21.9393C13.2795 21.658 12.8979 21.4999 12.5001 21.4999C12.1023 21.4999 11.7207 21.658 11.4394 21.9393C11.1581 22.2206 11.0001 22.6021 11.0001 22.9999V23.9999H4.8331C-0.777899 23.9089 -0.6359 14.0799 1.1201 10.5079C2.41397 6.70091 4.82687 3.37311 8.0431 0.959934C8.86732 0.355959 9.85791 0.0211716 10.8795 0.00130459C11.9012 -0.0185624 12.904 0.27746 13.7511 0.848934L24.0001 8.49993V23.9999ZM15.8541 21.9999H22.0001V9.99993H4.8331C4.43906 9.99774 4.05327 10.1129 3.72489 10.3307C3.3965 10.5485 3.14036 10.8591 2.9891 11.2229C2.35432 12.7365 2.01848 14.3587 2.0001 15.9999C2.01848 17.6412 2.35432 19.2633 2.9891 20.7769C3.14036 21.1408 3.3965 21.4514 3.72489 21.6692C4.05327 21.887 4.43906 22.0021 4.8331 21.9999H9.1461C9.36893 21.2847 9.81459 20.6594 10.418 20.2154C11.0214 19.7713 11.7509 19.5319 12.5001 19.5319C13.2493 19.5319 13.9788 19.7713 14.5822 20.2154C15.1856 20.6594 15.6313 21.2847 15.8541 21.9999ZM10.9711 1.99993C10.3481 1.99748 9.74093 2.19635 9.2401 2.56693C7.28892 4.04452 5.65628 5.90096 4.4401 8.02493C4.57298 8.01113 4.70651 8.00446 4.8401 8.00493H19.9891L12.6001 2.48193C12.1162 2.16474 11.5497 1.9971 10.9711 1.99993V1.99993Z" fill="#374957"/>
</g>
<defs>
<clipPath id="clip0_403_3631">
<rect width="24" height="24" fill="white"/>
</clipPath>
</defs>
</svg>
