<svg width="24" height="24" viewBox="0 0 24 24" fill="none" xmlns="http://www.w3.org/2000/svg">
<g clip-path="url(#clip0_403_3448)">
<path d="M21.9998 -0.000232061H19.8278C19.4337 -0.00135454 19.0433 0.0757631 18.6792 0.22665C18.3151 0.377538 17.9846 0.599193 17.7068 0.878768L9.34585 9.23877C7.74511 8.82575 6.05299 8.95049 4.53012 9.59375C3.00724 10.237 1.7381 11.3631 0.918183 12.7986C0.0982639 14.2341 -0.226949 15.8994 -0.00736185 17.5379C0.212225 19.1764 0.96443 20.6973 2.13339 21.8662C3.30235 23.0352 4.82321 23.7874 6.46172 24.007C8.10023 24.2266 9.76549 23.9013 11.201 23.0814C12.6365 22.2615 13.7626 20.9924 14.4059 19.4695C15.0491 17.9466 15.1739 16.2545 14.7608 14.6538L15.9998 13.4148V10.9998H18.9998V7.99977H21.4138L23.1208 6.29277C23.4003 6.0147 23.6219 5.68399 23.7728 5.31976C23.9236 4.95553 24.0008 4.56501 23.9998 4.17077V1.99977C23.9998 1.46934 23.7891 0.960627 23.4141 0.585554C23.039 0.210482 22.5303 -0.000232061 21.9998 -0.000232061V-0.000232061ZM21.9998 4.17077C22 4.30225 21.9741 4.43246 21.9238 4.55394C21.8736 4.67543 21.7998 4.78581 21.7068 4.87877L20.5858 5.99977H16.9998V8.99977H13.9998V12.5848L12.4548 14.1298C12.8067 14.8707 12.9927 15.6795 12.9998 16.4998C12.9998 17.5876 12.6773 18.6509 12.0729 19.5554C11.4686 20.4599 10.6096 21.1648 9.60461 21.5811C8.59961 21.9974 7.49375 22.1063 6.42685 21.8941C5.35995 21.6819 4.37995 21.158 3.61076 20.3889C2.84157 19.6197 2.31775 18.6397 2.10553 17.5728C1.89331 16.5059 2.00223 15.4 2.41851 14.395C2.83479 13.39 3.53974 12.531 4.44421 11.9267C5.34868 11.3223 6.41205 10.9998 7.49985 10.9998C8.3257 10.9458 9.14928 11.1349 9.86885 11.5438L19.1208 2.29277C19.3089 2.10605 19.5628 2.0008 19.8278 1.99977H21.9998V4.17077ZM4.99985 17.9998C4.99985 18.1975 5.0585 18.3909 5.16838 18.5553C5.27826 18.7198 5.43444 18.848 5.61716 18.9236C5.79989 18.9993 6.00096 19.0191 6.19494 18.9806C6.38892 18.942 6.5671 18.8467 6.70695 18.7069C6.84681 18.567 6.94205 18.3888 6.98063 18.1949C7.01922 18.0009 6.99941 17.7998 6.92373 17.6171C6.84804 17.4344 6.71987 17.2782 6.55542 17.1683C6.39097 17.0584 6.19763 16.9998 5.99985 16.9998C5.73463 16.9998 5.48028 17.1051 5.29274 17.2927C5.1052 17.4802 4.99985 17.7346 4.99985 17.9998Z" fill="#374957"/>
</g>
<defs>
<clipPath id="clip0_403_3448">
<rect width="24" height="24" fill="white"/>
</clipPath>
</defs>
</svg>
