<svg width="24" height="24" viewBox="0 0 24 24" fill="none" xmlns="http://www.w3.org/2000/svg">
<g clip-path="url(#clip0_403_3389)">
<path d="M6.48582 22.1429L5.45682 20.4279C8.99982 18.2999 8.99982 13.7299 8.99982 10.9999C8.99982 10.2043 9.31589 9.44122 9.8785 8.87861C10.4411 8.316 11.2042 7.99993 11.9998 7.99993C12.7955 7.99993 13.5585 8.316 14.1211 8.87861C14.6837 9.44122 14.9998 10.2043 14.9998 10.9999H12.9998C12.9998 10.7347 12.8945 10.4804 12.7069 10.2928C12.5194 10.1053 12.265 9.99993 11.9998 9.99993C11.7346 9.99993 11.4802 10.1053 11.2927 10.2928C11.1052 10.4804 10.9998 10.7347 10.9998 10.9999C10.9998 13.9469 10.9998 19.4339 6.48582 22.1429ZM14.8958 14.0839L12.8998 13.9159C12.5838 17.6449 11.3748 20.5309 9.30782 22.4959L10.6848 23.9449C13.1228 21.6339 14.5378 18.3149 14.8998 14.0839H14.8958ZM17.6418 20.3389L15.7608 19.6609C15.3547 20.7976 14.8177 21.8833 14.1608 22.8959L15.8348 23.9899C16.5769 22.8473 17.1834 21.622 17.6418 20.3389V20.3389ZM18.9998 10.9999C18.9989 9.58323 18.5681 8.20016 17.7644 7.03349C16.9607 5.86682 15.8219 4.97147 14.4985 4.46577C13.1752 3.96007 11.7295 3.86781 10.3526 4.20119C8.97566 4.53457 7.7323 5.27789 6.78682 6.33293L8.27582 7.66693C8.9511 6.91321 9.83919 6.38213 10.8227 6.1439C11.8063 5.90566 12.8389 5.97147 13.7843 6.33263C14.7296 6.6938 15.5431 7.33331 16.1172 8.16666C16.6914 9.00001 16.9991 9.98795 16.9998 10.9999C17.0367 12.9467 16.882 14.8924 16.5378 16.8089L18.5008 17.1909C18.871 15.1488 19.0381 13.075 18.9998 10.9999V10.9999ZM6.99982 10.9999C6.99953 10.7208 7.02261 10.4422 7.06882 10.1669L5.09982 9.83293C5.0338 10.2184 5.00035 10.6088 4.99982 10.9999C4.99982 15.6449 3.65382 17.9999 0.999817 17.9999V19.9999C4.86882 19.9999 6.99982 16.7999 6.99982 10.9999ZM22.9998 10.9999C23.0044 9.33885 22.6281 7.69883 21.8998 6.20593L20.0998 7.08093C20.6949 8.3015 21.0027 9.64204 20.9998 10.9999C21.1367 15.0932 20.3599 19.1655 18.7258 22.9209L20.5258 23.7819C22.2949 19.7595 23.1403 15.3919 22.9998 10.9999V10.9999ZM2.99982 10.9999C3.00246 8.61379 3.95153 6.32615 5.63878 4.63889C7.32603 2.95164 9.61368 2.00258 11.9998 1.99993C13.9482 1.99344 15.845 2.62571 17.3998 3.79993L18.5998 2.19993C16.6992 0.765351 14.3811 -0.00735687 11.9998 -7.10158e-05C9.08349 0.00336946 6.2876 1.1634 4.22544 3.22555C2.16329 5.28771 1.00326 8.0836 0.999817 10.9999V13.9999H2.99982V10.9999Z" fill="#374957"/>
</g>
<defs>
<clipPath id="clip0_403_3389">
<rect width="24" height="24" fill="white"/>
</clipPath>
</defs>
</svg>
