<svg width="32" height="32" viewBox="0 0 32 32" fill="none" xmlns="http://www.w3.org/2000/svg">
<g clip-path="url(#clip0_403_3617)" filter="url(#filter0_d_403_3617)">
<path d="M22.535 18.6658L23.949 20.0798L20.749 23.2798C20.2851 23.7421 19.6569 24.0017 19.002 24.0017C18.3471 24.0017 17.7189 23.7421 17.255 23.2798L14.055 20.0798L15.469 18.6658L18 21.1998V12.9998H20V21.1998L22.535 18.6658ZM21.79 7.20884C21.3438 5.2998 20.2122 3.62106 18.6099 2.49134C17.0077 1.36162 15.0463 0.859577 13.0983 1.08053C11.1503 1.30148 9.35129 2.23005 8.04276 3.68993C6.73422 5.14981 6.00731 7.03936 6.00002 8.99984C5.99904 10.2782 6.30785 11.5378 6.90002 12.6708C5.82115 13.249 4.96642 14.1711 4.47164 15.2906C3.97686 16.4102 3.87041 17.663 4.16919 18.85C4.46798 20.037 5.15487 21.0901 6.12073 21.8419C7.08658 22.5938 8.27601 23.0014 9.50002 22.9998H14.142L12.142 20.9998H9.50002C8.64845 21.0024 7.82531 20.6936 7.18554 20.1315C6.54577 19.5695 6.1335 18.793 6.02634 17.9482C5.91917 17.1034 6.12449 16.2485 6.60366 15.5445C7.08282 14.8406 7.80278 14.336 8.62802 14.1258L10.065 13.7548L9.18202 12.5628C8.41316 11.5342 7.99843 10.2841 8.00002 8.99984C8.01309 7.48698 8.5972 6.03491 9.63537 4.93442C10.6735 3.83392 12.0891 3.16624 13.5987 3.06509C15.1082 2.96394 16.6002 3.43679 17.7759 4.38894C18.9516 5.34109 19.7242 6.70225 19.939 8.19983L20.039 8.95784L20.798 9.05783C21.805 9.1914 22.7615 9.57894 23.5774 10.184C24.3934 10.7891 25.042 11.5918 25.4622 12.5166C25.8825 13.4414 26.0605 14.4579 25.9797 15.4705C25.8988 16.4831 25.5617 17.4584 25 18.3048L26.43 19.7348C27.2195 18.6693 27.7309 17.4238 27.9179 16.1109C28.1049 14.7981 27.9616 13.4593 27.5009 12.2157C27.0403 10.9722 26.2768 9.86314 25.2797 8.9889C24.2825 8.11467 23.0831 7.50286 21.79 7.20884Z" fill="#374957"/>
</g>
<defs>
<filter id="filter0_d_403_3617" x="0" y="0" width="32" height="32" filterUnits="userSpaceOnUse" color-interpolation-filters="sRGB">
<feFlood flood-opacity="0" result="BackgroundImageFix"/>
<feColorMatrix in="SourceAlpha" type="matrix" values="0 0 0 0 0 0 0 0 0 0 0 0 0 0 0 0 0 0 127 0" result="hardAlpha"/>
<feOffset dy="4"/>
<feGaussianBlur stdDeviation="2"/>
<feComposite in2="hardAlpha" operator="out"/>
<feColorMatrix type="matrix" values="0 0 0 0 0 0 0 0 0 0 0 0 0 0 0 0 0 0 0.25 0"/>
<feBlend mode="normal" in2="BackgroundImageFix" result="effect1_dropShadow_403_3617"/>
<feBlend mode="normal" in="SourceGraphic" in2="effect1_dropShadow_403_3617" result="shape"/>
</filter>
<clipPath id="clip0_403_3617">
<rect width="24" height="24" fill="white" transform="translate(4)"/>
</clipPath>
</defs>
</svg>
