<svg width="32" height="32" viewBox="0 0 32 32" fill="none" xmlns="http://www.w3.org/2000/svg">
<g clip-path="url(#clip0_403_3564)" filter="url(#filter0_d_403_3564)">
<path d="M13 0H7C6.20435 0 5.44129 0.31607 4.87868 0.87868C4.31607 1.44129 4 2.20435 4 3V9H9V11H7V13H13V11H11V9H16V3C16 2.20435 15.6839 1.44129 15.1213 0.87868C14.5587 0.31607 13.7956 0 13 0V0ZM14 7H6V3C6 2.73478 6.10536 2.48043 6.29289 2.29289C6.48043 2.10536 6.73478 2 7 2H13C13.2652 2 13.5196 2.10536 13.7071 2.29289C13.8946 2.48043 14 2.73478 14 3V7ZM25 11H21C20.2044 11 19.4413 11.3161 18.8787 11.8787C18.3161 12.4413 18 13.2044 18 14V24H28V14C28 13.2044 27.6839 12.4413 27.1213 11.8787C26.5587 11.3161 25.7956 11 25 11V11ZM26 22H20V14C20 13.7348 20.1054 13.4804 20.2929 13.2929C20.4804 13.1054 20.7348 13 21 13H25C25.2652 13 25.5196 13.1054 25.7071 13.2929C25.8946 13.4804 26 13.7348 26 14V22ZM21 5H18V3H21C21.7956 3 22.5587 3.31607 23.1213 3.87868C23.6839 4.44129 24 5.20435 24 6V9H22V6C22 5.73478 21.8946 5.48043 21.7071 5.29289C21.5196 5.10536 21.2652 5 21 5ZM12 19H16V21H12C11.2044 21 10.4413 20.6839 9.87868 20.1213C9.31607 19.5587 9 18.7956 9 18V15H11V18C11 18.2652 11.1054 18.5196 11.2929 18.7071C11.4804 18.8946 11.7348 19 12 19ZM24 20C24 20.1978 23.9414 20.3911 23.8315 20.5556C23.7216 20.72 23.5654 20.8482 23.3827 20.9239C23.2 20.9996 22.9989 21.0194 22.8049 20.9808C22.6109 20.9422 22.4327 20.847 22.2929 20.7071C22.153 20.5673 22.0578 20.3891 22.0192 20.1951C21.9806 20.0011 22.0004 19.8 22.0761 19.6173C22.1518 19.4346 22.28 19.2784 22.4444 19.1685C22.6089 19.0586 22.8022 19 23 19C23.2652 19 23.5196 19.1054 23.7071 19.2929C23.8946 19.4804 24 19.7348 24 20Z" fill="#374957"/>
</g>
<defs>
<filter id="filter0_d_403_3564" x="0" y="0" width="32" height="32" filterUnits="userSpaceOnUse" color-interpolation-filters="sRGB">
<feFlood flood-opacity="0" result="BackgroundImageFix"/>
<feColorMatrix in="SourceAlpha" type="matrix" values="0 0 0 0 0 0 0 0 0 0 0 0 0 0 0 0 0 0 127 0" result="hardAlpha"/>
<feOffset dy="4"/>
<feGaussianBlur stdDeviation="2"/>
<feComposite in2="hardAlpha" operator="out"/>
<feColorMatrix type="matrix" values="0 0 0 0 0 0 0 0 0 0 0 0 0 0 0 0 0 0 0.25 0"/>
<feBlend mode="normal" in2="BackgroundImageFix" result="effect1_dropShadow_403_3564"/>
<feBlend mode="normal" in="SourceGraphic" in2="effect1_dropShadow_403_3564" result="shape"/>
</filter>
<clipPath id="clip0_403_3564">
<rect width="24" height="24" fill="white" transform="translate(4)"/>
</clipPath>
</defs>
</svg>
