<svg width="28" height="32" viewBox="0 0 28 32" fill="none" xmlns="http://www.w3.org/2000/svg">
<g filter="url(#filter0_d_403_3431)">
<path d="M10.0331 12.5526L12.5861 9.99964L10.0331 7.44664L11.4471 6.03264L14.0001 8.58564L16.5531 6.03264L17.9671 7.44664L15.4141 9.99964L17.9671 12.5526L16.5531 13.9666L14.0001 11.4136L11.4471 13.9666L10.0331 12.5526ZM6.93305 17.0786C6.00395 16.1503 5.26679 15.0481 4.76366 13.8349C4.26053 12.6217 4.00129 11.3213 4.00073 10.0079C4.00018 8.69449 4.25832 7.39385 4.76041 6.18022C5.26251 4.96659 5.99874 3.86374 6.92705 2.93464C7.85537 2.00554 8.95759 1.26838 10.1708 0.765249C11.384 0.262121 12.6844 0.00287738 13.9978 0.00232024C15.3112 0.00176309 16.6118 0.259903 17.8255 0.762002C19.0391 1.2641 20.1419 2.00032 21.0711 2.92864C22.9464 4.804 23.9999 7.34751 23.9999 9.99964C23.9999 12.6518 22.9464 15.1953 21.0711 17.0706L14.0001 23.9866L6.93305 17.0786ZM6.00005 9.99964C5.99716 11.0506 6.20276 12.0918 6.60493 13.0628C7.00711 14.0338 7.59788 14.9155 8.34305 15.6566L14.0001 21.1886L19.6651 15.6486C20.5936 14.7174 21.2783 13.5716 21.6585 12.3126C22.0387 11.0536 22.1026 9.72038 21.8447 8.43081C21.5867 7.14125 21.0148 5.93517 20.1796 4.91932C19.3444 3.90346 18.2717 3.10918 17.0563 2.60676C15.841 2.10434 14.5205 1.90929 13.2118 2.03887C11.9031 2.16845 10.6465 2.61866 9.55328 3.34966C8.46005 4.08066 7.56389 5.06989 6.94413 6.2298C6.32436 7.38972 6.0001 8.68453 6.00005 9.99964V9.99964Z" fill="#374957"/>
</g>
<defs>
<filter id="filter0_d_403_3431" x="-2" y="0" width="32" height="32" filterUnits="userSpaceOnUse" color-interpolation-filters="sRGB">
<feFlood flood-opacity="0" result="BackgroundImageFix"/>
<feColorMatrix in="SourceAlpha" type="matrix" values="0 0 0 0 0 0 0 0 0 0 0 0 0 0 0 0 0 0 127 0" result="hardAlpha"/>
<feOffset dy="4"/>
<feGaussianBlur stdDeviation="2"/>
<feComposite in2="hardAlpha" operator="out"/>
<feColorMatrix type="matrix" values="0 0 0 0 0 0 0 0 0 0 0 0 0 0 0 0 0 0 0.25 0"/>
<feBlend mode="normal" in2="BackgroundImageFix" result="effect1_dropShadow_403_3431"/>
<feBlend mode="normal" in="SourceGraphic" in2="effect1_dropShadow_403_3431" result="shape"/>
</filter>
</defs>
</svg>
