<svg width="24" height="27" viewBox="0 0 24 27" fill="none" xmlns="http://www.w3.org/2000/svg">
<g filter="url(#filter0_d_403_3533)">
<path d="M19.0996 10.586L13.8106 5.29297L12.3996 6.70697L17.6886 12L12.3996 17.293L13.8146 18.707L19.0996 13.414C19.4745 13.0389 19.6852 12.5303 19.6852 12C19.6852 11.4696 19.4745 10.961 19.0996 10.586V10.586Z" fill="#374957"/>
<path d="M12.8108 11.293L6.81078 5.29297L5.39978 6.70697L10.6888 12L5.39978 17.293L6.81478 18.707L12.8148 12.707C13.0017 12.5189 13.1063 12.2643 13.1056 11.9991C13.1048 11.734 12.9988 11.48 12.8108 11.293V11.293Z" fill="#374957"/>
</g>
<defs>
<filter id="filter0_d_403_3533" x="-4" y="0" width="32" height="32" filterUnits="userSpaceOnUse" color-interpolation-filters="sRGB">
<feFlood flood-opacity="0" result="BackgroundImageFix"/>
<feColorMatrix in="SourceAlpha" type="matrix" values="0 0 0 0 0 0 0 0 0 0 0 0 0 0 0 0 0 0 127 0" result="hardAlpha"/>
<feOffset dy="4"/>
<feGaussianBlur stdDeviation="2"/>
<feComposite in2="hardAlpha" operator="out"/>
<feColorMatrix type="matrix" values="0 0 0 0 0 0 0 0 0 0 0 0 0 0 0 0 0 0 0.25 0"/>
<feBlend mode="normal" in2="BackgroundImageFix" result="effect1_dropShadow_403_3533"/>
<feBlend mode="normal" in="SourceGraphic" in2="effect1_dropShadow_403_3533" result="shape"/>
</filter>
</defs>
</svg>
