<svg width="32" height="32" viewBox="0 0 32 32" fill="none" xmlns="http://www.w3.org/2000/svg">
<g clip-path="url(#clip0_403_3749)" filter="url(#filter0_d_403_3749)">
<path d="M16 0C13.6266 0 11.3066 0.703788 9.33316 2.02236C7.35977 3.34094 5.8217 5.21509 4.91345 7.4078C4.0052 9.60051 3.76756 12.0133 4.23058 14.3411C4.6936 16.6689 5.83649 18.8071 7.51472 20.4853C9.19295 22.1635 11.3312 23.3064 13.6589 23.7694C15.9867 24.2324 18.3995 23.9948 20.5922 23.0866C22.7849 22.1783 24.6591 20.6402 25.9776 18.6668C27.2962 16.6935 28 14.3734 28 12C27.9966 8.81846 26.7312 5.76821 24.4815 3.51852C22.2318 1.26883 19.1815 0.00344108 16 0V0ZM21.812 15.485L23.578 14.958L23.006 13.042L21.173 13.588C21.0625 13.0658 21.0045 12.5338 21 12C21.0045 11.4662 21.0624 10.9342 21.173 10.412L23.006 10.958L23.578 9.042L21.812 8.515C22.3047 7.49446 23.0094 6.5907 23.879 5.864C25.2531 7.61413 26 9.77487 26 12C26 14.2251 25.2531 16.3859 23.879 18.136C23.0094 17.4093 22.3047 16.5055 21.812 15.485V15.485ZM8.12101 5.864C8.9906 6.5907 9.69527 7.49446 10.188 8.515L8.42201 9.042L8.99401 10.958L10.827 10.412C10.9376 10.9342 10.9956 11.4662 11 12C10.9955 12.5338 10.9375 13.0658 10.827 13.588L8.99401 13.042L8.42201 14.958L10.188 15.485C9.69527 16.5055 8.9906 17.4093 8.12101 18.136C6.74687 16.3859 5.99997 14.2251 5.99997 12C5.99997 9.77487 6.74687 7.61413 8.12101 5.864V5.864ZM9.50701 19.59C10.6298 18.6226 11.5228 17.417 12.121 16.061L14.172 16.673L14.744 14.756L12.751 14.156C12.9118 13.4485 12.9953 12.7256 13 12C12.9957 11.2728 12.9122 10.5482 12.751 9.839L14.744 9.239L14.172 7.322L12.121 7.934C11.5221 6.57982 10.6292 5.37601 9.50701 4.41C11.313 2.85522 13.6169 2.0001 16 2.0001C18.3831 2.0001 20.687 2.85522 22.493 4.41C21.3702 5.37744 20.4772 6.58301 19.879 7.939L17.828 7.327L17.256 9.244L19.249 9.844C18.9169 11.2655 18.9169 12.7445 19.249 14.166L17.256 14.766L17.828 16.683L19.879 16.071C20.4772 17.427 21.3702 18.6326 22.493 19.6C20.687 21.1548 18.3831 22.0099 16 22.0099C13.6169 22.0099 11.313 21.1548 9.50701 19.6V19.59Z" fill="#374957"/>
</g>
<defs>
<filter id="filter0_d_403_3749" x="0" y="0" width="32" height="32" filterUnits="userSpaceOnUse" color-interpolation-filters="sRGB">
<feFlood flood-opacity="0" result="BackgroundImageFix"/>
<feColorMatrix in="SourceAlpha" type="matrix" values="0 0 0 0 0 0 0 0 0 0 0 0 0 0 0 0 0 0 127 0" result="hardAlpha"/>
<feOffset dy="4"/>
<feGaussianBlur stdDeviation="2"/>
<feComposite in2="hardAlpha" operator="out"/>
<feColorMatrix type="matrix" values="0 0 0 0 0 0 0 0 0 0 0 0 0 0 0 0 0 0 0.25 0"/>
<feBlend mode="normal" in2="BackgroundImageFix" result="effect1_dropShadow_403_3749"/>
<feBlend mode="normal" in="SourceGraphic" in2="effect1_dropShadow_403_3749" result="shape"/>
</filter>
<clipPath id="clip0_403_3749">
<rect width="24" height="24" fill="white" transform="translate(4)"/>
</clipPath>
</defs>
</svg>
