<svg width="32" height="29" viewBox="0 0 32 29" fill="none" xmlns="http://www.w3.org/2000/svg">
<g clip-path="url(#clip0_403_3461)" filter="url(#filter0_d_403_3461)">
<path d="M28 4.00024H4V6.00024H28V4.00024Z" fill="#374957"/>
<path d="M28.0002 9H12.0002V11H28.0002V9Z" fill="#374957"/>
<path d="M28 19.0002H4V21.0003H28V19.0002Z" fill="#374957"/>
<path d="M28.0002 14.0005H12.0002V16.0005H28.0002V14.0005Z" fill="#374957"/>
<path d="M4 8.00049V16.9675L8.17 13.2285C8.27459 13.1347 8.35824 13.0199 8.41551 12.8917C8.47278 12.7634 8.50238 12.6245 8.50238 12.484C8.50238 12.3435 8.47278 12.2046 8.41551 12.0763C8.35824 11.948 8.27459 11.8333 8.17 11.7395L4 8.00049Z" fill="#374957"/>
</g>
<defs>
<filter id="filter0_d_403_3461" x="0" y="0" width="32" height="32" filterUnits="userSpaceOnUse" color-interpolation-filters="sRGB">
<feFlood flood-opacity="0" result="BackgroundImageFix"/>
<feColorMatrix in="SourceAlpha" type="matrix" values="0 0 0 0 0 0 0 0 0 0 0 0 0 0 0 0 0 0 127 0" result="hardAlpha"/>
<feOffset dy="4"/>
<feGaussianBlur stdDeviation="2"/>
<feComposite in2="hardAlpha" operator="out"/>
<feColorMatrix type="matrix" values="0 0 0 0 0 0 0 0 0 0 0 0 0 0 0 0 0 0 0.25 0"/>
<feBlend mode="normal" in2="BackgroundImageFix" result="effect1_dropShadow_403_3461"/>
<feBlend mode="normal" in="SourceGraphic" in2="effect1_dropShadow_403_3461" result="shape"/>
</filter>
<clipPath id="clip0_403_3461">
<rect width="24" height="24" fill="white" transform="translate(4)"/>
</clipPath>
</defs>
</svg>
