<svg width="24" height="24" viewBox="0 0 24 24" fill="none" xmlns="http://www.w3.org/2000/svg">
<g clip-path="url(#clip0_403_3734)">
<path d="M21 0H3C2.20435 0 1.44129 0.31607 0.87868 0.87868C0.31607 1.44129 0 2.20435 0 3L0 12C0.00158786 13.3256 0.528882 14.5964 1.46622 15.5338C2.40356 16.4711 3.6744 16.9984 5 17H9V24H15V17H19C20.3256 16.9984 21.5964 16.4711 22.5338 15.5338C23.4711 14.5964 23.9984 13.3256 24 12V3C24 2.20435 23.6839 1.44129 23.1213 0.87868C22.5587 0.31607 21.7956 0 21 0V0ZM3 2H10V4H12V2H14V6H16V2H18V8H20V2H21C21.2652 2 21.5196 2.10536 21.7071 2.29289C21.8946 2.48043 22 2.73478 22 3V10H2V3C2 2.73478 2.10536 2.48043 2.29289 2.29289C2.48043 2.10536 2.73478 2 3 2V2ZM19 15H13V22H11V15H5C4.20435 15 3.44129 14.6839 2.87868 14.1213C2.31607 13.5587 2 12.7956 2 12H22C22 12.7956 21.6839 13.5587 21.1213 14.1213C20.5587 14.6839 19.7956 15 19 15Z" fill="#374957"/>
</g>
<defs>
<clipPath id="clip0_403_3734">
<rect width="24" height="24" fill="white"/>
</clipPath>
</defs>
</svg>
