<svg width="24" height="24" viewBox="0 0 24 24" fill="none" xmlns="http://www.w3.org/2000/svg">
<g clip-path="url(#clip0_403_3576)">
<path d="M18 0H6C5.20435 0 4.44129 0.31607 3.87868 0.87868C3.31607 1.44129 3 2.20435 3 3V24H21V3C21 2.20435 20.6839 1.44129 20.1213 0.87868C19.5587 0.31607 18.7956 0 18 0V0ZM19 22H13V20H11V22H5V3C5 2.73478 5.10536 2.48043 5.29289 2.29289C5.48043 2.10536 5.73478 2 6 2H18C18.2652 2 18.5196 2.10536 18.7071 2.29289C18.8946 2.48043 19 2.73478 19 3V22ZM11 11H13V12H15V10.293C15.0012 9.29869 14.7894 8.31565 14.379 7.41L13.857 6.258C13.7104 5.88946 13.4576 5.57282 13.1306 5.34833C12.8037 5.12384 12.4173 5.00163 12.0207 4.99723C11.6242 4.99284 11.2352 5.10646 10.9034 5.32365C10.5715 5.54084 10.3117 5.8518 10.157 6.217L9.621 7.411C9.21046 8.31626 8.99871 9.299 9 10.293V12H11V11ZM12.018 7.041L12.556 8.233C12.6611 8.48135 12.7457 8.73787 12.809 9H11.191C11.2538 8.73818 11.3381 8.48198 11.443 8.234L12.018 7.041ZM8 14H16V16H8V14Z" fill="#374957"/>
</g>
<defs>
<clipPath id="clip0_403_3576">
<rect width="24" height="24" fill="white"/>
</clipPath>
</defs>
</svg>
