<svg width="24" height="24" viewBox="0 0 24 24" fill="none" xmlns="http://www.w3.org/2000/svg">
<g clip-path="url(#clip0_403_3336)">
<path d="M7 13H0.009V11H5.077C5.15679 10.441 5.3049 9.89391 5.518 9.371L1.143 6.822L2.148 5.094L6.528 7.645C6.86516 7.22094 7.24965 6.83679 7.674 6.5L5.131 2.127L6.858 1.121L9.4 5.5C9.91413 5.29293 10.4513 5.14855 11 5.07V0H13V5.071C13.5525 5.1508 14.0934 5.29685 14.611 5.506L17.159 1.121L18.886 2.127L16.337 6.512C16.7593 6.84726 17.1417 7.22975 17.477 7.652L21.868 5.094L22.873 6.822L18.485 9.379C18.6962 9.89957 18.8433 10.4439 18.923 11H23.991V13H17V12C16.785 5.39 7.213 5.4 7 12V13ZM20.989 22C20.4586 22 19.9499 21.7893 19.5748 21.4142C19.1997 21.0391 18.989 20.5304 18.989 20H17C17 20.5304 16.7893 21.0391 16.4142 21.4142C16.0391 21.7893 15.5304 22 15 22C14.4696 22 13.9609 21.7893 13.5858 21.4142C13.2107 21.0391 13 20.5304 13 20H11C11 20.5304 10.7893 21.0391 10.4142 21.4142C10.0391 21.7893 9.53043 22 9 22C8.46957 22 7.96086 21.7893 7.58579 21.4142C7.21071 21.0391 7 20.5304 7 20H5C4.99475 20.4039 4.86778 20.7967 4.63567 21.1273C4.40357 21.4578 4.07714 21.7106 3.69905 21.8527C3.32096 21.9947 2.90881 22.0194 2.51648 21.9235C2.12414 21.8276 1.76988 21.6155 1.5 21.315L0 22.632C0.376702 23.0557 0.838696 23.3951 1.35571 23.6278C1.87271 23.8605 2.43307 23.9814 3.00004 23.9824C3.56701 23.9834 4.1278 23.8647 4.64566 23.6338C5.16351 23.403 5.62675 23.0654 6.005 22.643C6.38322 23.064 6.84579 23.4006 7.36265 23.6311C7.87951 23.8615 8.43909 23.9806 9.005 23.9806C9.57091 23.9806 10.1305 23.8615 10.6473 23.6311C11.1642 23.4006 11.6268 23.064 12.005 22.643C12.3832 23.064 12.8458 23.4006 13.3627 23.6311C13.8795 23.8615 14.4391 23.9806 15.005 23.9806C15.5709 23.9806 16.1305 23.8615 16.6473 23.6311C17.1642 23.4006 17.6268 23.064 18.005 22.643C18.3832 23.0646 18.8462 23.4016 19.3636 23.6319C19.8811 23.8623 20.4413 23.9807 21.0077 23.9796C21.5741 23.9785 22.1338 23.8578 22.6503 23.6254C23.1669 23.393 23.6285 23.0541 24.005 22.631L22.499 21.316C22.3117 21.5313 22.0803 21.7039 21.8204 21.8219C21.5606 21.9399 21.2784 22.0006 20.993 22H20.989ZM3.007 19C3.57483 19.0004 4.13619 18.8795 4.65354 18.6455C5.1709 18.4115 5.63234 18.0697 6.007 17.643C6.38522 18.064 6.84779 18.4006 7.36465 18.6311C7.88151 18.8615 8.44109 18.9806 9.007 18.9806C9.57291 18.9806 10.1325 18.8615 10.6493 18.6311C11.1662 18.4006 11.6288 18.064 12.007 17.643C12.3852 18.064 12.8478 18.4006 13.3647 18.6311C13.8815 18.8615 14.4411 18.9806 15.007 18.9806C15.5729 18.9806 16.1325 18.8615 16.6493 18.6311C17.1662 18.4006 17.6288 18.064 18.007 17.643C18.3852 18.0646 18.8482 18.4016 19.3656 18.6319C19.8831 18.8623 20.4433 18.9807 21.0097 18.9796C21.5761 18.9785 22.1358 18.8578 22.6523 18.6254C23.1689 18.393 23.6305 18.0541 24.007 17.631L22.501 16.316C22.2311 16.6169 21.8767 16.8293 21.4841 16.9254C21.0915 17.0216 20.679 16.9969 20.3007 16.8547C19.9223 16.7124 19.5957 16.4593 19.3637 16.1284C19.1316 15.7975 19.0048 15.4042 19 15H17C17 15.5304 16.7893 16.0391 16.4142 16.4142C16.0391 16.7893 15.5304 17 15 17C14.4696 17 13.9609 16.7893 13.5858 16.4142C13.2107 16.0391 13 15.5304 13 15H11C11 15.5304 10.7893 16.0391 10.4142 16.4142C10.0391 16.7893 9.53043 17 9 17C8.46957 17 7.96086 16.7893 7.58579 16.4142C7.21071 16.0391 7 15.5304 7 15H5C4.99475 15.4039 4.86778 15.7967 4.63567 16.1273C4.40357 16.4578 4.07714 16.7106 3.69905 16.8527C3.32096 16.9947 2.90881 17.0194 2.51648 16.9235C2.12414 16.8276 1.76988 16.6155 1.5 16.315L0 17.632C0.37459 18.0614 0.836738 18.4056 1.35539 18.6416C1.87405 18.8775 2.4372 18.9997 3.007 19V19Z" fill="#374957"/>
</g>
<defs>
<clipPath id="clip0_403_3336">
<rect width="24" height="24" fill="white"/>
</clipPath>
</defs>
</svg>
