<svg width="32" height="32" viewBox="0 0 32 32" fill="none" xmlns="http://www.w3.org/2000/svg">
<g clip-path="url(#clip0_403_3292)" filter="url(#filter0_d_403_3292)">
<path d="M12 13H4V11H12V13ZM24.915 11.106C25.4116 10.4809 25.7512 9.74603 25.9056 8.96279C26.06 8.17954 26.0246 7.37072 25.8023 6.60397C25.5801 5.83721 25.1775 5.13482 24.6282 4.55553C24.0789 3.97624 23.3989 3.5369 22.645 3.27425C21.8912 3.0116 21.0854 2.93328 20.295 3.04584C19.5047 3.1584 18.7528 3.45857 18.1022 3.92123C17.4517 4.3839 16.9213 4.99562 16.5556 5.70522C16.1899 6.41483 15.9993 7.20169 16 8V9H18V8C18 7.40666 18.1759 6.82664 18.5056 6.33329C18.8352 5.83994 19.3038 5.45543 19.852 5.22836C20.4001 5.0013 21.0033 4.94189 21.5853 5.05764C22.1672 5.1734 22.7018 5.45912 23.1213 5.87868C23.5409 6.29824 23.8266 6.83279 23.9424 7.41473C24.0581 7.99667 23.9987 8.59987 23.7716 9.14805C23.5446 9.69623 23.1601 10.1648 22.6667 10.4944C22.1734 10.8241 21.5933 11 21 11H14V13H24C24.3956 13 24.7822 13.1173 25.1111 13.3371C25.44 13.5568 25.6964 13.8692 25.8478 14.2346C25.9991 14.6001 26.0387 15.0022 25.9616 15.3902C25.8844 15.7781 25.6939 16.1345 25.4142 16.4142C25.1345 16.6939 24.7781 16.8844 24.3902 16.9616C24.0022 17.0387 23.6001 16.9991 23.2346 16.8478C22.8692 16.6964 22.5568 16.44 22.3371 16.1111C22.1173 15.7822 22 15.3956 22 15H20C20 15.7519 20.2119 16.4885 20.6114 17.1254C21.0109 17.7623 21.5819 18.2738 22.2587 18.6011C22.9356 18.9284 23.691 19.0582 24.4384 18.9758C25.1857 18.8935 25.8947 18.6021 26.484 18.1352C27.0733 17.6683 27.5191 17.0448 27.7702 16.3361C28.0214 15.6275 28.0677 14.8624 27.9039 14.1286C27.7401 13.3948 27.3729 12.722 26.8442 12.1874C26.3155 11.6528 25.6469 11.278 24.915 11.106V11.106ZM15 16H4V18H15C15.3956 18 15.7822 18.1173 16.1111 18.3371C16.44 18.5568 16.6964 18.8692 16.8478 19.2346C16.9991 19.6001 17.0387 20.0022 16.9616 20.3902C16.8844 20.7781 16.6939 21.1345 16.4142 21.4142C16.1345 21.6939 15.7781 21.8844 15.3902 21.9616C15.0022 22.0387 14.6001 21.9991 14.2346 21.8478C13.8692 21.6964 13.5568 21.44 13.3371 21.1111C13.1173 20.7822 13 20.3956 13 20H11C11 20.7911 11.2346 21.5645 11.6741 22.2223C12.1136 22.8801 12.7384 23.3928 13.4693 23.6955C14.2002 23.9983 15.0044 24.0775 15.7804 23.9231C16.5563 23.7688 17.269 23.3878 17.8284 22.8284C18.3878 22.269 18.7688 21.5563 18.9231 20.7804C19.0775 20.0044 18.9983 19.2002 18.6955 18.4693C18.3928 17.7384 17.8801 17.1136 17.2223 16.6741C16.5645 16.2346 15.7911 16 15 16ZM15 4C15 2.93913 14.5786 1.92172 13.8284 1.17157C13.0783 0.421427 12.0609 0 11 0C9.93913 0 8.92172 0.421427 8.17157 1.17157C7.42143 1.92172 7 2.93913 7 4H9C9 3.60444 9.1173 3.21776 9.33706 2.88886C9.55682 2.55996 9.86918 2.30362 10.2346 2.15224C10.6001 2.00087 11.0022 1.96126 11.3902 2.03843C11.7781 2.1156 12.1345 2.30608 12.4142 2.58579C12.6939 2.86549 12.8844 3.22186 12.9616 3.60982C13.0387 3.99778 12.9991 4.39992 12.8478 4.76537C12.6964 5.13082 12.44 5.44318 12.1111 5.66294C11.7822 5.8827 11.3956 6 11 6H4V8H11C12.0609 8 13.0783 7.57857 13.8284 6.82843C14.5786 6.07828 15 5.06087 15 4Z" fill="#374957"/>
</g>
<defs>
<filter id="filter0_d_403_3292" x="0" y="0" width="32" height="32" filterUnits="userSpaceOnUse" color-interpolation-filters="sRGB">
<feFlood flood-opacity="0" result="BackgroundImageFix"/>
<feColorMatrix in="SourceAlpha" type="matrix" values="0 0 0 0 0 0 0 0 0 0 0 0 0 0 0 0 0 0 127 0" result="hardAlpha"/>
<feOffset dy="4"/>
<feGaussianBlur stdDeviation="2"/>
<feComposite in2="hardAlpha" operator="out"/>
<feColorMatrix type="matrix" values="0 0 0 0 0 0 0 0 0 0 0 0 0 0 0 0 0 0 0.25 0"/>
<feBlend mode="normal" in2="BackgroundImageFix" result="effect1_dropShadow_403_3292"/>
<feBlend mode="normal" in="SourceGraphic" in2="effect1_dropShadow_403_3292" result="shape"/>
</filter>
<clipPath id="clip0_403_3292">
<rect width="24" height="24" fill="white" transform="translate(4)"/>
</clipPath>
</defs>
</svg>
