<svg width="26" height="32" viewBox="0 0 26 32" fill="none" xmlns="http://www.w3.org/2000/svg">
<g clip-path="url(#clip0_403_3475)" filter="url(#filter0_d_403_3475)">
<path d="M19.7648 9.45713L4.9798 0.0181274V24.0181L19.7588 14.5451C20.189 14.2747 20.5437 13.8997 20.7897 13.4552C21.0357 13.0106 21.165 12.5109 21.1656 12.0028C21.1662 11.4947 21.0381 10.9947 20.7931 10.5495C20.5481 10.1044 20.1944 9.72853 19.7648 9.45713V9.45713ZM18.6848 12.8521L6.9848 20.3521V3.67613L18.6918 11.1501C18.8361 11.2404 18.955 11.366 19.0372 11.5151C19.1194 11.6642 19.1622 11.8318 19.1615 12.0021C19.1608 12.1723 19.1167 12.3396 19.0332 12.488C18.9498 12.6364 18.8299 12.761 18.6848 12.8501V12.8521Z" fill="#374957"/>
</g>
<defs>
<filter id="filter0_d_403_3475" x="-4" y="0" width="32" height="32" filterUnits="userSpaceOnUse" color-interpolation-filters="sRGB">
<feFlood flood-opacity="0" result="BackgroundImageFix"/>
<feColorMatrix in="SourceAlpha" type="matrix" values="0 0 0 0 0 0 0 0 0 0 0 0 0 0 0 0 0 0 127 0" result="hardAlpha"/>
<feOffset dy="4"/>
<feGaussianBlur stdDeviation="2"/>
<feComposite in2="hardAlpha" operator="out"/>
<feColorMatrix type="matrix" values="0 0 0 0 0 0 0 0 0 0 0 0 0 0 0 0 0 0 0.25 0"/>
<feBlend mode="normal" in2="BackgroundImageFix" result="effect1_dropShadow_403_3475"/>
<feBlend mode="normal" in="SourceGraphic" in2="effect1_dropShadow_403_3475" result="shape"/>
</filter>
<clipPath id="clip0_403_3475">
<rect width="24" height="24" fill="white"/>
</clipPath>
</defs>
</svg>
