<svg width="24" height="24" viewBox="0 0 24 24" fill="none" xmlns="http://www.w3.org/2000/svg">
<g clip-path="url(#clip0_403_3504)">
<path d="M13 14.0002H16V16.0002H13V19.0002H11V16.0002H8V14.0002H11V11.0002H13V14.0002ZM24 6.00024V23.0002H0V4.00024C0 3.20459 0.31607 2.44153 0.87868 1.87892C1.44129 1.31631 2.20435 1.00024 3 1.00024H8.236L12.236 3.00024H21C21.7956 3.00024 22.5587 3.31631 23.1213 3.87892C23.6839 4.44153 24 5.20459 24 6.00024ZM2 4.00024V7.00024H22V6.00024C22 5.73503 21.8946 5.48067 21.7071 5.29314C21.5196 5.1056 21.2652 5.00024 21 5.00024H11.764L7.764 3.00024H3C2.73478 3.00024 2.48043 3.1056 2.29289 3.29314C2.10536 3.48067 2 3.73503 2 4.00024ZM22 21.0002V9.00024H2V21.0002H22Z" fill="#374957"/>
</g>
<defs>
<clipPath id="clip0_403_3504">
<rect width="24" height="24" fill="white"/>
</clipPath>
</defs>
</svg>
