<svg width="24" height="24" viewBox="0 0 24 24" fill="none" xmlns="http://www.w3.org/2000/svg">
<g clip-path="url(#clip0_403_3668)">
<path d="M24.0002 11.9841C24.0003 10.9307 23.5848 9.9197 22.8439 9.17078C22.103 8.42186 21.0966 7.99544 20.0432 7.98411C19.1665 6.23793 17.7481 4.82239 16.0002 3.94911C15.9489 2.92414 15.5056 1.9581 14.762 1.25079C14.0185 0.543492 13.0315 0.149048 12.0052 0.149048C10.979 0.149048 9.99197 0.543492 9.24838 1.25079C8.50479 1.9581 8.06151 2.92414 8.01021 3.94911C6.25795 4.82168 4.83584 6.23888 3.95721 7.98811C2.90863 8.00247 1.90774 8.42855 1.17055 9.1744C0.433371 9.92025 0.019015 10.9261 0.0169148 11.9747C0.0148145 13.0234 0.425138 14.0309 1.15933 14.7797C1.89352 15.5285 2.89269 15.9586 3.94121 15.9771C4.8162 17.7414 6.24312 19.1718 8.00521 20.0511C8.05651 21.0761 8.49979 22.0421 9.24338 22.7494C9.98697 23.4567 10.974 23.8512 12.0002 23.8512C13.0265 23.8512 14.0135 23.4567 14.757 22.7494C15.5006 22.0421 15.9439 21.0761 15.9952 20.0511C17.7573 19.1718 19.1842 17.7414 20.0592 15.9771C21.1086 15.9616 22.1099 15.5343 22.8471 14.7874C23.5844 14.0404 23.9985 13.0336 24.0002 11.9841ZM12.0002 2.00011C12.3958 2.00011 12.7825 2.11741 13.1114 2.33717C13.4403 2.55693 13.6966 2.86929 13.848 3.23474C13.9993 3.6002 14.039 4.00233 13.9618 4.39029C13.8846 4.77825 13.6941 5.13462 13.4144 5.41432C13.1347 5.69403 12.7784 5.88451 12.3904 5.96168C12.0024 6.03885 11.6003 5.99924 11.2348 5.84787C10.8694 5.69649 10.557 5.44015 10.3373 5.11125C10.1175 4.78235 10.0002 4.39567 10.0002 4.00011C10.0002 3.46968 10.2109 2.96097 10.586 2.5859C10.9611 2.21082 11.4698 2.00011 12.0002 2.00011ZM2.00021 11.9841C2.00021 11.5885 2.11751 11.2019 2.33727 10.873C2.55704 10.5441 2.86939 10.2877 3.23484 10.1364C3.6003 9.98498 4.00243 9.94537 4.39039 10.0225C4.77835 10.0997 5.13472 10.2902 5.41443 10.5699C5.69413 10.8496 5.88461 11.206 5.96178 11.5939C6.03895 11.9819 5.99935 12.384 5.84797 12.7495C5.6966 13.1149 5.44025 13.4273 5.11135 13.647C4.78245 13.8668 4.39577 13.9841 4.00021 13.9841C3.46978 13.9841 2.96107 13.7734 2.586 13.3983C2.21093 13.0233 2.00021 12.5145 2.00021 11.9841ZM12.0002 22.0001C11.6046 22.0001 11.218 21.8828 10.8891 21.663C10.5602 21.4433 10.3038 21.1309 10.1525 20.7655C10.0011 20.4 9.96147 19.9979 10.0386 19.6099C10.1158 19.222 10.3063 18.8656 10.586 18.5859C10.8657 18.3062 11.2221 18.1157 11.61 18.0385C11.998 17.9614 12.4001 18.001 12.7656 18.1524C13.131 18.3037 13.4434 18.5601 13.6632 18.889C13.8829 19.2179 14.0002 19.6045 14.0002 20.0001C14.0002 20.5305 13.7895 21.0393 13.4144 21.4143C13.0394 21.7894 12.5306 22.0001 12.0002 22.0001ZM15.4782 18.0611C15.1367 17.4372 14.6336 16.9166 14.0216 16.554C13.4097 16.1913 12.7115 16 12.0002 16C11.2889 16 10.5907 16.1913 9.97878 16.554C9.36686 16.9166 8.86376 17.4372 8.52221 18.0611C7.44484 17.4378 6.55134 16.5409 5.93221 15.4611C6.55686 15.1208 7.07847 14.6187 7.44239 14.0075C7.80631 13.3962 7.99914 12.6984 8.00068 11.9871C8.00221 11.2757 7.81239 10.577 7.45111 9.96426C7.08983 9.35148 6.57039 8.84715 5.94721 8.50411C6.566 7.43697 7.45388 6.55082 8.52221 5.93411C8.86376 6.55805 9.36686 7.07862 9.97878 7.44125C10.5907 7.80389 11.2889 7.99523 12.0002 7.99523C12.7115 7.99523 13.4097 7.80389 14.0216 7.44125C14.6336 7.07862 15.1367 6.55805 15.4782 5.93411C16.5465 6.55082 17.4344 7.43697 18.0532 8.50411C17.43 8.84715 16.9106 9.35148 16.5493 9.96426C16.188 10.577 15.9982 11.2757 15.9997 11.9871C16.0013 12.6984 16.1941 13.3962 16.558 14.0075C16.922 14.6187 17.4436 15.1208 18.0682 15.4611C17.4491 16.5409 16.5556 17.4378 15.4782 18.0611ZM20.0002 13.9831C19.6047 13.9831 19.218 13.8658 18.8891 13.646C18.5602 13.4263 18.3038 13.1139 18.1525 12.7485C18.0011 12.383 17.9615 11.9809 18.0386 11.5929C18.1158 11.205 18.3063 10.8486 18.586 10.5689C18.8657 10.2892 19.2221 10.0987 19.61 10.0215C19.998 9.94437 20.4001 9.98398 20.7656 10.1354C21.131 10.2867 21.4434 10.5431 21.6632 10.872C21.8829 11.2009 22.0002 11.5875 22.0002 11.9831C22.0002 12.5135 21.7895 13.0223 21.4144 13.3973C21.0394 13.7724 20.5306 13.9831 20.0002 13.9831Z" fill="#374957"/>
</g>
<defs>
<clipPath id="clip0_403_3668">
<rect width="24" height="24" fill="white"/>
</clipPath>
</defs>
</svg>
