<svg width="24" height="24" viewBox="0 0 24 24" fill="none" xmlns="http://www.w3.org/2000/svg">
<g clip-path="url(#clip0_403_3581)">
<path d="M20.1222 13.293L18.7082 14.707L21.0002 17H20.6182C17.2342 17 15.0822 15.468 13.1722 13.492L12.8722 13.84C12.5442 14.22 12.2062 14.611 11.8542 15.004C14.0543 17.5514 17.2563 19.0122 20.6223 19.004H21.0002L18.7072 21.297L20.1212 22.711L23.4142 19.4179C24.195 18.637 24.195 17.371 23.4142 16.5899L20.1222 13.293Z" fill="#374957"/>
<path d="M20.619 6.99992H21L18.708 9.29291L20.122 10.7069L23.415 7.41388C24.1958 6.63289 24.1958 5.36689 23.415 4.58586L20.122 1.29285L18.708 2.70683L21 4.99996H20.618C15.661 4.99996 12.951 7.66996 10.492 10.478C8.06302 7.73493 5.14299 4.99996 -0.039978 4.99996V6.99997C4.42402 6.99997 6.83302 9.33599 9.16904 12C6.83302 14.6639 4.42402 17 -0.039978 17V19C5.76802 19 8.73601 15.564 11.36 12.534C13.814 9.68793 16.137 6.99992 20.619 6.99992Z" fill="#374957"/>
</g>
<defs>
<clipPath id="clip0_403_3581">
<rect width="24" height="24" fill="white"/>
</clipPath>
</defs>
</svg>
