<svg width="24" height="24" viewBox="0 0 24 24" fill="none" xmlns="http://www.w3.org/2000/svg">
<g clip-path="url(#clip0_403_3709)">
<path d="M22 6H18V8H20.586L17.186 11.4C16.2339 10.6841 15.1137 10.225 13.933 10.067C13.7746 8.887 13.3156 7.76752 12.6 6.816L16 3.416V6H18V2C18 1.46957 17.7893 0.960859 17.4142 0.585787C17.0391 0.210714 16.5304 0 16 0L12 0V2H14.586L11.186 5.4C10.3305 4.76013 9.33972 4.32478 8.28979 4.12736C7.23986 3.92994 6.15865 3.97571 5.12916 4.26115C4.09966 4.54658 3.14925 5.0641 2.35088 5.77398C1.5525 6.48386 0.927388 7.36722 0.523513 8.35627C0.119637 9.34532 -0.0522592 10.4138 0.0210166 11.4796C0.0942924 12.5454 0.410792 13.5802 0.946223 14.5047C1.48165 15.4292 2.22178 16.2187 3.1098 16.8126C3.99781 17.4066 5.0101 17.7891 6.06897 17.931C6.20686 18.9939 6.58698 20.0109 7.18002 20.9036C7.77306 21.7964 8.56319 22.5411 9.48948 23.0802C10.4158 23.6194 11.4535 23.9386 12.5227 24.0134C13.5919 24.0881 14.6639 23.9163 15.6562 23.5113C16.6485 23.1062 17.5345 22.4787 18.246 21.6772C18.9575 20.8756 19.4754 19.9213 19.7598 18.888C20.0442 17.8546 20.0876 16.7698 19.8865 15.717C19.6854 14.6643 19.2452 13.6718 18.6 12.816L22 9.416V12H24V8C24 7.46957 23.7893 6.96086 23.4142 6.58579C23.0391 6.21071 22.5304 6 22 6V6ZM1.99997 11C1.99997 10.0111 2.29322 9.0444 2.84262 8.22215C3.39203 7.3999 4.17292 6.75904 5.08655 6.3806C6.00018 6.00216 7.00552 5.90315 7.97542 6.09607C8.94533 6.289 9.83624 6.7652 10.5355 7.46447C11.2348 8.16373 11.711 9.05464 11.9039 10.0245C12.0968 10.9945 11.9978 11.9998 11.6194 12.9134C11.2409 13.827 10.6001 14.6079 9.77782 15.1573C8.95558 15.7068 7.98888 16 6.99997 16C5.67438 15.9984 4.40353 15.4711 3.46619 14.5338C2.52885 13.5964 2.00156 12.3256 1.99997 11V11ZM13 22C11.8326 21.9978 10.7028 21.5873 9.80644 20.8396C8.91002 20.0918 8.30349 19.054 8.09197 17.906C9.55018 17.6734 10.8976 16.9859 11.9417 15.9418C12.9859 14.8976 13.6733 13.5502 13.906 12.092C15.1323 12.317 16.2302 12.9925 16.9838 13.9857C17.7375 14.979 18.0924 16.2182 17.9789 17.4599C17.8653 18.7015 17.2915 19.8558 16.3703 20.6959C15.449 21.536 14.2468 22.0012 13 22V22Z" fill="#374957"/>
</g>
<defs>
<clipPath id="clip0_403_3709">
<rect width="24" height="24" fill="white"/>
</clipPath>
</defs>
</svg>
