<svg width="24" height="24" viewBox="0 0 24 24" fill="none" xmlns="http://www.w3.org/2000/svg">
<g clip-path="url(#clip0_403_3338)">
<path d="M14.0002 13C14.0018 13.3515 13.9107 13.6971 13.7362 14.0022C13.5617 14.3072 13.3098 14.5609 13.0061 14.7377C12.7023 14.9144 12.3573 15.008 12.0058 15.009C11.6544 15.01 11.3089 14.9184 11.0041 14.7434C10.6993 14.5683 10.4461 14.3161 10.2698 14.012C10.0936 13.7079 10.0006 13.3628 10.0002 13.0113C9.99979 12.6599 10.092 12.3145 10.2676 12.01C10.4431 11.7056 10.6958 11.4527 11.0002 11.277V6H13.0002V11.277C13.3033 11.4513 13.5552 11.7023 13.7308 12.0047C13.9063 12.3071 13.9992 12.6503 14.0002 13V13ZM20.0602 5.539C21.5172 7.10778 22.4847 9.06766 22.8441 11.1783C23.2035 13.2889 22.9391 15.4586 22.0834 17.4212C21.2277 19.3837 19.8178 21.0539 18.0268 22.2269C16.2357 23.3999 14.1412 24.0247 12.0002 24.0247C9.85915 24.0247 7.76467 23.3999 5.97358 22.2269C4.18249 21.0539 2.77264 19.3837 1.91693 17.4212C1.06123 15.4586 0.796857 13.2889 1.15625 11.1783C1.51563 9.06766 2.48316 7.10778 3.94017 5.539L2.96217 4.452L2.08217 5.332L0.668167 3.918L3.91817 0.668L5.33217 2.082L4.37817 3.036L5.42617 4.2C7.04838 2.97963 8.97857 2.23546 11.0002 2.051V0H13.0002V2.051C15.0218 2.23546 16.952 2.97963 18.5742 4.2L19.6222 3.035L18.7302 2.144L20.1452 0.73L23.3322 3.918L21.9182 5.332L21.0382 4.452L20.0602 5.539ZM21.0002 13C21.0002 11.22 20.4723 9.47991 19.4834 7.99987C18.4945 6.51983 17.0889 5.36627 15.4443 4.68508C13.7998 4.0039 11.9902 3.82567 10.2444 4.17293C8.49853 4.5202 6.89488 5.37737 5.63621 6.63604C4.37753 7.89471 3.52037 9.49836 3.1731 11.2442C2.82583 12.99 3.00406 14.7996 3.68525 16.4442C4.36644 18.0887 5.51999 19.4943 7.00004 20.4832C8.48008 21.4722 10.2201 22 12.0002 22C14.3863 21.9974 16.674 21.0483 18.3612 19.361C20.0485 17.6738 20.9975 15.3861 21.0002 13V13Z" fill="#374957"/>
</g>
<defs>
<clipPath id="clip0_403_3338">
<rect width="24" height="24" fill="white"/>
</clipPath>
</defs>
</svg>
