<svg width="24" height="24" viewBox="0 0 24 24" fill="none" xmlns="http://www.w3.org/2000/svg">
<g clip-path="url(#clip0_403_3468)">
<path d="M22.8491 7.67998L13.8491 0.636984C13.3211 0.223397 12.6698 -0.00134277 11.9991 -0.00134277C11.3284 -0.00134277 10.6771 0.223397 10.1491 0.636984L1.14908 7.67998C0.789872 7.96 0.499556 8.31856 0.300389 8.72816C0.101222 9.13776 -0.00150645 9.58753 7.91138e-05 10.043V24H24.0001V10.043C24.0014 9.58736 23.8984 9.13749 23.6989 8.72788C23.4994 8.31827 23.2087 7.9598 22.8491 7.67998V7.67998ZM22.0001 22H2.00008V10.043C1.99959 9.89102 2.03395 9.74097 2.10052 9.60437C2.16709 9.46776 2.2641 9.34824 2.38408 9.25498L11.3841 2.21198C11.56 2.07445 11.7768 1.99973 12.0001 1.99973C12.2233 1.99973 12.4402 2.07445 12.6161 2.21198L21.6161 9.25498C21.7361 9.34824 21.8331 9.46776 21.8996 9.60437C21.9662 9.74097 22.0006 9.89102 22.0001 10.043V22ZM12.0001 8.00598C11.0101 8.00579 10.0423 8.29951 9.21938 8.8499C8.39647 9.4003 7.75547 10.1826 7.37762 11.0977C6.99977 12.0127 6.90207 13.0194 7.09692 13.99C7.29176 14.9607 7.77036 15.8516 8.47208 16.55L12.0001 20L15.5361 16.542C16.2355 15.8427 16.7119 14.9517 16.9049 13.9817C17.0979 13.0117 16.9989 12.0062 16.6204 11.0924C16.2418 10.1787 15.6008 9.39773 14.7784 8.84834C13.956 8.29894 12.9891 8.0058 12.0001 8.00598V8.00598ZM14.1291 15.12L12.0001 17.2L9.87808 15.128C9.45892 14.7087 9.17336 14.1747 9.05747 13.5933C8.94158 13.0119 9.00055 12.4092 9.22693 11.8613C9.45331 11.3134 9.83695 10.8448 10.3294 10.5148C10.8219 10.1847 11.4011 10.008 11.9939 10.0069C12.5868 10.0057 13.1667 10.1803 13.6604 10.5085C14.1541 10.8367 14.5395 11.3038 14.7679 11.8509C14.9964 12.3979 15.0576 13.0004 14.9439 13.5822C14.8302 14.1641 14.5467 14.6992 14.1291 15.12V15.12ZM13.0001 13C13.0001 13.1978 12.9414 13.3911 12.8315 13.5556C12.7217 13.72 12.5655 13.8482 12.3828 13.9239C12.2 13.9996 11.999 14.0194 11.805 13.9808C11.611 13.9422 11.4328 13.8469 11.293 13.7071C11.1531 13.5672 11.0579 13.3891 11.0193 13.1951C10.9807 13.0011 11.0005 12.8 11.0762 12.6173C11.1519 12.4346 11.2801 12.2784 11.4445 12.1685C11.609 12.0586 11.8023 12 12.0001 12C12.2653 12 12.5196 12.1053 12.7072 12.2929C12.8947 12.4804 13.0001 12.7348 13.0001 13Z" fill="#374957"/>
</g>
<defs>
<clipPath id="clip0_403_3468">
<rect width="24" height="24" fill="white"/>
</clipPath>
</defs>
</svg>
