<svg width="32" height="32" viewBox="0 0 32 32" fill="none" xmlns="http://www.w3.org/2000/svg">
<g clip-path="url(#clip0_403_3365)" filter="url(#filter0_d_403_3365)">
<path d="M25 6H18.414L17.255 4.841L21 2.5L17 0H15V4.586L13.586 6H7C6.20435 6 5.44129 6.31607 4.87868 6.87868C4.31607 7.44129 4 8.20435 4 9V24H28V9C28 8.20435 27.6839 7.44129 27.1213 6.87868C26.5587 6.31607 25.7956 6 25 6ZM25 8C25.2652 8 25.5196 8.10536 25.7071 8.29289C25.8946 8.48043 26 8.73478 26 9V10H22.414L20.414 8H25ZM7 8H11.586L9.586 10H6V9C6 8.73478 6.10536 8.48043 6.29289 8.29289C6.48043 8.10536 6.73478 8 7 8V8ZM17 22H15V19C15 18.7348 15.1054 18.4804 15.2929 18.2929C15.4804 18.1054 15.7348 18 16 18C16.2652 18 16.5196 18.1054 16.7071 18.2929C16.8946 18.4804 17 18.7348 17 19V22ZM19 22V19C19 18.2044 18.6839 17.4413 18.1213 16.8787C17.5587 16.3161 16.7956 16 16 16C15.2044 16 14.4413 16.3161 13.8787 16.8787C13.3161 17.4413 13 18.2044 13 19V22H6V12H10.414L16 6.414L21.586 12H26V22H19ZM8 14H11V16H8V14ZM8 18H11V20H8V18ZM21 14H24V16H21V14ZM21 18H24V20H21V18ZM18 12C18 12.3956 17.8827 12.7822 17.6629 13.1111C17.4432 13.44 17.1308 13.6964 16.7654 13.8478C16.3999 13.9991 15.9978 14.0387 15.6098 13.9616C15.2219 13.8844 14.8655 13.6939 14.5858 13.4142C14.3061 13.1345 14.1156 12.7781 14.0384 12.3902C13.9613 12.0022 14.0009 11.6001 14.1522 11.2346C14.3036 10.8692 14.56 10.5568 14.8889 10.3371C15.2178 10.1173 15.6044 10 16 10C16.5304 10 17.0391 10.2107 17.4142 10.5858C17.7893 10.9609 18 11.4696 18 12Z" fill="#374957"/>
</g>
<defs>
<filter id="filter0_d_403_3365" x="0" y="0" width="32" height="32" filterUnits="userSpaceOnUse" color-interpolation-filters="sRGB">
<feFlood flood-opacity="0" result="BackgroundImageFix"/>
<feColorMatrix in="SourceAlpha" type="matrix" values="0 0 0 0 0 0 0 0 0 0 0 0 0 0 0 0 0 0 127 0" result="hardAlpha"/>
<feOffset dy="4"/>
<feGaussianBlur stdDeviation="2"/>
<feComposite in2="hardAlpha" operator="out"/>
<feColorMatrix type="matrix" values="0 0 0 0 0 0 0 0 0 0 0 0 0 0 0 0 0 0 0.25 0"/>
<feBlend mode="normal" in2="BackgroundImageFix" result="effect1_dropShadow_403_3365"/>
<feBlend mode="normal" in="SourceGraphic" in2="effect1_dropShadow_403_3365" result="shape"/>
</filter>
<clipPath id="clip0_403_3365">
<rect width="24" height="24" fill="white" transform="translate(4)"/>
</clipPath>
</defs>
</svg>
