<svg width="32" height="31" viewBox="0 0 32 31" fill="none" xmlns="http://www.w3.org/2000/svg">
<g clip-path="url(#clip0_403_3678)" filter="url(#filter0_d_403_3678)">
<path d="M24.4179 2.97512C24.2066 2.39721 23.8231 1.89801 23.3192 1.54485C22.8153 1.19169 22.2152 1.00157 21.5999 1.00012H10.3999C9.78455 1.00157 9.18447 1.19169 8.68057 1.54485C8.17667 1.89801 7.7932 2.39721 7.58188 2.97512L5.43788 8.86912C4.48459 11.4847 3.99787 14.2473 3.99988 17.0311V19.0001H5.99988V23.0001H11.9999V19.0001H19.9999V23.0001H25.9999V19.0001H27.9999V17.0311C28.0019 14.2473 27.5152 11.4847 26.5619 8.86912L24.4179 2.97512ZM9.46088 3.65812C9.53103 3.46539 9.65874 3.29888 9.82671 3.18118C9.99468 3.06347 10.1948 3.00027 10.3999 3.00012H21.5999C21.805 3.00027 22.0051 3.06347 22.1731 3.18118C22.341 3.29888 22.4687 3.46539 22.5389 3.65812L24.6829 9.55812C24.8559 10.0351 24.9999 10.5201 25.1389 11.0051H6.86088C6.99988 10.5201 7.14388 10.0351 7.31688 9.55812L9.46088 3.65812ZM9.99988 21.0001H7.99988V19.0001H9.99988V21.0001ZM23.9999 21.0001H21.9999V19.0001H23.9999V21.0001ZM5.99988 17.0001C6.00437 15.6579 6.13224 14.3189 6.38188 13.0001H7.99988V14.0001C7.99988 14.2653 8.10524 14.5197 8.29278 14.7072C8.48031 14.8948 8.73467 15.0001 8.99988 15.0001C9.2651 15.0001 9.51946 14.8948 9.70699 14.7072C9.89453 14.5197 9.99988 14.2653 9.99988 14.0001V13.0001H21.9999V14.0001C21.9999 14.2653 22.1052 14.5197 22.2928 14.7072C22.4803 14.8948 22.7347 15.0001 22.9999 15.0001C23.2651 15.0001 23.5195 14.8948 23.707 14.7072C23.8945 14.5197 23.9999 14.2653 23.9999 14.0001V13.0001H25.6179C25.8675 14.3189 25.9954 15.6579 25.9999 17.0001H5.99988Z" fill="#374957"/>
</g>
<defs>
<filter id="filter0_d_403_3678" x="0" y="0" width="32" height="32" filterUnits="userSpaceOnUse" color-interpolation-filters="sRGB">
<feFlood flood-opacity="0" result="BackgroundImageFix"/>
<feColorMatrix in="SourceAlpha" type="matrix" values="0 0 0 0 0 0 0 0 0 0 0 0 0 0 0 0 0 0 127 0" result="hardAlpha"/>
<feOffset dy="4"/>
<feGaussianBlur stdDeviation="2"/>
<feComposite in2="hardAlpha" operator="out"/>
<feColorMatrix type="matrix" values="0 0 0 0 0 0 0 0 0 0 0 0 0 0 0 0 0 0 0.25 0"/>
<feBlend mode="normal" in2="BackgroundImageFix" result="effect1_dropShadow_403_3678"/>
<feBlend mode="normal" in="SourceGraphic" in2="effect1_dropShadow_403_3678" result="shape"/>
</filter>
<clipPath id="clip0_403_3678">
<rect width="24" height="24" fill="white" transform="translate(4)"/>
</clipPath>
</defs>
</svg>
