<svg width="24" height="24" viewBox="0 0 24 24" fill="none" xmlns="http://www.w3.org/2000/svg">
<g clip-path="url(#clip0_403_3499)">
<path d="M12 0C9.62663 0 7.30655 0.703788 5.33316 2.02236C3.35977 3.34094 1.8217 5.21509 0.913451 7.4078C0.00519943 9.60051 -0.232441 12.0133 0.230582 14.3411C0.693605 16.6689 1.83649 18.8071 3.51472 20.4853C5.19295 22.1635 7.33115 23.3064 9.65892 23.7694C11.9867 24.2324 14.3995 23.9948 16.5922 23.0866C18.7849 22.1783 20.6591 20.6402 21.9776 18.6668C23.2962 16.6935 24 14.3734 24 12C23.9966 8.81846 22.7312 5.76821 20.4815 3.51852C18.2318 1.26883 15.1815 0.00344108 12 0V0ZM20.227 6.329C21.2734 7.84439 21.878 9.62087 21.973 11.46L19.237 9.533L20.227 6.329ZM14.711 2.384L12 4.354L9.28901 2.384C11.0601 1.87202 12.9399 1.87202 14.711 2.384V2.384ZM14.5 11.056L13.548 14H10.448L9.50001 11.056L12 9.236L14.5 11.056ZM4.76301 9.533L2.02701 11.46C2.12218 9.62105 2.7263 7.84468 3.77201 6.329L4.76301 9.533ZM4.00701 17.985L7.48201 18L8.56701 21.38C6.7515 20.7116 5.16793 19.5326 4.00701 17.985V17.985ZM10.843 21.927L8.94201 16L2.83101 15.982C2.52862 15.2843 2.3075 14.5542 2.17201 13.806L7.10001 10.331L5.32401 4.576C5.8741 4.07745 6.47779 3.64145 7.12401 3.276L11.957 6.8L7.14401 10.3L9.00001 16H15L16.855 10.292L12.043 6.8L16.88 3.28C17.5262 3.64545 18.1299 4.08145 18.68 4.58L16.9 10.331L21.831 13.805C21.6956 14.5529 21.4744 15.2827 21.172 15.98L15.058 16L13.158 21.927C12.3897 22.0243 11.6123 22.0243 10.844 21.927H10.843ZM15.432 21.38L16.518 18L19.993 17.989C18.8318 19.5358 17.2477 20.7135 15.432 21.38V21.38Z" fill="#374957"/>
</g>
<defs>
<clipPath id="clip0_403_3499">
<rect width="24" height="24" fill="white"/>
</clipPath>
</defs>
</svg>
