<svg width="30" height="32" viewBox="0 0 30 32" fill="none" xmlns="http://www.w3.org/2000/svg">
<g clip-path="url(#clip0_403_3423)" filter="url(#filter0_d_403_3423)">
<path d="M14.9579 24.0078L14.2608 23.4103C13.2998 22.6056 4.90889 15.3589 4.90889 10.058C4.90889 4.50814 9.408 0.0090332 14.9579 0.0090332C20.5078 0.0090332 25.0069 4.50814 25.0069 10.058C25.0069 15.3589 16.616 22.6056 15.659 23.4142L14.9579 24.0078ZM14.9579 2.18192C10.6101 2.18685 7.08675 5.71021 7.08183 10.058C7.08183 13.3881 12.2443 18.7078 14.9579 21.1427C17.6716 18.7069 22.834 13.3841 22.834 10.058C22.8291 5.71021 19.3057 2.18689 14.9579 2.18192Z" fill="#374957"/>
<path d="M14.958 14.041C12.7581 14.041 10.9747 12.2576 10.9747 10.0577C10.9747 7.85775 12.7581 6.07434 14.958 6.07434C17.158 6.07434 18.9414 7.85775 18.9414 10.0577C18.9414 12.2576 17.158 14.041 14.958 14.041ZM14.958 8.06597C13.858 8.06597 12.9663 8.95767 12.9663 10.0576C12.9663 11.1576 13.858 12.0493 14.958 12.0493C16.058 12.0493 16.9497 11.1576 16.9497 10.0576C16.9497 8.95767 16.058 8.06597 14.958 8.06597Z" fill="#374957"/>
</g>
<defs>
<filter id="filter0_d_403_3423" x="-1" y="0" width="32" height="32" filterUnits="userSpaceOnUse" color-interpolation-filters="sRGB">
<feFlood flood-opacity="0" result="BackgroundImageFix"/>
<feColorMatrix in="SourceAlpha" type="matrix" values="0 0 0 0 0 0 0 0 0 0 0 0 0 0 0 0 0 0 127 0" result="hardAlpha"/>
<feOffset dy="4"/>
<feGaussianBlur stdDeviation="2"/>
<feComposite in2="hardAlpha" operator="out"/>
<feColorMatrix type="matrix" values="0 0 0 0 0 0 0 0 0 0 0 0 0 0 0 0 0 0 0.25 0"/>
<feBlend mode="normal" in2="BackgroundImageFix" result="effect1_dropShadow_403_3423"/>
<feBlend mode="normal" in="SourceGraphic" in2="effect1_dropShadow_403_3423" result="shape"/>
</filter>
<clipPath id="clip0_403_3423">
<rect width="24" height="24" fill="white" transform="translate(3)"/>
</clipPath>
</defs>
</svg>
