<svg width="32" height="30" viewBox="0 0 32 30" fill="none" xmlns="http://www.w3.org/2000/svg">
<g clip-path="url(#clip0_403_3526)" filter="url(#filter0_d_403_3526)">
<path d="M19.021 6.99971L19.357 4.95871C19.4451 4.41989 19.3867 3.8673 19.1878 3.35883C18.9889 2.85036 18.657 2.40473 18.2267 2.06864C17.7965 1.73255 17.2837 1.51836 16.7422 1.44853C16.2008 1.37869 15.6505 1.45578 15.149 1.67171C14.456 1.98272 13.8992 2.53449 13.582 3.22471L11.717 6.99971H7C6.20435 6.99971 5.44129 7.31578 4.87868 7.87839C4.31607 8.441 4 9.20406 4 9.99971V18.9997C4 19.7954 4.31607 20.5584 4.87868 21.121C5.44129 21.6836 6.20435 21.9997 7 21.9997H26.018L28 10.9627L28.016 6.99971H19.021ZM6 18.9997V9.99971C6 9.73449 6.10536 9.48014 6.29289 9.2926C6.48043 9.10507 6.73478 8.99971 7 8.99971H11V19.9997H7C6.73478 19.9997 6.48043 19.8944 6.29289 19.7068C6.10536 19.5193 6 19.2649 6 18.9997V18.9997ZM26 10.6997L24.33 19.9997H13V8.90871L15.419 4.00871C15.5009 3.8605 15.6168 3.73384 15.7572 3.63916C15.8976 3.54448 16.0585 3.48447 16.2266 3.46406C16.3947 3.44366 16.5652 3.46345 16.7242 3.5218C16.8832 3.58015 17.026 3.6754 17.141 3.79971C17.2392 3.91396 17.3111 4.04848 17.3513 4.19368C17.3916 4.33888 17.3994 4.49118 17.374 4.63971L16.655 8.99971H26V10.6997Z" fill="#374957"/>
</g>
<defs>
<filter id="filter0_d_403_3526" x="0" y="0" width="32" height="32" filterUnits="userSpaceOnUse" color-interpolation-filters="sRGB">
<feFlood flood-opacity="0" result="BackgroundImageFix"/>
<feColorMatrix in="SourceAlpha" type="matrix" values="0 0 0 0 0 0 0 0 0 0 0 0 0 0 0 0 0 0 127 0" result="hardAlpha"/>
<feOffset dy="4"/>
<feGaussianBlur stdDeviation="2"/>
<feComposite in2="hardAlpha" operator="out"/>
<feColorMatrix type="matrix" values="0 0 0 0 0 0 0 0 0 0 0 0 0 0 0 0 0 0 0.25 0"/>
<feBlend mode="normal" in2="BackgroundImageFix" result="effect1_dropShadow_403_3526"/>
<feBlend mode="normal" in="SourceGraphic" in2="effect1_dropShadow_403_3526" result="shape"/>
</filter>
<clipPath id="clip0_403_3526">
<rect width="24" height="24" fill="white" transform="translate(4)"/>
</clipPath>
</defs>
</svg>
