<svg width="24" height="24" viewBox="0 0 24 24" fill="none" xmlns="http://www.w3.org/2000/svg">
<g clip-path="url(#clip0_403_3429)">
<path d="M16.0004 11.0001H8.00038V9.00013H16.0004V11.0001ZM4.93738 17.0791C3.53691 15.6819 2.58235 13.9006 2.19447 11.9607C1.80659 10.0208 2.00281 8.00941 2.75831 6.18105C3.51382 4.35269 4.79465 2.7895 6.43877 1.68925C8.08289 0.588996 10.0164 0.00112134 11.9947 1.60258e-06C13.973 -0.00111814 15.9072 0.584567 17.5526 1.68296C19.1979 2.78135 20.4805 4.34309 21.2381 6.17059C21.9957 7.9981 22.1942 10.0092 21.8085 11.9496C21.4228 13.8899 20.4703 15.6723 19.0714 17.0711L12.0004 23.9871L4.93738 17.0791ZM4.00038 10.0001C3.99749 11.0511 4.20308 12.0923 4.60526 13.0633C5.00743 14.0343 5.5982 14.9159 6.34338 15.6571L12.0004 21.1891L17.6654 15.6491C18.594 14.7179 19.2786 13.5721 19.6588 12.3131C20.039 11.0541 20.1029 9.72087 19.845 8.43131C19.587 7.14174 19.0152 5.93566 18.18 4.91981C17.3448 3.90396 16.272 3.10967 15.0567 2.60725C13.8413 2.10483 12.5208 1.90978 11.2121 2.03936C9.90342 2.16894 8.64684 2.61916 7.55361 3.35015C6.46038 4.08115 5.56422 5.07039 4.94445 6.2303C4.32468 7.39021 4.00043 8.68502 4.00038 10.0001V10.0001Z" fill="#374957"/>
</g>
<defs>
<clipPath id="clip0_403_3429">
<rect width="24" height="24" fill="white"/>
</clipPath>
</defs>
</svg>
