<svg width="24" height="24" viewBox="0 0 24 24" fill="none" xmlns="http://www.w3.org/2000/svg">
<g clip-path="url(#clip0_403_3514)">
<path d="M21 0H3C1.34316 0 0 1.34316 0 3V24H18.35C20.556 21.793 21.793 20.556 24 18.35V3C24 1.34316 22.6568 0 21 0ZM2.00002 3C2.00002 2.44772 2.44772 2.00002 3 2.00002H21C21.5523 2.00002 22 2.44772 22 3V16H16V22H2.00002V3ZM18 21.521V18H21.521L18 21.521Z" fill="#374957"/>
<path d="M16.3098 5.02686H14.3589V5.03487V5.86789L14.3699 10.9549H14.9949C14.9949 10.9549 15.9789 10.9549 16.3578 10.9449C17.8333 10.8345 18.8218 9.66289 18.8218 7.98992C18.8218 6.21786 17.8128 5.02686 16.3098 5.02686ZM16.3358 9.69284C16.1718 9.69284 15.8938 9.69786 15.6358 9.69982L15.6168 6.27682H16.3168C17.4888 6.27682 17.5788 7.58782 17.5788 7.98982C17.5718 8.82682 17.1908 9.67784 16.3358 9.69284Z" fill="#374957"/>
<path d="M5.94677 5.00042H3.9798V11.0694H5.22981V8.96942H5.94681C7.04308 8.96942 7.93183 8.08072 7.93183 6.98441C7.93183 5.88809 7.04313 4.99939 5.94681 4.99939V5.00042H5.94677ZM5.94677 7.72039H5.23675V6.24739H5.95173C6.35767 6.24716 6.68692 6.57603 6.68716 6.98197C6.68739 7.38791 6.35852 7.71716 5.95258 7.71739C5.9523 7.71739 5.95202 7.71739 5.95173 7.71739L5.94677 7.72039Z" fill="#374957"/>
<path d="M10.6152 6.28069C11.0684 6.18469 11.5408 6.29457 11.9052 6.58069L12.3812 6.98068L13.1812 6.02466L12.7022 5.62468C12.0139 5.07193 11.1064 4.87355 10.2502 5.08866C9.60184 5.2651 9.11702 5.8051 9.01122 6.46866C8.92375 7.10424 9.2313 7.72918 9.78822 8.04765C9.78822 8.04765 10.4662 8.34765 11.2182 8.62763C11.3772 8.68665 11.8902 8.90462 11.8282 9.24863C11.7108 9.58857 11.3763 9.80415 11.0182 9.77063C10.5665 9.77616 10.1324 9.59527 9.81822 9.27062L9.40023 8.79962L8.47525 9.63962L8.89525 10.1026C9.44472 10.6932 10.2176 11.025 11.0243 11.0166C11.99 11.0603 12.8487 10.407 13.0643 9.46463C13.1845 8.53069 12.5747 7.65849 11.6563 7.45065C11.0003 7.20765 10.4003 6.94463 10.3833 6.94463C10.2845 6.8791 10.2335 6.76154 10.2533 6.64463C10.2879 6.46065 10.4313 6.31637 10.6152 6.28069Z" fill="#374957"/>
</g>
<defs>
<clipPath id="clip0_403_3514">
<rect width="24" height="24" fill="white"/>
</clipPath>
</defs>
</svg>
