<svg width="32" height="32" viewBox="0 0 32 32" fill="none" xmlns="http://www.w3.org/2000/svg">
<g clip-path="url(#clip0_403_3611)" filter="url(#filter0_d_403_3611)">
<path d="M12 0H7C6.20435 0 5.44129 0.31607 4.87868 0.87868C4.31607 1.44129 4 2.20435 4 3V8H7L6.979 11L8.979 11.01L9 8H12V4.984L15 5L15.01 3L12 2.984V0ZM10 6H6V3C6 2.73478 6.10536 2.48043 6.29289 2.29289C6.48043 2.10536 6.73478 2 7 2H10V6Z" fill="#374957"/>
<path d="M25.0001 0H20.0001V3L17.0051 2.984L16.9951 4.984L20.0001 5V8H23.0151L23.0001 11L25.0001 11.01L25.0151 8H28.0001V3C28.0001 2.20435 27.684 1.44129 27.1214 0.87868C26.5588 0.31607 25.7957 0 25.0001 0V0ZM26.0001 6H22.0001V2H25.0001C25.2653 2 25.5197 2.10536 25.7072 2.29289C25.8947 2.48043 26.0001 2.73478 26.0001 3V6Z" fill="#374957"/>
<path d="M25.0208 13.0051L23.0208 12.9951L23.0048 16.0001H19.9998V19.0161L17.0048 19.0001L16.9998 21.0001L19.9998 21.0161V24.0001H24.9998C25.7955 24.0001 26.5585 23.684 27.1212 23.1214C27.6838 22.5588 27.9998 21.7957 27.9998 21.0001V16.0001H24.9998L25.0208 13.0051ZM25.9998 21.0001C25.9998 21.2653 25.8945 21.5197 25.7069 21.7072C25.5194 21.8947 25.2651 22.0001 24.9998 22.0001H21.9998V18.0001H25.9998V21.0001Z" fill="#374957"/>
<path d="M12 15.9994H8.985L9 13.0044L7 12.9994L6.985 15.9994H4V20.9994C4 21.795 4.31607 22.5581 4.87868 23.1207C5.44129 23.6833 6.20435 23.9994 7 23.9994H12V20.9994L15 21.0204L15.01 19.0204L12 19.0044V15.9994ZM10 21.9994H7C6.73478 21.9994 6.48043 21.894 6.29289 21.7065C6.10536 21.5189 6 21.2646 6 20.9994V17.9994H10V21.9994Z" fill="#374957"/>
</g>
<defs>
<filter id="filter0_d_403_3611" x="0" y="0" width="32" height="32" filterUnits="userSpaceOnUse" color-interpolation-filters="sRGB">
<feFlood flood-opacity="0" result="BackgroundImageFix"/>
<feColorMatrix in="SourceAlpha" type="matrix" values="0 0 0 0 0 0 0 0 0 0 0 0 0 0 0 0 0 0 127 0" result="hardAlpha"/>
<feOffset dy="4"/>
<feGaussianBlur stdDeviation="2"/>
<feComposite in2="hardAlpha" operator="out"/>
<feColorMatrix type="matrix" values="0 0 0 0 0 0 0 0 0 0 0 0 0 0 0 0 0 0 0.25 0"/>
<feBlend mode="normal" in2="BackgroundImageFix" result="effect1_dropShadow_403_3611"/>
<feBlend mode="normal" in="SourceGraphic" in2="effect1_dropShadow_403_3611" result="shape"/>
</filter>
<clipPath id="clip0_403_3611">
<rect width="24" height="24" fill="white" transform="translate(4)"/>
</clipPath>
</defs>
</svg>
