<svg width="24" height="24" viewBox="0 0 24 24" fill="none" xmlns="http://www.w3.org/2000/svg">
<g clip-path="url(#clip0_403_3361)">
<path d="M18 6C18 4.4087 17.3679 2.88258 16.2426 1.75736C15.1174 0.632141 13.5913 0 12 0C10.4087 0 8.88258 0.632141 7.75736 1.75736C6.63214 2.88258 6 4.4087 6 6H0V21C0 21.7956 0.31607 22.5587 0.87868 23.1213C1.44129 23.6839 2.20435 24 3 24H14V22H3C2.73478 22 2.48043 21.8946 2.29289 21.7071C2.10536 21.5196 2 21.2652 2 21V8H6V10H8V8H16V10H18V8H22V14H24V6H18ZM8 6C8 4.93913 8.42143 3.92172 9.17157 3.17157C9.92172 2.42143 10.9391 2 12 2C13.0609 2 14.0783 2.42143 14.8284 3.17157C15.5786 3.92172 16 4.93913 16 6H8Z" fill="#374957"/>
<path d="M21.0003 15.9994H19.0003V18.9994H16.0003V20.9994H19.0003V23.9994H21.0003V20.9994H24.0003V18.9994H21.0003V15.9994Z" fill="#374957"/>
</g>
<defs>
<clipPath id="clip0_403_3361">
<rect width="24" height="24" fill="white"/>
</clipPath>
</defs>
</svg>
