<svg width="32" height="32" viewBox="0 0 32 32" fill="none" xmlns="http://www.w3.org/2000/svg">
<g clip-path="url(#clip0_403_3772)" filter="url(#filter0_d_403_3772)">
<path d="M22.9998 14.0068C22.9998 12.8552 22.7158 11.7213 22.1728 10.7057C21.6298 9.69016 20.8446 8.82424 19.8868 8.18475C18.929 7.54526 17.8283 7.15195 16.6821 7.03969C15.5359 6.92743 14.3798 7.09969 13.3161 7.5412C12.2525 7.98271 11.3142 8.67983 10.5845 9.57075C9.85473 10.4617 9.35606 11.5189 9.1327 12.6487C8.90933 13.7784 8.96815 14.9459 9.30395 16.0475C9.63976 17.1491 10.2422 18.1508 11.0578 18.9638L15.9998 23.7998L20.9498 18.9588C21.6021 18.3101 22.1193 17.5384 22.4712 16.6883C22.8231 15.8383 23.0027 14.9268 22.9998 14.0068V14.0068ZM15.9998 20.9998L12.4638 17.5418C11.7648 16.8429 11.2887 15.9525 11.0956 14.9831C10.9025 14.0138 11.0011 13.0089 11.3788 12.0955C11.7565 11.1821 12.3965 10.4011 13.2179 9.85129C14.0393 9.30145 15.0052 9.0074 15.9936 9.00628C16.9821 9.00517 17.9486 9.29704 18.7713 9.84502C19.5939 10.393 20.2356 11.1725 20.6154 12.0851C20.9952 12.9976 21.096 14.0022 20.9051 14.9721C20.7142 15.9419 20.2401 16.8333 19.5428 17.5338L15.9998 20.9998ZM15.9998 10.9998C15.4064 10.9998 14.8264 11.1758 14.3331 11.5054C13.8397 11.8351 13.4552 12.3036 13.2281 12.8518C13.0011 13.4 12.9417 14.0032 13.0574 14.5851C13.1732 15.1671 13.4589 15.7016 13.8784 16.1212C14.298 16.5407 14.8326 16.8264 15.4145 16.9422C15.9964 17.0579 16.5996 16.9985 17.1478 16.7715C17.696 16.5444 18.1645 16.1599 18.4942 15.6665C18.8238 15.1732 18.9998 14.5932 18.9998 13.9998C18.9998 13.2042 18.6837 12.4411 18.1211 11.8785C17.5585 11.3159 16.7954 10.9998 15.9998 10.9998V10.9998ZM27.9998 10.0458V23.9998H18.6528L20.6998 21.9998H25.9998V10.0428C26.0003 9.89101 25.966 9.74108 25.8994 9.60462C25.8328 9.46817 25.7358 9.34884 25.6158 9.25584L16.6158 2.21184C16.4399 2.0743 16.223 1.99958 15.9998 1.99958C15.7765 1.99958 15.5596 2.0743 15.3838 2.21184L6.38377 9.25384C6.26365 9.3472 6.16656 9.46688 6.09999 9.60367C6.03342 9.74046 5.99913 9.89071 5.99977 10.0428V21.9998H11.2998L13.3448 23.9998H3.99977V10.0428C3.99857 9.58725 4.10167 9.13742 4.30118 8.72783C4.50069 8.31824 4.7913 7.95976 5.15077 7.67984L14.1508 0.637839C14.6787 0.224251 15.3301 -0.000488281 16.0008 -0.000488281C16.6715 -0.000488281 17.3228 0.224251 17.8508 0.637839L26.8508 7.68184C27.2098 7.96155 27.5001 8.31976 27.6992 8.72902C27.8984 9.13827 28.0012 9.5877 27.9998 10.0428V10.0458Z" fill="#374957"/>
</g>
<defs>
<filter id="filter0_d_403_3772" x="0" y="0" width="32" height="32" filterUnits="userSpaceOnUse" color-interpolation-filters="sRGB">
<feFlood flood-opacity="0" result="BackgroundImageFix"/>
<feColorMatrix in="SourceAlpha" type="matrix" values="0 0 0 0 0 0 0 0 0 0 0 0 0 0 0 0 0 0 127 0" result="hardAlpha"/>
<feOffset dy="4"/>
<feGaussianBlur stdDeviation="2"/>
<feComposite in2="hardAlpha" operator="out"/>
<feColorMatrix type="matrix" values="0 0 0 0 0 0 0 0 0 0 0 0 0 0 0 0 0 0 0.25 0"/>
<feBlend mode="normal" in2="BackgroundImageFix" result="effect1_dropShadow_403_3772"/>
<feBlend mode="normal" in="SourceGraphic" in2="effect1_dropShadow_403_3772" result="shape"/>
</filter>
<clipPath id="clip0_403_3772">
<rect width="24" height="24" fill="white" transform="translate(4)"/>
</clipPath>
</defs>
</svg>
