<svg width="32" height="32" viewBox="0 0 32 32" fill="none" xmlns="http://www.w3.org/2000/svg">
<g clip-path="url(#clip0_403_3644)" filter="url(#filter0_d_403_3644)">
<path d="M28 22H26V12C26 11.2044 25.6839 10.4413 25.1213 9.87868C24.5587 9.31607 23.7956 9 23 9H17V5.794C17.4562 5.59849 17.845 5.27342 18.1182 4.85907C18.3914 4.44472 18.537 3.95931 18.537 3.463C18.537 2.062 16 0 16 0C16 0 13.463 2.062 13.463 3.463C13.463 3.95931 13.6086 4.44472 13.8818 4.85907C14.155 5.27342 14.5438 5.59849 15 5.794V9H9C8.20435 9 7.44129 9.31607 6.87868 9.87868C6.31607 10.4413 6 11.2044 6 12V22H4V24H28V22ZM9 11H23C23.2652 11 23.5196 11.1054 23.7071 11.2929C23.8946 11.4804 24 11.7348 24 12V14.98C23.064 14.88 22.5 14.28 22.5 14H20.5C20.5 14.343 19.818 15 18.75 15C17.661 15 17 14.306 17 14H15C15 14.343 14.318 15 13.25 15C12.161 15 11.5 14.306 11.5 14H9.5C9.5 14.315 8.921 14.888 8 14.981V12C8 11.7348 8.10536 11.4804 8.29289 11.2929C8.48043 11.1054 8.73478 11 9 11ZM8 16.979C8.91869 16.9382 9.79793 16.5939 10.5 16C11.2714 16.643 12.2431 16.9964 13.2473 16.9991C14.2515 17.0019 15.2251 16.6538 16 16.015C16.7749 16.6538 17.7485 17.0019 18.7527 16.9991C19.7569 16.9964 20.7286 16.643 21.5 16C22.2022 16.5936 23.0814 16.9375 24 16.978V22H8V16.979Z" fill="#374957"/>
</g>
<defs>
<filter id="filter0_d_403_3644" x="0" y="0" width="32" height="32" filterUnits="userSpaceOnUse" color-interpolation-filters="sRGB">
<feFlood flood-opacity="0" result="BackgroundImageFix"/>
<feColorMatrix in="SourceAlpha" type="matrix" values="0 0 0 0 0 0 0 0 0 0 0 0 0 0 0 0 0 0 127 0" result="hardAlpha"/>
<feOffset dy="4"/>
<feGaussianBlur stdDeviation="2"/>
<feComposite in2="hardAlpha" operator="out"/>
<feColorMatrix type="matrix" values="0 0 0 0 0 0 0 0 0 0 0 0 0 0 0 0 0 0 0.25 0"/>
<feBlend mode="normal" in2="BackgroundImageFix" result="effect1_dropShadow_403_3644"/>
<feBlend mode="normal" in="SourceGraphic" in2="effect1_dropShadow_403_3644" result="shape"/>
</filter>
<clipPath id="clip0_403_3644">
<rect width="24" height="24" fill="white" transform="translate(4)"/>
</clipPath>
</defs>
</svg>
