<svg width="24" height="24" viewBox="0 0 24 24" fill="none" xmlns="http://www.w3.org/2000/svg">
<g clip-path="url(#clip0_403_3574)">
<path d="M21.0004 24.0003H16.0004V22.0003H21.0004C21.2656 22.0003 21.5199 21.8949 21.7075 21.7074C21.895 21.5199 22.0004 21.2655 22.0004 21.0003V16.0003H24.0004V21.0003C24.0004 21.7959 23.6843 22.559 23.1217 23.1216C22.5591 23.6842 21.796 24.0003 21.0004 24.0003Z" fill="#374957"/>
<path d="M2 8H0V3C0 2.20435 0.31607 1.44129 0.87868 0.87868C1.44129 0.31607 2.20435 0 3 0L8 0V2H3C2.73478 2 2.48043 2.10536 2.29289 2.29289C2.10536 2.48043 2 2.73478 2 3V8Z" fill="#374957"/>
<path d="M8 24.0003H3C2.20435 24.0003 1.44129 23.6842 0.87868 23.1216C0.31607 22.559 0 21.7959 0 21.0003L0 16.0003H2V21.0003C2 21.2655 2.10536 21.5199 2.29289 21.7074C2.48043 21.8949 2.73478 22.0003 3 22.0003H8V24.0003Z" fill="#374957"/>
<path d="M24.0004 8H22.0004V3C22.0004 2.73478 21.895 2.48043 21.7075 2.29289C21.5199 2.10536 21.2656 2 21.0004 2H16.0004V0H21.0004C21.796 0 22.5591 0.31607 23.1217 0.87868C23.6843 1.44129 24.0004 2.20435 24.0004 3V8Z" fill="#374957"/>
<path d="M18.2927 19.7066L9.70672 11.1206C9.5192 10.9331 9.26489 10.8278 8.99972 10.8278C8.73456 10.8278 8.48025 10.9331 8.29272 11.1206L4.70672 14.7066L3.29272 13.2926L6.87872 9.70661C7.44131 9.14419 8.20423 8.82825 8.99972 8.82825C9.79522 8.82825 10.5581 9.14419 11.1207 9.70661L19.7067 18.2926L18.2927 19.7066Z" fill="#374957"/>
<path d="M16.0002 10.0003C15.4069 10.0003 14.8269 9.82436 14.3335 9.49472C13.8402 9.16507 13.4557 8.69654 13.2286 8.14836C13.0015 7.60018 12.9421 6.99698 13.0579 6.41504C13.1736 5.83309 13.4594 5.29854 13.8789 4.87899C14.2985 4.45943 14.833 4.17371 15.415 4.05795C15.9969 3.9422 16.6001 4.00161 17.1483 4.22867C17.6965 4.45573 18.165 4.84025 18.4947 5.3336C18.8243 5.82694 19.0002 6.40696 19.0002 7.00031C19.0002 7.79596 18.6842 8.55902 18.1216 9.12163C17.559 9.68424 16.7959 10.0003 16.0002 10.0003V10.0003ZM16.0002 6.00031C15.8025 6.00031 15.6091 6.05896 15.4447 6.16884C15.2802 6.27872 15.1521 6.4349 15.0764 6.61762C15.0007 6.80035 14.9809 7.00142 15.0195 7.1954C15.058 7.38938 15.1533 7.56756 15.2931 7.70741C15.433 7.84727 15.6112 7.94251 15.8052 7.98109C15.9991 8.01968 16.2002 7.99987 16.3829 7.92419C16.5657 7.8485 16.7218 7.72033 16.8317 7.55588C16.9416 7.39143 17.0002 7.19809 17.0002 7.00031C17.0002 6.73509 16.8949 6.48074 16.7074 6.2932C16.5198 6.10566 16.2655 6.00031 16.0002 6.00031Z" fill="#374957"/>
</g>
<defs>
<clipPath id="clip0_403_3574">
<rect width="24" height="24" fill="white"/>
</clipPath>
</defs>
</svg>
