<svg width="24" height="24" viewBox="0 0 24 24" fill="none" xmlns="http://www.w3.org/2000/svg">
<g clip-path="url(#clip0_403_3443)">
<path d="M14.2002 16.261C11.2886 15.0282 8.97326 12.7075 7.74721 9.793L11.1472 6.387L4.88721 0.122L1.71621 3.292C1.16621 3.84514 0.731358 4.50186 0.43681 5.22415C0.142262 5.94645 -0.00613295 6.71998 0.00021036 7.5C0.00021036 14.748 9.25221 24 16.5002 24C17.2801 24.0068 18.0537 23.8586 18.7759 23.5641C19.4981 23.2695 20.1545 22.8344 20.7072 22.284L23.8782 19.113L17.6132 12.848L14.2002 16.261ZM19.2922 20.87C18.925 21.234 18.489 21.5214 18.0097 21.7154C17.5304 21.9094 17.0173 22.0061 16.5002 22C10.2672 22 2.00021 13.733 2.00021 7.5C1.99432 6.98283 2.09117 6.46964 2.28515 5.99019C2.47913 5.51074 2.76637 5.07458 3.13021 4.707L4.88721 2.95L8.32421 6.387L5.38921 9.322L5.63421 9.936C6.35546 11.8653 7.48297 13.6171 8.94036 15.0725C10.3977 16.528 12.151 17.6533 14.0812 18.372L14.6872 18.603L17.6132 15.676L21.0502 19.113L19.2922 20.87ZM14.0002 2V0C16.6515 0.0029116 19.1933 1.05742 21.0681 2.93215C22.9428 4.80688 23.9973 7.34873 24.0002 10H22.0002C21.9978 7.879 21.1542 5.84555 19.6544 4.34578C18.1547 2.846 16.1212 2.00238 14.0002 2V2ZM14.0002 6V4C15.591 4.00159 17.1162 4.63424 18.2411 5.75911C19.366 6.88399 19.9986 8.40919 20.0002 10H18.0002C18.0002 8.93913 17.5788 7.92172 16.8286 7.17157C16.0785 6.42143 15.0611 6 14.0002 6Z" fill="#374957"/>
</g>
<defs>
<clipPath id="clip0_403_3443">
<rect width="24" height="24" fill="white"/>
</clipPath>
</defs>
</svg>
