<svg width="24" height="24" viewBox="0 0 24 24" fill="none" xmlns="http://www.w3.org/2000/svg">
<g clip-path="url(#clip0_403_3608)">
<path d="M20 8C18.9391 8 17.9217 7.57857 17.1716 6.82843C16.4214 6.07828 16 5.06087 16 4C16 2.93913 16.4214 1.92172 17.1716 1.17157C17.9217 0.421427 18.9391 0 20 0C21.0609 0 22.0783 0.421427 22.8284 1.17157C23.5786 1.92172 24 2.93913 24 4C24 5.06087 23.5786 6.07828 22.8284 6.82843C22.0783 7.57857 21.0609 8 20 8ZM20 2C19.4696 2 18.9609 2.21071 18.5858 2.58579C18.2107 2.96086 18 3.46957 18 4C18 4.53043 18.2107 5.03914 18.5858 5.41421C18.9609 5.78929 19.4696 6 20 6C20.5304 6 21.0391 5.78929 21.4142 5.41421C21.7893 5.03914 22 4.53043 22 4C22 3.46957 21.7893 2.96086 21.4142 2.58579C21.0391 2.21071 20.5304 2 20 2ZM11 24V22.781L15.277 13.438C15.477 13.0178 15.792 12.663 16.1854 12.4145C16.5789 12.166 17.0347 12.0342 17.5 12.0342C17.9653 12.0342 18.4211 12.166 18.8146 12.4145C19.208 12.663 19.523 13.0178 19.723 13.438L24 22.737V23.956L11 24ZM13.54 22H21.46L17.906 14.274C17.8719 14.1946 17.8152 14.127 17.743 14.0795C17.6709 14.032 17.5864 14.0067 17.5 14.0067C17.4136 14.0067 17.3291 14.032 17.257 14.0795C17.1848 14.127 17.1281 14.1946 17.094 14.274L13.54 22ZM12.248 6.541C12.0321 6.08594 11.6915 5.70147 11.2658 5.43226C10.84 5.16305 10.3467 5.02015 9.843 5.02015C9.33931 5.02015 8.84595 5.16305 8.42024 5.43226C7.99452 5.70147 7.65392 6.08594 7.438 6.541L0 22.781V24H9V22H2.528L9.255 7.377C9.30684 7.26453 9.38982 7.16927 9.49411 7.1025C9.59841 7.03573 9.71966 7.00024 9.8435 7.00024C9.96734 7.00024 10.0886 7.03573 10.1929 7.1025C10.2972 7.16927 10.3802 7.26453 10.432 7.377L13.148 13.277L13.46 12.599C13.6939 12.0959 14.0191 11.6405 14.419 11.256L12.248 6.541Z" fill="#374957"/>
</g>
<defs>
<clipPath id="clip0_403_3608">
<rect width="24" height="24" fill="white"/>
</clipPath>
</defs>
</svg>
