<svg width="24" height="24" viewBox="0 0 24 24" fill="none" xmlns="http://www.w3.org/2000/svg">
<g clip-path="url(#clip0_403_3560)">
<path d="M22.9998 5C22.9998 4.20435 22.6837 3.44129 22.1211 2.87868C21.5585 2.31607 20.7955 2 19.9998 2H19.8288C19.6212 1.41549 19.2379 0.909511 18.7314 0.551443C18.2249 0.193376 17.6201 0.000756748 16.9998 0L6.99982 0C6.37954 0.000756748 5.77469 0.193376 5.2682 0.551443C4.76172 0.909511 4.3784 1.41549 4.17082 2H3.99982C3.20417 2 2.44111 2.31607 1.8785 2.87868C1.31589 3.44129 0.999817 4.20435 0.999817 5V8H2.11682L4.11682 24H19.8828L21.8828 8H22.9998V5ZM2.99982 5C2.99982 4.73478 3.10517 4.48043 3.29271 4.29289C3.48025 4.10536 3.7346 4 3.99982 4H5.99982V3C5.99982 2.73478 6.10517 2.48043 6.29271 2.29289C6.48025 2.10536 6.7346 2 6.99982 2H16.9998C17.265 2 17.5194 2.10536 17.7069 2.29289C17.8945 2.48043 17.9998 2.73478 17.9998 3V4H19.9998C20.265 4 20.5194 4.10536 20.7069 4.29289C20.8945 4.48043 20.9998 4.73478 20.9998 5V6H2.99982V5ZM5.88282 22L5.13282 16H8.08082C8.97282 21.287 15.0288 21.284 15.9188 16H18.8668L18.1168 22H5.88282ZM9.99982 15C10.1048 11.046 13.8948 11.047 13.9998 15C13.8998 18.954 10.1048 18.953 9.99982 15ZM19.1168 14H15.9168C15.0248 8.713 8.96982 8.716 8.07882 14H4.87882L4.12882 8H19.8668L19.1168 14Z" fill="#374957"/>
</g>
<defs>
<clipPath id="clip0_403_3560">
<rect width="24" height="24" fill="white"/>
</clipPath>
</defs>
</svg>
