<svg width="24" height="24" viewBox="0 0 24 24" fill="none" xmlns="http://www.w3.org/2000/svg">
<g clip-path="url(#clip0_403_3588)">
<path d="M14.2001 16.2614C11.2885 15.0276 8.97309 12.7068 7.74612 9.79236L11.1521 6.38636L4.88712 0.121358L1.71612 3.29136C1.16576 3.84424 0.730669 4.50091 0.436096 5.22326C0.141523 5.94562 -0.00666978 6.71928 0.000116125 7.49936C0.000116125 14.7474 9.25212 23.9994 16.5001 23.9994C17.2801 24.0063 18.0536 23.8582 18.7759 23.5637C19.4981 23.2691 20.1546 22.8339 20.7071 22.2834L23.8781 19.1124L17.6131 12.8484L14.2001 16.2614ZM19.2921 20.8704C18.9246 21.2339 18.4886 21.521 18.0093 21.7148C17.53 21.9086 17.0171 22.0053 16.5001 21.9994C10.2661 21.9994 2.00012 13.7324 2.00012 7.49936C1.99423 6.98219 2.09108 6.469 2.28506 5.98955C2.47903 5.5101 2.76627 5.07394 3.13012 4.70636L4.88712 2.94936L8.32412 6.38636L5.38812 9.32136L5.63412 9.93536C6.35536 11.8647 7.48288 13.6164 8.94027 15.0719C10.3977 16.5274 12.1509 17.6526 14.0811 18.3714L14.6871 18.6024L17.6131 15.6764L21.0491 19.1124L19.2921 20.8704ZM20.9141 4.49936L23.9571 7.54236L22.5431 8.95636L19.5001 5.91336L16.4571 8.95636L15.0431 7.54236L18.0861 4.49936L15.0431 1.45636L16.4571 0.0423584L19.5001 3.08536L22.5431 0.0423584L23.9571 1.45636L20.9141 4.49936Z" fill="#374957"/>
</g>
<defs>
<clipPath id="clip0_403_3588">
<rect width="24" height="24" fill="white"/>
</clipPath>
</defs>
</svg>
