<svg width="32" height="32" viewBox="0 0 32 32" fill="none" xmlns="http://www.w3.org/2000/svg">
<g clip-path="url(#clip0_403_3454)" filter="url(#filter0_d_403_3454)">
<path d="M28 10L25.8 0H6.2L4.024 9.783L4 11C4.00363 11.9653 4.35917 12.8961 5 13.618V21C5 21.7956 5.31607 22.5587 5.87868 23.1213C6.44129 23.6839 7.20435 24 8 24H24C24.7956 24 25.5587 23.6839 26.1213 23.1213C26.6839 22.5587 27 21.7956 27 21V13.618C27.6408 12.8961 27.9964 11.9653 28 11V10ZM6 10.109L7.8 2H11V6H13V2H19V6H21V2H24.2L26 10.109V11C26 11.5304 25.7893 12.0391 25.4142 12.4142C25.0391 12.7893 24.5304 13 24 13H23C22.4696 13 21.9609 12.7893 21.5858 12.4142C21.2107 12.0391 21 11.5304 21 11H19C19 11.5304 18.7893 12.0391 18.4142 12.4142C18.0391 12.7893 17.5304 13 17 13H15C14.4696 13 13.9609 12.7893 13.5858 12.4142C13.2107 12.0391 13 11.5304 13 11H11C11 11.5304 10.7893 12.0391 10.4142 12.4142C10.0391 12.7893 9.53043 13 9 13H8C7.46957 13 6.96086 12.7893 6.58579 12.4142C6.21071 12.0391 6 11.5304 6 11V10.109ZM24 22H8C7.73478 22 7.48043 21.8946 7.29289 21.7071C7.10536 21.5196 7 21.2652 7 21V14.858C7.32586 14.9481 7.66195 14.9958 8 15H9C9.56989 14.9982 10.1327 14.8738 10.6503 14.6354C11.168 14.3969 11.6282 14.0499 12 13.618C12.3718 14.0499 12.832 14.3969 13.3497 14.6354C13.8673 14.8738 14.4301 14.9982 15 15H17C17.5678 15.0003 18.1292 14.8794 18.6465 14.6454C19.1639 14.4114 19.6253 14.0696 20 13.643C20.3747 14.0696 20.8361 14.4114 21.3535 14.6454C21.8708 14.8794 22.4322 15.0003 23 15H24C24.338 14.9958 24.6741 14.9481 25 14.858V21C25 21.2652 24.8946 21.5196 24.7071 21.7071C24.5196 21.8946 24.2652 22 24 22Z" fill="#374957"/>
</g>
<defs>
<filter id="filter0_d_403_3454" x="0" y="0" width="32" height="32" filterUnits="userSpaceOnUse" color-interpolation-filters="sRGB">
<feFlood flood-opacity="0" result="BackgroundImageFix"/>
<feColorMatrix in="SourceAlpha" type="matrix" values="0 0 0 0 0 0 0 0 0 0 0 0 0 0 0 0 0 0 127 0" result="hardAlpha"/>
<feOffset dy="4"/>
<feGaussianBlur stdDeviation="2"/>
<feComposite in2="hardAlpha" operator="out"/>
<feColorMatrix type="matrix" values="0 0 0 0 0 0 0 0 0 0 0 0 0 0 0 0 0 0 0.25 0"/>
<feBlend mode="normal" in2="BackgroundImageFix" result="effect1_dropShadow_403_3454"/>
<feBlend mode="normal" in="SourceGraphic" in2="effect1_dropShadow_403_3454" result="shape"/>
</filter>
<clipPath id="clip0_403_3454">
<rect width="24" height="24" fill="white" transform="translate(4)"/>
</clipPath>
</defs>
</svg>
