<svg width="24" height="24" viewBox="0 0 24 24" fill="none" xmlns="http://www.w3.org/2000/svg">
<g clip-path="url(#clip0_403_3537)">
<path d="M7.00012 12H17.0001V14H7.00012V12ZM7.00012 18H14.0001V16H7.00012V18ZM22.0001 7.586V24H2.00012V3C2.00012 2.20435 2.31619 1.44129 2.8788 0.87868C3.44141 0.31607 4.20447 0 5.00012 0L14.4141 0L22.0001 7.586ZM15.0001 7H18.5861L15.0001 3.414V7ZM20.0001 22V9H13.0001V2H5.00012C4.73491 2 4.48055 2.10536 4.29302 2.29289C4.10548 2.48043 4.00012 2.73478 4.00012 3V22H20.0001Z" fill="#374957"/>
</g>
<defs>
<clipPath id="clip0_403_3537">
<rect width="24" height="24" fill="white"/>
</clipPath>
</defs>
</svg>
