<svg width="24" height="24" viewBox="0 0 24 24" fill="none" xmlns="http://www.w3.org/2000/svg">
<g clip-path="url(#clip0_403_3615)">
<path d="M19 10C20.1568 9.99932 21.2776 9.59755 22.1714 8.86315C23.0651 8.12874 23.6766 7.10715 23.9016 5.97244C24.1266 4.83773 23.9511 3.66011 23.4052 2.64025C22.8592 1.62038 21.9765 0.821378 20.9075 0.379376C19.8385 -0.062626 18.6493 -0.120275 17.5425 0.216253C16.4357 0.55278 15.4799 1.26266 14.8379 2.22494C14.1958 3.18721 13.9073 4.34234 14.0215 5.49349C14.1357 6.64464 14.6454 7.72059 15.464 8.538C15.9282 9.00235 16.4795 9.37051 17.0863 9.62139C17.6931 9.87227 18.3434 10.0009 19 10ZM21.122 7.124C20.6829 7.55932 20.1199 7.84831 19.5102 7.95142C18.9005 8.05452 18.2739 7.96671 17.716 7.7L21.7 3.716C21.9665 4.27407 22.0539 4.90085 21.9505 5.51055C21.847 6.12025 21.5577 6.68308 21.122 7.122V7.124ZM16.878 2.878C17.3169 2.44235 17.8797 2.15299 18.4895 2.04952C19.0992 1.94606 19.7259 2.03354 20.284 2.3L16.3 6.284C16.0335 5.72593 15.9461 5.09915 16.0495 4.48945C16.153 3.87975 16.4423 3.31692 16.878 2.878V2.878ZM24 9.9V24H0V6C0 5.20435 0.31607 4.44129 0.87868 3.87868C1.44129 3.31607 2.20435 3 3 3H12.293C12.0997 3.64911 12.001 4.32271 12 5H3C2.73478 5 2.48043 5.10536 2.29289 5.29289C2.10536 5.48043 2 5.73478 2 6V6.242L9.878 14.122C10.4498 14.6675 11.2097 14.9719 12 14.9719C12.7903 14.9719 13.5502 14.6675 14.122 14.122L16.654 11.59C17.407 11.8592 18.2004 11.9978 19 12C19.026 12 19.051 12 19.077 12L15.536 15.542C15.0717 16.0064 14.5204 16.3748 13.9137 16.6262C13.307 16.8776 12.6567 17.0069 12 17.0069C11.3433 17.0069 10.693 16.8776 10.0863 16.6262C9.47956 16.3748 8.92831 16.0064 8.464 15.542L2 9.071V22H22V11.318C22.7238 10.9775 23.3835 10.5147 23.95 9.95C23.968 9.932 23.983 9.912 24 9.9Z" fill="#374957"/>
</g>
<defs>
<clipPath id="clip0_403_3615">
<rect width="24" height="24" fill="white"/>
</clipPath>
</defs>
</svg>
