<svg width="28" height="32" viewBox="0 0 28 32" fill="none" xmlns="http://www.w3.org/2000/svg">
<g clip-path="url(#clip0_403_3395)" filter="url(#filter0_d_403_3395)">
<path d="M16.4142 0H7.00015C6.2045 0 5.44144 0.31607 4.87883 0.87868C4.31622 1.44129 4.00015 2.20435 4.00015 3V24H24.0002V7.586L16.4142 0ZM17.0002 3.414L20.5862 7H17.0002V3.414ZM6.00015 22V3C6.00015 2.73478 6.10551 2.48043 6.29305 2.29289C6.48058 2.10536 6.73494 2 7.00015 2H15.0002V9H22.0002V22H6.00015ZM17.2932 13.122L18.7072 14.536L15.1212 18.121C14.8426 18.3996 14.5118 18.6207 14.1478 18.7715C13.7838 18.9222 13.3937 18.9999 12.9997 18.9999C12.6056 18.9999 12.2155 18.9222 11.8515 18.7715C11.4875 18.6207 11.1567 18.3996 10.8782 18.121L9.29315 16.536L10.7072 15.122L12.2932 16.707C12.4835 16.889 12.7368 16.9906 13.0002 16.9906C13.2635 16.9906 13.5168 16.889 13.7072 16.707L17.2932 13.122Z" fill="#374957"/>
</g>
<defs>
<filter id="filter0_d_403_3395" x="-2" y="0" width="32" height="32" filterUnits="userSpaceOnUse" color-interpolation-filters="sRGB">
<feFlood flood-opacity="0" result="BackgroundImageFix"/>
<feColorMatrix in="SourceAlpha" type="matrix" values="0 0 0 0 0 0 0 0 0 0 0 0 0 0 0 0 0 0 127 0" result="hardAlpha"/>
<feOffset dy="4"/>
<feGaussianBlur stdDeviation="2"/>
<feComposite in2="hardAlpha" operator="out"/>
<feColorMatrix type="matrix" values="0 0 0 0 0 0 0 0 0 0 0 0 0 0 0 0 0 0 0.25 0"/>
<feBlend mode="normal" in2="BackgroundImageFix" result="effect1_dropShadow_403_3395"/>
<feBlend mode="normal" in="SourceGraphic" in2="effect1_dropShadow_403_3395" result="shape"/>
</filter>
<clipPath id="clip0_403_3395">
<rect width="24" height="24" fill="white" transform="translate(2)"/>
</clipPath>
</defs>
</svg>
