<svg width="24" height="24" viewBox="0 0 24 24" fill="none" xmlns="http://www.w3.org/2000/svg">
<g clip-path="url(#clip0_403_3296)">
<path d="M12 0C9.62663 0 7.30655 0.703788 5.33316 2.02236C3.35977 3.34094 1.8217 5.21509 0.913451 7.4078C0.00519943 9.60051 -0.232441 12.0133 0.230582 14.3411C0.693605 16.6689 1.83649 18.8071 3.51472 20.4853C5.19295 22.1635 7.33115 23.3064 9.65892 23.7694C11.9867 24.2324 14.3995 23.9948 16.5922 23.0866C18.7849 22.1783 20.6591 20.6402 21.9776 18.6668C23.2962 16.6935 24 14.3734 24 12C23.9966 8.81846 22.7312 5.76821 20.4815 3.51852C18.2318 1.26883 15.1815 0.00344108 12 0V0ZM21.029 16.271C17.3365 17.4231 13.3536 17.2167 9.80001 15.689C10.4339 14.7069 11.2358 13.844 12.169 13.14C13.5826 13.7116 15.0923 14.0079 16.617 14.013C18.472 14.0128 20.3021 13.5851 21.965 12.763C21.8719 13.98 21.5546 15.1694 21.029 16.271ZM21.875 10.503C20.9688 11.0675 19.9779 11.4828 18.94 11.733C18.7248 8.52909 17.6641 5.4395 15.866 2.779C17.4441 3.44499 18.825 4.50444 19.877 5.85615C20.929 7.20787 21.6169 8.80671 21.875 10.5V10.503ZM12.748 2.038C15.2447 4.77636 16.7271 8.28791 16.948 11.987C15.5814 12.0341 14.2198 11.7992 12.948 11.297C12.8497 9.62482 12.4033 7.9916 11.6373 6.50191C10.8714 5.01222 9.8028 3.69889 8.50001 2.646C9.6182 2.22147 10.8039 2.00262 12 2C12.253 2 12.5 2.019 12.748 2.038V2.038ZM6.48701 3.665C7.42641 4.27759 8.25628 5.04358 8.94201 5.931C5.94281 7.9371 3.60731 10.7891 2.23201 14.125C1.79941 12.1557 1.97455 10.1015 2.73428 8.23388C3.49401 6.36625 4.80256 4.77311 6.48701 3.665V3.665ZM3.36501 17.02C4.35398 13.1958 6.70473 9.86397 9.97601 7.65C10.5677 8.86616 10.9055 10.19 10.969 11.541C9.6197 12.5663 8.50219 13.8651 7.68965 15.3523C6.87712 16.8395 6.38789 18.4816 6.25401 20.171C5.07657 19.3396 4.09137 18.265 3.36501 17.02ZM12 22C10.7063 21.9996 9.425 21.7469 8.22801 21.256C8.20598 19.9661 8.43418 18.6841 8.90001 17.481C11.2012 18.4923 13.6864 19.0173 16.2 19.023C17.2637 19.021 18.3251 18.9253 19.372 18.737C18.4385 19.7646 17.3004 20.5857 16.0309 21.1476C14.7613 21.7096 13.3883 21.9999 12 22Z" fill="#374957"/>
</g>
<defs>
<clipPath id="clip0_403_3296">
<rect width="24" height="24" fill="white"/>
</clipPath>
</defs>
</svg>
