<svg width="32" height="32" viewBox="0 0 32 32" fill="none" xmlns="http://www.w3.org/2000/svg">
<g clip-path="url(#clip0_403_3668)" filter="url(#filter0_d_403_3668)">
<path d="M28.0002 11.9841C28.0003 10.9307 27.5848 9.9197 26.8439 9.17078C26.103 8.42186 25.0966 7.99544 24.0432 7.98411C23.1665 6.23793 21.7481 4.82239 20.0002 3.94911C19.9489 2.92414 19.5056 1.9581 18.762 1.25079C18.0185 0.543492 17.0315 0.149048 16.0052 0.149048C14.979 0.149048 13.992 0.543492 13.2484 1.25079C12.5048 1.9581 12.0615 2.92414 12.0102 3.94911C10.258 4.82168 8.83584 6.23888 7.95721 7.98811C6.90863 8.00247 5.90774 8.42855 5.17055 9.1744C4.43337 9.92025 4.01902 10.9261 4.01691 11.9747C4.01481 13.0234 4.42514 14.0309 5.15933 14.7797C5.89352 15.5285 6.89269 15.9586 7.94121 15.9771C8.8162 17.7414 10.2431 19.1718 12.0052 20.0511C12.0565 21.0761 12.4998 22.0421 13.2434 22.7494C13.987 23.4567 14.974 23.8512 16.0002 23.8512C17.0265 23.8512 18.0135 23.4567 18.757 22.7494C19.5006 22.0421 19.9439 21.0761 19.9952 20.0511C21.7573 19.1718 23.1842 17.7414 24.0592 15.9771C25.1086 15.9616 26.1099 15.5343 26.8471 14.7874C27.5844 14.0404 27.9985 13.0336 28.0002 11.9841ZM16.0002 2.00011C16.3958 2.00011 16.7825 2.11741 17.1114 2.33717C17.4403 2.55693 17.6966 2.86929 17.848 3.23474C17.9993 3.6002 18.039 4.00233 17.9618 4.39029C17.8846 4.77825 17.6941 5.13462 17.4144 5.41432C17.1347 5.69403 16.7784 5.88451 16.3904 5.96168C16.0024 6.03885 15.6003 5.99924 15.2348 5.84787C14.8694 5.69649 14.557 5.44015 14.3373 5.11125C14.1175 4.78235 14.0002 4.39567 14.0002 4.00011C14.0002 3.46968 14.2109 2.96097 14.586 2.5859C14.9611 2.21082 15.4698 2.00011 16.0002 2.00011ZM6.00021 11.9841C6.00021 11.5885 6.11751 11.2019 6.33727 10.873C6.55704 10.5441 6.86939 10.2877 7.23484 10.1364C7.6003 9.98498 8.00243 9.94537 8.39039 10.0225C8.77835 10.0997 9.13472 10.2902 9.41443 10.5699C9.69413 10.8496 9.88461 11.206 9.96178 11.5939C10.039 11.9819 9.99935 12.384 9.84797 12.7495C9.6966 13.1149 9.44025 13.4273 9.11135 13.647C8.78245 13.8668 8.39577 13.9841 8.00021 13.9841C7.46978 13.9841 6.96107 13.7734 6.586 13.3983C6.21093 13.0233 6.00021 12.5145 6.00021 11.9841ZM16.0002 22.0001C15.6046 22.0001 15.218 21.8828 14.8891 21.663C14.5602 21.4433 14.3038 21.1309 14.1525 20.7655C14.0011 20.4 13.9615 19.9979 14.0386 19.6099C14.1158 19.222 14.3063 18.8656 14.586 18.5859C14.8657 18.3062 15.2221 18.1157 15.61 18.0385C15.998 17.9614 16.4001 18.001 16.7656 18.1524C17.131 18.3037 17.4434 18.5601 17.6632 18.889C17.8829 19.2179 18.0002 19.6045 18.0002 20.0001C18.0002 20.5305 17.7895 21.0393 17.4144 21.4143C17.0394 21.7894 16.5306 22.0001 16.0002 22.0001ZM19.4782 18.0611C19.1367 17.4372 18.6336 16.9166 18.0216 16.554C17.4097 16.1913 16.7115 16 16.0002 16C15.2889 16 14.5907 16.1913 13.9788 16.554C13.3669 16.9166 12.8638 17.4372 12.5222 18.0611C11.4448 17.4378 10.5513 16.5409 9.93221 15.4611C10.5569 15.1208 11.0785 14.6187 11.4424 14.0075C11.8063 13.3962 11.9991 12.6984 12.0007 11.9871C12.0022 11.2757 11.8124 10.577 11.4511 9.96426C11.0898 9.35148 10.5704 8.84715 9.94721 8.50411C10.566 7.43697 11.4539 6.55082 12.5222 5.93411C12.8638 6.55805 13.3669 7.07862 13.9788 7.44125C14.5907 7.80389 15.2889 7.99523 16.0002 7.99523C16.7115 7.99523 17.4097 7.80389 18.0216 7.44125C18.6336 7.07862 19.1367 6.55805 19.4782 5.93411C20.5465 6.55082 21.4344 7.43697 22.0532 8.50411C21.43 8.84715 20.9106 9.35148 20.5493 9.96426C20.188 10.577 19.9982 11.2757 19.9997 11.9871C20.0013 12.6984 20.1941 13.3962 20.558 14.0075C20.922 14.6187 21.4436 15.1208 22.0682 15.4611C21.4491 16.5409 20.5556 17.4378 19.4782 18.0611ZM24.0002 13.9831C23.6047 13.9831 23.218 13.8658 22.8891 13.646C22.5602 13.4263 22.3038 13.1139 22.1525 12.7485C22.0011 12.383 21.9615 11.9809 22.0386 11.5929C22.1158 11.205 22.3063 10.8486 22.586 10.5689C22.8657 10.2892 23.2221 10.0987 23.61 10.0215C23.998 9.94437 24.4001 9.98398 24.7656 10.1354C25.131 10.2867 25.4434 10.5431 25.6632 10.872C25.8829 11.2009 26.0002 11.5875 26.0002 11.9831C26.0002 12.5135 25.7895 13.0223 25.4144 13.3973C25.0394 13.7724 24.5306 13.9831 24.0002 13.9831Z" fill="#374957"/>
</g>
<defs>
<filter id="filter0_d_403_3668" x="0" y="0" width="32" height="32" filterUnits="userSpaceOnUse" color-interpolation-filters="sRGB">
<feFlood flood-opacity="0" result="BackgroundImageFix"/>
<feColorMatrix in="SourceAlpha" type="matrix" values="0 0 0 0 0 0 0 0 0 0 0 0 0 0 0 0 0 0 127 0" result="hardAlpha"/>
<feOffset dy="4"/>
<feGaussianBlur stdDeviation="2"/>
<feComposite in2="hardAlpha" operator="out"/>
<feColorMatrix type="matrix" values="0 0 0 0 0 0 0 0 0 0 0 0 0 0 0 0 0 0 0.25 0"/>
<feBlend mode="normal" in2="BackgroundImageFix" result="effect1_dropShadow_403_3668"/>
<feBlend mode="normal" in="SourceGraphic" in2="effect1_dropShadow_403_3668" result="shape"/>
</filter>
<clipPath id="clip0_403_3668">
<rect width="24" height="24" fill="white" transform="translate(4)"/>
</clipPath>
</defs>
</svg>
