<svg width="32" height="32" viewBox="0 0 32 32" fill="none" xmlns="http://www.w3.org/2000/svg">
<g clip-path="url(#clip0_403_3744)" filter="url(#filter0_d_403_3744)">
<path d="M25 0H7C6.20435 0 5.44129 0.31607 4.87868 0.87868C4.31607 1.44129 4 2.20435 4 3V24H22.414L28 18.414V3C28 2.20435 27.6839 1.44129 27.1213 0.87868C26.5587 0.31607 25.7956 0 25 0V0ZM22 21.586V18H25.586L22 21.586ZM26 16H20V22H6V3C6 2.73478 6.10536 2.48043 6.29289 2.29289C6.48043 2.10536 6.73478 2 7 2H25C25.2652 2 25.5196 2.10536 25.7071 2.29289C25.8946 2.48043 26 2.73478 26 3V16ZM14.967 5H13V11.069H14.25V8.969H14.967C15.4935 8.969 15.9983 8.75987 16.3706 8.38761C16.7429 8.01535 16.952 7.51045 16.952 6.984C16.952 6.45755 16.7429 5.95265 16.3706 5.58039C15.9983 5.20813 15.4935 4.999 14.967 4.999V5ZM14.967 7.72H14.257V6.247H14.972C15.1669 6.247 15.3539 6.32444 15.4917 6.46228C15.6296 6.60012 15.707 6.78707 15.707 6.982C15.707 7.17693 15.6296 7.36388 15.4917 7.50172C15.3539 7.63956 15.1669 7.717 14.972 7.717L14.967 7.72ZM19.251 7V9.068C19.2498 9.16679 19.2683 9.26482 19.3055 9.35635C19.3427 9.44788 19.3978 9.53105 19.4676 9.60101C19.5373 9.67096 19.6204 9.72627 19.7118 9.76371C19.8032 9.80114 19.9012 9.81994 20 9.819C20.1956 9.81678 20.3829 9.73909 20.5226 9.60214C20.6624 9.46519 20.7438 9.27956 20.75 9.084V9H20V8H22V9.084C21.9958 9.61166 21.7832 10.1163 21.4086 10.4879C21.034 10.8595 20.5277 11.068 20 11.068V11.068C19.7383 11.0692 19.4789 11.0188 19.2367 10.9196C18.9945 10.8205 18.7742 10.6745 18.5885 10.4902C18.4027 10.3058 18.2551 10.0866 18.1541 9.84516C18.0532 9.60371 18.0008 9.34472 18 9.083V6.983C18.001 6.72145 18.0536 6.46268 18.1547 6.22145C18.2558 5.98023 18.4034 5.76129 18.5892 5.57713C18.7749 5.39298 18.9951 5.24723 19.2372 5.1482C19.4792 5.04918 19.7385 4.99882 20 5C20.5294 5.00341 21.0361 5.21522 21.4104 5.58955C21.7848 5.96389 21.9966 6.47062 22 7H20.75C20.7445 6.80284 20.6637 6.61528 20.5242 6.47581C20.3847 6.33634 20.1972 6.25554 20 6.25C19.9013 6.24906 19.8034 6.26783 19.712 6.3052C19.6207 6.34257 19.5377 6.3978 19.4679 6.46764C19.3982 6.53749 19.3431 6.62055 19.3058 6.71196C19.2686 6.80337 19.2499 6.9013 19.251 7V7ZM10.75 5H12V9.084C11.9992 9.34572 11.9468 9.60471 11.8459 9.84616C11.7449 10.0876 11.5973 10.3068 11.4115 10.4912C11.2258 10.6755 11.0055 10.8215 10.7633 10.9206C10.5211 11.0198 10.2617 11.0702 10 11.069V11.069C9.47216 11.069 8.96571 10.8604 8.59106 10.4885C8.21642 10.1167 8.00396 9.61183 8 9.084V9H9.255C9.255 9 9.255 9.054 9.255 9.084C9.26113 9.27871 9.34189 9.46361 9.48057 9.60043C9.61925 9.73725 9.80522 9.8155 10 9.819C10.0988 9.81994 10.1968 9.80114 10.2882 9.76371C10.3796 9.72627 10.4627 9.67096 10.5324 9.60101C10.6022 9.53105 10.6573 9.44788 10.6945 9.35635C10.7317 9.26482 10.7502 9.16679 10.749 9.068L10.75 5Z" fill="#374957"/>
</g>
<defs>
<filter id="filter0_d_403_3744" x="0" y="0" width="32" height="32" filterUnits="userSpaceOnUse" color-interpolation-filters="sRGB">
<feFlood flood-opacity="0" result="BackgroundImageFix"/>
<feColorMatrix in="SourceAlpha" type="matrix" values="0 0 0 0 0 0 0 0 0 0 0 0 0 0 0 0 0 0 127 0" result="hardAlpha"/>
<feOffset dy="4"/>
<feGaussianBlur stdDeviation="2"/>
<feComposite in2="hardAlpha" operator="out"/>
<feColorMatrix type="matrix" values="0 0 0 0 0 0 0 0 0 0 0 0 0 0 0 0 0 0 0.25 0"/>
<feBlend mode="normal" in2="BackgroundImageFix" result="effect1_dropShadow_403_3744"/>
<feBlend mode="normal" in="SourceGraphic" in2="effect1_dropShadow_403_3744" result="shape"/>
</filter>
<clipPath id="clip0_403_3744">
<rect width="24" height="24" fill="white" transform="translate(4)"/>
</clipPath>
</defs>
</svg>
