<svg width="32" height="32" viewBox="0 0 32 32" fill="none" xmlns="http://www.w3.org/2000/svg">
<g clip-path="url(#clip0_403_3567)" filter="url(#filter0_d_403_3567)">
<path d="M8.29447 21.8685C5.33788 21.1767 3.50192 18.219 4.19375 15.2624C4.54892 13.7446 5.53166 12.4489 6.8975 11.6977C4.84653 7.79518 6.34752 2.96888 10.25 0.917911C14.1526 -1.13306 18.9789 0.367927 21.0298 4.27046C21.3579 4.8946 21.6017 5.55943 21.7551 6.2476C25.407 7.09079 27.9831 10.3576 27.9516 14.1054C27.3267 13.4803 26.588 12.9803 25.7753 12.6327C25.201 10.2323 23.2124 8.43038 20.7673 8.09457L20.0099 7.99477L19.9101 7.23844C19.4719 3.96441 16.4626 1.66557 13.1886 2.10375C9.91461 2.54194 7.61572 5.55132 8.05391 8.8253C8.18792 9.82669 8.57347 10.7778 9.1745 11.5899L10.1993 13.0238C9.67011 12.9869 9.13836 13.0293 8.6217 13.1495C6.75922 13.6508 5.65574 15.5671 6.15702 17.4296C6.42139 18.4119 7.10094 19.2301 8.018 19.6703C7.96091 20.4142 8.05494 21.1619 8.29447 21.8685ZM27.9516 19.0107C27.9488 16.5594 26.168 14.4722 23.7478 14.0835C21.8698 7.62455 12.4075 9.42061 13.0221 16.134C10.8849 16.685 9.5991 18.8642 10.1501 21.0015C10.6017 22.7529 12.1734 23.9828 13.982 23.9999H22.9625C25.7165 23.9966 27.9483 21.7648 27.9516 19.0107ZM15.6784 18.0129L15.2024 16.6799C13.6687 11.7705 21.1404 10.0394 21.9257 15.1343L22.0255 16.0223H23.0233C24.6746 16.1045 25.9465 17.5096 25.8644 19.1608C25.7868 20.7204 24.5234 21.9584 22.9625 22.0043H13.982C12.8799 22.0043 11.9864 21.1108 11.9864 20.0086C11.9864 18.9064 12.8799 18.0129 13.982 18.0129H15.6784V18.0129Z" fill="#374957"/>
</g>
<defs>
<filter id="filter0_d_403_3567" x="0" y="0" width="32" height="32" filterUnits="userSpaceOnUse" color-interpolation-filters="sRGB">
<feFlood flood-opacity="0" result="BackgroundImageFix"/>
<feColorMatrix in="SourceAlpha" type="matrix" values="0 0 0 0 0 0 0 0 0 0 0 0 0 0 0 0 0 0 127 0" result="hardAlpha"/>
<feOffset dy="4"/>
<feGaussianBlur stdDeviation="2"/>
<feComposite in2="hardAlpha" operator="out"/>
<feColorMatrix type="matrix" values="0 0 0 0 0 0 0 0 0 0 0 0 0 0 0 0 0 0 0.25 0"/>
<feBlend mode="normal" in2="BackgroundImageFix" result="effect1_dropShadow_403_3567"/>
<feBlend mode="normal" in="SourceGraphic" in2="effect1_dropShadow_403_3567" result="shape"/>
</filter>
<clipPath id="clip0_403_3567">
<rect width="24" height="24" fill="white" transform="translate(4)"/>
</clipPath>
</defs>
</svg>
