<svg width="24" height="24" viewBox="0 0 24 24" fill="none" xmlns="http://www.w3.org/2000/svg">
<g clip-path="url(#clip0_403_3749)">
<path d="M12 0C9.62663 0 7.30655 0.703788 5.33316 2.02236C3.35977 3.34094 1.8217 5.21509 0.913451 7.4078C0.00519943 9.60051 -0.232441 12.0133 0.230582 14.3411C0.693605 16.6689 1.83649 18.8071 3.51472 20.4853C5.19295 22.1635 7.33115 23.3064 9.65892 23.7694C11.9867 24.2324 14.3995 23.9948 16.5922 23.0866C18.7849 22.1783 20.6591 20.6402 21.9776 18.6668C23.2962 16.6935 24 14.3734 24 12C23.9966 8.81846 22.7312 5.76821 20.4815 3.51852C18.2318 1.26883 15.1815 0.00344108 12 0V0ZM17.812 15.485L19.578 14.958L19.006 13.042L17.173 13.588C17.0625 13.0658 17.0045 12.5338 17 12C17.0045 11.4662 17.0624 10.9342 17.173 10.412L19.006 10.958L19.578 9.042L17.812 8.515C18.3047 7.49446 19.0094 6.5907 19.879 5.864C21.2531 7.61413 22 9.77487 22 12C22 14.2251 21.2531 16.3859 19.879 18.136C19.0094 17.4093 18.3047 16.5055 17.812 15.485V15.485ZM4.12101 5.864C4.9906 6.5907 5.69527 7.49446 6.18801 8.515L4.42201 9.042L4.99401 10.958L6.82701 10.412C6.9376 10.9342 6.99556 11.4662 7.00001 12C6.99546 12.5338 6.93751 13.0658 6.82701 13.588L4.99401 13.042L4.42201 14.958L6.18801 15.485C5.69527 16.5055 4.9906 17.4093 4.12101 18.136C2.74687 16.3859 1.99997 14.2251 1.99997 12C1.99997 9.77487 2.74687 7.61413 4.12101 5.864V5.864ZM5.50701 19.59C6.62978 18.6226 7.52278 17.417 8.12101 16.061L10.172 16.673L10.744 14.756L8.75101 14.156C8.91182 13.4485 8.99531 12.7256 9.00001 12C8.99567 11.2728 8.91218 10.5482 8.75101 9.839L10.744 9.239L10.172 7.322L8.12101 7.934C7.52214 6.57982 6.62919 5.37601 5.50701 4.41C7.313 2.85522 9.61695 2.0001 12 2.0001C14.3831 2.0001 16.687 2.85522 18.493 4.41C17.3702 5.37744 16.4772 6.58301 15.879 7.939L13.828 7.327L13.256 9.244L15.249 9.844C14.9169 11.2655 14.9169 12.7445 15.249 14.166L13.256 14.766L13.828 16.683L15.879 16.071C16.4772 17.427 17.3702 18.6326 18.493 19.6C16.687 21.1548 14.3831 22.0099 12 22.0099C9.61695 22.0099 7.313 21.1548 5.50701 19.6V19.59Z" fill="#374957"/>
</g>
<defs>
<clipPath id="clip0_403_3749">
<rect width="24" height="24" fill="white"/>
</clipPath>
</defs>
</svg>
