<svg width="24" height="32" viewBox="0 0 24 32" fill="none" xmlns="http://www.w3.org/2000/svg">
<g clip-path="url(#clip0_403_3606)" filter="url(#filter0_d_403_3606)">
<path d="M15.4998 3H12.9998V0H10.9998V3H8.49985C7.30678 3.00132 6.16296 3.47585 5.31933 4.31948C4.4757 5.16311 4.00117 6.30693 3.99985 7.5V16C3.99985 18.1217 4.8427 20.1566 6.34299 21.6569C7.84328 23.1571 9.87812 24 11.9998 24C14.1216 24 16.1564 23.1571 17.6567 21.6569C19.157 20.1566 19.9998 18.1217 19.9998 16V7.5C19.9985 6.30693 19.524 5.16311 18.6804 4.31948C17.8367 3.47585 16.6929 3.00132 15.4998 3V3ZM17.9998 16C17.9998 17.5913 17.3677 19.1174 16.2425 20.2426C15.1173 21.3679 13.5911 22 11.9998 22C10.4085 22 8.88243 21.3679 7.75721 20.2426C6.63199 19.1174 5.99985 17.5913 5.99985 16V7.5C5.99985 6.83696 6.26324 6.20107 6.73208 5.73223C7.20092 5.26339 7.83681 5 8.49985 5H15.4998C16.1629 5 16.7988 5.26339 17.2676 5.73223C17.7365 6.20107 17.9998 6.83696 17.9998 7.5V16Z" fill="#374957"/>
<path d="M12.9997 7.00031H10.9997V11.0003H12.9997V7.00031Z" fill="#374957"/>
</g>
<defs>
<filter id="filter0_d_403_3606" x="-4" y="0" width="32" height="32" filterUnits="userSpaceOnUse" color-interpolation-filters="sRGB">
<feFlood flood-opacity="0" result="BackgroundImageFix"/>
<feColorMatrix in="SourceAlpha" type="matrix" values="0 0 0 0 0 0 0 0 0 0 0 0 0 0 0 0 0 0 127 0" result="hardAlpha"/>
<feOffset dy="4"/>
<feGaussianBlur stdDeviation="2"/>
<feComposite in2="hardAlpha" operator="out"/>
<feColorMatrix type="matrix" values="0 0 0 0 0 0 0 0 0 0 0 0 0 0 0 0 0 0 0.25 0"/>
<feBlend mode="normal" in2="BackgroundImageFix" result="effect1_dropShadow_403_3606"/>
<feBlend mode="normal" in="SourceGraphic" in2="effect1_dropShadow_403_3606" result="shape"/>
</filter>
<clipPath id="clip0_403_3606">
<rect width="24" height="24" fill="white"/>
</clipPath>
</defs>
</svg>
