<svg width="32" height="32" viewBox="0 0 32 32" fill="none" xmlns="http://www.w3.org/2000/svg">
<g clip-path="url(#clip0_403_3716)" filter="url(#filter0_d_403_3716)">
<path d="M16.0002 2.00009C17.3267 2.00444 18.6392 2.27183 19.8617 2.78677C21.0842 3.30172 22.1924 4.05401 23.1222 5.00009H19.0002V7.00009H24.1432C24.6355 6.99956 25.1076 6.80374 25.4557 6.4556C25.8038 6.10746 25.9997 5.63543 26.0002 5.14309V8.75784e-05H24.0002V3.07809C22.2777 1.52695 20.1422 0.508743 17.8526 0.146896C15.563 -0.21495 13.2176 0.0950946 11.1007 1.03945C8.98379 1.98381 7.18624 3.52193 5.92594 5.46738C4.66564 7.41283 3.9967 9.68209 4.0002 12.0001H6.0002C6.00311 9.34882 7.05761 6.80697 8.93234 4.93224C10.8071 3.0575 13.3489 2.003 16.0002 2.00009V2.00009Z" fill="#374957"/>
<path d="M26.0002 12C26.0031 13.9853 25.4141 15.9265 24.3085 17.5755C23.2029 19.2245 21.6309 20.5065 19.7932 21.2578C17.9555 22.0091 15.9355 22.1956 13.9914 21.7934C12.0472 21.3913 10.267 20.4187 8.87818 19H13.0002V17H7.85718C7.36484 17.0005 6.89281 17.1963 6.54467 17.5445C6.19653 17.8926 6.00071 18.3647 6.00018 18.857V24H8.00018V20.922C9.72271 22.4731 11.8582 23.4913 14.1478 23.8532C16.4374 24.215 18.7828 23.905 20.8997 22.9606C23.0166 22.0163 24.8141 20.4782 26.0744 18.5327C27.3347 16.5873 28.0037 14.318 28.0002 12H26.0002Z" fill="#374957"/>
</g>
<defs>
<filter id="filter0_d_403_3716" x="0" y="0" width="32" height="32" filterUnits="userSpaceOnUse" color-interpolation-filters="sRGB">
<feFlood flood-opacity="0" result="BackgroundImageFix"/>
<feColorMatrix in="SourceAlpha" type="matrix" values="0 0 0 0 0 0 0 0 0 0 0 0 0 0 0 0 0 0 127 0" result="hardAlpha"/>
<feOffset dy="4"/>
<feGaussianBlur stdDeviation="2"/>
<feComposite in2="hardAlpha" operator="out"/>
<feColorMatrix type="matrix" values="0 0 0 0 0 0 0 0 0 0 0 0 0 0 0 0 0 0 0.25 0"/>
<feBlend mode="normal" in2="BackgroundImageFix" result="effect1_dropShadow_403_3716"/>
<feBlend mode="normal" in="SourceGraphic" in2="effect1_dropShadow_403_3716" result="shape"/>
</filter>
<clipPath id="clip0_403_3716">
<rect width="24" height="24" fill="white" transform="translate(4)"/>
</clipPath>
</defs>
</svg>
