<svg width="32" height="32" viewBox="0 0 32 32" fill="none" xmlns="http://www.w3.org/2000/svg">
<g clip-path="url(#clip0_403_3399)" filter="url(#filter0_d_403_3399)">
<path d="M21.6129 12.848L18.1999 16.262C15.2881 15.0287 12.9724 12.7077 11.7459 9.793L15.1459 6.387L8.88693 0.122L5.71693 3.292C5.16616 3.84463 4.73074 4.50123 4.43598 5.22363C4.14122 5.94603 3.993 6.71981 3.99993 7.5C3.99993 14.748 13.2519 24 20.4999 24C21.2798 24.0067 22.0532 23.8586 22.7753 23.5642C23.4975 23.2698 24.1541 22.835 24.7069 22.285L27.8779 19.113L21.6129 12.848ZM23.2919 20.871C22.9244 21.2346 22.4884 21.5216 22.0091 21.7154C21.5298 21.9092 21.0169 22.0059 20.4999 22C14.2669 22 5.99993 13.734 5.99993 7.5C5.99378 6.98295 6.09052 6.46983 6.28452 5.99051C6.47851 5.51119 6.76589 5.07523 7.12993 4.708L8.88693 2.951L12.3229 6.387L9.38893 9.323L9.63493 9.936C10.3555 11.8655 11.4827 13.6175 12.9399 15.0731C14.3972 16.5286 16.1505 17.6537 18.0809 18.372L18.6869 18.604L21.6129 15.676L25.0499 19.113L23.2919 20.871ZM25.9999 8H23.9999V0H25.9999V8ZM21.9999 8H19.9999V0H21.9999V8Z" fill="#374957"/>
</g>
<defs>
<filter id="filter0_d_403_3399" x="0" y="0" width="32" height="32" filterUnits="userSpaceOnUse" color-interpolation-filters="sRGB">
<feFlood flood-opacity="0" result="BackgroundImageFix"/>
<feColorMatrix in="SourceAlpha" type="matrix" values="0 0 0 0 0 0 0 0 0 0 0 0 0 0 0 0 0 0 127 0" result="hardAlpha"/>
<feOffset dy="4"/>
<feGaussianBlur stdDeviation="2"/>
<feComposite in2="hardAlpha" operator="out"/>
<feColorMatrix type="matrix" values="0 0 0 0 0 0 0 0 0 0 0 0 0 0 0 0 0 0 0.25 0"/>
<feBlend mode="normal" in2="BackgroundImageFix" result="effect1_dropShadow_403_3399"/>
<feBlend mode="normal" in="SourceGraphic" in2="effect1_dropShadow_403_3399" result="shape"/>
</filter>
<clipPath id="clip0_403_3399">
<rect width="24" height="24" fill="white" transform="translate(4)"/>
</clipPath>
</defs>
</svg>
