<svg width="32" height="32" viewBox="0 0 32 32" fill="none" xmlns="http://www.w3.org/2000/svg">
<g clip-path="url(#clip0_403_3551)" filter="url(#filter0_d_403_3551)">
<path d="M16 10C15.4067 10 14.8266 9.82405 14.3333 9.49441C13.8399 9.16476 13.4554 8.69623 13.2284 8.14805C13.0013 7.59987 12.9419 6.99667 13.0576 6.41473C13.1734 5.83279 13.4591 5.29824 13.8787 4.87868C14.2982 4.45912 14.8328 4.1734 15.4147 4.05764C15.9967 3.94189 16.5999 4.0013 17.1481 4.22836C17.6962 4.45542 18.1648 4.83994 18.4944 5.33329C18.8241 5.82664 19 6.40666 19 7C19 7.79565 18.6839 8.55871 18.1213 9.12132C17.5587 9.68393 16.7956 10 16 10V10ZM21 14C21 13.2044 20.6839 12.4413 20.1213 11.8787C19.5587 11.3161 18.7956 11 18 11H14C13.2044 11 12.4413 11.3161 11.8787 11.8787C11.3161 12.4413 11 13.2044 11 14V16H13V14C13 13.7348 13.1054 13.4804 13.2929 13.2929C13.4804 13.1054 13.7348 13 14 13H18C18.2652 13 18.5196 13.1054 18.7071 13.2929C18.8946 13.4804 19 13.7348 19 14V16H21V14ZM16.009 23.665C15.5156 23.6653 15.0394 23.4841 14.671 23.156L10.923 20H4V3C4 2.20435 4.31607 1.44129 4.87868 0.87868C5.44129 0.31607 6.20435 0 7 0L25 0C25.7956 0 26.5587 0.31607 27.1213 0.87868C27.6839 1.44129 28 2.20435 28 3V20H21.147L17.3 23.18C16.9436 23.4943 16.4842 23.6669 16.009 23.665V23.665ZM6 18H11.654L15.979 21.645L20.429 18H26V3C26 2.73478 25.8946 2.48043 25.7071 2.29289C25.5196 2.10536 25.2652 2 25 2H7C6.73478 2 6.48043 2.10536 6.29289 2.29289C6.10536 2.48043 6 2.73478 6 3V18Z" fill="#374957"/>
</g>
<defs>
<filter id="filter0_d_403_3551" x="0" y="0" width="32" height="32" filterUnits="userSpaceOnUse" color-interpolation-filters="sRGB">
<feFlood flood-opacity="0" result="BackgroundImageFix"/>
<feColorMatrix in="SourceAlpha" type="matrix" values="0 0 0 0 0 0 0 0 0 0 0 0 0 0 0 0 0 0 127 0" result="hardAlpha"/>
<feOffset dy="4"/>
<feGaussianBlur stdDeviation="2"/>
<feComposite in2="hardAlpha" operator="out"/>
<feColorMatrix type="matrix" values="0 0 0 0 0 0 0 0 0 0 0 0 0 0 0 0 0 0 0.25 0"/>
<feBlend mode="normal" in2="BackgroundImageFix" result="effect1_dropShadow_403_3551"/>
<feBlend mode="normal" in="SourceGraphic" in2="effect1_dropShadow_403_3551" result="shape"/>
</filter>
<clipPath id="clip0_403_3551">
<rect width="24" height="24" fill="white" transform="translate(4)"/>
</clipPath>
</defs>
</svg>
