<svg width="32" height="32" viewBox="0 0 32 32" fill="none" xmlns="http://www.w3.org/2000/svg">
<g clip-path="url(#clip0_403_3515)" filter="url(#filter0_d_403_3515)">
<path d="M25 0H7C6.20435 0 5.44129 0.31607 4.87868 0.87868C4.31607 1.44129 4 2.20435 4 3V24H22.35C24.556 21.793 25.793 20.556 28 18.35V3C28 2.20435 27.6839 1.44129 27.1213 0.87868C26.5587 0.31607 25.7956 0 25 0V0ZM6 3C6 2.73478 6.10536 2.48043 6.29289 2.29289C6.48043 2.10536 6.73478 2 7 2H25C25.2652 2 25.5196 2.10536 25.7071 2.29289C25.8946 2.48043 26 2.73478 26 3V16H20V22H6V3ZM22 21.521V18H25.521L22 21.521Z" fill="#374957"/>
<path d="M14.9839 4.99978H13.0169V11.0688H14.2669V8.96878H14.9839C15.5103 8.96878 16.0152 8.75965 16.3875 8.38739C16.7597 8.01513 16.9689 7.51023 16.9689 6.98378C16.9689 6.45732 16.7597 5.95243 16.3875 5.58017C16.0152 5.20791 15.5103 4.99878 14.9839 4.99878V4.99978ZM14.9839 7.71978H14.2739V6.24678H14.9889C15.1838 6.24678 15.3708 6.32422 15.5086 6.46206C15.6464 6.5999 15.7239 6.78685 15.7239 6.98178C15.7239 7.17671 15.6464 7.36366 15.5086 7.5015C15.3708 7.63934 15.1838 7.71678 14.9889 7.71678L14.9839 7.71978Z" fill="#374957"/>
<path d="M20.0599 9.76312C19.8363 9.76614 19.6145 9.72334 19.4081 9.63734C19.2017 9.55135 19.0151 9.42399 18.8599 9.26312L18.4399 8.80012L17.5139 9.64112L17.9339 10.1031C18.2058 10.3952 18.5357 10.6274 18.9024 10.7848C19.2692 10.9422 19.6648 11.0213 20.0639 11.0171C20.5317 11.0371 20.9917 10.8924 21.3638 10.608C21.7358 10.3237 21.9963 9.9178 22.0998 9.46112C22.1573 9.0106 22.045 8.55482 21.7847 8.18266C21.5244 7.81049 21.1348 7.54862 20.6918 7.44812C20.0329 7.20412 19.4349 6.94112 19.4189 6.94112C19.3705 6.90904 19.3325 6.86363 19.3094 6.81038C19.2863 6.75714 19.2792 6.69834 19.2889 6.64112C19.3064 6.55158 19.3504 6.46935 19.4151 6.40502C19.4798 6.34068 19.5622 6.29718 19.6519 6.28012C19.8757 6.23291 20.1072 6.2353 20.3301 6.28713C20.553 6.33896 20.7618 6.43896 20.9418 6.58012L21.4168 6.98012L22.2168 6.02412L21.7378 5.62412C21.3986 5.35088 21.0006 5.16015 20.5751 5.06696C20.1496 4.97377 19.7082 4.98067 19.2859 5.08712C18.9685 5.17371 18.6829 5.34994 18.4632 5.59469C18.2434 5.83944 18.0989 6.14234 18.0469 6.46712C18.0041 6.77779 18.0552 7.09415 18.1937 7.37553C18.3322 7.65691 18.5516 7.89045 18.8239 8.04612C18.8239 8.04612 19.5019 8.34612 20.2539 8.62612C20.4129 8.68512 20.9258 8.90312 20.8638 9.24812C20.8057 9.4108 20.6952 9.5496 20.5497 9.64279C20.4042 9.73598 20.232 9.77829 20.0599 9.76312V9.76312Z" fill="#374957"/>
<path d="M7.99811 11.0212H11.2611V9.77122H9.24811V8.63422H11.1121V7.38422H9.24811V6.24622H11.2611V4.99622H7.99811V11.0212Z" fill="#374957"/>
</g>
<defs>
<filter id="filter0_d_403_3515" x="0" y="0" width="32" height="32" filterUnits="userSpaceOnUse" color-interpolation-filters="sRGB">
<feFlood flood-opacity="0" result="BackgroundImageFix"/>
<feColorMatrix in="SourceAlpha" type="matrix" values="0 0 0 0 0 0 0 0 0 0 0 0 0 0 0 0 0 0 127 0" result="hardAlpha"/>
<feOffset dy="4"/>
<feGaussianBlur stdDeviation="2"/>
<feComposite in2="hardAlpha" operator="out"/>
<feColorMatrix type="matrix" values="0 0 0 0 0 0 0 0 0 0 0 0 0 0 0 0 0 0 0.25 0"/>
<feBlend mode="normal" in2="BackgroundImageFix" result="effect1_dropShadow_403_3515"/>
<feBlend mode="normal" in="SourceGraphic" in2="effect1_dropShadow_403_3515" result="shape"/>
</filter>
<clipPath id="clip0_403_3515">
<rect width="24" height="24" fill="white" transform="translate(4)"/>
</clipPath>
</defs>
</svg>
