<svg width="24" height="24" viewBox="0 0 24 24" fill="none" xmlns="http://www.w3.org/2000/svg">
<g clip-path="url(#clip0_403_3782)">
<path d="M18 8H15.99L15.971 6H18V0H6V6H8V8H6C5.20435 8 4.44129 8.31607 3.87868 8.87868C3.31607 9.44129 3 10.2044 3 11V24H21V11C21 10.2044 20.6839 9.44129 20.1213 8.87868C19.5587 8.31607 18.7956 8 18 8ZM8 2H16V4H8V2ZM19 22H5V11C5 10.7348 5.10536 10.4804 5.29289 10.2929C5.48043 10.1054 5.73478 10 6 10H10V6H13.97L14.01 10H18C18.2652 10 18.5196 10.1054 18.7071 10.2929C18.8946 10.4804 19 10.7348 19 11V22ZM13 15H15V17H13V19H11V17H9V15H11V13H13V15Z" fill="#374957"/>
</g>
<defs>
<clipPath id="clip0_403_3782">
<rect width="24" height="24" fill="white"/>
</clipPath>
</defs>
</svg>
