<svg width="24" height="24" viewBox="0 0 24 24" fill="none" xmlns="http://www.w3.org/2000/svg">
<g clip-path="url(#clip0_403_3333)">
<path d="M22.5353 7.32409L23.9653 5.92409L18.2153 0.0510864L16.7853 1.45109L19.0413 3.75109L16.8623 5.79209L15.9503 4.87909C15.6717 4.60046 15.341 4.37943 14.977 4.22864C14.613 4.07784 14.2228 4.00023 13.8288 4.00023C13.4348 4.00023 13.0446 4.07784 12.6806 4.22864C12.3166 4.37943 11.9859 4.60046 11.7073 4.87909L3.0003 13.5861V19.5861L0.0433044 22.5431L1.4573 23.9571L4.4143 21.0001H10.4143L19.1213 12.2931C19.3999 12.0145 19.621 11.6838 19.7718 11.3198C19.9226 10.9557 20.0002 10.5656 20.0002 10.1716C20.0002 9.77758 19.9226 9.38743 19.7718 9.02342C19.621 8.65941 19.3999 8.32867 19.1213 8.05009L18.2773 7.20709L20.4403 5.18409L22.5353 7.32409ZM17.7073 10.8791L9.5863 19.0001H5.0003V15.2891L6.9183 17.2071L8.3323 15.7931L5.9773 13.4381L7.5633 11.8521L9.9183 14.2071L11.3323 12.7931L8.9773 10.4381L10.5633 8.85209L12.9183 11.2071L14.3323 9.79309L11.9773 7.43809L13.1213 6.29309C13.2142 6.20011 13.3245 6.12635 13.4459 6.07603C13.5673 6.0257 13.6974 5.9998 13.8288 5.9998C13.9602 5.9998 14.0903 6.0257 14.2117 6.07603C14.3331 6.12635 14.4434 6.20011 14.5363 6.29309L17.7073 9.46409C17.8003 9.55696 17.874 9.66725 17.9244 9.78865C17.9747 9.91005 18.0006 10.0402 18.0006 10.1716C18.0006 10.303 17.9747 10.4331 17.9244 10.5545C17.874 10.6759 17.8003 10.7862 17.7073 10.8791V10.8791Z" fill="#374957"/>
</g>
<defs>
<clipPath id="clip0_403_3333">
<rect width="24" height="24" fill="white"/>
</clipPath>
</defs>
</svg>
