<svg width="24" height="24" viewBox="0 0 24 24" fill="none" xmlns="http://www.w3.org/2000/svg">
<g clip-path="url(#clip0_403_3779)">
<path d="M8.00012 8V6H16.0001V8H8.00012ZM5.00012 22C4.73491 22 4.48055 21.8946 4.29302 21.7071C4.10548 21.5196 4.00012 21.2652 4.00012 21V3C4.00012 2.73478 4.10548 2.48043 4.29302 2.29289C4.48055 2.10536 4.73491 2 5.00012 2H20.0001V11.5C20.7427 11.8125 21.4208 12.2601 22.0001 12.82V0H5.00012C4.20447 0 3.44141 0.31607 2.8788 0.87868C2.31619 1.44129 2.00012 2.20435 2.00012 3V21C2.00012 21.7956 2.31619 22.5587 2.8788 23.1213C3.44141 23.6839 4.20447 24 5.00012 24H17.5001C16.6256 23.9999 15.7601 23.8226 14.9559 23.4789C14.1517 23.1352 13.4255 22.6321 12.8211 22H5.00012ZM22.5431 23.957L19.8861 21.3C19.1733 21.755 18.3458 21.9977 17.5001 22C16.6101 22 15.7401 21.7361 15.0001 21.2416C14.26 20.7471 13.6833 20.0443 13.3427 19.2221C13.0021 18.3998 12.913 17.495 13.0866 16.6221C13.2602 15.7492 13.6888 14.9474 14.3181 14.318C14.9475 13.6887 15.7493 13.2601 16.6222 13.0865C17.4951 12.9128 18.3999 13.0019 19.2222 13.3425C20.0445 13.6831 20.7473 14.2599 21.2417 14.9999C21.7362 15.74 22.0001 16.61 22.0001 17.5C21.9979 18.3456 21.7551 19.1732 21.3001 19.886L23.9571 22.543L22.5431 23.957ZM17.5001 20C17.9946 20 18.4779 19.8534 18.889 19.5787C19.3002 19.304 19.6206 18.9135 19.8098 18.4567C19.999 17.9999 20.0485 17.4972 19.9521 17.0123C19.8556 16.5273 19.6175 16.0819 19.2679 15.7322C18.9183 15.3826 18.4728 15.1445 17.9878 15.048C17.5029 14.9516 17.0002 15.0011 16.5434 15.1903C16.0866 15.3795 15.6962 15.7 15.4214 16.1111C15.1467 16.5222 15.0001 17.0055 15.0001 17.5C15.0001 18.163 15.2635 18.7989 15.7324 19.2678C16.2012 19.7366 16.8371 20 17.5001 20Z" fill="#374957"/>
</g>
<defs>
<clipPath id="clip0_403_3779">
<rect width="24" height="24" fill="white"/>
</clipPath>
</defs>
</svg>
