<svg width="24" height="24" viewBox="0 0 24 24" fill="none" xmlns="http://www.w3.org/2000/svg">
<g clip-path="url(#clip0_403_3617)">
<path d="M18.535 18.6658L19.949 20.0798L16.749 23.2798C16.2851 23.7421 15.6569 24.0017 15.002 24.0017C14.3471 24.0017 13.7189 23.7421 13.255 23.2798L10.055 20.0798L11.469 18.6658L14 21.1998V12.9998H16V21.1998L18.535 18.6658ZM17.79 7.20884C17.3438 5.2998 16.2122 3.62106 14.6099 2.49134C13.0077 1.36162 11.0463 0.859577 9.09834 1.08053C7.15034 1.30148 5.35129 2.23005 4.04276 3.68993C2.73422 5.14981 2.00731 7.03936 2.00002 8.99984C1.99904 10.2782 2.30785 11.5378 2.90002 12.6708C1.82115 13.249 0.966422 14.1711 0.471641 15.2906C-0.0231397 16.4102 -0.129593 17.663 0.169193 18.85C0.46798 20.037 1.15487 21.0901 2.12073 21.8419C3.08658 22.5938 4.27601 23.0014 5.50002 22.9998H10.142L8.14202 20.9998H5.50002C4.64845 21.0024 3.82531 20.6936 3.18554 20.1315C2.54577 19.5695 2.1335 18.793 2.02634 17.9482C1.91917 17.1034 2.12449 16.2485 2.60366 15.5445C3.08282 14.8406 3.80278 14.336 4.62802 14.1258L6.06502 13.7548L5.18202 12.5628C4.41316 11.5342 3.99843 10.2841 4.00002 8.99984C4.01309 7.48698 4.5972 6.03491 5.63537 4.93442C6.67354 3.83392 8.08913 3.16624 9.59865 3.06509C11.1082 2.96394 12.6002 3.43679 13.7759 4.38894C14.9516 5.34109 15.7242 6.70225 15.939 8.19983L16.039 8.95784L16.798 9.05783C17.805 9.1914 18.7615 9.57894 19.5774 10.184C20.3934 10.7891 21.042 11.5918 21.4622 12.5166C21.8825 13.4414 22.0605 14.4579 21.9797 15.4705C21.8988 16.4831 21.5617 17.4584 21 18.3048L22.43 19.7348C23.2195 18.6693 23.7309 17.4238 23.9179 16.1109C24.1049 14.7981 23.9616 13.4593 23.5009 12.2157C23.0403 10.9722 22.2768 9.86314 21.2797 8.9889C20.2825 8.11467 19.0831 7.50286 17.79 7.20884Z" fill="#374957"/>
</g>
<defs>
<clipPath id="clip0_403_3617">
<rect width="24" height="24" fill="white"/>
</clipPath>
</defs>
</svg>
