<svg width="24" height="24" viewBox="0 0 24 24" fill="none" xmlns="http://www.w3.org/2000/svg">
<path d="M11.9842 23.9946L19.0467 17.0869C22.9644 13.2035 22.9921 6.87949 19.1087 2.96186C15.2253 -0.955762 8.90133 -0.983559 4.98371 2.89985C4.96294 2.92043 4.94227 2.9411 4.92169 2.96186C1.02117 6.86247 1.02122 13.1865 4.92183 17.087C4.92446 17.0897 4.92708 17.0923 4.92971 17.0949L11.9842 23.9946ZM6.33399 4.37416C9.4523 1.25144 14.5117 1.24783 17.6344 4.36619C20.7571 7.48455 20.7608 12.5439 17.6424 15.6666L11.9842 21.1999L6.33399 15.6746C3.21347 12.5542 3.21333 7.495 6.3337 4.37444C6.3338 4.37435 6.33389 4.37425 6.33399 4.37416ZM10.9854 11.0232H7.989V9.02557H10.9854V6.02918H12.983V9.02557H15.9794V11.0232H12.983V14.0196H10.9854V11.0232Z" fill="#374957"/>
</svg>
