<svg width="24" height="24" viewBox="0 0 24 24" fill="none" xmlns="http://www.w3.org/2000/svg">
<g clip-path="url(#clip0_403_3701)">
<path d="M21 5.99963H13V1.99963H11V5.99963H3C2.20435 5.99963 1.44129 6.3157 0.87868 6.87831C0.31607 7.44092 0 8.20398 0 8.99963L0 19.9996H24V8.99963C24 8.20398 23.6839 7.44092 23.1213 6.87831C22.5587 6.3157 21.7956 5.99963 21 5.99963ZM22 17.9996H2V8.99963C2 8.73442 2.10536 8.48006 2.29289 8.29253C2.48043 8.10499 2.73478 7.99963 3 7.99963H21C21.2652 7.99963 21.5196 8.10499 21.7071 8.29253C21.8946 8.48006 22 8.73442 22 8.99963V17.9996Z" fill="#374957"/>
<path d="M16.0001 13.9996H8.00012V15.9996H16.0001V13.9996Z" fill="#374957"/>
<path d="M12 9.99927H9V11.9993H12V9.99927Z" fill="#374957"/>
<path d="M20.0001 9.99927H14.0001V11.9993H20.0001V9.99927Z" fill="#374957"/>
<path d="M6.99988 9.99927H3.99988V11.9993H6.99988V9.99927Z" fill="#374957"/>
<path d="M5.99987 13.9996H3.99988V15.9996H5.99987V13.9996Z" fill="#374957"/>
<path d="M20 13.9996H18V15.9996H20V13.9996Z" fill="#374957"/>
</g>
<defs>
<clipPath id="clip0_403_3701">
<rect width="24" height="24" fill="white"/>
</clipPath>
</defs>
</svg>
