<svg width="24" height="24" viewBox="0 0 24 24" fill="none" xmlns="http://www.w3.org/2000/svg">
<g clip-path="url(#clip0_403_3726)">
<path d="M24 12L20.4848 15.5152V20.4848H15.5152L12 24L8.48484 20.4848H3.51516V15.5152L0 12L3.51516 8.48484V3.51516H8.48484L12 0L15.5152 3.51516H20.4848V8.48484L24 12ZM19.0711 14.0991L21.1711 11.9991L19.0711 9.89906L18.4852 9.31406V5.51391H14.685L14.1 4.92797L12 2.82797V2.82891L9.31406 5.51484H5.51391V9.315L4.92797 9.9L2.82797 12L4.92891 14.1L5.51484 14.6841V18.4842H9.315L9.9 19.0702L12 21.1702L14.1 19.0702L14.685 18.4842H18.4852V14.6841L19.0711 14.0991Z" fill="#374957"/>
</g>
<defs>
<clipPath id="clip0_403_3726">
<rect width="24" height="24" fill="white"/>
</clipPath>
</defs>
</svg>
