<svg width="24" height="24" viewBox="0 0 24 24" fill="none" xmlns="http://www.w3.org/2000/svg">
<g clip-path="url(#clip0_403_3683)">
<path d="M22.1207 9.879L12.2457 0L10.8317 1.418L20.7067 11.293C20.8941 11.4805 20.9995 11.7348 20.9995 12C20.9995 12.2652 20.8941 12.5195 20.7067 12.707L10.8187 22.6L12.2327 24.014L22.1207 14.126C22.6831 13.5634 22.999 12.8005 22.999 12.005C22.999 11.2095 22.6831 10.4466 22.1207 9.884V9.879Z" fill="#374957"/>
<path d="M13.5347 11.293L2.26169 0.019043L0.846693 1.43304L11.4137 12L0.835693 22.578L2.24969 23.993L13.5347 12.707C13.7222 12.5195 13.8275 12.2652 13.8275 12C13.8275 11.7349 13.7222 11.4806 13.5347 11.293V11.293Z" fill="#374957"/>
</g>
<defs>
<clipPath id="clip0_403_3683">
<rect width="24" height="24" fill="white"/>
</clipPath>
</defs>
</svg>
