<svg width="32" height="32" viewBox="0 0 32 32" fill="none" xmlns="http://www.w3.org/2000/svg">
<g clip-path="url(#clip0_403_3293)" filter="url(#filter0_d_403_3293)">
<path d="M15 23.0003C15 22.8025 15.0587 22.6091 15.1686 22.4447C15.2784 22.2802 15.4346 22.1521 15.6173 22.0764C15.8001 22.0007 16.0011 21.9809 16.1951 22.0195C16.3891 22.0581 16.5673 22.1533 16.7071 22.2932C16.847 22.433 16.9422 22.6112 16.9808 22.8052C17.0194 22.9992 16.9996 23.2002 16.9239 23.3829C16.8482 23.5657 16.72 23.7219 16.5556 23.8317C16.3911 23.9416 16.1978 24.0003 16 24.0003C15.7348 24.0003 15.4805 23.8949 15.2929 23.7074C15.1054 23.5198 15 23.2655 15 23.0003ZM19.535 19.4643C18.5974 18.5269 17.3258 18.0003 16 18.0003C14.6742 18.0003 13.4027 18.5269 12.465 19.4643L13.879 20.8783C14.4507 20.3333 15.2102 20.0293 16 20.0293C16.7898 20.0293 17.5493 20.3333 18.121 20.8783L19.535 19.4643ZM22.364 16.6363C20.6749 14.9509 18.3862 14.0043 16 14.0043C13.6139 14.0043 11.3251 14.9509 9.63602 16.6363L11.05 18.0503C12.3642 16.74 14.1443 16.0043 16 16.0043C17.8558 16.0043 19.6358 16.74 20.95 18.0503L22.364 16.6363ZM21.79 7.20926C21.3438 5.30022 20.2122 3.62148 18.6099 2.49176C17.0077 1.36204 15.0463 0.860004 13.0983 1.08096C11.1503 1.30191 9.35129 2.23048 8.04276 3.69036C6.73422 5.15024 6.00731 7.03979 6.00002 9.00026C5.99904 10.2787 6.30785 11.5383 6.90002 12.6713C5.82115 13.2494 4.96642 14.1715 4.47164 15.2911C3.97686 16.4106 3.87041 17.6634 4.16919 18.8504C4.46798 20.0374 5.15487 21.0905 6.12073 21.8424C7.08658 22.5943 8.27601 23.0018 9.50002 23.0003H13C13 22.9473 13.013 22.9003 13.016 22.8443L11.172 21.0003H9.50002C8.64845 21.0028 7.82531 20.694 7.18554 20.132C6.54577 19.5699 6.1335 18.7934 6.02634 17.9486C5.91917 17.1038 6.12449 16.2489 6.60366 15.545C7.08282 14.841 7.80278 14.3364 8.62802 14.1263L10.028 13.7643L10.056 13.7483L9.17802 12.5633C8.41059 11.5341 7.99728 10.284 8.00002 9.00026C8.01309 7.48741 8.5972 6.03534 9.63537 4.93484C10.6735 3.83435 12.0891 3.16667 13.5987 3.06552C15.1082 2.96437 16.6002 3.43722 17.7759 4.38937C18.9516 5.34152 19.7242 6.70268 19.939 8.20026L20.039 8.95826L20.798 9.05826C22.2282 9.24954 23.5413 9.95046 24.4961 11.0322C25.4509 12.114 25.9833 13.504 25.9955 14.9469C26.0076 16.3897 25.4988 17.7885 24.5623 18.8862C23.6259 19.984 22.3248 20.7069 20.898 20.9223L18.979 22.8423C18.979 22.8953 18.995 22.9423 18.995 22.9983H19.995C21.9551 22.9909 23.8443 22.2642 25.304 20.9561C26.7637 19.648 27.6924 17.8495 27.9138 15.902C28.1352 13.9544 27.634 11.9934 26.5051 10.391C25.3763 8.78861 23.6984 7.65641 21.79 7.20926V7.20926Z" fill="#374957"/>
</g>
<defs>
<filter id="filter0_d_403_3293" x="0" y="0" width="32" height="32" filterUnits="userSpaceOnUse" color-interpolation-filters="sRGB">
<feFlood flood-opacity="0" result="BackgroundImageFix"/>
<feColorMatrix in="SourceAlpha" type="matrix" values="0 0 0 0 0 0 0 0 0 0 0 0 0 0 0 0 0 0 127 0" result="hardAlpha"/>
<feOffset dy="4"/>
<feGaussianBlur stdDeviation="2"/>
<feComposite in2="hardAlpha" operator="out"/>
<feColorMatrix type="matrix" values="0 0 0 0 0 0 0 0 0 0 0 0 0 0 0 0 0 0 0.25 0"/>
<feBlend mode="normal" in2="BackgroundImageFix" result="effect1_dropShadow_403_3293"/>
<feBlend mode="normal" in="SourceGraphic" in2="effect1_dropShadow_403_3293" result="shape"/>
</filter>
<clipPath id="clip0_403_3293">
<rect width="24" height="24" fill="white" transform="translate(4)"/>
</clipPath>
</defs>
</svg>
