<svg width="32" height="32" viewBox="0 0 32 32" fill="none" xmlns="http://www.w3.org/2000/svg">
<g clip-path="url(#clip0_403_3377)" filter="url(#filter0_d_403_3377)">
<path d="M24.9049 0H7.09995C6.27184 0.00660623 5.48021 0.341647 4.89896 0.931525C4.3177 1.5214 3.99436 2.31788 3.99995 3.146V8H5.99995V3.146C5.9969 2.99852 6.02293 2.85188 6.07657 2.71446C6.1302 2.57704 6.21038 2.45154 6.31253 2.34511C6.41468 2.23869 6.5368 2.15344 6.67191 2.09422C6.80702 2.03501 6.95247 2.00299 7.09995 2H24.9099C25.2061 2.00864 25.4867 2.13393 25.6909 2.34857C25.8951 2.56322 26.0061 2.84983 25.9999 3.146V20.854C26.0061 21.151 25.8944 21.4384 25.6891 21.6532C25.4839 21.8679 25.2019 21.9927 24.9049 22H7.09995C6.95247 21.997 6.80702 21.965 6.67191 21.9058C6.5368 21.8466 6.41468 21.7613 6.31253 21.6549C6.21038 21.5485 6.1302 21.423 6.07657 21.2855C6.02293 21.1481 5.9969 21.0015 5.99995 20.854V16H3.99995V20.854C3.99436 21.6821 4.3177 22.4786 4.89896 23.0685C5.48021 23.6584 6.27184 23.9934 7.09995 24H24.9099C25.7363 23.9908 26.5254 23.6546 27.1045 23.065C27.6836 22.4754 28.0056 21.6804 27.9999 20.854V3.146C28.0055 2.31874 27.6829 1.52301 27.1027 0.933278C26.5225 0.343543 25.7322 0.00792295 24.9049 0V0Z" fill="#374957"/>
<path d="M7 12.9991H21.086L16.786 17.2991L18.2 18.7171L23.149 13.7671C23.3812 13.535 23.5654 13.2593 23.6911 12.956C23.8168 12.6526 23.8815 12.3275 23.8815 11.9991C23.8815 11.6708 23.8168 11.3456 23.6911 11.0423C23.5654 10.7389 23.3812 10.4633 23.149 10.2311L18.2 5.28113L16.783 6.69913L21.083 10.9991H7V12.9991Z" fill="#374957"/>
</g>
<defs>
<filter id="filter0_d_403_3377" x="0" y="0" width="32" height="32" filterUnits="userSpaceOnUse" color-interpolation-filters="sRGB">
<feFlood flood-opacity="0" result="BackgroundImageFix"/>
<feColorMatrix in="SourceAlpha" type="matrix" values="0 0 0 0 0 0 0 0 0 0 0 0 0 0 0 0 0 0 127 0" result="hardAlpha"/>
<feOffset dy="4"/>
<feGaussianBlur stdDeviation="2"/>
<feComposite in2="hardAlpha" operator="out"/>
<feColorMatrix type="matrix" values="0 0 0 0 0 0 0 0 0 0 0 0 0 0 0 0 0 0 0.25 0"/>
<feBlend mode="normal" in2="BackgroundImageFix" result="effect1_dropShadow_403_3377"/>
<feBlend mode="normal" in="SourceGraphic" in2="effect1_dropShadow_403_3377" result="shape"/>
</filter>
<clipPath id="clip0_403_3377">
<rect width="24" height="24" fill="white" transform="translate(4)"/>
</clipPath>
</defs>
</svg>
