<svg width="32" height="32" viewBox="0 0 32 32" fill="none" xmlns="http://www.w3.org/2000/svg">
<g clip-path="url(#clip0_403_3588)" filter="url(#filter0_d_403_3588)">
<path d="M18.2001 16.2614C15.2885 15.0276 12.9731 12.7068 11.7461 9.79236L15.1521 6.38636L8.88712 0.121358L5.71612 3.29136C5.16576 3.84424 4.73067 4.50091 4.4361 5.22326C4.14152 5.94562 3.99333 6.71928 4.00012 7.49936C4.00012 14.7474 13.2521 23.9994 20.5001 23.9994C21.2801 24.0063 22.0536 23.8582 22.7759 23.5637C23.4981 23.2691 24.1546 22.8339 24.7071 22.2834L27.8781 19.1124L21.6131 12.8484L18.2001 16.2614ZM23.2921 20.8704C22.9246 21.2339 22.4886 21.521 22.0093 21.7148C21.53 21.9086 21.0171 22.0053 20.5001 21.9994C14.2661 21.9994 6.00012 13.7324 6.00012 7.49936C5.99423 6.98219 6.09108 6.469 6.28506 5.98955C6.47903 5.5101 6.76627 5.07394 7.13012 4.70636L8.88712 2.94936L12.3241 6.38636L9.38812 9.32136L9.63412 9.93536C10.3554 11.8647 11.4829 13.6164 12.9403 15.0719C14.3977 16.5274 16.1509 17.6526 18.0811 18.3714L18.6871 18.6024L21.6131 15.6764L25.0491 19.1124L23.2921 20.8704ZM24.9141 4.49936L27.9571 7.54236L26.5431 8.95636L23.5001 5.91336L20.4571 8.95636L19.0431 7.54236L22.0861 4.49936L19.0431 1.45636L20.4571 0.0423584L23.5001 3.08536L26.5431 0.0423584L27.9571 1.45636L24.9141 4.49936Z" fill="#374957"/>
</g>
<defs>
<filter id="filter0_d_403_3588" x="0" y="0" width="32" height="32" filterUnits="userSpaceOnUse" color-interpolation-filters="sRGB">
<feFlood flood-opacity="0" result="BackgroundImageFix"/>
<feColorMatrix in="SourceAlpha" type="matrix" values="0 0 0 0 0 0 0 0 0 0 0 0 0 0 0 0 0 0 127 0" result="hardAlpha"/>
<feOffset dy="4"/>
<feGaussianBlur stdDeviation="2"/>
<feComposite in2="hardAlpha" operator="out"/>
<feColorMatrix type="matrix" values="0 0 0 0 0 0 0 0 0 0 0 0 0 0 0 0 0 0 0.25 0"/>
<feBlend mode="normal" in2="BackgroundImageFix" result="effect1_dropShadow_403_3588"/>
<feBlend mode="normal" in="SourceGraphic" in2="effect1_dropShadow_403_3588" result="shape"/>
</filter>
<clipPath id="clip0_403_3588">
<rect width="24" height="24" fill="white" transform="translate(4)"/>
</clipPath>
</defs>
</svg>
