<svg width="32" height="32" viewBox="0 0 32 32" fill="none" xmlns="http://www.w3.org/2000/svg">
<g clip-path="url(#clip0_403_3542)" filter="url(#filter0_d_403_3542)">
<path d="M6.4 15.0005H4V13.0005H6.051C6.023 12.6695 6 12.3385 6 12.0005C6 11.6625 6.023 11.3315 6.051 11.0005H4V9.00047H6.4C6.95206 6.85913 8.08561 4.9122 9.67529 3.37499C11.265 1.83778 13.2488 0.770181 15.4075 0.290262C17.5661 -0.189656 19.8155 -0.0631948 21.9067 0.655661C23.998 1.37452 25.8496 2.65776 27.257 4.36347L25.715 5.63747C24.5696 4.2487 23.0705 3.19488 21.376 2.58723C19.6814 1.97957 17.8543 1.84061 16.0873 2.185C14.3204 2.5294 12.6792 3.34439 11.3369 4.54395C9.99461 5.74352 9.00103 7.28318 8.461 9.00047H20V11.0005H8.051C7.983 11.6654 7.983 12.3355 8.051 13.0005H20V15.0005H8.461C9.00103 16.7178 9.99461 18.2574 11.3369 19.457C12.6792 20.6565 14.3204 21.4715 16.0873 21.8159C17.8543 22.1603 19.6814 22.0214 21.376 21.4137C23.0705 20.8061 24.5696 19.7522 25.715 18.3635L27.257 19.6375C25.8496 21.3432 23.998 22.6264 21.9067 23.3453C19.8155 24.0641 17.5661 24.1906 15.4075 23.7107C13.2488 23.2308 11.265 22.1632 9.67529 20.6259C8.08561 19.0887 6.95206 17.1418 6.4 15.0005V15.0005Z" fill="#374957"/>
</g>
<defs>
<filter id="filter0_d_403_3542" x="0" y="0" width="32" height="32" filterUnits="userSpaceOnUse" color-interpolation-filters="sRGB">
<feFlood flood-opacity="0" result="BackgroundImageFix"/>
<feColorMatrix in="SourceAlpha" type="matrix" values="0 0 0 0 0 0 0 0 0 0 0 0 0 0 0 0 0 0 127 0" result="hardAlpha"/>
<feOffset dy="4"/>
<feGaussianBlur stdDeviation="2"/>
<feComposite in2="hardAlpha" operator="out"/>
<feColorMatrix type="matrix" values="0 0 0 0 0 0 0 0 0 0 0 0 0 0 0 0 0 0 0.25 0"/>
<feBlend mode="normal" in2="BackgroundImageFix" result="effect1_dropShadow_403_3542"/>
<feBlend mode="normal" in="SourceGraphic" in2="effect1_dropShadow_403_3542" result="shape"/>
</filter>
<clipPath id="clip0_403_3542">
<rect width="24" height="24" fill="white" transform="translate(4)"/>
</clipPath>
</defs>
</svg>
