<svg width="24" height="24" viewBox="0 0 24 24" fill="none" xmlns="http://www.w3.org/2000/svg">
<g clip-path="url(#clip0_403_3374)">
<path d="M24 2.99988H13V7.73588L10.329 3.10788C10.1535 2.80387 9.90098 2.55141 9.59696 2.37589C9.29293 2.20037 8.94806 2.10797 8.597 2.10797C8.24594 2.10797 7.90107 2.20037 7.59704 2.37589C7.29302 2.55141 7.04054 2.80387 6.865 3.10788L0 14.9999H7.294C6.96719 16.0886 6.91041 17.2405 7.12858 18.356C7.34676 19.4716 7.83331 20.5172 8.5462 21.4026C9.25909 22.2879 10.1769 22.9864 11.2202 23.4375C12.2635 23.8887 13.401 24.0789 14.5344 23.9919C15.6677 23.9049 16.7628 23.5432 17.7251 22.938C18.6873 22.3329 19.4877 21.5025 20.057 20.5187C20.6264 19.5349 20.9476 18.4272 20.9929 17.2914C21.0382 16.1556 20.8062 15.0259 20.317 13.9999H24V2.99988ZM3.464 12.9999L8.6 4.10888L12.148 10.2559C10.5713 10.6884 9.19578 11.6592 8.26 12.9999H3.464ZM14 21.9999C13.0111 21.9999 12.0444 21.7066 11.2221 21.1572C10.3999 20.6078 9.75904 19.8269 9.3806 18.9133C9.00216 17.9997 8.90315 16.9943 9.09607 16.0244C9.289 15.0545 9.7652 14.1636 10.4645 13.4643C11.1637 12.7651 12.0546 12.2889 13.0245 12.0959C13.9945 11.903 14.9998 12.002 15.9134 12.3805C16.827 12.7589 17.6079 13.3998 18.1573 14.222C18.7068 15.0443 19 16.011 19 16.9999C18.9984 18.3255 18.4711 19.5963 17.5338 20.5336C16.5964 21.471 15.3256 21.9983 14 21.9999V21.9999ZM22 11.9999H18.894C17.8336 10.9616 16.4693 10.2889 15 10.0799V4.99988H22V11.9999Z" fill="#374957"/>
</g>
<defs>
<clipPath id="clip0_403_3374">
<rect width="24" height="24" fill="white"/>
</clipPath>
</defs>
</svg>
