<svg width="26" height="32" viewBox="0 0 26 32" fill="none" xmlns="http://www.w3.org/2000/svg">
<g clip-path="url(#clip0_403_3310)" filter="url(#filter0_d_403_3310)">
<path d="M14 8H16V10H14V12H12V10H10V8H12V6H14V8ZM8 16H18V14H8V16ZM8 20H14V18H8V20ZM22 2V21C22 21.7956 21.6839 22.5587 21.1213 23.1213C20.5587 23.6839 19.7956 24 19 24H7C6.20435 24 5.44129 23.6839 4.87868 23.1213C4.31607 22.5587 4 21.7956 4 21V2H9.171C9.37858 1.41549 9.7619 0.909511 10.2684 0.551443C10.7749 0.193376 11.3797 0.000756748 12 0L14 0C14.6203 0.000756748 15.2251 0.193376 15.7316 0.551443C16.2381 0.909511 16.6214 1.41549 16.829 2H22ZM20 4H15V3C15 2.73478 14.8946 2.48043 14.7071 2.29289C14.5196 2.10536 14.2652 2 14 2H12C11.7348 2 11.4804 2.10536 11.2929 2.29289C11.1054 2.48043 11 2.73478 11 3V4H6V21C6 21.2652 6.10536 21.5196 6.29289 21.7071C6.48043 21.8946 6.73478 22 7 22H19C19.2652 22 19.5196 21.8946 19.7071 21.7071C19.8946 21.5196 20 21.2652 20 21V4Z" fill="#374957"/>
</g>
<defs>
<filter id="filter0_d_403_3310" x="-3" y="0" width="32" height="32" filterUnits="userSpaceOnUse" color-interpolation-filters="sRGB">
<feFlood flood-opacity="0" result="BackgroundImageFix"/>
<feColorMatrix in="SourceAlpha" type="matrix" values="0 0 0 0 0 0 0 0 0 0 0 0 0 0 0 0 0 0 127 0" result="hardAlpha"/>
<feOffset dy="4"/>
<feGaussianBlur stdDeviation="2"/>
<feComposite in2="hardAlpha" operator="out"/>
<feColorMatrix type="matrix" values="0 0 0 0 0 0 0 0 0 0 0 0 0 0 0 0 0 0 0.25 0"/>
<feBlend mode="normal" in2="BackgroundImageFix" result="effect1_dropShadow_403_3310"/>
<feBlend mode="normal" in="SourceGraphic" in2="effect1_dropShadow_403_3310" result="shape"/>
</filter>
<clipPath id="clip0_403_3310">
<rect width="24" height="24" fill="white" transform="translate(1)"/>
</clipPath>
</defs>
</svg>
