<svg width="32" height="31" viewBox="0 0 32 31" fill="none" xmlns="http://www.w3.org/2000/svg">
<g clip-path="url(#clip0_403_3581)" filter="url(#filter0_d_403_3581)">
<path d="M24.1222 13.293L22.7082 14.707L25.0002 17H24.6182C21.2342 17 19.0822 15.468 17.1722 13.492L16.8722 13.84C16.5442 14.22 16.2062 14.611 15.8542 15.004C18.0543 17.5514 21.2563 19.0122 24.6223 19.004H25.0002L22.7072 21.297L24.1212 22.711L27.4142 19.4179C28.195 18.637 28.195 17.371 27.4142 16.5899L24.1222 13.293Z" fill="#374957"/>
<path d="M24.619 6.99992H25L22.708 9.29291L24.122 10.7069L27.415 7.41388C28.1958 6.63289 28.1958 5.36689 27.415 4.58586L24.122 1.29285L22.708 2.70683L25 4.99996H24.618C19.661 4.99996 16.951 7.66996 14.492 10.478C12.063 7.73493 9.14299 4.99996 3.96002 4.99996V6.99997C8.42402 6.99997 10.833 9.33599 13.169 12C10.833 14.6639 8.42402 17 3.96002 17V19C9.76802 19 12.736 15.564 15.36 12.534C17.814 9.68793 20.137 6.99992 24.619 6.99992Z" fill="#374957"/>
</g>
<defs>
<filter id="filter0_d_403_3581" x="0" y="0" width="32" height="32" filterUnits="userSpaceOnUse" color-interpolation-filters="sRGB">
<feFlood flood-opacity="0" result="BackgroundImageFix"/>
<feColorMatrix in="SourceAlpha" type="matrix" values="0 0 0 0 0 0 0 0 0 0 0 0 0 0 0 0 0 0 127 0" result="hardAlpha"/>
<feOffset dy="4"/>
<feGaussianBlur stdDeviation="2"/>
<feComposite in2="hardAlpha" operator="out"/>
<feColorMatrix type="matrix" values="0 0 0 0 0 0 0 0 0 0 0 0 0 0 0 0 0 0 0.25 0"/>
<feBlend mode="normal" in2="BackgroundImageFix" result="effect1_dropShadow_403_3581"/>
<feBlend mode="normal" in="SourceGraphic" in2="effect1_dropShadow_403_3581" result="shape"/>
</filter>
<clipPath id="clip0_403_3581">
<rect width="24" height="24" fill="white" transform="translate(4)"/>
</clipPath>
</defs>
</svg>
