<svg width="32" height="32" viewBox="0 0 32 32" fill="none" xmlns="http://www.w3.org/2000/svg">
<g clip-path="url(#clip0_403_3764)" filter="url(#filter0_d_403_3764)">
<path d="M9.423 16.7C9.19021 17.0979 9.04593 17.5413 9 18C9 19.618 10.476 20.356 11.553 20.895C12.4 21.318 13 21.646 13 22C12.9237 22.3523 12.7726 22.6841 12.557 22.973L14.271 24C14.6862 23.4094 14.9377 22.7193 15 22C15 20.382 13.524 19.644 12.447 19.105C11.6 18.682 11 18.354 10.994 18.075C11.1471 17.6802 11.3429 17.3033 11.578 16.951C13.922 16.636 15.893 14.445 17.011 11.751C17.6428 13.4298 18.8676 14.8189 20.454 15.656C20.0545 16.4068 19.9209 17.2707 20.075 18.107C20.2815 18.6834 20.6074 19.2096 21.0313 19.6512C21.4552 20.0929 21.9676 20.4401 22.535 20.67C24.009 21.512 24.365 21.787 23.651 23.117L25.413 24.062C27.078 20.962 24.855 19.692 23.527 18.934C22.812 18.525 22.137 18.14 22.022 17.65C21.9819 17.0374 22.1704 16.4317 22.551 15.95C25.7 15.479 28 11.017 28 7.00003C28.0279 6.20458 27.8919 5.41188 27.6002 4.67129C27.3086 3.9307 26.8676 3.25806 26.3048 2.69524C25.742 2.13242 25.0693 1.69147 24.3287 1.39982C23.5882 1.10818 22.7955 0.972096 22 1.00003C21.033 0.973547 20.0745 1.18678 19.2099 1.62073C18.3453 2.05467 17.6016 2.69583 17.045 3.48703C16.2732 2.15546 15.0837 1.11566 13.6609 0.528793C12.2381 -0.0580785 10.6615 -0.159247 9.17532 0.240967C7.68918 0.641181 6.37656 1.52043 5.44089 2.74243C4.50522 3.96444 3.99876 5.46095 4 7.00003C4 10.985 6.273 15.519 9.423 16.7ZM22 3.00003C22.5332 2.96989 23.0667 3.0527 23.5657 3.24306C24.0646 3.43342 24.5178 3.72702 24.8954 4.10464C25.273 4.48226 25.5666 4.93539 25.757 5.43435C25.9473 5.93331 26.0301 6.46685 26 7.00003C26 10.4 23.944 14 22 14C20.056 14 18 10.4 18 7.00003C17.9699 6.46685 18.0527 5.93331 18.243 5.43435C18.4334 4.93539 18.727 4.48226 19.1046 4.10464C19.4822 3.72702 19.9354 3.43342 20.4343 3.24306C20.9333 3.0527 21.4668 2.96989 22 3.00003V3.00003ZM11 2.00003C12.3256 2.00162 13.5964 2.52891 14.5338 3.46625C15.4711 4.40359 15.9984 5.67444 16 7.00003C16 10.526 13.646 15 11 15C8.354 15 6 10.526 6 7.00003C6.00159 5.67444 6.52888 4.40359 7.46622 3.46625C8.40356 2.52891 9.67441 2.00162 11 2.00003V2.00003Z" fill="#374957"/>
<path d="M23.9771 8H21.9771C21.896 8.87587 21.6136 9.72117 21.1521 10.47L22.8521 11.53C23.5098 10.4629 23.896 9.25089 23.9771 8V8Z" fill="#374957"/>
<path d="M13.9769 8H11.9769C11.8957 8.87587 11.6134 9.72117 11.1519 10.47L12.8519 11.53C13.5095 10.4629 13.8958 9.25089 13.9769 8V8Z" fill="#374957"/>
</g>
<defs>
<filter id="filter0_d_403_3764" x="0" y="0" width="32" height="32" filterUnits="userSpaceOnUse" color-interpolation-filters="sRGB">
<feFlood flood-opacity="0" result="BackgroundImageFix"/>
<feColorMatrix in="SourceAlpha" type="matrix" values="0 0 0 0 0 0 0 0 0 0 0 0 0 0 0 0 0 0 127 0" result="hardAlpha"/>
<feOffset dy="4"/>
<feGaussianBlur stdDeviation="2"/>
<feComposite in2="hardAlpha" operator="out"/>
<feColorMatrix type="matrix" values="0 0 0 0 0 0 0 0 0 0 0 0 0 0 0 0 0 0 0.25 0"/>
<feBlend mode="normal" in2="BackgroundImageFix" result="effect1_dropShadow_403_3764"/>
<feBlend mode="normal" in="SourceGraphic" in2="effect1_dropShadow_403_3764" result="shape"/>
</filter>
<clipPath id="clip0_403_3764">
<rect width="24" height="24" fill="white" transform="translate(4)"/>
</clipPath>
</defs>
</svg>
