<svg width="32" height="32" viewBox="0 0 32 32" fill="none" xmlns="http://www.w3.org/2000/svg">
<g clip-path="url(#clip0_403_3456)" filter="url(#filter0_d_403_3456)">
<path d="M24.25 22C23.9447 22.0117 23.6406 21.9549 23.3601 21.8338C23.0797 21.7126 22.8298 21.5303 22.629 21.3C24.7651 19.0613 25.9702 16.0942 26 13V12.279L24 11.613V8C24 7.20435 23.6839 6.44129 23.1213 5.87868C22.5587 5.31607 21.7956 5 21 5H20V3C20 2.20435 19.6839 1.44129 19.1213 0.87868C18.5587 0.31607 17.7956 0 17 0L15 0C14.2044 0 13.4413 0.31607 12.8787 0.87868C12.3161 1.44129 12 2.20435 12 3V5H11C10.2044 5 9.44129 5.31607 8.87868 5.87868C8.31607 6.44129 8 7.20435 8 8V11.613L6 12.279V13C6.0314 16.095 7.23867 19.0622 9.377 21.3C9.17544 21.5309 8.92463 21.7137 8.64304 21.8349C8.36146 21.956 8.05628 22.0125 7.75 22C6.661 22 6 21.306 6 21H4C4 22.626 5.718 24 7.75 24C8.75699 24.0076 9.73312 23.6527 10.5 23C11.2718 23.6421 12.2435 23.9949 13.2475 23.9974C14.2515 24 15.2249 23.6522 16 23.014C16.7751 23.6522 17.7485 24 18.7525 23.9974C19.7565 23.9949 20.7282 23.6421 21.5 23C22.2666 23.6524 23.2423 24.0074 24.249 24C26.282 24 28 22.626 28 21H26C26 21.344 25.318 22 24.25 22ZM14 3C14 2.73478 14.1054 2.48043 14.2929 2.29289C14.4804 2.10536 14.7348 2 15 2H17C17.2652 2 17.5196 2.10536 17.7071 2.29289C17.8946 2.48043 18 2.73478 18 3V5H14V3ZM10 8C10 7.73478 10.1054 7.48043 10.2929 7.29289C10.4804 7.10536 10.7348 7 11 7H21C21.2652 7 21.5196 7.10536 21.7071 7.29289C21.8946 7.48043 22 7.73478 22 8V10.946L16 8.946L10 10.946V8ZM13.25 22C12.161 22 11.5 21.306 11.5 21V20.542L11.156 20.242C9.36498 18.5099 8.25534 16.1923 8.029 13.711L15 11.387V21C15 21.344 14.318 22 13.25 22ZM18.75 22C17.661 22 17 21.306 17 21V11.387L23.974 13.712C23.748 16.1922 22.6395 18.5089 20.85 20.241L20.5 20.541V21C20.5 21.344 19.818 22 18.75 22Z" fill="#374957"/>
</g>
<defs>
<filter id="filter0_d_403_3456" x="0" y="0" width="32" height="32" filterUnits="userSpaceOnUse" color-interpolation-filters="sRGB">
<feFlood flood-opacity="0" result="BackgroundImageFix"/>
<feColorMatrix in="SourceAlpha" type="matrix" values="0 0 0 0 0 0 0 0 0 0 0 0 0 0 0 0 0 0 127 0" result="hardAlpha"/>
<feOffset dy="4"/>
<feGaussianBlur stdDeviation="2"/>
<feComposite in2="hardAlpha" operator="out"/>
<feColorMatrix type="matrix" values="0 0 0 0 0 0 0 0 0 0 0 0 0 0 0 0 0 0 0.25 0"/>
<feBlend mode="normal" in2="BackgroundImageFix" result="effect1_dropShadow_403_3456"/>
<feBlend mode="normal" in="SourceGraphic" in2="effect1_dropShadow_403_3456" result="shape"/>
</filter>
<clipPath id="clip0_403_3456">
<rect width="24" height="24" fill="white" transform="translate(4)"/>
</clipPath>
</defs>
</svg>
