<svg width="32" height="31" viewBox="0 0 32 31" fill="none" xmlns="http://www.w3.org/2000/svg">
<g clip-path="url(#clip0_403_3546)" filter="url(#filter0_d_403_3546)">
<path d="M25.0003 16.9999C24.2246 17.0008 23.4797 17.3035 22.9233 17.8439L19.9633 16.3629C19.9832 16.2428 19.9956 16.1216 20.0003 15.9999C19.9956 15.8783 19.9832 15.757 19.9633 15.6369L22.9233 14.1559C23.4217 14.6333 24.0698 14.9239 24.7578 14.9784C25.4458 15.0329 26.1315 14.8481 26.6989 14.4551C27.2663 14.0622 27.6805 13.4852 27.8714 12.822C28.0624 12.1588 28.0183 11.4499 27.7467 10.8154C27.475 10.181 26.9925 9.65982 26.3808 9.34018C25.7691 9.02055 25.0658 8.92207 24.3898 9.06141C23.7139 9.20074 23.1068 9.56934 22.6714 10.1048C22.2359 10.6403 21.9989 11.3098 22.0003 11.9999C22.005 12.1216 22.0173 12.2428 22.0373 12.3629L19.0773 13.8439C18.6539 13.4343 18.1193 13.1584 17.5401 13.0506C16.9609 12.9428 16.3628 13.0079 15.8204 13.2379C15.2779 13.4678 14.8152 13.8523 14.49 14.3435C14.1647 14.8347 13.9912 15.4108 13.9912 15.9999C13.9912 16.5891 14.1647 17.1652 14.49 17.6564C14.8152 18.1475 15.2779 18.5321 15.8204 18.762C16.3628 18.992 16.9609 19.0571 17.5401 18.9493C18.1193 18.8415 18.6539 18.5656 19.0773 18.1559L22.0373 19.6369C22.0173 19.757 22.005 19.8783 22.0003 19.9999C22.0003 20.5933 22.1762 21.1733 22.5059 21.6667C22.8355 22.16 23.304 22.5445 23.8522 22.7716C24.4004 22.9986 25.0036 23.0581 25.5855 22.9423C26.1675 22.8265 26.702 22.5408 27.1216 22.1213C27.5412 21.7017 27.8269 21.1672 27.9426 20.5852C28.0584 20.0033 27.999 19.4001 27.7719 18.8519C27.5449 18.3037 27.1603 17.8352 26.667 17.5055C26.1736 17.1759 25.5936 16.9999 25.0003 16.9999ZM25.0003 10.9999C25.1981 10.9999 25.3914 11.0586 25.5558 11.1685C25.7203 11.2784 25.8485 11.4345 25.9242 11.6173C25.9998 11.8 26.0196 12.001 25.9811 12.195C25.9425 12.389 25.8472 12.5672 25.7074 12.707C25.5675 12.8469 25.3893 12.9421 25.1954 12.9807C25.0014 13.0193 24.8003 12.9995 24.6176 12.9238C24.4349 12.8481 24.2787 12.72 24.1688 12.5555C24.0589 12.3911 24.0003 12.1977 24.0003 11.9999C24.0003 11.7347 24.1056 11.4804 24.2932 11.2928C24.4807 11.1053 24.7351 10.9999 25.0003 10.9999ZM17.0003 16.9999C16.8025 16.9999 16.6092 16.9413 16.4447 16.8314C16.2803 16.7215 16.1521 16.5653 16.0764 16.3826C16.0007 16.1999 15.9809 15.9988 16.0195 15.8049C16.0581 15.6109 16.1533 15.4327 16.2932 15.2928C16.433 15.153 16.6112 15.0577 16.8052 15.0192C16.9992 14.9806 17.2002 15.0004 17.383 15.0761C17.5657 15.1517 17.7219 15.2799 17.8317 15.4444C17.9416 15.6088 18.0003 15.8022 18.0003 15.9999C18.0003 16.2652 17.8949 16.5195 17.7074 16.707C17.5198 16.8946 17.2655 16.9999 17.0003 16.9999ZM25.0003 20.9999C24.8025 20.9999 24.6092 20.9413 24.4447 20.8314C24.2803 20.7215 24.1521 20.5654 24.0764 20.3826C24.0007 20.1999 23.9809 19.9988 24.0195 19.8048C24.0581 19.6109 24.1533 19.4327 24.2932 19.2928C24.433 19.153 24.6112 19.0577 24.8052 19.0192C24.9992 18.9806 25.2002 19.0004 25.383 19.0761C25.5657 19.1517 25.7219 19.2799 25.8317 19.4444C25.9416 19.6088 26.0003 19.8022 26.0003 19.9999C26.0003 20.2652 25.8949 20.5195 25.7074 20.707C25.5198 20.8946 25.2655 20.9999 25.0003 20.9999Z" fill="#374957"/>
<path d="M19.9995 20.9998H9.49953C8.64796 21.0024 7.82482 20.6936 7.18505 20.1315C6.54528 19.5695 6.13302 18.793 6.02585 17.9482C5.91868 17.1034 6.124 16.2485 6.60317 15.5445C7.08233 14.8405 7.80229 14.336 8.62753 14.1258L10.0655 13.7548L9.18153 12.5628C8.41306 11.534 7.99838 10.284 7.99953 8.99982C8.01094 7.4858 8.59432 6.03207 9.63267 4.93017C10.671 3.82827 12.0876 3.15966 13.5983 3.05845C15.1089 2.95723 16.602 3.43088 17.7781 4.38441C18.9542 5.33795 19.7263 6.70085 19.9395 8.19982L20.0395 8.93582L21.7875 7.18782C21.3392 5.27899 20.2054 3.60131 18.6015 2.47338C16.9976 1.34545 15.0353 0.845833 13.0873 1.06941C11.1393 1.29298 9.3413 2.22417 8.03466 3.68614C6.72802 5.14811 6.0038 7.03904 5.99953 8.99982C5.99855 10.2782 6.30736 11.5378 6.89953 12.6708C5.82066 13.249 4.96593 14.1711 4.47115 15.2906C3.97637 16.4102 3.86992 17.663 4.16871 18.8499C4.46749 20.0369 5.15438 21.09 6.12024 21.8419C7.0861 22.5938 8.27552 23.0014 9.49953 22.9998H19.9995C20.3246 22.9979 20.6492 22.9762 20.9715 22.9348C20.5443 22.3605 20.2468 21.7003 20.0995 20.9998C20.0665 20.9998 20.0335 20.9998 19.9995 20.9998Z" fill="#374957"/>
</g>
<defs>
<filter id="filter0_d_403_3546" x="0" y="0" width="32" height="32" filterUnits="userSpaceOnUse" color-interpolation-filters="sRGB">
<feFlood flood-opacity="0" result="BackgroundImageFix"/>
<feColorMatrix in="SourceAlpha" type="matrix" values="0 0 0 0 0 0 0 0 0 0 0 0 0 0 0 0 0 0 127 0" result="hardAlpha"/>
<feOffset dy="4"/>
<feGaussianBlur stdDeviation="2"/>
<feComposite in2="hardAlpha" operator="out"/>
<feColorMatrix type="matrix" values="0 0 0 0 0 0 0 0 0 0 0 0 0 0 0 0 0 0 0.25 0"/>
<feBlend mode="normal" in2="BackgroundImageFix" result="effect1_dropShadow_403_3546"/>
<feBlend mode="normal" in="SourceGraphic" in2="effect1_dropShadow_403_3546" result="shape"/>
</filter>
<clipPath id="clip0_403_3546">
<rect width="24" height="24" fill="white" transform="translate(4)"/>
</clipPath>
</defs>
</svg>
