<svg width="24" height="24" viewBox="0 0 24 24" fill="none" xmlns="http://www.w3.org/2000/svg">
<path d="M12.0002 0.00695801C10.0217 0.00718134 8.08765 0.594328 6.4429 1.6941C4.79816 2.79386 3.51662 4.35682 2.76046 6.18518C2.0043 8.01353 1.80751 10.0251 2.19499 11.9654C2.58247 13.9056 3.5368 15.6873 4.93722 17.085L12.0002 23.993L19.0712 17.077C20.4694 15.6784 21.4215 13.8967 21.8071 11.957C22.1927 10.0174 21.9946 8.00699 21.2378 6.17995C20.481 4.35291 19.1994 2.79129 17.5552 1.69253C15.9109 0.593758 13.9778 0.00718254 12.0002 0.00695801V0.00695801ZM17.6652 15.655L12.0002 21.2L6.34322 15.663C5.22478 14.5445 4.46301 13.1195 4.15419 11.5682C3.84536 10.0169 4.00333 8.40885 4.60815 6.9473C5.21296 5.48575 6.23746 4.23629 7.55218 3.35683C8.8669 2.47736 10.4128 2.00737 11.9946 2.00626C13.5763 2.00514 15.1229 2.47294 16.4389 3.35055C17.7548 4.22815 18.7811 5.47616 19.388 6.93686C19.9948 8.39755 20.1551 10.0054 19.8485 11.5571C19.5418 13.1089 18.7821 14.5349 17.6652 15.655V15.655ZM16.0182 7.42296L13.5182 5.51296C13.0819 5.18116 12.5489 5.00151 12.0007 5.00151C11.4526 5.00151 10.9195 5.18116 10.4832 5.51296L7.98322 7.42296C7.67847 7.65684 7.4314 7.95747 7.26099 8.30176C7.09058 8.64604 7.00137 9.02481 7.00022 9.40896V14H17.0002V9.40896C16.999 9.02492 16.9099 8.64625 16.7397 8.302C16.5695 7.95775 16.3227 7.65704 16.0182 7.42296V7.42296ZM15.0002 12H13.0002V9.99996H11.0002V12H9.00022V9.40896C9.00022 9.33134 9.01829 9.25478 9.05301 9.18535C9.08772 9.11592 9.13812 9.05553 9.20022 9.00896L11.7002 7.09996C11.7875 7.03314 11.8943 6.99693 12.0042 6.99693C12.1141 6.99693 12.221 7.03314 12.3082 7.09996L14.8082 9.00996C14.8703 9.05653 14.9207 9.11692 14.9554 9.18635C14.9901 9.25578 15.0082 9.33234 15.0082 9.40996L15.0002 12Z" fill="#374957"/>
</svg>
