<svg width="32" height="26" viewBox="0 0 32 26" fill="none" xmlns="http://www.w3.org/2000/svg">
<g filter="url(#filter0_d_403_3401)">
<path d="M12.9998 16.0003H18.9998V18.0003H12.9998V16.0003ZM17.7928 6.79333L15.9998 8.58634L14.2068 6.79333L12.7928 8.20733L14.5858 10.0003L12.7928 11.7933L14.2068 13.2073L15.9998 11.4143L17.7928 13.2073L19.2068 11.7933L17.4138 10.0003L19.2068 8.20733L17.7928 6.79333ZM20.9998 18.0003H26.9998V16.0003H20.9998V18.0003ZM27.2068 8.20733L25.7928 6.79333L23.9998 8.58634L22.2068 6.79333L20.7928 8.20733L22.5858 10.0003L20.7928 11.7933L22.2068 13.2073L23.9998 11.4143L25.7928 13.2073L27.2068 11.7933L25.4138 10.0003L27.2068 8.20733ZM4.99985 18.0003H10.9998V16.0003H4.99985V18.0003ZM9.79285 6.79333L7.99985 8.58634L6.20685 6.79333L4.79285 8.20733L6.58585 10.0003L4.79285 11.7933L6.20685 13.2073L7.99985 11.4143L9.79285 13.2073L11.2068 11.7933L9.41385 10.0003L11.2068 8.20733L9.79285 6.79333Z" fill="#374957"/>
</g>
<defs>
<filter id="filter0_d_403_3401" x="0" y="0" width="32" height="32" filterUnits="userSpaceOnUse" color-interpolation-filters="sRGB">
<feFlood flood-opacity="0" result="BackgroundImageFix"/>
<feColorMatrix in="SourceAlpha" type="matrix" values="0 0 0 0 0 0 0 0 0 0 0 0 0 0 0 0 0 0 127 0" result="hardAlpha"/>
<feOffset dy="4"/>
<feGaussianBlur stdDeviation="2"/>
<feComposite in2="hardAlpha" operator="out"/>
<feColorMatrix type="matrix" values="0 0 0 0 0 0 0 0 0 0 0 0 0 0 0 0 0 0 0.25 0"/>
<feBlend mode="normal" in2="BackgroundImageFix" result="effect1_dropShadow_403_3401"/>
<feBlend mode="normal" in="SourceGraphic" in2="effect1_dropShadow_403_3401" result="shape"/>
</filter>
</defs>
</svg>
