<svg width="24" height="24" viewBox="0 0 24 24" fill="none" xmlns="http://www.w3.org/2000/svg">
<g clip-path="url(#clip0_403_3553)">
<path d="M20 18H24V20H20V24H18V20H14V18H18V14H20V18ZM11 6.00001V10.586L8.29301 13.293L9.70701 14.707L13 11.414V6.00001H11ZM2.00001 12C1.99884 10.6439 2.2735 9.30174 2.8073 8.05511C3.3411 6.80849 4.12287 5.68346 5.10509 4.74844C6.0873 3.81342 7.24944 3.08795 8.52081 2.61613C9.79219 2.14432 11.1463 1.93603 12.5007 2.00392C13.8551 2.07181 15.1815 2.41447 16.3993 3.01107C17.6171 3.60766 18.7009 4.44571 19.5847 5.47427C20.4685 6.50283 21.1338 7.7004 21.5403 8.99415C21.9467 10.2879 22.0858 11.6508 21.949 13H23.949C23.977 12.669 24 12.338 24 12C24 9.62663 23.2962 7.30655 21.9776 5.33316C20.6591 3.35977 18.7849 1.8217 16.5922 0.913451C14.3995 0.00519943 11.9867 -0.232441 9.65892 0.230582C7.33115 0.693605 5.19295 1.83649 3.51472 3.51472C1.83649 5.19295 0.693605 7.33115 0.230582 9.65892C-0.232441 11.9867 0.00519943 14.3995 0.913451 16.5922C1.8217 18.7849 3.35977 20.6591 5.33316 21.9776C7.30655 23.2962 9.62663 24 12 24C12.338 24 12.669 23.977 13 23.949V21.949C11.6093 22.09 10.2044 21.9377 8.87629 21.5018C7.54813 21.0659 6.32621 20.3562 5.28949 19.4185C4.25277 18.4809 3.42433 17.3361 2.85771 16.0583C2.29109 14.7804 1.99889 13.3979 2.00001 12V12Z" fill="#374957"/>
</g>
<defs>
<clipPath id="clip0_403_3553">
<rect width="24" height="24" fill="white"/>
</clipPath>
</defs>
</svg>
