<svg width="24" height="24" viewBox="0 0 24 24" fill="none" xmlns="http://www.w3.org/2000/svg">
<g clip-path="url(#clip0_403_3720)">
<path d="M8.474 11C7.3862 11 6.32283 10.6774 5.41836 10.0731C4.51389 9.46874 3.80894 8.60976 3.39266 7.60476C2.97638 6.59977 2.86746 5.4939 3.07968 4.42701C3.2919 3.36011 3.81572 2.3801 4.58491 1.61092C5.3541 0.841726 6.33411 0.317902 7.401 0.105683C8.4679 -0.106535 9.57377 0.00238308 10.5788 0.418665C11.5838 0.834947 12.4427 1.5399 13.0471 2.44437C13.6514 3.34884 13.974 4.41221 13.974 5.5C13.9724 6.95821 13.3924 8.35623 12.3613 9.38734C11.3302 10.4184 9.9322 10.9984 8.474 11ZM8.474 2C7.78177 2 7.10508 2.20527 6.5295 2.58986C5.95393 2.97444 5.50533 3.52107 5.24042 4.16061C4.97551 4.80015 4.9062 5.50389 5.04125 6.18282C5.1763 6.86175 5.50964 7.48539 5.99913 7.97488C6.48861 8.46436 7.11225 8.7977 7.79118 8.93275C8.47012 9.0678 9.17385 8.99849 9.81339 8.73358C10.4529 8.46868 10.9996 8.02007 11.3841 7.4445C11.7687 6.86893 11.974 6.19224 11.974 5.5C11.974 4.57175 11.6053 3.68151 10.9489 3.02513C10.2925 2.36875 9.40226 2 8.474 2ZM17 24C15.6155 24 14.2622 23.5895 13.111 22.8203C11.9599 22.0511 11.0627 20.9579 10.5328 19.6788C10.003 18.3997 9.86441 16.9922 10.1345 15.6344C10.4046 14.2765 11.0713 13.0292 12.0503 12.0503C13.0292 11.0713 14.2765 10.4046 15.6344 10.1345C16.9922 9.86441 18.3997 10.003 19.6788 10.5328C20.9579 11.0627 22.0511 11.9599 22.8203 13.111C23.5895 14.2622 24 15.6155 24 17C23.9979 18.8559 23.2597 20.6351 21.9474 21.9474C20.6351 23.2597 18.8559 23.9979 17 24ZM17 12C16.0111 12 15.0444 12.2932 14.2221 12.8427C13.3999 13.3921 12.759 14.173 12.3806 15.0866C12.0022 16.0002 11.9031 17.0056 12.0961 17.9755C12.289 18.9454 12.7652 19.8363 13.4645 20.5355C14.1637 21.2348 15.0546 21.711 16.0245 21.9039C16.9945 22.0969 17.9998 21.9978 18.9134 21.6194C19.827 21.241 20.6079 20.6001 21.1573 19.7779C21.7068 18.9556 22 17.9889 22 17C21.9984 15.6744 21.4711 14.4036 20.5338 13.4662C19.5964 12.5289 18.3256 12.0016 17 12ZM19.707 18.293L18 16.586V14H16V17.414L18.293 19.707L19.707 18.293ZM8.947 13H5C3.67441 13.0016 2.40356 13.5289 1.46622 14.4662C0.528882 15.4036 0.00158786 16.6744 0 18L0 24H2V18C2 17.2044 2.31607 16.4413 2.87868 15.8787C3.44129 15.3161 4.20435 15 5 15H8.231C8.38852 14.307 8.62891 13.6355 8.947 13Z" fill="#374957"/>
</g>
<defs>
<clipPath id="clip0_403_3720">
<rect width="24" height="24" fill="white"/>
</clipPath>
</defs>
</svg>
