<svg width="24" height="24" viewBox="0 0 24 24" fill="none" xmlns="http://www.w3.org/2000/svg">
<g clip-path="url(#clip0_403_3398)">
<path d="M23.2 0.800583C22.8291 0.426717 22.3574 0.168843 21.8425 0.0583991C21.3276 -0.0520447 20.7916 -0.0102865 20.3 0.178583L0 8.32258V9.00058C0.00449947 12.9774 1.5863 16.7901 4.39837 19.6022C7.21044 22.4143 11.0231 23.9961 15 24.0006H15.676L23.832 3.67058C24.0141 3.18212 24.0513 2.65149 23.9392 2.1424C23.8271 1.6333 23.5704 1.16738 23.2 0.800583V0.800583ZM21.01 2.04558C21.1411 1.99521 21.2841 1.98457 21.4213 2.01498C21.5584 2.04539 21.6835 2.11551 21.781 2.21658C21.8798 2.30905 21.9496 2.42816 21.9821 2.55949C22.0145 2.69082 22.0083 2.82874 21.964 2.95658L21.288 4.64058C15.58 2.68458 12.374 10.7666 17.822 13.2796L15.93 18.0006C9.551 17.9706 6.029 14.4476 6 8.06858L21.01 2.04558ZM17 9.00058C17.0005 8.5761 17.1028 8.15793 17.2983 7.78113C17.4937 7.40433 17.7767 7.0799 18.1234 6.83503C18.4702 6.59016 18.8706 6.432 19.291 6.37381C19.7115 6.31561 20.1398 6.35909 20.54 6.50058L18.567 11.4186C18.1015 11.2081 17.7064 10.8683 17.4285 10.4396C17.1507 10.0109 17.002 9.51142 17 9.00058ZM14.331 21.9836C11.1198 21.8139 8.08504 20.4618 5.8114 18.1878C3.53777 15.9138 2.18616 12.8788 2.017 9.66758L4.033 8.85858C4.354 15.5646 8.433 19.6456 15.139 19.9676L14.331 21.9836Z" fill="#374957"/>
<path d="M11 13C11.5304 13 12.0391 12.7893 12.4142 12.4142C12.7893 12.0391 13 11.5304 13 11C13 10.4696 12.7893 9.96086 12.4142 9.58579C12.0391 9.21071 11.5304 9 11 9C10.4696 9 9.96086 9.21071 9.58579 9.58579C9.21071 9.96086 9 10.4696 9 11C9 11.5304 9.21071 12.0391 9.58579 12.4142C9.96086 12.7893 10.4696 13 11 13Z" fill="#374957"/>
</g>
<defs>
<clipPath id="clip0_403_3398">
<rect width="24" height="24" fill="white"/>
</clipPath>
</defs>
</svg>
