<svg width="32" height="32" viewBox="0 0 32 32" fill="none" xmlns="http://www.w3.org/2000/svg">
<g clip-path="url(#clip0_403_3599)" filter="url(#filter0_d_403_3599)">
<path d="M18.9996 6.48421V0.136213L5.28461 9.22921L5.25561 9.24921C4.86691 9.52675 4.5501 9.89308 4.33152 10.3177C4.11293 10.7424 3.9989 11.2131 3.9989 11.6907C3.9989 12.1683 4.11293 12.639 4.33152 13.0637C4.5501 13.4883 4.86691 13.8547 5.25561 14.1322L18.9996 23.9422V17.5142L27.9996 23.9422V0.0562134L18.9996 6.48421ZM25.9996 20.0562L16.9996 13.6272V20.0562L6.41861 12.5042C6.29005 12.4124 6.18507 12.2915 6.11226 12.1513C6.03945 12.0112 6.00088 11.8557 5.99971 11.6978C5.99854 11.5398 6.0348 11.3838 6.10553 11.2426C6.17625 11.1014 6.27943 10.9789 6.40661 10.8852L16.9996 3.86221V10.3712L25.9996 3.94221V20.0562Z" fill="#374957"/>
</g>
<defs>
<filter id="filter0_d_403_3599" x="0" y="0" width="32" height="32" filterUnits="userSpaceOnUse" color-interpolation-filters="sRGB">
<feFlood flood-opacity="0" result="BackgroundImageFix"/>
<feColorMatrix in="SourceAlpha" type="matrix" values="0 0 0 0 0 0 0 0 0 0 0 0 0 0 0 0 0 0 127 0" result="hardAlpha"/>
<feOffset dy="4"/>
<feGaussianBlur stdDeviation="2"/>
<feComposite in2="hardAlpha" operator="out"/>
<feColorMatrix type="matrix" values="0 0 0 0 0 0 0 0 0 0 0 0 0 0 0 0 0 0 0.25 0"/>
<feBlend mode="normal" in2="BackgroundImageFix" result="effect1_dropShadow_403_3599"/>
<feBlend mode="normal" in="SourceGraphic" in2="effect1_dropShadow_403_3599" result="shape"/>
</filter>
<clipPath id="clip0_403_3599">
<rect width="24" height="24" fill="white" transform="translate(4)"/>
</clipPath>
</defs>
</svg>
