<svg width="32" height="32" viewBox="0 0 32 32" fill="none" xmlns="http://www.w3.org/2000/svg">
<g clip-path="url(#clip0_403_3520)" filter="url(#filter0_d_403_3520)">
<path d="M27.115 0.885851C26.5393 0.335474 25.7735 0.0283203 24.977 0.0283203C24.1805 0.0283203 23.4147 0.335474 22.839 0.885851L19.432 4.29285C18.7954 4.93523 17.9323 5.30246 17.028 5.31573C16.1237 5.329 15.2502 4.98726 14.595 4.36385L13.2 5.79985L15.225 7.82484L6.025 17.0248C5.48972 17.5544 5.1421 18.2444 5.03506 18.9897C4.92801 19.7351 5.0674 20.495 5.432 21.1538L4 22.5858L5.414 23.9998L6.846 22.5678C7.50483 22.9324 8.26475 23.0718 9.01009 22.9648C9.75544 22.8577 10.4454 22.5101 10.975 21.9748L20.175 12.7748L22.2 14.7998L23.634 13.4068C23.0103 12.7517 22.6684 11.8782 22.6817 10.9738C22.695 10.0695 23.0624 9.20634 23.705 8.56984L27.112 5.16285C27.6789 4.59593 27.9973 3.82706 27.9973 3.02535C27.9973 2.22364 27.6789 1.45477 27.112 0.887851L27.115 0.885851ZM9.56 20.5608C9.27427 20.8335 8.89448 20.9857 8.4995 20.9857C8.10452 20.9857 7.72473 20.8335 7.439 20.5608C7.15779 20.2795 6.99982 19.8981 6.99982 19.5003C6.99982 19.1026 7.15779 18.7211 7.439 18.4398L16.639 9.23984L18.76 11.3608L9.56 20.5608ZM25.7 3.74685L22.293 7.15384C21.3959 8.0443 20.8353 9.21835 20.707 10.4758L17.524 7.29284C18.7815 7.16449 19.9555 6.60398 20.846 5.70684L24.254 2.29985C24.4485 2.11344 24.7076 2.00937 24.977 2.00937C25.2464 2.00937 25.5055 2.11344 25.7 2.29985C25.7952 2.39478 25.8706 2.50755 25.9222 2.6317C25.9737 2.75585 26.0002 2.88894 26.0002 3.02335C26.0002 3.15776 25.9737 3.29085 25.9222 3.415C25.8706 3.53915 25.7952 3.65192 25.7 3.74685V3.74685Z" fill="#374957"/>
</g>
<defs>
<filter id="filter0_d_403_3520" x="0" y="0" width="32" height="32" filterUnits="userSpaceOnUse" color-interpolation-filters="sRGB">
<feFlood flood-opacity="0" result="BackgroundImageFix"/>
<feColorMatrix in="SourceAlpha" type="matrix" values="0 0 0 0 0 0 0 0 0 0 0 0 0 0 0 0 0 0 127 0" result="hardAlpha"/>
<feOffset dy="4"/>
<feGaussianBlur stdDeviation="2"/>
<feComposite in2="hardAlpha" operator="out"/>
<feColorMatrix type="matrix" values="0 0 0 0 0 0 0 0 0 0 0 0 0 0 0 0 0 0 0.25 0"/>
<feBlend mode="normal" in2="BackgroundImageFix" result="effect1_dropShadow_403_3520"/>
<feBlend mode="normal" in="SourceGraphic" in2="effect1_dropShadow_403_3520" result="shape"/>
</filter>
<clipPath id="clip0_403_3520">
<rect width="24" height="24" fill="white" transform="translate(4)"/>
</clipPath>
</defs>
</svg>
