<svg width="24" height="24" viewBox="0 0 24 24" fill="none" xmlns="http://www.w3.org/2000/svg">
<g clip-path="url(#clip0_403_3536)">
<path d="M16.4999 23.9998C9.25193 23.9998 -7.27975e-05 14.7479 -7.27975e-05 7.49986C-0.00700483 6.71968 0.141218 5.94589 0.43598 5.2235C0.730742 4.5011 1.16616 3.8445 1.71693 3.29187L4.88693 0.121873L11.1509 6.38687L7.74493 9.79286C8.97231 12.7074 11.2881 15.0282 14.1999 16.2619L17.6139 12.8479L23.8799 19.1129L20.7079 22.2848C20.1551 22.8352 19.4984 23.2702 18.776 23.5646C18.0537 23.8591 17.28 24.007 16.4999 23.9998V23.9998ZM4.88693 2.95087L3.12993 4.70787C2.76589 5.0751 2.47851 5.51106 2.28452 5.99038C2.09052 6.4697 1.99378 6.98281 1.99993 7.49986C1.99993 13.7339 10.2659 21.9998 16.4999 21.9998C17.0168 22.0058 17.5297 21.9092 18.0089 21.7156C18.4882 21.5219 18.9243 21.2352 19.2919 20.8718L21.0509 19.1129L17.6129 15.6759L14.6859 18.5999L14.0799 18.3679C12.1501 17.6497 10.3972 16.5251 8.94003 15.0703C7.48282 13.6155 6.35532 11.8645 5.63393 9.93586L5.38793 9.32286L8.32293 6.38687L4.88693 2.95087ZM17.1869 10.6889L18.5599 9.31786L16.9999 7.75786V4.99987H14.9999V8.49986L17.1869 10.6889ZM11.5649 3.97287C12.1096 3.37076 12.771 2.88565 13.5089 2.54699C14.2468 2.20834 15.0459 2.02321 15.8576 2.00286C16.6692 1.9825 17.4766 2.12733 18.2305 2.42857C18.9845 2.7298 19.6694 3.18115 20.2436 3.75519C20.8177 4.32924 21.2692 5.014 21.5707 5.7679C21.8721 6.5218 22.0171 7.3291 21.9969 8.14077C21.9768 8.95244 21.7918 9.75154 21.4533 10.4895C21.1149 11.2275 20.6299 11.889 20.0279 12.4339L21.4409 13.8479C22.2279 13.1171 22.8594 12.2352 23.2977 11.2549C23.736 10.2745 23.9722 9.21587 23.9921 8.14217C24.012 7.06847 23.8151 6.00179 23.4134 5.00589C23.0116 4.00999 22.4132 3.10533 21.6538 2.34598C20.8945 1.58663 19.9898 0.988185 18.9939 0.586426C17.998 0.184668 16.9313 -0.0121579 15.8576 0.00771576C14.7839 0.0275894 13.7253 0.263754 12.7449 0.702092C11.7646 1.14043 10.8827 1.77194 10.1519 2.55887L11.5649 3.97287Z" fill="#374957"/>
</g>
<defs>
<clipPath id="clip0_403_3536">
<rect width="24" height="24" fill="white"/>
</clipPath>
</defs>
</svg>
