<svg width="24" height="24" viewBox="0 0 24 24" fill="none" xmlns="http://www.w3.org/2000/svg">
<g clip-path="url(#clip0_403_3542)">
<path d="M2.4 15.0005H0V13.0005H2.051C2.023 12.6695 2 12.3385 2 12.0005C2 11.6625 2.023 11.3315 2.051 11.0005H0V9.00047H2.4C2.95206 6.85913 4.08561 4.9122 5.67529 3.37499C7.26496 1.83778 9.24882 0.770181 11.4075 0.290262C13.5661 -0.189656 15.8155 -0.0631948 17.9067 0.655661C19.998 1.37452 21.8496 2.65776 23.257 4.36347L21.715 5.63747C20.5696 4.2487 19.0705 3.19488 17.376 2.58723C15.6814 1.97957 13.8543 1.84061 12.0873 2.185C10.3204 2.5294 8.67918 3.34439 7.33689 4.54395C5.99461 5.74352 5.00103 7.28318 4.461 9.00047H16V11.0005H4.051C3.983 11.6654 3.983 12.3355 4.051 13.0005H16V15.0005H4.461C5.00103 16.7178 5.99461 18.2574 7.33689 19.457C8.67918 20.6565 10.3204 21.4715 12.0873 21.8159C13.8543 22.1603 15.6814 22.0214 17.376 21.4137C19.0705 20.8061 20.5696 19.7522 21.715 18.3635L23.257 19.6375C21.8496 21.3432 19.998 22.6264 17.9067 23.3453C15.8155 24.0641 13.5661 24.1906 11.4075 23.7107C9.24882 23.2308 7.26496 22.1632 5.67529 20.6259C4.08561 19.0887 2.95206 17.1418 2.4 15.0005V15.0005Z" fill="#374957"/>
</g>
<defs>
<clipPath id="clip0_403_3542">
<rect width="24" height="24" fill="white"/>
</clipPath>
</defs>
</svg>
