<svg width="24" height="24" viewBox="0 0 24 24" fill="none" xmlns="http://www.w3.org/2000/svg">
<g clip-path="url(#clip0_403_3404)">
<path d="M24 20.0002H14.816C14.6666 19.582 14.4262 19.2021 14.1122 18.8881C13.7981 18.574 13.4182 18.3336 13 18.1842V14.0002H16C17.2581 14.0007 18.4702 13.5269 19.3944 12.6733C20.3186 11.8198 20.8871 10.6491 20.9864 9.39494C21.0858 8.14076 20.7086 6.89523 19.9303 5.90681C19.1519 4.91839 18.0295 4.25973 16.787 4.06222C16.4405 2.77642 15.6384 1.66046 14.5301 0.922315C13.4217 0.184165 12.0828 -0.125813 10.7628 0.0501513C9.44283 0.226115 8.23187 0.876015 7.3556 1.87873C6.47932 2.88145 5.99753 4.16857 6 5.50022C6.00029 5.70646 6.01298 5.9125 6.038 6.11722C5.08935 6.35184 4.25941 6.92563 3.70484 7.73027C3.15027 8.53491 2.90945 9.51472 3.02783 10.4848C3.1462 11.4548 3.61559 12.3479 4.34739 12.9956C5.07919 13.6433 6.02277 14.0006 7 14.0002H11V18.1842C10.5818 18.3336 10.2019 18.574 9.88785 18.8881C9.5738 19.2021 9.3334 19.582 9.184 20.0002H0V22.0002H9.184C9.38765 22.5848 9.76815 23.0914 10.2727 23.45C10.7773 23.8085 11.381 24.0012 12 24.0012C12.619 24.0012 13.2227 23.8085 13.7273 23.45C14.2318 23.0914 14.6124 22.5848 14.816 22.0002H24V20.0002ZM5 10.0002C5.00088 9.73502 5.0545 9.47265 5.15773 9.22837C5.26096 8.98408 5.41174 8.76277 5.6013 8.57731C5.79086 8.39184 6.01541 8.24593 6.26189 8.14806C6.50837 8.05018 6.77185 8.00231 7.037 8.00722H7.052L8.765 8.17822L8.225 6.68722C8.08034 6.30798 8.00416 5.90608 8 5.50022C7.99687 4.60641 8.33699 3.7455 8.95016 3.09518C9.56334 2.44485 10.4028 2.05473 11.2952 2.00534C12.1877 1.95594 13.065 2.25104 13.7462 2.82972C14.4274 3.40841 14.8605 4.22652 14.956 5.11522L15.056 6.00522H16.061C16.8352 6.04374 17.5644 6.3804 18.0958 6.94465C18.6272 7.50891 18.9196 8.25696 18.9118 9.03203C18.9039 9.80711 18.5963 10.5491 18.0535 11.1024C17.5107 11.6557 16.7748 11.9775 16 12.0002H7C6.46957 12.0002 5.96086 11.7895 5.58579 11.4144C5.21071 11.0394 5 10.5307 5 10.0002ZM12 22.0002C11.8022 22.0002 11.6089 21.9416 11.4444 21.8317C11.28 21.7218 11.1518 21.5656 11.0761 21.3829C11.0004 21.2002 10.9806 20.9991 11.0192 20.8051C11.0578 20.6111 11.153 20.433 11.2929 20.2931C11.4327 20.1533 11.6109 20.058 11.8049 20.0194C11.9989 19.9808 12.2 20.0007 12.3827 20.0763C12.5654 20.152 12.7216 20.2802 12.8315 20.4446C12.9414 20.6091 13 20.8024 13 21.0002C13 21.2654 12.8946 21.5198 12.7071 21.7073C12.5196 21.8949 12.2652 22.0002 12 22.0002Z" fill="#374957"/>
</g>
<defs>
<clipPath id="clip0_403_3404">
<rect width="24" height="24" fill="white"/>
</clipPath>
</defs>
</svg>
