<svg width="24" height="24" viewBox="0 0 24 24" fill="none" xmlns="http://www.w3.org/2000/svg">
<g clip-path="url(#clip0_403_3322)">
<path d="M16.9999 20.9999C16.9999 21.7955 16.6838 22.5586 16.1212 23.1212C15.5586 23.6838 14.7955 23.9999 13.9999 23.9999C13.2042 23.9999 12.4412 23.6838 11.8786 23.1212C11.3159 22.5586 10.9999 21.7955 10.9999 20.9999V17.9999C10.9999 17.2042 11.3159 16.4411 11.8786 15.8785C12.4412 15.3159 13.2042 14.9999 13.9999 14.9999H15.9999V16.9999H13.9999C13.7347 16.9999 13.4803 17.1052 13.2928 17.2927C13.1052 17.4803 12.9999 17.7346 12.9999 17.9999V18.1709C13.4524 18.0109 13.9367 17.9618 14.4122 18.0277C14.8876 18.0937 15.3403 18.2728 15.7322 18.55C16.124 18.8271 16.4437 19.1943 16.6643 19.6206C16.8849 20.0469 17 20.5199 16.9999 20.9999ZM14.9999 20.9999C14.9999 20.8021 14.9412 20.6087 14.8313 20.4443C14.7215 20.2798 14.5653 20.1517 14.3826 20.076C14.1998 20.0003 13.9988 19.9805 13.8048 20.0191C13.6108 20.0577 13.4326 20.1529 13.2928 20.2927C13.1529 20.4326 13.0577 20.6108 13.0191 20.8048C12.9805 20.9987 13.0003 21.1998 13.076 21.3825C13.1517 21.5653 13.2799 21.7214 13.4443 21.8313C13.6088 21.9412 13.8021 21.9999 13.9999 21.9999C14.2651 21.9999 14.5194 21.8945 14.707 21.707C14.8945 21.5194 14.9999 21.2651 14.9999 20.9999ZM23.9999 17.9999V20.9999C23.9999 21.7955 23.6838 22.5586 23.1212 23.1212C22.5586 23.6838 21.7955 23.9999 20.9999 23.9999C20.2042 23.9999 19.4412 23.6838 18.8786 23.1212C18.3159 22.5586 17.9999 21.7955 17.9999 20.9999V17.9999C17.9999 17.2042 18.3159 16.4411 18.8786 15.8785C19.4412 15.3159 20.2042 14.9999 20.9999 14.9999C21.7955 14.9999 22.5586 15.3159 23.1212 15.8785C23.6838 16.4411 23.9999 17.2042 23.9999 17.9999ZM21.9999 17.9999C21.9999 17.7346 21.8945 17.4803 21.707 17.2927C21.5194 17.1052 21.2651 16.9999 20.9999 16.9999C20.7347 16.9999 20.4803 17.1052 20.2928 17.2927C20.1052 17.4803 19.9999 17.7346 19.9999 17.9999V20.9999C19.9999 21.2651 20.1052 21.5194 20.2928 21.707C20.4803 21.8945 20.7347 21.9999 20.9999 21.9999C21.2651 21.9999 21.5194 21.8945 21.707 21.707C21.8945 21.5194 21.9999 21.2651 21.9999 20.9999V17.9999ZM12.9999 5.99985H10.9999V10.9999H6.99988V12.9999H12.9999V5.99985ZM21.9999 1.99985V5.37385C20.9262 3.75006 19.4735 2.41198 17.7671 1.47512C16.0607 0.538258 14.1519 0.0307789 12.2056 -0.00350985C10.2592 -0.0377986 8.33378 0.402134 6.59545 1.27831C4.85712 2.15448 3.35816 3.44057 2.22796 5.02553C1.09777 6.6105 0.370303 8.44672 0.108377 10.3757C-0.15355 12.3046 0.0579304 14.2683 0.724559 16.0973C1.39119 17.9263 2.49293 19.5655 3.93468 20.8735C5.37643 22.1815 7.11485 23.1189 8.99988 23.6049V21.5389C7.44518 21.0553 6.03208 20.1994 4.88334 19.0456C3.7346 17.8917 2.88496 16.4749 2.40825 14.918C1.93153 13.3612 1.84216 11.7116 2.14789 10.1124C2.45363 8.51315 3.14522 7.01278 4.16258 5.7416C5.17994 4.47042 6.49231 3.46688 7.98566 2.81816C9.47901 2.16944 11.1082 1.89516 12.7316 2.01916C14.355 2.14317 15.9237 2.66169 17.3012 3.52969C18.6787 4.39769 19.8234 5.58891 20.6359 6.99985H16.9999V8.99985H21.9999C22.5303 8.99985 23.039 8.78914 23.4141 8.41407C23.7892 8.03899 23.9999 7.53029 23.9999 6.99985V1.99985H21.9999Z" fill="#374957"/>
</g>
<defs>
<clipPath id="clip0_403_3322">
<rect width="24" height="24" fill="white"/>
</clipPath>
</defs>
</svg>
