<svg width="24" height="24" viewBox="0 0 24 24" fill="none" xmlns="http://www.w3.org/2000/svg">
<g clip-path="url(#clip0_403_3725)">
<path d="M24 3.475L20.525 0L5.434 13.167L0 15.968V17.6C0.00185286 19.2968 0.676732 20.9236 1.87656 22.1234C3.07639 23.3233 4.70318 23.9981 6.4 24H8.046L10.834 18.564L24 3.475ZM9.95 16.536L7.464 14.05L9.264 12.476L11.52 14.732L9.95 16.536ZM21.265 3.568L12.842 13.222L10.778 11.158L20.432 2.735L21.265 3.568ZM6.824 22H6.4C5.23345 21.9987 4.11507 21.5347 3.29019 20.7098C2.46532 19.8849 2.00132 18.7665 2 17.6V17.187L5.809 15.224L8.778 18.191L6.824 22Z" fill="#374957"/>
</g>
<defs>
<clipPath id="clip0_403_3725">
<rect width="24" height="24" fill="white"/>
</clipPath>
</defs>
</svg>
