<svg width="24" height="24" viewBox="0 0 24 24" fill="none" xmlns="http://www.w3.org/2000/svg">
<g clip-path="url(#clip0_403_3488)">
<path d="M6.59992 22.1218L4.67692 21.5218L5.49992 18.9658C5.66922 18.9859 5.83945 18.9973 6.00992 18.9998C7.09109 18.9971 8.14226 18.6441 9.00585 17.9936C9.86945 17.3431 10.4989 16.4302 10.7999 15.3918L11.9999 11.8358L13.1829 15.3358C13.4795 16.4806 14.1811 17.4791 15.1577 18.146C16.1343 18.813 17.3197 19.1032 18.4939 18.9628L19.2939 21.5188L17.3639 22.1188L17.9579 24.0288L23.7369 22.2288L23.1439 20.3188L21.2049 20.9188L20.4049 18.3588C21.4037 17.8178 22.1868 16.9507 22.6236 15.9021C23.0604 14.8535 23.1244 13.6868 22.8049 12.5968L20.9569 7.13177C20.725 6.38432 20.2122 5.75596 19.5264 5.37885C18.8406 5.00175 18.0353 4.90529 17.2799 5.10977L13.4279 6.18377C12.8755 6.33747 12.3795 6.648 11.9999 7.07777C11.6203 6.648 11.1243 6.33747 10.5719 6.18377L6.71892 5.10977C5.96899 4.9029 5.16808 4.99463 4.48433 5.36568C3.80059 5.73673 3.28719 6.35826 3.05192 7.09977L1.18492 12.6568C0.879206 13.7392 0.950178 14.8934 1.38621 15.9303C1.82224 16.9671 2.59748 17.8251 3.58492 18.3638L2.76792 20.9318L0.820919 20.3318L0.229919 22.2368L6.01092 24.0368L6.59992 22.1218ZM20.6069 15.4728C20.4134 15.8159 20.1541 16.1176 19.844 16.3605C19.5338 16.6035 19.1788 16.783 18.7993 16.8887C18.4198 16.9945 18.0232 17.0245 17.6321 16.977C17.241 16.9294 16.8631 16.8053 16.5199 16.6118C16.1695 16.4129 15.8624 16.146 15.6167 15.8268C15.3709 15.5075 15.1915 15.1424 15.0889 14.7528L14.1639 11.9998H20.4869L20.8869 13.1938C20.9939 13.573 21.0246 13.9697 20.9773 14.3609C20.9299 14.7521 20.8054 15.13 20.6109 15.4728H20.6069ZM13.3569 8.59177C13.4205 8.47459 13.5072 8.37148 13.6117 8.28865C13.7162 8.20582 13.8363 8.14497 13.9649 8.10976L17.8159 7.03677C17.9019 7.01271 17.9907 7.00026 18.0799 6.99977C18.2999 7.00209 18.5132 7.07523 18.6883 7.20835C18.8634 7.34146 18.9909 7.52746 19.0519 7.73877L19.8129 9.99976H13.4899L13.2749 9.36276C13.2366 9.23526 13.2241 9.10139 13.2382 8.96899C13.2522 8.8366 13.2926 8.70835 13.3569 8.59177V8.59177ZM5.91792 6.99977C6.00746 6.99993 6.09658 7.01204 6.18292 7.03576L10.0349 8.10976C10.2894 8.17995 10.5058 8.34791 10.6369 8.57702C10.7681 8.80613 10.8033 9.07779 10.7349 9.33277L10.5099 9.99976H4.18692L4.95692 7.70977C5.02047 7.50442 5.148 7.32476 5.32088 7.19703C5.49377 7.0693 5.70296 7.00018 5.91792 6.99977V6.99977ZM3.09992 13.2448L3.51392 11.9998H9.83592L8.89192 14.7998C8.73219 15.3706 8.40695 15.8813 7.95725 16.2674C7.50755 16.6535 6.95354 16.8978 6.36514 16.9694C5.77674 17.041 5.18032 16.9366 4.65117 16.6696C4.12201 16.4025 3.68383 15.9846 3.39192 15.4688C3.00544 14.7948 2.90051 13.9956 3.09992 13.2448V13.2448Z" fill="#374957"/>
<path d="M16.2932 0.292857L14.0049 2.58105L15.4192 3.99527L17.7074 1.70707L16.2932 0.292857Z" fill="#374957"/>
<path d="M7.70676 0.293305L6.29254 1.70752L8.54256 3.95753L9.95678 2.54332L7.70676 0.293305Z" fill="#374957"/>
<path d="M13.0002 0H11.0002V3H13.0002V0Z" fill="#374957"/>
</g>
<defs>
<clipPath id="clip0_403_3488">
<rect width="24" height="24" fill="white"/>
</clipPath>
</defs>
</svg>
