<svg width="32" height="32" viewBox="0 0 32 32" fill="none" xmlns="http://www.w3.org/2000/svg">
<g clip-path="url(#clip0_403_3342)" filter="url(#filter0_d_403_3342)">
<path d="M28 24H7C6.20435 24 5.44129 23.6839 4.87868 23.1213C4.31607 22.5587 4 21.7956 4 21V0H6V21C6 21.2652 6.10536 21.5196 6.29289 21.7071C6.48043 21.8946 6.73478 22 7 22H28V24Z" fill="#374957"/>
<path d="M19.9996 11.0006H17.9996V20.0006H19.9996V11.0006Z" fill="#374957"/>
<path d="M12 11.0006H10V20.0006H12V11.0006Z" fill="#374957"/>
<path d="M24 6H22V20H24V6Z" fill="#374957"/>
<path d="M16.0002 6H14.0002V20H16.0002V6Z" fill="#374957"/>
</g>
<defs>
<filter id="filter0_d_403_3342" x="0" y="0" width="32" height="32" filterUnits="userSpaceOnUse" color-interpolation-filters="sRGB">
<feFlood flood-opacity="0" result="BackgroundImageFix"/>
<feColorMatrix in="SourceAlpha" type="matrix" values="0 0 0 0 0 0 0 0 0 0 0 0 0 0 0 0 0 0 127 0" result="hardAlpha"/>
<feOffset dy="4"/>
<feGaussianBlur stdDeviation="2"/>
<feComposite in2="hardAlpha" operator="out"/>
<feColorMatrix type="matrix" values="0 0 0 0 0 0 0 0 0 0 0 0 0 0 0 0 0 0 0.25 0"/>
<feBlend mode="normal" in2="BackgroundImageFix" result="effect1_dropShadow_403_3342"/>
<feBlend mode="normal" in="SourceGraphic" in2="effect1_dropShadow_403_3342" result="shape"/>
</filter>
<clipPath id="clip0_403_3342">
<rect width="24" height="24" fill="white" transform="translate(4)"/>
</clipPath>
</defs>
</svg>
