<svg width="32" height="32" viewBox="0 0 32 32" fill="none" xmlns="http://www.w3.org/2000/svg">
<g clip-path="url(#clip0_403_3709)" filter="url(#filter0_d_403_3709)">
<path d="M26 6H22V8H24.586L21.186 11.4C20.2339 10.6841 19.1137 10.225 17.933 10.067C17.7746 8.887 17.3156 7.76752 16.6 6.816L20 3.416V6H22V2C22 1.46957 21.7893 0.960859 21.4142 0.585787C21.0391 0.210714 20.5304 0 20 0L16 0V2H18.586L15.186 5.4C14.3305 4.76013 13.3397 4.32478 12.2898 4.12736C11.2399 3.92994 10.1586 3.97571 9.12916 4.26115C8.09966 4.54658 7.14925 5.0641 6.35088 5.77398C5.5525 6.48386 4.92739 7.36722 4.52351 8.35627C4.11964 9.34532 3.94774 10.4138 4.02102 11.4796C4.09429 12.5454 4.41079 13.5802 4.94622 14.5047C5.48165 15.4292 6.22178 16.2187 7.1098 16.8126C7.99781 17.4066 9.0101 17.7891 10.069 17.931C10.2069 18.9939 10.587 20.0109 11.18 20.9036C11.7731 21.7964 12.5632 22.5411 13.4895 23.0802C14.4158 23.6194 15.4535 23.9386 16.5227 24.0134C17.5919 24.0881 18.6639 23.9163 19.6562 23.5113C20.6485 23.1062 21.5345 22.4787 22.246 21.6772C22.9575 20.8756 23.4754 19.9213 23.7598 18.888C24.0442 17.8546 24.0876 16.7698 23.8865 15.717C23.6854 14.6643 23.2452 13.6718 22.6 12.816L26 9.416V12H28V8C28 7.46957 27.7893 6.96086 27.4142 6.58579C27.0391 6.21071 26.5304 6 26 6V6ZM5.99997 11C5.99997 10.0111 6.29322 9.0444 6.84262 8.22215C7.39203 7.3999 8.17292 6.75904 9.08655 6.3806C10.0002 6.00216 11.0055 5.90315 11.9754 6.09607C12.9453 6.289 13.8362 6.7652 14.5355 7.46447C15.2348 8.16373 15.711 9.05464 15.9039 10.0245C16.0968 10.9945 15.9978 11.9998 15.6194 12.9134C15.2409 13.827 14.6001 14.6079 13.7778 15.1573C12.9556 15.7068 11.9889 16 11 16C9.67438 15.9984 8.40353 15.4711 7.46619 14.5338C6.52885 13.5964 6.00156 12.3256 5.99997 11V11ZM17 22C15.8326 21.9978 14.7028 21.5873 13.8064 20.8396C12.91 20.0918 12.3035 19.054 12.092 17.906C13.5502 17.6734 14.8976 16.9859 15.9417 15.9418C16.9859 14.8976 17.6733 13.5502 17.906 12.092C19.1323 12.317 20.2302 12.9925 20.9838 13.9857C21.7375 14.979 22.0924 16.2182 21.9789 17.4599C21.8653 18.7015 21.2915 19.8558 20.3703 20.6959C19.449 21.536 18.2468 22.0012 17 22V22Z" fill="#374957"/>
</g>
<defs>
<filter id="filter0_d_403_3709" x="0" y="0" width="32" height="32" filterUnits="userSpaceOnUse" color-interpolation-filters="sRGB">
<feFlood flood-opacity="0" result="BackgroundImageFix"/>
<feColorMatrix in="SourceAlpha" type="matrix" values="0 0 0 0 0 0 0 0 0 0 0 0 0 0 0 0 0 0 127 0" result="hardAlpha"/>
<feOffset dy="4"/>
<feGaussianBlur stdDeviation="2"/>
<feComposite in2="hardAlpha" operator="out"/>
<feColorMatrix type="matrix" values="0 0 0 0 0 0 0 0 0 0 0 0 0 0 0 0 0 0 0.25 0"/>
<feBlend mode="normal" in2="BackgroundImageFix" result="effect1_dropShadow_403_3709"/>
<feBlend mode="normal" in="SourceGraphic" in2="effect1_dropShadow_403_3709" result="shape"/>
</filter>
<clipPath id="clip0_403_3709">
<rect width="24" height="24" fill="white" transform="translate(4)"/>
</clipPath>
</defs>
</svg>
