<svg width="24" height="24" viewBox="0 0 24 24" fill="none" xmlns="http://www.w3.org/2000/svg">
<g clip-path="url(#clip0_403_3426)">
<path d="M12 12.0001C12.7911 12.0001 13.5645 11.7655 14.2223 11.326C14.8801 10.8865 15.3928 10.2617 15.6955 9.53084C15.9983 8.79993 16.0775 7.99567 15.9231 7.21974C15.7688 6.44382 15.3878 5.73109 14.8284 5.17168C14.269 4.61227 13.5563 4.2313 12.7804 4.07696C12.0044 3.92262 11.2002 4.00184 10.4693 4.30459C9.73836 4.60734 9.11365 5.12003 8.67412 5.77782C8.2346 6.43562 8 7.20898 8 8.0001C8 9.06097 8.42143 10.0784 9.17157 10.8285C9.92172 11.5787 10.9391 12.0001 12 12.0001ZM12 6.0001C12.3956 6.0001 12.7822 6.1174 13.1111 6.33717C13.44 6.55693 13.6964 6.86929 13.8478 7.23474C13.9991 7.60019 14.0387 8.00232 13.9616 8.39029C13.8844 8.77825 13.6939 9.13461 13.4142 9.41432C13.1345 9.69402 12.7781 9.88451 12.3902 9.96168C12.0022 10.0388 11.6001 9.99924 11.2346 9.84786C10.8692 9.69649 10.5568 9.44014 10.3371 9.11125C10.1173 8.78235 10 8.39567 10 8.0001C10 7.46967 10.2107 6.96096 10.5858 6.58589C10.9609 6.21082 11.4696 6.0001 12 6.0001ZM16 22.0301L24 23.9781V13.4831C23.9998 12.839 23.7923 12.212 23.4081 11.695C23.024 11.1779 22.4836 10.7983 21.867 10.6121L19.767 9.9121C19.9206 9.28837 19.9988 8.64847 20 8.0061C20 5.88437 19.1572 3.84954 17.6569 2.34925C16.1566 0.848958 14.1217 0.00610352 12 0.00610352C9.87827 0.00610352 7.84344 0.848958 6.34315 2.34925C4.84286 3.84954 4 5.88437 4 8.0061C4.00296 8.41204 4.03639 8.81718 4.1 9.21811C3.64587 9.03706 3.15429 8.97005 2.66827 9.02295C2.18225 9.07585 1.7166 9.24703 1.31205 9.52154C0.907496 9.79604 0.576373 10.1655 0.347646 10.5976C0.118919 11.0297 -0.000443211 11.5112 1.23664e-06 12.0001V21.7521L7.983 24.0331L16 22.0301ZM7.757 3.7641C8.88425 2.65286 10.4049 2.03207 11.9878 2.03698C13.5707 2.04189 15.0875 2.6721 16.2079 3.79032C17.3282 4.90853 17.9612 6.42416 17.9691 8.00703C17.977 9.5899 17.3591 11.1118 16.25 12.2411L12 16.4001L7.757 12.2491C6.63187 11.1239 5.99978 9.59784 5.99978 8.00661C5.99978 6.41537 6.63187 4.88931 7.757 3.7641ZM2 12.0001C1.99874 11.8352 2.03891 11.6726 2.11684 11.5272C2.19476 11.3818 2.30795 11.2584 2.446 11.1681C2.59041 11.0733 2.75678 11.0173 2.92911 11.0054C3.10143 10.9935 3.27392 11.0261 3.43 11.1001L4.864 11.6181C5.24766 12.3779 5.74958 13.0718 6.351 13.6741L12 19.2001L17.657 13.6671C18.2133 13.1117 18.6849 12.4776 19.057 11.7851L21.274 12.5261C21.4828 12.5858 21.6665 12.7119 21.7973 12.8853C21.9281 13.0587 21.9989 13.2699 21.999 13.4871V21.4361L16 19.9701L8.02 21.9701L2 20.2461V12.0001Z" fill="#374957"/>
</g>
<defs>
<clipPath id="clip0_403_3426">
<rect width="24" height="24" fill="white"/>
</clipPath>
</defs>
</svg>
