<svg width="32" height="32" viewBox="0 0 32 32" fill="none" xmlns="http://www.w3.org/2000/svg">
<g clip-path="url(#clip0_403_3726)" filter="url(#filter0_d_403_3726)">
<path d="M28 12L24.4848 15.5152V20.4848H19.5152L16 24L12.4848 20.4848H7.51516V15.5152L4 12L7.51516 8.48484V3.51516H12.4848L16 0L19.5152 3.51516H24.4848V8.48484L28 12ZM23.0711 14.0991L25.1711 11.9991L23.0711 9.89906L22.4852 9.31406V5.51391H18.685L18.1 4.92797L16 2.82797V2.82891L13.3141 5.51484H9.51391V9.315L8.92797 9.9L6.82797 12L8.92891 14.1L9.51484 14.6841V18.4842H13.315L13.9 19.0702L16 21.1702L18.1 19.0702L18.685 18.4842H22.4852V14.6841L23.0711 14.0991Z" fill="#374957"/>
</g>
<defs>
<filter id="filter0_d_403_3726" x="0" y="0" width="32" height="32" filterUnits="userSpaceOnUse" color-interpolation-filters="sRGB">
<feFlood flood-opacity="0" result="BackgroundImageFix"/>
<feColorMatrix in="SourceAlpha" type="matrix" values="0 0 0 0 0 0 0 0 0 0 0 0 0 0 0 0 0 0 127 0" result="hardAlpha"/>
<feOffset dy="4"/>
<feGaussianBlur stdDeviation="2"/>
<feComposite in2="hardAlpha" operator="out"/>
<feColorMatrix type="matrix" values="0 0 0 0 0 0 0 0 0 0 0 0 0 0 0 0 0 0 0.25 0"/>
<feBlend mode="normal" in2="BackgroundImageFix" result="effect1_dropShadow_403_3726"/>
<feBlend mode="normal" in="SourceGraphic" in2="effect1_dropShadow_403_3726" result="shape"/>
</filter>
<clipPath id="clip0_403_3726">
<rect width="24" height="24" fill="white" transform="translate(4)"/>
</clipPath>
</defs>
</svg>
