<svg width="24" height="24" viewBox="0 0 24 24" fill="none" xmlns="http://www.w3.org/2000/svg">
<g clip-path="url(#clip0_403_3644)">
<path d="M24 22H22V12C22 11.2044 21.6839 10.4413 21.1213 9.87868C20.5587 9.31607 19.7956 9 19 9H13V5.794C13.4562 5.59849 13.845 5.27342 14.1182 4.85907C14.3914 4.44472 14.537 3.95931 14.537 3.463C14.537 2.062 12 0 12 0C12 0 9.463 2.062 9.463 3.463C9.46299 3.95931 9.60861 4.44472 9.88182 4.85907C10.155 5.27342 10.5438 5.59849 11 5.794V9H5C4.20435 9 3.44129 9.31607 2.87868 9.87868C2.31607 10.4413 2 11.2044 2 12V22H0V24H24V22ZM5 11H19C19.2652 11 19.5196 11.1054 19.7071 11.2929C19.8946 11.4804 20 11.7348 20 12V14.98C19.064 14.88 18.5 14.28 18.5 14H16.5C16.5 14.343 15.818 15 14.75 15C13.661 15 13 14.306 13 14H11C11 14.343 10.318 15 9.25 15C8.161 15 7.5 14.306 7.5 14H5.5C5.5 14.315 4.921 14.888 4 14.981V12C4 11.7348 4.10536 11.4804 4.29289 11.2929C4.48043 11.1054 4.73478 11 5 11ZM4 16.979C4.91869 16.9382 5.79793 16.5939 6.5 16C7.27136 16.643 8.24308 16.9964 9.2473 16.9991C10.2515 17.0019 11.2251 16.6538 12 16.015C12.7749 16.6538 13.7485 17.0019 14.7527 16.9991C15.7569 16.9964 16.7286 16.643 17.5 16C18.2022 16.5936 19.0814 16.9375 20 16.978V22H4V16.979Z" fill="#374957"/>
</g>
<defs>
<clipPath id="clip0_403_3644">
<rect width="24" height="24" fill="white"/>
</clipPath>
</defs>
</svg>
