<svg width="32" height="32" viewBox="0 0 32 32" fill="none" xmlns="http://www.w3.org/2000/svg">
<g clip-path="url(#clip0_403_3371)" filter="url(#filter0_d_403_3371)">
<path d="M20.0002 8.00061C18.8699 8.00157 17.7528 8.24279 16.7229 8.70828C15.6929 9.17377 14.7737 9.85289 14.0262 10.7006C13.5497 10.469 13.048 10.2931 12.5312 10.1766L14.2172 6.80061L12.4142 5.00061H9.58617L7.78617 6.80061L9.47217 10.1716C8.44314 10.3982 7.47854 10.8542 6.65029 11.5055C5.82205 12.1568 5.15153 12.9868 4.68874 13.9334C4.22596 14.88 3.98284 15.9189 3.97752 16.9725C3.9722 18.0262 4.20482 19.0675 4.65803 20.0187C5.11125 20.9699 5.77335 21.8066 6.59498 22.4663C7.41661 23.1259 8.37657 23.5916 9.40326 23.8286C10.4299 24.0655 11.4969 24.0676 12.5245 23.8348C13.5521 23.6019 14.5139 23.14 15.3382 22.4836C16.3615 23.2235 17.5454 23.7106 18.7931 23.9051C20.0408 24.0996 21.3168 23.996 22.5168 23.6027C23.7168 23.2095 24.8066 22.5378 25.6971 21.6425C26.5877 20.7472 27.2537 19.6539 27.6406 18.4519C28.0275 17.2498 28.1244 15.9733 27.9233 14.7266C27.7222 13.48 27.2289 12.2986 26.4837 11.2792C25.7384 10.2598 24.7624 9.43132 23.6356 8.86147C22.5087 8.29162 21.2629 7.99663 20.0002 8.00061V8.00061ZM15.2342 19.6306C14.5701 18.7678 14.1557 17.7392 14.0362 16.657C13.9166 15.5748 14.0965 14.4806 14.5562 13.4936C15.3485 14.288 15.8472 15.3281 15.9704 16.4433C16.0936 17.5585 15.834 18.6824 15.2342 19.6306V19.6306ZM6.00017 17.0006C5.99806 16.1809 6.19804 15.3733 6.5824 14.6493C6.96676 13.9253 7.52366 13.3072 8.20382 12.8498C8.88397 12.3923 9.66641 12.1095 10.4819 12.0264C11.2974 11.9434 12.1208 12.0626 12.8792 12.3736C12.1656 13.763 11.8767 15.3316 12.0485 16.884C12.2203 18.4364 12.8451 19.9039 13.8452 21.1036C13.0964 21.626 12.2186 21.9329 11.3074 21.991C10.3962 22.049 9.4866 21.856 8.67755 21.4328C7.8685 21.0097 7.19105 20.3727 6.71897 19.5912C6.24689 18.8097 5.99826 17.9136 6.00017 17.0006V17.0006ZM20.0002 22.0006C18.8351 22.001 17.6955 21.6599 16.7222 21.0196C17.7068 19.6279 18.1465 17.9233 17.9582 16.2289C17.7698 14.5345 16.9664 12.9681 15.7002 11.8266C16.3897 11.1146 17.2449 10.5844 18.1894 10.2836C19.1339 9.98279 20.1381 9.92064 21.1125 10.1027C22.0868 10.2848 23.0009 10.7054 23.773 11.327C24.5451 11.9486 25.1511 12.7518 25.537 13.6648C25.9229 14.5778 26.0766 15.5722 25.9843 16.5591C25.892 17.546 25.5567 18.4947 25.0083 19.3204C24.4599 20.146 23.7154 20.823 22.8415 21.2907C21.9676 21.7584 20.9914 22.0023 20.0002 22.0006V22.0006Z" fill="#374957"/>
<path d="M15.2923 0.292248L13.0041 2.58044L14.4183 3.99466L16.7065 1.70646L15.2923 0.292248Z" fill="#374957"/>
<path d="M6.70723 0.292634L5.29301 1.70685L7.54303 3.95686L8.95724 2.54265L6.70723 0.292634Z" fill="#374957"/>
<path d="M12 0H10V3H12V0Z" fill="#374957"/>
</g>
<defs>
<filter id="filter0_d_403_3371" x="0" y="0" width="32" height="32" filterUnits="userSpaceOnUse" color-interpolation-filters="sRGB">
<feFlood flood-opacity="0" result="BackgroundImageFix"/>
<feColorMatrix in="SourceAlpha" type="matrix" values="0 0 0 0 0 0 0 0 0 0 0 0 0 0 0 0 0 0 127 0" result="hardAlpha"/>
<feOffset dy="4"/>
<feGaussianBlur stdDeviation="2"/>
<feComposite in2="hardAlpha" operator="out"/>
<feColorMatrix type="matrix" values="0 0 0 0 0 0 0 0 0 0 0 0 0 0 0 0 0 0 0.25 0"/>
<feBlend mode="normal" in2="BackgroundImageFix" result="effect1_dropShadow_403_3371"/>
<feBlend mode="normal" in="SourceGraphic" in2="effect1_dropShadow_403_3371" result="shape"/>
</filter>
<clipPath id="clip0_403_3371">
<rect width="24" height="24" fill="white" transform="translate(4)"/>
</clipPath>
</defs>
</svg>
