<svg width="24" height="24" viewBox="0 0 24 24" fill="none" xmlns="http://www.w3.org/2000/svg">
<g clip-path="url(#clip0_403_3585)">
<path d="M21 21.7068H3C2.20435 21.7068 1.44129 21.3908 0.87868 20.8282C0.31607 20.2656 0 19.5025 0 18.7068L0 2.29285L6 8.29285L12 2.29285L18 8.29285L24 2.29285V18.7068C24 19.5025 23.6839 20.2656 23.1213 20.8282C22.5587 21.3908 21.7956 21.7068 21 21.7068ZM2 7.12085V18.7068C2 18.9721 2.10536 19.2264 2.29289 19.414C2.48043 19.6015 2.73478 19.7068 3 19.7068H21C21.2652 19.7068 21.5196 19.6015 21.7071 19.414C21.8946 19.2264 22 18.9721 22 18.7068V7.12085L18 11.1208L12 5.12085L6 11.1208L2 7.12085Z" fill="#374957"/>
</g>
<defs>
<clipPath id="clip0_403_3585">
<rect width="24" height="24" fill="white"/>
</clipPath>
</defs>
</svg>
