<svg width="32" height="32" viewBox="0 0 32 32" fill="none" xmlns="http://www.w3.org/2000/svg">
<g clip-path="url(#clip0_403_3303)" filter="url(#filter0_d_403_3303)">
<path d="M28 12H20V10H28V12ZM18.974 6C18.974 4.81332 18.6221 3.65328 17.9628 2.66658C17.3035 1.67989 16.3665 0.910851 15.2701 0.456726C14.1737 0.00259972 12.9673 -0.11622 11.8035 0.115291C10.6396 0.346802 9.57047 0.918247 8.73136 1.75736C7.89224 2.59648 7.3208 3.66558 7.08929 4.82946C6.85778 5.99335 6.9766 7.19975 7.43072 8.2961C7.88485 9.39246 8.65388 10.3295 9.64058 10.9888C10.6273 11.6481 11.7873 12 12.974 12C14.5648 11.9984 16.09 11.3658 17.2149 10.2409C18.3398 9.11602 18.9724 7.59082 18.974 6V6ZM16.974 6C16.974 6.79113 16.7394 7.56449 16.2999 8.22228C15.8604 8.88008 15.2356 9.39277 14.5047 9.69552C13.7738 9.99827 12.9696 10.0775 12.1936 9.92315C11.4177 9.7688 10.705 9.38784 10.1456 8.82843C9.58616 8.26902 9.2052 7.55629 9.05086 6.78036C8.89652 6.00444 8.97573 5.20017 9.27848 4.46927C9.58123 3.73837 10.0939 3.11365 10.7517 2.67412C11.4095 2.2346 12.1829 2 12.974 2C14.0349 2 15.0523 2.42143 15.8024 3.17158C16.5526 3.92172 16.974 4.93914 16.974 6ZM22 19C21.9984 17.6744 21.4711 16.4036 20.5338 15.4662C19.5964 14.5289 18.3256 14.0016 17 14H9C7.6744 14.0016 6.40356 14.5289 5.46622 15.4662C4.52888 16.4036 4.00159 17.6744 4 19L4 24H6V19C6 18.2044 6.31607 17.4413 6.87868 16.8787C7.44129 16.3161 8.20435 16 9 16H17C17.7956 16 18.5587 16.3161 19.1213 16.8787C19.6839 17.4413 20 18.2044 20 19V24H22V19Z" fill="#374957"/>
</g>
<defs>
<filter id="filter0_d_403_3303" x="0" y="0" width="32" height="32" filterUnits="userSpaceOnUse" color-interpolation-filters="sRGB">
<feFlood flood-opacity="0" result="BackgroundImageFix"/>
<feColorMatrix in="SourceAlpha" type="matrix" values="0 0 0 0 0 0 0 0 0 0 0 0 0 0 0 0 0 0 127 0" result="hardAlpha"/>
<feOffset dy="4"/>
<feGaussianBlur stdDeviation="2"/>
<feComposite in2="hardAlpha" operator="out"/>
<feColorMatrix type="matrix" values="0 0 0 0 0 0 0 0 0 0 0 0 0 0 0 0 0 0 0.25 0"/>
<feBlend mode="normal" in2="BackgroundImageFix" result="effect1_dropShadow_403_3303"/>
<feBlend mode="normal" in="SourceGraphic" in2="effect1_dropShadow_403_3303" result="shape"/>
</filter>
<clipPath id="clip0_403_3303">
<rect width="24" height="24" fill="white" transform="translate(4)"/>
</clipPath>
</defs>
</svg>
