<svg width="32" height="32" viewBox="0 0 32 32" fill="none" xmlns="http://www.w3.org/2000/svg">
<g clip-path="url(#clip0_403_3425)" filter="url(#filter0_d_403_3425)">
<path d="M25.867 1.61229L21.515 0.15529C20.936 -0.0413419 20.3102 -0.0535702 19.724 0.12029L12.538 2.09229L8.15499 0.23329C7.69922 0.0431606 7.20356 -0.0315134 6.71199 0.015895C6.22043 0.0633034 5.74818 0.231328 5.33714 0.505057C4.9261 0.778785 4.58899 1.14975 4.35574 1.58503C4.12248 2.02031 4.00028 2.50645 3.99999 3.00029L3.99999 21.7543L11.982 24.0353L20.003 22.0353L28.003 23.9833V4.48329C28.0026 3.83878 27.7946 3.21154 27.4099 2.69445C27.0252 2.17736 26.4842 1.79791 25.867 1.61229V1.61229ZM19 2.38429V20.2193L13 21.7193V3.97229L19 2.38429ZM5.99999 3.00029C6.00033 2.83562 6.04134 2.67358 6.11936 2.52857C6.19738 2.38355 6.31001 2.26005 6.44723 2.16903C6.58446 2.078 6.74204 2.02228 6.90598 2.0068C7.06993 1.99132 7.23515 2.01656 7.38699 2.08029L11 3.58129V21.6743L5.99999 20.2463V3.00029ZM26 21.4303L21 20.2123V2.09229L25.275 3.52229C25.4838 3.58202 25.6675 3.7081 25.7983 3.88148C25.9291 4.05486 25.9999 4.26611 26 4.48329V21.4303Z" fill="#374957"/>
</g>
<defs>
<filter id="filter0_d_403_3425" x="0" y="0" width="32" height="32" filterUnits="userSpaceOnUse" color-interpolation-filters="sRGB">
<feFlood flood-opacity="0" result="BackgroundImageFix"/>
<feColorMatrix in="SourceAlpha" type="matrix" values="0 0 0 0 0 0 0 0 0 0 0 0 0 0 0 0 0 0 127 0" result="hardAlpha"/>
<feOffset dy="4"/>
<feGaussianBlur stdDeviation="2"/>
<feComposite in2="hardAlpha" operator="out"/>
<feColorMatrix type="matrix" values="0 0 0 0 0 0 0 0 0 0 0 0 0 0 0 0 0 0 0.25 0"/>
<feBlend mode="normal" in2="BackgroundImageFix" result="effect1_dropShadow_403_3425"/>
<feBlend mode="normal" in="SourceGraphic" in2="effect1_dropShadow_403_3425" result="shape"/>
</filter>
<clipPath id="clip0_403_3425">
<rect width="24" height="24" fill="white" transform="translate(4)"/>
</clipPath>
</defs>
</svg>
