<svg width="32" height="32" viewBox="0 0 32 32" fill="none" xmlns="http://www.w3.org/2000/svg">
<g clip-path="url(#clip0_403_3334)" filter="url(#filter0_d_403_3334)">
<path d="M27.4139 0.587262C27.1631 0.339975 26.8521 0.162538 26.5116 0.0725511C26.1712 -0.017436 25.8131 -0.0168461 25.4729 0.0742624L21.7579 1.29226L9.51791 13.5323C8.1497 12.7949 6.67238 12.2811 5.14192 12.0103L4.85592 13.9893C6.803 14.3543 8.637 15.172 10.2099 16.3763L6.49992 20.0863L5.47592 19.0623L4.06192 20.4763L7.56192 23.9763L8.97591 22.5623L7.91392 21.5003L11.6239 17.7903C12.8286 19.3628 13.646 21.197 14.0099 23.1443L15.9899 22.8583C15.7201 21.3275 15.2063 19.85 14.4679 18.4823L26.7079 6.24226L27.9529 2.43226C28.0258 2.10423 28.0146 1.76309 27.9204 1.44053C27.8261 1.11797 27.6519 0.824464 27.4139 0.587262V0.587262ZM24.9559 5.16626L13.3629 16.7603C13.0588 16.3607 12.7284 15.9818 12.3739 15.6263C12.0185 15.2723 11.64 14.9422 11.2409 14.6383L22.8349 3.04426L25.9919 2.00726L24.9559 5.16626Z" fill="#374957"/>
</g>
<defs>
<filter id="filter0_d_403_3334" x="0" y="0" width="32" height="32" filterUnits="userSpaceOnUse" color-interpolation-filters="sRGB">
<feFlood flood-opacity="0" result="BackgroundImageFix"/>
<feColorMatrix in="SourceAlpha" type="matrix" values="0 0 0 0 0 0 0 0 0 0 0 0 0 0 0 0 0 0 127 0" result="hardAlpha"/>
<feOffset dy="4"/>
<feGaussianBlur stdDeviation="2"/>
<feComposite in2="hardAlpha" operator="out"/>
<feColorMatrix type="matrix" values="0 0 0 0 0 0 0 0 0 0 0 0 0 0 0 0 0 0 0.25 0"/>
<feBlend mode="normal" in2="BackgroundImageFix" result="effect1_dropShadow_403_3334"/>
<feBlend mode="normal" in="SourceGraphic" in2="effect1_dropShadow_403_3334" result="shape"/>
</filter>
<clipPath id="clip0_403_3334">
<rect width="24" height="24" fill="white" transform="translate(4)"/>
</clipPath>
</defs>
</svg>
