<svg width="24" height="24" viewBox="0 0 24 24" fill="none" xmlns="http://www.w3.org/2000/svg">
<g clip-path="url(#clip0_403_3477)">
<path d="M23.018 8.78464C22.7256 8.51828 22.3836 8.31216 22.0116 8.17805C21.6395 8.04394 21.2446 7.98447 20.8496 8.00304C20.4545 8.02162 20.0669 8.11787 19.7091 8.2863C19.3512 8.45472 19.0301 8.69202 18.764 8.98464L15.547 12.5196C15.2674 12.0561 14.8729 11.6727 14.4016 11.4064C13.9303 11.1401 13.3983 11 12.857 10.9996H3C2.20435 10.9996 1.44129 11.3157 0.87868 11.8783C0.31607 12.4409 0 13.204 0 13.9996L0 20.9996C0 21.7953 0.31607 22.5583 0.87868 23.121C1.44129 23.6836 2.20435 23.9996 3 23.9996H13.448L23.235 13.0146C23.7605 12.4218 24.0321 11.6464 23.9916 10.8553C23.951 10.0641 23.6014 9.32056 23.018 8.78464V8.78464ZM21.742 11.6846L12.552 21.9996H3C2.73478 21.9996 2.48043 21.8943 2.29289 21.7067C2.10536 21.5192 2 21.2649 2 20.9996V13.9996C2 13.7344 2.10536 13.4801 2.29289 13.2925C2.48043 13.105 2.73478 12.9996 3 12.9996H12.857C13.1466 12.9984 13.4258 13.1072 13.6382 13.304C13.8506 13.5009 13.9803 13.7711 14.001 14.0599C14.0217 14.3488 13.9319 14.6347 13.7498 14.8599C13.5677 15.085 13.3068 15.2326 13.02 15.2726L7.858 16.0096L8.142 17.9896L13.303 17.2516C13.8691 17.1686 14.4019 16.9332 14.8446 16.5707C15.2872 16.2082 15.623 15.7322 15.816 15.1936L20.243 10.3296C20.332 10.2311 20.4397 10.1512 20.5599 10.0947C20.6801 10.0382 20.8103 10.0062 20.943 10.0006C21.2105 9.98994 21.4717 10.0839 21.671 10.2626C21.8667 10.4429 21.9839 10.6928 21.9972 10.9586C22.0104 11.2244 21.9188 11.4848 21.742 11.6836V11.6846ZM10.423 9.14964L11 9.55864L11.577 9.14964C12.03 8.82964 16 5.94164 16 3.19964C16.0246 2.378 15.7227 1.58008 15.1605 0.9804C14.5983 0.380719 13.8215 0.0280878 13 -0.000364447C12.267 -0.00973128 11.5559 0.248781 11 0.726636C10.4441 0.248781 9.73296 -0.00973128 9 -0.000364447C8.17849 0.0280878 7.40168 0.380719 6.83948 0.9804C6.27728 1.58008 5.97545 2.378 6 3.19964C6 5.94164 9.97 8.82964 10.423 9.14964ZM9 1.99964C9.13361 1.9908 9.26756 2.0106 9.3929 2.05773C9.51823 2.10486 9.63205 2.17822 9.72673 2.2729C9.82141 2.36759 9.89477 2.48141 9.9419 2.60674C9.98903 2.73207 10.0088 2.86603 10 2.99964H12C11.9912 2.86603 12.011 2.73207 12.0581 2.60674C12.1052 2.48141 12.1786 2.36759 12.2733 2.2729C12.368 2.17822 12.4818 2.10486 12.6071 2.05773C12.7324 2.0106 12.8664 1.9908 13 1.99964C13.2906 2.0288 13.5582 2.17086 13.7453 2.39526C13.9323 2.61966 14.0237 2.90849 14 3.19964C14 4.27364 12.4 5.96764 11 7.08064C9.76 6.08064 8 4.35364 8 3.19964C7.97627 2.90849 8.06774 2.61966 8.25475 2.39526C8.44175 2.17086 8.70935 2.0288 9 1.99964V1.99964Z" fill="#374957"/>
</g>
<defs>
<clipPath id="clip0_403_3477">
<rect width="24" height="24" fill="white"/>
</clipPath>
</defs>
</svg>
