<svg width="24" height="24" viewBox="0 0 24 24" fill="none" xmlns="http://www.w3.org/2000/svg">
<g clip-path="url(#clip0_403_3732)">
<path d="M21 4H18.492L15.406 0H8.593L5.508 4H3C2.20435 4 1.44129 4.31607 0.87868 4.87868C0.31607 5.44129 0 6.20435 0 7L0 24H24V7C24 6.20435 23.6839 5.44129 23.1213 4.87868C22.5587 4.31607 21.7956 4 21 4V4ZM9.577 2H14.424L15.966 4H8.034L9.577 2ZM22 22H2V7C2 6.73478 2.10536 6.48043 2.29289 6.29289C2.48043 6.10536 2.73478 6 3 6H21C21.2652 6 21.5196 6.10536 21.7071 6.29289C21.8946 6.48043 22 6.73478 22 7V22Z" fill="#374957"/>
<path d="M11.9999 7.99988C10.8132 7.99988 9.65315 8.35177 8.66646 9.01106C7.67976 9.67035 6.91073 10.6074 6.4566 11.7038C6.00248 12.8001 5.88366 14.0065 6.11517 15.1704C6.34668 16.3343 6.91813 17.4034 7.75724 18.2425C8.59636 19.0816 9.66545 19.6531 10.8293 19.8846C11.9932 20.1161 13.1996 19.9973 14.296 19.5432C15.3923 19.089 16.3294 18.32 16.9887 17.3333C17.648 16.3466 17.9999 15.1866 17.9999 13.9999C17.9983 12.4091 17.3656 10.8839 16.2408 9.75899C15.1159 8.63412 13.5907 8.00147 11.9999 7.99988V7.99988ZM11.9999 17.9999C11.2088 17.9999 10.4354 17.7653 9.7776 17.3258C9.1198 16.8862 8.60711 16.2615 8.30436 15.5306C8.00161 14.7997 7.9224 13.9954 8.07674 13.2195C8.23108 12.4436 8.61204 11.7309 9.17145 11.1715C9.73086 10.612 10.4436 10.2311 11.2195 10.0767C11.9954 9.9224 12.7997 10.0016 13.5306 10.3044C14.2615 10.6071 14.8862 11.1198 15.3258 11.7776C15.7653 12.4354 15.9999 13.2088 15.9999 13.9999C15.9999 15.0607 15.5785 16.0782 14.8283 16.8283C14.0782 17.5785 13.0607 17.9999 11.9999 17.9999Z" fill="#374957"/>
</g>
<defs>
<clipPath id="clip0_403_3732">
<rect width="24" height="24" fill="white"/>
</clipPath>
</defs>
</svg>
