<svg width="24" height="24" viewBox="0 0 24 24" fill="none" xmlns="http://www.w3.org/2000/svg">
<g clip-path="url(#clip0_403_3403)">
<path d="M19.0001 24H5.00012C4.20758 24 3.44723 23.6864 2.88514 23.1277C2.32305 22.569 2.00488 21.8105 2.00012 21.018V5.522L12.0001 0L22.0001 5.522V21.022C21.9943 21.8138 21.6757 22.5713 21.1137 23.1291C20.5517 23.687 19.792 24 19.0001 24V24ZM4.00012 6.692V21.018C4.00171 21.2822 4.10776 21.535 4.29513 21.7212C4.48249 21.9075 4.73594 22.012 5.00012 22.012H19.0001C19.2643 22.012 19.5178 21.9075 19.7051 21.7212C19.8925 21.535 19.9985 21.2822 20.0001 21.018V6.692L12.0001 2.274L4.00012 6.692Z" fill="#374957"/>
<path d="M12 8.57214C12.8284 8.57214 13.5 7.90057 13.5 7.07214C13.5 6.24371 12.8284 5.57214 12 5.57214C11.1716 5.57214 10.5 6.24371 10.5 7.07214C10.5 7.90057 11.1716 8.57214 12 8.57214Z" fill="#374957"/>
</g>
<defs>
<clipPath id="clip0_403_3403">
<rect width="24" height="24" fill="white"/>
</clipPath>
</defs>
</svg>
