<svg width="26" height="32" viewBox="0 0 26 32" fill="none" xmlns="http://www.w3.org/2000/svg">
<g clip-path="url(#clip0_403_3782)" filter="url(#filter0_d_403_3782)">
<path d="M19 8H16.99L16.971 6H19V0H7V6H9V8H7C6.20435 8 5.44129 8.31607 4.87868 8.87868C4.31607 9.44129 4 10.2044 4 11V24H22V11C22 10.2044 21.6839 9.44129 21.1213 8.87868C20.5587 8.31607 19.7956 8 19 8ZM9 2H17V4H9V2ZM20 22H6V11C6 10.7348 6.10536 10.4804 6.29289 10.2929C6.48043 10.1054 6.73478 10 7 10H11V6H14.97L15.01 10H19C19.2652 10 19.5196 10.1054 19.7071 10.2929C19.8946 10.4804 20 10.7348 20 11V22ZM14 15H16V17H14V19H12V17H10V15H12V13H14V15Z" fill="#374957"/>
</g>
<defs>
<filter id="filter0_d_403_3782" x="-3" y="0" width="32" height="32" filterUnits="userSpaceOnUse" color-interpolation-filters="sRGB">
<feFlood flood-opacity="0" result="BackgroundImageFix"/>
<feColorMatrix in="SourceAlpha" type="matrix" values="0 0 0 0 0 0 0 0 0 0 0 0 0 0 0 0 0 0 127 0" result="hardAlpha"/>
<feOffset dy="4"/>
<feGaussianBlur stdDeviation="2"/>
<feComposite in2="hardAlpha" operator="out"/>
<feColorMatrix type="matrix" values="0 0 0 0 0 0 0 0 0 0 0 0 0 0 0 0 0 0 0.25 0"/>
<feBlend mode="normal" in2="BackgroundImageFix" result="effect1_dropShadow_403_3782"/>
<feBlend mode="normal" in="SourceGraphic" in2="effect1_dropShadow_403_3782" result="shape"/>
</filter>
<clipPath id="clip0_403_3782">
<rect width="24" height="24" fill="white" transform="translate(1)"/>
</clipPath>
</defs>
</svg>
