<svg width="32" height="32" viewBox="0 0 32 32" fill="none" xmlns="http://www.w3.org/2000/svg">
<g clip-path="url(#clip0_403_3442)" filter="url(#filter0_d_403_3442)">
<path d="M17.0002 0C10.9352 0 6.0002 4.037 6.0002 9C6.00955 10.0706 6.24539 11.1271 6.6922 12.1C6.33755 12.5203 6.10809 13.0318 6.02994 13.5762C5.9518 14.1205 6.02811 14.6759 6.2502 15.179C4.89378 16.4264 4.08509 18.1592 4.0002 20C3.98471 20.5295 4.07759 21.0566 4.27312 21.5489C4.46866 22.0412 4.76274 22.4883 5.1373 22.8629C5.51187 23.2375 5.95903 23.5315 6.45133 23.7271C6.94364 23.9226 7.47071 24.0155 8.0002 24L8.0082 22C7.74053 22.018 7.47209 21.9787 7.22083 21.8847C6.96957 21.7907 6.74127 21.6441 6.55119 21.4548C6.36111 21.2655 6.21363 21.0378 6.11861 20.7869C6.02359 20.536 5.98322 20.2677 6.0002 20C6.09258 18.6819 6.697 17.4523 7.6842 16.574C8.79651 16.9018 9.95427 17.0487 11.1132 17.009C11.4132 17.009 11.6902 17.002 11.9562 16.993C13.5541 17.66 15.2687 18.0023 17.0002 18C23.0652 18 28.0002 13.963 28.0002 9C28.0002 4.037 23.0652 0 17.0002 0ZM8.2902 14.688C8.1978 14.5963 8.12446 14.4873 8.07441 14.3672C8.02437 14.247 7.9986 14.1182 7.9986 13.988C7.9986 13.8579 8.02437 13.729 8.07441 13.6088C8.12446 13.4887 8.1978 13.3797 8.2902 13.288C8.38179 13.1955 8.49081 13.122 8.61096 13.0719C8.73111 13.0218 8.86001 12.996 8.9902 12.996C9.12038 12.996 9.24928 13.0218 9.36943 13.0719C9.48958 13.122 9.59861 13.1955 9.6902 13.288C10.1061 13.815 10.4576 14.3897 10.7372 15C9.90986 15.0327 9.08285 14.9273 8.2902 14.688V14.688ZM17.0002 16C15.6657 15.9991 14.3423 15.7579 13.0932 15.288C12.5882 14.0648 11.9176 12.9167 11.1002 11.876C10.7504 11.5382 10.3246 11.2892 9.85859 11.15C9.3926 11.0108 8.90002 10.9854 8.4222 11.076C8.15028 10.4173 8.00703 9.7126 8.0002 9C8.0002 5.141 12.0372 2 17.0002 2C21.9632 2 26.0002 5.141 26.0002 9C26.0002 12.859 21.9632 16 17.0002 16Z" fill="#374957"/>
</g>
<defs>
<filter id="filter0_d_403_3442" x="0" y="0" width="32" height="32" filterUnits="userSpaceOnUse" color-interpolation-filters="sRGB">
<feFlood flood-opacity="0" result="BackgroundImageFix"/>
<feColorMatrix in="SourceAlpha" type="matrix" values="0 0 0 0 0 0 0 0 0 0 0 0 0 0 0 0 0 0 127 0" result="hardAlpha"/>
<feOffset dy="4"/>
<feGaussianBlur stdDeviation="2"/>
<feComposite in2="hardAlpha" operator="out"/>
<feColorMatrix type="matrix" values="0 0 0 0 0 0 0 0 0 0 0 0 0 0 0 0 0 0 0.25 0"/>
<feBlend mode="normal" in2="BackgroundImageFix" result="effect1_dropShadow_403_3442"/>
<feBlend mode="normal" in="SourceGraphic" in2="effect1_dropShadow_403_3442" result="shape"/>
</filter>
<clipPath id="clip0_403_3442">
<rect width="24" height="24" fill="white" transform="translate(4)"/>
</clipPath>
</defs>
</svg>
