<svg width="24" height="24" viewBox="0 0 24 24" fill="none" xmlns="http://www.w3.org/2000/svg">
<g clip-path="url(#clip0_403_3454)">
<path d="M24 10L21.8 0H2.2L0.024 9.783L0 11C0.0036267 11.9653 0.359175 12.8961 1 13.618V21C1 21.7956 1.31607 22.5587 1.87868 23.1213C2.44129 23.6839 3.20435 24 4 24H20C20.7956 24 21.5587 23.6839 22.1213 23.1213C22.6839 22.5587 23 21.7956 23 21V13.618C23.6408 12.8961 23.9964 11.9653 24 11V10ZM2 10.109L3.8 2H7V6H9V2H15V6H17V2H20.2L22 10.109V11C22 11.5304 21.7893 12.0391 21.4142 12.4142C21.0391 12.7893 20.5304 13 20 13H19C18.4696 13 17.9609 12.7893 17.5858 12.4142C17.2107 12.0391 17 11.5304 17 11H15C15 11.5304 14.7893 12.0391 14.4142 12.4142C14.0391 12.7893 13.5304 13 13 13H11C10.4696 13 9.96086 12.7893 9.58579 12.4142C9.21071 12.0391 9 11.5304 9 11H7C7 11.5304 6.78929 12.0391 6.41421 12.4142C6.03914 12.7893 5.53043 13 5 13H4C3.46957 13 2.96086 12.7893 2.58579 12.4142C2.21071 12.0391 2 11.5304 2 11V10.109ZM20 22H4C3.73478 22 3.48043 21.8946 3.29289 21.7071C3.10536 21.5196 3 21.2652 3 21V14.858C3.32586 14.9481 3.66195 14.9958 4 15H5C5.56989 14.9982 6.13273 14.8738 6.65034 14.6354C7.16795 14.3969 7.62824 14.0499 8 13.618C8.37176 14.0499 8.83205 14.3969 9.34966 14.6354C9.86727 14.8738 10.4301 14.9982 11 15H13C13.5678 15.0003 14.1292 14.8794 14.6465 14.6454C15.1639 14.4114 15.6253 14.0696 16 13.643C16.3747 14.0696 16.8361 14.4114 17.3535 14.6454C17.8708 14.8794 18.4322 15.0003 19 15H20C20.338 14.9958 20.6741 14.9481 21 14.858V21C21 21.2652 20.8946 21.5196 20.7071 21.7071C20.5196 21.8946 20.2652 22 20 22Z" fill="#374957"/>
</g>
<defs>
<clipPath id="clip0_403_3454">
<rect width="24" height="24" fill="white"/>
</clipPath>
</defs>
</svg>
