<svg width="32" height="30" viewBox="0 0 32 30" fill="none" xmlns="http://www.w3.org/2000/svg">
<g filter="url(#filter0_d_403_3765)">
<path d="M24.9999 12.4236V10.9996C24.9999 8.61269 24.0517 6.3235 22.3638 4.63567C20.676 2.94785 18.3868 1.99963 15.9999 1.99963C13.6129 1.99963 11.3238 2.94785 9.63593 4.63567C7.9481 6.3235 6.99989 8.61269 6.99989 10.9996V12.4236C5.95105 12.8855 5.09269 13.6936 4.56851 14.7127C4.04433 15.7318 3.88615 16.9001 4.12045 18.0219C4.35474 19.1437 4.9673 20.151 5.85556 20.8751C6.74382 21.5992 7.85388 21.9962 8.99989 21.9996H10.9999V11.9996H8.99989V10.9996C8.99989 9.14312 9.73739 7.36264 11.0501 6.04989C12.3629 4.73713 14.1434 3.99963 15.9999 3.99963C17.8564 3.99963 19.6369 4.73713 20.9496 6.04989C22.2624 7.36264 22.9999 9.14312 22.9999 10.9996V11.9996H20.9999V19.9996H16.9999V21.9996H22.9999C24.1459 21.9962 25.256 21.5992 26.1442 20.8751C27.0325 20.151 27.645 19.1437 27.8793 18.0219C28.1136 16.9001 27.9554 15.7318 27.4313 14.7127C26.9071 13.6936 26.0487 12.8855 24.9999 12.4236V12.4236ZM8.99989 19.9996C8.20424 19.9996 7.44118 19.6836 6.87857 19.121C6.31596 18.5583 5.99989 17.7953 5.99989 16.9996C5.99989 16.204 6.31596 15.4409 6.87857 14.8783C7.44118 14.3157 8.20424 13.9996 8.99989 13.9996V19.9996ZM22.9999 19.9996V13.9996C23.7955 13.9996 24.5586 14.3157 25.1212 14.8783C25.6838 15.4409 25.9999 16.204 25.9999 16.9996C25.9999 17.7953 25.6838 18.5583 25.1212 19.121C24.5586 19.6836 23.7955 19.9996 22.9999 19.9996Z" fill="#374957"/>
</g>
<defs>
<filter id="filter0_d_403_3765" x="0" y="0" width="32" height="32" filterUnits="userSpaceOnUse" color-interpolation-filters="sRGB">
<feFlood flood-opacity="0" result="BackgroundImageFix"/>
<feColorMatrix in="SourceAlpha" type="matrix" values="0 0 0 0 0 0 0 0 0 0 0 0 0 0 0 0 0 0 127 0" result="hardAlpha"/>
<feOffset dy="4"/>
<feGaussianBlur stdDeviation="2"/>
<feComposite in2="hardAlpha" operator="out"/>
<feColorMatrix type="matrix" values="0 0 0 0 0 0 0 0 0 0 0 0 0 0 0 0 0 0 0.25 0"/>
<feBlend mode="normal" in2="BackgroundImageFix" result="effect1_dropShadow_403_3765"/>
<feBlend mode="normal" in="SourceGraphic" in2="effect1_dropShadow_403_3765" result="shape"/>
</filter>
</defs>
</svg>
