<svg width="24" height="24" viewBox="0 0 24 24" fill="none" xmlns="http://www.w3.org/2000/svg">
<g clip-path="url(#clip0_403_3470)">
<path d="M22 18V20.586L18.94 17.526C21.063 15.281 23 12.534 23 9.95C23.0555 8.43274 22.5082 6.95519 21.4776 5.84027C20.447 4.72536 19.0169 4.06373 17.5 4C16.6125 4.04707 15.7471 4.29358 14.968 4.72121C14.1889 5.14884 13.5162 5.74658 13 6.47C12.4838 5.74653 11.8112 5.14875 11.0321 4.72111C10.253 4.29348 9.3875 4.04699 8.5 4C7.64218 4.00189 6.79862 4.21957 6.047 4.633L1.414 0L0 1.414L4.484 5.9C3.51953 7.02828 2.99283 8.46569 3 9.95C3 15.35 11.458 21.497 12.422 22.18L13 22.589L13.578 22.18C14.9595 21.1827 16.2765 20.0988 17.521 18.935L20.586 22H18V24H22C22.5304 24 23.0391 23.7893 23.4142 23.4142C23.7893 23.0391 24 22.5304 24 22V18H22ZM13 20.129C9.042 17.2 5 12.915 5 9.95C4.94519 8.96325 5.28212 7.99476 5.93753 7.25509C6.59293 6.51541 7.51383 6.06436 8.5 6C10.7 6 12.093 8.7 12.105 8.72L13 10.492L13.9 8.723C13.907 8.7 15.3 6 17.5 6C18.4862 6.06436 19.4071 6.51541 20.0625 7.25509C20.7179 7.99476 21.0548 8.96325 21 9.95C21 12.914 16.957 17.2 13 20.129Z" fill="#374957"/>
</g>
<defs>
<clipPath id="clip0_403_3470">
<rect width="24" height="24" fill="white"/>
</clipPath>
</defs>
</svg>
