<svg width="29" height="32" viewBox="0 0 29 32" fill="none" xmlns="http://www.w3.org/2000/svg">
<g clip-path="url(#clip0_403_3424)" filter="url(#filter0_d_403_3424)">
<path d="M15 23.9939L7.93703 17.0849C6.99352 16.1601 6.24262 15.0575 5.72773 13.8408C5.21284 12.624 4.94415 11.3173 4.9372 9.99618C4.93024 8.67501 5.18516 7.36556 5.68721 6.14349C6.18927 4.92141 6.92852 3.81094 7.86224 2.87623C8.79596 1.94151 9.90565 1.20109 11.1272 0.697736C12.3487 0.194383 13.6579 -0.0619218 14.9791 -0.0563692C16.3003 -0.0508166 17.6072 0.216483 18.8245 0.730086C20.0418 1.24369 21.1452 1.99341 22.071 2.93594C23.9437 4.81273 24.9953 7.3557 24.9953 10.0069C24.9953 12.6582 23.9437 15.2012 22.071 17.0779L15 23.9939ZM15 2.00594C13.4175 2.00569 11.8705 2.47478 10.5546 3.35387C9.23878 4.23297 8.2132 5.48258 7.60764 6.94463C7.00207 8.40668 6.84373 10.0155 7.15263 11.5675C7.46153 13.1196 8.22381 14.5452 9.34303 15.6639L15 21.1999L20.665 15.6599C21.7834 14.5405 22.5446 13.1145 22.8525 11.5624C23.1603 10.0103 23.001 8.40172 22.3946 6.94017C21.7882 5.47861 20.762 4.22971 19.4457 3.35142C18.1295 2.47313 16.5824 2.0049 15 2.00594V2.00594ZM15 15.9999C13.8133 15.9999 12.6533 15.648 11.6666 14.9888C10.6799 14.3295 9.91088 13.3924 9.45675 12.296C9.00263 11.1997 8.88381 9.99329 9.11532 8.8294C9.34683 7.66551 9.91827 6.59642 10.7574 5.7573C11.5965 4.91819 12.6656 4.34674 13.8295 4.11523C14.9934 3.88372 16.1998 4.00254 17.2961 4.45667C18.3925 4.91079 19.3296 5.67983 19.9888 6.66652C20.6481 7.65322 21 8.81325 21 9.99994C20.9984 11.5908 20.3658 13.116 19.2409 14.2408C18.116 15.3657 16.5908 15.9984 15 15.9999V15.9999ZM15 5.99994C14.2089 5.99994 13.4355 6.23454 12.7777 6.67406C12.12 7.11359 11.6073 7.7383 11.3045 8.46921C11.0018 9.20011 10.9225 10.0044 11.0769 10.7803C11.2312 11.5562 11.6122 12.269 12.1716 12.8284C12.731 13.3878 13.4437 13.7687 14.2197 13.9231C14.9956 14.0774 15.7999 13.9982 16.5308 13.6955C17.2617 13.3927 17.8864 12.88 18.3259 12.2222C18.7654 11.5644 19 10.7911 19 9.99994C19 8.93908 18.5786 7.92166 17.8285 7.17152C17.0783 6.42137 16.0609 5.99994 15 5.99994ZM17.207 10.7929L16 9.58594V6.99994H14V10.4139L15.793 12.2069L17.207 10.7929Z" fill="#374957"/>
</g>
<defs>
<filter id="filter0_d_403_3424" x="-1" y="0" width="32" height="32" filterUnits="userSpaceOnUse" color-interpolation-filters="sRGB">
<feFlood flood-opacity="0" result="BackgroundImageFix"/>
<feColorMatrix in="SourceAlpha" type="matrix" values="0 0 0 0 0 0 0 0 0 0 0 0 0 0 0 0 0 0 127 0" result="hardAlpha"/>
<feOffset dy="4"/>
<feGaussianBlur stdDeviation="2"/>
<feComposite in2="hardAlpha" operator="out"/>
<feColorMatrix type="matrix" values="0 0 0 0 0 0 0 0 0 0 0 0 0 0 0 0 0 0 0.25 0"/>
<feBlend mode="normal" in2="BackgroundImageFix" result="effect1_dropShadow_403_3424"/>
<feBlend mode="normal" in="SourceGraphic" in2="effect1_dropShadow_403_3424" result="shape"/>
</filter>
<clipPath id="clip0_403_3424">
<rect width="24" height="24" fill="white" transform="translate(3)"/>
</clipPath>
</defs>
</svg>
