<svg width="24" height="24" viewBox="0 0 24 24" fill="none" xmlns="http://www.w3.org/2000/svg">
<g clip-path="url(#clip0_403_3622)">
<path d="M6.98302 24.0071C5.59675 24.0104 4.24073 23.602 3.08685 22.8337C1.93298 22.0653 1.03321 20.9717 0.501617 19.6914C-0.0299741 18.4111 -0.169451 17.0018 0.100869 15.6421C0.371189 14.2825 1.03913 13.0337 2.02002 12.0541L12.62 1.46911C13.5582 0.528784 14.8315 -0.000327564 16.1599 -0.00182786C17.4882 -0.00332815 18.7627 0.522906 19.703 1.46111C20.6433 2.39931 21.1725 3.67263 21.174 5.00095C21.1755 6.32927 20.6492 7.60378 19.711 8.54411L9.11002 19.1281C8.53668 19.6745 7.77504 19.9793 6.98302 19.9793C6.191 19.9793 5.42936 19.6745 4.85602 19.1281C4.57709 18.8495 4.35582 18.5186 4.20484 18.1544C4.05387 17.7902 3.97616 17.3999 3.97616 17.0056C3.97616 16.6114 4.05387 16.221 4.20484 15.8568C4.35582 15.4926 4.57709 15.1617 4.85602 14.8831L14.75 5.00711L16.168 6.42211L6.27402 16.3001C6.08655 16.4876 5.98124 16.7419 5.98124 17.0071C5.98124 17.2723 6.08655 17.5266 6.27402 17.7141C6.46506 17.8964 6.71897 17.9981 6.98302 17.9981C7.24708 17.9981 7.50099 17.8964 7.69202 17.7141L18.3 7.12911C18.8629 6.56486 19.1787 5.8001 19.1777 5.00307C19.1768 4.20604 18.8593 3.44203 18.295 2.87911C17.7308 2.31619 16.966 2.00047 16.169 2.00141C15.372 2.00234 14.6079 2.31986 14.045 2.88411L3.43802 13.4681C2.49969 14.4083 1.97327 15.6827 1.97458 17.0111C1.9759 18.3394 2.50483 19.6128 3.44502 20.5511C4.38521 21.4894 5.65965 22.0159 6.98797 22.0145C8.31629 22.0132 9.58969 21.4843 10.528 20.5441L22.549 8.54411L23.967 9.95911L11.946 21.9591C11.2943 22.6103 10.5203 23.1264 9.66868 23.4778C8.81701 23.8293 7.90435 24.0091 6.98302 24.0071V24.0071Z" fill="#374957"/>
</g>
<defs>
<clipPath id="clip0_403_3622">
<rect width="24" height="24" fill="white"/>
</clipPath>
</defs>
</svg>
