<svg width="32" height="32" viewBox="0 0 32 32" fill="none" xmlns="http://www.w3.org/2000/svg">
<g clip-path="url(#clip0_403_3574)" filter="url(#filter0_d_403_3574)">
<path d="M25.0004 24.0003H20.0004V22.0003H25.0004C25.2656 22.0003 25.5199 21.8949 25.7075 21.7074C25.895 21.5199 26.0004 21.2655 26.0004 21.0003V16.0003H28.0004V21.0003C28.0004 21.7959 27.6843 22.559 27.1217 23.1216C26.5591 23.6842 25.796 24.0003 25.0004 24.0003Z" fill="#374957"/>
<path d="M6 8H4V3C4 2.20435 4.31607 1.44129 4.87868 0.87868C5.44129 0.31607 6.20435 0 7 0L12 0V2H7C6.73478 2 6.48043 2.10536 6.29289 2.29289C6.10536 2.48043 6 2.73478 6 3V8Z" fill="#374957"/>
<path d="M12 24.0003H7C6.20435 24.0003 5.44129 23.6842 4.87868 23.1216C4.31607 22.559 4 21.7959 4 21.0003V16.0003H6V21.0003C6 21.2655 6.10536 21.5199 6.29289 21.7074C6.48043 21.8949 6.73478 22.0003 7 22.0003H12V24.0003Z" fill="#374957"/>
<path d="M28.0004 8H26.0004V3C26.0004 2.73478 25.895 2.48043 25.7075 2.29289C25.5199 2.10536 25.2656 2 25.0004 2H20.0004V0H25.0004C25.796 0 26.5591 0.31607 27.1217 0.87868C27.6843 1.44129 28.0004 2.20435 28.0004 3V8Z" fill="#374957"/>
<path d="M22.2927 19.7066L13.7067 11.1206C13.5192 10.9331 13.2649 10.8278 12.9997 10.8278C12.7346 10.8278 12.4803 10.9331 12.2927 11.1206L8.70672 14.7066L7.29272 13.2926L10.8787 9.70661C11.4413 9.14419 12.2042 8.82825 12.9997 8.82825C13.7952 8.82825 14.5581 9.14419 15.1207 9.70661L23.7067 18.2926L22.2927 19.7066Z" fill="#374957"/>
<path d="M20.0002 10.0003C19.4069 10.0003 18.8269 9.82436 18.3335 9.49472C17.8402 9.16507 17.4557 8.69654 17.2286 8.14836C17.0015 7.60018 16.9421 6.99698 17.0579 6.41504C17.1736 5.83309 17.4594 5.29854 17.8789 4.87899C18.2985 4.45943 18.833 4.17371 19.415 4.05795C19.9969 3.9422 20.6001 4.00161 21.1483 4.22867C21.6965 4.45573 22.165 4.84025 22.4947 5.3336C22.8243 5.82694 23.0002 6.40696 23.0002 7.00031C23.0002 7.79596 22.6842 8.55902 22.1216 9.12163C21.559 9.68424 20.7959 10.0003 20.0002 10.0003V10.0003ZM20.0002 6.00031C19.8025 6.00031 19.6091 6.05896 19.4447 6.16884C19.2802 6.27872 19.1521 6.4349 19.0764 6.61762C19.0007 6.80035 18.9809 7.00142 19.0195 7.1954C19.058 7.38938 19.1533 7.56756 19.2931 7.70741C19.433 7.84727 19.6112 7.94251 19.8052 7.98109C19.9991 8.01968 20.2002 7.99987 20.3829 7.92419C20.5657 7.8485 20.7218 7.72033 20.8317 7.55588C20.9416 7.39143 21.0002 7.19809 21.0002 7.00031C21.0002 6.73509 20.8949 6.48074 20.7074 6.2932C20.5198 6.10566 20.2655 6.00031 20.0002 6.00031Z" fill="#374957"/>
</g>
<defs>
<filter id="filter0_d_403_3574" x="0" y="0" width="32" height="32" filterUnits="userSpaceOnUse" color-interpolation-filters="sRGB">
<feFlood flood-opacity="0" result="BackgroundImageFix"/>
<feColorMatrix in="SourceAlpha" type="matrix" values="0 0 0 0 0 0 0 0 0 0 0 0 0 0 0 0 0 0 127 0" result="hardAlpha"/>
<feOffset dy="4"/>
<feGaussianBlur stdDeviation="2"/>
<feComposite in2="hardAlpha" operator="out"/>
<feColorMatrix type="matrix" values="0 0 0 0 0 0 0 0 0 0 0 0 0 0 0 0 0 0 0.25 0"/>
<feBlend mode="normal" in2="BackgroundImageFix" result="effect1_dropShadow_403_3574"/>
<feBlend mode="normal" in="SourceGraphic" in2="effect1_dropShadow_403_3574" result="shape"/>
</filter>
<clipPath id="clip0_403_3574">
<rect width="24" height="24" fill="white" transform="translate(4)"/>
</clipPath>
</defs>
</svg>
