<svg width="24" height="24" viewBox="0 0 24 24" fill="none" xmlns="http://www.w3.org/2000/svg">
<g clip-path="url(#clip0_403_3301)">
<path d="M21 24.0006H19V18.9576C18.9992 18.1736 18.6874 17.4219 18.133 16.8676C17.5787 16.3132 16.827 16.0014 16.043 16.0006H7.95699C7.17299 16.0014 6.42133 16.3132 5.86695 16.8676C5.31258 17.4219 5.00079 18.1736 4.99999 18.9576V24.0006H2.99999V18.9576C3.00158 17.6434 3.52434 16.3835 4.45362 15.4542C5.38289 14.525 6.6428 14.0022 7.95699 14.0006H16.043C17.3572 14.0022 18.6171 14.525 19.5464 15.4542C20.4756 16.3835 20.9984 17.6434 21 18.9576V24.0006Z" fill="#374957"/>
<path d="M11.9999 11.9999C10.8132 11.9999 9.65321 11.648 8.66651 10.9888C7.67982 10.3295 6.91078 9.3924 6.45666 8.29604C6.00253 7.19969 5.88371 5.99329 6.11522 4.8294C6.34673 3.66551 6.91818 2.59642 7.75729 1.7573C8.59641 0.918186 9.66551 0.346741 10.8294 0.11523C11.9933 -0.116281 13.1997 0.00253868 14.296 0.456664C15.3924 0.91079 16.3295 1.67983 16.9888 2.66652C17.648 3.65322 17.9999 4.81325 17.9999 5.99994C17.9983 7.59075 17.3657 9.11595 16.2408 10.2408C15.1159 11.3657 13.5907 11.9984 11.9999 11.9999V11.9999ZM11.9999 1.99994C11.2088 1.99994 10.4355 2.23454 9.77765 2.67406C9.11986 3.11359 8.60717 3.7383 8.30442 4.46921C8.00167 5.20011 7.92245 6.00438 8.07679 6.7803C8.23113 7.55623 8.6121 8.26896 9.17151 8.82837C9.73092 9.38778 10.4436 9.76874 11.2196 9.92308C11.9955 10.0774 12.7998 9.99821 13.5307 9.69546C14.2616 9.39271 14.8863 8.88002 15.3258 8.22222C15.7653 7.56443 15.9999 6.79107 15.9999 5.99994C15.9999 4.93908 15.5785 3.92166 14.8284 3.17151C14.0782 2.42137 13.0608 1.99994 11.9999 1.99994Z" fill="#374957"/>
</g>
<defs>
<clipPath id="clip0_403_3301">
<rect width="24" height="24" fill="white"/>
</clipPath>
</defs>
</svg>
