<svg width="24" height="24" viewBox="0 0 24 24" fill="none" xmlns="http://www.w3.org/2000/svg">
<g clip-path="url(#clip0_403_3481)">
<path d="M24 14.006C23.9988 13.5866 23.9091 13.1722 23.7368 12.7898C23.5645 12.4074 23.3134 12.0657 23 11.787V9C22.9974 6.61386 22.0483 4.32622 20.361 2.63896C18.6738 0.951708 16.3861 0.00264685 14 0L10 0C7.61386 0.00264685 5.32621 0.951708 3.63896 2.63896C1.95171 4.32622 1.00264 6.61386 0.999997 9V11.787C0.686594 12.0657 0.435529 12.4074 0.263212 12.7898C0.0908945 13.1722 0.00120238 13.5866 -2.74829e-06 14.006V14.177C-0.00182814 14.6013 0.0863587 15.0211 0.258736 15.4088C0.431113 15.7965 0.68376 16.1432 0.999997 16.426V20C0.999997 21.0609 1.42142 22.0783 2.17157 22.8284C2.92172 23.5786 3.93913 24 5 24H19C20.0609 24 21.0783 23.5786 21.8284 22.8284C22.5786 22.0783 23 21.0609 23 20V16.226C23.3135 15.9472 23.5647 15.6053 23.737 15.2228C23.9093 14.8402 23.9989 14.4256 24 14.006V14.006ZM3 9C3.00211 7.14413 3.74029 5.36489 5.05259 4.05259C6.36488 2.7403 8.14413 2.00212 10 2H14C15.8559 2.00212 17.6351 2.7403 18.9474 4.05259C20.2597 5.36489 20.9979 7.14413 21 9V11.006H3V9ZM21 15.006H17C14.3492 15.0076 11.7881 15.9664 9.788 17.706C9.57027 17.8973 9.29034 18.0028 9.0005 18.0028C8.71065 18.0028 8.43072 17.8973 8.213 17.706C6.67239 16.3657 4.7891 15.4806 2.774 15.15C2.55145 15.1042 2.35206 14.9816 2.21061 14.8038C2.06916 14.626 1.99462 14.4042 2 14.177V14.006C2 13.7408 2.10535 13.4864 2.29289 13.2989C2.48043 13.1114 2.73478 13.006 3 13.006H21C21.2652 13.006 21.5196 13.1114 21.7071 13.2989C21.8946 13.4864 22 13.7408 22 14.006C22 14.2712 21.8946 14.5256 21.7071 14.7131C21.5196 14.9006 21.2652 15.006 21 15.006ZM21 20C21 20.5304 20.7893 21.0391 20.4142 21.4142C20.0391 21.7893 19.5304 22 19 22H5C4.46956 22 3.96086 21.7893 3.58578 21.4142C3.21071 21.0391 3 20.5304 3 20V17.253C4.44104 17.575 5.78053 18.2471 6.9 19.21C7.48008 19.7213 8.22676 20.0034 9 20.0034C9.77323 20.0034 10.5199 19.7213 11.1 19.21C12.7376 17.7902 14.8326 17.009 17 17.01H21V20ZM11 5C11 5.26522 10.8946 5.51957 10.7071 5.70711C10.5196 5.89464 10.2652 6 10 6C9.73478 6 9.48043 5.89464 9.29289 5.70711C9.10535 5.51957 9 5.26522 9 5C9 4.73478 9.10535 4.48043 9.29289 4.29289C9.48043 4.10536 9.73478 4 10 4C10.2652 4 10.5196 4.10536 10.7071 4.29289C10.8946 4.48043 11 4.73478 11 5ZM8 8C8 8.26522 7.89464 8.51957 7.7071 8.70711C7.51957 8.89464 7.26521 9 7 9C6.73478 9 6.48043 8.89464 6.29289 8.70711C6.10535 8.51957 6 8.26522 6 8C6 7.73478 6.10535 7.48043 6.29289 7.29289C6.48043 7.10536 6.73478 7 7 7C7.26521 7 7.51957 7.10536 7.7071 7.29289C7.89464 7.48043 8 7.73478 8 8V8Z" fill="#374957"/>
</g>
<defs>
<clipPath id="clip0_403_3481">
<rect width="24" height="24" fill="white"/>
</clipPath>
</defs>
</svg>
