<svg width="24" height="24" viewBox="0 0 24 24" fill="none" xmlns="http://www.w3.org/2000/svg">
<g clip-path="url(#clip0_403_3677)">
<path d="M0 3V11H11V0H3C2.20435 0 1.44129 0.31607 0.87868 0.87868C0.31607 1.44129 0 2.20435 0 3H0ZM9 9H2V3C2 2.73478 2.10536 2.48043 2.29289 2.29289C2.48043 2.10536 2.73478 2 3 2H9V9Z" fill="#374957"/>
<path d="M0 21C0 21.7956 0.31607 22.5587 0.87868 23.1213C1.44129 23.6839 2.20435 24 3 24H11V13H0V21ZM2 15H9V22H3C2.73478 22 2.48043 21.8946 2.29289 21.7071C2.10536 21.5196 2 21.2652 2 21V15Z" fill="#374957"/>
<path d="M12.9998 13V24H20.9998C21.7955 24 22.5585 23.6839 23.1212 23.1213C23.6838 22.5587 23.9998 21.7956 23.9998 21V13H12.9998ZM21.9998 21C21.9998 21.2652 21.8945 21.5196 21.7069 21.7071C21.5194 21.8946 21.2651 22 20.9998 22H14.9998V15H21.9998V21Z" fill="#374957"/>
<path d="M22.9998 5H12.9998V7H22.9998V5Z" fill="#374957"/>
</g>
<defs>
<clipPath id="clip0_403_3677">
<rect width="24" height="24" fill="white"/>
</clipPath>
</defs>
</svg>
