<svg width="32" height="32" viewBox="0 0 32 32" fill="none" xmlns="http://www.w3.org/2000/svg">
<g clip-path="url(#clip0_403_3508)" filter="url(#filter0_d_403_3508)">
<path d="M14.931 2.75032C14.7164 1.96059 14.2478 1.26343 13.5977 0.766389C12.9475 0.269352 12.1519 6.10352e-05 11.3335 6.10352e-05C10.5151 6.10352e-05 9.71948 0.269352 9.06933 0.766389C8.41917 1.26343 7.95064 1.96059 7.736 2.75032H4V4.75032H7.736C7.95064 5.54005 8.41917 6.23721 9.06933 6.73425C9.71948 7.23129 10.5151 7.50058 11.3335 7.50058C12.1519 7.50058 12.9475 7.23129 13.5977 6.73425C14.2478 6.23721 14.7164 5.54005 14.931 4.75032H28V2.75032H14.931ZM11.333 5.50032C10.9869 5.50032 10.6485 5.39768 10.3608 5.20539C10.073 5.0131 9.84866 4.73979 9.71621 4.42002C9.58376 4.10025 9.5491 3.74838 9.61663 3.40891C9.68415 3.06945 9.85082 2.75763 10.0956 2.51288C10.3403 2.26814 10.6521 2.10147 10.9916 2.03395C11.3311 1.96642 11.6829 2.00108 12.0027 2.13353C12.3225 2.26598 12.5958 2.49029 12.7881 2.77807C12.9804 3.06586 13.083 3.4042 13.083 3.75032C13.0822 4.21421 12.8976 4.65886 12.5696 4.98688C12.2415 5.3149 11.7969 5.49953 11.333 5.50032V5.50032Z" fill="#374957"/>
<path d="M20.667 8.25C19.8495 8.25293 19.0553 8.5233 18.4058 9.01985C17.7564 9.51639 17.2872 10.2118 17.07 11H4V13H17.07C17.2843 13.7899 17.7526 14.4873 18.4027 14.9846C19.0528 15.4818 19.8485 15.7512 20.667 15.7512C21.4855 15.7512 22.2812 15.4818 22.9313 14.9846C23.5814 14.4873 24.0497 13.7899 24.264 13H28V11H24.264C24.0468 10.2118 23.5776 9.51639 22.9282 9.01985C22.2787 8.5233 21.4845 8.25293 20.667 8.25V8.25ZM20.667 13.75C20.3209 13.75 19.9825 13.6474 19.6948 13.4551C19.407 13.2628 19.1827 12.9895 19.0502 12.6697C18.9178 12.3499 18.8831 11.9981 18.9506 11.6586C19.0181 11.3191 19.1848 11.0073 19.4296 10.7626C19.6743 10.5178 19.9861 10.3511 20.3256 10.2836C20.6651 10.2161 21.0169 10.2508 21.3367 10.3832C21.6565 10.5157 21.9298 10.74 22.1221 11.0278C22.3144 11.3155 22.417 11.6539 22.417 12C22.4165 12.464 22.2319 12.9088 21.9039 13.2369C21.5758 13.5649 21.131 13.7495 20.667 13.75V13.75Z" fill="#374957"/>
<path d="M11.333 16.5C10.5149 16.5023 9.72013 16.7723 9.07004 17.2689C8.41995 17.7655 7.95035 18.4613 7.733 19.25H4V21.25H7.736C7.95064 22.0397 8.41917 22.7369 9.06933 23.2339C9.71948 23.731 10.5151 24.0002 11.3335 24.0002C12.1519 24.0002 12.9475 23.731 13.5977 23.2339C14.2478 22.7369 14.7164 22.0397 14.931 21.25H28V19.25H14.931C14.7137 18.4617 14.2444 17.7661 13.5948 17.2695C12.9451 16.773 12.1507 16.5027 11.333 16.5ZM11.333 22C10.9869 22 10.6485 21.8974 10.3608 21.7051C10.073 21.5128 9.84866 21.2395 9.71621 20.9197C9.58376 20.5999 9.5491 20.2481 9.61663 19.9086C9.68415 19.5691 9.85082 19.2573 10.0956 19.0126C10.3403 18.7678 10.6521 18.6011 10.9916 18.5336C11.3311 18.4661 11.6829 18.5008 12.0027 18.6332C12.3225 18.7657 12.5958 18.99 12.7881 19.2777C12.9804 19.5655 13.083 19.9039 13.083 20.25C13.0822 20.7139 12.8976 21.1585 12.5696 21.4866C12.2415 21.8146 11.7969 21.9992 11.333 22V22Z" fill="#374957"/>
</g>
<defs>
<filter id="filter0_d_403_3508" x="0" y="0" width="32" height="32" filterUnits="userSpaceOnUse" color-interpolation-filters="sRGB">
<feFlood flood-opacity="0" result="BackgroundImageFix"/>
<feColorMatrix in="SourceAlpha" type="matrix" values="0 0 0 0 0 0 0 0 0 0 0 0 0 0 0 0 0 0 127 0" result="hardAlpha"/>
<feOffset dy="4"/>
<feGaussianBlur stdDeviation="2"/>
<feComposite in2="hardAlpha" operator="out"/>
<feColorMatrix type="matrix" values="0 0 0 0 0 0 0 0 0 0 0 0 0 0 0 0 0 0 0.25 0"/>
<feBlend mode="normal" in2="BackgroundImageFix" result="effect1_dropShadow_403_3508"/>
<feBlend mode="normal" in="SourceGraphic" in2="effect1_dropShadow_403_3508" result="shape"/>
</filter>
<clipPath id="clip0_403_3508">
<rect width="24" height="24" fill="white" transform="translate(4)"/>
</clipPath>
</defs>
</svg>
