<svg width="24" height="24" viewBox="0 0 24 24" fill="none" xmlns="http://www.w3.org/2000/svg">
<g clip-path="url(#clip0_403_3753)">
<path d="M14.4142 0H5.00015C4.2045 0 3.44144 0.31607 2.87883 0.87868C2.31622 1.44129 2.00015 2.20435 2.00015 3V24H22.0002V7.586L14.4142 0ZM15.0002 3.414L18.5862 7H15.0002V3.414ZM4.00015 22V3C4.00015 2.73478 4.10551 2.48043 4.29305 2.29289C4.48058 2.10536 4.73494 2 5.00015 2H13.0002V9H20.0002V22H4.00015ZM13.0002 11H15.0002V13H13.0002V17.5C13.0002 17.9945 12.8535 18.4778 12.5788 18.8889C12.3041 19.3 11.9137 19.6205 11.4569 19.8097C11 19.9989 10.4974 20.0484 10.0124 19.952C9.52747 19.8555 9.08202 19.6174 8.73239 19.2678C8.38275 18.9181 8.14465 18.4727 8.04819 17.9877C7.95173 17.5028 8.00123 17.0001 8.19045 16.5433C8.37967 16.0865 8.7001 15.696 9.11123 15.4213C9.52235 15.1466 10.0057 15 10.5002 15C10.6681 15.0003 10.8355 15.0171 11.0002 15.05V13C11.0002 12.4696 11.2109 11.9609 11.5859 11.5858C11.961 11.2107 12.4697 11 13.0002 11V11Z" fill="#374957"/>
</g>
<defs>
<clipPath id="clip0_403_3753">
<rect width="24" height="24" fill="white"/>
</clipPath>
</defs>
</svg>
