<svg width="24" height="24" viewBox="0 0 24 24" fill="none" xmlns="http://www.w3.org/2000/svg">
<g clip-path="url(#clip0_403_3308)">
<path d="M11.9998 20C9.87882 19.9976 7.84537 19.154 6.34559 17.6542C4.84582 16.1544 4.0022 14.121 3.99982 12V0H5.99982V12C5.99982 13.5913 6.63196 15.1174 7.75718 16.2426C8.88239 17.3679 10.4085 18 11.9998 18C13.5911 18 15.1172 17.3679 16.2425 16.2426C17.3677 15.1174 17.9998 13.5913 17.9998 12V0H19.9998V12C19.9974 14.121 19.1538 16.1544 17.654 17.6542C16.1543 19.154 14.1208 19.9976 11.9998 20V20Z" fill="#374957"/>
<path d="M24 21.9994H0V23.9994H24V21.9994Z" fill="#374957"/>
</g>
<defs>
<clipPath id="clip0_403_3308">
<rect width="24" height="24" fill="white"/>
</clipPath>
</defs>
</svg>
