<svg width="24" height="24" viewBox="0 0 24 24" fill="none" xmlns="http://www.w3.org/2000/svg">
<g clip-path="url(#clip0_403_3358)">
<path d="M2 21V3C2 2.73478 2.10536 2.48043 2.29289 2.29289C2.48043 2.10536 2.73478 2 3 2H8V0H3C2.20435 0 1.44129 0.31607 0.87868 0.87868C0.31607 1.44129 0 2.20435 0 3L0 21C0 21.7956 0.31607 22.5587 0.87868 23.1213C1.44129 23.6839 2.20435 24 3 24H8V22H3C2.73478 22 2.48043 21.8946 2.29289 21.7071C2.10536 21.5196 2 21.2652 2 21V21Z" fill="#374957"/>
<path d="M23.1226 9.87842L18.5366 5.29242L17.1226 6.70642L21.3866 10.9704L4.99963 10.9994V12.9994L21.4426 12.9704L17.1206 17.2924L18.5346 18.7064L23.1206 14.1204C23.6833 13.5581 23.9996 12.7953 24 11.9998C24.0004 11.2043 23.6848 10.4413 23.1226 9.87842Z" fill="#374957"/>
</g>
<defs>
<clipPath id="clip0_403_3358">
<rect width="24" height="24" fill="white"/>
</clipPath>
</defs>
</svg>
