<svg width="32" height="32" viewBox="0 0 32 32" fill="none" xmlns="http://www.w3.org/2000/svg">
<g clip-path="url(#clip0_403_3780)" filter="url(#filter0_d_403_3780)">
<path d="M16 24C13.6266 24 11.3066 23.2962 9.33316 21.9776C7.35977 20.6591 5.8217 18.7849 4.91345 16.5922C4.0052 14.3995 3.76756 11.9867 4.23058 9.65892C4.6936 7.33115 5.83649 5.19295 7.51472 3.51472C9.19295 1.83649 11.3312 0.693605 13.6589 0.230582C15.9867 -0.232441 18.3995 0.00519943 20.5922 0.913451C22.7849 1.8217 24.6591 3.35977 25.9776 5.33316C27.2962 7.30655 28 9.62663 28 12C27.9966 15.1815 26.7312 18.2318 24.4815 20.4815C22.2318 22.7312 19.1815 23.9966 16 24V24ZM16 2.00001C14.0222 2.00001 12.0888 2.5865 10.4443 3.68531C8.79981 4.78412 7.51809 6.34591 6.76121 8.17317C6.00433 10.0004 5.8063 12.0111 6.19215 13.9509C6.578 15.8907 7.53041 17.6725 8.92894 19.0711C10.3275 20.4696 12.1093 21.422 14.0491 21.8079C15.9889 22.1937 17.9996 21.9957 19.8268 21.2388C21.6541 20.4819 23.2159 19.2002 24.3147 17.5557C25.4135 15.9112 26 13.9778 26 12C25.9971 9.34873 24.9426 6.80689 23.0679 4.93215C21.1931 3.05742 18.6513 2.00292 16 2.00001V2.00001Z" fill="#374957"/>
<path d="M15.9997 19.0001C14.8486 19 13.7152 18.7161 12.7001 18.1734C11.6849 17.6307 10.8192 16.846 10.1797 15.8889C9.54025 14.9317 9.14667 13.8316 9.03387 12.6861C8.92107 11.5405 9.09253 10.3848 9.53306 9.32127C9.97358 8.25778 10.6696 7.31934 11.5594 6.58907C12.4492 5.8588 13.5054 5.35925 14.6344 5.13465C15.7634 4.91006 16.9304 4.96735 18.0319 5.30147C19.1335 5.63558 20.1357 6.2362 20.9497 7.05012L19.5357 8.46412C18.8364 7.76499 17.9454 7.28892 16.9756 7.0961C16.0057 6.90328 15.0004 7.00237 14.0869 7.38085C13.1733 7.75933 12.3925 8.40019 11.8432 9.22241C11.2938 10.0446 11.0006 11.0113 11.0006 12.0001C11.0006 12.989 11.2938 13.9556 11.8432 14.7778C12.3925 15.6001 13.1733 16.2409 14.0869 16.6194C15.0004 16.9979 16.0057 17.097 16.9756 16.9041C17.9454 16.7113 18.8364 16.2353 19.5357 15.5361L20.9497 16.9501C20.3002 17.6009 19.5286 18.117 18.6791 18.4687C17.8297 18.8205 16.9191 19.0011 15.9997 19.0001V19.0001Z" fill="#374957"/>
</g>
<defs>
<filter id="filter0_d_403_3780" x="0" y="0" width="32" height="32" filterUnits="userSpaceOnUse" color-interpolation-filters="sRGB">
<feFlood flood-opacity="0" result="BackgroundImageFix"/>
<feColorMatrix in="SourceAlpha" type="matrix" values="0 0 0 0 0 0 0 0 0 0 0 0 0 0 0 0 0 0 127 0" result="hardAlpha"/>
<feOffset dy="4"/>
<feGaussianBlur stdDeviation="2"/>
<feComposite in2="hardAlpha" operator="out"/>
<feColorMatrix type="matrix" values="0 0 0 0 0 0 0 0 0 0 0 0 0 0 0 0 0 0 0.25 0"/>
<feBlend mode="normal" in2="BackgroundImageFix" result="effect1_dropShadow_403_3780"/>
<feBlend mode="normal" in="SourceGraphic" in2="effect1_dropShadow_403_3780" result="shape"/>
</filter>
<clipPath id="clip0_403_3780">
<rect width="24" height="24" fill="white" transform="translate(4)"/>
</clipPath>
</defs>
</svg>
