<svg width="24" height="24" viewBox="0 0 24 24" fill="none" xmlns="http://www.w3.org/2000/svg">
<path d="M22 23.0001H2.00004V9.97912C1.16914 9.34689 0.557003 8.47041 0.249502 7.47263C-0.0579985 6.47486 -0.0454362 5.40585 0.285427 4.41558C0.61629 3.42531 1.24885 2.56345 2.09438 1.95092C2.9399 1.33838 3.95597 1.00591 5.00004 1.00012H19C20.0441 1.00591 21.0602 1.33838 21.9057 1.95092C22.7512 2.56345 23.3838 3.42531 23.7146 4.41558C24.0455 5.40585 24.0581 6.47486 23.7506 7.47263C23.4431 8.47041 22.8309 9.34689 22 9.97912V23.0001ZM4.00004 21.0001H20V8.87012L20.5 8.58112C21.0636 8.24727 21.5025 7.73813 21.7495 7.13145C21.9966 6.52478 22.0383 5.85391 21.8683 5.22131C21.6982 4.58871 21.3258 4.02914 20.8079 3.62806C20.29 3.22699 19.6551 3.00645 19 3.00012H5.00004C4.34501 3.00645 3.71006 3.22699 3.19215 3.62806C2.67424 4.02914 2.30184 4.58871 2.13181 5.22131C1.96179 5.85391 2.00349 6.52478 2.25055 7.13145C2.49761 7.73813 2.93644 8.24727 3.50004 8.58112L4.00004 8.87012V21.0001ZM8.00004 12.0001C7.73482 12.0001 7.48047 12.1055 7.29293 12.293C7.10539 12.4806 7.00004 12.7349 7.00004 13.0001C7.00004 13.2653 7.10539 13.5197 7.29293 13.7072C7.48047 13.8948 7.73482 14.0001 8.00004 14.0001C8.26525 14.0001 8.51961 13.8948 8.70714 13.7072C8.89468 13.5197 9.00004 13.2653 9.00004 13.0001C9.00004 12.7349 8.89468 12.4806 8.70714 12.293C8.51961 12.1055 8.26525 12.0001 8.00004 12.0001V12.0001ZM12 16.0001C11.7348 16.0001 11.4805 16.1055 11.2929 16.293C11.1054 16.4806 11 16.7349 11 17.0001C11 17.2653 11.1054 17.5197 11.2929 17.7072C11.4805 17.8948 11.7348 18.0001 12 18.0001C12.2653 18.0001 12.5196 17.8948 12.7071 17.7072C12.8947 17.5197 13 17.2653 13 17.0001C13 16.7349 12.8947 16.4806 12.7071 16.293C12.5196 16.1055 12.2653 16.0001 12 16.0001ZM8.00004 16.0001C7.73482 16.0001 7.48047 16.1055 7.29293 16.293C7.10539 16.4806 7.00004 16.7349 7.00004 17.0001C7.00004 17.2653 7.10539 17.5197 7.29293 17.7072C7.48047 17.8948 7.73482 18.0001 8.00004 18.0001C8.26525 18.0001 8.51961 17.8948 8.70714 17.7072C8.89468 17.5197 9.00004 17.2653 9.00004 17.0001C9.00004 16.7349 8.89468 16.4806 8.70714 16.293C8.51961 16.1055 8.26525 16.0001 8.00004 16.0001V16.0001Z" fill="#374957"/>
</svg>
