<svg width="24" height="24" viewBox="0 0 24 24" fill="none" xmlns="http://www.w3.org/2000/svg">
<g clip-path="url(#clip0_403_3620)">
<path d="M24 19.9995V5.9995C24 5.20385 23.6839 4.44079 23.1213 3.87818C22.5587 3.31557 21.7956 2.9995 21 2.9995H20C19.9999 2.53523 19.8921 2.07731 19.6849 1.66179C19.4778 1.24627 19.1771 0.884499 18.8064 0.604941C18.4357 0.325384 18.0052 0.135674 17.5488 0.050744C17.0923 -0.0341858 16.6224 -0.0120176 16.176 0.115504L13.176 0.973504C12.7394 1.09837 12.3372 1.32138 12 1.6255C11.6628 1.32138 11.2606 1.09837 10.824 0.973504L7.824 0.115504C7.37758 -0.0120176 6.90765 -0.0341858 6.45121 0.050744C5.99477 0.135674 5.56427 0.325384 5.19359 0.604941C4.82292 0.884499 4.52218 1.24627 4.31507 1.66179C4.10795 2.07731 4.0001 2.53523 4 2.9995H3C2.20435 2.9995 1.44129 3.31557 0.87868 3.87818C0.31607 4.44079 0 5.20385 0 5.9995L0 19.9995H11V21.9995H7V23.9995H17V21.9995H13V19.9995H24ZM13 3.8575C13.0001 3.64032 13.0709 3.42907 13.2017 3.25569C13.3325 3.08231 13.5162 2.95623 13.725 2.8965L16.725 2.0395C16.8144 2.01363 16.9069 2.00017 17 1.9995C17.2652 1.9995 17.5196 2.10486 17.7071 2.2924C17.8946 2.47993 18 2.73429 18 2.9995V9.2455L13 10.6735V3.8575ZM6 2.9995C6.00022 2.84482 6.03633 2.6923 6.10547 2.55393C6.17462 2.41556 6.27492 2.29512 6.3985 2.20208C6.52207 2.10903 6.66554 2.04593 6.81763 2.01772C6.96972 1.98951 7.12628 1.99697 7.275 2.0395L10.275 2.8965C10.4838 2.95623 10.6675 3.08231 10.7983 3.25569C10.9291 3.42907 10.9999 3.64032 11 3.8575V10.6735L6 9.2455V2.9995ZM2 5.9995C2 5.73429 2.10536 5.47993 2.29289 5.2924C2.48043 5.10486 2.73478 4.9995 3 4.9995H4V10.7535L12 13.0395L20 10.7535V4.9995H21C21.2652 4.9995 21.5196 5.10486 21.7071 5.2924C21.8946 5.47993 22 5.73429 22 5.9995V17.9995H2V5.9995Z" fill="#374957"/>
</g>
<defs>
<clipPath id="clip0_403_3620">
<rect width="24" height="24" fill="white"/>
</clipPath>
</defs>
</svg>
