<svg width="30" height="32" viewBox="0 0 30 32" fill="none" xmlns="http://www.w3.org/2000/svg">
<g clip-path="url(#clip0_403_3466)" filter="url(#filter0_d_403_3466)">
<path d="M17.9998 2.42676V4.52676C20.0014 5.23444 21.6884 6.62696 22.7627 8.4582C23.8369 10.2894 24.2292 12.4415 23.8702 14.534C23.5112 16.6264 22.424 18.5246 20.8008 19.8931C19.1776 21.2615 17.1228 22.012 14.9998 22.012C12.8767 22.012 10.822 21.2615 9.1988 19.8931C7.5756 18.5246 6.48841 16.6264 6.1294 14.534C5.77038 12.4415 6.16266 10.2894 7.23689 8.4582C8.31112 6.62696 9.99814 5.23444 11.9998 4.52676V2.42676C9.4454 3.15086 7.23911 4.7744 5.78803 6.99781C4.33694 9.22122 3.739 11.8944 4.10453 14.5242C4.47006 17.1539 5.7744 19.5627 7.77685 21.3061C9.77931 23.0495 12.3448 24.0098 14.9998 24.0098C17.6548 24.0098 20.2203 23.0495 22.2227 21.3061C24.2252 19.5627 25.5295 17.1539 25.895 14.5242C26.2606 11.8944 25.6626 9.22122 24.2115 6.99781C22.7605 4.7744 20.5542 3.15086 17.9998 2.42676V2.42676Z" fill="#374957"/>
<path d="M15.9998 0H13.9998V8H15.9998V0Z" fill="#374957"/>
</g>
<defs>
<filter id="filter0_d_403_3466" x="-1" y="0" width="32" height="32" filterUnits="userSpaceOnUse" color-interpolation-filters="sRGB">
<feFlood flood-opacity="0" result="BackgroundImageFix"/>
<feColorMatrix in="SourceAlpha" type="matrix" values="0 0 0 0 0 0 0 0 0 0 0 0 0 0 0 0 0 0 127 0" result="hardAlpha"/>
<feOffset dy="4"/>
<feGaussianBlur stdDeviation="2"/>
<feComposite in2="hardAlpha" operator="out"/>
<feColorMatrix type="matrix" values="0 0 0 0 0 0 0 0 0 0 0 0 0 0 0 0 0 0 0.25 0"/>
<feBlend mode="normal" in2="BackgroundImageFix" result="effect1_dropShadow_403_3466"/>
<feBlend mode="normal" in="SourceGraphic" in2="effect1_dropShadow_403_3466" result="shape"/>
</filter>
<clipPath id="clip0_403_3466">
<rect width="24" height="24" fill="white" transform="translate(3)"/>
</clipPath>
</defs>
</svg>
