<svg width="32" height="32" viewBox="0 0 32 32" fill="none" xmlns="http://www.w3.org/2000/svg">
<g clip-path="url(#clip0_403_3299)" filter="url(#filter0_d_403_3299)">
<path d="M25.9998 0H21.9998V2H24.5858L22.1858 4.4C21.0913 3.57348 19.7765 3.08974 18.4073 3.00983C17.0381 2.92992 15.676 3.25742 14.4928 3.951C13.601 3.4357 12.6063 3.12387 11.58 3.03781C10.5536 2.95176 9.52096 3.09361 8.55583 3.45322C7.5907 3.81283 6.71698 4.3813 5.99717 5.11798C5.27737 5.85465 4.72929 6.7413 4.39213 7.7145C4.05497 8.68771 3.93708 9.7234 4.04688 10.7475C4.15669 11.7716 4.49147 12.7587 5.02729 13.6383C5.56311 14.5179 6.28671 15.2682 7.14633 15.8355C8.00595 16.4029 8.98033 16.7732 9.99976 16.92V19H6.99976V21H9.99976V24H11.9998V21H14.9998V19H11.9998V16.927C12.8788 16.796 13.7245 16.4973 14.4908 16.047C15.884 16.8619 17.5164 17.1692 19.1105 16.9168C20.7047 16.6643 22.1622 15.8677 23.2355 14.6622C24.3088 13.4567 24.9315 11.9168 24.9979 10.3042C25.0643 8.69152 24.5703 7.10563 23.5998 5.816L25.9998 3.416V6H27.9998V2C27.9998 1.46957 27.789 0.960859 27.414 0.585786C27.0389 0.210714 26.5302 0 25.9998 0V0ZM5.99976 10C5.99502 9.18785 6.18934 8.38691 6.56573 7.66722C6.94212 6.94754 7.48912 6.33104 8.15887 5.87165C8.82862 5.41226 9.60073 5.12396 10.4077 5.03198C11.2146 4.93999 12.0318 5.04712 12.7878 5.344C11.6367 6.62162 10.9997 8.28033 10.9997 10C10.9997 11.7197 11.6367 13.3784 12.7878 14.656C12.0318 14.9529 11.2146 15.06 10.4077 14.968C9.60073 14.876 8.82862 14.5877 8.15887 14.1284C7.48912 13.669 6.94212 13.0525 6.56573 12.3328C6.18934 11.6131 5.99502 10.8122 5.99976 10V10ZM17.9998 15C17.0109 15 16.0442 14.7068 15.2219 14.1573C14.3997 13.6079 13.7588 12.827 13.3804 11.9134C13.0019 10.9998 12.9029 9.99445 13.0958 9.02455C13.2888 8.05464 13.765 7.16373 14.4642 6.46447C15.1635 5.7652 16.0544 5.289 17.0243 5.09607C17.9942 4.90315 18.9995 5.00216 19.9132 5.3806C20.8268 5.75904 21.6077 6.3999 22.1571 7.22215C22.7065 8.04439 22.9998 9.01109 22.9998 10C22.9982 11.3256 22.4709 12.5964 21.5335 13.5338C20.5962 14.4711 19.3254 14.9984 17.9998 15Z" fill="#374957"/>
</g>
<defs>
<filter id="filter0_d_403_3299" x="0" y="0" width="32" height="32" filterUnits="userSpaceOnUse" color-interpolation-filters="sRGB">
<feFlood flood-opacity="0" result="BackgroundImageFix"/>
<feColorMatrix in="SourceAlpha" type="matrix" values="0 0 0 0 0 0 0 0 0 0 0 0 0 0 0 0 0 0 127 0" result="hardAlpha"/>
<feOffset dy="4"/>
<feGaussianBlur stdDeviation="2"/>
<feComposite in2="hardAlpha" operator="out"/>
<feColorMatrix type="matrix" values="0 0 0 0 0 0 0 0 0 0 0 0 0 0 0 0 0 0 0.25 0"/>
<feBlend mode="normal" in2="BackgroundImageFix" result="effect1_dropShadow_403_3299"/>
<feBlend mode="normal" in="SourceGraphic" in2="effect1_dropShadow_403_3299" result="shape"/>
</filter>
<clipPath id="clip0_403_3299">
<rect width="24" height="24" fill="white" transform="translate(4)"/>
</clipPath>
</defs>
</svg>
