<svg width="32" height="29" viewBox="0 0 32 29" fill="none" xmlns="http://www.w3.org/2000/svg">
<g clip-path="url(#clip0_403_3444)" filter="url(#filter0_d_403_3444)">
<path d="M26 15V3H6V15H4V18C4 18.7956 4.31607 19.5587 4.87868 20.1213C5.44129 20.6839 6.20435 21 7 21H25C25.7956 21 26.5587 20.6839 27.1213 20.1213C27.6839 19.5587 28 18.7956 28 18V15H26ZM8 5H24V15H18.921L18.074 16H13.925L13.079 15H8V5ZM26 18C26 18.2652 25.8946 18.5196 25.7071 18.7071C25.5196 18.8946 25.2652 19 25 19H7C6.73478 19 6.48043 18.8946 6.29289 18.7071C6.10536 18.5196 6 18.2652 6 18V17H12.151L13 18H19L19.847 17H26V18Z" fill="#374957"/>
</g>
<defs>
<filter id="filter0_d_403_3444" x="0" y="0" width="32" height="32" filterUnits="userSpaceOnUse" color-interpolation-filters="sRGB">
<feFlood flood-opacity="0" result="BackgroundImageFix"/>
<feColorMatrix in="SourceAlpha" type="matrix" values="0 0 0 0 0 0 0 0 0 0 0 0 0 0 0 0 0 0 127 0" result="hardAlpha"/>
<feOffset dy="4"/>
<feGaussianBlur stdDeviation="2"/>
<feComposite in2="hardAlpha" operator="out"/>
<feColorMatrix type="matrix" values="0 0 0 0 0 0 0 0 0 0 0 0 0 0 0 0 0 0 0.25 0"/>
<feBlend mode="normal" in2="BackgroundImageFix" result="effect1_dropShadow_403_3444"/>
<feBlend mode="normal" in="SourceGraphic" in2="effect1_dropShadow_403_3444" result="shape"/>
</filter>
<clipPath id="clip0_403_3444">
<rect width="24" height="24" fill="white" transform="translate(4)"/>
</clipPath>
</defs>
</svg>
