<svg width="32" height="32" viewBox="0 0 32 32" fill="none" xmlns="http://www.w3.org/2000/svg">
<g clip-path="url(#clip0_403_3605)" filter="url(#filter0_d_403_3605)">
<path d="M8 23.9999L9.333 21.3329L12 19.9999L9.333 18.6669L8 15.9999L6.667 18.6669L4 19.9999L6.667 21.3329L8 23.9999Z" fill="#374957"/>
<path d="M25.3328 21.3329L27.9998 19.9999L25.3328 18.6669L23.9998 15.9999L22.6668 18.6669L19.9998 19.9999L22.6668 21.3329L23.9998 23.9999L25.3328 21.3329Z" fill="#374957"/>
<path d="M17.3331 2.667L16.0001 0L14.6671 2.667L12.0002 4L14.6671 5.333L16.0001 8L17.3331 5.333L20.0001 4L17.3331 2.667Z" fill="#374957"/>
<path d="M8.99985 14C9.55213 14 9.99984 13.5523 9.99984 13C9.99984 12.4477 9.55213 12 8.99985 12C8.44756 12 7.99985 12.4477 7.99985 13C7.99985 13.5523 8.44756 14 8.99985 14Z" fill="#374957"/>
<path d="M5 10.0001C5.55228 10.0001 6 9.5524 6 9.00012C6 8.44784 5.55228 8.00012 5 8.00012C4.44772 8.00012 4 8.44784 4 9.00012C4 9.5524 4.44772 10.0001 5 10.0001Z" fill="#374957"/>
<path d="M8.99985 5.99987C9.55213 5.99987 9.99984 5.55216 9.99984 4.99988C9.99984 4.44759 9.55213 3.99988 8.99985 3.99988C8.44756 3.99988 7.99985 4.44759 7.99985 4.99988C7.99985 5.55216 8.44756 5.99987 8.99985 5.99987Z" fill="#374957"/>
<path d="M5 2C5.55228 2 6 1.55228 6 1C6 0.447715 5.55228 0 5 0C4.44772 0 4 0.447715 4 1C4 1.55228 4.44772 2 5 2Z" fill="#374957"/>
<path d="M26.9998 14C27.5521 14 27.9998 13.5523 27.9998 13C27.9998 12.4477 27.5521 12 26.9998 12C26.4476 12 25.9998 12.4477 25.9998 13C25.9998 13.5523 26.4476 14 26.9998 14Z" fill="#374957"/>
<path d="M23 10.0001C23.5523 10.0001 24 9.5524 24 9.00012C24 8.44784 23.5523 8.00012 23 8.00012C22.4477 8.00012 22 8.44784 22 9.00012C22 9.5524 22.4477 10.0001 23 10.0001Z" fill="#374957"/>
<path d="M26.9998 5.99987C27.5521 5.99987 27.9998 5.55216 27.9998 4.99988C27.9998 4.44759 27.5521 3.99988 26.9998 3.99988C26.4476 3.99988 25.9998 4.44759 25.9998 4.99988C25.9998 5.55216 26.4476 5.99987 26.9998 5.99987Z" fill="#374957"/>
<path d="M23 2C23.5523 2 24 1.55228 24 1C24 0.447715 23.5523 0 23 0C22.4477 0 22 0.447715 22 1C22 1.55228 22.4477 2 23 2Z" fill="#374957"/>
<path d="M17.9999 23.9999C18.5521 23.9999 18.9999 23.5521 18.9999 22.9999C18.9999 22.4476 18.5521 21.9999 17.9999 21.9999C17.4476 21.9999 16.9998 22.4476 16.9998 22.9999C16.9998 23.5521 17.4476 23.9999 17.9999 23.9999Z" fill="#374957"/>
<path d="M14 20C14.5523 20 15 19.5523 15 19C15 18.4477 14.5523 18 14 18C13.4477 18 13 18.4477 13 19C13 19.5523 13.4477 20 14 20Z" fill="#374957"/>
<path d="M17.9999 16.0001C18.5521 16.0001 18.9999 15.5524 18.9999 15.0001C18.9999 14.4478 18.5521 14.0001 17.9999 14.0001C17.4476 14.0001 16.9998 14.4478 16.9998 15.0001C16.9998 15.5524 17.4476 16.0001 17.9999 16.0001Z" fill="#374957"/>
<path d="M14 11.9999C14.5523 11.9999 15 11.5522 15 10.9999C15 10.4476 14.5523 9.99988 14 9.99988C13.4477 9.99988 13 10.4476 13 10.9999C13 11.5522 13.4477 11.9999 14 11.9999Z" fill="#374957"/>
</g>
<defs>
<filter id="filter0_d_403_3605" x="0" y="0" width="32" height="32" filterUnits="userSpaceOnUse" color-interpolation-filters="sRGB">
<feFlood flood-opacity="0" result="BackgroundImageFix"/>
<feColorMatrix in="SourceAlpha" type="matrix" values="0 0 0 0 0 0 0 0 0 0 0 0 0 0 0 0 0 0 127 0" result="hardAlpha"/>
<feOffset dy="4"/>
<feGaussianBlur stdDeviation="2"/>
<feComposite in2="hardAlpha" operator="out"/>
<feColorMatrix type="matrix" values="0 0 0 0 0 0 0 0 0 0 0 0 0 0 0 0 0 0 0.25 0"/>
<feBlend mode="normal" in2="BackgroundImageFix" result="effect1_dropShadow_403_3605"/>
<feBlend mode="normal" in="SourceGraphic" in2="effect1_dropShadow_403_3605" result="shape"/>
</filter>
<clipPath id="clip0_403_3605">
<rect width="24" height="24" fill="white" transform="translate(4)"/>
</clipPath>
</defs>
</svg>
