<svg width="32" height="32" viewBox="0 0 32 32" fill="none" xmlns="http://www.w3.org/2000/svg">
<g clip-path="url(#clip0_403_3556)" filter="url(#filter0_d_403_3556)">
<path d="M25.159 8.016C24.1568 5.69436 22.3056 3.84321 19.984 2.841C19.9434 2.07598 19.6117 1.35548 19.0568 0.827234C18.502 0.298983 17.7661 0.0030094 17 0H15C14.2339 0.0030094 13.498 0.298983 12.9432 0.827234C12.3883 1.35548 12.0566 2.07598 12.016 2.841C9.69453 3.84346 7.84346 5.69453 6.841 8.016C6.07598 8.0566 5.35548 8.38832 4.82723 8.94316C4.29898 9.498 4.00301 10.2339 4 11V14H6.2C6.51374 15.5449 7.18944 16.9933 8.17162 18.2263C9.15379 19.4593 10.4144 20.4418 11.85 21.093L10.861 24H12.974L13.744 21.735C15.2272 22.089 16.7728 22.089 18.256 21.735L19.027 24H21.139L20.15 21.093C21.5854 20.4415 22.8459 19.4589 23.828 18.226C24.8101 16.993 25.486 15.5447 25.8 14H28V11C27.997 10.2339 27.701 9.498 27.1728 8.94316C26.6445 8.38832 25.924 8.0566 25.159 8.016V8.016ZM14 3C14 2.73478 14.1054 2.48043 14.2929 2.29289C14.4804 2.10536 14.7348 2 15 2H17C17.2652 2 17.5196 2.10536 17.7071 2.29289C17.8946 2.48043 18 2.73478 18 3V4H14V3ZM6 11C6 10.7348 6.10536 10.4804 6.29289 10.2929C6.48043 10.1054 6.73478 10 7 10H9C9.26522 10 9.51957 10.1054 9.70711 10.2929C9.89464 10.4804 10 10.7348 10 11V12H6V11ZM16 20C15.4595 19.9988 14.9204 19.9432 14.391 19.834L16 15.1L17.609 19.83C17.0797 19.9405 16.5407 19.9975 16 20V20ZM19.5 19.194L16.944 11.678C16.8769 11.4801 16.7494 11.3082 16.5796 11.1865C16.4097 11.0647 16.206 10.9992 15.997 10.9992C15.788 10.9992 15.5843 11.0647 15.4144 11.1865C15.2446 11.3082 15.1171 11.4801 15.05 11.678L12.5 19.194C11.4584 18.6882 10.5396 17.9615 9.80732 17.0645C9.07509 16.1675 8.54707 15.1218 8.26 14H12V11C11.9982 10.2196 11.6924 9.47056 11.1474 8.91194C10.6024 8.35332 9.86114 8.02907 9.081 8.008C9.78553 6.79815 10.7911 5.79119 12 5.085V6H20V5.085C21.2086 5.79121 22.2139 6.7982 22.918 8.008C22.138 8.02933 21.3971 8.35369 20.8523 8.91228C20.3075 9.47088 20.0018 10.2197 20 11V14H23.74C23.4526 15.1216 22.9245 16.1672 22.1923 17.0642C21.4601 17.9611 20.5414 18.6879 19.5 19.194V19.194ZM26 12H22V11C22 10.7348 22.1054 10.4804 22.2929 10.2929C22.4804 10.1054 22.7348 10 23 10H25C25.2652 10 25.5196 10.1054 25.7071 10.2929C25.8946 10.4804 26 10.7348 26 11V12Z" fill="#374957"/>
</g>
<defs>
<filter id="filter0_d_403_3556" x="0" y="0" width="32" height="32" filterUnits="userSpaceOnUse" color-interpolation-filters="sRGB">
<feFlood flood-opacity="0" result="BackgroundImageFix"/>
<feColorMatrix in="SourceAlpha" type="matrix" values="0 0 0 0 0 0 0 0 0 0 0 0 0 0 0 0 0 0 127 0" result="hardAlpha"/>
<feOffset dy="4"/>
<feGaussianBlur stdDeviation="2"/>
<feComposite in2="hardAlpha" operator="out"/>
<feColorMatrix type="matrix" values="0 0 0 0 0 0 0 0 0 0 0 0 0 0 0 0 0 0 0.25 0"/>
<feBlend mode="normal" in2="BackgroundImageFix" result="effect1_dropShadow_403_3556"/>
<feBlend mode="normal" in="SourceGraphic" in2="effect1_dropShadow_403_3556" result="shape"/>
</filter>
<clipPath id="clip0_403_3556">
<rect width="24" height="24" fill="white" transform="translate(4)"/>
</clipPath>
</defs>
</svg>
