<svg width="24" height="24" viewBox="0 0 24 24" fill="none" xmlns="http://www.w3.org/2000/svg">
<g clip-path="url(#clip0_403_3484)">
<path d="M14.12 1.62665C13.4886 1.21771 12.7523 1.00012 12 1.00012C11.2477 1.00012 10.5114 1.21771 9.88 1.62665L0 7.99965L4 10.5797V20.4137L4.293 20.7067C4.387 20.7997 6.647 22.9997 12 22.9997C17.353 22.9997 19.613 20.7997 19.707 20.7067L20 20.4137V10.5797L22 9.28965V19.9997H24V7.99965L14.12 1.62665ZM18 19.5157C16.1928 20.5978 14.1033 21.1146 12 20.9997C9.89685 21.1149 7.8073 20.5984 6 19.5167V11.8697L9.88 14.3697C10.5111 14.7796 11.2475 14.9977 12 14.9977C12.7525 14.9977 13.4889 14.7796 14.12 14.3697L18 11.8697V19.5157ZM13.036 12.6917C12.7277 12.8922 12.3678 12.9989 12 12.9989C11.6322 12.9989 11.2723 12.8922 10.964 12.6917L3.69 7.99965L10.964 3.30765C11.2723 3.10711 11.6322 3.00036 12 3.00036C12.3678 3.00036 12.7277 3.10711 13.036 3.30765L20.31 7.99965L13.036 12.6917Z" fill="#374957"/>
</g>
<defs>
<clipPath id="clip0_403_3484">
<rect width="24" height="24" fill="white"/>
</clipPath>
</defs>
</svg>
