<svg width="24" height="24" viewBox="0 0 24 24" fill="none" xmlns="http://www.w3.org/2000/svg">
<g clip-path="url(#clip0_403_3525)">
<path d="M22.767 8.39197L15.535 1.46397C14.6 0.529194 13.3327 0.00282241 12.0106 1.13172e-05C10.6884 -0.00279978 9.419 0.518179 8.48 1.44897L1.233 8.39197C0.844071 8.76588 0.534448 9.21431 0.322607 9.71049C0.110766 10.2067 0.00104801 10.7405 0 11.28L0 24H24V11.28C23.999 10.7405 23.8892 10.2067 23.6774 9.71049C23.4656 9.21431 23.1559 8.76588 22.767 8.39197V8.39197ZM9.879 2.87797C10.4522 2.3279 11.2168 2.02209 12.0112 2.02508C12.8057 2.02806 13.5679 2.33961 14.137 2.89397L20.885 9.35797L14.121 16.122C13.5493 16.6669 12.7898 16.9709 12 16.9709C11.2102 16.9709 10.4507 16.6669 9.879 16.122L3.115 9.35797L9.879 2.87797ZM22 22H2V11.28C2 11.216 2.013 11.154 2.019 11.09L8.465 17.536C9.40264 18.4733 10.6742 18.9999 12 18.9999C13.3258 18.9999 14.5974 18.4733 15.535 17.536L21.981 11.09C21.987 11.154 22 11.216 22 11.28V22Z" fill="#374957"/>
</g>
<defs>
<clipPath id="clip0_403_3525">
<rect width="24" height="24" fill="white"/>
</clipPath>
</defs>
</svg>
