<svg width="32" height="32" viewBox="0 0 32 32" fill="none" xmlns="http://www.w3.org/2000/svg">
<g clip-path="url(#clip0_403_3663)" filter="url(#filter0_d_403_3663)">
<path d="M16 0C13.6266 0 11.3066 0.703788 9.33316 2.02236C7.35977 3.34094 5.8217 5.21509 4.91345 7.4078C4.0052 9.60051 3.76756 12.0133 4.23058 14.3411C4.6936 16.6689 5.83649 18.8071 7.51472 20.4853C9.19295 22.1635 11.3312 23.3064 13.6589 23.7694C15.9867 24.2324 18.3995 23.9948 20.5922 23.0866C22.7849 22.1783 24.6591 20.6402 25.9776 18.6668C27.2962 16.6935 28 14.3734 28 12C27.9966 8.81846 26.7312 5.76821 24.4815 3.51852C22.2318 1.26883 19.1815 0.00344108 16 0V0ZM16 22C14.0222 22 12.0888 21.4135 10.4443 20.3147C8.79981 19.2159 7.51809 17.6541 6.76121 15.8268C6.00433 13.9996 5.8063 11.9889 6.19215 10.0491C6.578 8.10929 7.53041 6.32746 8.92894 4.92893C10.3275 3.53041 12.1093 2.578 14.0491 2.19215C15.9889 1.8063 17.9996 2.00433 19.8268 2.76121C21.6541 3.51808 23.2159 4.79981 24.3147 6.4443C25.4135 8.08879 26 10.0222 26 12C25.9971 14.6513 24.9426 17.1931 23.0679 19.0679C21.1931 20.9426 18.6513 21.9971 16 22V22ZM16 7C15.2932 6.99866 14.6087 7.24752 14.0678 7.7025C13.5268 8.15748 13.1644 8.78922 13.0446 9.48582C12.9248 10.1824 13.0555 10.8989 13.4134 11.5085C13.7713 12.118 14.3333 12.5812 15 12.816V17H17V12.816C17.6667 12.5812 18.2288 12.118 18.5866 11.5085C18.9445 10.8989 19.0752 10.1824 18.9554 9.48582C18.8356 8.78922 18.4732 8.15748 17.9322 7.7025C17.3913 7.24752 16.7068 6.99866 16 7V7ZM16 11C15.8022 11 15.6089 10.9414 15.4444 10.8315C15.28 10.7216 15.1518 10.5654 15.0761 10.3827C15.0004 10.2 14.9806 9.99889 15.0192 9.80491C15.0578 9.61093 15.153 9.43275 15.2929 9.29289C15.4328 9.15304 15.6109 9.0578 15.8049 9.01922C15.9989 8.98063 16.2 9.00043 16.3827 9.07612C16.5654 9.15181 16.7216 9.27998 16.8315 9.44443C16.9414 9.60888 17 9.80222 17 10C17 10.2652 16.8946 10.5196 16.7071 10.7071C16.5196 10.8946 16.2652 11 16 11Z" fill="#374957"/>
</g>
<defs>
<filter id="filter0_d_403_3663" x="0" y="0" width="32" height="32" filterUnits="userSpaceOnUse" color-interpolation-filters="sRGB">
<feFlood flood-opacity="0" result="BackgroundImageFix"/>
<feColorMatrix in="SourceAlpha" type="matrix" values="0 0 0 0 0 0 0 0 0 0 0 0 0 0 0 0 0 0 127 0" result="hardAlpha"/>
<feOffset dy="4"/>
<feGaussianBlur stdDeviation="2"/>
<feComposite in2="hardAlpha" operator="out"/>
<feColorMatrix type="matrix" values="0 0 0 0 0 0 0 0 0 0 0 0 0 0 0 0 0 0 0.25 0"/>
<feBlend mode="normal" in2="BackgroundImageFix" result="effect1_dropShadow_403_3663"/>
<feBlend mode="normal" in="SourceGraphic" in2="effect1_dropShadow_403_3663" result="shape"/>
</filter>
<clipPath id="clip0_403_3663">
<rect width="24" height="24" fill="white" transform="translate(4)"/>
</clipPath>
</defs>
</svg>
