<svg width="24" height="24" viewBox="0 0 24 24" fill="none" xmlns="http://www.w3.org/2000/svg">
<path d="M12.0002 0.00695801C10.0217 0.00718134 8.08765 0.594327 6.4429 1.69409C4.79816 2.79386 3.51662 4.35681 2.76046 6.18517C2.0043 8.01352 1.80751 10.0251 2.19499 11.9653C2.58247 13.9056 3.5368 15.6873 4.93722 17.0849L9.96222 21.9999H5.00022V23.9999H19.0002V21.9999H14.0382L19.0712 17.0769C20.4694 15.6784 21.4215 13.8966 21.8071 11.957C22.1927 10.0174 21.9946 8.00698 21.2378 6.17994C20.481 4.35291 19.1994 2.79129 17.5552 1.69252C15.9109 0.593758 13.9778 0.00718254 12.0002 0.00695801V0.00695801ZM17.6652 15.6549L12.0002 21.1999L6.34322 15.6629C5.22478 14.5444 4.46301 13.1195 4.15419 11.5682C3.84536 10.0169 4.00333 8.40884 4.60815 6.94729C5.21296 5.48574 6.23746 4.23628 7.55218 3.35682C8.8669 2.47736 10.4128 2.00737 11.9946 2.00625C13.5763 2.00514 15.1229 2.47294 16.4389 3.35054C17.7548 4.22814 18.7811 5.47615 19.388 6.93685C19.9948 8.39754 20.1551 10.0054 19.8485 11.5571C19.5418 13.1088 18.7821 14.5349 17.6652 15.6549V15.6549ZM7.00022 6.38195V12.6179L12.0002 15.1179L17.0002 12.6179V6.38195L12.0002 3.88195L7.00022 6.38195ZM15.0002 11.3819L12.0002 12.8819L9.00022 11.3819V7.61795L9.11822 7.55895L12.0002 8.99995L14.8822 7.55895L15.0002 7.61795V11.3819Z" fill="#374957"/>
</svg>
