<svg width="24" height="24" viewBox="0 0 24 24" fill="none" xmlns="http://www.w3.org/2000/svg">
<g clip-path="url(#clip0_403_3727)">
<path d="M17.2422 6.19199C18.4857 4.73295 19.1123 2.84709 18.9892 0.933995L18.9252 0.0749944L18.0662 0.0109944C16.1523 -0.113401 14.2654 0.514126 12.8072 1.75999C12.5944 1.97568 12.4013 2.20995 12.2302 2.45999C11.9524 1.62931 11.6045 0.823744 11.1902 0.0519944L9.43523 1.00999C10.2654 2.55691 10.7813 4.25281 10.9532 5.99999H8.50023C6.18113 6.07086 3.98459 7.05773 2.39149 8.74453C0.798404 10.4313 -0.0614345 12.6806 0.000225145 15C-0.106775 21.331 6.41722 25.953 12.0002 23.2C17.5842 25.952 24.1072 21.331 24.0002 15C24.0386 12.9833 23.3907 11.0134 22.1629 9.41312C20.9351 7.81283 19.2001 6.67708 17.2422 6.19199V6.19199ZM14.2212 3.17399C14.9839 2.50467 15.9466 2.10632 16.9592 2.04099C16.8939 3.05365 16.4956 4.01628 15.8262 4.77899C15.052 5.45551 14.0802 5.8644 13.0552 5.945C13.1358 4.91998 13.5447 3.94826 14.2212 3.17399V3.17399ZM15.5002 22C14.4447 21.9998 13.4075 21.724 12.4912 21.2L12.0002 20.924L11.5092 21.202C7.20022 23.7 1.90723 20.061 2.00023 15C1.93856 13.211 2.5877 11.4704 3.80573 10.1587C5.02376 8.84695 6.71159 8.07083 8.50023 8H15.5002C24.1002 8.321 24.1002 21.682 15.5002 22Z" fill="#374957"/>
</g>
<defs>
<clipPath id="clip0_403_3727">
<rect width="24" height="24" fill="white"/>
</clipPath>
</defs>
</svg>
