<svg width="24" height="24" viewBox="0 0 24 24" fill="none" xmlns="http://www.w3.org/2000/svg">
<g clip-path="url(#clip0_403_3627)">
<path d="M19.0251 22.0259V18.5449L18.6501 18.2449C16.1001 16.1999 15.1001 13.9369 15.0381 10.0259H17.0251V8.02592H15.4691C15.8295 7.42076 16.0215 6.73024 16.0251 6.02592C16.0251 4.75092 14.9341 2.90292 13.7181 0.960917C13.538 0.674803 13.2883 0.439024 12.9923 0.275612C12.6963 0.1122 12.3637 0.0264893 12.0256 0.0264893C11.6875 0.0264893 11.355 0.1122 11.059 0.275612C10.763 0.439024 10.5133 0.674803 10.3331 0.960917C9.11715 2.89992 8.02615 4.75092 8.02615 6.02592C8.03029 6.73017 8.22222 7.42057 8.58215 8.02592H7.02615V10.0259H9.01315C8.94815 13.9369 7.95415 16.1999 5.40015 18.2449L5.02515 18.5449V22.0259H3.02515V24.0259H21.0251V22.0259H19.0251ZM10.0251 6.02592C10.0251 5.21992 11.4251 2.97892 12.0251 2.02592C12.6251 2.98192 14.0251 5.22592 14.0251 6.02592C14.0251 6.55635 13.8144 7.06506 13.4394 7.44013C13.0643 7.8152 12.5556 8.02592 12.0251 8.02592C11.4947 8.02592 10.986 7.8152 10.6109 7.44013C10.2359 7.06506 10.0251 6.55635 10.0251 6.02592ZM13.0251 10.0259C13.0661 13.0649 13.5901 15.6749 15.5601 18.0259H8.48615C10.4561 15.6749 10.9801 13.0649 11.0211 10.0259H13.0251ZM7.02515 20.0259H17.0251V22.0259H7.02515V20.0259Z" fill="#374957"/>
</g>
<defs>
<clipPath id="clip0_403_3627">
<rect width="24" height="24" fill="white"/>
</clipPath>
</defs>
</svg>
