<svg width="24" height="24" viewBox="0 0 24 24" fill="none" xmlns="http://www.w3.org/2000/svg">
<g clip-path="url(#clip0_403_3604)">
<path d="M3 21.976C2.73478 21.976 2.48043 21.8706 2.29289 21.6831C2.10536 21.4956 2 21.2412 2 20.976V0H0V20.976C0 21.7716 0.31607 22.5347 0.87868 23.0973C1.44129 23.6599 2.20435 23.976 3 23.976H24V21.976H3Z" fill="#374957"/>
<path d="M7.00015 12H5.00015V19H7.00015V12Z" fill="#374957"/>
<path d="M11.9999 9.99988H9.99985V18.9999H11.9999V9.99988Z" fill="#374957"/>
<path d="M17 12.9999H15V18.9999H17V12.9999Z" fill="#374957"/>
<path d="M22.0002 9H20.0002V19H22.0002V9Z" fill="#374957"/>
<path d="M10.9998 4.41421L15.9998 9.41421L23.7068 1.70721L22.2928 0.293213L15.9998 6.58621L10.9998 1.58621L5.29285 7.29321L6.70685 8.70721L10.9998 4.41421Z" fill="#374957"/>
</g>
<defs>
<clipPath id="clip0_403_3604">
<rect width="24" height="24" fill="white"/>
</clipPath>
</defs>
</svg>
