<svg width="24" height="24" viewBox="0 0 24 24" fill="none" xmlns="http://www.w3.org/2000/svg">
<g clip-path="url(#clip0_403_3526)">
<path d="M15.021 6.99971L15.357 4.95871C15.4451 4.41989 15.3867 3.8673 15.1878 3.35883C14.9889 2.85036 14.657 2.40473 14.2267 2.06864C13.7965 1.73255 13.2837 1.51836 12.7422 1.44853C12.2008 1.37869 11.6505 1.45578 11.149 1.67171C10.456 1.98272 9.89922 2.53449 9.582 3.22471L7.717 6.99971H3C2.20435 6.99971 1.44129 7.31578 0.87868 7.87839C0.316071 8.441 0 9.20406 0 9.99971L0 18.9997C0 19.7954 0.316071 20.5584 0.87868 21.121C1.44129 21.6836 2.20435 21.9997 3 21.9997H22.018L24 10.9627L24.016 6.99971H15.021ZM2 18.9997V9.99971C2 9.73449 2.10536 9.48014 2.29289 9.2926C2.48043 9.10507 2.73478 8.99971 3 8.99971H7V19.9997H3C2.73478 19.9997 2.48043 19.8944 2.29289 19.7068C2.10536 19.5193 2 19.2649 2 18.9997ZM22 10.6997L20.33 19.9997H9V8.90871L11.419 4.00871C11.5009 3.8605 11.6168 3.73384 11.7572 3.63916C11.8976 3.54448 12.0585 3.48447 12.2266 3.46406C12.3947 3.44366 12.5652 3.46345 12.7242 3.5218C12.8832 3.58015 13.026 3.6754 13.141 3.79971C13.2392 3.91396 13.3111 4.04848 13.3513 4.19368C13.3916 4.33888 13.3994 4.49118 13.374 4.63971L12.655 8.99971H22V10.6997Z" fill="#374957"/>
</g>
<defs>
<clipPath id="clip0_403_3526">
<rect width="24" height="24" fill="white"/>
</clipPath>
</defs>
</svg>
