<svg width="24" height="24" viewBox="0 0 24 24" fill="none" xmlns="http://www.w3.org/2000/svg">
<g clip-path="url(#clip0_403_3350)">
<path d="M17.0001 7.964V4H15.0001V2H20.0001V0H12.0001C11.2044 0 10.4414 0.31607 9.87875 0.87868C9.31614 1.44129 9.00007 2.20435 9.00007 3V4H7.00007V7.964C5.49838 8.70167 4.23374 9.84579 3.34987 11.2663C2.466 12.6869 1.99835 14.3269 2.00007 16V24H22.0001V16C22.0018 14.3269 21.5341 12.6869 20.6503 11.2663C19.7664 9.84579 18.5017 8.70167 17.0001 7.964V7.964ZM11.0001 3C11.0001 2.73478 11.1054 2.48043 11.293 2.29289C11.4805 2.10536 11.7348 2 12.0001 2H13.0001V4H11.0001V3ZM9.00007 6H15.0001V8H9.00007V6ZM20.0001 22H4.00007V16C3.99707 14.7915 4.30837 13.6029 4.90339 12.551C5.49841 11.4991 6.35672 10.62 7.39407 10H16.6061C17.6434 10.62 18.5017 11.4991 19.0967 12.551C19.6918 13.6029 20.0031 14.7915 20.0001 16V22ZM6.00007 20H18.0001V14H6.00007V20ZM8.00007 16H16.0001V18H8.00007V16Z" fill="#374957"/>
</g>
<defs>
<clipPath id="clip0_403_3350">
<rect width="24" height="24" fill="white"/>
</clipPath>
</defs>
</svg>
