<svg width="24" height="24" viewBox="0 0 24 24" fill="none" xmlns="http://www.w3.org/2000/svg">
<g clip-path="url(#clip0_403_3520)">
<path d="M23.115 0.885851C22.5393 0.335474 21.7735 0.0283203 20.977 0.0283203C20.1805 0.0283203 19.4147 0.335474 18.839 0.885851L15.432 4.29285C14.7954 4.93523 13.9323 5.30246 13.028 5.31573C12.1237 5.329 11.2502 4.98726 10.595 4.36385L9.2 5.79985L11.225 7.82484L2.025 17.0248C1.48972 17.5544 1.1421 18.2444 1.03506 18.9897C0.928012 19.7351 1.0674 20.495 1.432 21.1538L0 22.5858L1.414 23.9998L2.846 22.5678C3.50483 22.9324 4.26475 23.0718 5.01009 22.9648C5.75544 22.8577 6.44541 22.5101 6.975 21.9748L16.175 12.7748L18.2 14.7998L19.634 13.4068C19.0103 12.7517 18.6684 11.8782 18.6817 10.9738C18.695 10.0695 19.0624 9.20634 19.705 8.56984L23.112 5.16285C23.6789 4.59593 23.9973 3.82706 23.9973 3.02535C23.9973 2.22364 23.6789 1.45477 23.112 0.887851L23.115 0.885851ZM5.56 20.5608C5.27427 20.8335 4.89448 20.9857 4.4995 20.9857C4.10452 20.9857 3.72473 20.8335 3.439 20.5608C3.15779 20.2795 2.99982 19.8981 2.99982 19.5003C2.99982 19.1026 3.15779 18.7211 3.439 18.4398L12.639 9.23984L14.76 11.3608L5.56 20.5608ZM21.7 3.74685L18.293 7.15384C17.3959 8.0443 16.8353 9.21835 16.707 10.4758L13.524 7.29284C14.7815 7.16449 15.9555 6.60398 16.846 5.70684L20.254 2.29985C20.4485 2.11344 20.7076 2.00937 20.977 2.00937C21.2464 2.00937 21.5055 2.11344 21.7 2.29985C21.7952 2.39478 21.8706 2.50755 21.9222 2.6317C21.9737 2.75585 22.0002 2.88894 22.0002 3.02335C22.0002 3.15776 21.9737 3.29085 21.9222 3.415C21.8706 3.53915 21.7952 3.65192 21.7 3.74685V3.74685Z" fill="#374957"/>
</g>
<defs>
<clipPath id="clip0_403_3520">
<rect width="24" height="24" fill="white"/>
</clipPath>
</defs>
</svg>
