<svg width="32" height="31" viewBox="0 0 32 31" fill="none" xmlns="http://www.w3.org/2000/svg">
<g clip-path="url(#clip0_403_3776)" filter="url(#filter0_d_403_3776)">
<path d="M27.8208 11.181C26.8547 9.08568 25.4396 7.22849 23.6758 5.74097L26.7078 2.70897L25.2928 1.29297L21.9998 4.58297C20.1772 3.52869 18.1053 2.98207 15.9998 2.99997C8.49981 2.99997 5.05681 9.26097 4.17881 11.181C4.06095 11.4383 3.99994 11.718 3.99994 12.001C3.99994 12.284 4.06095 12.5637 4.17881 12.821C5.14495 14.9163 6.56003 16.7734 8.32381 18.261L5.29281 21.293L6.70681 22.707L9.99981 19.417C11.8224 20.4712 13.8943 21.0179 15.9998 21C23.4998 21 26.9428 14.739 27.8208 12.819C27.9384 12.562 27.9993 12.2826 27.9993 12C27.9993 11.7173 27.9384 11.438 27.8208 11.181V11.181ZM5.99981 12.011C6.74981 10.366 9.69281 4.99997 15.9998 4.99997C17.5694 4.99079 19.1185 5.35697 20.5178 6.06797L18.7528 7.83297C17.7927 7.19557 16.6417 6.90996 15.495 7.02461C14.3484 7.13926 13.2767 7.64711 12.4618 8.46197C11.6469 9.27683 11.1391 10.3485 11.0245 11.4952C10.9098 12.6419 11.1954 13.7929 11.8328 14.753L9.75381 16.832C8.15418 15.5294 6.87068 13.881 5.99981 12.011V12.011ZM18.9998 12C18.9998 12.7956 18.6837 13.5587 18.1211 14.1213C17.5585 14.6839 16.7955 15 15.9998 15C15.5543 14.9982 15.115 14.8957 14.7148 14.7L18.6998 10.715C18.8955 11.1152 18.9981 11.5545 18.9998 12V12ZM12.9998 12C12.9998 11.2043 13.3159 10.4413 13.8785 9.87865C14.4411 9.31604 15.2042 8.99997 15.9998 8.99997C16.4453 9.00169 16.8846 9.10426 17.2848 9.29997L13.2998 13.285C13.1041 12.8848 13.0015 12.4455 12.9998 12ZM15.9998 19C14.4302 19.0091 12.8812 18.643 11.4818 17.932L13.2468 16.167C14.2069 16.8044 15.3579 17.09 16.5046 16.9753C17.6513 16.8607 18.7229 16.3528 19.5378 15.538C20.3527 14.7231 20.8605 13.6514 20.9752 12.5047C21.0898 11.3581 20.8042 10.207 20.1668 9.24697L22.2448 7.16897C23.8476 8.47278 25.1318 10.125 25.9998 12C25.2358 13.657 22.2918 19 15.9998 19Z" fill="#374957"/>
</g>
<defs>
<filter id="filter0_d_403_3776" x="0" y="0" width="32" height="32" filterUnits="userSpaceOnUse" color-interpolation-filters="sRGB">
<feFlood flood-opacity="0" result="BackgroundImageFix"/>
<feColorMatrix in="SourceAlpha" type="matrix" values="0 0 0 0 0 0 0 0 0 0 0 0 0 0 0 0 0 0 127 0" result="hardAlpha"/>
<feOffset dy="4"/>
<feGaussianBlur stdDeviation="2"/>
<feComposite in2="hardAlpha" operator="out"/>
<feColorMatrix type="matrix" values="0 0 0 0 0 0 0 0 0 0 0 0 0 0 0 0 0 0 0.25 0"/>
<feBlend mode="normal" in2="BackgroundImageFix" result="effect1_dropShadow_403_3776"/>
<feBlend mode="normal" in="SourceGraphic" in2="effect1_dropShadow_403_3776" result="shape"/>
</filter>
<clipPath id="clip0_403_3776">
<rect width="24" height="24" fill="white" transform="translate(4)"/>
</clipPath>
</defs>
</svg>
