<svg width="24" height="24" viewBox="0 0 24 24" fill="none" xmlns="http://www.w3.org/2000/svg">
<g clip-path="url(#clip0_403_3730)">
<path d="M1.87815 5.12107L0.293152 3.53607L1.70715 2.12207L3.29315 3.70707C3.48352 3.8891 3.73676 3.99069 4.00015 3.99069C4.26354 3.99069 4.51678 3.8891 4.70715 3.70707L8.29315 0.12207L9.70715 1.53607L6.12115 5.12107C5.84257 5.3997 5.51183 5.62072 5.14782 5.77152C4.78381 5.92232 4.39366 5.99993 3.99965 5.99993C3.60564 5.99993 3.21549 5.92232 2.85148 5.77152C2.48747 5.62072 2.15673 5.3997 1.87815 5.12107V5.12107ZM12.0002 5.00007H24.0002V3.00007H12.0002V5.00007ZM4.00015 14.0001C4.39426 14.0012 4.78468 13.9241 5.14877 13.7732C5.51285 13.6223 5.84337 13.4006 6.12115 13.1211L9.70715 9.53607L8.29315 8.12207L4.70715 11.7071C4.51678 11.8891 4.26354 11.9907 4.00015 11.9907C3.73676 11.9907 3.48352 11.8891 3.29315 11.7071L1.70715 10.1221L0.293152 11.5361L1.87815 13.1211C2.15619 13.4006 2.48689 13.6222 2.85113 13.7731C3.21536 13.924 3.6059 14.0011 4.00015 14.0001V14.0001ZM12.0002 13.0001H24.0002V11.0001H12.0002V13.0001ZM4.00015 22.0001C4.39426 22.0012 4.78468 21.9241 5.14877 21.7732C5.51285 21.6223 5.84337 21.4006 6.12115 21.1211L9.70715 17.5361L8.29315 16.1221L4.70715 19.7071C4.51678 19.8891 4.26354 19.9907 4.00015 19.9907C3.73676 19.9907 3.48352 19.8891 3.29315 19.7071L1.70715 18.1221L0.293152 19.5361L1.87815 21.1211C2.15619 21.4006 2.48689 21.6222 2.85113 21.7731C3.21536 21.9239 3.6059 22.0011 4.00015 22.0001V22.0001ZM12.0002 21.0001H24.0002V19.0001H12.0002V21.0001Z" fill="#374957"/>
</g>
<defs>
<clipPath id="clip0_403_3730">
<rect width="24" height="24" fill="white"/>
</clipPath>
</defs>
</svg>
