<svg width="24" height="24" viewBox="0 0 24 24" fill="none" xmlns="http://www.w3.org/2000/svg">
<g clip-path="url(#clip0_403_3366)">
<path d="M24 13.9994C24 13.2037 23.6839 12.4407 23.1213 11.8781C22.5587 11.3155 21.7956 10.9994 21 10.9994H19V3.99939C19 3.20374 18.6839 2.44068 18.1213 1.87807C17.5587 1.31546 16.7956 0.99939 16 0.99939H3C2.20435 0.99939 1.44129 1.31546 0.87868 1.87807C0.31607 2.44068 0 3.20374 0 3.99939L0 18.9994H2.041C2.01527 19.1648 2.00157 19.332 2 19.4994C2 20.4276 2.36875 21.3179 3.02513 21.9743C3.6815 22.6306 4.57174 22.9994 5.5 22.9994C6.42826 22.9994 7.3185 22.6306 7.97487 21.9743C8.63125 21.3179 9 20.4276 9 19.4994C8.99843 19.332 8.98473 19.1648 8.959 18.9994H15.041C15.0153 19.1648 15.0016 19.332 15 19.4994C15 20.4276 15.3687 21.3179 16.0251 21.9743C16.6815 22.6306 17.5717 22.9994 18.5 22.9994C19.4283 22.9994 20.3185 22.6306 20.9749 21.9743C21.6313 21.3179 22 20.4276 22 19.4994C21.9984 19.332 21.9847 19.1648 21.959 18.9994H24V13.9994ZM13 12.9994V16.9994H10V6.99939H13V12.9994ZM2 10.9994V6.99939H4V10.9994H2ZM6 6.99939H8V10.9994H6V6.99939ZM15 6.99939H17V10.9994H15V6.99939ZM3 2.99939H16C16.2652 2.99939 16.5196 3.10475 16.7071 3.29228C16.8946 3.47982 17 3.73417 17 3.99939V4.99939H2V3.99939C2 3.73417 2.10536 3.47982 2.29289 3.29228C2.48043 3.10475 2.73478 2.99939 3 2.99939V2.99939ZM2 12.9994H8V16.9994H2V12.9994ZM7 19.4994C7 19.8972 6.84196 20.2787 6.56066 20.56C6.27936 20.8414 5.89782 20.9994 5.5 20.9994C5.10218 20.9994 4.72064 20.8414 4.43934 20.56C4.15804 20.2787 4 19.8972 4 19.4994C4.00044 19.3285 4.03195 19.159 4.093 18.9994H6.907C6.96805 19.159 6.99956 19.3285 7 19.4994V19.4994ZM20 19.4994C20 19.8972 19.842 20.2787 19.5607 20.56C19.2794 20.8414 18.8978 20.9994 18.5 20.9994C18.1022 20.9994 17.7206 20.8414 17.4393 20.56C17.158 20.2787 17 19.8972 17 19.4994C17.0004 19.3285 17.032 19.159 17.093 18.9994H19.907C19.968 19.159 19.9996 19.3285 20 19.4994V19.4994ZM22 16.9994H15V12.9994H21C21.2652 12.9994 21.5196 13.1047 21.7071 13.2923C21.8946 13.4798 22 13.7342 22 13.9994V16.9994Z" fill="#374957"/>
</g>
<defs>
<clipPath id="clip0_403_3366">
<rect width="24" height="24" fill="white"/>
</clipPath>
</defs>
</svg>
