<svg width="30" height="32" viewBox="0 0 30 32" fill="none" xmlns="http://www.w3.org/2000/svg">
<g clip-path="url(#clip0_403_3506)" filter="url(#filter0_d_403_3506)">
<path d="M15 16.0001C13.9391 16.0001 12.9217 15.5786 12.1716 14.8285C11.4214 14.0784 11 13.0609 11 12.0001C11 10.9392 11.4214 9.92179 12.1716 9.17165C12.9217 8.4215 13.9391 8.00007 15 8.00007C16.0609 8.00007 17.0783 8.4215 17.8284 9.17165C18.5786 9.92179 19 10.9392 19 12.0001C19 13.0609 18.5786 14.0784 17.8284 14.8285C17.0783 15.5786 16.0609 16.0001 15 16.0001ZM15 10.0001C14.4696 10.0001 13.9608 10.2108 13.5858 10.5859C13.2107 10.9609 13 11.4696 13 12.0001C13 12.5305 13.2107 13.0392 13.5858 13.4143C13.9608 13.7894 14.4696 14.0001 15 14.0001C15.5304 14.0001 16.0391 13.7894 16.4142 13.4143C16.7893 13.0392 17 12.5305 17 12.0001C17 11.4696 16.7893 10.9609 16.4142 10.5859C16.0391 10.2108 15.5304 10.0001 15 10.0001ZM15 24.0001C13.9008 23.9986 12.8325 23.6355 11.96 22.9668C11.0876 22.2982 10.4592 21.3611 10.172 20.3001C9.11986 20.5451 8.01669 20.4427 7.02759 20.0084C6.03849 19.574 5.21666 18.831 4.68513 17.8905C4.1536 16.9501 3.94094 15.8628 4.079 14.7914C4.21706 13.72 4.69841 12.7221 5.45099 11.9471C4.69641 11.1704 4.21439 10.1697 4.0774 9.09548C3.94042 8.02129 4.15588 6.93166 4.69138 5.99044C5.22689 5.04922 6.05349 4.30729 7.04689 3.87622C8.04028 3.44515 9.14678 3.34825 10.2 3.60007C10.5112 2.56923 11.146 1.66597 12.0105 1.02395C12.875 0.381936 13.9232 0.0352783 15 0.0352783C16.0768 0.0352783 17.125 0.381936 17.9895 1.02395C18.8539 1.66597 19.4888 2.56923 19.8 3.60007C20.8536 3.34757 21.9607 3.44413 22.9547 3.8752C23.9486 4.30627 24.7757 5.04854 25.3114 5.99028C25.847 6.93202 26.0623 8.02227 25.9248 9.09694C25.7873 10.1716 25.3045 11.1725 24.549 11.9491C25.3006 12.7242 25.7812 13.7219 25.9187 14.7928C26.0563 15.8638 25.8435 16.9505 25.3121 17.8904C24.7807 18.8304 23.9593 19.573 22.9708 20.0074C21.9823 20.4417 20.8797 20.5444 19.828 20.3001C19.5407 21.3611 18.9124 22.2982 18.0399 22.9668C17.1674 23.6355 16.0992 23.9986 15 24.0001V24.0001ZM12.057 17.1151L11.995 19.0851C12.0063 19.8814 12.3334 20.6406 12.9044 21.1957C13.4755 21.7508 14.2437 22.0563 15.04 22.0451C15.8363 22.0338 16.5955 21.7067 17.1506 21.1356C17.7057 20.5646 18.0113 19.7964 18 19.0001C18 19.0431 17.943 17.1151 17.943 17.1151L19.495 18.0251C20.1845 18.4131 21 18.5113 21.762 18.298C22.5239 18.0848 23.17 17.5776 23.558 16.8881C23.946 16.1985 24.0442 15.3831 23.831 14.6211C23.6177 13.8591 23.1105 13.2131 22.421 12.8251L20.807 11.9471L22.421 11.0681C22.7708 10.881 23.0797 10.626 23.3298 10.318C23.5798 10.0101 23.7658 9.6553 23.877 9.27452C23.9882 8.89375 24.0224 8.49461 23.9774 8.10049C23.9324 7.70637 23.8093 7.32517 23.6152 6.97924C23.421 6.6333 23.1598 6.32957 22.8469 6.08584C22.5339 5.8421 22.1754 5.66326 21.7925 5.55978C21.4096 5.4563 21.0098 5.43027 20.6167 5.48321C20.2235 5.53615 19.8449 5.66699 19.503 5.86807L18 6.74307V5.00007C18 4.20442 17.6839 3.44136 17.1213 2.87875C16.5587 2.31614 15.7956 2.00007 15 2.00007C14.2043 2.00007 13.4413 2.31614 12.8787 2.87875C12.3161 3.44136 12 4.20442 12 5.00007V6.73907L10.5 5.86807C10.158 5.66699 9.77943 5.53615 9.3863 5.48321C8.99316 5.43027 8.59342 5.4563 8.21047 5.55978C7.82752 5.66326 7.46907 5.8421 7.1561 6.08584C6.84313 6.32957 6.58194 6.6333 6.38782 6.97924C6.19369 7.32517 6.07054 7.70637 6.02557 8.10049C5.9806 8.49461 6.01472 8.89375 6.12593 9.27452C6.23714 9.6553 6.4232 10.0101 6.67322 10.318C6.92324 10.626 7.23219 10.881 7.58199 11.0681L9.19599 11.9471L7.58199 12.8251C6.89242 13.2131 6.38524 13.8591 6.17201 14.6211C6.06643 14.9984 6.0362 15.3928 6.08303 15.7817C6.12987 16.1707 6.25286 16.5466 6.44499 16.8881C6.63711 17.2295 6.8946 17.5298 7.20276 17.7717C7.51093 18.0136 7.86372 18.1925 8.24101 18.298C9.00297 18.5113 9.81842 18.4131 10.508 18.0251L12.057 17.1151Z" fill="#374957"/>
</g>
<defs>
<filter id="filter0_d_403_3506" x="-1" y="0" width="32" height="32" filterUnits="userSpaceOnUse" color-interpolation-filters="sRGB">
<feFlood flood-opacity="0" result="BackgroundImageFix"/>
<feColorMatrix in="SourceAlpha" type="matrix" values="0 0 0 0 0 0 0 0 0 0 0 0 0 0 0 0 0 0 127 0" result="hardAlpha"/>
<feOffset dy="4"/>
<feGaussianBlur stdDeviation="2"/>
<feComposite in2="hardAlpha" operator="out"/>
<feColorMatrix type="matrix" values="0 0 0 0 0 0 0 0 0 0 0 0 0 0 0 0 0 0 0.25 0"/>
<feBlend mode="normal" in2="BackgroundImageFix" result="effect1_dropShadow_403_3506"/>
<feBlend mode="normal" in="SourceGraphic" in2="effect1_dropShadow_403_3506" result="shape"/>
</filter>
<clipPath id="clip0_403_3506">
<rect width="24" height="24" fill="white" transform="translate(3)"/>
</clipPath>
</defs>
</svg>
