<svg width="24" height="24" viewBox="0 0 24 24" fill="none" xmlns="http://www.w3.org/2000/svg">
<g clip-path="url(#clip0_403_3380)">
<path d="M18.318 14.7177L23.268 9.76774C23.5002 9.53558 23.6844 9.25996 23.8101 8.9566C23.9358 8.65324 24.0005 8.3281 24.0005 7.99974C24.0005 7.67138 23.9358 7.34623 23.8101 7.04288C23.6844 6.73952 23.5002 6.46389 23.268 6.23174L18.318 1.28174L16.9 2.69974L21.2 6.99974H3.1C2.2981 6.9812 1.52154 7.28127 0.940479 7.83422C0.359413 8.38717 0.0212213 9.1479 0 9.94974L0 21.0497C0.0212213 21.8516 0.359413 22.6123 0.940479 23.1653C1.52154 23.7182 2.2981 24.0183 3.1 23.9997H22V21.9997H3.1C2.82854 22.018 2.56084 21.9284 2.35493 21.7506C2.14902 21.5728 2.02149 21.321 2 21.0497V9.94974C2.02149 9.67852 2.14902 9.42669 2.35493 9.24886C2.56084 9.07103 2.82854 8.98152 3.1 8.99974H21.207L16.907 13.2997L18.318 14.7177Z" fill="#374957"/>
</g>
<defs>
<clipPath id="clip0_403_3380">
<rect width="24" height="24" fill="white"/>
</clipPath>
</defs>
</svg>
