<svg width="24" height="24" viewBox="0 0 24 24" fill="none" xmlns="http://www.w3.org/2000/svg">
<g clip-path="url(#clip0_403_3603)">
<path d="M9.50015 11.0001C10.3286 11.0001 11.0002 10.3285 11.0002 9.50012C11.0002 8.67169 10.3286 8.00012 9.50015 8.00012C8.67173 8.00012 8.00015 8.67169 8.00015 9.50012C8.00015 10.3285 8.67173 11.0001 9.50015 11.0001Z" fill="#374957"/>
<path d="M18.5002 3C19.3286 3 20.0002 2.32843 20.0002 1.5C20.0002 0.671573 19.3286 0 18.5002 0C17.6717 0 17.0002 0.671573 17.0002 1.5C17.0002 2.32843 17.6717 3 18.5002 3Z" fill="#374957"/>
<path d="M21.5002 8.00012C22.3286 8.00012 23.0002 7.32855 23.0002 6.50012C23.0002 5.67169 22.3286 5.00012 21.5002 5.00012C20.6718 5.00012 20.0002 5.67169 20.0002 6.50012C20.0002 7.32855 20.6718 8.00012 21.5002 8.00012Z" fill="#374957"/>
<path d="M9.50015 15.9999C10.3286 15.9999 11.0002 15.3283 11.0002 14.4999C11.0002 13.6715 10.3286 12.9999 9.50015 12.9999C8.67173 12.9999 8.00015 13.6715 8.00015 14.4999C8.00015 15.3283 8.67173 15.9999 9.50015 15.9999Z" fill="#374957"/>
<path d="M14.4998 15.9999C15.3283 15.9999 15.9998 15.3283 15.9998 14.4999C15.9998 13.6715 15.3283 12.9999 14.4998 12.9999C13.6714 12.9999 12.9998 13.6715 12.9998 14.4999C12.9998 15.3283 13.6714 15.9999 14.4998 15.9999Z" fill="#374957"/>
<path d="M12 24C8.8174 24 5.76516 22.7357 3.51472 20.4853C1.26428 18.2348 0 15.1826 0 12C0 8.8174 1.26428 5.76516 3.51472 3.51472C5.76516 1.26428 8.8174 0 12 0C12.387 0 12.769 0.021 13.146 0.057L13.97 0.134L14.048 0.958C14.2707 3.26786 15.2899 5.42835 16.9308 7.06924C18.5717 8.71013 20.7321 9.72926 23.042 9.952L23.866 10.03L23.943 10.854C23.979 11.231 24 11.613 24 12C23.9966 15.1815 22.7312 18.2318 20.4815 20.4815C18.2318 22.7312 15.1815 23.9966 12 24ZM12 2C10.0222 2 8.08879 2.58649 6.4443 3.6853C4.79981 4.78412 3.51808 6.3459 2.7612 8.17317C2.00433 10.0004 1.8063 12.0111 2.19215 13.9509C2.578 15.8907 3.53041 17.6725 4.92893 19.0711C6.32746 20.4696 8.10929 21.422 10.0491 21.8079C11.9889 22.1937 13.9996 21.9957 15.8268 21.2388C17.6541 20.4819 19.2159 19.2002 20.3147 17.5557C21.4135 15.9112 22 13.9778 22 12C22 11.943 22 11.887 22 11.83C19.5442 11.4136 17.2788 10.2437 15.5175 8.48247C13.7563 6.72121 12.5864 4.45575 12.17 2H12Z" fill="#374957"/>
</g>
<defs>
<clipPath id="clip0_403_3603">
<rect width="24" height="24" fill="white"/>
</clipPath>
</defs>
</svg>
