<svg width="24" height="24" viewBox="0 0 24 24" fill="none" xmlns="http://www.w3.org/2000/svg">
<g clip-path="url(#clip0_403_3478)">
<path d="M19.3332 14.6676C18.5771 14.6682 17.8325 14.8528 17.1637 15.2054C16.4949 15.558 15.9219 16.0681 15.4942 16.6916L8.98518 13.7526C9.44749 12.6362 9.44929 11.3822 8.99018 10.2646L15.4902 7.31055C16.124 8.22731 17.0655 8.88652 18.1438 9.1686C19.222 9.45068 20.3657 9.33696 21.3673 8.84805C22.3689 8.35915 23.1621 7.52745 23.603 6.50382C24.0439 5.48019 24.1034 4.33242 23.7705 3.26873C23.4377 2.20503 22.7347 1.29585 21.7889 0.706108C20.8432 0.116367 19.7174 -0.114875 18.6157 0.0543287C17.5141 0.223532 16.5096 0.781974 15.7844 1.62836C15.0592 2.47474 14.6614 3.553 14.6632 4.66755C14.6674 4.93135 14.6942 5.19431 14.7432 5.45355L7.83318 8.59355C7.16952 7.97177 6.33868 7.55739 5.44275 7.40132C4.54682 7.24524 3.6248 7.35427 2.78999 7.71501C1.95517 8.07575 1.2439 8.67249 0.743573 9.43192C0.243244 10.1913 -0.0243578 11.0804 -0.0263559 11.9898C-0.0283541 12.8992 0.235338 13.7894 0.732325 14.551C1.22931 15.3127 1.93795 15.9125 2.77117 16.2769C3.6044 16.6413 4.52592 16.7544 5.42253 16.6023C6.31915 16.4501 7.15179 16.0394 7.81818 15.4206L14.7462 18.5486C14.6981 18.8076 14.6716 19.0701 14.6672 19.3336C14.667 20.2567 14.9406 21.1591 15.4533 21.9268C15.966 22.6944 16.6949 23.2928 17.5477 23.6461C18.4006 23.9995 19.339 24.092 20.2444 23.9119C21.1498 23.7319 21.9815 23.2874 22.6342 22.6346C23.287 21.9819 23.7315 21.1502 23.9116 20.2448C24.0916 19.3394 23.9991 18.4009 23.6457 17.5481C23.2924 16.6953 22.694 15.9664 21.9264 15.4537C21.1588 14.9409 20.2563 14.6674 19.3332 14.6676ZM19.3332 2.00055C19.8607 2.00036 20.3764 2.1566 20.8152 2.44954C21.2539 2.74247 21.5959 3.15893 21.7979 3.64624C21.9999 4.13356 22.0528 4.66983 21.9501 5.18725C21.8473 5.70466 21.5933 6.17997 21.2204 6.55305C20.8474 6.92614 20.3722 7.18025 19.8549 7.28323C19.3375 7.38622 18.8012 7.33347 18.3138 7.13164C17.8264 6.92981 17.4098 6.58797 17.1167 6.14936C16.8236 5.71076 16.6672 5.19508 16.6672 4.66755C16.6677 3.96056 16.9487 3.28265 17.4486 2.78264C17.9484 2.28262 18.6262 2.00135 19.3332 2.00055ZM4.66718 14.6676C4.13965 14.6678 3.62392 14.5115 3.1852 14.2186C2.74648 13.9256 2.40449 13.5092 2.20248 13.0219C2.00046 12.5346 1.94751 11.9983 2.0503 11.4809C2.15309 10.9634 2.40702 10.4881 2.77997 10.1151C3.15292 9.74197 3.62813 9.48786 4.1455 9.38487C4.66288 9.28189 5.19917 9.33464 5.68656 9.53647C6.17395 9.7383 6.59054 10.0801 6.88364 10.5187C7.17673 10.9574 7.33318 11.473 7.33318 12.0006C7.33238 12.7075 7.05128 13.3852 6.55151 13.8852C6.05174 14.3851 5.37409 14.6665 4.66718 14.6676ZM19.3332 22.0006C18.8057 22.0006 18.2901 21.8441 17.8515 21.5511C17.4129 21.258 17.071 20.8415 16.8692 20.3542C16.6673 19.8668 16.6145 19.3306 16.7174 18.8132C16.8203 18.2959 17.0743 17.8207 17.4473 17.4477C17.8203 17.0747 18.2955 16.8207 18.8129 16.7178C19.3302 16.6149 19.8665 16.6677 20.3538 16.8696C20.8411 17.0714 21.2577 17.4133 21.5507 17.8518C21.8438 18.2904 22.0002 18.8061 22.0002 19.3336C21.9996 20.0407 21.7185 20.7188 21.2184 21.2188C20.7184 21.7189 20.0403 22 19.3332 22.0006Z" fill="#374957"/>
</g>
<defs>
<clipPath id="clip0_403_3478">
<rect width="24" height="24" fill="white"/>
</clipPath>
</defs>
</svg>
