<svg width="32" height="32" viewBox="0 0 32 32" fill="none" xmlns="http://www.w3.org/2000/svg">
<g clip-path="url(#clip0_403_3468)" filter="url(#filter0_d_403_3468)">
<path d="M26.8491 7.67998L17.8491 0.636984C17.3211 0.223397 16.6698 -0.00134277 15.9991 -0.00134277C15.3284 -0.00134277 14.6771 0.223397 14.1491 0.636984L5.14908 7.67998C4.78987 7.96 4.49956 8.31856 4.30039 8.72816C4.10122 9.13776 3.99849 9.58753 4.00008 10.043V24H28.0001V10.043C28.0014 9.58736 27.8984 9.13749 27.6989 8.72788C27.4994 8.31827 27.2087 7.9598 26.8491 7.67998V7.67998ZM26.0001 22H6.00008V10.043C5.99959 9.89102 6.03395 9.74097 6.10052 9.60437C6.16709 9.46776 6.2641 9.34824 6.38408 9.25498L15.3841 2.21198C15.56 2.07445 15.7768 1.99973 16.0001 1.99973C16.2233 1.99973 16.4402 2.07445 16.6161 2.21198L25.6161 9.25498C25.7361 9.34824 25.8331 9.46776 25.8996 9.60437C25.9662 9.74097 26.0006 9.89102 26.0001 10.043V22ZM16.0001 8.00598C15.0101 8.00579 14.0423 8.29951 13.2194 8.8499C12.3965 9.4003 11.7555 10.1826 11.3776 11.0977C10.9998 12.0127 10.9021 13.0194 11.0969 13.99C11.2918 14.9607 11.7704 15.8516 12.4721 16.55L16.0001 20L19.5361 16.542C20.2355 15.8427 20.7119 14.9517 20.9049 13.9817C21.0979 13.0117 20.9989 12.0062 20.6204 11.0924C20.2418 10.1787 19.6008 9.39773 18.7784 8.84834C17.956 8.29894 16.9891 8.0058 16.0001 8.00598V8.00598ZM18.1291 15.12L16.0001 17.2L13.8781 15.128C13.4589 14.7087 13.1734 14.1747 13.0575 13.5933C12.9416 13.0119 13.0006 12.4092 13.2269 11.8613C13.4533 11.3134 13.837 10.8448 14.3294 10.5148C14.8219 10.1847 15.4011 10.008 15.9939 10.0069C16.5868 10.0057 17.1667 10.1803 17.6604 10.5085C18.1541 10.8367 18.5395 11.3038 18.7679 11.8509C18.9964 12.3979 19.0576 13.0004 18.9439 13.5822C18.8302 14.1641 18.5467 14.6992 18.1291 15.12V15.12ZM17.0001 13C17.0001 13.1978 16.9414 13.3911 16.8315 13.5556C16.7217 13.72 16.5655 13.8482 16.3828 13.9239C16.2 13.9996 15.999 14.0194 15.805 13.9808C15.611 13.9422 15.4328 13.8469 15.293 13.7071C15.1531 13.5672 15.0579 13.3891 15.0193 13.1951C14.9807 13.0011 15.0005 12.8 15.0762 12.6173C15.1519 12.4346 15.2801 12.2784 15.4445 12.1685C15.609 12.0586 15.8023 12 16.0001 12C16.2653 12 16.5196 12.1053 16.7072 12.2929C16.8947 12.4804 17.0001 12.7348 17.0001 13Z" fill="#374957"/>
</g>
<defs>
<filter id="filter0_d_403_3468" x="0" y="0" width="32" height="32" filterUnits="userSpaceOnUse" color-interpolation-filters="sRGB">
<feFlood flood-opacity="0" result="BackgroundImageFix"/>
<feColorMatrix in="SourceAlpha" type="matrix" values="0 0 0 0 0 0 0 0 0 0 0 0 0 0 0 0 0 0 127 0" result="hardAlpha"/>
<feOffset dy="4"/>
<feGaussianBlur stdDeviation="2"/>
<feComposite in2="hardAlpha" operator="out"/>
<feColorMatrix type="matrix" values="0 0 0 0 0 0 0 0 0 0 0 0 0 0 0 0 0 0 0.25 0"/>
<feBlend mode="normal" in2="BackgroundImageFix" result="effect1_dropShadow_403_3468"/>
<feBlend mode="normal" in="SourceGraphic" in2="effect1_dropShadow_403_3468" result="shape"/>
</filter>
<clipPath id="clip0_403_3468">
<rect width="24" height="24" fill="white" transform="translate(4)"/>
</clipPath>
</defs>
</svg>
