<svg width="32" height="32" viewBox="0 0 32 32" fill="none" xmlns="http://www.w3.org/2000/svg">
<g clip-path="url(#clip0_403_3437)" filter="url(#filter0_d_403_3437)">
<path d="M9.45439 9.65381C9.23337 7.54083 8.01341 6.31781 6.61841 6.31781V6.31983C6.53422 6.31973 6.45012 6.32404 6.36641 6.33281C4.86941 6.48679 3.80042 7.98079 4.03241 10.2198C4.25642 12.3618 5.55139 13.9998 6.97442 13.9998C7.03887 14 7.10333 13.9966 7.16741 13.9898C8.66741 13.8338 9.68839 11.8898 9.45439 9.65381ZM6.95839 11.9878C6.37381 11.4966 6.09275 10.8078 6.02141 10.0118C6.02141 9.50822 6.01662 9.01134 6.24041 8.56378C6.36476 8.32987 6.51641 8.32579 6.57439 8.31979L6.61859 8.31904C6.95558 8.31904 7.36437 8.89476 7.46539 9.86076C7.53458 10.6132 7.42794 11.3859 6.95839 11.9878Z" fill="#374957"/>
<path d="M12.4671 8.45002C12.5382 8.45002 12.6081 8.45002 12.6792 8.439C14.3262 8.26702 15.4521 6.13102 15.1952 3.669C14.9522 1.34602 13.6101 0 12.0762 0C11.984 9.375e-05 11.8918 0.0050625 11.8002 0.015C10.1522 0.186 8.97416 1.82902 9.23117 4.29202C9.47816 6.648 10.9002 8.45002 12.4671 8.45002ZM11.4912 2.36002C11.5919 2.1615 11.7851 2.02641 12.0062 2.00002C12.0295 1.99856 12.0529 1.99856 12.0762 2.00002C12.5402 2.00002 13.0761 2.64502 13.2062 3.87703C13.2996 4.59361 13.1872 5.32195 12.8822 5.97703C12.7002 6.32203 12.5172 6.44203 12.4672 6.44705C12.2102 6.44705 11.3832 5.63306 11.2202 4.08103C11.1159 3.49317 11.2113 2.88736 11.4912 2.36002Z" fill="#374957"/>
<path d="M19.3647 8.439C19.4357 8.44598 19.5066 8.45002 19.5767 8.45002C21.1417 8.45002 22.5667 6.65002 22.8127 4.29202C23.0697 1.82902 21.8917 0.186 20.2457 0.015C20.1537 0.0050625 20.0612 4.6875e-05 19.9687 0C18.4337 0 17.0917 1.34602 16.8487 3.669C16.5917 6.13102 17.7177 8.26898 19.3647 8.439ZM18.8387 3.876C18.9667 2.64502 19.5007 2.00002 19.9687 2.00002C19.9917 1.99852 20.0147 1.99852 20.0377 2.00002C20.2585 2.02617 20.4517 2.16089 20.5527 2.35903C20.8336 2.88605 20.9291 3.49219 20.8237 4.08005C20.6617 5.63203 19.8337 6.44606 19.5727 6.44606C19.5267 6.44606 19.3437 6.32105 19.1617 5.97605C18.8565 5.32097 18.7445 4.59248 18.8387 3.876Z" fill="#374957"/>
<path d="M16.0008 11C11.4588 11 7.00079 15.641 6.99479 20.369C6.87081 23.568 9.59481 24.727 12.8948 23.547C14.9066 22.861 17.089 22.861 19.1008 23.547C19.8759 23.8087 20.6837 23.9611 21.5008 24C24.3938 24 25.0008 22.025 25.0008 20.369C25.0008 15.641 20.5428 11 16.0008 11ZM16.0008 21C13.7468 20.643 8.77679 23.833 9.00081 20.369C9.00081 16.719 12.5338 13 16.0008 13C19.4678 13 23.0008 16.719 23.0008 20.369C23.2268 23.83 18.2658 20.647 16.0008 21Z" fill="#374957"/>
<path d="M25.9714 7.39073L25.9709 7.39269C25.889 7.37315 25.8062 7.35801 25.7227 7.34718C24.2306 7.15162 22.8457 8.35869 22.5549 10.5908C22.2786 12.7267 23.1607 14.6193 24.5454 14.9476C24.6081 14.9626 24.6715 14.9742 24.7355 14.9824C26.231 15.1767 27.673 13.5207 27.9612 11.291C28.2337 9.18407 27.3287 7.71257 25.9714 7.39073ZM25.9781 11.0336C25.8718 11.7816 25.5898 12.5089 24.994 12.9862C24.5386 12.3733 24.424 11.6383 24.5382 10.8473C24.6544 10.3574 24.7644 9.87276 25.0854 9.48894C25.2603 9.29005 25.4088 9.32104 25.4666 9.32858L25.5098 9.3381C25.8378 9.41582 26.1027 10.0703 25.9781 11.0336Z" fill="#374957"/>
</g>
<defs>
<filter id="filter0_d_403_3437" x="0" y="0" width="32" height="32" filterUnits="userSpaceOnUse" color-interpolation-filters="sRGB">
<feFlood flood-opacity="0" result="BackgroundImageFix"/>
<feColorMatrix in="SourceAlpha" type="matrix" values="0 0 0 0 0 0 0 0 0 0 0 0 0 0 0 0 0 0 127 0" result="hardAlpha"/>
<feOffset dy="4"/>
<feGaussianBlur stdDeviation="2"/>
<feComposite in2="hardAlpha" operator="out"/>
<feColorMatrix type="matrix" values="0 0 0 0 0 0 0 0 0 0 0 0 0 0 0 0 0 0 0.25 0"/>
<feBlend mode="normal" in2="BackgroundImageFix" result="effect1_dropShadow_403_3437"/>
<feBlend mode="normal" in="SourceGraphic" in2="effect1_dropShadow_403_3437" result="shape"/>
</filter>
<clipPath id="clip0_403_3437">
<rect width="24" height="24" fill="white" transform="translate(4)"/>
</clipPath>
</defs>
</svg>
