<svg width="24" height="24" viewBox="0 0 24 24" fill="none" xmlns="http://www.w3.org/2000/svg">
<g clip-path="url(#clip0_403_3495)">
<path d="M24 14.214L22 3H3C2.20435 3 1.44129 3.31607 0.87868 3.87868C0.31607 4.44129 0 5.20435 0 6L0 15C0 15.7956 0.31607 16.5587 0.87868 17.1213C1.44129 17.6839 2.20435 18 3 18H7.712L9.626 21.879C9.94876 22.5313 10.495 23.046 11.1652 23.3296C11.8355 23.6131 12.5852 23.6466 13.2781 23.424C13.971 23.2014 14.561 22.7375 14.9407 22.1166C15.3203 21.4958 15.4645 20.7592 15.347 20.041L15.011 18H24V14.214ZM2 15V6C2 5.73478 2.10536 5.48043 2.29289 5.29289C2.48043 5.10536 2.73478 5 3 5H7V16H3C2.73478 16 2.48043 15.8946 2.29289 15.7071C2.10536 15.5196 2 15.2652 2 15V15ZM22 16H12.655L13.374 20.365C13.3994 20.5135 13.3916 20.6658 13.3513 20.811C13.3111 20.9562 13.2392 21.0908 13.141 21.205C13.0257 21.329 12.8826 21.4239 12.7236 21.4819C12.5645 21.5398 12.3939 21.5593 12.2259 21.5386C12.0578 21.5179 11.8971 21.4577 11.7568 21.3628C11.6166 21.268 11.5008 21.1412 11.419 20.993L9 16.091V5H20.33L22 14.3V16Z" fill="#374957"/>
</g>
<defs>
<clipPath id="clip0_403_3495">
<rect width="24" height="24" fill="white"/>
</clipPath>
</defs>
</svg>
