<svg width="24" height="24" viewBox="0 0 24 24" fill="none" xmlns="http://www.w3.org/2000/svg">
<g clip-path="url(#clip0_403_3590)">
<path d="M21.9999 12C22.0077 14.3266 21.2068 16.5835 19.7342 18.3848C18.2616 20.186 16.2088 21.4195 13.9271 21.8742C11.6454 22.329 9.27662 21.9767 7.226 20.8776C5.17538 19.7786 3.57041 18.0011 2.68571 15.8493C1.80101 13.6975 1.69157 11.3051 2.37611 9.08149C3.06064 6.8579 4.49662 4.94129 6.43833 3.6596C8.38003 2.37791 10.7068 1.81081 13.0205 2.05532C15.3342 2.29983 17.491 3.34076 19.1219 5H14.9999V7H20.1429C20.6353 6.99947 21.1073 6.80365 21.4554 6.45551C21.8036 6.10737 21.9994 5.63535 21.9999 5.143V0H19.9999V3.078C17.9532 1.24945 15.3409 0.178752 12.5997 0.0448441C9.8584 -0.0890641 7.15421 0.721932 4.93904 2.34229C2.72388 3.96266 1.13196 6.29421 0.429326 8.94729C-0.273305 11.6004 -0.0440735 14.4142 1.07871 16.9186C2.2015 19.423 4.14981 21.4661 6.59803 22.7066C9.04625 23.947 11.846 24.3096 14.5295 23.7338C17.213 23.158 19.6175 21.6786 21.3412 19.5429C23.065 17.4072 24.0035 14.7445 23.9999 12H21.9999Z" fill="#374957"/>
</g>
<defs>
<clipPath id="clip0_403_3590">
<rect width="24" height="24" fill="white"/>
</clipPath>
</defs>
</svg>
