<svg width="24" height="24" viewBox="0 0 24 24" fill="none" xmlns="http://www.w3.org/2000/svg">
<g clip-path="url(#clip0_403_3494)">
<path d="M24 3C24 2.20435 23.6839 1.44129 23.1213 0.87868C22.5587 0.31607 21.7956 0 21 0L11 0C10.2044 0 9.44129 0.31607 8.87868 0.87868C8.31607 1.44129 8 2.20435 8 3V5H7C6.20435 5 5.44129 5.31607 4.87868 5.87868C4.31607 6.44129 4 7.20435 4 8V10H3C2.20435 10 1.44129 10.3161 0.87868 10.8787C0.31607 11.4413 0 12.2044 0 13L0 24H16V19H20V14H24V3ZM3 12H13C13.2652 12 13.5196 12.1054 13.7071 12.2929C13.8946 12.4804 14 12.7348 14 13V13.586L10 17.586L8.053 15.638L2 20.826V13C2 12.7348 2.10536 12.4804 2.29289 12.2929C2.48043 12.1054 2.73478 12 3 12V12ZM14 22H3.7L7.944 18.362L10 20.414L14 16.414V22ZM18 17H16V13C16 12.2044 15.6839 11.4413 15.1213 10.8787C14.5587 10.3161 13.7956 10 13 10H6V8C6 7.73478 6.10536 7.48043 6.29289 7.29289C6.48043 7.10536 6.73478 7 7 7H17C17.2652 7 17.5196 7.10536 17.7071 7.29289C17.8946 7.48043 18 7.73478 18 8V17ZM22 12H20V8C20 7.20435 19.6839 6.44129 19.1213 5.87868C18.5587 5.31607 17.7956 5 17 5H10V3C10 2.73478 10.1054 2.48043 10.2929 2.29289C10.4804 2.10536 10.7348 2 11 2H21C21.2652 2 21.5196 2.10536 21.7071 2.29289C21.8946 2.48043 22 2.73478 22 3V12ZM4 15C4 14.8022 4.05865 14.6089 4.16853 14.4444C4.27841 14.28 4.43459 14.1518 4.61732 14.0761C4.80004 14.0004 5.00111 13.9806 5.19509 14.0192C5.38907 14.0578 5.56725 14.153 5.70711 14.2929C5.84696 14.4327 5.9422 14.6109 5.98079 14.8049C6.01937 14.9989 5.99957 15.2 5.92388 15.3827C5.84819 15.5654 5.72002 15.7216 5.55557 15.8315C5.39112 15.9414 5.19778 16 5 16C4.73478 16 4.48043 15.8946 4.29289 15.7071C4.10536 15.5196 4 15.2652 4 15Z" fill="#374957"/>
</g>
<defs>
<clipPath id="clip0_403_3494">
<rect width="24" height="24" fill="white"/>
</clipPath>
</defs>
</svg>
