<svg width="24" height="24" viewBox="0 0 24 24" fill="none" xmlns="http://www.w3.org/2000/svg">
<g clip-path="url(#clip0_403_3691)">
<path d="M13 2V9H2V3C2 2.73478 2.10536 2.48043 2.29289 2.29289C2.48043 2.10536 2.73478 2 3 2H13ZM15 0H3C2.20435 0 1.44129 0.31607 0.87868 0.87868C0.31607 1.44129 0 2.20435 0 3L0 11H15V0Z" fill="#374957"/>
<path d="M20.9996 2C21.2648 2 21.5192 2.10536 21.7067 2.29289C21.8943 2.48043 21.9996 2.73478 21.9996 3V9H18.9996V2H20.9996ZM20.9996 0H16.9996V11H23.9996V3C23.9996 2.20435 23.6835 1.44129 23.1209 0.87868C22.5583 0.31607 21.7953 0 20.9996 0V0Z" fill="#374957"/>
<path d="M5 15.0004V22.0004H3C2.73478 22.0004 2.48043 21.895 2.29289 21.7075C2.10536 21.5199 2 21.2656 2 21.0004V15.0004H5ZM7 13.0004H0V21.0004C0 21.796 0.316071 22.5591 0.87868 23.1217C1.44129 23.6843 2.20435 24.0004 3 24.0004H7V13.0004Z" fill="#374957"/>
<path d="M22 15.0004V21.0004C22 21.2656 21.8946 21.5199 21.7071 21.7075C21.5196 21.895 21.2652 22.0004 21 22.0004H11V15.0004H22ZM24 13.0004H9V24.0004H21C21.7956 24.0004 22.5587 23.6843 23.1213 23.1217C23.6839 22.5591 24 21.796 24 21.0004V13.0004Z" fill="#374957"/>
</g>
<defs>
<clipPath id="clip0_403_3691">
<rect width="24" height="24" fill="white"/>
</clipPath>
</defs>
</svg>
