<svg width="24" height="24" viewBox="0 0 24 24" fill="none" xmlns="http://www.w3.org/2000/svg">
<g clip-path="url(#clip0_403_3325)">
<path d="M16.4001 24.0007H16.3671C16.114 23.9966 15.8644 23.9414 15.6332 23.8382C15.4021 23.7351 15.1942 23.5863 15.0221 23.4007L11.8541 20.1387L13.3001 18.7568L16.4051 21.9567L22.4861 15.8748L23.9001 17.2858L17.7391 23.4477C17.5638 23.6242 17.3551 23.764 17.1252 23.8589C16.8953 23.9539 16.6488 24.0021 16.4001 24.0007V24.0007Z" fill="#374957"/>
<path d="M10.9999 6V10.586L8.29288 13.293L9.70687 14.707L12.9999 11.414V6H10.9999Z" fill="#374957"/>
<path d="M11.9999 0C8.92151 0.0258085 5.97075 1.23375 3.75791 3.374C1.54507 5.51425 0.239415 8.4231 0.110982 11.499C-0.0174516 14.5748 1.04116 17.5824 3.06787 19.8996C5.09459 22.2169 7.93438 23.6666 10.9999 23.949V21.949C9.02984 21.7525 7.16229 20.9761 5.63361 19.7179C4.10492 18.4598 2.98381 16.7764 2.41213 14.8809C1.84045 12.9853 1.84391 10.9628 2.42205 9.06923C3.00019 7.17565 4.12705 5.49613 5.66002 4.24318C7.19298 2.99023 9.06317 2.22017 11.0339 2.03044C13.0047 1.84071 14.9874 2.23984 16.7313 3.17732C18.4751 4.1148 19.9017 5.5485 20.8305 7.297C21.7592 9.0455 22.1485 11.0302 21.9489 13H23.9489C23.9769 12.669 23.9999 12.338 23.9999 12C23.9965 8.81846 22.7311 5.76821 20.4814 3.51852C18.2317 1.26883 15.1815 0.00344108 11.9999 0V0Z" fill="#374957"/>
</g>
<defs>
<clipPath id="clip0_403_3325">
<rect width="24" height="24" fill="white"/>
</clipPath>
</defs>
</svg>
