<svg width="32" height="32" viewBox="0 0 32 32" fill="none" xmlns="http://www.w3.org/2000/svg">
<g clip-path="url(#clip0_403_3625)" filter="url(#filter0_d_403_3625)">
<path d="M25.2612 2.73891C23.5447 1.07944 21.2831 0.100969 18.8984 -0.0140279C16.5136 -0.129025 14.1684 0.627306 12.3002 2.11391C11.8948 1.46347 11.3297 0.927634 10.6586 0.557463C9.98748 0.187291 9.23278 -0.00489351 8.46637 -0.000783456C7.69996 0.00332659 6.94737 0.203594 6.28028 0.580942C5.61319 0.95829 5.05382 1.50015 4.65546 2.15491C4.2571 2.80967 4.03301 3.55552 4.00454 4.32141C3.97607 5.0873 4.14417 5.84772 4.49282 6.53025C4.84148 7.21277 5.35907 7.79467 5.99631 8.2205C6.63354 8.64633 7.36919 8.90192 8.13318 8.96291C7.81011 10.9421 8.10446 12.9729 8.97618 14.7789C9.02709 14.871 9.04672 14.9772 9.03211 15.0814C9.0175 15.1857 8.96945 15.2823 8.89518 15.3569L5.28218 18.1569C4.91201 18.4466 4.60667 18.8106 4.38586 19.2255C4.16504 19.6405 4.03366 20.0971 4.00018 20.5659C3.98241 20.9644 4.04923 21.362 4.19625 21.7328C4.34328 22.1035 4.56717 22.4389 4.85318 22.7169L5.29818 23.1389C5.57306 23.4226 5.90415 23.6457 6.27025 23.7939C6.63636 23.9422 7.02939 24.0124 7.42418 23.9999C7.8522 23.9921 8.27342 23.8914 8.65876 23.705C9.04411 23.5185 9.38441 23.2507 9.65618 22.9199L12.6142 19.1409C12.6869 19.0575 12.7853 19.0005 12.8939 18.979C13.0024 18.9574 13.1151 18.9725 13.2142 19.0219C15.1388 19.9243 17.2974 20.2025 19.3879 19.8175C21.4784 19.4325 23.3963 18.4037 24.8732 16.8749C26.7876 14.99 27.9068 12.4429 28.0002 9.75791C28.0517 8.4624 27.835 7.17021 27.3637 5.96238C26.8924 4.75455 26.1766 3.65712 25.2612 2.73891V2.73891ZM6.00018 4.49991C6.00018 4.00546 6.1468 3.52211 6.42151 3.11099C6.69621 2.69986 7.08666 2.37943 7.54347 2.19021C8.00029 2.001 8.50296 1.95149 8.98791 2.04795C9.47286 2.14441 9.91832 2.38251 10.2679 2.73215C10.6176 3.08178 10.8557 3.52723 10.9521 4.01219C11.0486 4.49714 10.9991 4.99981 10.8099 5.45662C10.6207 5.91344 10.3002 6.30388 9.88911 6.57859C9.47798 6.85329 8.99464 6.99991 8.50018 6.99991C7.83714 6.99991 7.20126 6.73652 6.73242 6.26768C6.26357 5.79884 6.00018 5.16295 6.00018 4.49991V4.49991ZM14.1002 17.2259C13.5941 16.9767 13.0186 16.906 12.4672 17.0253C11.9158 17.1446 11.421 17.4468 11.0632 17.8829L8.10018 21.6629C8.01468 21.7646 7.90872 21.8471 7.78919 21.905C7.66967 21.9629 7.53927 21.995 7.40651 21.9992C7.27375 22.0033 7.1416 21.9795 7.01869 21.9291C6.89578 21.8787 6.78486 21.803 6.69318 21.7069L6.24918 21.2849C6.16519 21.2037 6.09953 21.1055 6.05658 20.9968C6.01364 20.8882 5.99441 20.7716 6.00018 20.6549C6.02049 20.4695 6.07841 20.2901 6.1704 20.1278C6.26238 19.9655 6.38651 19.8236 6.53518 19.7109L10.1472 16.9109C10.5733 16.5513 10.8664 16.0592 10.9795 15.5132C11.0926 14.9673 11.0193 14.3992 10.7712 13.8999C10.1145 12.5327 9.8742 11.0026 10.0802 9.49991L18.5002 17.9129C16.9979 18.1229 15.467 17.8839 14.1002 17.2259V17.2259ZM23.4642 15.4609C22.6667 16.2517 21.7241 16.8812 20.6882 17.3149L20.7102 17.2929L11.3602 7.94491C11.8706 7.52714 12.2824 7.00163 12.5659 6.40605C12.8495 5.81046 12.9977 5.15954 13.0002 4.49991C13.0002 4.38091 12.9742 4.26891 12.9652 4.15291C14.4457 2.78255 16.3888 2.02132 18.4062 2.02132C20.4236 2.02132 22.3667 2.78255 23.8472 4.15291C24.5692 4.879 25.1333 5.74663 25.5038 6.70125C25.8743 7.65586 26.0433 8.67682 26.0002 9.69991C25.9224 11.8744 25.0137 13.9363 23.4612 15.4609H23.4642Z" fill="#374957"/>
</g>
<defs>
<filter id="filter0_d_403_3625" x="0" y="0" width="32" height="32" filterUnits="userSpaceOnUse" color-interpolation-filters="sRGB">
<feFlood flood-opacity="0" result="BackgroundImageFix"/>
<feColorMatrix in="SourceAlpha" type="matrix" values="0 0 0 0 0 0 0 0 0 0 0 0 0 0 0 0 0 0 127 0" result="hardAlpha"/>
<feOffset dy="4"/>
<feGaussianBlur stdDeviation="2"/>
<feComposite in2="hardAlpha" operator="out"/>
<feColorMatrix type="matrix" values="0 0 0 0 0 0 0 0 0 0 0 0 0 0 0 0 0 0 0.25 0"/>
<feBlend mode="normal" in2="BackgroundImageFix" result="effect1_dropShadow_403_3625"/>
<feBlend mode="normal" in="SourceGraphic" in2="effect1_dropShadow_403_3625" result="shape"/>
</filter>
<clipPath id="clip0_403_3625">
<rect width="24" height="24" fill="white" transform="translate(4)"/>
</clipPath>
</defs>
</svg>
