<svg width="24" height="24" viewBox="0 0 24 24" fill="none" xmlns="http://www.w3.org/2000/svg">
<g clip-path="url(#clip0_403_3505)">
<path d="M21 23.9L17.337 21.389L14.673 23.214L12.007 21.388L9.341 23.212L6.67 21.386L3 23.9V3C3 2.20435 3.31607 1.44129 3.87868 0.87868C4.44129 0.31607 5.20435 0 6 0L18 0C18.7956 0 19.5587 0.31607 20.1213 0.87868C20.6839 1.44129 21 2.20435 21 3V23.9ZM6.67 18.962L9.34 20.788L12.007 18.962L14.673 20.788L17.338 18.961L19 20.1V3C19 2.73478 18.8946 2.48043 18.7071 2.29289C18.5196 2.10536 18.2652 2 18 2H6C5.73478 2 5.48043 2.10536 5.29289 2.29289C5.10536 2.48043 5 2.73478 5 3V20.1L6.67 18.962Z" fill="#374957"/>
<path d="M17.0003 8.00061H7.00031V10.0006H17.0003V8.00061Z" fill="#374957"/>
<path d="M15.0003 12H7.00031V14H15.0003V12Z" fill="#374957"/>
</g>
<defs>
<clipPath id="clip0_403_3505">
<rect width="24" height="24" fill="white"/>
</clipPath>
</defs>
</svg>
