<svg width="24" height="24" viewBox="0 0 24 24" fill="none" xmlns="http://www.w3.org/2000/svg">
<g clip-path="url(#clip0_403_3500)">
<path d="M24 18.9994V3.99939C24 3.20374 23.6839 2.44068 23.1213 1.87807C22.5587 1.31546 21.7956 0.99939 21 0.99939H3C2.20435 0.99939 1.44129 1.31546 0.87868 1.87807C0.31607 2.44068 0 3.20374 0 3.99939L0 18.9994H11V20.9994H6V22.9994H18V20.9994H13V18.9994H24ZM2 3.99939C2 3.73417 2.10536 3.47982 2.29289 3.29228C2.48043 3.10475 2.73478 2.99939 3 2.99939H21C21.2652 2.99939 21.5196 3.10475 21.7071 3.29228C21.8946 3.47982 22 3.73417 22 3.99939V16.9994H2V3.99939ZM14.965 8.99939H20V10.9994H16.035L13.376 14.9874L10.376 8.98739L9.035 10.9994H4V8.99939H7.965L10.624 5.01139L13.624 11.0114L14.965 8.99939Z" fill="#374957"/>
</g>
<defs>
<clipPath id="clip0_403_3500">
<rect width="24" height="24" fill="white"/>
</clipPath>
</defs>
</svg>
