<svg width="32" height="32" viewBox="0 0 32 32" fill="none" xmlns="http://www.w3.org/2000/svg">
<g clip-path="url(#clip0_403_3300)" filter="url(#filter0_d_403_3300)">
<path d="M28.0002 7.49939C28.0028 6.10609 27.6166 4.73969 26.8849 3.55396C26.1532 2.36822 25.1052 1.41021 23.8587 0.787733C22.6121 0.165251 21.2166 -0.0969985 19.8292 0.0304948C18.4417 0.157988 17.1174 0.670164 16.0052 1.50939C15.1062 0.831545 14.0661 0.364794 12.9622 0.143758C11.8582 -0.077279 10.7186 -0.0469289 9.62797 0.232557C8.53733 0.512042 7.5236 1.03349 6.66199 1.75822C5.80038 2.48296 5.11299 3.39238 4.65081 4.41902C4.18863 5.44567 3.96352 6.5632 3.99218 7.68872C4.02084 8.81424 4.30253 9.91887 4.81636 10.9207C5.3302 11.9225 6.06298 12.7957 6.96036 13.4757C7.85775 14.1556 8.8967 14.6248 10.0002 14.8484V18.9994H7.00015V20.9994H10.0002V23.9994H12.0002V20.9994H15.0002V18.9994H12.0002V14.9754C13.4517 14.8821 14.8441 14.3655 16.0052 13.4894C17.164 14.3626 18.5524 14.8787 20.0002 14.9744V18.9994H17.0002V20.9994H20.0002V23.9994H22.0002V20.9994H25.0002V18.9994H22.0002V14.8484C23.6929 14.5004 25.2139 13.5794 26.3069 12.2407C27.3998 10.9021 27.9978 9.22755 28.0002 7.49939V7.49939ZM26.0002 7.49939C26.0002 8.58719 25.6776 9.65055 25.0732 10.555C24.4689 11.4595 23.6099 12.1644 22.6049 12.5807C21.5999 12.997 20.4941 13.1059 19.4272 12.8937C18.3603 12.6815 17.3803 12.1577 16.6111 11.3885C15.8419 10.6193 15.3181 9.63928 15.1058 8.57239C14.8936 7.50549 15.0025 6.39962 15.4188 5.39463C15.8351 4.38964 16.54 3.53065 17.4445 2.92631C18.349 2.32196 19.4124 1.99939 20.5002 1.99939C21.9584 2.00098 23.3564 2.58095 24.3875 3.61206C25.4186 4.64316 25.9986 6.04119 26.0002 7.49939V7.49939ZM6.00015 7.49939C5.99841 6.50236 6.26821 5.52368 6.78059 4.66839C7.29298 3.8131 8.02861 3.11349 8.90852 2.64464C9.78844 2.1758 10.7794 1.95543 11.7751 2.00718C12.7708 2.05893 13.7336 2.38085 14.5602 2.93839C13.549 4.24378 13.0003 5.84818 13.0003 7.49939C13.0003 9.1506 13.549 10.755 14.5602 12.0604C13.7336 12.6179 12.7708 12.9398 11.7751 12.9916C10.7794 13.0433 9.78844 12.823 8.90852 12.3541C8.02861 11.8853 7.29298 11.1857 6.78059 10.3304C6.26821 9.47509 5.99841 8.49642 6.00015 7.49939V7.49939Z" fill="#374957"/>
</g>
<defs>
<filter id="filter0_d_403_3300" x="0" y="0" width="32" height="32" filterUnits="userSpaceOnUse" color-interpolation-filters="sRGB">
<feFlood flood-opacity="0" result="BackgroundImageFix"/>
<feColorMatrix in="SourceAlpha" type="matrix" values="0 0 0 0 0 0 0 0 0 0 0 0 0 0 0 0 0 0 127 0" result="hardAlpha"/>
<feOffset dy="4"/>
<feGaussianBlur stdDeviation="2"/>
<feComposite in2="hardAlpha" operator="out"/>
<feColorMatrix type="matrix" values="0 0 0 0 0 0 0 0 0 0 0 0 0 0 0 0 0 0 0.25 0"/>
<feBlend mode="normal" in2="BackgroundImageFix" result="effect1_dropShadow_403_3300"/>
<feBlend mode="normal" in="SourceGraphic" in2="effect1_dropShadow_403_3300" result="shape"/>
</filter>
<clipPath id="clip0_403_3300">
<rect width="24" height="24" fill="white" transform="translate(4)"/>
</clipPath>
</defs>
</svg>
