<svg width="24" height="24" viewBox="0 0 24 24" fill="none" xmlns="http://www.w3.org/2000/svg">
<g clip-path="url(#clip0_403_3303)">
<path d="M24 12H16V10H24V12ZM14.974 6C14.974 4.81332 14.6221 3.65328 13.9628 2.66658C13.3035 1.67989 12.3665 0.910851 11.2701 0.456726C10.1737 0.00259972 8.96734 -0.11622 7.80346 0.115291C6.63957 0.346802 5.57047 0.918247 4.73136 1.75736C3.89224 2.59648 3.3208 3.66558 3.08929 4.82946C2.85778 5.99335 2.9766 7.19975 3.43072 8.2961C3.88485 9.39246 4.65388 10.3295 5.64058 10.9888C6.62727 11.6481 7.78731 12 8.974 12C10.5648 11.9984 12.09 11.3658 13.2149 10.2409C14.3398 9.11602 14.9724 7.59082 14.974 6V6ZM12.974 6C12.974 6.79113 12.7394 7.56449 12.2999 8.22228C11.8604 8.88008 11.2356 9.39277 10.5047 9.69552C9.77383 9.99827 8.96956 10.0775 8.19364 9.92315C7.41771 9.7688 6.70498 9.38784 6.14557 8.82843C5.58616 8.26902 5.2052 7.55629 5.05086 6.78036C4.89652 6.00444 4.97573 5.20017 5.27848 4.46927C5.58123 3.73837 6.09392 3.11365 6.75172 2.67412C7.40952 2.2346 8.18287 2 8.974 2C10.0349 2 11.0523 2.42143 11.8024 3.17158C12.5526 3.92172 12.974 4.93914 12.974 6ZM18 19C17.9984 17.6744 17.4711 16.4036 16.5338 15.4662C15.5964 14.5289 14.3256 14.0016 13 14H5C3.6744 14.0016 2.40356 14.5289 1.46622 15.4662C0.528882 16.4036 0.00158786 17.6744 0 19L0 24H2V19C2 18.2044 2.31607 17.4413 2.87868 16.8787C3.44129 16.3161 4.20435 16 5 16H13C13.7956 16 14.5587 16.3161 15.1213 16.8787C15.6839 17.4413 16 18.2044 16 19V24H18V19Z" fill="#374957"/>
</g>
<defs>
<clipPath id="clip0_403_3303">
<rect width="24" height="24" fill="white"/>
</clipPath>
</defs>
</svg>
