<svg width="32" height="32" viewBox="0 0 32 32" fill="none" xmlns="http://www.w3.org/2000/svg">
<g clip-path="url(#clip0_403_3540)" filter="url(#filter0_d_403_3540)">
<path d="M16 0C13.6266 0 11.3066 0.703788 9.33316 2.02236C7.35977 3.34094 5.8217 5.21509 4.91345 7.4078C4.0052 9.60051 3.76756 12.0133 4.23058 14.3411C4.6936 16.6689 5.83649 18.8071 7.51472 20.4853C9.19295 22.1635 11.3312 23.3064 13.6589 23.7694C15.9867 24.2324 18.3995 23.9948 20.5922 23.0866C22.7849 22.1783 24.6591 20.6402 25.9776 18.6668C27.2962 16.6935 28 14.3734 28 12C27.9966 8.81846 26.7312 5.76821 24.4815 3.51852C22.2318 1.26883 19.1815 0.00344108 16 0V0ZM16 22C14.0222 22 12.0888 21.4135 10.4443 20.3147C8.79981 19.2159 7.51809 17.6541 6.76121 15.8268C6.00433 13.9996 5.8063 11.9889 6.19215 10.0491C6.578 8.10929 7.53041 6.32746 8.92894 4.92893C10.3275 3.53041 12.1093 2.578 14.0491 2.19215C15.9889 1.8063 17.9996 2.00433 19.8268 2.76121C21.6541 3.51808 23.2159 4.79981 24.3147 6.4443C25.4135 8.08879 26 10.0222 26 12C25.9971 14.6513 24.9426 17.1931 23.0679 19.0679C21.1931 20.9426 18.6513 21.9971 16 22V22ZM9.00001 11.031C8.98989 11.4515 9.11637 11.864 9.36049 12.2066C9.60461 12.5491 9.95321 12.8033 10.354 12.931L13.733 14.273L15.082 17.613C15.2093 18.0174 15.4629 18.3704 15.8056 18.6201C16.1483 18.8697 16.562 19.0029 16.986 19H17C17.4385 18.9999 17.8647 18.855 18.2122 18.5877C18.5598 18.3204 18.8094 17.9458 18.922 17.522L21.9 6.1L10.461 9.113C10.0405 9.22757 9.66943 9.47757 9.40532 9.8243C9.14121 10.171 8.99875 10.5951 9.00001 11.031V11.031ZM19.1 8.9L16.986 17L15.267 12.729L11.093 11.071L10.985 11.043L19.1 8.9Z" fill="#374957"/>
</g>
<defs>
<filter id="filter0_d_403_3540" x="0" y="0" width="32" height="32" filterUnits="userSpaceOnUse" color-interpolation-filters="sRGB">
<feFlood flood-opacity="0" result="BackgroundImageFix"/>
<feColorMatrix in="SourceAlpha" type="matrix" values="0 0 0 0 0 0 0 0 0 0 0 0 0 0 0 0 0 0 127 0" result="hardAlpha"/>
<feOffset dy="4"/>
<feGaussianBlur stdDeviation="2"/>
<feComposite in2="hardAlpha" operator="out"/>
<feColorMatrix type="matrix" values="0 0 0 0 0 0 0 0 0 0 0 0 0 0 0 0 0 0 0.25 0"/>
<feBlend mode="normal" in2="BackgroundImageFix" result="effect1_dropShadow_403_3540"/>
<feBlend mode="normal" in="SourceGraphic" in2="effect1_dropShadow_403_3540" result="shape"/>
</filter>
<clipPath id="clip0_403_3540">
<rect width="24" height="24" fill="white" transform="translate(4)"/>
</clipPath>
</defs>
</svg>
