<svg width="32" height="32" viewBox="0 0 32 32" fill="none" xmlns="http://www.w3.org/2000/svg">
<g clip-path="url(#clip0_403_3562)" filter="url(#filter0_d_403_3562)">
<path d="M25 16.0004V12.0004C24.9994 10.6555 24.696 9.32788 24.1125 8.11612C23.5289 6.90435 22.6801 5.83947 21.629 5.00041H24.277C24.4986 5.37802 24.8385 5.67205 25.2441 5.83699C25.6497 6.00193 26.0983 6.02857 26.5206 5.91279C26.9429 5.79702 27.3152 5.54528 27.5799 5.19655C27.8447 4.84781 27.9871 4.42154 27.9851 3.9837C27.9831 3.54586 27.8369 3.12089 27.569 2.77455C27.3011 2.42822 26.9266 2.17984 26.5033 2.06787C26.08 1.9559 25.6316 1.98657 25.2275 2.15515C24.8235 2.32373 24.4862 2.62081 24.268 3.00041H19.858C19.6397 2.14282 19.1419 1.38241 18.4433 0.839299C17.7446 0.296188 16.8849 0.00134277 16 0.00134277C15.1151 0.00134277 14.2554 0.296188 13.5567 0.839299C12.8581 1.38241 12.3603 2.14282 12.142 3.00041H7.723C7.50139 2.62279 7.16148 2.32876 6.75589 2.16382C6.3503 1.99889 5.90166 1.97225 5.4794 2.08802C5.05714 2.2038 4.68483 2.45554 4.42008 2.80427C4.15533 3.153 4.01292 3.57928 4.01489 4.01711C4.01686 4.45495 4.1631 4.87993 4.43098 5.22626C4.69885 5.5726 5.07342 5.82098 5.4967 5.93295C5.91999 6.04492 6.36837 6.01424 6.77246 5.84566C7.17655 5.67708 7.51379 5.38 7.732 5.00041H10.371C9.31986 5.83947 8.47106 6.90435 7.88751 8.11612C7.30395 9.32788 7.00062 10.6555 7 12.0004V16.0004H4V21.0004C4 21.7961 4.31607 22.5591 4.87868 23.1217C5.44129 23.6843 6.20435 24.0004 7 24.0004H12V16.0004H9V12.0004C9.00137 10.7692 9.32777 9.5602 9.9462 8.49559C10.5646 7.43098 11.4532 6.54852 12.522 5.93741C12.8631 6.56189 13.366 7.08301 13.978 7.44607C14.59 7.80912 15.2884 8.0007 16 8.0007C16.7116 8.0007 17.41 7.80912 18.022 7.44607C18.634 7.08301 19.1369 6.56189 19.478 5.93741C20.5468 6.54852 21.4354 7.43098 22.0538 8.49559C22.6722 9.5602 22.9986 10.7692 23 12.0004V16.0004H20V24.0004H25C25.7956 24.0004 26.5587 23.6843 27.1213 23.1217C27.6839 22.5591 28 21.7961 28 21.0004V16.0004H25ZM10 22.0004H7C6.73478 22.0004 6.48043 21.8951 6.29289 21.7075C6.10536 21.52 6 21.2656 6 21.0004V18.0004H10V22.0004ZM16 6.00041C15.6044 6.00041 15.2178 5.88311 14.8889 5.66335C14.56 5.44358 14.3036 5.13123 14.1522 4.76577C14.0009 4.40032 13.9613 3.99819 14.0384 3.61023C14.1156 3.22226 14.3061 2.8659 14.5858 2.58619C14.8655 2.30649 15.2219 2.11601 15.6098 2.03884C15.9978 1.96167 16.3999 2.00127 16.7654 2.15265C17.1308 2.30402 17.4432 2.56037 17.6629 2.88927C17.8827 3.21817 18 3.60484 18 4.00041C18 4.53084 17.7893 5.03955 17.4142 5.41462C17.0391 5.78969 16.5304 6.00041 16 6.00041ZM26 21.0004C26 21.2656 25.8946 21.52 25.7071 21.7075C25.5196 21.8951 25.2652 22.0004 25 22.0004H22V18.0004H26V21.0004Z" fill="#374957"/>
</g>
<defs>
<filter id="filter0_d_403_3562" x="0" y="0" width="32" height="32" filterUnits="userSpaceOnUse" color-interpolation-filters="sRGB">
<feFlood flood-opacity="0" result="BackgroundImageFix"/>
<feColorMatrix in="SourceAlpha" type="matrix" values="0 0 0 0 0 0 0 0 0 0 0 0 0 0 0 0 0 0 127 0" result="hardAlpha"/>
<feOffset dy="4"/>
<feGaussianBlur stdDeviation="2"/>
<feComposite in2="hardAlpha" operator="out"/>
<feColorMatrix type="matrix" values="0 0 0 0 0 0 0 0 0 0 0 0 0 0 0 0 0 0 0.25 0"/>
<feBlend mode="normal" in2="BackgroundImageFix" result="effect1_dropShadow_403_3562"/>
<feBlend mode="normal" in="SourceGraphic" in2="effect1_dropShadow_403_3562" result="shape"/>
</filter>
<clipPath id="clip0_403_3562">
<rect width="24" height="24" fill="white" transform="translate(4)"/>
</clipPath>
</defs>
</svg>
