<svg width="32" height="32" viewBox="0 0 32 32" fill="none" xmlns="http://www.w3.org/2000/svg">
<g clip-path="url(#clip0_403_3322)" filter="url(#filter0_d_403_3322)">
<path d="M20.9999 20.9999C20.9999 21.7955 20.6838 22.5586 20.1212 23.1212C19.5586 23.6838 18.7955 23.9999 17.9999 23.9999C17.2042 23.9999 16.4412 23.6838 15.8786 23.1212C15.3159 22.5586 14.9999 21.7955 14.9999 20.9999V17.9999C14.9999 17.2042 15.3159 16.4411 15.8786 15.8785C16.4412 15.3159 17.2042 14.9999 17.9999 14.9999H19.9999V16.9999H17.9999C17.7347 16.9999 17.4803 17.1052 17.2928 17.2927C17.1052 17.4803 16.9999 17.7346 16.9999 17.9999V18.1709C17.4524 18.0109 17.9367 17.9618 18.4122 18.0277C18.8876 18.0937 19.3403 18.2728 19.7322 18.55C20.124 18.8271 20.4437 19.1943 20.6643 19.6206C20.8849 20.0469 21 20.5199 20.9999 20.9999ZM18.9999 20.9999C18.9999 20.8021 18.9412 20.6087 18.8313 20.4443C18.7215 20.2798 18.5653 20.1517 18.3826 20.076C18.1998 20.0003 17.9988 19.9805 17.8048 20.0191C17.6108 20.0577 17.4326 20.1529 17.2928 20.2927C17.1529 20.4326 17.0577 20.6108 17.0191 20.8048C16.9805 20.9987 17.0003 21.1998 17.076 21.3825C17.1517 21.5653 17.2799 21.7214 17.4443 21.8313C17.6088 21.9412 17.8021 21.9999 17.9999 21.9999C18.2651 21.9999 18.5194 21.8945 18.707 21.707C18.8945 21.5194 18.9999 21.2651 18.9999 20.9999ZM27.9999 17.9999V20.9999C27.9999 21.7955 27.6838 22.5586 27.1212 23.1212C26.5586 23.6838 25.7955 23.9999 24.9999 23.9999C24.2042 23.9999 23.4412 23.6838 22.8786 23.1212C22.3159 22.5586 21.9999 21.7955 21.9999 20.9999V17.9999C21.9999 17.2042 22.3159 16.4411 22.8786 15.8785C23.4412 15.3159 24.2042 14.9999 24.9999 14.9999C25.7955 14.9999 26.5586 15.3159 27.1212 15.8785C27.6838 16.4411 27.9999 17.2042 27.9999 17.9999ZM25.9999 17.9999C25.9999 17.7346 25.8945 17.4803 25.707 17.2927C25.5194 17.1052 25.2651 16.9999 24.9999 16.9999C24.7347 16.9999 24.4803 17.1052 24.2928 17.2927C24.1052 17.4803 23.9999 17.7346 23.9999 17.9999V20.9999C23.9999 21.2651 24.1052 21.5194 24.2928 21.707C24.4803 21.8945 24.7347 21.9999 24.9999 21.9999C25.2651 21.9999 25.5194 21.8945 25.707 21.707C25.8945 21.5194 25.9999 21.2651 25.9999 20.9999V17.9999ZM16.9999 5.99985H14.9999V10.9999H10.9999V12.9999H16.9999V5.99985ZM25.9999 1.99985V5.37385C24.9262 3.75006 23.4735 2.41198 21.7671 1.47512C20.0607 0.538258 18.1519 0.0307789 16.2056 -0.00350985C14.2592 -0.0377986 12.3338 0.402134 10.5954 1.27831C8.85712 2.15448 7.35816 3.44057 6.22796 5.02553C5.09777 6.6105 4.3703 8.44672 4.10838 10.3757C3.84645 12.3046 4.05793 14.2683 4.72456 16.0973C5.39119 17.9263 6.49293 19.5655 7.93468 20.8735C9.37643 22.1815 11.1149 23.1189 12.9999 23.6049V21.5389C11.4452 21.0553 10.0321 20.1994 8.88334 19.0456C7.7346 17.8917 6.88496 16.4749 6.40825 14.918C5.93153 13.3612 5.84216 11.7116 6.14789 10.1124C6.45363 8.51315 7.14522 7.01278 8.16258 5.7416C9.17994 4.47042 10.4923 3.46688 11.9857 2.81816C13.479 2.16944 15.1082 1.89516 16.7316 2.01916C18.355 2.14317 19.9237 2.66169 21.3012 3.52969C22.6787 4.39769 23.8234 5.58891 24.6359 6.99985H20.9999V8.99985H25.9999C26.5303 8.99985 27.039 8.78914 27.4141 8.41407C27.7892 8.03899 27.9999 7.53029 27.9999 6.99985V1.99985H25.9999Z" fill="#374957"/>
</g>
<defs>
<filter id="filter0_d_403_3322" x="0" y="0" width="32" height="32" filterUnits="userSpaceOnUse" color-interpolation-filters="sRGB">
<feFlood flood-opacity="0" result="BackgroundImageFix"/>
<feColorMatrix in="SourceAlpha" type="matrix" values="0 0 0 0 0 0 0 0 0 0 0 0 0 0 0 0 0 0 127 0" result="hardAlpha"/>
<feOffset dy="4"/>
<feGaussianBlur stdDeviation="2"/>
<feComposite in2="hardAlpha" operator="out"/>
<feColorMatrix type="matrix" values="0 0 0 0 0 0 0 0 0 0 0 0 0 0 0 0 0 0 0.25 0"/>
<feBlend mode="normal" in2="BackgroundImageFix" result="effect1_dropShadow_403_3322"/>
<feBlend mode="normal" in="SourceGraphic" in2="effect1_dropShadow_403_3322" result="shape"/>
</filter>
<clipPath id="clip0_403_3322">
<rect width="24" height="24" fill="white" transform="translate(4)"/>
</clipPath>
</defs>
</svg>
