<svg width="32" height="31" viewBox="0 0 32 31" fill="none" xmlns="http://www.w3.org/2000/svg">
<g clip-path="url(#clip0_403_3638)" filter="url(#filter0_d_403_3638)">
<path d="M23 4.99936H21V3.99936C21 3.20371 20.6839 2.44065 20.1213 1.87804C19.5587 1.31543 18.7956 0.999359 18 0.999359H7C6.20435 0.999359 5.44129 1.31543 4.87868 1.87804C4.31607 2.44065 4 3.20371 4 3.99936V18.9994H6.041C6.01527 19.1648 6.00157 19.3319 6 19.4994C6 20.4276 6.36875 21.3179 7.02513 21.9742C7.6815 22.6306 8.57174 22.9994 9.5 22.9994C10.4283 22.9994 11.3185 22.6306 11.9749 21.9742C12.6313 21.3179 13 20.4276 13 19.4994C12.9984 19.3319 12.9847 19.1648 12.959 18.9994H19.041C19.0153 19.1648 19.0016 19.3319 19 19.4994C19 20.4276 19.3687 21.3179 20.0251 21.9742C20.6815 22.6306 21.5717 22.9994 22.5 22.9994C23.4283 22.9994 24.3185 22.6306 24.9749 21.9742C25.6313 21.3179 26 20.4276 26 19.4994C25.9984 19.3319 25.9847 19.1648 25.959 18.9994H28V9.99936C27.9984 8.67376 27.4711 7.40292 26.5338 6.46558C25.5964 5.52824 24.3256 5.00095 23 4.99936V4.99936ZM23 6.99936C23.7956 6.99936 24.5587 7.31543 25.1213 7.87804C25.6839 8.44065 26 9.20371 26 9.99936V10.9994H21V6.99936H23ZM11 19.4994C11 19.8972 10.842 20.2787 10.5607 20.56C10.2794 20.8413 9.89782 20.9994 9.5 20.9994C9.10218 20.9994 8.72064 20.8413 8.43934 20.56C8.15804 20.2787 8 19.8972 8 19.4994C8.00061 19.3284 8.03212 19.1591 8.093 18.9994H10.907C10.9679 19.1591 10.9994 19.3284 11 19.4994V19.4994ZM19 16.9994H6V3.99936C6 3.73414 6.10536 3.47979 6.29289 3.29225C6.48043 3.10472 6.73478 2.99936 7 2.99936H18C18.2652 2.99936 18.5196 3.10472 18.7071 3.29225C18.8946 3.47979 19 3.73414 19 3.99936V16.9994ZM24 19.4994C24 19.8972 23.842 20.2787 23.5607 20.56C23.2794 20.8413 22.8978 20.9994 22.5 20.9994C22.1022 20.9994 21.7206 20.8413 21.4393 20.56C21.158 20.2787 21 19.8972 21 19.4994C21.0004 19.3284 21.032 19.159 21.093 18.9994H23.907C23.968 19.159 23.9996 19.3284 24 19.4994V19.4994ZM21 16.9994V12.9994H26V16.9994H21Z" fill="#374957"/>
</g>
<defs>
<filter id="filter0_d_403_3638" x="0" y="0" width="32" height="32" filterUnits="userSpaceOnUse" color-interpolation-filters="sRGB">
<feFlood flood-opacity="0" result="BackgroundImageFix"/>
<feColorMatrix in="SourceAlpha" type="matrix" values="0 0 0 0 0 0 0 0 0 0 0 0 0 0 0 0 0 0 127 0" result="hardAlpha"/>
<feOffset dy="4"/>
<feGaussianBlur stdDeviation="2"/>
<feComposite in2="hardAlpha" operator="out"/>
<feColorMatrix type="matrix" values="0 0 0 0 0 0 0 0 0 0 0 0 0 0 0 0 0 0 0.25 0"/>
<feBlend mode="normal" in2="BackgroundImageFix" result="effect1_dropShadow_403_3638"/>
<feBlend mode="normal" in="SourceGraphic" in2="effect1_dropShadow_403_3638" result="shape"/>
</filter>
<clipPath id="clip0_403_3638">
<rect width="24" height="24" fill="white" transform="translate(4)"/>
</clipPath>
</defs>
</svg>
