<svg width="24" height="24" viewBox="0 0 24 24" fill="none" xmlns="http://www.w3.org/2000/svg">
<g clip-path="url(#clip0_403_3306)">
<path d="M23.9998 23.9994H21.9998C21.9977 22.1435 21.2595 20.3643 19.9472 19.052C18.6349 17.7397 16.8557 17.0015 14.9998 16.9994H10.1698V23.4134L0.876834 14.1204C0.31442 13.5578 -0.00152588 12.7949 -0.00152588 11.9994C-0.00152588 11.2039 0.31442 10.441 0.876834 9.87839L10.1698 0.585388V6.99939H14.9998C17.386 7.00203 19.6736 7.9511 21.3609 9.63835C23.0481 11.3256 23.9972 13.6133 23.9998 15.9994V23.9994ZM8.16983 5.41339L2.29083 11.2924C2.10336 11.4799 1.99805 11.7342 1.99805 11.9994C1.99805 12.2646 2.10336 12.5189 2.29083 12.7064L8.16983 18.5854V14.9994H14.9998C16.3427 14.9993 17.6685 15.3001 18.8798 15.8796C20.0912 16.4592 21.1573 17.3028 21.9998 18.3484V15.9994C21.9977 14.1435 21.2595 12.3643 19.9472 11.052C18.6349 9.73968 16.8557 9.0015 14.9998 8.99939H8.16983V5.41339Z" fill="#374957"/>
</g>
<defs>
<clipPath id="clip0_403_3306">
<rect width="24" height="24" fill="white"/>
</clipPath>
</defs>
</svg>
