<svg width="32" height="32" viewBox="0 0 32 32" fill="none" xmlns="http://www.w3.org/2000/svg">
<g clip-path="url(#clip0_403_3703)" filter="url(#filter0_d_403_3703)">
<path d="M16.0001 0C14.1044 0.000203007 12.2358 0.449489 10.5473 1.31105C8.8588 2.17262 7.39842 3.42195 6.2858 4.9567C5.17318 6.49145 4.43998 8.26795 4.14626 10.1407C3.85255 12.0134 4.00668 13.9291 4.59602 15.7308C5.18536 17.5324 6.19315 19.1689 7.53683 20.506C8.88051 21.8431 10.5218 22.8429 12.3264 23.4234C14.1309 24.004 16.0473 24.1487 17.9186 23.8458C19.7899 23.543 21.5628 22.8011 23.0921 21.681L21.9081 20.069C20.0945 21.397 17.8865 22.0752 15.6402 21.9943C13.3939 21.9135 11.2404 21.0781 9.52704 19.6232C7.81373 18.1682 6.64057 16.1784 6.19684 13.9749C5.75312 11.7714 6.06472 9.48262 7.08135 7.47791C8.09799 5.47321 9.76038 3.86947 11.8003 2.92547C13.8402 1.98147 16.1387 1.75225 18.3248 2.2748C20.511 2.79736 22.4574 4.04121 23.8499 5.80566C25.2424 7.5701 25.9999 9.75225 26.0001 12V14C26.0001 14.5304 25.7893 15.0391 25.4143 15.4142C25.0392 15.7893 24.5305 16 24.0001 16C23.4696 16 22.9609 15.7893 22.5858 15.4142C22.2108 15.0391 22.0001 14.5304 22.0001 14V12C22.0049 10.5883 21.5136 9.21975 20.6119 8.13351C19.7102 7.04728 18.4555 6.31242 17.067 6.05735C15.6785 5.80228 14.2445 6.04321 13.0156 6.73805C11.7867 7.43288 10.8411 8.53743 10.3439 9.85871C9.84668 11.18 9.82956 12.6339 10.2955 13.9666C10.7615 15.2992 11.6809 16.4257 12.8931 17.1493C14.1053 17.8728 15.5332 18.1474 16.9273 17.9251C18.3214 17.7028 19.593 16.9977 20.5201 15.933C20.9465 16.7097 21.6195 17.3222 22.4329 17.6736C23.2462 18.0251 24.1535 18.0956 25.0114 17.8739C25.8693 17.6522 26.6288 17.151 27.17 16.4495C27.7113 15.7479 28.0033 14.886 28.0001 14V12C27.9966 8.81846 26.7312 5.76821 24.4815 3.51852C22.2319 1.26883 19.1816 0.00344108 16.0001 0V0ZM16.0001 16C15.2089 16 14.4356 15.7654 13.7778 15.3259C13.12 14.8864 12.6073 14.2616 12.3045 13.5307C12.0018 12.7998 11.9226 11.9956 12.0769 11.2196C12.2313 10.4437 12.6122 9.73098 13.1716 9.17157C13.731 8.61216 14.4438 8.2312 15.2197 8.07686C15.9956 7.92252 16.7999 8.00173 17.5308 8.30448C18.2617 8.60723 18.8864 9.11992 19.3259 9.77772C19.7655 10.4355 20.0001 11.2089 20.0001 12C20.0001 13.0609 19.5786 14.0783 18.8285 14.8284C18.0783 15.5786 17.0609 16 16.0001 16Z" fill="#374957"/>
</g>
<defs>
<filter id="filter0_d_403_3703" x="0" y="0" width="32" height="32" filterUnits="userSpaceOnUse" color-interpolation-filters="sRGB">
<feFlood flood-opacity="0" result="BackgroundImageFix"/>
<feColorMatrix in="SourceAlpha" type="matrix" values="0 0 0 0 0 0 0 0 0 0 0 0 0 0 0 0 0 0 127 0" result="hardAlpha"/>
<feOffset dy="4"/>
<feGaussianBlur stdDeviation="2"/>
<feComposite in2="hardAlpha" operator="out"/>
<feColorMatrix type="matrix" values="0 0 0 0 0 0 0 0 0 0 0 0 0 0 0 0 0 0 0.25 0"/>
<feBlend mode="normal" in2="BackgroundImageFix" result="effect1_dropShadow_403_3703"/>
<feBlend mode="normal" in="SourceGraphic" in2="effect1_dropShadow_403_3703" result="shape"/>
</filter>
<clipPath id="clip0_403_3703">
<rect width="24" height="24" fill="white" transform="translate(4)"/>
</clipPath>
</defs>
</svg>
