<svg width="32" height="32" viewBox="0 0 32 32" fill="none" xmlns="http://www.w3.org/2000/svg">
<g clip-path="url(#clip0_403_3404)" filter="url(#filter0_d_403_3404)">
<path d="M28 20.0002H18.816C18.6666 19.582 18.4262 19.2021 18.1122 18.8881C17.7981 18.574 17.4182 18.3336 17 18.1842V14.0002H20C21.2581 14.0007 22.4702 13.5269 23.3944 12.6733C24.3186 11.8198 24.8871 10.6491 24.9864 9.39494C25.0858 8.14076 24.7086 6.89523 23.9303 5.90681C23.1519 4.91839 22.0295 4.25973 20.787 4.06222C20.4405 2.77642 19.6384 1.66046 18.5301 0.922315C17.4217 0.184165 16.0828 -0.125813 14.7628 0.0501513C13.4428 0.226115 12.2319 0.876015 11.3556 1.87873C10.4793 2.88145 9.99753 4.16857 10 5.50022C10.0003 5.70646 10.013 5.9125 10.038 6.11722C9.08935 6.35184 8.25941 6.92563 7.70484 7.73027C7.15027 8.53491 6.90945 9.51472 7.02783 10.4848C7.1462 11.4548 7.61559 12.3479 8.34739 12.9956C9.07919 13.6433 10.0228 14.0006 11 14.0002H15V18.1842C14.5818 18.3336 14.2019 18.574 13.8878 18.8881C13.5738 19.2021 13.3334 19.582 13.184 20.0002H4V22.0002H13.184C13.3876 22.5848 13.7682 23.0914 14.2727 23.45C14.7773 23.8085 15.381 24.0012 16 24.0012C16.619 24.0012 17.2227 23.8085 17.7273 23.45C18.2318 23.0914 18.6124 22.5848 18.816 22.0002H28V20.0002ZM9 10.0002C9.00088 9.73502 9.0545 9.47265 9.15773 9.22837C9.26096 8.98408 9.41174 8.76277 9.6013 8.57731C9.79086 8.39184 10.0154 8.24593 10.2619 8.14806C10.5084 8.05018 10.7718 8.00231 11.037 8.00722H11.052L12.765 8.17822L12.225 6.68722C12.0803 6.30798 12.0042 5.90608 12 5.50022C11.9969 4.60641 12.337 3.7455 12.9502 3.09518C13.5633 2.44485 14.4028 2.05473 15.2952 2.00534C16.1877 1.95594 17.065 2.25104 17.7462 2.82972C18.4274 3.40841 18.8605 4.22652 18.956 5.11522L19.056 6.00522H20.061C20.8352 6.04374 21.5644 6.3804 22.0958 6.94465C22.6272 7.50891 22.9196 8.25696 22.9118 9.03203C22.9039 9.80711 22.5963 10.5491 22.0535 11.1024C21.5107 11.6557 20.7748 11.9775 20 12.0002H11C10.4696 12.0002 9.96086 11.7895 9.58579 11.4144C9.21071 11.0394 9 10.5307 9 10.0002ZM16 22.0002C15.8022 22.0002 15.6089 21.9416 15.4444 21.8317C15.28 21.7218 15.1518 21.5656 15.0761 21.3829C15.0004 21.2002 14.9806 20.9991 15.0192 20.8051C15.0578 20.6111 15.153 20.433 15.2929 20.2931C15.4327 20.1533 15.6109 20.058 15.8049 20.0194C15.9989 19.9808 16.2 20.0007 16.3827 20.0763C16.5654 20.152 16.7216 20.2802 16.8315 20.4446C16.9414 20.6091 17 20.8024 17 21.0002C17 21.2654 16.8946 21.5198 16.7071 21.7073C16.5196 21.8949 16.2652 22.0002 16 22.0002Z" fill="#374957"/>
</g>
<defs>
<filter id="filter0_d_403_3404" x="0" y="0" width="32" height="32" filterUnits="userSpaceOnUse" color-interpolation-filters="sRGB">
<feFlood flood-opacity="0" result="BackgroundImageFix"/>
<feColorMatrix in="SourceAlpha" type="matrix" values="0 0 0 0 0 0 0 0 0 0 0 0 0 0 0 0 0 0 127 0" result="hardAlpha"/>
<feOffset dy="4"/>
<feGaussianBlur stdDeviation="2"/>
<feComposite in2="hardAlpha" operator="out"/>
<feColorMatrix type="matrix" values="0 0 0 0 0 0 0 0 0 0 0 0 0 0 0 0 0 0 0.25 0"/>
<feBlend mode="normal" in2="BackgroundImageFix" result="effect1_dropShadow_403_3404"/>
<feBlend mode="normal" in="SourceGraphic" in2="effect1_dropShadow_403_3404" result="shape"/>
</filter>
<clipPath id="clip0_403_3404">
<rect width="24" height="24" fill="white" transform="translate(4)"/>
</clipPath>
</defs>
</svg>
