<svg width="24" height="24" viewBox="0 0 24 24" fill="none" xmlns="http://www.w3.org/2000/svg">
<g clip-path="url(#clip0_403_3761)">
<path d="M14.4142 0H5.00015C4.2045 0 3.44144 0.31607 2.87883 0.87868C2.31622 1.44129 2.00015 2.20435 2.00015 3V24H22.0002V7.586L14.4142 0ZM15.0002 3.414L18.5862 7H15.0002V3.414ZM4.00015 22V3C4.00015 2.73478 4.10551 2.48043 4.29305 2.29289C4.48058 2.10536 4.73494 2 5.00015 2H13.0002V9H20.0002V22H4.00015ZM15.9572 12.457L13.4142 15L15.9572 17.543L14.5432 18.957L12.0002 16.414L9.45715 18.957L8.04315 17.543L10.5862 15L8.04315 12.457L9.45715 11.043L12.0002 13.586L14.5432 11.043L15.9572 12.457Z" fill="#374957"/>
</g>
<defs>
<clipPath id="clip0_403_3761">
<rect width="24" height="24" fill="white"/>
</clipPath>
</defs>
</svg>
