<svg width="24" height="24" viewBox="0 0 24 24" fill="none" xmlns="http://www.w3.org/2000/svg">
<g clip-path="url(#clip0_403_3612)">
<path d="M21 1.00024H3C2.20435 1.00024 1.44129 1.31631 0.87868 1.87892C0.31607 2.44153 0 3.20459 0 4.00024L0 23.0002H24V4.00024C24 3.20459 23.6839 2.44153 23.1213 1.87892C22.5587 1.31631 21.7956 1.00024 21 1.00024V1.00024ZM3 3.00024H21C21.2652 3.00024 21.5196 3.1056 21.7071 3.29314C21.8946 3.48067 22 3.73503 22 4.00024V4.66724L14.122 12.5462C13.5584 13.1076 12.7954 13.4227 12 13.4227C11.2046 13.4227 10.4416 13.1076 9.878 12.5462L2 4.66724V4.00024C2 3.73503 2.10536 3.48067 2.29289 3.29314C2.48043 3.1056 2.73478 3.00024 3 3.00024V3.00024ZM2 21.0002V7.50024L8.464 13.9602C9.40263 14.8965 10.6743 15.4223 12 15.4223C13.3257 15.4223 14.5974 14.8965 15.536 13.9602L22 7.50024V21.0002H2Z" fill="#374957"/>
</g>
<defs>
<clipPath id="clip0_403_3612">
<rect width="24" height="24" fill="white"/>
</clipPath>
</defs>
</svg>
