<svg width="24" height="24" viewBox="0 0 24 24" fill="none" xmlns="http://www.w3.org/2000/svg">
<g clip-path="url(#clip0_403_3351)">
<path d="M23.467 13.6371L19.012 14.8261L17.089 13.7421V10.3101L19.011 9.22615L23.467 10.4141L24 8.48215L20.12 7.44815L21.172 3.63215L19.208 3.10815L18 7.49015L16.174 8.52015L13.018 6.72815V4.65115L16.282 1.44115L14.843 0.0251465L12 2.82115L9.157 0.0251465L7.718 1.44115L10.982 4.65115V6.72815L7.826 8.52015L6 7.49015L4.792 3.10815L2.828 3.63215L3.88 7.44815L0 8.48215L0.533 10.4141L4.988 9.22615L6.911 10.3101V13.7421L4.988 14.8261L0.533 13.6371L0 15.5691L3.88 16.6001L2.828 20.4201L4.792 20.9441L6 16.5611L8 15.4351L10.983 17.1281V19.4001L7.718 22.6101L9.157 24.0251L12 21.2301L14.843 24.0251L16.282 22.6101L13.018 19.4001V17.1281L16 15.4351L18 16.5611L19.209 20.9441L21.173 20.4201L20.12 16.6001L24 15.5691L23.467 13.6371ZM15.053 13.6621L12 15.4001L8.947 13.6621V10.2001L12 8.46115L15.053 10.2001V13.6621Z" fill="#374957"/>
</g>
<defs>
<clipPath id="clip0_403_3351">
<rect width="24" height="24" fill="white"/>
</clipPath>
</defs>
</svg>
