<svg width="28" height="32" viewBox="0 0 28 32" fill="none" xmlns="http://www.w3.org/2000/svg">
<g clip-path="url(#clip0_403_3761)" filter="url(#filter0_d_403_3761)">
<path d="M16.4142 0H7.00015C6.2045 0 5.44144 0.31607 4.87883 0.87868C4.31622 1.44129 4.00015 2.20435 4.00015 3V24H24.0002V7.586L16.4142 0ZM17.0002 3.414L20.5862 7H17.0002V3.414ZM6.00015 22V3C6.00015 2.73478 6.10551 2.48043 6.29305 2.29289C6.48058 2.10536 6.73494 2 7.00015 2H15.0002V9H22.0002V22H6.00015ZM17.9572 12.457L15.4142 15L17.9572 17.543L16.5432 18.957L14.0002 16.414L11.4572 18.957L10.0432 17.543L12.5862 15L10.0432 12.457L11.4572 11.043L14.0002 13.586L16.5432 11.043L17.9572 12.457Z" fill="#374957"/>
</g>
<defs>
<filter id="filter0_d_403_3761" x="-2" y="0" width="32" height="32" filterUnits="userSpaceOnUse" color-interpolation-filters="sRGB">
<feFlood flood-opacity="0" result="BackgroundImageFix"/>
<feColorMatrix in="SourceAlpha" type="matrix" values="0 0 0 0 0 0 0 0 0 0 0 0 0 0 0 0 0 0 127 0" result="hardAlpha"/>
<feOffset dy="4"/>
<feGaussianBlur stdDeviation="2"/>
<feComposite in2="hardAlpha" operator="out"/>
<feColorMatrix type="matrix" values="0 0 0 0 0 0 0 0 0 0 0 0 0 0 0 0 0 0 0.25 0"/>
<feBlend mode="normal" in2="BackgroundImageFix" result="effect1_dropShadow_403_3761"/>
<feBlend mode="normal" in="SourceGraphic" in2="effect1_dropShadow_403_3761" result="shape"/>
</filter>
<clipPath id="clip0_403_3761">
<rect width="24" height="24" fill="white" transform="translate(2)"/>
</clipPath>
</defs>
</svg>
