<svg width="24" height="24" viewBox="0 0 24 24" fill="none" xmlns="http://www.w3.org/2000/svg">
<g clip-path="url(#clip0_403_3493)">
<path d="M20.4 3H3.6L3.3 3.3C1.2 5.7 0 8.8 0 12C0 17.5 2.2 22 5 22C7.2 22 8.3 18.8 8.8 17H15.2C15.7 18.8 16.8 22 19 22C21.8 22 24 17.5 24 12C24 8.8 22.8 5.7 20.7 3.3L20.4 3ZM19 20C18.4 20 17.4 17.9 17 15.8L16.8 15H7.2L7 15.8C6.6 17.9 5.6 20 5 20C4 20 2 16.9 2 12C2 9.5 2.9 7 4.5 5H19.6C21.2 7 22 9.5 22 12C22 16.9 20 20 19 20Z" fill="#374957"/>
<path d="M8.00031 7.00024H6.00031V9.00024H4.00031V11.0002H6.00031V13.0002H8.00031V11.0002H10.0003V9.00024H8.00031V7.00024Z" fill="#374957"/>
<path d="M18.4997 10.0002C19.3281 10.0002 19.9997 9.32867 19.9997 8.50024C19.9997 7.67182 19.3281 7.00024 18.4997 7.00024C17.6713 7.00024 16.9997 7.67182 16.9997 8.50024C16.9997 9.32867 17.6713 10.0002 18.4997 10.0002Z" fill="#374957"/>
<path d="M15.4997 13.0002C16.3281 13.0002 16.9997 12.3287 16.9997 11.5002C16.9997 10.6718 16.3281 10.0002 15.4997 10.0002C14.6713 10.0002 13.9997 10.6718 13.9997 11.5002C13.9997 12.3287 14.6713 13.0002 15.4997 13.0002Z" fill="#374957"/>
</g>
<defs>
<clipPath id="clip0_403_3493">
<rect width="24" height="24" fill="white"/>
</clipPath>
</defs>
</svg>
