<svg width="32" height="32" viewBox="0 0 32 32" fill="none" xmlns="http://www.w3.org/2000/svg">
<g clip-path="url(#clip0_403_3592)" filter="url(#filter0_d_403_3592)">
<path d="M22 7.00087C22 7.19865 21.9414 7.39199 21.8315 7.55644C21.7216 7.72089 21.5654 7.84907 21.3827 7.92475C21.2 8.00044 20.9989 8.02024 20.8049 7.98166C20.6109 7.94307 20.4327 7.84783 20.2929 7.70798C20.153 7.56813 20.0578 7.38994 20.0192 7.19596C19.9806 7.00198 20.0004 6.80092 20.0761 6.61819C20.1518 6.43546 20.28 6.27928 20.4444 6.1694C20.6089 6.05952 20.8022 6.00087 21 6.00087C21.2652 6.00087 21.5196 6.10623 21.7071 6.29377C21.8946 6.4813 22 6.73566 22 7.00087ZM18 9.00087C17.8022 9.00087 17.6089 9.05952 17.4444 9.1694C17.28 9.27929 17.1518 9.43546 17.0761 9.61819C17.0004 9.80092 16.9806 10.002 17.0192 10.196C17.0578 10.3899 17.153 10.5681 17.2929 10.708C17.4327 10.8478 17.6109 10.9431 17.8049 10.9817C17.9989 11.0202 18.2 11.0004 18.3827 10.9248C18.5654 10.8491 18.7216 10.7209 18.8315 10.5564C18.9414 10.392 19 10.1987 19 10.0009C19 9.73566 18.8946 9.4813 18.7071 9.29377C18.5196 9.10623 18.2652 9.00087 18 9.00087ZM15 12.0009C14.8022 12.0009 14.6089 12.0595 14.4444 12.1694C14.28 12.2793 14.1518 12.4355 14.0761 12.6182C14.0004 12.8009 13.9806 13.002 14.0192 13.196C14.0578 13.3899 14.153 13.5681 14.2929 13.708C14.4327 13.8478 14.6109 13.9431 14.8049 13.9817C14.9989 14.0202 15.2 14.0004 15.3827 13.9248C15.5654 13.8491 15.7216 13.7209 15.8315 13.5564C15.9414 13.392 16 13.1987 16 13.0009C16 12.7357 15.8946 12.4813 15.7071 12.2938C15.5196 12.1062 15.2652 12.0009 15 12.0009ZM27.352 0.648872C27.65 0.944166 27.8569 1.31889 27.9481 1.72843C28.0392 2.13796 28.0107 2.56506 27.866 2.95887L27.791 3.16987C26.289 7.33787 24.848 11.3009 22 14.8209V15.0009C21.9956 16.7078 21.5961 18.3905 20.8327 19.9172C20.0694 21.444 18.9629 22.7732 17.6 23.8009L17.332 24.0009H13V20.4149L11 18.4149L8.707 20.7079L7.293 19.2939L9.586 17.0009L7.586 15.0009H4V10.4409L4.2 10.1749C5.23794 8.83911 6.57487 7.76559 8.10328 7.04064C9.63168 6.31569 11.3089 5.95955 13 6.00087H13.18C16.7 3.15387 20.66 1.71287 24.826 0.211872L25.042 0.134872C25.4358 -0.00983408 25.8629 -0.0383197 26.2724 0.052807C26.682 0.143934 27.0567 0.350833 27.352 0.648872V0.648872ZM6 13.0009H7.419C8.39674 11.3142 9.52857 9.72177 10.8 8.24387C8.9212 8.63253 7.22934 9.64589 6 11.1189V13.0009ZM19.7 17.2549C18.2375 18.5041 16.6643 19.6177 15 20.5819V22.0009H16.657C18.1507 20.7831 19.2167 19.1205 19.7 17.2549V17.2549ZM25.937 2.06387C25.9104 2.03423 25.8751 2.01367 25.8362 2.00506C25.7973 1.99645 25.7567 2.00023 25.72 2.01587L25.505 2.09387C20.661 3.83887 16.478 5.34687 12.876 8.94787C11.4869 10.4353 10.2705 12.075 9.25 13.8359L14.165 18.7519C15.9255 17.7305 17.5652 16.5138 19.053 15.1249C22.653 11.5249 24.163 7.33787 25.909 2.49187L25.985 2.28087C26.0005 2.24419 26.0042 2.2036 25.9956 2.16472C25.987 2.12584 25.9665 2.0906 25.937 2.06387V2.06387Z" fill="#374957"/>
</g>
<defs>
<filter id="filter0_d_403_3592" x="0" y="0" width="32" height="32" filterUnits="userSpaceOnUse" color-interpolation-filters="sRGB">
<feFlood flood-opacity="0" result="BackgroundImageFix"/>
<feColorMatrix in="SourceAlpha" type="matrix" values="0 0 0 0 0 0 0 0 0 0 0 0 0 0 0 0 0 0 127 0" result="hardAlpha"/>
<feOffset dy="4"/>
<feGaussianBlur stdDeviation="2"/>
<feComposite in2="hardAlpha" operator="out"/>
<feColorMatrix type="matrix" values="0 0 0 0 0 0 0 0 0 0 0 0 0 0 0 0 0 0 0.25 0"/>
<feBlend mode="normal" in2="BackgroundImageFix" result="effect1_dropShadow_403_3592"/>
<feBlend mode="normal" in="SourceGraphic" in2="effect1_dropShadow_403_3592" result="shape"/>
</filter>
<clipPath id="clip0_403_3592">
<rect width="24" height="24" fill="white" transform="translate(4)"/>
</clipPath>
</defs>
</svg>
