<svg width="32" height="32" viewBox="0 0 32 32" fill="none" xmlns="http://www.w3.org/2000/svg">
<g clip-path="url(#clip0_403_3512)" filter="url(#filter0_d_403_3512)">
<path d="M25.85 2.97644L16.414 0.120448C15.6522 -0.100859 14.8337 -0.0114164 14.1377 0.369207C13.4417 0.749829 12.9247 1.39064 12.7 2.15145L12.141 3.99944H7C6.20435 3.99944 5.44129 4.31551 4.87868 4.87812C4.31607 5.44073 4 6.20379 4 6.99944V23.9994H20V21.9544L23.1 23.1064L27.88 6.69244C28.102 5.93049 28.013 5.11165 27.6325 4.41518C27.252 3.71871 26.6111 3.20138 25.85 2.97644V2.97644ZM18 21.9994H6V6.99944C6 6.73422 6.10536 6.47987 6.29289 6.29233C6.48043 6.1048 6.73478 5.99944 7 5.99944H17C17.2652 5.99944 17.5196 6.1048 17.7071 6.29233C17.8946 6.47987 18 6.73422 18 6.99944V21.9994ZM25.96 6.13344L21.78 20.4824L20 19.8194V6.99944C20 6.20379 19.6839 5.44073 19.1213 4.87812C18.5587 4.31551 17.7956 3.99944 17 3.99944H14.23L14.614 2.71944C14.65 2.59265 14.7109 2.47429 14.7932 2.37128C14.8754 2.26827 14.9773 2.18266 15.093 2.11945C15.2063 2.0561 15.331 2.01589 15.4599 2.00112C15.5888 1.98636 15.7194 1.99735 15.844 2.03345L25.279 4.88944C25.4056 4.92608 25.5237 4.98739 25.6265 5.06983C25.7294 5.15227 25.8149 5.25423 25.8782 5.36984C25.9415 5.48545 25.9813 5.61242 25.9953 5.74347C26.0094 5.87452 25.9974 6.00705 25.96 6.13344V6.13344ZM16 12.9994C16 15.3324 12 17.9994 12 17.9994C12 17.9994 8 15.3324 8 12.9994C8 12.469 8.21071 11.9603 8.58579 11.5852C8.96086 11.2101 9.46957 10.9994 10 10.9994C10.5304 10.9994 11.0391 11.2101 11.4142 11.5852C11.7893 11.9603 12 12.469 12 12.9994C12 12.469 12.2107 11.9603 12.5858 11.5852C12.9609 11.2101 13.4696 10.9994 14 10.9994C14.5304 10.9994 15.0391 11.2101 15.4142 11.5852C15.7893 11.9603 16 12.469 16 12.9994V12.9994Z" fill="#374957"/>
</g>
<defs>
<filter id="filter0_d_403_3512" x="0" y="0" width="32" height="32" filterUnits="userSpaceOnUse" color-interpolation-filters="sRGB">
<feFlood flood-opacity="0" result="BackgroundImageFix"/>
<feColorMatrix in="SourceAlpha" type="matrix" values="0 0 0 0 0 0 0 0 0 0 0 0 0 0 0 0 0 0 127 0" result="hardAlpha"/>
<feOffset dy="4"/>
<feGaussianBlur stdDeviation="2"/>
<feComposite in2="hardAlpha" operator="out"/>
<feColorMatrix type="matrix" values="0 0 0 0 0 0 0 0 0 0 0 0 0 0 0 0 0 0 0.25 0"/>
<feBlend mode="normal" in2="BackgroundImageFix" result="effect1_dropShadow_403_3512"/>
<feBlend mode="normal" in="SourceGraphic" in2="effect1_dropShadow_403_3512" result="shape"/>
</filter>
<clipPath id="clip0_403_3512">
<rect width="24" height="24" fill="white" transform="translate(4)"/>
</clipPath>
</defs>
</svg>
