<svg width="24" height="24" viewBox="0 0 24 24" fill="none" xmlns="http://www.w3.org/2000/svg">
<g clip-path="url(#clip0_403_3423)">
<path d="M11.9579 24.0078L11.2608 23.4103C10.2998 22.6056 1.90889 15.3589 1.90889 10.058C1.90889 4.50814 6.408 0.0090332 11.9579 0.0090332C17.5078 0.0090332 22.0069 4.50814 22.0069 10.058C22.0069 15.3589 13.616 22.6056 12.659 23.4142L11.9579 24.0078ZM11.9579 2.18192C7.61011 2.18685 4.08675 5.71021 4.08183 10.058C4.08183 13.3881 9.24426 18.7078 11.9579 21.1427C14.6716 18.7069 19.834 13.3841 19.834 10.058C19.8291 5.71021 16.3057 2.18689 11.9579 2.18192Z" fill="#374957"/>
<path d="M11.958 14.041C9.75808 14.041 7.97467 12.2576 7.97467 10.0577C7.97467 7.85775 9.75808 6.07434 11.958 6.07434C14.158 6.07434 15.9414 7.85775 15.9414 10.0577C15.9414 12.2576 14.158 14.041 11.958 14.041ZM11.958 8.06597C10.858 8.06597 9.96634 8.95767 9.96634 10.0576C9.96634 11.1576 10.858 12.0493 11.958 12.0493C13.058 12.0493 13.9497 11.1576 13.9497 10.0576C13.9497 8.95767 13.058 8.06597 11.958 8.06597Z" fill="#374957"/>
</g>
<defs>
<clipPath id="clip0_403_3423">
<rect width="24" height="24" fill="white"/>
</clipPath>
</defs>
</svg>
