<svg width="24" height="24" viewBox="0 0 24 24" fill="none" xmlns="http://www.w3.org/2000/svg">
<g clip-path="url(#clip0_403_3451)">
<path d="M24.0003 4.00037H10.0003V6.00036H24.0003V4.00037Z" fill="#374957"/>
<path d="M24.0003 11.0007H10.0003V13.0007H24.0003V11.0007Z" fill="#374957"/>
<path d="M24.0003 18H10.0003V20H24.0003V18Z" fill="#374957"/>
<path d="M8 6.00034L4.707 2.70734C4.51947 2.51987 4.26516 2.41455 4 2.41455C3.73484 2.41455 3.48053 2.51987 3.293 2.70734L0 6.00034H3V18.0003H0L3.293 21.2933C3.48053 21.4808 3.73484 21.5861 4 21.5861C4.26516 21.5861 4.51947 21.4808 4.707 21.2933L8 18.0003H5V6.00034H8Z" fill="#374957"/>
</g>
<defs>
<clipPath id="clip0_403_3451">
<rect width="24" height="24" fill="white"/>
</clipPath>
</defs>
</svg>
