<svg width="32" height="32" viewBox="0 0 32 32" fill="none" xmlns="http://www.w3.org/2000/svg">
<g clip-path="url(#clip0_403_3482)" filter="url(#filter0_d_403_3482)">
<path d="M27.121 7.1221L24.707 4.7071L26.707 2.7071L25.293 1.2931L23.293 3.2931L20.879 0.879103C20.6004 0.600474 20.2697 0.37945 19.9057 0.228654C19.5417 0.0778583 19.1515 0.000244141 18.7575 0.000244141C18.3635 0.000244141 17.9733 0.0778583 17.6093 0.228654C17.2453 0.37945 16.9146 0.600474 16.636 0.879103L13.808 3.7071L18.343 8.2431L12.243 14.3431L7.707 9.8081L4.879 12.6361C4.31659 13.1987 4.00064 13.9616 4.00064 14.7571C4.00064 15.5526 4.31659 16.3155 4.879 16.8781L7.293 19.2931L5.293 21.2931L6.707 22.7071L8.707 20.7071L11.121 23.1211C11.3996 23.3997 11.7303 23.6208 12.0943 23.7716C12.4583 23.9223 12.8485 24 13.2425 24C13.6365 24 14.0267 23.9223 14.3907 23.7716C14.7547 23.6208 15.0854 23.3997 15.364 23.1211L18.192 20.2931L13.657 15.7571L19.757 9.6571L24.292 14.1921L27.12 11.3641C27.6824 10.8015 27.9984 10.0386 27.9984 9.2431C27.9984 8.44761 27.6824 7.68469 27.12 7.1221H27.121ZM13.95 21.7071C13.8571 21.8001 13.7468 21.8738 13.6254 21.9242C13.504 21.9745 13.3739 22.0004 13.2425 22.0004C13.1111 22.0004 12.981 21.9745 12.8596 21.9242C12.7382 21.8738 12.6279 21.8001 12.535 21.7071L6.293 15.4641C6.10553 15.2766 6.00021 15.0223 6.00021 14.7571C6.00021 14.4919 6.10553 14.2376 6.293 14.0501L7.707 12.6361L15.364 20.2931L13.95 21.7071ZM25.707 9.9491L24.293 11.3641L16.636 3.7071L18.05 2.2931C18.1429 2.20013 18.2532 2.12637 18.3746 2.07604C18.496 2.02572 18.6261 1.99982 18.7575 1.99982C18.8889 1.99982 19.019 2.02572 19.1404 2.07604C19.2618 2.12637 19.3721 2.20013 19.465 2.2931L25.707 8.5361C25.8942 8.72359 25.9993 8.97768 25.9993 9.2426C25.9993 9.50752 25.8942 9.76162 25.707 9.9491V9.9491Z" fill="#374957"/>
</g>
<defs>
<filter id="filter0_d_403_3482" x="0" y="0" width="32" height="32" filterUnits="userSpaceOnUse" color-interpolation-filters="sRGB">
<feFlood flood-opacity="0" result="BackgroundImageFix"/>
<feColorMatrix in="SourceAlpha" type="matrix" values="0 0 0 0 0 0 0 0 0 0 0 0 0 0 0 0 0 0 127 0" result="hardAlpha"/>
<feOffset dy="4"/>
<feGaussianBlur stdDeviation="2"/>
<feComposite in2="hardAlpha" operator="out"/>
<feColorMatrix type="matrix" values="0 0 0 0 0 0 0 0 0 0 0 0 0 0 0 0 0 0 0.25 0"/>
<feBlend mode="normal" in2="BackgroundImageFix" result="effect1_dropShadow_403_3482"/>
<feBlend mode="normal" in="SourceGraphic" in2="effect1_dropShadow_403_3482" result="shape"/>
</filter>
<clipPath id="clip0_403_3482">
<rect width="24" height="24" fill="white" transform="translate(4)"/>
</clipPath>
</defs>
</svg>
