<svg width="24" height="24" viewBox="0 0 24 24" fill="none" xmlns="http://www.w3.org/2000/svg">
<g clip-path="url(#clip0_403_3593)">
<path d="M5.49988 17.0001C6.32831 17.0001 6.99988 16.3285 6.99988 15.5001C6.99988 14.6717 6.32831 14.0001 5.49988 14.0001C4.67145 14.0001 3.99988 14.6717 3.99988 15.5001C3.99988 16.3285 4.67145 17.0001 5.49988 17.0001Z" fill="#374957"/>
<path d="M21 3H3C2.20435 3 1.44129 3.31607 0.87868 3.87868C0.31607 4.44129 0 5.20435 0 6L0 21H24V6C24 5.20435 23.6839 4.44129 23.1213 3.87868C22.5587 3.31607 21.7956 3 21 3ZM3 5H21C21.2652 5 21.5196 5.10536 21.7071 5.29289C21.8946 5.48043 22 5.73478 22 6V8H2V6C2 5.73478 2.10536 5.48043 2.29289 5.29289C2.48043 5.10536 2.73478 5 3 5V5ZM2 19V10H22V19H2Z" fill="#374957"/>
</g>
<defs>
<clipPath id="clip0_403_3593">
<rect width="24" height="24" fill="white"/>
</clipPath>
</defs>
</svg>
