<svg width="32" height="32" viewBox="0 0 32 32" fill="none" xmlns="http://www.w3.org/2000/svg">
<g clip-path="url(#clip0_403_3522)" filter="url(#filter0_d_403_3522)">
<path d="M26 10H28V24H4V6C4 5.20435 4.31607 4.44129 4.87868 3.87868C5.44129 3.31607 6.20435 3 7 3H18V5H7C6.73478 5 6.48043 5.10536 6.29289 5.29289C6.10536 5.48043 6 5.73478 6 6V6.242L13.878 14.122C14.4498 14.6675 15.2097 14.9719 16 14.9719C16.7903 14.9719 17.5502 14.6675 18.122 14.122L22.242 10H25.071L19.536 15.536C19.0717 16.0004 18.5204 16.3688 17.9137 16.6202C17.307 16.8716 16.6567 17.0009 16 17.0009C15.3433 17.0009 14.693 16.8716 14.0863 16.6202C13.4796 16.3688 12.9283 16.0004 12.464 15.536L6 9.071V22H26V10ZM25 3V0H23V3H20V5H23V8H25V5H28V3H25Z" fill="#374957"/>
</g>
<defs>
<filter id="filter0_d_403_3522" x="0" y="0" width="32" height="32" filterUnits="userSpaceOnUse" color-interpolation-filters="sRGB">
<feFlood flood-opacity="0" result="BackgroundImageFix"/>
<feColorMatrix in="SourceAlpha" type="matrix" values="0 0 0 0 0 0 0 0 0 0 0 0 0 0 0 0 0 0 127 0" result="hardAlpha"/>
<feOffset dy="4"/>
<feGaussianBlur stdDeviation="2"/>
<feComposite in2="hardAlpha" operator="out"/>
<feColorMatrix type="matrix" values="0 0 0 0 0 0 0 0 0 0 0 0 0 0 0 0 0 0 0.25 0"/>
<feBlend mode="normal" in2="BackgroundImageFix" result="effect1_dropShadow_403_3522"/>
<feBlend mode="normal" in="SourceGraphic" in2="effect1_dropShadow_403_3522" result="shape"/>
</filter>
<clipPath id="clip0_403_3522">
<rect width="24" height="24" fill="white" transform="translate(4)"/>
</clipPath>
</defs>
</svg>
