<svg width="32" height="32" viewBox="0 0 32 32" fill="none" xmlns="http://www.w3.org/2000/svg">
<g clip-path="url(#clip0_403_3688)" filter="url(#filter0_d_403_3688)">
<path d="M28 16V24H20C18.5971 23.9986 17.2192 23.6282 16.0047 22.9262C14.7901 22.2241 13.7815 21.2149 13.08 20C13.8339 19.9946 14.5852 19.9115 15.322 19.752C15.8831 20.4536 16.595 21.02 17.4048 21.4092C18.2146 21.7983 19.1016 22.0002 20 22H26V16C25.9998 15.1012 25.7972 14.2141 25.4074 13.4042C25.0175 12.5944 24.4504 11.8828 23.748 11.322C23.9088 10.5853 23.9933 9.83401 24 9.08C25.2149 9.78145 26.2241 10.7901 26.9262 12.0047C27.6282 13.2192 27.9986 14.5971 28 16ZM22 9C22 6.61305 21.0518 4.32387 19.364 2.63604C17.6761 0.948212 15.3869 0 13 0C10.6131 0 8.32387 0.948212 6.63604 2.63604C4.94821 4.32387 4 6.61305 4 9L4 18H13C15.3861 17.9974 17.6738 17.0483 19.361 15.361C21.0483 13.6738 21.9974 11.3861 22 9V9ZM6 9C6 7.61553 6.41054 6.26215 7.17971 5.11101C7.94888 3.95986 9.04213 3.06266 10.3212 2.53284C11.6003 2.00303 13.0078 1.86441 14.3656 2.1345C15.7235 2.4046 16.9708 3.07128 17.9497 4.05025C18.9287 5.02922 19.5954 6.2765 19.8655 7.63437C20.1356 8.99223 19.997 10.3997 19.4672 11.6788C18.9373 12.9579 18.0401 14.0511 16.889 14.8203C15.7378 15.5895 14.3845 16 13 16H6V9Z" fill="#374957"/>
</g>
<defs>
<filter id="filter0_d_403_3688" x="0" y="0" width="32" height="32" filterUnits="userSpaceOnUse" color-interpolation-filters="sRGB">
<feFlood flood-opacity="0" result="BackgroundImageFix"/>
<feColorMatrix in="SourceAlpha" type="matrix" values="0 0 0 0 0 0 0 0 0 0 0 0 0 0 0 0 0 0 127 0" result="hardAlpha"/>
<feOffset dy="4"/>
<feGaussianBlur stdDeviation="2"/>
<feComposite in2="hardAlpha" operator="out"/>
<feColorMatrix type="matrix" values="0 0 0 0 0 0 0 0 0 0 0 0 0 0 0 0 0 0 0.25 0"/>
<feBlend mode="normal" in2="BackgroundImageFix" result="effect1_dropShadow_403_3688"/>
<feBlend mode="normal" in="SourceGraphic" in2="effect1_dropShadow_403_3688" result="shape"/>
</filter>
<clipPath id="clip0_403_3688">
<rect width="24" height="24" fill="white" transform="translate(4)"/>
</clipPath>
</defs>
</svg>
