<svg width="24" height="24" viewBox="0 0 24 24" fill="none" xmlns="http://www.w3.org/2000/svg">
<g clip-path="url(#clip0_403_3698)">
<path d="M14 15.9998H12V11.9998C11.9994 10.9263 11.7108 9.87268 11.1643 8.94873C10.6178 8.02478 9.83344 7.26437 8.893 6.74678C9.43391 6.18029 9.7966 5.46746 9.93607 4.69672C10.0755 3.92598 9.98567 3.13125 9.67759 2.41112C9.36952 1.691 8.8568 1.07717 8.20304 0.64578C7.54928 0.214393 6.78326 -0.015564 6 -0.015564C5.21674 -0.015564 4.45072 0.214393 3.79696 0.64578C3.1432 1.07717 2.63048 1.691 2.32241 2.41112C2.01433 3.13125 1.92445 3.92598 2.06393 4.69672C2.2034 5.46746 2.56609 6.18029 3.107 6.74678C2.16656 7.26437 1.3822 8.02478 0.835712 8.94873C0.289224 9.87268 0.000622181 10.9263 0 11.9998L0 23.9998H2V17.9998H22V23.9998H24V7.99978H14V15.9998ZM4 3.99978C4 3.60422 4.1173 3.21754 4.33706 2.88864C4.55682 2.55974 4.86918 2.3034 5.23463 2.15202C5.60009 2.00065 6.00222 1.96104 6.39018 2.03821C6.77814 2.11538 7.13451 2.30586 7.41421 2.58557C7.69392 2.86527 7.8844 3.22164 7.96157 3.6096C8.03874 3.99756 7.99913 4.3997 7.84776 4.76515C7.69638 5.1306 7.44004 5.44296 7.11114 5.66272C6.78224 5.88248 6.39556 5.99978 6 5.99978C5.46957 5.99978 4.96086 5.78907 4.58579 5.414C4.21071 5.03892 4 4.53021 4 3.99978V3.99978ZM2 11.9998C2 10.9389 2.42143 9.9215 3.17157 9.17136C3.92172 8.42121 4.93913 7.99978 6 7.99978C7.06087 7.99978 8.07828 8.42121 8.82843 9.17136C9.57857 9.9215 10 10.9389 10 11.9998V15.9998H2V11.9998ZM18 9.99978V11.9998H20V9.99978H22V15.9998H16V9.99978H18Z" fill="#374957"/>
</g>
<defs>
<clipPath id="clip0_403_3698">
<rect width="24" height="24" fill="white"/>
</clipPath>
</defs>
</svg>
