<svg width="24" height="24" viewBox="0 0 24 24" fill="none" xmlns="http://www.w3.org/2000/svg">
<g clip-path="url(#clip0_403_3502)">
<path d="M21 3.00024H12.236L8.23599 1.00024H2.99999C2.20434 1.00024 1.44128 1.31631 0.878672 1.87892C0.316063 2.44153 -7.62939e-06 3.20459 -7.62939e-06 4.00024L-7.62939e-06 23.0002H24V6.00024C24 5.20459 23.6839 4.44153 23.1213 3.87892C22.5587 3.31631 21.7956 3.00024 21 3.00024ZM2.99999 3.00024H7.76399L11.764 5.00024H21C21.2652 5.00024 21.5196 5.1056 21.7071 5.29314C21.8946 5.48067 22 5.73503 22 6.00024V6.88124L1.99999 6.99424V4.00024C1.99999 3.73503 2.10535 3.48067 2.29289 3.29314C2.48042 3.1056 2.73478 3.00024 2.99999 3.00024V3.00024ZM1.99999 21.0002V8.99424L22 8.88124V21.0002H1.99999Z" fill="#374957"/>
</g>
<defs>
<clipPath id="clip0_403_3502">
<rect width="24" height="24" fill="white"/>
</clipPath>
</defs>
</svg>
