<svg width="32" height="31" viewBox="0 0 32 31" fill="none" xmlns="http://www.w3.org/2000/svg">
<g clip-path="url(#clip0_403_3787)" filter="url(#filter0_d_403_3787)">
<path d="M23.7899 12.0799C23.0199 9.21194 21.8669 6.06694 21.2899 4.54594C21.7799 4.3467 22.2807 4.17509 22.7899 4.03194C22.9288 3.99577 23.0742 3.9922 23.2147 4.02151C23.3552 4.05083 23.4871 4.11224 23.5999 4.20094C23.7246 4.29591 23.8256 4.41846 23.895 4.55899C23.9644 4.69952 24.0003 4.85421 23.9999 5.01094H25.9999C26.0014 4.54765 25.8955 4.09032 25.6906 3.6748C25.4857 3.25927 25.1873 2.89685 24.8189 2.61594C24.4638 2.33927 24.0493 2.14868 23.6081 2.05915C23.1668 1.96962 22.7108 1.98359 22.2759 2.09994C21.3588 2.36818 20.4611 2.69862 19.5889 3.08894L18.7159 3.48194L19.0709 4.37194C19.0809 4.39694 19.5769 5.64094 20.1919 7.36294L16.0199 10.6069L12.4139 6.99994H13.9999V4.99994H7.99994V6.99994H9.58594L14.4289 11.8439L12.4419 13.3899C11.5483 12.5479 10.374 12.0675 9.14645 12.0416C7.91889 12.0157 6.72539 12.4463 5.79705 13.2498C4.8687 14.0534 4.27156 15.1729 4.12124 16.3915C3.97091 17.6101 4.2781 18.8411 4.98333 19.8462C5.68855 20.8513 6.74164 21.559 7.93869 21.8322C9.13574 22.1054 10.3916 21.9247 11.4631 21.3251C12.5345 20.7256 13.3454 19.7497 13.7387 18.5866C14.132 17.4234 14.0797 16.1557 13.5919 15.0289L20.8799 9.35994C21.1799 10.2789 21.4799 11.2409 21.7459 12.1789C20.5489 12.491 19.51 13.2356 18.8301 14.2691C18.1502 15.3025 17.8775 16.5513 18.0647 17.774C18.2519 18.9968 18.8858 20.1068 19.8438 20.8894C20.8018 21.672 22.0159 22.0718 23.2514 22.0113C24.487 21.9509 25.6562 21.4345 26.5333 20.5621C27.4103 19.6897 27.9328 18.5232 27.9997 17.288C28.0667 16.0528 27.6734 14.8366 26.8959 13.8745C26.1183 12.9123 25.0117 12.2726 23.7899 12.0789V12.0799ZM8.99994 19.9999C8.4066 19.9999 7.82658 19.824 7.33323 19.4944C6.83989 19.1647 6.45537 18.6962 6.22831 18.148C6.00124 17.5998 5.94183 16.9966 6.05759 16.4147C6.17335 15.8327 6.45907 15.2982 6.87862 14.8786C7.29818 14.4591 7.83273 14.1733 8.41467 14.0576C8.99661 13.9418 9.59981 14.0012 10.148 14.2283C10.6962 14.4554 11.1647 14.8399 11.4943 15.3332C11.824 15.8266 11.9999 16.4066 11.9999 16.9999C11.9999 17.7956 11.6839 18.5587 11.1213 19.1213C10.5587 19.6839 9.79559 19.9999 8.99994 19.9999ZM22.9999 19.9999C22.4066 19.9999 21.8266 19.824 21.3332 19.4944C20.8399 19.1647 20.4554 18.6962 20.2283 18.148C20.0012 17.5998 19.9418 16.9966 20.0576 16.4147C20.1733 15.8327 20.4591 15.2982 20.8786 14.8786C21.2982 14.4591 21.8327 14.1733 22.4147 14.0576C22.9966 13.9418 23.5998 14.0012 24.148 14.2283C24.6962 14.4554 25.1647 14.8399 25.4943 15.3332C25.824 15.8266 25.9999 16.4066 25.9999 16.9999C25.9999 17.7956 25.6839 18.5587 25.1212 19.1213C24.5586 19.6839 23.7956 19.9999 22.9999 19.9999Z" fill="#374957"/>
</g>
<defs>
<filter id="filter0_d_403_3787" x="0" y="0" width="32" height="32" filterUnits="userSpaceOnUse" color-interpolation-filters="sRGB">
<feFlood flood-opacity="0" result="BackgroundImageFix"/>
<feColorMatrix in="SourceAlpha" type="matrix" values="0 0 0 0 0 0 0 0 0 0 0 0 0 0 0 0 0 0 127 0" result="hardAlpha"/>
<feOffset dy="4"/>
<feGaussianBlur stdDeviation="2"/>
<feComposite in2="hardAlpha" operator="out"/>
<feColorMatrix type="matrix" values="0 0 0 0 0 0 0 0 0 0 0 0 0 0 0 0 0 0 0.25 0"/>
<feBlend mode="normal" in2="BackgroundImageFix" result="effect1_dropShadow_403_3787"/>
<feBlend mode="normal" in="SourceGraphic" in2="effect1_dropShadow_403_3787" result="shape"/>
</filter>
<clipPath id="clip0_403_3787">
<rect width="24" height="24" fill="white" transform="translate(4)"/>
</clipPath>
</defs>
</svg>
