<svg width="24" height="24" viewBox="0 0 24 24" fill="none" xmlns="http://www.w3.org/2000/svg">
<g clip-path="url(#clip0_403_3577)">
<path d="M17.7915 7.21208C17.3472 5.30137 16.2162 3.62053 14.6137 2.48907C13.0111 1.35761 11.0487 0.854401 9.09947 1.0751C7.15021 1.2958 5.34999 2.22502 4.04099 3.68613C2.73199 5.14724 2.00547 7.03838 1.99953 9.00008C1.99807 10.2785 2.30691 11.5383 2.89953 12.6711C1.82066 13.2492 0.965933 14.1713 0.471153 15.2909C-0.023628 16.4104 -0.130082 17.6632 0.168705 18.8502C0.467492 20.0372 1.15438 21.0903 2.12024 21.8422C3.0861 22.5941 4.27552 23.0016 5.49953 23.0001H11.9995V21.0001H5.49953C4.64796 21.0026 3.82482 20.6938 3.18505 20.1318C2.54528 19.5697 2.13302 18.7932 2.02585 17.9484C1.91868 17.1036 2.124 16.2488 2.60317 15.5448C3.08233 14.8408 3.80229 14.3363 4.62753 14.1261L6.06453 13.7551L5.18153 12.5621C4.41307 11.5336 3.99838 10.2839 3.99953 9.00008C4.01094 7.48607 4.59432 6.03234 5.63267 4.93044C6.67103 3.82853 8.08758 3.15993 9.59825 3.05871C11.1089 2.9575 12.602 3.43115 13.7781 4.38468C14.9542 5.33822 15.7263 6.70112 15.9395 8.20008L16.0395 8.95808L16.7965 9.05808C18.1325 9.23318 19.3704 9.8536 20.3103 10.8191C21.2502 11.7846 21.837 13.0388 21.9761 14.379C22.1152 15.7192 21.7984 17.0671 21.0768 18.2051C20.3552 19.343 19.2711 20.2044 17.9995 20.6501V22.7371C19.7339 22.2911 21.2681 21.2753 22.3559 19.8527C23.4437 18.4302 24.022 16.6834 23.998 14.8928C23.974 13.1022 23.3491 11.3716 22.2236 9.97869C21.0981 8.58582 19.5372 7.61149 17.7915 7.21208V7.21208Z" fill="#374957"/>
<path d="M18.293 17.7072L19.707 16.2932L16.414 13.0002C16.0389 12.6253 15.5303 12.4147 15 12.4147C14.4696 12.4147 13.961 12.6253 13.586 13.0002L10.293 16.2932L11.707 17.7072L14 15.4142V24.0002H16V15.4142L18.293 17.7072Z" fill="#374957"/>
</g>
<defs>
<clipPath id="clip0_403_3577">
<rect width="24" height="24" fill="white"/>
</clipPath>
</defs>
</svg>
