<svg width="32" height="32" viewBox="0 0 32 32" fill="none" xmlns="http://www.w3.org/2000/svg">
<g clip-path="url(#clip0_403_3499)" filter="url(#filter0_d_403_3499)">
<path d="M16 0C13.6266 0 11.3066 0.703788 9.33316 2.02236C7.35977 3.34094 5.8217 5.21509 4.91345 7.4078C4.0052 9.60051 3.76756 12.0133 4.23058 14.3411C4.6936 16.6689 5.83649 18.8071 7.51472 20.4853C9.19295 22.1635 11.3312 23.3064 13.6589 23.7694C15.9867 24.2324 18.3995 23.9948 20.5922 23.0866C22.7849 22.1783 24.6591 20.6402 25.9776 18.6668C27.2962 16.6935 28 14.3734 28 12C27.9966 8.81846 26.7312 5.76821 24.4815 3.51852C22.2318 1.26883 19.1815 0.00344108 16 0V0ZM24.227 6.329C25.2734 7.84439 25.878 9.62087 25.973 11.46L23.237 9.533L24.227 6.329ZM18.711 2.384L16 4.354L13.289 2.384C15.0601 1.87202 16.9399 1.87202 18.711 2.384V2.384ZM18.5 11.056L17.548 14H14.448L13.5 11.056L16 9.236L18.5 11.056ZM8.76301 9.533L6.02701 11.46C6.12218 9.62105 6.7263 7.84468 7.77201 6.329L8.76301 9.533ZM8.00701 17.985L11.482 18L12.567 21.38C10.7515 20.7116 9.16793 19.5326 8.00701 17.985V17.985ZM14.843 21.927L12.942 16L6.83101 15.982C6.52862 15.2843 6.3075 14.5542 6.17201 13.806L11.1 10.331L9.32401 4.576C9.8741 4.07745 10.4778 3.64145 11.124 3.276L15.957 6.8L11.144 10.3L13 16H19L20.855 10.292L16.043 6.8L20.88 3.28C21.5262 3.64545 22.1299 4.08145 22.68 4.58L20.9 10.331L25.831 13.805C25.6956 14.5529 25.4744 15.2827 25.172 15.98L19.058 16L17.158 21.927C16.3897 22.0243 15.6123 22.0243 14.844 21.927H14.843ZM19.432 21.38L20.518 18L23.993 17.989C22.8318 19.5358 21.2477 20.7135 19.432 21.38V21.38Z" fill="#374957"/>
</g>
<defs>
<filter id="filter0_d_403_3499" x="0" y="0" width="32" height="32" filterUnits="userSpaceOnUse" color-interpolation-filters="sRGB">
<feFlood flood-opacity="0" result="BackgroundImageFix"/>
<feColorMatrix in="SourceAlpha" type="matrix" values="0 0 0 0 0 0 0 0 0 0 0 0 0 0 0 0 0 0 127 0" result="hardAlpha"/>
<feOffset dy="4"/>
<feGaussianBlur stdDeviation="2"/>
<feComposite in2="hardAlpha" operator="out"/>
<feColorMatrix type="matrix" values="0 0 0 0 0 0 0 0 0 0 0 0 0 0 0 0 0 0 0.25 0"/>
<feBlend mode="normal" in2="BackgroundImageFix" result="effect1_dropShadow_403_3499"/>
<feBlend mode="normal" in="SourceGraphic" in2="effect1_dropShadow_403_3499" result="shape"/>
</filter>
<clipPath id="clip0_403_3499">
<rect width="24" height="24" fill="white" transform="translate(4)"/>
</clipPath>
</defs>
</svg>
