<svg width="24" height="24" viewBox="0 0 24 24" fill="none" xmlns="http://www.w3.org/2000/svg">
<g clip-path="url(#clip0_403_3529)">
<path d="M18 8.2V0H20V8.2L22.242 5.958L23.656 7.372L20.747 10.281C20.2835 10.744 19.6551 11.0041 19 11.0041C18.3449 11.0041 17.7165 10.744 17.253 10.281L14.382 7.406L15.8 5.992L18 8.2ZM22.161 11.7C22.111 11.75 22.052 11.786 22 11.833V22H2V9.07L8.465 15.536C9.40264 16.4734 10.6742 16.9999 12 16.9999C13.3258 16.9999 14.5974 16.4734 15.535 15.536L18.153 12.917C17.4481 12.7787 16.7878 12.4697 16.23 12.017L14.121 14.126C13.5493 14.671 12.7898 14.975 12 14.975C11.2102 14.975 10.4507 14.671 9.879 14.126L2 6.242V6C2 5.73478 2.10536 5.48043 2.29289 5.29289C2.48043 5.10536 2.73478 5 3 5H14L16 3H3C2.20435 3 1.44129 3.31607 0.87868 3.87868C0.31607 4.44129 0 5.20435 0 6L0 24H24V9.852L22.161 11.7Z" fill="#374957"/>
</g>
<defs>
<clipPath id="clip0_403_3529">
<rect width="24" height="24" fill="white"/>
</clipPath>
</defs>
</svg>
