<svg width="24" height="24" viewBox="0 0 24 24" fill="none" xmlns="http://www.w3.org/2000/svg">
<g clip-path="url(#clip0_403_3783)">
<path d="M19 8.184V0H5V8.184C4.41709 8.39008 3.91209 8.77123 3.55409 9.2753C3.19608 9.77937 3.00256 10.3817 3 11V15C3 17.3869 3.94821 19.6761 5.63604 21.364C7.32387 23.0518 9.61305 24 12 24C14.3869 24 16.6761 23.0518 18.364 21.364C20.0518 19.6761 21 17.3869 21 15V11C20.9974 10.3817 20.8039 9.77937 20.4459 9.2753C20.0879 8.77123 19.5829 8.39008 19 8.184V8.184ZM7 2H17V8H7V2ZM19 15C19 16.8565 18.2625 18.637 16.9497 19.9497C15.637 21.2625 13.8565 22 12 22C10.1435 22 8.36301 21.2625 7.05025 19.9497C5.7375 18.637 5 16.8565 5 15V11C5 10.7348 5.10536 10.4804 5.29289 10.2929C5.48043 10.1054 5.73478 10 6 10H18C18.2652 10 18.5196 10.1054 18.7071 10.2929C18.8946 10.4804 19 10.7348 19 11V15Z" fill="#374957"/>
<path d="M14.9999 3.99939H12.9999V5.99939H14.9999V3.99939Z" fill="#374957"/>
<path d="M11 3.99939H9V5.99939H11V3.99939Z" fill="#374957"/>
</g>
<defs>
<clipPath id="clip0_403_3783">
<rect width="24" height="24" fill="white"/>
</clipPath>
</defs>
</svg>
