<svg width="32" height="32" viewBox="0 0 32 32" fill="none" xmlns="http://www.w3.org/2000/svg">
<g clip-path="url(#clip0_403_3786)" filter="url(#filter0_d_403_3786)">
<path d="M16 0C13.6266 0 11.3066 0.703788 9.33316 2.02236C7.35977 3.34094 5.8217 5.21509 4.91345 7.4078C4.0052 9.60051 3.76756 12.0133 4.23058 14.3411C4.6936 16.6689 5.83649 18.8071 7.51472 20.4853C9.19295 22.1635 11.3312 23.3064 13.6589 23.7694C15.9867 24.2324 18.3995 23.9948 20.5922 23.0866C22.7849 22.1783 24.6591 20.6402 25.9776 18.6668C27.2962 16.6935 28 14.3734 28 12C27.9966 8.81846 26.7312 5.76821 24.4815 3.51852C22.2318 1.26883 19.1815 0.00344108 16 0V0ZM26 12C26.0006 13.9492 25.4283 15.8556 24.354 17.482C23.4918 16.5222 23.0102 15.2802 23 13.99V12H17C16.7348 12 16.4804 11.8946 16.2929 11.7071C16.1054 11.5196 16 11.2652 16 11V10H19V6H21.914L23.023 4.891C23.9662 5.81908 24.7152 6.92564 25.2263 8.14617C25.7374 9.3667 26.0004 10.6768 26 12V12ZM6.04901 12.963L10.086 17H14C14.2652 17 14.5196 17.1054 14.7071 17.2929C14.8946 17.4804 15 17.7348 15 18V21.949C12.7002 21.7142 10.5524 20.6912 8.92093 19.0533C7.28947 17.4155 6.27479 15.2637 6.04901 12.963V12.963ZM17 21.949V18C17 17.2044 16.6839 16.4413 16.1213 15.8787C15.5587 15.3161 14.7957 15 14 15H10.914L6.16301 10.249C6.44918 8.6222 7.13474 7.09189 8.15818 5.79538C9.18162 4.49887 10.5109 3.47671 12.0268 2.82061C13.5427 2.16452 15.1977 1.89502 16.8435 2.03628C18.4892 2.17755 20.0741 2.72517 21.456 3.63L21.086 4H17V8H14V11C14 11.7957 14.3161 12.5587 14.8787 13.1213C15.4413 13.6839 16.2044 14 17 14H21C20.9977 15.8945 21.7421 17.7137 23.072 19.063C21.4432 20.699 19.2971 21.7191 17 21.949V21.949Z" fill="#374957"/>
</g>
<defs>
<filter id="filter0_d_403_3786" x="0" y="0" width="32" height="32" filterUnits="userSpaceOnUse" color-interpolation-filters="sRGB">
<feFlood flood-opacity="0" result="BackgroundImageFix"/>
<feColorMatrix in="SourceAlpha" type="matrix" values="0 0 0 0 0 0 0 0 0 0 0 0 0 0 0 0 0 0 127 0" result="hardAlpha"/>
<feOffset dy="4"/>
<feGaussianBlur stdDeviation="2"/>
<feComposite in2="hardAlpha" operator="out"/>
<feColorMatrix type="matrix" values="0 0 0 0 0 0 0 0 0 0 0 0 0 0 0 0 0 0 0.25 0"/>
<feBlend mode="normal" in2="BackgroundImageFix" result="effect1_dropShadow_403_3786"/>
<feBlend mode="normal" in="SourceGraphic" in2="effect1_dropShadow_403_3786" result="shape"/>
</filter>
<clipPath id="clip0_403_3786">
<rect width="24" height="24" fill="white" transform="translate(4)"/>
</clipPath>
</defs>
</svg>
