<svg width="24" height="24" viewBox="0 0 24 24" fill="none" xmlns="http://www.w3.org/2000/svg">
<g clip-path="url(#clip0_403_3772)">
<path d="M18.9998 14.0068C18.9998 12.8552 18.7158 11.7213 18.1728 10.7057C17.6298 9.69016 16.8446 8.82424 15.8868 8.18475C14.929 7.54526 13.8283 7.15195 12.6821 7.03969C11.5359 6.92743 10.3798 7.09969 9.31615 7.5412C8.2525 7.98271 7.31422 8.67983 6.58447 9.57075C5.85473 10.4617 5.35606 11.5189 5.1327 12.6487C4.90933 13.7784 4.96815 14.9459 5.30395 16.0475C5.63976 17.1491 6.24216 18.1508 7.05777 18.9638L11.9998 23.7998L16.9498 18.9588C17.6021 18.3101 18.1193 17.5384 18.4712 16.6883C18.8231 15.8383 19.0027 14.9268 18.9998 14.0068V14.0068ZM11.9998 20.9998L8.46377 17.5418C7.76484 16.8429 7.28874 15.9525 7.09563 14.9831C6.90252 14.0138 7.00106 13.0089 7.37879 12.0955C7.75653 11.1821 8.39651 10.4011 9.2179 9.85129C10.0393 9.30145 11.0052 9.0074 11.9936 9.00628C12.9821 9.00517 13.9486 9.29704 14.7713 9.84502C15.5939 10.393 16.2356 11.1725 16.6154 12.0851C16.9952 12.9976 17.096 14.0022 16.9051 14.9721C16.7142 15.9419 16.2401 16.8333 15.5428 17.5338L11.9998 20.9998ZM11.9998 10.9998C11.4064 10.9998 10.8264 11.1758 10.3331 11.5054C9.83971 11.8351 9.45519 12.3036 9.22813 12.8518C9.00107 13.4 8.94166 14.0032 9.05741 14.5851C9.17317 15.1671 9.45889 15.7016 9.87845 16.1212C10.298 16.5407 10.8326 16.8264 11.4145 16.9422C11.9964 17.0579 12.5996 16.9985 13.1478 16.7715C13.696 16.5444 14.1645 16.1599 14.4942 15.6665C14.8238 15.1732 14.9998 14.5932 14.9998 13.9998C14.9998 13.2042 14.6837 12.4411 14.1211 11.8785C13.5585 11.3159 12.7954 10.9998 11.9998 10.9998V10.9998ZM23.9998 10.0458V23.9998H14.6528L16.6998 21.9998H21.9998V10.0428C22.0003 9.89101 21.966 9.74108 21.8994 9.60462C21.8328 9.46817 21.7358 9.34884 21.6158 9.25584L12.6158 2.21184C12.4399 2.0743 12.223 1.99958 11.9998 1.99958C11.7765 1.99958 11.5596 2.0743 11.3838 2.21184L2.38377 9.25384C2.26365 9.3472 2.16656 9.46688 2.09999 9.60367C2.03342 9.74046 1.99913 9.89071 1.99977 10.0428V21.9998H7.29977L9.34477 23.9998H-0.000233803V10.0428C-0.00143273 9.58725 0.101671 9.13742 0.301179 8.72783C0.500687 8.31824 0.791305 7.95976 1.15077 7.67984L10.1508 0.637839C10.6787 0.224251 11.3301 -0.000488281 12.0008 -0.000488281C12.6715 -0.000488281 13.3228 0.224251 13.8508 0.637839L22.8508 7.68184C23.2098 7.96155 23.5001 8.31976 23.6992 8.72902C23.8984 9.13827 24.0012 9.5877 23.9998 10.0428V10.0458Z" fill="#374957"/>
</g>
<defs>
<clipPath id="clip0_403_3772">
<rect width="24" height="24" fill="white"/>
</clipPath>
</defs>
</svg>
