<svg width="24" height="24" viewBox="0 0 24 24" fill="none" xmlns="http://www.w3.org/2000/svg">
<g clip-path="url(#clip0_403_3456)">
<path d="M20.25 22C19.9447 22.0117 19.6406 21.9549 19.3601 21.8338C19.0797 21.7126 18.8298 21.5303 18.629 21.3C20.7651 19.0613 21.9702 16.0942 22 13V12.279L20 11.613V8C20 7.20435 19.6839 6.44129 19.1213 5.87868C18.5587 5.31607 17.7956 5 17 5H16V3C16 2.20435 15.6839 1.44129 15.1213 0.87868C14.5587 0.31607 13.7956 0 13 0L11 0C10.2044 0 9.44129 0.31607 8.87868 0.87868C8.31607 1.44129 8 2.20435 8 3V5H7C6.20435 5 5.44129 5.31607 4.87868 5.87868C4.31607 6.44129 4 7.20435 4 8V11.613L2 12.279V13C2.0314 16.095 3.23867 19.0622 5.377 21.3C5.17544 21.5309 4.92463 21.7137 4.64304 21.8349C4.36146 21.956 4.05628 22.0125 3.75 22C2.661 22 2 21.306 2 21H0C0 22.626 1.718 24 3.75 24C4.75699 24.0076 5.73312 23.6527 6.5 23C7.27182 23.6421 8.24347 23.9949 9.24748 23.9974C10.2515 24 11.2249 23.6522 12 23.014C12.7751 23.6522 13.7485 24 14.7525 23.9974C15.7565 23.9949 16.7282 23.6421 17.5 23C18.2666 23.6524 19.2423 24.0074 20.249 24C22.282 24 24 22.626 24 21H22C22 21.344 21.318 22 20.25 22ZM10 3C10 2.73478 10.1054 2.48043 10.2929 2.29289C10.4804 2.10536 10.7348 2 11 2H13C13.2652 2 13.5196 2.10536 13.7071 2.29289C13.8946 2.48043 14 2.73478 14 3V5H10V3ZM6 8C6 7.73478 6.10536 7.48043 6.29289 7.29289C6.48043 7.10536 6.73478 7 7 7H17C17.2652 7 17.5196 7.10536 17.7071 7.29289C17.8946 7.48043 18 7.73478 18 8V10.946L12 8.946L6 10.946V8ZM9.25 22C8.161 22 7.5 21.306 7.5 21V20.542L7.156 20.242C5.36498 18.5099 4.25534 16.1923 4.029 13.711L11 11.387V21C11 21.344 10.318 22 9.25 22ZM14.75 22C13.661 22 13 21.306 13 21V11.387L19.974 13.712C19.748 16.1922 18.6395 18.5089 16.85 20.241L16.5 20.541V21C16.5 21.344 15.818 22 14.75 22Z" fill="#374957"/>
</g>
<defs>
<clipPath id="clip0_403_3456">
<rect width="24" height="24" fill="white"/>
</clipPath>
</defs>
</svg>
