<svg width="32" height="32" viewBox="0 0 32 32" fill="none" xmlns="http://www.w3.org/2000/svg">
<g clip-path="url(#clip0_403_3766)" filter="url(#filter0_d_403_3766)">
<path d="M26.613 15.0282L28.028 13.6132L14.419 0.00524902L13.005 1.41925L14.136 2.55025L12.588 4.10024L9.73997 1.21625L8.31797 2.62225L11.174 5.51224L4.87897 11.8122C4.31656 12.3748 4.00061 13.1377 4.00061 13.9332C4.00061 14.7287 4.31656 15.4916 4.87897 16.0542L11.949 23.1252C12.2276 23.4039 12.5583 23.6249 12.9223 23.7757C13.2863 23.9265 13.6765 24.0041 14.0705 24.0041C14.4645 24.0041 14.8546 23.9265 15.2186 23.7757C15.5826 23.6249 15.9134 23.4039 16.192 23.1252L25.45 13.8682L26.613 15.0282ZM14.778 21.7072C14.5877 21.8895 14.3344 21.9912 14.071 21.9912C13.8075 21.9912 13.5542 21.8895 13.364 21.7072L6.29297 14.6362C6.1055 14.4487 6.00018 14.1944 6.00018 13.9292C6.00018 13.6641 6.1055 13.4098 6.29297 13.2222L12.58 6.93524L17.289 11.7002L18.711 10.3002L13.993 5.52224L15.55 3.96424L24.036 12.4502L14.778 21.7072ZM25.5 17.0002C25.5 17.0002 28 20.1192 28 21.5002C28 22.1633 27.7366 22.7991 27.2677 23.268C26.7989 23.7368 26.163 24.0002 25.5 24.0002C24.8369 24.0002 24.201 23.7368 23.7322 23.268C23.2634 22.7991 23 22.1633 23 21.5002C23 20.2502 25.5 17.0002 25.5 17.0002Z" fill="#374957"/>
</g>
<defs>
<filter id="filter0_d_403_3766" x="0" y="0" width="32" height="32" filterUnits="userSpaceOnUse" color-interpolation-filters="sRGB">
<feFlood flood-opacity="0" result="BackgroundImageFix"/>
<feColorMatrix in="SourceAlpha" type="matrix" values="0 0 0 0 0 0 0 0 0 0 0 0 0 0 0 0 0 0 127 0" result="hardAlpha"/>
<feOffset dy="4"/>
<feGaussianBlur stdDeviation="2"/>
<feComposite in2="hardAlpha" operator="out"/>
<feColorMatrix type="matrix" values="0 0 0 0 0 0 0 0 0 0 0 0 0 0 0 0 0 0 0.25 0"/>
<feBlend mode="normal" in2="BackgroundImageFix" result="effect1_dropShadow_403_3766"/>
<feBlend mode="normal" in="SourceGraphic" in2="effect1_dropShadow_403_3766" result="shape"/>
</filter>
<clipPath id="clip0_403_3766">
<rect width="24" height="24" fill="white" transform="translate(4)"/>
</clipPath>
</defs>
</svg>
