<svg width="24" height="24" viewBox="0 0 24 24" fill="none" xmlns="http://www.w3.org/2000/svg">
<g clip-path="url(#clip0_403_3543)">
<path d="M13.5 6.50001C13.5 6.79668 13.412 7.08669 13.2472 7.33336C13.0824 7.58003 12.8481 7.77229 12.574 7.88582C12.2999 7.99936 11.9983 8.02906 11.7074 7.97118C11.4164 7.91331 11.1491 7.77044 10.9393 7.56067C10.7296 7.35089 10.5867 7.08361 10.5288 6.79264C10.4709 6.50167 10.5007 6.20007 10.6142 5.92598C10.7277 5.65189 10.92 5.41762 11.1667 5.2528C11.4133 5.08798 11.7033 5.00001 12 5.00001C12.3978 5.00001 12.7794 5.15804 13.0607 5.43934C13.342 5.72065 13.5 6.10218 13.5 6.50001ZM24 12C24 9.62663 23.2962 7.30655 21.9776 5.33316C20.6591 3.35977 18.7849 1.8217 16.5922 0.913451C14.3995 0.00519943 11.9867 -0.232441 9.65892 0.230582C7.33115 0.693605 5.19295 1.83649 3.51472 3.51472C1.83649 5.19295 0.693605 7.33115 0.230582 9.65892C-0.232441 11.9867 0.00519943 14.3995 0.913451 16.5922C1.8217 18.7849 3.35977 20.6591 5.33316 21.9776C7.30655 23.2962 9.62663 24 12 24H24V12ZM22 12V22H12C10.0222 22 8.08879 21.4135 6.4443 20.3147C4.79981 19.2159 3.51809 17.6541 2.76121 15.8268C2.00433 13.9996 1.8063 11.9889 2.19215 10.0491C2.578 8.10929 3.53041 6.32746 4.92894 4.92894C6.32746 3.53041 8.10929 2.578 10.0491 2.19215C11.9889 1.8063 13.9996 2.00433 15.8268 2.76121C17.6541 3.51809 19.2159 4.79981 20.3147 6.4443C21.4135 8.08879 22 10.0222 22 12V12ZM14 12C14 11.4696 13.7893 10.9609 13.4142 10.5858C13.0391 10.2107 12.5304 10 12 10H10V12H12V19H14V12Z" fill="#374957"/>
</g>
<defs>
<clipPath id="clip0_403_3543">
<rect width="24" height="24" fill="white"/>
</clipPath>
</defs>
</svg>
