<svg width="24" height="24" viewBox="0 0 24 24" fill="none" xmlns="http://www.w3.org/2000/svg">
<g clip-path="url(#clip0_403_3540)">
<path d="M12 0C9.62663 0 7.30655 0.703788 5.33316 2.02236C3.35977 3.34094 1.8217 5.21509 0.913451 7.4078C0.00519943 9.60051 -0.232441 12.0133 0.230582 14.3411C0.693605 16.6689 1.83649 18.8071 3.51472 20.4853C5.19295 22.1635 7.33115 23.3064 9.65892 23.7694C11.9867 24.2324 14.3995 23.9948 16.5922 23.0866C18.7849 22.1783 20.6591 20.6402 21.9776 18.6668C23.2962 16.6935 24 14.3734 24 12C23.9966 8.81846 22.7312 5.76821 20.4815 3.51852C18.2318 1.26883 15.1815 0.00344108 12 0V0ZM12 22C10.0222 22 8.08879 21.4135 6.4443 20.3147C4.79981 19.2159 3.51809 17.6541 2.76121 15.8268C2.00433 13.9996 1.8063 11.9889 2.19215 10.0491C2.578 8.10929 3.53041 6.32746 4.92894 4.92893C6.32746 3.53041 8.10929 2.578 10.0491 2.19215C11.9889 1.8063 13.9996 2.00433 15.8268 2.76121C17.6541 3.51808 19.2159 4.79981 20.3147 6.4443C21.4135 8.08879 22 10.0222 22 12C21.9971 14.6513 20.9426 17.1931 19.0679 19.0679C17.1931 20.9426 14.6513 21.9971 12 22V22ZM5.00001 11.031C4.98989 11.4515 5.11637 11.864 5.36049 12.2066C5.60461 12.5491 5.95321 12.8033 6.35401 12.931L9.73301 14.273L11.082 17.613C11.2093 18.0174 11.4629 18.3704 11.8056 18.6201C12.1483 18.8697 12.562 19.0029 12.986 19H13C13.4385 18.9999 13.8647 18.855 14.2122 18.5877C14.5598 18.3204 14.8094 17.9458 14.922 17.522L17.9 6.1L6.46101 9.113C6.04047 9.22757 5.66943 9.47757 5.40532 9.8243C5.14121 10.171 4.99875 10.5951 5.00001 11.031V11.031ZM15.1 8.9L12.986 17L11.267 12.729L7.09301 11.071L6.98501 11.043L15.1 8.9Z" fill="#374957"/>
</g>
<defs>
<clipPath id="clip0_403_3540">
<rect width="24" height="24" fill="white"/>
</clipPath>
</defs>
</svg>
