<svg width="24" height="24" viewBox="0 0 24 24" fill="none" xmlns="http://www.w3.org/2000/svg">
<g clip-path="url(#clip0_403_3490)">
<path d="M21.4061 7.228C21.1271 6.84807 20.7628 6.53899 20.3424 6.32569C19.9221 6.11239 19.4575 6.00083 18.9861 6H5.01414C4.54277 6.00083 4.07819 6.11239 3.65784 6.32569C3.23749 6.53899 2.87314 6.84807 2.59414 7.228L0.547138 10.021C0.116406 10.6068 -0.0862438 11.3295 -0.0229343 12.0539C0.0403751 12.7782 0.365311 13.4548 0.891138 13.957L12.0001 23.931L23.1461 13.923C23.6588 13.4191 23.9721 12.747 24.0286 12.0304C24.085 11.3138 23.8806 10.6009 23.4531 10.023L21.4061 7.228ZM7.30914 13L9.61414 19.1L2.81614 13H7.30914ZM14.5531 13L12.0001 19.757L9.44714 13H14.5531ZM9.47714 11L10.6771 8H13.3231L14.5231 11H9.47714ZM16.6911 13H21.1821L14.3821 19.1L16.6911 13ZM19.7911 8.409L21.6921 11H16.6771L15.4771 8H18.9861C19.1433 7.99995 19.2983 8.03696 19.4385 8.10802C19.5788 8.17908 19.7002 8.2822 19.7931 8.409H19.7911ZM4.20514 8.409C4.29824 8.28192 4.42004 8.17864 4.56063 8.10756C4.70122 8.03649 4.85661 7.99963 5.01414 8H8.52314L7.32314 11H2.30814L4.20514 8.409Z" fill="#374957"/>
<path d="M13.0002 0H11.0002V4H13.0002V0Z" fill="#374957"/>
<path d="M18.1569 0.569594L16.1571 3.71265L17.8451 4.78665L19.8449 1.64359L18.1569 0.569594Z" fill="#374957"/>
<path d="M5.84365 0.578333L4.15649 1.65234L6.1563 4.79383L7.84346 3.71982L5.84365 0.578333Z" fill="#374957"/>
</g>
<defs>
<clipPath id="clip0_403_3490">
<rect width="24" height="24" fill="white"/>
</clipPath>
</defs>
</svg>
