<svg width="32" height="32" viewBox="0 0 32 32" fill="none" xmlns="http://www.w3.org/2000/svg">
<g clip-path="url(#clip0_403_3757)" filter="url(#filter0_d_403_3757)">
<path d="M21.9999 3V4H27.9999V6H21.9999V8H27.9999V10H21.9999V12H27.9999V14H21.9999V16H27.9999V18H21.9999V24H19.9999V3C19.9999 2.20435 20.316 1.44129 20.8786 0.87868C21.4412 0.316071 22.2042 0 22.9999 0L27.9999 0V2H22.9999C22.7347 2 22.4803 2.10536 22.2928 2.29289C22.1052 2.48043 21.9999 2.73478 21.9999 3V3ZM17.9999 20C18.0035 20.8144 17.7574 21.6103 17.2947 22.2805C16.832 22.9507 16.175 23.463 15.4122 23.7483C14.6494 24.0336 13.8175 24.0782 13.0285 23.8761C12.2396 23.674 11.5316 23.2349 10.9999 22.618C10.5807 23.1002 10.0518 23.4746 9.45773 23.7098C8.86366 23.945 8.22178 24.034 7.58613 23.9694C6.95047 23.9048 6.33963 23.6885 5.80502 23.3386C5.27041 22.9887 4.82766 22.5155 4.51405 21.9588C4.20043 21.4022 4.02513 20.7783 4.00288 20.1398C3.98063 19.5012 4.11209 18.8667 4.3862 18.2895C4.66031 17.7124 5.06905 17.2095 5.57801 16.8233C6.08697 16.437 6.68127 16.1787 7.31089 16.07L9.91189 10L8.26289 6.151C7.42739 4.20807 6.99761 2.11495 6.99989 0L8.99989 0C8.99734 1.84426 9.37166 3.6696 10.0999 5.364L10.9999 7.464L11.8999 5.364C12.6281 3.6696 13.0024 1.84426 12.9999 0H14.9999C15.0022 2.11495 14.5724 4.20807 13.7369 6.151L12.0879 10L14.6879 16.07C15.6137 16.2316 16.453 16.7141 17.0586 17.4327C17.6642 18.1513 17.9974 19.0602 17.9999 20ZM9.99989 20C9.99989 19.6044 9.88259 19.2178 9.66283 18.8889C9.44307 18.56 9.13071 18.3036 8.76526 18.1522C8.39981 18.0009 7.99767 17.9613 7.60971 18.0384C7.22175 18.1156 6.86538 18.3061 6.58568 18.5858C6.30597 18.8655 6.11549 19.2219 6.03832 19.6098C5.96115 19.9978 6.00076 20.3999 6.15213 20.7654C6.30351 21.1308 6.55985 21.4432 6.88875 21.6629C7.21765 21.8827 7.60433 22 7.99989 22C8.53032 22 9.03903 21.7893 9.4141 21.4142C9.78918 21.0391 9.99989 20.5304 9.99989 20ZM10.9999 17.382C11.4325 16.8834 11.9824 16.5003 12.5999 16.267L10.9999 12.538L9.39989 16.267C10.0174 16.5003 10.5672 16.8834 10.9999 17.382V17.382ZM15.9999 20C15.9999 19.6044 15.8826 19.2178 15.6628 18.8889C15.4431 18.56 15.1307 18.3036 14.7653 18.1522C14.3998 18.0009 13.9977 17.9613 13.6097 18.0384C13.2217 18.1156 12.8654 18.3061 12.5857 18.5858C12.306 18.8655 12.1155 19.2219 12.0383 19.6098C11.9611 19.9978 12.0008 20.3999 12.1521 20.7654C12.3035 21.1308 12.5599 21.4432 12.8888 21.6629C13.2176 21.8827 13.6043 22 13.9999 22C14.5303 22 15.039 21.7893 15.4141 21.4142C15.7892 21.0391 15.9999 20.5304 15.9999 20Z" fill="#374957"/>
</g>
<defs>
<filter id="filter0_d_403_3757" x="0" y="0" width="32" height="32" filterUnits="userSpaceOnUse" color-interpolation-filters="sRGB">
<feFlood flood-opacity="0" result="BackgroundImageFix"/>
<feColorMatrix in="SourceAlpha" type="matrix" values="0 0 0 0 0 0 0 0 0 0 0 0 0 0 0 0 0 0 127 0" result="hardAlpha"/>
<feOffset dy="4"/>
<feGaussianBlur stdDeviation="2"/>
<feComposite in2="hardAlpha" operator="out"/>
<feColorMatrix type="matrix" values="0 0 0 0 0 0 0 0 0 0 0 0 0 0 0 0 0 0 0.25 0"/>
<feBlend mode="normal" in2="BackgroundImageFix" result="effect1_dropShadow_403_3757"/>
<feBlend mode="normal" in="SourceGraphic" in2="effect1_dropShadow_403_3757" result="shape"/>
</filter>
<clipPath id="clip0_403_3757">
<rect width="24" height="24" fill="white" transform="translate(4)"/>
</clipPath>
</defs>
</svg>
