<svg width="24" height="24" viewBox="0 0 24 24" fill="none" xmlns="http://www.w3.org/2000/svg">
<g clip-path="url(#clip0_403_3381)">
<path d="M23.4719 16.1939L21.8309 13.7079L20.1629 14.8079L21.7999 17.2999C21.9154 17.4681 21.9817 17.6651 21.9916 17.8689C22.0015 18.0727 21.9545 18.2753 21.8559 18.4539C21.7563 18.6402 21.6073 18.7955 21.4252 18.9027C21.2432 19.0099 21.0352 19.065 20.8239 19.0619H12.8789L14.3569 17.5869L12.9449 16.1709L10.4219 18.6879C10.2358 18.8751 10.0883 19.0972 9.98807 19.3415C9.8878 19.5858 9.83667 19.8474 9.8376 20.1114C9.83853 20.3755 9.8915 20.6368 9.99348 20.8803C10.0955 21.1239 10.2445 21.3449 10.4319 21.5309L12.9509 23.9999L14.3509 22.5729L12.8089 21.0579H20.8279C21.3999 21.0598 21.9616 20.9066 22.4534 20.6146C22.9452 20.3227 23.3487 19.9029 23.6209 19.3999C23.8935 18.9035 24.0238 18.3416 23.9975 17.7759C23.9712 17.2103 23.7894 16.6628 23.4719 16.1939V16.1939Z" fill="#374957"/>
<path d="M11.7601 3.01288C11.9557 3.01225 12.1486 3.05948 12.3219 3.15047C12.4951 3.24145 12.6435 3.37342 12.754 3.53488L17.0271 9.99988L14.8121 9.56288L14.426 11.5249L18.046 12.2389C18.3053 12.2902 18.5722 12.2896 18.8312 12.2372C19.0903 12.1847 19.3364 12.0814 19.5553 11.9333C19.7742 11.7852 19.9615 11.5951 20.1065 11.3742C20.2515 11.1532 20.3513 10.9057 20.4 10.6459L21.084 6.98188L19.1171 6.61488L18.692 8.89388L14.4231 2.43288C14.1297 1.99041 13.7302 1.62854 13.2609 1.38037C12.7916 1.13221 12.2676 1.00567 11.7368 1.01234C11.206 1.019 10.6853 1.15866 10.2224 1.41852C9.7595 1.67839 9.36915 2.05018 9.08705 2.49988L7.85205 4.46788L9.54505 5.53188L10.7831 3.56088C10.8854 3.39357 11.029 3.25532 11.2 3.15938C11.3711 3.06343 11.5639 3.01299 11.7601 3.01288V3.01288Z" fill="#374957"/>
<path d="M6.4572 10.4526L6.8872 12.7626L8.8542 12.3996L8.1702 8.73162C8.12154 8.47197 8.02193 8.22452 7.87711 8.00358C7.73229 7.78264 7.54514 7.59258 7.32645 7.44437C7.10777 7.29616 6.86189 7.19275 6.60301 7.1401C6.34414 7.08745 6.0774 7.08661 5.8182 7.13762L2.2002 7.85062L2.5872 9.81262L4.7712 9.38162L0.478197 16.2096C0.180085 16.6813 0.0154026 17.225 0.0016679 17.7828C-0.0120668 18.3407 0.12566 18.8918 0.400197 19.3776C0.67246 19.8731 1.07388 20.2855 1.56179 20.5711C2.0497 20.8567 2.60587 21.0048 3.1712 20.9996H7.0002V18.9996H3.1712C2.96278 19.0023 2.75752 18.9485 2.57723 18.8439C2.39693 18.7393 2.24833 18.5879 2.1472 18.4056C2.04787 18.2317 1.99789 18.0341 2.00265 17.8339C2.00741 17.6337 2.06672 17.4386 2.1742 17.2696L6.4572 10.4526Z" fill="#374957"/>
</g>
<defs>
<clipPath id="clip0_403_3381">
<rect width="24" height="24" fill="white"/>
</clipPath>
</defs>
</svg>
