<svg width="28" height="32" viewBox="0 0 28 32" fill="none" xmlns="http://www.w3.org/2000/svg">
<g clip-path="url(#clip0_403_3388)" filter="url(#filter0_d_403_3388)">
<path d="M17.9372 8.28256C18.0842 9.10791 17.9696 9.95857 17.6094 10.7156C17.2492 11.4726 16.6614 12.0981 15.9282 12.5046C15.6549 12.7111 15.4302 12.975 15.2699 13.2777C15.1096 13.5804 15.0175 13.9145 15.0002 14.2566V14.9996H13.0002V14.2566C13.0189 13.5578 13.2073 12.8741 13.5491 12.2644C13.8909 11.6547 14.3759 11.1372 14.9622 10.7566C15.3325 10.5538 15.6293 10.239 15.8098 9.8573C15.9903 9.47557 16.0454 9.04651 15.9672 8.63156C15.8901 8.23585 15.6967 7.87216 15.4116 7.58709C15.1266 7.30203 14.7629 7.10859 14.3672 7.03156C14.0782 6.97763 13.781 6.98804 13.4966 7.06204C13.2121 7.13604 12.9475 7.27183 12.7215 7.45972C12.4955 7.64762 12.3137 7.88302 12.189 8.14916C12.0644 8.41531 11.9999 8.70566 12.0002 8.99956H10.0002C9.99958 8.41538 10.1273 7.8382 10.3742 7.30877C10.6211 6.77934 10.9812 6.31057 11.4292 5.93556C11.9655 5.48506 12.6108 5.1833 13.3004 5.06049C13.99 4.93767 14.6998 4.99811 15.3587 5.23574C16.0177 5.47337 16.6026 5.87987 17.0551 6.41456C17.5076 6.94926 17.8118 7.59341 17.9372 8.28256ZM24.0002 5.46656V11.9906C24.0002 19.4276 16.9532 22.8396 14.7932 23.7076L13.9582 24.0436L13.1582 23.6436C11.0052 22.5666 4.00015 18.5536 4.00015 11.9906V5.46656C3.99998 4.83698 4.1984 4.22339 4.56719 3.71313C4.93597 3.20287 5.45631 2.82194 6.05415 2.62456L14.0002 -0.010437L21.9462 2.62456C22.544 2.82194 23.0643 3.20287 23.4331 3.71313C23.8019 4.22339 24.0003 4.83698 24.0002 5.46656V5.46656ZM22.0002 5.46656C21.9992 5.25745 21.9326 5.05392 21.8099 4.88458C21.6872 4.71525 21.5146 4.58864 21.3162 4.52256L14.0002 2.09956L6.68415 4.52256C6.48575 4.58864 6.31306 4.71525 6.19037 4.88458C6.06767 5.05392 6.00115 5.25745 6.00015 5.46656V11.9906C6.00015 17.4066 12.1592 20.9076 14.0472 21.8526C15.9132 21.0996 22.0002 18.1736 22.0002 11.9906V5.46656ZM13.0002 18.9996H15.0002V16.9996H13.0002V18.9996Z" fill="#374957"/>
</g>
<defs>
<filter id="filter0_d_403_3388" x="-2" y="0" width="32" height="32" filterUnits="userSpaceOnUse" color-interpolation-filters="sRGB">
<feFlood flood-opacity="0" result="BackgroundImageFix"/>
<feColorMatrix in="SourceAlpha" type="matrix" values="0 0 0 0 0 0 0 0 0 0 0 0 0 0 0 0 0 0 127 0" result="hardAlpha"/>
<feOffset dy="4"/>
<feGaussianBlur stdDeviation="2"/>
<feComposite in2="hardAlpha" operator="out"/>
<feColorMatrix type="matrix" values="0 0 0 0 0 0 0 0 0 0 0 0 0 0 0 0 0 0 0.25 0"/>
<feBlend mode="normal" in2="BackgroundImageFix" result="effect1_dropShadow_403_3388"/>
<feBlend mode="normal" in="SourceGraphic" in2="effect1_dropShadow_403_3388" result="shape"/>
</filter>
<clipPath id="clip0_403_3388">
<rect width="24" height="24" fill="white" transform="translate(2)"/>
</clipPath>
</defs>
</svg>
