<svg width="32" height="32" viewBox="0 0 32 32" fill="none" xmlns="http://www.w3.org/2000/svg">
<g clip-path="url(#clip0_403_3519)" filter="url(#filter0_d_403_3519)">
<path d="M27.2453 0.757725C26.9611 0.470891 26.6131 0.255193 26.2298 0.128172C25.8465 0.00115117 25.4386 -0.0336069 25.0393 0.0267246C19.1 0.964771 13.5913 3.70185 9.25633 7.86872C8.49714 8.63218 7.90526 9.54538 7.5184 10.5502C7.13154 11.5549 6.95817 12.6293 7.00933 13.7047C7.08032 15.2648 7.62793 16.7656 8.57833 18.0047L4.04333 22.5427L5.45733 23.9567L9.99133 19.4227C11.3054 20.4469 12.9253 21.0002 14.5913 20.9937C15.6975 20.9888 16.7913 20.76 17.8068 20.3213C18.8223 19.8825 19.7385 19.2428 20.5003 18.4407C24.4665 14.1246 27.0673 8.73168 27.9753 2.94072C28.0336 2.54509 27.9979 2.14128 27.8711 1.76202C27.7443 1.38275 27.5299 1.0387 27.2453 0.757725V0.757725ZM9.00733 13.6077C8.9692 12.8104 9.09755 12.0139 9.38422 11.2689C9.67088 10.5239 10.1096 9.84682 10.6723 9.28072C11.1053 8.84672 11.5503 8.44572 12.0003 8.06072V14.5857L10.0103 16.5757C9.40393 15.7002 9.05633 14.6716 9.00733 13.6077V13.6077ZM19.0543 17.0587C18.102 18.0967 16.8104 18.7605 15.4121 18.9306C14.0138 19.1007 12.6007 18.766 11.4273 17.9867L16.4143 12.9997H22.1613C21.2724 14.459 20.2309 15.8197 19.0543 17.0587V17.0587ZM25.9933 2.65872C25.5198 5.56157 24.6038 8.37462 23.2773 10.9997H18.4143L21.9573 7.45672L20.5433 6.04272L14.0003 12.5857V6.51672C17.4053 4.2116 21.2698 2.67254 25.3273 2.00572C25.3565 2.00174 25.3859 1.99973 25.4153 1.99972C25.4928 1.99961 25.5695 2.01484 25.6411 2.04453C25.7127 2.07422 25.7777 2.11779 25.8323 2.17272C25.8955 2.23474 25.943 2.31086 25.971 2.39483C25.999 2.4788 26.0066 2.56822 25.9933 2.65572V2.65872Z" fill="#374957"/>
</g>
<defs>
<filter id="filter0_d_403_3519" x="0" y="0" width="32" height="32" filterUnits="userSpaceOnUse" color-interpolation-filters="sRGB">
<feFlood flood-opacity="0" result="BackgroundImageFix"/>
<feColorMatrix in="SourceAlpha" type="matrix" values="0 0 0 0 0 0 0 0 0 0 0 0 0 0 0 0 0 0 127 0" result="hardAlpha"/>
<feOffset dy="4"/>
<feGaussianBlur stdDeviation="2"/>
<feComposite in2="hardAlpha" operator="out"/>
<feColorMatrix type="matrix" values="0 0 0 0 0 0 0 0 0 0 0 0 0 0 0 0 0 0 0.25 0"/>
<feBlend mode="normal" in2="BackgroundImageFix" result="effect1_dropShadow_403_3519"/>
<feBlend mode="normal" in="SourceGraphic" in2="effect1_dropShadow_403_3519" result="shape"/>
</filter>
<clipPath id="clip0_403_3519">
<rect width="24" height="24" fill="white" transform="translate(4)"/>
</clipPath>
</defs>
</svg>
