<svg width="24" height="24" viewBox="0 0 24 24" fill="none" xmlns="http://www.w3.org/2000/svg">
<g clip-path="url(#clip0_403_3530)">
<path d="M14.96 6.139C14.0629 5.40435 12.9396 5.00201 11.78 5H8.771L7.453 0H1.029L2.347 5H0V7H11.78C12.4778 7.00182 13.1535 7.24449 13.693 7.687C15.1057 8.87658 16.2577 10.3449 17.077 12H14.7L11.7 14H0V16H12.3L15.3 14H21.941C21.6926 16.1985 20.644 18.2288 18.9952 19.7041C17.3464 21.1794 15.2125 21.9966 13 22H0V24H13C15.9163 23.9966 18.7122 22.8365 20.7744 20.7744C22.8365 18.7122 23.9966 15.9163 24 13V12H19.287C18.3233 9.73457 16.8412 7.72704 14.96 6.139V6.139ZM3.625 2H5.912L6.7 5H4.415L3.625 2ZM12 11H0V9H12V11ZM3 20C2.80222 20 2.60888 19.9414 2.44443 19.8315C2.27998 19.7216 2.15181 19.5654 2.07612 19.3827C2.00043 19.2 1.98063 18.9989 2.01921 18.8049C2.0578 18.6109 2.15304 18.4327 2.29289 18.2929C2.43275 18.153 2.61093 18.0578 2.80491 18.0192C2.99889 17.9806 3.19996 18.0004 3.38268 18.0761C3.56541 18.1518 3.72159 18.28 3.83147 18.4444C3.94135 18.6089 4 18.8022 4 19C4 19.2652 3.89464 19.5196 3.70711 19.7071C3.51957 19.8946 3.26522 20 3 20ZM7 20C6.80222 20 6.60888 19.9414 6.44443 19.8315C6.27998 19.7216 6.15181 19.5654 6.07612 19.3827C6.00043 19.2 5.98063 18.9989 6.01921 18.8049C6.0578 18.6109 6.15304 18.4327 6.29289 18.2929C6.43275 18.153 6.61093 18.0578 6.80491 18.0192C6.99889 17.9806 7.19996 18.0004 7.38268 18.0761C7.56541 18.1518 7.72159 18.28 7.83147 18.4444C7.94135 18.6089 8 18.8022 8 19C8 19.2652 7.89464 19.5196 7.70711 19.7071C7.51957 19.8946 7.26522 20 7 20ZM11 20C10.8022 20 10.6089 19.9414 10.4444 19.8315C10.28 19.7216 10.1518 19.5654 10.0761 19.3827C10.0004 19.2 9.98063 18.9989 10.0192 18.8049C10.0578 18.6109 10.153 18.4327 10.2929 18.2929C10.4327 18.153 10.6109 18.0578 10.8049 18.0192C10.9989 17.9806 11.2 18.0004 11.3827 18.0761C11.5654 18.1518 11.7216 18.28 11.8315 18.4444C11.9414 18.6089 12 18.8022 12 19C12 19.2652 11.8946 19.5196 11.7071 19.7071C11.5196 19.8946 11.2652 20 11 20Z" fill="#374957"/>
</g>
<defs>
<clipPath id="clip0_403_3530">
<rect width="24" height="24" fill="white"/>
</clipPath>
</defs>
</svg>
