<svg width="24" height="24" viewBox="0 0 24 24" fill="none" xmlns="http://www.w3.org/2000/svg">
<g clip-path="url(#clip0_403_3610)">
<path d="M21 4.00024H2V11.0002H0V13.0002H2V20.0002H21C21.7956 20.0002 22.5587 19.6842 23.1213 19.1216C23.6839 18.559 24 17.7959 24 17.0002V7.00024C24 6.20459 23.6839 5.44153 23.1213 4.87892C22.5587 4.31631 21.7956 4.00024 21 4.00024ZM4 13.0002H5V11.0002H4V6.00024H7V18.0002H4V13.0002ZM22 17.0002C22 17.2655 21.8946 17.5198 21.7071 17.7074C21.5196 17.8949 21.2652 18.0002 21 18.0002H9V6.00024H21C21.2652 6.00024 21.5196 6.1056 21.7071 6.29314C21.8946 6.48067 22 6.73503 22 7.00024V17.0002Z" fill="#374957"/>
</g>
<defs>
<clipPath id="clip0_403_3610">
<rect width="24" height="24" fill="white"/>
</clipPath>
</defs>
</svg>
