<svg width="28" height="32" viewBox="0 0 28 32" fill="none" xmlns="http://www.w3.org/2000/svg">
<g clip-path="url(#clip0_403_3547)" filter="url(#filter0_d_403_3547)">
<path d="M4.00012 14C3.99995 15.9352 4.56131 17.8289 5.6161 19.4514C6.67089 21.0739 8.17381 22.3555 9.94256 23.1407C11.7113 23.9259 13.6699 24.1811 15.5808 23.8752C17.4917 23.5693 19.2728 22.7155 20.708 21.4174C22.1433 20.1192 23.171 18.4326 23.6666 16.5619C24.1622 14.6912 24.1044 12.7169 23.5001 10.8785C22.8959 9.04 21.7712 7.41636 20.2624 6.20448C18.7536 4.99259 16.9256 4.24452 15.0001 4.051V2H18.0001V0H10.0001V2H13.0001V4.051C10.5348 4.3017 8.24998 5.45768 6.58757 7.29538C4.92516 9.13308 4.00325 11.5219 4.00012 14V14ZM22.0001 14C22.0001 14.362 20.6341 15.2 18.0001 15.67V12.33C20.6341 12.8 22.0001 13.638 22.0001 14ZM16.0001 15.922C15.3791 15.971 14.7151 16 14.0001 16C13.2851 16 12.6211 15.971 12.0001 15.922V12.078C12.6211 12.029 13.2851 12 14.0001 12C14.7151 12 15.3791 12.029 16.0001 12.078V15.922ZM6.00012 14C6.00012 13.638 7.36612 12.8 10.0001 12.33V15.67C7.36612 15.2 6.00012 14.362 6.00012 14ZM14.0001 10C13.3351 10 12.6641 10.026 12.0001 10.075V6.263C13.3104 5.91233 14.6898 5.91233 16.0001 6.263V10.075C15.3361 10.026 14.6651 10 14.0001 10ZM10.0001 7.082V10.3C8.79994 10.468 7.62465 10.7813 6.50012 11.233C7.15029 9.48542 8.38751 8.01808 10.0001 7.082V7.082ZM6.50012 16.764C7.62452 17.2168 8.79982 17.5311 10.0001 17.7V20.921C8.38645 19.9834 7.1491 18.5138 6.50012 16.764V16.764ZM12.0001 21.737V17.925C12.6641 17.974 13.3351 18 14.0001 18C14.6651 18 15.3361 17.974 16.0001 17.925V21.737C14.6898 22.0877 13.3104 22.0877 12.0001 21.737V21.737ZM18.0001 20.918V17.7C19.2003 17.532 20.3756 17.2187 21.5001 16.767C20.85 18.5146 19.6127 19.9819 18.0001 20.918ZM21.5001 11.236C20.3757 10.7832 19.2004 10.4689 18.0001 10.3V7.082C19.6133 8.01883 20.8506 9.48731 21.5001 11.236V11.236Z" fill="#374957"/>
</g>
<defs>
<filter id="filter0_d_403_3547" x="-2" y="0" width="32" height="32" filterUnits="userSpaceOnUse" color-interpolation-filters="sRGB">
<feFlood flood-opacity="0" result="BackgroundImageFix"/>
<feColorMatrix in="SourceAlpha" type="matrix" values="0 0 0 0 0 0 0 0 0 0 0 0 0 0 0 0 0 0 127 0" result="hardAlpha"/>
<feOffset dy="4"/>
<feGaussianBlur stdDeviation="2"/>
<feComposite in2="hardAlpha" operator="out"/>
<feColorMatrix type="matrix" values="0 0 0 0 0 0 0 0 0 0 0 0 0 0 0 0 0 0 0.25 0"/>
<feBlend mode="normal" in2="BackgroundImageFix" result="effect1_dropShadow_403_3547"/>
<feBlend mode="normal" in="SourceGraphic" in2="effect1_dropShadow_403_3547" result="shape"/>
</filter>
<clipPath id="clip0_403_3547">
<rect width="24" height="24" fill="white" transform="translate(2)"/>
</clipPath>
</defs>
</svg>
