<svg width="24" height="24" viewBox="0 0 24 24" fill="none" xmlns="http://www.w3.org/2000/svg">
<path d="M8.03305 12.5526L10.5861 9.99964L8.03305 7.44664L9.44705 6.03264L12.0001 8.58564L14.5531 6.03264L15.9671 7.44664L13.4141 9.99964L15.9671 12.5526L14.5531 13.9666L12.0001 11.4136L9.44705 13.9666L8.03305 12.5526ZM4.93305 17.0786C4.00395 16.1503 3.26679 15.0481 2.76366 13.8349C2.26053 12.6217 2.00129 11.3213 2.00073 10.0079C2.00018 8.69449 2.25832 7.39385 2.76041 6.18022C3.26251 4.96659 3.99874 3.86374 4.92705 2.93464C5.85537 2.00554 6.95759 1.26838 8.17079 0.765249C9.384 0.262121 10.6844 0.00287738 11.9978 0.00232024C13.3112 0.00176309 14.6118 0.259903 15.8255 0.762002C17.0391 1.2641 18.1419 2.00032 19.0711 2.92864C20.9464 4.804 21.9999 7.34751 21.9999 9.99964C21.9999 12.6518 20.9464 15.1953 19.0711 17.0706L12.0001 23.9866L4.93305 17.0786ZM4.00005 9.99964C3.99716 11.0506 4.20276 12.0918 4.60493 13.0628C5.00711 14.0338 5.59788 14.9155 6.34305 15.6566L12.0001 21.1886L17.6651 15.6486C18.5936 14.7174 19.2783 13.5716 19.6585 12.3126C20.0387 11.0536 20.1026 9.72038 19.8447 8.43081C19.5867 7.14125 19.0148 5.93517 18.1796 4.91932C17.3444 3.90346 16.2717 3.10918 15.0563 2.60676C13.841 2.10434 12.5205 1.90929 11.2118 2.03887C9.90309 2.16845 8.64651 2.61866 7.55328 3.34966C6.46005 4.08066 5.56389 5.06989 4.94413 6.2298C4.32436 7.38972 4.0001 8.68453 4.00005 9.99964V9.99964Z" fill="#374957"/>
</svg>
