<svg width="24" height="24" viewBox="0 0 24 24" fill="none" xmlns="http://www.w3.org/2000/svg">
<g clip-path="url(#clip0_403_3770)">
<path d="M3.12091 11.2931L13.0129 1.40006L11.5999 -0.0129395L1.70691 9.87906C1.1445 10.4416 0.828552 11.2046 0.828552 12.0001C0.828552 12.7956 1.1445 13.5585 1.70691 14.1211L11.5919 24.0061L13.0059 22.5921L3.12191 12.7071C2.93431 12.5197 2.82881 12.2654 2.82862 12.0003C2.82844 11.7351 2.93357 11.4807 3.12091 11.2931V11.2931Z" fill="#374957"/>
<path d="M23 1.41712L21.583 0.00012207L10.293 11.2901C10.1055 11.4776 10.0002 11.7319 10.0002 11.9971C10.0002 12.2623 10.1055 12.5166 10.293 12.7041L21.584 24.0001L23 22.5841L12.414 12.0001L23 1.41712Z" fill="#374957"/>
</g>
<defs>
<clipPath id="clip0_403_3770">
<rect width="24" height="24" fill="white"/>
</clipPath>
</defs>
</svg>
