<svg width="32" height="32" viewBox="0 0 32 32" fill="none" xmlns="http://www.w3.org/2000/svg">
<g clip-path="url(#clip0_403_3510)" filter="url(#filter0_d_403_3510)">
<path d="M13.3559 0L4.37486 19.759C4.16723 20.2159 4.07758 20.7177 4.11409 21.2183C4.15061 21.7188 4.31213 22.2022 4.58386 22.6242C4.8556 23.0462 5.22886 23.3933 5.66947 23.6336C6.11008 23.874 6.60395 24 7.10586 24H14.9999V1.046L14.9929 0H13.3559ZM12.9999 22H7.10586C6.93845 22.0001 6.7737 21.9582 6.6267 21.8781C6.4797 21.798 6.35516 21.6823 6.2645 21.5416C6.17383 21.4009 6.11994 21.2396 6.10778 21.0727C6.09561 20.9057 6.12555 20.7384 6.19486 20.586L12.9999 5.616V22Z" fill="#374957"/>
<path d="M27.6249 19.759L18.9299 0.628L18.6259 0H16.9999V24H24.8939C25.3958 24 25.8896 23.874 26.3303 23.6336C26.7709 23.3933 27.1441 23.0462 27.4159 22.6242C27.6876 22.2022 27.8491 21.7188 27.8856 21.2183C27.9221 20.7177 27.8325 20.2159 27.6249 19.759Z" fill="#374957"/>
</g>
<defs>
<filter id="filter0_d_403_3510" x="0" y="0" width="32" height="32" filterUnits="userSpaceOnUse" color-interpolation-filters="sRGB">
<feFlood flood-opacity="0" result="BackgroundImageFix"/>
<feColorMatrix in="SourceAlpha" type="matrix" values="0 0 0 0 0 0 0 0 0 0 0 0 0 0 0 0 0 0 127 0" result="hardAlpha"/>
<feOffset dy="4"/>
<feGaussianBlur stdDeviation="2"/>
<feComposite in2="hardAlpha" operator="out"/>
<feColorMatrix type="matrix" values="0 0 0 0 0 0 0 0 0 0 0 0 0 0 0 0 0 0 0.25 0"/>
<feBlend mode="normal" in2="BackgroundImageFix" result="effect1_dropShadow_403_3510"/>
<feBlend mode="normal" in="SourceGraphic" in2="effect1_dropShadow_403_3510" result="shape"/>
</filter>
<clipPath id="clip0_403_3510">
<rect width="24" height="24" fill="white" transform="translate(4)"/>
</clipPath>
</defs>
</svg>
