<svg width="32" height="32" viewBox="0 0 32 32" fill="none" xmlns="http://www.w3.org/2000/svg">
<g clip-path="url(#clip0_403_3705)" filter="url(#filter0_d_403_3705)">
<path d="M19.9998 24H11.9998V19.1L8.14575 21.5L4.00775 14.855L8.59275 12L4.00775 9.145L8.14575 2.5L11.9998 4.9V0H19.9998V4.9L23.8538 2.5L27.9918 9.148L23.4068 12L27.9918 14.855L23.8538 21.5L19.9998 19.1V24ZM13.9998 22H17.9998V15.5L23.2128 18.747L25.2378 15.5L19.6238 12L25.2378 8.5L23.2128 5.252L17.9998 8.5V2H13.9998V8.5L8.78675 5.252L6.76175 8.5L12.3758 12L6.76175 15.5L8.78675 18.752L13.9998 15.5V22Z" fill="#374957"/>
</g>
<defs>
<filter id="filter0_d_403_3705" x="0" y="0" width="32" height="32" filterUnits="userSpaceOnUse" color-interpolation-filters="sRGB">
<feFlood flood-opacity="0" result="BackgroundImageFix"/>
<feColorMatrix in="SourceAlpha" type="matrix" values="0 0 0 0 0 0 0 0 0 0 0 0 0 0 0 0 0 0 127 0" result="hardAlpha"/>
<feOffset dy="4"/>
<feGaussianBlur stdDeviation="2"/>
<feComposite in2="hardAlpha" operator="out"/>
<feColorMatrix type="matrix" values="0 0 0 0 0 0 0 0 0 0 0 0 0 0 0 0 0 0 0.25 0"/>
<feBlend mode="normal" in2="BackgroundImageFix" result="effect1_dropShadow_403_3705"/>
<feBlend mode="normal" in="SourceGraphic" in2="effect1_dropShadow_403_3705" result="shape"/>
</filter>
<clipPath id="clip0_403_3705">
<rect width="24" height="24" fill="white" transform="translate(4)"/>
</clipPath>
</defs>
</svg>
