<svg width="24" height="24" viewBox="0 0 24 24" fill="none" xmlns="http://www.w3.org/2000/svg">
<g clip-path="url(#clip0_403_3446)">
<path d="M18.7599 16C18.0712 15.998 17.389 16.1326 16.7526 16.3961C16.1163 16.6596 15.5386 17.0467 15.0529 17.535L12.0529 20.535C11.5896 21.0007 11.0385 21.37 10.4316 21.6215C9.82465 21.8729 9.1739 22.0016 8.51694 22H3.12295C2.90114 22.0001 2.68427 21.9345 2.4998 21.8113C2.31533 21.6881 2.17155 21.513 2.08665 21.3081C2.00175 21.1032 1.97955 20.8777 2.02286 20.6601C2.06617 20.4426 2.17304 20.2428 2.32995 20.086L5.51994 16.9L18.7729 13.365C19.412 13.1946 19.9768 12.8177 20.3796 12.2931C20.7823 11.7684 21.0004 11.1254 20.9999 10.464V3C20.9999 2.20435 20.6839 1.44129 20.1212 0.87868C19.5586 0.316071 18.7956 2.81137e-07 17.9999 2.81137e-07H10.5359C9.8747 -0.000285885 9.23189 0.217899 8.70745 0.620634C8.18301 1.02337 7.80632 1.58809 7.63594 2.227L4.09994 15.485L0.915949 18.672C0.479421 19.1085 0.182137 19.6646 0.0616926 20.2701C-0.0587516 20.8755 0.00305495 21.5031 0.239295 22.0734C0.475536 22.6437 0.875599 23.1312 1.38889 23.4741C1.90218 23.817 2.50564 24.0001 3.12295 24H8.51694C9.43665 24.0024 10.3477 23.8224 11.1974 23.4703C12.047 23.1183 12.8184 22.6012 13.4669 21.949L16.4669 18.949C16.9206 18.4965 17.4982 18.1886 18.1267 18.0641C18.7552 17.9396 19.4066 18.0041 19.9985 18.2494C20.5904 18.4947 21.0964 18.9098 21.4526 19.4424C21.8088 19.9751 21.9993 20.6013 21.9999 21.242V24H23.9999V21.242C23.9981 19.8527 23.4455 18.5207 22.4632 17.5381C21.481 16.5555 20.1493 16.0024 18.7599 16V16ZM18.9999 3.416V9.586L15.9149 6.5L18.9999 3.416ZM14.4999 5.087L11.4139 2H17.5879L14.4999 5.087ZM18.0659 11.481L8.34194 14.074L14.4999 7.915L18.0659 11.481ZM9.51894 2.933L13.0869 6.5L6.92494 12.663L9.51894 2.933Z" fill="#374957"/>
</g>
<defs>
<clipPath id="clip0_403_3446">
<rect width="24" height="24" fill="white"/>
</clipPath>
</defs>
</svg>
