<svg width="24" height="24" viewBox="0 0 24 24" fill="none" xmlns="http://www.w3.org/2000/svg">
<g clip-path="url(#clip0_403_3420)">
<path d="M1.717 14.7L5.85 24H8.306C8.76422 23.9997 9.21513 23.8851 9.61781 23.6664C10.0205 23.4477 10.3622 23.1319 10.6119 22.7477C10.8616 22.3635 11.0114 21.923 11.0478 21.4663C11.0841 21.0095 11.0058 20.5509 10.82 20.132L8.539 15H11C12.3256 15.0016 13.5964 15.5289 14.5338 16.4662C15.4711 17.4036 15.9984 18.6744 16 20H18V0H16C15.9984 1.3256 15.4711 2.59644 14.5338 3.53378C13.5964 4.47112 12.3256 4.99841 11 5H3C2.20435 5 1.44129 5.31607 0.87868 5.87868C0.31607 6.44129 0 7.20435 0 8L0 12C0.00223099 12.5662 0.164653 13.1202 0.46849 13.598C0.772328 14.0758 1.20518 14.4579 1.717 14.7V14.7ZM8.992 20.943C9.04303 21.0574 9.06464 21.1827 9.05488 21.3075C9.04513 21.4324 9.0043 21.5528 8.93613 21.6578C8.86795 21.7629 8.77459 21.8492 8.66453 21.909C8.55448 21.9687 8.43123 22 8.306 22H7.15L4.039 15H6.35L8.992 20.943ZM2 8C2 7.73478 2.10536 7.48043 2.29289 7.29289C2.48043 7.10536 2.73478 7 3 7H11C11.9322 7.00022 12.855 6.81351 13.7138 6.45092C14.5726 6.08834 15.35 5.55723 16 4.889V15.111C15.35 14.4428 14.5726 13.9117 13.7138 13.5491C12.855 13.1865 11.9322 12.9998 11 13H3C2.73478 13 2.48043 12.8946 2.29289 12.7071C2.10536 12.5196 2 12.2652 2 12V8ZM22.293 15.707L20.005 13.419L21.419 12.005L23.707 14.293L22.293 15.707ZM21.457 7.957L20.043 6.543L22.293 4.293L23.707 5.707L21.457 7.957ZM21 9H24V11H21V9Z" fill="#374957"/>
</g>
<defs>
<clipPath id="clip0_403_3420">
<rect width="24" height="24" fill="white"/>
</clipPath>
</defs>
</svg>
