<svg width="32" height="31" viewBox="0 0 32 31" fill="none" xmlns="http://www.w3.org/2000/svg">
<g filter="url(#filter0_d_403_3416)">
<path d="M16.0001 0.999879C13.4492 0.999016 10.9644 1.81141 8.90669 3.31907C6.84898 4.82673 5.3255 6.95113 4.55753 9.38371C3.78956 11.8163 3.81709 14.4303 4.63614 16.8462C5.45518 19.2621 7.02308 21.3539 9.11209 22.8179L9.37109 22.9999H22.6291L22.8881 22.8179C24.9771 21.3539 26.545 19.2621 27.3641 16.8462C28.1831 14.4303 28.2106 11.8163 27.4427 9.38371C26.6747 6.95113 25.1512 4.82673 23.0935 3.31907C21.0358 1.81141 18.551 0.999016 16.0001 0.999879V0.999879ZM21.9881 20.9999H10.0121C8.33012 19.7423 7.08675 17.9872 6.45832 15.9833C5.82988 13.9794 5.84828 11.8286 6.51089 9.83573C7.17351 7.8429 8.44672 6.10925 10.15 4.88066C11.8532 3.65207 13.9 2.99089 16.0001 2.99089C18.1002 2.99089 20.147 3.65207 21.8502 4.88066C23.5535 6.10925 24.8267 7.8429 25.4893 9.83573C26.1519 11.8286 26.1703 13.9794 25.5419 15.9833C24.9134 17.9872 23.6701 19.7423 21.9881 20.9999V20.9999ZM24.0001 12.9999C24.003 14.0652 23.7915 15.1202 23.3781 16.102C22.9648 17.0838 22.3581 17.9724 21.5941 18.7149L20.1941 17.2849C20.9574 16.5442 21.5081 15.6123 21.7886 14.5863C22.0692 13.5604 22.0693 12.4779 21.7891 11.4519L23.3641 9.87688C23.7843 10.8644 24.0006 11.9267 24.0001 12.9999ZM10.0001 12.9999C9.99731 13.7983 10.1552 14.5892 10.4645 15.3254C10.7737 16.0615 11.2279 16.7279 11.8001 17.2849L10.4001 18.7149C9.07037 17.4107 8.23735 15.6835 8.04468 13.8309C7.85201 11.9784 8.31176 10.1167 9.34466 8.56683C10.3776 7.01695 11.9189 5.87604 13.7028 5.34081C15.4868 4.80558 17.4016 4.90958 19.1171 5.63488L17.5481 7.20988C16.6596 6.96783 15.7272 6.93435 14.8237 7.11205C13.9201 7.28975 13.0698 7.67382 12.3392 8.2343C11.6085 8.79477 11.0173 9.51649 10.6115 10.3431C10.2058 11.1698 9.99653 12.079 10.0001 12.9999V12.9999ZM17.9261 12.4879C18.0464 12.9206 18.0201 13.3811 17.8511 13.7972C17.6822 14.2134 17.3801 14.562 16.9922 14.7884C16.6043 15.0148 16.1523 15.1064 15.7068 15.0488C15.2613 14.9912 14.8475 14.7877 14.5299 14.4701C14.2123 14.1525 14.0088 13.7386 13.9512 13.2932C13.8936 12.8477 13.9852 12.3957 14.2116 12.0078C14.438 11.6198 14.7865 11.3178 15.2027 11.1489C15.6189 10.9799 16.0793 10.9535 16.5121 11.0739L20.7931 6.79288L22.2071 8.20688L17.9261 12.4879Z" fill="#374957"/>
</g>
<defs>
<filter id="filter0_d_403_3416" x="0" y="0" width="32" height="32" filterUnits="userSpaceOnUse" color-interpolation-filters="sRGB">
<feFlood flood-opacity="0" result="BackgroundImageFix"/>
<feColorMatrix in="SourceAlpha" type="matrix" values="0 0 0 0 0 0 0 0 0 0 0 0 0 0 0 0 0 0 127 0" result="hardAlpha"/>
<feOffset dy="4"/>
<feGaussianBlur stdDeviation="2"/>
<feComposite in2="hardAlpha" operator="out"/>
<feColorMatrix type="matrix" values="0 0 0 0 0 0 0 0 0 0 0 0 0 0 0 0 0 0 0.25 0"/>
<feBlend mode="normal" in2="BackgroundImageFix" result="effect1_dropShadow_403_3416"/>
<feBlend mode="normal" in="SourceGraphic" in2="effect1_dropShadow_403_3416" result="shape"/>
</filter>
</defs>
</svg>
