<svg width="24" height="24" viewBox="0 0 24 24" fill="none" xmlns="http://www.w3.org/2000/svg">
<g clip-path="url(#clip0_403_3775)">
<path d="M15 12H9V10H15V12ZM24 13V19C23.9984 20.3256 23.4711 21.5964 22.5338 22.5338C21.5964 23.4711 20.3256 23.9984 19 24H5C3.6744 23.9984 2.40356 23.4711 1.46622 22.5338C0.528882 21.5964 0.00158786 20.3256 0 19L0 13H4V12C4.00179 10.5974 4.37229 9.21999 5.07435 8.00578C5.7764 6.79158 6.78534 5.78328 8 5.082V4C8 2.93913 8.42143 1.92172 9.17157 1.17157C9.92172 0.421427 10.9391 0 12 0C13.0609 0 14.0783 0.421427 14.8284 1.17157C15.5786 1.92172 16 2.93913 16 4V5.082C17.2147 5.78328 18.2236 6.79158 18.9257 8.00578C19.6277 9.21999 19.9982 10.5974 20 12V13H24ZM10 4.263C11.3103 3.91233 12.6897 3.91233 14 4.263V4C14 3.46957 13.7893 2.96086 13.4142 2.58579C13.0391 2.21071 12.5304 2 12 2C11.4696 2 10.9609 2.21071 10.5858 2.58579C10.2107 2.96086 10 3.46957 10 4V4.263ZM6 12V16.726C6.74771 15.8698 7.66999 15.1836 8.70488 14.7134C9.73977 14.2432 10.8633 14 12 14C13.1367 14 14.2602 14.2432 15.2951 14.7134C16.33 15.1836 17.2523 15.8698 18 16.726V12C18 10.4087 17.3679 8.88258 16.2426 7.75736C15.1174 6.63214 13.5913 6 12 6C10.4087 6 8.88258 6.63214 7.75736 7.75736C6.63214 8.88258 6 10.4087 6 12V12ZM4 21.816V15H2V19C2.00256 19.6183 2.19608 20.2206 2.55409 20.7247C2.91209 21.2288 3.41709 21.6099 4 21.816ZM6 22H18C18 20.4087 17.3679 18.8826 16.2426 17.7574C15.1174 16.6321 13.5913 16 12 16C10.4087 16 8.88258 16.6321 7.75736 17.7574C6.63214 18.8826 6 20.4087 6 22V22ZM22 15H20V21.816C20.5829 21.6099 21.0879 21.2288 21.4459 20.7247C21.8039 20.2206 21.9974 19.6183 22 19V15Z" fill="#374957"/>
</g>
<defs>
<clipPath id="clip0_403_3775">
<rect width="24" height="24" fill="white"/>
</clipPath>
</defs>
</svg>
