<svg width="24" height="24" viewBox="0 0 24 24" fill="none" xmlns="http://www.w3.org/2000/svg">
<g clip-path="url(#clip0_403_3414)">
<path d="M18.7571 16.0004C18.0684 15.9988 17.3863 16.1336 16.75 16.397C16.1137 16.6605 15.536 17.0474 15.0501 17.5354L12.0501 20.5354C11.587 21.0012 11.0361 21.3705 10.4293 21.622C9.82253 21.8734 9.1719 22.002 8.51507 22.0004H3.12207C2.90018 22.0007 2.68317 21.9352 2.49855 21.8121C2.31393 21.689 2.16999 21.5139 2.08496 21.3089C1.99994 21.104 1.97765 20.8784 2.02093 20.6607C2.06421 20.4431 2.1711 20.2432 2.32807 20.0864L2.71407 19.7004C3.27122 19.9721 3.89952 20.0624 4.51065 19.9586C5.12177 19.8547 5.68498 19.5619 6.12107 19.1214L12.4471 12.8004C12.8692 12.9138 13.3024 12.9809 13.7391 13.0004C13.8251 13.0004 13.9121 13.0004 14.0001 13.0004C15.5922 12.9991 17.119 12.367 18.2461 11.2424L19.2461 10.2424C19.8332 9.65414 20.292 8.95052 20.5934 8.17596C20.8948 7.40141 21.0322 6.57276 20.9971 5.74238C20.9637 4.90834 20.7551 4.09068 20.3848 3.34258C20.0146 2.59449 19.491 1.93274 18.8481 1.40038C17.6469 0.449048 16.1352 -0.0220791 14.6063 0.0784451C13.0773 0.178969 11.6403 0.843974 10.5741 1.94438L9.94107 2.57838C9.17603 3.34067 8.61876 4.28602 8.32225 5.32451C8.02574 6.36299 7.99986 7.46007 8.24707 8.51138L1.87907 14.8794C1.44397 15.3174 1.15496 15.8792 1.05166 16.4879C0.948367 17.0966 1.03583 17.7223 1.30207 18.2794L0.914071 18.6674C0.475762 19.1037 0.176944 19.6603 0.0555416 20.2667C-0.0658611 20.8731 -0.00437599 21.5019 0.232194 22.0733C0.468764 22.6447 0.869753 23.1329 1.38427 23.476C1.89879 23.8191 2.50365 24.0016 3.12207 24.0004H8.51507C9.43465 24.0029 10.3456 23.8229 11.1951 23.4708C12.0446 23.1187 12.8158 22.6016 13.4641 21.9494L16.4641 18.9494C16.9176 18.4959 17.4954 18.1871 18.1245 18.062C18.7535 17.9369 19.4055 18.0011 19.9981 18.2465C20.5906 18.4919 21.0971 18.9076 21.4534 19.4408C21.8098 19.9741 22 20.601 22.0001 21.2424V24.0004H24.0001V21.2424C23.9982 19.8525 23.4452 18.5201 22.4623 17.5374C21.4794 16.5547 20.1469 16.002 18.7571 16.0004ZM11.3571 3.98838L11.9901 3.35438C12.8114 2.52904 13.9257 2.06177 15.0901 2.05438C15.9915 2.04559 16.8669 2.35629 17.5611 2.93138C17.9905 3.28603 18.3406 3.72705 18.5885 4.22581C18.8364 4.72457 18.9767 5.2699 19.0001 5.82638C19.0232 6.3799 18.9314 6.93221 18.7306 7.44852C18.5297 7.96483 18.2241 8.43397 17.8331 8.82638L16.8331 9.82638C16.4402 10.2193 15.9697 10.526 15.4517 10.7271C14.9337 10.9281 14.3795 11.019 13.8244 10.9939C13.2694 10.9689 12.7256 10.8285 12.2278 10.5817C11.7299 10.3349 11.289 9.98705 10.9331 9.56038C10.3011 8.74417 9.99441 7.72253 10.0724 6.69321C10.1503 5.66389 10.6074 4.70009 11.3551 3.98838H11.3571ZM3.29307 16.2934L9.12907 10.4564C9.22007 10.5864 9.29307 10.7264 9.39607 10.8494C9.728 11.2415 10.108 11.5902 10.5271 11.8874L4.70707 17.7074C4.51694 17.8899 4.26361 17.9918 4.00007 17.9918C3.73653 17.9918 3.4832 17.8899 3.29307 17.7074C3.1056 17.5199 3.00028 17.2655 3.00028 17.0004C3.00028 16.7352 3.1056 16.4809 3.29307 16.2934Z" fill="#374957"/>
</g>
<defs>
<clipPath id="clip0_403_3414">
<rect width="24" height="24" fill="white"/>
</clipPath>
</defs>
</svg>
