<svg width="24" height="24" viewBox="0 0 24 24" fill="none" xmlns="http://www.w3.org/2000/svg">
<g clip-path="url(#clip0_403_3594)">
<path d="M17.321 -0.000118009H6.68103C5.97473 -0.00128077 5.29076 0.247292 4.75002 0.701663C4.20928 1.15603 3.84658 1.78695 3.72603 2.48288L-0.0389709 23.9999H24.061L20.276 2.47988C20.1537 1.78502 19.7904 1.15549 19.25 0.701925C18.7096 0.248361 18.0266 -0.000214515 17.321 -0.000118009V-0.000118009ZM2.34103 21.9999L5.70003 2.82788C5.74039 2.59669 5.86079 2.38706 6.04013 2.23569C6.21947 2.08432 6.44634 2.00084 6.68103 1.99988H17.321C17.5563 1.99986 17.784 2.08277 17.9641 2.23402C18.1443 2.38528 18.2653 2.5952 18.306 2.82688L21.679 21.9999H2.34103ZM11 3.99988H13V7.99988H11V3.99988ZM11 9.99988H13V13.9999H11V9.99988ZM11 15.9999H13V19.9999H11V15.9999Z" fill="#374957"/>
</g>
<defs>
<clipPath id="clip0_403_3594">
<rect width="24" height="24" fill="white"/>
</clipPath>
</defs>
</svg>
