<svg width="24" height="24" viewBox="0 0 24 24" fill="none" xmlns="http://www.w3.org/2000/svg">
<g clip-path="url(#clip0_403_3310)">
<path d="M13 8H15V10H13V12H11V10H9V8H11V6H13V8ZM7 16H17V14H7V16ZM7 20H13V18H7V20ZM21 2V21C21 21.7956 20.6839 22.5587 20.1213 23.1213C19.5587 23.6839 18.7956 24 18 24H6C5.20435 24 4.44129 23.6839 3.87868 23.1213C3.31607 22.5587 3 21.7956 3 21V2H8.171C8.37858 1.41549 8.7619 0.909511 9.26839 0.551443C9.77487 0.193376 10.3797 0.000756748 11 0L13 0C13.6203 0.000756748 14.2251 0.193376 14.7316 0.551443C15.2381 0.909511 15.6214 1.41549 15.829 2H21ZM19 4H14V3C14 2.73478 13.8946 2.48043 13.7071 2.29289C13.5196 2.10536 13.2652 2 13 2H11C10.7348 2 10.4804 2.10536 10.2929 2.29289C10.1054 2.48043 10 2.73478 10 3V4H5V21C5 21.2652 5.10536 21.5196 5.29289 21.7071C5.48043 21.8946 5.73478 22 6 22H18C18.2652 22 18.5196 21.8946 18.7071 21.7071C18.8946 21.5196 19 21.2652 19 21V4Z" fill="#374957"/>
</g>
<defs>
<clipPath id="clip0_403_3310">
<rect width="24" height="24" fill="white"/>
</clipPath>
</defs>
</svg>
