<svg width="30" height="32" viewBox="0 0 30 32" fill="none" xmlns="http://www.w3.org/2000/svg">
<g clip-path="url(#clip0_403_3560)" filter="url(#filter0_d_403_3560)">
<path d="M25.9998 5C25.9998 4.20435 25.6837 3.44129 25.1211 2.87868C24.5585 2.31607 23.7955 2 22.9998 2H22.8288C22.6212 1.41549 22.2379 0.909511 21.7314 0.551443C21.2249 0.193376 20.6201 0.000756748 19.9998 0L9.99982 0C9.37954 0.000756748 8.77469 0.193376 8.2682 0.551443C7.76172 0.909511 7.3784 1.41549 7.17082 2H6.99982C6.20417 2 5.44111 2.31607 4.8785 2.87868C4.31589 3.44129 3.99982 4.20435 3.99982 5V8H5.11682L7.11682 24H22.8828L24.8828 8H25.9998V5ZM5.99982 5C5.99982 4.73478 6.10517 4.48043 6.29271 4.29289C6.48025 4.10536 6.7346 4 6.99982 4H8.99982V3C8.99982 2.73478 9.10517 2.48043 9.29271 2.29289C9.48025 2.10536 9.7346 2 9.99982 2H19.9998C20.265 2 20.5194 2.10536 20.7069 2.29289C20.8945 2.48043 20.9998 2.73478 20.9998 3V4H22.9998C23.265 4 23.5194 4.10536 23.7069 4.29289C23.8945 4.48043 23.9998 4.73478 23.9998 5V6H5.99982V5ZM8.88282 22L8.13282 16H11.0808C11.9728 21.287 18.0288 21.284 18.9188 16H21.8668L21.1168 22H8.88282ZM12.9998 15C13.1048 11.046 16.8948 11.047 16.9998 15C16.8998 18.954 13.1048 18.953 12.9998 15ZM22.1168 14H18.9168C18.0248 8.713 11.9698 8.716 11.0788 14H7.87882L7.12882 8H22.8668L22.1168 14Z" fill="#374957"/>
</g>
<defs>
<filter id="filter0_d_403_3560" x="-1" y="0" width="32" height="32" filterUnits="userSpaceOnUse" color-interpolation-filters="sRGB">
<feFlood flood-opacity="0" result="BackgroundImageFix"/>
<feColorMatrix in="SourceAlpha" type="matrix" values="0 0 0 0 0 0 0 0 0 0 0 0 0 0 0 0 0 0 127 0" result="hardAlpha"/>
<feOffset dy="4"/>
<feGaussianBlur stdDeviation="2"/>
<feComposite in2="hardAlpha" operator="out"/>
<feColorMatrix type="matrix" values="0 0 0 0 0 0 0 0 0 0 0 0 0 0 0 0 0 0 0.25 0"/>
<feBlend mode="normal" in2="BackgroundImageFix" result="effect1_dropShadow_403_3560"/>
<feBlend mode="normal" in="SourceGraphic" in2="effect1_dropShadow_403_3560" result="shape"/>
</filter>
<clipPath id="clip0_403_3560">
<rect width="24" height="24" fill="white" transform="translate(3)"/>
</clipPath>
</defs>
</svg>
