<svg width="24" height="24" viewBox="0 0 24 24" fill="none" xmlns="http://www.w3.org/2000/svg">
<g clip-path="url(#clip0_403_3619)">
<path d="M24 14.9998C23.9947 13.1913 23.3784 11.4377 22.2511 10.0234C21.1239 8.60919 19.5518 7.61735 17.79 7.20885C17.4773 5.84071 16.8097 4.5791 15.8544 3.55099C14.8991 2.52288 13.6898 1.76457 12.3483 1.35237C11.0068 0.940171 9.58037 0.888638 8.2126 1.20296C6.84484 1.51728 5.584 2.18635 4.55702 3.14285L1.45702 0.0428467L0.0430219 1.45685L22.543 23.9568L23.957 22.5428L21.857 20.4428C23.236 18.9661 24.0021 17.0204 24 14.9998V14.9998ZM10 2.99985C11.4509 3.00375 12.8513 3.53236 13.9429 4.48811C15.0345 5.44386 15.7435 6.76222 15.939 8.19985L16.039 8.95785L16.798 9.05785C17.8819 9.20097 18.9059 9.63828 19.7589 10.3223C20.6118 11.0063 21.2611 11.9109 21.6362 12.9379C22.0113 13.9648 22.098 15.0749 21.8867 16.1477C21.6755 17.2204 21.1745 18.2148 20.438 19.0228L5.97301 4.55885C7.07467 3.55633 8.51048 3.00047 10 2.99985ZM16.7 20.9398L18.387 22.6278C17.6148 22.872 16.8099 22.9974 16 22.9998H5.50002C4.276 23.0014 3.08658 22.5938 2.12072 21.842C1.15487 21.0901 0.46798 20.037 0.169193 18.85C-0.129593 17.663 -0.0231397 16.4102 0.47164 15.2906C0.96642 14.1711 1.82115 13.249 2.90002 12.6708C2.30785 11.5379 1.99904 10.2783 2.00002 8.99985C2.00258 8.19027 2.12801 7.38578 2.37202 6.61385L4.06202 8.29985C4.02714 8.5317 4.00644 8.76547 4.00002 8.99985C3.99886 10.284 4.41354 11.534 5.18202 12.5628L6.06601 13.7548L4.62802 14.1258C3.80278 14.336 3.08282 14.8406 2.60365 15.5446C2.12449 16.2485 1.91917 17.1034 2.02633 17.9482C2.1335 18.793 2.54577 19.5695 3.18553 20.1315C3.8253 20.6936 4.64844 21.0024 5.50002 20.9998H16C16.2343 20.9935 16.468 20.9734 16.7 20.9398V20.9398Z" fill="#374957"/>
</g>
<defs>
<clipPath id="clip0_403_3619">
<rect width="24" height="24" fill="white"/>
</clipPath>
</defs>
</svg>
