<svg width="32" height="32" viewBox="0 0 32 32" fill="none" xmlns="http://www.w3.org/2000/svg">
<g clip-path="url(#clip0_403_3525)" filter="url(#filter0_d_403_3525)">
<path d="M26.767 8.39197L19.535 1.46397C18.6 0.529194 17.3327 0.00282241 16.0106 1.13172e-05C14.6884 -0.00279978 13.419 0.518179 12.48 1.44897L5.233 8.39197C4.84407 8.76588 4.53445 9.21431 4.32261 9.71049C4.11077 10.2067 4.00105 10.7405 4 11.28V24H28V11.28C27.999 10.7405 27.8892 10.2067 27.6774 9.71049C27.4656 9.21431 27.1559 8.76588 26.767 8.39197V8.39197ZM13.879 2.87797C14.4522 2.3279 15.2168 2.02209 16.0112 2.02508C16.8057 2.02806 17.5679 2.33961 18.137 2.89397L24.885 9.35797L18.121 16.122C17.5493 16.6669 16.7898 16.9709 16 16.9709C15.2102 16.9709 14.4507 16.6669 13.879 16.122L7.115 9.35797L13.879 2.87797ZM26 22H6V11.28C6 11.216 6.013 11.154 6.019 11.09L12.465 17.536C13.4026 18.4733 14.6742 18.9999 16 18.9999C17.3258 18.9999 18.5974 18.4733 19.535 17.536L25.981 11.09C25.987 11.154 26 11.216 26 11.28V22Z" fill="#374957"/>
</g>
<defs>
<filter id="filter0_d_403_3525" x="0" y="0" width="32" height="32" filterUnits="userSpaceOnUse" color-interpolation-filters="sRGB">
<feFlood flood-opacity="0" result="BackgroundImageFix"/>
<feColorMatrix in="SourceAlpha" type="matrix" values="0 0 0 0 0 0 0 0 0 0 0 0 0 0 0 0 0 0 127 0" result="hardAlpha"/>
<feOffset dy="4"/>
<feGaussianBlur stdDeviation="2"/>
<feComposite in2="hardAlpha" operator="out"/>
<feColorMatrix type="matrix" values="0 0 0 0 0 0 0 0 0 0 0 0 0 0 0 0 0 0 0.25 0"/>
<feBlend mode="normal" in2="BackgroundImageFix" result="effect1_dropShadow_403_3525"/>
<feBlend mode="normal" in="SourceGraphic" in2="effect1_dropShadow_403_3525" result="shape"/>
</filter>
<clipPath id="clip0_403_3525">
<rect width="24" height="24" fill="white" transform="translate(4)"/>
</clipPath>
</defs>
</svg>
