<svg width="24" height="24" viewBox="0 0 24 24" fill="none" xmlns="http://www.w3.org/2000/svg">
<g clip-path="url(#clip0_403_3349)">
<path d="M16.225 24H7.77401L7.57401 23.9C5.58344 22.8846 3.86255 21.4108 2.55305 19.6001C1.24356 17.7893 0.382922 15.6935 0.0420145 13.485C-0.0301493 13.0585 -0.0082001 12.6213 0.106325 12.2041C0.22085 11.787 0.425183 11.3999 0.705014 11.07C0.987931 10.7346 1.34072 10.465 1.73869 10.2802C2.13667 10.0954 2.57022 9.99976 3.00901 10H20.99C21.4282 10.0001 21.861 10.096 22.2583 10.2808C22.6556 10.4656 23.0077 10.7349 23.29 11.07C23.5702 11.3997 23.7749 11.7867 23.8898 12.2039C24.0046 12.6211 24.0269 13.0583 23.955 13.485C23.6142 15.693 22.7541 17.7885 21.4453 19.5991C20.1366 21.4098 18.4166 22.8838 16.427 23.9L16.225 24ZM8.22501 22H15.77C17.4112 21.0954 18.8242 19.8281 19.9013 18.2945C20.9783 16.761 21.691 15.0018 21.985 13.151C22.0091 13.0113 22.0019 12.868 21.9641 12.7314C21.9262 12.5949 21.8586 12.4683 21.766 12.361C21.6709 12.2478 21.5521 12.1569 21.418 12.0945C21.284 12.0322 21.1379 11.9999 20.99 12H3.00901C2.86115 11.9998 2.71504 12.0321 2.58097 12.0944C2.44691 12.1568 2.32813 12.2478 2.23301 12.361C2.14046 12.4684 2.07275 12.5949 2.03472 12.7314C1.99669 12.868 1.98928 13.0112 2.01301 13.151C2.3074 15.0018 3.02036 16.7609 4.09757 18.2944C5.17478 19.8279 6.58782 21.0953 8.22901 22H8.22501ZM12 6.414C12.0016 5.83397 11.8882 5.25937 11.6662 4.72348C11.4443 4.18759 11.1183 3.70104 10.707 3.292C10.4819 3.06874 10.3035 2.80293 10.1821 2.51004C10.0607 2.21715 9.99881 1.90304 10 1.586V0H8.00001V1.586C7.99828 2.16581 8.11158 2.74021 8.33336 3.27593C8.55513 3.81165 8.88097 4.29806 9.29201 4.707C9.7437 5.16049 9.99814 5.77394 10 6.414V8H12V6.414ZM16 5.414C16.0018 4.83409 15.8884 4.25961 15.6664 3.72386C15.4445 3.18811 15.1184 2.70175 14.707 2.293C14.256 1.83916 14.002 1.22585 14 0.586V0H12V0.586C12.0036 1.75603 12.4677 2.8776 13.292 3.708C13.5171 3.93131 13.6956 4.19711 13.8172 4.48997C13.9387 4.78283 14.0009 5.09692 14 5.414V7H16V5.414Z" fill="#374957"/>
</g>
<defs>
<clipPath id="clip0_403_3349">
<rect width="24" height="24" fill="white"/>
</clipPath>
</defs>
</svg>
