<svg width="30" height="32" viewBox="0 0 30 32" fill="none" xmlns="http://www.w3.org/2000/svg">
<g clip-path="url(#clip0_403_3632)" filter="url(#filter0_d_403_3632)">
<path d="M3.99982 24H25.9998V3C25.9998 2.20435 25.6837 1.44129 25.1211 0.87868C24.5585 0.31607 23.7955 0 22.9998 0L6.99982 0C6.20417 0 5.44111 0.31607 4.8785 0.87868C4.31589 1.44129 3.99982 2.20435 3.99982 3V24ZM5.99982 3C5.99982 2.73478 6.10517 2.48043 6.29271 2.29289C6.48025 2.10536 6.7346 2 6.99982 2H22.9998C23.265 2 23.5194 2.10536 23.7069 2.29289C23.8945 2.48043 23.9998 2.73478 23.9998 3V22H5.99982V3ZM7.99982 10H21.9998V4H7.99982V10ZM9.99982 6H19.9998V8H9.99982V6ZM7.99982 13H9.99982V15H7.99982V13ZM11.9998 13H13.9998V15H11.9998V13ZM17.9998 13V15H15.9998V13H17.9998ZM7.99982 17H9.99982V19H7.99982V17ZM11.9998 17H13.9998V19H11.9998V17ZM19.9998 13H21.9998V15H19.9998V13ZM15.9998 17H21.9998V19H15.9998V17Z" fill="#374957"/>
</g>
<defs>
<filter id="filter0_d_403_3632" x="-1" y="0" width="32" height="32" filterUnits="userSpaceOnUse" color-interpolation-filters="sRGB">
<feFlood flood-opacity="0" result="BackgroundImageFix"/>
<feColorMatrix in="SourceAlpha" type="matrix" values="0 0 0 0 0 0 0 0 0 0 0 0 0 0 0 0 0 0 127 0" result="hardAlpha"/>
<feOffset dy="4"/>
<feGaussianBlur stdDeviation="2"/>
<feComposite in2="hardAlpha" operator="out"/>
<feColorMatrix type="matrix" values="0 0 0 0 0 0 0 0 0 0 0 0 0 0 0 0 0 0 0.25 0"/>
<feBlend mode="normal" in2="BackgroundImageFix" result="effect1_dropShadow_403_3632"/>
<feBlend mode="normal" in="SourceGraphic" in2="effect1_dropShadow_403_3632" result="shape"/>
</filter>
<clipPath id="clip0_403_3632">
<rect width="24" height="24" fill="white" transform="translate(3)"/>
</clipPath>
</defs>
</svg>
