<svg width="32" height="31" viewBox="0 0 32 31" fill="none" xmlns="http://www.w3.org/2000/svg">
<g clip-path="url(#clip0_403_3372)" filter="url(#filter0_d_403_3372)">
<path d="M28 18.9999V3.99988C28 3.20423 27.6839 2.44117 27.1213 1.87856C26.5587 1.31595 25.7956 0.999878 25 0.999878H7C6.20435 0.999878 5.44129 1.31595 4.87868 1.87856C4.31607 2.44117 4 3.20423 4 3.99988V18.9999H15V20.9999H10V22.9999H22V20.9999H17V18.9999H28ZM7 2.99988H25C25.2652 2.99988 25.5196 3.10523 25.7071 3.29277C25.8946 3.48031 26 3.73466 26 3.99988V12.9999H6V3.99988C6 3.73466 6.10536 3.48031 6.29289 3.29277C6.48043 3.10523 6.73478 2.99988 7 2.99988V2.99988ZM6 14.9999H26V16.9999H6V14.9999Z" fill="#374957"/>
</g>
<defs>
<filter id="filter0_d_403_3372" x="0" y="0" width="32" height="32" filterUnits="userSpaceOnUse" color-interpolation-filters="sRGB">
<feFlood flood-opacity="0" result="BackgroundImageFix"/>
<feColorMatrix in="SourceAlpha" type="matrix" values="0 0 0 0 0 0 0 0 0 0 0 0 0 0 0 0 0 0 127 0" result="hardAlpha"/>
<feOffset dy="4"/>
<feGaussianBlur stdDeviation="2"/>
<feComposite in2="hardAlpha" operator="out"/>
<feColorMatrix type="matrix" values="0 0 0 0 0 0 0 0 0 0 0 0 0 0 0 0 0 0 0.25 0"/>
<feBlend mode="normal" in2="BackgroundImageFix" result="effect1_dropShadow_403_3372"/>
<feBlend mode="normal" in="SourceGraphic" in2="effect1_dropShadow_403_3372" result="shape"/>
</filter>
<clipPath id="clip0_403_3372">
<rect width="24" height="24" fill="white" transform="translate(4)"/>
</clipPath>
</defs>
</svg>
