<svg width="24" height="24" viewBox="0 0 24 24" fill="none" xmlns="http://www.w3.org/2000/svg">
<g clip-path="url(#clip0_403_3710)">
<path d="M7.00012 8.00087V7.00087C6.99981 5.89228 7.36795 4.81501 8.04664 3.93845C8.72533 3.06188 9.67609 2.43573 10.7495 2.15843C11.8228 1.88113 12.9579 1.96842 13.9762 2.40656C14.9946 2.8447 15.8384 3.60885 16.3751 4.57887L18.1241 3.60787C17.3724 2.25019 16.1908 1.18079 14.7652 0.567786C13.3395 -0.04522 11.7505 -0.167078 10.248 0.221368C8.7455 0.609813 7.41469 1.48654 6.46475 2.71372C5.51481 3.94091 4.9996 5.44898 5.00012 7.00087V8.00087H2.00012V21.0009C2.00012 21.7965 2.31619 22.5596 2.8788 23.1222C3.44141 23.6848 4.20447 24.0009 5.00012 24.0009H19.0001C19.7958 24.0009 20.5588 23.6848 21.1214 23.1222C21.6841 22.5596 22.0001 21.7965 22.0001 21.0009V8.00087H7.00012ZM20.0001 21.0009C20.0001 21.2661 19.8948 21.5204 19.7072 21.708C19.5197 21.8955 19.2653 22.0009 19.0001 22.0009H5.00012C4.73491 22.0009 4.48055 21.8955 4.29302 21.708C4.10548 21.5204 4.00012 21.2661 4.00012 21.0009V10.0009H20.0001V21.0009Z" fill="#374957"/>
<path d="M13.0001 14.0006H11.0001V18.0006H13.0001V14.0006Z" fill="#374957"/>
</g>
<defs>
<clipPath id="clip0_403_3710">
<rect width="24" height="24" fill="white"/>
</clipPath>
</defs>
</svg>
