<svg width="24" height="24" viewBox="0 0 24 24" fill="none" xmlns="http://www.w3.org/2000/svg">
<g clip-path="url(#clip0_403_3676)">
<path d="M24 3C24 2.20435 23.6839 1.44129 23.1213 0.87868C22.5587 0.31607 21.7956 0 21 0L3 0C2.20435 0 1.44129 0.31607 0.87868 0.87868C0.31607 1.44129 0 2.20435 0 3L0 9H1V24H23V9H24V3ZM2 3C2 2.73478 2.10536 2.48043 2.29289 2.29289C2.48043 2.10536 2.73478 2 3 2H21C21.2652 2 21.5196 2.10536 21.7071 2.29289C21.8946 2.48043 22 2.73478 22 3V7H2V3ZM21 22H3V9H21V22Z" fill="#374957"/>
<path d="M15.9996 12H7.99963V14H15.9996V12Z" fill="#374957"/>
</g>
<defs>
<clipPath id="clip0_403_3676">
<rect width="24" height="24" fill="white"/>
</clipPath>
</defs>
</svg>
