<svg width="32" height="32" viewBox="0 0 32 32" fill="none" xmlns="http://www.w3.org/2000/svg">
<g clip-path="url(#clip0_403_3698)" filter="url(#filter0_d_403_3698)">
<path d="M18 15.9998H16V11.9998C15.9994 10.9263 15.7108 9.87268 15.1643 8.94873C14.6178 8.02478 13.8334 7.26437 12.893 6.74678C13.4339 6.18029 13.7966 5.46746 13.9361 4.69672C14.0755 3.92598 13.9857 3.13125 13.6776 2.41112C13.3695 1.691 12.8568 1.07717 12.203 0.64578C11.5493 0.214393 10.7833 -0.015564 10 -0.015564C9.21674 -0.015564 8.45072 0.214393 7.79696 0.64578C7.1432 1.07717 6.63048 1.691 6.32241 2.41112C6.01433 3.13125 5.92445 3.92598 6.06393 4.69672C6.2034 5.46746 6.56609 6.18029 7.107 6.74678C6.16656 7.26437 5.3822 8.02478 4.83571 8.94873C4.28922 9.87268 4.00062 10.9263 4 11.9998L4 23.9998H6V17.9998H26V23.9998H28V7.99978H18V15.9998ZM8 3.99978C8 3.60422 8.1173 3.21754 8.33706 2.88864C8.55682 2.55974 8.86918 2.3034 9.23463 2.15202C9.60009 2.00065 10.0022 1.96104 10.3902 2.03821C10.7781 2.11538 11.1345 2.30586 11.4142 2.58557C11.6939 2.86527 11.8844 3.22164 11.9616 3.6096C12.0387 3.99756 11.9991 4.3997 11.8478 4.76515C11.6964 5.1306 11.44 5.44296 11.1111 5.66272C10.7822 5.88248 10.3956 5.99978 10 5.99978C9.46957 5.99978 8.96086 5.78907 8.58579 5.414C8.21071 5.03892 8 4.53021 8 3.99978V3.99978ZM6 11.9998C6 10.9389 6.42143 9.9215 7.17157 9.17136C7.92172 8.42121 8.93913 7.99978 10 7.99978C11.0609 7.99978 12.0783 8.42121 12.8284 9.17136C13.5786 9.9215 14 10.9389 14 11.9998V15.9998H6V11.9998ZM22 9.99978V11.9998H24V9.99978H26V15.9998H20V9.99978H22Z" fill="#374957"/>
</g>
<defs>
<filter id="filter0_d_403_3698" x="0" y="0" width="32" height="32" filterUnits="userSpaceOnUse" color-interpolation-filters="sRGB">
<feFlood flood-opacity="0" result="BackgroundImageFix"/>
<feColorMatrix in="SourceAlpha" type="matrix" values="0 0 0 0 0 0 0 0 0 0 0 0 0 0 0 0 0 0 127 0" result="hardAlpha"/>
<feOffset dy="4"/>
<feGaussianBlur stdDeviation="2"/>
<feComposite in2="hardAlpha" operator="out"/>
<feColorMatrix type="matrix" values="0 0 0 0 0 0 0 0 0 0 0 0 0 0 0 0 0 0 0.25 0"/>
<feBlend mode="normal" in2="BackgroundImageFix" result="effect1_dropShadow_403_3698"/>
<feBlend mode="normal" in="SourceGraphic" in2="effect1_dropShadow_403_3698" result="shape"/>
</filter>
<clipPath id="clip0_403_3698">
<rect width="24" height="24" fill="white" transform="translate(4)"/>
</clipPath>
</defs>
</svg>
