<svg width="24" height="24" viewBox="0 0 24 24" fill="none" xmlns="http://www.w3.org/2000/svg">
<g clip-path="url(#clip0_403_3290)">
<path d="M23.9949 22.583L17.7465 16.3346C21.2404 12.0614 20.6086 5.76496 16.3355 2.27108C12.0624 -1.22279 5.7659 -0.591105 2.27203 3.68202C-1.22185 7.95515 -0.590159 14.2516 3.68297 17.7455C7.36364 20.755 12.6549 20.755 16.3355 17.7455L22.584 23.9939L23.9949 22.583ZM10.0252 18.0069C5.61647 18.0069 2.04253 14.4329 2.04253 10.0243C2.04253 5.61557 5.61647 2.04158 10.0252 2.04158C14.4339 2.04158 18.0079 5.61557 18.0079 10.0243C18.003 14.4309 14.4319 18.002 10.0252 18.0069Z" fill="#374957"/>
<path d="M14.0167 9.0264H6.03406V11.0221H14.0167V9.0264Z" fill="#374957"/>
</g>
<defs>
<clipPath id="clip0_403_3290">
<rect width="24" height="24" fill="white"/>
</clipPath>
</defs>
</svg>
