<svg width="32" height="32" viewBox="0 0 32 32" fill="none" xmlns="http://www.w3.org/2000/svg">
<g clip-path="url(#clip0_403_3426)" filter="url(#filter0_d_403_3426)">
<path d="M16 12.0001C16.7911 12.0001 17.5645 11.7655 18.2223 11.326C18.8801 10.8865 19.3928 10.2617 19.6955 9.53084C19.9983 8.79993 20.0775 7.99567 19.9231 7.21974C19.7688 6.44382 19.3878 5.73109 18.8284 5.17168C18.269 4.61227 17.5563 4.2313 16.7804 4.07696C16.0044 3.92262 15.2002 4.00184 14.4693 4.30459C13.7384 4.60734 13.1136 5.12003 12.6741 5.77782C12.2346 6.43562 12 7.20898 12 8.0001C12 9.06097 12.4214 10.0784 13.1716 10.8285C13.9217 11.5787 14.9391 12.0001 16 12.0001ZM16 6.0001C16.3956 6.0001 16.7822 6.1174 17.1111 6.33717C17.44 6.55693 17.6964 6.86929 17.8478 7.23474C17.9991 7.60019 18.0387 8.00232 17.9616 8.39029C17.8844 8.77825 17.6939 9.13461 17.4142 9.41432C17.1345 9.69402 16.7781 9.88451 16.3902 9.96168C16.0022 10.0388 15.6001 9.99924 15.2346 9.84786C14.8692 9.69649 14.5568 9.44014 14.3371 9.11125C14.1173 8.78235 14 8.39567 14 8.0001C14 7.46967 14.2107 6.96096 14.5858 6.58589C14.9609 6.21082 15.4696 6.0001 16 6.0001ZM20 22.0301L28 23.9781V13.4831C27.9998 12.839 27.7923 12.212 27.4081 11.695C27.024 11.1779 26.4836 10.7983 25.867 10.6121L23.767 9.9121C23.9206 9.28837 23.9988 8.64847 24 8.0061C24 5.88437 23.1571 3.84954 21.6569 2.34925C20.1566 0.848958 18.1217 0.00610352 16 0.00610352C13.8783 0.00610352 11.8434 0.848958 10.3431 2.34925C8.84286 3.84954 8 5.88437 8 8.0061C8.00296 8.41204 8.03639 8.81718 8.1 9.21811C7.64587 9.03706 7.15429 8.97005 6.66827 9.02295C6.18225 9.07585 5.7166 9.24703 5.31205 9.52154C4.9075 9.79604 4.57637 10.1655 4.34765 10.5976C4.11892 11.0297 3.99956 11.5112 4 12.0001V21.7521L11.983 24.0331L20 22.0301ZM11.757 3.7641C12.8842 2.65286 14.4049 2.03207 15.9878 2.03698C17.5707 2.04189 19.0875 2.6721 20.2079 3.79032C21.3282 4.90853 21.9612 6.42416 21.9691 8.00703C21.977 9.5899 21.3591 11.1118 20.25 12.2411L16 16.4001L11.757 12.2491C10.6319 11.1239 9.99978 9.59784 9.99978 8.00661C9.99978 6.41537 10.6319 4.88931 11.757 3.7641V3.7641ZM6 12.0001C5.99874 11.8352 6.03891 11.6726 6.11684 11.5272C6.19476 11.3818 6.30795 11.2584 6.446 11.1681C6.59041 11.0733 6.75678 11.0173 6.92911 11.0054C7.10143 10.9935 7.27392 11.0261 7.43 11.1001L8.864 11.6181C9.24766 12.3779 9.74958 13.0718 10.351 13.6741L16 19.2001L21.657 13.6671C22.2133 13.1117 22.6849 12.4776 23.057 11.7851L25.274 12.5261C25.4828 12.5858 25.6665 12.7119 25.7973 12.8853C25.9281 13.0587 25.9989 13.2699 25.999 13.4871V21.4361L20 19.9701L12.02 21.9701L6 20.2461V12.0001Z" fill="#374957"/>
</g>
<defs>
<filter id="filter0_d_403_3426" x="0" y="0" width="32" height="32" filterUnits="userSpaceOnUse" color-interpolation-filters="sRGB">
<feFlood flood-opacity="0" result="BackgroundImageFix"/>
<feColorMatrix in="SourceAlpha" type="matrix" values="0 0 0 0 0 0 0 0 0 0 0 0 0 0 0 0 0 0 127 0" result="hardAlpha"/>
<feOffset dy="4"/>
<feGaussianBlur stdDeviation="2"/>
<feComposite in2="hardAlpha" operator="out"/>
<feColorMatrix type="matrix" values="0 0 0 0 0 0 0 0 0 0 0 0 0 0 0 0 0 0 0.25 0"/>
<feBlend mode="normal" in2="BackgroundImageFix" result="effect1_dropShadow_403_3426"/>
<feBlend mode="normal" in="SourceGraphic" in2="effect1_dropShadow_403_3426" result="shape"/>
</filter>
<clipPath id="clip0_403_3426">
<rect width="24" height="24" fill="white" transform="translate(4)"/>
</clipPath>
</defs>
</svg>
