<svg width="32" height="32" viewBox="0 0 32 32" fill="none" xmlns="http://www.w3.org/2000/svg">
<g clip-path="url(#clip0_403_3536)" filter="url(#filter0_d_403_3536)">
<path d="M20.4999 23.9998C13.2519 23.9998 3.99993 14.7479 3.99993 7.49986C3.993 6.71968 4.14122 5.94589 4.43598 5.2235C4.73074 4.5011 5.16616 3.8445 5.71693 3.29187L8.88693 0.121873L15.1509 6.38687L11.7449 9.79286C12.9723 12.7074 15.2881 15.0282 18.1999 16.2619L21.6139 12.8479L27.8799 19.1129L24.7079 22.2848C24.1551 22.8352 23.4984 23.2702 22.776 23.5646C22.0537 23.8591 21.28 24.007 20.4999 23.9998V23.9998ZM8.88693 2.95087L7.12993 4.70787C6.76589 5.0751 6.47851 5.51106 6.28452 5.99038C6.09052 6.4697 5.99378 6.98281 5.99993 7.49986C5.99993 13.7339 14.2659 21.9998 20.4999 21.9998C21.0168 22.0058 21.5297 21.9092 22.0089 21.7156C22.4882 21.5219 22.9243 21.2352 23.2919 20.8718L25.0509 19.1129L21.6129 15.6759L18.6859 18.5999L18.0799 18.3679C16.1501 17.6497 14.3972 16.5251 12.94 15.0703C11.4828 13.6155 10.3553 11.8645 9.63393 9.93586L9.38793 9.32286L12.3229 6.38687L8.88693 2.95087ZM21.1869 10.6889L22.5599 9.31786L20.9999 7.75786V4.99987H18.9999V8.49986L21.1869 10.6889ZM15.5649 3.97287C16.1096 3.37076 16.771 2.88565 17.5089 2.54699C18.2468 2.20834 19.0459 2.02321 19.8576 2.00286C20.6692 1.9825 21.4766 2.12733 22.2305 2.42857C22.9845 2.7298 23.6694 3.18115 24.2436 3.75519C24.8177 4.32924 25.2692 5.014 25.5707 5.7679C25.8721 6.5218 26.0171 7.3291 25.9969 8.14077C25.9768 8.95244 25.7918 9.75154 25.4533 10.4895C25.1149 11.2275 24.6299 11.889 24.0279 12.4339L25.4409 13.8479C26.2279 13.1171 26.8594 12.2352 27.2977 11.2549C27.736 10.2745 27.9722 9.21587 27.9921 8.14217C28.012 7.06847 27.8151 6.00179 27.4134 5.00589C27.0116 4.00999 26.4132 3.10533 25.6538 2.34598C24.8945 1.58663 23.9898 0.988185 22.9939 0.586426C21.998 0.184668 20.9313 -0.0121579 19.8576 0.00771576C18.7839 0.0275894 17.7253 0.263754 16.7449 0.702092C15.7646 1.14043 14.8827 1.77194 14.1519 2.55887L15.5649 3.97287Z" fill="#374957"/>
</g>
<defs>
<filter id="filter0_d_403_3536" x="0" y="0" width="32" height="32" filterUnits="userSpaceOnUse" color-interpolation-filters="sRGB">
<feFlood flood-opacity="0" result="BackgroundImageFix"/>
<feColorMatrix in="SourceAlpha" type="matrix" values="0 0 0 0 0 0 0 0 0 0 0 0 0 0 0 0 0 0 127 0" result="hardAlpha"/>
<feOffset dy="4"/>
<feGaussianBlur stdDeviation="2"/>
<feComposite in2="hardAlpha" operator="out"/>
<feColorMatrix type="matrix" values="0 0 0 0 0 0 0 0 0 0 0 0 0 0 0 0 0 0 0.25 0"/>
<feBlend mode="normal" in2="BackgroundImageFix" result="effect1_dropShadow_403_3536"/>
<feBlend mode="normal" in="SourceGraphic" in2="effect1_dropShadow_403_3536" result="shape"/>
</filter>
<clipPath id="clip0_403_3536">
<rect width="24" height="24" fill="white" transform="translate(4)"/>
</clipPath>
</defs>
</svg>
