<svg width="28" height="32" viewBox="0 0 28 32" fill="none" xmlns="http://www.w3.org/2000/svg">
<g clip-path="url(#clip0_403_3555)" filter="url(#filter0_d_403_3555)">
<path d="M12.0002 -5.78855e-05H14.0002V8.99994C14.0002 9.79559 13.6841 10.5587 13.1215 11.1213C12.5589 11.6839 11.7958 11.9999 11.0002 11.9999H10.0002V23.9999H8.00015V11.9999H7.00015C6.2045 11.9999 5.44144 11.6839 4.87883 11.1213C4.31622 10.5587 4.00015 9.79559 4.00015 8.99994V-5.78855e-05H6.00015V8.99994C6.00015 9.26516 6.10551 9.51951 6.29305 9.70705C6.48058 9.89459 6.73494 9.99994 7.00015 9.99994H8.00015V-5.78855e-05H10.0002V9.99994H11.0002C11.2654 9.99994 11.5197 9.89459 11.7073 9.70705C11.8948 9.51951 12.0002 9.26516 12.0002 8.99994V-5.78855e-05ZM24.0002 9.26694C24.0002 13.9439 20.1232 18.4579 19.0002 19.6669V23.9999H17.0002V1.99994C17.0001 1.57888 17.133 1.16856 17.3798 0.827429C17.6267 0.486303 17.9749 0.231779 18.3748 0.100125C18.7748 -0.0315287 19.2061 -0.033597 19.6072 0.094215C20.0084 0.222027 20.3591 0.473199 20.6092 0.811942C22.1552 2.88694 24.0002 6.03894 24.0002 9.26694ZM19.0002 16.5269C22.9002 11.4989 22.9202 7.04994 19.0002 2.00694V16.5269Z" fill="#374957"/>
</g>
<defs>
<filter id="filter0_d_403_3555" x="-2" y="0" width="32" height="32" filterUnits="userSpaceOnUse" color-interpolation-filters="sRGB">
<feFlood flood-opacity="0" result="BackgroundImageFix"/>
<feColorMatrix in="SourceAlpha" type="matrix" values="0 0 0 0 0 0 0 0 0 0 0 0 0 0 0 0 0 0 127 0" result="hardAlpha"/>
<feOffset dy="4"/>
<feGaussianBlur stdDeviation="2"/>
<feComposite in2="hardAlpha" operator="out"/>
<feColorMatrix type="matrix" values="0 0 0 0 0 0 0 0 0 0 0 0 0 0 0 0 0 0 0.25 0"/>
<feBlend mode="normal" in2="BackgroundImageFix" result="effect1_dropShadow_403_3555"/>
<feBlend mode="normal" in="SourceGraphic" in2="effect1_dropShadow_403_3555" result="shape"/>
</filter>
<clipPath id="clip0_403_3555">
<rect width="24" height="24" fill="white" transform="translate(2)"/>
</clipPath>
</defs>
</svg>
