<svg width="24" height="24" viewBox="0 0 24 24" fill="none" xmlns="http://www.w3.org/2000/svg">
<g clip-path="url(#clip0_403_3640)">
<path d="M12 0C9.62663 0 7.30655 0.703788 5.33316 2.02236C3.35977 3.34094 1.8217 5.21509 0.913451 7.4078C0.00519943 9.60051 -0.232441 12.0133 0.230582 14.3411C0.693605 16.6689 1.83649 18.8071 3.51472 20.4853C5.19295 22.1635 7.33115 23.3064 9.65892 23.7694C11.9867 24.2324 14.3995 23.9948 16.5922 23.0866C18.7849 22.1783 20.6591 20.6402 21.9776 18.6668C23.2962 16.6935 24 14.3734 24 12C24 8.8174 22.7357 5.76516 20.4853 3.51472C18.2349 1.26428 15.1826 0 12 0V0ZM21.949 11H13V2.051C15.2938 2.28456 17.4368 3.30244 19.0672 4.93281C20.6976 6.56318 21.7154 8.70617 21.949 11V11ZM2.00001 12C2.00313 9.52195 2.92504 7.13308 4.58745 5.29538C6.24986 3.45768 8.53466 2.3017 11 2.051V12.414L18.324 19.738C16.8598 20.9374 15.0851 21.6963 13.2064 21.9264C11.3277 22.1564 9.42234 21.8481 7.71204 21.0374C6.00174 20.2267 4.55688 18.9469 3.54565 17.3469C2.53441 15.747 1.9984 13.8927 2.00001 12V12ZM19.738 18.324L14.414 13H21.949C21.754 14.9541 20.9846 16.8066 19.738 18.324Z" fill="#374957"/>
</g>
<defs>
<clipPath id="clip0_403_3640">
<rect width="24" height="24" fill="white"/>
</clipPath>
</defs>
</svg>
