<svg width="24" height="24" viewBox="0 0 24 24" fill="none" xmlns="http://www.w3.org/2000/svg">
<g clip-path="url(#clip0_403_3395)">
<path d="M14.4142 0H5.00015C4.2045 0 3.44144 0.31607 2.87883 0.87868C2.31622 1.44129 2.00015 2.20435 2.00015 3V24H22.0002V7.586L14.4142 0ZM15.0002 3.414L18.5862 7H15.0002V3.414ZM4.00015 22V3C4.00015 2.73478 4.10551 2.48043 4.29305 2.29289C4.48058 2.10536 4.73494 2 5.00015 2H13.0002V9H20.0002V22H4.00015ZM15.2932 13.122L16.7072 14.536L13.1212 18.121C12.8426 18.3996 12.5118 18.6207 12.1478 18.7715C11.7838 18.9222 11.3937 18.9999 10.9997 18.9999C10.6056 18.9999 10.2155 18.9222 9.85149 18.7715C9.48748 18.6207 9.15674 18.3996 8.87815 18.121L7.29315 16.536L8.70715 15.122L10.2932 16.707C10.4835 16.889 10.7368 16.9906 11.0002 16.9906C11.2635 16.9906 11.5168 16.889 11.7072 16.707L15.2932 13.122Z" fill="#374957"/>
</g>
<defs>
<clipPath id="clip0_403_3395">
<rect width="24" height="24" fill="white"/>
</clipPath>
</defs>
</svg>
