<svg width="24" height="24" viewBox="0 0 24 24" fill="none" xmlns="http://www.w3.org/2000/svg">
<g clip-path="url(#clip0_403_3375)">
<path d="M24 3C24 2.20435 23.6839 1.44129 23.1213 0.87868C22.5587 0.31607 21.7956 0 21 0L9 0C8.20435 0 7.44129 0.31607 6.87868 0.87868C6.31607 1.44129 6 2.20435 6 3V11H3C2.20435 11 1.44129 11.3161 0.87868 11.8787C0.31607 12.4413 0 13.2044 0 14L0 24H13V18H24V3ZM11 22H2V14C2 13.7348 2.10536 13.4804 2.29289 13.2929C2.48043 13.1054 2.73478 13 3 13H6V18H11V22ZM11 14V16H8V13H10C10.2652 13 10.5196 13.1054 10.7071 13.2929C10.8946 13.4804 11 13.7348 11 14ZM22 16H13V14C12.9983 13.5545 12.8957 13.1152 12.7 12.715L18 7.415V11H20V4H13V6H16.586L11.286 11.3C10.8855 11.1041 10.4458 11.0016 10 11H8V3C8 2.73478 8.10536 2.48043 8.29289 2.29289C8.48043 2.10536 8.73478 2 9 2H21C21.2652 2 21.5196 2.10536 21.7071 2.29289C21.8946 2.48043 22 2.73478 22 3V16Z" fill="#374957"/>
</g>
<defs>
<clipPath id="clip0_403_3375">
<rect width="24" height="24" fill="white"/>
</clipPath>
</defs>
</svg>
