<svg width="24" height="24" viewBox="0 0 24 24" fill="none" xmlns="http://www.w3.org/2000/svg">
<g clip-path="url(#clip0_403_3674)">
<path d="M21 0H3C2.20435 0 1.44129 0.31607 0.87868 0.87868C0.31607 1.44129 0 2.20435 0 3L0 24H24V3C24 2.20435 23.6839 1.44129 23.1213 0.87868C22.5587 0.31607 21.7956 0 21 0V0ZM22 3V5H15V2H21C21.2652 2 21.5196 2.10536 21.7071 2.29289C21.8946 2.48043 22 2.73478 22 3ZM11 2H13V8H11V2ZM3 2H9V5H2V3C2 2.73478 2.10536 2.48043 2.29289 2.29289C2.48043 2.10536 2.73478 2 3 2V2ZM2 22V7H9V10H15V7H22V22H2ZM15 18H20V20H15V18Z" fill="#374957"/>
</g>
<defs>
<clipPath id="clip0_403_3674">
<rect width="24" height="24" fill="white"/>
</clipPath>
</defs>
</svg>
