<svg width="32" height="32" viewBox="0 0 32 32" fill="none" xmlns="http://www.w3.org/2000/svg">
<g clip-path="url(#clip0_403_3296)" filter="url(#filter0_d_403_3296)">
<path d="M16 0C13.6266 0 11.3066 0.703788 9.33316 2.02236C7.35977 3.34094 5.8217 5.21509 4.91345 7.4078C4.0052 9.60051 3.76756 12.0133 4.23058 14.3411C4.6936 16.6689 5.83649 18.8071 7.51472 20.4853C9.19295 22.1635 11.3312 23.3064 13.6589 23.7694C15.9867 24.2324 18.3995 23.9948 20.5922 23.0866C22.7849 22.1783 24.6591 20.6402 25.9776 18.6668C27.2962 16.6935 28 14.3734 28 12C27.9966 8.81846 26.7312 5.76821 24.4815 3.51852C22.2318 1.26883 19.1815 0.00344108 16 0V0ZM25.029 16.271C21.3365 17.4231 17.3536 17.2167 13.8 15.689C14.4339 14.7069 15.2358 13.844 16.169 13.14C17.5826 13.7116 19.0923 14.0079 20.617 14.013C22.472 14.0128 24.3021 13.5851 25.965 12.763C25.8719 13.98 25.5546 15.1694 25.029 16.271ZM25.875 10.503C24.9688 11.0675 23.9779 11.4828 22.94 11.733C22.7248 8.52909 21.6641 5.4395 19.866 2.779C21.4441 3.44499 22.825 4.50444 23.877 5.85615C24.929 7.20787 25.6169 8.80671 25.875 10.5V10.503ZM16.748 2.038C19.2447 4.77636 20.7271 8.28791 20.948 11.987C19.5814 12.0341 18.2198 11.7992 16.948 11.297C16.8497 9.62482 16.4033 7.9916 15.6373 6.50191C14.8714 5.01222 13.8028 3.69889 12.5 2.646C13.6182 2.22147 14.8039 2.00262 16 2C16.253 2 16.5 2.019 16.748 2.038V2.038ZM10.487 3.665C11.4264 4.27759 12.2563 5.04358 12.942 5.931C9.94281 7.9371 7.60731 10.7891 6.23201 14.125C5.79941 12.1557 5.97455 10.1015 6.73428 8.23388C7.49401 6.36625 8.80256 4.77311 10.487 3.665V3.665ZM7.36501 17.02C8.35398 13.1958 10.7047 9.86397 13.976 7.65C14.5677 8.86616 14.9055 10.19 14.969 11.541C13.6197 12.5663 12.5022 13.8651 11.6897 15.3523C10.8771 16.8395 10.3879 18.4816 10.254 20.171C9.07657 19.3396 8.09137 18.265 7.36501 17.02ZM16 22C14.7063 21.9996 13.425 21.7469 12.228 21.256C12.206 19.9661 12.4342 18.6841 12.9 17.481C15.2012 18.4923 17.6864 19.0173 20.2 19.023C21.2637 19.021 22.3251 18.9253 23.372 18.737C22.4385 19.7646 21.3004 20.5857 20.0309 21.1476C18.7613 21.7096 17.3883 21.9999 16 22Z" fill="#374957"/>
</g>
<defs>
<filter id="filter0_d_403_3296" x="0" y="0" width="32" height="32" filterUnits="userSpaceOnUse" color-interpolation-filters="sRGB">
<feFlood flood-opacity="0" result="BackgroundImageFix"/>
<feColorMatrix in="SourceAlpha" type="matrix" values="0 0 0 0 0 0 0 0 0 0 0 0 0 0 0 0 0 0 127 0" result="hardAlpha"/>
<feOffset dy="4"/>
<feGaussianBlur stdDeviation="2"/>
<feComposite in2="hardAlpha" operator="out"/>
<feColorMatrix type="matrix" values="0 0 0 0 0 0 0 0 0 0 0 0 0 0 0 0 0 0 0.25 0"/>
<feBlend mode="normal" in2="BackgroundImageFix" result="effect1_dropShadow_403_3296"/>
<feBlend mode="normal" in="SourceGraphic" in2="effect1_dropShadow_403_3296" result="shape"/>
</filter>
<clipPath id="clip0_403_3296">
<rect width="24" height="24" fill="white" transform="translate(4)"/>
</clipPath>
</defs>
</svg>
