<svg width="32" height="32" viewBox="0 0 32 32" fill="none" xmlns="http://www.w3.org/2000/svg">
<g clip-path="url(#clip0_403_3732)" filter="url(#filter0_d_403_3732)">
<path d="M25 4H22.492L19.406 0H12.593L9.508 4H7C6.20435 4 5.44129 4.31607 4.87868 4.87868C4.31607 5.44129 4 6.20435 4 7V24H28V7C28 6.20435 27.6839 5.44129 27.1213 4.87868C26.5587 4.31607 25.7956 4 25 4V4ZM13.577 2H18.424L19.966 4H12.034L13.577 2ZM26 22H6V7C6 6.73478 6.10536 6.48043 6.29289 6.29289C6.48043 6.10536 6.73478 6 7 6H25C25.2652 6 25.5196 6.10536 25.7071 6.29289C25.8946 6.48043 26 6.73478 26 7V22Z" fill="#374957"/>
<path d="M15.9999 7.99988C14.8132 7.99988 13.6532 8.35177 12.6665 9.01106C11.6798 9.67035 10.9107 10.6074 10.4566 11.7038C10.0025 12.8001 9.88366 14.0065 10.1152 15.1704C10.3467 16.3343 10.9181 17.4034 11.7572 18.2425C12.5964 19.0816 13.6655 19.6531 14.8293 19.8846C15.9932 20.1161 17.1996 19.9973 18.296 19.5432C19.3923 19.089 20.3294 18.32 20.9887 17.3333C21.648 16.3466 21.9999 15.1866 21.9999 13.9999C21.9983 12.4091 21.3656 10.8839 20.2408 9.75899C19.1159 8.63412 17.5907 8.00147 15.9999 7.99988V7.99988ZM15.9999 17.9999C15.2088 17.9999 14.4354 17.7653 13.7776 17.3258C13.1198 16.8862 12.6071 16.2615 12.3044 15.5306C12.0016 14.7997 11.9224 13.9954 12.0767 13.2195C12.2311 12.4436 12.612 11.7309 13.1715 11.1715C13.7309 10.612 14.4436 10.2311 15.2195 10.0767C15.9954 9.9224 16.7997 10.0016 17.5306 10.3044C18.2615 10.6071 18.8862 11.1198 19.3258 11.7776C19.7653 12.4354 19.9999 13.2088 19.9999 13.9999C19.9999 15.0607 19.5785 16.0782 18.8283 16.8283C18.0782 17.5785 17.0607 17.9999 15.9999 17.9999Z" fill="#374957"/>
</g>
<defs>
<filter id="filter0_d_403_3732" x="0" y="0" width="32" height="32" filterUnits="userSpaceOnUse" color-interpolation-filters="sRGB">
<feFlood flood-opacity="0" result="BackgroundImageFix"/>
<feColorMatrix in="SourceAlpha" type="matrix" values="0 0 0 0 0 0 0 0 0 0 0 0 0 0 0 0 0 0 127 0" result="hardAlpha"/>
<feOffset dy="4"/>
<feGaussianBlur stdDeviation="2"/>
<feComposite in2="hardAlpha" operator="out"/>
<feColorMatrix type="matrix" values="0 0 0 0 0 0 0 0 0 0 0 0 0 0 0 0 0 0 0.25 0"/>
<feBlend mode="normal" in2="BackgroundImageFix" result="effect1_dropShadow_403_3732"/>
<feBlend mode="normal" in="SourceGraphic" in2="effect1_dropShadow_403_3732" result="shape"/>
</filter>
<clipPath id="clip0_403_3732">
<rect width="24" height="24" fill="white" transform="translate(4)"/>
</clipPath>
</defs>
</svg>
