<svg width="32" height="32" viewBox="0 0 32 32" fill="none" xmlns="http://www.w3.org/2000/svg">
<g clip-path="url(#clip0_403_3514)" filter="url(#filter0_d_403_3514)">
<path d="M25 0H7C5.34316 0 4 1.34316 4 3V24H22.35C24.556 21.793 25.793 20.556 28 18.35V3C28 1.34316 26.6568 0 25 0ZM6.00002 3C6.00002 2.44772 6.44772 2.00002 7 2.00002H25C25.5523 2.00002 26 2.44772 26 3V16H20V22H6.00002V3ZM22 21.521V18H25.521L22 21.521Z" fill="#374957"/>
<path d="M20.3098 5.02686H18.3589V5.03487V5.86789L18.3699 10.9549H18.9949C18.9949 10.9549 19.9789 10.9549 20.3578 10.9449C21.8333 10.8345 22.8218 9.66289 22.8218 7.98992C22.8218 6.21786 21.8128 5.02686 20.3098 5.02686ZM20.3358 9.69284C20.1718 9.69284 19.8938 9.69786 19.6358 9.69982L19.6168 6.27682H20.3168C21.4888 6.27682 21.5788 7.58782 21.5788 7.98982C21.5718 8.82682 21.1908 9.67784 20.3358 9.69284Z" fill="#374957"/>
<path d="M9.94677 5.00042H7.9798V11.0694H9.22981V8.96942H9.94681C11.0431 8.96942 11.9318 8.08072 11.9318 6.98441C11.9318 5.88809 11.0431 4.99939 9.94681 4.99939V5.00042H9.94677ZM9.94677 7.72039H9.23675V6.24739H9.95173C10.3577 6.24716 10.6869 6.57603 10.6872 6.98197C10.6874 7.38791 10.3585 7.71716 9.95258 7.71739C9.9523 7.71739 9.95202 7.71739 9.95173 7.71739L9.94677 7.72039Z" fill="#374957"/>
<path d="M14.6152 6.28069C15.0684 6.18469 15.5408 6.29457 15.9052 6.58069L16.3812 6.98068L17.1812 6.02466L16.7022 5.62468C16.0139 5.07193 15.1064 4.87355 14.2502 5.08866C13.6018 5.2651 13.117 5.8051 13.0112 6.46866C12.9238 7.10424 13.2313 7.72918 13.7882 8.04765C13.7882 8.04765 14.4662 8.34765 15.2182 8.62763C15.3772 8.68665 15.8902 8.90462 15.8282 9.24863C15.7108 9.58857 15.3763 9.80415 15.0182 9.77063C14.5665 9.77616 14.1324 9.59527 13.8182 9.27062L13.4002 8.79962L12.4753 9.63962L12.8953 10.1026C13.4447 10.6932 14.2176 11.025 15.0243 11.0166C15.99 11.0603 16.8487 10.407 17.0643 9.46463C17.1845 8.53069 16.5747 7.65849 15.6563 7.45065C15.0003 7.20765 14.4003 6.94463 14.3833 6.94463C14.2845 6.8791 14.2335 6.76154 14.2533 6.64463C14.2879 6.46065 14.4313 6.31637 14.6152 6.28069Z" fill="#374957"/>
</g>
<defs>
<filter id="filter0_d_403_3514" x="0" y="0" width="32" height="32" filterUnits="userSpaceOnUse" color-interpolation-filters="sRGB">
<feFlood flood-opacity="0" result="BackgroundImageFix"/>
<feColorMatrix in="SourceAlpha" type="matrix" values="0 0 0 0 0 0 0 0 0 0 0 0 0 0 0 0 0 0 127 0" result="hardAlpha"/>
<feOffset dy="4"/>
<feGaussianBlur stdDeviation="2"/>
<feComposite in2="hardAlpha" operator="out"/>
<feColorMatrix type="matrix" values="0 0 0 0 0 0 0 0 0 0 0 0 0 0 0 0 0 0 0.25 0"/>
<feBlend mode="normal" in2="BackgroundImageFix" result="effect1_dropShadow_403_3514"/>
<feBlend mode="normal" in="SourceGraphic" in2="effect1_dropShadow_403_3514" result="shape"/>
</filter>
<clipPath id="clip0_403_3514">
<rect width="24" height="24" fill="white" transform="translate(4)"/>
</clipPath>
</defs>
</svg>
