<svg width="32" height="32" viewBox="0 0 32 32" fill="none" xmlns="http://www.w3.org/2000/svg">
<g clip-path="url(#clip0_403_3341)" filter="url(#filter0_d_403_3341)">
<path d="M28 9C28.0023 8.44948 27.853 7.90895 27.5686 7.4376C27.2842 6.96625 26.8755 6.58225 26.3874 6.32766C25.8993 6.07306 25.3505 5.95769 24.8012 5.99418C24.2519 6.03066 23.7232 6.21759 23.2731 6.5345C22.8229 6.85142 22.4686 7.28609 22.249 7.79091C22.0294 8.29574 21.953 8.85126 22.028 9.39664C22.1031 9.94202 22.3268 10.4562 22.6746 10.883C23.0224 11.3097 23.481 11.6325 24 11.816V16C24 17.5913 23.3679 19.1174 22.2426 20.2426C21.1174 21.3679 19.5913 22 18 22C16.4087 22 14.8826 21.3679 13.7574 20.2426C12.6321 19.1174 12 17.5913 12 16V15.92C13.6641 15.6786 15.1858 14.8467 16.2874 13.5762C17.3889 12.3058 17.9968 10.6815 18 9V3C18 2.20435 17.6839 1.44129 17.1213 0.87868C16.5587 0.31607 15.7957 0 15 0L12 0V2H15C15.2652 2 15.5196 2.10536 15.7071 2.29289C15.8946 2.48043 16 2.73478 16 3V9C16 10.3261 15.4732 11.5979 14.5355 12.5355C13.5979 13.4732 12.3261 14 11 14C9.67392 14 8.40215 13.4732 7.46447 12.5355C6.52678 11.5979 6 10.3261 6 9V3C6 2.73478 6.10536 2.48043 6.29289 2.29289C6.48043 2.10536 6.73478 2 7 2H10V0H7C6.20435 0 5.44129 0.31607 4.87868 0.87868C4.31607 1.44129 4 2.20435 4 3V9C4.00322 10.6815 4.61109 12.3058 5.71264 13.5762C6.81419 14.8467 8.33592 15.6786 10 15.92V16C10 18.1217 10.8429 20.1566 12.3431 21.6569C13.8434 23.1571 15.8783 24 18 24C20.1217 24 22.1566 23.1571 23.6569 21.6569C25.1571 20.1566 26 18.1217 26 16V11.816C26.5829 11.6099 27.0879 11.2288 27.4459 10.7247C27.8039 10.2206 27.9974 9.61826 28 9V9ZM25 10C24.8022 10 24.6089 9.94135 24.4444 9.83147C24.28 9.72159 24.1518 9.56541 24.0761 9.38268C24.0004 9.19996 23.9806 8.99889 24.0192 8.80491C24.0578 8.61093 24.153 8.43275 24.2929 8.29289C24.4327 8.15304 24.6109 8.0578 24.8049 8.01921C24.9989 7.98063 25.2 8.00043 25.3827 8.07612C25.5654 8.15181 25.7216 8.27998 25.8315 8.44443C25.9414 8.60888 26 8.80222 26 9C26 9.26522 25.8946 9.51957 25.7071 9.70711C25.5196 9.89464 25.2652 10 25 10Z" fill="#374957"/>
</g>
<defs>
<filter id="filter0_d_403_3341" x="0" y="0" width="32" height="32" filterUnits="userSpaceOnUse" color-interpolation-filters="sRGB">
<feFlood flood-opacity="0" result="BackgroundImageFix"/>
<feColorMatrix in="SourceAlpha" type="matrix" values="0 0 0 0 0 0 0 0 0 0 0 0 0 0 0 0 0 0 127 0" result="hardAlpha"/>
<feOffset dy="4"/>
<feGaussianBlur stdDeviation="2"/>
<feComposite in2="hardAlpha" operator="out"/>
<feColorMatrix type="matrix" values="0 0 0 0 0 0 0 0 0 0 0 0 0 0 0 0 0 0 0.25 0"/>
<feBlend mode="normal" in2="BackgroundImageFix" result="effect1_dropShadow_403_3341"/>
<feBlend mode="normal" in="SourceGraphic" in2="effect1_dropShadow_403_3341" result="shape"/>
</filter>
<clipPath id="clip0_403_3341">
<rect width="24" height="24" fill="white" transform="translate(4)"/>
</clipPath>
</defs>
</svg>
