<svg width="32" height="32" viewBox="0 0 32 32" fill="none" xmlns="http://www.w3.org/2000/svg">
<g clip-path="url(#clip0_403_3631)" filter="url(#filter0_d_403_3631)">
<path d="M19 16.0001C19 16.5306 19.2107 17.0393 19.5858 17.4143C19.9609 17.7894 20.4696 18.0001 21 18.0001C21.5304 18.0001 22.0391 17.7894 22.4142 17.4143C22.7893 17.0393 23 16.5306 23 16.0001C23 15.4697 22.7893 14.961 22.4142 14.5859C22.0391 14.2108 21.5304 14.0001 21 14.0001C20.4696 14.0001 19.9609 14.2108 19.5858 14.5859C19.2107 14.961 19 15.4697 19 16.0001Z" fill="#374957"/>
<path d="M12.0002 19.0001C10.9394 19.0001 9.92196 18.5787 9.17182 17.8285C8.42167 17.0784 8.00024 16.061 8.00024 15.0001C8.00024 13.9393 8.42167 12.9218 9.17182 12.1717C9.92196 11.4215 10.9394 11.0001 12.0002 11.0001C13.0611 11.0001 14.0785 11.4215 14.8287 12.1717C15.5788 12.9218 16.0002 13.9393 16.0002 15.0001C16.0002 16.061 15.5788 17.0784 14.8287 17.8285C14.0785 18.5787 13.0611 19.0001 12.0002 19.0001ZM12.0002 13.0001C11.4698 13.0001 10.9611 13.2108 10.586 13.5859C10.211 13.961 10.0002 14.4697 10.0002 15.0001C10.0002 15.5305 10.211 16.0393 10.586 16.4143C10.9611 16.7894 11.4698 17.0001 12.0002 17.0001C12.5307 17.0001 13.0394 16.7894 13.4145 16.4143C13.7895 16.0393 14.0002 15.5305 14.0002 15.0001C14.0002 14.4697 13.7895 13.961 13.4145 13.5859C13.0394 13.2108 12.5307 13.0001 12.0002 13.0001Z" fill="#374957"/>
<path d="M28.0001 23.9999H18.0001V22.9999C18.0001 22.6021 17.8421 22.2206 17.5608 21.9393C17.2795 21.658 16.8979 21.4999 16.5001 21.4999C16.1023 21.4999 15.7207 21.658 15.4394 21.9393C15.1581 22.2206 15.0001 22.6021 15.0001 22.9999V23.9999H8.8331C3.2221 23.9089 3.3641 14.0799 5.1201 10.5079C6.41397 6.70091 8.82687 3.37311 12.0431 0.959934C12.8673 0.355959 13.8579 0.0211716 14.8795 0.00130459C15.9012 -0.0185624 16.904 0.27746 17.7511 0.848934L28.0001 8.49993V23.9999ZM19.8541 21.9999H26.0001V9.99993H8.8331C8.43906 9.99774 8.05327 10.1129 7.72489 10.3307C7.3965 10.5485 7.14036 10.8591 6.9891 11.2229C6.35432 12.7365 6.01848 14.3587 6.0001 15.9999C6.01848 17.6412 6.35432 19.2633 6.9891 20.7769C7.14036 21.1408 7.3965 21.4514 7.72489 21.6692C8.05327 21.887 8.43906 22.0021 8.8331 21.9999H13.1461C13.3689 21.2847 13.8146 20.6594 14.418 20.2154C15.0214 19.7713 15.7509 19.5319 16.5001 19.5319C17.2493 19.5319 17.9788 19.7713 18.5822 20.2154C19.1856 20.6594 19.6313 21.2847 19.8541 21.9999ZM14.9711 1.99993C14.3481 1.99748 13.7409 2.19635 13.2401 2.56693C11.2889 4.04452 9.65628 5.90096 8.4401 8.02493C8.57298 8.01113 8.70651 8.00446 8.8401 8.00493H23.9891L16.6001 2.48193C16.1162 2.16474 15.5497 1.9971 14.9711 1.99993V1.99993Z" fill="#374957"/>
</g>
<defs>
<filter id="filter0_d_403_3631" x="0" y="0" width="32" height="32" filterUnits="userSpaceOnUse" color-interpolation-filters="sRGB">
<feFlood flood-opacity="0" result="BackgroundImageFix"/>
<feColorMatrix in="SourceAlpha" type="matrix" values="0 0 0 0 0 0 0 0 0 0 0 0 0 0 0 0 0 0 127 0" result="hardAlpha"/>
<feOffset dy="4"/>
<feGaussianBlur stdDeviation="2"/>
<feComposite in2="hardAlpha" operator="out"/>
<feColorMatrix type="matrix" values="0 0 0 0 0 0 0 0 0 0 0 0 0 0 0 0 0 0 0.25 0"/>
<feBlend mode="normal" in2="BackgroundImageFix" result="effect1_dropShadow_403_3631"/>
<feBlend mode="normal" in="SourceGraphic" in2="effect1_dropShadow_403_3631" result="shape"/>
</filter>
<clipPath id="clip0_403_3631">
<rect width="24" height="24" fill="white" transform="translate(4)"/>
</clipPath>
</defs>
</svg>
