<svg width="24" height="24" viewBox="0 0 24 24" fill="none" xmlns="http://www.w3.org/2000/svg">
<g clip-path="url(#clip0_403_3716)">
<path d="M12.0002 2.00009C13.3267 2.00444 14.6392 2.27183 15.8617 2.78677C17.0842 3.30172 18.1924 4.05401 19.1222 5.00009H15.0002V7.00009H20.1432C20.6355 6.99956 21.1076 6.80374 21.4557 6.4556C21.8038 6.10746 21.9997 5.63543 22.0002 5.14309V8.75784e-05H20.0002V3.07809C18.2777 1.52695 16.1422 0.508743 13.8526 0.146896C11.563 -0.21495 9.21763 0.0950946 7.10071 1.03945C4.98379 1.98381 3.18624 3.52193 1.92594 5.46738C0.665642 7.41283 -0.00330106 9.68209 0.000196753 12.0001H2.0002C2.00311 9.34882 3.05761 6.80697 4.93234 4.93224C6.80708 3.0575 9.34893 2.003 12.0002 2.00009V2.00009Z" fill="#374957"/>
<path d="M22.0002 12C22.0031 13.9853 21.4141 15.9265 20.3085 17.5755C19.2029 19.2245 17.6309 20.5065 15.7932 21.2578C13.9555 22.0091 11.9355 22.1956 9.99135 21.7934C8.04717 21.3913 6.26699 20.4187 4.87818 19H9.00018V17H3.85718C3.36484 17.0005 2.89281 17.1963 2.54467 17.5445C2.19653 17.8926 2.00071 18.3647 2.00018 18.857V24H4.00018V20.922C5.72271 22.4731 7.85819 23.4913 10.1478 23.8532C12.4374 24.215 14.7828 23.905 16.8997 22.9606C19.0166 22.0163 20.8141 20.4782 22.0744 18.5327C23.3347 16.5873 24.0037 14.318 24.0002 12H22.0002Z" fill="#374957"/>
</g>
<defs>
<clipPath id="clip0_403_3716">
<rect width="24" height="24" fill="white"/>
</clipPath>
</defs>
</svg>
