<svg width="24" height="24" viewBox="0 0 24 24" fill="none" xmlns="http://www.w3.org/2000/svg">
<g clip-path="url(#clip0_403_3437)">
<path d="M5.45439 9.65381C5.23337 7.54083 4.01341 6.31781 2.61841 6.31781V6.31983C2.53422 6.31973 2.45012 6.32404 2.36641 6.33281C0.869406 6.48679 -0.199579 7.98079 0.0324057 10.2198C0.256421 12.3618 1.55139 13.9998 2.97442 13.9998C3.03887 14 3.10333 13.9966 3.16741 13.9898C4.66741 13.8338 5.68839 11.8898 5.45439 9.65381ZM2.95839 11.9878C2.37381 11.4966 2.09275 10.8078 2.02141 10.0118C2.02141 9.50822 2.01662 9.01134 2.24041 8.56378C2.36476 8.32987 2.51641 8.32579 2.57439 8.31979L2.61859 8.31904C2.95558 8.31904 3.36437 8.89476 3.46539 9.86076C3.53458 10.6132 3.42794 11.3859 2.95839 11.9878Z" fill="#374957"/>
<path d="M8.46714 8.45002C8.53816 8.45002 8.60814 8.45002 8.67916 8.439C10.3262 8.26702 11.4521 6.13102 11.1952 3.669C10.9522 1.34602 9.61014 0 8.07616 0C7.98395 9.375e-05 7.89184 0.0050625 7.80016 0.015C6.15217 0.186 4.97416 1.82902 5.23117 4.29202C5.47816 6.648 6.90016 8.45002 8.46714 8.45002ZM7.49116 2.36002C7.59189 2.1615 7.78511 2.02641 8.00617 2.00002C8.02947 1.99856 8.05286 1.99856 8.07616 2.00002C8.54017 2.00002 9.07614 2.64502 9.20617 3.87703C9.2996 4.59361 9.18724 5.32195 8.88217 5.97703C8.70016 6.32203 8.51716 6.44203 8.46719 6.44705C8.21017 6.44705 7.3832 5.63306 7.22017 4.08103C7.11592 3.49317 7.21131 2.88736 7.49116 2.36002Z" fill="#374957"/>
<path d="M15.3647 8.439C15.4357 8.44598 15.5066 8.45002 15.5767 8.45002C17.1417 8.45002 18.5667 6.65002 18.8127 4.29202C19.0697 1.82902 17.8917 0.186 16.2457 0.015C16.1537 0.0050625 16.0612 4.6875e-05 15.9687 0C14.4337 0 13.0917 1.34602 12.8487 3.669C12.5917 6.13102 13.7177 8.26898 15.3647 8.439ZM14.8387 3.876C14.9667 2.64502 15.5007 2.00002 15.9687 2.00002C15.9917 1.99852 16.0147 1.99852 16.0377 2.00002C16.2585 2.02617 16.4517 2.16089 16.5527 2.35903C16.8336 2.88605 16.9291 3.49219 16.8237 4.08005C16.6617 5.63203 15.8337 6.44606 15.5727 6.44606C15.5267 6.44606 15.3437 6.32105 15.1617 5.97605C14.8565 5.32097 14.7445 4.59248 14.8387 3.876Z" fill="#374957"/>
<path d="M12.0008 11C7.45879 11 3.00079 15.641 2.99479 20.369C2.87081 23.568 5.59481 24.727 8.89481 23.547C10.9066 22.861 13.089 22.861 15.1008 23.547C15.8759 23.8087 16.6837 23.9611 17.5008 24C20.3938 24 21.0008 22.025 21.0008 20.369C21.0008 15.641 16.5428 11 12.0008 11ZM12.0008 21C9.74681 20.643 4.77679 23.833 5.00081 20.369C5.00081 16.719 8.53383 13 12.0008 13C15.4678 13 19.0008 16.719 19.0008 20.369C19.2268 23.83 14.2658 20.647 12.0008 21Z" fill="#374957"/>
<path d="M21.9714 7.39073L21.9709 7.39269C21.889 7.37315 21.8062 7.35801 21.7227 7.34718C20.2306 7.15162 18.8457 8.35869 18.5549 10.5908C18.2786 12.7267 19.1607 14.6193 20.5454 14.9476C20.6081 14.9626 20.6715 14.9742 20.7355 14.9824C22.231 15.1767 23.673 13.5207 23.9612 11.291C24.2337 9.18407 23.3287 7.71257 21.9714 7.39073ZM21.9781 11.0336C21.8718 11.7816 21.5898 12.5089 20.994 12.9862C20.5386 12.3733 20.424 11.6383 20.5382 10.8473C20.6544 10.3574 20.7644 9.87276 21.0854 9.48894C21.2603 9.29005 21.4088 9.32104 21.4666 9.32858L21.5098 9.3381C21.8378 9.41582 22.1027 10.0703 21.9781 11.0336Z" fill="#374957"/>
</g>
<defs>
<clipPath id="clip0_403_3437">
<rect width="24" height="24" fill="white"/>
</clipPath>
</defs>
</svg>
