<svg width="24" height="24" viewBox="0 0 24 24" fill="none" xmlns="http://www.w3.org/2000/svg">
<g clip-path="url(#clip0_403_3413)">
<path d="M11.9998 20C14.1208 19.9976 16.1543 19.154 17.654 17.6542C19.1538 16.1544 19.9974 14.121 19.9998 12V8C19.9998 5.87827 19.157 3.84344 17.6567 2.34315C16.1564 0.842855 14.1215 0 11.9998 0C9.87808 0 7.84325 0.842855 6.34296 2.34315C4.84267 3.84344 3.99982 5.87827 3.99982 8V12C4.0022 14.121 4.84582 16.1544 6.34559 17.6542C7.84537 19.154 9.87882 19.9976 11.9998 20V20ZM5.99982 9H9.99982V7H6.08982C6.32485 5.60251 7.0475 4.33352 8.12946 3.41832C9.21143 2.50313 10.5827 2.00096 11.9998 2.00096C13.4169 2.00096 14.7882 2.50313 15.8702 3.41832C16.9521 4.33352 17.6748 5.60251 17.9098 7H13.9998V9H17.9998V11H13.9998V13H17.9098C17.6748 14.3975 16.9521 15.6665 15.8702 16.5817C14.7882 17.4969 13.4169 17.999 11.9998 17.999C10.5827 17.999 9.21143 17.4969 8.12946 16.5817C7.0475 15.6665 6.32485 14.3975 6.08982 13H9.99982V11H5.99982V9Z" fill="#374957"/>
<path d="M22 13.0003C21.9974 15.3864 21.0483 17.6741 19.361 19.3613C17.6738 21.0486 15.3861 21.9976 13 22.0003H11C8.61395 21.9974 6.32645 21.0482 4.63925 19.361C2.95206 17.6738 2.00291 15.3864 2 13.0003H0C0.00344047 15.9166 1.16347 18.7125 3.22563 20.7747C5.28778 22.8368 8.08367 23.9968 11 24.0003H13C15.9163 23.9968 18.7122 22.8368 20.7744 20.7747C22.8365 18.7125 23.9966 15.9166 24 13.0003H22Z" fill="#374957"/>
</g>
<defs>
<clipPath id="clip0_403_3413">
<rect width="24" height="24" fill="white"/>
</clipPath>
</defs>
</svg>
