<svg width="24" height="24" viewBox="0 0 24 24" fill="none" xmlns="http://www.w3.org/2000/svg">
<g clip-path="url(#clip0_403_3442)">
<path d="M13.0002 0C6.9352 0 2.0002 4.037 2.0002 9C2.00955 10.0706 2.24539 11.1271 2.6922 12.1C2.33755 12.5203 2.10809 13.0318 2.02994 13.5762C1.9518 14.1205 2.02811 14.6759 2.2502 15.179C0.893785 16.4264 0.0850918 18.1592 0.000197017 20C-0.0152887 20.5295 0.0775871 21.0566 0.273125 21.5489C0.468663 22.0412 0.762738 22.4883 1.1373 22.8629C1.51187 23.2375 1.95903 23.5315 2.45133 23.7271C2.94364 23.9226 3.47071 24.0155 4.0002 24L4.0082 22C3.74053 22.018 3.47209 21.9787 3.22083 21.8847C2.96957 21.7907 2.74127 21.6441 2.55119 21.4548C2.36111 21.2655 2.21363 21.0378 2.11861 20.7869C2.02359 20.536 1.98322 20.2677 2.0002 20C2.09258 18.6819 2.697 17.4523 3.6842 16.574C4.79651 16.9018 5.95427 17.0487 7.1132 17.009C7.4132 17.009 7.6902 17.002 7.9562 16.993C9.55406 17.66 11.2687 18.0023 13.0002 18C19.0652 18 24.0002 13.963 24.0002 9C24.0002 4.037 19.0652 0 13.0002 0ZM4.2902 14.688C4.1978 14.5963 4.12446 14.4873 4.07441 14.3672C4.02437 14.247 3.9986 14.1182 3.9986 13.988C3.9986 13.8579 4.02437 13.729 4.07441 13.6088C4.12446 13.4887 4.1978 13.3797 4.2902 13.288C4.38179 13.1955 4.49081 13.122 4.61096 13.0719C4.73111 13.0218 4.86001 12.996 4.9902 12.996C5.12038 12.996 5.24928 13.0218 5.36943 13.0719C5.48958 13.122 5.59861 13.1955 5.6902 13.288C6.1061 13.815 6.45759 14.3897 6.7372 15C5.90986 15.0327 5.08285 14.9273 4.2902 14.688V14.688ZM13.0002 16C11.6657 15.9991 10.3423 15.7579 9.0932 15.288C8.58819 14.0648 7.91759 12.9167 7.1002 11.876C6.75036 11.5382 6.32457 11.2892 5.85859 11.15C5.3926 11.0108 4.90002 10.9854 4.4222 11.076C4.15028 10.4173 4.00703 9.7126 4.0002 9C4.0002 5.141 8.0372 2 13.0002 2C17.9632 2 22.0002 5.141 22.0002 9C22.0002 12.859 17.9632 16 13.0002 16Z" fill="#374957"/>
</g>
<defs>
<clipPath id="clip0_403_3442">
<rect width="24" height="24" fill="white"/>
</clipPath>
</defs>
</svg>
