<svg width="32" height="32" viewBox="0 0 32 32" fill="none" xmlns="http://www.w3.org/2000/svg">
<g clip-path="url(#clip0_403_3488)" filter="url(#filter0_d_403_3488)">
<path d="M10.5999 22.1218L8.67692 21.5218L9.49992 18.9658C9.66922 18.9859 9.83945 18.9973 10.0099 18.9998C11.0911 18.9971 12.1423 18.6441 13.0059 17.9936C13.8694 17.3431 14.4989 16.4302 14.7999 15.3918L15.9999 11.8358L17.1829 15.3358C17.4795 16.4806 18.1811 17.4791 19.1577 18.146C20.1343 18.813 21.3197 19.1032 22.4939 18.9628L23.2939 21.5188L21.3639 22.1188L21.9579 24.0288L27.7369 22.2288L27.1439 20.3188L25.2049 20.9188L24.4049 18.3588C25.4037 17.8178 26.1868 16.9507 26.6236 15.9021C27.0604 14.8535 27.1244 13.6868 26.8049 12.5968L24.9569 7.13177C24.725 6.38432 24.2122 5.75596 23.5264 5.37885C22.8406 5.00175 22.0353 4.90529 21.2799 5.10977L17.4279 6.18377C16.8755 6.33747 16.3795 6.648 15.9999 7.07777C15.6203 6.648 15.1243 6.33747 14.5719 6.18377L10.7189 5.10977C9.96899 4.9029 9.16808 4.99463 8.48433 5.36568C7.80059 5.73673 7.28719 6.35826 7.05192 7.09977L5.18492 12.6568C4.87921 13.7392 4.95018 14.8934 5.38621 15.9303C5.82224 16.9671 6.59748 17.8251 7.58492 18.3638L6.76792 20.9318L4.82092 20.3318L4.22992 22.2368L10.0109 24.0368L10.5999 22.1218ZM24.6069 15.4728C24.4134 15.8159 24.1541 16.1176 23.844 16.3605C23.5338 16.6035 23.1788 16.783 22.7993 16.8887C22.4198 16.9945 22.0232 17.0245 21.6321 16.977C21.241 16.9294 20.8631 16.8053 20.5199 16.6118C20.1695 16.4129 19.8624 16.146 19.6167 15.8268C19.3709 15.5075 19.1915 15.1424 19.0889 14.7528L18.1639 11.9998H24.4869L24.8869 13.1938C24.9939 13.573 25.0246 13.9697 24.9773 14.3609C24.9299 14.7521 24.8054 15.13 24.6109 15.4728H24.6069ZM17.3569 8.59177C17.4205 8.47459 17.5072 8.37148 17.6117 8.28865C17.7162 8.20582 17.8363 8.14497 17.9649 8.10976L21.8159 7.03677C21.9019 7.01271 21.9907 7.00026 22.0799 6.99977C22.2999 7.00209 22.5132 7.07523 22.6883 7.20835C22.8634 7.34146 22.9909 7.52746 23.0519 7.73877L23.8129 9.99976H17.4899L17.2749 9.36276C17.2366 9.23526 17.2241 9.10139 17.2382 8.96899C17.2522 8.8366 17.2926 8.70835 17.3569 8.59177V8.59177ZM9.91792 6.99977C10.0075 6.99993 10.0966 7.01204 10.1829 7.03576L14.0349 8.10976C14.2894 8.17995 14.5058 8.34791 14.6369 8.57702C14.7681 8.80613 14.8033 9.07779 14.7349 9.33277L14.5099 9.99976H8.18692L8.95692 7.70977C9.02047 7.50442 9.148 7.32476 9.32088 7.19703C9.49377 7.0693 9.70296 7.00018 9.91792 6.99977V6.99977ZM7.09992 13.2448L7.51392 11.9998H13.8359L12.8919 14.7998C12.7322 15.3706 12.407 15.8813 11.9572 16.2674C11.5075 16.6535 10.9535 16.8978 10.3651 16.9694C9.77674 17.041 9.18032 16.9366 8.65117 16.6696C8.12201 16.4025 7.68383 15.9846 7.39192 15.4688C7.00544 14.7948 6.90051 13.9956 7.09992 13.2448V13.2448Z" fill="#374957"/>
<path d="M20.2932 0.292857L18.0049 2.58105L19.4192 3.99527L21.7074 1.70707L20.2932 0.292857Z" fill="#374957"/>
<path d="M11.7068 0.293305L10.2925 1.70752L12.5426 3.95753L13.9568 2.54332L11.7068 0.293305Z" fill="#374957"/>
<path d="M17.0002 0H15.0002V3H17.0002V0Z" fill="#374957"/>
</g>
<defs>
<filter id="filter0_d_403_3488" x="0" y="0" width="32" height="32" filterUnits="userSpaceOnUse" color-interpolation-filters="sRGB">
<feFlood flood-opacity="0" result="BackgroundImageFix"/>
<feColorMatrix in="SourceAlpha" type="matrix" values="0 0 0 0 0 0 0 0 0 0 0 0 0 0 0 0 0 0 127 0" result="hardAlpha"/>
<feOffset dy="4"/>
<feGaussianBlur stdDeviation="2"/>
<feComposite in2="hardAlpha" operator="out"/>
<feColorMatrix type="matrix" values="0 0 0 0 0 0 0 0 0 0 0 0 0 0 0 0 0 0 0.25 0"/>
<feBlend mode="normal" in2="BackgroundImageFix" result="effect1_dropShadow_403_3488"/>
<feBlend mode="normal" in="SourceGraphic" in2="effect1_dropShadow_403_3488" result="shape"/>
</filter>
<clipPath id="clip0_403_3488">
<rect width="24" height="24" fill="white" transform="translate(4)"/>
</clipPath>
</defs>
</svg>
