<svg width="24" height="24" viewBox="0 0 24 24" fill="none" xmlns="http://www.w3.org/2000/svg">
<g clip-path="url(#clip0_403_3702)">
<path d="M12 0C9.62662 0 7.30654 0.703788 5.33315 2.02236C3.35976 3.34094 1.82169 5.21509 0.913443 7.4078C0.0051918 9.60051 -0.232448 12.0133 0.230574 14.3411C0.693597 16.6689 1.83649 18.8071 3.51472 20.4853C5.19295 22.1635 7.33114 23.3064 9.65891 23.7694C11.9867 24.2324 14.3995 23.9948 16.5922 23.0866C18.7849 22.1783 20.6591 20.6402 21.9776 18.6668C23.2962 16.6935 24 14.3734 24 12C23.9966 8.81846 22.7312 5.76821 20.4815 3.51852C18.2318 1.26883 15.1815 0.00344108 12 0V0ZM12 2C14.3065 1.99816 16.5419 2.79775 18.324 4.262L4.262 18.324C3.06256 16.8598 2.30366 15.0851 2.07361 13.2064C1.84357 11.3277 2.15186 9.42234 2.96258 7.71204C3.77331 6.00174 5.05313 4.55688 6.65308 3.54564C8.25302 2.53441 10.1073 1.9984 12 2V2ZM12 22C9.69353 22.0018 7.45807 21.2023 5.676 19.738L19.738 5.676C20.9374 7.14016 21.6963 8.91488 21.9264 10.7936C22.1564 12.6723 21.8481 14.5777 21.0374 16.288C20.2267 17.9983 18.9469 19.4431 17.3469 20.4544C15.747 21.4656 13.8927 22.0016 12 22Z" fill="#374957"/>
</g>
<defs>
<clipPath id="clip0_403_3702">
<rect width="24" height="24" fill="white"/>
</clipPath>
</defs>
</svg>
