<svg width="32" height="32" viewBox="0 0 32 32" fill="none" xmlns="http://www.w3.org/2000/svg">
<g clip-path="url(#clip0_403_3665)" filter="url(#filter0_d_403_3665)">
<path d="M25 4H22V2C22 1.46957 21.7893 0.960859 21.4142 0.585786C21.0391 0.210714 20.5304 0 20 0L12 0C11.4696 0 10.9609 0.210714 10.5858 0.585786C10.2107 0.960859 10 1.46957 10 2V4H7C6.20435 4 5.44129 4.31607 4.87868 4.87868C4.31607 5.44129 4 6.20435 4 7V24H28V7C28 6.20435 27.6839 5.44129 27.1213 4.87868C26.5587 4.31607 25.7956 4 25 4V4ZM12 2H20V4H12V2ZM7 6H25C25.2652 6 25.5196 6.10536 25.7071 6.29289C25.8946 6.48043 26 6.73478 26 7V12H6V7C6 6.73478 6.10536 6.48043 6.29289 6.29289C6.48043 6.10536 6.73478 6 7 6V6ZM6 22V14H15V16H17V14H26V22H6Z" fill="#374957"/>
</g>
<defs>
<filter id="filter0_d_403_3665" x="0" y="0" width="32" height="32" filterUnits="userSpaceOnUse" color-interpolation-filters="sRGB">
<feFlood flood-opacity="0" result="BackgroundImageFix"/>
<feColorMatrix in="SourceAlpha" type="matrix" values="0 0 0 0 0 0 0 0 0 0 0 0 0 0 0 0 0 0 127 0" result="hardAlpha"/>
<feOffset dy="4"/>
<feGaussianBlur stdDeviation="2"/>
<feComposite in2="hardAlpha" operator="out"/>
<feColorMatrix type="matrix" values="0 0 0 0 0 0 0 0 0 0 0 0 0 0 0 0 0 0 0.25 0"/>
<feBlend mode="normal" in2="BackgroundImageFix" result="effect1_dropShadow_403_3665"/>
<feBlend mode="normal" in="SourceGraphic" in2="effect1_dropShadow_403_3665" result="shape"/>
</filter>
<clipPath id="clip0_403_3665">
<rect width="24" height="24" fill="white" transform="translate(4)"/>
</clipPath>
</defs>
</svg>
