<svg width="24" height="24" viewBox="0 0 24 24" fill="none" xmlns="http://www.w3.org/2000/svg">
<g clip-path="url(#clip0_403_3616)">
<path d="M20.9999 24.0004H15.9999V22.0004H20.9999C21.2651 22.0004 21.5194 21.895 21.707 21.7075C21.8945 21.5199 21.9999 21.2656 21.9999 21.0004V16.0004H23.9999V21.0004C23.9999 21.796 23.6838 22.5591 23.1212 23.1217C22.5586 23.6843 21.7955 24.0004 20.9999 24.0004Z" fill="#374957"/>
<path d="M2 8H0V3C0 2.20435 0.31607 1.44129 0.87868 0.87868C1.44129 0.31607 2.20435 0 3 0L8 0V2H3C2.73478 2 2.48043 2.10536 2.29289 2.29289C2.10536 2.48043 2 2.73478 2 3V8Z" fill="#374957"/>
<path d="M8 24.0004H3C2.20435 24.0004 1.44129 23.6843 0.87868 23.1217C0.31607 22.5591 0 21.796 0 21.0004L0 16.0004H2V21.0004C2 21.2656 2.10536 21.5199 2.29289 21.7075C2.48043 21.895 2.73478 22.0004 3 22.0004H8V24.0004Z" fill="#374957"/>
<path d="M23.9999 8H21.9999V3C21.9999 2.73478 21.8945 2.48043 21.707 2.29289C21.5194 2.10536 21.2651 2 20.9999 2H15.9999V0H20.9999C21.7955 0 22.5586 0.31607 23.1212 0.87868C23.6838 1.44129 23.9999 2.20435 23.9999 3V8Z" fill="#374957"/>
</g>
<defs>
<clipPath id="clip0_403_3616">
<rect width="24" height="24" fill="white"/>
</clipPath>
</defs>
</svg>
