<svg width="24" height="24" viewBox="0 0 24 24" fill="none" xmlns="http://www.w3.org/2000/svg">
<g clip-path="url(#clip0_403_3559)">
<path d="M21 2.00012H7.76L0 12.0001L7.76 22.0001H21C21.7956 22.0001 22.5587 21.6841 23.1213 21.1214C23.6839 20.5588 24 19.7958 24 19.0001V5.00012C24 4.20447 23.6839 3.44141 23.1213 2.8788C22.5587 2.31619 21.7956 2.00012 21 2.00012ZM22 19.0001C22 19.2653 21.8946 19.5197 21.7071 19.7072C21.5196 19.8948 21.2652 20.0001 21 20.0001H8.74L2.54 12.0001L8.74 4.00012H21C21.2652 4.00012 21.5196 4.10548 21.7071 4.29302C21.8946 4.48055 22 4.73491 22 5.00012V19.0001ZM17.957 9.45712L15.414 12.0001L17.957 14.5431L16.543 15.9571L14 13.4141L11.457 15.9571L10.043 14.5431L12.586 12.0001L10.043 9.45712L11.457 8.04312L14 10.5861L16.543 8.04312L17.957 9.45712Z" fill="#374957"/>
</g>
<defs>
<clipPath id="clip0_403_3559">
<rect width="24" height="24" fill="white"/>
</clipPath>
</defs>
</svg>
