<svg width="32" height="32" viewBox="0 0 32 32" fill="none" xmlns="http://www.w3.org/2000/svg">
<g clip-path="url(#clip0_403_3577)" filter="url(#filter0_d_403_3577)">
<path d="M21.7915 7.21208C21.3472 5.30137 20.2162 3.62053 18.6137 2.48907C17.0111 1.35761 15.0487 0.854401 13.0995 1.0751C11.1502 1.2958 9.34999 2.22502 8.04099 3.68613C6.73199 5.14724 6.00547 7.03838 5.99953 9.00008C5.99807 10.2785 6.30691 11.5383 6.89953 12.6711C5.82066 13.2492 4.96593 14.1713 4.47115 15.2909C3.97637 16.4104 3.86992 17.6632 4.16871 18.8502C4.46749 20.0372 5.15438 21.0903 6.12024 21.8422C7.0861 22.5941 8.27552 23.0016 9.49953 23.0001H15.9995V21.0001H9.49953C8.64796 21.0026 7.82482 20.6938 7.18505 20.1318C6.54528 19.5697 6.13302 18.7932 6.02585 17.9484C5.91868 17.1036 6.124 16.2488 6.60317 15.5448C7.08233 14.8408 7.80229 14.3363 8.62753 14.1261L10.0645 13.7551L9.18153 12.5621C8.41307 11.5336 7.99838 10.2839 7.99953 9.00008C8.01094 7.48607 8.59432 6.03234 9.63267 4.93044C10.671 3.82853 12.0876 3.15993 13.5983 3.05871C15.1089 2.9575 16.602 3.43115 17.7781 4.38468C18.9542 5.33822 19.7263 6.70112 19.9395 8.20008L20.0395 8.95808L20.7965 9.05808C22.1325 9.23318 23.3704 9.8536 24.3103 10.8191C25.2502 11.7846 25.837 13.0388 25.9761 14.379C26.1152 15.7192 25.7984 17.0671 25.0768 18.2051C24.3552 19.343 23.2711 20.2044 21.9995 20.6501V22.7371C23.7339 22.2911 25.2681 21.2753 26.3559 19.8527C27.4437 18.4302 28.022 16.6834 27.998 14.8928C27.974 13.1022 27.3491 11.3716 26.2236 9.97869C25.0981 8.58582 23.5372 7.61149 21.7915 7.21208V7.21208Z" fill="#374957"/>
<path d="M22.293 17.7072L23.707 16.2932L20.414 13.0002C20.0389 12.6253 19.5303 12.4147 19 12.4147C18.4696 12.4147 17.961 12.6253 17.586 13.0002L14.293 16.2932L15.707 17.7072L18 15.4142V24.0002H20V15.4142L22.293 17.7072Z" fill="#374957"/>
</g>
<defs>
<filter id="filter0_d_403_3577" x="0" y="0" width="32" height="32" filterUnits="userSpaceOnUse" color-interpolation-filters="sRGB">
<feFlood flood-opacity="0" result="BackgroundImageFix"/>
<feColorMatrix in="SourceAlpha" type="matrix" values="0 0 0 0 0 0 0 0 0 0 0 0 0 0 0 0 0 0 127 0" result="hardAlpha"/>
<feOffset dy="4"/>
<feGaussianBlur stdDeviation="2"/>
<feComposite in2="hardAlpha" operator="out"/>
<feColorMatrix type="matrix" values="0 0 0 0 0 0 0 0 0 0 0 0 0 0 0 0 0 0 0.25 0"/>
<feBlend mode="normal" in2="BackgroundImageFix" result="effect1_dropShadow_403_3577"/>
<feBlend mode="normal" in="SourceGraphic" in2="effect1_dropShadow_403_3577" result="shape"/>
</filter>
<clipPath id="clip0_403_3577">
<rect width="24" height="24" fill="white" transform="translate(4)"/>
</clipPath>
</defs>
</svg>
