<svg width="24" height="24" viewBox="0 0 24 24" fill="none" xmlns="http://www.w3.org/2000/svg">
<g clip-path="url(#clip0_403_3642)">
<path d="M10.0001 12C9.60456 12 9.21788 12.1173 8.88898 12.3371C8.56008 12.5568 8.30374 12.8692 8.15236 13.2346C8.00099 13.6001 7.96138 14.0022 8.03855 14.3902C8.11572 14.7781 8.3062 15.1345 8.58591 15.4142C8.86561 15.6939 9.22198 15.8844 9.60994 15.9616C9.9979 16.0387 10.4 15.9991 10.7655 15.8477C11.1309 15.6964 11.4433 15.44 11.6631 15.1111C11.8828 14.7822 12.0001 14.3956 12.0001 14C12.0001 13.4696 11.7894 12.9609 11.4143 12.5858C11.0393 12.2107 10.5306 12 10.0001 12Z" fill="#374957"/>
<path d="M5.4567 16.0429L4.04248 17.4572L6.54281 19.9575L7.95703 18.5433L5.4567 16.0429Z" fill="#374957"/>
<path d="M21.5002 5.00033L23.4822 3.01833C23.8048 2.685 23.9836 2.23819 23.9798 1.77428C23.976 1.31036 23.7901 0.866514 23.462 0.538465C23.134 0.210416 22.6901 0.0244546 22.2262 0.0206882C21.7623 0.0169219 21.3155 0.195653 20.9822 0.518332L19.0002 2.50033V3.65233L16.2792 6.34333C15.1815 5.44555 13.7971 4.97315 12.3796 5.01263C10.9621 5.05212 9.60617 5.60084 8.56015 6.55833C8.16837 6.94969 7.84399 7.40314 7.60015 7.90033C7.56919 7.94979 7.52227 7.98719 7.46715 8.00633C6.47368 7.95575 5.48056 8.11242 4.55091 8.46637C3.62126 8.82033 2.77541 9.36383 2.06715 10.0623C-0.888848 13.0193 -0.632848 18.0873 2.64215 21.3623C4.27017 23.0226 6.48909 23.971 8.81415 24.0003C9.78639 24.02 10.7522 23.8382 11.6507 23.4664C12.5493 23.0947 13.3612 22.541 14.0354 21.8402C14.7096 21.1394 15.2315 20.3067 15.5683 19.3944C15.905 18.4822 16.0493 17.5101 15.9922 16.5393C15.9958 16.5104 16.007 16.4829 16.0245 16.4596C16.0421 16.4363 16.0654 16.4179 16.0922 16.4063C16.5904 16.1628 17.0449 15.8384 17.4372 15.4463C18.3925 14.4077 18.9434 13.0607 18.9898 11.6503C19.0363 10.2399 18.5751 8.85958 17.6902 7.76033L20.4812 5.00033H21.5002ZM16.0262 14.0283C15.7885 14.2652 15.5131 14.4609 15.2112 14.6073C14.8376 14.7886 14.5242 15.0736 14.3084 15.4282C14.0925 15.7829 13.9834 16.1923 13.9942 16.6073C14.0338 17.3267 13.9233 18.0464 13.6697 18.7208C13.4161 19.3951 13.025 20.0093 12.5212 20.5243C10.3462 22.6993 6.54615 22.4443 4.05315 19.9503C1.56015 17.4563 1.30015 13.6553 3.47915 11.4793C3.96757 10.9994 4.5466 10.6215 5.18251 10.3676C5.81843 10.1137 6.49851 9.98882 7.18315 10.0003C7.25415 10.0003 7.32515 10.0003 7.39715 10.0003C7.81297 10.0138 8.22368 9.9056 8.57893 9.68907C8.93418 9.47255 9.21854 9.15708 9.39715 8.78133C9.54363 8.47974 9.73931 8.20464 9.97615 7.96733C10.6402 7.37805 11.4869 7.03547 12.3738 6.99722C13.2608 6.95897 14.1339 7.2274 14.8462 7.75733L13.0462 9.53333L14.4522 10.9553L16.2522 9.17633C16.7767 9.88831 17.0406 10.759 16.9994 11.6424C16.9583 12.5258 16.6146 13.3682 16.0262 14.0283V14.0283Z" fill="#374957"/>
</g>
<defs>
<clipPath id="clip0_403_3642">
<rect width="24" height="24" fill="white"/>
</clipPath>
</defs>
</svg>
