<svg width="32" height="32" viewBox="0 0 32 32" fill="none" xmlns="http://www.w3.org/2000/svg">
<g clip-path="url(#clip0_403_3591)" filter="url(#filter0_d_403_3591)">
<path d="M26.3748 3.78502C24.9812 2.99326 23.4572 2.45715 21.8748 2.20202C21.7226 1.63517 21.4064 1.12589 20.9658 0.738016C20.6342 0.451535 20.2445 0.240055 19.8236 0.118035C19.4026 -0.00398503 18.9603 -0.0336678 18.5268 0.0310162C16.9351 0.268482 15.3859 0.733925 13.9268 1.41302C13.7075 1.283 13.4722 1.18215 13.2268 1.11302C12.8186 1.00177 12.3916 0.977403 11.9734 1.04148C11.5552 1.10556 11.155 1.25666 10.7988 1.48502V1.48502C8.68807 2.88047 6.87926 4.68588 5.47983 6.79402C5.25124 7.1501 5.10001 7.55024 5.03592 7.9685C4.97184 8.38676 4.99634 8.81383 5.10783 9.22202C5.17707 9.46737 5.27792 9.70267 5.40783 9.92202C4.73035 11.3831 4.26628 12.9339 4.02983 14.527C3.96593 14.9607 3.99609 15.4031 4.11825 15.8241C4.24041 16.2451 4.45172 16.6349 4.73783 16.967C5.1251 17.4089 5.6345 17.7262 6.20183 17.879C6.45684 19.4614 6.99296 20.9855 7.78483 22.379C8.11472 22.9716 8.62609 23.4427 9.24371 23.723C9.86133 24.0033 10.5526 24.078 11.2158 23.936C11.9019 23.8001 12.526 23.4472 12.996 22.9293C13.466 22.4114 13.757 21.756 13.8258 21.06C13.9062 20.0056 14.1603 18.9716 14.5778 18H15.7208C15.991 17.1438 16.3402 16.3146 16.7638 15.523L19.5228 12.764C20.3144 12.3404 21.1436 11.9912 21.9998 11.721V10.578C22.9702 10.1609 24.0027 9.90686 25.0558 9.82602C25.7518 9.75715 26.4072 9.46622 26.9251 8.99622C27.443 8.52621 27.796 7.90207 27.9318 7.21602C28.0749 6.55276 28.0008 5.86106 27.7204 5.24319C27.44 4.62531 26.9682 4.11406 26.3748 3.78502V3.78502ZM6.99983 11.267L14.8608 14.822C14.6511 15.2034 14.4638 15.5968 14.2998 16H6.99983C6.858 16.001 6.71767 15.971 6.58864 15.9121C6.45961 15.8532 6.34501 15.7668 6.25283 15.659C6.15446 15.5441 6.08201 15.4093 6.04042 15.2638C5.99883 15.1183 5.98908 14.9656 6.01183 14.816C6.19119 13.5963 6.52312 12.404 6.99983 11.267V11.267ZM11.8368 20.833C11.8128 21.1088 11.6995 21.3693 11.5142 21.575C11.3289 21.7807 11.0816 21.9204 10.8098 21.973C10.5597 22.0299 10.2978 22.003 10.0645 21.8964C9.83124 21.7898 9.63948 21.6094 9.51883 21.383C8.91813 20.3296 8.48781 19.1879 8.24383 18H12.4598C12.1768 18.874 11.8388 20.833 11.8388 20.833H11.8368ZM16.2158 13.24L7.55483 9.32302C7.42844 9.25948 7.31685 9.17002 7.22734 9.06048C7.13783 8.95093 7.07241 8.82376 7.03533 8.68724C6.99825 8.55072 6.99035 8.40793 7.01215 8.26815C7.03395 8.12838 7.08495 7.99476 7.16183 7.87602C8.40158 6.00509 10.0046 4.40237 11.8758 3.16302C11.9947 3.08428 12.1291 3.03224 12.27 3.01049C12.4109 2.98874 12.5548 2.99779 12.6918 3.03702C12.822 3.07067 12.9438 3.13098 13.0495 3.21412C13.1552 3.29725 13.2425 3.40142 13.3058 3.52002L17.2398 12.22L16.2158 13.24ZM19.9998 10.3C19.5966 10.464 19.2033 10.6513 18.8218 10.861L15.2668 3.00002C16.4033 2.52103 17.5958 2.18739 18.8158 2.00702C18.9651 1.9841 19.1176 1.99377 19.2627 2.03537C19.4079 2.07697 19.5424 2.14952 19.6568 2.24802C19.7655 2.34068 19.8525 2.45603 19.9118 2.58596C19.971 2.71588 20.0011 2.85722 19.9998 3.00002V10.3ZM25.9728 6.81002C25.9202 7.08182 25.7805 7.32908 25.5748 7.51438C25.3691 7.69969 25.1086 7.81294 24.8328 7.83702C24.8328 7.83702 22.8738 8.17702 21.9998 8.46002V4.24402C23.1878 4.48862 24.3296 4.91961 25.3828 5.52102C25.6088 5.64205 25.7889 5.83386 25.8955 6.06704C26.0021 6.30022 26.0292 6.56192 25.9728 6.81202V6.81002Z" fill="#374957"/>
</g>
<defs>
<filter id="filter0_d_403_3591" x="0" y="0" width="32" height="32" filterUnits="userSpaceOnUse" color-interpolation-filters="sRGB">
<feFlood flood-opacity="0" result="BackgroundImageFix"/>
<feColorMatrix in="SourceAlpha" type="matrix" values="0 0 0 0 0 0 0 0 0 0 0 0 0 0 0 0 0 0 127 0" result="hardAlpha"/>
<feOffset dy="4"/>
<feGaussianBlur stdDeviation="2"/>
<feComposite in2="hardAlpha" operator="out"/>
<feColorMatrix type="matrix" values="0 0 0 0 0 0 0 0 0 0 0 0 0 0 0 0 0 0 0.25 0"/>
<feBlend mode="normal" in2="BackgroundImageFix" result="effect1_dropShadow_403_3591"/>
<feBlend mode="normal" in="SourceGraphic" in2="effect1_dropShadow_403_3591" result="shape"/>
</filter>
<clipPath id="clip0_403_3591">
<rect width="24" height="24" fill="white" transform="translate(4)"/>
</clipPath>
</defs>
</svg>
