<svg width="24" height="24" viewBox="0 0 24 24" fill="none" xmlns="http://www.w3.org/2000/svg">
<g clip-path="url(#clip0_403_3515)">
<path d="M21 0H3C2.20435 0 1.44129 0.31607 0.87868 0.87868C0.31607 1.44129 0 2.20435 0 3L0 24H18.35C20.556 21.793 21.793 20.556 24 18.35V3C24 2.20435 23.6839 1.44129 23.1213 0.87868C22.5587 0.31607 21.7956 0 21 0V0ZM2 3C2 2.73478 2.10536 2.48043 2.29289 2.29289C2.48043 2.10536 2.73478 2 3 2H21C21.2652 2 21.5196 2.10536 21.7071 2.29289C21.8946 2.48043 22 2.73478 22 3V16H16V22H2V3ZM18 21.521V18H21.521L18 21.521Z" fill="#374957"/>
<path d="M10.9839 4.99978H9.01688V11.0688H10.2669V8.96878H10.9839C11.5103 8.96878 12.0152 8.75965 12.3875 8.38739C12.7597 8.01513 12.9689 7.51023 12.9689 6.98378C12.9689 6.45732 12.7597 5.95243 12.3875 5.58017C12.0152 5.20791 11.5103 4.99878 10.9839 4.99878V4.99978ZM10.9839 7.71978H10.2739V6.24678H10.9889C11.1838 6.24678 11.3708 6.32422 11.5086 6.46206C11.6464 6.5999 11.7239 6.78685 11.7239 6.98178C11.7239 7.17671 11.6464 7.36366 11.5086 7.5015C11.3708 7.63934 11.1838 7.71678 10.9889 7.71678L10.9839 7.71978Z" fill="#374957"/>
<path d="M16.0599 9.76312C15.8363 9.76614 15.6145 9.72334 15.4081 9.63734C15.2017 9.55135 15.0151 9.42399 14.8599 9.26312L14.4399 8.80012L13.5139 9.64112L13.9339 10.1031C14.2058 10.3952 14.5357 10.6274 14.9024 10.7848C15.2692 10.9422 15.6648 11.0213 16.0639 11.0171C16.5317 11.0371 16.9917 10.8924 17.3638 10.608C17.7358 10.3237 17.9963 9.9178 18.0998 9.46112C18.1573 9.0106 18.045 8.55482 17.7847 8.18266C17.5244 7.81049 17.1348 7.54862 16.6918 7.44812C16.0329 7.20412 15.4349 6.94112 15.4189 6.94112C15.3705 6.90904 15.3325 6.86363 15.3094 6.81038C15.2863 6.75714 15.2792 6.69834 15.2889 6.64112C15.3064 6.55158 15.3504 6.46935 15.4151 6.40502C15.4798 6.34068 15.5622 6.29718 15.6519 6.28012C15.8757 6.23291 16.1072 6.2353 16.3301 6.28713C16.553 6.33896 16.7618 6.43896 16.9418 6.58012L17.4168 6.98012L18.2168 6.02412L17.7378 5.62412C17.3986 5.35088 17.0006 5.16015 16.5751 5.06696C16.1496 4.97377 15.7082 4.98067 15.2859 5.08712C14.9685 5.17371 14.6829 5.34994 14.4632 5.59469C14.2434 5.83944 14.0989 6.14234 14.0469 6.46712C14.0041 6.77779 14.0552 7.09415 14.1937 7.37553C14.3322 7.65691 14.5516 7.89045 14.8239 8.04612C14.8239 8.04612 15.5019 8.34612 16.2539 8.62612C16.4129 8.68512 16.9258 8.90312 16.8638 9.24812C16.8057 9.4108 16.6952 9.5496 16.5497 9.64279C16.4042 9.73598 16.232 9.77829 16.0599 9.76312V9.76312Z" fill="#374957"/>
<path d="M3.99811 11.0212H7.26111V9.77122H5.24811V8.63422H7.11211V7.38422H5.24811V6.24622H7.26111V4.99622H3.99811V11.0212Z" fill="#374957"/>
</g>
<defs>
<clipPath id="clip0_403_3515">
<rect width="24" height="24" fill="white"/>
</clipPath>
</defs>
</svg>
