<svg width="24" height="24" viewBox="0 0 24 24" fill="none" xmlns="http://www.w3.org/2000/svg">
<g clip-path="url(#clip0_403_3776)">
<path d="M23.8208 11.181C22.8547 9.08568 21.4396 7.22849 19.6758 5.74097L22.7078 2.70897L21.2928 1.29297L17.9998 4.58297C16.1772 3.52869 14.1053 2.98207 11.9998 2.99997C4.49981 2.99997 1.05681 9.26097 0.17881 11.181C0.0609485 11.4383 -6.10352e-05 11.718 -6.10352e-05 12.001C-6.10352e-05 12.284 0.0609485 12.5637 0.17881 12.821C1.14495 14.9163 2.56003 16.7734 4.32381 18.261L1.29281 21.293L2.70681 22.707L5.99981 19.417C7.82245 20.4712 9.8943 21.0179 11.9998 21C19.4998 21 22.9428 14.739 23.8208 12.819C23.9384 12.562 23.9993 12.2826 23.9993 12C23.9993 11.7173 23.9384 11.438 23.8208 11.181V11.181ZM1.99981 12.011C2.74981 10.366 5.69281 4.99997 11.9998 4.99997C13.5694 4.99079 15.1185 5.35697 16.5178 6.06797L14.7528 7.83297C13.7927 7.19557 12.6417 6.90996 11.495 7.02461C10.3484 7.13926 9.27668 7.64711 8.46181 8.46197C7.64695 9.27683 7.13911 10.3485 7.02446 11.4952C6.90981 12.6419 7.19541 13.7929 7.83281 14.753L5.75381 16.832C4.15418 15.5294 2.87068 13.881 1.99981 12.011V12.011ZM14.9998 12C14.9998 12.7956 14.6837 13.5587 14.1211 14.1213C13.5585 14.6839 12.7955 15 11.9998 15C11.5543 14.9982 11.115 14.8957 10.7148 14.7L14.6998 10.715C14.8955 11.1152 14.9981 11.5545 14.9998 12V12ZM8.99981 12C8.99981 11.2043 9.31588 10.4413 9.87849 9.87865C10.4411 9.31604 11.2042 8.99997 11.9998 8.99997C12.4453 9.00169 12.8846 9.10426 13.2848 9.29997L9.29981 13.285C9.1041 12.8848 9.00154 12.4455 8.99981 12ZM11.9998 19C10.4302 19.0091 8.88117 18.643 7.48181 17.932L9.24681 16.167C10.2069 16.8044 11.3579 17.09 12.5046 16.9753C13.6513 16.8607 14.7229 16.3528 15.5378 15.538C16.3527 14.7231 16.8605 13.6514 16.9752 12.5047C17.0898 11.3581 16.8042 10.207 16.1668 9.24697L18.2448 7.16897C19.8476 8.47278 21.1318 10.125 21.9998 12C21.2358 13.657 18.2918 19 11.9998 19Z" fill="#374957"/>
</g>
<defs>
<clipPath id="clip0_403_3776">
<rect width="24" height="24" fill="white"/>
</clipPath>
</defs>
</svg>
