<svg width="24" height="24" viewBox="0 0 24 24" fill="none" xmlns="http://www.w3.org/2000/svg">
<g clip-path="url(#clip0_403_3739)">
<path d="M9.9998 8.00007C10.3954 8.00007 10.782 8.11737 11.1109 8.33713C11.4398 8.5569 11.6962 8.86925 11.8476 9.23471C11.9989 9.60016 12.0385 10.0023 11.9614 10.3903C11.8842 10.7782 11.6937 11.1346 11.414 11.4143C11.1343 11.694 10.7779 11.8845 10.39 11.9616C10.002 12.0388 9.59988 11.9992 9.23443 11.8478C8.86898 11.6965 8.55662 11.4401 8.33686 11.1112C8.11709 10.7823 7.9998 10.3956 7.9998 10.0001C7.9998 9.46964 8.21051 8.96093 8.58558 8.58586C8.96066 8.21079 9.46936 8.00007 9.9998 8.00007V8.00007ZM23.9998 10.0001C23.9958 13.7119 22.5196 17.2705 19.8949 19.8952C17.2703 22.5198 13.7116 23.9961 9.9998 24.0001H8.9998V19.9491C7.27182 19.7776 5.61827 19.1592 4.20189 18.1546C2.78551 17.1501 1.65513 15.794 0.922011 14.2199C0.188888 12.6458 -0.121708 10.9079 0.0207937 9.17728C0.163296 7.44668 0.753984 5.78301 1.73472 4.35003C2.71545 2.91704 4.05243 1.76413 5.61405 1.00478C7.17568 0.245421 8.90812 -0.0942064 10.6409 0.0193228C12.3736 0.132852 14.0469 0.695624 15.4961 1.65225C16.9453 2.60887 18.1204 3.92637 18.9058 5.47507C18.2844 5.76723 17.7299 6.18422 17.2768 6.70007C16.5216 5.0353 15.219 3.6794 13.5858 2.85804C11.9527 2.03669 10.0875 1.79943 8.30072 2.18577C6.51394 2.5721 4.91338 3.55872 3.76543 4.9814C2.61748 6.40409 1.9914 8.17701 1.9914 10.0051C1.9914 11.8331 2.61748 13.6061 3.76543 15.0287C4.91338 16.4514 6.51394 17.438 8.30072 17.8244C10.0875 18.2107 11.9527 17.9735 13.5858 17.1521C15.219 16.3308 16.5216 14.9748 17.2768 13.3101C17.7304 13.8241 18.2849 14.2394 18.9058 14.5301C18.1443 16.0191 17.0216 17.2934 15.6405 18.2366C14.2594 19.1797 12.6638 19.7616 10.9998 19.9291V21.9581C13.489 21.7445 15.8498 20.7606 17.7538 19.1431C19.6579 17.5256 21.0106 15.355 21.6238 12.9331C21.0172 13.0621 20.3855 12.9999 19.8156 12.7551C19.2458 12.5103 18.7658 12.0949 18.4418 11.5661C18.1178 11.0372 17.9656 10.421 18.0062 9.80213C18.0469 9.18326 18.2783 8.5922 18.6687 8.11029C19.0591 7.62838 19.5893 7.27931 20.1862 7.11111C20.7832 6.94292 21.4176 6.96387 22.0021 7.17109C22.5867 7.3783 23.0927 7.76159 23.4504 8.26821C23.8081 8.77483 24.0001 9.37988 23.9998 10.0001V10.0001ZM21.9998 10.0001C21.9998 9.80229 21.9412 9.60895 21.8313 9.4445C21.7214 9.28005 21.5652 9.15188 21.3825 9.07619C21.1998 9.00051 20.9987 8.9807 20.8047 9.01929C20.6107 9.05787 20.4325 9.15311 20.2927 9.29297C20.1528 9.43282 20.0576 9.611 20.019 9.80498C19.9804 9.99896 20.0002 10.2 20.0759 10.3828C20.1516 10.5655 20.2798 10.7217 20.4442 10.8315C20.6087 10.9414 20.802 11.0001 20.9998 11.0001C21.265 11.0001 21.5194 10.8947 21.7069 10.7072C21.8944 10.5196 21.9998 10.2653 21.9998 10.0001Z" fill="#374957"/>
</g>
<defs>
<clipPath id="clip0_403_3739">
<rect width="24" height="24" fill="white"/>
</clipPath>
</defs>
</svg>
