<svg width="32" height="32" viewBox="0 0 32 32" fill="none" xmlns="http://www.w3.org/2000/svg">
<g clip-path="url(#clip0_403_3543)" filter="url(#filter0_d_403_3543)">
<path d="M17.5 6.50001C17.5 6.79668 17.412 7.08669 17.2472 7.33336C17.0824 7.58003 16.8481 7.77229 16.574 7.88582C16.2999 7.99936 15.9983 8.02906 15.7074 7.97118C15.4164 7.91331 15.1491 7.77044 14.9393 7.56067C14.7296 7.35089 14.5867 7.08361 14.5288 6.79264C14.4709 6.50167 14.5007 6.20007 14.6142 5.92598C14.7277 5.65189 14.92 5.41762 15.1667 5.2528C15.4133 5.08798 15.7033 5.00001 16 5.00001C16.3978 5.00001 16.7794 5.15804 17.0607 5.43934C17.342 5.72065 17.5 6.10218 17.5 6.50001ZM28 12C28 9.62663 27.2962 7.30655 25.9776 5.33316C24.6591 3.35977 22.7849 1.8217 20.5922 0.913451C18.3995 0.00519943 15.9867 -0.232441 13.6589 0.230582C11.3312 0.693605 9.19295 1.83649 7.51472 3.51472C5.83649 5.19295 4.6936 7.33115 4.23058 9.65892C3.76756 11.9867 4.0052 14.3995 4.91345 16.5922C5.8217 18.7849 7.35977 20.6591 9.33316 21.9776C11.3066 23.2962 13.6266 24 16 24H28V12ZM26 12V22H16C14.0222 22 12.0888 21.4135 10.4443 20.3147C8.79981 19.2159 7.51809 17.6541 6.76121 15.8268C6.00433 13.9996 5.8063 11.9889 6.19215 10.0491C6.578 8.10929 7.53041 6.32746 8.92894 4.92894C10.3275 3.53041 12.1093 2.578 14.0491 2.19215C15.9889 1.8063 17.9996 2.00433 19.8268 2.76121C21.6541 3.51809 23.2159 4.79981 24.3147 6.4443C25.4135 8.08879 26 10.0222 26 12V12ZM18 12C18 11.4696 17.7893 10.9609 17.4142 10.5858C17.0391 10.2107 16.5304 10 16 10H14V12H16V19H18V12Z" fill="#374957"/>
</g>
<defs>
<filter id="filter0_d_403_3543" x="0" y="0" width="32" height="32" filterUnits="userSpaceOnUse" color-interpolation-filters="sRGB">
<feFlood flood-opacity="0" result="BackgroundImageFix"/>
<feColorMatrix in="SourceAlpha" type="matrix" values="0 0 0 0 0 0 0 0 0 0 0 0 0 0 0 0 0 0 127 0" result="hardAlpha"/>
<feOffset dy="4"/>
<feGaussianBlur stdDeviation="2"/>
<feComposite in2="hardAlpha" operator="out"/>
<feColorMatrix type="matrix" values="0 0 0 0 0 0 0 0 0 0 0 0 0 0 0 0 0 0 0.25 0"/>
<feBlend mode="normal" in2="BackgroundImageFix" result="effect1_dropShadow_403_3543"/>
<feBlend mode="normal" in="SourceGraphic" in2="effect1_dropShadow_403_3543" result="shape"/>
</filter>
<clipPath id="clip0_403_3543">
<rect width="24" height="24" fill="white" transform="translate(4)"/>
</clipPath>
</defs>
</svg>
