<svg width="24" height="24" viewBox="0 0 24 24" fill="none" xmlns="http://www.w3.org/2000/svg">
<g clip-path="url(#clip0_403_3519)">
<path d="M23.2453 0.757725C22.9611 0.470891 22.6131 0.255193 22.2298 0.128172C21.8465 0.00115117 21.4386 -0.0336069 21.0393 0.0267246C15.1 0.964771 9.59133 3.70185 5.25633 7.86872C4.49714 8.63218 3.90526 9.54538 3.5184 10.5502C3.13154 11.5549 2.95817 12.6293 3.00933 13.7047C3.08032 15.2648 3.62793 16.7656 4.57833 18.0047L0.043335 22.5427L1.45733 23.9567L5.99133 19.4227C7.30537 20.4469 8.9253 21.0002 10.5913 20.9937C11.6975 20.9888 12.7913 20.76 13.8068 20.3213C14.8223 19.8825 15.7385 19.2428 16.5003 18.4407C20.4665 14.1246 23.0673 8.73168 23.9753 2.94072C24.0336 2.54509 23.9979 2.14128 23.8711 1.76202C23.7443 1.38275 23.5299 1.0387 23.2453 0.757725V0.757725ZM5.00733 13.6077C4.9692 12.8104 5.09755 12.0139 5.38422 11.2689C5.67088 10.5239 6.10956 9.84682 6.67233 9.28072C7.10533 8.84672 7.55033 8.44572 8.00033 8.06072V14.5857L6.01033 16.5757C5.40393 15.7002 5.05633 14.6716 5.00733 13.6077V13.6077ZM15.0543 17.0587C14.102 18.0967 12.8104 18.7605 11.4121 18.9306C10.0138 19.1007 8.60073 18.766 7.42733 17.9867L12.4143 12.9997H18.1613C17.2724 14.459 16.2309 15.8197 15.0543 17.0587V17.0587ZM21.9933 2.65872C21.5198 5.56157 20.6038 8.37462 19.2773 10.9997H14.4143L17.9573 7.45672L16.5433 6.04272L10.0003 12.5857V6.51672C13.4053 4.2116 17.2698 2.67254 21.3273 2.00572C21.3565 2.00174 21.3859 1.99973 21.4153 1.99972C21.4928 1.99961 21.5695 2.01484 21.6411 2.04453C21.7127 2.07422 21.7777 2.11779 21.8323 2.17272C21.8955 2.23474 21.943 2.31086 21.971 2.39483C21.999 2.4788 22.0066 2.56822 21.9933 2.65572V2.65872Z" fill="#374957"/>
</g>
<defs>
<clipPath id="clip0_403_3519">
<rect width="24" height="24" fill="white"/>
</clipPath>
</defs>
</svg>
