<svg width="32" height="32" viewBox="0 0 32 32" fill="none" xmlns="http://www.w3.org/2000/svg">
<g clip-path="url(#clip0_403_3759)" filter="url(#filter0_d_403_3759)">
<path d="M20.0002 24H18.0002V22H20.0002C20.2654 22 20.5198 21.8946 20.7073 21.7071C20.8949 21.5196 21.0002 21.2652 21.0002 21C21.0002 20.7348 20.8949 20.4804 20.7073 20.2929C20.5198 20.1054 20.2654 20 20.0002 20H16.0002C15.2046 20 14.4415 19.6839 13.8789 19.1213C13.3163 18.5587 13.0002 17.7956 13.0002 17C13.0002 16.2044 13.3163 15.4413 13.8789 14.8787C14.4415 14.3161 15.2046 14 16.0002 14H23.0002C23.2654 14 23.5198 13.8946 23.7073 13.7071C23.8949 13.5196 24.0002 13.2652 24.0002 13C24.0002 12.7348 23.8949 12.4804 23.7073 12.2929C23.5198 12.1054 23.2654 12 23.0002 12H10.0002C2.06822 11.747 2.07422 0.25 10.0002 0H24.0002C25.0611 0 26.0785 0.421427 26.8286 1.17157C27.5788 1.92172 28.0002 2.93913 28.0002 4C28.0002 5.06087 27.5788 6.07828 26.8286 6.82843C26.0785 7.57857 25.0611 8 24.0002 8H10.0002V6H24.0002C24.5307 6 25.0394 5.78929 25.4144 5.41421C25.7895 5.03914 26.0002 4.53043 26.0002 4C26.0002 3.46957 25.7895 2.96086 25.4144 2.58579C25.0394 2.21071 24.5307 2 24.0002 2H10.0002C8.93935 2 7.92194 2.42143 7.17179 3.17157C6.42164 3.92172 6.00022 4.93913 6.00022 6C6.00022 7.06087 6.42164 8.07828 7.17179 8.82843C7.92194 9.57857 8.93935 10 10.0002 10H23.0002C23.7959 10 24.5589 10.3161 25.1215 10.8787C25.6841 11.4413 26.0002 12.2044 26.0002 13C26.0002 13.7956 25.6841 14.5587 25.1215 15.1213C24.5589 15.6839 23.7959 16 23.0002 16H16.0002C15.735 16 15.4806 16.1054 15.2931 16.2929C15.1056 16.4804 15.0002 16.7348 15.0002 17C15.0002 17.2652 15.1056 17.5196 15.2931 17.7071C15.4806 17.8946 15.735 18 16.0002 18H20.0002C20.7959 18 21.5589 18.3161 22.1215 18.8787C22.6841 19.4413 23.0002 20.2044 23.0002 21C23.0002 21.7956 22.6841 22.5587 22.1215 23.1213C21.5589 23.6839 20.7959 24 20.0002 24Z" fill="#374957"/>
</g>
<defs>
<filter id="filter0_d_403_3759" x="0" y="0" width="32" height="32" filterUnits="userSpaceOnUse" color-interpolation-filters="sRGB">
<feFlood flood-opacity="0" result="BackgroundImageFix"/>
<feColorMatrix in="SourceAlpha" type="matrix" values="0 0 0 0 0 0 0 0 0 0 0 0 0 0 0 0 0 0 127 0" result="hardAlpha"/>
<feOffset dy="4"/>
<feGaussianBlur stdDeviation="2"/>
<feComposite in2="hardAlpha" operator="out"/>
<feColorMatrix type="matrix" values="0 0 0 0 0 0 0 0 0 0 0 0 0 0 0 0 0 0 0.25 0"/>
<feBlend mode="normal" in2="BackgroundImageFix" result="effect1_dropShadow_403_3759"/>
<feBlend mode="normal" in="SourceGraphic" in2="effect1_dropShadow_403_3759" result="shape"/>
</filter>
<clipPath id="clip0_403_3759">
<rect width="24" height="24" fill="white" transform="translate(4)"/>
</clipPath>
</defs>
</svg>
