<svg width="24" height="24" viewBox="0 0 24 24" fill="none" xmlns="http://www.w3.org/2000/svg">
<g clip-path="url(#clip0_403_3646)">
<path d="M16.7926 14.9999C16.8246 14.9999 16.7616 14.9999 16.7926 14.9999V14.9999ZM21.1926 13.5649C24.4716 16.7999 22.4926 21.8849 20.9356 23.5139L20.5356 23.9739L19.9436 23.8249C17.2997 23.0872 14.9019 21.6545 12.9996 19.6759V22.0189H10.9996V19.6759C9.0988 21.6554 6.70238 23.0894 4.05956 23.8289L3.46756 23.9779L3.06756 23.5179C1.48256 21.7849 -0.458435 17.0179 2.86756 13.6129C2.02422 13.0006 1.32963 12.2062 0.835374 11.2886C0.341117 10.3711 0.0598868 9.35402 0.0125646 8.31291C-0.0158404 6.2883 0.455401 4.28793 1.38456 2.48891C1.75269 1.85559 2.33981 1.37885 3.03521 1.14859C3.7306 0.918327 4.48622 0.950451 5.15956 1.23891C7.78202 2.52556 10.1106 4.33976 11.9996 6.5679C13.8885 4.33976 16.2171 2.52556 18.8396 1.23891C19.5127 0.950647 20.268 0.918522 20.9631 1.14858C21.6583 1.37865 22.2453 1.85501 22.6136 2.48791C23.5461 4.28706 24.0202 6.2886 23.9936 8.31491C23.9483 9.34439 23.6731 10.3507 23.188 11.2599C22.703 12.169 22.0205 12.958 21.1906 13.5689L21.1926 13.5649ZM10.9996 14.2999C9.7936 14.7817 8.50407 15.0197 7.20556 14.9999C6.35285 15.0202 5.50358 14.8847 4.69956 14.5999C2.29956 16.6399 2.82656 19.7849 4.19956 21.7059C7.50756 20.6189 10.9996 17.5669 10.9996 15.6429V14.2999ZM10.9996 8.47691C9.20978 6.22471 6.95427 4.38605 4.38756 3.08691C4.16541 2.98693 3.91439 2.97149 3.68166 3.04348C3.44892 3.11547 3.25047 3.26995 3.12356 3.47791C2.37687 4.9534 1.99162 6.58525 1.99956 8.23891C2.09352 9.54303 2.68188 10.7621 3.64446 11.6469C4.60703 12.5318 5.87116 13.0158 7.17856 12.9999C8.52771 13.0815 9.86732 12.7271 10.9996 11.9889V8.47691ZM20.9996 18.0089C20.9867 17.3495 20.8309 16.7006 20.5429 16.1073C20.255 15.5139 19.8417 14.99 19.3316 14.5719C18.5151 14.8569 17.6564 15.0022 16.7916 15.0019C15.4936 15.0208 14.2047 14.7822 12.9996 14.2999V15.6409C12.9996 17.5649 16.4916 20.6169 19.7916 21.6999C20.5374 20.6104 20.9565 19.3305 20.9996 18.0109V18.0089ZM21.9996 8.23891C22.009 6.58544 21.6247 4.95347 20.8786 3.47791C20.7517 3.27019 20.5534 3.11588 20.3209 3.0439C20.0884 2.97192 19.8376 2.98721 19.6156 3.08691C17.0472 4.38615 14.7903 6.22553 12.9996 8.47891V11.9889C14.1315 12.7269 15.4708 13.0813 16.8196 12.9999C18.1315 13.0318 19.4046 12.5533 20.3708 11.6653C21.337 10.7772 21.9209 9.54888 21.9996 8.23891V8.23891ZM11.9996 3.98491C12.5309 3.98491 13.0405 3.77382 13.4163 3.39809C13.792 3.02236 14.0031 2.51277 14.0031 1.98141C14.0031 1.45004 13.792 0.940446 13.4163 0.564717C13.0405 0.188988 12.5309 -0.0220947 11.9996 -0.0220947C11.4682 -0.0220947 10.9586 0.188988 10.5829 0.564717C10.2071 0.940446 9.99606 1.45004 9.99606 1.98141C9.99606 2.51277 10.2071 3.02236 10.5829 3.39809C10.9586 3.77382 11.4682 3.98491 11.9996 3.98491V3.98491Z" fill="#374957"/>
</g>
<defs>
<clipPath id="clip0_403_3646">
<rect width="24" height="24" fill="white"/>
</clipPath>
</defs>
</svg>
