<svg width="24" height="24" viewBox="0 0 24 24" fill="none" xmlns="http://www.w3.org/2000/svg">
<g clip-path="url(#clip0_403_3486)">
<path d="M2.33333 14.574L0.400335 15.089C0.22153 14.4154 0.102073 13.7274 0.043335 13.033L2.03534 12.864C2.08537 13.4415 2.18508 14.0136 2.33333 14.574V14.574ZM3.48934 20.458C3.98002 20.9526 4.51305 21.4033 5.08233 21.805L6.23433 20.171C5.76059 19.8358 5.31661 19.4604 4.90733 19.049L3.48934 20.458ZM2.92533 16.208L1.11233 17.051C1.40537 17.6824 1.75303 18.2871 2.15134 18.858L3.79234 17.715C3.46097 17.2383 3.17092 16.7341 2.92533 16.208V16.208ZM2.33733 9.408L0.405335 8.9C0.226025 9.57294 0.105571 10.2602 0.045335 10.954L2.03733 11.129C2.08783 10.5488 2.1882 9.97399 2.33733 9.411V9.408ZM3.80033 6.274L2.16233 5.128C1.76297 5.69879 1.4143 6.30343 1.12033 6.935L2.93334 7.779C3.17862 7.25339 3.46869 6.74986 3.80033 6.274V6.274ZM6.90033 1.137L7.75233 2.946C8.27755 2.69902 8.82328 2.49826 9.38334 2.346L8.85533 0.417C8.18397 0.599677 7.52982 0.84059 6.90033 1.137V1.137ZM3.50033 3.531L4.91733 4.94C5.32706 4.52927 5.77137 4.15456 6.24533 3.82L5.09333 2.186C4.52394 2.58678 3.99089 3.03684 3.50033 3.531V3.531ZM6.88133 22.857C7.51218 23.1548 8.16805 23.3964 8.84133 23.579L9.36434 21.649C8.80512 21.4971 8.26035 21.2964 7.73633 21.049L6.88133 22.857ZM12.0003 0C11.6333 0 11.2703 0.017 10.9113 0.049L11.0913 2.041C11.3913 2.014 11.6913 2 12.0003 2C14.6525 2 17.196 3.05357 19.0714 4.92893C20.9468 6.8043 22.0003 9.34784 22.0003 12C22.0003 14.6522 20.9468 17.1957 19.0714 19.0711C17.196 20.9464 14.6525 22 12.0003 22C11.6933 22 11.3913 21.986 11.0913 21.959L10.9113 23.951C11.2703 23.983 11.6333 24 12.0003 24C15.1829 24 18.2352 22.7357 20.4856 20.4853C22.7361 18.2348 24.0003 15.1826 24.0003 12C24.0003 8.8174 22.7361 5.76516 20.4856 3.51472C18.2352 1.26428 15.1829 0 12.0003 0V0ZM11.0003 17H13.0003V13.723C13.3042 13.5495 13.5568 13.2988 13.7325 12.9962C13.9082 12.6936 14.0007 12.3499 14.0007 12C14.0007 11.6501 13.9082 11.3064 13.7325 11.0038C13.5568 10.7012 13.3042 10.4505 13.0003 10.277V6H11.0003V10.277C10.6965 10.4505 10.4439 10.7012 10.2682 11.0038C10.0925 11.3064 9.99996 11.6501 9.99996 12C9.99996 12.3499 10.0925 12.6936 10.2682 12.9962C10.4439 13.2988 10.6965 13.5495 11.0003 13.723V17Z" fill="#374957"/>
</g>
<defs>
<clipPath id="clip0_403_3486">
<rect width="24" height="24" fill="white"/>
</clipPath>
</defs>
</svg>
