<svg width="24" height="24" viewBox="0 0 24 24" fill="none" xmlns="http://www.w3.org/2000/svg">
<g clip-path="url(#clip0_403_3708)">
<path d="M22.765 7.11975L13.765 0.574755C13.2521 0.201615 12.6342 0.000610352 12 0.000610352C11.3658 0.000610352 10.7479 0.201615 10.235 0.574755L1.235 7.11975C0.853175 7.39904 0.542429 7.76426 0.327884 8.18588C0.113339 8.6075 0.00101754 9.07369 0 9.54675L0 13.0008H11V24.0008H13V13.0008H24V9.54675C23.999 9.07369 23.8867 8.6075 23.6721 8.18588C23.4576 7.76426 23.1468 7.39904 22.765 7.11975V7.11975ZM2 9.54675C2.00026 9.38898 2.0376 9.23348 2.10899 9.09278C2.18038 8.95209 2.28383 8.83013 2.411 8.73675L8.7 4.16575L6.5 7.47275C6.17302 7.96418 5.99903 8.54149 6 9.13175V11.0008H2V9.54675ZM8 11.0008V9.13175C8.00005 8.93501 8.05814 8.74265 8.167 8.57875L11 4.31376V11.0008H8ZM13 4.31376L15.833 8.57775C15.942 8.74193 16.0001 8.93467 16 9.13175V11.0008H13V4.31376ZM22 11.0008H18V9.13175C18.0008 8.5412 17.8268 7.96362 17.5 7.47176L15.3 4.16675L21.583 8.73575C21.7114 8.82859 21.8161 8.95042 21.8886 9.09135C21.961 9.23227 21.9992 9.3883 22 9.54675V11.0008Z" fill="#374957"/>
<path d="M5 19H2V15H0V24H2V21H5V24H7V21C7 20.4696 6.78929 19.9609 6.41421 19.5858C6.03914 19.2107 5.53043 19 5 19Z" fill="#374957"/>
<path d="M22.0001 19H19.0001C18.4697 19 17.961 19.2107 17.5859 19.5858C17.2108 19.9609 17.0001 20.4696 17.0001 21V24H19.0001V21H22.0001V24H24.0001V15H22.0001V19Z" fill="#374957"/>
</g>
<defs>
<clipPath id="clip0_403_3708">
<rect width="24" height="24" fill="white"/>
</clipPath>
</defs>
</svg>
