<svg width="24" height="24" viewBox="0 0 24 24" fill="none" xmlns="http://www.w3.org/2000/svg">
<g clip-path="url(#clip0_403_3766)">
<path d="M22.613 15.0282L24.028 13.6132L10.419 0.00524902L9.00497 1.41925L10.136 2.55025L8.58797 4.10024L5.73997 1.21625L4.31797 2.62225L7.17397 5.51224L0.87897 11.8122C0.316557 12.3748 0.000610352 13.1377 0.000610352 13.9332C0.000610352 14.7287 0.316557 15.4916 0.87897 16.0542L7.94897 23.1252C8.22755 23.4039 8.55829 23.6249 8.9223 23.7757C9.28631 23.9265 9.67646 24.0041 10.0705 24.0041C10.4645 24.0041 10.8546 23.9265 11.2186 23.7757C11.5826 23.6249 11.9134 23.4039 12.192 23.1252L21.45 13.8682L22.613 15.0282ZM10.778 21.7072C10.5877 21.8895 10.3344 21.9912 10.071 21.9912C9.80751 21.9912 9.55422 21.8895 9.36397 21.7072L2.29297 14.6362C2.1055 14.4487 2.00018 14.1944 2.00018 13.9292C2.00018 13.6641 2.1055 13.4098 2.29297 13.2222L8.57997 6.93524L13.289 11.7002L14.711 10.3002L9.99297 5.52224L11.55 3.96424L20.036 12.4502L10.778 21.7072ZM21.5 17.0002C21.5 17.0002 24 20.1192 24 21.5002C24 22.1633 23.7366 22.7991 23.2677 23.268C22.7989 23.7368 22.163 24.0002 21.5 24.0002C20.8369 24.0002 20.201 23.7368 19.7322 23.268C19.2634 22.7991 19 22.1633 19 21.5002C19 20.2502 21.5 17.0002 21.5 17.0002Z" fill="#374957"/>
</g>
<defs>
<clipPath id="clip0_403_3766">
<rect width="24" height="24" fill="white"/>
</clipPath>
</defs>
</svg>
