<svg width="32" height="32" viewBox="0 0 32 32" fill="none" xmlns="http://www.w3.org/2000/svg">
<g clip-path="url(#clip0_403_3501)" filter="url(#filter0_d_403_3501)">
<path d="M12.9999 11.9999C11.8133 11.9999 10.6532 11.648 9.66652 10.9887C8.67983 10.3294 7.91079 9.39234 7.45666 8.29598C7.00254 7.19962 6.88372 5.99323 7.11523 4.82934C7.34674 3.66545 7.91819 2.59636 8.7573 1.75724C9.59642 0.918125 10.6655 0.34668 11.8294 0.115169C12.9933 -0.116342 14.1997 0.00247765 15.296 0.456603C16.3924 0.910729 17.3295 1.67976 17.9888 2.66646C18.648 3.65315 18.9999 4.81319 18.9999 5.99988C18.9984 7.59069 18.3657 9.11589 17.2408 10.2408C16.116 11.3656 14.5908 11.9983 12.9999 11.9999V11.9999ZM12.9999 1.99988C12.2088 1.99988 11.4355 2.23448 10.7777 2.674C10.1199 3.11353 9.60717 3.73824 9.30442 4.46915C9.00167 5.20005 8.92246 6.00432 9.0768 6.78024C9.23114 7.55617 9.6121 8.2689 10.1715 8.82831C10.7309 9.38772 11.4437 9.76868 12.2196 9.92302C12.9955 10.0774 13.7998 9.99815 14.5307 9.6954C15.2616 9.39265 15.8863 8.87996 16.3258 8.22216C16.7653 7.56436 16.9999 6.79101 16.9999 5.99988C16.9999 4.93901 16.5785 3.9216 15.8284 3.17145C15.0782 2.42131 14.0608 1.99988 12.9999 1.99988Z" fill="#374957"/>
<path d="M22 23.9996H20V18.9566C19.9989 18.1727 19.6871 17.4212 19.1327 16.8669C18.5784 16.3126 17.8269 16.0007 17.043 15.9996H8.957C8.17308 16.0007 7.42157 16.3126 6.86725 16.8669C6.31294 17.4212 6.00106 18.1727 6 18.9566V23.9996H4V18.9566C4.00159 17.6424 4.52435 16.3825 5.45363 15.4533C6.3829 14.524 7.64281 14.0012 8.957 13.9996H17.043C18.3572 14.0012 19.6171 14.524 20.5464 15.4533C21.4756 16.3825 21.9984 17.6424 22 18.9566V23.9996Z" fill="#374957"/>
<path d="M25.9999 7.875C25.4433 7.90272 24.9205 8.14977 24.5456 8.56207C24.1708 8.97437 23.9746 9.51836 23.9999 10.075C24.0252 9.51836 23.8289 8.97437 23.4541 8.56207C23.0793 8.14977 22.5564 7.90272 21.9999 7.875C21.4434 7.90272 20.9205 8.14977 20.5457 8.56207C20.1708 8.97437 19.9746 9.51836 19.9999 10.075C19.9999 12.375 23.9999 15.208 23.9999 15.208C23.9999 15.208 27.9999 12.379 27.9999 10.075C28.0251 9.51836 27.8289 8.97437 27.4541 8.56207C27.0793 8.14977 26.5564 7.90272 25.9999 7.875V7.875Z" fill="#374957"/>
</g>
<defs>
<filter id="filter0_d_403_3501" x="0" y="0" width="32" height="32" filterUnits="userSpaceOnUse" color-interpolation-filters="sRGB">
<feFlood flood-opacity="0" result="BackgroundImageFix"/>
<feColorMatrix in="SourceAlpha" type="matrix" values="0 0 0 0 0 0 0 0 0 0 0 0 0 0 0 0 0 0 127 0" result="hardAlpha"/>
<feOffset dy="4"/>
<feGaussianBlur stdDeviation="2"/>
<feComposite in2="hardAlpha" operator="out"/>
<feColorMatrix type="matrix" values="0 0 0 0 0 0 0 0 0 0 0 0 0 0 0 0 0 0 0.25 0"/>
<feBlend mode="normal" in2="BackgroundImageFix" result="effect1_dropShadow_403_3501"/>
<feBlend mode="normal" in="SourceGraphic" in2="effect1_dropShadow_403_3501" result="shape"/>
</filter>
<clipPath id="clip0_403_3501">
<rect width="24" height="24" fill="white" transform="translate(4)"/>
</clipPath>
</defs>
</svg>
