<svg width="32" height="29" viewBox="0 0 32 29" fill="none" xmlns="http://www.w3.org/2000/svg">
<g clip-path="url(#clip0_403_3534)" filter="url(#filter0_d_403_3534)">
<path d="M27.8208 11.181C26.9428 9.261 23.4998 3 15.9998 3C8.49981 3 5.05681 9.261 4.17881 11.181C4.06095 11.4383 3.99994 11.718 3.99994 12.001C3.99994 12.284 4.06095 12.5637 4.17881 12.821C5.05681 14.739 8.49981 21 15.9998 21C23.4998 21 26.9428 14.739 27.8208 12.819C27.9384 12.562 27.9993 12.2827 27.9993 12C27.9993 11.7173 27.9384 11.438 27.8208 11.181V11.181ZM15.9998 19C9.69281 19 6.74981 13.634 5.99981 12.011C6.74981 10.366 9.69281 5 15.9998 5C22.2918 5 25.2358 10.343 25.9998 12C25.2358 13.657 22.2918 19 15.9998 19Z" fill="#374957"/>
<path d="M15.9998 7.00037C15.0109 7.00037 14.0442 7.29361 13.2219 7.84302C12.3997 8.39243 11.7588 9.17332 11.3804 10.0869C11.0019 11.0006 10.9029 12.0059 11.0958 12.9758C11.2888 13.9457 11.765 14.8366 12.4642 15.5359C13.1635 16.2352 14.0544 16.7114 15.0243 16.9043C15.9942 17.0972 16.9995 16.9982 17.9132 16.6198C18.8268 16.2413 19.6077 15.6005 20.1571 14.7782C20.7065 13.956 20.9998 12.9893 20.9998 12.0004C20.9982 10.6748 20.4709 9.40392 19.5335 8.46659C18.5962 7.52925 17.3254 7.00195 15.9998 7.00037V7.00037ZM15.9998 15.0004C15.4064 15.0004 14.8264 14.8244 14.333 14.4948C13.8397 14.1651 13.4552 13.6966 13.2281 13.1484C13.0011 12.6002 12.9416 11.997 13.0574 11.4151C13.1732 10.8332 13.4589 10.2986 13.8784 9.87905C14.298 9.45949 14.8325 9.17377 15.4145 9.05801C15.9964 8.94225 16.5996 9.00166 17.1478 9.22873C17.696 9.45579 18.1645 9.84031 18.4942 10.3337C18.8238 10.827 18.9998 11.407 18.9998 12.0004C18.9998 12.796 18.6837 13.5591 18.1211 14.1217C17.5585 14.6843 16.7954 15.0004 15.9998 15.0004Z" fill="#374957"/>
</g>
<defs>
<filter id="filter0_d_403_3534" x="0" y="0" width="32" height="32" filterUnits="userSpaceOnUse" color-interpolation-filters="sRGB">
<feFlood flood-opacity="0" result="BackgroundImageFix"/>
<feColorMatrix in="SourceAlpha" type="matrix" values="0 0 0 0 0 0 0 0 0 0 0 0 0 0 0 0 0 0 127 0" result="hardAlpha"/>
<feOffset dy="4"/>
<feGaussianBlur stdDeviation="2"/>
<feComposite in2="hardAlpha" operator="out"/>
<feColorMatrix type="matrix" values="0 0 0 0 0 0 0 0 0 0 0 0 0 0 0 0 0 0 0.25 0"/>
<feBlend mode="normal" in2="BackgroundImageFix" result="effect1_dropShadow_403_3534"/>
<feBlend mode="normal" in="SourceGraphic" in2="effect1_dropShadow_403_3534" result="shape"/>
</filter>
<clipPath id="clip0_403_3534">
<rect width="24" height="24" fill="white" transform="translate(4)"/>
</clipPath>
</defs>
</svg>
