<svg width="24" height="24" viewBox="0 0 24 24" fill="none" xmlns="http://www.w3.org/2000/svg">
<g clip-path="url(#clip0_403_3558)">
<path d="M12 0C8.8174 0 5.76516 1.26428 3.51472 3.51472C1.26428 5.76516 0 8.8174 0 12C0 15.1826 1.26428 18.2348 3.51472 20.4853C5.76516 22.7357 8.8174 24 12 24H24V12C23.9966 8.81846 22.7312 5.76821 20.4815 3.51852C18.2318 1.26883 15.1815 0.00344108 12 0V0ZM22 22H12C10.0222 22 8.08879 21.4135 6.4443 20.3147C4.79981 19.2159 3.51808 17.6541 2.7612 15.8268C2.00433 13.9996 1.8063 11.9889 2.19215 10.0491C2.578 8.10929 3.53041 6.32746 4.92893 4.92893C6.32746 3.53041 8.10929 2.578 10.0491 2.19215C11.9889 1.8063 13.9996 2.00433 15.8268 2.7612C17.6541 3.51808 19.2159 4.79981 20.3147 6.4443C21.4135 8.08879 22 10.0222 22 12V22ZM14.5 7C13.5684 6.98551 12.6691 7.34161 12 7.99C11.3309 7.34161 10.4316 6.98551 9.5 7C8.54581 7.02825 7.6417 7.43351 6.98569 8.127C6.32968 8.8205 5.97524 9.74571 6 10.7C6 13.956 10.874 17.436 11.43 17.821L12 18.221L12.57 17.821C13.126 17.436 18 13.956 18 10.7C18.0248 9.74571 17.6703 8.8205 17.0143 8.127C16.3583 7.43351 15.4542 7.02825 14.5 7ZM12 15.762C10.259 14.432 8 12.202 8 10.7C7.97585 10.2762 8.11982 9.86003 8.40065 9.54175C8.68148 9.22347 9.07652 9.0288 9.5 9C9.69672 8.98574 9.89423 9.01322 10.0796 9.08061C10.265 9.14801 10.434 9.25382 10.5756 9.3911C10.7172 9.52837 10.8282 9.69403 10.9014 9.8772C10.9745 10.0604 11.0081 10.2569 11 10.454V11H13V10.454C12.9919 10.2569 13.0255 10.0604 13.0986 9.8772C13.1718 9.69403 13.2828 9.52837 13.4244 9.3911C13.566 9.25382 13.735 9.14801 13.9204 9.08061C14.1058 9.01322 14.3033 8.98574 14.5 9C14.9235 9.0288 15.3185 9.22347 15.5993 9.54175C15.8802 9.86003 16.0242 10.2762 16 10.7C16 12.2 13.741 14.432 12 15.762Z" fill="#374957"/>
</g>
<defs>
<clipPath id="clip0_403_3558">
<rect width="24" height="24" fill="white"/>
</clipPath>
</defs>
</svg>
