<svg width="24" height="24" viewBox="0 0 24 24" fill="none" xmlns="http://www.w3.org/2000/svg">
<g clip-path="url(#clip0_403_3388)">
<path d="M15.9372 8.28256C16.0842 9.10791 15.9696 9.95857 15.6094 10.7156C15.2492 11.4726 14.6614 12.0981 13.9282 12.5046C13.6549 12.7111 13.4302 12.975 13.2699 13.2777C13.1096 13.5804 13.0175 13.9145 13.0002 14.2566V14.9996H11.0002V14.2566C11.0189 13.5578 11.2073 12.8741 11.5491 12.2644C11.8909 11.6547 12.3759 11.1372 12.9622 10.7566C13.3325 10.5538 13.6293 10.239 13.8098 9.8573C13.9903 9.47557 14.0454 9.04651 13.9672 8.63156C13.8901 8.23585 13.6967 7.87216 13.4116 7.58709C13.1266 7.30203 12.7629 7.10859 12.3672 7.03156C12.0782 6.97763 11.781 6.98804 11.4966 7.06204C11.2121 7.13604 10.9475 7.27183 10.7215 7.45972C10.4955 7.64762 10.3137 7.88302 10.189 8.14916C10.0644 8.41531 9.99986 8.70566 10.0002 8.99956H8.00015C7.99958 8.41538 8.12726 7.8382 8.37418 7.30877C8.6211 6.77934 8.98123 6.31057 9.42915 5.93556C9.96553 5.48506 10.6108 5.1833 11.3004 5.06049C11.99 4.93767 12.6998 4.99811 13.3587 5.23574C14.0177 5.47337 14.6026 5.87987 15.0551 6.41456C15.5076 6.94926 15.8118 7.59341 15.9372 8.28256ZM22.0002 5.46656V11.9906C22.0002 19.4276 14.9532 22.8396 12.7932 23.7076L11.9582 24.0436L11.1582 23.6436C9.00515 22.5666 2.00015 18.5536 2.00015 11.9906V5.46656C1.99998 4.83698 2.1984 4.22339 2.56719 3.71313C2.93597 3.20287 3.45631 2.82194 4.05415 2.62456L12.0002 -0.010437L19.9462 2.62456C20.544 2.82194 21.0643 3.20287 21.4331 3.71313C21.8019 4.22339 22.0003 4.83698 22.0002 5.46656V5.46656ZM20.0002 5.46656C19.9992 5.25745 19.9326 5.05392 19.8099 4.88458C19.6872 4.71525 19.5146 4.58864 19.3162 4.52256L12.0002 2.09956L4.68415 4.52256C4.48575 4.58864 4.31306 4.71525 4.19037 4.88458C4.06767 5.05392 4.00115 5.25745 4.00015 5.46656V11.9906C4.00015 17.4066 10.1592 20.9076 12.0472 21.8526C13.9132 21.0996 20.0002 18.1736 20.0002 11.9906V5.46656ZM11.0002 18.9996H13.0002V16.9996H11.0002V18.9996Z" fill="#374957"/>
</g>
<defs>
<clipPath id="clip0_403_3388">
<rect width="24" height="24" fill="white"/>
</clipPath>
</defs>
</svg>
