<svg width="24" height="24" viewBox="0 0 24 24" fill="none" xmlns="http://www.w3.org/2000/svg">
<g clip-path="url(#clip0_403_3684)">
<path d="M14.2002 16.2611C11.2887 15.0281 8.97343 12.7074 7.7472 9.79309L11.1472 6.38709L4.8872 0.122091L1.7162 3.29209C1.1662 3.84523 0.731342 4.50195 0.436795 5.22425C0.142247 5.94654 -0.00614821 6.72007 0.000195101 7.50009C0.000195101 14.7481 9.25219 24.0001 16.5002 24.0001C17.2801 24.0067 18.0536 23.8584 18.7757 23.5638C19.4979 23.2693 20.1544 22.8343 20.7072 22.2841L23.8782 19.1131L17.6132 12.8481L14.2002 16.2611ZM19.2942 20.8701C18.9264 21.2339 18.4901 21.5211 18.0104 21.7151C17.5308 21.9091 17.0175 22.0059 16.5002 22.0001C10.2672 22.0001 2.0002 13.7331 2.0002 7.50009C1.99431 6.98292 2.09116 6.46973 2.28514 5.99028C2.47911 5.51083 2.76635 5.07467 3.1302 4.70709L4.8872 2.95009L8.3242 6.38709L5.38919 9.32209L5.63419 9.93609C6.35544 11.8654 7.48296 13.6171 8.94035 15.0726C10.3977 16.5281 12.1509 17.6534 14.0812 18.3721L14.6872 18.6031L17.6132 15.6761L21.0502 19.1131L19.2942 20.8701ZM15.0002 6.52909V2.00009H17.0002V5.61109C17.6612 4.94809 18.4512 4.15309 19.2392 3.36109C20.6052 1.98709 21.9512 0.635091 22.5392 0.0430908L23.9532 1.45709C23.3612 2.04909 22.0172 3.39909 20.6532 4.77109C19.8782 5.55509 19.1002 6.34009 18.4392 7.00009H22.0002V9.00009H17.5002C16.8412 9.00328 16.2078 8.7449 15.7391 8.28163C15.2704 7.81837 15.0047 7.18808 15.0002 6.52909V6.52909Z" fill="#374957"/>
</g>
<defs>
<clipPath id="clip0_403_3684">
<rect width="24" height="24" fill="white"/>
</clipPath>
</defs>
</svg>
