<svg width="24" height="24" viewBox="0 0 24 24" fill="none" xmlns="http://www.w3.org/2000/svg">
<g clip-path="url(#clip0_403_3422)">
<path d="M13.25 11.516C13.5641 10.5005 14.1943 9.61182 15.0487 8.9794C15.903 8.34697 16.937 8.00385 18 8C18.7956 8 19.5587 7.68393 20.1213 7.12132C20.6839 6.55871 21 5.79565 21 5C21 4.20435 20.6839 3.44129 20.1213 2.87868C19.5587 2.31607 18.7956 2 18 2C17.0678 1.99978 16.145 2.18649 15.2862 2.54908C14.4274 2.91166 13.65 3.44277 13 4.111V0H11V4.11C10.3498 3.44214 9.57233 2.91133 8.71356 2.54893C7.85479 2.18653 6.93211 1.99988 6 2C5.20435 2 4.44129 2.31607 3.87868 2.87868C3.31607 3.44129 3 4.20435 3 5C3 5.79565 3.31607 6.55871 3.87868 7.12132C4.44129 7.68393 5.20435 8 6 8C7.06297 8.00385 8.09695 8.34697 8.95133 8.9794C9.80571 9.61182 10.4359 10.5005 10.75 11.516C7.59066 10.5408 4.3063 10.0301 1 10H0V11C0 22.311 4.386 24 7 24C8.11552 23.9402 9.1841 23.5316 10.055 22.832C10.6059 22.3669 11.2832 22.0772 12 22C12.7168 22.0772 13.3941 22.3669 13.945 22.832C14.8159 23.5316 15.8845 23.9402 17 24C19.614 24 24 22.311 24 11V10H23C19.6937 10.03 16.4093 10.5406 13.25 11.516V11.516ZM18 4C18.2652 4 18.5196 4.10536 18.7071 4.29289C18.8946 4.48043 19 4.73478 19 5C19 5.26522 18.8946 5.51957 18.7071 5.70711C18.5196 5.89464 18.2652 6 18 6C16.1665 5.99854 14.4061 6.7192 13.1 8.006C13.3307 6.87622 13.9442 5.86067 14.8369 5.13082C15.7297 4.40097 16.8469 4.00155 18 4V4ZM6 6C5.73478 6 5.48043 5.89464 5.29289 5.70711C5.10536 5.51957 5 5.26522 5 5C5 4.73478 5.10536 4.48043 5.29289 4.29289C5.48043 4.10536 5.73478 4 6 4C7.15304 4.00174 8.27018 4.40123 9.16287 5.13104C10.0556 5.86086 10.6691 6.87631 10.9 8.006C9.59351 6.71975 7.8334 5.99919 6 6V6ZM17 22C16.2832 21.9228 15.6059 21.6331 15.055 21.168C14.1841 20.4684 13.1155 20.0598 12 20C10.8845 20.0598 9.8159 20.4684 8.945 21.168C8.39413 21.6331 7.71679 21.9228 7 22C3.934 22 2.178 18.467 2.013 12.02C5.29644 12.1663 8.53868 12.8099 11.629 13.929L12 14.077L12.372 13.929C15.461 12.8064 18.7034 12.1627 21.987 12.02C21.822 18.466 20.066 22 17 22Z" fill="#374957"/>
<path d="M18.6859 15.3707C16.9108 15.655 15.1664 16.106 13.4759 16.7177L12.6759 17.0327C14.5339 17.2147 15.7509 18.7497 16.7289 18.9997C18.0089 19.3277 18.2929 17.7127 18.6859 15.3707Z" fill="#374957"/>
<path d="M5.31409 15.3707C5.70709 17.7127 5.99109 19.3277 7.27209 18.9997C8.25009 18.7497 9.47209 17.2147 11.3251 17.0327L10.5251 16.7177C8.83427 16.1059 7.08956 15.6549 5.31409 15.3707V15.3707Z" fill="#374957"/>
</g>
<defs>
<clipPath id="clip0_403_3422">
<rect width="24" height="24" fill="white"/>
</clipPath>
</defs>
</svg>
