<svg width="24" height="24" viewBox="0 0 24 24" fill="none" xmlns="http://www.w3.org/2000/svg">
<g clip-path="url(#clip0_403_3491)">
<path d="M22.293 2.293L19 5.586V19H16V3C16 2.20435 15.6839 1.44129 15.1213 0.87868C14.5587 0.31607 13.7956 0 13 0L3 0C2.20435 0 1.44129 0.31607 0.87868 0.87868C0.31607 1.44129 0 2.20435 0 3L0 24H16V21H21V6.414L23.707 3.707L22.293 2.293ZM3 2H13C13.2652 2 13.5196 2.10536 13.7071 2.29289C13.8946 2.48043 14 2.73478 14 3V9H12C11.9961 8.04289 11.6462 7.11946 11.015 6.4L12.707 4.707L11.293 3.293L9.339 5.247C8.7369 5.02379 8.08957 4.95028 7.45275 5.03279C6.81593 5.11529 6.2087 5.35135 5.68337 5.72063C5.15803 6.08991 4.73032 6.58135 4.43708 7.15262C4.14383 7.7239 3.99383 8.35789 4 9H2V3C2 2.73478 2.10536 2.48043 2.29289 2.29289C2.48043 2.10536 2.73478 2 3 2V2ZM10 9H6C6 8.46957 6.21071 7.96086 6.58579 7.58579C6.96086 7.21071 7.46957 7 8 7C8.53043 7 9.03914 7.21071 9.41421 7.58579C9.78929 7.96086 10 8.46957 10 9V9ZM2 22V11H14V22H2Z" fill="#374957"/>
</g>
<defs>
<clipPath id="clip0_403_3491">
<rect width="24" height="24" fill="white"/>
</clipPath>
</defs>
</svg>
