<svg width="24" height="24" viewBox="0 0 24 24" fill="none" xmlns="http://www.w3.org/2000/svg">
<g clip-path="url(#clip0_403_3302)">
<path d="M9 12C10.1867 12 11.3467 11.6481 12.3334 10.9888C13.3201 10.3295 14.0892 9.39246 14.5433 8.2961C14.9974 7.19975 15.1162 5.99335 14.8847 4.82946C14.6532 3.66558 14.0818 2.59648 13.2426 1.75736C12.4035 0.918247 11.3344 0.346802 10.1705 0.115291C9.00666 -0.11622 7.80026 0.00259972 6.7039 0.456726C5.60754 0.910851 4.67047 1.67989 4.01118 2.66658C3.35189 3.65328 3 4.81332 3 6C3.00159 7.59082 3.63424 9.11602 4.75911 10.2409C5.88399 11.3658 7.40919 11.9984 9 12ZM9 2C9.79113 2 10.5645 2.2346 11.2223 2.67412C11.8801 3.11365 12.3928 3.73837 12.6955 4.46927C12.9983 5.20017 13.0775 6.00444 12.9231 6.78036C12.7688 7.55629 12.3878 8.26902 11.8284 8.82843C11.269 9.38784 10.5563 9.7688 9.78036 9.92315C9.00444 10.0775 8.20017 9.99827 7.46927 9.69552C6.73836 9.39277 6.11365 8.88008 5.67412 8.22228C5.2346 7.56449 5 6.79113 5 6C5 4.93914 5.42143 3.92172 6.17157 3.17158C6.92172 2.42143 7.93913 2 9 2V2ZM18 19V24H16V19C16 18.2044 15.6839 17.4413 15.1213 16.8787C14.5587 16.3161 13.7956 16 13 16H5C4.20435 16 3.44129 16.3161 2.87868 16.8787C2.31607 17.4413 2 18.2044 2 19V24H0V19C0.00158786 17.6744 0.528882 16.4036 1.46622 15.4662C2.40356 14.5289 3.6744 14.0016 5 14H13C14.3256 14.0016 15.5964 14.5289 16.5338 15.4662C17.4711 16.4036 17.9984 17.6744 18 19ZM21.414 10L23.957 12.543L22.543 13.957L20 11.414L17.457 13.957L16.043 12.543L18.586 10L16.043 7.457L17.457 6.043L20 8.586L22.543 6.043L23.957 7.457L21.414 10Z" fill="#374957"/>
</g>
<defs>
<clipPath id="clip0_403_3302">
<rect width="24" height="24" fill="white"/>
</clipPath>
</defs>
</svg>
