<svg width="24" height="24" viewBox="0 0 24 24" fill="none" xmlns="http://www.w3.org/2000/svg">
<g clip-path="url(#clip0_403_3750)">
<path d="M17.5662 23.9993H13.0002V14.9993C13.0002 14.7341 12.8949 14.4798 12.7074 14.2922C12.5198 14.1047 12.2655 13.9993 12.0002 13.9993C11.735 13.9993 11.4807 14.1047 11.2931 14.2922C11.1056 14.4798 11.0002 14.7341 11.0002 14.9993V23.9993H6.43425L6.14325 23.5143C3.28325 18.7473 0.000246562 12.4493 0.000246562 5.99933C-0.0299311 5.2033 0.10462 4.40961 0.39547 3.66801C0.686319 2.9264 1.1272 2.25285 1.69048 1.68957C2.25376 1.12628 2.92731 0.685403 3.66892 0.394554C4.41053 0.103705 5.20422 -0.0308466 6.00025 -0.000668965C7.32926 -0.000157791 8.65009 0.207329 9.91525 0.614331C10.5868 0.847231 11.2898 0.977037 12.0002 0.999331C12.7107 0.977037 13.4137 0.847231 14.0852 0.614331C15.3504 0.207201 16.6712 -0.000288026 18.0002 -0.000668965C18.7963 -0.0308466 19.59 0.103705 20.3316 0.394554C21.0732 0.685403 21.7467 1.12628 22.31 1.68957C22.8733 2.25285 23.3142 2.9264 23.605 3.66801C23.8959 4.40961 24.0304 5.2033 24.0002 5.99933C24.0002 12.4493 20.7182 18.7473 17.8572 23.5143L17.5662 23.9993ZM15.0002 21.9993H16.4322C19.0862 17.5183 22.0002 11.7483 22.0002 5.99933C22.0214 5.46839 21.9324 4.93882 21.7388 4.44396C21.5453 3.9491 21.2514 3.49966 20.8757 3.12393C20.4999 2.7482 20.0505 2.45431 19.5556 2.26077C19.0608 2.06722 18.5312 1.97821 18.0002 1.99933C16.8596 1.99874 15.7261 2.17967 14.6422 2.53533C13.7899 2.82171 12.8992 2.97813 12.0002 2.99933C11.1013 2.97822 10.2106 2.8218 9.35825 2.53533C8.27441 2.17977 7.14092 1.99884 6.00025 1.99933C2.04525 1.99933 2.00025 5.83633 2.00025 5.99933C2.00025 11.7483 4.91425 17.5183 7.56825 21.9993H9.00025V14.9993C9.00025 14.2037 9.31632 13.4406 9.87893 12.878C10.4415 12.3154 11.2046 11.9993 12.0002 11.9993C12.7959 11.9993 13.559 12.3154 14.1216 12.878C14.6842 13.4406 15.0002 14.2037 15.0002 14.9993V21.9993Z" fill="#374957"/>
</g>
<defs>
<clipPath id="clip0_403_3750">
<rect width="24" height="24" fill="white"/>
</clipPath>
</defs>
</svg>
