<svg width="24" height="24" viewBox="0 0 24 24" fill="none" xmlns="http://www.w3.org/2000/svg">
<g clip-path="url(#clip0_403_3304)">
<path d="M9 11.9999C10.1867 11.9999 11.3467 11.648 12.3334 10.9888C13.3201 10.3295 14.0892 9.3924 14.5433 8.29604C14.9974 7.19969 15.1162 5.99329 14.8847 4.8294C14.6532 3.66551 14.0818 2.59642 13.2426 1.7573C12.4035 0.918186 11.3344 0.346741 10.1705 0.11523C9.00666 -0.116281 7.80026 0.00253868 6.7039 0.456664C5.60754 0.91079 4.67047 1.67983 4.01118 2.66652C3.35189 3.65322 3 4.81325 3 5.99994C3.00159 7.59075 3.63424 9.11595 4.75911 10.2408C5.88399 11.3657 7.40919 11.9984 9 11.9999ZM9 1.99994C9.79113 1.99994 10.5645 2.23454 11.2223 2.67406C11.8801 3.11359 12.3928 3.7383 12.6955 4.46921C12.9983 5.20011 13.0775 6.00438 12.9231 6.7803C12.7688 7.55623 12.3878 8.26896 11.8284 8.82837C11.269 9.38778 10.5563 9.76874 9.78036 9.92308C9.00444 10.0774 8.20017 9.99821 7.46927 9.69546C6.73836 9.39271 6.11365 8.88002 5.67412 8.22222C5.2346 7.56443 5 6.79107 5 5.99994C5 4.93908 5.42143 3.92166 6.17157 3.17151C6.92172 2.42137 7.93913 1.99994 9 1.99994V1.99994Z" fill="#374957"/>
<path d="M20.9999 9.99938V6.99939H18.9999V9.99938H15.9999V11.9994H18.9999V14.9994H20.9999V11.9994H23.9999V9.99938H20.9999Z" fill="#374957"/>
<path d="M13.043 14.0006H4.957C3.64281 14.0022 2.3829 14.525 1.45363 15.4542C0.524352 16.3835 0.00158783 17.6434 0 18.9576L0 24.0006H2V18.9576C2.00079 18.1736 2.31259 17.4219 2.86696 16.8676C3.42134 16.3132 4.173 16.0014 4.957 16.0006H13.043C13.827 16.0014 14.5787 16.3132 15.133 16.8676C15.6874 17.4219 15.9992 18.1736 16 18.9576V24.0006H18V18.9576C17.9984 17.6434 17.4756 16.3835 16.5464 15.4542C15.6171 14.525 14.3572 14.0022 13.043 14.0006V14.0006Z" fill="#374957"/>
</g>
<defs>
<clipPath id="clip0_403_3304">
<rect width="24" height="24" fill="white"/>
</clipPath>
</defs>
</svg>
