<svg width="24" height="24" viewBox="0 0 24 24" fill="none" xmlns="http://www.w3.org/2000/svg">
<g clip-path="url(#clip0_403_3307)">
<path d="M20.9002 7.00573H2.79321L7.10021 2.70073L5.68221 1.28873L0.73221 6.23773C0.263533 6.70655 0.000244141 7.34232 0.000244141 8.00523C0.000244141 8.66814 0.263533 9.30391 0.73221 9.77273L5.68221 14.7237L7.10021 13.3097L2.80021 9.00973H20.9002C21.1717 8.99151 21.4394 9.08102 21.6453 9.25885C21.8512 9.43668 21.9787 9.6885 22.0002 9.95973V21.0597C21.9785 21.3308 21.8508 21.5823 21.645 21.76C21.4391 21.9376 21.1715 22.027 20.9002 22.0087H2.00021V24.0087H20.9002C21.7024 24.0273 22.4793 23.7269 23.0604 23.1735C23.6415 22.6202 23.9795 21.8589 24.0002 21.0567V9.95573C23.979 9.15389 23.6408 8.39316 23.0597 7.84021C22.4787 7.28726 21.7021 6.98719 20.9002 7.00573V7.00573Z" fill="#374957"/>
</g>
<defs>
<clipPath id="clip0_403_3307">
<rect width="24" height="24" fill="white"/>
</clipPath>
</defs>
</svg>
