<svg width="32" height="32" viewBox="0 0 32 32" fill="none" xmlns="http://www.w3.org/2000/svg">
<g clip-path="url(#clip0_403_3735)" filter="url(#filter0_d_403_3735)">
<path d="M21.4998 10.9997C22.3282 10.9997 22.9998 10.3281 22.9998 9.49969C22.9998 8.67127 22.3282 7.99969 21.4998 7.99969C20.6714 7.99969 19.9998 8.67127 19.9998 9.49969C19.9998 10.3281 20.6714 10.9997 21.4998 10.9997Z" fill="#374957"/>
<path d="M16.4997 7.99969C17.3281 7.99969 17.9997 7.32812 17.9997 6.49969C17.9997 5.67127 17.3281 4.99969 16.4997 4.99969C15.6713 4.99969 14.9997 5.67127 14.9997 6.49969C14.9997 7.32812 15.6713 7.99969 16.4997 7.99969Z" fill="#374957"/>
<path d="M11.5 10.9997C12.3284 10.9997 13 10.3281 13 9.49969C13 8.67127 12.3284 7.99969 11.5 7.99969C10.6716 7.99969 10 8.67127 10 9.49969C10 10.3281 10.6716 10.9997 11.5 10.9997Z" fill="#374957"/>
<path d="M11.5 16.9997C12.3284 16.9997 13 16.3281 13 15.4997C13 14.6713 12.3284 13.9997 11.5 13.9997C10.6716 13.9997 10 14.6713 10 15.4997C10 16.3281 10.6716 16.9997 11.5 16.9997Z" fill="#374957"/>
<path d="M16.0828 23.9999C13.692 23.9997 11.3558 23.2854 9.3738 21.9485C7.39174 20.6117 5.85419 18.7133 4.95829 16.4967C4.06239 14.2802 3.84899 11.8466 4.34546 9.50796C4.84193 7.16933 6.02564 5.0323 7.74478 3.37091C8.89959 2.24563 10.2713 1.36709 11.7764 0.78877C13.2815 0.210447 14.8886 -0.0555689 16.4998 0.00691313C19.5445 0.149026 22.4248 1.4299 24.5696 3.59564C26.7144 5.76139 27.9672 8.65393 28.0798 11.6999C28.1205 13.2533 27.8572 14.7996 27.3048 16.2519C27.1923 16.5478 27.0073 16.8107 26.7667 17.0163C26.526 17.222 26.2376 17.3639 25.9278 17.4289C25.6129 17.4983 25.2856 17.4869 24.9763 17.3958C24.667 17.3047 24.3858 17.1369 24.1588 16.9079L24.0588 16.8079C23.5581 16.3072 22.9197 15.9669 22.2249 15.8303C21.5301 15.6937 20.8104 15.7669 20.1574 16.0407C19.5044 16.3145 18.9477 16.7765 18.5581 17.3677C18.1685 17.959 17.9637 18.6529 17.9698 19.3609L18.0098 23.8769L17.0858 23.9539C16.7528 23.9779 16.4208 23.9999 16.0828 23.9999ZM16.0828 1.99991C13.4306 1.98798 10.8823 3.0301 8.99853 4.89703C7.11473 6.76395 6.04972 9.30275 6.03778 11.9549C6.02585 14.6071 7.06797 17.1554 8.93489 19.0392C10.8018 20.923 13.3406 21.988 15.9928 21.9999L15.9688 19.3749C15.9643 18.6359 16.106 17.9033 16.386 17.2194C16.6659 16.5354 17.0784 15.9137 17.5998 15.3899V15.3899C18.6441 14.3469 20.0598 13.7611 21.5358 13.7611C23.0118 13.7611 24.4274 14.3469 25.4718 15.3899L25.4858 15.4039C25.9124 14.2339 26.1143 12.9938 26.0808 11.7489C25.9873 9.21146 24.944 6.8017 23.1576 4.99718C21.3713 3.19265 18.9722 2.12505 16.4358 2.00591C16.3168 1.99991 16.1998 1.99991 16.0818 1.99991H16.0828Z" fill="#374957"/>
</g>
<defs>
<filter id="filter0_d_403_3735" x="0" y="0" width="32" height="32" filterUnits="userSpaceOnUse" color-interpolation-filters="sRGB">
<feFlood flood-opacity="0" result="BackgroundImageFix"/>
<feColorMatrix in="SourceAlpha" type="matrix" values="0 0 0 0 0 0 0 0 0 0 0 0 0 0 0 0 0 0 127 0" result="hardAlpha"/>
<feOffset dy="4"/>
<feGaussianBlur stdDeviation="2"/>
<feComposite in2="hardAlpha" operator="out"/>
<feColorMatrix type="matrix" values="0 0 0 0 0 0 0 0 0 0 0 0 0 0 0 0 0 0 0.25 0"/>
<feBlend mode="normal" in2="BackgroundImageFix" result="effect1_dropShadow_403_3735"/>
<feBlend mode="normal" in="SourceGraphic" in2="effect1_dropShadow_403_3735" result="shape"/>
</filter>
<clipPath id="clip0_403_3735">
<rect width="24" height="24" fill="white" transform="translate(4)"/>
</clipPath>
</defs>
</svg>
