<svg width="24" height="24" viewBox="0 0 24 24" fill="none" xmlns="http://www.w3.org/2000/svg">
<g clip-path="url(#clip0_403_3696)">
<path d="M23.0001 13C22.9965 10.2573 21.9693 7.61476 20.1197 5.58962C18.2701 3.56448 15.7312 2.3026 13.0001 2.051V0H11.0001V2.051C8.95439 2.2338 7.001 2.98687 5.36198 4.2246C3.72296 5.46233 2.46407 7.13506 1.72841 9.05265C0.992746 10.9702 0.80983 13.0558 1.20045 15.0721C1.59108 17.0885 2.53957 18.9549 3.9381 20.459L2.0101 22.577L3.4901 23.923L5.4241 21.8C7.31834 23.2297 9.6269 24.0031 12.0001 24.0031C14.3733 24.0031 16.6819 23.2297 18.5761 21.8L20.5101 23.926L21.9901 22.58L20.0621 20.462C21.95 18.4358 22.9998 15.7694 23.0001 13V13ZM12.0001 22C10.2201 22 8.48001 21.4722 6.99997 20.4832C5.51993 19.4943 4.36637 18.0887 3.68519 16.4442C3.004 14.7996 2.82577 12.99 3.17303 11.2442C3.5203 9.49836 4.37747 7.89471 5.63614 6.63604C6.89481 5.37737 8.49846 4.5202 10.2443 4.17293C11.9901 3.82567 13.7997 4.0039 15.4443 4.68508C17.0888 5.36627 18.4944 6.51983 19.4833 7.99987C20.4723 9.47991 21.0001 11.22 21.0001 13C20.9972 15.3861 20.048 17.6735 18.3608 19.3607C16.6737 21.0479 14.3862 21.9971 12.0001 22V22Z" fill="#374957"/>
<path d="M5.52288 1.74503L4.45588 0.0560303C2.72983 1.06867 1.22119 2.41281 0.0168762 4.01103L1.67988 5.12003C2.72753 3.75425 4.03324 2.60754 5.52288 1.74503V1.74503Z" fill="#374957"/>
<path d="M22.3202 5.12003L23.9832 4.01103C22.7789 2.41281 21.2702 1.06867 19.5442 0.0560303L18.4772 1.74503C19.9668 2.60754 21.2725 3.75425 22.3202 5.12003V5.12003Z" fill="#374957"/>
<path d="M11.0002 7V12.414L14.2931 15.707L15.7071 14.293L13.0001 11.586V7H11.0002Z" fill="#374957"/>
</g>
<defs>
<clipPath id="clip0_403_3696">
<rect width="24" height="24" fill="white"/>
</clipPath>
</defs>
</svg>
