<svg width="24" height="24" viewBox="0 0 24 24" fill="none" xmlns="http://www.w3.org/2000/svg">
<g clip-path="url(#clip0_403_3316)">
<path d="M17.0002 18C17.0002 17.2044 16.6841 16.4413 16.1215 15.8787C15.5589 15.3161 14.7958 15 14.0002 15C13.2045 15 12.4415 15.3161 11.8789 15.8787C11.3163 16.4413 11.0002 17.2044 11.0002 18H13.0002C13.0002 17.7348 13.1055 17.4804 13.2931 17.2929C13.4806 17.1054 13.735 17 14.0002 17C14.2654 17 14.5198 17.1054 14.7073 17.2929C14.8948 17.4804 15.0002 17.7348 15.0002 18C15.0002 18.5 14.1502 19.138 13.4002 19.7C12.2752 20.544 11.0002 21.5 11.0002 23V24H17.0002V22H13.7102C13.9812 21.764 14.2992 21.526 14.6002 21.3C15.7252 20.456 17.0002 19.5 17.0002 18Z" fill="#374957"/>
<path d="M22 19H20V15H18V19C18 19.5304 18.2107 20.0391 18.5858 20.4142C18.9609 20.7893 19.4696 21 20 21H22V24H24V15H22V19Z" fill="#374957"/>
<path d="M12.9998 6H10.9998V11H6.99982V13H12.9998V6Z" fill="#374957"/>
<path d="M21.9998 1.99985V5.37385C20.9262 3.75006 19.4734 2.41198 17.7671 1.47512C16.0607 0.538258 14.1519 0.0307789 12.2056 -0.00350985C10.2592 -0.0377986 8.33375 0.402134 6.59542 1.27831C4.85709 2.15448 3.35812 3.44057 2.22793 5.02553C1.09773 6.6105 0.370273 8.44672 0.108346 10.3757C-0.15358 12.3046 0.0578998 14.2683 0.724529 16.0973C1.39116 17.9263 2.4929 19.5655 3.93465 20.8735C5.3764 22.1815 7.11482 23.1189 8.99985 23.6049V21.5389C7.44515 21.0553 6.03205 20.1994 4.88331 19.0456C3.73457 17.8917 2.88493 16.4749 2.40822 14.918C1.9315 13.3612 1.84213 11.7116 2.14786 10.1124C2.45359 8.51315 3.14518 7.01278 4.16255 5.7416C5.17991 4.47042 6.49228 3.46688 7.98563 2.81816C9.47897 2.16944 11.1081 1.89516 12.7316 2.01916C14.355 2.14317 15.9236 2.66169 17.3011 3.52969C18.6786 4.39769 19.8233 5.58891 20.6358 6.99985H16.9998V8.99985H21.9998C22.5303 8.99985 23.039 8.78914 23.4141 8.41407C23.7891 8.03899 23.9998 7.53029 23.9998 6.99985V1.99985H21.9998Z" fill="#374957"/>
</g>
<defs>
<clipPath id="clip0_403_3316">
<rect width="24" height="24" fill="white"/>
</clipPath>
</defs>
</svg>
