<svg width="32" height="30" viewBox="0 0 32 30" fill="none" xmlns="http://www.w3.org/2000/svg">
<g filter="url(#filter0_d_403_3471)">
<path d="M25.0004 12.4236V10.9996C25.0004 8.61269 24.0522 6.3235 22.3643 4.63567C20.6765 2.94785 18.3873 1.99963 16.0004 1.99963C13.6134 1.99963 11.3242 2.94785 9.63642 4.63567C7.94859 6.3235 7.00038 8.61269 7.00038 10.9996V12.4236C5.95154 12.8855 5.09318 13.6936 4.569 14.7127C4.04482 15.7318 3.88664 16.9001 4.12094 18.0219C4.35523 19.1437 4.96779 20.151 5.85605 20.8751C6.74431 21.5992 7.85436 21.9962 9.00038 21.9996H11.0004V11.9996H9.00038V10.9996C9.00038 9.14312 9.73788 7.36264 11.0506 6.04989C12.3634 4.73713 14.1439 3.99963 16.0004 3.99963C17.8569 3.99963 19.6374 4.73713 20.9501 6.04989C22.2629 7.36264 23.0004 9.14312 23.0004 10.9996V11.9996H21.0004V21.9996H23.0004C24.1464 21.9962 25.2564 21.5992 26.1447 20.8751C27.033 20.151 27.6455 19.1437 27.8798 18.0219C28.1141 16.9001 27.9559 15.7318 27.4318 14.7127C26.9076 13.6936 26.0492 12.8855 25.0004 12.4236V12.4236ZM9.00038 19.9996C8.20473 19.9996 7.44167 19.6836 6.87906 19.121C6.31645 18.5583 6.00038 17.7953 6.00038 16.9996C6.00038 16.204 6.31645 15.4409 6.87906 14.8783C7.44167 14.3157 8.20473 13.9996 9.00038 13.9996V19.9996ZM23.0004 19.9996V13.9996C23.796 13.9996 24.5591 14.3157 25.1217 14.8783C25.6843 15.4409 26.0004 16.204 26.0004 16.9996C26.0004 17.7953 25.6843 18.5583 25.1217 19.121C24.5591 19.6836 23.796 19.9996 23.0004 19.9996Z" fill="#374957"/>
</g>
<defs>
<filter id="filter0_d_403_3471" x="0" y="0" width="32" height="32" filterUnits="userSpaceOnUse" color-interpolation-filters="sRGB">
<feFlood flood-opacity="0" result="BackgroundImageFix"/>
<feColorMatrix in="SourceAlpha" type="matrix" values="0 0 0 0 0 0 0 0 0 0 0 0 0 0 0 0 0 0 127 0" result="hardAlpha"/>
<feOffset dy="4"/>
<feGaussianBlur stdDeviation="2"/>
<feComposite in2="hardAlpha" operator="out"/>
<feColorMatrix type="matrix" values="0 0 0 0 0 0 0 0 0 0 0 0 0 0 0 0 0 0 0.25 0"/>
<feBlend mode="normal" in2="BackgroundImageFix" result="effect1_dropShadow_403_3471"/>
<feBlend mode="normal" in="SourceGraphic" in2="effect1_dropShadow_403_3471" result="shape"/>
</filter>
</defs>
</svg>
