<svg width="24" height="24" viewBox="0 0 24 24" fill="none" xmlns="http://www.w3.org/2000/svg">
<g clip-path="url(#clip0_403_3497)">
<path d="M9.06816 16.3474L13.9682 21.2474L14.6752 20.5404C15.6525 19.5597 16.3577 18.3416 16.7216 17.0057C17.0854 15.6698 17.0952 14.2623 16.7502 12.9214L16.5042 11.9214L18.5902 9.83544L18.8072 10.0524C19.3124 10.5703 19.9837 10.8942 20.7036 10.9673C21.4234 11.0404 22.1461 10.8582 22.7452 10.4524C23.1003 10.1994 23.396 9.872 23.6116 9.49302C23.8273 9.11405 23.9578 8.69261 23.994 8.25807C24.0301 7.82353 23.9711 7.38632 23.8211 6.97691C23.671 6.56749 23.4336 6.1957 23.1252 5.88744L18.2002 0.954436C17.6949 0.436536 17.0236 0.11272 16.3038 0.0396015C15.5839 -0.0335172 14.8613 0.148714 14.2622 0.554436C13.907 0.807469 13.6113 1.13487 13.3957 1.51385C13.18 1.89282 13.0495 2.31426 13.0134 2.7488C12.9772 3.18334 13.0362 3.62055 13.1862 4.02996C13.3363 4.43938 13.5738 4.81117 13.8822 5.11944L14.1752 5.41244L12.0852 7.50044L11.1002 7.25844C9.75704 6.91065 8.34648 6.91883 7.00748 7.28216C5.66849 7.6455 4.44726 8.35144 3.46416 9.33044L2.75716 10.0374L7.65716 14.9324L0.293159 22.2934L1.70716 23.7074L9.06816 16.3474ZM10.6072 9.20044L12.7072 9.71444L17.0072 5.41444L15.2932 3.70744C15.1896 3.60414 15.11 3.47939 15.0599 3.34197C15.0098 3.20456 14.9905 3.05783 15.0033 2.91214C15.016 2.76644 15.0606 2.62532 15.1339 2.49872C15.2071 2.37212 15.3072 2.26313 15.4272 2.17944C15.6405 2.05026 15.8919 1.99862 16.139 2.03324C16.386 2.06785 16.6135 2.18659 16.7832 2.36944L21.7072 7.29344C21.8107 7.39673 21.8903 7.52149 21.9404 7.6589C21.9905 7.79631 22.0098 7.94304 21.9971 8.08873C21.9843 8.23443 21.9397 8.37555 21.8665 8.50215C21.7932 8.62875 21.6931 8.73774 21.5732 8.82144C21.3598 8.95061 21.1084 9.00225 20.8614 8.96764C20.6143 8.93302 20.3868 8.81428 20.2172 8.63144L18.5862 7.00044L14.2862 11.3004L14.8042 13.4114C15.0224 14.2517 15.0549 15.1295 14.8994 15.9837C14.744 16.8378 14.4044 17.6479 13.9042 18.3574L5.64616 10.1004C6.35784 9.5986 7.17044 9.25808 8.02728 9.10263C8.88412 8.94719 9.76455 8.98057 10.6072 9.20044Z" fill="#374957"/>
</g>
<defs>
<clipPath id="clip0_403_3497">
<rect width="24" height="24" fill="white"/>
</clipPath>
</defs>
</svg>
