<svg width="27" height="32" viewBox="0 0 27 32" fill="none" xmlns="http://www.w3.org/2000/svg">
<g clip-path="url(#clip0_403_3549)" filter="url(#filter0_d_403_3549)">
<path d="M8 12H13V14H8V12ZM18 8H8V10H18V8ZM18 4H8V6H18V4ZM21 19.444V24L19 22L17 24V19.444C16.2373 19.0058 15.641 18.3277 15.3038 17.5154C14.9666 16.703 14.9076 15.8019 15.1358 14.9525C15.364 14.103 15.8667 13.3529 16.5656 12.8189C17.2646 12.2849 18.1204 11.997 19 12C19.338 12.0042 19.6741 12.0519 20 12.142V3C20 2.73478 19.8946 2.48043 19.7071 2.29289C19.5196 2.10536 19.2652 2 19 2H7C6.73478 2 6.48043 2.10536 6.29289 2.29289C6.10536 2.48043 6 2.73478 6 3V20H15V22H4V3C4 2.20435 4.31607 1.44129 4.87868 0.87868C5.44129 0.31607 6.20435 0 7 0L19 0C19.7956 0 20.5587 0.31607 21.1213 0.87868C21.6839 1.44129 22 2.20435 22 3V13.382C22.3917 13.8219 22.6801 14.3438 22.844 14.9096C23.0079 15.4753 23.0433 16.0706 22.9474 16.6518C22.8515 17.2329 22.6269 17.7853 22.2899 18.2684C21.953 18.7516 21.5122 19.1532 21 19.444V19.444ZM21 16C21 15.6044 20.8827 15.2178 20.6629 14.8889C20.4432 14.56 20.1308 14.3036 19.7654 14.1522C19.3999 14.0009 18.9978 13.9613 18.6098 14.0384C18.2219 14.1156 17.8655 14.3061 17.5858 14.5858C17.3061 14.8655 17.1156 15.2219 17.0384 15.6098C16.9613 15.9978 17.0009 16.3999 17.1522 16.7654C17.3036 17.1308 17.56 17.4432 17.8889 17.6629C18.2178 17.8827 18.6044 18 19 18C19.5304 18 20.0391 17.7893 20.4142 17.4142C20.7893 17.0391 21 16.5304 21 16Z" fill="#374957"/>
</g>
<defs>
<filter id="filter0_d_403_3549" x="-3" y="0" width="32" height="32" filterUnits="userSpaceOnUse" color-interpolation-filters="sRGB">
<feFlood flood-opacity="0" result="BackgroundImageFix"/>
<feColorMatrix in="SourceAlpha" type="matrix" values="0 0 0 0 0 0 0 0 0 0 0 0 0 0 0 0 0 0 127 0" result="hardAlpha"/>
<feOffset dy="4"/>
<feGaussianBlur stdDeviation="2"/>
<feComposite in2="hardAlpha" operator="out"/>
<feColorMatrix type="matrix" values="0 0 0 0 0 0 0 0 0 0 0 0 0 0 0 0 0 0 0.25 0"/>
<feBlend mode="normal" in2="BackgroundImageFix" result="effect1_dropShadow_403_3549"/>
<feBlend mode="normal" in="SourceGraphic" in2="effect1_dropShadow_403_3549" result="shape"/>
</filter>
<clipPath id="clip0_403_3549">
<rect width="24" height="24" fill="white" transform="translate(1)"/>
</clipPath>
</defs>
</svg>
