<svg width="32" height="32" viewBox="0 0 32 32" fill="none" xmlns="http://www.w3.org/2000/svg">
<g clip-path="url(#clip0_403_3579)" filter="url(#filter0_d_403_3579)">
<path d="M25 0H7C6.20435 0 5.44129 0.31607 4.87868 0.87868C4.31607 1.44129 4 2.20435 4 3V24H28V3C28 2.20435 27.6839 1.44129 27.1213 0.87868C26.5587 0.31607 25.7956 0 25 0V0ZM7 2H25C25.2652 2 25.5196 2.10536 25.7071 2.29289C25.8946 2.48043 26 2.73478 26 3V20.586L15.121 9.707C14.5584 9.14459 13.7955 8.82864 13 8.82864C12.2045 8.82864 11.4416 9.14459 10.879 9.707L6 14.586V3C6 2.73478 6.10536 2.48043 6.29289 2.29289C6.48043 2.10536 6.73478 2 7 2V2ZM6 17.414L12.293 11.121C12.4805 10.9335 12.7348 10.8282 13 10.8282C13.2652 10.8282 13.5195 10.9335 13.707 11.121L24.586 22H6V17.414Z" fill="#374957"/>
<path d="M19.9998 9.99933C20.5932 9.99933 21.1732 9.82338 21.6666 9.49374C22.1599 9.16409 22.5444 8.69556 22.7715 8.14738C22.9985 7.5992 23.058 6.996 22.9422 6.41406C22.8264 5.83212 22.5407 5.29757 22.1212 4.87801C21.7016 4.45845 21.1671 4.17273 20.5851 4.05697C20.0032 3.94122 19.4 4.00063 18.8518 4.22769C18.3036 4.45475 17.8351 4.83927 17.5054 5.33262C17.1758 5.82597 16.9998 6.40599 16.9998 6.99933C16.9998 7.79498 17.3159 8.55804 17.8785 9.12065C18.4411 9.68326 19.2042 9.99933 19.9998 9.99933V9.99933ZM19.9998 5.99933C20.1976 5.99933 20.391 6.05798 20.5554 6.16786C20.7199 6.27774 20.848 6.43392 20.9237 6.61665C20.9994 6.79937 21.0192 7.00044 20.9806 7.19442C20.942 7.3884 20.8468 7.56658 20.707 7.70644C20.5671 7.84629 20.3889 7.94153 20.1949 7.98012C20.001 8.0187 19.7999 7.9989 19.6172 7.92321C19.4344 7.84752 19.2783 7.71935 19.1684 7.5549C19.0585 7.39045 18.9998 7.19711 18.9998 6.99933C18.9998 6.73411 19.1052 6.47976 19.2927 6.29222C19.4803 6.10469 19.7346 5.99933 19.9998 5.99933V5.99933Z" fill="#374957"/>
</g>
<defs>
<filter id="filter0_d_403_3579" x="0" y="0" width="32" height="32" filterUnits="userSpaceOnUse" color-interpolation-filters="sRGB">
<feFlood flood-opacity="0" result="BackgroundImageFix"/>
<feColorMatrix in="SourceAlpha" type="matrix" values="0 0 0 0 0 0 0 0 0 0 0 0 0 0 0 0 0 0 127 0" result="hardAlpha"/>
<feOffset dy="4"/>
<feGaussianBlur stdDeviation="2"/>
<feComposite in2="hardAlpha" operator="out"/>
<feColorMatrix type="matrix" values="0 0 0 0 0 0 0 0 0 0 0 0 0 0 0 0 0 0 0.25 0"/>
<feBlend mode="normal" in2="BackgroundImageFix" result="effect1_dropShadow_403_3579"/>
<feBlend mode="normal" in="SourceGraphic" in2="effect1_dropShadow_403_3579" result="shape"/>
</filter>
<clipPath id="clip0_403_3579">
<rect width="24" height="24" fill="white" transform="translate(4)"/>
</clipPath>
</defs>
</svg>
