<svg width="28" height="32" viewBox="0 0 28 32" fill="none" xmlns="http://www.w3.org/2000/svg">
<g clip-path="url(#clip0_403_3332)" filter="url(#filter0_d_403_3332)">
<path d="M3.99969 0V21C3.99969 21.7956 4.31577 22.5587 4.87837 23.1213C5.44098 23.6839 6.20405 24 6.99969 24H20.9997C21.7953 24 22.5584 23.6839 23.121 23.1213C23.6836 22.5587 23.9997 21.7956 23.9997 21V0H3.99969ZM21.9997 2V17H5.99969V2H21.9997ZM20.9997 22H6.99969C6.73448 22 6.48012 21.8946 6.29259 21.7071C6.10505 21.5196 5.99969 21.2652 5.99969 21V19H12.9997V21H14.9997V19H21.9997V21C21.9997 21.2652 21.8943 21.5196 21.7068 21.7071C21.5193 21.8946 21.2649 22 20.9997 22Z" fill="#374957"/>
</g>
<defs>
<filter id="filter0_d_403_3332" x="-2" y="0" width="32" height="32" filterUnits="userSpaceOnUse" color-interpolation-filters="sRGB">
<feFlood flood-opacity="0" result="BackgroundImageFix"/>
<feColorMatrix in="SourceAlpha" type="matrix" values="0 0 0 0 0 0 0 0 0 0 0 0 0 0 0 0 0 0 127 0" result="hardAlpha"/>
<feOffset dy="4"/>
<feGaussianBlur stdDeviation="2"/>
<feComposite in2="hardAlpha" operator="out"/>
<feColorMatrix type="matrix" values="0 0 0 0 0 0 0 0 0 0 0 0 0 0 0 0 0 0 0.25 0"/>
<feBlend mode="normal" in2="BackgroundImageFix" result="effect1_dropShadow_403_3332"/>
<feBlend mode="normal" in="SourceGraphic" in2="effect1_dropShadow_403_3332" result="shape"/>
</filter>
<clipPath id="clip0_403_3332">
<rect width="24" height="24" fill="white" transform="translate(2)"/>
</clipPath>
</defs>
</svg>
