<svg width="24" height="24" viewBox="0 0 24 24" fill="none" xmlns="http://www.w3.org/2000/svg">
<g clip-path="url(#clip0_403_3474)">
<path d="M23.6996 24.0001L13.4746 5.60014C14.0518 5.27423 14.5049 4.76633 14.7629 4.15576C15.021 3.54519 15.0696 2.86635 14.9011 2.22525C14.7326 1.58415 14.3565 1.01691 13.8316 0.612121C13.3067 0.207333 12.6625 -0.012207 11.9996 -0.012207C11.3368 -0.012207 10.6926 0.207333 10.1676 0.612121C9.64271 1.01691 9.26664 1.58415 9.09815 2.22525C8.92966 2.86635 8.97825 3.54519 9.23632 4.15576C9.49439 4.76633 9.94741 5.27423 10.5246 5.60014L0.299622 24.0001H23.6996ZM10.3996 22.0001H8.23462L14.2706 11.1471L15.4086 13.1941L10.3996 22.0001ZM16.5426 15.2401L17.6776 17.2841L14.9856 22.0001H12.6996L16.5426 15.2401ZM5.94562 22.0001H3.69962L11.9996 7.05914L13.1266 9.08814L5.94562 22.0001ZM17.2886 22.0001L18.8156 19.3271L20.2996 22.0001H17.2886Z" fill="#374957"/>
</g>
<defs>
<clipPath id="clip0_403_3474">
<rect width="24" height="24" fill="white"/>
</clipPath>
</defs>
</svg>
