<svg width="24" height="24" viewBox="0 0 24 24" fill="none" xmlns="http://www.w3.org/2000/svg">
<g clip-path="url(#clip0_403_3512)">
<path d="M21.85 2.97644L12.414 0.120448C11.6522 -0.100859 10.8337 -0.0114164 10.1377 0.369207C9.44168 0.749829 8.92474 1.39064 8.7 2.15145L8.141 3.99944H3C2.20435 3.99944 1.44129 4.31551 0.87868 4.87812C0.31607 5.44073 0 6.20379 0 6.99944L0 23.9994H16V21.9544L19.1 23.1064L23.88 6.69244C24.102 5.93049 24.013 5.11165 23.6325 4.41518C23.252 3.71871 22.6111 3.20138 21.85 2.97644V2.97644ZM14 21.9994H2V6.99944C2 6.73422 2.10536 6.47987 2.29289 6.29233C2.48043 6.1048 2.73478 5.99944 3 5.99944H13C13.2652 5.99944 13.5196 6.1048 13.7071 6.29233C13.8946 6.47987 14 6.73422 14 6.99944V21.9994ZM21.96 6.13344L17.78 20.4824L16 19.8194V6.99944C16 6.20379 15.6839 5.44073 15.1213 4.87812C14.5587 4.31551 13.7956 3.99944 13 3.99944H10.23L10.614 2.71944C10.65 2.59265 10.7109 2.47429 10.7932 2.37128C10.8754 2.26827 10.9773 2.18266 11.093 2.11945C11.2063 2.0561 11.331 2.01589 11.4599 2.00112C11.5888 1.98636 11.7194 1.99735 11.844 2.03345L21.279 4.88944C21.4056 4.92608 21.5237 4.98739 21.6265 5.06983C21.7294 5.15227 21.8149 5.25423 21.8782 5.36984C21.9415 5.48545 21.9813 5.61242 21.9953 5.74347C22.0094 5.87452 21.9974 6.00705 21.96 6.13344V6.13344ZM12 12.9994C12 15.3324 8 17.9994 8 17.9994C8 17.9994 4 15.3324 4 12.9994C4 12.469 4.21071 11.9603 4.58579 11.5852C4.96086 11.2101 5.46957 10.9994 6 10.9994C6.53043 10.9994 7.03914 11.2101 7.41421 11.5852C7.78929 11.9603 8 12.469 8 12.9994C8 12.469 8.21071 11.9603 8.58579 11.5852C8.96086 11.2101 9.46957 10.9994 10 10.9994C10.5304 10.9994 11.0391 11.2101 11.4142 11.5852C11.7893 11.9603 12 12.469 12 12.9994V12.9994Z" fill="#374957"/>
</g>
<defs>
<clipPath id="clip0_403_3512">
<rect width="24" height="24" fill="white"/>
</clipPath>
</defs>
</svg>
