<svg width="24" height="24" viewBox="0 0 24 24" fill="none" xmlns="http://www.w3.org/2000/svg">
<g clip-path="url(#clip0_403_3648)">
<path d="M14.5 13.0002C14.2033 13.0002 13.9133 12.9122 13.6666 12.7474C13.42 12.5826 13.2277 12.3483 13.1142 12.0742C13.0006 11.8001 12.9709 11.4985 13.0288 11.2075C13.0867 10.9166 13.2296 10.6493 13.4393 10.4395C13.6491 10.2297 13.9164 10.0869 14.2074 10.029C14.4983 9.97112 14.7999 10.0008 15.074 10.1144C15.3481 10.2279 15.5824 10.4201 15.7472 10.6668C15.912 10.9135 16 11.2035 16 11.5002C16 11.898 15.842 12.2795 15.5607 12.5608C15.2794 12.8421 14.8978 13.0002 14.5 13.0002ZM21.851 8.27418C21.4495 5.98993 20.2666 3.91624 18.5047 2.4081C16.7427 0.899953 14.5113 0.0511345 12.1925 0.00694369C9.87365 -0.0372471 7.61155 0.725938 5.79342 2.16586C3.97529 3.60577 2.71419 5.63288 2.226 7.90018L1.5 12.0002H3C4.79556 11.9891 6.56622 11.5792 8.184 10.8002C8.06556 11.0146 8.00233 11.2552 8 11.5002C7.99864 11.7914 8.0821 12.0768 8.2402 12.3214C8.3983 12.566 8.62419 12.7593 8.89031 12.8777C9.15642 12.9961 9.45125 13.0344 9.73879 12.988C10.0263 12.9417 10.2942 12.8126 10.5096 12.6166C10.725 12.4205 10.8787 12.166 10.9519 11.8841C11.025 11.6022 11.0146 11.3051 10.9217 11.029C10.8289 10.753 10.6577 10.5099 10.429 10.3295C10.2003 10.1491 9.92409 10.0392 9.634 10.0132C11.7676 8.682 13.5745 6.88808 14.921 4.76418C14.3321 4.43728 13.692 4.21276 13.028 4.10018C11.49 6.37918 8.217 9.56318 3.893 9.95918L4.188 8.29018C4.59636 6.43715 5.65007 4.7896 7.16098 3.64173C8.67188 2.49385 10.5416 1.92039 12.4363 2.02374C14.3309 2.12709 16.1272 2.90052 17.5043 4.20593C18.8814 5.51134 19.7496 7.26373 19.954 9.15018L20.032 9.89518L20.77 10.0282C21.1343 10.0994 21.4593 10.3033 21.6821 10.6003C21.9048 10.8972 22.0095 11.2663 21.9759 11.636C21.9423 12.0057 21.7728 12.3498 21.5002 12.6018C21.2276 12.8538 20.8712 12.9957 20.5 13.0002C20.414 13.0002 19.413 12.8252 19.413 12.8252L19.131 13.6252C18.215 16.2212 15.13 19.0002 12 19.0002C8.974 19.0002 5.977 16.3812 4.959 13.8472C4.31057 13.9456 3.65584 13.9967 3 14.0002H2.88C2.942 14.1812 2.986 14.3002 3 14.3392C3.95053 16.7393 5.72248 18.7239 8 19.9392V24.0002H10V20.7322C10.6525 20.9063 11.3246 20.9964 12 21.0002V21.0002C12.6752 20.9974 13.3472 20.9087 14 20.7362V24.0002H16V19.9542C18.0641 18.8445 19.7215 17.1066 20.732 14.9922C21.5178 14.9386 22.2626 14.6215 22.8458 14.0922C23.4291 13.5629 23.8168 12.8523 23.9462 12.0754C24.0756 11.2984 23.9392 10.5006 23.559 9.81078C23.1788 9.12099 22.577 8.57961 21.851 8.27418V8.27418Z" fill="#374957"/>
</g>
<defs>
<clipPath id="clip0_403_3648">
<rect width="24" height="24" fill="white"/>
</clipPath>
</defs>
</svg>
