<svg width="24" height="24" viewBox="0 0 24 24" fill="none" xmlns="http://www.w3.org/2000/svg">
<g clip-path="url(#clip0_403_3681)">
<path d="M20.0001 0H5.00012C4.20447 0 3.44141 0.31607 2.8788 0.87868C2.31619 1.44129 2.00012 2.20435 2.00012 3V21C2.00012 21.7956 2.31619 22.5587 2.8788 23.1213C3.44141 23.6839 4.20447 24 5.00012 24H22.0001V2C22.0001 1.46957 21.7894 0.960859 21.4143 0.585786C21.0393 0.210714 20.5306 0 20.0001 0V0ZM20.0001 18H8.00012V2H20.0001V18ZM5.00012 2H6.00012V18H5.01712C4.66985 18.003 4.32574 18.0663 4.00012 18.187V3C4.00012 2.73478 4.10548 2.48043 4.29302 2.29289C4.48055 2.10536 4.73491 2 5.00012 2ZM5.00012 22C4.73629 22 4.48314 21.8957 4.29583 21.7099C4.10852 21.5241 4.00223 21.2718 4.00012 21.008H4.01512C4.01407 20.876 4.03915 20.7451 4.08893 20.6229C4.13872 20.5006 4.21221 20.3894 4.30517 20.2957C4.39814 20.202 4.50873 20.1276 4.63058 20.0769C4.75243 20.0261 4.88312 20 5.01512 20H20.0001V22H5.00012Z" fill="#374957"/>
</g>
<defs>
<clipPath id="clip0_403_3681">
<rect width="24" height="24" fill="white"/>
</clipPath>
</defs>
</svg>
