<svg width="24" height="24" viewBox="0 0 24 24" fill="none" xmlns="http://www.w3.org/2000/svg">
<g clip-path="url(#clip0_403_3591)">
<path d="M22.3748 3.78502C20.9812 2.99326 19.4572 2.45715 17.8748 2.20202C17.7226 1.63517 17.4064 1.12589 16.9658 0.738016C16.6342 0.451535 16.2445 0.240055 15.8236 0.118035C15.4026 -0.00398503 14.9603 -0.0336678 14.5268 0.0310162C12.9351 0.268482 11.3859 0.733925 9.92683 1.41302C9.70754 1.283 9.47222 1.18215 9.22683 1.11302C8.81861 1.00177 8.3916 0.977403 7.97337 1.04148C7.55515 1.10556 7.15502 1.25666 6.79883 1.48502V1.48502C4.68807 2.88047 2.87926 4.68588 1.47983 6.79402C1.25124 7.1501 1.10001 7.55024 1.03592 7.9685C0.971839 8.38676 0.996338 8.81383 1.10783 9.22202C1.17707 9.46737 1.27792 9.70267 1.40783 9.92202C0.730351 11.3831 0.266278 12.9339 0.0298315 14.527C-0.0340666 14.9607 -0.0039115 15.4031 0.11825 15.8241C0.240411 16.2451 0.451719 16.6349 0.737832 16.967C1.1251 17.4089 1.6345 17.7262 2.20183 17.879C2.45684 19.4614 2.99296 20.9855 3.78483 22.379C4.11472 22.9716 4.62609 23.4427 5.24371 23.723C5.86133 24.0033 6.55261 24.078 7.21583 23.936C7.90188 23.8001 8.52603 23.4472 8.99603 22.9293C9.46604 22.4114 9.75697 21.756 9.82583 21.06C9.90625 20.0056 10.1603 18.9716 10.5778 18H11.7208C11.991 17.1438 12.3402 16.3146 12.7638 15.523L15.5228 12.764C16.3144 12.3404 17.1436 11.9912 17.9998 11.721V10.578C18.9702 10.1609 20.0027 9.90686 21.0558 9.82602C21.7518 9.75715 22.4072 9.46622 22.9251 8.99622C23.443 8.52621 23.796 7.90207 23.9318 7.21602C24.0749 6.55276 24.0008 5.86106 23.7204 5.24319C23.44 4.62531 22.9682 4.11406 22.3748 3.78502V3.78502ZM2.99983 11.267L10.8608 14.822C10.6511 15.2034 10.4638 15.5968 10.2998 16H2.99983C2.858 16.001 2.71767 15.971 2.58864 15.9121C2.45961 15.8532 2.34501 15.7668 2.25283 15.659C2.15446 15.5441 2.08201 15.4093 2.04042 15.2638C1.99883 15.1183 1.98908 14.9656 2.01183 14.816C2.19119 13.5963 2.52312 12.404 2.99983 11.267V11.267ZM7.83683 20.833C7.81276 21.1088 7.6995 21.3693 7.5142 21.575C7.3289 21.7807 7.08164 21.9204 6.80983 21.973C6.55972 22.0299 6.29783 22.003 6.06453 21.8964C5.83124 21.7898 5.63948 21.6094 5.51883 21.383C4.91813 20.3296 4.48781 19.1879 4.24383 18H8.45983C8.17683 18.874 7.83883 20.833 7.83883 20.833H7.83683ZM12.2158 13.24L3.55483 9.32302C3.42844 9.25948 3.31685 9.17002 3.22734 9.06048C3.13783 8.95093 3.07241 8.82376 3.03533 8.68724C2.99825 8.55072 2.99035 8.40793 3.01215 8.26815C3.03395 8.12838 3.08495 7.99476 3.16183 7.87602C4.40158 6.00509 6.00465 4.40237 7.87583 3.16302C7.99465 3.08428 8.12914 3.03224 8.27001 3.01049C8.41088 2.98874 8.5548 2.99779 8.69183 3.03702C8.82202 3.07067 8.94381 3.13098 9.04949 3.21412C9.15518 3.29725 9.24246 3.40142 9.30583 3.52002L13.2398 12.22L12.2158 13.24ZM15.9998 10.3C15.5966 10.464 15.2033 10.6513 14.8218 10.861L11.2668 3.00002C12.4033 2.52103 13.5958 2.18739 14.8158 2.00702C14.9651 1.9841 15.1176 1.99377 15.2627 2.03537C15.4079 2.07697 15.5424 2.14952 15.6568 2.24802C15.7655 2.34068 15.8525 2.45603 15.9118 2.58596C15.971 2.71588 16.0011 2.85722 15.9998 3.00002V10.3ZM21.9728 6.81002C21.9202 7.08182 21.7805 7.32908 21.5748 7.51438C21.3691 7.69969 21.1086 7.81294 20.8328 7.83702C20.8328 7.83702 18.8738 8.17702 17.9998 8.46002V4.24402C19.1878 4.48862 20.3296 4.91961 21.3828 5.52102C21.6088 5.64205 21.7889 5.83386 21.8955 6.06704C22.0021 6.30022 22.0292 6.56192 21.9728 6.81202V6.81002Z" fill="#374957"/>
</g>
<defs>
<clipPath id="clip0_403_3591">
<rect width="24" height="24" fill="white"/>
</clipPath>
</defs>
</svg>
