<svg width="28" height="32" viewBox="0 0 28 32" fill="none" xmlns="http://www.w3.org/2000/svg">
<g clip-path="url(#clip0_403_3350)" filter="url(#filter0_d_403_3350)">
<path d="M19.0001 7.964V4H17.0001V2H22.0001V0H14.0001C13.2044 0 12.4414 0.31607 11.8787 0.87868C11.3161 1.44129 11.0001 2.20435 11.0001 3V4H9.00007V7.964C7.49838 8.70167 6.23374 9.84579 5.34987 11.2663C4.466 12.6869 3.99835 14.3269 4.00007 16V24H24.0001V16C24.0018 14.3269 23.5341 12.6869 22.6503 11.2663C21.7664 9.84579 20.5017 8.70167 19.0001 7.964V7.964ZM13.0001 3C13.0001 2.73478 13.1054 2.48043 13.293 2.29289C13.4805 2.10536 13.7348 2 14.0001 2H15.0001V4H13.0001V3ZM11.0001 6H17.0001V8H11.0001V6ZM22.0001 22H6.00007V16C5.99707 14.7915 6.30837 13.6029 6.90339 12.551C7.49841 11.4991 8.35672 10.62 9.39407 10H18.6061C19.6434 10.62 20.5017 11.4991 21.0967 12.551C21.6918 13.6029 22.0031 14.7915 22.0001 16V22ZM8.00007 20H20.0001V14H8.00007V20ZM10.0001 16H18.0001V18H10.0001V16Z" fill="#374957"/>
</g>
<defs>
<filter id="filter0_d_403_3350" x="-2" y="0" width="32" height="32" filterUnits="userSpaceOnUse" color-interpolation-filters="sRGB">
<feFlood flood-opacity="0" result="BackgroundImageFix"/>
<feColorMatrix in="SourceAlpha" type="matrix" values="0 0 0 0 0 0 0 0 0 0 0 0 0 0 0 0 0 0 127 0" result="hardAlpha"/>
<feOffset dy="4"/>
<feGaussianBlur stdDeviation="2"/>
<feComposite in2="hardAlpha" operator="out"/>
<feColorMatrix type="matrix" values="0 0 0 0 0 0 0 0 0 0 0 0 0 0 0 0 0 0 0.25 0"/>
<feBlend mode="normal" in2="BackgroundImageFix" result="effect1_dropShadow_403_3350"/>
<feBlend mode="normal" in="SourceGraphic" in2="effect1_dropShadow_403_3350" result="shape"/>
</filter>
<clipPath id="clip0_403_3350">
<rect width="24" height="24" fill="white" transform="translate(2)"/>
</clipPath>
</defs>
</svg>
