<svg width="24" height="24" viewBox="0 0 24 24" fill="none" xmlns="http://www.w3.org/2000/svg">
<g clip-path="url(#clip0_403_3551)">
<path d="M12 10C11.4067 10 10.8266 9.82405 10.3333 9.49441C9.83994 9.16476 9.45542 8.69623 9.22836 8.14805C9.0013 7.59987 8.94189 6.99667 9.05764 6.41473C9.1734 5.83279 9.45912 5.29824 9.87868 4.87868C10.2982 4.45912 10.8328 4.1734 11.4147 4.05764C11.9967 3.94189 12.5999 4.0013 13.1481 4.22836C13.6962 4.45542 14.1648 4.83994 14.4944 5.33329C14.8241 5.82664 15 6.40666 15 7C15 7.79565 14.6839 8.55871 14.1213 9.12132C13.5587 9.68393 12.7956 10 12 10V10ZM17 14C17 13.2044 16.6839 12.4413 16.1213 11.8787C15.5587 11.3161 14.7956 11 14 11H10C9.20435 11 8.44129 11.3161 7.87868 11.8787C7.31607 12.4413 7 13.2044 7 14V16H9V14C9 13.7348 9.10536 13.4804 9.29289 13.2929C9.48043 13.1054 9.73478 13 10 13H14C14.2652 13 14.5196 13.1054 14.7071 13.2929C14.8946 13.4804 15 13.7348 15 14V16H17V14ZM12.009 23.665C11.5156 23.6653 11.0394 23.4841 10.671 23.156L6.923 20H0V3C0 2.20435 0.31607 1.44129 0.87868 0.87868C1.44129 0.31607 2.20435 0 3 0L21 0C21.7956 0 22.5587 0.31607 23.1213 0.87868C23.6839 1.44129 24 2.20435 24 3V20H17.147L13.3 23.18C12.9436 23.4943 12.4842 23.6669 12.009 23.665V23.665ZM2 18H7.654L11.979 21.645L16.429 18H22V3C22 2.73478 21.8946 2.48043 21.7071 2.29289C21.5196 2.10536 21.2652 2 21 2H3C2.73478 2 2.48043 2.10536 2.29289 2.29289C2.10536 2.48043 2 2.73478 2 3V18Z" fill="#374957"/>
</g>
<defs>
<clipPath id="clip0_403_3551">
<rect width="24" height="24" fill="white"/>
</clipPath>
</defs>
</svg>
