<svg width="32" height="31" viewBox="0 0 32 31" fill="none" xmlns="http://www.w3.org/2000/svg">
<g clip-path="url(#clip0_403_3405)" filter="url(#filter0_d_403_3405)">
<path d="M24.9999 1.00031H14.9999C14.2043 1.00031 13.4412 1.31638 12.8786 1.87898C12.316 2.44159 11.9999 3.20466 11.9999 4.00031V14.0263C11.1396 13.3645 10.0854 13.004 8.99994 13.0003C8.01104 13.0003 7.04434 13.2936 6.22209 13.843C5.39984 14.3924 4.75898 15.1733 4.38054 16.0869C4.00211 17.0005 3.90309 18.0059 4.09601 18.9758C4.28894 19.9457 4.76514 20.8366 5.46441 21.5358C6.16367 22.2351 7.05459 22.7113 8.02449 22.9042C8.9944 23.0972 9.99973 22.9981 10.9134 22.6197C11.827 22.2413 12.6079 21.6004 13.1573 20.7782C13.7067 19.9559 13.9999 18.9892 13.9999 18.0003V4.00031C13.9999 3.73509 14.1053 3.48073 14.2928 3.2932C14.4804 3.10566 14.7347 3.00031 14.9999 3.00031H24.9999C25.2652 3.00031 25.5195 3.10566 25.7071 3.2932C25.8946 3.48073 25.9999 3.73509 25.9999 4.00031V14.0263C25.1396 13.3645 24.0854 13.004 22.9999 13.0003C22.011 13.0003 21.0443 13.2936 20.2221 13.843C19.3998 14.3924 18.759 15.1733 18.3805 16.0869C18.0021 17.0005 17.9031 18.0059 18.096 18.9758C18.2889 19.9457 18.7651 20.8366 19.4644 21.5358C20.1637 22.2351 21.0546 22.7113 22.0245 22.9042C22.9944 23.0972 23.9997 22.9981 24.9134 22.6197C25.827 22.2413 26.6079 21.6004 27.1573 20.7782C27.7067 19.9559 27.9999 18.9892 27.9999 18.0003V4.00031C27.9999 3.20466 27.6839 2.44159 27.1213 1.87898C26.5587 1.31638 25.7956 1.00031 24.9999 1.00031V1.00031ZM8.99994 21.0003C8.4066 21.0003 7.82658 20.8244 7.33323 20.4947C6.83988 20.1651 6.45537 19.6965 6.2283 19.1484C6.00124 18.6002 5.94183 17.997 6.05759 17.415C6.17334 16.8331 6.45906 16.2985 6.87862 15.879C7.29818 15.4594 7.83273 15.1737 8.41467 15.0579C8.99661 14.9422 9.59981 15.0016 10.148 15.2287C10.6962 15.4557 11.1647 15.8402 11.4944 16.3336C11.824 16.8269 11.9999 17.407 11.9999 18.0003C11.9999 18.796 11.6839 19.559 11.1213 20.1216C10.5587 20.6842 9.79559 21.0003 8.99994 21.0003ZM22.9999 21.0003C22.4066 21.0003 21.8266 20.8244 21.3332 20.4947C20.8399 20.1651 20.4554 19.6965 20.2283 19.1484C20.0012 18.6002 19.9418 17.997 20.0576 17.415C20.1733 16.8331 20.4591 16.2985 20.8786 15.879C21.2982 15.4594 21.8327 15.1737 22.4147 15.0579C22.9966 14.9422 23.5998 15.0016 24.148 15.2287C24.6962 15.4557 25.1647 15.8402 25.4944 16.3336C25.824 16.8269 25.9999 17.407 25.9999 18.0003C25.9999 18.796 25.6839 19.559 25.1213 20.1216C24.5587 20.6842 23.7956 21.0003 22.9999 21.0003Z" fill="#374957"/>
</g>
<defs>
<filter id="filter0_d_403_3405" x="0" y="0" width="32" height="32" filterUnits="userSpaceOnUse" color-interpolation-filters="sRGB">
<feFlood flood-opacity="0" result="BackgroundImageFix"/>
<feColorMatrix in="SourceAlpha" type="matrix" values="0 0 0 0 0 0 0 0 0 0 0 0 0 0 0 0 0 0 127 0" result="hardAlpha"/>
<feOffset dy="4"/>
<feGaussianBlur stdDeviation="2"/>
<feComposite in2="hardAlpha" operator="out"/>
<feColorMatrix type="matrix" values="0 0 0 0 0 0 0 0 0 0 0 0 0 0 0 0 0 0 0.25 0"/>
<feBlend mode="normal" in2="BackgroundImageFix" result="effect1_dropShadow_403_3405"/>
<feBlend mode="normal" in="SourceGraphic" in2="effect1_dropShadow_403_3405" result="shape"/>
</filter>
<clipPath id="clip0_403_3405">
<rect width="24" height="24" fill="white" transform="translate(4)"/>
</clipPath>
</defs>
</svg>
