<svg width="24" height="24" viewBox="0 0 24 24" fill="none" xmlns="http://www.w3.org/2000/svg">
<g clip-path="url(#clip0_403_3703)">
<path d="M12.0001 0C10.1044 0.000203007 8.23583 0.449489 6.54732 1.31105C4.8588 2.17262 3.39842 3.42195 2.2858 4.9567C1.17318 6.49145 0.439978 8.26795 0.146264 10.1407C-0.14745 12.0134 0.00667709 13.9291 0.596019 15.7308C1.18536 17.5324 2.19315 19.1689 3.53683 20.506C4.88051 21.8431 6.52185 22.8429 8.32639 23.4234C10.1309 24.004 12.0473 24.1487 13.9186 23.8458C15.7899 23.543 17.5628 22.8011 19.0921 21.681L17.9081 20.069C16.0945 21.397 13.8865 22.0752 11.6402 21.9943C9.3939 21.9135 7.24036 21.0781 5.52704 19.6232C3.81373 18.1682 2.64057 16.1784 2.19684 13.9749C1.75312 11.7714 2.06472 9.48262 3.08135 7.47791C4.09799 5.47321 5.76038 3.86947 7.80029 2.92547C9.84021 1.98147 12.1387 1.75225 14.3248 2.2748C16.511 2.79736 18.4574 4.04121 19.8499 5.80566C21.2424 7.5701 21.9999 9.75225 22.0001 12V14C22.0001 14.5304 21.7893 15.0391 21.4143 15.4142C21.0392 15.7893 20.5305 16 20.0001 16C19.4696 16 18.9609 15.7893 18.5858 15.4142C18.2108 15.0391 18.0001 14.5304 18.0001 14V12C18.0049 10.5883 17.5136 9.21975 16.6119 8.13351C15.7102 7.04728 14.4555 6.31242 13.067 6.05735C11.6785 5.80228 10.2445 6.04321 9.01563 6.73805C7.78674 7.43288 6.84107 8.53743 6.34388 9.85871C5.84668 11.18 5.82956 12.6339 6.29552 13.9666C6.76147 15.2992 7.68087 16.4257 8.89306 17.1493C10.1053 17.8728 11.5332 18.1474 12.9273 17.9251C14.3214 17.7028 15.593 16.9977 16.5201 15.933C16.9465 16.7097 17.6195 17.3222 18.4329 17.6736C19.2462 18.0251 20.1535 18.0956 21.0114 17.8739C21.8693 17.6522 22.6288 17.151 23.17 16.4495C23.7113 15.7479 24.0033 14.886 24.0001 14V12C23.9966 8.81846 22.7312 5.76821 20.4815 3.51852C18.2319 1.26883 15.1816 0.00344108 12.0001 0V0ZM12.0001 16C11.2089 16 10.4356 15.7654 9.77778 15.3259C9.11998 14.8864 8.60729 14.2616 8.30454 13.5307C8.00179 12.7998 7.92258 11.9956 8.07692 11.2196C8.23126 10.4437 8.61222 9.73098 9.17163 9.17157C9.73104 8.61216 10.4438 8.2312 11.2197 8.07686C11.9956 7.92252 12.7999 8.00173 13.5308 8.30448C14.2617 8.60723 14.8864 9.11992 15.3259 9.77772C15.7655 10.4355 16.0001 11.2089 16.0001 12C16.0001 13.0609 15.5786 14.0783 14.8285 14.8284C14.0783 15.5786 13.0609 16 12.0001 16Z" fill="#374957"/>
</g>
<defs>
<clipPath id="clip0_403_3703">
<rect width="24" height="24" fill="white"/>
</clipPath>
</defs>
</svg>
