<svg width="24" height="24" viewBox="0 0 24 24" fill="none" xmlns="http://www.w3.org/2000/svg">
<g clip-path="url(#clip0_403_3764)">
<path d="M5.423 16.7C5.19021 17.0979 5.04593 17.5413 5 18C5 19.618 6.476 20.356 7.553 20.895C8.4 21.318 9 21.646 9 22C8.92369 22.3523 8.77261 22.6841 8.557 22.973L10.271 24C10.6862 23.4094 10.9377 22.7193 11 22C11 20.382 9.524 19.644 8.447 19.105C7.6 18.682 7 18.354 6.994 18.075C7.1471 17.6802 7.34293 17.3033 7.578 16.951C9.922 16.636 11.893 14.445 13.011 11.751C13.6428 13.4298 14.8676 14.8189 16.454 15.656C16.0545 16.4068 15.9209 17.2707 16.075 18.107C16.2815 18.6834 16.6074 19.2096 17.0313 19.6512C17.4552 20.0929 17.9676 20.4401 18.535 20.67C20.009 21.512 20.365 21.787 19.651 23.117L21.413 24.062C23.078 20.962 20.855 19.692 19.527 18.934C18.812 18.525 18.137 18.14 18.022 17.65C17.9819 17.0374 18.1704 16.4317 18.551 15.95C21.7 15.479 24 11.017 24 7.00003C24.0279 6.20458 23.8919 5.41188 23.6002 4.67129C23.3086 3.9307 22.8676 3.25806 22.3048 2.69524C21.742 2.13242 21.0693 1.69147 20.3287 1.39982C19.5882 1.10818 18.7955 0.972096 18 1.00003C17.033 0.973547 16.0745 1.18678 15.2099 1.62073C14.3453 2.05467 13.6016 2.69583 13.045 3.48703C12.2732 2.15546 11.0837 1.11566 9.6609 0.528793C8.2381 -0.0580785 6.66145 -0.159247 5.17532 0.240967C3.68918 0.641181 2.37656 1.52043 1.44089 2.74243C0.505216 3.96444 -0.00124407 5.46095 2.2949e-06 7.00003C2.2949e-06 10.985 2.273 15.519 5.423 16.7ZM18 3.00003C18.5332 2.96989 19.0667 3.0527 19.5657 3.24306C20.0646 3.43342 20.5178 3.72702 20.8954 4.10464C21.273 4.48226 21.5666 4.93539 21.757 5.43435C21.9473 5.93331 22.0301 6.46685 22 7.00003C22 10.4 19.944 14 18 14C16.056 14 14 10.4 14 7.00003C13.9699 6.46685 14.0527 5.93331 14.243 5.43435C14.4334 4.93539 14.727 4.48226 15.1046 4.10464C15.4822 3.72702 15.9354 3.43342 16.4343 3.24306C16.9333 3.0527 17.4668 2.96989 18 3.00003ZM7 2.00003C8.3256 2.00162 9.59644 2.52891 10.5338 3.46625C11.4711 4.40359 11.9984 5.67444 12 7.00003C12 10.526 9.646 15 7 15C4.354 15 2 10.526 2 7.00003C2.00159 5.67444 2.52888 4.40359 3.46622 3.46625C4.40356 2.52891 5.67441 2.00162 7 2.00003Z" fill="#374957"/>
<path d="M19.9771 8H17.9771C17.896 8.87587 17.6136 9.72117 17.1521 10.47L18.8521 11.53C19.5098 10.4629 19.896 9.25089 19.9771 8Z" fill="#374957"/>
<path d="M9.97685 8H7.97685C7.89571 8.87587 7.61337 9.72117 7.15186 10.47L8.85185 11.53C9.50953 10.4629 9.89579 9.25089 9.97685 8Z" fill="#374957"/>
</g>
<defs>
<clipPath id="clip0_403_3764">
<rect width="24" height="24" fill="white"/>
</clipPath>
</defs>
</svg>
