<svg width="24" height="24" viewBox="0 0 24 24" fill="none" xmlns="http://www.w3.org/2000/svg">
<g clip-path="url(#clip0_403_3656)">
<path d="M22 7C22.5304 7 23.0391 6.78929 23.4142 6.41421C23.7893 6.03914 24 5.53043 24 5V0H22V5H17.946C17.4663 3.81779 16.6447 2.80562 15.5864 2.09298C14.5282 1.38035 13.2813 0.999681 12.0055 0.999681C10.7297 0.999681 9.48284 1.38035 8.42457 2.09298C7.36631 2.80562 6.54474 3.81779 6.065 5H2V0H0V5C0 5.53043 0.210714 6.03914 0.585786 6.41421C0.960859 6.78929 1.46957 7 2 7H5.485L4.472 11H0V13H3.965L3.82 13.573L3.8 13.7C3.75541 14.0422 3.73203 14.3869 3.73 14.732C3.73101 15.4994 3.83974 16.2628 4.053 17H2C1.46957 17 0.960859 17.2107 0.585786 17.5858C0.210714 17.9609 0 18.4696 0 19L0 24H2V19H4.93C5.66311 20.2202 6.69952 21.2298 7.93842 21.9308C9.17732 22.6317 10.5765 23.0001 12 23.0001C13.4235 23.0001 14.8227 22.6317 16.0616 21.9308C17.3005 21.2298 18.3369 20.2202 19.07 19H22V24H24V19C24 18.4696 23.7893 17.9609 23.4142 17.5858C23.0391 17.2107 22.5304 17 22 17H19.947C20.1614 16.2613 20.2708 15.4962 20.272 14.727C20.2691 14.3835 20.2451 14.0405 20.2 13.7L20.025 13H24V11H19.522L18.513 7H22ZM12 21C10.337 20.9981 8.74257 20.3366 7.56672 19.1606C6.39086 17.9845 5.72959 16.39 5.728 14.727C5.72938 14.484 5.74507 14.2412 5.775 14L7.805 5.97C8.10966 5.1051 8.67418 4.3555 9.42129 3.82381C10.1684 3.29212 11.0616 3.00434 11.9786 2.99985C12.8955 2.99536 13.7915 3.27439 14.5438 3.79874C15.2961 4.32309 15.8679 5.06712 16.181 5.929L18.225 14C18.2549 14.2405 18.2705 14.4826 18.272 14.725C18.2709 16.3884 17.6099 17.9834 16.434 19.1599C15.2581 20.3363 13.6634 20.9981 12 21V21Z" fill="#374957"/>
</g>
<defs>
<clipPath id="clip0_403_3656">
<rect width="24" height="24" fill="white"/>
</clipPath>
</defs>
</svg>
