<svg width="24" height="24" viewBox="0 0 24 24" fill="none" xmlns="http://www.w3.org/2000/svg">
<g clip-path="url(#clip0_403_3330)">
<path d="M20.4852 3.5159C18.8073 1.83963 16.6702 0.698428 14.3439 0.236545C12.0176 -0.225338 9.60657 0.0128371 7.41561 0.920964C5.22464 1.82909 3.3521 3.3664 2.03467 5.33856C0.717252 7.31072 0.0140991 9.62919 0.0140991 12.0009C0.0140991 14.3726 0.717252 16.6911 2.03467 18.6632C3.3521 20.6354 5.22464 22.1727 7.41561 23.0808C9.60657 23.989 12.0176 24.2271 14.3439 23.7653C16.6702 23.3034 18.8073 22.1622 20.4852 20.4859C22.7323 18.2338 23.9942 15.1823 23.9942 12.0009C23.9942 8.8195 22.7323 5.768 20.4852 3.5159V3.5159ZM21.9342 10.9329C20.735 11.0784 19.5184 10.9491 18.3766 10.555C17.2347 10.1609 16.1975 9.51215 15.3434 8.65794C14.4893 7.80373 13.8407 6.76643 13.4467 5.62453C13.0527 4.48263 12.9236 3.26606 13.0692 2.0669C15.3389 2.30553 17.4579 3.31633 19.0715 4.93021C20.6852 6.54408 21.6958 8.66315 21.9342 10.9329V10.9329ZM2.06617 13.0689C3.26535 12.9234 4.4819 13.0527 5.62376 13.4468C6.76561 13.8409 7.80285 14.4897 8.65696 15.3439C9.51107 16.1981 10.1597 17.2354 10.5537 18.3773C10.9477 19.5192 11.0768 20.7357 10.9312 21.9349C8.66145 21.6963 6.5425 20.6855 4.9288 19.0716C3.31511 17.4577 2.30455 15.3387 2.06617 13.0689V13.0689ZM19.0712 19.0689C17.4283 20.7154 15.2603 21.7341 12.9442 21.9479C13.0877 20.4812 12.9043 19.0009 12.4071 17.6135C11.91 16.2262 11.1115 14.9663 10.0692 13.9245C9.02681 12.8827 7.76647 12.0849 6.37884 11.5885C4.99122 11.0922 3.51082 10.9096 2.04417 11.0539C2.26168 8.73819 3.28127 6.5712 4.92675 4.92736C6.57224 3.28352 8.74025 2.2661 11.0562 2.0509C10.9217 3.43746 11.0788 4.83681 11.5174 6.15902C11.956 7.48123 12.6664 8.69704 13.603 9.72831C14.5395 10.7596 15.6814 11.5835 16.9554 12.1471C18.2293 12.7107 19.6071 13.0015 21.0002 13.0009C21.3172 13.0009 21.6352 12.9849 21.9532 12.9549C21.736 15.2678 20.7164 17.4318 19.0712 19.0719V19.0689Z" fill="#374957"/>
</g>
<defs>
<clipPath id="clip0_403_3330">
<rect width="24" height="24" fill="white"/>
</clipPath>
</defs>
</svg>
