<svg width="31" height="32" viewBox="0 0 31 32" fill="none" xmlns="http://www.w3.org/2000/svg">
<g clip-path="url(#clip0_403_3389)" filter="url(#filter0_d_403_3389)">
<path d="M9.48582 22.1429L8.45682 20.4279C11.9998 18.2999 11.9998 13.7299 11.9998 10.9999C11.9998 10.2043 12.3159 9.44122 12.8785 8.87861C13.4411 8.316 14.2042 7.99993 14.9998 7.99993C15.7955 7.99993 16.5585 8.316 17.1211 8.87861C17.6837 9.44122 17.9998 10.2043 17.9998 10.9999H15.9998C15.9998 10.7347 15.8945 10.4804 15.7069 10.2928C15.5194 10.1053 15.265 9.99993 14.9998 9.99993C14.7346 9.99993 14.4802 10.1053 14.2927 10.2928C14.1052 10.4804 13.9998 10.7347 13.9998 10.9999C13.9998 13.9469 13.9998 19.4339 9.48582 22.1429ZM17.8958 14.0839L15.8998 13.9159C15.5838 17.6449 14.3748 20.5309 12.3078 22.4959L13.6848 23.9449C16.1228 21.6339 17.5378 18.3149 17.8998 14.0839H17.8958ZM20.6418 20.3389L18.7608 19.6609C18.3547 20.7976 17.8177 21.8833 17.1608 22.8959L18.8348 23.9899C19.5769 22.8473 20.1834 21.622 20.6418 20.3389V20.3389ZM21.9998 10.9999C21.9989 9.58323 21.5681 8.20016 20.7644 7.03349C19.9607 5.86682 18.8219 4.97147 17.4985 4.46577C16.1752 3.96007 14.7295 3.86781 13.3526 4.20119C11.9757 4.53457 10.7323 5.27789 9.78682 6.33293L11.2758 7.66693C11.9511 6.91321 12.8392 6.38213 13.8227 6.1439C14.8063 5.90566 15.8389 5.97147 16.7843 6.33263C17.7296 6.6938 18.5431 7.33331 19.1172 8.16666C19.6914 9.00001 19.9991 9.98795 19.9998 10.9999C20.0367 12.9467 19.882 14.8924 19.5378 16.8089L21.5008 17.1909C21.871 15.1488 22.0381 13.075 21.9998 10.9999V10.9999ZM9.99982 10.9999C9.99953 10.7208 10.0226 10.4422 10.0688 10.1669L8.09982 9.83293C8.0338 10.2184 8.00035 10.6088 7.99982 10.9999C7.99982 15.6449 6.65382 17.9999 3.99982 17.9999V19.9999C7.86882 19.9999 9.99982 16.7999 9.99982 10.9999ZM25.9998 10.9999C26.0044 9.33885 25.6281 7.69883 24.8998 6.20593L23.0998 7.08093C23.6949 8.3015 24.0027 9.64204 23.9998 10.9999C24.1367 15.0932 23.3599 19.1655 21.7258 22.9209L23.5258 23.7819C25.2949 19.7595 26.1403 15.3919 25.9998 10.9999V10.9999ZM5.99982 10.9999C6.00246 8.61379 6.95153 6.32615 8.63878 4.63889C10.326 2.95164 12.6137 2.00258 14.9998 1.99993C16.9482 1.99344 18.845 2.62571 20.3998 3.79993L21.5998 2.19993C19.6992 0.765351 17.3811 -0.00735687 14.9998 -7.10158e-05C12.0835 0.00336946 9.2876 1.1634 7.22544 3.22555C5.16329 5.28771 4.00326 8.0836 3.99982 10.9999V13.9999H5.99982V10.9999Z" fill="#374957"/>
</g>
<defs>
<filter id="filter0_d_403_3389" x="-1" y="0" width="32" height="32" filterUnits="userSpaceOnUse" color-interpolation-filters="sRGB">
<feFlood flood-opacity="0" result="BackgroundImageFix"/>
<feColorMatrix in="SourceAlpha" type="matrix" values="0 0 0 0 0 0 0 0 0 0 0 0 0 0 0 0 0 0 127 0" result="hardAlpha"/>
<feOffset dy="4"/>
<feGaussianBlur stdDeviation="2"/>
<feComposite in2="hardAlpha" operator="out"/>
<feColorMatrix type="matrix" values="0 0 0 0 0 0 0 0 0 0 0 0 0 0 0 0 0 0 0.25 0"/>
<feBlend mode="normal" in2="BackgroundImageFix" result="effect1_dropShadow_403_3389"/>
<feBlend mode="normal" in="SourceGraphic" in2="effect1_dropShadow_403_3389" result="shape"/>
</filter>
<clipPath id="clip0_403_3389">
<rect width="24" height="24" fill="white" transform="translate(3)"/>
</clipPath>
</defs>
</svg>
