<svg width="24" height="24" viewBox="0 0 24 24" fill="none" xmlns="http://www.w3.org/2000/svg">
<g clip-path="url(#clip0_403_3733)">
<path d="M14.0811 5.586L0.900131 18.769C0.35855 19.3497 0.0635724 20.118 0.0773672 20.912C0.091162 21.7059 0.412651 22.4635 0.97408 23.0251C1.53551 23.5866 2.29302 23.9083 3.08697 23.9223C3.88092 23.9362 4.64928 23.6415 5.23013 23.1L18.4141 9.919L14.0811 5.586ZM15.5861 9.919L13.0001 12.505L11.5001 11L14.0861 8.414L15.5861 9.919ZM3.81613 21.688C3.61398 21.8807 3.34541 21.9882 3.06613 21.9882C2.78685 21.9882 2.51828 21.8807 2.31613 21.688C2.11755 21.4889 2.00602 21.2192 2.00602 20.938C2.00602 20.6568 2.11755 20.3871 2.31613 20.188L10.0851 12.418L11.5901 13.923L3.81613 21.688ZM21.3331 14.628L24.0001 15.962L21.3331 17.3L20.0001 19.962L18.6671 17.3L16.0001 15.962L18.6671 14.628L20.0001 11.962L21.3331 14.628ZM6.66713 5.333L4.00013 4L6.66713 2.667L8.00013 0L9.33313 2.667L12.0001 4L9.33313 5.333L8.00013 8L6.66713 5.333ZM19.3331 4.667L17.0001 3.5L19.3331 2.333L20.5001 0L21.6671 2.333L24.0001 3.5L21.6671 4.667L20.5001 7L19.3331 4.667Z" fill="#374957"/>
</g>
<defs>
<clipPath id="clip0_403_3733">
<rect width="24" height="24" fill="white"/>
</clipPath>
</defs>
</svg>
