<svg width="32" height="31" viewBox="0 0 32 31" fill="none" xmlns="http://www.w3.org/2000/svg">
<g filter="url(#filter0_d_403_3613)">
<path d="M19.9995 23.0001H9.49953C8.27552 23.0016 7.0861 22.5941 6.12024 21.8422C5.15438 21.0903 4.46749 20.0372 4.16871 18.8502C3.86992 17.6632 3.97637 16.4104 4.47115 15.2909C4.96593 14.1713 5.82066 13.2492 6.89953 12.6711C6.30748 11.5381 5.99867 10.2785 5.99953 9.00008C6.00547 7.03838 6.73199 5.14724 8.04099 3.68613C9.34999 2.22502 11.1502 1.2958 13.0995 1.0751C15.0487 0.854401 17.0111 1.35761 18.6137 2.48907C20.2162 3.62053 21.3472 5.30137 21.7915 7.21208C23.6987 7.66002 25.3753 8.79221 26.5033 10.394C27.6313 11.9958 28.1323 13.9558 27.9114 15.9024C27.6904 17.849 26.7629 19.6469 25.3046 20.9551C23.8463 22.2633 21.9586 22.991 19.9995 23.0001ZM13.9995 3.00008C12.4087 3.00167 10.8835 3.63432 9.75865 4.7592C8.63377 5.88407 8.00112 7.40927 7.99953 9.00008C7.99795 10.284 8.41268 11.5338 9.18153 12.5621L10.0635 13.7551L8.62753 14.1261C7.80229 14.3363 7.08233 14.8408 6.60317 15.5448C6.124 16.2488 5.91868 17.1036 6.02585 17.9484C6.13302 18.7932 6.54528 19.5697 7.18505 20.1318C7.82482 20.6938 8.64796 21.0026 9.49953 21.0001H19.9995C21.5112 20.9854 22.9617 20.4006 24.0608 19.3626C25.1599 18.3246 25.8267 16.9099 25.9277 15.4015C26.0288 13.8932 25.5568 12.4022 24.606 11.2268C23.6552 10.0515 22.2958 9.27836 20.7995 9.06209L20.0425 8.96208L19.9425 8.20408C19.7478 6.76505 19.0386 5.4452 17.9461 4.48855C16.8536 3.5319 15.4517 3.00316 13.9995 3.00008V3.00008Z" fill="#374957"/>
</g>
<defs>
<filter id="filter0_d_403_3613" x="0" y="0" width="32" height="32" filterUnits="userSpaceOnUse" color-interpolation-filters="sRGB">
<feFlood flood-opacity="0" result="BackgroundImageFix"/>
<feColorMatrix in="SourceAlpha" type="matrix" values="0 0 0 0 0 0 0 0 0 0 0 0 0 0 0 0 0 0 127 0" result="hardAlpha"/>
<feOffset dy="4"/>
<feGaussianBlur stdDeviation="2"/>
<feComposite in2="hardAlpha" operator="out"/>
<feColorMatrix type="matrix" values="0 0 0 0 0 0 0 0 0 0 0 0 0 0 0 0 0 0 0.25 0"/>
<feBlend mode="normal" in2="BackgroundImageFix" result="effect1_dropShadow_403_3613"/>
<feBlend mode="normal" in="SourceGraphic" in2="effect1_dropShadow_403_3613" result="shape"/>
</filter>
</defs>
</svg>
