<svg width="32" height="32" viewBox="0 0 32 32" fill="none" xmlns="http://www.w3.org/2000/svg">
<g clip-path="url(#clip0_403_3455)" filter="url(#filter0_d_403_3455)">
<path d="M16 24C13.6266 24 11.3066 23.2962 9.33316 21.9776C7.35977 20.6591 5.8217 18.7849 4.91345 16.5922C4.0052 14.3995 3.76756 11.9867 4.23058 9.65892C4.6936 7.33115 5.83649 5.19295 7.51472 3.51472C9.19295 1.83649 11.3312 0.693605 13.6589 0.230582C15.9867 -0.232441 18.3995 0.00519943 20.5922 0.913451C22.7849 1.8217 24.6591 3.35977 25.9776 5.33316C27.2962 7.30655 28 9.62663 28 12C27.9966 15.1815 26.7312 18.2318 24.4815 20.4815C22.2318 22.7312 19.1815 23.9966 16 24V24ZM16 2.00001C14.0222 2.00001 12.0888 2.5865 10.4443 3.68531C8.79981 4.78412 7.51809 6.34591 6.76121 8.17317C6.00433 10.0004 5.8063 12.0111 6.19215 13.9509C6.578 15.8907 7.53041 17.6725 8.92894 19.0711C10.3275 20.4696 12.1093 21.422 14.0491 21.8079C15.9889 22.1937 17.9996 21.9957 19.8268 21.2388C21.6541 20.4819 23.2159 19.2002 24.3147 17.5557C25.4135 15.9112 26 13.9778 26 12C25.9971 9.34873 24.9426 6.80689 23.0679 4.93215C21.1931 3.05742 18.6513 2.00292 16 2.00001V2.00001Z" fill="#374957"/>
<path d="M17.9998 19.0002H15.9998V12.0002H13.9998V10.0002H15.9998C16.5303 10.0002 17.039 10.211 17.4141 10.586C17.7891 10.9611 17.9998 11.4698 17.9998 12.0002V19.0002Z" fill="#374957"/>
<path d="M16 7.99963C16.8284 7.99963 17.5 7.32806 17.5 6.49963C17.5 5.67121 16.8284 4.99963 16 4.99963C15.1716 4.99963 14.5 5.67121 14.5 6.49963C14.5 7.32806 15.1716 7.99963 16 7.99963Z" fill="#374957"/>
</g>
<defs>
<filter id="filter0_d_403_3455" x="0" y="0" width="32" height="32" filterUnits="userSpaceOnUse" color-interpolation-filters="sRGB">
<feFlood flood-opacity="0" result="BackgroundImageFix"/>
<feColorMatrix in="SourceAlpha" type="matrix" values="0 0 0 0 0 0 0 0 0 0 0 0 0 0 0 0 0 0 127 0" result="hardAlpha"/>
<feOffset dy="4"/>
<feGaussianBlur stdDeviation="2"/>
<feComposite in2="hardAlpha" operator="out"/>
<feColorMatrix type="matrix" values="0 0 0 0 0 0 0 0 0 0 0 0 0 0 0 0 0 0 0.25 0"/>
<feBlend mode="normal" in2="BackgroundImageFix" result="effect1_dropShadow_403_3455"/>
<feBlend mode="normal" in="SourceGraphic" in2="effect1_dropShadow_403_3455" result="shape"/>
</filter>
<clipPath id="clip0_403_3455">
<rect width="24" height="24" fill="white" transform="translate(4)"/>
</clipPath>
</defs>
</svg>
