<svg width="32" height="32" viewBox="0 0 32 32" fill="none" xmlns="http://www.w3.org/2000/svg">
<g clip-path="url(#clip0_403_3777)" filter="url(#filter0_d_403_3777)">
<path d="M26.407 16.4619C24.187 14.2409 20.359 13.0129 16 12.9999C11.635 13.0209 7.746 14.3139 5.6 16.4619C5.09562 16.9558 4.69444 17.545 4.41976 18.1953C4.14509 18.8456 4.0024 19.544 4 20.2499L4 23.9999H12V19.7439C13.2563 19.2553 14.592 19.0031 15.94 18.9999H16C17.3673 19.0149 18.7213 19.2705 20 19.7549V23.9999H28V20.2509C27.9986 19.5453 27.857 18.847 27.5836 18.1966C27.3101 17.5462 26.9102 16.9565 26.407 16.4619ZM26 21.9999H22V18.4169L21.393 18.1569C19.6925 17.4146 17.8603 17.0212 16.005 16.9999C14.1383 16.997 12.2926 17.3939 10.592 18.1639L10 18.4289V21.9999H6V20.2489C6.00222 19.8064 6.09239 19.3687 6.26526 18.9613C6.43814 18.5539 6.69027 18.185 7.007 17.8759C8.765 16.1189 12.212 15.0179 16.007 14.9999C19.802 14.9819 23.177 16.0569 24.995 17.8759C25.3115 18.1853 25.5633 18.5545 25.7359 18.962C25.9084 19.3696 25.9982 19.8073 26 20.2499V21.9999ZM9 7.99991H7V3.47091C7.0045 2.81192 7.27025 2.18163 7.73895 1.71836C8.20765 1.2551 8.841 0.996713 9.5 0.999907H14V2.99991H10.439L16.345 8.92591C16.3656 8.94661 16.39 8.96302 16.417 8.97418C16.4439 8.98534 16.4728 8.99102 16.502 8.99091V8.99091C16.5309 8.99113 16.5597 8.98559 16.5864 8.9746C16.6132 8.96361 16.6375 8.9474 16.658 8.92691L23.542 2.04291L24.956 3.45691L18.072 10.3409C17.8665 10.5479 17.6218 10.712 17.3523 10.8236C17.0828 10.9352 16.7937 10.9921 16.502 10.9909V10.9909C16.2098 10.9916 15.9203 10.9342 15.6505 10.8221C15.3806 10.71 15.1357 10.5454 14.93 10.3379L9 4.38891V7.99991Z" fill="#374957"/>
</g>
<defs>
<filter id="filter0_d_403_3777" x="0" y="0" width="32" height="32" filterUnits="userSpaceOnUse" color-interpolation-filters="sRGB">
<feFlood flood-opacity="0" result="BackgroundImageFix"/>
<feColorMatrix in="SourceAlpha" type="matrix" values="0 0 0 0 0 0 0 0 0 0 0 0 0 0 0 0 0 0 127 0" result="hardAlpha"/>
<feOffset dy="4"/>
<feGaussianBlur stdDeviation="2"/>
<feComposite in2="hardAlpha" operator="out"/>
<feColorMatrix type="matrix" values="0 0 0 0 0 0 0 0 0 0 0 0 0 0 0 0 0 0 0.25 0"/>
<feBlend mode="normal" in2="BackgroundImageFix" result="effect1_dropShadow_403_3777"/>
<feBlend mode="normal" in="SourceGraphic" in2="effect1_dropShadow_403_3777" result="shape"/>
</filter>
<clipPath id="clip0_403_3777">
<rect width="24" height="24" fill="white" transform="translate(4)"/>
</clipPath>
</defs>
</svg>
