<svg width="32" height="32" viewBox="0 0 32 32" fill="none" xmlns="http://www.w3.org/2000/svg">
<g clip-path="url(#clip0_403_3634)" filter="url(#filter0_d_403_3634)">
<path d="M24.9998 16.1268V14.9998C24.9998 14.2042 24.6837 13.4411 24.1211 12.8785C23.5585 12.3159 22.7954 11.9998 21.9998 11.9998H16.9998V9.89983C18.2138 9.65202 19.2926 8.96225 20.027 7.96424C20.7613 6.96624 21.099 5.73111 20.9744 4.49831C20.8499 3.26551 20.2721 2.12286 19.3529 1.2919C18.4338 0.460934 17.2388 0.000854492 15.9998 0.000854492C14.7607 0.000854492 13.5657 0.460934 12.6466 1.2919C11.7275 2.12286 11.1496 3.26551 11.0251 4.49831C10.9005 5.73111 11.2382 6.96624 11.9726 7.96424C12.7069 8.96225 13.7857 9.65202 14.9998 9.89983V11.9998H9.99977C9.20412 11.9998 8.44105 12.3159 7.87845 12.8785C7.31584 13.4411 6.99977 14.2042 6.99977 14.9998V16.1268C6.05711 16.3702 5.23558 16.9491 4.68916 17.7548C4.14275 18.5606 3.90897 19.538 4.03165 20.5038C4.15432 21.4696 4.62503 22.3576 5.35553 23.0012C6.08604 23.6447 7.02619 23.9998 7.99977 23.9998C8.97334 23.9998 9.91349 23.6447 10.644 23.0012C11.3745 22.3576 11.8452 21.4696 11.9679 20.5038C12.0906 19.538 11.8568 18.5606 11.3104 17.7548C10.764 16.9491 9.94242 16.3702 8.99977 16.1268V14.9998C8.99977 14.7346 9.10512 14.4803 9.29266 14.2927C9.4802 14.1052 9.73455 13.9998 9.99977 13.9998H14.9998V16.1268C14.0571 16.3702 13.2356 16.9491 12.6892 17.7548C12.1428 18.5606 11.909 19.538 12.0316 20.5038C12.1543 21.4696 12.625 22.3576 13.3555 23.0012C14.086 23.6447 15.0262 23.9998 15.9998 23.9998C16.9733 23.9998 17.9135 23.6447 18.644 23.0012C19.3745 22.3576 19.8452 21.4696 19.9679 20.5038C20.0906 19.538 19.8568 18.5606 19.3104 17.7548C18.764 16.9491 17.9424 16.3702 16.9998 16.1268V13.9998H21.9998C22.265 13.9998 22.5193 14.1052 22.7069 14.2927C22.8944 14.4803 22.9998 14.7346 22.9998 14.9998V16.1268C22.0571 16.3702 21.2356 16.9491 20.6892 17.7548C20.1428 18.5606 19.909 19.538 20.0316 20.5038C20.1543 21.4696 20.625 22.3576 21.3555 23.0012C22.086 23.6447 23.0262 23.9998 23.9998 23.9998C24.9733 23.9998 25.9135 23.6447 26.644 23.0012C27.3745 22.3576 27.8452 21.4696 27.9679 20.5038C28.0906 19.538 27.8568 18.5606 27.3104 17.7548C26.764 16.9491 25.9424 16.3702 24.9998 16.1268V16.1268ZM12.9998 4.99983C12.9998 4.40649 13.1757 3.82647 13.5054 3.33312C13.835 2.83978 14.3035 2.45526 14.8517 2.2282C15.3999 2.00113 16.0031 1.94172 16.585 2.05748C17.167 2.17323 17.7015 2.45896 18.1211 2.87851C18.5406 3.29807 18.8264 3.83262 18.9421 4.41456C19.0579 4.99651 18.9985 5.59971 18.7714 6.14788C18.5443 6.69606 18.1598 7.1646 17.6665 7.49424C17.1731 7.82389 16.5931 7.99983 15.9998 7.99983C15.2041 7.99983 14.4411 7.68376 13.8784 7.12115C13.3158 6.55855 12.9998 5.79548 12.9998 4.99983V4.99983ZM9.99977 19.9998C9.99977 20.3954 9.88247 20.7821 9.6627 21.111C9.44294 21.4399 9.13058 21.6962 8.76513 21.8476C8.39968 21.999 7.99755 22.0386 7.60959 21.9614C7.22162 21.8842 6.86526 21.6938 6.58555 21.414C6.30585 21.1343 6.11537 20.778 6.0382 20.39C5.96102 20.0021 6.00063 19.5999 6.15201 19.2345C6.30338 18.869 6.55973 18.5567 6.88863 18.3369C7.21752 18.1171 7.6042 17.9998 7.99977 17.9998C8.5302 17.9998 9.03891 18.2105 9.41398 18.5856C9.78905 18.9607 9.99977 19.4694 9.99977 19.9998ZM17.9998 19.9998C17.9998 20.3954 17.8825 20.7821 17.6627 21.111C17.4429 21.4399 17.1306 21.6962 16.7651 21.8476C16.3997 21.999 15.9975 22.0386 15.6096 21.9614C15.2216 21.8842 14.8653 21.6938 14.5856 21.414C14.3058 21.1343 14.1154 20.778 14.0382 20.39C13.961 20.0021 14.0006 19.5999 14.152 19.2345C14.3034 18.869 14.5597 18.5567 14.8886 18.3369C15.2175 18.1171 15.6042 17.9998 15.9998 17.9998C16.5302 17.9998 17.0389 18.2105 17.414 18.5856C17.7891 18.9607 17.9998 19.4694 17.9998 19.9998ZM23.9998 21.9998C23.6042 21.9998 23.2175 21.8825 22.8886 21.6628C22.5597 21.443 22.3034 21.1307 22.152 20.7652C22.0006 20.3997 21.961 19.9976 22.0382 19.6097C22.1154 19.2217 22.3058 18.8653 22.5856 18.5856C22.8653 18.3059 23.2216 18.1154 23.6096 18.0383C23.9975 17.9611 24.3997 18.0007 24.7651 18.1521C25.1306 18.3035 25.4429 18.5598 25.6627 18.8887C25.8825 19.2176 25.9998 19.6043 25.9998 19.9998C25.9998 20.5303 25.7891 21.039 25.414 21.414C25.0389 21.7891 24.5302 21.9998 23.9998 21.9998Z" fill="#374957"/>
</g>
<defs>
<filter id="filter0_d_403_3634" x="0" y="0" width="32" height="32" filterUnits="userSpaceOnUse" color-interpolation-filters="sRGB">
<feFlood flood-opacity="0" result="BackgroundImageFix"/>
<feColorMatrix in="SourceAlpha" type="matrix" values="0 0 0 0 0 0 0 0 0 0 0 0 0 0 0 0 0 0 127 0" result="hardAlpha"/>
<feOffset dy="4"/>
<feGaussianBlur stdDeviation="2"/>
<feComposite in2="hardAlpha" operator="out"/>
<feColorMatrix type="matrix" values="0 0 0 0 0 0 0 0 0 0 0 0 0 0 0 0 0 0 0.25 0"/>
<feBlend mode="normal" in2="BackgroundImageFix" result="effect1_dropShadow_403_3634"/>
<feBlend mode="normal" in="SourceGraphic" in2="effect1_dropShadow_403_3634" result="shape"/>
</filter>
<clipPath id="clip0_403_3634">
<rect width="24" height="24" fill="white" transform="translate(4)"/>
</clipPath>
</defs>
</svg>
