<svg width="32" height="32" viewBox="0 0 32 32" fill="none" xmlns="http://www.w3.org/2000/svg">
<g clip-path="url(#clip0_403_3662)" filter="url(#filter0_d_403_3662)">
<path d="M6 20.9762V-0.0238037H4V20.9762C4 21.7718 4.31607 22.5349 4.87868 23.0975C5.44129 23.6601 6.20435 23.9762 7 23.9762H28V21.9762H7C6.73478 21.9762 6.48043 21.8708 6.29289 21.6833C6.10536 21.4958 6 21.2414 6 20.9762V20.9762Z" fill="#374957"/>
<path d="M26.5 3.97607H21L23.793 6.76907L19.5 11.0621L17.5 9.06207L10.281 16.2811L11.7 17.7001L17.505 11.9001L19.505 13.9001L25.212 8.19307L28 10.9761V5.47607C28 5.07825 27.842 4.69672 27.5607 4.41541C27.2794 4.13411 26.8978 3.97607 26.5 3.97607V3.97607Z" fill="#374957"/>
</g>
<defs>
<filter id="filter0_d_403_3662" x="0" y="0" width="32" height="32" filterUnits="userSpaceOnUse" color-interpolation-filters="sRGB">
<feFlood flood-opacity="0" result="BackgroundImageFix"/>
<feColorMatrix in="SourceAlpha" type="matrix" values="0 0 0 0 0 0 0 0 0 0 0 0 0 0 0 0 0 0 127 0" result="hardAlpha"/>
<feOffset dy="4"/>
<feGaussianBlur stdDeviation="2"/>
<feComposite in2="hardAlpha" operator="out"/>
<feColorMatrix type="matrix" values="0 0 0 0 0 0 0 0 0 0 0 0 0 0 0 0 0 0 0.25 0"/>
<feBlend mode="normal" in2="BackgroundImageFix" result="effect1_dropShadow_403_3662"/>
<feBlend mode="normal" in="SourceGraphic" in2="effect1_dropShadow_403_3662" result="shape"/>
</filter>
<clipPath id="clip0_403_3662">
<rect width="24" height="24" fill="white" transform="translate(4)"/>
</clipPath>
</defs>
</svg>
