<svg width="24" height="24" viewBox="0 0 24 24" fill="none" xmlns="http://www.w3.org/2000/svg">
<g clip-path="url(#clip0_403_3433)">
<path d="M10.5831 20.5297C9.63597 21.4514 8.36406 21.9633 7.0425 21.9544C5.72094 21.9455 4.456 21.4167 3.52136 20.4824C2.58672 19.548 2.05754 18.2832 2.04832 16.9616C2.03909 15.6401 2.55055 14.368 3.47205 13.4207L7.73405 9.1557L6.31905 7.7417L2.05805 12.0067C0.740323 13.3251 0.000294307 15.1129 0.000763162 16.9769C0.00123202 18.841 0.74216 20.6284 2.06055 21.9462C3.37894 23.2639 5.1668 24.0039 7.03082 24.0035C8.89484 24.003 10.6823 23.2621 12.0001 21.9437L16.2621 17.6817L14.8481 16.2677L10.5831 20.5297Z" fill="#374957"/>
<path d="M21.9439 2.06139C21.2932 1.40621 20.5189 0.886669 19.666 0.532887C18.813 0.179104 17.8983 -0.00189024 16.9749 0.000390852V0.000390852C16.052 -0.00206088 15.1377 0.178469 14.285 0.531542C13.4322 0.884615 12.658 1.40323 12.0069 2.05739L7.7399 6.32039L9.1539 7.73539L13.4189 3.47339C13.8845 3.00504 14.4383 2.63369 15.0483 2.38085C15.6584 2.12801 16.3125 1.99869 16.9729 2.00039V2.00039C17.9672 2.00072 18.939 2.29582 19.7656 2.84839C20.5922 3.40096 21.2364 4.18619 21.6167 5.10481C21.9971 6.02343 22.0966 7.03421 21.9026 8.00937C21.7086 8.98452 21.2299 9.88028 20.5269 10.5834L16.2649 14.8454L17.6799 16.2604L21.9419 12.0004C23.2579 10.6815 23.9972 8.89449 23.9976 7.0313C23.998 5.16812 23.2594 3.38082 21.9439 2.06139V2.06139Z" fill="#374957"/>
<path d="M14.8452 7.74189L7.74091 14.8462L9.15512 16.2604L16.2594 9.1561L14.8452 7.74189Z" fill="#374957"/>
</g>
<defs>
<clipPath id="clip0_403_3433">
<rect width="24" height="24" fill="white"/>
</clipPath>
</defs>
</svg>
