<svg width="24" height="24" viewBox="0 0 24 24" fill="none" xmlns="http://www.w3.org/2000/svg">
<g clip-path="url(#clip0_403_3377)">
<path d="M20.9049 0H3.09995C2.27184 0.00660623 1.48021 0.341647 0.898956 0.931525C0.317702 1.5214 -0.00564218 2.31788 -5.07418e-05 3.146V8H1.99995V3.146C1.9969 2.99852 2.02293 2.85188 2.07657 2.71446C2.1302 2.57704 2.21038 2.45154 2.31253 2.34511C2.41468 2.23869 2.5368 2.15344 2.67191 2.09422C2.80702 2.03501 2.95247 2.00299 3.09995 2H20.9099C21.2061 2.00864 21.4867 2.13393 21.6909 2.34857C21.8951 2.56322 22.0061 2.84983 21.9999 3.146V20.854C22.0061 21.151 21.8944 21.4384 21.6891 21.6532C21.4839 21.8679 21.2019 21.9927 20.9049 22H3.09995C2.95247 21.997 2.80702 21.965 2.67191 21.9058C2.5368 21.8466 2.41468 21.7613 2.31253 21.6549C2.21038 21.5485 2.1302 21.423 2.07657 21.2855C2.02293 21.1481 1.9969 21.0015 1.99995 20.854V16H-5.07418e-05V20.854C-0.00564218 21.6821 0.317702 22.4786 0.898956 23.0685C1.48021 23.6584 2.27184 23.9934 3.09995 24H20.9099C21.7363 23.9908 22.5254 23.6546 23.1045 23.065C23.6836 22.4754 24.0056 21.6804 23.9999 20.854V3.146C24.0055 2.31874 23.6829 1.52301 23.1027 0.933278C22.5225 0.343543 21.7322 0.00792295 20.9049 0V0Z" fill="#374957"/>
<path d="M3 12.9991H17.086L12.786 17.2991L14.2 18.7171L19.149 13.7671C19.3812 13.535 19.5654 13.2593 19.6911 12.956C19.8168 12.6526 19.8815 12.3275 19.8815 11.9991C19.8815 11.6708 19.8168 11.3456 19.6911 11.0423C19.5654 10.7389 19.3812 10.4633 19.149 10.2311L14.2 5.28113L12.783 6.69913L17.083 10.9991H3V12.9991Z" fill="#374957"/>
</g>
<defs>
<clipPath id="clip0_403_3377">
<rect width="24" height="24" fill="white"/>
</clipPath>
</defs>
</svg>
