<svg width="32" height="32" viewBox="0 0 32 32" fill="none" xmlns="http://www.w3.org/2000/svg">
<g clip-path="url(#clip0_403_3324)" filter="url(#filter0_d_403_3324)">
<path d="M27.957 16.457L24.914 19.5L27.957 22.543L26.543 23.957L23.5 20.914L20.457 23.957L19.043 22.543L22.086 19.5L19.043 16.457L20.457 15.043L23.5 18.086L26.543 15.043L27.957 16.457ZM6.00001 12C5.99884 10.6439 6.2735 9.30174 6.8073 8.05511C7.3411 6.80849 8.12287 5.68346 9.10509 4.74844C10.0873 3.81342 11.2494 3.08795 12.5208 2.61613C13.7922 2.14432 15.1463 1.93603 16.5007 2.00392C17.8551 2.07181 19.1815 2.41447 20.3993 3.01107C21.6171 3.60766 22.7009 4.44571 23.5847 5.47427C24.4685 6.50283 25.1338 7.7004 25.5403 8.99415C25.9467 10.2879 26.0858 11.6508 25.949 13H27.949C27.977 12.669 28 12.338 28 12C28 9.62663 27.2962 7.30655 25.9776 5.33316C24.6591 3.35977 22.7849 1.8217 20.5922 0.913451C18.3995 0.00519943 15.9867 -0.232441 13.6589 0.230582C11.3312 0.693605 9.19295 1.83649 7.51472 3.51472C5.83649 5.19295 4.6936 7.33115 4.23058 9.65892C3.76756 11.9867 4.0052 14.3995 4.91345 16.5922C5.8217 18.7849 7.35977 20.6591 9.33316 21.9776C11.3066 23.2962 13.6266 24 16 24C16.338 24 16.669 23.977 17 23.949V21.949C15.6093 22.09 14.2044 21.9377 12.8763 21.5018C11.5481 21.0659 10.3262 20.3562 9.28949 19.4185C8.25277 18.4809 7.42433 17.3361 6.85771 16.0583C6.29109 14.7804 5.99889 13.3979 6.00001 12V12ZM15 6.00001V10.586L12.293 13.293L13.707 14.707L17 11.414V6.00001H15Z" fill="#374957"/>
</g>
<defs>
<filter id="filter0_d_403_3324" x="0" y="0" width="32" height="32" filterUnits="userSpaceOnUse" color-interpolation-filters="sRGB">
<feFlood flood-opacity="0" result="BackgroundImageFix"/>
<feColorMatrix in="SourceAlpha" type="matrix" values="0 0 0 0 0 0 0 0 0 0 0 0 0 0 0 0 0 0 127 0" result="hardAlpha"/>
<feOffset dy="4"/>
<feGaussianBlur stdDeviation="2"/>
<feComposite in2="hardAlpha" operator="out"/>
<feColorMatrix type="matrix" values="0 0 0 0 0 0 0 0 0 0 0 0 0 0 0 0 0 0 0.25 0"/>
<feBlend mode="normal" in2="BackgroundImageFix" result="effect1_dropShadow_403_3324"/>
<feBlend mode="normal" in="SourceGraphic" in2="effect1_dropShadow_403_3324" result="shape"/>
</filter>
<clipPath id="clip0_403_3324">
<rect width="24" height="24" fill="white" transform="translate(4)"/>
</clipPath>
</defs>
</svg>
