<svg width="32" height="32" viewBox="0 0 32 32" fill="none" xmlns="http://www.w3.org/2000/svg">
<g clip-path="url(#clip0_403_3477)" filter="url(#filter0_d_403_3477)">
<path d="M27.018 8.78464C26.7256 8.51828 26.3836 8.31216 26.0116 8.17805C25.6395 8.04394 25.2446 7.98447 24.8496 8.00304C24.4545 8.02162 24.0669 8.11787 23.7091 8.2863C23.3512 8.45472 23.0301 8.69202 22.764 8.98464L19.547 12.5196C19.2674 12.0561 18.8729 11.6727 18.4016 11.4064C17.9303 11.1401 17.3983 11 16.857 10.9996H7C6.20435 10.9996 5.44129 11.3157 4.87868 11.8783C4.31607 12.4409 4 13.204 4 13.9996V20.9996C4 21.7953 4.31607 22.5583 4.87868 23.121C5.44129 23.6836 6.20435 23.9996 7 23.9996H17.448L27.235 13.0146C27.7605 12.4218 28.0321 11.6464 27.9916 10.8553C27.951 10.0641 27.6014 9.32056 27.018 8.78464V8.78464ZM25.742 11.6846L16.552 21.9996H7C6.73478 21.9996 6.48043 21.8943 6.29289 21.7067C6.10536 21.5192 6 21.2649 6 20.9996V13.9996C6 13.7344 6.10536 13.4801 6.29289 13.2925C6.48043 13.105 6.73478 12.9996 7 12.9996H16.857C17.1466 12.9984 17.4258 13.1072 17.6382 13.304C17.8506 13.5009 17.9803 13.7711 18.001 14.0599C18.0217 14.3488 17.9319 14.6347 17.7498 14.8599C17.5677 15.085 17.3068 15.2326 17.02 15.2726L11.858 16.0096L12.142 17.9896L17.303 17.2516C17.8691 17.1686 18.4019 16.9332 18.8446 16.5707C19.2872 16.2082 19.623 15.7322 19.816 15.1936L24.243 10.3296C24.332 10.2311 24.4397 10.1512 24.5599 10.0947C24.6801 10.0382 24.8103 10.0062 24.943 10.0006C25.2105 9.98994 25.4717 10.0839 25.671 10.2626C25.8667 10.4429 25.9839 10.6928 25.9972 10.9586C26.0104 11.2244 25.9188 11.4848 25.742 11.6836V11.6846ZM14.423 9.14964L15 9.55864L15.577 9.14964C16.03 8.82964 20 5.94164 20 3.19964C20.0246 2.378 19.7227 1.58008 19.1605 0.9804C18.5983 0.380719 17.8215 0.0280878 17 -0.000364447C16.267 -0.00973128 15.5559 0.248781 15 0.726636C14.4441 0.248781 13.733 -0.00973128 13 -0.000364447C12.1785 0.0280878 11.4017 0.380719 10.8395 0.9804C10.2773 1.58008 9.97545 2.378 10 3.19964C10 5.94164 13.97 8.82964 14.423 9.14964ZM13 1.99964C13.1336 1.9908 13.2676 2.0106 13.3929 2.05773C13.5182 2.10486 13.632 2.17822 13.7267 2.2729C13.8214 2.36759 13.8948 2.48141 13.9419 2.60674C13.989 2.73207 14.0088 2.86603 14 2.99964H16C15.9912 2.86603 16.011 2.73207 16.0581 2.60674C16.1052 2.48141 16.1786 2.36759 16.2733 2.2729C16.368 2.17822 16.4818 2.10486 16.6071 2.05773C16.7324 2.0106 16.8664 1.9908 17 1.99964C17.2906 2.0288 17.5582 2.17086 17.7453 2.39526C17.9323 2.61966 18.0237 2.90849 18 3.19964C18 4.27364 16.4 5.96764 15 7.08064C13.76 6.08064 12 4.35364 12 3.19964C11.9763 2.90849 12.0677 2.61966 12.2547 2.39526C12.4418 2.17086 12.7094 2.0288 13 1.99964V1.99964Z" fill="#374957"/>
</g>
<defs>
<filter id="filter0_d_403_3477" x="0" y="0" width="32" height="32" filterUnits="userSpaceOnUse" color-interpolation-filters="sRGB">
<feFlood flood-opacity="0" result="BackgroundImageFix"/>
<feColorMatrix in="SourceAlpha" type="matrix" values="0 0 0 0 0 0 0 0 0 0 0 0 0 0 0 0 0 0 127 0" result="hardAlpha"/>
<feOffset dy="4"/>
<feGaussianBlur stdDeviation="2"/>
<feComposite in2="hardAlpha" operator="out"/>
<feColorMatrix type="matrix" values="0 0 0 0 0 0 0 0 0 0 0 0 0 0 0 0 0 0 0.25 0"/>
<feBlend mode="normal" in2="BackgroundImageFix" result="effect1_dropShadow_403_3477"/>
<feBlend mode="normal" in="SourceGraphic" in2="effect1_dropShadow_403_3477" result="shape"/>
</filter>
<clipPath id="clip0_403_3477">
<rect width="24" height="24" fill="white" transform="translate(4)"/>
</clipPath>
</defs>
</svg>
