<svg width="24" height="24" viewBox="0 0 24 24" fill="none" xmlns="http://www.w3.org/2000/svg">
<g clip-path="url(#clip0_403_3626)">
<path d="M23.9998 11.4999C23.9998 10.8103 23.7958 10.136 23.4134 9.56216C23.031 8.98827 22.4873 8.54038 21.8508 8.2749C21.4497 5.95473 20.2407 3.85127 18.4378 2.3368C16.6349 0.822333 14.3544 -0.00547072 11.9998 -9.60623e-05C9.64522 -0.00547072 7.36466 0.822333 5.56176 2.3368C3.75886 3.85127 2.54988 5.95473 2.1488 8.2749C1.42386 8.58097 0.823214 9.12241 0.443815 9.8118C0.0644156 10.5012 -0.0715974 11.2983 0.0577307 12.0745C0.187059 12.8507 0.574182 13.5607 1.15661 14.0898C1.73904 14.619 2.48279 14.9364 3.2678 14.9909C3.6539 15.8194 4.14858 16.5929 4.7388 17.2909C4.22148 17.5305 3.78316 17.9126 3.47517 18.3924C3.16719 18.8722 3.00229 19.4298 2.9998 19.9999V23.9999H4.9998V19.9999C4.9998 19.7347 5.10515 19.4803 5.29269 19.2928C5.48023 19.1053 5.73458 18.9999 5.9998 18.9999H6.5278C8.08237 20.2499 10.0055 20.9528 11.9998 20.9999C13.995 20.9531 15.9192 20.2502 17.4748 18.9999H17.9998C18.265 18.9999 18.5194 19.1053 18.7069 19.2928C18.8944 19.4803 18.9998 19.7347 18.9998 19.9999V23.9999H20.9998V19.9999C20.9978 19.4296 20.8332 18.8716 20.5254 18.3914C20.2176 17.9113 19.7792 17.5288 19.2618 17.2889C19.8514 16.5907 20.3457 15.8172 20.7318 14.9889C21.6169 14.9289 22.4464 14.5355 23.0529 13.888C23.6594 13.2405 23.9978 12.3871 23.9998 11.4999ZM20.2478 12.9729L19.4128 12.8249L19.1308 13.6249C18.2148 16.2219 15.1298 18.9999 11.9998 18.9999C8.8698 18.9999 5.7858 16.2199 4.8688 13.6239L4.5888 12.8309L3.7588 12.9709C3.67342 12.9877 3.58679 12.9974 3.4998 12.9999C3.12943 12.9943 2.77422 12.8519 2.5026 12.6C2.23098 12.3482 2.06215 12.0047 2.02862 11.6358C1.9951 11.2669 2.09925 10.8987 2.32102 10.602C2.5428 10.3053 2.8665 10.1012 3.2298 10.0289L3.9678 9.8999L4.0458 9.1559C4.1798 7.87415 4.6229 6.64408 5.33704 5.5713C6.05118 4.49853 7.01502 3.61511 8.1458 2.9969C8.05444 3.32362 8.00538 3.6607 7.9998 3.9999C7.9998 5.06077 8.42122 6.07819 9.17137 6.82833C9.92152 7.57848 10.9389 7.9999 11.9998 7.9999C13.0607 7.9999 14.0781 7.57848 14.8282 6.82833C15.5784 6.07819 15.9998 5.06077 15.9998 3.9999H13.9998C13.9998 4.39547 13.8825 4.78215 13.6627 5.11104C13.443 5.43994 13.1306 5.69629 12.7652 5.84766C12.3997 5.99904 11.9976 6.03865 11.6096 5.96148C11.2217 5.88431 10.8653 5.69382 10.5856 5.41412C10.3059 5.13441 10.1154 4.77805 10.0382 4.39009C9.96106 4.00212 10.0007 3.59999 10.152 3.23454C10.3034 2.86909 10.5598 2.55673 10.8887 2.33696C11.2176 2.1172 11.6042 1.9999 11.9998 1.9999C13.9756 1.99518 15.8829 2.72381 17.3523 4.04469C18.8218 5.36558 19.7487 7.18474 19.9538 9.1499L20.0318 9.8939L20.7698 10.0269C21.1352 10.0971 21.4615 10.3006 21.6852 10.5979C21.909 10.8952 22.0143 11.2651 21.9806 11.6356C21.947 12.0062 21.7768 12.351 21.5031 12.6031C21.2295 12.8553 20.8719 12.9967 20.4998 12.9999C20.4152 12.9979 20.331 12.9892 20.2478 12.9739V12.9729Z" fill="#374957"/>
<path d="M9.49963 13.0012C10.3281 13.0012 10.9996 12.3296 10.9996 11.5012C10.9996 10.6728 10.3281 10.0012 9.49963 10.0012C8.67121 10.0012 7.99963 10.6728 7.99963 11.5012C7.99963 12.3296 8.67121 13.0012 9.49963 13.0012Z" fill="#374957"/>
<path d="M14.5004 13.0012C15.3288 13.0012 16.0004 12.3296 16.0004 11.5012C16.0004 10.6728 15.3288 10.0012 14.5004 10.0012C13.6719 10.0012 13.0004 10.6728 13.0004 11.5012C13.0004 12.3296 13.6719 13.0012 14.5004 13.0012Z" fill="#374957"/>
</g>
<defs>
<clipPath id="clip0_403_3626">
<rect width="24" height="24" fill="white"/>
</clipPath>
</defs>
</svg>
