<svg width="24" height="24" viewBox="0 0 24 24" fill="none" xmlns="http://www.w3.org/2000/svg">
<g clip-path="url(#clip0_403_3292)">
<path d="M8 13H0V11H8V13ZM20.915 11.106C21.4116 10.4809 21.7512 9.74603 21.9056 8.96279C22.06 8.17954 22.0246 7.37072 21.8023 6.60397C21.5801 5.83721 21.1775 5.13482 20.6282 4.55553C20.0789 3.97624 19.3989 3.5369 18.645 3.27425C17.8912 3.0116 17.0854 2.93328 16.295 3.04584C15.5047 3.1584 14.7528 3.45857 14.1022 3.92123C13.4517 4.3839 12.9213 4.99562 12.5556 5.70522C12.1899 6.41483 11.9993 7.20169 12 8V9H14V8C14 7.40666 14.1759 6.82664 14.5056 6.33329C14.8352 5.83994 15.3038 5.45543 15.852 5.22836C16.4001 5.0013 17.0033 4.94189 17.5853 5.05764C18.1672 5.1734 18.7018 5.45912 19.1213 5.87868C19.5409 6.29824 19.8266 6.83279 19.9424 7.41473C20.0581 7.99667 19.9987 8.59987 19.7716 9.14805C19.5446 9.69623 19.1601 10.1648 18.6667 10.4944C18.1734 10.8241 17.5933 11 17 11H10V13H20C20.3956 13 20.7822 13.1173 21.1111 13.3371C21.44 13.5568 21.6964 13.8692 21.8478 14.2346C21.9991 14.6001 22.0387 15.0022 21.9616 15.3902C21.8844 15.7781 21.6939 16.1345 21.4142 16.4142C21.1345 16.6939 20.7781 16.8844 20.3902 16.9616C20.0022 17.0387 19.6001 16.9991 19.2346 16.8478C18.8692 16.6964 18.5568 16.44 18.3371 16.1111C18.1173 15.7822 18 15.3956 18 15H16C16 15.7519 16.2119 16.4885 16.6114 17.1254C17.0109 17.7623 17.5819 18.2738 18.2587 18.6011C18.9356 18.9284 19.691 19.0582 20.4384 18.9758C21.1857 18.8935 21.8947 18.6021 22.484 18.1352C23.0733 17.6683 23.5191 17.0448 23.7702 16.3361C24.0214 15.6275 24.0677 14.8624 23.9039 14.1286C23.7401 13.3948 23.3729 12.722 22.8442 12.1874C22.3155 11.6528 21.6469 11.278 20.915 11.106V11.106ZM11 16H0V18H11C11.3956 18 11.7822 18.1173 12.1111 18.3371C12.44 18.5568 12.6964 18.8692 12.8478 19.2346C12.9991 19.6001 13.0387 20.0022 12.9616 20.3902C12.8844 20.7781 12.6939 21.1345 12.4142 21.4142C12.1345 21.6939 11.7781 21.8844 11.3902 21.9616C11.0022 22.0387 10.6001 21.9991 10.2346 21.8478C9.86918 21.6964 9.55682 21.44 9.33706 21.1111C9.1173 20.7822 9 20.3956 9 20H7C7 20.7911 7.2346 21.5645 7.67412 22.2223C8.11365 22.8801 8.73836 23.3928 9.46927 23.6955C10.2002 23.9983 11.0044 24.0775 11.7804 23.9231C12.5563 23.7688 13.269 23.3878 13.8284 22.8284C14.3878 22.269 14.7688 21.5563 14.9231 20.7804C15.0775 20.0044 14.9983 19.2002 14.6955 18.4693C14.3928 17.7384 13.8801 17.1136 13.2223 16.6741C12.5645 16.2346 11.7911 16 11 16ZM11 4C11 2.93913 10.5786 1.92172 9.82843 1.17157C9.07828 0.421427 8.06087 0 7 0C5.93913 0 4.92172 0.421427 4.17157 1.17157C3.42143 1.92172 3 2.93913 3 4H5C5 3.60444 5.1173 3.21776 5.33706 2.88886C5.55682 2.55996 5.86918 2.30362 6.23463 2.15224C6.60009 2.00087 7.00222 1.96126 7.39018 2.03843C7.77814 2.1156 8.13451 2.30608 8.41421 2.58579C8.69392 2.86549 8.8844 3.22186 8.96157 3.60982C9.03874 3.99778 8.99914 4.39992 8.84776 4.76537C8.69639 5.13082 8.44004 5.44318 8.11114 5.66294C7.78224 5.8827 7.39556 6 7 6H0V8H7C8.06087 8 9.07828 7.57857 9.82843 6.82843C10.5786 6.07828 11 5.06087 11 4Z" fill="#374957"/>
</g>
<defs>
<clipPath id="clip0_403_3292">
<rect width="24" height="24" fill="white"/>
</clipPath>
</defs>
</svg>
