<svg width="32" height="32" viewBox="0 0 32 32" fill="none" xmlns="http://www.w3.org/2000/svg">
<g clip-path="url(#clip0_403_3527)" filter="url(#filter0_d_403_3527)">
<path d="M27 7.36181e-07C25.7916 -0.0190471 24.6065 0.333467 23.6049 1.00987C22.6034 1.68627 21.8337 2.65394 21.4 3.782C19.6397 3.29692 17.8256 3.0342 16 3C14.1744 3.03429 12.3603 3.297 10.6 3.782C10.1663 2.65394 9.39662 1.68627 8.39507 1.00987C7.39352 0.333467 6.20841 -0.0190471 4.99999 7.36181e-07H3.99999V11.929C3.99778 12.7171 4.15194 13.4979 4.45353 14.226C4.75512 14.9542 5.19816 15.6153 5.75699 16.171L12.707 23.121C12.9849 23.4007 13.3156 23.6224 13.6798 23.7733C14.0441 23.9242 14.4347 24.0013 14.829 24H17.172C17.5661 24.0011 17.9565 23.924 18.3206 23.7731C18.6847 23.6222 19.0152 23.4006 19.293 23.121L26.242 16.172C26.8012 15.6162 27.2445 14.955 27.5463 14.2267C27.848 13.4984 28.0023 12.7174 28 11.929V7.36181e-07H27ZM13 20.586L7.17099 14.757C6.79856 14.3864 6.5033 13.9457 6.3023 13.4603C6.1013 12.9748 5.99855 12.4544 5.99999 11.929V10.215C6.68777 10.3926 7.35736 10.6343 7.99999 10.937C8.17085 11.7799 8.62203 12.5402 9.28007 13.094C9.93812 13.6478 10.7643 13.9626 11.624 13.987C12.5704 15.4843 13.0494 17.2294 13 19V20.586ZM26 11.929C26.0016 12.4545 25.8988 12.9751 25.6976 13.4605C25.4964 13.946 25.2008 14.3867 24.828 14.757L19 20.586V19C18.9506 17.2294 19.4296 15.4843 20.376 13.987C21.2357 13.9626 22.0619 13.6478 22.7199 13.094C23.378 12.5402 23.8291 11.7799 24 10.937C24.6426 10.6343 25.3122 10.3926 26 10.215V11.929ZM26 8.173C23.569 8.732 17 10.988 17 19V20H15V19C15 10.987 8.43099 8.732 5.99999 8.173V2.109C6.75026 2.31917 7.42982 2.72811 7.96685 3.29261C8.50389 3.85711 8.87847 4.5562 9.05099 5.316L9.36799 6.264L10.315 5.949C12.1571 5.37194 14.0703 5.05258 16 5C17.9297 5.0527 19.8428 5.37206 21.685 5.949L22.633 6.264L22.948 5.316C23.1209 4.55621 23.4957 3.8572 24.0329 3.29273C24.5701 2.72827 25.2497 2.31931 26 2.109V8.173Z" fill="#374957"/>
</g>
<defs>
<filter id="filter0_d_403_3527" x="0" y="0" width="32" height="32" filterUnits="userSpaceOnUse" color-interpolation-filters="sRGB">
<feFlood flood-opacity="0" result="BackgroundImageFix"/>
<feColorMatrix in="SourceAlpha" type="matrix" values="0 0 0 0 0 0 0 0 0 0 0 0 0 0 0 0 0 0 127 0" result="hardAlpha"/>
<feOffset dy="4"/>
<feGaussianBlur stdDeviation="2"/>
<feComposite in2="hardAlpha" operator="out"/>
<feColorMatrix type="matrix" values="0 0 0 0 0 0 0 0 0 0 0 0 0 0 0 0 0 0 0.25 0"/>
<feBlend mode="normal" in2="BackgroundImageFix" result="effect1_dropShadow_403_3527"/>
<feBlend mode="normal" in="SourceGraphic" in2="effect1_dropShadow_403_3527" result="shape"/>
</filter>
<clipPath id="clip0_403_3527">
<rect width="24" height="24" fill="white" transform="translate(4)"/>
</clipPath>
</defs>
</svg>
