<svg width="32" height="32" viewBox="0 0 32 32" fill="none" xmlns="http://www.w3.org/2000/svg">
<g clip-path="url(#clip0_403_3628)" filter="url(#filter0_d_403_3628)">
<path d="M26 9.979V16H20V22H6V3C6 2.73478 6.10536 2.48043 6.29289 2.29289C6.48043 2.10536 6.73478 2 7 2H20.148L21.359 0.646C21.5744 0.408053 21.8126 0.191694 22.07 0L7 0C6.20435 0 5.44129 0.31607 4.87868 0.87868C4.31607 1.44129 4 2.20435 4 3V24H22.414L28 18.414V7.979L26 9.979ZM22 21.586V18H25.586L22 21.586Z" fill="#374957"/>
<path d="M16.729 11.8195L24.34 3.31255C24.4257 3.21685 24.53 3.13963 24.6466 3.08561C24.7631 3.03158 24.8894 3.00188 25.0178 2.99833C25.1463 2.99477 25.274 3.01743 25.3934 3.06492C25.5127 3.11242 25.6212 3.18374 25.712 3.27455C25.7998 3.36214 25.8694 3.46618 25.917 3.58072C25.9645 3.69526 25.9889 3.81805 25.9889 3.94205C25.9889 4.06605 25.9645 4.18884 25.917 4.30337C25.8694 4.41791 25.7998 4.52196 25.712 4.60955L17.68 12.6425C18.1488 13.1578 18.5038 13.766 18.722 14.4275L27.122 6.02755C27.6733 5.47507 27.9828 4.72649 27.9828 3.94605C27.9828 3.1656 27.6733 2.41703 27.122 1.86455C26.839 1.58123 26.5012 1.35864 26.1292 1.21041C25.7572 1.06218 25.3589 0.991417 24.9586 1.00246C24.5583 1.01351 24.1645 1.10613 23.8012 1.27465C23.438 1.44317 23.113 1.68405 22.846 1.98255L14.71 11.0755C15.4293 11.173 16.1185 11.427 16.729 11.8195Z" fill="#374957"/>
<path d="M14.0001 13.0004C10.0002 13.0004 9.00015 19.0004 9.00015 19.0004H14.0001C14.7958 19.0004 15.5589 18.6843 16.1215 18.1217C16.6841 17.5591 17.0001 16.796 17.0001 16.0004C17.0001 15.2047 16.6841 14.4417 16.1215 13.879C15.5589 13.3164 14.7958 13.0004 14.0001 13.0004Z" fill="#374957"/>
</g>
<defs>
<filter id="filter0_d_403_3628" x="0" y="0" width="32" height="32" filterUnits="userSpaceOnUse" color-interpolation-filters="sRGB">
<feFlood flood-opacity="0" result="BackgroundImageFix"/>
<feColorMatrix in="SourceAlpha" type="matrix" values="0 0 0 0 0 0 0 0 0 0 0 0 0 0 0 0 0 0 127 0" result="hardAlpha"/>
<feOffset dy="4"/>
<feGaussianBlur stdDeviation="2"/>
<feComposite in2="hardAlpha" operator="out"/>
<feColorMatrix type="matrix" values="0 0 0 0 0 0 0 0 0 0 0 0 0 0 0 0 0 0 0.25 0"/>
<feBlend mode="normal" in2="BackgroundImageFix" result="effect1_dropShadow_403_3628"/>
<feBlend mode="normal" in="SourceGraphic" in2="effect1_dropShadow_403_3628" result="shape"/>
</filter>
<clipPath id="clip0_403_3628">
<rect width="24" height="24" fill="white" transform="translate(4)"/>
</clipPath>
</defs>
</svg>
