<svg width="32" height="29" viewBox="0 0 32 29" fill="none" xmlns="http://www.w3.org/2000/svg">
<g clip-path="url(#clip0_403_3602)" filter="url(#filter0_d_403_3602)">
<path d="M27 18.9997V16.9997C26.9964 14.257 25.9692 11.6144 24.1196 9.58927C22.27 7.56413 19.7311 6.30225 17 6.05065V4.72265C17.3813 4.50252 17.6793 4.16272 17.8478 3.75597C18.0162 3.34921 18.0458 2.89823 17.9319 2.47296C17.8179 2.0477 17.5668 1.67191 17.2175 1.40389C16.8682 1.13588 16.4403 0.990601 16 0.990601C15.5597 0.990601 15.1318 1.13588 14.7825 1.40389C14.4332 1.67191 14.1821 2.0477 14.0681 2.47296C13.9542 2.89823 13.9838 3.34921 14.1522 3.75597C14.3207 4.16272 14.6187 4.50252 15 4.72265V6.05065C12.2689 6.30225 9.73002 7.56413 7.88041 9.58927C6.03079 11.6144 5.00363 14.257 5 16.9997V18.9997H4V20.9997H28V18.9997H27ZM7 16.9997C7.473 5.06565 24.531 5.07465 25 16.9997V18.9997H7V16.9997Z" fill="#374957"/>
</g>
<defs>
<filter id="filter0_d_403_3602" x="0" y="0" width="32" height="32" filterUnits="userSpaceOnUse" color-interpolation-filters="sRGB">
<feFlood flood-opacity="0" result="BackgroundImageFix"/>
<feColorMatrix in="SourceAlpha" type="matrix" values="0 0 0 0 0 0 0 0 0 0 0 0 0 0 0 0 0 0 127 0" result="hardAlpha"/>
<feOffset dy="4"/>
<feGaussianBlur stdDeviation="2"/>
<feComposite in2="hardAlpha" operator="out"/>
<feColorMatrix type="matrix" values="0 0 0 0 0 0 0 0 0 0 0 0 0 0 0 0 0 0 0.25 0"/>
<feBlend mode="normal" in2="BackgroundImageFix" result="effect1_dropShadow_403_3602"/>
<feBlend mode="normal" in="SourceGraphic" in2="effect1_dropShadow_403_3602" result="shape"/>
</filter>
<clipPath id="clip0_403_3602">
<rect width="24" height="24" fill="white" transform="translate(4)"/>
</clipPath>
</defs>
</svg>
