<svg width="32" height="30" viewBox="0 0 32 30" fill="none" xmlns="http://www.w3.org/2000/svg">
<g clip-path="url(#clip0_403_3451)" filter="url(#filter0_d_403_3451)">
<path d="M28.0003 4.00037H14.0003V6.00036H28.0003V4.00037Z" fill="#374957"/>
<path d="M28.0003 11.0007H14.0003V13.0007H28.0003V11.0007Z" fill="#374957"/>
<path d="M28.0003 18H14.0003V20H28.0003V18Z" fill="#374957"/>
<path d="M12 6.00034L8.707 2.70734C8.51947 2.51987 8.26516 2.41455 8 2.41455C7.73484 2.41455 7.48053 2.51987 7.293 2.70734L4 6.00034H7V18.0003H4L7.293 21.2933C7.48053 21.4808 7.73484 21.5861 8 21.5861C8.26516 21.5861 8.51947 21.4808 8.707 21.2933L12 18.0003H9V6.00034H12Z" fill="#374957"/>
</g>
<defs>
<filter id="filter0_d_403_3451" x="0" y="0" width="32" height="32" filterUnits="userSpaceOnUse" color-interpolation-filters="sRGB">
<feFlood flood-opacity="0" result="BackgroundImageFix"/>
<feColorMatrix in="SourceAlpha" type="matrix" values="0 0 0 0 0 0 0 0 0 0 0 0 0 0 0 0 0 0 127 0" result="hardAlpha"/>
<feOffset dy="4"/>
<feGaussianBlur stdDeviation="2"/>
<feComposite in2="hardAlpha" operator="out"/>
<feColorMatrix type="matrix" values="0 0 0 0 0 0 0 0 0 0 0 0 0 0 0 0 0 0 0.25 0"/>
<feBlend mode="normal" in2="BackgroundImageFix" result="effect1_dropShadow_403_3451"/>
<feBlend mode="normal" in="SourceGraphic" in2="effect1_dropShadow_403_3451" result="shape"/>
</filter>
<clipPath id="clip0_403_3451">
<rect width="24" height="24" fill="white" transform="translate(4)"/>
</clipPath>
</defs>
</svg>
