<svg width="24" height="24" viewBox="0 0 24 24" fill="none" xmlns="http://www.w3.org/2000/svg">
<g clip-path="url(#clip0_403_3372)">
<path d="M24 18.9999V3.99988C24 3.20423 23.6839 2.44117 23.1213 1.87856C22.5587 1.31595 21.7956 0.999878 21 0.999878H3C2.20435 0.999878 1.44129 1.31595 0.87868 1.87856C0.31607 2.44117 0 3.20423 0 3.99988L0 18.9999H11V20.9999H6V22.9999H18V20.9999H13V18.9999H24ZM3 2.99988H21C21.2652 2.99988 21.5196 3.10523 21.7071 3.29277C21.8946 3.48031 22 3.73466 22 3.99988V12.9999H2V3.99988C2 3.73466 2.10536 3.48031 2.29289 3.29277C2.48043 3.10523 2.73478 2.99988 3 2.99988V2.99988ZM2 14.9999H22V16.9999H2V14.9999Z" fill="#374957"/>
</g>
<defs>
<clipPath id="clip0_403_3372">
<rect width="24" height="24" fill="white"/>
</clipPath>
</defs>
</svg>
