<svg width="32" height="32" viewBox="0 0 32 32" fill="none" xmlns="http://www.w3.org/2000/svg">
<g clip-path="url(#clip0_403_3684)" filter="url(#filter0_d_403_3684)">
<path d="M18.2002 16.2611C15.2887 15.0281 12.9734 12.7074 11.7472 9.79309L15.1472 6.38709L8.8872 0.122091L5.7162 3.29209C5.1662 3.84523 4.73134 4.50195 4.43679 5.22425C4.14225 5.94654 3.99385 6.72007 4.0002 7.50009C4.0002 14.7481 13.2522 24.0001 20.5002 24.0001C21.2801 24.0067 22.0536 23.8584 22.7757 23.5638C23.4979 23.2693 24.1544 22.8343 24.7072 22.2841L27.8782 19.1131L21.6132 12.8481L18.2002 16.2611ZM23.2942 20.8701C22.9264 21.2339 22.4901 21.5211 22.0104 21.7151C21.5308 21.9091 21.0175 22.0059 20.5002 22.0001C14.2672 22.0001 6.0002 13.7331 6.0002 7.50009C5.99431 6.98292 6.09116 6.46973 6.28514 5.99028C6.47911 5.51083 6.76635 5.07467 7.1302 4.70709L8.8872 2.95009L12.3242 6.38709L9.38919 9.32209L9.63419 9.93609C10.3554 11.8654 11.483 13.6171 12.9403 15.0726C14.3977 16.5281 16.1509 17.6534 18.0812 18.3721L18.6872 18.6031L21.6132 15.6761L25.0502 19.1131L23.2942 20.8701ZM19.0002 6.52909V2.00009H21.0002V5.61109C21.6612 4.94809 22.4512 4.15309 23.2392 3.36109C24.6052 1.98709 25.9512 0.635091 26.5392 0.0430908L27.9532 1.45709C27.3612 2.04909 26.0172 3.39909 24.6532 4.77109C23.8782 5.55509 23.1002 6.34009 22.4392 7.00009H26.0002V9.00009H21.5002C20.8412 9.00328 20.2078 8.7449 19.7391 8.28163C19.2704 7.81837 19.0047 7.18808 19.0002 6.52909V6.52909Z" fill="#374957"/>
</g>
<defs>
<filter id="filter0_d_403_3684" x="0" y="0" width="32" height="32" filterUnits="userSpaceOnUse" color-interpolation-filters="sRGB">
<feFlood flood-opacity="0" result="BackgroundImageFix"/>
<feColorMatrix in="SourceAlpha" type="matrix" values="0 0 0 0 0 0 0 0 0 0 0 0 0 0 0 0 0 0 127 0" result="hardAlpha"/>
<feOffset dy="4"/>
<feGaussianBlur stdDeviation="2"/>
<feComposite in2="hardAlpha" operator="out"/>
<feColorMatrix type="matrix" values="0 0 0 0 0 0 0 0 0 0 0 0 0 0 0 0 0 0 0.25 0"/>
<feBlend mode="normal" in2="BackgroundImageFix" result="effect1_dropShadow_403_3684"/>
<feBlend mode="normal" in="SourceGraphic" in2="effect1_dropShadow_403_3684" result="shape"/>
</filter>
<clipPath id="clip0_403_3684">
<rect width="24" height="24" fill="white" transform="translate(4)"/>
</clipPath>
</defs>
</svg>
