<svg width="24" height="24" viewBox="0 0 24 24" fill="none" xmlns="http://www.w3.org/2000/svg">
<g clip-path="url(#clip0_403_3387)">
<path d="M16.5 17C15.806 17.0008 15.1279 17.2079 14.5519 17.595C13.9759 17.9821 13.5279 18.5317 13.265 19.174C12.4376 18.942 11.5624 18.942 10.735 19.174C10.4158 18.4 9.82922 17.7664 9.08215 17.3885C8.33508 17.0106 7.47714 16.9135 6.6645 17.1149C5.85187 17.3163 5.13856 17.8028 4.65442 18.4858C4.17028 19.1689 3.9475 20.003 4.02662 20.8365C4.10575 21.67 4.48152 22.4473 5.08554 23.0271C5.68956 23.6068 6.48167 23.9504 7.31768 23.9953C8.1537 24.0402 8.97804 23.7834 9.64065 23.2716C10.3033 22.7599 10.7601 22.0272 10.928 21.207C11.2724 21.0827 11.6341 21.0128 12 21C12.3659 21.0127 12.7276 21.0826 13.072 21.207C13.2057 21.8553 13.5205 22.4524 13.9799 22.929C14.4393 23.4056 15.0244 23.7421 15.6673 23.8996C16.3103 24.057 16.9847 24.0289 17.6123 23.8185C18.2399 23.6081 18.795 23.224 19.2131 22.7109C19.6313 22.1977 19.8953 21.5765 19.9746 20.9193C20.0539 20.2622 19.9453 19.596 19.6612 18.9981C19.3772 18.4002 18.9294 17.8951 18.3698 17.5414C17.8103 17.1878 17.1619 17 16.5 17V17ZM7.5 22C7.20333 22 6.91332 21.912 6.66664 21.7472C6.41997 21.5824 6.22771 21.3481 6.11418 21.074C6.00065 20.7999 5.97094 20.4983 6.02882 20.2074C6.0867 19.9164 6.22956 19.6491 6.43934 19.4393C6.64912 19.2296 6.91639 19.0867 7.20736 19.0288C7.49834 18.9709 7.79994 19.0007 8.07403 19.1142C8.34811 19.2277 8.58238 19.42 8.7472 19.6666C8.91203 19.9133 9 20.2033 9 20.5C9 20.8978 8.84196 21.2794 8.56066 21.5607C8.27936 21.842 7.89782 22 7.5 22V22ZM16.5 22C16.2033 22 15.9133 21.912 15.6666 21.7472C15.42 21.5824 15.2277 21.3481 15.1142 21.074C15.0006 20.7999 14.9709 20.4983 15.0288 20.2074C15.0867 19.9164 15.2296 19.6491 15.4393 19.4393C15.6491 19.2296 15.9164 19.0867 16.2074 19.0288C16.4983 18.9709 16.7999 19.0007 17.074 19.1142C17.3481 19.2277 17.5824 19.42 17.7472 19.6666C17.912 19.9133 18 20.2033 18 20.5C18 20.8978 17.842 21.2794 17.5607 21.5607C17.2794 21.842 16.8978 22 16.5 22ZM19.977 8.9C19.635 0.11 15.2 0 15 0C13.8743 0.050131 12.8064 0.512885 12 1.3C11.1937 0.512726 10.1258 0.0499452 9 0C8.8 0 4.365 0.11 4.023 8.9C1.363 9.619 0 10.657 0 12C0 15.157 7.543 16 12 16C16.457 16 24 15.157 24 12C24 10.657 22.637 9.619 19.977 8.9ZM8.989 2C9.43788 2.03351 9.86995 2.18497 10.2415 2.43906C10.6131 2.69314 10.9109 3.04085 11.105 3.447L12 5.236L12.9 3.447C13.0909 3.04772 13.3818 2.70463 13.7446 2.45107C14.1073 2.19752 14.5294 2.04212 14.97 2C14.999 2 17.817 2.272 17.991 9.308C16.0378 9.82601 14.0199 10.0591 12 10C9.97971 10.0575 7.96167 9.82375 6.008 9.306C6.183 2.271 9 2 8.989 2ZM12 14C5.956 14 2.273 12.671 1.994 12.042C2.059 11.878 2.66 11.342 4.465 10.851L4.553 10.895C4.643 10.939 6.823 12 12 12C17.177 12 19.356 10.939 19.447 10.895L19.535 10.851C20.4374 11.0105 21.2863 11.3908 22.006 11.958C21.727 12.671 18.044 14 12 14Z" fill="#374957"/>
</g>
<defs>
<clipPath id="clip0_403_3387">
<rect width="24" height="24" fill="white"/>
</clipPath>
</defs>
</svg>
