<svg width="24" height="24" viewBox="0 0 24 24" fill="none" xmlns="http://www.w3.org/2000/svg">
<g clip-path="url(#clip0_403_3472)">
<path d="M15.7004 7.13422L13.8504 8.20022C13.3408 7.68674 12.7014 7.32109 12.0004 7.14222V5.00022H10.0004V7.14222C9.29943 7.32109 8.66006 7.68674 8.15042 8.20022L6.30042 7.13422L5.30042 8.86622L7.16142 9.93922C7.05984 10.2839 7.00567 10.6409 7.00042 11.0002C7.00567 11.3596 7.05984 11.7165 7.16142 12.0612L5.30042 13.1342L6.30042 14.8662L8.15042 13.8002C8.66006 14.3137 9.29943 14.6793 10.0004 14.8582V17.0002H12.0004V14.8582C12.7014 14.6793 13.3408 14.3137 13.8504 13.8002L15.7004 14.8662L16.7004 13.1342L14.8434 12.0612C14.9437 11.7163 14.9965 11.3594 15.0004 11.0002C14.9952 10.6409 14.941 10.2839 14.8394 9.93922L16.7004 8.86622L15.7004 7.13422ZM11.0004 13.0002C10.6049 13.0002 10.2182 12.8829 9.88928 12.6632C9.56038 12.4434 9.30404 12.131 9.15266 11.7656C9.00129 11.4001 8.96168 10.998 9.03885 10.61C9.11602 10.2221 9.3065 9.86571 9.58621 9.586C9.86591 9.3063 10.2223 9.11582 10.6102 9.03865C10.9982 8.96148 11.4003 9.00108 11.7658 9.15246C12.1312 9.30383 12.4436 9.56018 12.6634 9.88908C12.8831 10.218 13.0004 10.6047 13.0004 11.0002C13.0004 11.5307 12.7897 12.0394 12.4146 12.4144C12.0396 12.7895 11.5309 13.0002 11.0004 13.0002ZM23.2724 11.1322C22.3768 8.76861 21.2118 6.51608 19.8004 4.41922C18.6281 2.83062 17.0462 1.59028 15.2239 0.830647C13.4015 0.0710174 11.407 -0.179372 9.45342 0.106217C7.51516 0.381789 5.68556 1.16966 4.15349 2.3885C2.62143 3.60734 1.44241 5.21298 0.738148 7.03968C0.033887 8.86638 -0.170096 10.8479 0.147255 12.7798C0.464606 14.7117 1.29179 16.5238 2.54342 18.0292C2.83848 18.3836 3.00017 18.8301 3.00042 19.2912V24.0002H16.0004V21.0002H18.2474C18.9744 20.9985 19.6761 20.7336 20.2228 20.2546C20.7695 19.7755 21.1243 19.1146 21.2214 18.3942L21.6704 15.0002H24.0004V12.7882C24.0004 12.7882 23.4864 11.6222 23.2724 11.1322ZM19.9174 13.0002L19.2394 18.1312C19.2076 18.3718 19.0895 18.5925 18.907 18.7524C18.7245 18.9123 18.4901 19.0004 18.2474 19.0002H14.0004V22.0002H5.00042V19.2912C4.9999 18.3625 4.67443 17.4632 4.08042 16.7492C3.30613 15.8254 2.72545 14.7553 2.37289 13.6026C2.02033 12.4499 1.90308 11.238 2.02811 10.0391C2.15314 8.84021 2.5179 7.67865 3.10071 6.62349C3.68352 5.56832 4.47249 4.64108 5.42073 3.89686C6.36898 3.15264 7.45715 2.60662 8.62059 2.29126C9.78403 1.9759 10.999 1.89762 12.1933 2.06109C13.3876 2.22456 14.5368 2.62643 15.5727 3.24282C16.6086 3.85922 17.51 4.67756 18.2234 5.64922C19.519 7.6217 20.5973 9.72864 21.4394 11.9332C21.5954 12.2902 21.7514 12.6482 21.9074 13.0022L19.9174 13.0002Z" fill="#374957"/>
</g>
<defs>
<clipPath id="clip0_403_3472">
<rect width="24" height="24" fill="white"/>
</clipPath>
</defs>
</svg>
