<svg width="32" height="32" viewBox="0 0 32 32" fill="none" xmlns="http://www.w3.org/2000/svg">
<g clip-path="url(#clip0_403_3583)" filter="url(#filter0_d_403_3583)">
<path d="M26.5629 1.43735C24.1889 -0.936649 20.6439 -0.357649 15.9999 3.13735C11.3569 -0.357649 7.81293 -0.937649 5.43693 1.43735C3.06093 3.81235 3.64193 7.35634 7.13693 12.0003C3.64193 16.6433 3.06193 20.1883 5.43693 22.5633C5.88222 23.0251 6.41732 23.3907 7.00927 23.6379C7.60123 23.885 8.23751 24.0084 8.87893 24.0003C10.8499 24.0003 13.2299 22.9483 15.9999 20.8643C18.7689 22.9483 21.1489 24.0003 23.1209 24.0003C23.7623 24.0084 24.3986 23.885 24.9906 23.6379C25.5825 23.3907 26.1176 23.0251 26.5629 22.5633C28.9379 20.1883 28.3629 16.6443 24.8629 12.0003C28.3579 7.35634 28.9379 3.81235 26.5629 1.43735V1.43735ZM23.0849 2.02835C23.4671 2.01684 23.8476 2.08355 24.203 2.22439C24.5584 2.36523 24.8814 2.57722 25.1519 2.84735C26.8979 4.59434 25.6079 7.56034 23.5639 10.3863C22.7259 9.39834 21.7819 8.37134 20.7059 7.29434C19.6299 6.21734 18.5999 5.27334 17.6119 4.43434C19.5099 3.06135 21.4719 2.02835 23.0849 2.02835V2.02835ZM22.3109 12.0003C21.2999 13.2203 20.2289 14.3613 19.2949 15.3003C18.3609 16.2393 17.2199 17.3003 15.9999 18.3113C14.7799 17.3003 13.6389 16.2293 12.7049 15.3003C11.7709 14.3713 10.6999 13.2203 9.68893 12.0003C10.6999 10.7803 11.7709 9.63834 12.7049 8.70534C13.6389 7.77234 14.7799 6.70034 15.9999 5.68834C17.2199 6.69834 18.3609 7.77134 19.2999 8.70534C20.2389 9.63934 21.2999 10.7803 22.3109 12.0003ZM6.84793 2.84835C7.11819 2.57775 7.44103 2.36538 7.79653 2.22435C8.15203 2.08332 8.53265 2.01662 8.91493 2.02835C10.5279 2.02835 12.4899 3.06135 14.3879 4.43434C13.3999 5.27334 12.3719 6.21734 11.2939 7.29434C10.2159 8.37134 9.27393 9.39434 8.43493 10.3863C6.39193 7.56034 5.09993 4.59434 6.84793 2.84835V2.84835ZM6.84793 21.1483C5.10193 19.4023 6.39193 16.4353 8.43493 13.6103C9.27393 14.5983 10.2179 15.6253 11.2939 16.7023C12.3699 17.7793 13.3939 18.7253 14.3829 19.5633C11.5579 21.6093 8.59193 22.9003 6.84793 21.1523V21.1483ZM25.1479 21.1483C23.4029 22.8923 20.4379 21.6053 17.6129 19.5633C18.5989 18.7253 19.6269 17.7763 20.7019 16.7023C21.7769 15.6283 22.7219 14.6023 23.5599 13.6103C25.6079 16.4403 26.8999 19.4063 25.1519 21.1523L25.1479 21.1483Z" fill="#374957"/>
<path d="M15.9998 13.9994C17.1044 13.9994 17.9998 13.104 17.9998 11.9994C17.9998 10.8948 17.1044 9.99939 15.9998 9.99939C14.8953 9.99939 13.9998 10.8948 13.9998 11.9994C13.9998 13.104 14.8953 13.9994 15.9998 13.9994Z" fill="#374957"/>
</g>
<defs>
<filter id="filter0_d_403_3583" x="0" y="0" width="32" height="32" filterUnits="userSpaceOnUse" color-interpolation-filters="sRGB">
<feFlood flood-opacity="0" result="BackgroundImageFix"/>
<feColorMatrix in="SourceAlpha" type="matrix" values="0 0 0 0 0 0 0 0 0 0 0 0 0 0 0 0 0 0 127 0" result="hardAlpha"/>
<feOffset dy="4"/>
<feGaussianBlur stdDeviation="2"/>
<feComposite in2="hardAlpha" operator="out"/>
<feColorMatrix type="matrix" values="0 0 0 0 0 0 0 0 0 0 0 0 0 0 0 0 0 0 0.25 0"/>
<feBlend mode="normal" in2="BackgroundImageFix" result="effect1_dropShadow_403_3583"/>
<feBlend mode="normal" in="SourceGraphic" in2="effect1_dropShadow_403_3583" result="shape"/>
</filter>
<clipPath id="clip0_403_3583">
<rect width="24" height="24" fill="white" transform="translate(4)"/>
</clipPath>
</defs>
</svg>
