<svg width="24" height="24" viewBox="0 0 24 24" fill="none" xmlns="http://www.w3.org/2000/svg">
<g clip-path="url(#clip0_403_3297)">
<path d="M24 8.00636L20 10.9884V8.99936C20 8.20371 19.6839 7.44065 19.1213 6.87804C18.5587 6.31543 17.7956 5.99936 17 5.99936H14.915L9.915 0.999359H0V2.99936H9.086L12.086 5.99936H3C2.20435 5.99936 1.44129 6.31543 0.87868 6.87804C0.31607 7.44065 0 8.20371 0 8.99936L0 23.9994H20V19.0104L24 21.9924V8.00636ZM18 21.9994H2V8.99936C2 8.73414 2.10536 8.47979 2.29289 8.29225C2.48043 8.10472 2.73478 7.99936 3 7.99936H17C17.2652 7.99936 17.5196 8.10472 17.7071 8.29225C17.8946 8.47979 18 8.73414 18 8.99936V21.9994ZM22 18.0064L20 16.5154V13.4834L22 11.9924V18.0064Z" fill="#374957"/>
</g>
<defs>
<clipPath id="clip0_403_3297">
<rect width="24" height="24" fill="white"/>
</clipPath>
</defs>
</svg>
