<svg width="24" height="24" viewBox="0 0 24 24" fill="none" xmlns="http://www.w3.org/2000/svg">
<g clip-path="url(#clip0_403_3722)">
<path d="M21 0H3C2.20435 0 1.44129 0.31607 0.87868 0.87868C0.31607 1.44129 0 2.20435 0 3L0 24H18.414L24 18.414V3C24 2.20435 23.6839 1.44129 23.1213 0.87868C22.5587 0.31607 21.7956 0 21 0V0ZM18 21.586V18H21.586L18 21.586ZM22 16H16V22H2V3C2 2.73478 2.10536 2.48043 2.29289 2.29289C2.48043 2.10536 2.73478 2 3 2H21C21.2652 2 21.5196 2.10536 21.7071 2.29289C21.8946 2.48043 22 2.73478 22 3V16ZM12.75 5H16.013V6.25H14V7.388H15.864V8.638H14V11.025H12.75V5ZM5.25 7V9.068C5.24879 9.16687 5.26736 9.26499 5.30462 9.35658C5.34187 9.44818 5.39705 9.5314 5.46692 9.60137C5.53679 9.67133 5.61995 9.72663 5.71149 9.764C5.80303 9.80137 5.90113 9.82007 6 9.819C6.19565 9.81678 6.38288 9.73909 6.52262 9.60214C6.66237 9.46519 6.74383 9.27956 6.75 9.084V9H6V8H8V9.084C7.99578 9.61166 7.7832 10.1163 7.40859 10.4879C7.03397 10.8595 6.52767 11.068 6 11.068C5.73837 11.0692 5.47907 11.0188 5.23693 10.9197C4.99479 10.8206 4.77455 10.6748 4.5888 10.4905C4.40306 10.3063 4.25545 10.0872 4.15442 9.84586C4.05339 9.60452 4.00092 9.34563 4 9.084V6.984C4.00092 6.72237 4.05339 6.46348 4.15442 6.22214C4.25545 5.98081 4.40306 5.76175 4.5888 5.57749C4.77455 5.39323 4.99479 5.24739 5.23693 5.1483C5.47907 5.04921 5.73837 4.99882 6 5V5C6.52938 5.00341 7.03611 5.21522 7.41045 5.58955C7.78478 5.96389 7.99659 6.47062 8 7H6.75C6.74446 6.80284 6.66366 6.61528 6.52419 6.47581C6.38472 6.33634 6.19716 6.25554 6 6.25C5.90129 6.24906 5.80339 6.26783 5.71203 6.3052C5.62067 6.34257 5.53768 6.3978 5.46793 6.46764C5.39818 6.53749 5.34307 6.62055 5.30582 6.71196C5.26857 6.80337 5.24993 6.9013 5.251 7H5.25ZM9.75 5H11V11.069H9.75V5Z" fill="#374957"/>
</g>
<defs>
<clipPath id="clip0_403_3722">
<rect width="24" height="24" fill="white"/>
</clipPath>
</defs>
</svg>
