<svg width="24" height="24" viewBox="0 0 24 24" fill="none" xmlns="http://www.w3.org/2000/svg">
<g clip-path="url(#clip0_403_3689)">
<path d="M1.0369 5.88889L-0.00610352 4.18889L6.7289 0.0618896L7.7709 1.76789L1.0369 5.88889ZM22.2739 16.2169L18.1489 22.8999L19.8489 23.9509L23.9739 17.2669L22.2739 16.2169ZM20.9239 14.5999L15.9999 22.5829C15.7755 22.963 15.4667 23.2864 15.0973 23.5281C14.728 23.7698 14.308 23.9234 13.8699 23.9769C13.7438 23.9922 13.6169 23.9999 13.4899 23.9999C13.1084 24.0002 12.7306 23.9249 12.3784 23.7783C12.0262 23.6317 11.7065 23.4168 11.4379 23.1459L10.4749 22.1829C9.55997 22.8233 8.44867 23.1208 7.33618 23.0232C6.22368 22.9257 5.18113 22.4392 4.39164 21.6494C3.60215 20.8595 3.11619 19.8168 3.01913 18.7042C2.92207 17.5917 3.22011 16.4805 3.8609 15.5659L0.852896 12.5569C0.547761 12.2517 0.314284 11.8826 0.169364 11.4761C0.0244436 11.0696 -0.0282946 10.636 0.0149664 10.2067C0.0582274 9.77733 0.196405 9.36297 0.419499 8.99358C0.642593 8.62419 0.945022 8.30902 1.3049 8.07089L9.0669 3.32089C10.5343 2.38036 12.259 1.92188 13.9998 2.00956C15.7405 2.09723 17.4104 2.72668 18.7759 3.80989L20.6679 1.91789L22.0819 3.33189L20.1819 5.23189C21.2191 6.54449 21.8434 8.13547 21.9755 9.80321C22.1076 11.471 21.7416 13.1404 20.9239 14.5999V14.5999ZM9.0099 20.7179L5.3179 17.0229C5.04328 17.5397 4.94273 18.1313 5.03119 18.7098C5.11965 19.2883 5.3924 19.8228 5.8089 20.2339C6.22853 20.6329 6.76064 20.8933 7.33319 20.9799C7.90574 21.0665 8.49105 20.975 9.0099 20.7179V20.7179ZM18.1299 5.89989C17.0982 4.8602 15.7411 4.20585 14.2852 4.04606C12.8292 3.88627 11.3625 4.23071 10.1299 5.02189L2.3779 9.75789C2.27184 9.83199 2.18342 9.92858 2.11895 10.0408C2.05448 10.1529 2.01554 10.2779 2.0049 10.4069C1.99046 10.5414 2.00651 10.6774 2.05187 10.8048C2.09723 10.9322 2.17073 11.0478 2.2669 11.1429L12.8529 21.7319C12.95 21.8319 13.0694 21.9075 13.2013 21.9527C13.3332 21.9979 13.4738 22.0113 13.6119 21.9919C13.7501 21.9752 13.8825 21.9267 13.9987 21.8502C14.115 21.7736 14.2119 21.6712 14.2819 21.5509L19.2019 13.5779C19.8804 12.3551 20.1428 10.9447 19.9494 9.55969C19.756 8.17466 19.1174 6.89011 18.1299 5.89989V5.89989Z" fill="#374957"/>
</g>
<defs>
<clipPath id="clip0_403_3689">
<rect width="24" height="24" fill="white"/>
</clipPath>
</defs>
</svg>
