<svg width="24" height="24" viewBox="0 0 24 24" fill="none" xmlns="http://www.w3.org/2000/svg">
<g clip-path="url(#clip0_403_3680)">
<path d="M11.0003 23.97C8.09091 23.97 5.30065 22.8143 3.24337 20.757C1.1861 18.6997 0.0303345 15.9095 0.0303345 13C0.0303345 10.0906 1.1861 7.30034 3.24337 5.24307C5.30065 3.18579 8.09091 2.03003 11.0003 2.03003H12.0003L12.0133 3.03003L12.0003 12H21.9703V13C21.9672 15.9085 20.8104 18.6969 18.7538 20.7535C16.6972 22.8101 13.9088 23.9669 11.0003 23.97V23.97ZM10.0123 4.08503C8.3333 4.27127 6.74099 4.92786 5.41869 5.97922C4.09639 7.03058 3.09786 8.43398 2.53805 10.0279C1.97823 11.6217 1.87989 13.3413 2.25434 14.9886C2.62879 16.6359 3.46081 18.144 4.65463 19.3393C5.84844 20.5345 7.35552 21.3684 9.00237 21.7448C10.6492 22.1213 12.3689 22.025 13.9635 21.4671C15.558 20.9092 16.9626 19.9124 18.0156 18.5914C19.0685 17.2704 19.7271 15.6788 19.9153 14H10.0003L10.0123 4.08503Z" fill="#374957"/>
<path d="M16.0187 2.28818C17.3924 2.64755 18.6456 3.36603 19.6498 4.36985C20.654 5.37368 21.3729 6.62667 21.7327 8.00018H16.0187V2.28818ZM14.0187 0.0341797V10.0002H23.9867C23.9739 7.36066 22.9195 4.83294 21.0528 2.96669C19.1862 1.10043 16.6583 0.0465356 14.0187 0.0341797V0.0341797Z" fill="#374957"/>
</g>
<defs>
<clipPath id="clip0_403_3680">
<rect width="24" height="24" fill="white"/>
</clipPath>
</defs>
</svg>
