<svg width="24" height="24" viewBox="0 0 24 24" fill="none" xmlns="http://www.w3.org/2000/svg">
<g clip-path="url(#clip0_403_3650)">
<path d="M11.0391 22.0004V24.0004H13.0391V22.0004H22.9071L18.24 15.0004H20.907L16.9071 9.00041H19.1001C19.1001 9.00041 15.239 2.84408 13.8461 0.863423C13.8161 0.820767 13.7511 0.739064 13.7161 0.700439C12.9036 -0.197358 11.1095 -0.26228 10.3611 0.700439L4.94606 9.00041H7.17004L3.17006 15.0004H5.83608L1.17004 22.0004H11.0391ZM6.90703 13.0004L10.907 7.00039H8.63001L11.837 2.06338C11.9509 1.96152 12.1231 1.96152 12.237 2.06338L15.426 7.00039H13.17L17.17 13.0004H14.5L19.167 20.0004H4.90706L9.57408 13.0004H6.90703V13.0004Z" fill="#374957"/>
<path d="M10.038 18C10.5903 18 11.038 17.5523 11.038 17C11.038 16.4478 10.5903 16.0001 10.038 16.0001C9.4857 16.0001 9.03799 16.4478 9.03799 17C9.03799 17.5523 9.4857 18 10.038 18Z" fill="#374957"/>
<path d="M14.0379 18.9991C14.5902 18.9991 15.0379 18.5513 15.0379 17.9991C15.0379 17.4468 14.5902 16.9991 14.0379 16.9991C13.4857 16.9991 13.038 17.4468 13.038 17.9991C13.038 18.5513 13.4857 18.9991 14.0379 18.9991Z" fill="#374957"/>
<path d="M12.038 15C12.5903 15 13.038 14.5523 13.038 14C13.038 13.4478 12.5903 13.0001 12.038 13.0001C11.4857 13.0001 11.038 13.4478 11.038 14C11.038 14.5523 11.4857 15 12.038 15Z" fill="#374957"/>
<path d="M11.0379 11C11.5902 11 12.0379 10.5523 12.0379 9.99998C12.0379 9.44771 11.5902 9 11.0379 9C10.4857 9 10.038 9.44771 10.038 9.99998C10.038 10.5523 10.4857 11 11.0379 11Z" fill="#374957"/>
</g>
<defs>
<clipPath id="clip0_403_3650">
<rect width="24" height="24" fill="white"/>
</clipPath>
</defs>
</svg>
