<svg width="31" height="32" viewBox="0 0 31 32" fill="none" xmlns="http://www.w3.org/2000/svg">
<g clip-path="url(#clip0_403_3648)" filter="url(#filter0_d_403_3648)">
<path d="M17.5 13.0002C17.2033 13.0002 16.9133 12.9122 16.6666 12.7474C16.42 12.5826 16.2277 12.3483 16.1142 12.0742C16.0006 11.8001 15.9709 11.4985 16.0288 11.2075C16.0867 10.9166 16.2296 10.6493 16.4393 10.4395C16.6491 10.2297 16.9164 10.0869 17.2074 10.029C17.4983 9.97112 17.7999 10.0008 18.074 10.1144C18.3481 10.2279 18.5824 10.4201 18.7472 10.6668C18.912 10.9135 19 11.2035 19 11.5002C19 11.898 18.842 12.2795 18.5607 12.5608C18.2794 12.8421 17.8978 13.0002 17.5 13.0002ZM24.851 8.27418C24.4495 5.98993 23.2666 3.91624 21.5047 2.4081C19.7427 0.899953 17.5113 0.0511345 15.1925 0.00694369C12.8737 -0.0372471 10.6116 0.725938 8.79342 2.16586C6.97529 3.60577 5.71419 5.63288 5.226 7.90018L4.5 12.0002H6C7.79556 11.9891 9.56622 11.5792 11.184 10.8002C11.0656 11.0146 11.0023 11.2552 11 11.5002C10.9986 11.7914 11.0821 12.0768 11.2402 12.3214C11.3983 12.566 11.6242 12.7593 11.8903 12.8777C12.1564 12.9961 12.4512 13.0344 12.7388 12.988C13.0263 12.9417 13.2942 12.8126 13.5096 12.6166C13.725 12.4205 13.8787 12.166 13.9519 11.8841C14.025 11.6022 14.0146 11.3051 13.9217 11.029C13.8289 10.753 13.6577 10.5099 13.429 10.3295C13.2003 10.1491 12.9241 10.0392 12.634 10.0132C14.7676 8.682 16.5745 6.88808 17.921 4.76418C17.3321 4.43728 16.692 4.21276 16.028 4.10018C14.49 6.37918 11.217 9.56318 6.893 9.95918L7.188 8.29018C7.59636 6.43715 8.65007 4.7896 10.161 3.64173C11.6719 2.49385 13.5416 1.92039 15.4363 2.02374C17.3309 2.12709 19.1272 2.90052 20.5043 4.20593C21.8814 5.51134 22.7496 7.26373 22.954 9.15018L23.032 9.89518L23.77 10.0282C24.1343 10.0994 24.4593 10.3033 24.6821 10.6003C24.9048 10.8972 25.0095 11.2663 24.9759 11.636C24.9423 12.0057 24.7728 12.3498 24.5002 12.6018C24.2276 12.8538 23.8712 12.9957 23.5 13.0002C23.414 13.0002 22.413 12.8252 22.413 12.8252L22.131 13.6252C21.215 16.2212 18.13 19.0002 15 19.0002C11.974 19.0002 8.977 16.3812 7.959 13.8472C7.31057 13.9456 6.65584 13.9967 6 14.0002H5.88C5.942 14.1812 5.986 14.3002 6 14.3392C6.95053 16.7393 8.72248 18.7239 11 19.9392V24.0002H13V20.7322C13.6525 20.9063 14.3246 20.9964 15 21.0002V21.0002C15.6752 20.9974 16.3472 20.9087 17 20.7362V24.0002H19V19.9542C21.0641 18.8445 22.7215 17.1066 23.732 14.9922C24.5178 14.9386 25.2626 14.6215 25.8458 14.0922C26.4291 13.5629 26.8168 12.8523 26.9462 12.0754C27.0756 11.2984 26.9392 10.5006 26.559 9.81078C26.1788 9.12099 25.577 8.57961 24.851 8.27418V8.27418Z" fill="#374957"/>
</g>
<defs>
<filter id="filter0_d_403_3648" x="-1" y="0" width="32" height="32" filterUnits="userSpaceOnUse" color-interpolation-filters="sRGB">
<feFlood flood-opacity="0" result="BackgroundImageFix"/>
<feColorMatrix in="SourceAlpha" type="matrix" values="0 0 0 0 0 0 0 0 0 0 0 0 0 0 0 0 0 0 127 0" result="hardAlpha"/>
<feOffset dy="4"/>
<feGaussianBlur stdDeviation="2"/>
<feComposite in2="hardAlpha" operator="out"/>
<feColorMatrix type="matrix" values="0 0 0 0 0 0 0 0 0 0 0 0 0 0 0 0 0 0 0.25 0"/>
<feBlend mode="normal" in2="BackgroundImageFix" result="effect1_dropShadow_403_3648"/>
<feBlend mode="normal" in="SourceGraphic" in2="effect1_dropShadow_403_3648" result="shape"/>
</filter>
<clipPath id="clip0_403_3648">
<rect width="24" height="24" fill="white" transform="translate(3)"/>
</clipPath>
</defs>
</svg>
