<svg width="24" height="24" viewBox="0 0 24 24" fill="none" xmlns="http://www.w3.org/2000/svg">
<g clip-path="url(#clip0_403_3723)">
<path d="M19.9998 0H2.99983V3H0.999832V5H2.99983V7H0.999832V9H2.99983V11H0.999832V13H2.99983V15H0.999832V17H2.99983V19H0.999832V21H2.99983V24H19.9998C20.7955 24 21.5585 23.6839 22.1212 23.1213C22.6838 22.5587 22.9998 21.7956 22.9998 21V3C22.9998 2.20435 22.6838 1.44129 22.1212 0.87868C21.5585 0.31607 20.7955 0 19.9998 0V0ZM20.9998 21C20.9998 21.2652 20.8945 21.5196 20.7069 21.7071C20.5194 21.8946 20.265 22 19.9998 22H4.99983V2H19.9998C20.265 2 20.5194 2.10536 20.7069 2.29289C20.8945 2.48043 20.9998 2.73478 20.9998 3V21ZM12.9998 12C13.5932 12 14.1732 11.8241 14.6665 11.4944C15.1599 11.1648 15.5444 10.6962 15.7715 10.1481C15.9985 9.59987 16.0579 8.99667 15.9422 8.41473C15.8264 7.83279 15.5407 7.29824 15.1212 6.87868C14.7016 6.45912 14.167 6.1734 13.5851 6.05764C13.0032 5.94189 12.4 6.0013 11.8518 6.22836C11.3036 6.45542 10.8351 6.83994 10.5054 7.33329C10.1758 7.82664 9.99983 8.40666 9.99983 9C9.99983 9.79565 10.3159 10.5587 10.8785 11.1213C11.4411 11.6839 12.2042 12 12.9998 12ZM17.9998 16V18H15.9998V16C15.9998 15.7348 15.8945 15.4804 15.7069 15.2929C15.5194 15.1054 15.265 15 14.9998 15H10.9998C10.7346 15 10.4803 15.1054 10.2927 15.2929C10.1052 15.4804 9.99983 15.7348 9.99983 16V18H7.99983V16C7.99983 15.2044 8.3159 14.4413 8.87851 13.8787C9.44112 13.3161 10.2042 13 10.9998 13H14.9998C15.7955 13 16.5585 13.3161 17.1212 13.8787C17.6838 14.4413 17.9998 15.2044 17.9998 16Z" fill="#374957"/>
</g>
<defs>
<clipPath id="clip0_403_3723">
<rect width="24" height="24" fill="white"/>
</clipPath>
</defs>
</svg>
