<svg width="24" height="24" viewBox="0 0 24 24" fill="none" xmlns="http://www.w3.org/2000/svg">
<g clip-path="url(#clip0_403_3544)">
<path d="M19 0H3C2.20435 0 1.44129 0.31607 0.87868 0.87868C0.31607 1.44129 0 2.20435 0 3L0 24H24V5L19 0ZM7 2H17V6H7V2ZM22 22H2V3C2 2.73478 2.10536 2.48043 2.29289 2.29289C2.48043 2.10536 2.73478 2 3 2H5V8H19V2.828L22 5.828V22Z" fill="#374957"/>
<path d="M12.0001 9.99988C11.209 9.99988 10.4356 10.2345 9.77784 10.674C9.12005 11.1135 8.60736 11.7382 8.30461 12.4691C8.00186 13.2 7.92264 14.0043 8.07698 14.7802C8.23132 15.5562 8.61229 16.2689 9.1717 16.8283C9.73111 17.3877 10.4438 17.7687 11.2198 17.923C11.9957 18.0774 12.8 17.9981 13.5309 17.6954C14.2618 17.3926 14.8865 16.88 15.326 16.2222C15.7655 15.5644 16.0001 14.791 16.0001 13.9999C16.0001 12.939 15.5787 11.9216 14.8286 11.1715C14.0784 10.4213 13.061 9.99988 12.0001 9.99988V9.99988ZM12.0001 15.9999C11.6046 15.9999 11.2179 15.8826 10.889 15.6628C10.5601 15.4431 10.3037 15.1307 10.1524 14.7652C10.001 14.3998 9.96138 13.9977 10.0386 13.6097C10.1157 13.2217 10.3062 12.8654 10.5859 12.5857C10.8656 12.306 11.222 12.1155 11.6099 12.0383C11.9979 11.9611 12.4 12.0007 12.7655 12.1521C13.1309 12.3035 13.4433 12.5598 13.6631 12.8887C13.8828 13.2176 14.0001 13.6043 14.0001 13.9999C14.0001 14.5303 13.7894 15.039 13.4143 15.4141C13.0393 15.7892 12.5306 15.9999 12.0001 15.9999Z" fill="#374957"/>
</g>
<defs>
<clipPath id="clip0_403_3544">
<rect width="24" height="24" fill="white"/>
</clipPath>
</defs>
</svg>
