<svg width="24" height="24" viewBox="0 0 24 24" fill="none" xmlns="http://www.w3.org/2000/svg">
<g clip-path="url(#clip0_403_3748)">
<path d="M23.2589 16.1999L20.6589 6.82893C20.1037 4.82435 18.8939 3.06307 17.2221 1.82542C15.5504 0.587761 13.5127 -0.055148 11.4333 -0.000988358C9.35398 0.0531713 7.35251 0.801287 5.74744 2.12429C4.14237 3.4473 3.02594 5.26916 2.57585 7.29993L0.564854 16.3499C0.467547 16.7884 0.469921 17.2431 0.5718 17.6805C0.673679 18.1179 0.872464 18.5268 1.15349 18.8771C1.43451 19.2275 1.79061 19.5102 2.1955 19.7045C2.60039 19.8989 3.04374 19.9998 3.49285 19.9999H7.09985C7.32937 21.1302 7.94258 22.1464 8.8356 22.8763C9.72861 23.6062 10.8465 24.0049 11.9999 24.0049C13.1532 24.0049 14.2711 23.6062 15.1641 22.8763C16.0571 22.1464 16.6703 21.1302 16.8999 19.9999H20.3699C20.832 19.9997 21.2878 19.8928 21.7017 19.6874C22.1157 19.482 22.4766 19.1838 22.7564 18.816C23.0361 18.4482 23.2271 18.0207 23.3144 17.5669C23.4018 17.1131 23.3831 16.6453 23.2599 16.1999H23.2589ZM11.9999 21.9999C11.3816 21.9974 10.7792 21.8038 10.2752 21.4458C9.77109 21.0878 9.38994 20.5828 9.18385 19.9999H14.8159C14.6098 20.5828 14.2286 21.0878 13.7246 21.4458C13.2205 21.8038 12.6181 21.9974 11.9999 21.9999V21.9999ZM21.1649 17.6049C21.0716 17.7286 20.9506 17.8287 20.8117 17.8973C20.6728 17.9659 20.5198 18.0011 20.3649 17.9999H3.49285C3.34312 17.9999 3.19529 17.9663 3.0603 17.9015C2.92531 17.8367 2.80659 17.7424 2.71291 17.6256C2.61923 17.5087 2.55297 17.3724 2.51904 17.2265C2.48511 17.0807 2.48436 16.9291 2.51685 16.7829L4.52785 7.73293C4.88221 6.13914 5.75916 4.70953 7.01931 3.67138C8.27946 2.63322 9.85048 2.0461 11.4826 2.00334C13.1148 1.96058 14.7144 2.46465 16.0272 3.4354C17.3399 4.40615 18.2905 5.78787 18.7279 7.36093L21.3279 16.7319C21.3703 16.8801 21.3777 17.0361 21.3494 17.1877C21.3211 17.3392 21.2579 17.482 21.1649 17.6049V17.6049Z" fill="#374957"/>
</g>
<defs>
<clipPath id="clip0_403_3748">
<rect width="24" height="24" fill="white"/>
</clipPath>
</defs>
</svg>
