<svg width="24" height="24" viewBox="0 0 24 24" fill="none" xmlns="http://www.w3.org/2000/svg">
<path d="M22.4 21.9997L18.266 15.9997H21.085L16.8 9.99967H19.955L14.055 1.07068C13.8213 0.741474 13.5117 0.473357 13.1526 0.288975C12.7934 0.104592 12.3951 0.00935985 11.9913 0.0113212C11.5876 0.0132825 11.1903 0.11238 10.8329 0.300244C10.4755 0.488107 10.1686 0.759219 9.93804 1.09068L4.04404 9.99967H7.20004L2.91204 15.9997H5.73104L1.60004 21.9997H11V23.9997H13V21.9997H22.4ZM8.16004 15.9997H13.411L12.033 13.9997H6.80004L9.65804 9.99967H11.886L10.456 7.99967H7.76504L11.589 2.21468C11.6323 2.14775 11.6912 2.09239 11.7607 2.05342C11.8301 2.01444 11.9081 1.99304 11.9877 1.99107C12.0674 1.9891 12.1463 2.00662 12.2176 2.0421C12.289 2.07759 12.3506 2.12997 12.397 2.19468L16.235 7.99967H12.914L17.2 13.9997H14.462L18.6 19.9997H5.40004L8.16004 15.9997Z" fill="#374957"/>
</svg>
