<svg width="32" height="32" viewBox="0 0 32 32" fill="none" xmlns="http://www.w3.org/2000/svg">
<g clip-path="url(#clip0_403_3682)" filter="url(#filter0_d_403_3682)">
<path d="M26.922 1.7C26.5852 1.41773 26.1903 1.21329 25.7654 1.10128C25.3405 0.989266 24.8961 0.97244 24.464 1.052L18.284 2.175C17.3997 2.33446 16.5949 2.78755 16 3.461C15.4055 2.78644 14.6007 2.33226 13.716 2.172L7.536 1.049C7.10377 0.970515 6.65957 0.987911 6.2348 1.09996C5.81004 1.21201 5.41506 1.41598 5.07778 1.69746C4.74051 1.97893 4.46916 2.33105 4.28293 2.72892C4.09669 3.12679 4.00011 3.5607 4 4V20.834L16 23.017L28 20.834V4C28 3.56103 27.9035 3.12741 27.7172 2.72993C27.5309 2.33244 27.2594 1.98082 26.922 1.7V1.7ZM15 20.8L6 19.166V4C6.00012 3.85359 6.0324 3.709 6.09454 3.57643C6.15668 3.44386 6.24717 3.32655 6.35962 3.23279C6.47208 3.13903 6.60374 3.07111 6.74533 3.03383C6.88691 2.99654 7.03495 2.9908 7.179 3.017L13.358 4.14C13.8188 4.22385 14.2356 4.46677 14.5357 4.82641C14.8357 5.18606 15.0001 5.63962 15 6.108V20.8ZM26 19.164L17 20.8V6.108C16.9999 5.63962 17.1643 5.18606 17.4643 4.82641C17.7644 4.46677 18.1812 4.22385 18.642 4.14L24.821 3.017C24.965 2.9908 25.1131 2.99654 25.2547 3.03383C25.3963 3.07111 25.5279 3.13903 25.6404 3.23279C25.7528 3.32655 25.8433 3.44386 25.9055 3.57643C25.9676 3.709 25.9999 3.85359 26 4V19.164Z" fill="#374957"/>
</g>
<defs>
<filter id="filter0_d_403_3682" x="0" y="0" width="32" height="32" filterUnits="userSpaceOnUse" color-interpolation-filters="sRGB">
<feFlood flood-opacity="0" result="BackgroundImageFix"/>
<feColorMatrix in="SourceAlpha" type="matrix" values="0 0 0 0 0 0 0 0 0 0 0 0 0 0 0 0 0 0 127 0" result="hardAlpha"/>
<feOffset dy="4"/>
<feGaussianBlur stdDeviation="2"/>
<feComposite in2="hardAlpha" operator="out"/>
<feColorMatrix type="matrix" values="0 0 0 0 0 0 0 0 0 0 0 0 0 0 0 0 0 0 0.25 0"/>
<feBlend mode="normal" in2="BackgroundImageFix" result="effect1_dropShadow_403_3682"/>
<feBlend mode="normal" in="SourceGraphic" in2="effect1_dropShadow_403_3682" result="shape"/>
</filter>
<clipPath id="clip0_403_3682">
<rect width="24" height="24" fill="white" transform="translate(4)"/>
</clipPath>
</defs>
</svg>
