<svg width="24" height="24" viewBox="0 0 24 24" fill="none" xmlns="http://www.w3.org/2000/svg">
<g clip-path="url(#clip0_403_3599)">
<path d="M14.9996 6.48421V0.136213L1.28461 9.22921L1.25561 9.24921C0.866911 9.52675 0.550098 9.89308 0.331516 10.3177C0.112934 10.7424 -0.00109863 11.2131 -0.00109863 11.6907C-0.00109863 12.1683 0.112934 12.639 0.331516 13.0637C0.550098 13.4883 0.866911 13.8547 1.25561 14.1322L14.9996 23.9422V17.5142L23.9996 23.9422V0.0562134L14.9996 6.48421ZM21.9996 20.0562L12.9996 13.6272V20.0562L2.41861 12.5042C2.29005 12.4124 2.18507 12.2915 2.11226 12.1513C2.03945 12.0112 2.00088 11.8557 1.99971 11.6978C1.99854 11.5398 2.0348 11.3838 2.10553 11.2426C2.17625 11.1014 2.27943 10.9789 2.40661 10.8852L12.9996 3.86221V10.3712L21.9996 3.94221V20.0562Z" fill="#374957"/>
</g>
<defs>
<clipPath id="clip0_403_3599">
<rect width="24" height="24" fill="white"/>
</clipPath>
</defs>
</svg>
