<svg width="32" height="32" viewBox="0 0 32 32" fill="none" xmlns="http://www.w3.org/2000/svg">
<g clip-path="url(#clip0_403_3595)" filter="url(#filter0_d_403_3595)">
<path d="M26 12.184V8H24C24 2.56 21.028 0.291 20.9 0.2L20.637 0H19V1C19.0172 1.2671 18.9772 1.53479 18.8828 1.78524C18.7884 2.03568 18.6416 2.26311 18.4524 2.45237C18.2631 2.64163 18.0357 2.78836 17.7852 2.88279C17.5348 2.97723 17.2671 3.01718 17 3H14C12.5632 2.92373 11.1515 3.39867 10.053 4.32787C8.95452 5.25707 8.25205 6.57048 8.089 8H6V12.184C5.41709 12.3901 4.91209 12.7712 4.55409 13.2753C4.19608 13.7794 4.00256 14.3817 4 15L4 24H28V15C27.9974 14.3817 27.8039 13.7794 27.4459 13.2753C27.0879 12.7712 26.5829 12.3901 26 12.184V12.184ZM14 5H17C17.7431 5.00819 18.474 4.81055 19.1117 4.42896C19.7493 4.04736 20.269 3.49672 20.613 2.838C21.5826 4.38061 22.0659 6.17917 22 8H10.131C10.2912 7.11023 10.7752 6.3113 11.4896 5.75732C12.2041 5.20334 13.0984 4.93355 14 5V5ZM24 10V12H8V10H24ZM26 22H6V15C6 14.7348 6.10536 14.4804 6.29289 14.2929C6.48043 14.1054 6.73478 14 7 14H25C25.2652 14 25.5196 14.1054 25.7071 14.2929C25.8946 14.4804 26 14.7348 26 15V22Z" fill="#374957"/>
</g>
<defs>
<filter id="filter0_d_403_3595" x="0" y="0" width="32" height="32" filterUnits="userSpaceOnUse" color-interpolation-filters="sRGB">
<feFlood flood-opacity="0" result="BackgroundImageFix"/>
<feColorMatrix in="SourceAlpha" type="matrix" values="0 0 0 0 0 0 0 0 0 0 0 0 0 0 0 0 0 0 127 0" result="hardAlpha"/>
<feOffset dy="4"/>
<feGaussianBlur stdDeviation="2"/>
<feComposite in2="hardAlpha" operator="out"/>
<feColorMatrix type="matrix" values="0 0 0 0 0 0 0 0 0 0 0 0 0 0 0 0 0 0 0.25 0"/>
<feBlend mode="normal" in2="BackgroundImageFix" result="effect1_dropShadow_403_3595"/>
<feBlend mode="normal" in="SourceGraphic" in2="effect1_dropShadow_403_3595" result="shape"/>
</filter>
<clipPath id="clip0_403_3595">
<rect width="24" height="24" fill="white" transform="translate(4)"/>
</clipPath>
</defs>
</svg>
