<svg width="32" height="32" viewBox="0 0 32 32" fill="none" xmlns="http://www.w3.org/2000/svg">
<g clip-path="url(#clip0_403_3692)" filter="url(#filter0_d_403_3692)">
<path d="M27.0998 0.899665C26.5161 0.343687 25.7409 0.0335693 24.9348 0.0335693C24.1287 0.0335693 23.3535 0.343687 22.7698 0.899665L11.5628 12.0997C11.2142 12.0326 10.8599 11.9991 10.5048 11.9997C9.78301 11.9976 9.06797 12.1387 8.4011 12.4149C7.73423 12.6911 7.12878 13.0969 6.6198 13.6087C4.6998 15.5327 4.1858 21.6277 4.0998 22.8297L4.0238 23.9757L5.1688 23.8957C6.3688 23.8137 12.4688 23.3027 14.3908 21.3797C15.0266 20.7421 15.4959 19.958 15.7575 19.0964C16.019 18.2348 16.0648 17.3221 15.8908 16.4387L27.0998 5.22967C27.6725 4.65467 27.994 3.87619 27.994 3.06466C27.994 2.25314 27.6725 1.47466 27.0998 0.899665V0.899665ZM12.9768 19.9657C12.0468 20.8947 8.7098 21.5257 6.2028 21.7957C6.4858 19.1957 7.1458 15.9117 8.0338 15.0227C8.70005 14.4226 9.57117 14.1011 10.4675 14.1245C11.3638 14.1479 12.217 14.5145 12.851 15.1485C13.485 15.7825 13.8515 16.6356 13.8749 17.532C13.8983 18.4283 13.5769 19.2994 12.9768 19.9657V19.9657ZM25.6878 3.81566L15.0668 14.4377C14.6722 13.8402 14.1622 13.3275 13.5668 12.9297L24.1838 2.31166C24.3858 2.11874 24.6545 2.01109 24.9338 2.01109C25.2132 2.01109 25.4818 2.11874 25.6838 2.31166C25.783 2.41006 25.8618 2.52705 25.9157 2.65595C25.9696 2.78485 25.9975 2.92312 25.9979 3.06283C25.9983 3.20255 25.9711 3.34096 25.9179 3.47015C25.8647 3.59933 25.7865 3.71675 25.6878 3.81566V3.81566Z" fill="#374957"/>
</g>
<defs>
<filter id="filter0_d_403_3692" x="0" y="0" width="32" height="32" filterUnits="userSpaceOnUse" color-interpolation-filters="sRGB">
<feFlood flood-opacity="0" result="BackgroundImageFix"/>
<feColorMatrix in="SourceAlpha" type="matrix" values="0 0 0 0 0 0 0 0 0 0 0 0 0 0 0 0 0 0 127 0" result="hardAlpha"/>
<feOffset dy="4"/>
<feGaussianBlur stdDeviation="2"/>
<feComposite in2="hardAlpha" operator="out"/>
<feColorMatrix type="matrix" values="0 0 0 0 0 0 0 0 0 0 0 0 0 0 0 0 0 0 0.25 0"/>
<feBlend mode="normal" in2="BackgroundImageFix" result="effect1_dropShadow_403_3692"/>
<feBlend mode="normal" in="SourceGraphic" in2="effect1_dropShadow_403_3692" result="shape"/>
</filter>
<clipPath id="clip0_403_3692">
<rect width="24" height="24" fill="white" transform="translate(4)"/>
</clipPath>
</defs>
</svg>
