<svg width="32" height="32" viewBox="0 0 32 32" fill="none" xmlns="http://www.w3.org/2000/svg">
<g clip-path="url(#clip0_403_3646)" filter="url(#filter0_d_403_3646)">
<path d="M20.7926 14.9999C20.8246 14.9999 20.7616 14.9999 20.7926 14.9999V14.9999ZM25.1926 13.5649C28.4716 16.7999 26.4926 21.8849 24.9356 23.5139L24.5356 23.9739L23.9436 23.8249C21.2997 23.0872 18.9019 21.6545 16.9996 19.6759V22.0189H14.9996V19.6759C13.0988 21.6554 10.7024 23.0894 8.05956 23.8289L7.46756 23.9779L7.06756 23.5179C5.48256 21.7849 3.54156 17.0179 6.86756 13.6129C6.02422 13.0006 5.32963 12.2062 4.83537 11.2886C4.34112 10.3711 4.05989 9.35402 4.01256 8.31291C3.98416 6.2883 4.4554 4.28793 5.38456 2.48891C5.75269 1.85559 6.33981 1.37885 7.03521 1.14859C7.7306 0.918327 8.48622 0.950451 9.15956 1.23891C11.782 2.52556 14.1106 4.33976 15.9996 6.5679C17.8885 4.33976 20.2171 2.52556 22.8396 1.23891C23.5127 0.950647 24.268 0.918522 24.9631 1.14858C25.6583 1.37865 26.2453 1.85501 26.6136 2.48791C27.5461 4.28706 28.0202 6.2886 27.9936 8.31491C27.9483 9.34439 27.6731 10.3507 27.188 11.2599C26.703 12.169 26.0205 12.958 25.1906 13.5689L25.1926 13.5649ZM14.9996 14.2999C13.7936 14.7817 12.5041 15.0197 11.2056 14.9999C10.3528 15.0202 9.50358 14.8847 8.69956 14.5999C6.29956 16.6399 6.82656 19.7849 8.19956 21.7059C11.5076 20.6189 14.9996 17.5669 14.9996 15.6429V14.2999ZM14.9996 8.47691C13.2098 6.22471 10.9543 4.38605 8.38756 3.08691C8.16541 2.98693 7.91439 2.97149 7.68166 3.04348C7.44892 3.11547 7.25047 3.26995 7.12356 3.47791C6.37687 4.9534 5.99162 6.58525 5.99956 8.23891C6.09352 9.54303 6.68188 10.7621 7.64446 11.6469C8.60703 12.5318 9.87116 13.0158 11.1786 12.9999C12.5277 13.0815 13.8673 12.7271 14.9996 11.9889V8.47691ZM24.9996 18.0089C24.9867 17.3495 24.8309 16.7006 24.5429 16.1073C24.255 15.5139 23.8417 14.99 23.3316 14.5719C22.5151 14.8569 21.6564 15.0022 20.7916 15.0019C19.4936 15.0208 18.2047 14.7822 16.9996 14.2999V15.6409C16.9996 17.5649 20.4916 20.6169 23.7916 21.6999C24.5374 20.6104 24.9565 19.3305 24.9996 18.0109V18.0089ZM25.9996 8.23891C26.009 6.58544 25.6247 4.95347 24.8786 3.47791C24.7517 3.27019 24.5534 3.11588 24.3209 3.0439C24.0884 2.97192 23.8376 2.98721 23.6156 3.08691C21.0472 4.38615 18.7903 6.22553 16.9996 8.47891V11.9889C18.1315 12.7269 19.4708 13.0813 20.8196 12.9999C22.1315 13.0318 23.4046 12.5533 24.3708 11.6653C25.337 10.7772 25.9209 9.54888 25.9996 8.23891V8.23891ZM15.9996 3.98491C16.5309 3.98491 17.0405 3.77382 17.4163 3.39809C17.792 3.02236 18.0031 2.51277 18.0031 1.98141C18.0031 1.45004 17.792 0.940446 17.4163 0.564717C17.0405 0.188988 16.5309 -0.0220947 15.9996 -0.0220947C15.4682 -0.0220947 14.9586 0.188988 14.5829 0.564717C14.2071 0.940446 13.9961 1.45004 13.9961 1.98141C13.9961 2.51277 14.2071 3.02236 14.5829 3.39809C14.9586 3.77382 15.4682 3.98491 15.9996 3.98491V3.98491Z" fill="#374957"/>
</g>
<defs>
<filter id="filter0_d_403_3646" x="0" y="0" width="32" height="32" filterUnits="userSpaceOnUse" color-interpolation-filters="sRGB">
<feFlood flood-opacity="0" result="BackgroundImageFix"/>
<feColorMatrix in="SourceAlpha" type="matrix" values="0 0 0 0 0 0 0 0 0 0 0 0 0 0 0 0 0 0 127 0" result="hardAlpha"/>
<feOffset dy="4"/>
<feGaussianBlur stdDeviation="2"/>
<feComposite in2="hardAlpha" operator="out"/>
<feColorMatrix type="matrix" values="0 0 0 0 0 0 0 0 0 0 0 0 0 0 0 0 0 0 0.25 0"/>
<feBlend mode="normal" in2="BackgroundImageFix" result="effect1_dropShadow_403_3646"/>
<feBlend mode="normal" in="SourceGraphic" in2="effect1_dropShadow_403_3646" result="shape"/>
</filter>
<clipPath id="clip0_403_3646">
<rect width="24" height="24" fill="white" transform="translate(4)"/>
</clipPath>
</defs>
</svg>
