<svg width="24" height="24" viewBox="0 0 24 24" fill="none" xmlns="http://www.w3.org/2000/svg">
<g clip-path="url(#clip0_403_3651)">
<path d="M8.00006 20.149V24H16.0001V20.315C15.9805 19.4626 16.1426 18.6157 16.4757 17.8309C16.8089 17.046 17.3053 16.3411 17.9321 15.763C19.2999 14.564 20.2724 12.9787 20.7213 11.2159C21.1702 9.45322 21.0745 7.59585 20.4467 5.88864C19.8189 4.18143 18.6885 2.70452 17.2046 1.65257C15.7206 0.600621 13.9527 0.023012 12.134 -0.0041249C10.3152 -0.0312618 8.53087 0.493347 7.01621 1.50056C5.50154 2.50776 4.32761 3.95029 3.64916 5.63801C2.97071 7.32573 2.81958 9.17942 3.21568 10.9547C3.61179 12.7301 4.53655 14.3437 5.86806 15.583C6.52026 16.1549 7.04654 16.8561 7.41354 17.6421C7.78054 18.4281 7.98027 19.2817 8.00006 20.149V20.149ZM14.0001 22H10.0001V20.149C10.0001 20.099 9.99306 20.049 9.99206 20H14.0161C14.0161 20.105 14.0001 20.209 14.0001 20.315V22ZM5.06006 8.07497C5.20872 6.95315 5.62714 5.88409 6.27947 4.9594C6.93179 4.03471 7.79858 3.28195 8.80556 2.76563C9.81253 2.24931 10.9297 1.98482 12.0613 1.99482C13.1928 2.00482 14.3051 2.28902 15.3028 2.82306C16.3005 3.35709 17.1539 4.12505 17.7897 5.06112C18.4256 5.9972 18.8251 7.07349 18.9539 8.19776C19.0827 9.32203 18.937 10.4608 18.5293 11.5164C18.1217 12.5721 17.4641 13.5131 16.6131 14.259C15.5001 15.2555 14.703 16.5559 14.3201 18H13.0001V10.816C13.583 10.6099 14.088 10.2287 14.446 9.72467C14.804 9.2206 14.9975 8.61823 15.0001 7.99997H13.0001C13.0001 8.26519 12.8947 8.51954 12.7072 8.70708C12.5196 8.89461 12.2653 8.99997 12.0001 8.99997C11.7348 8.99997 11.4805 8.89461 11.293 8.70708C11.1054 8.51954 11.0001 8.26519 11.0001 7.99997H9.00006C9.00262 8.61823 9.19614 9.2206 9.55415 9.72467C9.91215 10.2287 10.4171 10.6099 11.0001 10.816V18H9.67806C9.22705 16.5092 8.38117 15.1682 7.23006 14.119C6.4096 13.3598 5.78405 12.4142 5.40633 11.3622C5.02861 10.3102 4.90984 9.18262 5.06006 8.07497V8.07497Z" fill="#374957"/>
</g>
<defs>
<clipPath id="clip0_403_3651">
<rect width="24" height="24" fill="white"/>
</clipPath>
</defs>
</svg>
