<svg width="24" height="24" viewBox="0 0 24 24" fill="none" xmlns="http://www.w3.org/2000/svg">
<g clip-path="url(#clip0_403_3360)">
<path d="M10.0002 5.99967C10.8526 6.00331 11.6815 6.27985 12.3653 6.78876C13.0491 7.29767 13.552 8.0122 13.8002 8.82767L15.9772 9.61867C15.9053 8.46604 15.5023 7.35867 14.8165 6.42946C14.1307 5.50025 13.1914 4.78869 12.1112 4.3802C11.031 3.9717 9.85582 3.88363 8.72679 4.12655C7.59777 4.36947 6.56283 4.93306 5.74622 5.74967C4.92961 6.56628 4.36602 7.60121 4.1231 8.73024C3.88018 9.85927 3.96825 11.0344 4.37675 12.1146C4.78524 13.1948 5.4968 14.1342 6.42601 14.8199C7.35522 15.5057 8.46259 15.9087 9.61522 15.9807L8.82822 13.7997C7.91531 13.5191 7.13341 12.9202 6.6247 12.1119C6.11598 11.3036 5.91424 10.3396 6.05615 9.3951C6.19806 8.45064 6.6742 7.58847 7.39799 6.96536C8.12178 6.34225 9.04516 5.99959 10.0002 5.99967V5.99967Z" fill="#374957"/>
<path d="M10 18.0001C8.41778 18.0001 6.87106 17.5309 5.55547 16.6518C4.23987 15.7728 3.21449 14.5233 2.60899 13.0615C2.00349 11.5997 1.84506 9.99118 2.15375 8.43934C2.46243 6.88749 3.22435 5.46202 4.34317 4.3432C5.46199 3.22438 6.88746 2.46246 8.43931 2.15378C9.99115 1.84509 11.5997 2.00352 13.0615 2.60902C14.5233 3.21452 15.7727 4.2399 16.6518 5.5555C17.5308 6.87109 18 8.41781 18 10.0001C18 10.1171 17.987 10.2311 17.982 10.3471L19.942 11.0601C20.1647 8.99917 19.7425 6.91994 18.7336 5.10914C17.7247 3.29834 16.1788 1.84517 14.3092 0.950036C12.4395 0.0549033 10.3382 -0.23809 8.295 0.111461C6.25179 0.461013 4.36737 1.43589 2.90161 2.90164C1.43586 4.3674 0.460983 6.25182 0.111431 8.29503C-0.238121 10.3382 0.0548728 12.4396 0.950005 14.3092C1.84514 16.1789 3.29831 17.7247 5.10911 18.7336C6.91991 19.7425 8.99914 20.1648 11.06 19.9421L10.347 17.9821C10.231 17.9871 10.117 18.0001 10 18.0001Z" fill="#374957"/>
<path d="M24.0001 14.7787L13.5381 10.9787C13.1805 10.8488 12.7933 10.8236 12.4219 10.906C12.0505 10.9884 11.7103 11.1751 11.4412 11.444C11.1721 11.713 10.9854 12.0531 10.9028 12.4245C10.8202 12.7959 10.8453 13.1831 10.9751 13.5407L14.7791 23.9997L18.6791 20.0997L21.4721 22.8927L22.8861 21.4787L20.1001 18.6827L24.0001 14.7787ZM15.5861 20.3647L12.8551 12.8547L20.3651 15.5857L15.5861 20.3647Z" fill="#374957"/>
</g>
<defs>
<clipPath id="clip0_403_3360">
<rect width="24" height="24" fill="white"/>
</clipPath>
</defs>
</svg>
