<svg width="24" height="24" viewBox="0 0 24 24" fill="none" xmlns="http://www.w3.org/2000/svg">
<g clip-path="url(#clip0_403_3639)">
<path d="M21 2H18V0H16V2H8V0H6V2H3C2.20435 2 1.44129 2.31607 0.87868 2.87868C0.31607 3.44129 0 4.20435 0 5L0 24H24V5C24 4.20435 23.6839 3.44129 23.1213 2.87868C22.5587 2.31607 21.7956 2 21 2ZM2 5C2 4.73478 2.10536 4.48043 2.29289 4.29289C2.48043 4.10536 2.73478 4 3 4H21C21.2652 4 21.5196 4.10536 21.7071 4.29289C21.8946 4.48043 22 4.73478 22 5V8H2V5ZM2 22V10H22V22H2Z" fill="#374957"/>
<path d="M17 13.0001H15V15.0001H17V13.0001Z" fill="#374957"/>
<path d="M13.0002 13.0001H11.0002V15.0001H13.0002V13.0001Z" fill="#374957"/>
<path d="M8.99981 13.0001H6.99982V15.0001H8.99981V13.0001Z" fill="#374957"/>
<path d="M17 17.0001H15V19.0001H17V17.0001Z" fill="#374957"/>
<path d="M13.0002 17.0001H11.0002V19.0001H13.0002V17.0001Z" fill="#374957"/>
<path d="M8.99981 17.0001H6.99982V19.0001H8.99981V17.0001Z" fill="#374957"/>
</g>
<defs>
<clipPath id="clip0_403_3639">
<rect width="24" height="24" fill="white"/>
</clipPath>
</defs>
</svg>
