<svg width="24" height="24" viewBox="0 0 24 24" fill="none" xmlns="http://www.w3.org/2000/svg">
<g clip-path="url(#clip0_403_3605)">
<path d="M4 23.9999L5.333 21.3329L8 19.9999L5.333 18.6669L4 15.9999L2.667 18.6669L0 19.9999L2.667 21.3329L4 23.9999Z" fill="#374957"/>
<path d="M21.3328 21.3329L23.9998 19.9999L21.3328 18.6669L19.9998 15.9999L18.6668 18.6669L15.9998 19.9999L18.6668 21.3329L19.9998 23.9999L21.3328 21.3329Z" fill="#374957"/>
<path d="M13.3331 2.667L12.0001 0L10.6671 2.667L8.00015 4L10.6671 5.333L12.0001 8L13.3331 5.333L16.0001 4L13.3331 2.667Z" fill="#374957"/>
<path d="M4.99985 14C5.55213 14 5.99984 13.5523 5.99984 13C5.99984 12.4477 5.55213 12 4.99985 12C4.44756 12 3.99985 12.4477 3.99985 13C3.99985 13.5523 4.44756 14 4.99985 14Z" fill="#374957"/>
<path d="M1 10.0001C1.55228 10.0001 2 9.5524 2 9.00012C2 8.44784 1.55228 8.00012 1 8.00012C0.447715 8.00012 0 8.44784 0 9.00012C0 9.5524 0.447715 10.0001 1 10.0001Z" fill="#374957"/>
<path d="M4.99985 5.99987C5.55213 5.99987 5.99984 5.55216 5.99984 4.99988C5.99984 4.44759 5.55213 3.99988 4.99985 3.99988C4.44756 3.99988 3.99985 4.44759 3.99985 4.99988C3.99985 5.55216 4.44756 5.99987 4.99985 5.99987Z" fill="#374957"/>
<path d="M1 2C1.55228 2 2 1.55228 2 1C2 0.447715 1.55228 0 1 0C0.447715 0 0 0.447715 0 1C0 1.55228 0.447715 2 1 2Z" fill="#374957"/>
<path d="M22.9998 14C23.5521 14 23.9998 13.5523 23.9998 13C23.9998 12.4477 23.5521 12 22.9998 12C22.4476 12 21.9998 12.4477 21.9998 13C21.9998 13.5523 22.4476 14 22.9998 14Z" fill="#374957"/>
<path d="M19 10.0001C19.5523 10.0001 20 9.5524 20 9.00012C20 8.44784 19.5523 8.00012 19 8.00012C18.4477 8.00012 18 8.44784 18 9.00012C18 9.5524 18.4477 10.0001 19 10.0001Z" fill="#374957"/>
<path d="M22.9998 5.99987C23.5521 5.99987 23.9998 5.55216 23.9998 4.99988C23.9998 4.44759 23.5521 3.99988 22.9998 3.99988C22.4476 3.99988 21.9998 4.44759 21.9998 4.99988C21.9998 5.55216 22.4476 5.99987 22.9998 5.99987Z" fill="#374957"/>
<path d="M19 2C19.5523 2 20 1.55228 20 1C20 0.447715 19.5523 0 19 0C18.4477 0 18 0.447715 18 1C18 1.55228 18.4477 2 19 2Z" fill="#374957"/>
<path d="M13.9999 23.9999C14.5521 23.9999 14.9999 23.5521 14.9999 22.9999C14.9999 22.4476 14.5521 21.9999 13.9999 21.9999C13.4476 21.9999 12.9998 22.4476 12.9998 22.9999C12.9998 23.5521 13.4476 23.9999 13.9999 23.9999Z" fill="#374957"/>
<path d="M10 20C10.5523 20 11 19.5523 11 19C11 18.4477 10.5523 18 10 18C9.44771 18 9 18.4477 9 19C9 19.5523 9.44771 20 10 20Z" fill="#374957"/>
<path d="M13.9999 16.0001C14.5521 16.0001 14.9999 15.5524 14.9999 15.0001C14.9999 14.4478 14.5521 14.0001 13.9999 14.0001C13.4476 14.0001 12.9998 14.4478 12.9998 15.0001C12.9998 15.5524 13.4476 16.0001 13.9999 16.0001Z" fill="#374957"/>
<path d="M10 11.9999C10.5523 11.9999 11 11.5522 11 10.9999C11 10.4476 10.5523 9.99988 10 9.99988C9.44771 9.99988 9 10.4476 9 10.9999C9 11.5522 9.44771 11.9999 10 11.9999Z" fill="#374957"/>
</g>
<defs>
<clipPath id="clip0_403_3605">
<rect width="24" height="24" fill="white"/>
</clipPath>
</defs>
</svg>
