<svg width="32" height="32" viewBox="0 0 32 32" fill="none" xmlns="http://www.w3.org/2000/svg">
<g clip-path="url(#clip0_403_3619)" filter="url(#filter0_d_403_3619)">
<path d="M28 14.9998C27.9947 13.1913 27.3784 11.4377 26.2511 10.0234C25.1239 8.60919 23.5518 7.61735 21.79 7.20885C21.4773 5.84071 20.8097 4.5791 19.8544 3.55099C18.8991 2.52288 17.6898 1.76457 16.3483 1.35237C15.0068 0.940171 13.5804 0.888638 12.2126 1.20296C10.8448 1.51728 9.584 2.18635 8.55702 3.14285L5.45702 0.0428467L4.04302 1.45685L26.543 23.9568L27.957 22.5428L25.857 20.4428C27.236 18.9661 28.0021 17.0204 28 14.9998V14.9998ZM14 2.99985C15.4509 3.00375 16.8513 3.53236 17.9429 4.48811C19.0345 5.44386 19.7435 6.76222 19.939 8.19985L20.039 8.95785L20.798 9.05785C21.8819 9.20097 22.9059 9.63828 23.7589 10.3223C24.6118 11.0063 25.2611 11.9109 25.6362 12.9379C26.0113 13.9648 26.098 15.0749 25.8867 16.1477C25.6755 17.2204 25.1745 18.2148 24.438 19.0228L9.97301 4.55885C11.0747 3.55633 12.5105 3.00047 14 2.99985ZM20.7 20.9398L22.387 22.6278C21.6148 22.872 20.8099 22.9974 20 22.9998H9.50002C8.276 23.0014 7.08658 22.5938 6.12072 21.842C5.15487 21.0901 4.46798 20.037 4.16919 18.85C3.87041 17.663 3.97686 16.4102 4.47164 15.2906C4.96642 14.1711 5.82115 13.249 6.90002 12.6708C6.30785 11.5379 5.99904 10.2783 6.00002 8.99985C6.00258 8.19027 6.12801 7.38578 6.37202 6.61385L8.06202 8.29985C8.02714 8.5317 8.00644 8.76547 8.00002 8.99985C7.99886 10.284 8.41354 11.534 9.18202 12.5628L10.066 13.7548L8.62802 14.1258C7.80278 14.336 7.08282 14.8406 6.60365 15.5446C6.12449 16.2485 5.91917 17.1034 6.02633 17.9482C6.1335 18.793 6.54577 19.5695 7.18553 20.1315C7.8253 20.6936 8.64844 21.0024 9.50002 20.9998H20C20.2343 20.9935 20.468 20.9734 20.7 20.9398V20.9398Z" fill="#374957"/>
</g>
<defs>
<filter id="filter0_d_403_3619" x="0" y="0" width="32" height="32" filterUnits="userSpaceOnUse" color-interpolation-filters="sRGB">
<feFlood flood-opacity="0" result="BackgroundImageFix"/>
<feColorMatrix in="SourceAlpha" type="matrix" values="0 0 0 0 0 0 0 0 0 0 0 0 0 0 0 0 0 0 127 0" result="hardAlpha"/>
<feOffset dy="4"/>
<feGaussianBlur stdDeviation="2"/>
<feComposite in2="hardAlpha" operator="out"/>
<feColorMatrix type="matrix" values="0 0 0 0 0 0 0 0 0 0 0 0 0 0 0 0 0 0 0.25 0"/>
<feBlend mode="normal" in2="BackgroundImageFix" result="effect1_dropShadow_403_3619"/>
<feBlend mode="normal" in="SourceGraphic" in2="effect1_dropShadow_403_3619" result="shape"/>
</filter>
<clipPath id="clip0_403_3619">
<rect width="24" height="24" fill="white" transform="translate(4)"/>
</clipPath>
</defs>
</svg>
