<svg width="32" height="30" viewBox="0 0 32 30" fill="none" xmlns="http://www.w3.org/2000/svg">
<g clip-path="url(#clip0_403_3313)" filter="url(#filter0_d_403_3313)">
<path d="M14 2.00061H4V4.00061H7V7.00061H4V9.00061H23.732C25.0071 10.7604 25.7771 12.8351 25.959 15.0006H4V17.0006H28V16.0006C27.996 12.2888 26.5198 8.73015 23.8951 6.1055C21.2705 3.48085 17.7118 2.00458 14 2.00061V2.00061ZM21.914 7.00061H14V4.00061C16.9158 4.00065 19.7308 5.06775 21.914 7.00061V7.00061ZM9 4.00061H12V7.00061H9V4.00061ZM4 20.0006H28V22.0006H4V20.0006Z" fill="#374957"/>
</g>
<defs>
<filter id="filter0_d_403_3313" x="0" y="0" width="32" height="32" filterUnits="userSpaceOnUse" color-interpolation-filters="sRGB">
<feFlood flood-opacity="0" result="BackgroundImageFix"/>
<feColorMatrix in="SourceAlpha" type="matrix" values="0 0 0 0 0 0 0 0 0 0 0 0 0 0 0 0 0 0 127 0" result="hardAlpha"/>
<feOffset dy="4"/>
<feGaussianBlur stdDeviation="2"/>
<feComposite in2="hardAlpha" operator="out"/>
<feColorMatrix type="matrix" values="0 0 0 0 0 0 0 0 0 0 0 0 0 0 0 0 0 0 0.25 0"/>
<feBlend mode="normal" in2="BackgroundImageFix" result="effect1_dropShadow_403_3313"/>
<feBlend mode="normal" in="SourceGraphic" in2="effect1_dropShadow_403_3313" result="shape"/>
</filter>
<clipPath id="clip0_403_3313">
<rect width="24" height="24" fill="white" transform="translate(4)"/>
</clipPath>
</defs>
</svg>
