<svg width="24" height="24" viewBox="0 0 24 24" fill="none" xmlns="http://www.w3.org/2000/svg">
<g clip-path="url(#clip0_403_3462)">
<path d="M21 24H3C2.20435 24 1.44129 23.6839 0.87868 23.1213C0.31607 22.5587 0 21.7956 0 21L0 12H8V14C8 14.5304 8.21071 15.0391 8.58579 15.4142C8.96086 15.7893 9.46957 16 10 16H14C14.5304 16 15.0391 15.7893 15.4142 15.4142C15.7893 15.0391 16 14.5304 16 14V12H24V21C24 21.7956 23.6839 22.5587 23.1213 23.1213C22.5587 23.6839 21.7956 24 21 24ZM2 14V21C2 21.2652 2.10536 21.5196 2.29289 21.7071C2.48043 21.8946 2.73478 22 3 22H21C21.2652 22 21.5196 21.8946 21.7071 21.7071C21.8946 21.5196 22 21.2652 22 21V14H18C18 15.0609 17.5786 16.0783 16.8284 16.8284C16.0783 17.5786 15.0609 18 14 18H10C8.93913 18 7.92172 17.5786 7.17157 16.8284C6.42143 16.0783 6 15.0609 6 14H2Z" fill="#374957"/>
<path d="M22.0002 8.00049H2.00015V10.0005H22.0002V8.00049Z" fill="#374957"/>
<path d="M22.0002 4.00024H2.00015V6.00024H22.0002V4.00024Z" fill="#374957"/>
</g>
<defs>
<clipPath id="clip0_403_3462">
<rect width="24" height="24" fill="white"/>
</clipPath>
</defs>
</svg>
