<svg width="24" height="24" viewBox="0 0 24 24" fill="none" xmlns="http://www.w3.org/2000/svg">
<g clip-path="url(#clip0_403_3532)">
<path d="M20 0C18.9391 0 17.9217 0.421427 17.1716 1.17157C16.4214 1.92172 16 2.93913 16 4H18C18 3.46957 18.2107 2.96086 18.5858 2.58579C18.9609 2.21071 19.4696 2 20 2H22V15.026C21.1396 14.3642 20.0855 14.0037 19 14C17.8478 14.0015 16.7313 14.4001 15.8388 15.1287C14.9462 15.8573 14.3321 16.8714 14.1 18H9.9C9.66791 16.8714 9.05382 15.8573 8.16125 15.1287C7.26868 14.4001 6.15221 14.0015 5 14C3.91453 14.0037 2.86039 14.3642 2 15.026V2H4C4.53044 2 5.03914 2.21071 5.41422 2.58579C5.78929 2.96086 6 3.46957 6 4H8C8 2.93913 7.57858 1.92172 6.82843 1.17157C6.07828 0.421427 5.06087 0 4 0L2.52786e-06 0V19C-0.00124362 20.24 0.458283 21.4361 1.28938 22.3563C2.12047 23.2765 3.26383 23.8551 4.49751 23.9797C5.73118 24.1043 6.96715 23.7661 7.96548 23.0307C8.9638 22.2953 9.65326 21.2152 9.9 20H14.1C14.3467 21.2152 15.0362 22.2953 16.0345 23.0307C17.0329 23.7661 18.2688 24.1043 19.5025 23.9797C20.7362 23.8551 21.8795 23.2765 22.7106 22.3563C23.5417 21.4361 24.0012 20.24 24 19V0H20ZM5 22C4.40666 22 3.82664 21.8241 3.33329 21.4944C2.83994 21.1648 2.45543 20.6962 2.22836 20.1481C2.0013 19.5999 1.94189 18.9967 2.05765 18.4147C2.1734 17.8328 2.45912 17.2982 2.87868 16.8787C3.29824 16.4591 3.83279 16.1734 4.41473 16.0576C4.99667 15.9419 5.59987 16.0013 6.14805 16.2284C6.69623 16.4554 7.16477 16.8399 7.49441 17.3333C7.82406 17.8266 8 18.4067 8 19C8 19.7957 7.68393 20.5587 7.12132 21.1213C6.55871 21.6839 5.79565 22 5 22ZM19 22C18.4067 22 17.8266 21.8241 17.3333 21.4944C16.8399 21.1648 16.4554 20.6962 16.2284 20.1481C16.0013 19.5999 15.9419 18.9967 16.0576 18.4147C16.1734 17.8328 16.4591 17.2982 16.8787 16.8787C17.2982 16.4591 17.8328 16.1734 18.4147 16.0576C18.9967 15.9419 19.5999 16.0013 20.1481 16.2284C20.6962 16.4554 21.1648 16.8399 21.4944 17.3333C21.8241 17.8266 22 18.4067 22 19C22 19.7957 21.6839 20.5587 21.1213 21.1213C20.5587 21.6839 19.7957 22 19 22Z" fill="#374957"/>
</g>
<defs>
<clipPath id="clip0_403_3532">
<rect width="24" height="24" fill="white"/>
</clipPath>
</defs>
</svg>
