<svg width="24" height="24" viewBox="0 0 24 24" fill="none" xmlns="http://www.w3.org/2000/svg">
<g clip-path="url(#clip0_403_3636)">
<path d="M22 15C22 14.2043 21.6839 13.4413 21.1213 12.8787C20.5587 12.3161 19.7956 12 19 12V9.99999C18.997 9.35079 18.7834 8.7201 18.3914 8.2026C17.9994 7.68511 17.4501 7.30874 16.826 7.13L16.161 3.8C16.1149 3.57396 15.992 3.37082 15.8132 3.22502C15.6344 3.07922 15.4107 2.99972 15.18 3H14.82C14.5893 2.99972 14.3656 3.07922 14.1868 3.22502C14.008 3.37082 13.8851 3.57396 13.839 3.8L13.2 7H10.25L11 4C11 3.73478 10.8946 3.48043 10.7071 3.29289C10.5196 3.10536 10.2652 3 10 3H8C7.73478 3 7.48043 3.10536 7.29289 3.29289C7.10536 3.48043 7 3.73478 7 4L7.756 7.025C7.00707 7.08448 6.30791 7.42345 5.79735 7.97458C5.28678 8.52572 5.00216 9.24871 5 9.99999V12C4.20435 12 3.44129 12.3161 2.87868 12.8787C2.31607 13.4413 2 14.2043 2 15V22.01H0V24.01H24V22.01H22V15ZM7 9.99999C7 9.73478 7.10536 9.48042 7.29289 9.29289C7.48043 9.10535 7.73478 8.99999 8 8.99999H16C16.2652 8.99999 16.5196 9.10535 16.7071 9.29289C16.8946 9.48042 17 9.73478 17 9.99999V12H7V9.99999ZM5 14H19C19.2652 14 19.5196 14.1053 19.7071 14.2929C19.8946 14.4804 20 14.7348 20 15V16.98C19.064 16.88 18.5 16.28 18.5 16H16.5C16.5 16.344 15.818 17 14.75 17C13.661 17 13 16.306 13 16H11C11 16.344 10.318 17 9.25 17C8.161 17 7.5 16.306 7.5 16H5.5C5.5 16.316 4.921 16.888 4 16.981V15C4 14.7348 4.10536 14.4804 4.29289 14.2929C4.48043 14.1053 4.73478 14 5 14ZM4 18.979C4.91869 18.9382 5.79793 18.5939 6.5 18C7.27136 18.643 8.24308 18.9964 9.2473 18.9991C10.2515 19.0018 11.2251 18.6538 12 18.015C12.7749 18.6538 13.7485 19.0018 14.7527 18.9991C15.7569 18.9964 16.7286 18.643 17.5 18C18.2022 18.5936 19.0814 18.9375 20 18.978V22.01H4V18.979Z" fill="#374957"/>
<path d="M9.00012 2C9.5524 2 10.0001 1.55228 10.0001 1C10.0001 0.447715 9.5524 0 9.00012 0C8.44784 0 8.00012 0.447715 8.00012 1C8.00012 1.55228 8.44784 2 9.00012 2Z" fill="#374957"/>
<path d="M15.0001 2C15.5524 2 16.0001 1.55228 16.0001 1C16.0001 0.447715 15.5524 0 15.0001 0C14.4478 0 14.0001 0.447715 14.0001 1C14.0001 1.55228 14.4478 2 15.0001 2Z" fill="#374957"/>
</g>
<defs>
<clipPath id="clip0_403_3636">
<rect width="24" height="24" fill="white"/>
</clipPath>
</defs>
</svg>
