<svg width="32" height="32" viewBox="0 0 32 32" fill="none" xmlns="http://www.w3.org/2000/svg">
<g clip-path="url(#clip0_403_3443)" filter="url(#filter0_d_403_3443)">
<path d="M18.2002 16.261C15.2886 15.0282 12.9733 12.7075 11.7472 9.793L15.1472 6.387L8.88721 0.122L5.71621 3.292C5.16621 3.84514 4.73136 4.50186 4.43681 5.22415C4.14226 5.94645 3.99387 6.71998 4.00021 7.5C4.00021 14.748 13.2522 24 20.5002 24C21.2801 24.0068 22.0537 23.8586 22.7759 23.5641C23.4981 23.2695 24.1545 22.8344 24.7072 22.284L27.8782 19.113L21.6132 12.848L18.2002 16.261ZM23.2922 20.87C22.925 21.234 22.489 21.5214 22.0097 21.7154C21.5304 21.9094 21.0173 22.0061 20.5002 22C14.2672 22 6.00021 13.733 6.00021 7.5C5.99432 6.98283 6.09117 6.46964 6.28515 5.99019C6.47913 5.51074 6.76637 5.07458 7.13021 4.707L8.88721 2.95L12.3242 6.387L9.38921 9.322L9.63421 9.936C10.3555 11.8653 11.483 13.6171 12.9404 15.0725C14.3977 16.528 16.151 17.6533 18.0812 18.372L18.6872 18.603L21.6132 15.676L25.0502 19.113L23.2922 20.87ZM18.0002 2V0C20.6515 0.0029116 23.1933 1.05742 25.0681 2.93215C26.9428 4.80688 27.9973 7.34873 28.0002 10H26.0002C25.9978 7.879 25.1542 5.84555 23.6544 4.34578C22.1547 2.846 20.1212 2.00238 18.0002 2V2ZM18.0002 6V4C19.591 4.00159 21.1162 4.63424 22.2411 5.75911C23.366 6.88399 23.9986 8.40919 24.0002 10H22.0002C22.0002 8.93913 21.5788 7.92172 20.8286 7.17157C20.0785 6.42143 19.0611 6 18.0002 6Z" fill="#374957"/>
</g>
<defs>
<filter id="filter0_d_403_3443" x="0" y="0" width="32" height="32" filterUnits="userSpaceOnUse" color-interpolation-filters="sRGB">
<feFlood flood-opacity="0" result="BackgroundImageFix"/>
<feColorMatrix in="SourceAlpha" type="matrix" values="0 0 0 0 0 0 0 0 0 0 0 0 0 0 0 0 0 0 127 0" result="hardAlpha"/>
<feOffset dy="4"/>
<feGaussianBlur stdDeviation="2"/>
<feComposite in2="hardAlpha" operator="out"/>
<feColorMatrix type="matrix" values="0 0 0 0 0 0 0 0 0 0 0 0 0 0 0 0 0 0 0.25 0"/>
<feBlend mode="normal" in2="BackgroundImageFix" result="effect1_dropShadow_403_3443"/>
<feBlend mode="normal" in="SourceGraphic" in2="effect1_dropShadow_403_3443" result="shape"/>
</filter>
<clipPath id="clip0_403_3443">
<rect width="24" height="24" fill="white" transform="translate(4)"/>
</clipPath>
</defs>
</svg>
