<svg width="24" height="24" viewBox="0 0 24 24" fill="none" xmlns="http://www.w3.org/2000/svg">
<g clip-path="url(#clip0_403_3501)">
<path d="M8.99994 11.9999C7.81325 11.9999 6.65322 11.648 5.66652 10.9887C4.67983 10.3294 3.91079 9.39234 3.45666 8.29598C3.00254 7.19962 2.88372 5.99323 3.11523 4.82934C3.34674 3.66545 3.91819 2.59636 4.7573 1.75724C5.59642 0.918125 6.66551 0.34668 7.8294 0.115169C8.99329 -0.116342 10.1997 0.00247765 11.296 0.456603C12.3924 0.910729 13.3295 1.67976 13.9888 2.66646C14.648 3.65315 14.9999 4.81319 14.9999 5.99988C14.9984 7.59069 14.3657 9.11589 13.2408 10.2408C12.116 11.3656 10.5908 11.9983 8.99994 11.9999V11.9999ZM8.99994 1.99988C8.20882 1.99988 7.43546 2.23448 6.77766 2.674C6.11986 3.11353 5.60717 3.73824 5.30442 4.46915C5.00167 5.20005 4.92246 6.00432 5.0768 6.78024C5.23114 7.55617 5.6121 8.2689 6.17151 8.82831C6.73092 9.38772 7.44366 9.76868 8.21958 9.92302C8.9955 10.0774 9.79977 9.99815 10.5307 9.6954C11.2616 9.39265 11.8863 8.87996 12.3258 8.22216C12.7653 7.56436 12.9999 6.79101 12.9999 5.99988C12.9999 4.93901 12.5785 3.9216 11.8284 3.17145C11.0782 2.42131 10.0608 1.99988 8.99994 1.99988Z" fill="#374957"/>
<path d="M18 23.9996H16V18.9566C15.9989 18.1727 15.6871 17.4212 15.1327 16.8669C14.5784 16.3126 13.8269 16.0007 13.043 15.9996H4.957C4.17308 16.0007 3.42157 16.3126 2.86725 16.8669C2.31294 17.4212 2.00106 18.1727 2 18.9566V23.9996H0V18.9566C0.00158783 17.6424 0.524352 16.3825 1.45363 15.4533C2.3829 14.524 3.64281 14.0012 4.957 13.9996H13.043C14.3572 14.0012 15.6171 14.524 16.5464 15.4533C17.4756 16.3825 17.9984 17.6424 18 18.9566V23.9996Z" fill="#374957"/>
<path d="M21.9999 7.875C21.4433 7.90272 20.9205 8.14977 20.5456 8.56207C20.1708 8.97437 19.9746 9.51836 19.9999 10.075C20.0252 9.51836 19.8289 8.97437 19.4541 8.56207C19.0793 8.14977 18.5564 7.90272 17.9999 7.875C17.4434 7.90272 16.9205 8.14977 16.5457 8.56207C16.1708 8.97437 15.9746 9.51836 15.9999 10.075C15.9999 12.375 19.9999 15.208 19.9999 15.208C19.9999 15.208 23.9999 12.379 23.9999 10.075C24.0251 9.51836 23.8289 8.97437 23.4541 8.56207C23.0793 8.14977 22.5564 7.90272 21.9999 7.875V7.875Z" fill="#374957"/>
</g>
<defs>
<clipPath id="clip0_403_3501">
<rect width="24" height="24" fill="white"/>
</clipPath>
</defs>
</svg>
