<svg width="24" height="24" viewBox="0 0 24 24" fill="none" xmlns="http://www.w3.org/2000/svg">
<g clip-path="url(#clip0_403_3693)">
<path d="M12 0C9.62663 0 7.30655 0.703788 5.33316 2.02236C3.35977 3.34094 1.8217 5.21509 0.913451 7.4078C0.00519943 9.60051 -0.232441 12.0133 0.230582 14.3411C0.693605 16.6689 1.83649 18.8071 3.51472 20.4853C5.19295 22.1635 7.33115 23.3064 9.65892 23.7694C11.9867 24.2324 14.3995 23.9948 16.5922 23.0866C18.7849 22.1783 20.6591 20.6402 21.9776 18.6668C23.2962 16.6935 24 14.3734 24 12C23.9966 8.81846 22.7312 5.76821 20.4815 3.51852C18.2318 1.26883 15.1815 0.00344108 12 0V0ZM15.254 7.332C14.0194 5.82736 13.2544 3.99298 13.054 2.057C14.9865 2.26045 16.8171 3.02524 18.32 4.257L15.254 7.332ZM13.836 8.75L12 10.586L5.67601 4.262C7.20808 3.00536 9.08029 2.23447 11.053 2.048C11.2624 4.51674 12.2351 6.85908 13.836 8.75V8.75ZM10.586 12L8.74901 13.837C6.85918 12.2354 4.51735 11.2623 2.04901 11.053C2.23519 9.08039 3.00573 7.2082 4.26201 5.676L10.586 12ZM7.33201 15.254L4.26201 18.324C3.03025 16.8211 2.26546 14.9905 2.06201 13.058C3.99581 13.2582 5.82827 14.0217 7.33201 15.254V15.254ZM8.74601 16.668C9.9806 18.1726 10.7456 20.007 10.946 21.943C9.01298 21.7381 7.1823 20.9716 5.68001 19.738L8.74601 16.668ZM10.163 15.251L12 13.414L18.324 19.738C16.7922 20.9951 14.9198 21.766 12.947 21.952C12.7379 19.4833 11.7648 17.1411 10.163 15.251V15.251ZM13.414 12L15.25 10.164C17.1404 11.7645 19.482 12.7372 21.95 12.947C21.7635 14.9197 20.9926 16.7919 19.736 18.324L13.414 12ZM16.668 8.746L19.738 5.676C20.9716 7.17829 21.7381 9.00898 21.943 10.942C20.0076 10.7423 18.1734 9.97875 16.668 8.746V8.746Z" fill="#374957"/>
</g>
<defs>
<clipPath id="clip0_403_3693">
<rect width="24" height="24" fill="white"/>
</clipPath>
</defs>
</svg>
