<svg width="24" height="24" viewBox="0 0 24 24" fill="none" xmlns="http://www.w3.org/2000/svg">
<g clip-path="url(#clip0_403_3546)">
<path d="M21.0003 16.9999C20.2246 17.0008 19.4797 17.3035 18.9233 17.8439L15.9633 16.3629C15.9832 16.2428 15.9956 16.1216 16.0003 15.9999C15.9956 15.8783 15.9832 15.757 15.9633 15.6369L18.9233 14.1559C19.4217 14.6333 20.0698 14.9239 20.7578 14.9784C21.4458 15.0329 22.1315 14.8481 22.6989 14.4551C23.2663 14.0622 23.6805 13.4852 23.8714 12.822C24.0624 12.1588 24.0183 11.4499 23.7467 10.8154C23.475 10.181 22.9925 9.65982 22.3808 9.34018C21.7691 9.02055 21.0658 8.92207 20.3898 9.06141C19.7139 9.20074 19.1068 9.56934 18.6714 10.1048C18.2359 10.6403 17.9989 11.3098 18.0003 11.9999C18.005 12.1216 18.0173 12.2428 18.0373 12.3629L15.0773 13.8439C14.6539 13.4343 14.1193 13.1584 13.5401 13.0506C12.9609 12.9428 12.3628 13.0079 11.8204 13.2379C11.2779 13.4678 10.8152 13.8523 10.49 14.3435C10.1647 14.8347 9.99121 15.4108 9.99121 15.9999C9.99121 16.5891 10.1647 17.1652 10.49 17.6564C10.8152 18.1475 11.2779 18.5321 11.8204 18.762C12.3628 18.992 12.9609 19.0571 13.5401 18.9493C14.1193 18.8415 14.6539 18.5656 15.0773 18.1559L18.0373 19.6369C18.0173 19.757 18.005 19.8783 18.0003 19.9999C18.0003 20.5933 18.1762 21.1733 18.5059 21.6667C18.8355 22.16 19.304 22.5445 19.8522 22.7716C20.4004 22.9986 21.0036 23.0581 21.5855 22.9423C22.1675 22.8265 22.702 22.5408 23.1216 22.1213C23.5412 21.7017 23.8269 21.1672 23.9426 20.5852C24.0584 20.0033 23.999 19.4001 23.7719 18.8519C23.5449 18.3037 23.1603 17.8352 22.667 17.5055C22.1736 17.1759 21.5936 16.9999 21.0003 16.9999ZM21.0003 10.9999C21.1981 10.9999 21.3914 11.0586 21.5558 11.1685C21.7203 11.2784 21.8485 11.4345 21.9242 11.6173C21.9998 11.8 22.0196 12.001 21.9811 12.195C21.9425 12.389 21.8472 12.5672 21.7074 12.707C21.5675 12.8469 21.3893 12.9421 21.1954 12.9807C21.0014 13.0193 20.8003 12.9995 20.6176 12.9238C20.4349 12.8481 20.2787 12.72 20.1688 12.5555C20.0589 12.3911 20.0003 12.1977 20.0003 11.9999C20.0003 11.7347 20.1056 11.4804 20.2932 11.2928C20.4807 11.1053 20.7351 10.9999 21.0003 10.9999ZM13.0003 16.9999C12.8025 16.9999 12.6092 16.9413 12.4447 16.8314C12.2803 16.7215 12.1521 16.5653 12.0764 16.3826C12.0007 16.1999 11.9809 15.9988 12.0195 15.8049C12.0581 15.6109 12.1533 15.4327 12.2932 15.2928C12.433 15.153 12.6112 15.0577 12.8052 15.0192C12.9992 14.9806 13.2002 15.0004 13.383 15.0761C13.5657 15.1517 13.7219 15.2799 13.8317 15.4444C13.9416 15.6088 14.0003 15.8022 14.0003 15.9999C14.0003 16.2652 13.8949 16.5195 13.7074 16.707C13.5198 16.8946 13.2655 16.9999 13.0003 16.9999ZM21.0003 20.9999C20.8025 20.9999 20.6092 20.9413 20.4447 20.8314C20.2803 20.7215 20.1521 20.5654 20.0764 20.3826C20.0007 20.1999 19.9809 19.9988 20.0195 19.8048C20.0581 19.6109 20.1533 19.4327 20.2932 19.2928C20.433 19.153 20.6112 19.0577 20.8052 19.0192C20.9992 18.9806 21.2002 19.0004 21.383 19.0761C21.5657 19.1517 21.7219 19.2799 21.8317 19.4444C21.9416 19.6088 22.0003 19.8022 22.0003 19.9999C22.0003 20.2652 21.8949 20.5195 21.7074 20.707C21.5198 20.8946 21.2655 20.9999 21.0003 20.9999Z" fill="#374957"/>
<path d="M15.9995 20.9998H5.49953C4.64796 21.0024 3.82482 20.6936 3.18505 20.1315C2.54528 19.5695 2.13302 18.793 2.02585 17.9482C1.91868 17.1034 2.124 16.2485 2.60317 15.5445C3.08233 14.8405 3.80229 14.336 4.62753 14.1258L6.06553 13.7548L5.18153 12.5628C4.41306 11.534 3.99838 10.284 3.99953 8.99982C4.01094 7.4858 4.59432 6.03207 5.63267 4.93017C6.67103 3.82827 8.08758 3.15966 9.59825 3.05845C11.1089 2.95723 12.602 3.43088 13.7781 4.38441C14.9542 5.33795 15.7263 6.70085 15.9395 8.19982L16.0395 8.93582L17.7875 7.18782C17.3392 5.27899 16.2054 3.60131 14.6015 2.47338C12.9976 1.34545 11.0353 0.845833 9.08734 1.06941C7.13935 1.29298 5.3413 2.22417 4.03466 3.68614C2.72802 5.14811 2.0038 7.03904 1.99953 8.99982C1.99855 10.2782 2.30736 11.5378 2.89953 12.6708C1.82066 13.249 0.965933 14.1711 0.471153 15.2906C-0.023628 16.4102 -0.130082 17.663 0.168705 18.8499C0.467492 20.0369 1.15438 21.09 2.12024 21.8419C3.0861 22.5938 4.27552 23.0014 5.49953 22.9998H15.9995C16.3246 22.9979 16.6492 22.9762 16.9715 22.9348C16.5443 22.3605 16.2468 21.7003 16.0995 20.9998C16.0665 20.9998 16.0335 20.9998 15.9995 20.9998Z" fill="#374957"/>
</g>
<defs>
<clipPath id="clip0_403_3546">
<rect width="24" height="24" fill="white"/>
</clipPath>
</defs>
</svg>
