<svg width="32" height="32" viewBox="0 0 32 32" fill="none" xmlns="http://www.w3.org/2000/svg">
<g clip-path="url(#clip0_403_3689)" filter="url(#filter0_d_403_3689)">
<path d="M5.0369 5.88889L3.9939 4.18889L10.7289 0.0618896L11.7709 1.76789L5.0369 5.88889ZM26.2739 16.2169L22.1489 22.8999L23.8489 23.9509L27.9739 17.2669L26.2739 16.2169ZM24.9239 14.5999L19.9999 22.5829C19.7755 22.963 19.4667 23.2864 19.0973 23.5281C18.728 23.7698 18.308 23.9234 17.8699 23.9769C17.7438 23.9922 17.6169 23.9999 17.4899 23.9999C17.1084 24.0002 16.7306 23.9249 16.3784 23.7783C16.0262 23.6317 15.7065 23.4168 15.4379 23.1459L14.4749 22.1829C13.56 22.8233 12.4487 23.1208 11.3362 23.0232C10.2237 22.9257 9.18113 22.4392 8.39164 21.6494C7.60215 20.8595 7.11619 19.8168 7.01913 18.7042C6.92207 17.5917 7.22011 16.4805 7.8609 15.5659L4.8529 12.5569C4.54776 12.2517 4.31428 11.8826 4.16936 11.4761C4.02444 11.0696 3.97171 10.636 4.01497 10.2067C4.05823 9.77733 4.19641 9.36297 4.4195 8.99358C4.64259 8.62419 4.94502 8.30902 5.3049 8.07089L13.0669 3.32089C14.5343 2.38036 16.259 1.92188 17.9998 2.00956C19.7405 2.09723 21.4104 2.72668 22.7759 3.80989L24.6679 1.91789L26.0819 3.33189L24.1819 5.23189C25.2191 6.54449 25.8434 8.13547 25.9755 9.80321C26.1076 11.471 25.7416 13.1404 24.9239 14.5999V14.5999ZM13.0099 20.7179L9.3179 17.0229C9.04328 17.5397 8.94273 18.1313 9.03119 18.7098C9.11965 19.2883 9.3924 19.8228 9.8089 20.2339C10.2285 20.6329 10.7606 20.8933 11.3332 20.9799C11.9057 21.0665 12.4911 20.975 13.0099 20.7179V20.7179ZM22.1299 5.89989C21.0982 4.8602 19.7411 4.20585 18.2852 4.04606C16.8292 3.88627 15.3625 4.23071 14.1299 5.02189L6.3779 9.75789C6.27184 9.83199 6.18342 9.92858 6.11895 10.0408C6.05448 10.1529 6.01554 10.2779 6.0049 10.4069C5.99046 10.5414 6.00651 10.6774 6.05187 10.8048C6.09723 10.9322 6.17073 11.0478 6.2669 11.1429L16.8529 21.7319C16.95 21.8319 17.0694 21.9075 17.2013 21.9527C17.3332 21.9979 17.4738 22.0113 17.6119 21.9919C17.7501 21.9752 17.8825 21.9267 17.9987 21.8502C18.115 21.7736 18.2119 21.6712 18.2819 21.5509L23.2019 13.5779C23.8804 12.3551 24.1428 10.9447 23.9494 9.55969C23.756 8.17466 23.1174 6.89011 22.1299 5.89989V5.89989Z" fill="#374957"/>
</g>
<defs>
<filter id="filter0_d_403_3689" x="0" y="0" width="32" height="32" filterUnits="userSpaceOnUse" color-interpolation-filters="sRGB">
<feFlood flood-opacity="0" result="BackgroundImageFix"/>
<feColorMatrix in="SourceAlpha" type="matrix" values="0 0 0 0 0 0 0 0 0 0 0 0 0 0 0 0 0 0 127 0" result="hardAlpha"/>
<feOffset dy="4"/>
<feGaussianBlur stdDeviation="2"/>
<feComposite in2="hardAlpha" operator="out"/>
<feColorMatrix type="matrix" values="0 0 0 0 0 0 0 0 0 0 0 0 0 0 0 0 0 0 0.25 0"/>
<feBlend mode="normal" in2="BackgroundImageFix" result="effect1_dropShadow_403_3689"/>
<feBlend mode="normal" in="SourceGraphic" in2="effect1_dropShadow_403_3689" result="shape"/>
</filter>
<clipPath id="clip0_403_3689">
<rect width="24" height="24" fill="white" transform="translate(4)"/>
</clipPath>
</defs>
</svg>
