<svg width="24" height="24" viewBox="0 0 24 24" fill="none" xmlns="http://www.w3.org/2000/svg">
<g clip-path="url(#clip0_403_3614)">
<path d="M23.4868 1.317C23.2116 0.910849 22.8409 0.578401 22.4073 0.348792C21.9737 0.119183 21.4905 -0.000578671 20.9998 2.10226e-06H2.99983C2.50958 -0.000537815 2.02667 0.119076 1.59335 0.348378C1.16003 0.57768 0.789507 0.909682 0.514205 1.31533C0.238902 1.72099 0.0672083 2.18792 0.0141459 2.67529C-0.0389165 3.16266 0.0282696 3.65561 0.209826 4.111C1.09363 6.29777 2.57348 8.19257 4.481 9.57981C6.38853 10.9671 8.64713 11.791 10.9998 11.958V22H5.99983V24H17.9998V22H12.9998V11.958C15.3525 11.791 17.6111 10.9671 19.5186 9.57981C21.4262 8.19257 22.906 6.29777 23.7898 4.111C23.9713 3.65595 24.0386 3.16337 23.9857 2.67633C23.9329 2.18928 23.7616 1.72258 23.4868 1.317V1.317ZM2.16883 2.44C2.25981 2.30333 2.38346 2.19151 2.52856 2.11468C2.67367 2.03785 2.83564 1.99844 2.99983 2H20.9998C21.1635 1.99945 21.3248 2.03908 21.4696 2.11541C21.6144 2.19175 21.7382 2.30245 21.8302 2.4378C21.9222 2.57316 21.9796 2.72903 21.9973 2.89174C22.015 3.05444 21.9925 3.21901 21.9318 3.371C21.8488 3.579 21.7548 3.789 21.6528 4H2.34683C2.24683 3.789 2.14683 3.579 2.06783 3.371C2.00608 3.21963 1.98298 3.05526 2.00061 2.89273C2.01824 2.7302 2.07605 2.57461 2.16883 2.44V2.44ZM11.9998 10C10.3897 10.0206 8.79634 9.67052 7.34307 8.97692C5.88981 8.28332 4.61554 7.26476 3.61883 6H20.3808C19.3841 7.26476 18.1098 8.28332 16.6566 8.97692C15.2033 9.67052 13.61 10.0206 11.9998 10V10Z" fill="#374957"/>
</g>
<defs>
<clipPath id="clip0_403_3614">
<rect width="24" height="24" fill="white"/>
</clipPath>
</defs>
</svg>
