<svg width="24" height="24" viewBox="0 0 24 24" fill="none" xmlns="http://www.w3.org/2000/svg">
<g clip-path="url(#clip0_403_3713)">
<path d="M21 5.99988H11C10.3111 5.99999 9.64314 6.23723 9.10848 6.67173C8.57382 7.10623 8.205 7.71151 8.064 8.38588C7.58042 8.13563 7.04448 8.00336 6.5 7.99988C5.57174 7.99988 4.6815 8.36863 4.02513 9.025C3.36875 9.68138 3 10.5716 3 11.4999C3.00293 12.0199 3.12289 12.5326 3.351 12.9999H2V1.99988H0V21.9999H2V18.9999H22V21.9999H24V8.99988C24 8.20423 23.6839 7.44117 23.1213 6.87856C22.5587 6.31595 21.7956 5.99988 21 5.99988ZM10 8.99988C10 8.73466 10.1054 8.48031 10.2929 8.29277C10.4804 8.10523 10.7348 7.99988 11 7.99988H21C21.2652 7.99988 21.5196 8.10523 21.7071 8.29277C21.8946 8.48031 22 8.73466 22 8.99988V12.9999H10V8.99988ZM5 11.4999C5 11.2032 5.08797 10.9132 5.2528 10.6665C5.41762 10.4198 5.65189 10.2276 5.92597 10.1141C6.20006 10.0005 6.50166 9.97082 6.79264 10.0287C7.08361 10.0866 7.35088 10.2294 7.56066 10.4392C7.77044 10.649 7.9133 10.9163 7.97118 11.2072C8.02906 11.4982 7.99935 11.7998 7.88582 12.0739C7.77229 12.348 7.58003 12.5823 7.33336 12.7471C7.08668 12.9119 6.79667 12.9999 6.5 12.9999C6.10218 12.9999 5.72064 12.8418 5.43934 12.5605C5.15804 12.2792 5 11.8977 5 11.4999ZM2 16.9999V14.9999H22V16.9999H2Z" fill="#374957"/>
</g>
<defs>
<clipPath id="clip0_403_3713">
<rect width="24" height="24" fill="white"/>
</clipPath>
</defs>
</svg>
