<svg width="24" height="24" viewBox="0 0 24 24" fill="none" xmlns="http://www.w3.org/2000/svg">
<g clip-path="url(#clip0_403_3621)">
<path d="M24 15C23.9976 17.121 23.154 19.1545 21.6542 20.6543C20.1545 22.154 18.121 22.9976 16 23H15.763L18.178 20.585C19.4175 20.1036 20.4616 19.2236 21.146 18.0837C21.8303 16.9437 22.1161 15.6084 21.9582 14.2882C21.8004 12.9679 21.2079 11.7377 20.274 10.7912C19.3402 9.84466 18.118 9.23564 16.8 9.06003L16.042 8.96003L15.942 8.20203C15.7319 6.70041 14.961 5.33404 13.7844 4.37767C12.6078 3.4213 11.1128 2.94586 9.59988 3.04696C8.08701 3.14805 6.6685 3.81818 5.62962 4.9226C4.59073 6.02701 4.00851 7.4838 4.00002 9.00003C3.99887 10.2842 4.41355 11.5342 5.18202 12.563L6.06602 13.755L4.62802 14.126C3.80278 14.3362 3.08282 14.8408 2.60366 15.5447C2.12449 16.2487 1.91917 17.1036 2.02634 17.9484C2.1335 18.7932 2.54577 19.5697 3.18554 20.1317C3.82531 20.6938 4.64845 21.0026 5.50002 21H5.62102L7.62102 23H5.50002C4.27601 23.0016 3.08658 22.594 2.12073 21.8421C1.15487 21.0902 0.46798 20.0372 0.169193 18.8502C-0.129593 17.6632 -0.0231397 16.4104 0.471641 15.2908C0.966422 14.1713 1.82115 13.2492 2.90002 12.671C2.30785 11.538 1.99904 10.2784 2.00002 9.00003C2.00627 7.03881 2.73273 5.14822 4.04138 3.68745C5.35003 2.22668 7.14968 1.29752 9.09841 1.0765C11.0471 0.855473 13.0092 1.35799 14.6117 2.48857C16.2143 3.61916 17.3457 5.29903 17.791 7.20903C19.5526 7.61772 21.1245 8.60965 22.2515 10.0239C23.3786 11.4381 23.9947 13.1916 24 15V15ZM13.813 22.121L19.467 16.467L18.053 15.053L12.4 20.707C12.2097 20.8891 11.9564 20.9907 11.693 20.9907C11.4296 20.9907 11.1764 20.8891 10.986 20.707L7.60002 17.323L6.18702 18.737L9.57102 22.121C10.1336 22.6834 10.8965 22.9994 11.692 22.9994C12.4875 22.9994 13.2504 22.6834 13.813 22.121V22.121Z" fill="#374957"/>
</g>
<defs>
<clipPath id="clip0_403_3621">
<rect width="24" height="24" fill="white"/>
</clipPath>
</defs>
</svg>
