<svg width="24" height="24" viewBox="0 0 24 24" fill="none" xmlns="http://www.w3.org/2000/svg">
<g clip-path="url(#clip0_403_3704)">
<path d="M21 0H3C2.20435 0 1.44129 0.31607 0.87868 0.87868C0.31607 1.44129 0 2.20435 0 3L0 20H6.9L10.708 23.218C11.069 23.5231 11.5264 23.6905 11.999 23.6905C12.4716 23.6905 12.929 23.5231 13.29 23.218L17.1 20H24V3C24 2.20435 23.6839 1.44129 23.1213 0.87868C22.5587 0.31607 21.7956 0 21 0V0ZM22 18H16.366L12 21.69L7.634 18H2V3C2 2.73478 2.10536 2.48043 2.29289 2.29289C2.48043 2.10536 2.73478 2 3 2H21C21.2652 2 21.5196 2.10536 21.7071 2.29289C21.8946 2.48043 22 2.73478 22 3V18Z" fill="#374957"/>
<path d="M12 5.00012H6V7.00012H12V5.00012Z" fill="#374957"/>
<path d="M18 9H6V11H18V9Z" fill="#374957"/>
<path d="M18 12.9999H6V14.9999H18V12.9999Z" fill="#374957"/>
</g>
<defs>
<clipPath id="clip0_403_3704">
<rect width="24" height="24" fill="white"/>
</clipPath>
</defs>
</svg>
