<svg width="24" height="24" viewBox="0 0 24 24" fill="none" xmlns="http://www.w3.org/2000/svg">
<g clip-path="url(#clip0_403_3787)">
<path d="M19.7899 12.0799C19.0199 9.21194 17.8669 6.06694 17.2899 4.54594C17.7799 4.3467 18.2807 4.17509 18.7899 4.03194C18.9288 3.99577 19.0742 3.9922 19.2147 4.02151C19.3552 4.05083 19.4871 4.11224 19.5999 4.20094C19.7246 4.29591 19.8256 4.41846 19.895 4.55899C19.9644 4.69952 20.0003 4.85421 19.9999 5.01094H21.9999C22.0014 4.54765 21.8955 4.09032 21.6906 3.6748C21.4857 3.25927 21.1873 2.89685 20.8189 2.61594C20.4638 2.33927 20.0493 2.14868 19.6081 2.05915C19.1668 1.96962 18.7108 1.98359 18.2759 2.09994C17.3588 2.36818 16.4611 2.69862 15.5889 3.08894L14.7159 3.48194L15.0709 4.37194C15.0809 4.39694 15.5769 5.64094 16.1919 7.36294L12.0199 10.6069L8.41394 6.99994H9.99994V4.99994H3.99994V6.99994H5.58594L10.4289 11.8439L8.44194 13.3899C7.54829 12.5479 6.374 12.0675 5.14645 12.0416C3.91889 12.0157 2.72539 12.4463 1.79705 13.2498C0.868705 14.0534 0.27156 15.1729 0.121235 16.3915C-0.0290893 17.6101 0.278101 18.8411 0.983327 19.8462C1.68855 20.8513 2.74164 21.559 3.93869 21.8322C5.13574 22.1054 6.39158 21.9247 7.46306 21.3251C8.53454 20.7256 9.34542 19.7497 9.73871 18.5866C10.132 17.4234 10.0797 16.1557 9.59194 15.0289L16.8799 9.35994C17.1799 10.2789 17.4799 11.2409 17.7459 12.1789C16.5489 12.491 15.51 13.2356 14.8301 14.2691C14.1502 15.3025 13.8775 16.5513 14.0647 17.774C14.2519 18.9968 14.8858 20.1068 15.8438 20.8894C16.8018 21.672 18.0159 22.0718 19.2514 22.0113C20.487 21.9509 21.6562 21.4345 22.5333 20.5621C23.4103 19.6897 23.9328 18.5232 23.9997 17.288C24.0667 16.0528 23.6734 14.8366 22.8959 13.8745C22.1183 12.9123 21.0117 12.2726 19.7899 12.0789V12.0799ZM4.99994 19.9999C4.4066 19.9999 3.82658 19.824 3.33323 19.4944C2.83989 19.1647 2.45537 18.6962 2.22831 18.148C2.00124 17.5998 1.94183 16.9966 2.05759 16.4147C2.17335 15.8327 2.45907 15.2982 2.87862 14.8786C3.29818 14.4591 3.83273 14.1733 4.41467 14.0576C4.99661 13.9418 5.59981 14.0012 6.14799 14.2283C6.69617 14.4554 7.1647 14.8399 7.49435 15.3332C7.82399 15.8266 7.99994 16.4066 7.99994 16.9999C7.99994 17.7956 7.68387 18.5587 7.12126 19.1213C6.55865 19.6839 5.79559 19.9999 4.99994 19.9999ZM18.9999 19.9999C18.4066 19.9999 17.8266 19.824 17.3332 19.4944C16.8399 19.1647 16.4554 18.6962 16.2283 18.148C16.0012 17.5998 15.9418 16.9966 16.0576 16.4147C16.1733 15.8327 16.4591 15.2982 16.8786 14.8786C17.2982 14.4591 17.8327 14.1733 18.4147 14.0576C18.9966 13.9418 19.5998 14.0012 20.148 14.2283C20.6962 14.4554 21.1647 14.8399 21.4943 15.3332C21.824 15.8266 21.9999 16.4066 21.9999 16.9999C21.9999 17.7956 21.6839 18.5587 21.1212 19.1213C20.5586 19.6839 19.7956 19.9999 18.9999 19.9999Z" fill="#374957"/>
</g>
<defs>
<clipPath id="clip0_403_3787">
<rect width="24" height="24" fill="white"/>
</clipPath>
</defs>
</svg>
