<svg width="32" height="32" viewBox="0 0 32 32" fill="none" xmlns="http://www.w3.org/2000/svg">
<g clip-path="url(#clip0_403_3517)" filter="url(#filter0_d_403_3517)">
<path d="M28 12C28 15.1826 26.7357 18.2348 24.4853 20.4853C22.2348 22.7357 19.1826 24 16 24C12.8174 24 9.76516 22.7357 7.51472 20.4853C5.26428 18.2348 4 15.1826 4 12C4 11.633 4.017 11.269 4.049 10.91L6.041 11.091C6.01367 11.3903 6 11.6933 6 12C6 13.9778 6.58649 15.9112 7.6853 17.5557C8.78412 19.2002 10.3459 20.4819 12.1732 21.2388C14.0004 21.9957 16.0111 22.1937 17.9509 21.8079C19.8907 21.422 21.6725 20.4696 23.0711 19.0711C24.4696 17.6725 25.422 15.8907 25.8079 13.9509C26.1937 12.0111 25.9957 10.0004 25.2388 8.17317C24.4819 6.3459 23.2002 4.78412 21.5557 3.6853C19.9112 2.58649 17.9778 2 16 2C15.6933 2 15.3903 2.01367 15.091 2.041L14.91 0.049C15.269 0.017 15.633 0 16 0C19.1815 0.00344108 22.2318 1.26883 24.4815 3.51852C26.7312 5.76821 27.9966 8.81846 28 12ZM9.663 4.263L8.395 2.717C7.78121 3.2216 7.2185 3.78531 6.715 4.4L8.262 5.665C8.68212 5.15305 9.15135 4.68348 9.663 4.263ZM13.142 2.415L12.571 0.5C11.8097 0.726352 11.0727 1.02783 10.371 1.4L11.31 3.166C11.8942 2.85539 12.5079 2.60381 13.142 2.415V2.415ZM7.164 7.315L5.4 6.375C5.02801 7.07678 4.72653 7.81372 4.5 8.575L6.417 9.146C6.60454 8.51172 6.85478 7.89769 7.164 7.313V7.315ZM15 6V10.277C14.7004 10.4513 14.4513 10.7004 14.277 11H11V13H14.277C14.4297 13.2652 14.6414 13.4917 14.8958 13.662C15.1501 13.8323 15.4402 13.9417 15.7436 13.9818C16.047 14.0219 16.3556 13.9917 16.6454 13.8934C16.9353 13.7951 17.1986 13.6314 17.415 13.415C17.6314 13.1986 17.7951 12.9353 17.8934 12.6454C17.9917 12.3556 18.0219 12.047 17.9818 11.7436C17.9417 11.4402 17.8323 11.1501 17.662 10.8958C17.4917 10.6414 17.2652 10.4297 17 10.277V6H15Z" fill="#374957"/>
</g>
<defs>
<filter id="filter0_d_403_3517" x="0" y="0" width="32" height="32" filterUnits="userSpaceOnUse" color-interpolation-filters="sRGB">
<feFlood flood-opacity="0" result="BackgroundImageFix"/>
<feColorMatrix in="SourceAlpha" type="matrix" values="0 0 0 0 0 0 0 0 0 0 0 0 0 0 0 0 0 0 127 0" result="hardAlpha"/>
<feOffset dy="4"/>
<feGaussianBlur stdDeviation="2"/>
<feComposite in2="hardAlpha" operator="out"/>
<feColorMatrix type="matrix" values="0 0 0 0 0 0 0 0 0 0 0 0 0 0 0 0 0 0 0.25 0"/>
<feBlend mode="normal" in2="BackgroundImageFix" result="effect1_dropShadow_403_3517"/>
<feBlend mode="normal" in="SourceGraphic" in2="effect1_dropShadow_403_3517" result="shape"/>
</filter>
<clipPath id="clip0_403_3517">
<rect width="24" height="24" fill="white" transform="translate(4)"/>
</clipPath>
</defs>
</svg>
