<svg width="32" height="32" viewBox="0 0 32 32" fill="none" xmlns="http://www.w3.org/2000/svg">
<g clip-path="url(#clip0_403_3538)" filter="url(#filter0_d_403_3538)">
<path d="M18.1999 16.262C15.2886 15.0278 12.9733 12.7071 11.7459 9.793L15.1519 6.387L8.88691 0.122L5.71591 3.293C5.16571 3.84579 4.73072 4.5023 4.43616 5.22447C4.14159 5.94664 3.99331 6.7201 3.99991 7.5C3.99991 14.748 13.2519 24 20.4999 24C21.2798 24.0066 22.0533 23.8583 22.7754 23.5637C23.4976 23.2692 24.1541 22.8342 24.7069 22.284L27.8779 19.113L21.6129 12.848L18.1999 16.262ZM23.2939 20.87C22.9261 21.2338 22.4898 21.5211 22.0102 21.715C21.5306 21.909 21.0172 22.0059 20.4999 22C14.2669 22 5.99991 13.733 5.99991 7.5C5.99418 6.98285 6.09111 6.46971 6.28508 5.99029C6.47905 5.51086 6.7662 5.07468 7.12991 4.707L8.88691 2.95L12.3239 6.387L9.38891 9.322L9.63491 9.936C10.3559 11.8653 11.4833 13.617 12.9405 15.0725C14.3977 16.528 16.1508 17.6533 18.0809 18.372L18.6869 18.603L21.6129 15.676L25.0499 19.113L23.2939 20.87ZM27.9999 2.5V7H25.9999V3.443L20.4089 9.034L18.9999 7.62L24.6149 2H20.9999V0H25.5289C26.1879 0.00449512 26.8182 0.270254 27.2815 0.738954C27.7447 1.20765 28.0031 1.841 27.9999 2.5V2.5Z" fill="#374957"/>
</g>
<defs>
<filter id="filter0_d_403_3538" x="0" y="0" width="32" height="32" filterUnits="userSpaceOnUse" color-interpolation-filters="sRGB">
<feFlood flood-opacity="0" result="BackgroundImageFix"/>
<feColorMatrix in="SourceAlpha" type="matrix" values="0 0 0 0 0 0 0 0 0 0 0 0 0 0 0 0 0 0 127 0" result="hardAlpha"/>
<feOffset dy="4"/>
<feGaussianBlur stdDeviation="2"/>
<feComposite in2="hardAlpha" operator="out"/>
<feColorMatrix type="matrix" values="0 0 0 0 0 0 0 0 0 0 0 0 0 0 0 0 0 0 0.25 0"/>
<feBlend mode="normal" in2="BackgroundImageFix" result="effect1_dropShadow_403_3538"/>
<feBlend mode="normal" in="SourceGraphic" in2="effect1_dropShadow_403_3538" result="shape"/>
</filter>
<clipPath id="clip0_403_3538">
<rect width="24" height="24" fill="white" transform="translate(4)"/>
</clipPath>
</defs>
</svg>
