<svg width="24" height="24" viewBox="0 0 24 24" fill="none" xmlns="http://www.w3.org/2000/svg">
<g clip-path="url(#clip0_403_3522)">
<path d="M22 10H24V24H0V6C0 5.20435 0.31607 4.44129 0.87868 3.87868C1.44129 3.31607 2.20435 3 3 3H14V5H3C2.73478 5 2.48043 5.10536 2.29289 5.29289C2.10536 5.48043 2 5.73478 2 6V6.242L9.878 14.122C10.4498 14.6675 11.2097 14.9719 12 14.9719C12.7903 14.9719 13.5502 14.6675 14.122 14.122L18.242 10H21.071L15.536 15.536C15.0717 16.0004 14.5204 16.3688 13.9137 16.6202C13.307 16.8716 12.6567 17.0009 12 17.0009C11.3433 17.0009 10.693 16.8716 10.0863 16.6202C9.47956 16.3688 8.92831 16.0004 8.464 15.536L2 9.071V22H22V10ZM21 3V0H19V3H16V5H19V8H21V5H24V3H21Z" fill="#374957"/>
</g>
<defs>
<clipPath id="clip0_403_3522">
<rect width="24" height="24" fill="white"/>
</clipPath>
</defs>
</svg>
