<svg width="24" height="24" viewBox="0 0 24 24" fill="none" xmlns="http://www.w3.org/2000/svg">
<g clip-path="url(#clip0_403_3641)">
<path d="M19.9996 11.9999C19.3861 11.9997 18.7809 12.141 18.2308 12.4125C17.6807 12.6841 17.2006 13.0788 16.8276 13.5659L16.7576 13.5359C17.0326 12.6839 17.0739 11.7737 16.877 10.9003C16.6801 10.027 16.2523 9.22249 15.6384 8.57092C15.0244 7.91934 14.2467 7.44457 13.3866 7.19618C12.5265 6.9478 11.6154 6.93491 10.7486 7.15886L10.6576 6.98686C11.384 6.34059 11.8498 5.4516 11.9676 4.48651C12.0855 3.52141 11.8474 2.54646 11.2979 1.74437C10.7484 0.942272 9.92524 0.368092 8.98273 0.129434C8.04021 -0.109224 7.04301 0.00402233 6.17801 0.447949C5.31301 0.891875 4.63958 1.63601 4.28394 2.54089C3.9283 3.44578 3.91486 4.4493 4.24613 5.36339C4.5774 6.27747 5.23065 7.03938 6.08344 7.50632C6.93624 7.97326 7.93005 8.11318 8.87862 7.89986L8.95162 8.03686C7.95168 8.80419 7.27901 9.92138 7.06867 11.1641C6.85833 12.4069 7.12588 13.6832 7.81762 14.7369L5.93262 16.4999C5.08059 16.0291 4.08614 15.8852 3.13561 16.0951C2.18509 16.3051 1.34374 16.8544 0.769219 17.6402C0.194698 18.426 -0.0735574 19.3944 0.0147196 20.3638C0.102997 21.3332 0.541748 22.2372 1.24875 22.9063C1.95576 23.5754 2.8825 23.9637 3.85531 23.9985C4.82811 24.0333 5.78022 23.7121 6.53321 23.0952C7.2862 22.4783 7.78839 21.608 7.94568 20.6474C8.10296 19.6867 7.90455 18.7017 7.38762 17.8769L9.22562 16.1589C10.2351 16.8336 11.4559 17.1174 12.6594 16.957C13.863 16.7967 14.967 16.2033 15.7646 15.2879L16.0436 15.4069C15.9226 16.2143 16.0515 17.0395 16.4132 17.7715C16.7748 18.5035 17.3518 19.1074 18.0666 19.5019C18.7814 19.8964 19.5999 20.0627 20.412 19.9785C21.2241 19.8943 21.991 19.5636 22.6097 19.0308C23.2284 18.498 23.6692 17.7886 23.8729 16.9979C24.0766 16.2073 24.0335 15.3732 23.7494 14.6078C23.4652 13.8423 22.9536 13.1822 22.2833 12.716C21.613 12.2498 20.8161 11.9999 19.9996 11.9999V11.9999ZM5.99962 3.99986C5.99962 3.6043 6.11692 3.21762 6.33668 2.88872C6.55645 2.55982 6.8688 2.30348 7.23425 2.1521C7.59971 2.00073 8.00184 1.96112 8.3898 2.03829C8.77777 2.11546 9.13413 2.30594 9.41384 2.58565C9.69354 2.86535 9.88402 3.22172 9.96119 3.60968C10.0384 3.99764 9.99876 4.39978 9.84738 4.76523C9.69601 5.13068 9.43966 5.44304 9.11076 5.6628C8.78186 5.88256 8.39519 5.99986 7.99962 5.99986C7.46919 5.99986 6.96048 5.78915 6.58541 5.41408C6.21034 5.039 5.99962 4.5303 5.99962 3.99986ZM3.99962 21.9999C3.60406 21.9999 3.21738 21.8826 2.88848 21.6628C2.55958 21.443 2.30324 21.1307 2.15186 20.7652C2.00049 20.3998 1.96088 19.9976 2.03805 19.6097C2.11522 19.2217 2.3057 18.8654 2.58541 18.5856C2.86511 18.3059 3.22148 18.1155 3.60944 18.0383C3.9974 17.9611 4.39954 18.0007 4.76499 18.1521C5.13044 18.3035 5.4428 18.5598 5.66256 18.8887C5.88232 19.2176 5.99962 19.6043 5.99962 19.9999C5.99962 20.5303 5.78891 21.039 5.41384 21.4141C5.03876 21.7891 4.53005 21.9999 3.99962 21.9999ZM11.9996 14.9999C11.3503 14.9986 10.7189 14.7867 10.2003 14.396C9.68172 14.0053 9.30387 13.4569 9.12353 12.8331C8.94318 12.2093 8.97008 11.5439 9.20018 10.9367C9.43029 10.3296 9.85117 9.81343 10.3996 9.46586L10.8066 9.24886C11.2156 9.07097 11.6591 8.98649 12.1048 9.00158C12.5505 9.01667 12.9872 9.13094 13.3832 9.33608C13.7792 9.54122 14.1245 9.83207 14.3939 10.1875C14.6634 10.5428 14.8502 10.9538 14.9407 11.3905C15.0313 11.8272 15.0234 12.2786 14.9176 12.7118C14.8117 13.145 14.6107 13.5492 14.3289 13.8949C14.0472 14.2407 13.692 14.5192 13.289 14.7104C12.8861 14.9015 12.4456 15.0004 11.9996 14.9999V14.9999ZM19.9996 17.9999C19.6041 17.9999 19.2174 17.8826 18.8885 17.6628C18.5596 17.443 18.3032 17.1307 18.1519 16.7652C18.0005 16.3998 17.9609 15.9976 18.0381 15.6097C18.1152 15.2217 18.3057 14.8654 18.5854 14.5856C18.8651 14.3059 19.2215 14.1155 19.6094 14.0383C19.9974 13.9611 20.3995 14.0007 20.765 14.1521C21.1304 14.3035 21.4428 14.5598 21.6626 14.8887C21.8823 15.2176 21.9996 15.6043 21.9996 15.9999C21.9996 16.5303 21.7889 17.039 21.4138 17.4141C21.0388 17.7891 20.5301 17.9999 19.9996 17.9999Z" fill="#374957"/>
</g>
<defs>
<clipPath id="clip0_403_3641">
<rect width="24" height="24" fill="white"/>
</clipPath>
</defs>
</svg>
