<svg width="30" height="32" viewBox="0 0 30 32" fill="none" xmlns="http://www.w3.org/2000/svg">
<g filter="url(#filter0_d_403_3742)">
<path d="M19.382 4.0672C18.1834 3.05142 16.9489 1.99767 15.6994 0.7522L14.9872 0.0450439L14.2881 0.753185C12.0388 3.00848 10.9761 6.47132 10.5147 8.54882C10.1615 8.00137 9.89938 7.40029 9.7386 6.76898L9.31611 5.13797L8.08761 6.29259C5.93511 8.31309 4.49985 10.3177 4.49985 13.5278C4.4585 18.2919 7.66335 22.4734 12.2745 23.6716C12.9497 23.8358 13.639 23.9362 14.333 23.9712C14.561 23.9877 15.2139 24.0042 15.3258 23.9972C20.9829 23.827 25.4793 19.1895 25.4746 13.5298C25.4746 9.24098 22.651 6.84384 19.382 4.0672ZM15.1807 21.9867C15.0761 21.9957 14.981 21.9967 14.8753 21.9957C13.0076 21.9386 11.5218 20.4104 11.5173 18.5419C11.5173 17.2762 12.1961 16.6453 13.7323 15.3376C14.1196 15.0082 14.5408 14.6499 14.984 14.2396C15.3724 14.592 15.7497 14.9114 16.098 15.2078C17.6413 16.5175 18.4468 17.2612 18.4468 18.5389C18.4433 20.3719 17.0108 21.8841 15.1807 21.9867ZM20.1917 20.2188L20.1717 20.2328C20.3509 19.687 20.4425 19.1163 20.4432 18.5418C20.4432 16.2809 18.9598 15.0211 17.3907 13.6885C16.8347 13.2174 16.2607 12.7303 15.6878 12.1573L14.981 11.4515L14.2753 12.1573C13.6285 12.8031 12.9956 13.3421 12.4376 13.8173C10.8724 15.1489 9.51983 16.2998 9.51983 18.5418C9.52194 19.1409 9.62314 19.7356 9.81931 20.3017C7.71303 18.6843 6.48369 16.1754 6.4963 13.5198C6.47989 11.7682 7.15785 10.0813 8.38189 8.82825C8.59274 9.25598 8.84267 9.66333 9.12857 10.0451C9.55527 10.6209 10.2834 10.888 10.9813 10.7249C11.6907 10.5669 12.2423 10.0087 12.3917 9.29742C12.8097 7.00317 13.7137 4.82493 15.043 2.90887C16.0961 3.90708 17.1392 4.79048 18.0805 5.59008C21.2069 8.24531 23.4709 10.1639 23.4709 13.5258C23.4758 16.1451 22.2639 18.618 20.1907 20.2188H20.1917V20.2188Z" fill="#374957"/>
</g>
<defs>
<filter id="filter0_d_403_3742" x="-1" y="0" width="32" height="32" filterUnits="userSpaceOnUse" color-interpolation-filters="sRGB">
<feFlood flood-opacity="0" result="BackgroundImageFix"/>
<feColorMatrix in="SourceAlpha" type="matrix" values="0 0 0 0 0 0 0 0 0 0 0 0 0 0 0 0 0 0 127 0" result="hardAlpha"/>
<feOffset dy="4"/>
<feGaussianBlur stdDeviation="2"/>
<feComposite in2="hardAlpha" operator="out"/>
<feColorMatrix type="matrix" values="0 0 0 0 0 0 0 0 0 0 0 0 0 0 0 0 0 0 0.25 0"/>
<feBlend mode="normal" in2="BackgroundImageFix" result="effect1_dropShadow_403_3742"/>
<feBlend mode="normal" in="SourceGraphic" in2="effect1_dropShadow_403_3742" result="shape"/>
</filter>
</defs>
</svg>
