<svg width="32" height="32" viewBox="0 0 32 32" fill="none" xmlns="http://www.w3.org/2000/svg">
<g clip-path="url(#clip0_403_3489)" filter="url(#filter0_d_403_3489)">
<path d="M25 7H21.866C22.5591 6.36808 23.1083 5.59461 23.4765 4.73197C23.8447 3.86932 24.0232 2.93764 24 2H22C22 4.881 20.029 6.307 17.848 6.8C18.5029 5.6318 18.896 4.33519 19 3C19 2.20435 18.6839 1.44129 18.1213 0.87868C17.5587 0.31607 16.7956 0 16 0C15.2044 0 14.4413 0.31607 13.8787 0.87868C13.3161 1.44129 13 2.20435 13 3C13.104 4.33519 13.4971 5.6318 14.152 6.8C11.971 6.307 10 4.881 10 2H8C7.97679 2.93764 8.15532 3.86932 8.5235 4.73197C8.89167 5.59461 9.4409 6.36808 10.134 7H7C6.20435 7 5.44129 7.31607 4.87868 7.87868C4.31607 8.44129 4 9.20435 4 10V14H6V24H26V14H28V10C28 9.20435 27.6839 8.44129 27.1213 7.87868C26.5587 7.31607 25.7956 7 25 7ZM16 2C16.2652 2 16.5196 2.10536 16.7071 2.29289C16.8946 2.48043 17 2.73478 17 3C16.8793 4.06283 16.5387 5.08891 16 6.013C15.4613 5.08891 15.1207 4.06283 15 3C15 2.73478 15.1054 2.48043 15.2929 2.29289C15.4804 2.10536 15.7348 2 16 2V2ZM6 10C6 9.73478 6.10536 9.48043 6.29289 9.29289C6.48043 9.10536 6.73478 9 7 9H15V12H6V10ZM8 14H15V22H8V14ZM24 22H17V14H24V22ZM26 12H17V9H25C25.2652 9 25.5196 9.10536 25.7071 9.29289C25.8946 9.48043 26 9.73478 26 10V12Z" fill="#374957"/>
</g>
<defs>
<filter id="filter0_d_403_3489" x="0" y="0" width="32" height="32" filterUnits="userSpaceOnUse" color-interpolation-filters="sRGB">
<feFlood flood-opacity="0" result="BackgroundImageFix"/>
<feColorMatrix in="SourceAlpha" type="matrix" values="0 0 0 0 0 0 0 0 0 0 0 0 0 0 0 0 0 0 127 0" result="hardAlpha"/>
<feOffset dy="4"/>
<feGaussianBlur stdDeviation="2"/>
<feComposite in2="hardAlpha" operator="out"/>
<feColorMatrix type="matrix" values="0 0 0 0 0 0 0 0 0 0 0 0 0 0 0 0 0 0 0.25 0"/>
<feBlend mode="normal" in2="BackgroundImageFix" result="effect1_dropShadow_403_3489"/>
<feBlend mode="normal" in="SourceGraphic" in2="effect1_dropShadow_403_3489" result="shape"/>
</filter>
<clipPath id="clip0_403_3489">
<rect width="24" height="24" fill="white" transform="translate(4)"/>
</clipPath>
</defs>
</svg>
