<svg width="24" height="24" viewBox="0 0 24 24" fill="none" xmlns="http://www.w3.org/2000/svg">
<g clip-path="url(#clip0_403_3625)">
<path d="M21.2612 2.73891C19.5447 1.07944 17.2831 0.100969 14.8984 -0.0140279C12.5136 -0.129025 10.1684 0.627306 8.30018 2.11391C7.89482 1.46347 7.32968 0.927634 6.65858 0.557463C5.98748 0.187291 5.23278 -0.00489351 4.46637 -0.000783456C3.69996 0.00332659 2.94737 0.203594 2.28028 0.580942C1.61319 0.95829 1.05382 1.50015 0.655459 2.15491C0.257098 2.80967 0.0330097 3.55552 0.00454089 4.32141C-0.0239279 5.0873 0.144171 5.84772 0.492824 6.53025C0.841478 7.21277 1.35907 7.79467 1.99631 8.2205C2.63354 8.64633 3.36919 8.90192 4.13318 8.96291C3.81011 10.9421 4.10446 12.9729 4.97618 14.7789C5.02709 14.871 5.04672 14.9772 5.03211 15.0814C5.0175 15.1857 4.96945 15.2823 4.89518 15.3569L1.28218 18.1569C0.912012 18.4466 0.606671 18.8106 0.385857 19.2255C0.165042 19.6405 0.0336588 20.0971 0.000181755 20.5659C-0.0175937 20.9644 0.0492306 21.362 0.196255 21.7328C0.343279 22.1035 0.567169 22.4389 0.853182 22.7169L1.29818 23.1389C1.57306 23.4226 1.90415 23.6457 2.27025 23.7939C2.63636 23.9422 3.02939 24.0124 3.42418 23.9999C3.8522 23.9921 4.27342 23.8914 4.65876 23.705C5.04411 23.5185 5.38441 23.2507 5.65618 22.9199L8.61418 19.1409C8.68691 19.0575 8.78528 19.0005 8.89386 18.979C9.00245 18.9574 9.11511 18.9725 9.21418 19.0219C11.1388 19.9243 13.2974 20.2025 15.3879 19.8175C17.4784 19.4325 19.3963 18.4037 20.8732 16.8749C22.7876 14.99 23.9068 12.4429 24.0002 9.75791C24.0517 8.4624 23.835 7.17021 23.3637 5.96238C22.8924 4.75455 22.1766 3.65712 21.2612 2.73891V2.73891ZM2.00018 4.49991C2.00018 4.00546 2.1468 3.52211 2.42151 3.11099C2.69621 2.69986 3.08666 2.37943 3.54347 2.19021C4.00029 2.001 4.50296 1.95149 4.98791 2.04795C5.47286 2.14441 5.91832 2.38251 6.26795 2.73215C6.61758 3.08178 6.85568 3.52723 6.95215 4.01219C7.04861 4.49714 6.9991 4.99981 6.80988 5.45662C6.62066 5.91344 6.30023 6.30388 5.88911 6.57859C5.47798 6.85329 4.99464 6.99991 4.50018 6.99991C3.83714 6.99991 3.20126 6.73652 2.73242 6.26768C2.26357 5.79884 2.00018 5.16295 2.00018 4.49991V4.49991ZM10.1002 17.2259C9.59409 16.9767 9.01858 16.906 8.46722 17.0253C7.91585 17.1446 7.42103 17.4468 7.06318 17.8829L4.10018 21.6629C4.01468 21.7646 3.90872 21.8471 3.78919 21.905C3.66967 21.9629 3.53927 21.995 3.40651 21.9992C3.27375 22.0033 3.1416 21.9795 3.01869 21.9291C2.89578 21.8787 2.78486 21.803 2.69318 21.7069L2.24918 21.2849C2.16519 21.2037 2.09953 21.1055 2.05658 20.9968C2.01364 20.8882 1.99441 20.7716 2.00018 20.6549C2.02049 20.4695 2.07841 20.2901 2.1704 20.1278C2.26238 19.9655 2.38651 19.8236 2.53518 19.7109L6.14718 16.9109C6.57327 16.5513 6.86636 16.0592 6.9795 15.5132C7.09264 14.9673 7.01928 14.3992 6.77118 13.8999C6.11449 12.5327 5.8742 11.0026 6.08018 9.49991L14.5002 17.9129C12.9979 18.1229 11.467 17.8839 10.1002 17.2259V17.2259ZM19.4642 15.4609C18.6667 16.2517 17.7241 16.8812 16.6882 17.3149L16.7102 17.2929L7.36018 7.94491C7.87065 7.52714 8.2824 7.00163 8.56593 6.40605C8.84946 5.81046 8.99775 5.15954 9.00018 4.49991C9.00018 4.38091 8.97418 4.26891 8.96518 4.15291C10.4457 2.78255 12.3888 2.02132 14.4062 2.02132C16.4236 2.02132 18.3667 2.78255 19.8472 4.15291C20.5692 4.879 21.1333 5.74663 21.5038 6.70125C21.8743 7.65586 22.0433 8.67682 22.0002 9.69991C21.9224 11.8744 21.0137 13.9363 19.4612 15.4609H19.4642Z" fill="#374957"/>
</g>
<defs>
<clipPath id="clip0_403_3625">
<rect width="24" height="24" fill="white"/>
</clipPath>
</defs>
</svg>
