<svg width="24" height="24" viewBox="0 0 24 24" fill="none" xmlns="http://www.w3.org/2000/svg">
<g clip-path="url(#clip0_403_3291)">
<path d="M23.912 20.0271L22.855 14.0671C23.2905 13.6738 23.6194 13.1767 23.811 12.622C24.0027 12.0674 24.0508 11.4733 23.951 10.895C23.8512 10.3168 23.6067 9.77321 23.2402 9.31493C22.8737 8.85664 22.3972 8.49857 21.855 8.27406C21.4556 5.98762 20.2733 3.91132 18.5108 2.4011C16.7483 0.89087 14.5153 0.040783 12.1946 -0.00343302C9.87401 -0.047649 7.61027 0.716759 5.79149 2.15875C3.97271 3.60074 2.71218 5.6305 2.22599 7.90006L1.49999 12.0001H2.99999C4.79555 11.989 6.56622 11.5791 8.18399 10.8001C8.06555 11.0145 8.00232 11.2551 7.99999 11.5001C7.99863 11.7913 8.0821 12.0767 8.2402 12.3213C8.39829 12.5659 8.62419 12.7592 8.8903 12.8776C9.15642 12.996 9.45124 13.0343 9.73878 12.9879C10.0263 12.9416 10.2941 12.8125 10.5096 12.6164C10.725 12.4204 10.8787 12.1659 10.9518 11.884C11.025 11.6021 11.0146 11.305 10.9217 11.0289C10.8289 10.7528 10.6577 10.5098 10.429 10.3294C10.2003 10.149 9.92409 10.0391 9.63399 10.0131C11.7676 8.68188 13.5745 6.88796 14.921 4.76406C14.3321 4.43716 13.692 4.21264 13.028 4.10006C11.49 6.37906 8.21699 9.56306 3.89299 9.95906L4.18799 8.29006C4.59627 6.43704 5.64988 4.78947 7.16071 3.64153C8.67153 2.49359 10.5412 1.92003 12.4358 2.02326C14.3305 2.12649 16.1268 2.89979 17.5039 4.20508C18.8811 5.51036 19.7495 7.26266 19.954 9.14906L20.032 9.89506L20.77 10.0281C21.1343 10.0993 21.4593 10.3032 21.682 10.6001C21.9048 10.8971 22.0095 11.2662 21.9759 11.6359C21.9423 12.0056 21.7728 12.3497 21.5002 12.6017C21.2276 12.8537 20.8712 12.9956 20.5 13.0001C20.414 13.0001 19.413 12.8251 19.413 12.8251L19.131 13.6251C18.214 16.2221 15.13 19.0001 12 19.0001C9.13899 19.0001 6.32199 16.6771 5.15799 14.3001L4.64799 17.1791C5.59892 18.3447 6.77718 19.3045 8.11099 20.0001H7.99999V22.0001H3.23799C3.05232 21.9994 2.86915 21.9572 2.70197 21.8764C2.53479 21.7956 2.38784 21.6784 2.27195 21.5333C2.15605 21.3882 2.07416 21.219 2.03228 21.0382C1.99041 20.8573 1.98963 20.6693 2.02999 20.4881L3.17999 13.9881C3.11999 13.9881 3.06099 13.9991 2.99999 13.9991H1.14699L0.0649933 20.1151C-0.0309258 20.5854 -0.0210628 21.0712 0.0938684 21.5373C0.2088 22.0034 0.425923 22.4381 0.729523 22.8099C1.03312 23.1818 1.4156 23.4814 1.84927 23.6873C2.28294 23.8931 2.75695 24 3.23699 24.0001H9.99999V20.7341C11.3097 21.0887 12.6902 21.0887 14 20.7341V24.0001H20.762C21.2565 24.0016 21.7448 23.889 22.1888 23.6712C22.6327 23.4534 23.0205 23.1361 23.322 22.7441C23.6202 22.3657 23.8283 21.9244 23.9305 21.4536C24.0328 20.9829 24.0264 20.495 23.912 20.0271V20.0271ZM21.74 21.5201C21.6248 21.6699 21.4767 21.7911 21.3071 21.8743C21.1375 21.9576 20.9509 22.0006 20.762 22.0001H16V19.9541C18.0641 18.8444 19.7215 17.1065 20.732 14.9921C20.817 14.9871 20.897 14.9631 20.98 14.9521L21.959 20.4521C22.0073 20.6349 22.0126 20.8265 21.9746 21.0117C21.9366 21.197 21.8563 21.371 21.74 21.5201ZM14.5 13.0001C14.2033 13.0001 13.9133 12.9121 13.6666 12.7473C13.42 12.5824 13.2277 12.3482 13.1142 12.0741C13.0006 11.8 12.9709 11.4984 13.0288 11.2074C13.0867 10.9164 13.2296 10.6492 13.4393 10.4394C13.6491 10.2296 13.9164 10.0868 14.2074 10.0289C14.4983 9.971 14.7999 10.0007 15.074 10.1142C15.3481 10.2278 15.5824 10.42 15.7472 10.6667C15.912 10.9134 16 11.2034 16 11.5001C16 11.8979 15.842 12.2794 15.5607 12.5607C15.2793 12.842 14.8978 13.0001 14.5 13.0001Z" fill="#374957"/>
</g>
<defs>
<clipPath id="clip0_403_3291">
<rect width="24" height="24" fill="white"/>
</clipPath>
</defs>
</svg>
