<svg width="32" height="32" viewBox="0 0 32 32" fill="none" xmlns="http://www.w3.org/2000/svg">
<g clip-path="url(#clip0_403_3355)" filter="url(#filter0_d_403_3355)">
<path d="M25.8352 2.16567C25.149 1.47933 24.3344 0.934887 23.4378 0.563434C22.5412 0.19198 21.5802 0.000793457 20.6097 0.000793457C19.6392 0.000793457 18.6782 0.19198 17.7816 0.563434C16.885 0.934887 16.0703 1.47933 15.3842 2.16567L6.16516 11.3847C5.47589 12.0702 4.92865 12.885 4.55481 13.7824C4.18096 14.6798 3.98785 15.6422 3.98653 16.6143C3.98522 17.5865 4.17573 18.5493 4.54715 19.4477C4.91856 20.3461 5.46359 21.1624 6.15101 21.8498C6.83842 22.5372 7.65471 23.0823 8.55311 23.4537C9.45151 23.8251 10.4144 24.0156 11.3865 24.0143C12.3587 24.013 13.321 23.8199 14.2184 23.446C15.1158 23.0722 15.9306 22.5249 16.6162 21.8357L25.8352 12.6167C26.5215 11.9305 27.0659 11.1159 27.4374 10.2193C27.8088 9.32267 28 8.36167 28 7.39117C28 6.42067 27.8088 5.45967 27.4374 4.56307C27.0659 3.66647 26.5215 2.85183 25.8352 2.16567V2.16567ZM24.4212 11.2007L15.2002 20.4217C14.7036 20.9391 14.1088 21.3522 13.4505 21.6368C12.7923 21.9215 12.0838 22.0719 11.3667 22.0792C10.6496 22.0866 9.93823 21.9508 9.27426 21.6798C8.6103 21.4087 8.0071 21.0079 7.5 20.5008C6.9929 19.9937 6.59209 19.3905 6.32106 18.7266C6.05002 18.0626 5.91422 17.3512 5.92159 16.6341C5.92896 15.917 6.07936 15.2086 6.36399 14.5503C6.64862 13.8921 7.06174 13.2972 7.57916 12.8007L16.8002 3.57967C17.2967 3.06225 17.8916 2.64913 18.5498 2.3645C19.2081 2.07987 19.9165 1.92947 20.6336 1.9221C21.3507 1.91473 22.0621 2.05053 22.7261 2.32157C23.39 2.5926 23.9932 2.99341 24.5003 3.50051C25.0074 4.00761 25.4082 4.61081 25.6793 5.27477C25.9503 5.93874 26.0861 6.65011 26.0787 7.36722C26.0714 8.08434 25.921 8.79277 25.6363 9.45102C25.3517 10.1093 24.9386 10.7041 24.4212 11.2007ZM22.2932 8.29367L23.7072 9.70767L20.7072 12.7077L19.2932 11.2937L20.0862 10.5007L17.5002 7.91467L16.7072 8.70767L15.2932 7.29367L18.2932 4.29367L19.7072 5.70767L18.9142 6.50067L21.5002 9.08667L22.2932 8.29367ZM15.2932 15.2937L16.7072 16.7077L13.7072 19.7077L12.2932 18.2937L13.0862 17.5007L10.5002 14.9147L9.70716 15.7077L8.29316 14.2937L11.2932 11.2937L12.7072 12.7077L11.9142 13.5007L14.5002 16.0867L15.2932 15.2937Z" fill="#374957"/>
</g>
<defs>
<filter id="filter0_d_403_3355" x="0" y="0" width="32" height="32" filterUnits="userSpaceOnUse" color-interpolation-filters="sRGB">
<feFlood flood-opacity="0" result="BackgroundImageFix"/>
<feColorMatrix in="SourceAlpha" type="matrix" values="0 0 0 0 0 0 0 0 0 0 0 0 0 0 0 0 0 0 127 0" result="hardAlpha"/>
<feOffset dy="4"/>
<feGaussianBlur stdDeviation="2"/>
<feComposite in2="hardAlpha" operator="out"/>
<feColorMatrix type="matrix" values="0 0 0 0 0 0 0 0 0 0 0 0 0 0 0 0 0 0 0.25 0"/>
<feBlend mode="normal" in2="BackgroundImageFix" result="effect1_dropShadow_403_3355"/>
<feBlend mode="normal" in="SourceGraphic" in2="effect1_dropShadow_403_3355" result="shape"/>
</filter>
<clipPath id="clip0_403_3355">
<rect width="24" height="24" fill="white" transform="translate(4)"/>
</clipPath>
</defs>
</svg>
