<svg width="24" height="24" viewBox="0 0 24 24" fill="none" xmlns="http://www.w3.org/2000/svg">
<path d="M20.0001 9.07988C20.0001 9.05288 20.0001 9.02688 20.0001 8.99988C20.0001 6.87815 19.1572 4.84331 17.6569 3.34302C16.1567 1.84273 14.1218 0.999878 12.0001 0.999878C9.87836 0.999878 7.84353 1.84273 6.34323 3.34302C4.84294 4.84331 4.00009 6.87815 4.00009 8.99988C4.00009 9.02688 4.00009 9.05288 4.00009 9.07988C3.09147 9.60517 2.29522 10.3043 1.65678 11.1373C1.01835 11.9703 0.550243 12.9209 0.279189 13.9348C0.0081349 14.9488 -0.0605582 16.0061 0.0770318 17.0466C0.214622 18.0871 0.5558 19.0903 1.08109 19.9989C1.60638 20.9075 2.30548 21.7037 3.1385 22.3422C3.97151 22.9806 4.92212 23.4487 5.93604 23.7198C6.94997 23.9908 8.00735 24.0595 9.04782 23.9219C10.0883 23.7843 11.0915 23.4432 12.0001 22.9179C12.9087 23.4432 13.9119 23.7843 14.9524 23.9219C15.9928 24.0595 17.0502 23.9908 18.0641 23.7198C19.0781 23.4487 20.0287 22.9806 20.8617 22.3422C21.6947 21.7037 22.3938 20.9075 22.9191 19.9989C23.4444 19.0903 23.7856 18.0871 23.9231 17.0466C24.0607 16.0061 23.992 14.9488 23.721 13.9348C23.4499 12.9209 22.9818 11.9703 22.3434 11.1373C21.705 10.3043 20.9087 9.60517 20.0001 9.07988V9.07988ZM12.0001 20.4599C10.9252 19.4981 10.2335 18.1808 10.0521 16.7499C11.3306 17.0839 12.6735 17.0839 13.9521 16.7499C13.7696 18.1813 13.0765 19.4988 12.0001 20.4599V20.4599ZM12.0001 14.9999C11.3698 14.9986 10.7437 14.8973 10.1451 14.6999C10.4188 13.4789 11.0674 12.374 12.0001 11.5399C12.9328 12.374 13.5814 13.4789 13.8551 14.6999C13.2565 14.8973 12.6304 14.9986 12.0001 14.9999V14.9999ZM8.33109 13.7369C7.22393 12.8812 6.45068 11.6654 6.14509 10.2999C7.48963 9.85839 8.9475 9.91051 10.2571 10.4469C9.35957 11.3725 8.69884 12.5011 8.33109 13.7369V13.7369ZM13.7431 10.4439C15.0527 9.90751 16.5105 9.85539 17.8551 10.2969C17.5501 11.6635 16.7768 12.8804 15.6691 13.7369C15.3018 12.5001 14.641 11.3703 13.7431 10.4439V10.4439ZM12.0001 2.99988C13.4603 3.00215 14.8697 3.53644 15.9645 4.50276C17.0593 5.46908 17.7645 6.80121 17.9481 8.24988C15.9334 7.72937 13.7946 8.02855 12.0001 9.08188C10.2056 8.02855 8.06675 7.72937 6.05209 8.24988C6.23568 6.80121 6.94085 5.46908 8.03565 4.50276C9.13044 3.53644 10.5398 3.00215 12.0001 2.99988V2.99988ZM2.00009 15.9999C2.00071 15.0847 2.21116 14.1818 2.61525 13.3606C3.01934 12.5394 3.60632 11.8218 4.33109 11.2629C4.91519 13.2264 6.22776 14.8925 8.00009 15.9199C8.00009 15.9469 8.00009 15.9729 8.00009 15.9999C8.00019 18.0751 8.80994 20.0685 10.2571 21.5559C9.3465 21.9274 8.35847 22.0691 7.38017 21.9685C6.40186 21.868 5.46334 21.5282 4.6474 20.9791C3.83145 20.4301 3.16317 19.6887 2.70149 18.8203C2.23981 17.952 1.99892 16.9833 2.00009 15.9999V15.9999ZM16.0001 21.9999C15.2261 21.9995 14.4596 21.8487 13.7431 21.5559C15.1902 20.0685 16 18.0751 16.0001 15.9999C16.0001 15.9729 16.0001 15.9469 16.0001 15.9199C17.7739 14.8932 19.088 13.2271 19.6731 11.2629C20.6639 12.0277 21.3904 13.0836 21.7506 14.2823C22.1107 15.481 22.0866 16.7624 21.6815 17.9467C21.2763 19.1309 20.5106 20.1587 19.4916 20.8856C18.4727 21.6125 17.2517 22.0022 16.0001 21.9999V21.9999Z" fill="#374957"/>
</svg>
