<svg width="24" height="24" viewBox="0 0 24 24" fill="none" xmlns="http://www.w3.org/2000/svg">
<g clip-path="url(#clip0_403_3596)">
<path d="M19 3C19.6512 2.13561 20.0023 1.08223 20 0H18C18 0.79565 17.6839 1.55871 17.1213 2.12132C16.5587 2.68393 15.7956 3 15 3H9C8.20435 3 7.44129 2.68393 6.87868 2.12132C6.31607 1.55871 6 0.79565 6 0L4 0C3.99768 1.08223 4.3488 2.13561 5 3H0V4C0.0699852 5.07941 0.404634 6.12499 0.974405 7.04443C1.54418 7.96388 2.33154 8.72892 3.267 9.272L6 21.129C6.03327 21.9021 6.36397 22.6324 6.92302 23.1674C7.48206 23.7024 8.2262 24.0007 9 24H15C15.7738 24.0007 16.5179 23.7024 17.077 23.1674C17.636 22.6324 17.9667 21.9021 18 21.129L20.733 9.272C21.6685 8.72892 22.4558 7.96388 23.0256 7.04443C23.5954 6.12499 23.93 5.07941 24 4V3H19ZM15.688 5C16.7848 5.79643 17.7059 6.81014 18.394 7.978C17.7058 7.93535 17.0161 8.03325 16.367 8.26573C15.7178 8.49821 15.1228 8.8604 14.6182 9.33025C14.1135 9.8001 13.7098 10.3678 13.4316 10.9987C13.1534 11.6296 13.0066 12.3105 13 13V18H11V13C10.9934 12.3105 10.8466 11.6296 10.5684 10.9987C10.2902 10.3678 9.88649 9.8001 9.38184 9.33025C8.87718 8.8604 8.28216 8.49821 7.63302 8.26573C6.98387 8.03325 6.2942 7.93535 5.606 7.978C6.29405 6.81014 7.21517 5.79643 8.312 5H15.688ZM5.326 5C4.7206 5.66961 4.19106 6.40407 3.747 7.19C3.03715 6.61687 2.4991 5.8591 2.192 5H5.326ZM6 10C6.35283 9.99972 6.70292 10.062 7.034 10.184C6.98289 10.4288 6.99355 10.6825 7.06501 10.9221C7.13647 11.1618 7.26648 11.3799 7.44331 11.5567C7.62014 11.7335 7.83823 11.8635 8.07788 11.935C8.31753 12.0065 8.5712 12.0171 8.816 11.966C8.93798 12.2971 9.00028 12.6472 9 13V18C8.44787 17.9992 7.90637 18.1519 7.436 18.441L5.483 9.976C5.652 9.992 5.824 10 6 10ZM15 22H9C8.73478 22 8.48043 21.8946 8.29289 21.7071C8.10536 21.5196 8 21.2652 8 21C8 20.7348 8.10536 20.4804 8.29289 20.2929C8.48043 20.1054 8.73478 20 9 20H15C15.2652 20 15.5196 20.1054 15.7071 20.2929C15.8946 20.4804 16 20.7348 16 21C16 21.2652 15.8946 21.5196 15.7071 21.7071C15.5196 21.8946 15.2652 22 15 22ZM16.564 18.441C16.0936 18.1519 15.5521 17.9992 15 18V13C14.9997 12.6472 15.062 12.2971 15.184 11.966C15.4288 12.0171 15.6825 12.0065 15.9221 11.935C16.1618 11.8635 16.3799 11.7335 16.5567 11.5567C16.7335 11.3799 16.8635 11.1618 16.935 10.9221C17.0065 10.6825 17.0171 10.4288 16.966 10.184C17.4685 10.0321 17.9922 9.9619 18.517 9.976L16.564 18.441ZM20.253 7.19C19.8089 6.40407 19.2794 5.66961 18.674 5H21.808C21.5009 5.8591 20.9628 6.61687 20.253 7.19V7.19Z" fill="#374957"/>
</g>
<defs>
<clipPath id="clip0_403_3596">
<rect width="24" height="24" fill="white"/>
</clipPath>
</defs>
</svg>
