<svg width="30" height="32" viewBox="0 0 30 32" fill="none" xmlns="http://www.w3.org/2000/svg">
<g clip-path="url(#clip0_403_3723)" filter="url(#filter0_d_403_3723)">
<path d="M22.9998 0H5.99983V3H3.99983V5H5.99983V7H3.99983V9H5.99983V11H3.99983V13H5.99983V15H3.99983V17H5.99983V19H3.99983V21H5.99983V24H22.9998C23.7955 24 24.5585 23.6839 25.1212 23.1213C25.6838 22.5587 25.9998 21.7956 25.9998 21V3C25.9998 2.20435 25.6838 1.44129 25.1212 0.87868C24.5585 0.31607 23.7955 0 22.9998 0V0ZM23.9998 21C23.9998 21.2652 23.8945 21.5196 23.7069 21.7071C23.5194 21.8946 23.265 22 22.9998 22H7.99983V2H22.9998C23.265 2 23.5194 2.10536 23.7069 2.29289C23.8945 2.48043 23.9998 2.73478 23.9998 3V21ZM15.9998 12C16.5932 12 17.1732 11.8241 17.6665 11.4944C18.1599 11.1648 18.5444 10.6962 18.7715 10.1481C18.9985 9.59987 19.0579 8.99667 18.9422 8.41473C18.8264 7.83279 18.5407 7.29824 18.1212 6.87868C17.7016 6.45912 17.167 6.1734 16.5851 6.05764C16.0032 5.94189 15.4 6.0013 14.8518 6.22836C14.3036 6.45542 13.8351 6.83994 13.5054 7.33329C13.1758 7.82664 12.9998 8.40666 12.9998 9C12.9998 9.79565 13.3159 10.5587 13.8785 11.1213C14.4411 11.6839 15.2042 12 15.9998 12ZM20.9998 16V18H18.9998V16C18.9998 15.7348 18.8945 15.4804 18.7069 15.2929C18.5194 15.1054 18.265 15 17.9998 15H13.9998C13.7346 15 13.4803 15.1054 13.2927 15.2929C13.1052 15.4804 12.9998 15.7348 12.9998 16V18H10.9998V16C10.9998 15.2044 11.3159 14.4413 11.8785 13.8787C12.4411 13.3161 13.2042 13 13.9998 13H17.9998C18.7955 13 19.5585 13.3161 20.1212 13.8787C20.6838 14.4413 20.9998 15.2044 20.9998 16Z" fill="#374957"/>
</g>
<defs>
<filter id="filter0_d_403_3723" x="-1" y="0" width="32" height="32" filterUnits="userSpaceOnUse" color-interpolation-filters="sRGB">
<feFlood flood-opacity="0" result="BackgroundImageFix"/>
<feColorMatrix in="SourceAlpha" type="matrix" values="0 0 0 0 0 0 0 0 0 0 0 0 0 0 0 0 0 0 127 0" result="hardAlpha"/>
<feOffset dy="4"/>
<feGaussianBlur stdDeviation="2"/>
<feComposite in2="hardAlpha" operator="out"/>
<feColorMatrix type="matrix" values="0 0 0 0 0 0 0 0 0 0 0 0 0 0 0 0 0 0 0.25 0"/>
<feBlend mode="normal" in2="BackgroundImageFix" result="effect1_dropShadow_403_3723"/>
<feBlend mode="normal" in="SourceGraphic" in2="effect1_dropShadow_403_3723" result="shape"/>
</filter>
<clipPath id="clip0_403_3723">
<rect width="24" height="24" fill="white" transform="translate(3)"/>
</clipPath>
</defs>
</svg>
