<svg width="32" height="32" viewBox="0 0 32 32" fill="none" xmlns="http://www.w3.org/2000/svg">
<g clip-path="url(#clip0_403_3378)" filter="url(#filter0_d_403_3378)">
<path d="M28 13.0007H4V11.0007H28V13.0007ZM12.886 0.427726L12.786 0.359726C12.4068 0.132289 11.9742 0.00947458 11.532 0.00380656C11.0899 -0.00186146 10.6542 0.10982 10.2694 0.327462C9.88452 0.545104 9.56426 0.86092 9.34126 1.24271C9.11827 1.62449 9.00051 2.05859 9 2.50073V9.00073H23.916L12.886 0.427726ZM11 2.50073C11 2.41603 11.0215 2.33271 11.0625 2.2586C11.1035 2.18449 11.1627 2.12201 11.2345 2.07703C11.3062 2.03205 11.3883 2.00604 11.4728 2.00144C11.5574 1.99684 11.6418 2.0138 11.718 2.05073L18.084 7.00073H11V2.50073ZM12.787 23.6417L23.916 15.0007H9V21.5007C8.99816 21.9439 9.11445 22.3796 9.33691 22.7629C9.55938 23.1463 9.87997 23.4634 10.2657 23.6817C10.6514 23.8999 11.0883 24.0115 11.5315 24.0048C11.9746 23.9981 12.408 23.8735 12.787 23.6437V23.6417ZM18.084 17.0007L11.718 21.9487C11.6419 21.9856 11.5577 22.0026 11.4733 21.998C11.3889 21.9935 11.307 21.9677 11.2353 21.923C11.1636 21.8782 11.1044 21.816 11.0632 21.7422C11.0221 21.6683 11.0003 21.5853 11 21.5007V17.0007H18.084Z" fill="#374957"/>
</g>
<defs>
<filter id="filter0_d_403_3378" x="0" y="0" width="32" height="32" filterUnits="userSpaceOnUse" color-interpolation-filters="sRGB">
<feFlood flood-opacity="0" result="BackgroundImageFix"/>
<feColorMatrix in="SourceAlpha" type="matrix" values="0 0 0 0 0 0 0 0 0 0 0 0 0 0 0 0 0 0 127 0" result="hardAlpha"/>
<feOffset dy="4"/>
<feGaussianBlur stdDeviation="2"/>
<feComposite in2="hardAlpha" operator="out"/>
<feColorMatrix type="matrix" values="0 0 0 0 0 0 0 0 0 0 0 0 0 0 0 0 0 0 0.25 0"/>
<feBlend mode="normal" in2="BackgroundImageFix" result="effect1_dropShadow_403_3378"/>
<feBlend mode="normal" in="SourceGraphic" in2="effect1_dropShadow_403_3378" result="shape"/>
</filter>
<clipPath id="clip0_403_3378">
<rect width="24" height="24" fill="white" transform="translate(4)"/>
</clipPath>
</defs>
</svg>
