<svg width="24" height="24" viewBox="0 0 24 24" fill="none" xmlns="http://www.w3.org/2000/svg">
<g clip-path="url(#clip0_403_3394)">
<path d="M22.0001 22H6.46012C7.45098 20.9033 7.99972 19.478 8.00012 18V14H16.0001V12H8.00012V8C8.00012 6.4087 8.63226 4.88258 9.75748 3.75736C10.8827 2.63214 12.4088 2 14.0001 2C15.5914 2 17.1175 2.63214 18.2428 3.75736C19.368 4.88258 20.0001 6.4087 20.0001 8H22.0001C22.0001 5.87827 21.1573 3.84344 19.657 2.34315C18.1567 0.842855 16.1219 0 14.0001 0C11.8784 0 9.84356 0.842855 8.34327 2.34315C6.84298 3.84344 6.00012 5.87827 6.00012 8V12H3.00012V14H6.00012V18C6.00012 19.0609 5.57869 20.0783 4.82855 20.8284C4.0784 21.5786 3.06099 22 2.00012 22V24H22.0001V22Z" fill="#374957"/>
</g>
<defs>
<clipPath id="clip0_403_3394">
<rect width="24" height="24" fill="white"/>
</clipPath>
</defs>
</svg>
