<svg width="32" height="32" viewBox="0 0 32 32" fill="none" xmlns="http://www.w3.org/2000/svg">
<g clip-path="url(#clip0_403_3362)" filter="url(#filter0_d_403_3362)">
<path d="M27.9999 22.5888L21.7501 16.339C25.2448 12.065 24.6129 5.76716 20.3389 2.27248C16.0648 -1.22219 9.76703 -0.59036 6.27236 3.68375C2.77769 7.95786 3.40952 14.2556 7.68358 17.7503C11.365 20.7604 16.6574 20.7604 20.3388 17.7503L26.5887 24L27.9999 22.5888ZM14.0272 18.0117C9.61755 18.0117 6.04282 14.437 6.04282 10.0273C6.04282 5.61767 9.61755 2.04294 14.0272 2.04294C18.4369 2.04294 22.0116 5.61767 22.0116 10.0273C22.0066 14.435 18.4348 18.0068 14.0272 18.0117ZM15.9984 6.03514C15.2717 6.02628 14.5671 6.28447 14.0182 6.76072C13.4576 6.28301 12.7426 6.0252 12.0062 6.03514C10.299 6.09373 8.96045 7.5215 9.01202 9.22892C9.01202 11.9656 12.9733 14.8469 13.4254 15.1663L14.0023 15.5745L14.5781 15.1663C15.0302 14.8469 18.9925 11.9655 18.9925 9.22892C19.0435 7.52169 17.7053 6.09425 15.9984 6.03514ZM14.0023 13.1023C12.605 11.9925 11.0081 10.3008 11.0081 9.22892C10.9583 8.62428 11.4024 8.09131 12.0062 8.03126C12.5353 7.99606 12.9927 8.39647 13.0279 8.92555C13.0302 8.96009 13.0307 8.99473 13.0292 9.02928H15.0253C14.9784 8.52598 15.3483 8.08001 15.8516 8.03309C15.9004 8.02855 15.9495 8.02794 15.9984 8.03122C16.6018 8.09178 17.0457 8.62437 16.9964 9.22887C16.9964 10.3008 15.3955 11.9925 14.0023 13.1023Z" fill="#374957"/>
</g>
<defs>
<filter id="filter0_d_403_3362" x="0" y="0" width="32" height="32" filterUnits="userSpaceOnUse" color-interpolation-filters="sRGB">
<feFlood flood-opacity="0" result="BackgroundImageFix"/>
<feColorMatrix in="SourceAlpha" type="matrix" values="0 0 0 0 0 0 0 0 0 0 0 0 0 0 0 0 0 0 127 0" result="hardAlpha"/>
<feOffset dy="4"/>
<feGaussianBlur stdDeviation="2"/>
<feComposite in2="hardAlpha" operator="out"/>
<feColorMatrix type="matrix" values="0 0 0 0 0 0 0 0 0 0 0 0 0 0 0 0 0 0 0.25 0"/>
<feBlend mode="normal" in2="BackgroundImageFix" result="effect1_dropShadow_403_3362"/>
<feBlend mode="normal" in="SourceGraphic" in2="effect1_dropShadow_403_3362" result="shape"/>
</filter>
<clipPath id="clip0_403_3362">
<rect width="24" height="24" fill="white" transform="translate(4)"/>
</clipPath>
</defs>
</svg>
