<svg width="24" height="24" viewBox="0 0 24 24" fill="none" xmlns="http://www.w3.org/2000/svg">
<g clip-path="url(#clip0_403_3406)">
<path d="M0 22H20V24H0V22ZM24 8C24 10.774 21.815 14 19 14H17.965L16.828 20H3.172L0.065 3.618C-0.0231696 3.18163 -0.0137706 2.73115 0.0925243 2.29884C0.198819 1.86652 0.399381 1.46305 0.67985 1.11731C0.960319 0.771575 1.31376 0.492123 1.71486 0.298963C2.11597 0.105803 2.55482 0.00371203 3 0L17 0C17.4494 1.04118e-05 17.8931 0.100997 18.2983 0.295499C18.7034 0.490001 19.0597 0.773047 19.3408 1.12373C19.6219 1.47441 19.8206 1.88376 19.9222 2.32154C20.0238 2.75933 20.0258 3.21435 19.928 3.653L19.852 4.053C22.46 4.307 24 5.734 24 8ZM17.969 3.249C18.0065 3.09857 18.0089 2.94154 17.9762 2.79002C17.9434 2.63849 17.8763 2.49651 17.78 2.375C17.6864 2.25806 17.5677 2.16365 17.4327 2.09875C17.2977 2.03384 17.1498 2.00009 17 2H3C2.85064 2.00101 2.70339 2.03527 2.56892 2.10029C2.43445 2.16531 2.31615 2.25945 2.2226 2.37588C2.12905 2.49232 2.0626 2.62812 2.02808 2.77344C1.99355 2.91875 1.99182 3.06993 2.023 3.216L4.828 18H15.172L17.969 3.249ZM22 8C22 7.533 22 6.169 19.479 6.015L18.345 12H19C20.545 12 22 9.746 22 8Z" fill="#374957"/>
</g>
<defs>
<clipPath id="clip0_403_3406">
<rect width="24" height="24" fill="white"/>
</clipPath>
</defs>
</svg>
