<svg width="32" height="32" viewBox="0 0 32 32" fill="none" xmlns="http://www.w3.org/2000/svg">
<g clip-path="url(#clip0_403_3748)" filter="url(#filter0_d_403_3748)">
<path d="M27.2589 16.1999L24.6589 6.82893C24.1037 4.82435 22.8939 3.06307 21.2221 1.82542C19.5504 0.587761 17.5127 -0.055148 15.4333 -0.000988358C13.354 0.0531713 11.3525 0.801287 9.74744 2.12429C8.14237 3.4473 7.02594 5.26916 6.57585 7.29993L4.56485 16.3499C4.46755 16.7884 4.46992 17.2431 4.5718 17.6805C4.67368 18.1179 4.87246 18.5268 5.15349 18.8771C5.43451 19.2275 5.79061 19.5102 6.1955 19.7045C6.60039 19.8989 7.04374 19.9998 7.49285 19.9999H11.0999C11.3294 21.1302 11.9426 22.1464 12.8356 22.8763C13.7286 23.6062 14.8465 24.0049 15.9999 24.0049C17.1532 24.0049 18.2711 23.6062 19.1641 22.8763C20.0571 22.1464 20.6703 21.1302 20.8999 19.9999H24.3699C24.832 19.9997 25.2878 19.8928 25.7017 19.6874C26.1157 19.482 26.4766 19.1838 26.7564 18.816C27.0361 18.4482 27.2271 18.0207 27.3144 17.5669C27.4018 17.1131 27.3831 16.6453 27.2599 16.1999H27.2589ZM15.9999 21.9999C15.3816 21.9974 14.7792 21.8038 14.2752 21.4458C13.7711 21.0878 13.3899 20.5828 13.1839 19.9999H18.8159C18.6098 20.5828 18.2286 21.0878 17.7246 21.4458C17.2205 21.8038 16.6181 21.9974 15.9999 21.9999V21.9999ZM25.1649 17.6049C25.0716 17.7286 24.9506 17.8287 24.8117 17.8973C24.6728 17.9659 24.5198 18.0011 24.3649 17.9999H7.49285C7.34312 17.9999 7.19529 17.9663 7.0603 17.9015C6.92531 17.8367 6.80659 17.7424 6.71291 17.6256C6.61923 17.5087 6.55297 17.3724 6.51904 17.2265C6.48511 17.0807 6.48436 16.9291 6.51685 16.7829L8.52785 7.73293C8.88221 6.13914 9.75916 4.70953 11.0193 3.67138C12.2795 2.63322 13.8505 2.0461 15.4826 2.00334C17.1148 1.96058 18.7144 2.46465 20.0272 3.4354C21.3399 4.40615 22.2905 5.78787 22.7279 7.36093L25.3279 16.7319C25.3703 16.8801 25.3777 17.0361 25.3494 17.1877C25.3211 17.3392 25.2579 17.482 25.1649 17.6049V17.6049Z" fill="#374957"/>
</g>
<defs>
<filter id="filter0_d_403_3748" x="0" y="0" width="32" height="32" filterUnits="userSpaceOnUse" color-interpolation-filters="sRGB">
<feFlood flood-opacity="0" result="BackgroundImageFix"/>
<feColorMatrix in="SourceAlpha" type="matrix" values="0 0 0 0 0 0 0 0 0 0 0 0 0 0 0 0 0 0 127 0" result="hardAlpha"/>
<feOffset dy="4"/>
<feGaussianBlur stdDeviation="2"/>
<feComposite in2="hardAlpha" operator="out"/>
<feColorMatrix type="matrix" values="0 0 0 0 0 0 0 0 0 0 0 0 0 0 0 0 0 0 0.25 0"/>
<feBlend mode="normal" in2="BackgroundImageFix" result="effect1_dropShadow_403_3748"/>
<feBlend mode="normal" in="SourceGraphic" in2="effect1_dropShadow_403_3748" result="shape"/>
</filter>
<clipPath id="clip0_403_3748">
<rect width="24" height="24" fill="white" transform="translate(4)"/>
</clipPath>
</defs>
</svg>
