<svg width="32" height="32" viewBox="0 0 32 32" fill="none" xmlns="http://www.w3.org/2000/svg">
<g clip-path="url(#clip0_403_3641)" filter="url(#filter0_d_403_3641)">
<path d="M23.9996 11.9999C23.3861 11.9997 22.7809 12.141 22.2308 12.4125C21.6807 12.6841 21.2006 13.0788 20.8276 13.5659L20.7576 13.5359C21.0326 12.6839 21.0739 11.7737 20.877 10.9003C20.6801 10.027 20.2523 9.22249 19.6384 8.57092C19.0244 7.91934 18.2467 7.44457 17.3866 7.19618C16.5265 6.9478 15.6154 6.93491 14.7486 7.15886L14.6576 6.98686C15.384 6.34059 15.8498 5.4516 15.9676 4.48651C16.0855 3.52141 15.8474 2.54646 15.2979 1.74437C14.7484 0.942272 13.9252 0.368092 12.9827 0.129434C12.0402 -0.109224 11.043 0.00402233 10.178 0.447949C9.31301 0.891875 8.63958 1.63601 8.28394 2.54089C7.9283 3.44578 7.91486 4.4493 8.24613 5.36339C8.5774 6.27747 9.23065 7.03938 10.0834 7.50632C10.9362 7.97326 11.93 8.11318 12.8786 7.89986L12.9516 8.03686C11.9517 8.80419 11.279 9.92138 11.0687 11.1641C10.8583 12.4069 11.1259 13.6832 11.8176 14.7369L9.93262 16.4999C9.08059 16.0291 8.08614 15.8852 7.13561 16.0951C6.18509 16.3051 5.34374 16.8544 4.76922 17.6402C4.1947 18.426 3.92644 19.3944 4.01472 20.3638C4.103 21.3332 4.54175 22.2372 5.24875 22.9063C5.95576 23.5754 6.8825 23.9637 7.85531 23.9985C8.82811 24.0333 9.78022 23.7121 10.5332 23.0952C11.2862 22.4783 11.7884 21.608 11.9457 20.6474C12.103 19.6867 11.9046 18.7017 11.3876 17.8769L13.2256 16.1589C14.2351 16.8336 15.4559 17.1174 16.6594 16.957C17.863 16.7967 18.967 16.2033 19.7646 15.2879L20.0436 15.4069C19.9226 16.2143 20.0515 17.0395 20.4132 17.7715C20.7748 18.5035 21.3518 19.1074 22.0666 19.5019C22.7814 19.8964 23.5999 20.0627 24.412 19.9785C25.2241 19.8943 25.991 19.5636 26.6097 19.0308C27.2284 18.498 27.6692 17.7886 27.8729 16.9979C28.0766 16.2073 28.0335 15.3732 27.7494 14.6078C27.4652 13.8423 26.9536 13.1822 26.2833 12.716C25.613 12.2498 24.8161 11.9999 23.9996 11.9999V11.9999ZM9.99962 3.99986C9.99962 3.6043 10.1169 3.21762 10.3367 2.88872C10.5564 2.55982 10.8688 2.30348 11.2343 2.1521C11.5997 2.00073 12.0018 1.96112 12.3898 2.03829C12.7778 2.11546 13.1341 2.30594 13.4138 2.58565C13.6935 2.86535 13.884 3.22172 13.9612 3.60968C14.0384 3.99764 13.9988 4.39978 13.8474 4.76523C13.696 5.13068 13.4397 5.44304 13.1108 5.6628C12.7819 5.88256 12.3952 5.99986 11.9996 5.99986C11.4692 5.99986 10.9605 5.78915 10.5854 5.41408C10.2103 5.039 9.99962 4.5303 9.99962 3.99986ZM7.99962 21.9999C7.60406 21.9999 7.21738 21.8826 6.88848 21.6628C6.55958 21.443 6.30324 21.1307 6.15186 20.7652C6.00049 20.3998 5.96088 19.9976 6.03805 19.6097C6.11522 19.2217 6.3057 18.8654 6.58541 18.5856C6.86511 18.3059 7.22148 18.1155 7.60944 18.0383C7.9974 17.9611 8.39954 18.0007 8.76499 18.1521C9.13044 18.3035 9.4428 18.5598 9.66256 18.8887C9.88232 19.2176 9.99962 19.6043 9.99962 19.9999C9.99962 20.5303 9.78891 21.039 9.41384 21.4141C9.03876 21.7891 8.53005 21.9999 7.99962 21.9999ZM15.9996 14.9999C15.3503 14.9986 14.7189 14.7867 14.2003 14.396C13.6817 14.0053 13.3039 13.4569 13.1235 12.8331C12.9432 12.2093 12.9701 11.5439 13.2002 10.9367C13.4303 10.3296 13.8512 9.81343 14.3996 9.46586L14.8066 9.24886C15.2156 9.07097 15.6591 8.98649 16.1048 9.00158C16.5505 9.01667 16.9872 9.13094 17.3832 9.33608C17.7792 9.54122 18.1245 9.83207 18.3939 10.1875C18.6634 10.5428 18.8502 10.9538 18.9407 11.3905C19.0313 11.8272 19.0234 12.2786 18.9176 12.7118C18.8117 13.145 18.6107 13.5492 18.3289 13.8949C18.0472 14.2407 17.692 14.5192 17.289 14.7104C16.8861 14.9015 16.4456 15.0004 15.9996 14.9999V14.9999ZM23.9996 17.9999C23.6041 17.9999 23.2174 17.8826 22.8885 17.6628C22.5596 17.443 22.3032 17.1307 22.1519 16.7652C22.0005 16.3998 21.9609 15.9976 22.0381 15.6097C22.1152 15.2217 22.3057 14.8654 22.5854 14.5856C22.8651 14.3059 23.2215 14.1155 23.6094 14.0383C23.9974 13.9611 24.3995 14.0007 24.765 14.1521C25.1304 14.3035 25.4428 14.5598 25.6626 14.8887C25.8823 15.2176 25.9996 15.6043 25.9996 15.9999C25.9996 16.5303 25.7889 17.039 25.4138 17.4141C25.0388 17.7891 24.5301 17.9999 23.9996 17.9999Z" fill="#374957"/>
</g>
<defs>
<filter id="filter0_d_403_3641" x="0" y="0" width="32" height="32" filterUnits="userSpaceOnUse" color-interpolation-filters="sRGB">
<feFlood flood-opacity="0" result="BackgroundImageFix"/>
<feColorMatrix in="SourceAlpha" type="matrix" values="0 0 0 0 0 0 0 0 0 0 0 0 0 0 0 0 0 0 127 0" result="hardAlpha"/>
<feOffset dy="4"/>
<feGaussianBlur stdDeviation="2"/>
<feComposite in2="hardAlpha" operator="out"/>
<feColorMatrix type="matrix" values="0 0 0 0 0 0 0 0 0 0 0 0 0 0 0 0 0 0 0.25 0"/>
<feBlend mode="normal" in2="BackgroundImageFix" result="effect1_dropShadow_403_3641"/>
<feBlend mode="normal" in="SourceGraphic" in2="effect1_dropShadow_403_3641" result="shape"/>
</filter>
<clipPath id="clip0_403_3641">
<rect width="24" height="24" fill="white" transform="translate(4)"/>
</clipPath>
</defs>
</svg>
