<svg width="32" height="32" viewBox="0 0 32 32" fill="none" xmlns="http://www.w3.org/2000/svg">
<g clip-path="url(#clip0_403_3552)" filter="url(#filter0_d_403_3552)">
<path d="M28 24H4V3C4 2.20435 4.31607 1.44129 4.87868 0.87868C5.44129 0.31607 6.20435 0 7 0L25 0C25.7956 0 26.5587 0.31607 27.1213 0.87868C27.6839 1.44129 28 2.20435 28 3V24ZM6 22H26V3C26 2.73478 25.8946 2.48043 25.7071 2.29289C25.5196 2.10536 25.2652 2 25 2H7C6.73478 2 6.48043 2.10536 6.29289 2.29289C6.10536 2.48043 6 2.73478 6 3V22ZM15 12C15 12.1978 15.0586 12.3911 15.1685 12.5556C15.2784 12.72 15.4346 12.8482 15.6173 12.9239C15.8 12.9996 16.0011 13.0194 16.1951 12.9808C16.3891 12.9422 16.5673 12.847 16.7071 12.7071C16.847 12.5673 16.9422 12.3891 16.9808 12.1951C17.0194 12.0011 16.9996 11.8 16.9239 11.6173C16.8482 11.4346 16.72 11.2784 16.5556 11.1685C16.3911 11.0586 16.1978 11 16 11C15.7348 11 15.4804 11.1054 15.2929 11.2929C15.1054 11.4804 15 11.7348 15 12ZM10 7C10 7.19778 10.0586 7.39112 10.1685 7.55557C10.2784 7.72002 10.4346 7.84819 10.6173 7.92388C10.8 7.99957 11.0011 8.01937 11.1951 7.98079C11.3891 7.9422 11.5673 7.84696 11.7071 7.70711C11.847 7.56725 11.9422 7.38907 11.9808 7.19509C12.0194 7.00111 11.9996 6.80004 11.9239 6.61732C11.8482 6.43459 11.72 6.27841 11.5556 6.16853C11.3911 6.05865 11.1978 6 11 6C10.7348 6 10.4804 6.10536 10.2929 6.29289C10.1054 6.48043 10 6.73478 10 7ZM20 7C20 7.19778 20.0586 7.39112 20.1685 7.55557C20.2784 7.72002 20.4346 7.84819 20.6173 7.92388C20.8 7.99957 21.0011 8.01937 21.1951 7.98079C21.3891 7.9422 21.5673 7.84696 21.7071 7.70711C21.847 7.56725 21.9422 7.38907 21.9808 7.19509C22.0194 7.00111 21.9996 6.80004 21.9239 6.61732C21.8482 6.43459 21.72 6.27841 21.5556 6.16853C21.3911 6.05865 21.1978 6 21 6C20.7348 6 20.4804 6.10536 20.2929 6.29289C20.1054 6.48043 20 6.73478 20 7ZM10 17C10 17.1978 10.0586 17.3911 10.1685 17.5556C10.2784 17.72 10.4346 17.8482 10.6173 17.9239C10.8 17.9996 11.0011 18.0194 11.1951 17.9808C11.3891 17.9422 11.5673 17.847 11.7071 17.7071C11.847 17.5673 11.9422 17.3891 11.9808 17.1951C12.0194 17.0011 11.9996 16.8 11.9239 16.6173C11.8482 16.4346 11.72 16.2784 11.5556 16.1685C11.3911 16.0586 11.1978 16 11 16C10.7348 16 10.4804 16.1054 10.2929 16.2929C10.1054 16.4804 10 16.7348 10 17ZM20 17C20 17.1978 20.0586 17.3911 20.1685 17.5556C20.2784 17.72 20.4346 17.8482 20.6173 17.9239C20.8 17.9996 21.0011 18.0194 21.1951 17.9808C21.3891 17.9422 21.5673 17.847 21.7071 17.7071C21.847 17.5673 21.9422 17.3891 21.9808 17.1951C22.0194 17.0011 21.9996 16.8 21.9239 16.6173C21.8482 16.4346 21.72 16.2784 21.5556 16.1685C21.3911 16.0586 21.1978 16 21 16C20.7348 16 20.4804 16.1054 20.2929 16.2929C20.1054 16.4804 20 16.7348 20 17Z" fill="#374957"/>
</g>
<defs>
<filter id="filter0_d_403_3552" x="0" y="0" width="32" height="32" filterUnits="userSpaceOnUse" color-interpolation-filters="sRGB">
<feFlood flood-opacity="0" result="BackgroundImageFix"/>
<feColorMatrix in="SourceAlpha" type="matrix" values="0 0 0 0 0 0 0 0 0 0 0 0 0 0 0 0 0 0 127 0" result="hardAlpha"/>
<feOffset dy="4"/>
<feGaussianBlur stdDeviation="2"/>
<feComposite in2="hardAlpha" operator="out"/>
<feColorMatrix type="matrix" values="0 0 0 0 0 0 0 0 0 0 0 0 0 0 0 0 0 0 0.25 0"/>
<feBlend mode="normal" in2="BackgroundImageFix" result="effect1_dropShadow_403_3552"/>
<feBlend mode="normal" in="SourceGraphic" in2="effect1_dropShadow_403_3552" result="shape"/>
</filter>
<clipPath id="clip0_403_3552">
<rect width="24" height="24" fill="white" transform="translate(4)"/>
</clipPath>
</defs>
</svg>
