<svg width="32" height="32" viewBox="0 0 32 32" fill="none" xmlns="http://www.w3.org/2000/svg">
<g clip-path="url(#clip0_403_3702)" filter="url(#filter0_d_403_3702)">
<path d="M16 0C13.6266 0 11.3065 0.703788 9.33315 2.02236C7.35976 3.34094 5.82169 5.21509 4.91344 7.4078C4.00519 9.60051 3.76755 12.0133 4.23057 14.3411C4.6936 16.6689 5.83649 18.8071 7.51472 20.4853C9.19295 22.1635 11.3311 23.3064 13.6589 23.7694C15.9867 24.2324 18.3995 23.9948 20.5922 23.0866C22.7849 22.1783 24.6591 20.6402 25.9776 18.6668C27.2962 16.6935 28 14.3734 28 12C27.9966 8.81846 26.7312 5.76821 24.4815 3.51852C22.2318 1.26883 19.1815 0.00344108 16 0V0ZM16 2C18.3065 1.99816 20.5419 2.79775 22.324 4.262L8.262 18.324C7.06256 16.8598 6.30366 15.0851 6.07361 13.2064C5.84357 11.3277 6.15186 9.42234 6.96258 7.71204C7.77331 6.00174 9.05313 4.55688 10.6531 3.54564C12.253 2.53441 14.1073 1.9984 16 2V2ZM16 22C13.6935 22.0018 11.4581 21.2023 9.676 19.738L23.738 5.676C24.9374 7.14016 25.6963 8.91488 25.9264 10.7936C26.1564 12.6723 25.8481 14.5777 25.0374 16.288C24.2267 17.9983 22.9469 19.4431 21.3469 20.4544C19.747 21.4656 17.8927 22.0016 16 22Z" fill="#374957"/>
</g>
<defs>
<filter id="filter0_d_403_3702" x="0" y="0" width="32" height="32" filterUnits="userSpaceOnUse" color-interpolation-filters="sRGB">
<feFlood flood-opacity="0" result="BackgroundImageFix"/>
<feColorMatrix in="SourceAlpha" type="matrix" values="0 0 0 0 0 0 0 0 0 0 0 0 0 0 0 0 0 0 127 0" result="hardAlpha"/>
<feOffset dy="4"/>
<feGaussianBlur stdDeviation="2"/>
<feComposite in2="hardAlpha" operator="out"/>
<feColorMatrix type="matrix" values="0 0 0 0 0 0 0 0 0 0 0 0 0 0 0 0 0 0 0.25 0"/>
<feBlend mode="normal" in2="BackgroundImageFix" result="effect1_dropShadow_403_3702"/>
<feBlend mode="normal" in="SourceGraphic" in2="effect1_dropShadow_403_3702" result="shape"/>
</filter>
<clipPath id="clip0_403_3702">
<rect width="24" height="24" fill="white" transform="translate(4)"/>
</clipPath>
</defs>
</svg>
