<svg width="24" height="24" viewBox="0 0 24 24" fill="none" xmlns="http://www.w3.org/2000/svg">
<g clip-path="url(#clip0_403_3379)">
<path d="M2.0069 23.9992H0.00689697V15.9992C0.00874778 13.614 0.956593 11.327 2.64251 9.63976C4.32842 7.95254 6.61473 7.00291 8.9999 6.99921L13.8429 6.84521V0.431213L23.1299 9.7242C23.6923 10.2868 24.0083 11.0497 24.0083 11.8452C24.0083 12.6407 23.6923 13.4036 23.1299 13.9662L13.8449 23.2592V16.8452L8.9999 16.9992C7.14508 17.0026 5.36732 17.7415 4.05643 19.0537C2.74553 20.3659 2.00848 22.1444 2.0069 23.9992V23.9992ZM9.0069 14.9992L15.8489 14.8452V18.4312L21.7229 12.5522C21.9104 12.3647 22.0157 12.1104 22.0157 11.8452C22.0157 11.58 21.9104 11.3257 21.7229 11.1382L15.8439 5.25921V8.8452L8.9999 8.9992C7.14387 9.00079 5.36432 9.7388 4.0519 11.0512C2.73949 12.3636 2.00149 14.1432 1.9999 15.9992V18.3482C2.84201 17.3021 3.90804 16.4581 5.11948 15.8786C6.33093 15.299 7.65694 14.9985 8.9999 14.9992H9.0069Z" fill="#374957"/>
</g>
<defs>
<clipPath id="clip0_403_3379">
<rect width="24" height="24" fill="white"/>
</clipPath>
</defs>
</svg>
