<svg width="24" height="24" viewBox="0 0 24 24" fill="none" xmlns="http://www.w3.org/2000/svg">
<g clip-path="url(#clip0_403_3609)">
<path d="M1.414 0L0 1.414L4.293 5.707L2 8H7C7.26522 8 7.51957 7.89464 7.70711 7.70711C7.89464 7.51957 8 7.26522 8 7V2L5.707 4.293L1.414 0Z" fill="#374957"/>
<path d="M21.9998 15.9999H16.9998C16.7346 15.9999 16.4803 16.1052 16.2927 16.2928C16.1052 16.4803 15.9998 16.7347 15.9998 16.9999V21.9999L18.2928 19.7069L22.5858 23.9999L23.9998 22.5859L19.7068 18.2929L21.9998 15.9999Z" fill="#374957"/>
<path d="M16.9998 8H21.9998L19.7068 5.707L23.9998 1.414L22.5858 0L18.2928 4.293L15.9998 2V7C15.9998 7.26522 16.1052 7.51957 16.2927 7.70711C16.4803 7.89464 16.7346 8 16.9998 8Z" fill="#374957"/>
<path d="M6.99999 15.9999H1.99999L4.29299 18.2929L-7.62939e-06 22.5859L1.41399 23.9999L5.70699 19.7069L7.99999 21.9999V16.9999C7.99999 16.7347 7.89464 16.4803 7.7071 16.2928C7.51956 16.1052 7.26521 15.9999 6.99999 15.9999Z" fill="#374957"/>
</g>
<defs>
<clipPath id="clip0_403_3609">
<rect width="24" height="24" fill="white"/>
</clipPath>
</defs>
</svg>
