<svg width="32" height="32" viewBox="0 0 32 32" fill="none" xmlns="http://www.w3.org/2000/svg">
<g clip-path="url(#clip0_403_3643)" filter="url(#filter0_d_403_3643)">
<path d="M28 15.062C28.0011 14.222 27.8249 13.3912 27.483 12.624L24.706 6.37496C24.3909 5.66841 23.878 5.06817 23.2293 4.64673C22.5805 4.22529 21.8236 4.00066 21.05 3.99996H18L17.243 0.969961C17.1739 0.692583 17.014 0.446291 16.7887 0.270281C16.5635 0.0942707 16.2859 -0.00134277 16 -0.00134277C15.7141 -0.00134277 15.4365 0.0942707 15.2113 0.270281C14.986 0.446291 14.8261 0.692583 14.757 0.969961L14 3.99996H7C6.20435 3.99996 5.44129 4.31603 4.87868 4.87864C4.31607 5.44125 4 6.20432 4 6.99997V20H6.041C6.01527 20.1654 6.00157 20.3325 6 20.5C6 21.4282 6.36875 22.3185 7.02513 22.9749C7.6815 23.6312 8.57174 24 9.5 24C10.4283 24 11.3185 23.6312 11.9749 22.9749C12.6313 22.3185 13 21.4282 13 20.5C12.9984 20.3325 12.9847 20.1654 12.959 20H19.041C19.0153 20.1654 19.0016 20.3325 19 20.5C19 21.4282 19.3687 22.3185 20.0251 22.9749C20.6815 23.6312 21.5717 24 22.5 24C23.4283 24 24.3185 23.6312 24.9749 22.9749C25.6313 22.3185 26 21.4282 26 20.5C25.9984 20.3325 25.9847 20.1654 25.959 20H28V15.062ZM22.878 7.18797L24.572 11H20V5.99996H21.05C21.437 5.99992 21.8156 6.11213 22.1401 6.32299C22.4646 6.53386 22.7209 6.83433 22.878 7.18797V7.18797ZM11 20.5C11 20.8978 10.842 21.2793 10.5607 21.5606C10.2794 21.8419 9.89782 22 9.5 22C9.10218 22 8.72064 21.8419 8.43934 21.5606C8.15804 21.2793 8 20.8978 8 20.5C8.00061 20.3291 8.03212 20.1597 8.093 20H10.907C10.9679 20.1597 10.9994 20.3291 11 20.5ZM24 20.5C24 20.8978 23.842 21.2793 23.5607 21.5606C23.2794 21.8419 22.8978 22 22.5 22C22.1022 22 21.7206 21.8419 21.4393 21.5606C21.158 21.2793 21 20.8978 21 20.5C21.0006 20.3291 21.0321 20.1597 21.093 20H23.907C23.9679 20.1597 23.9994 20.3291 24 20.5V20.5ZM26 18H6V6.99997C6 6.73475 6.10536 6.48039 6.29289 6.29286C6.48043 6.10532 6.73478 5.99996 7 5.99996H18V13H25.461L25.655 13.437C25.8833 13.9482 26.0009 14.502 26 15.062V18ZM13 11H15V13H13V15H11V13H9V11H11V8.99997H13V11Z" fill="#374957"/>
</g>
<defs>
<filter id="filter0_d_403_3643" x="0" y="0" width="32" height="32" filterUnits="userSpaceOnUse" color-interpolation-filters="sRGB">
<feFlood flood-opacity="0" result="BackgroundImageFix"/>
<feColorMatrix in="SourceAlpha" type="matrix" values="0 0 0 0 0 0 0 0 0 0 0 0 0 0 0 0 0 0 127 0" result="hardAlpha"/>
<feOffset dy="4"/>
<feGaussianBlur stdDeviation="2"/>
<feComposite in2="hardAlpha" operator="out"/>
<feColorMatrix type="matrix" values="0 0 0 0 0 0 0 0 0 0 0 0 0 0 0 0 0 0 0.25 0"/>
<feBlend mode="normal" in2="BackgroundImageFix" result="effect1_dropShadow_403_3643"/>
<feBlend mode="normal" in="SourceGraphic" in2="effect1_dropShadow_403_3643" result="shape"/>
</filter>
<clipPath id="clip0_403_3643">
<rect width="24" height="24" fill="white" transform="translate(4)"/>
</clipPath>
</defs>
</svg>
