<svg width="32" height="32" viewBox="0 0 32 32" fill="none" xmlns="http://www.w3.org/2000/svg">
<g clip-path="url(#clip0_403_3596)" filter="url(#filter0_d_403_3596)">
<path d="M23 3C23.6512 2.13561 24.0023 1.08223 24 0H22C22 0.79565 21.6839 1.55871 21.1213 2.12132C20.5587 2.68393 19.7956 3 19 3H13C12.2044 3 11.4413 2.68393 10.8787 2.12132C10.3161 1.55871 10 0.79565 10 0L8 0C7.99768 1.08223 8.3488 2.13561 9 3H4V4C4.06999 5.07941 4.40463 6.12499 4.97441 7.04443C5.54418 7.96388 6.33154 8.72892 7.267 9.272L10 21.129C10.0333 21.9021 10.364 22.6324 10.923 23.1674C11.4821 23.7024 12.2262 24.0007 13 24H19C19.7738 24.0007 20.5179 23.7024 21.077 23.1674C21.636 22.6324 21.9667 21.9021 22 21.129L24.733 9.272C25.6685 8.72892 26.4558 7.96388 27.0256 7.04443C27.5954 6.12499 27.93 5.07941 28 4V3H23ZM19.688 5C20.7848 5.79643 21.7059 6.81014 22.394 7.978C21.7058 7.93535 21.0161 8.03325 20.367 8.26573C19.7178 8.49821 19.1228 8.8604 18.6182 9.33025C18.1135 9.8001 17.7098 10.3678 17.4316 10.9987C17.1534 11.6296 17.0066 12.3105 17 13V18H15V13C14.9934 12.3105 14.8466 11.6296 14.5684 10.9987C14.2902 10.3678 13.8865 9.8001 13.3818 9.33025C12.8772 8.8604 12.2822 8.49821 11.633 8.26573C10.9839 8.03325 10.2942 7.93535 9.606 7.978C10.2941 6.81014 11.2152 5.79643 12.312 5H19.688ZM9.326 5C8.7206 5.66961 8.19106 6.40407 7.747 7.19C7.03715 6.61687 6.4991 5.8591 6.192 5H9.326ZM10 10C10.3528 9.99972 10.7029 10.062 11.034 10.184C10.9829 10.4288 10.9935 10.6825 11.065 10.9221C11.1365 11.1618 11.2665 11.3799 11.4433 11.5567C11.6201 11.7335 11.8382 11.8635 12.0779 11.935C12.3175 12.0065 12.5712 12.0171 12.816 11.966C12.938 12.2971 13.0003 12.6472 13 13V18C12.4479 17.9992 11.9064 18.1519 11.436 18.441L9.483 9.976C9.652 9.992 9.824 10 10 10ZM19 22H13C12.7348 22 12.4804 21.8946 12.2929 21.7071C12.1054 21.5196 12 21.2652 12 21C12 20.7348 12.1054 20.4804 12.2929 20.2929C12.4804 20.1054 12.7348 20 13 20H19C19.2652 20 19.5196 20.1054 19.7071 20.2929C19.8946 20.4804 20 20.7348 20 21C20 21.2652 19.8946 21.5196 19.7071 21.7071C19.5196 21.8946 19.2652 22 19 22ZM20.564 18.441C20.0936 18.1519 19.5521 17.9992 19 18V13C18.9997 12.6472 19.062 12.2971 19.184 11.966C19.4288 12.0171 19.6825 12.0065 19.9221 11.935C20.1618 11.8635 20.3799 11.7335 20.5567 11.5567C20.7335 11.3799 20.8635 11.1618 20.935 10.9221C21.0065 10.6825 21.0171 10.4288 20.966 10.184C21.4685 10.0321 21.9922 9.9619 22.517 9.976L20.564 18.441ZM24.253 7.19C23.8089 6.40407 23.2794 5.66961 22.674 5H25.808C25.5009 5.8591 24.9628 6.61687 24.253 7.19V7.19Z" fill="#374957"/>
</g>
<defs>
<filter id="filter0_d_403_3596" x="0" y="0" width="32" height="32" filterUnits="userSpaceOnUse" color-interpolation-filters="sRGB">
<feFlood flood-opacity="0" result="BackgroundImageFix"/>
<feColorMatrix in="SourceAlpha" type="matrix" values="0 0 0 0 0 0 0 0 0 0 0 0 0 0 0 0 0 0 127 0" result="hardAlpha"/>
<feOffset dy="4"/>
<feGaussianBlur stdDeviation="2"/>
<feComposite in2="hardAlpha" operator="out"/>
<feColorMatrix type="matrix" values="0 0 0 0 0 0 0 0 0 0 0 0 0 0 0 0 0 0 0.25 0"/>
<feBlend mode="normal" in2="BackgroundImageFix" result="effect1_dropShadow_403_3596"/>
<feBlend mode="normal" in="SourceGraphic" in2="effect1_dropShadow_403_3596" result="shape"/>
</filter>
<clipPath id="clip0_403_3596">
<rect width="24" height="24" fill="white" transform="translate(4)"/>
</clipPath>
</defs>
</svg>
