<svg width="24" height="24" viewBox="0 0 24 24" fill="none" xmlns="http://www.w3.org/2000/svg">
<g clip-path="url(#clip0_403_3774)">
<path d="M6 18.9997C6 19.265 5.89464 19.5193 5.70711 19.7069C5.51957 19.8944 5.26522 19.9997 5 19.9997C4.73478 19.9997 4.48043 19.8944 4.29289 19.7069C4.10536 19.5193 4 19.265 4 18.9997C4 18.7345 4.10536 18.4802 4.29289 18.2926C4.48043 18.1051 4.73478 17.9997 5 17.9997C5.26522 17.9997 5.51957 18.1051 5.70711 18.2926C5.89464 18.4802 6 18.7345 6 18.9997V18.9997ZM24 6.99974C24.0187 7.25871 23.9832 7.51873 23.8956 7.76318C23.8081 8.00762 23.6705 8.23111 23.4917 8.41935C23.3129 8.60759 23.0967 8.75644 22.8571 8.85638C22.6174 8.95632 22.3596 9.00515 22.1 8.99974H16.981C16.962 10.0627 16.92 11.0707 16.838 11.9997H20.038V12.9997C20.0387 14.0068 19.9416 15.0115 19.748 15.9997C19.6326 16.5653 19.325 17.0734 18.8775 17.438C18.43 17.8025 17.8702 18.001 17.293 17.9997H15.439C13.388 22.4647 9.064 23.9997 1 23.9997H0V22.9997C0 18.1157 0.57 14.6147 2 12.1437V8.43974C1.99996 7.8895 2.15126 7.34984 2.43733 6.87981C2.7234 6.40978 3.13324 6.02749 3.622 5.77474C5.90034 4.58743 8.43086 3.96561 11 3.96174H12V7.16174C12.929 7.07974 13.937 7.03774 15 7.01874V1.89974C15.3 -1.49226 20.372 0.0817397 20.905 3.09974C21.7791 3.31691 22.5567 3.81727 23.1166 4.52276C23.6764 5.22824 23.9871 6.09919 24 6.99974ZM4 8.43974V9.78774C5.75356 8.47503 7.82398 7.651 10 7.39974V5.99974C8.09762 6.14631 6.24385 6.67232 4.548 7.54674C4.38365 7.63115 4.24564 7.75907 4.14901 7.91654C4.05237 8.07401 4.00083 8.25499 4 8.43974V8.43974ZM2.008 21.9917C4.2894 22.0233 6.56433 21.7413 8.769 21.1537C8.42127 19.7178 7.68432 18.4056 6.63919 17.3613C5.59406 16.3171 4.28121 15.5813 2.845 15.2347C2.25845 17.4382 1.97682 19.7117 2.008 21.9917V21.9917ZM14.992 9.00774C8.776 9.10774 5.357 10.1957 3.606 13.3737C5.28393 13.8355 6.81316 14.7252 8.04391 15.9556C9.27467 17.186 10.1648 18.7149 10.627 20.3927C13.8 18.6427 14.892 15.2237 14.992 9.00774ZM16.6 13.9997C16.4915 14.6738 16.3467 15.3414 16.166 15.9997H17.294C17.4082 16.0019 17.5197 15.9645 17.6094 15.8937C17.6991 15.823 17.7615 15.7233 17.786 15.6117C17.8894 15.0792 17.9608 14.5409 18 13.9997H16.6ZM22 6.99974C21.9863 6.47361 21.7712 5.9728 21.3991 5.60065C21.0269 5.2285 20.5261 5.0134 20 4.99974H19V3.99974C18.9873 3.4733 18.7725 2.97193 18.4002 2.59958C18.0278 2.22722 17.5264 2.01243 17 1.99974V6.99974H22Z" fill="#374957"/>
</g>
<defs>
<clipPath id="clip0_403_3774">
<rect width="24" height="24" fill="white"/>
</clipPath>
</defs>
</svg>
