<svg width="24" height="24" viewBox="0 0 24 24" fill="none" xmlns="http://www.w3.org/2000/svg">
<g clip-path="url(#clip0_403_3661)">
<path d="M21 1.00012H3C2.20435 1.00012 1.44129 1.31619 0.87868 1.8788C0.31607 2.44141 0 3.20447 0 4.00012L0 23.0001H24V4.00012C24 3.20447 23.6839 2.44141 23.1213 1.8788C22.5587 1.31619 21.7956 1.00012 21 1.00012V1.00012ZM3 3.00012H21C21.2652 3.00012 21.5196 3.10548 21.7071 3.29302C21.8946 3.48055 22 3.73491 22 4.00012V7.00012H2V4.00012C2 3.73491 2.10536 3.48055 2.29289 3.29302C2.48043 3.10548 2.73478 3.00012 3 3.00012V3.00012ZM2 21.0001V9.00012H22V21.0001H2ZM5 12.0001H19V14.0001H5V12.0001ZM5 16.0001H15V18.0001H5V16.0001ZM3 5.00012C3 4.80234 3.05865 4.609 3.16853 4.44455C3.27841 4.2801 3.43459 4.15193 3.61732 4.07624C3.80004 4.00055 4.00111 3.98075 4.19509 4.01934C4.38907 4.05792 4.56725 4.15316 4.70711 4.29302C4.84696 4.43287 4.9422 4.61105 4.98079 4.80503C5.01937 4.99901 4.99957 5.20008 4.92388 5.38281C4.84819 5.56553 4.72002 5.72171 4.55557 5.83159C4.39112 5.94147 4.19778 6.00012 4 6.00012C3.73478 6.00012 3.48043 5.89477 3.29289 5.70723C3.10536 5.51969 3 5.26534 3 5.00012ZM6 5.00012C6 4.80234 6.05865 4.609 6.16853 4.44455C6.27841 4.2801 6.43459 4.15193 6.61732 4.07624C6.80004 4.00055 7.00111 3.98075 7.19509 4.01934C7.38907 4.05792 7.56725 4.15316 7.70711 4.29302C7.84696 4.43287 7.9422 4.61105 7.98079 4.80503C8.01937 4.99901 7.99957 5.20008 7.92388 5.38281C7.84819 5.56553 7.72002 5.72171 7.55557 5.83159C7.39112 5.94147 7.19778 6.00012 7 6.00012C6.73478 6.00012 6.48043 5.89477 6.29289 5.70723C6.10536 5.51969 6 5.26534 6 5.00012ZM9 5.00012C9 4.80234 9.05865 4.609 9.16853 4.44455C9.27841 4.2801 9.43459 4.15193 9.61732 4.07624C9.80004 4.00055 10.0011 3.98075 10.1951 4.01934C10.3891 4.05792 10.5673 4.15316 10.7071 4.29302C10.847 4.43287 10.9422 4.61105 10.9808 4.80503C11.0194 4.99901 10.9996 5.20008 10.9239 5.38281C10.8482 5.56553 10.72 5.72171 10.5556 5.83159C10.3911 5.94147 10.1978 6.00012 10 6.00012C9.73478 6.00012 9.48043 5.89477 9.29289 5.70723C9.10536 5.51969 9 5.26534 9 5.00012Z" fill="#374957"/>
</g>
<defs>
<clipPath id="clip0_403_3661">
<rect width="24" height="24" fill="white"/>
</clipPath>
</defs>
</svg>
