<svg width="32" height="32" viewBox="0 0 32 32" fill="none" xmlns="http://www.w3.org/2000/svg">
<g clip-path="url(#clip0_403_3722)" filter="url(#filter0_d_403_3722)">
<path d="M25 0H7C6.20435 0 5.44129 0.31607 4.87868 0.87868C4.31607 1.44129 4 2.20435 4 3V24H22.414L28 18.414V3C28 2.20435 27.6839 1.44129 27.1213 0.87868C26.5587 0.31607 25.7956 0 25 0V0ZM22 21.586V18H25.586L22 21.586ZM26 16H20V22H6V3C6 2.73478 6.10536 2.48043 6.29289 2.29289C6.48043 2.10536 6.73478 2 7 2H25C25.2652 2 25.5196 2.10536 25.7071 2.29289C25.8946 2.48043 26 2.73478 26 3V16ZM16.75 5H20.013V6.25H18V7.388H19.864V8.638H18V11.025H16.75V5ZM9.25 7V9.068C9.24879 9.16687 9.26736 9.26499 9.30462 9.35658C9.34187 9.44818 9.39705 9.5314 9.46692 9.60137C9.53679 9.67133 9.61995 9.72663 9.71149 9.764C9.80303 9.80137 9.90113 9.82007 10 9.819C10.1956 9.81678 10.3829 9.73909 10.5226 9.60214C10.6624 9.46519 10.7438 9.27956 10.75 9.084V9H10V8H12V9.084C11.9958 9.61166 11.7832 10.1163 11.4086 10.4879C11.034 10.8595 10.5277 11.068 10 11.068C9.73837 11.0692 9.47907 11.0188 9.23693 10.9197C8.99479 10.8206 8.77455 10.6748 8.5888 10.4905C8.40306 10.3063 8.25545 10.0872 8.15442 9.84586C8.05339 9.60452 8.00092 9.34563 8 9.084V6.984C8.00092 6.72237 8.05339 6.46348 8.15442 6.22214C8.25545 5.98081 8.40306 5.76175 8.5888 5.57749C8.77455 5.39323 8.99479 5.24739 9.23693 5.1483C9.47907 5.04921 9.73837 4.99882 10 5V5C10.5294 5.00341 11.0361 5.21522 11.4104 5.58955C11.7848 5.96389 11.9966 6.47062 12 7H10.75C10.7445 6.80284 10.6637 6.61528 10.5242 6.47581C10.3847 6.33634 10.1972 6.25554 10 6.25C9.90129 6.24906 9.80339 6.26783 9.71203 6.3052C9.62067 6.34257 9.53768 6.3978 9.46793 6.46764C9.39818 6.53749 9.34307 6.62055 9.30582 6.71196C9.26857 6.80337 9.24993 6.9013 9.251 7H9.25ZM13.75 5H15V11.069H13.75V5Z" fill="#374957"/>
</g>
<defs>
<filter id="filter0_d_403_3722" x="0" y="0" width="32" height="32" filterUnits="userSpaceOnUse" color-interpolation-filters="sRGB">
<feFlood flood-opacity="0" result="BackgroundImageFix"/>
<feColorMatrix in="SourceAlpha" type="matrix" values="0 0 0 0 0 0 0 0 0 0 0 0 0 0 0 0 0 0 127 0" result="hardAlpha"/>
<feOffset dy="4"/>
<feGaussianBlur stdDeviation="2"/>
<feComposite in2="hardAlpha" operator="out"/>
<feColorMatrix type="matrix" values="0 0 0 0 0 0 0 0 0 0 0 0 0 0 0 0 0 0 0.25 0"/>
<feBlend mode="normal" in2="BackgroundImageFix" result="effect1_dropShadow_403_3722"/>
<feBlend mode="normal" in="SourceGraphic" in2="effect1_dropShadow_403_3722" result="shape"/>
</filter>
<clipPath id="clip0_403_3722">
<rect width="24" height="24" fill="white" transform="translate(4)"/>
</clipPath>
</defs>
</svg>
