<svg width="30" height="32" viewBox="0 0 30 32" fill="none" xmlns="http://www.w3.org/2000/svg">
<g clip-path="url(#clip0_403_3779)" filter="url(#filter0_d_403_3779)">
<path d="M10.0001 8V6H18.0001V8H10.0001ZM7.00012 22C6.73491 22 6.48055 21.8946 6.29302 21.7071C6.10548 21.5196 6.00012 21.2652 6.00012 21V3C6.00012 2.73478 6.10548 2.48043 6.29302 2.29289C6.48055 2.10536 6.73491 2 7.00012 2H22.0001V11.5C22.7427 11.8125 23.4208 12.2601 24.0001 12.82V0H7.00012C6.20447 0 5.44141 0.31607 4.8788 0.87868C4.31619 1.44129 4.00012 2.20435 4.00012 3V21C4.00012 21.7956 4.31619 22.5587 4.8788 23.1213C5.44141 23.6839 6.20447 24 7.00012 24H19.5001C18.6256 23.9999 17.7601 23.8226 16.9559 23.4789C16.1517 23.1352 15.4255 22.6321 14.8211 22H7.00012ZM24.5431 23.957L21.8861 21.3C21.1733 21.755 20.3458 21.9977 19.5001 22C18.6101 22 17.7401 21.7361 17.0001 21.2416C16.26 20.7471 15.6833 20.0443 15.3427 19.2221C15.0021 18.3998 14.913 17.495 15.0866 16.6221C15.2602 15.7492 15.6888 14.9474 16.3181 14.318C16.9475 13.6887 17.7493 13.2601 18.6222 13.0865C19.4951 12.9128 20.3999 13.0019 21.2222 13.3425C22.0445 13.6831 22.7473 14.2599 23.2417 14.9999C23.7362 15.74 24.0001 16.61 24.0001 17.5C23.9979 18.3456 23.7551 19.1732 23.3001 19.886L25.9571 22.543L24.5431 23.957ZM19.5001 20C19.9946 20 20.4779 19.8534 20.889 19.5787C21.3002 19.304 21.6206 18.9135 21.8098 18.4567C21.999 17.9999 22.0485 17.4972 21.9521 17.0123C21.8556 16.5273 21.6175 16.0819 21.2679 15.7322C20.9183 15.3826 20.4728 15.1445 19.9878 15.048C19.5029 14.9516 19.0002 15.0011 18.5434 15.1903C18.0866 15.3795 17.6962 15.7 17.4214 16.1111C17.1467 16.5222 17.0001 17.0055 17.0001 17.5C17.0001 18.163 17.2635 18.7989 17.7324 19.2678C18.2012 19.7366 18.8371 20 19.5001 20Z" fill="#374957"/>
</g>
<defs>
<filter id="filter0_d_403_3779" x="-2" y="0" width="32" height="32" filterUnits="userSpaceOnUse" color-interpolation-filters="sRGB">
<feFlood flood-opacity="0" result="BackgroundImageFix"/>
<feColorMatrix in="SourceAlpha" type="matrix" values="0 0 0 0 0 0 0 0 0 0 0 0 0 0 0 0 0 0 127 0" result="hardAlpha"/>
<feOffset dy="4"/>
<feGaussianBlur stdDeviation="2"/>
<feComposite in2="hardAlpha" operator="out"/>
<feColorMatrix type="matrix" values="0 0 0 0 0 0 0 0 0 0 0 0 0 0 0 0 0 0 0.25 0"/>
<feBlend mode="normal" in2="BackgroundImageFix" result="effect1_dropShadow_403_3779"/>
<feBlend mode="normal" in="SourceGraphic" in2="effect1_dropShadow_403_3779" result="shape"/>
</filter>
<clipPath id="clip0_403_3779">
<rect width="24" height="24" fill="white" transform="translate(2)"/>
</clipPath>
</defs>
</svg>
