<svg width="32" height="32" viewBox="0 0 32 32" fill="none" xmlns="http://www.w3.org/2000/svg">
<g clip-path="url(#clip0_403_3507)" filter="url(#filter0_d_403_3507)">
<path d="M26.867 13.9998C24.9557 13.9236 23.0552 14.3202 21.334 15.1546C19.6128 15.9889 18.1241 17.2352 17 18.7828V13.9187C18.3973 13.6795 19.6652 12.9545 20.58 11.8716C21.4948 10.7886 21.9977 9.41736 22 7.99975C22 5.19975 20.056 2.84075 18.156 0.89975C17.5798 0.335822 16.8057 0.0200195 15.9995 0.0200195C15.1933 0.0200195 14.4192 0.335822 13.843 0.89975C11.943 2.83575 10 5.19975 10 7.99975C10.0011 9.41822 10.5035 10.7907 11.4184 11.8746C12.3333 12.9586 13.6019 13.6844 15 13.9237V18.7878C13.8764 17.2392 12.388 15.992 10.6667 15.1568C8.9455 14.3215 7.04469 13.9241 5.133 13.9998H4L4.141 15.1258C4.928 21.4338 10.859 23.5768 14.754 23.9508C15.5835 24.0138 16.4165 24.0138 17.246 23.9508C21.141 23.5778 27.071 21.4348 27.859 15.1258L28 13.9998H26.867ZM6.361 16.0608C8.1314 16.1848 9.83305 16.7959 11.2779 17.8265C12.7227 18.8571 13.8544 20.2671 14.548 21.9007C12.162 21.5937 7.585 20.4338 6.361 16.0608ZM12 7.99975C12 5.92375 13.81 3.82375 15.428 2.17075C14.5816 4.35364 14.0992 6.66063 14 8.99975H16C16.0997 6.90746 16.5363 4.84497 17.293 2.89175C18.71 4.41075 20 6.16175 20 7.99975C20 9.06062 19.5786 10.078 18.8284 10.8282C18.0783 11.5783 17.0609 11.9998 16 11.9998C14.9391 11.9998 13.9217 11.5783 13.1716 10.8282C12.4214 10.078 12 9.06062 12 7.99975V7.99975ZM17.452 21.8997C18.1458 20.2663 19.2775 18.8564 20.7223 17.8258C22.1671 16.7952 23.8687 16.184 25.639 16.0597C24.415 20.4337 19.838 21.5937 17.452 21.8997Z" fill="#374957"/>
</g>
<defs>
<filter id="filter0_d_403_3507" x="0" y="0" width="32" height="32" filterUnits="userSpaceOnUse" color-interpolation-filters="sRGB">
<feFlood flood-opacity="0" result="BackgroundImageFix"/>
<feColorMatrix in="SourceAlpha" type="matrix" values="0 0 0 0 0 0 0 0 0 0 0 0 0 0 0 0 0 0 127 0" result="hardAlpha"/>
<feOffset dy="4"/>
<feGaussianBlur stdDeviation="2"/>
<feComposite in2="hardAlpha" operator="out"/>
<feColorMatrix type="matrix" values="0 0 0 0 0 0 0 0 0 0 0 0 0 0 0 0 0 0 0.25 0"/>
<feBlend mode="normal" in2="BackgroundImageFix" result="effect1_dropShadow_403_3507"/>
<feBlend mode="normal" in="SourceGraphic" in2="effect1_dropShadow_403_3507" result="shape"/>
</filter>
<clipPath id="clip0_403_3507">
<rect width="24" height="24" fill="white" transform="translate(4)"/>
</clipPath>
</defs>
</svg>
