<svg width="32" height="32" viewBox="0 0 32 32" fill="none" xmlns="http://www.w3.org/2000/svg">
<g clip-path="url(#clip0_403_3637)" filter="url(#filter0_d_403_3637)">
<path d="M17.905 1.24307C17.7402 0.875729 17.4726 0.563882 17.1347 0.345088C16.7967 0.126295 16.4026 0.0098877 16 0.0098877C15.5974 0.0098877 15.2033 0.126295 14.8653 0.345088C14.5274 0.563882 14.2598 0.875729 14.095 1.24307L4 24.0001H28L17.905 1.24307ZM22.263 16.0001H9.737L11.511 12.0001H20.489L22.263 16.0001ZM15.919 2.06207C15.935 2.02707 15.943 2.01007 16 2.01007C16.057 2.01007 16.065 2.02707 16.077 2.05407L19.6 10.0001H12.4L15.919 2.06207ZM8.849 18.0001H23.149L24.923 22.0001H7.075L8.849 18.0001Z" fill="#374957"/>
</g>
<defs>
<filter id="filter0_d_403_3637" x="0" y="0" width="32" height="32" filterUnits="userSpaceOnUse" color-interpolation-filters="sRGB">
<feFlood flood-opacity="0" result="BackgroundImageFix"/>
<feColorMatrix in="SourceAlpha" type="matrix" values="0 0 0 0 0 0 0 0 0 0 0 0 0 0 0 0 0 0 127 0" result="hardAlpha"/>
<feOffset dy="4"/>
<feGaussianBlur stdDeviation="2"/>
<feComposite in2="hardAlpha" operator="out"/>
<feColorMatrix type="matrix" values="0 0 0 0 0 0 0 0 0 0 0 0 0 0 0 0 0 0 0.25 0"/>
<feBlend mode="normal" in2="BackgroundImageFix" result="effect1_dropShadow_403_3637"/>
<feBlend mode="normal" in="SourceGraphic" in2="effect1_dropShadow_403_3637" result="shape"/>
</filter>
<clipPath id="clip0_403_3637">
<rect width="24" height="24" fill="white" transform="translate(4)"/>
</clipPath>
</defs>
</svg>
