<svg width="32" height="32" viewBox="0 0 32 32" fill="none" xmlns="http://www.w3.org/2000/svg">
<g clip-path="url(#clip0_403_3478)" filter="url(#filter0_d_403_3478)">
<path d="M23.3332 14.6676C22.5771 14.6682 21.8325 14.8528 21.1637 15.2054C20.4949 15.558 19.9219 16.0681 19.4942 16.6916L12.9852 13.7526C13.4475 12.6362 13.4493 11.3822 12.9902 10.2646L19.4902 7.31055C20.124 8.22731 21.0655 8.88652 22.1438 9.1686C23.222 9.45068 24.3657 9.33696 25.3673 8.84805C26.3689 8.35915 27.1621 7.52745 27.603 6.50382C28.0439 5.48019 28.1034 4.33242 27.7705 3.26873C27.4377 2.20503 26.7347 1.29585 25.7889 0.706108C24.8432 0.116367 23.7174 -0.114875 22.6157 0.0543287C21.5141 0.223532 20.5096 0.781974 19.7844 1.62836C19.0592 2.47474 18.6614 3.553 18.6632 4.66755C18.6674 4.93135 18.6942 5.19431 18.7432 5.45355L11.8332 8.59355C11.1695 7.97177 10.3387 7.55739 9.44275 7.40132C8.54682 7.24524 7.6248 7.35427 6.78999 7.71501C5.95517 8.07575 5.2439 8.67249 4.74357 9.43192C4.24324 10.1913 3.97564 11.0804 3.97364 11.9898C3.97165 12.8992 4.23534 13.7894 4.73233 14.551C5.22931 15.3127 5.93795 15.9125 6.77117 16.2769C7.6044 16.6413 8.52592 16.7544 9.42253 16.6023C10.3191 16.4501 11.1518 16.0394 11.8182 15.4206L18.7462 18.5486C18.6981 18.8076 18.6716 19.0701 18.6672 19.3336C18.667 20.2567 18.9406 21.1591 19.4533 21.9268C19.966 22.6944 20.6949 23.2928 21.5477 23.6461C22.4006 23.9995 23.339 24.092 24.2444 23.9119C25.1498 23.7319 25.9815 23.2874 26.6342 22.6346C27.287 21.9819 27.7315 21.1502 27.9116 20.2448C28.0916 19.3394 27.9991 18.4009 27.6457 17.5481C27.2924 16.6953 26.694 15.9664 25.9264 15.4537C25.1588 14.9409 24.2563 14.6674 23.3332 14.6676V14.6676ZM23.3332 2.00055C23.8607 2.00036 24.3764 2.1566 24.8152 2.44954C25.2539 2.74247 25.5959 3.15893 25.7979 3.64624C25.9999 4.13356 26.0528 4.66983 25.9501 5.18725C25.8473 5.70466 25.5933 6.17997 25.2204 6.55305C24.8474 6.92614 24.3722 7.18025 23.8549 7.28323C23.3375 7.38622 22.8012 7.33347 22.3138 7.13164C21.8264 6.92981 21.4098 6.58797 21.1167 6.14936C20.8236 5.71076 20.6672 5.19508 20.6672 4.66755C20.6677 3.96056 20.9487 3.28265 21.4486 2.78264C21.9484 2.28262 22.6262 2.00135 23.3332 2.00055V2.00055ZM8.66718 14.6676C8.13965 14.6678 7.62392 14.5115 7.1852 14.2186C6.74648 13.9256 6.40449 13.5092 6.20248 13.0219C6.00046 12.5346 5.94751 11.9983 6.0503 11.4809C6.15309 10.9634 6.40702 10.4881 6.77997 10.1151C7.15292 9.74197 7.62813 9.48786 8.1455 9.38487C8.66288 9.28188 9.19917 9.33464 9.68656 9.53647C10.174 9.7383 10.5905 10.0801 10.8836 10.5187C11.1767 10.9574 11.3332 11.473 11.3332 12.0006C11.3324 12.7075 11.0513 13.3852 10.5515 13.8852C10.0517 14.3851 9.37409 14.6665 8.66718 14.6676ZM23.3332 22.0006C22.8057 22.0006 22.2901 21.8441 21.8515 21.5511C21.4129 21.258 21.071 20.8415 20.8692 20.3542C20.6673 19.8668 20.6145 19.3306 20.7174 18.8132C20.8203 18.2959 21.0743 17.8207 21.4473 17.4477C21.8203 17.0747 22.2955 16.8207 22.8129 16.7178C23.3302 16.6149 23.8665 16.6677 24.3538 16.8696C24.8411 17.0714 25.2577 17.4133 25.5507 17.8518C25.8438 18.2904 26.0002 18.8061 26.0002 19.3336C25.9996 20.0407 25.7185 20.7188 25.2184 21.2188C24.7184 21.7189 24.0403 22 23.3332 22.0006V22.0006Z" fill="#374957"/>
</g>
<defs>
<filter id="filter0_d_403_3478" x="0" y="0" width="32" height="32" filterUnits="userSpaceOnUse" color-interpolation-filters="sRGB">
<feFlood flood-opacity="0" result="BackgroundImageFix"/>
<feColorMatrix in="SourceAlpha" type="matrix" values="0 0 0 0 0 0 0 0 0 0 0 0 0 0 0 0 0 0 127 0" result="hardAlpha"/>
<feOffset dy="4"/>
<feGaussianBlur stdDeviation="2"/>
<feComposite in2="hardAlpha" operator="out"/>
<feColorMatrix type="matrix" values="0 0 0 0 0 0 0 0 0 0 0 0 0 0 0 0 0 0 0.25 0"/>
<feBlend mode="normal" in2="BackgroundImageFix" result="effect1_dropShadow_403_3478"/>
<feBlend mode="normal" in="SourceGraphic" in2="effect1_dropShadow_403_3478" result="shape"/>
</filter>
<clipPath id="clip0_403_3478">
<rect width="24" height="24" fill="white" transform="translate(4)"/>
</clipPath>
</defs>
</svg>
