<svg width="24" height="24" viewBox="0 0 24 24" fill="none" xmlns="http://www.w3.org/2000/svg">
<g clip-path="url(#clip0_403_3578)">
<path d="M23.9997 13.9999C23.9997 9.26385 20.0237 5.29385 14.7097 4.26685C14.9243 3.81055 15.0201 3.30746 14.9883 2.80424C14.9565 2.30103 14.7981 1.81399 14.5279 1.38831C14.2576 0.962636 13.8843 0.612104 13.4424 0.369235C13.0005 0.126365 12.5045 -0.000976563 12.0002 -0.000976562C11.496 -0.000976563 11 0.126365 10.5581 0.369235C10.1162 0.612104 9.74285 0.962636 9.4726 1.38831C9.20236 1.81399 9.04399 2.30103 9.0122 2.80424C8.9804 3.30746 9.07621 3.81055 9.29074 4.26685C3.97574 5.29385 -0.000260737 9.26385 -0.000260737 13.9999C-0.0118928 14.65 0.191901 15.2857 0.579354 15.8079C0.966806 16.3301 1.51615 16.7095 2.14174 16.8869L2.96774 21.5249C3.09102 22.2185 3.45447 22.8466 3.99439 23.2991C4.53431 23.7516 5.21626 23.9997 5.92074 23.9999H18.0797C18.7842 23.9997 19.4662 23.7516 20.0061 23.2991C20.546 22.8466 20.9095 22.2185 21.0327 21.5249L21.8577 16.8869C22.4833 16.7095 23.0327 16.3301 23.4201 15.8079C23.8076 15.2857 24.0114 14.65 23.9997 13.9999ZM10.9997 2.99985C10.9997 2.73464 11.1051 2.48028 11.2926 2.29275C11.4802 2.10521 11.7345 1.99985 11.9997 1.99985C12.265 1.99985 12.5193 2.10521 12.7068 2.29275C12.8944 2.48028 12.9997 2.73464 12.9997 2.99985C12.9997 3.26507 12.8944 3.51943 12.7068 3.70696C12.5193 3.8945 12.265 3.99985 11.9997 3.99985C11.7345 3.99985 11.4802 3.8945 11.2926 3.70696C11.1051 3.51943 10.9997 3.26507 10.9997 2.99985ZM18.0797 21.9999H5.92074C5.68611 21.9998 5.45899 21.9172 5.27911 21.7665C5.09922 21.6159 4.97803 21.4068 4.93674 21.1759L4.27274 17.4449C4.82752 17.8353 5.49847 18.0257 6.17563 17.9848C6.85278 17.9439 7.49596 17.6742 7.99974 17.2199C8.54875 17.7139 9.26118 17.9872 9.99974 17.9872C10.7383 17.9872 11.4507 17.7139 11.9997 17.2199C12.5488 17.7139 13.2612 17.9872 13.9997 17.9872C14.7383 17.9872 15.4507 17.7139 15.9997 17.2199C16.5042 17.6733 17.1474 17.9424 17.8245 17.9832C18.5015 18.0241 19.1724 17.8343 19.7277 17.4449L19.0637 21.1749C19.0227 21.406 18.9016 21.6153 18.7216 21.7662C18.5417 21.917 18.3145 21.9997 18.0797 21.9999V21.9999ZM20.9997 14.9999H18.9997C18.9997 15.2651 18.8944 15.5194 18.7068 15.707C18.5193 15.8945 18.265 15.9999 17.9997 15.9999C17.7345 15.9999 17.4802 15.8945 17.2926 15.707C17.1051 15.5194 16.9997 15.2651 16.9997 14.9999H14.9997C14.9997 15.2651 14.8944 15.5194 14.7068 15.707C14.5193 15.8945 14.265 15.9999 13.9997 15.9999C13.7345 15.9999 13.4802 15.8945 13.2926 15.707C13.1051 15.5194 12.9997 15.2651 12.9997 14.9999H10.9997C10.9997 15.2651 10.8944 15.5194 10.7068 15.707C10.5193 15.8945 10.265 15.9999 9.99974 15.9999C9.73452 15.9999 9.48017 15.8945 9.29263 15.707C9.1051 15.5194 8.99974 15.2651 8.99974 14.9999H6.99974C6.99974 15.2651 6.89438 15.5194 6.70685 15.707C6.51931 15.8945 6.26496 15.9999 5.99974 15.9999C5.73452 15.9999 5.48017 15.8945 5.29263 15.707C5.1051 15.5194 4.99974 15.2651 4.99974 14.9999H2.99974C2.86514 15.0131 2.72929 14.9963 2.60196 14.9507C2.47463 14.9051 2.35899 14.8319 2.26336 14.7362C2.16773 14.6406 2.09449 14.525 2.0489 14.3976C2.00332 14.2703 1.98653 14.1345 1.99974 13.9999C2.50574 3.39985 21.4917 3.40885 21.9997 13.9879C22.0143 14.1233 21.9985 14.2602 21.9536 14.3888C21.9087 14.5174 21.8357 14.6344 21.74 14.7313C21.6443 14.8281 21.5282 14.9025 21.4001 14.949C21.2721 14.9954 21.1353 15.0128 20.9997 14.9999Z" fill="#374957"/>
</g>
<defs>
<clipPath id="clip0_403_3578">
<rect width="24" height="24" fill="white"/>
</clipPath>
</defs>
</svg>
