<svg width="32" height="32" viewBox="0 0 32 32" fill="none" xmlns="http://www.w3.org/2000/svg">
<g clip-path="url(#clip0_403_3565)" filter="url(#filter0_d_403_3565)">
<path d="M19.293 7.29297L16 10.586L12.707 7.29297L11.293 8.70697L14.586 12L11.293 15.293L12.707 16.707L16 13.414L19.293 16.707L20.707 15.293L17.414 12L20.707 8.70697L19.293 7.29297Z" fill="#374957"/>
<path d="M16 0C13.6266 0 11.3066 0.703788 9.33316 2.02236C7.35977 3.34094 5.8217 5.21509 4.91345 7.4078C4.0052 9.60051 3.76756 12.0133 4.23058 14.3411C4.6936 16.6689 5.83649 18.8071 7.51472 20.4853C9.19295 22.1635 11.3312 23.3064 13.6589 23.7694C15.9867 24.2324 18.3995 23.9948 20.5922 23.0866C22.7849 22.1783 24.6591 20.6402 25.9776 18.6668C27.2962 16.6935 28 14.3734 28 12C27.9966 8.81846 26.7312 5.76821 24.4815 3.51852C22.2318 1.26883 19.1815 0.00344108 16 0V0ZM16 22C14.0222 22 12.0888 21.4135 10.4443 20.3147C8.79981 19.2159 7.51809 17.6541 6.76121 15.8268C6.00433 13.9996 5.8063 11.9889 6.19215 10.0491C6.578 8.10929 7.53041 6.32746 8.92894 4.92893C10.3275 3.53041 12.1093 2.578 14.0491 2.19215C15.9889 1.8063 17.9996 2.00433 19.8268 2.76121C21.6541 3.51808 23.2159 4.79981 24.3147 6.4443C25.4135 8.08879 26 10.0222 26 12C25.9971 14.6513 24.9426 17.1931 23.0679 19.0679C21.1931 20.9426 18.6513 21.9971 16 22V22Z" fill="#374957"/>
</g>
<defs>
<filter id="filter0_d_403_3565" x="0" y="0" width="32" height="32" filterUnits="userSpaceOnUse" color-interpolation-filters="sRGB">
<feFlood flood-opacity="0" result="BackgroundImageFix"/>
<feColorMatrix in="SourceAlpha" type="matrix" values="0 0 0 0 0 0 0 0 0 0 0 0 0 0 0 0 0 0 127 0" result="hardAlpha"/>
<feOffset dy="4"/>
<feGaussianBlur stdDeviation="2"/>
<feComposite in2="hardAlpha" operator="out"/>
<feColorMatrix type="matrix" values="0 0 0 0 0 0 0 0 0 0 0 0 0 0 0 0 0 0 0.25 0"/>
<feBlend mode="normal" in2="BackgroundImageFix" result="effect1_dropShadow_403_3565"/>
<feBlend mode="normal" in="SourceGraphic" in2="effect1_dropShadow_403_3565" result="shape"/>
</filter>
<clipPath id="clip0_403_3565">
<rect width="24" height="24" fill="white" transform="translate(4)"/>
</clipPath>
</defs>
</svg>
