<svg width="24" height="24" viewBox="0 0 24 24" fill="none" xmlns="http://www.w3.org/2000/svg">
<g clip-path="url(#clip0_403_3465)">
<path d="M22 19.9996C22 20.5301 21.7893 21.0388 21.4142 21.4139C21.0391 21.7889 20.5304 21.9996 20 21.9996H16V17.9996H22V14.0996C21.9973 12.7134 21.5157 11.3707 20.6369 10.2987C19.758 9.22666 18.5358 8.49116 17.177 8.21664L13.3 7.43964C12.8903 7.35801 12.5165 7.15017 12.231 6.84528C11.9455 6.54039 11.7626 6.15376 11.708 5.73964L11.3 2.57564C11.2408 2.16129 11.0955 1.76392 10.8735 1.40907C10.6515 1.05423 10.3578 0.749761 10.0111 0.515244C9.66438 0.280727 9.27245 0.121352 8.86049 0.0473644C8.44852 -0.0266234 8.02563 -0.0135862 7.619 0.0856378L0 2.24364V17.9996H5V21.9996H0V23.9996H20C21.0609 23.9996 22.0783 23.5782 22.8284 22.8281C23.5786 22.0779 24 21.0605 24 19.9996H22ZM2 3.75564L8.107 2.02364C8.24073 1.99368 8.37919 1.99153 8.51378 2.01732C8.64838 2.04311 8.77623 2.09629 8.88942 2.17356C9.0026 2.25083 9.09869 2.35054 9.17173 2.46649C9.24477 2.58245 9.29319 2.71218 9.314 2.84764L9.466 3.99964H7V5.99964H9.729C9.77374 6.31335 9.856 6.62054 9.974 6.91464L7.635 8.33764L8.674 10.0466L11.14 8.54664C11.4003 8.76156 11.6869 8.94235 11.993 9.08464L10.638 11.3916L12.362 12.4046L14 9.61964L16.784 10.1766C17.6901 10.3597 18.5051 10.8501 19.0911 11.565C19.6772 12.2799 19.9982 13.1753 20 14.0996V15.9996H2V3.75564ZM7 17.9996H14V21.9996H7V17.9996Z" fill="#374957"/>
</g>
<defs>
<clipPath id="clip0_403_3465">
<rect width="24" height="24" fill="white"/>
</clipPath>
</defs>
</svg>
