<svg width="24" height="24" viewBox="0 0 24 24" fill="none" xmlns="http://www.w3.org/2000/svg">
<g clip-path="url(#clip0_403_3538)">
<path d="M14.1999 16.262C11.2886 15.0278 8.97332 12.7071 7.74591 9.793L11.1519 6.387L4.88691 0.122L1.71591 3.293C1.16571 3.84579 0.730722 4.5023 0.436156 5.22447C0.14159 5.94664 -0.00669212 6.7201 -9.42942e-05 7.5C-9.42942e-05 14.748 9.25191 24 16.4999 24C17.2798 24.0066 18.0533 23.8583 18.7754 23.5637C19.4976 23.2692 20.1541 22.8342 20.7069 22.284L23.8779 19.113L17.6129 12.848L14.1999 16.262ZM19.2939 20.87C18.9261 21.2338 18.4898 21.5211 18.0102 21.715C17.5306 21.909 17.0172 22.0059 16.4999 22C10.2669 22 1.99991 13.733 1.99991 7.5C1.99418 6.98285 2.09111 6.46971 2.28508 5.99029C2.47905 5.51086 2.7662 5.07468 3.12991 4.707L4.88691 2.95L8.32391 6.387L5.38891 9.322L5.63491 9.936C6.35593 11.8653 7.48325 13.617 8.94048 15.0725C10.3977 16.528 12.1508 17.6533 14.0809 18.372L14.6869 18.603L17.6129 15.676L21.0499 19.113L19.2939 20.87ZM23.9999 2.5V7H21.9999V3.443L16.4089 9.034L14.9999 7.62L20.6149 2H16.9999V0H21.5289C22.1879 0.00449512 22.8182 0.270254 23.2815 0.738954C23.7447 1.20765 24.0031 1.841 23.9999 2.5V2.5Z" fill="#374957"/>
</g>
<defs>
<clipPath id="clip0_403_3538">
<rect width="24" height="24" fill="white"/>
</clipPath>
</defs>
</svg>
