<svg width="24" height="24" viewBox="0 0 24 24" fill="none" xmlns="http://www.w3.org/2000/svg">
<path d="M23.0003 12C23.0003 11.2043 22.6842 10.4413 22.1216 9.87866C21.559 9.31605 20.796 8.99998 20.0003 8.99998H19.0003V5.99998H18.0003C17.998 5.41389 17.8673 4.83543 17.6174 4.30527C17.3676 3.77512 17.0046 3.30615 16.554 2.93135C16.1034 2.55654 15.5762 2.28501 15.0094 2.13585C14.4426 1.98669 13.85 1.96352 13.2733 2.06798C12.865 1.44576 12.3093 0.934166 11.6554 0.57874C11.0016 0.223314 10.27 0.035092 9.52583 0.0308356C8.78165 0.0265791 8.04797 0.20642 7.39011 0.554344C6.73226 0.902268 6.17065 1.40748 5.75531 2.02498C4.74118 2.08553 3.78827 2.53036 3.09063 3.26887C2.39299 4.00739 2.00308 4.98405 2.00031 5.99998H1.00031V21C1.00031 21.7956 1.31638 22.5587 1.87898 23.1213C2.44159 23.6839 3.20466 24 4.00031 24H16.0003C16.796 24 17.559 23.6839 18.1216 23.1213C18.6842 22.5587 19.0003 21.7956 19.0003 21V19H23.0003V12ZM6.00031 3.99998C6.05931 3.99998 6.91931 4.14198 6.91931 4.14198L7.23931 3.45398C7.44862 3.01189 7.78302 2.64091 8.20109 2.387C8.61916 2.13309 9.10253 2.00739 9.59134 2.02549C10.0801 2.04359 10.5529 2.20468 10.951 2.48881C11.3492 2.77294 11.6553 3.16762 11.8313 3.62398L12.2083 4.62398L13.1803 4.18398C13.4843 4.04734 13.8175 3.98883 14.1498 4.01374C14.4822 4.03865 14.803 4.14621 15.0832 4.32664C15.3633 4.50707 15.594 4.75464 15.7542 5.04688C15.9143 5.33911 15.9989 5.66673 16.0003 5.99998H9.00031V13C9.00031 13.2652 8.89495 13.5196 8.70741 13.7071C8.51988 13.8946 8.26552 14 8.00031 14C7.73509 14 7.48073 13.8946 7.2932 13.7071C7.10566 13.5196 7.00031 13.2652 7.00031 13V5.99998H4.00031C4.00031 5.46955 4.21102 4.96084 4.58609 4.58577C4.96116 4.21069 5.46987 3.99998 6.00031 3.99998V3.99998ZM17.0003 21C17.0003 21.2652 16.8949 21.5196 16.7074 21.7071C16.5199 21.8946 16.2655 22 16.0003 22H4.00031C3.73509 22 3.48073 21.8946 3.2932 21.7071C3.10566 21.5196 3.00031 21.2652 3.00031 21V7.99998H5.00031V13C5.00031 13.7956 5.31638 14.5587 5.87898 15.1213C6.44159 15.6839 7.20466 16 8.00031 16C8.79595 16 9.55902 15.6839 10.1216 15.1213C10.6842 14.5587 11.0003 13.7956 11.0003 13V7.99998H17.0003V21ZM21.0003 17H19.0003V11H20.0003C20.2655 11 20.5199 11.1053 20.7074 11.2929C20.8949 11.4804 21.0003 11.7348 21.0003 12V17Z" fill="#374957"/>
</svg>
