<svg width="32" height="32" viewBox="0 0 32 32" fill="none" xmlns="http://www.w3.org/2000/svg">
<g clip-path="url(#clip0_403_3352)" filter="url(#filter0_d_403_3352)">
<path d="M16 24C13.6266 24 11.3066 23.2962 9.33316 21.9776C7.35977 20.6591 5.8217 18.7849 4.91345 16.5922C4.0052 14.3995 3.76756 11.9867 4.23058 9.65892C4.6936 7.33115 5.83649 5.19295 7.51472 3.51472C9.19295 1.83649 11.3312 0.693605 13.6589 0.230582C15.9867 -0.232441 18.3995 0.00519943 20.5922 0.913451C22.7849 1.8217 24.6591 3.35977 25.9776 5.33316C27.2962 7.30655 28 9.62663 28 12C27.9966 15.1815 26.7312 18.2318 24.4815 20.4815C22.2318 22.7312 19.1815 23.9966 16 24V24ZM16 2.00001C14.0222 2.00001 12.0888 2.5865 10.4443 3.68531C8.79981 4.78412 7.51809 6.34591 6.76121 8.17317C6.00433 10.0004 5.8063 12.0111 6.19215 13.9509C6.578 15.8907 7.53041 17.6725 8.92894 19.0711C10.3275 20.4696 12.1093 21.422 14.0491 21.8079C15.9889 22.1937 17.9996 21.9957 19.8268 21.2388C21.6541 20.4819 23.2159 19.2002 24.3147 17.5557C25.4135 15.9112 26 13.9778 26 12C25.9971 9.34873 24.9426 6.80689 23.0679 4.93215C21.1931 3.05742 18.6513 2.00292 16 2.00001V2.00001ZM21.666 15.746L20.336 14.252C19.1135 15.2813 17.5945 15.8936 16 16C14.4064 15.8937 12.8882 15.2821 11.666 14.254L10.334 15.746C11.9219 17.1025 13.9142 17.8951 16 18C18.0858 17.8951 20.0781 17.1025 21.666 15.746ZM14 11V10C14 9.46957 13.7893 8.96087 13.4142 8.58579C13.0391 8.21072 12.5304 8.00001 12 8.00001C11.4696 8.00001 10.9609 8.21072 10.5858 8.58579C10.2107 8.96087 10 9.46957 10 10V11H14ZM18 10V11H22V10C22 9.46957 21.7893 8.96087 21.4142 8.58579C21.0391 8.21072 20.5304 8.00001 20 8.00001C19.4696 8.00001 18.9609 8.21072 18.5858 8.58579C18.2107 8.96087 18 9.46957 18 10Z" fill="#374957"/>
</g>
<defs>
<filter id="filter0_d_403_3352" x="0" y="0" width="32" height="32" filterUnits="userSpaceOnUse" color-interpolation-filters="sRGB">
<feFlood flood-opacity="0" result="BackgroundImageFix"/>
<feColorMatrix in="SourceAlpha" type="matrix" values="0 0 0 0 0 0 0 0 0 0 0 0 0 0 0 0 0 0 127 0" result="hardAlpha"/>
<feOffset dy="4"/>
<feGaussianBlur stdDeviation="2"/>
<feComposite in2="hardAlpha" operator="out"/>
<feColorMatrix type="matrix" values="0 0 0 0 0 0 0 0 0 0 0 0 0 0 0 0 0 0 0.25 0"/>
<feBlend mode="normal" in2="BackgroundImageFix" result="effect1_dropShadow_403_3352"/>
<feBlend mode="normal" in="SourceGraphic" in2="effect1_dropShadow_403_3352" result="shape"/>
</filter>
<clipPath id="clip0_403_3352">
<rect width="24" height="24" fill="white" transform="translate(4)"/>
</clipPath>
</defs>
</svg>
