<svg width="24" height="24" viewBox="0 0 24 24" fill="none" xmlns="http://www.w3.org/2000/svg">
<g clip-path="url(#clip0_403_3744)">
<path d="M21 0H3C2.20435 0 1.44129 0.31607 0.87868 0.87868C0.31607 1.44129 0 2.20435 0 3L0 24H18.414L24 18.414V3C24 2.20435 23.6839 1.44129 23.1213 0.87868C22.5587 0.31607 21.7956 0 21 0V0ZM18 21.586V18H21.586L18 21.586ZM22 16H16V22H2V3C2 2.73478 2.10536 2.48043 2.29289 2.29289C2.48043 2.10536 2.73478 2 3 2H21C21.2652 2 21.5196 2.10536 21.7071 2.29289C21.8946 2.48043 22 2.73478 22 3V16ZM10.967 5H9V11.069H10.25V8.969H10.967C11.4935 8.969 11.9983 8.75987 12.3706 8.38761C12.7429 8.01535 12.952 7.51045 12.952 6.984C12.952 6.45755 12.7429 5.95265 12.3706 5.58039C11.9983 5.20813 11.4935 4.999 10.967 4.999V5ZM10.967 7.72H10.257V6.247H10.972C11.1669 6.247 11.3539 6.32444 11.4917 6.46228C11.6296 6.60012 11.707 6.78707 11.707 6.982C11.707 7.17693 11.6296 7.36388 11.4917 7.50172C11.3539 7.63956 11.1669 7.717 10.972 7.717L10.967 7.72ZM15.251 7V9.068C15.2498 9.16679 15.2683 9.26482 15.3055 9.35635C15.3427 9.44788 15.3978 9.53105 15.4676 9.60101C15.5373 9.67096 15.6204 9.72627 15.7118 9.76371C15.8032 9.80114 15.9012 9.81994 16 9.819C16.1956 9.81678 16.3829 9.73909 16.5226 9.60214C16.6624 9.46519 16.7438 9.27956 16.75 9.084V9H16V8H18V9.084C17.9958 9.61166 17.7832 10.1163 17.4086 10.4879C17.034 10.8595 16.5277 11.068 16 11.068V11.068C15.7383 11.0692 15.4789 11.0188 15.2367 10.9196C14.9945 10.8205 14.7742 10.6745 14.5885 10.4902C14.4027 10.3058 14.2551 10.0866 14.1541 9.84516C14.0532 9.60371 14.0008 9.34472 14 9.083V6.983C14.001 6.72145 14.0536 6.46268 14.1547 6.22145C14.2558 5.98023 14.4034 5.76129 14.5892 5.57713C14.7749 5.39298 14.9951 5.24723 15.2372 5.1482C15.4792 5.04918 15.7385 4.99882 16 5C16.5294 5.00341 17.0361 5.21522 17.4104 5.58955C17.7848 5.96389 17.9966 6.47062 18 7H16.75C16.7445 6.80284 16.6637 6.61528 16.5242 6.47581C16.3847 6.33634 16.1972 6.25554 16 6.25C15.9013 6.24906 15.8034 6.26783 15.712 6.3052C15.6207 6.34257 15.5377 6.3978 15.4679 6.46764C15.3982 6.53749 15.3431 6.62055 15.3058 6.71196C15.2686 6.80337 15.2499 6.9013 15.251 7V7ZM6.75 5H8V9.084C7.99921 9.34572 7.94684 9.60471 7.84586 9.84616C7.74489 10.0876 7.59731 10.3068 7.41155 10.4912C7.22579 10.6755 7.00551 10.8215 6.7633 10.9206C6.52109 11.0198 6.26171 11.0702 6 11.069V11.069C5.47216 11.069 4.96571 10.8604 4.59106 10.4885C4.21642 10.1167 4.00396 9.61183 4 9.084V9H5.255C5.255 9 5.255 9.054 5.255 9.084C5.26113 9.27871 5.34189 9.46361 5.48057 9.60043C5.61925 9.73725 5.80522 9.8155 6 9.819C6.09879 9.81994 6.19677 9.80114 6.2882 9.76371C6.37963 9.72627 6.46266 9.67096 6.53243 9.60101C6.60219 9.53105 6.65729 9.44788 6.69448 9.35635C6.73167 9.26482 6.7502 9.16679 6.749 9.068L6.75 5Z" fill="#374957"/>
</g>
<defs>
<clipPath id="clip0_403_3744">
<rect width="24" height="24" fill="white"/>
</clipPath>
</defs>
</svg>
