<svg width="32" height="32" viewBox="0 0 32 32" fill="none" xmlns="http://www.w3.org/2000/svg">
<g clip-path="url(#clip0_403_3323)" filter="url(#filter0_d_403_3323)">
<path d="M14 24H4V22H14V24ZM12 18H4V20H12V18ZM10 14H4V16H10V14ZM16 0C12.8185 0.00344108 9.76821 1.26883 7.51852 3.51852C5.26883 5.76821 4.00344 8.81846 4 12H6C6 10.0222 6.58649 8.08879 7.6853 6.4443C8.78412 4.79981 10.3459 3.51808 12.1732 2.7612C14.0004 2.00433 16.0111 1.8063 17.9509 2.19215C19.8907 2.578 21.6725 3.53041 23.0711 4.92893C24.4696 6.32746 25.422 8.10929 25.8079 10.0491C26.1937 11.9889 25.9957 13.9996 25.2388 15.8268C24.4819 17.6541 23.2002 19.2159 21.5557 20.3147C19.9112 21.4135 17.9778 22 16 22V24C19.1826 24 22.2348 22.7357 24.4853 20.4853C26.7357 18.2348 28 15.1826 28 12C28 8.8174 26.7357 5.76516 24.4853 3.51472C22.2348 1.26428 19.1826 0 16 0V0ZM15 7V12.414L18.293 15.707L19.707 14.293L17 11.586V7H15Z" fill="#374957"/>
</g>
<defs>
<filter id="filter0_d_403_3323" x="0" y="0" width="32" height="32" filterUnits="userSpaceOnUse" color-interpolation-filters="sRGB">
<feFlood flood-opacity="0" result="BackgroundImageFix"/>
<feColorMatrix in="SourceAlpha" type="matrix" values="0 0 0 0 0 0 0 0 0 0 0 0 0 0 0 0 0 0 127 0" result="hardAlpha"/>
<feOffset dy="4"/>
<feGaussianBlur stdDeviation="2"/>
<feComposite in2="hardAlpha" operator="out"/>
<feColorMatrix type="matrix" values="0 0 0 0 0 0 0 0 0 0 0 0 0 0 0 0 0 0 0.25 0"/>
<feBlend mode="normal" in2="BackgroundImageFix" result="effect1_dropShadow_403_3323"/>
<feBlend mode="normal" in="SourceGraphic" in2="effect1_dropShadow_403_3323" result="shape"/>
</filter>
<clipPath id="clip0_403_3323">
<rect width="24" height="24" fill="white" transform="translate(4)"/>
</clipPath>
</defs>
</svg>
