<svg width="24" height="24" viewBox="0 0 24 24" fill="none" xmlns="http://www.w3.org/2000/svg">
<g clip-path="url(#clip0_403_3745)">
<path d="M1.44382 6.66874C1.10898 6.76442 0.804917 6.94586 0.561729 7.19513C0.318541 7.44439 0.144653 7.75284 0.0572715 8.08994C-0.0301104 8.42704 -0.0279575 8.78112 0.0635171 9.11713C0.154992 9.45315 0.332618 9.75945 0.578818 10.0057L3.99082 13.4137V19.9997H10.5838L14.0188 23.4297C14.2032 23.6157 14.4225 23.7634 14.6641 23.8643C14.9058 23.9652 15.165 24.0173 15.4268 24.0177C15.5989 24.0174 15.7703 23.9952 15.9368 23.9517C16.2738 23.8669 16.5824 23.6947 16.8317 23.4526C17.081 23.2105 17.2621 22.9071 17.3568 22.5727L23.9908 0.020752L1.44382 6.66874ZM1.99982 8.59174L19.0278 3.57175L5.99282 16.5857V12.5857L1.99982 8.59174ZM15.4398 22.0157L11.4128 17.9997H7.41282L20.4458 4.97775L15.4398 22.0157Z" fill="#374957"/>
</g>
<defs>
<clipPath id="clip0_403_3745">
<rect width="24" height="24" fill="white"/>
</clipPath>
</defs>
</svg>
