<svg width="32" height="32" viewBox="0 0 32 32" fill="none" xmlns="http://www.w3.org/2000/svg">
<g clip-path="url(#clip0_403_3750)" filter="url(#filter0_d_403_3750)">
<path d="M21.5662 23.9993H17.0002V14.9993C17.0002 14.7341 16.8949 14.4798 16.7074 14.2922C16.5198 14.1047 16.2655 13.9993 16.0002 13.9993C15.735 13.9993 15.4807 14.1047 15.2931 14.2922C15.1056 14.4798 15.0002 14.7341 15.0002 14.9993V23.9993H10.4342L10.1432 23.5143C7.28325 18.7473 4.00025 12.4493 4.00025 5.99933C3.97007 5.2033 4.10462 4.40961 4.39547 3.66801C4.68632 2.9264 5.1272 2.25285 5.69048 1.68957C6.25376 1.12628 6.92731 0.685403 7.66892 0.394554C8.41053 0.103705 9.20422 -0.0308466 10.0002 -0.000668965C11.3293 -0.000157791 12.6501 0.207329 13.9152 0.614331C14.5868 0.847231 15.2898 0.977037 16.0002 0.999331C16.7107 0.977037 17.4137 0.847231 18.0852 0.614331C19.3504 0.207201 20.6712 -0.000288026 22.0002 -0.000668965C22.7963 -0.0308466 23.59 0.103705 24.3316 0.394554C25.0732 0.685403 25.7467 1.12628 26.31 1.68957C26.8733 2.25285 27.3142 2.9264 27.605 3.66801C27.8959 4.40961 28.0304 5.2033 28.0002 5.99933C28.0002 12.4493 24.7182 18.7473 21.8572 23.5143L21.5662 23.9993ZM19.0002 21.9993H20.4322C23.0862 17.5183 26.0002 11.7483 26.0002 5.99933C26.0214 5.46839 25.9324 4.93882 25.7388 4.44396C25.5453 3.9491 25.2514 3.49966 24.8757 3.12393C24.4999 2.7482 24.0505 2.45431 23.5556 2.26077C23.0608 2.06722 22.5312 1.97821 22.0002 1.99933C20.8596 1.99874 19.7261 2.17967 18.6422 2.53533C17.7899 2.82171 16.8992 2.97813 16.0002 2.99933C15.1013 2.97822 14.2106 2.8218 13.3582 2.53533C12.2744 2.17977 11.1409 1.99884 10.0002 1.99933C6.04525 1.99933 6.00025 5.83633 6.00025 5.99933C6.00025 11.7483 8.91425 17.5183 11.5682 21.9993H13.0002V14.9993C13.0002 14.2037 13.3163 13.4406 13.8789 12.878C14.4415 12.3154 15.2046 11.9993 16.0002 11.9993C16.7959 11.9993 17.559 12.3154 18.1216 12.878C18.6842 13.4406 19.0002 14.2037 19.0002 14.9993V21.9993Z" fill="#374957"/>
</g>
<defs>
<filter id="filter0_d_403_3750" x="0" y="0" width="32" height="32" filterUnits="userSpaceOnUse" color-interpolation-filters="sRGB">
<feFlood flood-opacity="0" result="BackgroundImageFix"/>
<feColorMatrix in="SourceAlpha" type="matrix" values="0 0 0 0 0 0 0 0 0 0 0 0 0 0 0 0 0 0 127 0" result="hardAlpha"/>
<feOffset dy="4"/>
<feGaussianBlur stdDeviation="2"/>
<feComposite in2="hardAlpha" operator="out"/>
<feColorMatrix type="matrix" values="0 0 0 0 0 0 0 0 0 0 0 0 0 0 0 0 0 0 0.25 0"/>
<feBlend mode="normal" in2="BackgroundImageFix" result="effect1_dropShadow_403_3750"/>
<feBlend mode="normal" in="SourceGraphic" in2="effect1_dropShadow_403_3750" result="shape"/>
</filter>
<clipPath id="clip0_403_3750">
<rect width="24" height="24" fill="white" transform="translate(4)"/>
</clipPath>
</defs>
</svg>
