<svg width="24" height="24" viewBox="0 0 24 24" fill="none" xmlns="http://www.w3.org/2000/svg">
<g clip-path="url(#clip0_403_3747)">
<path d="M23.9999 22.5888L17.7501 16.339C21.2448 12.0649 20.6129 5.76712 16.3389 2.27245C12.0648 -1.22222 5.76703 -0.590391 2.27236 3.68372C-1.22231 7.95783 -0.590478 14.2556 3.68358 17.7502C7.36504 20.7604 12.6574 20.7604 16.3388 17.7502L22.5887 24L23.9999 22.5888ZM10.0272 18.0117C5.61755 18.0117 2.04282 14.437 2.04282 10.0273C2.04282 5.61764 5.61755 2.04291 10.0272 2.04291C14.4369 2.04291 18.0116 5.61764 18.0116 10.0273C18.0066 14.4349 14.4348 18.0068 10.0272 18.0117Z" fill="#374957"/>
<path d="M11.0253 6.03601H9.02918V9.03015H6.03503V11.0263H9.02918V14.0204H11.0253V11.0263H14.0194V9.03015H11.0253V6.03601Z" fill="#374957"/>
</g>
<defs>
<clipPath id="clip0_403_3747">
<rect width="24" height="24" fill="white"/>
</clipPath>
</defs>
</svg>
