<svg width="32" height="32" viewBox="0 0 32 32" fill="none" xmlns="http://www.w3.org/2000/svg">
<g clip-path="url(#clip0_403_3364)" filter="url(#filter0_d_403_3364)">
<path d="M22.9999 14.0003C22.1769 14.0057 21.3683 14.2171 20.6479 14.6153L17.2999 10.6003L24.7669 1.64029L23.2309 0.360291L15.9999 9.03829L8.76794 0.360291L7.23194 1.64029L14.6999 10.6003L11.3519 14.6153C10.6314 14.2176 9.82293 14.0062 8.99994 14.0003C8.01103 14.0003 7.04434 14.2935 6.22209 14.8429C5.39984 15.3924 4.75898 16.1732 4.38054 17.0869C4.00211 18.0005 3.90309 19.0058 4.09601 19.9757C4.28894 20.9456 4.76514 21.8366 5.46441 22.5358C6.16367 23.2351 7.05458 23.7113 8.02449 23.9042C8.99439 24.0971 9.99973 23.9981 10.9134 23.6197C11.827 23.2412 12.6079 22.6004 13.1573 21.7781C13.7067 20.9559 13.9999 19.9892 13.9999 19.0003C13.9942 17.8703 13.6018 16.7763 12.8879 15.9003L15.9999 12.1623L19.1109 15.9003C18.398 16.7767 18.006 17.8705 17.9999 19.0003C17.9999 19.9892 18.2932 20.9559 18.8426 21.7781C19.392 22.6004 20.1729 23.2412 21.0865 23.6197C22.0002 23.9981 23.0055 24.0971 23.9754 23.9042C24.9453 23.7113 25.8362 23.2351 26.5355 22.5358C27.2347 21.8366 27.7109 20.9456 27.9039 19.9757C28.0968 19.0058 27.9978 18.0005 27.6193 17.0869C27.2409 16.1732 26.6 15.3924 25.7778 14.8429C24.9555 14.2935 23.9888 14.0003 22.9999 14.0003V14.0003ZM8.99994 22.0003C8.4066 22.0003 7.82658 21.8243 7.33323 21.4947C6.83988 21.1651 6.45537 20.6965 6.2283 20.1483C6.00124 19.6002 5.94183 18.997 6.05759 18.415C6.17334 17.8331 6.45906 17.2985 6.87862 16.879C7.29818 16.4594 7.83273 16.1737 8.41467 16.0579C8.99661 15.9422 9.59981 16.0016 10.148 16.2287C10.6962 16.4557 11.1647 16.8402 11.4943 17.3336C11.824 17.8269 11.9999 18.4069 11.9999 19.0003C11.9999 19.7959 11.6839 20.559 11.1213 21.1216C10.5587 21.6842 9.79559 22.0003 8.99994 22.0003ZM22.9999 22.0003C22.4066 22.0003 21.8266 21.8243 21.3332 21.4947C20.8399 21.1651 20.4554 20.6965 20.2283 20.1483C20.0012 19.6002 19.9418 18.997 20.0576 18.415C20.1733 17.8331 20.4591 17.2985 20.8786 16.879C21.2982 16.4594 21.8327 16.1737 22.4147 16.0579C22.9966 15.9422 23.5998 16.0016 24.148 16.2287C24.6962 16.4557 25.1647 16.8402 25.4944 17.3336C25.824 17.8269 25.9999 18.4069 25.9999 19.0003C25.9999 19.7959 25.6839 20.559 25.1213 21.1216C24.5587 21.6842 23.7956 22.0003 22.9999 22.0003Z" fill="#374957"/>
</g>
<defs>
<filter id="filter0_d_403_3364" x="0" y="0" width="32" height="32" filterUnits="userSpaceOnUse" color-interpolation-filters="sRGB">
<feFlood flood-opacity="0" result="BackgroundImageFix"/>
<feColorMatrix in="SourceAlpha" type="matrix" values="0 0 0 0 0 0 0 0 0 0 0 0 0 0 0 0 0 0 127 0" result="hardAlpha"/>
<feOffset dy="4"/>
<feGaussianBlur stdDeviation="2"/>
<feComposite in2="hardAlpha" operator="out"/>
<feColorMatrix type="matrix" values="0 0 0 0 0 0 0 0 0 0 0 0 0 0 0 0 0 0 0.25 0"/>
<feBlend mode="normal" in2="BackgroundImageFix" result="effect1_dropShadow_403_3364"/>
<feBlend mode="normal" in="SourceGraphic" in2="effect1_dropShadow_403_3364" result="shape"/>
</filter>
<clipPath id="clip0_403_3364">
<rect width="24" height="24" fill="white" transform="translate(4)"/>
</clipPath>
</defs>
</svg>
