<svg width="24" height="24" viewBox="0 0 24 24" fill="none" xmlns="http://www.w3.org/2000/svg">
<g clip-path="url(#clip0_403_3507)">
<path d="M22.867 13.9998C20.9557 13.9236 19.0552 14.3202 17.334 15.1546C15.6128 15.9889 14.1241 17.2352 13 18.7828V13.9187C14.3973 13.6795 15.6652 12.9545 16.58 11.8716C17.4948 10.7886 17.9977 9.41736 18 7.99975C18 5.19975 16.056 2.84075 14.156 0.89975C13.5798 0.335822 12.8057 0.0200195 11.9995 0.0200195C11.1933 0.0200195 10.4192 0.335822 9.843 0.89975C7.943 2.83575 6 5.19975 6 7.99975C6.00112 9.41822 6.5035 10.7907 7.41841 11.8746C8.33331 12.9586 9.60187 13.6844 11 13.9237V18.7878C9.87643 17.2392 8.38798 15.992 6.66674 15.1568C4.9455 14.3215 3.04469 13.9241 1.133 13.9998H0L0.141 15.1258C0.928 21.4338 6.859 23.5768 10.754 23.9508C11.5835 24.0138 12.4165 24.0138 13.246 23.9508C17.141 23.5778 23.071 21.4348 23.859 15.1258L24 13.9998H22.867ZM2.361 16.0608C4.1314 16.1848 5.83305 16.7959 7.27787 17.8265C8.72269 18.8571 9.85443 20.2671 10.548 21.9007C8.162 21.5937 3.585 20.4338 2.361 16.0608ZM8 7.99975C8 5.92375 9.81 3.82375 11.428 2.17075C10.5816 4.35364 10.0992 6.66063 10 8.99975H12C12.0997 6.90746 12.5363 4.84497 13.293 2.89175C14.71 4.41075 16 6.16175 16 7.99975C16 9.06062 15.5786 10.078 14.8284 10.8282C14.0783 11.5783 13.0609 11.9998 12 11.9998C10.9391 11.9998 9.92172 11.5783 9.17157 10.8282C8.42143 10.078 8 9.06062 8 7.99975V7.99975ZM13.452 21.8997C14.1458 20.2663 15.2775 18.8564 16.7223 17.8258C18.1671 16.7952 19.8687 16.184 21.639 16.0597C20.415 20.4337 15.838 21.5937 13.452 21.8997Z" fill="#374957"/>
</g>
<defs>
<clipPath id="clip0_403_3507">
<rect width="24" height="24" fill="white"/>
</clipPath>
</defs>
</svg>
