<svg width="32" height="32" viewBox="0 0 32 32" fill="none" xmlns="http://www.w3.org/2000/svg">
<g clip-path="url(#clip0_403_3509)" filter="url(#filter0_d_403_3509)">
<path d="M25.4801 8.99962H25.3681C26.2381 7.23862 25.9851 3.66263 25.9201 2.91363L25.8201 1.79863L24.7201 2.01963C23.9751 2.16863 20.3781 2.95363 19.0061 4.34863C18.3372 3.28006 17.5781 2.27071 16.7371 1.33163L16.0001 0.499634L15.2561 1.32863C14.4149 2.26866 13.6558 3.27902 12.9871 4.34863C11.6151 2.95363 8.01809 2.16863 7.27309 2.01963L6.17709 1.79963L6.07709 2.91463C6.01209 3.66363 5.75909 7.23963 6.62909 9.00062H6.52009C6.06857 9.00122 5.62547 9.12289 5.23695 9.35294C4.84844 9.58299 4.52871 9.91301 4.31109 10.3086C4.09658 10.6868 3.98886 11.1162 3.99943 11.5509C4.01 11.9856 4.13846 12.4093 4.37109 12.7766C6.30009 15.8426 11.3791 18.2316 14.0261 19.3136C12.8946 20.2299 12.1672 21.5532 12.0001 22.9996V23.9996H20.0001V22.9996C19.9144 21.8696 19.4307 20.8066 18.6351 19.9996H20.0001C20.5305 19.9996 21.0392 20.2103 21.4143 20.5854C21.7894 20.9605 22.0001 21.4692 22.0001 21.9996H24.0001C23.9985 21.0667 23.671 20.1637 23.074 19.4467C22.4771 18.7298 21.6483 18.2441 20.7311 18.0736C23.2891 16.8046 26.2631 14.9666 27.6311 12.7736C27.8626 12.4058 27.9899 11.9821 27.9994 11.5476C28.0089 11.1131 27.9003 10.6842 27.6851 10.3066C27.4675 9.91193 27.1483 9.58261 26.7606 9.3528C26.3729 9.12299 25.9308 9.00105 25.4801 8.99962V8.99962ZM20.4001 5.79963C20.7751 5.29363 22.3851 4.67063 24.0001 4.24763C24.0521 5.94763 23.9121 7.69862 23.5341 8.20962C23.3821 8.4176 23.1901 8.59319 22.9695 8.72615C22.7488 8.85911 22.5039 8.94677 22.249 8.98401C21.9941 9.02125 21.7343 9.00732 21.4849 8.94304C21.2354 8.87876 21.0013 8.76541 20.7961 8.60962C20.3752 8.28641 20.098 7.81099 20.0239 7.28554C19.9499 6.76009 20.085 6.22656 20.4001 5.79963V5.79963ZM16.0001 3.54863C17.0621 4.88063 18.0001 6.37963 18.0001 6.99963C18.0001 7.53006 17.7894 8.03876 17.4143 8.41384C17.0392 8.78891 16.5305 8.99962 16.0001 8.99962C15.4697 8.99962 14.9609 8.78891 14.5859 8.41384C14.2108 8.03876 14.0001 7.53006 14.0001 6.99963C14.0001 6.36263 14.9391 4.87463 16.0001 3.54863ZM8.00609 4.24263C9.61909 4.66563 11.2291 5.28863 11.6001 5.79963C11.9128 6.22512 12.047 6.75589 11.9742 7.27889C11.9013 7.80188 11.6272 8.27577 11.2101 8.59962C11.0049 8.75541 10.7708 8.86876 10.5213 8.93304C10.2719 8.99732 10.0121 9.01125 9.75718 8.97401C9.50227 8.93677 9.25734 8.84911 9.0367 8.71615C8.81605 8.58319 8.62411 8.4076 8.47209 8.19962C8.09409 7.69362 7.95409 5.93963 8.00609 4.24263ZM14.3541 21.9996C14.8095 21.3339 15.3646 20.7423 16.0001 20.2456C16.6355 20.7423 17.1907 21.3339 17.6461 21.9996H14.3541ZM25.9371 11.7126C24.6431 13.7846 21.4011 15.5826 18.9031 16.7306C19.5726 15.5972 19.9496 14.315 20.0001 12.9996H18.0001C17.8151 14.6645 17.116 16.2304 16.0001 17.4796C14.8841 16.2304 14.1851 14.6645 14.0001 12.9996H12.0001C12.0506 14.3118 12.4258 15.591 13.0921 16.7226C10.6001 15.5716 7.36109 13.7736 6.06409 11.7116C6.02297 11.6463 6.00115 11.5708 6.00115 11.4936C6.00115 11.4165 6.02297 11.3409 6.06409 11.2756C6.10837 11.193 6.17407 11.1237 6.25429 11.0752C6.33451 11.0266 6.42632 11.0005 6.52009 10.9996H25.4801C25.5741 11.0003 25.6661 11.0261 25.7467 11.0745C25.8272 11.1229 25.8933 11.192 25.9381 11.2746C25.9788 11.3405 26.0003 11.4164 26.0001 11.4938C25.9999 11.5712 25.9781 11.647 25.9371 11.7126Z" fill="#374957"/>
</g>
<defs>
<filter id="filter0_d_403_3509" x="0" y="0" width="32" height="32" filterUnits="userSpaceOnUse" color-interpolation-filters="sRGB">
<feFlood flood-opacity="0" result="BackgroundImageFix"/>
<feColorMatrix in="SourceAlpha" type="matrix" values="0 0 0 0 0 0 0 0 0 0 0 0 0 0 0 0 0 0 127 0" result="hardAlpha"/>
<feOffset dy="4"/>
<feGaussianBlur stdDeviation="2"/>
<feComposite in2="hardAlpha" operator="out"/>
<feColorMatrix type="matrix" values="0 0 0 0 0 0 0 0 0 0 0 0 0 0 0 0 0 0 0.25 0"/>
<feBlend mode="normal" in2="BackgroundImageFix" result="effect1_dropShadow_403_3509"/>
<feBlend mode="normal" in="SourceGraphic" in2="effect1_dropShadow_403_3509" result="shape"/>
</filter>
<clipPath id="clip0_403_3509">
<rect width="24" height="24" fill="white" transform="translate(4)"/>
</clipPath>
</defs>
</svg>
