<svg width="24" height="24" viewBox="0 0 24 24" fill="none" xmlns="http://www.w3.org/2000/svg">
<g clip-path="url(#clip0_403_3718)">
<path d="M24 24H0V3C0 2.20435 0.31607 1.44129 0.87868 0.87868C1.44129 0.31607 2.20435 0 3 0L21 0C21.7956 0 22.5587 0.31607 23.1213 0.87868C23.6839 1.44129 24 2.20435 24 3V24ZM2 22H22V3C22 2.73478 21.8946 2.48043 21.7071 2.29289C21.5196 2.10536 21.2652 2 21 2H3C2.73478 2 2.48043 2.10536 2.29289 2.29289C2.10536 2.48043 2 2.73478 2 3V22ZM8 17.723V6.277L18.016 12L8 17.723ZM10 9.723V14.277L13.984 12L10 9.723Z" fill="#374957"/>
</g>
<defs>
<clipPath id="clip0_403_3718">
<rect width="24" height="24" fill="white"/>
</clipPath>
</defs>
</svg>
