<svg width="24" height="24" viewBox="0 0 24 24" fill="none" xmlns="http://www.w3.org/2000/svg">
<g clip-path="url(#clip0_403_3498)">
<path d="M19.828 3.41377L17.586 1.17177C17.2154 0.799078 16.7745 0.503595 16.2889 0.302422C15.8033 0.101249 15.2826 -0.00161981 14.757 -0.000230249H6C5.20435 -0.000230249 4.44129 0.31584 3.87868 0.878449C3.31607 1.44106 3 2.20412 3 2.99977V23.9998H21V6.24177C20.9974 5.18147 20.5762 4.1651 19.828 3.41377V3.41377ZM18.414 4.82777C18.4643 4.88234 18.5114 4.93976 18.555 4.99977H16V2.44477C16.06 2.48841 16.1174 2.53549 16.172 2.58577L18.414 4.82777ZM5 21.9998V2.99977C5 2.73455 5.10536 2.4802 5.29289 2.29266C5.48043 2.10513 5.73478 1.99977 6 1.99977H14V6.99977H19V21.9998H5ZM7 15.9998H17V9.99977H7V15.9998ZM9 11.9998H15V13.9998H9V11.9998ZM7 17.9998H17V19.9998H7V17.9998Z" fill="#374957"/>
</g>
<defs>
<clipPath id="clip0_403_3498">
<rect width="24" height="24" fill="white"/>
</clipPath>
</defs>
</svg>
