<svg width="32" height="32" viewBox="0 0 32 32" fill="none" xmlns="http://www.w3.org/2000/svg">
<g clip-path="url(#clip0_403_3739)" filter="url(#filter0_d_403_3739)">
<path d="M13.9998 8.00007C14.3954 8.00007 14.782 8.11737 15.1109 8.33713C15.4398 8.5569 15.6962 8.86925 15.8476 9.23471C15.9989 9.60016 16.0385 10.0023 15.9614 10.3903C15.8842 10.7782 15.6937 11.1346 15.414 11.4143C15.1343 11.694 14.7779 11.8845 14.39 11.9616C14.002 12.0388 13.5999 11.9992 13.2344 11.8478C12.869 11.6965 12.5566 11.4401 12.3369 11.1112C12.1171 10.7823 11.9998 10.3956 11.9998 10.0001C11.9998 9.46964 12.2105 8.96093 12.5856 8.58586C12.9607 8.21079 13.4694 8.00007 13.9998 8.00007V8.00007ZM27.9998 10.0001C27.9958 13.7119 26.5196 17.2705 23.8949 19.8952C21.2703 22.5198 17.7116 23.9961 13.9998 24.0001H12.9998V19.9491C11.2718 19.7776 9.61827 19.1592 8.20189 18.1546C6.78551 17.1501 5.65513 15.794 4.92201 14.2199C4.18889 12.6458 3.87829 10.9079 4.02079 9.17728C4.1633 7.44668 4.75398 5.78301 5.73472 4.35003C6.71545 2.91704 8.05243 1.76413 9.61405 1.00478C11.1757 0.245421 12.9081 -0.0942064 14.6409 0.0193228C16.3736 0.132852 18.0469 0.695624 19.4961 1.65225C20.9453 2.60887 22.1204 3.92637 22.9058 5.47507C22.2844 5.76723 21.7299 6.18422 21.2768 6.70007C20.5216 5.0353 19.219 3.6794 17.5858 2.85804C15.9527 2.03669 14.0875 1.79943 12.3007 2.18577C10.5139 2.5721 8.91338 3.55872 7.76543 4.9814C6.61748 6.40409 5.9914 8.17701 5.9914 10.0051C5.9914 11.8331 6.61748 13.6061 7.76543 15.0287C8.91338 16.4514 10.5139 17.438 12.3007 17.8244C14.0875 18.2107 15.9527 17.9735 17.5858 17.1521C19.219 16.3308 20.5216 14.9748 21.2768 13.3101C21.7304 13.8241 22.2849 14.2394 22.9058 14.5301C22.1443 16.0191 21.0216 17.2934 19.6405 18.2366C18.2594 19.1797 16.6638 19.7616 14.9998 19.9291V21.9581C17.489 21.7445 19.8498 20.7606 21.7538 19.1431C23.6579 17.5256 25.0106 15.355 25.6238 12.9331C25.0172 13.0621 24.3855 12.9999 23.8156 12.7551C23.2458 12.5103 22.7658 12.0949 22.4418 11.5661C22.1178 11.0372 21.9656 10.421 22.0062 9.80213C22.0469 9.18326 22.2783 8.5922 22.6687 8.11029C23.0591 7.62838 23.5893 7.27931 24.1862 7.11111C24.7832 6.94292 25.4176 6.96387 26.0021 7.17109C26.5867 7.3783 27.0927 7.76159 27.4504 8.26821C27.8081 8.77483 28.0001 9.37988 27.9998 10.0001V10.0001ZM25.9998 10.0001C25.9998 9.80229 25.9412 9.60895 25.8313 9.4445C25.7214 9.28005 25.5652 9.15188 25.3825 9.07619C25.1998 9.00051 24.9987 8.9807 24.8047 9.01929C24.6107 9.05787 24.4325 9.15311 24.2927 9.29297C24.1528 9.43282 24.0576 9.611 24.019 9.80498C23.9804 9.99896 24.0002 10.2 24.0759 10.3828C24.1516 10.5655 24.2798 10.7217 24.4442 10.8315C24.6087 10.9414 24.802 11.0001 24.9998 11.0001C25.265 11.0001 25.5194 10.8947 25.7069 10.7072C25.8944 10.5196 25.9998 10.2653 25.9998 10.0001Z" fill="#374957"/>
</g>
<defs>
<filter id="filter0_d_403_3739" x="0" y="0" width="32" height="32" filterUnits="userSpaceOnUse" color-interpolation-filters="sRGB">
<feFlood flood-opacity="0" result="BackgroundImageFix"/>
<feColorMatrix in="SourceAlpha" type="matrix" values="0 0 0 0 0 0 0 0 0 0 0 0 0 0 0 0 0 0 127 0" result="hardAlpha"/>
<feOffset dy="4"/>
<feGaussianBlur stdDeviation="2"/>
<feComposite in2="hardAlpha" operator="out"/>
<feColorMatrix type="matrix" values="0 0 0 0 0 0 0 0 0 0 0 0 0 0 0 0 0 0 0.25 0"/>
<feBlend mode="normal" in2="BackgroundImageFix" result="effect1_dropShadow_403_3739"/>
<feBlend mode="normal" in="SourceGraphic" in2="effect1_dropShadow_403_3739" result="shape"/>
</filter>
<clipPath id="clip0_403_3739">
<rect width="24" height="24" fill="white" transform="translate(4)"/>
</clipPath>
</defs>
</svg>
