<svg width="24" height="24" viewBox="0 0 24 24" fill="none" xmlns="http://www.w3.org/2000/svg">
<g clip-path="url(#clip0_403_3390)">
<path d="M21.977 11.27C21.7487 8.50094 20.4984 5.91583 18.4695 4.01759C16.4406 2.11935 13.7781 1.04373 11 1V0H5.99999C5.20434 0 4.44128 0.31607 3.87867 0.87868C3.31606 1.44129 2.99999 2.20435 2.99999 3V21C2.99999 21.7956 3.31606 22.5587 3.87867 23.1213C4.44128 23.6839 5.20434 24 5.99999 24H11V23C12.5044 22.9976 13.9924 22.6877 15.3728 22.0895C16.7531 21.4912 17.9966 20.6172 19.027 19.521C20.0621 18.4241 20.8586 17.1246 21.3663 15.7045C21.8741 14.2844 22.082 12.7745 21.977 11.27V11.27ZM17.567 18.153C16.7286 19.0557 15.7122 19.7748 14.5819 20.2648C13.4516 20.7549 12.2319 21.0052 11 21H8.99999V22H5.99999C5.73478 22 5.48042 21.8946 5.29289 21.7071C5.10535 21.5196 4.99999 21.2652 4.99999 21V19H6.99999V17H4.99999V15H6.99999V13H4.99999V11H6.99999V9H4.99999V7H6.99999V5H4.99999V3C4.99999 2.73478 5.10535 2.48043 5.29289 2.29289C5.48042 2.10536 5.73478 2 5.99999 2H8.99999V3H10.657C12.9856 2.96007 15.2427 3.80479 16.973 5.36373C18.7032 6.92268 19.7778 9.07983 19.98 11.4C20.0666 12.6313 19.8969 13.8672 19.4816 15.0295C19.0662 16.1919 18.4143 17.2554 17.567 18.153V18.153ZM11 7H8.99999V17H11C12.3261 17 13.5978 16.4732 14.5355 15.5355C15.4732 14.5979 16 13.3261 16 12C16 10.6739 15.4732 9.40215 14.5355 8.46447C13.5978 7.52678 12.3261 7 11 7V7ZM11 15V9C11.7956 9 12.5587 9.31607 13.1213 9.87868C13.6839 10.4413 14 11.2044 14 12C14 12.7956 13.6839 13.5587 13.1213 14.1213C12.5587 14.6839 11.7956 15 11 15V15Z" fill="#374957"/>
</g>
<defs>
<clipPath id="clip0_403_3390">
<rect width="24" height="24" fill="white"/>
</clipPath>
</defs>
</svg>
