<svg width="24" height="24" viewBox="0 0 24 24" fill="none" xmlns="http://www.w3.org/2000/svg">
<g clip-path="url(#clip0_403_3444)">
<path d="M22 15V3H2V15H0V18C0 18.7956 0.31607 19.5587 0.87868 20.1213C1.44129 20.6839 2.20435 21 3 21H21C21.7956 21 22.5587 20.6839 23.1213 20.1213C23.6839 19.5587 24 18.7956 24 18V15H22ZM4 5H20V15H14.921L14.074 16H9.925L9.079 15H4V5ZM22 18C22 18.2652 21.8946 18.5196 21.7071 18.7071C21.5196 18.8946 21.2652 19 21 19H3C2.73478 19 2.48043 18.8946 2.29289 18.7071C2.10536 18.5196 2 18.2652 2 18V17H8.151L9 18H15L15.847 17H22V18Z" fill="#374957"/>
</g>
<defs>
<clipPath id="clip0_403_3444">
<rect width="24" height="24" fill="white"/>
</clipPath>
</defs>
</svg>
