<svg width="24" height="24" viewBox="0 0 24 24" fill="none" xmlns="http://www.w3.org/2000/svg">
<g clip-path="url(#clip0_403_3628)">
<path d="M22 9.979V16H16V22H2V3C2 2.73478 2.10536 2.48043 2.29289 2.29289C2.48043 2.10536 2.73478 2 3 2H16.148L17.359 0.646C17.5744 0.408053 17.8126 0.191694 18.07 0L3 0C2.20435 0 1.44129 0.31607 0.87868 0.87868C0.31607 1.44129 0 2.20435 0 3L0 24H18.414L24 18.414V7.979L22 9.979ZM18 21.586V18H21.586L18 21.586Z" fill="#374957"/>
<path d="M12.729 11.8195L20.34 3.31255C20.4257 3.21685 20.53 3.13963 20.6466 3.08561C20.7631 3.03158 20.8894 3.00188 21.0178 2.99833C21.1463 2.99477 21.274 3.01743 21.3934 3.06492C21.5127 3.11242 21.6212 3.18374 21.712 3.27455C21.7998 3.36214 21.8694 3.46618 21.917 3.58072C21.9645 3.69526 21.9889 3.81805 21.9889 3.94205C21.9889 4.06605 21.9645 4.18884 21.917 4.30337C21.8694 4.41791 21.7998 4.52196 21.712 4.60955L13.68 12.6425C14.1488 13.1578 14.5038 13.766 14.722 14.4275L23.122 6.02755C23.6733 5.47507 23.9828 4.72649 23.9828 3.94605C23.9828 3.1656 23.6733 2.41703 23.122 1.86455C22.839 1.58123 22.5012 1.35864 22.1292 1.21041C21.7572 1.06218 21.3589 0.991417 20.9586 1.00246C20.5583 1.01351 20.1645 1.10613 19.8012 1.27465C19.438 1.44317 19.113 1.68405 18.846 1.98255L10.71 11.0755C11.4293 11.173 12.1185 11.427 12.729 11.8195Z" fill="#374957"/>
<path d="M10.0001 13.0004C6.00015 13.0004 5.00015 19.0004 5.00015 19.0004H10.0001C10.7958 19.0004 11.5589 18.6843 12.1215 18.1217C12.6841 17.5591 13.0001 16.796 13.0001 16.0004C13.0001 15.2047 12.6841 14.4417 12.1215 13.879C11.5589 13.3164 10.7958 13.0004 10.0001 13.0004Z" fill="#374957"/>
</g>
<defs>
<clipPath id="clip0_403_3628">
<rect width="24" height="24" fill="white"/>
</clipPath>
</defs>
</svg>
