<svg width="32" height="31" viewBox="0 0 32 31" fill="none" xmlns="http://www.w3.org/2000/svg">
<g clip-path="url(#clip0_403_3561)" filter="url(#filter0_d_403_3561)">
<path d="M28 3C28 2.20435 27.6839 1.44129 27.1213 0.87868C26.5587 0.31607 25.7956 0 25 0L7 0C6.20435 0 5.44129 0.31607 4.87868 0.87868C4.31607 1.44129 4 2.20435 4 3V6C4.0026 6.7404 4.28065 7.45333 4.78 8C4.28065 8.54667 4.0026 9.2596 4 10L4 13C4.0026 13.7404 4.28065 14.4533 4.78 15C4.28065 15.5467 4.0026 16.2596 4 17L4 23H28V17C27.9974 16.2596 27.7194 15.5467 27.22 15C27.7194 14.4533 27.9974 13.7404 28 13V10C27.9974 9.2596 27.7194 8.54667 27.22 8C27.7194 7.45333 27.9974 6.7404 28 6V3ZM6 3C6 2.73478 6.10536 2.48043 6.29289 2.29289C6.48043 2.10536 6.73478 2 7 2H9V4H11V2H13V4H15V2H25C25.2652 2 25.5196 2.10536 25.7071 2.29289C25.8946 2.48043 26 2.73478 26 3V6C26 6.26522 25.8946 6.51957 25.7071 6.70711C25.5196 6.89464 25.2652 7 25 7H7C6.73478 7 6.48043 6.89464 6.29289 6.70711C6.10536 6.51957 6 6.26522 6 6V3ZM26 10V13C26 13.2652 25.8946 13.5196 25.7071 13.7071C25.5196 13.8946 25.2652 14 25 14H7C6.73478 14 6.48043 13.8946 6.29289 13.7071C6.10536 13.5196 6 13.2652 6 13V10C6 9.73478 6.10536 9.48043 6.29289 9.29289C6.48043 9.10536 6.73478 9 7 9H9V11H11V9H13V11H15V9H25C25.2652 9 25.5196 9.10536 25.7071 9.29289C25.8946 9.48043 26 9.73478 26 10ZM26 21H6V17C6 16.7348 6.10536 16.4804 6.29289 16.2929C6.48043 16.1054 6.73478 16 7 16H9V18H11V16H13V18H15V16H25C25.2652 16 25.5196 16.1054 25.7071 16.2929C25.8946 16.4804 26 16.7348 26 17V21Z" fill="#374957"/>
</g>
<defs>
<filter id="filter0_d_403_3561" x="0" y="0" width="32" height="32" filterUnits="userSpaceOnUse" color-interpolation-filters="sRGB">
<feFlood flood-opacity="0" result="BackgroundImageFix"/>
<feColorMatrix in="SourceAlpha" type="matrix" values="0 0 0 0 0 0 0 0 0 0 0 0 0 0 0 0 0 0 127 0" result="hardAlpha"/>
<feOffset dy="4"/>
<feGaussianBlur stdDeviation="2"/>
<feComposite in2="hardAlpha" operator="out"/>
<feColorMatrix type="matrix" values="0 0 0 0 0 0 0 0 0 0 0 0 0 0 0 0 0 0 0.25 0"/>
<feBlend mode="normal" in2="BackgroundImageFix" result="effect1_dropShadow_403_3561"/>
<feBlend mode="normal" in="SourceGraphic" in2="effect1_dropShadow_403_3561" result="shape"/>
</filter>
<clipPath id="clip0_403_3561">
<rect width="24" height="24" fill="white" transform="translate(4)"/>
</clipPath>
</defs>
</svg>
