<svg width="24" height="24" viewBox="0 0 24 24" fill="none" xmlns="http://www.w3.org/2000/svg">
<g clip-path="url(#clip0_403_3711)">
<path d="M19.0002 0H5.00015C4.2045 0 3.44144 0.31607 2.87883 0.87868C2.31622 1.44129 2.00015 2.20435 2.00015 3V24H22.0002V3C22.0002 2.20435 21.6841 1.44129 21.1215 0.87868C20.5589 0.31607 19.7958 0 19.0002 0V0ZM5.00015 2H19.0002C19.2654 2 19.5197 2.10536 19.7073 2.29289C19.8948 2.48043 20.0002 2.73478 20.0002 3V11H4.00015V3C4.00015 2.73478 4.10551 2.48043 4.29305 2.29289C4.48058 2.10536 4.73494 2 5.00015 2ZM4.00015 22V13H20.0002V22H4.00015Z" fill="#374957"/>
<path d="M14.0003 6H10.0003V8H14.0003V6Z" fill="#374957"/>
<path d="M14.0003 17H10.0003V19H14.0003V17Z" fill="#374957"/>
</g>
<defs>
<clipPath id="clip0_403_3711">
<rect width="24" height="24" fill="white"/>
</clipPath>
</defs>
</svg>
