<svg width="24" height="24" viewBox="0 0 24 24" fill="none" xmlns="http://www.w3.org/2000/svg">
<g clip-path="url(#clip0_403_3321)">
<path d="M21.9999 1.99994V5.36194C20.8523 3.63374 19.2764 2.23255 17.4258 1.2951C15.5752 0.35764 13.5132 -0.084055 11.441 0.0131113C9.36874 0.110278 7.35711 0.742987 5.60236 1.8495C3.84761 2.95601 2.40968 4.49852 1.42889 6.32652C0.448102 8.15451 -0.0420459 10.2055 0.00627813 12.2795C0.0546022 14.3534 0.639747 16.3794 1.70461 18.1597C2.76948 19.94 4.27769 21.4139 6.08208 22.4375C7.88646 23.4611 9.92538 23.9994 11.9999 23.9999V21.9999C10.2447 21.9991 8.52067 21.5363 7.00102 20.6581C5.48137 19.7799 4.21962 18.5172 3.34258 16.9969C2.46554 15.4765 2.0041 13.7521 2.00462 11.997C2.00514 10.2418 2.4676 8.5177 3.34555 6.99789C4.22349 5.47808 5.48598 4.21611 7.00616 3.3388C8.52633 2.46149 10.2506 1.99973 12.0058 1.99994C13.761 2.00015 15.4852 2.46231 17.0051 3.33998C18.5251 4.21766 19.7873 5.47992 20.6649 6.99994H16.9999V8.99994H21.9999C22.5303 8.99994 23.039 8.78923 23.4141 8.41416C23.7892 8.03908 23.9999 7.53037 23.9999 6.99994V1.99994H21.9999Z" fill="#374957"/>
<path d="M13.0003 13H7.00031V11H11.0003V6H13.0003V13Z" fill="#374957"/>
<path d="M21 24C20.2044 24 19.4413 23.6839 18.8787 23.1213C18.3161 22.5587 18 21.7956 18 21V18C18 17.2044 18.3161 16.4413 18.8787 15.8787C19.4413 15.3161 20.2044 15 21 15C21.7956 15 22.5587 15.3161 23.1213 15.8787C23.6839 16.4413 24 17.2044 24 18V21C24 21.7956 23.6839 22.5587 23.1213 23.1213C22.5587 23.6839 21.7956 24 21 24ZM21 17C20.7348 17 20.4804 17.1054 20.2929 17.2929C20.1054 17.4804 20 17.7348 20 18V21C20 21.2652 20.1054 21.5196 20.2929 21.7071C20.4804 21.8946 20.7348 22 21 22C21.2652 22 21.5196 21.8946 21.7071 21.7071C21.8946 21.5196 22 21.2652 22 21V18C22 17.7348 21.8946 17.4804 21.7071 17.2929C21.5196 17.1054 21.2652 17 21 17Z" fill="#374957"/>
<path d="M16.9997 24.0006H14.9997V18.4146L13.7067 19.7076L12.2927 18.2936L15.2927 15.2936C15.4326 15.1538 15.6107 15.0586 15.8047 15.0201C15.9986 14.9815 16.1997 15.0013 16.3824 15.077C16.5651 15.1526 16.7212 15.2808 16.8311 15.4452C16.941 15.6096 16.9997 15.8029 16.9997 16.0006V24.0006Z" fill="#374957"/>
</g>
<defs>
<clipPath id="clip0_403_3321">
<rect width="24" height="24" fill="white"/>
</clipPath>
</defs>
</svg>
