<svg width="32" height="32" viewBox="0 0 32 32" fill="none" xmlns="http://www.w3.org/2000/svg">
<g clip-path="url(#clip0_403_3667)" filter="url(#filter0_d_403_3667)">
<path d="M22.9649 8.46398L27.9939 3.43498L26.5649 2.00598L21.5189 7.05098L19.3129 4.89498C18.9509 4.54313 18.4698 4.3403 17.9652 4.32678C17.4605 4.31325 16.9693 4.49002 16.5889 4.82198C14.7327 6.50283 12.5732 7.81456 10.2259 8.68698L3.99393 10.514V11.27C4.03508 14.6829 5.42798 17.9403 7.8672 20.3278C10.3064 22.7152 13.5929 24.038 17.0059 24.006H18.2469L18.5079 23.824C20.5468 22.5169 22.2384 20.735 23.4377 18.6309C24.637 16.5268 25.3082 14.1633 25.3939 11.743C25.4015 11.4643 25.3511 11.187 25.2459 10.9288C25.1408 10.6706 24.9831 10.4371 24.7829 10.243L22.9649 8.46398ZM17.8999 6.33998L23.3769 11.681C23.347 12.7007 23.1939 13.713 22.9209 14.696L15.9409 7.89998C16.6199 7.41345 17.2737 6.89278 17.8999 6.33998V6.33998ZM17.6059 21.985H17.0059C15.5322 21.9851 14.0731 21.6931 12.7129 21.126C14.4606 20.2479 15.9567 18.9404 17.0609 17.326L17.5789 16.566L15.9099 15.43L15.3919 16.191C14.479 17.5224 13.2431 18.6004 11.7999 19.324L10.5709 19.942C9.57168 19.2386 8.69783 18.3722 7.98593 17.379C9.61703 16.8267 11.1052 15.9192 12.3429 14.722L10.9319 13.277C9.81435 14.3596 8.45062 15.1547 6.95793 15.594C6.44019 14.4668 6.12827 13.256 6.03693 12.019L10.7919 10.625C11.9944 10.2389 13.1442 9.70482 14.2149 9.03498L22.1259 16.735C21.0799 18.8334 19.527 20.6379 17.6079 21.985H17.6059Z" fill="#374957"/>
</g>
<defs>
<filter id="filter0_d_403_3667" x="0" y="0" width="32" height="32" filterUnits="userSpaceOnUse" color-interpolation-filters="sRGB">
<feFlood flood-opacity="0" result="BackgroundImageFix"/>
<feColorMatrix in="SourceAlpha" type="matrix" values="0 0 0 0 0 0 0 0 0 0 0 0 0 0 0 0 0 0 127 0" result="hardAlpha"/>
<feOffset dy="4"/>
<feGaussianBlur stdDeviation="2"/>
<feComposite in2="hardAlpha" operator="out"/>
<feColorMatrix type="matrix" values="0 0 0 0 0 0 0 0 0 0 0 0 0 0 0 0 0 0 0.25 0"/>
<feBlend mode="normal" in2="BackgroundImageFix" result="effect1_dropShadow_403_3667"/>
<feBlend mode="normal" in="SourceGraphic" in2="effect1_dropShadow_403_3667" result="shape"/>
</filter>
<clipPath id="clip0_403_3667">
<rect width="24" height="24" fill="white" transform="translate(4)"/>
</clipPath>
</defs>
</svg>
