<svg width="24" height="24" viewBox="0 0 24 24" fill="none" xmlns="http://www.w3.org/2000/svg">
<g clip-path="url(#clip0_403_3294)">
<path d="M21.7208 21.0006L19.7208 15.0006H12.9998C12.7346 15.0006 12.4802 14.8953 12.2927 14.7077C12.1051 14.5202 11.9998 14.2659 11.9998 14.0006V13.0006H18.9998V11.0006H11.9998V7.85864C12.9424 7.61525 13.764 7.03641 14.3104 6.23063C14.8568 5.42485 15.0906 4.44745 14.9679 3.48164C14.8452 2.51583 14.3745 1.62791 13.644 0.984318C12.9135 0.340729 11.9734 -0.0143433 10.9998 -0.0143433C10.0262 -0.0143433 9.08606 0.340729 8.35556 0.984318C7.62505 1.62791 7.15435 2.51583 7.03167 3.48164C6.909 4.44745 7.14278 5.42485 7.68919 6.23063C8.2356 7.03641 9.05713 7.61525 9.99979 7.85864V14.0006C9.99979 14.7963 10.3159 15.5594 10.8785 16.122C11.4411 16.6846 12.2041 17.0006 12.9998 17.0006H13.9098C13.7191 18.1288 13.2098 19.179 12.4419 20.0272C11.674 20.8755 10.6796 21.4865 9.57593 21.7883C8.47223 22.09 7.30528 22.0698 6.21265 21.7302C5.12003 21.3906 4.1473 20.7456 3.40917 19.8713C2.67104 18.997 2.19828 17.9299 2.04664 16.7958C1.89499 15.6617 2.07079 14.5079 2.5533 13.4704C3.03581 12.4329 3.80491 11.5551 4.76992 10.9403C5.73492 10.3255 6.85559 9.99948 7.99979 10.0006V8.00064C6.45994 7.99944 4.95247 8.44266 3.65832 9.27711C2.36417 10.1116 1.33834 11.3018 0.703964 12.7049C0.06959 14.108 -0.146368 15.6643 0.0820122 17.1872C0.310392 18.71 0.973406 20.1345 1.99147 21.2898C3.00953 22.4451 4.33937 23.282 5.82137 23.7001C7.30337 24.1182 8.87454 24.0997 10.3463 23.6469C11.818 23.194 13.1278 22.326 14.1184 21.1471C15.109 19.9682 15.7383 18.5284 15.9308 17.0006H18.2788L20.2788 23.0006H23.9998V21.0006H21.7208ZM8.99979 4.00064C8.99979 3.60508 9.11709 3.2184 9.33685 2.8895C9.55661 2.5606 9.86897 2.30426 10.2344 2.15288C10.5999 2.00151 11.002 1.9619 11.39 2.03907C11.7779 2.11624 12.1343 2.30672 12.414 2.58643C12.6937 2.86613 12.8842 3.2225 12.9614 3.61046C13.0385 3.99842 12.9989 4.40056 12.8475 4.76601C12.6962 5.13146 12.4398 5.44382 12.1109 5.66358C11.782 5.88334 11.3954 6.00064 10.9998 6.00064C10.4694 6.00064 9.96065 5.78993 9.58558 5.41485C9.2105 5.03978 8.99979 4.53107 8.99979 4.00064Z" fill="#374957"/>
</g>
<defs>
<clipPath id="clip0_403_3294">
<rect width="24" height="24" fill="white"/>
</clipPath>
</defs>
</svg>
