<svg width="24" height="24" viewBox="0 0 24 24" fill="none" xmlns="http://www.w3.org/2000/svg">
<g clip-path="url(#clip0_403_3579)">
<path d="M21 0H3C2.20435 0 1.44129 0.31607 0.87868 0.87868C0.31607 1.44129 0 2.20435 0 3L0 24H24V3C24 2.20435 23.6839 1.44129 23.1213 0.87868C22.5587 0.31607 21.7956 0 21 0V0ZM3 2H21C21.2652 2 21.5196 2.10536 21.7071 2.29289C21.8946 2.48043 22 2.73478 22 3V20.586L11.121 9.707C10.5584 9.14459 9.79549 8.82864 9 8.82864C8.20451 8.82864 7.44158 9.14459 6.879 9.707L2 14.586V3C2 2.73478 2.10536 2.48043 2.29289 2.29289C2.48043 2.10536 2.73478 2 3 2V2ZM2 17.414L8.293 11.121C8.48053 10.9335 8.73484 10.8282 9 10.8282C9.26516 10.8282 9.51947 10.9335 9.707 11.121L20.586 22H2V17.414Z" fill="#374957"/>
<path d="M15.9998 9.99933C16.5932 9.99933 17.1732 9.82338 17.6666 9.49374C18.1599 9.16409 18.5444 8.69556 18.7715 8.14738C18.9985 7.5992 19.058 6.996 18.9422 6.41406C18.8264 5.83212 18.5407 5.29757 18.1212 4.87801C17.7016 4.45845 17.1671 4.17273 16.5851 4.05697C16.0032 3.94122 15.4 4.00063 14.8518 4.22769C14.3036 4.45475 13.8351 4.83927 13.5054 5.33262C13.1758 5.82597 12.9998 6.40599 12.9998 6.99933C12.9998 7.79498 13.3159 8.55804 13.8785 9.12065C14.4411 9.68326 15.2042 9.99933 15.9998 9.99933V9.99933ZM15.9998 5.99933C16.1976 5.99933 16.391 6.05798 16.5554 6.16786C16.7199 6.27774 16.848 6.43392 16.9237 6.61665C16.9994 6.79937 17.0192 7.00044 16.9806 7.19442C16.942 7.3884 16.8468 7.56658 16.707 7.70644C16.5671 7.84629 16.3889 7.94153 16.1949 7.98012C16.001 8.0187 15.7999 7.9989 15.6172 7.92321C15.4344 7.84752 15.2783 7.71935 15.1684 7.5549C15.0585 7.39045 14.9998 7.19711 14.9998 6.99933C14.9998 6.73411 15.1052 6.47976 15.2927 6.29222C15.4803 6.10469 15.7346 5.99933 15.9998 5.99933V5.99933Z" fill="#374957"/>
</g>
<defs>
<clipPath id="clip0_403_3579">
<rect width="24" height="24" fill="white"/>
</clipPath>
</defs>
</svg>
