<svg width="32" height="32" viewBox="0 0 32 32" fill="none" xmlns="http://www.w3.org/2000/svg">
<g clip-path="url(#clip0_403_3494)" filter="url(#filter0_d_403_3494)">
<path d="M28 3C28 2.20435 27.6839 1.44129 27.1213 0.87868C26.5587 0.31607 25.7956 0 25 0L15 0C14.2044 0 13.4413 0.31607 12.8787 0.87868C12.3161 1.44129 12 2.20435 12 3V5H11C10.2044 5 9.44129 5.31607 8.87868 5.87868C8.31607 6.44129 8 7.20435 8 8V10H7C6.20435 10 5.44129 10.3161 4.87868 10.8787C4.31607 11.4413 4 12.2044 4 13V24H20V19H24V14H28V3ZM7 12H17C17.2652 12 17.5196 12.1054 17.7071 12.2929C17.8946 12.4804 18 12.7348 18 13V13.586L14 17.586L12.053 15.638L6 20.826V13C6 12.7348 6.10536 12.4804 6.29289 12.2929C6.48043 12.1054 6.73478 12 7 12V12ZM18 22H7.7L11.944 18.362L14 20.414L18 16.414V22ZM22 17H20V13C20 12.2044 19.6839 11.4413 19.1213 10.8787C18.5587 10.3161 17.7956 10 17 10H10V8C10 7.73478 10.1054 7.48043 10.2929 7.29289C10.4804 7.10536 10.7348 7 11 7H21C21.2652 7 21.5196 7.10536 21.7071 7.29289C21.8946 7.48043 22 7.73478 22 8V17ZM26 12H24V8C24 7.20435 23.6839 6.44129 23.1213 5.87868C22.5587 5.31607 21.7956 5 21 5H14V3C14 2.73478 14.1054 2.48043 14.2929 2.29289C14.4804 2.10536 14.7348 2 15 2H25C25.2652 2 25.5196 2.10536 25.7071 2.29289C25.8946 2.48043 26 2.73478 26 3V12ZM8 15C8 14.8022 8.05865 14.6089 8.16853 14.4444C8.27841 14.28 8.43459 14.1518 8.61732 14.0761C8.80004 14.0004 9.00111 13.9806 9.19509 14.0192C9.38907 14.0578 9.56725 14.153 9.70711 14.2929C9.84696 14.4327 9.9422 14.6109 9.98079 14.8049C10.0194 14.9989 9.99957 15.2 9.92388 15.3827C9.84819 15.5654 9.72002 15.7216 9.55557 15.8315C9.39112 15.9414 9.19778 16 9 16C8.73478 16 8.48043 15.8946 8.29289 15.7071C8.10536 15.5196 8 15.2652 8 15Z" fill="#374957"/>
</g>
<defs>
<filter id="filter0_d_403_3494" x="0" y="0" width="32" height="32" filterUnits="userSpaceOnUse" color-interpolation-filters="sRGB">
<feFlood flood-opacity="0" result="BackgroundImageFix"/>
<feColorMatrix in="SourceAlpha" type="matrix" values="0 0 0 0 0 0 0 0 0 0 0 0 0 0 0 0 0 0 127 0" result="hardAlpha"/>
<feOffset dy="4"/>
<feGaussianBlur stdDeviation="2"/>
<feComposite in2="hardAlpha" operator="out"/>
<feColorMatrix type="matrix" values="0 0 0 0 0 0 0 0 0 0 0 0 0 0 0 0 0 0 0.25 0"/>
<feBlend mode="normal" in2="BackgroundImageFix" result="effect1_dropShadow_403_3494"/>
<feBlend mode="normal" in="SourceGraphic" in2="effect1_dropShadow_403_3494" result="shape"/>
</filter>
<clipPath id="clip0_403_3494">
<rect width="24" height="24" fill="white" transform="translate(4)"/>
</clipPath>
</defs>
</svg>
