<svg width="24" height="24" viewBox="0 0 24 24" fill="none" xmlns="http://www.w3.org/2000/svg">
<g clip-path="url(#clip0_403_3368)">
<path d="M23.293 11.0704C23.0185 10.7455 22.6781 10.4828 22.2943 10.2995C21.9106 10.1162 21.4922 10.0167 21.067 10.0074C21.5888 8.05678 21.9016 6.05618 22 4.03939L22.043 2.95039L20.954 2.99939C19.7262 3.06531 18.5034 3.20422 17.292 3.41539C17.7792 2.34357 18.0211 1.17655 18 -0.000611145H16C16.0111 0.770614 15.8754 1.53691 15.6 2.25739C15.4099 1.8522 15.1519 1.48253 14.837 1.16439C14.138 0.46709 13.2048 0.0543681 12.2186 0.00632408C11.2324 -0.0417199 10.2635 0.278341 9.50003 0.904389C8.75899 0.291547 7.82066 -0.0314172 6.85942 -0.00448419C5.89817 0.0224488 4.9794 0.397447 4.27384 1.05082C3.56828 1.70419 3.12392 2.5915 3.02335 3.54785C2.92277 4.5042 3.17282 5.46453 3.72703 6.25039C3.16187 6.73411 2.7138 7.33974 2.41657 8.02168C2.11933 8.70362 1.98067 9.4441 2.01103 10.1874C1.34322 10.4123 0.777735 10.8685 0.416528 11.4735C0.0553206 12.0786 -0.0778482 12.7928 0.0410284 13.4874C0.382587 15.6951 1.2434 17.7902 2.55266 19.6003C3.86192 21.4104 5.58221 22.8839 7.57203 23.8994L7.77203 23.9994H16.223L16.423 23.8994C18.4136 22.8834 20.1342 21.409 21.4434 19.5977C22.7525 17.7865 23.6127 15.6902 23.953 13.4814C24.0252 13.0557 24.0035 12.6194 23.8895 12.2029C23.7755 11.7865 23.5719 11.4 23.293 11.0704V11.0704ZM18.973 9.99939H16.414L17.707 8.70639L16.292 7.29239L13.585 9.99939H12.036C11.9631 9.47344 12.0133 8.93774 12.1826 8.43449C12.352 7.93124 12.6359 7.4742 13.012 7.09939C14.144 5.96739 17.476 5.31539 19.919 5.08339C19.7851 6.75181 19.4679 8.40041 18.973 9.99939V9.99939ZM4.00003 9.99939C4.00003 9.20374 4.3161 8.44068 4.87871 7.87807C5.44132 7.31546 6.20438 6.99939 7.00003 6.99939C7.79568 6.99939 8.55874 7.31546 9.12135 7.87807C9.68396 8.44068 10 9.20374 10 9.99939H4.00003ZM5.57803 2.57839C5.9488 2.20876 6.45099 2.0012 6.97453 2.0012C7.49807 2.0012 8.00026 2.20876 8.37103 2.57839C8.46603 2.67839 9.49903 3.80839 9.49903 3.80839C9.49903 3.80839 10.533 2.67439 10.627 2.57939C10.92 2.2817 11.3005 2.08541 11.7129 2.01913C12.1253 1.95286 12.5481 2.02007 12.9196 2.21097C13.2912 2.40187 13.592 2.70647 13.7783 3.08035C13.9645 3.45423 14.0264 3.87784 13.955 4.28939C12.6283 4.69421 11.4959 5.57116 10.772 6.75439C10.1397 6.00715 9.29879 5.46569 8.35688 5.19934C7.41497 4.933 6.41499 4.95391 5.48503 5.25939C5.15971 4.88308 4.98854 4.39778 5.00578 3.90065C5.02303 3.40352 5.22742 2.93125 5.57803 2.57839V2.57839ZM21.985 13.1514C21.691 15.002 20.9782 16.7611 19.9012 18.2944C18.8241 19.8278 17.4112 21.095 15.77 21.9994H8.22903C6.58773 21.0949 5.17466 19.8276 4.09759 18.294C3.02051 16.7605 2.30787 15.0012 2.01403 13.1504C1.99016 13.0107 1.99741 12.8675 2.03527 12.7309C2.07312 12.5944 2.14065 12.4678 2.23303 12.3604C2.32828 12.2473 2.44708 12.1565 2.58112 12.0941C2.71516 12.0317 2.8612 11.9994 3.00903 11.9994H20.99C21.1379 11.9994 21.2839 12.0317 21.4179 12.0941C21.552 12.1565 21.6708 12.2473 21.766 12.3604C21.8583 12.4681 21.9257 12.5948 21.9635 12.7315C22.0014 12.8682 22.0087 13.0115 21.985 13.1514Z" fill="#374957"/>
</g>
<defs>
<clipPath id="clip0_403_3368">
<rect width="24" height="24" fill="white"/>
</clipPath>
</defs>
</svg>
