<svg width="24" height="24" viewBox="0 0 24 24" fill="none" xmlns="http://www.w3.org/2000/svg">
<g clip-path="url(#clip0_403_3547)">
<path d="M2.00012 14C1.99995 15.9352 2.56131 17.8289 3.6161 19.4514C4.67089 21.0739 6.17381 22.3555 7.94256 23.1407C9.71131 23.9259 11.6699 24.1811 13.5808 23.8752C15.4917 23.5693 17.2728 22.7155 18.708 21.4174C20.1433 20.1192 21.171 18.4326 21.6666 16.5619C22.1622 14.6912 22.1044 12.7169 21.5001 10.8785C20.8959 9.04 19.7712 7.41636 18.2624 6.20448C16.7536 4.99259 14.9256 4.24452 13.0001 4.051V2H16.0001V0H8.00012V2H11.0001V4.051C8.53478 4.3017 6.24998 5.45768 4.58757 7.29538C2.92516 9.13308 2.00325 11.5219 2.00012 14V14ZM20.0001 14C20.0001 14.362 18.6341 15.2 16.0001 15.67V12.33C18.6341 12.8 20.0001 13.638 20.0001 14ZM14.0001 15.922C13.3791 15.971 12.7151 16 12.0001 16C11.2851 16 10.6211 15.971 10.0001 15.922V12.078C10.6211 12.029 11.2851 12 12.0001 12C12.7151 12 13.3791 12.029 14.0001 12.078V15.922ZM4.00012 14C4.00012 13.638 5.36612 12.8 8.00012 12.33V15.67C5.36612 15.2 4.00012 14.362 4.00012 14ZM12.0001 10C11.3351 10 10.6641 10.026 10.0001 10.075V6.263C11.3104 5.91233 12.6898 5.91233 14.0001 6.263V10.075C13.3361 10.026 12.6651 10 12.0001 10ZM8.00012 7.082V10.3C6.79994 10.468 5.62465 10.7813 4.50012 11.233C5.15029 9.48542 6.38751 8.01808 8.00012 7.082V7.082ZM4.50012 16.764C5.62452 17.2168 6.79982 17.5311 8.00012 17.7V20.921C6.38645 19.9834 5.1491 18.5138 4.50012 16.764V16.764ZM10.0001 21.737V17.925C10.6641 17.974 11.3351 18 12.0001 18C12.6651 18 13.3361 17.974 14.0001 17.925V21.737C12.6898 22.0877 11.3104 22.0877 10.0001 21.737V21.737ZM16.0001 20.918V17.7C17.2003 17.532 18.3756 17.2187 19.5001 16.767C18.85 18.5146 17.6127 19.9819 16.0001 20.918ZM19.5001 11.236C18.3757 10.7832 17.2004 10.4689 16.0001 10.3V7.082C17.6133 8.01883 18.8506 9.48731 19.5001 11.236V11.236Z" fill="#374957"/>
</g>
<defs>
<clipPath id="clip0_403_3547">
<rect width="24" height="24" fill="white"/>
</clipPath>
</defs>
</svg>
