<svg width="32" height="32" viewBox="0 0 32 32" fill="none" xmlns="http://www.w3.org/2000/svg">
<g clip-path="url(#clip0_403_3305)" filter="url(#filter0_d_403_3305)">
<path d="M26 15.9994V20.9994C26 21.2646 25.8946 21.519 25.7071 21.7065C25.5196 21.894 25.2652 21.9994 25 21.9994H7C6.73478 21.9994 6.48043 21.894 6.29289 21.7065C6.10536 21.519 6 21.2646 6 20.9994V15.9994H4V20.9994C4 21.795 4.31607 22.5581 4.87868 23.1207C5.44129 23.6833 6.20435 23.9994 7 23.9994H25C25.7956 23.9994 26.5587 23.6833 27.1213 23.1207C27.6839 22.5581 28 21.795 28 20.9994V15.9994H26Z" fill="#374957"/>
<path d="M15.967 -0.000232767C15.5732 -0.00131837 15.183 0.0753242 14.8189 0.225302C14.4547 0.37528 14.1238 0.595645 13.845 0.873767L9.92596 4.79277L11.34 6.20677L14.974 2.57377L15 18.9998H17L16.974 2.58777L20.593 6.20677L22.007 4.79277L18.088 0.873767C17.8093 0.595676 17.4786 0.375322 17.1146 0.225341C16.7506 0.0753607 16.3606 -0.00129599 15.967 -0.000232767V-0.000232767Z" fill="#374957"/>
</g>
<defs>
<filter id="filter0_d_403_3305" x="0" y="0" width="32" height="32" filterUnits="userSpaceOnUse" color-interpolation-filters="sRGB">
<feFlood flood-opacity="0" result="BackgroundImageFix"/>
<feColorMatrix in="SourceAlpha" type="matrix" values="0 0 0 0 0 0 0 0 0 0 0 0 0 0 0 0 0 0 127 0" result="hardAlpha"/>
<feOffset dy="4"/>
<feGaussianBlur stdDeviation="2"/>
<feComposite in2="hardAlpha" operator="out"/>
<feColorMatrix type="matrix" values="0 0 0 0 0 0 0 0 0 0 0 0 0 0 0 0 0 0 0.25 0"/>
<feBlend mode="normal" in2="BackgroundImageFix" result="effect1_dropShadow_403_3305"/>
<feBlend mode="normal" in="SourceGraphic" in2="effect1_dropShadow_403_3305" result="shape"/>
</filter>
<clipPath id="clip0_403_3305">
<rect width="24" height="24" fill="white" transform="translate(4)"/>
</clipPath>
</defs>
</svg>
