<svg width="32" height="32" viewBox="0 0 32 32" fill="none" xmlns="http://www.w3.org/2000/svg">
<g clip-path="url(#clip0_403_3486)" filter="url(#filter0_d_403_3486)">
<path d="M6.33333 14.574L4.40033 15.089C4.22153 14.4154 4.10207 13.7274 4.04333 13.033L6.03534 12.864C6.08537 13.4415 6.18508 14.0136 6.33333 14.574V14.574ZM7.48934 20.458C7.98002 20.9526 8.51305 21.4033 9.08233 21.805L10.2343 20.171C9.76059 19.8358 9.31661 19.4604 8.90733 19.049L7.48934 20.458ZM6.92533 16.208L5.11233 17.051C5.40537 17.6824 5.75303 18.2871 6.15134 18.858L7.79234 17.715C7.46097 17.2383 7.17092 16.7341 6.92533 16.208V16.208ZM6.33733 9.408L4.40533 8.9C4.22602 9.57294 4.10557 10.2602 4.04533 10.954L6.03733 11.129C6.08783 10.5488 6.1882 9.97399 6.33733 9.411V9.408ZM7.80033 6.274L6.16233 5.128C5.76297 5.69879 5.4143 6.30343 5.12033 6.935L6.93334 7.779C7.17862 7.25339 7.46869 6.74986 7.80033 6.274V6.274ZM10.9003 1.137L11.7523 2.946C12.2775 2.69902 12.8233 2.49826 13.3833 2.346L12.8553 0.417C12.184 0.599677 11.5298 0.84059 10.9003 1.137V1.137ZM7.50033 3.531L8.91733 4.94C9.32706 4.52927 9.77137 4.15456 10.2453 3.82L9.09333 2.186C8.52394 2.58678 7.99089 3.03684 7.50033 3.531V3.531ZM10.8813 22.857C11.5122 23.1548 12.1681 23.3964 12.8413 23.579L13.3643 21.649C12.8051 21.4971 12.2604 21.2964 11.7363 21.049L10.8813 22.857ZM16.0003 0C15.6333 0 15.2703 0.017 14.9113 0.049L15.0913 2.041C15.3913 2.014 15.6913 2 16.0003 2C18.6525 2 21.196 3.05357 23.0714 4.92893C24.9468 6.8043 26.0003 9.34784 26.0003 12C26.0003 14.6522 24.9468 17.1957 23.0714 19.0711C21.196 20.9464 18.6525 22 16.0003 22C15.6933 22 15.3913 21.986 15.0913 21.959L14.9113 23.951C15.2703 23.983 15.6333 24 16.0003 24C19.1829 24 22.2352 22.7357 24.4856 20.4853C26.7361 18.2348 28.0003 15.1826 28.0003 12C28.0003 8.8174 26.7361 5.76516 24.4856 3.51472C22.2352 1.26428 19.1829 0 16.0003 0V0ZM15.0003 17H17.0003V13.723C17.3042 13.5495 17.5568 13.2988 17.7325 12.9962C17.9082 12.6936 18.0007 12.3499 18.0007 12C18.0007 11.6501 17.9082 11.3064 17.7325 11.0038C17.5568 10.7012 17.3042 10.4505 17.0003 10.277V6H15.0003V10.277C14.6965 10.4505 14.4439 10.7012 14.2682 11.0038C14.0925 11.3064 14 11.6501 14 12C14 12.3499 14.0925 12.6936 14.2682 12.9962C14.4439 13.2988 14.6965 13.5495 15.0003 13.723V17Z" fill="#374957"/>
</g>
<defs>
<filter id="filter0_d_403_3486" x="0" y="0" width="32" height="32" filterUnits="userSpaceOnUse" color-interpolation-filters="sRGB">
<feFlood flood-opacity="0" result="BackgroundImageFix"/>
<feColorMatrix in="SourceAlpha" type="matrix" values="0 0 0 0 0 0 0 0 0 0 0 0 0 0 0 0 0 0 127 0" result="hardAlpha"/>
<feOffset dy="4"/>
<feGaussianBlur stdDeviation="2"/>
<feComposite in2="hardAlpha" operator="out"/>
<feColorMatrix type="matrix" values="0 0 0 0 0 0 0 0 0 0 0 0 0 0 0 0 0 0 0.25 0"/>
<feBlend mode="normal" in2="BackgroundImageFix" result="effect1_dropShadow_403_3486"/>
<feBlend mode="normal" in="SourceGraphic" in2="effect1_dropShadow_403_3486" result="shape"/>
</filter>
<clipPath id="clip0_403_3486">
<rect width="24" height="24" fill="white" transform="translate(4)"/>
</clipPath>
</defs>
</svg>
