<svg width="32" height="32" viewBox="0 0 32 32" fill="none" xmlns="http://www.w3.org/2000/svg">
<g clip-path="url(#clip0_403_3518)" filter="url(#filter0_d_403_3518)">
<path d="M16 0C13.6266 0 11.3066 0.703788 9.33316 2.02236C7.35977 3.34094 5.8217 5.21509 4.91345 7.4078C4.0052 9.60051 3.76756 12.0133 4.23058 14.3411C4.6936 16.6689 5.83649 18.8071 7.51472 20.4853C9.19295 22.1635 11.3312 23.3064 13.6589 23.7694C15.9867 24.2324 18.3995 23.9948 20.5922 23.0866C22.7849 22.1783 24.6591 20.6402 25.9776 18.6668C27.2962 16.6935 28 14.3734 28 12C27.9966 8.81846 26.7312 5.76821 24.4815 3.51852C22.2318 1.26883 19.1815 0.00344108 16 0V0ZM24.647 7H21.426C20.705 5.32899 19.7556 3.76609 18.605 2.356C21.1515 3.04893 23.3223 4.71747 24.647 7V7ZM20.5 12C20.4918 13.0181 20.3314 14.0293 20.024 15H11.976C11.6687 14.0293 11.5082 13.0181 11.5 12C11.5082 10.9819 11.6687 9.97068 11.976 9H20.024C20.3314 9.97068 20.4918 10.9819 20.5 12V12ZM12.778 17H19.222C18.3732 18.6757 17.2882 20.2208 16 21.588C14.7114 20.2212 13.6262 18.676 12.778 17V17ZM12.778 7C13.6268 5.32427 14.7119 3.77916 16 2.412C17.2886 3.77877 18.3738 5.32396 19.222 7H12.778ZM13.4 2.356C12.2477 3.76578 11.2966 5.3287 10.574 7H7.35301C8.67886 4.71643 10.8517 3.04775 13.4 2.356V2.356ZM6.46101 9H9.90001C9.64076 9.97915 9.50636 10.9871 9.50001 12C9.50636 13.0129 9.64076 14.0209 9.90001 15H6.46101C5.84635 13.0472 5.84635 10.9528 6.46101 9V9ZM7.35301 17H10.574C11.2966 18.6713 12.2477 20.2342 13.4 21.644C10.8517 20.9522 8.67886 19.2836 7.35301 17V17ZM18.605 21.644C19.7556 20.2339 20.705 18.671 21.426 17H24.647C23.3223 19.2825 21.1515 20.9511 18.605 21.644V21.644ZM25.539 15H22.1C22.3592 14.0209 22.4936 13.0129 22.5 12C22.4936 10.9871 22.3592 9.97915 22.1 9H25.537C26.1517 10.9528 26.1517 13.0472 25.537 15H25.539Z" fill="#374957"/>
</g>
<defs>
<filter id="filter0_d_403_3518" x="0" y="0" width="32" height="32" filterUnits="userSpaceOnUse" color-interpolation-filters="sRGB">
<feFlood flood-opacity="0" result="BackgroundImageFix"/>
<feColorMatrix in="SourceAlpha" type="matrix" values="0 0 0 0 0 0 0 0 0 0 0 0 0 0 0 0 0 0 127 0" result="hardAlpha"/>
<feOffset dy="4"/>
<feGaussianBlur stdDeviation="2"/>
<feComposite in2="hardAlpha" operator="out"/>
<feColorMatrix type="matrix" values="0 0 0 0 0 0 0 0 0 0 0 0 0 0 0 0 0 0 0.25 0"/>
<feBlend mode="normal" in2="BackgroundImageFix" result="effect1_dropShadow_403_3518"/>
<feBlend mode="normal" in="SourceGraphic" in2="effect1_dropShadow_403_3518" result="shape"/>
</filter>
<clipPath id="clip0_403_3518">
<rect width="24" height="24" fill="white" transform="translate(4)"/>
</clipPath>
</defs>
</svg>
