<svg width="24" height="24" viewBox="0 0 24 24" fill="none" xmlns="http://www.w3.org/2000/svg">
<g clip-path="url(#clip0_403_3340)">
<path d="M12 0C8.8174 0 5.76515 1.26428 3.51472 3.51472C1.26428 5.76515 0 8.8174 0 12C0 15.1826 1.26428 18.2348 3.51472 20.4853C5.76515 22.7357 8.8174 24 12 24H12.414L24 12.414V12C23.9966 8.81846 22.7312 5.76821 20.4815 3.51852C18.2318 1.26883 15.1815 0.00344108 12 0V0ZM2 12C1.99764 9.52081 2.91684 7.12924 4.57905 5.28984C6.24126 3.45043 8.52782 2.2945 10.9946 2.04657C13.4613 1.79865 15.9322 2.47644 17.9272 3.94828C19.9222 5.42011 21.299 7.58093 21.79 10.011C18.6837 10.0677 15.7205 11.3269 13.5237 13.5237C11.3269 15.7205 10.0677 18.6837 10.011 21.79C7.75261 21.3301 5.72216 20.1049 4.26261 18.3212C2.80305 16.5375 2.00385 14.3047 2 12ZM12.022 21.564C12.1338 19.0694 13.1749 16.707 14.9405 14.9412C16.7061 13.1754 19.0685 12.1341 21.563 12.022L12.022 21.564Z" fill="#374957"/>
</g>
<defs>
<clipPath id="clip0_403_3340">
<rect width="24" height="24" fill="white"/>
</clipPath>
</defs>
</svg>
