<svg width="32" height="32" viewBox="0 0 32 32" fill="none" xmlns="http://www.w3.org/2000/svg">
<g clip-path="url(#clip0_403_3302)" filter="url(#filter0_d_403_3302)">
<path d="M13 12C14.1867 12 15.3467 11.6481 16.3334 10.9888C17.3201 10.3295 18.0892 9.39246 18.5433 8.2961C18.9974 7.19975 19.1162 5.99335 18.8847 4.82946C18.6532 3.66558 18.0818 2.59648 17.2426 1.75736C16.4035 0.918247 15.3344 0.346802 14.1705 0.115291C13.0067 -0.11622 11.8003 0.00259972 10.7039 0.456726C9.60754 0.910851 8.67047 1.67989 8.01118 2.66658C7.35189 3.65328 7 4.81332 7 6C7.00159 7.59082 7.63424 9.11602 8.75911 10.2409C9.88399 11.3658 11.4092 11.9984 13 12ZM13 2C13.7911 2 14.5645 2.2346 15.2223 2.67412C15.8801 3.11365 16.3928 3.73837 16.6955 4.46927C16.9983 5.20017 17.0775 6.00444 16.9231 6.78036C16.7688 7.55629 16.3878 8.26902 15.8284 8.82843C15.269 9.38784 14.5563 9.7688 13.7804 9.92315C13.0044 10.0775 12.2002 9.99827 11.4693 9.69552C10.7384 9.39277 10.1136 8.88008 9.67412 8.22228C9.2346 7.56449 9 6.79113 9 6C9 4.93914 9.42143 3.92172 10.1716 3.17158C10.9217 2.42143 11.9391 2 13 2V2ZM22 19V24H20V19C20 18.2044 19.6839 17.4413 19.1213 16.8787C18.5587 16.3161 17.7956 16 17 16H9C8.20435 16 7.44129 16.3161 6.87868 16.8787C6.31607 17.4413 6 18.2044 6 19V24H4V19C4.00159 17.6744 4.52888 16.4036 5.46622 15.4662C6.40356 14.5289 7.6744 14.0016 9 14H17C18.3256 14.0016 19.5964 14.5289 20.5338 15.4662C21.4711 16.4036 21.9984 17.6744 22 19ZM25.414 10L27.957 12.543L26.543 13.957L24 11.414L21.457 13.957L20.043 12.543L22.586 10L20.043 7.457L21.457 6.043L24 8.586L26.543 6.043L27.957 7.457L25.414 10Z" fill="#374957"/>
</g>
<defs>
<filter id="filter0_d_403_3302" x="0" y="0" width="32" height="32" filterUnits="userSpaceOnUse" color-interpolation-filters="sRGB">
<feFlood flood-opacity="0" result="BackgroundImageFix"/>
<feColorMatrix in="SourceAlpha" type="matrix" values="0 0 0 0 0 0 0 0 0 0 0 0 0 0 0 0 0 0 127 0" result="hardAlpha"/>
<feOffset dy="4"/>
<feGaussianBlur stdDeviation="2"/>
<feComposite in2="hardAlpha" operator="out"/>
<feColorMatrix type="matrix" values="0 0 0 0 0 0 0 0 0 0 0 0 0 0 0 0 0 0 0.25 0"/>
<feBlend mode="normal" in2="BackgroundImageFix" result="effect1_dropShadow_403_3302"/>
<feBlend mode="normal" in="SourceGraphic" in2="effect1_dropShadow_403_3302" result="shape"/>
</filter>
<clipPath id="clip0_403_3302">
<rect width="24" height="24" fill="white" transform="translate(4)"/>
</clipPath>
</defs>
</svg>
