<svg width="32" height="32" viewBox="0 0 32 32" fill="none" xmlns="http://www.w3.org/2000/svg">
<g clip-path="url(#clip0_403_3436)" filter="url(#filter0_d_403_3436)">
<path d="M27.9999 12.0003C28.0007 9.16402 26.9923 6.42 25.1549 4.2593L26.0149 3.3993L24.5999 1.9853L23.7399 2.8453C21.5787 1.00873 18.835 0.000366211 15.9989 0.000366211C13.1628 0.000366211 10.419 1.00873 8.25789 2.8453L7.39789 1.9853L5.98489 3.4003L6.84489 4.2603C5.00832 6.42145 3.99995 9.16519 3.99995 12.0013C3.99995 14.8374 5.00832 17.5812 6.84489 19.7423L5.98489 20.6023L7.39989 22.0153L8.25989 21.1553C10.421 22.9919 13.1648 24.0002 16.0009 24.0002C18.837 24.0002 21.5807 22.9919 23.7419 21.1553L24.6019 22.0153L26.0149 20.6003L25.1549 19.7403C26.992 17.5799 28.0005 14.8362 27.9999 12.0003V12.0003ZM25.9999 12.0003C26.0017 14.3068 25.2021 16.5422 23.7379 18.3243L20.1669 14.7533C20.71 13.9379 20.9998 12.98 20.9998 12.0003C20.9998 11.0206 20.71 10.0627 20.1669 9.2473L23.7379 5.6763C25.2021 7.45838 26.0017 9.69383 25.9999 12.0003V12.0003ZM12.9999 12.0003C12.9999 11.407 13.1758 10.8269 13.5055 10.3336C13.8351 9.84024 14.3037 9.45573 14.8518 9.22866C15.4 9.0016 16.0032 8.94219 16.5852 9.05795C17.1671 9.1737 17.7017 9.45943 18.1212 9.87898C18.5408 10.2985 18.8265 10.8331 18.9422 11.415C19.058 11.997 18.9986 12.6002 18.7715 13.1484C18.5445 13.6965 18.1599 14.1651 17.6666 14.4947C17.1733 14.8244 16.5932 15.0003 15.9999 15.0003C15.2042 15.0003 14.4412 14.6842 13.8786 14.1216C13.316 13.559 12.9999 12.796 12.9999 12.0003ZM15.9999 2.0003C18.3064 1.99846 20.5418 2.79805 22.3239 4.2623L18.7529 7.8333C17.9375 7.29016 16.9796 7.00036 15.9999 7.00036C15.0202 7.00036 14.0623 7.29016 13.2469 7.8333L9.67589 4.2623C11.458 2.79805 13.6934 1.99846 15.9999 2.0003V2.0003ZM5.99989 12.0003C5.99805 9.69383 6.79764 7.45838 8.26189 5.6763L11.8329 9.2473C11.2898 10.0627 10.9999 11.0206 10.9999 12.0003C10.9999 12.98 11.2898 13.9379 11.8329 14.7533L8.26189 18.3243C6.79764 16.5422 5.99805 14.3068 5.99989 12.0003V12.0003ZM15.9999 22.0003C13.6934 22.0021 11.458 21.2026 9.67589 19.7383L13.2469 16.1673C14.0623 16.7104 15.0202 17.0002 15.9999 17.0002C16.9796 17.0002 17.9375 16.7104 18.7529 16.1673L22.3239 19.7383C20.5418 21.2026 18.3064 22.0021 15.9999 22.0003V22.0003Z" fill="#374957"/>
</g>
<defs>
<filter id="filter0_d_403_3436" x="0" y="0" width="32" height="32" filterUnits="userSpaceOnUse" color-interpolation-filters="sRGB">
<feFlood flood-opacity="0" result="BackgroundImageFix"/>
<feColorMatrix in="SourceAlpha" type="matrix" values="0 0 0 0 0 0 0 0 0 0 0 0 0 0 0 0 0 0 127 0" result="hardAlpha"/>
<feOffset dy="4"/>
<feGaussianBlur stdDeviation="2"/>
<feComposite in2="hardAlpha" operator="out"/>
<feColorMatrix type="matrix" values="0 0 0 0 0 0 0 0 0 0 0 0 0 0 0 0 0 0 0.25 0"/>
<feBlend mode="normal" in2="BackgroundImageFix" result="effect1_dropShadow_403_3436"/>
<feBlend mode="normal" in="SourceGraphic" in2="effect1_dropShadow_403_3436" result="shape"/>
</filter>
<clipPath id="clip0_403_3436">
<rect width="24" height="24" fill="white" transform="translate(4)"/>
</clipPath>
</defs>
</svg>
