<svg width="24" height="24" viewBox="0 0 24 24" fill="none" xmlns="http://www.w3.org/2000/svg">
<g clip-path="url(#clip0_403_3667)">
<path d="M18.9649 8.46398L23.9939 3.43498L22.5649 2.00598L17.5189 7.05098L15.3129 4.89498C14.9509 4.54313 14.4698 4.3403 13.9652 4.32678C13.4605 4.31325 12.9693 4.49002 12.5889 4.82198C10.7327 6.50283 8.57319 7.81456 6.22593 8.68698L-0.006073 10.514V11.27C0.0350783 14.6829 1.42798 17.9403 3.8672 20.3278C6.30643 22.7152 9.59288 24.038 13.0059 24.006H14.2469L14.5079 23.824C16.5468 22.5169 18.2384 20.735 19.4377 18.6309C20.637 16.5268 21.3082 14.1633 21.3939 11.743C21.4015 11.4643 21.3511 11.187 21.2459 10.9288C21.1408 10.6706 20.9831 10.4371 20.7829 10.243L18.9649 8.46398ZM13.8999 6.33998L19.3769 11.681C19.347 12.7007 19.1939 13.713 18.9209 14.696L11.9409 7.89998C12.6199 7.41345 13.2737 6.89278 13.8999 6.33998V6.33998ZM13.6059 21.985H13.0059C11.5322 21.9851 10.0731 21.6931 8.71293 21.126C10.4606 20.2479 11.9567 18.9404 13.0609 17.326L13.5789 16.566L11.9099 15.43L11.3919 16.191C10.479 17.5224 9.24308 18.6004 7.79993 19.324L6.57093 19.942C5.57168 19.2386 4.69783 18.3722 3.98593 17.379C5.61703 16.8267 7.10518 15.9192 8.34293 14.722L6.93193 13.277C5.81435 14.3596 4.45062 15.1547 2.95793 15.594C2.44019 14.4668 2.12827 13.256 2.03693 12.019L6.79193 10.625C7.99442 10.2389 9.14425 9.70482 10.2149 9.03498L18.1259 16.735C17.0799 18.8334 15.527 20.6379 13.6079 21.985H13.6059Z" fill="#374957"/>
</g>
<defs>
<clipPath id="clip0_403_3667">
<rect width="24" height="24" fill="white"/>
</clipPath>
</defs>
</svg>
