<svg width="24" height="24" viewBox="0 0 24 24" fill="none" xmlns="http://www.w3.org/2000/svg">
<g clip-path="url(#clip0_403_3371)">
<path d="M16.0002 8.00061C14.8699 8.00157 13.7528 8.24279 12.7229 8.70828C11.6929 9.17377 10.7737 9.85289 10.0262 10.7006C9.54967 10.469 9.04802 10.2931 8.53117 10.1766L10.2172 6.80061L8.41417 5.00061H5.58617L3.78617 6.80061L5.47217 10.1716C4.44314 10.3982 3.47854 10.8542 2.65029 11.5055C1.82205 12.1568 1.15153 12.9868 0.688743 13.9334C0.225956 14.88 -0.0171615 15.9189 -0.0224786 16.9725C-0.0277957 18.0262 0.204824 19.0675 0.658035 20.0187C1.11125 20.9699 1.77335 21.8066 2.59498 22.4663C3.41661 23.1259 4.37657 23.5916 5.40326 23.8286C6.42995 24.0655 7.49689 24.0676 8.52451 23.8348C9.55214 23.6019 10.5139 23.14 11.3382 22.4836C12.3615 23.2235 13.5454 23.7106 14.7931 23.9051C16.0408 24.0996 17.3168 23.996 18.5168 23.6027C19.7168 23.2095 20.8066 22.5378 21.6971 21.6425C22.5877 20.7472 23.2537 19.6539 23.6406 18.4519C24.0275 17.2498 24.1244 15.9733 23.9233 14.7266C23.7222 13.48 23.2289 12.2986 22.4837 11.2792C21.7384 10.2598 20.7624 9.43132 19.6356 8.86147C18.5087 8.29162 17.2629 7.99663 16.0002 8.00061V8.00061ZM11.2342 19.6306C10.5701 18.7678 10.1557 17.7392 10.0362 16.657C9.9166 15.5748 10.0965 14.4806 10.5562 13.4936C11.3485 14.288 11.8472 15.3281 11.9704 16.4433C12.0936 17.5585 11.834 18.6824 11.2342 19.6306V19.6306ZM2.00017 17.0006C1.99806 16.1809 2.19804 15.3733 2.5824 14.6493C2.96676 13.9253 3.52366 13.3072 4.20382 12.8498C4.88397 12.3923 5.66641 12.1095 6.48189 12.0264C7.29738 11.9434 8.12076 12.0626 8.87917 12.3736C8.16562 13.763 7.87672 15.3316 8.0485 16.884C8.22028 18.4364 8.84513 19.9039 9.84517 21.1036C9.09636 21.626 8.21858 21.9329 7.3074 21.991C6.39623 22.049 5.4866 21.856 4.67755 21.4328C3.8685 21.0097 3.19105 20.3727 2.71897 19.5912C2.24689 18.8097 1.99826 17.9136 2.00017 17.0006V17.0006ZM16.0002 22.0006C14.8351 22.001 13.6955 21.6599 12.7222 21.0196C13.7068 19.6279 14.1465 17.9233 13.9582 16.2289C13.7698 14.5345 12.9664 12.9681 11.7002 11.8266C12.3897 11.1146 13.2449 10.5844 14.1894 10.2836C15.1339 9.98279 16.1381 9.92064 17.1125 10.1027C18.0868 10.2848 19.0009 10.7054 19.773 11.327C20.5451 11.9486 21.1511 12.7518 21.537 13.6648C21.9229 14.5778 22.0766 15.5722 21.9843 16.5591C21.892 17.546 21.5567 18.4947 21.0083 19.3204C20.4599 20.146 19.7154 20.823 18.8415 21.2907C17.9676 21.7584 16.9914 22.0023 16.0002 22.0006V22.0006Z" fill="#374957"/>
<path d="M11.2923 0.292248L9.00406 2.58044L10.4183 3.99466L12.7065 1.70646L11.2923 0.292248Z" fill="#374957"/>
<path d="M2.70723 0.292634L1.29301 1.70685L3.54303 3.95686L4.95724 2.54265L2.70723 0.292634Z" fill="#374957"/>
<path d="M8 0H6V3H8V0Z" fill="#374957"/>
</g>
<defs>
<clipPath id="clip0_403_3371">
<rect width="24" height="24" fill="white"/>
</clipPath>
</defs>
</svg>
