<svg width="24" height="24" viewBox="0 0 24 24" fill="none" xmlns="http://www.w3.org/2000/svg">
<g clip-path="url(#clip0_403_3327)">
<path d="M12.9996 14.1725V8.00049H10.9996V14.1725C10.3324 14.4084 9.77008 14.8725 9.41201 15.483C9.05393 16.0934 8.92317 16.8107 9.04284 17.5082C9.16251 18.2057 9.52491 18.8384 10.066 19.2946C10.607 19.7507 11.292 20.0009 11.9996 20.0009C12.7073 20.0009 13.3922 19.7507 13.9333 19.2946C14.4744 18.8384 14.8368 18.2057 14.9564 17.5082C15.0761 16.8107 14.9453 16.0934 14.5873 15.483C14.2292 14.8725 13.6669 14.4084 12.9996 14.1725V14.1725ZM16.9996 12.1115V5.00049C16.7886 -1.6085 7.20864 -1.5995 6.99964 5.00049V12.1115C6.03497 13.096 5.38244 14.3435 5.12389 15.6974C4.86533 17.0513 5.01226 18.4514 5.54623 19.7222C6.08021 20.993 6.97747 22.0778 8.12551 22.8406C9.27354 23.6035 10.6213 24.0104 11.9996 24.0104C13.378 24.0104 14.7257 23.6035 15.8738 22.8406C17.0218 22.0778 17.9191 20.993 18.453 19.7222C18.987 18.4514 19.1339 17.0513 18.8754 15.6974C18.6168 14.3435 17.9643 13.096 16.9996 12.1115V12.1115ZM11.9996 22.0005C10.9932 21.9892 10.0134 21.6755 9.18749 21.1001C8.36162 20.5247 7.72786 19.7143 7.36856 18.7741C7.00925 17.8339 6.941 16.8073 7.17266 15.8278C7.40433 14.8483 7.92521 13.9611 8.66764 13.2815L8.99964 12.9815V5.00049C8.99964 4.20484 9.31571 3.44178 9.87832 2.87917C10.4409 2.31656 11.204 2.00049 11.9996 2.00049C12.7953 2.00049 13.5583 2.31656 14.121 2.87917C14.6836 3.44178 14.9996 4.20484 14.9996 5.00049V12.9835L15.3316 13.2835C16.0733 13.9633 16.5936 14.8503 16.8248 15.8295C17.0561 16.8086 16.9877 17.8347 16.6284 18.7745C16.2692 19.7143 15.6358 20.5244 14.8104 21.0996C13.9849 21.6749 13.0057 21.9887 11.9996 22.0005V22.0005Z" fill="#374957"/>
</g>
<defs>
<clipPath id="clip0_403_3327">
<rect width="24" height="24" fill="white"/>
</clipPath>
</defs>
</svg>
