<svg width="32" height="32" viewBox="0 0 32 32" fill="none" xmlns="http://www.w3.org/2000/svg">
<g clip-path="url(#clip0_403_3775)" filter="url(#filter0_d_403_3775)">
<path d="M19 12H13V10H19V12ZM28 13V19C27.9984 20.3256 27.4711 21.5964 26.5338 22.5338C25.5964 23.4711 24.3256 23.9984 23 24H9C7.6744 23.9984 6.40356 23.4711 5.46622 22.5338C4.52888 21.5964 4.00159 20.3256 4 19V13H8V12C8.00179 10.5974 8.37229 9.21999 9.07435 8.00578C9.7764 6.79158 10.7853 5.78328 12 5.082V4C12 2.93913 12.4214 1.92172 13.1716 1.17157C13.9217 0.421427 14.9391 0 16 0C17.0609 0 18.0783 0.421427 18.8284 1.17157C19.5786 1.92172 20 2.93913 20 4V5.082C21.2147 5.78328 22.2236 6.79158 22.9257 8.00578C23.6277 9.21999 23.9982 10.5974 24 12V13H28ZM14 4.263C15.3103 3.91233 16.6897 3.91233 18 4.263V4C18 3.46957 17.7893 2.96086 17.4142 2.58579C17.0391 2.21071 16.5304 2 16 2C15.4696 2 14.9609 2.21071 14.5858 2.58579C14.2107 2.96086 14 3.46957 14 4V4.263ZM10 12V16.726C10.7477 15.8698 11.67 15.1836 12.7049 14.7134C13.7398 14.2432 14.8633 14 16 14C17.1367 14 18.2602 14.2432 19.2951 14.7134C20.33 15.1836 21.2523 15.8698 22 16.726V12C22 10.4087 21.3679 8.88258 20.2426 7.75736C19.1174 6.63214 17.5913 6 16 6C14.4087 6 12.8826 6.63214 11.7574 7.75736C10.6321 8.88258 10 10.4087 10 12V12ZM8 21.816V15H6V19C6.00256 19.6183 6.19608 20.2206 6.55409 20.7247C6.91209 21.2288 7.41709 21.6099 8 21.816ZM10 22H22C22 20.4087 21.3679 18.8826 20.2426 17.7574C19.1174 16.6321 17.5913 16 16 16C14.4087 16 12.8826 16.6321 11.7574 17.7574C10.6321 18.8826 10 20.4087 10 22V22ZM26 15H24V21.816C24.5829 21.6099 25.0879 21.2288 25.4459 20.7247C25.8039 20.2206 25.9974 19.6183 26 19V15Z" fill="#374957"/>
</g>
<defs>
<filter id="filter0_d_403_3775" x="0" y="0" width="32" height="32" filterUnits="userSpaceOnUse" color-interpolation-filters="sRGB">
<feFlood flood-opacity="0" result="BackgroundImageFix"/>
<feColorMatrix in="SourceAlpha" type="matrix" values="0 0 0 0 0 0 0 0 0 0 0 0 0 0 0 0 0 0 127 0" result="hardAlpha"/>
<feOffset dy="4"/>
<feGaussianBlur stdDeviation="2"/>
<feComposite in2="hardAlpha" operator="out"/>
<feColorMatrix type="matrix" values="0 0 0 0 0 0 0 0 0 0 0 0 0 0 0 0 0 0 0.25 0"/>
<feBlend mode="normal" in2="BackgroundImageFix" result="effect1_dropShadow_403_3775"/>
<feBlend mode="normal" in="SourceGraphic" in2="effect1_dropShadow_403_3775" result="shape"/>
</filter>
<clipPath id="clip0_403_3775">
<rect width="24" height="24" fill="white" transform="translate(4)"/>
</clipPath>
</defs>
</svg>
