<svg width="32" height="32" viewBox="0 0 32 32" fill="none" xmlns="http://www.w3.org/2000/svg">
<g clip-path="url(#clip0_403_3338)" filter="url(#filter0_d_403_3338)">
<path d="M18.0002 13C18.0018 13.3515 17.9107 13.6971 17.7362 14.0022C17.5617 14.3072 17.3098 14.5609 17.0061 14.7377C16.7023 14.9144 16.3573 15.008 16.0058 15.009C15.6544 15.01 15.3089 14.9184 15.0041 14.7434C14.6993 14.5683 14.4461 14.3161 14.2698 14.012C14.0936 13.7079 14.0006 13.3628 14.0002 13.0113C13.9998 12.6599 14.092 12.3145 14.2676 12.01C14.4431 11.7056 14.6958 11.4527 15.0002 11.277V6H17.0002V11.277C17.3033 11.4513 17.5552 11.7023 17.7308 12.0047C17.9063 12.3071 17.9992 12.6503 18.0002 13V13ZM24.0602 5.539C25.5172 7.10778 26.4847 9.06766 26.8441 11.1783C27.2035 13.2889 26.9391 15.4586 26.0834 17.4212C25.2277 19.3837 23.8178 21.0539 22.0268 22.2269C20.2357 23.3999 18.1412 24.0247 16.0002 24.0247C13.8592 24.0247 11.7647 23.3999 9.97358 22.2269C8.18249 21.0539 6.77264 19.3837 5.91693 17.4212C5.06123 15.4586 4.79686 13.2889 5.15625 11.1783C5.51563 9.06766 6.48316 7.10778 7.94017 5.539L6.96217 4.452L6.08217 5.332L4.66817 3.918L7.91817 0.668L9.33217 2.082L8.37817 3.036L9.42617 4.2C11.0484 2.97963 12.9786 2.23546 15.0002 2.051V0H17.0002V2.051C19.0218 2.23546 20.952 2.97963 22.5742 4.2L23.6222 3.035L22.7302 2.144L24.1452 0.73L27.3322 3.918L25.9182 5.332L25.0382 4.452L24.0602 5.539ZM25.0002 13C25.0002 11.22 24.4723 9.47991 23.4834 7.99987C22.4945 6.51983 21.0889 5.36627 19.4443 4.68508C17.7998 4.0039 15.9902 3.82567 14.2444 4.17293C12.4985 4.5202 10.8949 5.37737 9.63621 6.63604C8.37753 7.89471 7.52037 9.49836 7.1731 11.2442C6.82583 12.99 7.00406 14.7996 7.68525 16.4442C8.36644 18.0887 9.51999 19.4943 11 20.4832C12.4801 21.4722 14.2201 22 16.0002 22C18.3863 21.9974 20.674 21.0483 22.3612 19.361C24.0485 17.6738 24.9975 15.3861 25.0002 13V13Z" fill="#374957"/>
</g>
<defs>
<filter id="filter0_d_403_3338" x="0" y="0" width="32" height="32" filterUnits="userSpaceOnUse" color-interpolation-filters="sRGB">
<feFlood flood-opacity="0" result="BackgroundImageFix"/>
<feColorMatrix in="SourceAlpha" type="matrix" values="0 0 0 0 0 0 0 0 0 0 0 0 0 0 0 0 0 0 127 0" result="hardAlpha"/>
<feOffset dy="4"/>
<feGaussianBlur stdDeviation="2"/>
<feComposite in2="hardAlpha" operator="out"/>
<feColorMatrix type="matrix" values="0 0 0 0 0 0 0 0 0 0 0 0 0 0 0 0 0 0 0.25 0"/>
<feBlend mode="normal" in2="BackgroundImageFix" result="effect1_dropShadow_403_3338"/>
<feBlend mode="normal" in="SourceGraphic" in2="effect1_dropShadow_403_3338" result="shape"/>
</filter>
<clipPath id="clip0_403_3338">
<rect width="24" height="24" fill="white" transform="translate(4)"/>
</clipPath>
</defs>
</svg>
