<svg width="24" height="24" viewBox="0 0 24 24" fill="none" xmlns="http://www.w3.org/2000/svg">
<g clip-path="url(#clip0_403_3768)">
<path d="M11.9997 -0.0129395L0.407736 19.6001C0.145333 20.0427 0.00481539 20.5469 0.00047014 21.0615C-0.00387511 21.576 0.128107 22.0825 0.382997 22.5295C0.637887 22.9765 1.0066 23.348 1.45163 23.6063C1.89667 23.8646 2.40217 24.0005 2.91674 24.0001H21.0827C21.5973 24.0005 22.1028 23.8646 22.5478 23.6063C22.9929 23.348 23.3616 22.9765 23.6165 22.5295C23.8714 22.0825 24.0033 21.576 23.999 21.0615C23.9947 20.5469 23.8541 20.0427 23.5917 19.6001L11.9997 -0.0129395ZM8.99974 22.0001L11.9997 16.9191L14.9997 22.0001H8.99974ZM21.8797 21.5391C21.8009 21.6801 21.6856 21.7973 21.5459 21.8784C21.4062 21.9595 21.2473 22.0016 21.0857 22.0001H17.3257L11.9997 12.9871L6.67374 22.0001H2.91674C2.75553 22.0003 2.59713 21.9578 2.45765 21.877C2.31817 21.7962 2.20258 21.6798 2.12264 21.5399C2.04269 21.3999 2.00123 21.2412 2.00247 21.08C2.00372 20.9188 2.04763 20.7608 2.12974 20.6221L11.9997 3.91906L21.8697 20.6191C21.9536 20.7576 21.9984 20.9162 21.9997 21.0781C22.0009 21.24 21.9584 21.3993 21.8767 21.5391H21.8797Z" fill="#374957"/>
</g>
<defs>
<clipPath id="clip0_403_3768">
<rect width="24" height="24" fill="white"/>
</clipPath>
</defs>
</svg>
