<svg width="32" height="32" viewBox="0 0 32 32" fill="none" xmlns="http://www.w3.org/2000/svg">
<g clip-path="url(#clip0_403_3497)" filter="url(#filter0_d_403_3497)">
<path d="M13.0682 16.3474L17.9682 21.2474L18.6752 20.5404C19.6525 19.5597 20.3577 18.3416 20.7216 17.0057C21.0854 15.6698 21.0952 14.2623 20.7502 12.9214L20.5042 11.9214L22.5902 9.83544L22.8072 10.0524C23.3124 10.5703 23.9837 10.8942 24.7036 10.9673C25.4234 11.0404 26.1461 10.8582 26.7452 10.4524C27.1003 10.1994 27.396 9.872 27.6116 9.49302C27.8273 9.11405 27.9578 8.69261 27.994 8.25807C28.0301 7.82353 27.9711 7.38632 27.8211 6.97691C27.671 6.56749 27.4336 6.1957 27.1252 5.88744L22.2002 0.954436C21.6949 0.436536 21.0236 0.11272 20.3038 0.0396015C19.5839 -0.0335172 18.8613 0.148714 18.2622 0.554436C17.907 0.807469 17.6113 1.13487 17.3957 1.51385C17.18 1.89282 17.0495 2.31426 17.0134 2.7488C16.9772 3.18334 17.0362 3.62055 17.1862 4.02996C17.3363 4.43938 17.5738 4.81117 17.8822 5.11944L18.1752 5.41244L16.0852 7.50044L15.1002 7.25844C13.757 6.91065 12.3465 6.91883 11.0075 7.28216C9.66849 7.6455 8.44726 8.35144 7.46416 9.33044L6.75716 10.0374L11.6572 14.9324L4.29316 22.2934L5.70716 23.7074L13.0682 16.3474ZM14.6072 9.20044L16.7072 9.71444L21.0072 5.41444L19.2932 3.70744C19.1896 3.60414 19.11 3.47939 19.0599 3.34197C19.0098 3.20456 18.9905 3.05783 19.0033 2.91214C19.016 2.76644 19.0606 2.62532 19.1339 2.49872C19.2071 2.37212 19.3072 2.26313 19.4272 2.17944C19.6405 2.05026 19.8919 1.99862 20.139 2.03324C20.386 2.06785 20.6135 2.18659 20.7832 2.36944L25.7072 7.29344C25.8107 7.39673 25.8903 7.52149 25.9404 7.6589C25.9905 7.79631 26.0098 7.94304 25.9971 8.08873C25.9843 8.23443 25.9397 8.37555 25.8665 8.50215C25.7932 8.62875 25.6931 8.73774 25.5732 8.82144C25.3598 8.95061 25.1084 9.00225 24.8614 8.96764C24.6143 8.93302 24.3868 8.81428 24.2172 8.63144L22.5862 7.00044L18.2862 11.3004L18.8042 13.4114C19.0224 14.2517 19.0549 15.1295 18.8994 15.9837C18.744 16.8378 18.4044 17.6479 17.9042 18.3574L9.64616 10.1004C10.3578 9.5986 11.1704 9.25808 12.0273 9.10263C12.8841 8.94719 13.7646 8.98057 14.6072 9.20044Z" fill="#374957"/>
</g>
<defs>
<filter id="filter0_d_403_3497" x="0" y="0" width="32" height="32" filterUnits="userSpaceOnUse" color-interpolation-filters="sRGB">
<feFlood flood-opacity="0" result="BackgroundImageFix"/>
<feColorMatrix in="SourceAlpha" type="matrix" values="0 0 0 0 0 0 0 0 0 0 0 0 0 0 0 0 0 0 127 0" result="hardAlpha"/>
<feOffset dy="4"/>
<feGaussianBlur stdDeviation="2"/>
<feComposite in2="hardAlpha" operator="out"/>
<feColorMatrix type="matrix" values="0 0 0 0 0 0 0 0 0 0 0 0 0 0 0 0 0 0 0.25 0"/>
<feBlend mode="normal" in2="BackgroundImageFix" result="effect1_dropShadow_403_3497"/>
<feBlend mode="normal" in="SourceGraphic" in2="effect1_dropShadow_403_3497" result="shape"/>
</filter>
<clipPath id="clip0_403_3497">
<rect width="24" height="24" fill="white" transform="translate(4)"/>
</clipPath>
</defs>
</svg>
