<svg width="24" height="24" viewBox="0 0 24 24" fill="none" xmlns="http://www.w3.org/2000/svg">
<g clip-path="url(#clip0_403_3425)">
<path d="M21.867 1.61229L17.515 0.15529C16.936 -0.0413419 16.3102 -0.0535702 15.724 0.12029L8.53799 2.09229L4.15499 0.23329C3.69922 0.0431606 3.20356 -0.0315134 2.71199 0.015895C2.22043 0.0633034 1.74818 0.231328 1.33714 0.505057C0.926102 0.778785 0.588994 1.14975 0.355735 1.58503C0.122476 2.02031 0.000280363 2.50645 -7.62939e-06 3.00029L-7.62939e-06 21.7543L7.98199 24.0353L16.003 22.0353L24.003 23.9833V4.48329C24.0026 3.83878 23.7946 3.21154 23.4099 2.69445C23.0252 2.17736 22.4842 1.79791 21.867 1.61229V1.61229ZM15 2.38429V20.2193L8.99999 21.7193V3.97229L15 2.38429ZM1.99999 3.00029C2.00033 2.83562 2.04134 2.67358 2.11936 2.52857C2.19738 2.38355 2.31001 2.26005 2.44723 2.16903C2.58446 2.078 2.74204 2.02228 2.90598 2.0068C3.06993 1.99132 3.23515 2.01656 3.38699 2.08029L6.99999 3.58129V21.6743L1.99999 20.2463V3.00029ZM22 21.4303L17 20.2123V2.09229L21.275 3.52229C21.4838 3.58202 21.6675 3.7081 21.7983 3.88148C21.9291 4.05486 21.9999 4.26611 22 4.48329V21.4303Z" fill="#374957"/>
</g>
<defs>
<clipPath id="clip0_403_3425">
<rect width="24" height="24" fill="white"/>
</clipPath>
</defs>
</svg>
