<svg width="31" height="32" viewBox="0 0 31 32" fill="none" xmlns="http://www.w3.org/2000/svg">
<g clip-path="url(#clip0_403_3487)" filter="url(#filter0_d_403_3487)">
<path d="M17.9999 19.9389V21.9999H21.9999V23.9999H11.9999V21.9999H15.9999V19.9489C13.7707 19.7639 11.6378 18.9593 9.8419 17.6258C8.04604 16.2924 6.65888 14.4833 5.83713 12.4029C5.01538 10.3225 4.79181 8.05379 5.19165 5.85304C5.5915 3.65228 6.59885 1.6072 8.09987 -0.0511475L9.58487 1.28885C8.66668 2.30523 7.96707 3.49939 7.52943 4.7973C7.09179 6.0952 6.92545 7.46918 7.04073 8.83402C7.156 10.1989 7.55043 11.5255 8.19955 12.7316C8.84868 13.9377 9.73866 14.9976 10.8143 15.8456C11.89 16.6936 13.1284 17.3115 14.4527 17.6612C15.777 18.0108 17.1591 18.0846 18.5131 17.8781C19.8671 17.6716 21.1643 17.1891 22.3242 16.4605C23.4841 15.732 24.4819 14.7729 25.2559 13.6429L26.9069 14.7729C25.899 16.2413 24.5767 17.4669 23.036 18.3605C21.4954 19.2541 19.775 19.7932 17.9999 19.9389ZM8.99987 7.99985C8.99987 6.4176 9.46906 4.87088 10.3481 3.55529C11.2272 2.2397 12.4766 1.21432 13.9384 0.608816C15.4002 0.00331521 17.0087 -0.155111 18.5606 0.15357C20.1124 0.462252 21.5379 1.22418 22.6567 2.343C23.7755 3.46182 24.5375 4.88728 24.8462 6.43913C25.1548 7.99098 24.9964 9.59951 24.3909 11.0613C23.7854 12.5231 22.76 13.7726 21.4444 14.6516C20.1288 15.5307 18.5821 15.9999 16.9999 15.9999C14.8789 15.9975 12.8454 15.1539 11.3456 13.6541C9.84587 12.1543 9.00225 10.1209 8.99987 7.99985V7.99985ZM10.9999 7.99985C10.9999 9.18654 11.3518 10.3466 12.0111 11.3333C12.6703 12.32 13.6074 13.089 14.7038 13.5431C15.8001 13.9973 17.0065 14.1161 18.1704 13.8846C19.3343 13.6531 20.4034 13.0816 21.2425 12.2425C22.0816 11.4034 22.6531 10.3343 22.8846 9.17039C23.1161 8.00651 22.9973 6.80011 22.5431 5.70375C22.089 4.6074 21.32 3.67032 20.3333 3.01103C19.3466 2.35175 18.1866 1.99985 16.9999 1.99985C15.4091 2.00144 13.8839 2.63409 12.759 3.75897C11.6341 4.88384 11.0015 6.40904 10.9999 7.99985V7.99985Z" fill="#374957"/>
</g>
<defs>
<filter id="filter0_d_403_3487" x="0" y="0" width="32" height="32" filterUnits="userSpaceOnUse" color-interpolation-filters="sRGB">
<feFlood flood-opacity="0" result="BackgroundImageFix"/>
<feColorMatrix in="SourceAlpha" type="matrix" values="0 0 0 0 0 0 0 0 0 0 0 0 0 0 0 0 0 0 127 0" result="hardAlpha"/>
<feOffset dy="4"/>
<feGaussianBlur stdDeviation="2"/>
<feComposite in2="hardAlpha" operator="out"/>
<feColorMatrix type="matrix" values="0 0 0 0 0 0 0 0 0 0 0 0 0 0 0 0 0 0 0.25 0"/>
<feBlend mode="normal" in2="BackgroundImageFix" result="effect1_dropShadow_403_3487"/>
<feBlend mode="normal" in="SourceGraphic" in2="effect1_dropShadow_403_3487" result="shape"/>
</filter>
<clipPath id="clip0_403_3487">
<rect width="24" height="24" fill="white" transform="translate(4)"/>
</clipPath>
</defs>
</svg>
