<svg width="32" height="32" viewBox="0 0 32 32" fill="none" xmlns="http://www.w3.org/2000/svg">
<g clip-path="url(#clip0_403_3636)" filter="url(#filter0_d_403_3636)">
<path d="M26 15C26 14.2043 25.6839 13.4413 25.1213 12.8787C24.5587 12.3161 23.7956 12 23 12V9.99999C22.997 9.35079 22.7834 8.7201 22.3914 8.2026C21.9994 7.68511 21.4501 7.30874 20.826 7.13L20.161 3.8C20.1149 3.57396 19.992 3.37082 19.8132 3.22502C19.6344 3.07922 19.4107 2.99972 19.18 3H18.82C18.5893 2.99972 18.3656 3.07922 18.1868 3.22502C18.008 3.37082 17.8851 3.57396 17.839 3.8L17.2 7H14.25L15 4C15 3.73478 14.8946 3.48043 14.7071 3.29289C14.5196 3.10536 14.2652 3 14 3H12C11.7348 3 11.4804 3.10536 11.2929 3.29289C11.1054 3.48043 11 3.73478 11 4L11.756 7.025C11.0071 7.08448 10.3079 7.42345 9.79735 7.97458C9.28678 8.52572 9.00216 9.24871 9 9.99999V12C8.20435 12 7.44129 12.3161 6.87868 12.8787C6.31607 13.4413 6 14.2043 6 15V22.01H4V24.01H28V22.01H26V15ZM11 9.99999C11 9.73478 11.1054 9.48042 11.2929 9.29289C11.4804 9.10535 11.7348 8.99999 12 8.99999H20C20.2652 8.99999 20.5196 9.10535 20.7071 9.29289C20.8946 9.48042 21 9.73478 21 9.99999V12H11V9.99999ZM9 14H23C23.2652 14 23.5196 14.1053 23.7071 14.2929C23.8946 14.4804 24 14.7348 24 15V16.98C23.064 16.88 22.5 16.28 22.5 16H20.5C20.5 16.344 19.818 17 18.75 17C17.661 17 17 16.306 17 16H15C15 16.344 14.318 17 13.25 17C12.161 17 11.5 16.306 11.5 16H9.5C9.5 16.316 8.921 16.888 8 16.981V15C8 14.7348 8.10536 14.4804 8.29289 14.2929C8.48043 14.1053 8.73478 14 9 14ZM8 18.979C8.91869 18.9382 9.79793 18.5939 10.5 18C11.2714 18.643 12.2431 18.9964 13.2473 18.9991C14.2515 19.0018 15.2251 18.6538 16 18.015C16.7749 18.6538 17.7485 19.0018 18.7527 18.9991C19.7569 18.9964 20.7286 18.643 21.5 18C22.2022 18.5936 23.0814 18.9375 24 18.978V22.01H8V18.979Z" fill="#374957"/>
<path d="M13.0001 2C13.5524 2 14.0001 1.55228 14.0001 1C14.0001 0.447715 13.5524 0 13.0001 0C12.4478 0 12.0001 0.447715 12.0001 1C12.0001 1.55228 12.4478 2 13.0001 2Z" fill="#374957"/>
<path d="M19.0001 2C19.5524 2 20.0001 1.55228 20.0001 1C20.0001 0.447715 19.5524 0 19.0001 0C18.4478 0 18.0001 0.447715 18.0001 1C18.0001 1.55228 18.4478 2 19.0001 2Z" fill="#374957"/>
</g>
<defs>
<filter id="filter0_d_403_3636" x="0" y="0" width="32" height="32" filterUnits="userSpaceOnUse" color-interpolation-filters="sRGB">
<feFlood flood-opacity="0" result="BackgroundImageFix"/>
<feColorMatrix in="SourceAlpha" type="matrix" values="0 0 0 0 0 0 0 0 0 0 0 0 0 0 0 0 0 0 127 0" result="hardAlpha"/>
<feOffset dy="4"/>
<feGaussianBlur stdDeviation="2"/>
<feComposite in2="hardAlpha" operator="out"/>
<feColorMatrix type="matrix" values="0 0 0 0 0 0 0 0 0 0 0 0 0 0 0 0 0 0 0.25 0"/>
<feBlend mode="normal" in2="BackgroundImageFix" result="effect1_dropShadow_403_3636"/>
<feBlend mode="normal" in="SourceGraphic" in2="effect1_dropShadow_403_3636" result="shape"/>
</filter>
<clipPath id="clip0_403_3636">
<rect width="24" height="24" fill="white" transform="translate(4)"/>
</clipPath>
</defs>
</svg>
