<svg width="32" height="32" viewBox="0 0 32 32" fill="none" xmlns="http://www.w3.org/2000/svg">
<g clip-path="url(#clip0_403_3414)" filter="url(#filter0_d_403_3414)">
<path d="M22.7571 16.0004C22.0684 15.9988 21.3863 16.1336 20.75 16.397C20.1137 16.6605 19.536 17.0474 19.0501 17.5354L16.0501 20.5354C15.587 21.0012 15.0361 21.3705 14.4293 21.622C13.8225 21.8734 13.1719 22.002 12.5151 22.0004H7.12207C6.90018 22.0007 6.68317 21.9352 6.49855 21.8121C6.31393 21.689 6.16999 21.5139 6.08496 21.3089C5.99994 21.104 5.97765 20.8784 6.02093 20.6607C6.06421 20.4431 6.1711 20.2432 6.32807 20.0864L6.71407 19.7004C7.27122 19.9721 7.89952 20.0624 8.51065 19.9586C9.12177 19.8547 9.68498 19.5619 10.1211 19.1214L16.4471 12.8004C16.8692 12.9138 17.3024 12.9809 17.7391 13.0004C17.8251 13.0004 17.9121 13.0004 18.0001 13.0004C19.5922 12.9991 21.119 12.367 22.2461 11.2424L23.2461 10.2424C23.8332 9.65414 24.292 8.95052 24.5934 8.17596C24.8948 7.40141 25.0322 6.57276 24.9971 5.74238C24.9637 4.90834 24.7551 4.09068 24.3848 3.34258C24.0146 2.59449 23.491 1.93274 22.8481 1.40038C21.6469 0.449048 20.1352 -0.0220791 18.6063 0.0784451C17.0773 0.178969 15.6403 0.843974 14.5741 1.94438L13.9411 2.57838C13.176 3.34067 12.6188 4.28602 12.3222 5.32451C12.0257 6.36299 11.9999 7.46007 12.2471 8.51138L5.87907 14.8794C5.44397 15.3174 5.15496 15.8792 5.05166 16.4879C4.94837 17.0966 5.03583 17.7223 5.30207 18.2794L4.91407 18.6674C4.47576 19.1037 4.17694 19.6603 4.05554 20.2667C3.93414 20.8731 3.99562 21.5019 4.23219 22.0733C4.46876 22.6447 4.86975 23.1329 5.38427 23.476C5.89879 23.8191 6.50365 24.0016 7.12207 24.0004H12.5151C13.4346 24.0029 14.3456 23.8229 15.1951 23.4708C16.0446 23.1187 16.8158 22.6016 17.4641 21.9494L20.4641 18.9494C20.9176 18.4959 21.4954 18.1871 22.1245 18.062C22.7535 17.9369 23.4055 18.0011 23.9981 18.2465C24.5906 18.4919 25.0971 18.9076 25.4534 19.4408C25.8098 19.9741 26 20.601 26.0001 21.2424V24.0004H28.0001V21.2424C27.9982 19.8525 27.4452 18.5201 26.4623 17.5374C25.4794 16.5547 24.1469 16.002 22.7571 16.0004ZM15.3571 3.98838L15.9901 3.35438C16.8114 2.52904 17.9257 2.06177 19.0901 2.05438C19.9915 2.04559 20.8669 2.35629 21.5611 2.93138C21.9905 3.28603 22.3406 3.72705 22.5885 4.22581C22.8364 4.72457 22.9767 5.2699 23.0001 5.82638C23.0232 6.3799 22.9314 6.93221 22.7306 7.44852C22.5297 7.96483 22.2241 8.43397 21.8331 8.82638L20.8331 9.82638C20.4402 10.2193 19.9697 10.526 19.4517 10.7271C18.9337 10.9281 18.3795 11.019 17.8244 10.9939C17.2694 10.9689 16.7256 10.8285 16.2278 10.5817C15.7299 10.3349 15.289 9.98705 14.9331 9.56038C14.3011 8.74417 13.9944 7.72253 14.0724 6.69321C14.1503 5.66389 14.6074 4.70009 15.3551 3.98838H15.3571ZM7.29307 16.2934L13.1291 10.4564C13.2201 10.5864 13.2931 10.7264 13.3961 10.8494C13.728 11.2415 14.108 11.5902 14.5271 11.8874L8.70707 17.7074C8.51694 17.8899 8.26361 17.9918 8.00007 17.9918C7.73653 17.9918 7.4832 17.8899 7.29307 17.7074C7.1056 17.5199 7.00028 17.2655 7.00028 17.0004C7.00028 16.7352 7.1056 16.4809 7.29307 16.2934Z" fill="#374957"/>
</g>
<defs>
<filter id="filter0_d_403_3414" x="0" y="0" width="32" height="32" filterUnits="userSpaceOnUse" color-interpolation-filters="sRGB">
<feFlood flood-opacity="0" result="BackgroundImageFix"/>
<feColorMatrix in="SourceAlpha" type="matrix" values="0 0 0 0 0 0 0 0 0 0 0 0 0 0 0 0 0 0 127 0" result="hardAlpha"/>
<feOffset dy="4"/>
<feGaussianBlur stdDeviation="2"/>
<feComposite in2="hardAlpha" operator="out"/>
<feColorMatrix type="matrix" values="0 0 0 0 0 0 0 0 0 0 0 0 0 0 0 0 0 0 0.25 0"/>
<feBlend mode="normal" in2="BackgroundImageFix" result="effect1_dropShadow_403_3414"/>
<feBlend mode="normal" in="SourceGraphic" in2="effect1_dropShadow_403_3414" result="shape"/>
</filter>
<clipPath id="clip0_403_3414">
<rect width="24" height="24" fill="white" transform="translate(4)"/>
</clipPath>
</defs>
</svg>
