<svg width="24" height="24" viewBox="0 0 24 24" fill="none" xmlns="http://www.w3.org/2000/svg">
<g clip-path="url(#clip0_403_3460)">
<path d="M11.9482 24.0096L11.5942 23.8526C11.2002 23.6796 2.00015 19.5246 2.00015 12.0006V5.47658C2.0005 4.84875 2.19894 4.23704 2.56719 3.72856C2.93545 3.22007 3.45475 2.84074 4.05115 2.64458L12.0002 0.00958252L19.9492 2.64458C20.5456 2.84074 21.0649 3.22007 21.4331 3.72856C21.8014 4.23704 21.9998 4.84875 22.0002 5.47658V12.0006C22.0002 20.5776 12.7122 23.7556 12.3162 23.8876L11.9482 24.0096ZM12.0002 2.10658L4.68415 4.53258C4.4851 4.5976 4.31172 4.72394 4.18886 4.89351C4.06599 5.06308 3.99994 5.26718 4.00015 5.47658V12.0006C4.00015 17.4946 10.4402 21.0586 12.0472 21.8616C13.6512 21.2166 20.0002 18.2636 20.0002 12.0006V5.47658C20.0004 5.26718 19.9343 5.06308 19.8114 4.89351C19.6886 4.72394 19.5152 4.5976 19.3162 4.53258L12.0002 2.10658Z" fill="#374957"/>
<path d="M11.1113 14.542H11.0783C10.8252 14.5382 10.5755 14.483 10.3443 14.3799C10.1131 14.2767 9.90524 14.1278 9.73327 13.942L7.42727 11.542L8.86827 10.16L11.1123 12.5L16.2933 7.31903L17.7073 8.73303L12.4463 13.994C12.271 14.1691 12.0628 14.3077 11.8337 14.4018C11.6045 14.4958 11.359 14.5435 11.1113 14.542Z" fill="#374957"/>
</g>
<defs>
<clipPath id="clip0_403_3460">
<rect width="24" height="24" fill="white"/>
</clipPath>
</defs>
</svg>
