<svg width="24" height="24" viewBox="0 0 24 24" fill="none" xmlns="http://www.w3.org/2000/svg">
<g clip-path="url(#clip0_403_3480)">
<path d="M21.0003 10H17.6933L13.4463 1.563C13.1881 1.08989 12.8073 0.695071 12.3438 0.420033C11.8803 0.144995 11.3512 -9.97046e-05 10.8123 5.14037e-08H7.13028L10.0303 10H6.40028L4.10028 7.705C3.84011 7.44509 3.5237 7.24845 3.17546 7.13025C2.82723 7.01205 2.45649 6.97545 2.09187 7.02329C1.72725 7.07113 1.37849 7.20212 1.07253 7.40614C0.766575 7.61017 0.511595 7.88178 0.327277 8.2C0.11344 8.56347 1.50821e-05 8.97722 -0.00139058 9.39892C-0.00279625 9.82062 0.107868 10.2351 0.319277 10.6L3.40728 16H10.0193L7.01928 24H10.8123C11.342 24.003 11.8628 23.8643 12.3208 23.5983C12.7789 23.3323 13.1574 22.9486 13.4173 22.487L17.4643 16H24.0003V13C24.0003 12.2044 23.6842 11.4413 23.1216 10.8787C22.559 10.3161 21.7959 10 21.0003 10ZM9.79228 2H10.8123C10.9866 1.9985 11.1583 2.04313 11.3099 2.12935C11.4614 2.21558 11.5875 2.34035 11.6753 2.491L15.4553 10H12.1103L9.79228 2ZM22.0003 14H16.3543L11.6903 21.479C11.6042 21.6367 11.4773 21.7683 11.3228 21.86C11.1683 21.9517 10.9919 22 10.8123 22H9.90028L12.9003 14H4.56728L2.05528 9.6C2.01997 9.53886 2.00147 9.46945 2.00167 9.39885C2.00187 9.32824 2.02076 9.25894 2.05641 9.198C2.09206 9.13705 2.14321 9.08663 2.20466 9.05185C2.26611 9.01708 2.33567 8.99919 2.40628 9C2.45923 8.99983 2.51169 9.01017 2.56061 9.03042C2.60953 9.05068 2.65395 9.08045 2.69128 9.118L5.57328 12H21.0003C21.2655 12 21.5199 12.1054 21.7074 12.2929C21.8949 12.4804 22.0003 12.7348 22.0003 13V14Z" fill="#374957"/>
</g>
<defs>
<clipPath id="clip0_403_3480">
<rect width="24" height="24" fill="white"/>
</clipPath>
</defs>
</svg>
