<svg width="32" height="32" viewBox="0 0 32 32" fill="none" xmlns="http://www.w3.org/2000/svg">
<g clip-path="url(#clip0_403_3370)" filter="url(#filter0_d_403_3370)">
<path d="M26.0998 1.90052C22.6638 -1.53048 13.3718 -0.0664764 8.65184 4.65252C3.93184 9.37152 2.46884 18.6645 5.89984 22.1005C7.50643 23.4499 9.57365 24.1238 11.6668 23.9805C16.0009 23.9422 20.1653 22.2908 23.3478 19.3485C28.0658 14.6295 29.5308 5.33652 26.0998 1.90052V1.90052ZM20.3328 2.00052C21.8969 1.87517 23.4506 2.34441 24.6838 3.31452C25.6998 4.33152 26.1108 6.30052 25.9588 8.54552L19.4588 2.04552C19.7538 2.02652 20.0498 2.00052 20.3328 2.00052V2.00052ZM7.31584 20.6845C6.29984 19.6695 5.88884 17.7005 6.04084 15.4555L12.5408 21.9555C10.2998 22.1105 8.33084 21.7005 7.31584 20.6845ZM21.9338 17.9345C19.998 19.7585 17.6031 21.0225 15.0048 21.5915L6.40484 12.9915C6.97514 10.3941 8.24056 8.00048 10.0658 6.06652C12.0049 4.24311 14.4042 2.98261 17.0058 2.42052L25.5918 11.0065C25.0229 13.6047 23.7585 15.9994 21.9338 17.9345V17.9345ZM17.7068 6.29352L21.7068 10.2935L20.2928 11.7075L18.9998 10.4145L17.4138 12.0005L18.7068 13.2935L17.2928 14.7075L15.9998 13.4145L14.4138 15.0005L15.7068 16.2935L14.2928 17.7075L10.2928 13.7075L11.7068 12.2935L12.9998 13.5865L14.5858 12.0005L13.2928 10.7075L14.7068 9.29352L15.9998 10.5865L17.5858 9.00052L16.2928 7.70752L17.7068 6.29352Z" fill="#374957"/>
</g>
<defs>
<filter id="filter0_d_403_3370" x="0" y="0" width="32" height="32" filterUnits="userSpaceOnUse" color-interpolation-filters="sRGB">
<feFlood flood-opacity="0" result="BackgroundImageFix"/>
<feColorMatrix in="SourceAlpha" type="matrix" values="0 0 0 0 0 0 0 0 0 0 0 0 0 0 0 0 0 0 127 0" result="hardAlpha"/>
<feOffset dy="4"/>
<feGaussianBlur stdDeviation="2"/>
<feComposite in2="hardAlpha" operator="out"/>
<feColorMatrix type="matrix" values="0 0 0 0 0 0 0 0 0 0 0 0 0 0 0 0 0 0 0.25 0"/>
<feBlend mode="normal" in2="BackgroundImageFix" result="effect1_dropShadow_403_3370"/>
<feBlend mode="normal" in="SourceGraphic" in2="effect1_dropShadow_403_3370" result="shape"/>
</filter>
<clipPath id="clip0_403_3370">
<rect width="24" height="24" fill="white" transform="translate(4)"/>
</clipPath>
</defs>
</svg>
