<svg width="32" height="32" viewBox="0 0 32 32" fill="none" xmlns="http://www.w3.org/2000/svg">
<g clip-path="url(#clip0_403_3532)" filter="url(#filter0_d_403_3532)">
<path d="M24 0C22.9391 0 21.9217 0.421427 21.1716 1.17157C20.4214 1.92172 20 2.93913 20 4H22C22 3.46957 22.2107 2.96086 22.5858 2.58579C22.9609 2.21071 23.4696 2 24 2H26V15.026C25.1396 14.3642 24.0855 14.0037 23 14C21.8478 14.0015 20.7313 14.4001 19.8388 15.1287C18.9462 15.8573 18.3321 16.8714 18.1 18H13.9C13.6679 16.8714 13.0538 15.8573 12.1613 15.1287C11.2687 14.4001 10.1522 14.0015 9 14C7.91453 14.0037 6.86039 14.3642 6 15.026V2H8C8.53044 2 9.03914 2.21071 9.41422 2.58579C9.78929 2.96086 10 3.46957 10 4H12C12 2.93913 11.5786 1.92172 10.8284 1.17157C10.0783 0.421427 9.06087 0 8 0L4 0V19C3.99876 20.24 4.45828 21.4361 5.28938 22.3563C6.12047 23.2765 7.26383 23.8551 8.49751 23.9797C9.73118 24.1043 10.9671 23.7661 11.9655 23.0307C12.9638 22.2953 13.6533 21.2152 13.9 20H18.1C18.3467 21.2152 19.0362 22.2953 20.0345 23.0307C21.0329 23.7661 22.2688 24.1043 23.5025 23.9797C24.7362 23.8551 25.8795 23.2765 26.7106 22.3563C27.5417 21.4361 28.0012 20.24 28 19V0H24ZM9 22C8.40666 22 7.82664 21.8241 7.33329 21.4944C6.83994 21.1648 6.45543 20.6962 6.22836 20.1481C6.0013 19.5999 5.94189 18.9967 6.05765 18.4147C6.1734 17.8328 6.45912 17.2982 6.87868 16.8787C7.29824 16.4591 7.83279 16.1734 8.41473 16.0576C8.99667 15.9419 9.59987 16.0013 10.1481 16.2284C10.6962 16.4554 11.1648 16.8399 11.4944 17.3333C11.8241 17.8266 12 18.4067 12 19C12 19.7957 11.6839 20.5587 11.1213 21.1213C10.5587 21.6839 9.79565 22 9 22ZM23 22C22.4067 22 21.8266 21.8241 21.3333 21.4944C20.8399 21.1648 20.4554 20.6962 20.2284 20.1481C20.0013 19.5999 19.9419 18.9967 20.0576 18.4147C20.1734 17.8328 20.4591 17.2982 20.8787 16.8787C21.2982 16.4591 21.8328 16.1734 22.4147 16.0576C22.9967 15.9419 23.5999 16.0013 24.1481 16.2284C24.6962 16.4554 25.1648 16.8399 25.4944 17.3333C25.8241 17.8266 26 18.4067 26 19C26 19.7957 25.6839 20.5587 25.1213 21.1213C24.5587 21.6839 23.7957 22 23 22Z" fill="#374957"/>
</g>
<defs>
<filter id="filter0_d_403_3532" x="0" y="0" width="32" height="32" filterUnits="userSpaceOnUse" color-interpolation-filters="sRGB">
<feFlood flood-opacity="0" result="BackgroundImageFix"/>
<feColorMatrix in="SourceAlpha" type="matrix" values="0 0 0 0 0 0 0 0 0 0 0 0 0 0 0 0 0 0 127 0" result="hardAlpha"/>
<feOffset dy="4"/>
<feGaussianBlur stdDeviation="2"/>
<feComposite in2="hardAlpha" operator="out"/>
<feColorMatrix type="matrix" values="0 0 0 0 0 0 0 0 0 0 0 0 0 0 0 0 0 0 0.25 0"/>
<feBlend mode="normal" in2="BackgroundImageFix" result="effect1_dropShadow_403_3532"/>
<feBlend mode="normal" in="SourceGraphic" in2="effect1_dropShadow_403_3532" result="shape"/>
</filter>
<clipPath id="clip0_403_3532">
<rect width="24" height="24" fill="white" transform="translate(4)"/>
</clipPath>
</defs>
</svg>
