<svg width="32" height="32" viewBox="0 0 32 32" fill="none" xmlns="http://www.w3.org/2000/svg">
<g clip-path="url(#clip0_403_3306)" filter="url(#filter0_d_403_3306)">
<path d="M27.9998 23.9994H25.9998C25.9977 22.1435 25.2595 20.3643 23.9472 19.052C22.6349 17.7397 20.8557 17.0015 18.9998 16.9994H14.1698V23.4134L4.87683 14.1204C4.31442 13.5578 3.99847 12.7949 3.99847 11.9994C3.99847 11.2039 4.31442 10.441 4.87683 9.87839L14.1698 0.585388V6.99939H18.9998C21.386 7.00203 23.6736 7.9511 25.3609 9.63835C27.0481 11.3256 27.9972 13.6133 27.9998 15.9994V23.9994ZM12.1698 5.41339L6.29083 11.2924C6.10336 11.4799 5.99805 11.7342 5.99805 11.9994C5.99805 12.2646 6.10336 12.5189 6.29083 12.7064L12.1698 18.5854V14.9994H18.9998C20.3427 14.9993 21.6685 15.3001 22.8798 15.8796C24.0912 16.4592 25.1573 17.3028 25.9998 18.3484V15.9994C25.9977 14.1435 25.2595 12.3643 23.9472 11.052C22.6349 9.73968 20.8557 9.0015 18.9998 8.99939H12.1698V5.41339Z" fill="#374957"/>
</g>
<defs>
<filter id="filter0_d_403_3306" x="0" y="0" width="32" height="32" filterUnits="userSpaceOnUse" color-interpolation-filters="sRGB">
<feFlood flood-opacity="0" result="BackgroundImageFix"/>
<feColorMatrix in="SourceAlpha" type="matrix" values="0 0 0 0 0 0 0 0 0 0 0 0 0 0 0 0 0 0 127 0" result="hardAlpha"/>
<feOffset dy="4"/>
<feGaussianBlur stdDeviation="2"/>
<feComposite in2="hardAlpha" operator="out"/>
<feColorMatrix type="matrix" values="0 0 0 0 0 0 0 0 0 0 0 0 0 0 0 0 0 0 0.25 0"/>
<feBlend mode="normal" in2="BackgroundImageFix" result="effect1_dropShadow_403_3306"/>
<feBlend mode="normal" in="SourceGraphic" in2="effect1_dropShadow_403_3306" result="shape"/>
</filter>
<clipPath id="clip0_403_3306">
<rect width="24" height="24" fill="white" transform="translate(4)"/>
</clipPath>
</defs>
</svg>
