<svg width="32" height="32" viewBox="0 0 32 32" fill="none" xmlns="http://www.w3.org/2000/svg">
<g clip-path="url(#clip0_403_3686)" filter="url(#filter0_d_403_3686)">
<path d="M16 24C13.6266 24 11.3066 23.2962 9.33316 21.9776C7.35977 20.6591 5.8217 18.7849 4.91345 16.5922C4.0052 14.3995 3.76756 11.9867 4.23058 9.65892C4.6936 7.33115 5.83649 5.19295 7.51472 3.51472C9.19295 1.83649 11.3312 0.693605 13.6589 0.230582C15.9867 -0.232441 18.3995 0.00519943 20.5922 0.913451C22.7849 1.8217 24.6591 3.35977 25.9776 5.33316C27.2962 7.30655 28 9.62663 28 12C27.9966 15.1815 26.7312 18.2318 24.4815 20.4815C22.2318 22.7312 19.1815 23.9966 16 24V24ZM16 2.00001C14.0222 2.00001 12.0888 2.5865 10.4443 3.68531C8.79981 4.78412 7.51809 6.34591 6.76121 8.17317C6.00433 10.0004 5.8063 12.0111 6.19215 13.9509C6.578 15.8907 7.53041 17.6725 8.92894 19.0711C10.3275 20.4696 12.1093 21.422 14.0491 21.8079C15.9889 22.1937 17.9996 21.9957 19.8268 21.2388C21.6541 20.4819 23.2159 19.2002 24.3147 17.5557C25.4135 15.9112 26 13.9778 26 12C25.9971 9.34873 24.9426 6.80689 23.0679 4.93215C21.1931 3.05742 18.6513 2.00292 16 2.00001V2.00001ZM16 20C14.4178 20 12.871 19.5308 11.5554 18.6518C10.2399 17.7727 9.21447 16.5233 8.60897 15.0615C8.00347 13.5997 7.84504 11.9911 8.15372 10.4393C8.4624 8.88744 9.22433 7.46197 10.3432 6.34315C11.462 5.22433 12.8874 4.4624 14.4393 4.15372C15.9911 3.84504 17.5997 4.00347 19.0615 4.60897C20.5233 5.21447 21.7727 6.23985 22.6518 7.55544C23.5308 8.87104 24 10.4178 24 12C23.9976 14.121 23.154 16.1545 21.6542 17.6542C20.1545 19.154 18.121 19.9976 16 20V20ZM16 6.00001C14.8133 6.00001 13.6533 6.3519 12.6666 7.01119C11.6799 7.67048 10.9109 8.60755 10.4567 9.70391C10.0026 10.8003 9.88378 12.0067 10.1153 13.1705C10.3468 14.3344 10.9182 15.4035 11.7574 16.2426C12.5965 17.0818 13.6656 17.6532 14.8295 17.8847C15.9934 18.1162 17.1997 17.9974 18.2961 17.5433C19.3925 17.0892 20.3295 16.3201 20.9888 15.3334C21.6481 14.3467 22 13.1867 22 12C21.9984 10.4092 21.3658 8.88399 20.2409 7.75912C19.116 6.63424 17.5908 6.00159 16 6.00001V6.00001ZM19 10.448V9.00001H13V11H16.462L14.112 15.54L15.888 16.46L19 10.448Z" fill="#374957"/>
</g>
<defs>
<filter id="filter0_d_403_3686" x="0" y="0" width="32" height="32" filterUnits="userSpaceOnUse" color-interpolation-filters="sRGB">
<feFlood flood-opacity="0" result="BackgroundImageFix"/>
<feColorMatrix in="SourceAlpha" type="matrix" values="0 0 0 0 0 0 0 0 0 0 0 0 0 0 0 0 0 0 127 0" result="hardAlpha"/>
<feOffset dy="4"/>
<feGaussianBlur stdDeviation="2"/>
<feComposite in2="hardAlpha" operator="out"/>
<feColorMatrix type="matrix" values="0 0 0 0 0 0 0 0 0 0 0 0 0 0 0 0 0 0 0.25 0"/>
<feBlend mode="normal" in2="BackgroundImageFix" result="effect1_dropShadow_403_3686"/>
<feBlend mode="normal" in="SourceGraphic" in2="effect1_dropShadow_403_3686" result="shape"/>
</filter>
<clipPath id="clip0_403_3686">
<rect width="24" height="24" fill="white" transform="translate(4)"/>
</clipPath>
</defs>
</svg>
