<svg width="24" height="24" viewBox="0 0 24 24" fill="none" xmlns="http://www.w3.org/2000/svg">
<g clip-path="url(#clip0_403_3506)">
<path d="M12 16.0001C10.9391 16.0001 9.9217 15.5786 9.17156 14.8285C8.42141 14.0784 7.99999 13.0609 7.99999 12.0001C7.99999 10.9392 8.42141 9.92179 9.17156 9.17165C9.9217 8.4215 10.9391 8.00007 12 8.00007C13.0609 8.00007 14.0783 8.4215 14.8284 9.17165C15.5786 9.92179 16 10.9392 16 12.0001C16 13.0609 15.5786 14.0784 14.8284 14.8285C14.0783 15.5786 13.0609 16.0001 12 16.0001ZM12 10.0001C11.4696 10.0001 10.9608 10.2108 10.5858 10.5859C10.2107 10.9609 9.99999 11.4696 9.99999 12.0001C9.99999 12.5305 10.2107 13.0392 10.5858 13.4143C10.9608 13.7894 11.4696 14.0001 12 14.0001C12.5304 14.0001 13.0391 13.7894 13.4142 13.4143C13.7893 13.0392 14 12.5305 14 12.0001C14 11.4696 13.7893 10.9609 13.4142 10.5859C13.0391 10.2108 12.5304 10.0001 12 10.0001ZM12 24.0001C10.9008 23.9986 9.83254 23.6355 8.96005 22.9668C8.08756 22.2982 7.45925 21.3611 7.17199 20.3001C6.11986 20.5451 5.01669 20.4427 4.02759 20.0084C3.03849 19.574 2.21666 18.831 1.68513 17.8905C1.1536 16.9501 0.940945 15.8628 1.079 14.7914C1.21706 13.72 1.69841 12.7221 2.45099 11.9471C1.69641 11.1704 1.21439 10.1697 1.0774 9.09548C0.94042 8.02129 1.15588 6.93166 1.69138 5.99044C2.22689 5.04922 3.05349 4.30729 4.04689 3.87622C5.04028 3.44515 6.14678 3.34825 7.19999 3.60007C7.51122 2.56923 8.14604 1.66597 9.01051 1.02395C9.87499 0.381936 10.9232 0.0352783 12 0.0352783C13.0768 0.0352783 14.125 0.381936 14.9895 1.02395C15.8539 1.66597 16.4888 2.56923 16.8 3.60007C17.8536 3.34757 18.9607 3.44413 19.9547 3.8752C20.9486 4.30627 21.7757 5.04854 22.3114 5.99028C22.847 6.93202 23.0623 8.02227 22.9248 9.09694C22.7873 10.1716 22.3045 11.1725 21.549 11.9491C22.3006 12.7242 22.7812 13.7219 22.9187 14.7928C23.0563 15.8638 22.8435 16.9505 22.3121 17.8904C21.7807 18.8304 20.9593 19.573 19.9708 20.0074C18.9823 20.4417 17.8797 20.5444 16.828 20.3001C16.5407 21.3611 15.9124 22.2982 15.0399 22.9668C14.1674 23.6355 13.0992 23.9986 12 24.0001V24.0001ZM9.05699 17.1151L8.99499 19.0851C9.00626 19.8814 9.3334 20.6406 9.90445 21.1957C10.4755 21.7508 11.2437 22.0563 12.04 22.0451C12.8363 22.0338 13.5955 21.7067 14.1506 21.1356C14.7057 20.5646 15.0113 19.7964 15 19.0001C15 19.0431 14.943 17.1151 14.943 17.1151L16.495 18.0251C17.1845 18.4131 18 18.5113 18.762 18.298C19.5239 18.0848 20.17 17.5776 20.558 16.8881C20.946 16.1985 21.0442 15.3831 20.831 14.6211C20.6177 13.8591 20.1105 13.2131 19.421 12.8251L17.807 11.9471L19.421 11.0681C19.7708 10.881 20.0797 10.626 20.3298 10.318C20.5798 10.0101 20.7658 9.6553 20.877 9.27452C20.9882 8.89375 21.0224 8.49461 20.9774 8.10049C20.9324 7.70637 20.8093 7.32517 20.6152 6.97924C20.421 6.6333 20.1598 6.32957 19.8469 6.08584C19.5339 5.8421 19.1754 5.66326 18.7925 5.55978C18.4096 5.4563 18.0098 5.43027 17.6167 5.48321C17.2235 5.53615 16.8449 5.66699 16.503 5.86807L15 6.74307V5.00007C15 4.20442 14.6839 3.44136 14.1213 2.87875C13.5587 2.31614 12.7956 2.00007 12 2.00007C11.2043 2.00007 10.4413 2.31614 9.87866 2.87875C9.31606 3.44136 8.99999 4.20442 8.99999 5.00007V6.73907L7.49999 5.86807C7.15805 5.66699 6.77943 5.53615 6.3863 5.48321C5.99316 5.43027 5.59342 5.4563 5.21047 5.55978C4.82752 5.66326 4.46907 5.8421 4.1561 6.08584C3.84313 6.32957 3.58194 6.6333 3.38782 6.97924C3.19369 7.32517 3.07054 7.70637 3.02557 8.10049C2.9806 8.49461 3.01472 8.89375 3.12593 9.27452C3.23714 9.6553 3.4232 10.0101 3.67322 10.318C3.92324 10.626 4.23219 10.881 4.58199 11.0681L6.19599 11.9471L4.58199 12.8251C3.89242 13.2131 3.38524 13.8591 3.17201 14.6211C3.06643 14.9984 3.0362 15.3928 3.08303 15.7817C3.12987 16.1707 3.25286 16.5466 3.44499 16.8881C3.63711 17.2295 3.8946 17.5298 4.20276 17.7717C4.51093 18.0136 4.86372 18.1925 5.24101 18.298C6.00297 18.5113 6.81842 18.4131 7.50799 18.0251L9.05699 17.1151Z" fill="#374957"/>
</g>
<defs>
<clipPath id="clip0_403_3506">
<rect width="24" height="24" fill="white"/>
</clipPath>
</defs>
</svg>
