<svg width="24" height="24" viewBox="0 0 24 24" fill="none" xmlns="http://www.w3.org/2000/svg">
<g clip-path="url(#clip0_403_3592)">
<path d="M18 7.00087C18 7.19865 17.9414 7.39199 17.8315 7.55644C17.7216 7.72089 17.5654 7.84907 17.3827 7.92475C17.2 8.00044 16.9989 8.02024 16.8049 7.98166C16.6109 7.94307 16.4327 7.84783 16.2929 7.70798C16.153 7.56813 16.0578 7.38994 16.0192 7.19596C15.9806 7.00198 16.0004 6.80092 16.0761 6.61819C16.1518 6.43546 16.28 6.27928 16.4444 6.1694C16.6089 6.05952 16.8022 6.00087 17 6.00087C17.2652 6.00087 17.5196 6.10623 17.7071 6.29377C17.8946 6.4813 18 6.73566 18 7.00087ZM14 9.00087C13.8022 9.00087 13.6089 9.05952 13.4444 9.1694C13.28 9.27929 13.1518 9.43546 13.0761 9.61819C13.0004 9.80092 12.9806 10.002 13.0192 10.196C13.0578 10.3899 13.153 10.5681 13.2929 10.708C13.4327 10.8478 13.6109 10.9431 13.8049 10.9817C13.9989 11.0202 14.2 11.0004 14.3827 10.9248C14.5654 10.8491 14.7216 10.7209 14.8315 10.5564C14.9414 10.392 15 10.1987 15 10.0009C15 9.73566 14.8946 9.4813 14.7071 9.29377C14.5196 9.10623 14.2652 9.00087 14 9.00087ZM11 12.0009C10.8022 12.0009 10.6089 12.0595 10.4444 12.1694C10.28 12.2793 10.1518 12.4355 10.0761 12.6182C10.0004 12.8009 9.98063 13.002 10.0192 13.196C10.0578 13.3899 10.153 13.5681 10.2929 13.708C10.4327 13.8478 10.6109 13.9431 10.8049 13.9817C10.9989 14.0202 11.2 14.0004 11.3827 13.9248C11.5654 13.8491 11.7216 13.7209 11.8315 13.5564C11.9414 13.392 12 13.1987 12 13.0009C12 12.7357 11.8946 12.4813 11.7071 12.2938C11.5196 12.1062 11.2652 12.0009 11 12.0009ZM23.352 0.648872C23.65 0.944166 23.8569 1.31889 23.9481 1.72843C24.0392 2.13796 24.0107 2.56506 23.866 2.95887L23.791 3.16987C22.289 7.33787 20.848 11.3009 18 14.8209V15.0009C17.9956 16.7078 17.5961 18.3905 16.8327 19.9172C16.0694 21.444 14.9629 22.7732 13.6 23.8009L13.332 24.0009H9V20.4149L7 18.4149L4.707 20.7079L3.293 19.2939L5.586 17.0009L3.586 15.0009H0V10.4409L0.2 10.1749C1.23794 8.83911 2.57487 7.76559 4.10328 7.04064C5.63168 6.31569 7.30889 5.95955 9 6.00087H9.18C12.7 3.15387 16.66 1.71287 20.826 0.211872L21.042 0.134872C21.4358 -0.00983408 21.8629 -0.0383197 22.2724 0.052807C22.682 0.143934 23.0567 0.350833 23.352 0.648872V0.648872ZM2 13.0009H3.419C4.39674 11.3142 5.52857 9.72177 6.8 8.24387C4.9212 8.63253 3.22934 9.64589 2 11.1189V13.0009ZM15.7 17.2549C14.2375 18.5041 12.6643 19.6177 11 20.5819V22.0009H12.657C14.1507 20.7831 15.2167 19.1205 15.7 17.2549V17.2549ZM21.937 2.06387C21.9104 2.03423 21.8751 2.01367 21.8362 2.00506C21.7973 1.99645 21.7567 2.00023 21.72 2.01587L21.505 2.09387C16.661 3.83887 12.478 5.34687 8.876 8.94787C7.48687 10.4353 6.27047 12.075 5.25 13.8359L10.165 18.7519C11.9255 17.7305 13.5652 16.5138 15.053 15.1249C18.653 11.5249 20.163 7.33787 21.909 2.49187L21.985 2.28087C22.0005 2.24419 22.0042 2.2036 21.9956 2.16472C21.987 2.12584 21.9665 2.0906 21.937 2.06387V2.06387Z" fill="#374957"/>
</g>
<defs>
<clipPath id="clip0_403_3592">
<rect width="24" height="24" fill="white"/>
</clipPath>
</defs>
</svg>
