<svg width="24" height="24" viewBox="0 0 24 24" fill="none" xmlns="http://www.w3.org/2000/svg">
<g clip-path="url(#clip0_403_3487)">
<path d="M13.9999 19.9389V21.9999H17.9999V23.9999H7.99987V21.9999H11.9999V19.9489C9.77074 19.7639 7.63776 18.9593 5.8419 17.6258C4.04604 16.2924 2.65888 14.4833 1.83713 12.4029C1.01538 10.3225 0.791805 8.05379 1.19165 5.85304C1.5915 3.65228 2.59885 1.6072 4.09987 -0.0511475L5.58487 1.28885C4.66668 2.30523 3.96707 3.49939 3.52943 4.7973C3.09179 6.0952 2.92545 7.46918 3.04073 8.83402C3.156 10.1989 3.55043 11.5255 4.19955 12.7316C4.84868 13.9377 5.73866 14.9976 6.81432 15.8456C7.88997 16.6936 9.12836 17.3115 10.4527 17.6612C11.777 18.0108 13.1591 18.0846 14.5131 17.8781C15.8671 17.6716 17.1643 17.1891 18.3242 16.4605C19.4841 15.732 20.4819 14.7729 21.2559 13.6429L22.9069 14.7729C21.899 16.2413 20.5767 17.4669 19.036 18.3605C17.4954 19.2541 15.775 19.7932 13.9999 19.9389ZM4.99987 7.99985C4.99987 6.4176 5.46906 4.87088 6.34811 3.55529C7.22716 2.2397 8.47659 1.21432 9.9384 0.608816C11.4002 0.00331521 13.0087 -0.155111 14.5606 0.15357C16.1124 0.462252 17.5379 1.22418 18.6567 2.343C19.7755 3.46182 20.5375 4.88728 20.8462 6.43913C21.1548 7.99098 20.9964 9.59951 20.3909 11.0613C19.7854 12.5231 18.76 13.7726 17.4444 14.6516C16.1288 15.5307 14.5821 15.9999 12.9999 15.9999C10.8789 15.9975 8.84542 15.1539 7.34565 13.6541C5.84587 12.1543 5.00225 10.1209 4.99987 7.99985V7.99985ZM6.99987 7.99985C6.99987 9.18654 7.35176 10.3466 8.01105 11.3333C8.67034 12.32 9.60741 13.089 10.7038 13.5431C11.8001 13.9973 13.0065 14.1161 14.1704 13.8846C15.3343 13.6531 16.4034 13.0816 17.2425 12.2425C18.0816 11.4034 18.6531 10.3343 18.8846 9.17039C19.1161 8.00651 18.9973 6.80011 18.5431 5.70375C18.089 4.6074 17.32 3.67032 16.3333 3.01103C15.3466 2.35175 14.1866 1.99985 12.9999 1.99985C11.4091 2.00144 9.88386 2.63409 8.75898 3.75897C7.63411 4.88384 7.00146 6.40904 6.99987 7.99985V7.99985Z" fill="#374957"/>
</g>
<defs>
<clipPath id="clip0_403_3487">
<rect width="24" height="24" fill="white"/>
</clipPath>
</defs>
</svg>
