<svg width="24" height="24" viewBox="0 0 24 24" fill="none" xmlns="http://www.w3.org/2000/svg">
<path d="M2.00002 14C3.10459 14 4.00003 13.1046 4.00003 12C4.00003 10.8954 3.10459 10 2.00002 10C0.895438 10 0 10.8954 0 12C0 13.1046 0.895438 14 2.00002 14Z" fill="#374957"/>
<path d="M12 14C13.1046 14 14 13.1046 14 12C14 10.8954 13.1046 10 12 10C10.8954 10 10 10.8954 10 12C10 13.1046 10.8954 14 12 14Z" fill="#374957"/>
<path d="M22 14C23.1046 14 24 13.1046 24 12C24 10.8954 23.1046 10 22 10C20.8954 10 19.9999 10.8954 19.9999 12C19.9999 13.1046 20.8954 14 22 14Z" fill="#374957"/>
</svg>
