<svg width="24" height="24" viewBox="0 0 24 24" fill="none" xmlns="http://www.w3.org/2000/svg">
<g clip-path="url(#clip0_406_1808)">
<path d="M22.7919 1.60956L13.2619 13.9996H17.9999C18.2651 13.9996 18.5195 14.1049 18.707 14.2925C18.8945 14.48 18.9999 14.7343 18.9999 14.9996C18.9999 15.2648 18.8945 15.5191 18.707 15.7067C18.5195 15.8942 18.2651 15.9996 17.9999 15.9996H12.9999V17.9996H17.9999C18.2651 17.9996 18.5195 18.1049 18.707 18.2925C18.8945 18.48 18.9999 18.7343 18.9999 18.9996C18.9999 19.2648 18.8945 19.5191 18.707 19.7067C18.5195 19.8942 18.2651 19.9996 17.9999 19.9996H12.9999V22.9996C12.9999 23.2648 12.8945 23.5191 12.707 23.7067C12.5195 23.8942 12.2651 23.9996 11.9999 23.9996C11.7347 23.9996 11.4803 23.8942 11.2928 23.7067C11.1053 23.5191 10.9999 23.2648 10.9999 22.9996V19.9996H5.9999C5.73469 19.9996 5.48033 19.8942 5.2928 19.7067C5.10526 19.5191 4.9999 19.2648 4.9999 18.9996C4.9999 18.7343 5.10526 18.48 5.2928 18.2925C5.48033 18.1049 5.73469 17.9996 5.9999 17.9996H10.9999V15.9996H5.9999C5.73469 15.9996 5.48033 15.8942 5.2928 15.7067C5.10526 15.5191 4.9999 15.2648 4.9999 14.9996C4.9999 14.7343 5.10526 14.48 5.2928 14.2925C5.48033 14.1049 5.73469 13.9996 5.9999 13.9996H10.7379L1.2079 1.60956C1.054 1.39896 0.988477 1.13655 1.02532 0.878314C1.06216 0.620079 1.19844 0.38646 1.4051 0.227291C1.61176 0.0681228 1.87243 -0.00399574 2.13151 0.0263198C2.39059 0.0566353 2.62757 0.186985 2.7919 0.389564L11.9999 12.3596L21.2079 0.389564C21.2866 0.281822 21.3861 0.190929 21.5005 0.122239C21.615 0.0535497 21.742 0.00845325 21.8741 -0.0103931C22.0062 -0.0292394 22.1407 -0.0214543 22.2698 0.0125035C22.3988 0.0464612 22.5198 0.105905 22.6255 0.187332C22.7312 0.268759 22.8196 0.370522 22.8853 0.486626C22.9511 0.60273 22.993 0.730825 23.0085 0.863365C23.024 0.995906 23.0128 1.13021 22.9756 1.25836C22.9384 1.38652 22.876 1.50593 22.7919 1.60956Z" fill="#374957"/>
</g>
<defs>
<clipPath id="clip0_406_1808">
<rect width="24" height="24" fill="white"/>
</clipPath>
</defs>
</svg>
