<svg width="24" height="24" viewBox="0 0 24 24" fill="none" xmlns="http://www.w3.org/2000/svg">
<g clip-path="url(#clip0_406_490)">
<path d="M12 4.243L13.393 5.636L14.272 6.515H17.485V9.728L18.364 10.607L19.757 12L18.364 13.393L17.485 14.272V17.485H14.272L13.393 18.364L12 19.757L10.607 18.364L9.728 17.485H6.515V14.272L5.636 13.393L4.243 12L5.636 10.607L6.515 9.728V6.515H9.728L10.607 5.636L12 4.243ZM12 0L8.485 3.515H3.515V8.485L0 12L3.515 15.515V20.485H8.485L12 24L15.515 20.485H20.485V15.515L24 12L20.485 8.485V3.515H15.515L12 0Z" fill="#374957"/>
</g>
<defs>
<clipPath id="clip0_406_490">
<rect width="24" height="24" fill="white"/>
</clipPath>
</defs>
</svg>
