<svg width="24" height="24" viewBox="0 0 24 24" fill="none" xmlns="http://www.w3.org/2000/svg">
<g clip-path="url(#clip0_406_352)">
<path d="M18.121 0H3C2.20435 0 1.44129 0.31607 0.87868 0.87868C0.31607 1.44129 0 2.20435 0 3L0 24H24V5.879L18.121 0ZM21 21H3V3H6V7H17V3.121L21 7.121V21Z" fill="#374957"/>
<path d="M11.9999 17.9999C14.2091 17.9999 15.9999 16.209 15.9999 13.9999C15.9999 11.7907 14.2091 9.99988 11.9999 9.99988C9.7908 9.99988 7.99994 11.7907 7.99994 13.9999C7.99994 16.209 9.7908 17.9999 11.9999 17.9999Z" fill="#374957"/>
</g>
<defs>
<clipPath id="clip0_406_352">
<rect width="24" height="24" fill="white"/>
</clipPath>
</defs>
</svg>
