<svg width="24" height="24" viewBox="0 0 24 24" fill="none" xmlns="http://www.w3.org/2000/svg">
<g clip-path="url(#clip0_406_4)">
<path d="M23.9 19.391L22.9 13.749C23.3589 13.2677 23.6903 12.6794 23.8643 12.0376C24.0383 11.3958 24.0493 10.7207 23.8963 10.0735C23.7434 9.42639 23.4313 8.82766 22.9884 8.33163C22.5455 7.8356 21.9858 7.45798 21.36 7.233C20.8118 5.16621 19.5978 3.33766 17.9059 2.03019C16.2139 0.722722 14.1383 0.00920165 12 0C9.64339 0.00303732 7.3633 0.836943 5.56078 2.35504C3.75827 3.87315 2.54877 5.97821 2.14502 8.3C2.04502 8.853 1.65402 12 1.65402 12H3.50002C5.10215 11.9208 6.67512 11.5413 8.13702 10.881C8.00862 11.164 7.97132 11.48 8.03026 11.7852C8.08921 12.0903 8.24151 12.3697 8.46609 12.5845C8.69067 12.7994 8.97645 12.9392 9.28393 12.9846C9.5914 13.03 9.90539 12.9787 10.1825 12.838C10.4596 12.6972 10.6861 12.4738 10.8307 12.1987C10.9754 11.9236 11.031 11.6103 10.9899 11.3022C10.9487 10.9942 10.8129 10.7065 10.6012 10.4789C10.3895 10.2514 10.1123 10.0952 9.80802 10.032C11.6568 8.94215 13.2794 7.50793 14.588 5.807C13.8251 5.28604 12.9238 5.00501 12 5H11.345C9.68086 6.83844 7.51244 8.14645 5.11002 8.761C5.4028 7.14625 6.25267 5.68533 7.51165 4.63266C8.77062 3.57998 10.3589 3.00222 12 3C13.6015 3.00647 15.1476 3.58634 16.3584 4.63455C17.5691 5.68276 18.3644 7.12998 18.6 8.714L18.779 9.954L20.034 10C20.2992 10.0045 20.5518 10.1142 20.7361 10.3049C20.9205 10.4956 21.0215 10.7518 21.017 11.017C21.0125 11.2822 20.9028 11.5348 20.7121 11.7191C20.5214 11.9035 20.2652 12.0045 20 12H18.04L17.785 13.186C17.4725 14.5068 16.7394 15.6904 15.6961 16.5586C14.6528 17.4268 13.3557 17.9327 12 18C10.7174 17.9318 9.48668 17.4712 8.4745 16.6804C7.46232 15.8897 6.71755 14.807 6.34102 13.579C5.41274 13.8251 4.45978 13.9664 3.50002 14H1.06102L0.105017 19.391C-0.0270068 19.9404 -0.0327135 20.5125 0.088326 21.0644C0.209365 21.6162 0.453998 22.1335 0.803815 22.5772C1.15363 23.0208 1.59952 23.3794 2.10793 23.6258C2.61634 23.8723 3.17402 24.0002 3.73902 24H10V20.736C11.3101 21.0856 12.6887 21.088 14 20.743V24H20.262C20.827 23.9999 21.3846 23.8717 21.8928 23.6251C22.4011 23.3785 22.8468 23.0198 23.1965 22.5761C23.5462 22.1323 23.7907 21.6151 23.9117 21.0633C24.0327 20.5114 24.027 19.9393 23.895 19.39L23.9 19.391ZM7.00002 21H3.73802C3.62555 21.0001 3.51456 20.9744 3.41356 20.9249C3.31256 20.8754 3.22425 20.8035 3.1554 20.7145C3.08656 20.6256 3.03901 20.5221 3.0164 20.4119C2.9938 20.3017 2.99675 20.1879 3.02502 20.079L3.84202 15.493C4.53619 17.0281 5.6261 18.351 7.00002 19.326V21ZM20.845 20.715C20.7767 20.8046 20.6884 20.8771 20.5872 20.9267C20.486 20.9763 20.3747 21.0018 20.262 21.001H17V19.332C18.3733 18.3585 19.4634 17.0379 20.159 15.505L20.95 19.965L20.975 20.08C21.0041 20.1887 21.0075 20.3026 20.9849 20.4128C20.9624 20.523 20.9145 20.6265 20.845 20.715ZM14.5 13C14.2033 13 13.9133 12.912 13.6667 12.7472C13.42 12.5824 13.2277 12.3481 13.1142 12.074C13.0007 11.7999 12.971 11.4983 13.0288 11.2074C13.0867 10.9164 13.2296 10.6491 13.4394 10.4393C13.6491 10.2296 13.9164 10.0867 14.2074 10.0288C14.4984 9.97094 14.8 10.0006 15.074 10.1142C15.3481 10.2277 15.5824 10.42 15.7472 10.6666C15.912 10.9133 16 11.2033 16 11.5C16 11.8978 15.842 12.2794 15.5607 12.5607C15.2794 12.842 14.8978 13 14.5 13Z" fill="#374957"/>
</g>
<defs>
<clipPath id="clip0_406_4">
<rect width="24" height="24" fill="white"/>
</clipPath>
</defs>
</svg>
