<svg width="24" height="24" viewBox="0 0 24 24" fill="none" xmlns="http://www.w3.org/2000/svg">
<g clip-path="url(#clip0_406_302)">
<path d="M21.5001 -0.000233039H18.1941C17.7344 -0.00139456 17.2791 0.0885967 16.8544 0.264535C16.4298 0.440473 16.0442 0.698866 15.7201 1.02477L8.71208 8.03277C7.74449 7.94402 6.76883 8.03454 5.83408 8.29977C4.49009 8.67746 3.26833 9.40027 2.29022 10.3964C1.3121 11.3925 0.611685 12.6272 0.258564 13.9779C-0.0945571 15.3285 -0.0880859 16.7481 0.277335 18.0955C0.642755 19.4428 1.3544 20.6711 2.34156 21.6583C3.32871 22.6454 4.55701 23.3571 5.90439 23.7225C7.25176 24.0879 8.67131 24.0944 10.022 23.7413C11.3726 23.3882 12.6073 22.6877 13.6035 21.7096C14.5996 20.7315 15.3224 19.5098 15.7001 18.1658C15.9709 17.2139 16.0604 16.2197 15.9641 15.2348L17.0001 14.0718V11.9998H20.0001V8.99977H21.9601L22.9751 8.27977C23.301 7.95561 23.5594 7.57006 23.7353 7.1454C23.9112 6.72075 24.0012 6.26542 24.0001 5.80577V2.49977C24.0001 2.17146 23.9354 1.84637 23.8098 1.54306C23.6841 1.23974 23.5 0.964146 23.2678 0.732C23.0357 0.499854 22.7601 0.315705 22.4568 0.190068C22.1535 0.0644314 21.8284 -0.000233039 21.5001 -0.000233039ZM21.0001 5.80577C20.9998 5.87245 20.9862 5.93841 20.9601 5.99977H17.0001V8.99977H14.0001V12.9278L12.6791 14.2868C12.8867 14.8343 12.9953 15.4143 13.0001 15.9998C13.0001 16.9887 12.7068 17.9554 12.1574 18.7776C11.608 19.5999 10.8271 20.2407 9.9135 20.6192C8.99987 20.9976 7.99453 21.0966 7.02463 20.9037C6.05472 20.7108 5.16381 20.2346 4.46455 19.5353C3.76528 18.836 3.28908 17.9451 3.09615 16.9752C2.90323 16.0053 3.00224 15 3.38068 14.0864C3.75912 13.1727 4.39998 12.3918 5.22223 11.8424C6.04447 11.293 7.01117 10.9998 8.00008 10.9998C8.57315 11.0051 9.14092 11.11 9.67808 11.3098L17.8411 3.14577C17.9348 3.0523 18.0617 2.9998 18.1941 2.99977H21.0001V5.80577ZM5.00008 17.4998C5.00008 17.7964 5.08805 18.0864 5.25287 18.3331C5.4177 18.5798 5.65196 18.7721 5.92605 18.8856C6.20014 18.9991 6.50174 19.0288 6.79271 18.9709C7.08369 18.9131 7.35096 18.7702 7.56074 18.5604C7.77052 18.3506 7.91338 18.0834 7.97126 17.7924C8.02913 17.5014 7.99943 17.1998 7.8859 16.9257C7.77237 16.6517 7.58011 16.4174 7.33343 16.2526C7.08676 16.0877 6.79675 15.9998 6.50008 15.9998C6.10225 15.9998 5.72072 16.1578 5.43942 16.4391C5.15811 16.7204 5.00008 17.1019 5.00008 17.4998Z" fill="#374957"/>
</g>
<defs>
<clipPath id="clip0_406_302">
<rect width="24" height="24" fill="white"/>
</clipPath>
</defs>
</svg>
