<svg width="24" height="24" viewBox="0 0 24 24" fill="none" xmlns="http://www.w3.org/2000/svg">
<g clip-path="url(#clip0_406_119)">
<path d="M21.498 0.00982666H16.0149V3.00059H18.885L14.2274 7.65819C10.178 4.77654 4.55922 5.72319 1.67753 9.77262C-1.20415 13.8221 -0.257466 19.4408 3.79197 22.3225C7.84141 25.2042 13.4602 24.2575 16.3419 20.2081C18.5645 17.0847 18.5645 12.8961 16.3419 9.77267L20.9995 5.11508V7.98519H23.9902V2.50212C23.9903 1.12569 22.8744 0.00982666 21.498 0.00982666ZM9.03649 20.9451C5.73297 20.9451 3.055 18.2671 3.055 14.9636C3.055 11.6601 5.73302 8.98212 9.03649 8.98212C12.34 8.98212 15.018 11.6601 15.018 14.9636C15.0147 18.2657 12.3386 20.9418 9.03649 20.9451Z" fill="#374957"/>
</g>
<defs>
<clipPath id="clip0_406_119">
<rect width="24" height="24" fill="white"/>
</clipPath>
</defs>
</svg>
