<svg width="24" height="24" viewBox="0 0 24 24" fill="none" xmlns="http://www.w3.org/2000/svg">
<g clip-path="url(#clip0_406_42)">
<path d="M24 9.5C24.0022 8.87313 23.836 8.25718 23.5188 7.7165C23.2015 7.17583 22.7449 6.73028 22.1966 6.42641C21.6483 6.12255 21.0284 5.97152 20.4018 5.98911C19.7752 6.0067 19.1648 6.19227 18.6344 6.52641C18.104 6.86056 17.6731 7.33102 17.3867 7.88864C17.1003 8.44626 16.9689 9.07057 17.0062 9.69633C17.0436 10.3221 17.2483 10.9263 17.5991 11.4459C17.9498 11.9655 18.4336 12.3813 19 12.65V16C19 17.3261 18.4732 18.5979 17.5355 19.5355C16.5979 20.4732 15.3261 21 14 21C12.6739 21 11.4021 20.4732 10.4645 19.5355C9.52678 18.5979 9 17.3261 9 16V15.849C10.6928 15.501 12.2138 14.58 13.3067 13.2414C14.3997 11.9027 14.9977 10.2282 15 8.5V3.5C15 2.57174 14.6313 1.6815 13.9749 1.02513C13.3185 0.368749 12.4283 0 11.5 0H9V3H11.5C11.6326 3 11.7598 3.05268 11.8536 3.14645C11.9473 3.24021 12 3.36739 12 3.5V8.5C12 9.69347 11.5259 10.8381 10.682 11.682C9.83807 12.5259 8.69347 13 7.5 13C6.30653 13 5.16193 12.5259 4.31802 11.682C3.47411 10.8381 3 9.69347 3 8.5V3.5C3 3.36739 3.05268 3.24021 3.14645 3.14645C3.24022 3.05268 3.36739 3 3.5 3H6V0H3.5C2.57174 0 1.6815 0.368749 1.02513 1.02513C0.368749 1.6815 0 2.57174 0 3.5L0 8.5C0.00231804 10.2282 0.600342 11.9027 1.69328 13.2414C2.78622 14.58 4.30724 15.501 6 15.849V16C6 18.1217 6.84285 20.1566 8.34315 21.6569C9.84344 23.1571 11.8783 24 14 24C16.1217 24 18.1566 23.1571 19.6569 21.6569C21.1571 20.1566 22 18.1217 22 16V12.65C22.5972 12.3679 23.1021 11.9222 23.4562 11.3646C23.8102 10.807 23.9988 10.1605 24 9.5Z" fill="#374957"/>
</g>
<defs>
<clipPath id="clip0_406_42">
<rect width="24" height="24" fill="white"/>
</clipPath>
</defs>
</svg>
