<svg width="24" height="24" viewBox="0 0 24 24" fill="none" xmlns="http://www.w3.org/2000/svg">
<g clip-path="url(#clip0_406_133)">
<path d="M22.833 1.16704C22.0742 0.442418 21.0653 0.0380859 20.016 0.0380859C18.9667 0.0380859 17.9578 0.442418 17.199 1.16704L7.35 11.017C7.235 11.01 7.121 11 7.005 11C6.21766 10.9979 5.43771 11.152 4.71027 11.4532C3.98284 11.7544 3.32234 12.1969 2.767 12.755C0.716 14.806 0.207001 21.048 0.125001 22.279L0.0130005 23.987L1.721 23.875C2.951 23.793 9.193 23.285 11.244 21.234C11.8369 20.6375 12.2969 19.9223 12.5936 19.1353C12.8904 18.3484 13.0173 17.5075 12.966 16.668L22.833 6.80004C23.5793 6.05269 23.9984 5.0397 23.9984 3.98354C23.9984 2.92738 23.5793 1.9144 22.833 1.16704ZM9.123 19.112C8.445 19.79 5.847 20.4 3.287 20.712C3.601 18.152 4.21 15.554 4.887 14.876C5.16339 14.5904 5.49386 14.3627 5.85915 14.2061C6.22444 14.0495 6.61724 13.9672 7.01467 13.9639C7.4121 13.9607 7.80621 14.0365 8.17402 14.1871C8.54182 14.3377 8.87598 14.56 9.15702 14.841C9.43805 15.1221 9.66034 15.4562 9.81093 15.824C9.96152 16.1918 10.0374 16.5859 10.0341 16.9834C10.0309 17.3808 9.94855 17.7736 9.79195 18.1389C9.63535 18.5042 9.40761 18.8347 9.122 19.111L9.123 19.112ZM20.712 4.67904L11.869 13.522C11.6824 13.2494 11.4733 12.9929 11.244 12.755C11.0092 12.524 10.7564 12.312 10.488 12.121L19.32 3.28904C19.5075 3.11005 19.7568 3.01019 20.016 3.01019C20.2752 3.01019 20.5245 3.11005 20.712 3.28904C20.8961 3.47351 20.9994 3.72346 20.9994 3.98404C20.9994 4.24463 20.8961 4.49457 20.712 4.67904Z" fill="#374957"/>
</g>
<defs>
<clipPath id="clip0_406_133">
<rect width="24" height="24" fill="white"/>
</clipPath>
</defs>
</svg>
