<svg width="24" height="24" viewBox="0 0 24 24" fill="none" xmlns="http://www.w3.org/2000/svg">
<g clip-path="url(#clip0_406_245)">
<path d="M11.9997 7.63776C11.1368 7.63776 10.2933 7.89364 9.57577 8.37305C8.85828 8.85247 8.29906 9.53387 7.96883 10.3311C7.63861 11.1283 7.55221 12.0056 7.72055 12.8519C7.8889 13.6983 8.30444 14.4757 8.91461 15.0859C9.52479 15.696 10.3022 16.1116 11.1485 16.2799C11.9949 16.4483 12.8721 16.3619 13.6694 16.0316C14.4666 15.7014 15.148 15.1422 15.6274 14.4247C16.1068 13.7072 16.3627 12.8637 16.3627 12.0008C16.3614 10.844 15.9013 9.73505 15.0834 8.91711C14.2654 8.09918 13.1565 7.63908 11.9997 7.63776ZM11.9997 13.3638C11.7301 13.3638 11.4666 13.2838 11.2425 13.134C11.0183 12.9843 10.8436 12.7714 10.7405 12.5224C10.6373 12.2733 10.6103 11.9992 10.6629 11.7348C10.7155 11.4705 10.8453 11.2276 11.0359 11.037C11.2266 10.8464 11.4694 10.7165 11.7338 10.6639C11.9982 10.6114 12.2723 10.6383 12.5213 10.7415C12.7704 10.8447 12.9832 11.0194 13.133 11.2435C13.2828 11.4677 13.3627 11.7312 13.3627 12.0008C13.3625 12.3622 13.2188 12.7087 12.9632 12.9643C12.7077 13.2198 12.3611 13.3635 11.9997 13.3638Z" fill="#374957"/>
<path d="M21.9997 12C21.9966 10.7548 21.7592 9.52133 21.2997 8.364L23.1447 7.3L21.6447 4.7L19.8057 5.766C18.2364 3.80251 15.9848 2.50247 13.4997 2.125V0H10.4997V2.125C8.01732 2.50259 5.76809 3.80107 4.19974 5.762L2.35774 4.7L0.857736 7.3L2.69974 8.359C1.77239 10.696 1.77239 13.299 2.69974 15.636L0.854736 16.7L2.35474 19.3L4.19374 18.239C5.76392 20.2006 8.0154 21.4988 10.4997 21.875V24H13.4997V21.875C15.9822 21.4974 18.2314 20.1989 19.7997 18.238L21.6397 19.301L23.1397 16.701L21.2997 15.641C21.7592 14.4819 21.9966 13.2468 21.9997 12ZM11.9997 19C10.6153 19 9.26189 18.5895 8.11074 17.8203C6.9596 17.0511 6.06239 15.9579 5.53258 14.6788C5.00277 13.3997 4.86414 11.9922 5.13424 10.6344C5.40434 9.2765 6.07102 8.02922 7.04999 7.05025C8.02896 6.07128 9.27624 5.4046 10.6341 5.1345C11.992 4.86441 13.3994 5.00303 14.6785 5.53284C15.9576 6.06266 17.0509 6.95986 17.82 8.11101C18.5892 9.26215 18.9997 10.6155 18.9997 12C18.9974 13.8558 18.2591 15.6349 16.9469 16.9471C15.6346 18.2594 13.8555 18.9976 11.9997 19Z" fill="#374957"/>
</g>
<defs>
<clipPath id="clip0_406_245">
<rect width="24" height="24" fill="white"/>
</clipPath>
</defs>
</svg>
