<svg width="24" height="24" viewBox="0 0 24 24" fill="none" xmlns="http://www.w3.org/2000/svg">
<g clip-path="url(#clip0_406_284)">
<path d="M3.01709 13.4997H14.4551L11.7661 16.1887L13.8871 18.3107L18.0761 14.1207C18.6385 13.5581 18.9544 12.7951 18.9544 11.9997C18.9544 11.2042 18.6385 10.4412 18.0761 9.87865L13.8761 5.67865L11.7531 7.79965L14.4531 10.4997H3.01709V13.4997Z" fill="#374957"/>
<path d="M20.5 0H3.49996C2.56497 0.00739899 1.67115 0.38566 1.01488 1.05168C0.35861 1.7177 -0.00642955 2.617 -3.95703e-05 3.552V7.9H2.99996V3.552C2.99646 3.48291 3.00663 3.4138 3.02987 3.34864C3.05312 3.28348 3.08899 3.22354 3.13544 3.17227C3.18189 3.12099 3.23799 3.07938 3.30054 3.04982C3.36309 3.02026 3.43086 3.00333 3.49996 3H20.5C20.6388 3.00674 20.7693 3.06817 20.863 3.17085C20.9567 3.27353 21.0059 3.40913 21 3.548V20.448C21.0059 20.5869 20.9567 20.7225 20.863 20.8251C20.7693 20.9278 20.6388 20.9893 20.5 20.996H3.49996C3.36112 20.9893 3.2306 20.9278 3.13691 20.8251C3.04322 20.7225 2.99398 20.5869 2.99996 20.448V16.1H-3.95703e-05V20.452C-0.00536551 21.3863 0.360145 22.2846 1.0163 22.9497C1.67245 23.6149 2.56566 23.9926 3.49996 24H20.5C21.435 23.9926 22.3288 23.6143 22.985 22.9483C23.6413 22.2823 24.0063 21.383 24 20.448V3.552C24.0063 2.617 23.6413 1.7177 22.985 1.05168C22.3288 0.38566 21.435 0.00739899 20.5 0V0Z" fill="#374957"/>
</g>
<defs>
<clipPath id="clip0_406_284">
<rect width="24" height="24" fill="white"/>
</clipPath>
</defs>
</svg>
