<svg width="24" height="24" viewBox="0 0 24 24" fill="none" xmlns="http://www.w3.org/2000/svg">
<g clip-path="url(#clip0_406_130)">
<path d="M20.5 7H18V3.5C18 2.57174 17.6313 1.6815 16.9749 1.02513C16.3185 0.368749 15.4283 0 14.5 0H9.5C8.57174 0 7.6815 0.368749 7.02513 1.02513C6.36875 1.6815 6 2.57174 6 3.5V7H3.5C2.57174 7 1.6815 7.36875 1.02513 8.02513C0.368749 8.6815 0 9.57174 0 10.5L0 22H2V24H5V22H19V24H22V22H24V10.5C24 9.57174 23.6313 8.6815 22.9749 8.02513C22.3185 7.36875 21.4283 7 20.5 7ZM9 3.5C9 3.36739 9.05268 3.24021 9.14645 3.14645C9.24021 3.05268 9.36739 3 9.5 3H14.5C14.6326 3 14.7598 3.05268 14.8536 3.14645C14.9473 3.24021 15 3.36739 15 3.5V7H9V3.5ZM3 10.5C3 10.3674 3.05268 10.2402 3.14645 10.1464C3.24021 10.0527 3.36739 10 3.5 10H20.5C20.6326 10 20.7598 10.0527 20.8536 10.1464C20.9473 10.2402 21 10.3674 21 10.5V19H3V10.5ZM7 12H17V15H7V12Z" fill="#374957"/>
</g>
<defs>
<clipPath id="clip0_406_130">
<rect width="24" height="24" fill="white"/>
</clipPath>
</defs>
</svg>
