<svg width="24" height="24" viewBox="0 0 24 24" fill="none" xmlns="http://www.w3.org/2000/svg">
<g clip-path="url(#clip0_406_164)">
<path d="M6.5 24.0004H3C2.20435 24.0004 1.44129 23.6843 0.87868 23.1217C0.31607 22.5591 0 21.796 0 21.0004L0 17.5004H6.5V24.0004Z" fill="#374957"/>
<path d="M21.0001 24.0004H17.5001V17.5004H24.0001V21.0004C24.0001 21.796 23.684 22.5591 23.1214 23.1217C22.5588 23.6843 21.7957 24.0004 21.0001 24.0004Z" fill="#374957"/>
<path d="M6.5 8.74976H0V15.2497H6.5V8.74976Z" fill="#374957"/>
<path d="M24.0001 8.74976H17.5001V15.2497H24.0001V8.74976Z" fill="#374957"/>
<path d="M6.5 6.5H0V3C0 2.20435 0.31607 1.44129 0.87868 0.87868C1.44129 0.31607 2.20435 0 3 0L6.5 0V6.5Z" fill="#374957"/>
<path d="M15.2499 17.5004H8.74992V24.0004H15.2499V17.5004Z" fill="#374957"/>
<path d="M15.2499 8.74976H8.74992V15.2497H15.2499V8.74976Z" fill="#374957"/>
<path d="M15.2499 0H8.74992V6.5H15.2499V0Z" fill="#374957"/>
<path d="M24.0001 6.5H17.5001V0H21.0001C21.7957 0 22.5588 0.31607 23.1214 0.87868C23.684 1.44129 24.0001 2.20435 24.0001 3V6.5Z" fill="#374957"/>
</g>
<defs>
<clipPath id="clip0_406_164">
<rect width="24" height="24" fill="white"/>
</clipPath>
</defs>
</svg>
