<svg width="24" height="24" viewBox="0 0 24 24" fill="none" xmlns="http://www.w3.org/2000/svg">
<g clip-path="url(#clip0_406_253)">
<path d="M19 19H0V3.5C0 2.57174 0.368749 1.6815 1.02513 1.02513C1.6815 0.368749 2.57174 0 3.5 0L15.5 0C16.4283 0 17.3185 0.368749 17.9749 1.02513C18.6313 1.6815 19 2.57174 19 3.5V19ZM3 16H16V3.5C15.9982 3.36796 15.9449 3.24183 15.8516 3.14845C15.7582 3.05507 15.632 3.00181 15.5 3H3.5C3.36739 3 3.24021 3.05268 3.14645 3.14645C3.05268 3.24021 3 3.36739 3 3.5V16ZM21 5.051V21H5V24H24V8.5C23.9976 7.66062 23.6931 6.85016 23.1423 6.21684C22.5914 5.58352 21.8309 5.16967 21 5.051Z" fill="#374957"/>
</g>
<defs>
<clipPath id="clip0_406_253">
<rect width="24" height="24" fill="white"/>
</clipPath>
</defs>
</svg>
