<svg width="24" height="24" viewBox="0 0 24 24" fill="none" xmlns="http://www.w3.org/2000/svg">
<g clip-path="url(#clip0_406_213)">
<path d="M21.2552 6.27C20.9384 5.87278 20.536 5.55224 20.078 5.33233C19.62 5.11242 19.1182 4.99882 18.6102 5H15.0642L15.3202 3H20.0002V0H12.6802L12.0392 5H5.39019C4.88896 4.99999 4.39396 5.11113 3.94084 5.32542C3.48772 5.5397 3.08776 5.8518 2.76975 6.23924C2.45175 6.62668 2.22362 7.07981 2.10179 7.56602C1.97996 8.05222 1.96746 8.55939 2.06519 9.051L4.07719 24H19.9232L21.9342 9.056C22.0328 8.57026 22.0231 8.06875 21.9057 7.5872C21.7883 7.10565 21.5662 6.65591 21.2552 6.27ZM18.6102 8C18.6692 7.99774 18.7279 8.00934 18.7817 8.03388C18.8354 8.05841 18.8826 8.0952 18.9196 8.14128C18.9565 8.18737 18.9822 8.24147 18.9944 8.29925C19.0067 8.35703 19.0052 8.41688 18.9902 8.474L18.7842 10H14.4232L14.6792 8H18.6102ZM5.08619 8.146C5.12205 8.09973 5.16819 8.06245 5.22095 8.03711C5.27372 8.01177 5.33166 7.99906 5.39019 8H11.6542L11.4002 10H5.22019L5.01019 8.474C4.99673 8.41717 4.99658 8.35799 5.00977 8.3011C5.02295 8.2442 5.0491 8.19112 5.08619 8.146ZM6.70019 21L5.62419 13H18.3792L17.3002 21H6.70019ZM10.7572 15H13.7822L13.2692 19H10.2442L10.7572 15Z" fill="#374957"/>
</g>
<defs>
<clipPath id="clip0_406_213">
<rect width="24" height="24" fill="white"/>
</clipPath>
</defs>
</svg>
