<svg width="24" height="24" viewBox="0 0 24 24" fill="none" xmlns="http://www.w3.org/2000/svg">
<g clip-path="url(#clip0_406_116)">
<path d="M21.2262 2.7738C19.5889 1.17723 17.4487 0.197613 15.1703 0.00178408C12.8918 -0.194045 10.6159 0.406025 8.73018 1.6998C8.20527 1.10614 7.54649 0.646062 6.80839 0.357659C6.07029 0.0692557 5.27411 -0.0391767 4.48577 0.0413398C3.69743 0.121856 2.93961 0.389005 2.27505 0.820667C1.6105 1.25233 1.05833 1.83609 0.664268 2.5236C0.270204 3.21112 0.0455817 3.98261 0.00899967 4.77421C-0.0275824 5.56581 0.124928 6.35473 0.453904 7.07566C0.782879 7.79659 1.27885 8.42879 1.90076 8.9199C2.52267 9.41101 3.25263 9.74692 4.03018 9.8998C3.98124 11.6582 4.34101 13.404 5.08118 14.9998C5.13258 15.0918 5.15248 15.1981 5.13786 15.3024C5.12323 15.4068 5.07488 15.5035 5.00018 15.5778L1.28218 18.1528C0.911532 18.4429 0.605905 18.8076 0.38507 19.2232C0.164236 19.6389 0.0331125 20.0963 0.000181755 20.5658C-0.0175937 20.9642 0.0492306 21.3619 0.196255 21.7327C0.343279 22.1034 0.567168 22.4388 0.853182 22.7168L1.29818 23.1388C1.85106 23.6904 2.60021 24 3.38118 23.9998C3.81305 23.9796 4.23658 23.8737 4.62714 23.6883C5.01771 23.5029 5.3675 23.2416 5.65618 22.9198L8.40018 18.9998C8.47291 18.9163 8.57128 18.8594 8.67986 18.8378C8.78845 18.8163 8.90111 18.8314 9.00018 18.8808C10.3965 19.5887 11.935 19.9712 13.5002 19.9998C14.0002 19.9998 15.3102 19.8178 15.3412 19.8128C17.4272 19.4956 19.3586 18.5242 20.8572 17.0388C22.7827 15.1412 23.9076 12.5776 24.0002 9.8758C24.0523 8.56474 23.8328 7.25706 23.3554 6.03489C22.878 4.81272 22.1531 3.70245 21.2262 2.7738ZM5.00018 6.9998C4.60462 6.9998 4.21794 6.8825 3.88904 6.66274C3.56014 6.44297 3.3038 6.13062 3.15242 5.76516C3.00105 5.39971 2.96144 4.99758 3.03861 4.60962C3.11578 4.22165 3.30626 3.86529 3.58597 3.58558C3.86567 3.30588 4.22204 3.1154 4.61 3.03823C4.99796 2.96105 5.4001 3.00066 5.76555 3.15204C6.131 3.30341 6.44336 3.55976 6.66312 3.88866C6.88288 4.21755 7.00018 4.60423 7.00018 4.9998C7.00018 5.53023 6.78947 6.03894 6.4144 6.41401C6.03932 6.78908 5.53061 6.9998 5.00018 6.9998ZM18.7362 14.9178C17.8013 15.8435 16.6219 16.4835 15.3362 16.7628L7.74618 9.1708C8.43768 8.71636 9.00559 8.0974 9.39898 7.36944C9.79237 6.64147 9.99895 5.82725 10.0002 4.9998C10.0002 4.8358 9.96718 4.6808 9.95218 4.5208C11.2724 3.48436 12.9191 2.95308 14.5961 3.02256C16.2731 3.09204 17.8702 3.75771 19.1002 4.8998C19.7365 5.5391 20.2337 6.30307 20.5607 7.14373C20.8877 7.98438 21.0373 8.88356 21.0002 9.7848C20.9291 11.7222 20.119 13.5589 18.7362 14.9178Z" fill="#374957"/>
</g>
<defs>
<clipPath id="clip0_406_116">
<rect width="24" height="24" fill="white"/>
</clipPath>
</defs>
</svg>
