<svg width="24" height="24" viewBox="0 0 24 24" fill="none" xmlns="http://www.w3.org/2000/svg">
<g clip-path="url(#clip0_406_118)">
<path d="M13.5 11.281V10.605C13.9663 9.53393 14.7351 8.62227 15.7121 7.98188C16.6891 7.3415 17.8318 7.00025 19 7C19.5304 7 20.0391 6.78929 20.4142 6.41421C20.7893 6.03914 21 5.53043 21 5C21 4.46957 20.7893 3.96086 20.4142 3.58579C20.0391 3.21071 19.5304 3 19 3C17.8318 3.00025 16.6891 3.3415 15.7121 3.98188C14.7351 4.62227 13.9663 5.53393 13.5 6.605V0H10.5V6.605C10.0337 5.53393 9.26488 4.62227 8.28788 3.98188C7.31087 3.3415 6.16817 3.00025 5 3C4.46957 3 3.96086 3.21071 3.58579 3.58579C3.21071 3.96086 3 4.46957 3 5C3 5.53043 3.21071 6.03914 3.58579 6.41421C3.96086 6.78929 4.46957 7 5 7C6.16817 7.00025 7.31087 7.3415 8.28788 7.98188C9.26488 8.62227 10.0337 9.53393 10.5 10.605V11.281C7.57024 10.456 4.54359 10.0252 1.5 10H0V11.5C0 22.376 4.528 24 7.227 24C8.41785 23.9401 9.55688 23.4944 10.472 22.73C10.8977 22.3405 11.4295 22.0864 12 22C12.57 22.0864 13.1014 22.3402 13.527 22.729C14.442 23.4938 15.581 23.9399 16.772 24C19.472 24 24 22.376 24 11.5V10H22.5C19.4564 10.0252 16.4298 10.456 13.5 11.281ZM16.772 21C16.202 20.9136 15.6706 20.6598 15.245 20.271C14.3302 19.5059 13.1911 19.0597 12 19C10.8091 19.0599 9.67012 19.5056 8.755 20.27C8.32947 20.6597 7.79753 20.9138 7.227 21C4.045 21 3.205 16.544 3.036 13.045C5.90875 13.2221 8.7439 13.7903 11.463 14.734L12.001 14.934L12.537 14.734C15.2561 13.7903 18.0913 13.2221 20.964 13.045C20.8 16.544 19.955 21 16.772 21Z" fill="#374957"/>
<path d="M18.6859 15.3707C16.9108 15.655 15.1664 16.106 13.4759 16.7177L12.6759 17.0327C14.5339 17.2147 15.7509 18.7497 16.7289 18.9997C18.0089 19.3277 18.2929 17.7127 18.6859 15.3707Z" fill="#374957"/>
<path d="M5.31409 15.3707C5.70709 17.7127 5.99109 19.3277 7.27209 18.9997C8.25009 18.7497 9.47209 17.2147 11.3251 17.0327L10.5251 16.7177C8.83427 16.1059 7.08956 15.6549 5.31409 15.3707Z" fill="#374957"/>
</g>
<defs>
<clipPath id="clip0_406_118">
<rect width="24" height="24" fill="white"/>
</clipPath>
</defs>
</svg>
