<svg width="24" height="24" viewBox="0 0 24 24" fill="none" xmlns="http://www.w3.org/2000/svg">
<g clip-path="url(#clip0_406_489)">
<path d="M19.436 8.63988L24 4.07388L21.881 1.95288L17.29 6.54388L15.54 4.83388C15.0976 4.40258 14.5089 4.15372 13.8913 4.13685C13.2736 4.11999 12.6723 4.33636 12.207 4.74288C10.4944 6.2971 8.50209 7.51165 6.336 8.32188L0 10.1799V11.2999C0.0382616 14.7016 1.42439 17.9492 3.85425 20.3301C6.28411 22.711 9.55923 24.0308 12.961 23.9999H14.314L14.701 23.7299C16.7175 22.4356 18.3901 20.6715 19.5753 18.589C20.7605 16.5065 21.423 14.1676 21.506 11.7729C21.5156 11.4319 21.4545 11.0926 21.3264 10.7765C21.1984 10.4603 21.0062 10.1741 20.762 9.93588L19.436 8.63988ZM13.36 20.9999H12.96C12.0179 21.0003 11.0803 20.8701 10.174 20.6129C11.4686 19.7822 12.5844 18.7014 13.456 17.4339L13.95 16.7069L11.47 15.0199L10.977 15.7449C10.1575 16.9411 9.04834 17.9103 7.753 18.5619L6.9 18.9899C6.29155 18.5328 5.73788 18.007 5.25 17.4229C6.603 16.8597 7.83708 16.0454 8.887 15.0229L6.787 12.8809C5.90332 13.7384 4.8463 14.3968 3.687 14.8119C3.37531 14.0404 3.16717 13.231 3.068 12.4049L7.18 11.1999C8.71598 10.6917 10.1709 9.96531 11.5 9.04288L17.826 15.1999C16.9499 17.5358 15.3944 19.5559 13.36 20.9999Z" fill="#374957"/>
</g>
<defs>
<clipPath id="clip0_406_489">
<rect width="24" height="24" fill="white"/>
</clipPath>
</defs>
</svg>
