<svg width="24" height="24" viewBox="0 0 24 24" fill="none" xmlns="http://www.w3.org/2000/svg">
<g clip-path="url(#clip0_406_11)">
<path d="M14.5001 5.99939H11.1691V0.210388L1.10006 8.95239L1.02206 9.02439C0.367313 9.68168 -0.000305176 10.5716 -0.000305176 11.4994C-0.000305176 12.4271 0.367313 13.3171 1.02206 13.9744L11.1691 22.7884V16.9994H14.5001C16.2192 17.0012 17.8679 17.6833 19.0858 18.8967C20.3037 20.1101 20.9919 21.7562 21.0001 23.4754V23.9994H24.0001V15.4994C23.9971 12.9807 22.9953 10.5661 21.2144 8.78509C19.4334 7.00412 17.0187 6.0023 14.5001 5.99939ZM14.5001 13.9994H8.16906V16.2104L3.12006 11.8274C3.04098 11.7364 2.99744 11.6199 2.99744 11.4994C2.99744 11.3788 3.04098 11.2624 3.12006 11.1714L8.16906 6.78839V8.99939H14.5001C16.2233 9.0015 17.8754 9.687 19.0939 10.9055C20.3124 12.1241 20.9979 13.7761 21.0001 15.4994V16.5774C19.2418 14.92 16.9163 13.9976 14.5001 13.9994Z" fill="#374957"/>
</g>
<defs>
<clipPath id="clip0_406_11">
<rect width="24" height="24" fill="white"/>
</clipPath>
</defs>
</svg>
