<svg width="24" height="24" viewBox="0 0 24 24" fill="none" xmlns="http://www.w3.org/2000/svg">
<g clip-path="url(#clip0_406_329)">
<path d="M14.2999 14.923C11.9973 13.8538 10.1501 12.0003 9.08888 9.694L12.0519 6.731L5.40988 0.09L1.76488 3.734C1.19939 4.30223 0.752216 4.97698 0.449253 5.7192C0.14629 6.46142 -0.00644712 7.25636 -0.000116123 8.058C-0.000116123 15.209 8.79088 24 15.9419 24C16.7434 24.0064 17.5382 23.8537 18.2803 23.5507C19.0223 23.2478 19.6969 22.8006 20.2649 22.235L23.9099 18.59L17.2689 11.948L14.2999 14.923ZM18.1479 20.114C17.8581 20.3999 17.5144 20.6255 17.1367 20.7776C16.7591 20.9296 16.355 21.0053 15.9479 21C10.9489 21 2.99988 13.934 2.99988 8.058C2.99485 7.65094 3.07056 7.24692 3.22263 6.8693C3.37471 6.49168 3.60014 6.14796 3.88588 5.858L5.40988 4.332L7.80988 6.732L5.54188 9L5.91088 9.919C6.61043 11.7903 7.70417 13.4893 9.11794 14.9009C10.5317 16.3124 12.2325 17.4034 14.1049 18.1L15.0139 18.446L17.2689 16.19L19.6689 18.59L18.1479 20.114ZM23.9999 1V6.5L21.8109 4.311L17.1859 8.936L15.0639 6.814L19.6889 2.189L17.4999 0H22.9999C23.2651 0 23.5195 0.105357 23.707 0.292893C23.8945 0.48043 23.9999 0.734784 23.9999 1Z" fill="#374957"/>
</g>
<defs>
<clipPath id="clip0_406_329">
<rect width="24" height="24" fill="white"/>
</clipPath>
</defs>
</svg>
