<svg width="24" height="24" viewBox="0 0 24 24" fill="none" xmlns="http://www.w3.org/2000/svg">
<g clip-path="url(#clip0_406_201)">
<path d="M12 0C9.62663 0 7.30655 0.703788 5.33316 2.02236C3.35977 3.34094 1.8217 5.21509 0.913451 7.4078C0.00519943 9.60051 -0.232441 12.0133 0.230582 14.3411C0.693605 16.6689 1.83649 18.8071 3.51472 20.4853C5.19295 22.1635 7.33115 23.3064 9.65892 23.7694C11.9867 24.2324 14.3995 23.9948 16.5922 23.0866C18.7849 22.1783 20.6591 20.6402 21.9776 18.6668C23.2962 16.6935 24 14.3734 24 12C23.9966 8.81846 22.7312 5.76821 20.4815 3.51852C18.2318 1.26883 15.1815 0.00344108 12 0V0ZM3.04401 12C3.56201 11.355 6.61601 10 12 10C17.384 10 20.437 11.355 20.956 12C20.437 12.645 17.384 14 12 14C6.61601 14 3.56201 12.645 3.04401 12ZM12 3C13.7061 3.00235 15.3764 3.4896 16.8162 4.40496C18.256 5.32032 19.406 6.62607 20.132 8.17C17.5023 7.34354 14.7561 6.94843 12 7C9.24395 6.94843 6.49773 7.34354 3.86801 8.17C4.59406 6.62607 5.744 5.32032 7.18378 4.40496C8.62357 3.4896 10.2939 3.00235 12 3ZM12 21C10.2939 20.9977 8.62357 20.5104 7.18378 19.595C5.744 18.6797 4.59406 17.3739 3.86801 15.83C6.49773 16.6565 9.24395 17.0516 12 17C14.7561 17.0516 17.5023 16.6565 20.132 15.83C19.406 17.3739 18.256 18.6797 16.8162 19.595C15.3764 20.5104 13.7061 20.9977 12 21Z" fill="#374957"/>
</g>
<defs>
<clipPath id="clip0_406_201">
<rect width="24" height="24" fill="white"/>
</clipPath>
</defs>
</svg>
