<svg width="24" height="24" viewBox="0 0 24 24" fill="none" xmlns="http://www.w3.org/2000/svg">
<g clip-path="url(#clip0_406_316)">
<path d="M13 0C6.72901 0 2.00001 4.084 2.00001 9.5C2.00241 10.0601 2.05867 10.6187 2.16801 11.168C1.60746 11.7286 1.22687 12.4437 1.07492 13.2218C0.922973 13.9999 1.00656 14.8057 1.31501 15.536C0.459145 16.6802 -0.00230044 18.0712 8.20588e-06 19.5C-0.0175589 20.0957 0.0868265 20.6887 0.306755 21.2426C0.526684 21.7966 0.857513 22.2997 1.27893 22.7211C1.70035 23.1425 2.20346 23.4733 2.75737 23.6933C3.31128 23.9132 3.90429 24.0176 4.50001 24L4.51801 21C4.31491 21.0217 4.10955 20.9979 3.91676 20.9304C3.72398 20.863 3.5486 20.7535 3.40332 20.61C3.25804 20.4664 3.14649 20.2923 3.07673 20.1004C3.00698 19.9084 2.98077 19.7033 3.00001 19.5C3.00009 18.8096 3.19601 18.1335 3.56501 17.55C4.88084 17.8934 6.23858 18.0493 7.59801 18.013C7.73201 18.013 7.85701 18.004 7.99101 18.002C9.57639 18.6687 11.2802 19.0082 13 19C19.271 19 24 14.916 24 9.5C24 4.084 19.271 0 13 0V0ZM13 16C12.1294 16.002 11.2621 15.8931 10.419 15.676C9.76062 14.0598 8.88124 12.5426 7.80601 11.168C7.06303 10.4442 6.06625 10.0401 5.02901 10.042C5.01201 9.863 5.00001 9.682 5.00001 9.5C5.00001 5.794 8.43901 3 13 3C17.561 3 21 5.794 21 9.5C21 13.206 17.561 16 13 16Z" fill="#374957"/>
</g>
<defs>
<clipPath id="clip0_406_316">
<rect width="24" height="24" fill="white"/>
</clipPath>
</defs>
</svg>
