<svg width="24" height="24" viewBox="0 0 24 24" fill="none" xmlns="http://www.w3.org/2000/svg">
<g clip-path="url(#clip0_406_234)">
<path d="M21.5002 2.49992C19.8993 0.902204 17.7299 0.00488281 15.4682 0.00488281C13.2064 0.00488281 11.037 0.902204 9.43616 2.49992C6.36116 5.57392 6.02916 12.8199 6.00016 13.6369L5.97816 14.2879L6.78416 15.0939L3.34816 18.5309C3.10875 18.3097 2.81891 18.1504 2.50386 18.0668C2.18882 17.9832 1.85812 17.9779 1.54055 18.0513C1.22297 18.1247 0.928155 18.2746 0.681751 18.488C0.435346 18.7014 0.244824 18.9717 0.126766 19.2755C0.00870892 19.5794 -0.0333055 19.9074 0.00438 20.2312C0.0420655 20.5549 0.158309 20.8646 0.342992 21.1332C0.527676 21.4017 0.775202 21.6211 1.06403 21.7722C1.35285 21.9232 1.67422 22.0014 2.00016 21.9999C1.99866 22.3259 2.07685 22.6472 2.22792 22.9361C2.37898 23.2249 2.59835 23.4724 2.86693 23.6571C3.1355 23.8418 3.44514 23.958 3.7689 23.9957C4.09266 24.0334 4.42073 23.9914 4.72454 23.8733C5.02835 23.7553 5.29871 23.5647 5.51208 23.3183C5.72544 23.0719 5.87536 22.7771 5.94876 22.4595C6.02217 22.142 6.01685 21.8113 5.93326 21.4962C5.84967 21.1812 5.69035 20.8913 5.46916 20.6519L8.90616 17.2149L9.71216 18.0209L10.3632 17.9999C11.1802 17.9719 18.4262 17.6399 21.5012 14.5639C23.0912 12.9589 23.9832 10.791 23.983 8.53171C23.9828 6.27245 23.0905 4.10465 21.5002 2.49992ZM19.3802 12.4419C17.6612 14.1609 13.1502 14.8079 10.9002 14.9659L9.03516 13.0999C9.19316 10.9119 9.84916 6.32792 11.5582 4.61892C16.9002 -0.388081 24.3892 7.12392 19.3802 12.4419Z" fill="#374957"/>
</g>
<defs>
<clipPath id="clip0_406_234">
<rect width="24" height="24" fill="white"/>
</clipPath>
</defs>
</svg>
