<svg width="24" height="24" viewBox="0 0 24 24" fill="none" xmlns="http://www.w3.org/2000/svg">
<g clip-path="url(#clip0_406_153)">
<path d="M24.0002 4.00024H11.0002V7.00024H24.0002V4.00024Z" fill="#374957"/>
<path d="M24.0002 10.9998H11.0002V13.9998H24.0002V10.9998Z" fill="#374957"/>
<path d="M24.0002 18H11.0002V21H24.0002V18Z" fill="#374957"/>
<path d="M9 7.00025L5.3 3.30025C5.19562 3.19581 5.07168 3.11297 4.93527 3.05644C4.79887 2.99992 4.65266 2.97083 4.505 2.97083C4.35734 2.97083 4.21113 2.99992 4.07473 3.05644C3.93832 3.11297 3.81438 3.19581 3.71 3.30025L0 7.00025H3V18.0002H0L3.673 21.6733C3.77656 21.777 3.89955 21.8592 4.03493 21.9154C4.17032 21.9715 4.31544 22.0004 4.462 22.0004C4.60856 22.0004 4.75368 21.9715 4.88907 21.9154C5.02445 21.8592 5.14744 21.777 5.251 21.6733L8.924 18.0002H6V7.00025H9Z" fill="#374957"/>
</g>
<defs>
<clipPath id="clip0_406_153">
<rect width="24" height="24" fill="white"/>
</clipPath>
</defs>
</svg>
