<svg width="24" height="24" viewBox="0 0 24 24" fill="none" xmlns="http://www.w3.org/2000/svg">
<g clip-path="url(#clip0_406_67)">
<path d="M7.99994 9V6H15.9999V9H7.99994ZM21.8139 23.936L19.2999 21.416C18.5922 21.7949 17.8027 21.9953 16.9999 22C16.011 22 15.0443 21.7068 14.2221 21.1573C13.3998 20.6079 12.759 19.827 12.3805 18.9134C12.0021 17.9998 11.9031 16.9945 12.096 16.0245C12.2889 15.0546 12.7651 14.1637 13.4644 13.4645C14.1637 12.7652 15.0546 12.289 16.0245 12.0961C16.9944 11.9031 17.9997 12.0022 18.9134 12.3806C19.827 12.759 20.6079 13.3999 21.1573 14.2221C21.7067 15.0444 21.9999 16.0111 21.9999 17C21.9953 17.8028 21.7948 18.5923 21.4159 19.3L23.9359 21.819L21.8139 23.936ZM18.9999 17C18.9999 16.6044 18.8826 16.2178 18.6629 15.8889C18.4431 15.56 18.1308 15.3036 17.7653 15.1522C17.3999 15.0009 16.9977 14.9613 16.6098 15.0384C16.2218 15.1156 15.8654 15.3061 15.5857 15.5858C15.306 15.8655 15.1155 16.2219 15.0384 16.6098C14.9612 16.9978 15.0008 17.3999 15.1522 17.7654C15.3036 18.1308 15.5599 18.4432 15.8888 18.6629C16.2177 18.8827 16.6044 19 16.9999 19C17.5304 19 18.0391 18.7893 18.4142 18.4142C18.7892 18.0391 18.9999 17.5304 18.9999 17ZM10.0789 21H5.49994C5.36733 21 5.24015 20.9473 5.14639 20.8536C5.05262 20.7598 4.99994 20.6326 4.99994 20.5V3.5C4.99994 3.36739 5.05262 3.24021 5.14639 3.14645C5.24015 3.05268 5.36733 3 5.49994 3H18.9999V9.262C20.095 9.54362 21.1176 10.0549 21.9999 10.762V0H5.49994C4.57168 0 3.68144 0.368749 3.02507 1.02513C2.36869 1.6815 1.99994 2.57174 1.99994 3.5V20.5C1.99994 21.4283 2.36869 22.3185 3.02507 22.9749C3.68144 23.6313 4.57168 24 5.49994 24H13.1299C11.8604 23.2942 10.806 22.2574 10.0789 21Z" fill="#374957"/>
</g>
<defs>
<clipPath id="clip0_406_67">
<rect width="24" height="24" fill="white"/>
</clipPath>
</defs>
</svg>
