<svg width="24" height="24" viewBox="0 0 24 24" fill="none" xmlns="http://www.w3.org/2000/svg">
<g clip-path="url(#clip0_406_136)">
<path d="M19.071 2.93589C18.1432 2.00145 17.0399 1.25948 15.8245 0.752559C14.6092 0.24564 13.3057 -0.0162435 11.9888 -0.0180569C10.672 -0.0198704 9.36773 0.238422 8.15097 0.741992C6.93421 1.24556 5.8289 1.98449 4.89847 2.91637C3.96805 3.84824 3.23083 4.95471 2.72916 6.17225C2.22748 7.38979 1.97122 8.69442 1.97508 10.0113C1.97894 11.3281 2.24285 12.6312 2.75166 13.8458C3.26047 15.0604 4.00416 16.1625 4.94004 17.0889L8.94004 20.9999H5.00004V23.9999H19V20.9999H15.061L19.071 17.0769C20.9441 15.2005 21.9961 12.6576 21.9961 10.0064C21.9961 7.35515 20.9441 4.81224 19.071 2.93589ZM16.962 14.9439L12 19.7999L7.05004 14.9559C6.07165 13.9774 5.40522 12.7309 5.13491 11.3738C4.86461 10.0168 5.00256 8.61005 5.53135 7.33136C6.06013 6.05267 6.95603 4.95938 8.10585 4.1896C9.25568 3.41982 10.6079 3.00809 11.9916 3.00641C13.3753 3.00474 14.7285 3.41319 15.8802 4.18019C17.0318 4.94718 17.9304 6.0383 18.4623 7.31571C18.9941 8.59311 19.1355 9.9995 18.8685 11.3572C18.6015 12.7149 17.938 13.963 16.962 14.9439ZM7.00004 7.08389V13.3129L12 15.8129L17 13.3129V7.08389L12 4.58389L7.00004 7.08389ZM12 12.4589L10 11.4589V8.75889L12 9.75889L14 8.75889V11.4589L12 12.4589Z" fill="#374957"/>
</g>
<defs>
<clipPath id="clip0_406_136">
<rect width="24" height="24" fill="white"/>
</clipPath>
</defs>
</svg>
