<svg width="24" height="24" viewBox="0 0 24 24" fill="none" xmlns="http://www.w3.org/2000/svg">
<g clip-path="url(#clip0_406_436)">
<path d="M24 18.9999V5.49992C24 4.57166 23.6313 3.68142 22.9749 3.02504C22.3185 2.36867 21.4283 1.99992 20.5 1.99992H18.658C18.3036 1.25019 17.6939 0.651106 16.9381 0.309931C16.1823 -0.0312431 15.3297 -0.0922211 14.533 0.137917L13.038 0.569917C12.6673 0.676761 12.3167 0.84364 12 1.06392C11.6851 0.84411 11.3361 0.677869 10.967 0.571917L9.462 0.135917C8.66576 -0.0925365 7.81424 -0.0304962 7.05953 0.310957C6.30482 0.65241 5.69606 1.25104 5.342 1.99992H3.5C2.57174 1.99992 1.6815 2.36867 1.02513 3.02504C0.368749 3.68142 0 4.57166 0 5.49992L0 18.9999H10.5V20.9999H7V23.9999H17V20.9999H13.5V18.9999H24ZM13.5 3.93592C13.4998 3.82631 13.5356 3.71967 13.6019 3.6324C13.6682 3.54513 13.7613 3.48207 13.867 3.45292L15.362 3.02092C15.4362 2.99937 15.5143 2.99529 15.5903 3.009C15.6663 3.0227 15.7381 3.05382 15.8 3.09992C15.8626 3.14599 15.9134 3.20628 15.9482 3.27582C15.983 3.34537 16.0007 3.42217 16 3.49992V7.94692L13.5 8.66392V3.93592ZM8 3.49992C7.99929 3.42217 8.01705 3.34537 8.05182 3.27582C8.08659 3.20628 8.13737 3.14599 8.2 3.09992C8.26036 3.05226 8.33132 3.01983 8.40686 3.00538C8.4824 2.99094 8.56031 2.99489 8.634 3.01692L10.139 3.45292C10.2434 3.48289 10.3352 3.54605 10.4005 3.63283C10.4658 3.71961 10.5011 3.8253 10.501 3.93392V8.66392L8 7.94692V3.49992ZM3 5.49992C3 5.36731 3.05268 5.24013 3.14645 5.14636C3.24021 5.0526 3.36739 4.99992 3.5 4.99992H5V10.2069L12 12.2149L19 10.2069V4.99992H20.5C20.6326 4.99992 20.7598 5.0526 20.8536 5.14636C20.9473 5.24013 21 5.36731 21 5.49992V15.9999H3V5.49992Z" fill="#374957"/>
</g>
<defs>
<clipPath id="clip0_406_436">
<rect width="24" height="24" fill="white"/>
</clipPath>
</defs>
</svg>
