<svg width="24" height="24" viewBox="0 0 24 24" fill="none" xmlns="http://www.w3.org/2000/svg">
<g clip-path="url(#clip0_406_299)">
<path d="M19 21.0002V18.2792L18.438 17.8292C16.066 15.9322 16 13.9732 16 10.5222H18L18.006 7.52218H15.551C15.8598 6.95273 16.0237 6.31598 16.028 5.66818C16.028 4.42418 15.111 2.86018 14.005 1.09518C13.7952 0.760455 13.5038 0.484506 13.1582 0.293221C12.8126 0.101936 12.424 0.00158691 12.029 0.00158691C11.634 0.00158691 11.2454 0.101936 10.8998 0.293221C10.5542 0.484506 10.2628 0.760455 10.053 1.09518C8.942 2.86118 8.026 4.42518 8.026 5.66718C8.03028 6.30891 8.19128 6.93987 8.495 7.50518L6 7.50018V10.5002H8C8 13.9632 7.931 15.9292 5.562 17.8252L5 18.2792V21.0002H3.026V24.0002H21.026V21.0002H19ZM13 10.5152C13 13.2742 13.055 15.7592 14.541 18.0002H9.459C10.943 15.7612 11 13.2732 11 10.5112L13 10.5152Z" fill="#374957"/>
</g>
<defs>
<clipPath id="clip0_406_299">
<rect width="24" height="24" fill="white"/>
</clipPath>
</defs>
</svg>
