<svg width="24" height="24" viewBox="0 0 24 24" fill="none" xmlns="http://www.w3.org/2000/svg">
<g clip-path="url(#clip0_406_341)">
<path d="M20.5 0H3.5C2.57174 0 1.6815 0.368749 1.02513 1.02513C0.368749 1.6815 0 2.57174 0 3.5L0 24H24V3.5C24 2.57174 23.6313 1.6815 22.9749 1.02513C22.3185 0.368749 21.4283 0 20.5 0ZM21 3.5V5H16V3H20.5C20.6326 3 20.7598 3.05268 20.8536 3.14645C20.9473 3.24021 21 3.36739 21 3.5ZM11 3H13V8H11V3ZM3.5 3H8V5H3V3.5C3 3.36739 3.05268 3.24021 3.14645 3.14645C3.24021 3.05268 3.36739 3 3.5 3ZM3 21V8H8V11H16V8H21V21H3ZM14.5 16H19V19H14.5V16Z" fill="#374957"/>
</g>
<defs>
<clipPath id="clip0_406_341">
<rect width="24" height="24" fill="white"/>
</clipPath>
</defs>
</svg>
