<svg width="24" height="24" viewBox="0 0 24 24" fill="none" xmlns="http://www.w3.org/2000/svg">
<g clip-path="url(#clip0_406_19)">
<path d="M8.5 0.99939H0V3.99939H3V6.99939H0V9.99939H19.161C20.0973 11.5206 20.6939 13.2262 20.91 14.9994H0V17.9994H24V16.4994C23.9955 12.3899 22.361 8.45004 19.4552 5.5442C16.5493 2.63837 12.6095 1.00389 8.5 0.99939ZM16.6 6.99939H12V4.49939C13.6929 4.99802 15.2607 5.85011 16.6 6.99939ZM6 3.99939H8.5C8.669 3.99939 8.833 4.01639 9 4.02239V6.99939H6V3.99939ZM0 19.9994H24V22.9994H0V19.9994Z" fill="#374957"/>
</g>
<defs>
<clipPath id="clip0_406_19">
<rect width="24" height="24" fill="white"/>
</clipPath>
</defs>
</svg>
