<svg width="24" height="24" viewBox="0 0 24 24" fill="none" xmlns="http://www.w3.org/2000/svg">
<g clip-path="url(#clip0_406_37)">
<path d="M20.379 5.393C20.1467 4.69621 19.7011 4.09016 19.1052 3.66069C18.5094 3.23121 17.7935 3.00007 17.059 3H16L15.456 1.368C15.3233 0.96959 15.0686 0.623054 14.7279 0.377517C14.3872 0.13198 13.9779 -9.95794e-05 13.558 1.53987e-06H10.442C10.0217 -0.000519829 9.61197 0.131365 9.27091 0.376931C8.92984 0.622498 8.6748 0.969266 8.542 1.368L8 3H6.941C6.20638 3.00014 5.49043 3.23142 4.89456 3.66109C4.2987 4.09076 3.85314 4.69702 3.621 5.394L2.752 8H0V11H1.752L1.1 12.969C0.7538 13.2936 0.477633 13.6856 0.288469 14.1208C0.0993039 14.5561 0.00113703 15.0254 0 15.5L0 21H3V24H7V21H17V24H21V21H24V15.5C23.9989 15.0254 23.9007 14.5561 23.7115 14.1208C23.5224 13.6856 23.2462 13.2936 22.9 12.969L22.248 11H24V8H21.248L20.379 5.393ZM17 16.5C17 16.1022 17.158 15.7206 17.4393 15.4393C17.7206 15.158 18.1022 15 18.5 15C18.8978 15 19.2794 15.158 19.5607 15.4393C19.842 15.7206 20 16.1022 20 16.5C20 16.8978 19.842 17.2794 19.5607 17.5607C19.2794 17.842 18.8978 18 18.5 18C18.1022 18 17.7206 17.842 17.4393 17.5607C17.158 17.2794 17 16.8978 17 16.5ZM6.941 6H17.059C17.1639 6.00008 17.2661 6.03315 17.3512 6.09453C17.4362 6.1559 17.4999 6.24248 17.533 6.342L19.419 12H4.581L6.467 6.342C6.50015 6.24248 6.56376 6.1559 6.64882 6.09453C6.73389 6.03315 6.8361 6.00008 6.941 6ZM5.5 18C5.10218 18 4.72064 17.842 4.43934 17.5607C4.15804 17.2794 4 16.8978 4 16.5C4 16.1022 4.15804 15.7206 4.43934 15.4393C4.72064 15.158 5.10218 15 5.5 15C5.89782 15 6.27936 15.158 6.56066 15.4393C6.84196 15.7206 7 16.1022 7 16.5C7 16.8978 6.84196 17.2794 6.56066 17.5607C6.27936 17.842 5.89782 18 5.5 18Z" fill="#374957"/>
</g>
<defs>
<clipPath id="clip0_406_37">
<rect width="24" height="24" fill="white"/>
</clipPath>
</defs>
</svg>
