<svg width="24" height="24" viewBox="0 0 24 24" fill="none" xmlns="http://www.w3.org/2000/svg">
<path d="M1.00006 23.8001V0.200073L9.00006 5.91107V0.317073L22.1801 9.05807C22.6047 9.36134 22.9508 9.7616 23.1895 10.2256C23.4283 10.6895 23.5529 11.2038 23.5529 11.7256C23.5529 12.2474 23.4283 12.7616 23.1895 13.2256C22.9508 13.6895 22.6047 14.0898 22.1801 14.3931L9.00006 23.8001V18.0891L1.00006 23.8001ZM12.0001 12.2601V17.9751L20.4371 11.9521C20.4734 11.9267 20.503 11.8929 20.5232 11.8535C20.5434 11.8141 20.5537 11.7704 20.5531 11.7261C20.5543 11.6846 20.5459 11.6435 20.5286 11.6058C20.5112 11.5682 20.4854 11.535 20.4531 11.5091L12.0001 5.90607V11.7401L4.00006 6.02607V17.9741L12.0001 12.2601Z" fill="#374957"/>
</svg>
