<svg width="24" height="24" viewBox="0 0 24 24" fill="none" xmlns="http://www.w3.org/2000/svg">
<g clip-path="url(#clip0_406_230)">
<path d="M20.4999 0H15.3789L9.99989 5.379V11.5C7.18489 13.544 3.39989 16.321 2.88789 16.83C2.51243 17.2078 2.24361 17.6783 2.10873 18.1936C1.97385 18.7089 1.9777 19.2507 2.11989 19.764L0.0198975 21.864L2.14089 23.98L4.24089 21.88C4.75427 22.0298 5.29871 22.0373 5.81602 21.9017C6.33333 21.7661 6.80406 21.4924 7.17789 21.11C7.68689 20.601 10.4639 16.81 12.5079 13.998H18.6229L23.9999 8.621V3.5C23.9999 2.57174 23.6311 1.6815 22.9747 1.02513C22.3184 0.368749 21.4281 0 20.4999 0V0ZM20.9999 7.379L17.3789 11H15.1209L19.5609 6.561L17.4389 4.439L12.9999 8.879V6.621L16.6209 3H20.4999C20.6325 3 20.7597 3.05268 20.8534 3.14645C20.9472 3.24021 20.9999 3.36739 20.9999 3.5V7.379Z" fill="#374957"/>
</g>
<defs>
<clipPath id="clip0_406_230">
<rect width="24" height="24" fill="white"/>
</clipPath>
</defs>
</svg>
