<svg width="24" height="24" viewBox="0 0 24 24" fill="none" xmlns="http://www.w3.org/2000/svg">
<g clip-path="url(#clip0_406_369)">
<path d="M24 11.5001C24 10.5718 23.6313 9.68158 22.9749 9.02521C22.3185 8.36883 21.4283 8.00008 20.5 8.00008H19V4.00008H16.329C16.1898 3.61068 15.9717 3.25425 15.6882 2.95317C15.4048 2.6521 15.0622 2.41287 14.6818 2.25051C14.3015 2.08815 13.8918 2.00617 13.4783 2.00971C13.0648 2.01325 12.6565 2.10223 12.279 2.27108C12.0335 1.63038 11.605 1.07599 11.047 0.676816C10.4889 0.277646 9.8258 0.0513112 9.14014 0.0259517C8.45447 0.000592198 7.77647 0.177327 7.19044 0.534181C6.60441 0.891036 6.13619 1.41227 5.844 2.03308C5.17424 1.95353 4.4974 2.10519 3.92561 2.46292C3.35382 2.82065 2.92141 3.36299 2.7 4.00008H0V20.5001C0 21.4283 0.368749 22.3186 1.02513 22.975C1.6815 23.6313 2.57174 24.0001 3.5 24.0001H15.5C16.4283 24.0001 17.3185 23.6313 17.9749 22.975C18.6313 22.3186 19 21.4283 19 20.5001V19.0001H24V11.5001ZM16 20.5001C16 20.6327 15.9473 20.7599 15.8536 20.8536C15.7598 20.9474 15.6326 21.0001 15.5 21.0001H3.5C3.36739 21.0001 3.24021 20.9474 3.14645 20.8536C3.05268 20.7599 3 20.6327 3 20.5001V7.00008H5V13.0001C5 13.5305 5.21071 14.0392 5.58579 14.4143C5.96086 14.7894 6.46957 15.0001 7 15.0001C7.53043 15.0001 8.03914 14.7894 8.41421 14.4143C8.78929 14.0392 9 13.5305 9 13.0001V7.00008H16V20.5001ZM21 16.0001H19V11.0001H20.5C20.6326 11.0001 20.7598 11.0528 20.8536 11.1465C20.9473 11.2403 21 11.3675 21 11.5001V16.0001Z" fill="#374957"/>
</g>
<defs>
<clipPath id="clip0_406_369">
<rect width="24" height="24" fill="white"/>
</clipPath>
</defs>
</svg>
