<svg width="24" height="24" viewBox="0 0 24 24" fill="none" xmlns="http://www.w3.org/2000/svg">
<g clip-path="url(#clip0_406_158)">
<path d="M11.9999 23.4616L11.1339 22.8496C9.99393 22.0436 -7.44136e-05 14.7826 -7.44136e-05 8.14963C-0.0647342 6.29113 0.608994 4.4826 1.87384 3.11938C3.13869 1.75615 4.89179 0.9491 6.74993 0.874634C7.77559 0.884713 8.78464 1.1348 9.6963 1.60487C10.608 2.07493 11.3969 2.75192 11.9999 3.58163C12.603 2.75192 13.3919 2.07493 14.3036 1.60487C15.2152 1.1348 16.2243 0.884713 17.2499 0.874634C19.1081 0.9491 20.8612 1.75615 22.126 3.11938C23.3909 4.4826 24.0646 6.29113 23.9999 8.14963C23.9999 14.7826 14.0059 22.0436 12.8659 22.8496L11.9999 23.4616ZM6.74993 3.87463C5.68789 3.94988 4.69841 4.44102 3.99631 5.24142C3.29421 6.04181 2.93617 7.08685 2.99993 8.14963C2.99993 12.0656 8.86293 17.3596 11.9999 19.7606C15.1369 17.3606 20.9999 12.0656 20.9999 8.14963C21.0637 7.08685 20.7056 6.04181 20.0035 5.24142C19.3014 4.44102 18.312 3.94988 17.2499 3.87463C16.1879 3.94988 15.1984 4.44102 14.4963 5.24142C13.7942 6.04181 13.4362 7.08685 13.4999 8.14963H10.4999C10.5637 7.08685 10.2056 6.04181 9.50354 5.24142C8.80144 4.44102 7.81196 3.94988 6.74993 3.87463Z" fill="#374957"/>
</g>
<defs>
<clipPath id="clip0_406_158">
<rect width="24" height="24" fill="white"/>
</clipPath>
</defs>
</svg>
