<svg width="24" height="24" viewBox="0 0 24 24" fill="none" xmlns="http://www.w3.org/2000/svg">
<g clip-path="url(#clip0_406_428)">
<path d="M24 14.562C24.0016 13.6519 23.8104 12.7518 23.439 11.921L20.663 5.67196C20.3088 4.87684 19.7319 4.20135 19.002 3.72716C18.2721 3.25297 17.4204 3.00039 16.55 2.99996H14.75L14.243 0.969961C14.1739 0.692583 14.014 0.446291 13.7887 0.270281C13.5635 0.0942706 13.2859 -0.00134277 13 -0.00134277C12.7141 -0.00134277 12.4365 0.0942706 12.2113 0.270281C11.986 0.446291 11.8261 0.692583 11.757 0.969961L11.25 2.99996H3.5C2.57174 2.99996 1.6815 3.36871 1.02513 4.02509C0.368749 4.68146 0 5.5717 0 6.49996L0 20H3.05C3.01709 20.1646 3.00034 20.3321 3 20.5C3 21.163 3.26339 21.7989 3.73223 22.2677C4.20107 22.7366 4.83696 23 5.5 23C6.16304 23 6.79893 22.7366 7.26777 22.2677C7.73661 21.7989 8 21.163 8 20.5C7.99966 20.3321 7.98292 20.1646 7.95 20H16.05C16.0171 20.1646 16.0003 20.3321 16 20.5C16 21.163 16.2634 21.7989 16.7322 22.2677C17.2011 22.7366 17.837 23 18.5 23C19.163 23 19.7989 22.7366 20.2678 22.2677C20.7366 21.7989 21 21.163 21 20.5C20.9997 20.3321 20.9829 20.1646 20.95 20H24V14.562ZM21 17H3V6.49996C3 6.36735 3.05268 6.24018 3.14645 6.14641C3.24022 6.05264 3.36739 5.99996 3.5 5.99996H16V13H20.636L20.698 13.14C20.897 13.5875 20.9993 14.0721 20.998 14.562L21 17ZM11 9.99996H13V13H11V15H8V13H6V9.99996H8V7.99996H11V9.99996Z" fill="#374957"/>
</g>
<defs>
<clipPath id="clip0_406_428">
<rect width="24" height="24" fill="white"/>
</clipPath>
</defs>
</svg>
