<svg width="24" height="24" viewBox="0 0 24 24" fill="none" xmlns="http://www.w3.org/2000/svg">
<path d="M20.9998 2.00012H7.75884L0.11084 12.0001L7.75884 22.0001H20.9998C21.7955 22.0001 22.5586 21.6841 23.1212 21.1214C23.6838 20.5588 23.9998 19.7958 23.9998 19.0001V5.00012C23.9998 4.20447 23.6838 3.44141 23.1212 2.8788C22.5586 2.31619 21.7955 2.00012 20.9998 2.00012ZM20.9998 19.0001H9.24084L3.88884 12.0001L9.24084 5.00012H20.9998V19.0001ZM9.93884 13.9391L11.8788 12.0001L9.93884 10.0611L12.0608 7.93912L13.9998 9.87912L15.9388 7.93912L18.0608 10.0611L16.1208 12.0001L18.0608 13.9391L15.9388 16.0611L13.9998 14.1211L12.0608 16.0611L9.93884 13.9391Z" fill="#374957"/>
</svg>
