<svg width="24" height="24" viewBox="0 0 24 24" fill="none" xmlns="http://www.w3.org/2000/svg">
<g clip-path="url(#clip0_406_139)">
<path d="M3.99993 6.99958C3.54011 7.00087 3.08459 6.91094 2.65976 6.735C2.23492 6.55906 1.84921 6.3006 1.52493 5.97458L-0.0610657 4.38958L2.06093 2.26758L3.64593 3.85258C3.7397 3.94631 3.86685 3.99897 3.99943 3.99897C4.13202 3.99897 4.25917 3.94631 4.35293 3.85258L7.93894 0.267578L10.0609 2.38858L6.47494 5.97458C6.15066 6.3006 5.76495 6.55906 5.34011 6.735C4.91528 6.91094 4.45976 7.00087 3.99993 6.99958ZM23.9999 1.99958H11.9999V4.99958H23.9999V1.99958ZM6.47494 13.9746L10.0609 10.3886L7.93894 8.26758L4.35293 11.8536C4.25917 11.9473 4.13202 12 3.99943 12C3.86685 12 3.7397 11.9473 3.64593 11.8536L2.06093 10.2676L-0.0610657 12.3896L1.52493 13.9746C1.84994 14.2996 2.2358 14.5575 2.66046 14.7334C3.08512 14.9093 3.54028 14.9998 3.99993 14.9998C4.45959 14.9998 4.91475 14.9093 5.33941 14.7334C5.76407 14.5575 6.14993 14.2996 6.47494 13.9746ZM23.9999 9.99958H11.9999V12.9996H23.9999V9.99958ZM6.47494 21.9746L10.0609 18.3886L7.93894 16.2676L4.35293 19.8536C4.25917 19.9473 4.13202 20 3.99943 20C3.86685 20 3.7397 19.9473 3.64593 19.8536L2.06093 18.2676L-0.0610657 20.3896L1.52493 21.9746C1.84994 22.2996 2.2358 22.5575 2.66046 22.7334C3.08512 22.9093 3.54028 22.9998 3.99993 22.9998C4.45959 22.9998 4.91475 22.9093 5.33941 22.7334C5.76407 22.5575 6.14993 22.2996 6.47494 21.9746ZM23.9999 17.9996H11.9999V20.9996H23.9999V17.9996Z" fill="#374957"/>
</g>
<defs>
<clipPath id="clip0_406_139">
<rect width="24" height="24" fill="white"/>
</clipPath>
</defs>
</svg>
