<svg width="24" height="24" viewBox="0 0 24 24" fill="none" xmlns="http://www.w3.org/2000/svg">
<g clip-path="url(#clip0_406_279)">
<path d="M21.546 0H2.454C1.8034 0.000793897 1.17968 0.259595 0.719637 0.719637C0.259595 1.17968 0.000793897 1.8034 0 2.454L0 20H6.938L10.987 23.387C11.2731 23.6198 11.6312 23.746 12 23.744C12.3763 23.7439 12.7409 23.6135 13.032 23.375L17.062 20H24V2.454C23.9992 1.8034 23.7404 1.17968 23.2804 0.719637C22.8203 0.259595 22.1966 0.000793897 21.546 0V0ZM21 17H15.972L12 20.322L8.028 17H3V3H21V17Z" fill="#374957"/>
<path d="M12 6H6V9H12V6Z" fill="#374957"/>
<path d="M18 11.0001H6V14.0001H18V11.0001Z" fill="#374957"/>
</g>
<defs>
<clipPath id="clip0_406_279">
<rect width="24" height="24" fill="white"/>
</clipPath>
</defs>
</svg>
