<svg width="24" height="24" viewBox="0 0 24 24" fill="none" xmlns="http://www.w3.org/2000/svg">
<g clip-path="url(#clip0_406_231)">
<path d="M23.9999 7.49939C24.0026 6.10609 23.6163 4.73969 22.8847 3.55396C22.153 2.36822 21.1049 1.41021 19.8584 0.787733C18.6119 0.165251 17.2164 -0.0969985 15.8289 0.0304948C14.4415 0.157988 13.1171 0.670164 12.0049 1.50939C11.1059 0.831545 10.0659 0.364794 8.96192 0.143758C7.85795 -0.077279 6.71837 -0.0469289 5.62773 0.232557C4.53709 0.512042 3.52336 1.03349 2.66175 1.75822C1.80013 2.48296 1.11274 3.39238 0.650561 4.41902C0.188381 5.44567 -0.0367277 6.5632 -0.00806739 7.68872C0.020593 8.81424 0.302287 9.91887 0.816119 10.9207C1.32995 11.9225 2.06274 12.7957 2.96012 13.4757C3.8575 14.1556 4.89645 14.6248 5.99991 14.8484V18.9994H3.99991V21.9994H5.99991V23.9994H8.99991V21.9994H10.9999V18.9994H8.99991V14.8434C10.0894 14.6198 11.1157 14.1574 12.0049 13.4894C12.8898 14.1595 13.9129 14.6237 14.9999 14.8484V18.9994H12.9999V21.9994H14.9999V23.9994H17.9999V21.9994H19.9999V18.9994H17.9999V14.8484C19.6927 14.5004 21.2137 13.5794 22.3066 12.2407C23.3996 10.9021 23.9976 9.22755 23.9999 7.49939ZM2.99991 7.49939C2.99592 6.6831 3.21509 5.88125 3.63372 5.18048C4.05235 4.4797 4.65454 3.90666 5.3752 3.52327C6.09585 3.13988 6.90759 2.96072 7.72267 3.00515C8.53776 3.04959 9.3252 3.31593 9.99991 3.77539C9.34552 4.9074 9.00098 6.19185 9.00098 7.49939C9.00098 8.80693 9.34552 10.0914 9.99991 11.2234C9.3252 11.6828 8.53776 11.9492 7.72267 11.9936C6.90759 12.0381 6.09585 11.8589 5.3752 11.4755C4.65454 11.0921 4.05235 10.5191 3.63372 9.8183C3.21509 9.11753 2.99592 8.31567 2.99991 7.49939ZM11.9999 7.49939C11.9999 6.60937 12.2638 5.73934 12.7583 4.99932C13.2528 4.2593 13.9556 3.68253 14.7778 3.34193C15.6001 3.00134 16.5049 2.91222 17.3778 3.08586C18.2507 3.25949 19.0526 3.68807 19.6819 4.31741C20.3112 4.94674 20.7398 5.74857 20.9134 6.62148C21.0871 7.4944 20.998 8.3992 20.6574 9.22146C20.3168 10.0437 19.74 10.7465 19 11.241C18.26 11.7355 17.3899 11.9994 16.4999 11.9994C15.3068 11.9981 14.163 11.5235 13.3194 10.6799C12.4758 9.83628 12.0012 8.69246 11.9999 7.49939Z" fill="#374957"/>
</g>
<defs>
<clipPath id="clip0_406_231">
<rect width="24" height="24" fill="white"/>
</clipPath>
</defs>
</svg>
