<svg width="24" height="24" viewBox="0 0 24 24" fill="none" xmlns="http://www.w3.org/2000/svg">
<g clip-path="url(#clip0_406_151)">
<path d="M10.5 4H3.5C2.57174 4 1.6815 4.36875 1.02513 5.02513C0.368749 5.6815 0 6.57174 0 7.5L0 11.5C0.00156508 12.083 0.148738 12.6564 0.428155 13.1681C0.707571 13.6797 1.11038 14.1135 1.6 14.43L5.85 24H7.25C7.70822 23.9997 8.15913 23.8851 8.56181 23.6664C8.96448 23.4477 9.30618 23.1319 9.55589 22.7477C9.8056 22.3635 9.95543 21.923 9.99177 21.4663C10.0281 21.0095 9.94982 20.5509 9.764 20.132L7.481 15H10.5C13.149 15 15 16.645 15 19H18V0H15C15 2.355 13.149 4 10.5 4ZM10.5 12H3.5C3.36739 12 3.24021 11.9473 3.14645 11.8536C3.05268 11.7598 3 11.6326 3 11.5V7.5C3 7.36739 3.05268 7.24021 3.14645 7.14645C3.24021 7.05268 3.36739 7 3.5 7H10.5C12.1 7.0181 13.6683 6.55319 15 5.666V13.334C13.6683 12.4468 12.1 11.9819 10.5 12ZM21.061 12.185L23.349 14.473L21.228 16.594L18.939 14.306L21.061 12.185ZM21.1 6.844L18.978 4.723L21.228 2.473L23.349 4.594L21.1 6.844ZM24 8V11H21V8H24Z" fill="#374957"/>
</g>
<defs>
<clipPath id="clip0_406_151">
<rect width="24" height="24" fill="white"/>
</clipPath>
</defs>
</svg>
