<svg width="24" height="24" viewBox="0 0 24 24" fill="none" xmlns="http://www.w3.org/2000/svg">
<g clip-path="url(#clip0_406_188)">
<path d="M16 4V3.5C16 2.57174 15.6313 1.6815 14.9749 1.02513C14.3185 0.368749 13.4283 0 12.5 0H0V24H3V14H10V14.5C10 15.4283 10.3687 16.3185 11.0251 16.9749C11.6815 17.6313 12.5717 18 13.5 18H24V4H16ZM3 3H12.5C12.6326 3 12.7598 3.05268 12.8536 3.14645C12.9473 3.24021 13 3.36739 13 3.5V11H3V3ZM21 15H13.5C13.3674 15 13.2402 14.9473 13.1464 14.8536C13.0527 14.7598 13 14.6326 13 14.5V14H16V7H21V15Z" fill="#374957"/>
</g>
<defs>
<clipPath id="clip0_406_188">
<rect width="24" height="24" fill="white"/>
</clipPath>
</defs>
</svg>
