<svg width="24" height="24" viewBox="0 0 24 24" fill="none" xmlns="http://www.w3.org/2000/svg">
<g clip-path="url(#clip0_406_463)">
<path d="M17.4849 23.3L23.9999 16.785L21.8789 14.664L15.7999 20.741L12.6999 17.551L10.5419 19.63L14.0539 23.246C14.2733 23.4806 14.5379 23.6684 14.8318 23.7979C15.1257 23.9275 15.4428 23.9963 15.7639 24H15.7999C16.1131 24.0002 16.4232 23.9385 16.7124 23.8183C17.0015 23.6982 17.2641 23.522 17.4849 23.3ZM9.99993 6V11.379L7.43893 13.939L9.56093 16.061L12.9999 12.621V6H9.99993Z" fill="#374957"/>
<path d="M12 -5.76715e-05C9.07983 -0.00224372 6.25921 1.06117 4.06731 2.99067C1.87542 4.92017 0.462881 7.58315 0.0947137 10.48C-0.273454 13.3769 0.428049 16.3085 2.06761 18.725C3.70717 21.1414 6.17212 22.8766 9 23.6049V20.4749C7.39859 19.9127 5.98845 18.9098 4.93184 17.5815C3.87523 16.2533 3.21508 14.6537 3.02735 12.9669C2.83963 11.2801 3.13195 9.57453 3.87069 8.04649C4.60942 6.51845 5.76456 5.23003 7.20317 4.32946C8.64179 3.4289 10.3054 2.95279 12.0027 2.95592C13.6999 2.95905 15.3618 3.44129 16.7971 4.34715C18.2323 5.25301 19.3827 6.54569 20.1158 8.07644C20.8489 9.6072 21.1349 11.3138 20.941 12.9999H23.949C23.977 12.6689 24 12.3379 24 11.9999C23.9966 8.8184 22.7312 5.76815 20.4815 3.51846C18.2318 1.26877 15.1815 0.00338341 12 -5.76715e-05Z" fill="#374957"/>
</g>
<defs>
<clipPath id="clip0_406_463">
<rect width="24" height="24" fill="white"/>
</clipPath>
</defs>
</svg>
