<svg width="24" height="24" viewBox="0 0 24 24" fill="none" xmlns="http://www.w3.org/2000/svg">
<g clip-path="url(#clip0_406_115)">
<path d="M17.5 7H16V5H18V0H6V5H8V7H6.5C5.57174 7 4.6815 7.36875 4.02513 8.02513C3.36875 8.6815 3 9.57174 3 10.5V24H21V10.5C21 9.57174 20.6313 8.6815 19.9749 8.02513C19.3185 7.36875 18.4283 7 17.5 7ZM18 21H6V10.5C6 10.3674 6.05268 10.2402 6.14645 10.1464C6.24021 10.0527 6.36739 10 6.5 10H11V5H13V10H17.5C17.6326 10 17.7598 10.0527 17.8536 10.1464C17.9473 10.2402 18 10.3674 18 10.5V21ZM13.5 14H16V17H13.5V19.5H10.5V17H8V14H10.5V11.5H13.5V14Z" fill="#374957"/>
</g>
<defs>
<clipPath id="clip0_406_115">
<rect width="24" height="24" fill="white"/>
</clipPath>
</defs>
</svg>
