<svg width="24" height="24" viewBox="0 0 24 24" fill="none" xmlns="http://www.w3.org/2000/svg">
<g clip-path="url(#clip0_406_143)">
<path d="M24 12C23.9994 9.33736 23.1081 6.75147 21.468 4.65397L23.061 3.06097L20.939 0.93897L19.346 2.53197C17.2488 0.891275 14.6627 -0.00012207 12 -0.00012207C9.33726 -0.00012207 6.75118 0.891275 4.65399 2.53197L3.06099 0.93897L0.938985 3.06097L2.53199 4.65397C0.89129 6.75116 -0.000106812 9.33725 -0.000106812 12C-0.000106812 14.6627 0.89129 17.2488 2.53199 19.346L0.938985 20.939L3.06099 23.061L4.65399 21.468C6.75118 23.1087 9.33726 24.0001 12 24.0001C14.6627 24.0001 17.2488 23.1087 19.346 21.468L20.939 23.061L23.061 20.939L21.468 19.346C23.1081 17.2485 23.9994 14.6626 24 12ZM21 12C20.9999 13.8673 20.4152 15.6878 19.328 17.206L16.65 14.529C17.0878 13.758 17.318 12.8866 17.318 12C17.318 11.1134 17.0878 10.2419 16.65 9.47097L19.328 6.79397C20.4152 8.31215 20.9999 10.1326 21 12ZM9.68199 12C9.68199 11.5415 9.81793 11.0934 10.0726 10.7122C10.3273 10.331 10.6894 10.0339 11.1129 9.85842C11.5365 9.68297 12.0026 9.63707 12.4522 9.72651C12.9019 9.81595 13.3149 10.0367 13.6391 10.3609C13.9632 10.6851 14.184 11.0981 14.2734 11.5478C14.3629 11.9974 14.317 12.4635 14.1415 12.887C13.9661 13.3106 13.669 13.6726 13.2878 13.9273C12.9066 14.182 12.4584 14.318 12 14.318C11.3855 14.3172 10.7963 14.0727 10.3618 13.6382C9.92725 13.2036 9.68278 12.6145 9.68199 12ZM12 2.99997C13.8673 3.00005 15.6878 3.58473 17.206 4.67197L14.529 7.34997C13.758 6.91212 12.8866 6.68192 12 6.68192C11.1134 6.68192 10.2419 6.91212 9.47099 7.34997L6.79399 4.67197C8.31217 3.58473 10.1326 3.00005 12 2.99997ZM2.99999 12C3.00007 10.1326 3.58474 8.31215 4.67199 6.79397L7.34999 9.47097C6.91213 10.2419 6.68194 11.1134 6.68194 12C6.68194 12.8866 6.91213 13.758 7.34999 14.529L4.67199 17.206C3.58474 15.6878 3.00007 13.8673 2.99999 12ZM12 21C10.1326 20.9999 8.31217 20.4152 6.79399 19.328L9.47099 16.65C10.2419 17.0878 11.1134 17.318 12 17.318C12.8866 17.318 13.758 17.0878 14.529 16.65L17.206 19.328C15.6878 20.4152 13.8673 20.9999 12 21Z" fill="#374957"/>
</g>
<defs>
<clipPath id="clip0_406_143">
<rect width="24" height="24" fill="white"/>
</clipPath>
</defs>
</svg>
