<svg width="24" height="24" viewBox="0 0 24 24" fill="none" xmlns="http://www.w3.org/2000/svg">
<g clip-path="url(#clip0_406_30)">
<path d="M20.4711 3.5297C18.3934 1.43981 15.6181 0.189233 12.6762 0.0171549C9.73422 -0.154923 6.83209 0.763579 4.52487 2.59698C2.21765 4.43038 0.667278 7.04999 0.170302 9.95475C-0.326674 12.8595 0.264628 15.8455 1.83111 18.3417L4.02311 16.1487C3.30624 14.7782 2.95533 13.2458 3.00435 11.6999C3.05338 10.154 3.50068 8.64696 4.30295 7.32462C5.10522 6.00229 6.23529 4.90947 7.58376 4.15196C8.93224 3.39445 10.4534 2.9979 12.0001 3.0007C14.3843 3.00902 16.6683 3.96066 18.3531 5.6477L16.0001 8.0007H21.9091C22.0524 8.00083 22.1943 7.9727 22.3268 7.91792C22.4592 7.86314 22.5795 7.78278 22.6809 7.68144C22.7822 7.58011 22.8626 7.45979 22.9173 7.32736C22.9721 7.19493 23.0002 7.05301 23.0001 6.9097V1.0007L20.4711 3.5297Z" fill="#374957"/>
<path d="M19.9999 24.0006C18.939 24.0006 17.9216 23.5792 17.1714 22.829C16.4213 22.0789 15.9999 21.0615 15.9999 20.0006V15.0006C15.9999 13.9397 16.4213 12.9223 17.1714 12.1722C17.9216 11.422 18.939 11.0006 19.9999 11.0006C21.0607 11.0006 22.0781 11.422 22.8283 12.1722C23.5784 12.9223 23.9999 13.9397 23.9999 15.0006V20.0006C23.9999 21.0615 23.5784 22.0789 22.8283 22.829C22.0781 23.5792 21.0607 24.0006 19.9999 24.0006ZM19.9999 14.0006C19.7347 14.0006 19.4803 14.106 19.2928 14.2935C19.1052 14.481 18.9999 14.7354 18.9999 15.0006V20.0006C18.9999 20.2658 19.1052 20.5202 19.2928 20.7077C19.4803 20.8953 19.7347 21.0006 19.9999 21.0006C20.2651 21.0006 20.5194 20.8953 20.707 20.7077C20.8945 20.5202 20.9999 20.2658 20.9999 20.0006V15.0006C20.9999 14.7354 20.8945 14.481 20.707 14.2935C20.5194 14.106 20.2651 14.0006 19.9999 14.0006Z" fill="#374957"/>
<path d="M14.0001 23.9997H11.0001V16.1217L9.31109 17.8107L7.18909 15.6897L11.4391 11.4397C11.6488 11.2298 11.9161 11.0869 12.207 11.0289C12.498 10.9709 12.7996 11.0006 13.0737 11.114C13.3479 11.2275 13.5822 11.4197 13.7471 11.6663C13.912 11.913 14 12.203 14.0001 12.4997V23.9997Z" fill="#374957"/>
</g>
<defs>
<clipPath id="clip0_406_30">
<rect width="24" height="24" fill="white"/>
</clipPath>
</defs>
</svg>
