<svg width="24" height="24" viewBox="0 0 24 24" fill="none" xmlns="http://www.w3.org/2000/svg">
<path d="M9.00009 15.0004H15.0001V18.0004H9.00009V15.0004ZM13.4391 5.93939L12.0001 7.37939L10.5611 5.93939L8.43909 8.06139L9.87909 9.50039L8.43909 10.9394L10.5611 13.0614L12.0001 11.6214L13.4391 13.0614L15.5611 10.9394L14.1211 9.50039L15.5611 8.06139L13.4391 5.93939ZM17.0001 18.0004H23.0001V15.0004H17.0001V18.0004ZM23.5611 8.06139L21.4391 5.93939L20.0001 7.37939L18.5611 5.93939L16.4391 8.06139L17.8791 9.50039L16.4391 10.9394L18.5611 13.0614L20.0001 11.6214L21.4391 13.0614L23.5611 10.9394L22.1211 9.50039L23.5611 8.06139ZM1.00009 18.0004H7.00009V15.0004H1.00009V18.0004ZM5.43909 5.93939L4.00009 7.37939L2.56109 5.93939L0.439087 8.06139L1.87909 9.50039L0.439087 10.9394L2.56109 13.0614L4.00009 11.6214L5.43909 13.0614L7.56109 10.9394L6.12109 9.50039L7.56109 8.06139L5.43909 5.93939Z" fill="#374957"/>
</svg>
