<svg width="24" height="24" viewBox="0 0 24 24" fill="none" xmlns="http://www.w3.org/2000/svg">
<g clip-path="url(#clip0_406_229)">
<path d="M24 7V1C24 0.734784 23.8946 0.48043 23.7071 0.292893C23.5196 0.105357 23.2652 0 23 0L17 0L19.439 2.439L16.905 4.974C15.868 4.32811 14.6688 3.99025 13.4472 3.99982C12.2255 4.00938 11.0317 4.36596 10.005 5.028C9.20884 4.51389 8.30989 4.1801 7.37114 4.05001C6.43239 3.91993 5.47655 3.99669 4.5706 4.27494C3.66464 4.55318 2.83049 5.02617 2.12659 5.66075C1.42269 6.29534 0.866074 7.07618 0.495742 7.94855C0.125411 8.82092 -0.0496767 9.76371 -0.0172512 10.7109C0.0151743 11.658 0.254328 12.5867 0.683453 13.4317C1.11258 14.2767 1.72129 15.0176 2.46694 15.6026C3.21259 16.1875 4.07714 16.6024 5 16.818V19H3V22H5V24H8V22H10V19H8V16.819C8.71193 16.6527 9.3903 16.3662 10.006 15.972C11.244 16.7662 12.7151 17.1161 14.1781 16.9644C15.6411 16.8126 17.0091 16.1682 18.0577 15.1368C19.1063 14.1054 19.7733 12.7482 19.9492 11.288C20.1252 9.82768 19.7996 8.35095 19.026 7.1L21.561 4.566L24 7ZM3 10.5C2.99902 9.92207 3.14141 9.35292 3.41441 8.84354C3.68742 8.33416 4.08252 7.90045 4.56431 7.58126C5.04611 7.26208 5.59956 7.0674 6.17507 7.01464C6.75059 6.96189 7.33021 7.05272 7.862 7.279C7.29728 8.25854 7.00002 9.36933 7.00002 10.5C7.00002 11.6307 7.29728 12.7415 7.862 13.721C7.33021 13.9473 6.75059 14.0381 6.17507 13.9854C5.59956 13.9326 5.04611 13.7379 4.56431 13.4187C4.08252 13.0996 3.68742 12.6658 3.41441 12.1565C3.14141 11.6471 2.99902 11.0779 3 10.5ZM13.5 14C12.8078 14 12.1311 13.7947 11.5555 13.4101C10.9799 13.0256 10.5313 12.4789 10.2664 11.8394C10.0015 11.1999 9.9322 10.4961 10.0673 9.81718C10.2023 9.13825 10.5356 8.51461 11.0251 8.02513C11.5146 7.53564 12.1383 7.2023 12.8172 7.06725C13.4961 6.9322 14.1999 7.00151 14.8394 7.26642C15.4789 7.53133 16.0256 7.97993 16.4101 8.5555C16.7947 9.13108 17 9.80777 17 10.5C17 11.4283 16.6313 12.3185 15.9749 12.9749C15.3185 13.6313 14.4283 14 13.5 14Z" fill="#374957"/>
</g>
<defs>
<clipPath id="clip0_406_229">
<rect width="24" height="24" fill="white"/>
</clipPath>
</defs>
</svg>
