<svg width="24" height="24" viewBox="0 0 24 24" fill="none" xmlns="http://www.w3.org/2000/svg">
<g clip-path="url(#clip0_406_219)">
<path d="M16.514 4.21261C15.392 3.25961 14.232 2.27561 13.068 1.11261L12 0.0476074L10.941 1.11361C9.35472 2.8462 8.216 4.94032 7.62403 7.21361C7.60903 7.16161 7.59503 7.11361 7.58103 7.05661L6.94703 4.59961L5.10003 6.33361C3.24503 8.07261 1.53103 10.1536 1.53003 13.5796C1.51053 15.8928 2.26456 18.1461 3.67234 19.9817C5.08012 21.8172 7.06091 23.1297 9.30003 23.7106C10.1793 23.9336 11.0829 24.0468 11.99 24.0476C13.3657 24.0497 14.7283 23.7805 15.9998 23.2555C17.2713 22.7304 18.4269 21.9598 19.4003 20.9877C20.3736 20.0156 21.1458 18.8611 21.6726 17.5903C22.1993 16.3195 22.4703 14.9573 22.47 13.5816C22.47 9.26961 19.709 6.92561 16.514 4.21261ZM16.583 19.4736C16.474 19.5576 16.358 19.6276 16.246 19.7056C16.4766 19.1499 16.5955 18.5542 16.596 17.9526C16.596 15.4136 14.296 14.4006 11.996 12.1026C9.48903 14.6096 7.39603 15.4136 7.39603 17.9526C7.4006 18.5897 7.5382 19.2188 7.80003 19.7996C6.78763 19.11 5.96039 18.1819 5.39119 17.0973C4.82199 16.0126 4.52831 14.8045 4.53603 13.5796C4.51064 12.3339 4.91182 11.117 5.67303 10.1306C5.78203 10.3026 5.89703 10.4686 6.01903 10.6306C6.2804 10.9836 6.63925 11.2525 7.05144 11.4042C7.46363 11.556 7.91118 11.5839 8.33903 11.4846C8.77305 11.3877 9.16996 11.1679 9.48226 10.8513C9.79457 10.5347 10.0091 10.1349 10.1 9.69961C10.4536 7.81854 11.1458 6.01732 12.143 4.38361C12.987 5.15961 13.813 5.86061 14.569 6.50361C17.787 9.23461 19.469 10.7906 19.469 13.5816C19.4716 14.7192 19.2127 15.8421 18.7123 16.8638C18.2119 17.8854 17.4834 18.7783 16.583 19.4736Z" fill="#374957"/>
</g>
<defs>
<clipPath id="clip0_406_219">
<rect width="24" height="24" fill="white"/>
</clipPath>
</defs>
</svg>
