<svg width="24" height="24" viewBox="0 0 24 24" fill="none" xmlns="http://www.w3.org/2000/svg">
<g clip-path="url(#clip0_406_332)">
<path d="M24 4V7H20V11H17V7H13V4H17V0H20V4H24ZM21 21H3V11.2L8.239 16.44C8.73276 16.934 9.319 17.3258 9.96424 17.5932C10.6095 17.8605 11.3011 17.9981 11.9995 17.9981C12.6979 17.9981 13.3895 17.8605 14.0348 17.5932C14.68 17.3258 15.2662 16.934 15.76 16.44L18.217 13.984C17.0357 13.946 15.8754 13.6609 14.811 13.147L13.639 14.319C13.1975 14.7407 12.6105 14.976 12 14.976C11.3895 14.976 10.8025 14.7407 10.361 14.319L3 6.96V6.5C3 6.36739 3.05268 6.24021 3.14645 6.14645C3.24021 6.05268 3.36739 6 3.5 6H10.025C10.016 5.834 10 5.669 10 5.5C9.99969 4.65263 10.1261 3.80998 10.375 3H3.5C2.57174 3 1.6815 3.36875 1.02513 4.02513C0.368749 4.6815 0 5.57174 0 6.5L0 24H24V11.974C23.1229 12.7229 22.102 13.2848 21 13.625V21Z" fill="#374957"/>
</g>
<defs>
<clipPath id="clip0_406_332">
<rect width="24" height="24" fill="white"/>
</clipPath>
</defs>
</svg>
