<svg width="24" height="24" viewBox="0 0 24 24" fill="none" xmlns="http://www.w3.org/2000/svg">
<g clip-path="url(#clip0_406_403)">
<path d="M14.9999 13H8.99988V10H14.9999V13ZM22.9999 14V19.5C22.9986 20.6931 22.524 21.8369 21.6804 22.6805C20.8368 23.5241 19.6929 23.9987 18.4999 24H5.49988C4.30681 23.9987 3.16299 23.5241 2.31936 22.6805C1.47573 21.8369 1.0012 20.6931 0.999878 19.5V14H2.99988V13C3.00216 11.3259 3.4713 9.6857 4.35458 8.26363C5.23785 6.84156 6.50025 5.69402 7.99988 4.95V4C7.99988 2.93913 8.42131 1.92172 9.17145 1.17157C9.9216 0.421427 10.939 0 11.9999 0C13.0607 0 14.0782 0.421427 14.8283 1.17157C15.5785 1.92172 15.9999 2.93913 15.9999 4V4.95C17.4995 5.69402 18.7619 6.84156 19.6452 8.26363C20.5285 9.6857 20.9976 11.3259 20.9999 13V14H22.9999ZM5.99988 13V17.726C6.74759 16.8698 7.66987 16.1836 8.70476 15.7134C9.73965 15.2432 10.8632 15 11.9999 15C13.1366 15 14.2601 15.2432 15.295 15.7134C16.3299 16.1836 17.2522 16.8698 17.9999 17.726V13C17.9999 11.4087 17.3677 9.88258 16.2425 8.75736C15.1173 7.63214 13.5912 7 11.9999 7C10.4086 7 8.88246 7.63214 7.75724 8.75736C6.63202 9.88258 5.99988 11.4087 5.99988 13ZM11.9999 18C11.0281 18.0013 10.0778 18.2857 9.26509 18.8185C8.4524 19.3513 7.81258 20.1094 7.42388 21H16.5759C16.1872 20.1094 15.5474 19.3513 14.7347 18.8185C13.922 18.2857 12.9716 18.0013 11.9999 18Z" fill="#374957"/>
</g>
<defs>
<clipPath id="clip0_406_403">
<rect width="24" height="24" fill="white"/>
</clipPath>
</defs>
</svg>
