<svg width="24" height="24" viewBox="0 0 24 24" fill="none" xmlns="http://www.w3.org/2000/svg">
<g clip-path="url(#clip0_406_388)">
<path d="M11 9.5C11 9.79667 10.912 10.0867 10.7472 10.3334C10.5824 10.58 10.3481 10.7723 10.074 10.8858C9.79994 10.9994 9.49834 11.0291 9.20736 10.9712C8.91639 10.9133 8.64912 10.7704 8.43934 10.5607C8.22956 10.3509 8.0867 10.0836 8.02882 9.79264C7.97094 9.50166 8.00065 9.20006 8.11418 8.92597C8.22771 8.65189 8.41997 8.41762 8.66665 8.2528C8.91332 8.08797 9.20333 8 9.5 8C9.89782 8 10.2794 8.15804 10.5607 8.43934C10.842 8.72064 11 9.10218 11 9.5ZM14.5 11C14.7967 11 15.0867 10.912 15.3334 10.7472C15.58 10.5824 15.7723 10.3481 15.8858 10.074C15.9994 9.79994 16.0291 9.49834 15.9712 9.20736C15.9133 8.91639 15.7704 8.64912 15.5607 8.43934C15.3509 8.22956 15.0836 8.0867 14.7926 8.02882C14.5017 7.97094 14.2001 8.00065 13.926 8.11418C13.6519 8.22771 13.4176 8.41997 13.2528 8.66665C13.088 8.91332 13 9.20333 13 9.5C13 9.89782 13.158 10.2794 13.4393 10.5607C13.7206 10.842 14.1022 11 14.5 11ZM9.5 13C9.20333 13 8.91332 13.088 8.66665 13.2528C8.41997 13.4176 8.22771 13.6519 8.11418 13.926C8.00065 14.2001 7.97094 14.5017 8.02882 14.7926C8.0867 15.0836 8.22956 15.3509 8.43934 15.5607C8.64912 15.7704 8.91639 15.9133 9.20736 15.9712C9.49834 16.0291 9.79994 15.9994 10.074 15.8858C10.3481 15.7723 10.5824 15.58 10.7472 15.3334C10.912 15.0867 11 14.7967 11 14.5C11 14.1022 10.842 13.7206 10.5607 13.4393C10.2794 13.158 9.89782 13 9.5 13ZM14.5 13C14.2033 13 13.9133 13.088 13.6666 13.2528C13.42 13.4176 13.2277 13.6519 13.1142 13.926C13.0006 14.2001 12.9709 14.5017 13.0288 14.7926C13.0867 15.0836 13.2296 15.3509 13.4393 15.5607C13.6491 15.7704 13.9164 15.9133 14.2074 15.9712C14.4983 16.0291 14.7999 15.9994 15.074 15.8858C15.3481 15.7723 15.5824 15.58 15.7472 15.3334C15.912 15.0867 16 14.7967 16 14.5C16 14.1022 15.842 13.7206 15.5607 13.4393C15.2794 13.158 14.8978 13 14.5 13ZM24 4V20H0V4H24ZM5 17H19V7H5V17Z" fill="#374957"/>
</g>
<defs>
<clipPath id="clip0_406_388">
<rect width="24" height="24" fill="white"/>
</clipPath>
</defs>
</svg>
