<svg width="24" height="24" viewBox="0 0 24 24" fill="none" xmlns="http://www.w3.org/2000/svg">
<g clip-path="url(#clip0_406_150)">
<path d="M12 24C9.62663 24 7.30655 23.2962 5.33316 21.9776C3.35977 20.6591 1.8217 18.7849 0.913451 16.5922C0.00519943 14.3995 -0.232441 11.9867 0.230582 9.65892C0.693605 7.33115 1.83649 5.19295 3.51472 3.51472C5.19295 1.83649 7.33115 0.693605 9.65892 0.230582C11.9867 -0.232441 14.3995 0.00519943 16.5922 0.913451C18.7849 1.8217 20.6591 3.35977 21.9776 5.33316C23.2962 7.30655 24 9.62663 24 12C23.9966 15.1815 22.7312 18.2318 20.4815 20.4815C18.2318 22.7312 15.1815 23.9966 12 24ZM12 3.00001C10.22 3.00001 8.47992 3.52785 6.99987 4.51678C5.51983 5.50571 4.36628 6.91132 3.68509 8.55585C3.0039 10.2004 2.82567 12.01 3.17294 13.7558C3.5202 15.5016 4.37737 17.1053 5.63604 18.364C6.89472 19.6226 8.49836 20.4798 10.2442 20.8271C11.99 21.1743 13.7996 20.9961 15.4442 20.3149C17.0887 19.6337 18.4943 18.4802 19.4832 17.0001C20.4722 15.5201 21 13.78 21 12C20.9974 9.61387 20.0483 7.32622 18.361 5.63897C16.6738 3.95171 14.3861 3.00265 12 3.00001Z" fill="#374957"/>
<path d="M10.4998 14.1544C10.4851 13.3831 10.6771 12.6219 11.0561 11.9499C11.4351 11.278 11.9871 10.7198 12.6548 10.3334C12.866 10.218 13.0429 10.0488 13.1676 9.84293C13.2923 9.63706 13.3602 9.40188 13.3646 9.16126C13.369 8.92063 13.3096 8.68313 13.1926 8.47286C13.0755 8.26259 12.9048 8.08705 12.698 7.96404C12.4911 7.84103 12.2554 7.77495 12.0148 7.77249C11.7741 7.77003 11.5371 7.83129 11.3278 7.95005C11.1184 8.06881 10.9443 8.24083 10.8229 8.44867C10.7016 8.6565 10.6374 8.89274 10.6368 9.13341H7.63684C7.63673 8.49445 7.77694 7.86327 8.04755 7.28445C8.31815 6.70563 8.71256 6.19329 9.20291 5.78363C9.69326 5.37397 10.2676 5.07699 10.8853 4.91366C11.503 4.75033 12.1491 4.72464 12.7778 4.83841C13.666 4.99861 14.4826 5.43022 15.1152 6.0738C15.7479 6.71737 16.1655 7.54126 16.3105 8.432C16.4554 9.32274 16.3207 10.2365 15.9248 11.0475C15.5289 11.8585 14.8913 12.5268 14.0998 12.9604C13.9046 13.09 13.7466 13.2684 13.6413 13.4778C13.5361 13.6872 13.4873 13.9204 13.4998 14.1544H10.4998Z" fill="#374957"/>
<path d="M13.5649 15.9943H10.5649V18.9943H13.5649V15.9943Z" fill="#374957"/>
</g>
<defs>
<clipPath id="clip0_406_150">
<rect width="24" height="24" fill="white"/>
</clipPath>
</defs>
</svg>
