<svg width="24" height="24" viewBox="0 0 24 24" fill="none" xmlns="http://www.w3.org/2000/svg">
<g clip-path="url(#clip0_406_87)">
<path d="M12 0C9.62663 0 7.30655 0.703788 5.33316 2.02236C3.35977 3.34094 1.8217 5.21509 0.913451 7.4078C0.00519943 9.60051 -0.232441 12.0133 0.230582 14.3411C0.693605 16.6689 1.83649 18.8071 3.51472 20.4853C5.19295 22.1635 7.33115 23.3064 9.65892 23.7694C11.9867 24.2324 14.3995 23.9948 16.5922 23.0866C18.7849 22.1783 20.6591 20.6402 21.9776 18.6668C23.2962 16.6935 24 14.3734 24 12C23.9966 8.81846 22.7312 5.76821 20.4815 3.51852C18.2318 1.26883 15.1815 0.00344108 12 0V0ZM20.617 9.415L17.746 10.276C17.4601 9.32549 16.9431 8.46065 16.2412 7.75879C15.5394 7.05693 14.6745 6.53992 13.724 6.254L14.585 3.383C16.0098 3.81325 17.3061 4.58912 18.3585 5.64152C19.4109 6.69393 20.1868 7.99022 20.617 9.415ZM12 15.818L9.13601 12L12 8.182L14.864 12L12 15.818ZM9.41501 3.383L10.276 6.254C9.3255 6.53992 8.46065 7.05693 7.75879 7.75879C7.05693 8.46065 6.53993 9.32549 6.25401 10.276L3.38301 9.415C3.81358 7.99039 4.58955 6.69426 5.64191 5.6419C6.69427 4.58955 7.99039 3.81357 9.41501 3.383ZM3.38301 14.583L6.25401 13.722C6.54009 14.6724 7.05715 15.5372 7.75898 16.239C8.46082 16.9409 9.32558 17.4579 10.276 17.744L9.41501 20.615C7.99062 20.1846 6.69464 19.4089 5.6423 18.357C4.58996 17.305 3.81386 16.0092 3.38301 14.585V14.583ZM14.583 20.615L13.722 17.744C14.6724 17.4579 15.5372 16.9409 16.239 16.239C16.9409 15.5372 17.4579 14.6724 17.744 13.722L20.615 14.583C20.1852 16.0079 19.4098 17.3045 18.3577 18.3572C17.3057 19.41 16.0096 20.1863 14.585 20.617L14.583 20.615Z" fill="#374957"/>
</g>
<defs>
<clipPath id="clip0_406_87">
<rect width="24" height="24" fill="white"/>
</clipPath>
</defs>
</svg>
