<svg width="24" height="24" viewBox="0 0 24 24" fill="none" xmlns="http://www.w3.org/2000/svg">
<g clip-path="url(#clip0_406_73)">
<path d="M21.0001 12.0008C21.0088 14.0934 20.2912 16.1242 18.9695 17.7466C17.6479 19.3691 15.8042 20.4826 13.7531 20.8973C11.702 21.312 9.57054 21.002 7.72246 20.0204C5.87437 19.0388 4.42419 17.4462 3.61936 15.5146C2.81453 13.5829 2.70493 11.4319 3.30926 9.4284C3.9136 7.42495 5.19442 5.69329 6.93316 4.5289C8.6719 3.36451 10.7608 2.83955 12.8435 3.0436C14.9261 3.24765 16.8734 4.16806 18.3531 5.64779L16.0001 8.00079H21.9091C22.0524 8.00092 22.1943 7.97279 22.3267 7.91801C22.4592 7.86323 22.5795 7.78287 22.6808 7.68153C22.7822 7.5802 22.8625 7.45988 22.9173 7.32745C22.9721 7.19502 23.0002 7.0531 23.0001 6.90979V1.00079L20.4711 3.52979C18.5068 1.57486 15.9256 0.361377 13.167 0.0960623C10.4085 -0.169252 7.64326 0.530008 5.34242 2.07473C3.04159 3.61945 1.34745 5.91407 0.548614 8.56773C-0.250225 11.2214 -0.104357 14.0699 0.961371 16.6281C2.0271 19.1862 3.94676 21.2958 6.39336 22.5974C8.83995 23.899 11.6621 24.3122 14.3792 23.7665C17.0962 23.2208 19.54 21.75 21.2943 19.6046C23.0485 17.4593 24.0048 14.7721 24.0001 12.0008H21.0001Z" fill="#374957"/>
</g>
<defs>
<clipPath id="clip0_406_73">
<rect width="24" height="24" fill="white"/>
</clipPath>
</defs>
</svg>
