<svg width="24" height="24" viewBox="0 0 24 24" fill="none" xmlns="http://www.w3.org/2000/svg">
<g clip-path="url(#clip0_406_320)">
<path d="M12.0002 0.00598145L0.496398 18.9694L0.487398 18.9844C-0.445273 20.5634 0.0787421 22.5995 1.65777 23.5322C2.16909 23.8342 2.75202 23.9936 3.34588 23.9937H20.6545C22.4884 23.9933 23.9747 22.5063 23.9744 20.6724C23.9742 20.0727 23.8117 19.4842 23.504 18.9694L12.0002 0.00598145ZM20.9369 20.8368C20.8811 20.9401 20.7719 21.0033 20.6545 21.0004H16.4127L12.0002 13.967L7.58676 21.0004H3.34593C3.1657 21.0001 3.01982 20.8537 3.0202 20.6734C3.02029 20.6173 3.03487 20.5622 3.06248 20.5134L12.0002 5.78281L20.935 20.5124C20.9957 20.6118 20.9964 20.7366 20.9369 20.8368Z" fill="#374957"/>
</g>
<defs>
<clipPath id="clip0_406_320">
<rect width="24" height="24" fill="white"/>
</clipPath>
</defs>
</svg>
