<svg width="24" height="24" viewBox="0 0 24 24" fill="none" xmlns="http://www.w3.org/2000/svg">
<g clip-path="url(#clip0_406_454)">
<path d="M23.6249 19.759L14.9299 0.628L14.6259 0H12.9999V24H20.8939C21.3958 24 21.8896 23.874 22.3303 23.6336C22.7709 23.3933 23.1441 23.0462 23.4159 22.6242C23.6876 22.2022 23.8491 21.7188 23.8856 21.2183C23.9221 20.7177 23.8325 20.2159 23.6249 19.759Z" fill="#374957"/>
<path d="M10.9998 3.993V0H9.5158L0.799802 19.175C0.563287 19.6948 0.461044 20.2657 0.502448 20.8354C0.543852 21.405 0.727576 21.9551 1.03678 22.4353C1.34598 22.9154 1.77077 23.3103 2.27221 23.5837C2.77365 23.8571 3.33568 24.0002 3.9068 24H10.9998V21H3.9068C3.83782 20.9998 3.76998 20.9825 3.70943 20.9494C3.64888 20.9164 3.59755 20.8687 3.56009 20.8108C3.52263 20.7529 3.50025 20.6865 3.49496 20.6177C3.48967 20.549 3.50164 20.48 3.5298 20.417L10.9998 3.993Z" fill="#374957"/>
</g>
<defs>
<clipPath id="clip0_406_454">
<rect width="24" height="24" fill="white"/>
</clipPath>
</defs>
</svg>
