<svg width="24" height="24" viewBox="0 0 24 24" fill="none" xmlns="http://www.w3.org/2000/svg">
<g clip-path="url(#clip0_406_487)">
<path d="M18 0H13.312V1.5C13.3168 1.67541 13.2865 1.85001 13.2227 2.01348C13.1589 2.17695 13.063 2.32598 12.9407 2.45176C12.8183 2.57754 12.672 2.67752 12.5103 2.74579C12.3487 2.81406 12.175 2.84923 11.9995 2.84923C11.824 2.84923 11.6503 2.81406 11.4887 2.74579C11.327 2.67752 11.1807 2.57754 11.0583 2.45176C10.936 2.32598 10.8401 2.17695 10.7763 2.01348C10.7125 1.85001 10.6822 1.67541 10.687 1.5V0H6C5.20435 0 4.44129 0.31607 3.87868 0.87868C3.31607 1.44129 3 2.20435 3 3V24H10.687V22.5C10.6822 22.3246 10.7125 22.15 10.7763 21.9865C10.8401 21.823 10.936 21.674 11.0583 21.5482C11.1807 21.4225 11.327 21.3225 11.4887 21.2542C11.6503 21.1859 11.824 21.1508 11.9995 21.1508C12.175 21.1508 12.3487 21.1859 12.5103 21.2542C12.672 21.3225 12.8183 21.4225 12.9407 21.5482C13.063 21.674 13.1589 21.823 13.2227 21.9865C13.2865 22.15 13.3168 22.3246 13.312 22.5V24H21V3C21 2.20435 20.6839 1.44129 20.1213 0.87868C19.5587 0.31607 18.7956 0 18 0V0ZM16.05 21C15.7519 20.1644 15.2027 19.4415 14.4776 18.9304C13.7526 18.4192 12.8871 18.1448 12 18.1448C11.1129 18.1448 10.2474 18.4192 9.52237 18.9304C8.7973 19.4415 8.24808 20.1644 7.95 21H6V16H8V13H6V3H7.95C8.24808 3.83556 8.7973 4.55847 9.52237 5.06963C10.2474 5.58079 11.1129 5.85518 12 5.85518C12.8871 5.85518 13.7526 5.58079 14.4776 5.06963C15.2027 4.55847 15.7519 3.83556 16.05 3H18V13H16V16H18V21H16.05Z" fill="#374957"/>
<path d="M14.0001 12.9994H10.0001V15.9994H14.0001V12.9994Z" fill="#374957"/>
</g>
<defs>
<clipPath id="clip0_406_487">
<rect width="24" height="24" fill="white"/>
</clipPath>
</defs>
</svg>
