<svg width="24" height="24" viewBox="0 0 24 24" fill="none" xmlns="http://www.w3.org/2000/svg">
<g clip-path="url(#clip0_406_66)">
<path d="M24.0002 21.8866L18.9201 16.8065C22.3965 12.1665 21.4533 5.58682 16.8133 2.11038C12.1733 -1.36606 5.59357 -0.422844 2.11713 4.21718C-1.3593 8.8572 -0.416039 15.4369 4.22398 18.9133C7.95199 21.7064 13.0747 21.7088 16.8054 18.9192L21.8855 23.9994L24.0002 21.8866ZM3.08201 10.5519C3.08201 6.42588 6.42682 3.08111 10.5528 3.08111C14.6788 3.08111 18.0236 6.42593 18.0236 10.5519C18.0236 14.6779 14.6788 18.0227 10.5528 18.0227C6.4286 18.0184 3.08637 14.6761 3.08201 10.5519ZM15.0094 9.53093C15.0094 12.1129 10.5269 15.2834 10.5269 15.2834C10.5269 15.2834 6.04441 12.1128 6.04441 9.53093C5.98577 8.2324 6.98745 7.13056 8.28565 7.06559C9.58413 7.13009 10.5861 8.23221 10.5269 9.53093C10.4682 8.2324 11.4699 7.13056 12.7681 7.06559C14.0666 7.13004 15.0686 8.23221 15.0094 9.53093Z" fill="#374957"/>
</g>
<defs>
<clipPath id="clip0_406_66">
<rect width="24" height="24" fill="white"/>
</clipPath>
</defs>
</svg>
