<svg width="24" height="24" viewBox="0 0 24 24" fill="none" xmlns="http://www.w3.org/2000/svg">
<g clip-path="url(#clip0_406_96)">
<path d="M15.942 23.942C8.79095 23.942 -4.7849e-05 15.152 -4.7849e-05 8C-0.0065023 7.1984 0.146279 6.4035 0.449434 5.6614C0.752588 4.91931 1.20008 4.2448 1.76595 3.677L5.40995 0.033L12.052 6.674L9.08895 9.637C10.1503 11.9427 11.9975 13.7956 14.3 14.864L17.274 11.891L23.915 18.532L20.27 22.178C19.7012 22.7438 19.0258 23.1911 18.2828 23.4939C17.5399 23.7968 16.7442 23.949 15.942 23.942ZM5.40995 4.275L3.88595 5.8C3.60003 6.08982 3.37448 6.43353 3.22239 6.81117C3.0703 7.18882 2.99469 7.59291 2.99995 8C2.99995 13.875 10.949 20.942 15.942 20.942C16.349 20.9472 16.7529 20.8717 17.1306 20.7198C17.5082 20.5679 17.8519 20.3426 18.142 20.057L19.667 18.532L17.267 16.132L15.012 18.387L14.103 18.041C12.231 17.3442 10.5308 16.2532 9.11737 14.8419C7.70397 13.4306 6.61046 11.7319 5.91095 9.861L5.54195 8.942L7.80995 6.674L5.40995 4.275ZM23 0H20V8H23V0ZM18 0H15V8H18V0Z" fill="#374957"/>
</g>
<defs>
<clipPath id="clip0_406_96">
<rect width="24" height="24" fill="white"/>
</clipPath>
</defs>
</svg>
