<svg width="24" height="24" viewBox="0 0 24 24" fill="none" xmlns="http://www.w3.org/2000/svg">
<g clip-path="url(#clip0_406_362)">
<path d="M9.49994 8.00003C9.79661 8.00003 10.0866 8.088 10.3333 8.25282C10.58 8.41765 10.7722 8.65191 10.8858 8.926C10.9993 9.20009 11.029 9.50169 10.9711 9.79266C10.9132 10.0836 10.7704 10.3509 10.5606 10.5607C10.3508 10.7705 10.0835 10.9133 9.79258 10.9712C9.50161 11.0291 9.20001 10.9994 8.92592 10.8858C8.65183 10.7723 8.41756 10.5801 8.25274 10.3334C8.08791 10.0867 7.99994 9.7967 7.99994 9.50003C7.99994 9.1022 8.15798 8.72067 8.43928 8.43937C8.72059 8.15806 9.10212 8.00003 9.49994 8.00003ZM20.4999 7.00003C19.5898 7.00024 18.7157 7.3557 18.0637 7.99072C17.4117 8.62574 17.0332 9.49017 17.009 10.4C16.9848 11.3098 17.3166 12.1932 17.9339 12.862C18.5511 13.5309 19.4051 13.9323 20.3139 13.981C19.5092 15.8536 18.2239 17.4804 16.5884 18.6966C14.9528 19.9128 13.0249 20.6754 10.9999 20.907V18.867C13.1925 18.5145 15.1919 17.4041 16.6499 15.729C15.8171 15.1151 15.1424 14.3116 14.6819 13.385C13.8345 14.5167 12.6408 15.3409 11.2823 15.7323C9.92371 16.1237 8.47451 16.061 7.15484 15.5537C5.83516 15.0464 4.71713 14.1223 3.9706 12.9216C3.22406 11.7209 2.88982 10.3094 3.01864 8.90148C3.14747 7.49354 3.73232 6.16612 4.68436 5.12088C5.63639 4.07564 6.90358 3.36971 8.2934 3.11032C9.68323 2.85094 11.1197 3.05228 12.3847 3.68375C13.6497 4.31523 14.6739 5.34233 15.3019 6.60903C15.9186 5.78576 16.7215 5.12026 17.6449 4.66703C16.8307 3.29285 15.6827 2.14655 14.3073 1.33444C12.9319 0.522329 11.3736 0.0707111 9.77713 0.0214757C8.18062 -0.0277597 6.59753 0.326982 5.17469 1.0528C3.75185 1.77861 2.53535 2.85199 1.63801 4.17339C0.74068 5.49478 0.19158 7.02138 0.0416413 8.6116C-0.108297 10.2018 0.145783 11.8041 0.780315 13.27C1.41485 14.7358 2.40928 16.0176 3.67138 16.9966C4.93348 17.9756 6.42236 18.62 7.99994 18.87V24H9.49994C17.4999 24 23.9999 17.944 23.9999 10.5C23.9999 9.57177 23.6312 8.68153 22.9748 8.02516C22.3184 7.36878 21.4282 7.00003 20.4999 7.00003Z" fill="#374957"/>
</g>
<defs>
<clipPath id="clip0_406_362">
<rect width="24" height="24" fill="white"/>
</clipPath>
</defs>
</svg>
