<svg width="24" height="24" viewBox="0 0 24 24" fill="none" xmlns="http://www.w3.org/2000/svg">
<g clip-path="url(#clip0_406_322)">
<path d="M19.834 15.072C20.4616 14.7013 20.9877 14.1813 21.3656 13.558C21.7435 12.9348 21.9615 12.2278 22 11.5C22 9.173 19.748 7.273 16.374 6.447C16.7751 5.87641 16.9934 5.19743 17 4.5C17 1.977 14.145 0 10.5 0C6.855 0 4 1.977 4 4.5C4.02307 5.11189 4.19113 5.70956 4.49033 6.24381C4.78953 6.77806 5.21133 7.23362 5.721 7.573C4.95783 7.92458 4.30287 8.47432 3.82431 9.16498C3.34576 9.85564 3.06111 10.662 3 11.5C3.02987 12.167 3.21535 12.8178 3.54161 13.4003C3.86787 13.9829 4.32587 14.481 4.879 14.855C2.023 15.646 0 17 0 19C0 22.454 6.027 24 12 24C17.973 24 24 22.454 24 19C24 17.173 22.306 15.885 19.834 15.072ZM19 11.5C19 12.495 16.407 14 12.5 14C8.593 14 6 12.5 6 11.5C6 10.5 8.592 9 12.5 9C16.408 9 19 10.505 19 11.5ZM10.5 3C12.671 3 14 3.971 14 4.5C14 5.029 12.671 6 10.5 6C8.329 6 7 5.029 7 4.5C7 3.971 8.329 3 10.5 3ZM12 21C6.615 21 3.562 19.644 3.043 19C3.562 18.356 6.615 17 12 17C17.385 17 20.438 18.356 20.956 19C20.438 19.644 17.385 21 12 21Z" fill="#374957"/>
</g>
<defs>
<clipPath id="clip0_406_322">
<rect width="24" height="24" fill="white"/>
</clipPath>
</defs>
</svg>
