<svg width="24" height="24" viewBox="0 0 24 24" fill="none" xmlns="http://www.w3.org/2000/svg">
<g clip-path="url(#clip0_406_258)">
<path d="M12 10.5008C12 10.2041 12.088 9.9141 12.2528 9.66743C12.4176 9.42076 12.6519 9.2285 12.926 9.11497C13.2001 9.00143 13.5017 8.97173 13.7926 9.02961C14.0836 9.08748 14.3509 9.23035 14.5607 9.44012C14.7704 9.6499 14.9133 9.91718 14.9712 10.2081C15.0291 10.4991 14.9994 10.8007 14.8858 11.0748C14.7723 11.3489 14.58 11.5832 14.3334 11.748C14.0867 11.9128 13.7967 12.0008 13.5 12.0008C13.1022 12.0008 12.7206 11.8427 12.4393 11.5614C12.158 11.2801 12 10.8986 12 10.5008ZM16.5 9.00078C16.7967 9.00078 17.0867 8.91281 17.3334 8.74799C17.58 8.58317 17.7723 8.3489 17.8858 8.07481C17.9993 7.80072 18.0291 7.49912 17.9712 7.20815C17.9133 6.91718 17.7704 6.6499 17.5607 6.44012C17.3509 6.23035 17.0836 6.08749 16.7926 6.02961C16.5017 5.97173 16.2001 6.00143 15.926 6.11497C15.6519 6.2285 15.4176 6.42076 15.2528 6.66743C15.088 6.9141 15 7.20411 15 7.50079C15 7.89861 15.158 8.28014 15.4393 8.56145C15.7206 8.84275 16.1022 9.00078 16.5 9.00078ZM10.5 15.0008C10.7967 15.0008 11.0867 14.9128 11.3334 14.748C11.58 14.5832 11.7723 14.3489 11.8858 14.0748C11.9994 13.8007 12.0291 13.4991 11.9712 13.2081C11.9133 12.9172 11.7704 12.6499 11.5607 12.4401C11.3509 12.2303 11.0836 12.0875 10.7926 12.0296C10.5017 11.9717 10.2001 12.0014 9.92597 12.115C9.65189 12.2285 9.41762 12.4208 9.2528 12.6674C9.08797 12.9141 9 13.2041 9 13.5008C9 13.8986 9.15804 14.2801 9.43934 14.5614C9.72064 14.8427 10.1022 15.0008 10.5 15.0008ZM23.841 3.55379L23.766 3.76279C22.278 7.88879 20.86 11.8138 17.943 15.3008C17.4689 18.6865 15.7713 21.7813 13.171 24.0008H9V20.6678L7.227 18.8948L5.2 20.9208L3.08 18.8008L5.106 16.7738L3.333 15.0008H0V10.8298C2.17562 8.13279 5.32377 6.39854 8.766 6.00079C12.236 3.12079 16.138 1.71279 20.238 0.234785L20.447 0.159785C20.9206 -0.0108607 21.4329 -0.0432043 21.9242 0.0665341C22.4155 0.176272 22.8653 0.42356 23.2213 0.7795C23.5772 1.13544 23.8245 1.58533 23.9343 2.0766C24.044 2.56786 24.0116 3.08022 23.841 3.55379ZM20.768 3.23279C16.412 4.80579 12.635 6.24078 9.4 9.47278C8.1966 10.7533 7.13696 12.1617 6.24 13.6728L10.328 17.7608C11.8383 16.8631 13.2466 15.8039 14.528 14.6018C17.76 11.3658 19.2 7.58879 20.768 3.23279Z" fill="#374957"/>
</g>
<defs>
<clipPath id="clip0_406_258">
<rect width="24" height="24" fill="white"/>
</clipPath>
</defs>
</svg>
