<svg width="24" height="24" viewBox="0 0 24 24" fill="none" xmlns="http://www.w3.org/2000/svg">
<g clip-path="url(#clip0_406_266)">
<path d="M12 6H9V9H6V12H9V15H12V12H15V9H12V6Z" fill="#374957"/>
<path d="M18.9199 16.8051C22.3935 12.1629 21.4463 5.58384 16.8041 2.11021C12.162 -1.36341 5.58292 -0.416162 2.1093 4.22596C-1.36433 8.86809 -0.417078 15.4472 4.22505 18.9208C7.95391 21.711 13.0753 21.711 16.8041 18.9208L21.8843 24.0009L24 21.8892L18.9199 16.8051ZM10.5526 18.0243C6.42658 18.0243 3.08177 14.6795 3.08177 10.5535C3.08177 6.42749 6.42658 3.08268 10.5526 3.08268C14.6785 3.08268 18.0234 6.42749 18.0234 10.5535C18.0195 14.6779 14.677 18.0204 10.5526 18.0243Z" fill="#374957"/>
</g>
<defs>
<clipPath id="clip0_406_266">
<rect width="24" height="24" fill="white"/>
</clipPath>
</defs>
</svg>
