<svg width="24" height="24" viewBox="0 0 24 24" fill="none" xmlns="http://www.w3.org/2000/svg">
<g clip-path="url(#clip0_406_318)">
<path d="M21.546 0H13V3H18.879L0 21.879L2.121 24L21 5.121V11H24V2.454C23.9992 1.8034 23.7404 1.17968 23.2804 0.719637C22.8203 0.259595 22.1966 0.000793897 21.546 0V0Z" fill="#374957"/>
<path d="M6.49991 11.0001C7.38992 11.0001 8.25995 10.7362 8.99997 10.2417C9.74 9.74727 10.3168 9.04447 10.6574 8.2222C10.998 7.39993 11.0871 6.49513 10.9134 5.62222C10.7398 4.7493 10.3112 3.94748 9.68189 3.31814C9.05255 2.68881 8.25073 2.26022 7.37781 2.08659C6.5049 1.91296 5.6001 2.00207 4.77783 2.34267C3.95557 2.68326 3.25276 3.26004 2.7583 4.00006C2.26383 4.74008 1.99991 5.61011 1.99991 6.50012C2.00123 7.69319 2.47576 8.83702 3.31939 9.68064C4.16302 10.5243 5.30684 10.9988 6.49991 11.0001ZM6.49991 5.00012C6.79658 5.00012 7.08659 5.0881 7.33326 5.25292C7.57994 5.41774 7.7722 5.65201 7.88573 5.9261C7.99926 6.20019 8.02896 6.50179 7.97109 6.79276C7.91321 7.08373 7.77035 7.35101 7.56057 7.56078C7.35079 7.77056 7.08352 7.91342 6.79254 7.9713C6.50157 8.02918 6.19997 7.99948 5.92588 7.88594C5.65179 7.77241 5.41753 7.58015 5.2527 7.33348C5.08788 7.08681 4.99991 6.7968 4.99991 6.50012C4.99991 6.1023 5.15794 5.72077 5.43925 5.43946C5.72055 5.15816 6.10208 5.00012 6.49991 5.00012Z" fill="#374957"/>
<path d="M17.5 12.9999C16.61 12.9999 15.74 13.2638 15 13.7583C14.2599 14.2527 13.6832 14.9555 13.3426 15.7778C13.002 16.6001 12.9129 17.5049 13.0865 18.3778C13.2601 19.2507 13.6887 20.0525 14.3181 20.6818C14.9474 21.3112 15.7492 21.7398 16.6221 21.9134C17.495 22.087 18.3998 21.9979 19.2221 21.6573C20.0444 21.3167 20.7472 20.74 21.2416 19.9999C21.7361 19.2599 22 18.3899 22 17.4999C21.9987 16.3068 21.5242 15.163 20.6806 14.3194C19.8369 13.4757 18.6931 13.0012 17.5 12.9999ZM17.5 18.9999C17.2034 18.9999 16.9134 18.9119 16.6667 18.7471C16.42 18.5823 16.2277 18.348 16.1142 18.0739C16.0007 17.7998 15.971 17.4982 16.0289 17.2072C16.0867 16.9163 16.2296 16.649 16.4394 16.4392C16.6492 16.2294 16.9164 16.0866 17.2074 16.0287C17.4984 15.9708 17.8 16.0005 18.0741 16.1141C18.3481 16.2276 18.5824 16.4198 18.7472 16.6665C18.9121 16.9132 19 17.2032 19 17.4999C19 17.8977 18.842 18.2792 18.5607 18.5605C18.2794 18.8418 17.8979 18.9999 17.5 18.9999Z" fill="#374957"/>
</g>
<defs>
<clipPath id="clip0_406_318">
<rect width="24" height="24" fill="white"/>
</clipPath>
</defs>
</svg>
