<svg width="24" height="24" viewBox="0 0 24 24" fill="none" xmlns="http://www.w3.org/2000/svg">
<g clip-path="url(#clip0_406_208)">
<path d="M21 15H24V24H0V6.5C0 5.57174 0.368749 4.6815 1.02513 4.02513C1.6815 3.36875 2.57174 3 3.5 3H13V6H3.5C3.36739 6 3.24021 6.05268 3.14645 6.14645C3.05268 6.24021 3 6.36739 3 6.5V6.96L10.361 14.321C10.8025 14.7427 11.3895 14.978 12 14.978C12.6105 14.978 13.1975 14.7427 13.639 14.321L13.966 13.994C14.277 14.3128 14.6487 14.5661 15.0592 14.7389C15.4697 14.9117 15.9106 15.0005 16.356 15H17.203L15.76 16.442C15.2662 16.936 14.68 17.3278 14.0348 17.5952C13.3895 17.8625 12.6979 18.0001 11.9995 18.0001C11.3011 18.0001 10.6095 17.8625 9.96424 17.5952C9.319 17.3278 8.73276 16.936 8.239 16.442L3 11.2V21H21V15ZM15 0V11.647C15.0003 11.9011 15.0723 12.15 15.2077 12.3651C15.3432 12.5801 15.5366 12.7525 15.7656 12.8625C15.9947 12.9725 16.2502 13.0156 16.5027 12.9869C16.7552 12.9581 16.9945 12.8587 17.193 12.7L19.5 10.856L21.807 12.7C22.0055 12.8587 22.2448 12.9581 22.4973 12.9869C22.7498 13.0156 23.0053 12.9725 23.2344 12.8625C23.4634 12.7525 23.6568 12.5801 23.7923 12.3651C23.9277 12.15 23.9997 11.9011 24 11.647V0H15Z" fill="#374957"/>
</g>
<defs>
<clipPath id="clip0_406_208">
<rect width="24" height="24" fill="white"/>
</clipPath>
</defs>
</svg>
