<svg width="24" height="24" viewBox="0 0 24 24" fill="none" xmlns="http://www.w3.org/2000/svg">
<g clip-path="url(#clip0_406_315)">
<path d="M22.9 1.10018C22.1964 0.398901 21.2434 0.00512695 20.25 0.00512695C19.2566 0.00512695 18.3036 0.398901 17.6 1.10018L15.112 3.58418C14.4759 4.2272 13.6129 4.5949 12.7085 4.60817C11.8041 4.62145 10.9307 4.27925 10.276 3.65518L8.186 5.80718L10.361 7.98218L2.172 16.1712C1.60859 16.7346 1.2263 17.4535 1.07415 18.2357C0.921992 19.0178 1.00691 19.8276 1.318 20.5612L0 21.8792L2.121 24.0002L3.439 22.6822C4.17245 22.9931 4.98202 23.0778 5.76397 22.9257C6.54592 22.7736 7.26463 22.3914 7.828 21.8282L16.018 13.6392L18.193 15.8142L20.345 13.7242C19.7209 13.0693 19.3786 12.1957 19.3919 11.2912C19.4052 10.3866 19.7729 9.52342 20.416 8.88718L22.9 6.40018C23.6013 5.69653 23.9951 4.74361 23.9951 3.75018C23.9951 2.75675 23.6013 1.80382 22.9 1.10018ZM5.707 19.7072C5.51663 19.8892 5.26339 19.9908 5 19.9908C4.73661 19.9908 4.48337 19.8892 4.293 19.7072C4.10553 19.5196 4.00021 19.2653 4.00021 19.0002C4.00021 18.735 4.10553 18.4807 4.293 18.2932L12.482 10.1032L13.9 11.5182L5.707 19.7072ZM20.781 4.28018L18.294 6.76618C17.4237 7.63176 16.8169 8.72647 16.544 9.92318L14.077 7.45618C15.2737 7.18326 16.3684 6.57644 17.234 5.70618L19.72 3.21918C19.8607 3.07848 20.0515 2.99944 20.2505 2.99944C20.4495 2.99944 20.6403 3.07848 20.781 3.21918C20.9217 3.35987 21.0007 3.5507 21.0007 3.74968C21.0007 3.94865 20.9217 4.13948 20.781 4.28018Z" fill="#374957"/>
</g>
<defs>
<clipPath id="clip0_406_315">
<rect width="24" height="24" fill="white"/>
</clipPath>
</defs>
</svg>
