<svg width="24" height="24" viewBox="0 0 24 24" fill="none" xmlns="http://www.w3.org/2000/svg">
<g clip-path="url(#clip0_406_135)">
<path d="M13 7V15H11V12.5C11 11.0413 10.4205 9.64237 9.38909 8.61092C8.35764 7.57946 6.95869 7 5.5 7C4.04131 7 2.64236 7.57946 1.61091 8.61092C0.579463 9.64237 0 11.0413 0 12.5L0 24H3V18H21V24H24V7H13ZM3 12.5C3 11.837 3.26339 11.2011 3.73223 10.7322C4.20107 10.2634 4.83696 10 5.5 10C6.16304 10 6.79893 10.2634 7.26777 10.7322C7.73661 11.2011 8 11.837 8 12.5V15H3V12.5ZM16 15V10H17V12H20V10H21V15H16ZM5.5 7C4.80777 7 4.13108 6.79473 3.5555 6.41015C2.97993 6.02556 2.53133 5.47894 2.26642 4.83939C2.00151 4.19985 1.9322 3.49612 2.06725 2.81719C2.2023 2.13825 2.53564 1.51461 3.02513 1.02513C3.51461 0.535644 4.13825 0.202301 4.81718 0.0672531C5.49612 -0.0677952 6.19985 0.00151652 6.83939 0.266423C7.47893 0.53133 8.02556 0.979934 8.41014 1.55551C8.79473 2.13108 9 2.80777 9 3.5C9 4.42826 8.63125 5.3185 7.97487 5.97488C7.3185 6.63125 6.42826 7 5.5 7Z" fill="#374957"/>
</g>
<defs>
<clipPath id="clip0_406_135">
<rect width="24" height="24" fill="white"/>
</clipPath>
</defs>
</svg>
