<svg width="24" height="24" viewBox="0 0 24 24" fill="none" xmlns="http://www.w3.org/2000/svg">
<g clip-path="url(#clip0_406_239)">
<path d="M20 10.9991C17.7909 10.9991 16.0001 12.7899 16.0001 14.9991V19.9991C16.0001 22.2082 17.7909 23.9991 20 23.9991C22.2092 23.9991 24 22.2082 24 19.9991V14.9991C24 12.7899 22.2092 10.9991 20 10.9991ZM21 19.9991C21 20.5514 20.5523 20.9991 20 20.9991C19.4478 20.9991 19.0001 20.5514 19.0001 19.9991V14.9991C19.0001 14.4468 19.4478 13.9991 20 13.9991C20.5523 13.9991 21 14.4468 21 14.9991V19.9991Z" fill="#374957"/>
<path d="M10.5 14.9991C9.98784 15.0039 9.48038 15.0973 9 15.2751V15.0821C9.00056 14.4842 9.48511 13.9996 10.083 13.9991H13.5V10.9991H10.083C7.82916 11.0019 6.00277 12.8282 6 15.0821V18.9571C6 18.9571 6.00712 19.3175 6 19.4991C6 21.9844 8.01473 23.9991 10.5 23.9991C12.9853 23.9991 15 21.9844 15 19.4991C15 17.0139 12.9853 14.9991 10.5 14.9991ZM10.5 20.9991C9.67158 20.9991 9 20.3275 9 19.4991C9 18.6706 9.67158 17.9991 10.5 17.9991C11.3284 17.9991 12 18.6706 12 19.4991C12 20.3275 11.3284 20.9991 10.5 20.9991Z" fill="#374957"/>
<path d="M20.4711 3.52945C15.8071 -1.16185 8.22306 -1.18397 3.53176 3.48009C-0.438782 7.42758 -1.145 13.599 1.83114 18.3414L4.02316 16.1484C1.72337 11.7519 3.42325 6.32343 7.81984 4.0237C9.10975 3.34898 10.5444 2.99784 12.0001 3.00047C14.3843 3.00881 16.6683 3.96042 18.3531 5.64745L16.0001 8.00043H21.9092C22.5111 8.001 22.9996 7.5134 23.0002 6.91144C23.0002 6.91078 23.0002 6.91012 23.0002 6.90942V1.00045L20.4711 3.52945Z" fill="#374957"/>
</g>
<defs>
<clipPath id="clip0_406_239">
<rect width="24" height="24" fill="white"/>
</clipPath>
</defs>
</svg>
