<svg width="24" height="24" viewBox="0 0 24 24" fill="none" xmlns="http://www.w3.org/2000/svg">
<g clip-path="url(#clip0_406_247)">
<path d="M22 11.351V6H18.955C18.9194 4.8469 18.6372 3.7148 18.1275 2.67986C17.6178 1.64491 16.8924 0.731138 16 0C16.0085 0.396283 15.9366 0.790179 15.7889 1.15798C15.6411 1.52578 15.4204 1.85987 15.1401 2.14015C14.8599 2.42043 14.5258 2.64109 14.158 2.78886C13.7902 2.93664 13.3963 3.00845 13 3H10C6.934 3 5.751 4.691 5.293 6H2V11.351C1.40362 11.6339 0.899384 12.0796 0.5455 12.6368C0.191615 13.194 0.00250632 13.8399 0 14.5L0 24H24V14.5C23.9975 13.8399 23.8084 13.194 23.4545 12.6368C23.1006 12.0796 22.5964 11.6339 22 11.351ZM19 9V11H5V9H19ZM21 21H3V14.5C3 14.3674 3.05268 14.2402 3.14645 14.1464C3.24021 14.0527 3.36739 14 3.5 14H20.5C20.6326 14 20.7598 14.0527 20.8536 14.1464C20.9473 14.2402 21 14.3674 21 14.5V21Z" fill="#374957"/>
</g>
<defs>
<clipPath id="clip0_406_247">
<rect width="24" height="24" fill="white"/>
</clipPath>
</defs>
</svg>
