<svg width="24" height="24" viewBox="0 0 24 24" fill="none" xmlns="http://www.w3.org/2000/svg">
<g clip-path="url(#clip0_406_393)">
<path d="M15.5 3H13.5V0H10.5V3H8.5C7.0418 3.00159 5.64377 3.58156 4.61267 4.61267C3.58156 5.64377 3.00159 7.0418 3 8.5V15C3 17.3869 3.94821 19.6761 5.63604 21.364C7.32387 23.0518 9.61305 24 12 24C14.3869 24 16.6761 23.0518 18.364 21.364C20.0518 19.6761 21 17.3869 21 15V8.5C20.9984 7.0418 20.4184 5.64377 19.3873 4.61267C18.3562 3.58156 16.9582 3.00159 15.5 3ZM18 15C18 16.5913 17.3679 18.1174 16.2426 19.2426C15.1174 20.3679 13.5913 21 12 21C10.4087 21 8.88258 20.3679 7.75736 19.2426C6.63214 18.1174 6 16.5913 6 15V8.5C6 7.83696 6.26339 7.20107 6.73223 6.73223C7.20107 6.26339 7.83696 6 8.5 6H15.5C16.163 6 16.7989 6.26339 17.2678 6.73223C17.7366 7.20107 18 7.83696 18 8.5V15Z" fill="#374957"/>
<path d="M13.5 7.99969H10.5V12.9997H13.5V7.99969Z" fill="#374957"/>
</g>
<defs>
<clipPath id="clip0_406_393">
<rect width="24" height="24" fill="white"/>
</clipPath>
</defs>
</svg>
