<svg width="24" height="24" viewBox="0 0 24 24" fill="none" xmlns="http://www.w3.org/2000/svg">
<g clip-path="url(#clip0_406_147)">
<path d="M23.9999 4.00031C23.9999 3.20466 23.6839 2.44159 23.1213 1.87898C22.5587 1.31638 21.7956 1.00031 20.9999 1.00031H10.9999C10.2043 1.00031 9.44123 1.31638 8.87862 1.87898C8.31601 2.44159 7.99994 3.20466 7.99994 4.00031V12.6073C6.93213 12.0624 5.71551 11.8813 4.53528 12.0915C3.35504 12.3018 2.27583 12.8919 1.4619 13.7721C0.647969 14.6523 0.143901 15.7742 0.0264192 16.9673C-0.091063 18.1603 0.184475 19.3591 0.811093 20.3811C1.43771 21.4031 2.38109 22.1924 3.49764 22.6289C4.6142 23.0653 5.84277 23.125 6.99636 22.7988C8.14995 22.4726 9.16539 21.7785 9.88811 20.822C10.6108 19.8655 11.0012 18.6991 10.9999 17.5003V17.4133V4.00031H20.9999V12.6073C19.9321 12.0624 18.7155 11.8813 17.5353 12.0915C16.355 12.3018 15.2758 12.8919 14.4619 13.7721C13.648 14.6523 13.1439 15.7742 13.0264 16.9673C12.9089 18.1603 13.1845 19.3591 13.8111 20.3811C14.4377 21.4031 15.3811 22.1924 16.4976 22.6289C17.6142 23.0653 18.8428 23.125 19.9964 22.7988C21.15 22.4726 22.1654 21.7785 22.8881 20.822C23.6108 19.8655 24.0012 18.6991 23.9999 17.5003V17.4373V4.00031ZM5.49994 20.0003C5.00549 20.0003 4.52214 19.8537 4.11102 19.579C3.69989 19.3043 3.37946 18.9138 3.19024 18.457C3.00102 18.0002 2.95152 17.4975 3.04798 17.0126C3.14444 16.5276 3.38254 16.0822 3.73218 15.7325C4.08181 15.3829 4.52726 15.1448 5.01222 15.0483C5.49717 14.9519 5.99984 15.0014 6.45665 15.1906C6.91347 15.3798 7.30391 15.7003 7.57862 16.1114C7.85332 16.5225 7.99994 17.0059 7.99994 17.5003C7.99994 18.1633 7.73655 18.7992 7.26771 19.2681C6.79887 19.7369 6.16298 20.0003 5.49994 20.0003ZM18.4999 20.0003C18.0055 20.0003 17.5221 19.8537 17.111 19.579C16.6999 19.3043 16.3795 18.9138 16.1902 18.457C16.001 18.0002 15.9515 17.4975 16.048 17.0126C16.1444 16.5276 16.3825 16.0822 16.7322 15.7325C17.0818 15.3829 17.5273 15.1448 18.0122 15.0483C18.4972 14.9519 18.9998 15.0014 19.4567 15.1906C19.9135 15.3798 20.3039 15.7003 20.5786 16.1114C20.8533 16.5225 20.9999 17.0059 20.9999 17.5003C20.9999 18.1633 20.7366 18.7992 20.2677 19.2681C19.7989 19.7369 19.163 20.0003 18.4999 20.0003Z" fill="#374957"/>
</g>
<defs>
<clipPath id="clip0_406_147">
<rect width="24" height="24" fill="white"/>
</clipPath>
</defs>
</svg>
