<svg width="24" height="24" viewBox="0 0 24 24" fill="none" xmlns="http://www.w3.org/2000/svg">
<g clip-path="url(#clip0_406_250)">
<path d="M12 0C8.8174 0 5.76515 1.26428 3.51472 3.51472C1.26428 5.76515 0 8.8174 0 12C0 15.1826 1.26428 18.2348 3.51472 20.4853C5.76515 22.7357 8.8174 24 12 24H12.621L24 12.621V12C23.9966 8.81846 22.7312 5.76821 20.4815 3.51852C18.2318 1.26883 15.1815 0.00344108 12 0V0ZM3 12C3.00946 9.79405 3.82876 7.6684 5.3023 6.02676C6.77584 4.38513 8.80098 3.34185 10.9931 3.09507C13.1852 2.84829 15.3916 3.41521 17.1933 4.68814C18.9949 5.96107 20.2663 7.85137 20.766 10H20.5C17.7152 10 15.0445 11.1062 13.0754 13.0754C11.1062 15.0445 10 17.7152 10 20.5V20.767C8.01391 20.3123 6.24054 19.1979 4.96925 17.6057C3.69796 16.0135 3.00378 14.0375 3 12Z" fill="#374957"/>
</g>
<defs>
<clipPath id="clip0_406_250">
<rect width="24" height="24" fill="white"/>
</clipPath>
</defs>
</svg>
