<svg width="24" height="24" viewBox="0 0 24 24" fill="none" xmlns="http://www.w3.org/2000/svg">
<g clip-path="url(#clip0_406_138)">
<path d="M23.9998 4.00024H6.99982V7.00024H23.9998V4.00024Z" fill="#374957"/>
<path d="M23.9998 10.9998H6.99982V13.9998H23.9998V10.9998Z" fill="#374957"/>
<path d="M23.9998 18H6.99982V21H23.9998V18Z" fill="#374957"/>
<path d="M2.5 8C3.88071 8 5 6.88071 5 5.5C5 4.11929 3.88071 3 2.5 3C1.11929 3 0 4.11929 0 5.5C0 6.88071 1.11929 8 2.5 8Z" fill="#374957"/>
<path d="M2.5 14.4997C3.88071 14.4997 5 13.3805 5 11.9997C5 10.619 3.88071 9.49976 2.5 9.49976C1.11929 9.49976 0 10.619 0 11.9997C0 13.3805 1.11929 14.4997 2.5 14.4997Z" fill="#374957"/>
<path d="M2.5 21.5C3.88071 21.5 5 20.3807 5 19C5 17.6193 3.88071 16.5 2.5 16.5C1.11929 16.5 0 17.6193 0 19C0 20.3807 1.11929 21.5 2.5 21.5Z" fill="#374957"/>
</g>
<defs>
<clipPath id="clip0_406_138">
<rect width="24" height="24" fill="white"/>
</clipPath>
</defs>
</svg>
