<svg width="24" height="24" viewBox="0 0 24 24" fill="none" xmlns="http://www.w3.org/2000/svg">
<g clip-path="url(#clip0_406_17)">
<path d="M24 24H17V21H21V17H24V24ZM24 3.5C24 2.57174 23.6313 1.6815 22.9749 1.02513C22.3185 0.368749 21.4283 0 20.5 0H17V3H20.5C20.632 3.00181 20.7582 3.05507 20.8516 3.14845C20.9449 3.24183 20.9982 3.36796 21 3.5V7H24V3.5ZM7 21H3V17H0V24H7V21ZM3 3.5C3 3.36739 3.05268 3.24021 3.14645 3.14645C3.24021 3.05268 3.36739 3 3.5 3H7V0H3.5C2.57174 0 1.6815 0.368749 1.02513 1.02513C0.368749 1.6815 0 2.57174 0 3.5L0 7H3V3.5ZM16 12C16 11.2089 15.7654 10.4355 15.3259 9.77772C14.8864 9.11992 14.2616 8.60723 13.5307 8.30448C12.7998 8.00173 11.9956 7.92252 11.2196 8.07686C10.4437 8.2312 9.73098 8.61216 9.17157 9.17157C8.61216 9.73098 8.2312 10.4437 8.07686 11.2196C7.92252 11.9956 8.00173 12.7998 8.30448 13.5307C8.60723 14.2616 9.11992 14.8864 9.77772 15.3259C10.4355 15.7654 11.2089 16 12 16C13.0605 15.9987 14.0771 15.5768 14.827 14.827C15.5768 14.0771 15.9987 13.0605 16 12Z" fill="#374957"/>
</g>
<defs>
<clipPath id="clip0_406_17">
<rect width="24" height="24" fill="white"/>
</clipPath>
</defs>
</svg>
