<svg width="24" height="24" viewBox="0 0 24 24" fill="none" xmlns="http://www.w3.org/2000/svg">
<g clip-path="url(#clip0_406_38)">
<path d="M12 0C9.62663 0 7.30655 0.703788 5.33316 2.02236C3.35977 3.34094 1.8217 5.21509 0.913451 7.4078C0.00519943 9.60051 -0.232441 12.0133 0.230582 14.3411C0.693605 16.6689 1.83649 18.8071 3.51472 20.4853C5.19295 22.1635 7.33115 23.3064 9.65892 23.7694C11.9867 24.2324 14.3995 23.9948 16.5922 23.0866C18.7849 22.1783 20.6591 20.6402 21.9776 18.6668C23.2962 16.6935 24 14.3734 24 12C23.9966 8.81846 22.7312 5.76821 20.4815 3.51852C18.2318 1.26883 15.1815 0.00344108 12 0V0ZM13.5 20.865V18H10.5V20.865C8.66116 20.5504 6.96522 19.6731 5.64608 18.3539C4.32693 17.0348 3.44957 15.3388 3.13501 13.5H6.00001V10.5H3.13501C3.44957 8.66116 4.32693 6.96522 5.64608 5.64607C6.96522 4.32693 8.66116 3.44957 10.5 3.135V6H13.5V3.135C15.3391 3.44901 17.0353 4.32619 18.3546 5.64543C19.6738 6.96468 20.551 8.66092 20.865 10.5H18V13.5H20.865C20.551 15.3391 19.6738 17.0353 18.3546 18.3546C17.0353 19.6738 15.3391 20.551 13.5 20.865ZM13.5 10.5H16V13.5H13.5V16H10.5V13.5H8.00001V10.5H10.5V8H13.5V10.5Z" fill="#374957"/>
</g>
<defs>
<clipPath id="clip0_406_38">
<rect width="24" height="24" fill="white"/>
</clipPath>
</defs>
</svg>
