<svg width="24" height="24" viewBox="0 0 24 24" fill="none" xmlns="http://www.w3.org/2000/svg">
<g clip-path="url(#clip0_406_416)">
<path d="M10.5421 4.3217L10.5651 19.0007H13.5651L13.5421 4.3397L16.3061 7.1007L18.4271 4.9787L14.5081 1.0627C14.1831 0.737655 13.7972 0.479815 13.3726 0.303901C12.9479 0.127987 12.4928 0.0374451 12.0331 0.0374451C11.5734 0.0374451 11.1183 0.127987 10.6936 0.303901C10.269 0.479815 9.88311 0.737655 9.5581 1.0627L5.6391 4.9817L7.7601 7.1007L10.5421 4.3217Z" fill="#374957"/>
<path d="M21 15.9994V20.9994H3V15.9994H0V20.9994C0 21.795 0.31607 22.5581 0.87868 23.1207C1.44129 23.6833 2.20435 23.9994 3 23.9994H21C21.7956 23.9994 22.5587 23.6833 23.1213 23.1207C23.6839 22.5581 24 21.795 24 20.9994V15.9994H21Z" fill="#374957"/>
</g>
<defs>
<clipPath id="clip0_406_416">
<rect width="24" height="24" fill="white"/>
</clipPath>
</defs>
</svg>
