<svg width="24" height="24" viewBox="0 0 24 24" fill="none" xmlns="http://www.w3.org/2000/svg">
<g clip-path="url(#clip0_406_86)">
<path d="M21 0H3C2.20435 0 1.44129 0.31607 0.87868 0.87868C0.31607 1.44129 0 2.20435 0 3L0 24H24V3C24 2.20435 23.6839 1.44129 23.1213 0.87868C22.5587 0.31607 21.7956 0 21 0V0ZM21 21H18V16C18 15.4696 17.7893 14.9609 17.4142 14.5858C17.0391 14.2107 16.5304 14 16 14H8C7.46957 14 6.96086 14.2107 6.58579 14.5858C6.21071 14.9609 6 15.4696 6 16V21H3V3H21V21Z" fill="#374957"/>
<path d="M11.9998 12.0006C13.9328 12.0006 15.4998 10.4336 15.4998 8.50061C15.4998 6.56761 13.9328 5.00061 11.9998 5.00061C10.0668 5.00061 8.49982 6.56761 8.49982 8.50061C8.49982 10.4336 10.0668 12.0006 11.9998 12.0006Z" fill="#374957"/>
</g>
<defs>
<clipPath id="clip0_406_86">
<rect width="24" height="24" fill="white"/>
</clipPath>
</defs>
</svg>
