<svg width="24" height="24" viewBox="0 0 24 24" fill="none" xmlns="http://www.w3.org/2000/svg">
<g clip-path="url(#clip0_406_281)">
<path d="M24 5.5C23.9991 4.79411 23.7852 4.10493 23.3862 3.52258C22.9873 2.94023 22.4219 2.49183 21.764 2.236C21.5082 1.5781 21.0598 1.01271 20.4774 0.613775C19.8951 0.214839 19.2059 0.000921875 18.5 0L5.5 0C4.79411 0.000921875 4.10493 0.214839 3.52258 0.613775C2.94023 1.01271 2.49183 1.5781 2.236 2.236C1.5781 2.49183 1.01271 2.94023 0.613775 3.52258C0.214839 4.10493 0.000921875 4.79411 0 5.5L0 8H1.616L3.681 24H20.319L22.383 8H24V5.5ZM5 3.5C5 3.36739 5.05268 3.24021 5.14645 3.14645C5.24021 3.05268 5.36739 3 5.5 3H18.5C18.6326 3 18.7598 3.05268 18.8536 3.14645C18.9473 3.24021 19 3.36739 19 3.5V5H5V3.5ZM6.319 21L5.674 16H9.184C10.084 19.959 13.917 19.957 14.816 16H18.326L17.681 21H6.319ZM18.713 13H14.813C13.913 9.041 10.08 9.043 9.181 13H5.281L4.642 8H19.359L18.713 13Z" fill="#374957"/>
</g>
<defs>
<clipPath id="clip0_406_281">
<rect width="24" height="24" fill="white"/>
</clipPath>
</defs>
</svg>
