<svg width="24" height="24" viewBox="0 0 24 24" fill="none" xmlns="http://www.w3.org/2000/svg">
<g clip-path="url(#clip0_406_294)">
<path d="M11.273 23.9999C10.8135 24.0009 10.3584 23.9109 9.9339 23.735C9.50943 23.559 9.12403 23.3007 8.8 22.9749L6.213 20.3889L8.334 18.2679L10.92 20.8539C11.0137 20.9473 11.1407 20.9998 11.273 20.9998C11.4053 20.9998 11.5323 20.9473 11.626 20.8539L16.74 15.7399L18.861 17.8609L13.748 22.9749C13.4237 23.3009 13.038 23.5594 12.6132 23.7353C12.1883 23.9113 11.7328 24.0012 11.273 23.9999ZM1.885 20.4749L4.014 18.3459C3.69888 18.0892 3.44453 17.7658 3.26921 17.3991C3.09389 17.0324 3.00196 16.6314 3 16.2249C3.02629 15.5846 3.25525 14.9692 3.65388 14.4674C4.05252 13.9656 4.60021 13.6033 5.218 13.4329L7.383 12.8759L6.048 11.0839C5.38675 10.2031 5.02949 9.13132 5.03 8.02991C5.01694 7.36315 5.13916 6.70065 5.38927 6.08244C5.63939 5.46422 6.01221 4.90312 6.48522 4.433C6.95823 3.96289 7.52162 3.59352 8.14136 3.34721C8.7611 3.1009 9.42433 2.98276 10.091 2.99991C11.3407 3.00025 12.5482 3.45238 13.4908 4.27294C14.4333 5.0935 15.0475 6.22716 15.22 7.46491L15.373 8.59991L16.51 8.74991C17.7481 8.91439 18.8849 9.52145 19.7102 10.4589C20.5356 11.3964 20.9937 12.6009 21 13.8499C20.9929 14.4017 20.8957 14.9486 20.712 15.4689L23 17.7539C23.6576 16.5593 24.0017 15.2175 24 13.8539C23.9923 12.0663 23.3991 10.3305 22.3112 8.91206C21.2232 7.49363 19.7005 6.47073 17.976 5.99991C17.4961 4.27664 16.4658 2.75758 15.0422 1.67432C13.6186 0.591066 11.8799 0.0030474 10.091 -8.75939e-05C9.03129 -0.0135765 7.97956 0.184684 6.99749 0.583064C6.01543 0.981444 5.1228 1.57192 4.37197 2.31986C3.62114 3.06781 3.02723 3.95815 2.62507 4.93868C2.22291 5.9192 2.02059 6.97016 2.03 8.02991C2.02857 9.15619 2.26364 10.2702 2.72 11.2999C1.89571 11.8329 1.21603 12.5615 0.741463 13.4208C0.266898 14.2801 0.0121837 15.2434 0 16.2249C0.000888513 17.0255 0.169021 17.8171 0.493625 18.549C0.818228 19.2809 1.29214 19.9368 1.885 20.4749Z" fill="#374957"/>
</g>
<defs>
<clipPath id="clip0_406_294">
<rect width="24" height="24" fill="white"/>
</clipPath>
</defs>
</svg>
