<svg width="24" height="24" viewBox="0 0 24 24" fill="none" xmlns="http://www.w3.org/2000/svg">
<g clip-path="url(#clip0_406_125)">
<path d="M1.76995 6.21544C1.25113 6.36223 0.79577 6.6772 0.475395 7.11089C0.15502 7.54457 -0.0122185 8.07239 -5.15029e-05 8.61144C0.0225217 9.26054 0.299449 9.87474 0.770949 10.3214L3.99995 13.5484V20.0004H10.4479L13.713 23.2674C13.936 23.4932 14.2017 23.6724 14.4945 23.7948C14.7874 23.9172 15.1016 23.9803 15.419 23.9804C15.6275 23.9803 15.8352 23.9534 16.037 23.9004C16.4482 23.7966 16.8247 23.5855 17.1279 23.2888C17.4311 22.9921 17.6502 22.6204 17.763 22.2114L24 -0.015564L1.76995 6.21544ZM3.53295 8.85644L16.742 5.15644L6.99995 14.9004V12.3264L3.53295 8.85644ZM15.133 20.4564L11.6749 17.0004H9.09995L18.834 7.25944L15.133 20.4564Z" fill="#374957"/>
</g>
<defs>
<clipPath id="clip0_406_125">
<rect width="24" height="24" fill="white"/>
</clipPath>
</defs>
</svg>
