<svg width="24" height="24" viewBox="0 0 24 24" fill="none" xmlns="http://www.w3.org/2000/svg">
<g clip-path="url(#clip0_406_327)">
<path d="M21 1.00024H3C2.20435 1.00024 1.44129 1.31631 0.87868 1.87892C0.31607 2.44153 0 3.20459 0 4.00024L0 23.0002H24V4.00024C24 3.20459 23.6839 2.44153 23.1213 1.87892C22.5587 1.31631 21.7956 1.00024 21 1.00024ZM20.774 4.00024L13.639 11.1352C13.1975 11.5569 12.6105 11.7922 12 11.7922C11.3895 11.7922 10.8025 11.5569 10.361 11.1352L3.226 4.00024H20.774ZM3 20.0002V8.01724L8.239 13.2562C8.73276 13.7502 9.319 14.1421 9.96424 14.4094C10.6095 14.6768 11.3011 14.8144 11.9995 14.8144C12.6979 14.8144 13.3895 14.6768 14.0348 14.4094C14.68 14.1421 15.2662 13.7502 15.76 13.2562L21 8.01724V20.0002H3Z" fill="#374957"/>
</g>
<defs>
<clipPath id="clip0_406_327">
<rect width="24" height="24" fill="white"/>
</clipPath>
</defs>
</svg>
